<?xml version="1.0" encoding="UTF-8" standalone="no"?>
<!DOCTYPE svg PUBLIC "-//W3C//DTD SVG 1.1//EN"
 "http://www.w3.org/Graphics/SVG/1.1/DTD/svg11.dtd">
<!-- Generated by graphviz version 2.36.0 (20140111.2315)
 -->
<!-- Title: /home/travis/build/AliceO2Group/AliceO2/Detectors/ITSMFT/ITS/reconstruction/include/ITSReconstruction/CA/gpu/gpu/Utils.h Pages: 1 -->
<svg width="177pt" height="276pt"
 viewBox="0.00 0.00 177.00 276.00" xmlns="http://www.w3.org/2000/svg" xmlns:xlink="http://www.w3.org/1999/xlink">
<g id="graph0" class="graph" transform="scale(1 1) rotate(0) translate(4 272)">
<title>/home/travis/build/AliceO2Group/AliceO2/Detectors/ITSMFT/ITS/reconstruction/include/ITSReconstruction/CA/gpu/gpu/Utils.h</title>
<!-- Node1 -->
<g id="node1" class="node"><title>Node1</title>
<polygon fill="#bfbfbf" stroke="black" points="-0.5,-193 -0.5,-267 136.5,-267 136.5,-193 -0.5,-193"/>
<text text-anchor="start" x="7.5" y="-255" font-family="Helvetica,sans-Serif" font-size="10.00">/home/travis/build</text>
<text text-anchor="start" x="7.5" y="-244" font-family="Helvetica,sans-Serif" font-size="10.00">/AliceO2Group/AliceO2</text>
<text text-anchor="start" x="7.5" y="-233" font-family="Helvetica,sans-Serif" font-size="10.00">/Detectors/ITSMFT/ITS</text>
<text text-anchor="start" x="7.5" y="-222" font-family="Helvetica,sans-Serif" font-size="10.00">/reconstruction/include</text>
<text text-anchor="start" x="7.5" y="-211" font-family="Helvetica,sans-Serif" font-size="10.00">/ITSReconstruction/CA/gpu</text>
<text text-anchor="middle" x="68" y="-200" font-family="Helvetica,sans-Serif" font-size="10.00">/gpu/Utils.h</text>
</g>
<!-- Node2 -->
<g id="node2" class="node"><title>Node2</title>
<g id="a_node2"><a xlink:href="../../df/d3d/Definitions_8h.html" target="_top" xlink:title="ITSReconstruction/CA\l/Definitions.h">
<polygon fill="none" stroke="black" points="10,-57 10,-87 126,-87 126,-57 10,-57"/>
<text text-anchor="start" x="18" y="-75" font-family="Helvetica,sans-Serif" font-size="10.00">ITSReconstruction/CA</text>
<text text-anchor="middle" x="68" y="-64" font-family="Helvetica,sans-Serif" font-size="10.00">/Definitions.h</text>
</a>
</g>
</g>
<!-- Node1&#45;&gt;Node2 -->
<g id="edge1" class="edge"><title>Node1&#45;&gt;Node2</title>
<path fill="none" stroke="midnightblue" d="M51.5725,-192.574C44.5034,-172.38 38.9009,-146.811 44,-124 46.1404,-114.425 50.2858,-104.527 54.5372,-96.0275"/>
<polygon fill="midnightblue" stroke="midnightblue" points="57.6707,-97.5895 59.2811,-87.1177 51.4919,-94.2996 57.6707,-97.5895"/>
</g>
<!-- Node4 -->
<g id="node4" class="node"><title>Node4</title>
<g id="a_node4"><a xlink:href="../../de/dd1/Stream_8h.html" target="_top" xlink:title="ITSReconstruction/CA\l/gpu/Stream.h">
<polygon fill="none" stroke="black" points="53,-125 53,-155 169,-155 169,-125 53,-125"/>
<text text-anchor="start" x="61" y="-143" font-family="Helvetica,sans-Serif" font-size="10.00">ITSReconstruction/CA</text>
<text text-anchor="middle" x="111" y="-132" font-family="Helvetica,sans-Serif" font-size="10.00">/gpu/Stream.h</text>
</a>
</g>
</g>
<!-- Node1&#45;&gt;Node4 -->
<g id="edge3" class="edge"><title>Node1&#45;&gt;Node4</title>
<path fill="none" stroke="midnightblue" d="M85.6138,-192.953C90.3322,-183.297 95.3089,-173.112 99.5938,-164.343"/>
<polygon fill="midnightblue" stroke="midnightblue" points="102.841,-165.669 104.087,-155.148 96.5518,-162.596 102.841,-165.669"/>
</g>
<!-- Node3 -->
<g id="node3" class="node"><title>Node3</title>
<polygon fill="none" stroke="#bfbfbf" points="49,-0.5 49,-19.5 87,-19.5 87,-0.5 49,-0.5"/>
<text text-anchor="middle" x="68" y="-7.5" font-family="Helvetica,sans-Serif" font-size="10.00">array</text>
</g>
<!-- Node2&#45;&gt;Node3 -->
<g id="edge2" class="edge"><title>Node2&#45;&gt;Node3</title>
<path fill="none" stroke="midnightblue" d="M68,-56.7808C68,-48.7812 68,-38.6887 68,-30.0168"/>
<polygon fill="midnightblue" stroke="midnightblue" points="71.5001,-29.7305 68,-19.7305 64.5001,-29.7306 71.5001,-29.7305"/>
</g>
<!-- Node4&#45;&gt;Node2 -->
<g id="edge4" class="edge"><title>Node4&#45;&gt;Node2</title>
<path fill="none" stroke="midnightblue" d="M101.67,-124.679C96.2039,-116.29 89.1735,-105.499 82.9519,-95.9495"/>
<polygon fill="midnightblue" stroke="midnightblue" points="85.7035,-93.7611 77.3122,-87.2931 79.8385,-97.5823 85.7035,-93.7611"/>
</g>
</g>
</svg>
