<?xml version="1.0" encoding="UTF-8" standalone="no"?>
<!DOCTYPE svg PUBLIC "-//W3C//DTD SVG 1.1//EN"
 "http://www.w3.org/Graphics/SVG/1.1/DTD/svg11.dtd">
<!-- Generated by graphviz version 2.36.0 (20140111.2315)
 -->
<!-- Title: /home/travis/build/AliceO2Group/AliceO2/Utilities/Publishers/src/DataPublisherDevice.cxx Pages: 1 -->
<svg width="1767pt" height="422pt"
 viewBox="0.00 0.00 1767.00 422.00" xmlns="http://www.w3.org/2000/svg" xmlns:xlink="http://www.w3.org/1999/xlink">
<g id="graph0" class="graph" transform="scale(1 1) rotate(0) translate(4 418)">
<title>/home/travis/build/AliceO2Group/AliceO2/Utilities/Publishers/src/DataPublisherDevice.cxx</title>
<!-- Node1 -->
<g id="node1" class="node"><title>Node1</title>
<polygon fill="#bfbfbf" stroke="black" points="877.5,-361 877.5,-413 1024.5,-413 1024.5,-361 877.5,-361"/>
<text text-anchor="start" x="885.5" y="-401" font-family="Helvetica,sans-Serif" font-size="10.00">/home/travis/build</text>
<text text-anchor="start" x="885.5" y="-390" font-family="Helvetica,sans-Serif" font-size="10.00">/AliceO2Group/AliceO2</text>
<text text-anchor="start" x="885.5" y="-379" font-family="Helvetica,sans-Serif" font-size="10.00">/Utilities/Publishers</text>
<text text-anchor="middle" x="951" y="-368" font-family="Helvetica,sans-Serif" font-size="10.00">/src/DataPublisherDevice.cxx</text>
</g>
<!-- Node2 -->
<g id="node2" class="node"><title>Node2</title>
<g id="a_node2"><a xlink:href="../../d8/d9b/DataPublisherDevice_8h.html" target="_top" xlink:title="Utility device for data publishing. ">
<polygon fill="none" stroke="black" points="795.5,-293 795.5,-323 922.5,-323 922.5,-293 795.5,-293"/>
<text text-anchor="start" x="803.5" y="-311" font-family="Helvetica,sans-Serif" font-size="10.00">Publishers/DataPublisher</text>
<text text-anchor="middle" x="859" y="-300" font-family="Helvetica,sans-Serif" font-size="10.00">Device.h</text>
</a>
</g>
</g>
<!-- Node1&#45;&gt;Node2 -->
<g id="edge1" class="edge"><title>Node1&#45;&gt;Node2</title>
<path fill="none" stroke="midnightblue" d="M920.876,-360.787C908.815,-350.693 895.095,-339.21 883.645,-329.627"/>
<polygon fill="midnightblue" stroke="midnightblue" points="885.679,-326.765 875.764,-323.031 881.186,-332.133 885.679,-326.765"/>
</g>
<!-- Node3 -->
<g id="node3" class="node"><title>Node3</title>
<g id="a_node3"><a xlink:href="../../dc/dcd/DataHeader_8h.html" target="_top" xlink:title="Headers/DataHeader.h">
<polygon fill="none" stroke="black" points="342.5,-68.5 342.5,-87.5 459.5,-87.5 459.5,-68.5 342.5,-68.5"/>
<text text-anchor="middle" x="401" y="-75.5" font-family="Helvetica,sans-Serif" font-size="10.00">Headers/DataHeader.h</text>
</a>
</g>
</g>
<!-- Node1&#45;&gt;Node3 -->
<g id="edge43" class="edge"><title>Node1&#45;&gt;Node3</title>
<path fill="none" stroke="midnightblue" d="M877.244,-382.702C727.519,-373.991 402,-343.907 402,-247 402,-247 402,-247 402,-189 402,-156.947 401.57,-119.642 401.274,-97.7484"/>
<polygon fill="midnightblue" stroke="midnightblue" points="404.771,-97.5073 401.131,-87.5575 397.772,-97.6058 404.771,-97.5073"/>
</g>
<!-- Node12 -->
<g id="node12" class="node"><title>Node12</title>
<g id="a_node12"><a xlink:href="../../d2/d09/HeartbeatFrame_8h.html" target="_top" xlink:title="Headers/HeartbeatFrame.h">
<polygon fill="none" stroke="black" points="1214.5,-236.5 1214.5,-255.5 1349.5,-255.5 1349.5,-236.5 1214.5,-236.5"/>
<text text-anchor="middle" x="1282" y="-243.5" font-family="Helvetica,sans-Serif" font-size="10.00">Headers/HeartbeatFrame.h</text>
</a>
</g>
</g>
<!-- Node1&#45;&gt;Node12 -->
<g id="edge44" class="edge"><title>Node1&#45;&gt;Node12</title>
<path fill="none" stroke="midnightblue" d="M1010.56,-360.989C1081.7,-331.115 1197.89,-282.32 1252.23,-259.502"/>
<polygon fill="midnightblue" stroke="midnightblue" points="1253.77,-262.653 1261.63,-255.554 1251.06,-256.199 1253.77,-262.653"/>
</g>
<!-- Node18 -->
<g id="node18" class="node"><title>Node18</title>
<polygon fill="none" stroke="#bfbfbf" points="786,-180.5 786,-199.5 932,-199.5 932,-180.5 786,-180.5"/>
<text text-anchor="middle" x="859" y="-187.5" font-family="Helvetica,sans-Serif" font-size="10.00">options/FairMQProgOptions.h</text>
</g>
<!-- Node1&#45;&gt;Node18 -->
<g id="edge47" class="edge"><title>Node1&#45;&gt;Node18</title>
<path fill="none" stroke="midnightblue" d="M952.383,-360.771C952.905,-329.114 949.68,-274.334 925,-236 916.156,-222.262 901.474,-211.638 888.2,-204.172"/>
<polygon fill="midnightblue" stroke="midnightblue" points="889.805,-201.061 879.325,-199.508 886.549,-207.258 889.805,-201.061"/>
</g>
<!-- Node33 -->
<g id="node33" class="node"><title>Node33</title>
<g id="a_node33"><a xlink:href="../../d2/d1b/SubframeMetadata_8h.html" target="_top" xlink:title="Headers/SubframeMetadata.h">
<polygon fill="none" stroke="black" points="1241.5,-298.5 1241.5,-317.5 1388.5,-317.5 1388.5,-298.5 1241.5,-298.5"/>
<text text-anchor="middle" x="1315" y="-305.5" font-family="Helvetica,sans-Serif" font-size="10.00">Headers/SubframeMetadata.h</text>
</a>
</g>
</g>
<!-- Node1&#45;&gt;Node33 -->
<g id="edge45" class="edge"><title>Node1&#45;&gt;Node33</title>
<path fill="none" stroke="midnightblue" d="M1024.66,-370.418C1096.09,-355.307 1202.53,-332.791 1264.74,-319.632"/>
<polygon fill="midnightblue" stroke="midnightblue" points="1265.64,-323.018 1274.7,-317.524 1264.2,-316.17 1265.64,-323.018"/>
</g>
<!-- Node2&#45;&gt;Node3 -->
<g id="edge2" class="edge"><title>Node2&#45;&gt;Node3</title>
<path fill="none" stroke="midnightblue" d="M795.332,-306.44C697.774,-304.327 517.392,-295.076 468,-256 461.424,-250.797 422.722,-141.313 407.319,-97.1909"/>
<polygon fill="midnightblue" stroke="midnightblue" points="410.61,-95.9975 404.015,-87.705 403.999,-98.2998 410.61,-95.9975"/>
</g>
<!-- Node7 -->
<g id="node7" class="node"><title>Node7</title>
<polygon fill="none" stroke="#bfbfbf" points="509,-6.5 509,-25.5 555,-25.5 555,-6.5 509,-6.5"/>
<text text-anchor="middle" x="532" y="-13.5" font-family="Helvetica,sans-Serif" font-size="10.00">cstring</text>
</g>
<!-- Node2&#45;&gt;Node7 -->
<g id="edge41" class="edge"><title>Node2&#45;&gt;Node7</title>
<path fill="none" stroke="midnightblue" d="M795.392,-297.214C702.33,-281.451 536.262,-247.342 501,-200 463.348,-149.449 501.335,-69.3059 521.353,-34.3073"/>
<polygon fill="midnightblue" stroke="midnightblue" points="524.368,-36.0845 526.444,-25.6952 518.342,-32.522 524.368,-36.0845"/>
</g>
<!-- Node2&#45;&gt;Node12 -->
<g id="edge11" class="edge"><title>Node2&#45;&gt;Node12</title>
<path fill="none" stroke="midnightblue" d="M922.785,-297.952C1000.47,-286.933 1131.27,-268.38 1211.77,-256.962"/>
<polygon fill="midnightblue" stroke="midnightblue" points="1212.4,-260.407 1221.81,-255.537 1211.42,-253.477 1212.4,-260.407"/>
</g>
<!-- Node15 -->
<g id="node15" class="node"><title>Node15</title>
<polygon fill="none" stroke="#bfbfbf" points="1715,-6.5 1715,-25.5 1759,-25.5 1759,-6.5 1715,-6.5"/>
<text text-anchor="middle" x="1737" y="-13.5" font-family="Helvetica,sans-Serif" font-size="10.00">vector</text>
</g>
<!-- Node2&#45;&gt;Node15 -->
<g id="edge42" class="edge"><title>Node2&#45;&gt;Node15</title>
<path fill="none" stroke="midnightblue" d="M922.825,-297.657C1017.99,-281.904 1186,-246.267 1186,-191 1186,-191 1186,-191 1186,-133 1186,-15.2849 1594.31,-69.1691 1706,-32 1707.91,-31.3628 1709.86,-30.633 1711.8,-29.8459"/>
<polygon fill="midnightblue" stroke="midnightblue" points="1713.56,-32.8944 1721.24,-25.5985 1710.69,-26.5111 1713.56,-32.8944"/>
</g>
<!-- Node16 -->
<g id="node16" class="node"><title>Node16</title>
<g id="a_node16"><a xlink:href="../../d2/dee/O2Device_8h.html" target="_top" xlink:title="O2Device/O2Device.h">
<polygon fill="none" stroke="black" points="801.5,-236.5 801.5,-255.5 916.5,-255.5 916.5,-236.5 801.5,-236.5"/>
<text text-anchor="middle" x="859" y="-243.5" font-family="Helvetica,sans-Serif" font-size="10.00">O2Device/O2Device.h</text>
</a>
</g>
</g>
<!-- Node2&#45;&gt;Node16 -->
<g id="edge16" class="edge"><title>Node2&#45;&gt;Node16</title>
<path fill="none" stroke="midnightblue" d="M859,-292.781C859,-284.781 859,-274.689 859,-266.017"/>
<polygon fill="midnightblue" stroke="midnightblue" points="862.5,-265.73 859,-255.731 855.5,-265.731 862.5,-265.73"/>
</g>
<!-- Node4 -->
<g id="node4" class="node"><title>Node4</title>
<polygon fill="none" stroke="#bfbfbf" points="0,-6.5 0,-25.5 46,-25.5 46,-6.5 0,-6.5"/>
<text text-anchor="middle" x="23" y="-13.5" font-family="Helvetica,sans-Serif" font-size="10.00">cstdint</text>
</g>
<!-- Node3&#45;&gt;Node4 -->
<g id="edge3" class="edge"><title>Node3&#45;&gt;Node4</title>
<path fill="none" stroke="midnightblue" d="M342.329,-74.8738C272.586,-71.0967 153.276,-60.6682 55,-32 52.7139,-31.3331 50.3854,-30.5237 48.08,-29.6302"/>
<polygon fill="midnightblue" stroke="midnightblue" points="49.4662,-26.4164 38.9002,-25.6344 46.6724,-32.8347 49.4662,-26.4164"/>
</g>
<!-- Node5 -->
<g id="node5" class="node"><title>Node5</title>
<polygon fill="none" stroke="#bfbfbf" points="64,-6.5 64,-25.5 116,-25.5 116,-6.5 64,-6.5"/>
<text text-anchor="middle" x="90" y="-13.5" font-family="Helvetica,sans-Serif" font-size="10.00">memory</text>
</g>
<!-- Node3&#45;&gt;Node5 -->
<g id="edge4" class="edge"><title>Node3&#45;&gt;Node5</title>
<path fill="none" stroke="midnightblue" d="M342.47,-71.6321C285.967,-65.4786 198.418,-53.3708 125,-32 122.501,-31.2725 119.942,-30.4139 117.402,-29.4818"/>
<polygon fill="midnightblue" stroke="midnightblue" points="118.442,-26.1276 107.858,-25.6441 115.83,-32.6222 118.442,-26.1276"/>
</g>
<!-- Node6 -->
<g id="node6" class="node"><title>Node6</title>
<polygon fill="none" stroke="#bfbfbf" points="134.5,-6.5 134.5,-25.5 183.5,-25.5 183.5,-6.5 134.5,-6.5"/>
<text text-anchor="middle" x="159" y="-13.5" font-family="Helvetica,sans-Serif" font-size="10.00">cassert</text>
</g>
<!-- Node3&#45;&gt;Node6 -->
<g id="edge5" class="edge"><title>Node3&#45;&gt;Node6</title>
<path fill="none" stroke="midnightblue" d="M347.208,-68.451C304.739,-60.9666 244.3,-48.675 193,-32 190.722,-31.2596 188.39,-30.4184 186.067,-29.5214"/>
<polygon fill="midnightblue" stroke="midnightblue" points="187.31,-26.2479 176.733,-25.6336 184.619,-32.7097 187.31,-26.2479"/>
</g>
<!-- Node3&#45;&gt;Node7 -->
<g id="edge6" class="edge"><title>Node3&#45;&gt;Node7</title>
<path fill="none" stroke="midnightblue" d="M419.769,-68.4035C441.851,-58.2896 478.719,-41.4036 504.139,-29.761"/>
<polygon fill="midnightblue" stroke="midnightblue" points="505.631,-32.9269 513.266,-25.5806 502.716,-26.5627 505.631,-32.9269"/>
</g>
<!-- Node8 -->
<g id="node8" class="node"><title>Node8</title>
<polygon fill="none" stroke="#bfbfbf" points="202,-6.5 202,-25.5 258,-25.5 258,-6.5 202,-6.5"/>
<text text-anchor="middle" x="230" y="-13.5" font-family="Helvetica,sans-Serif" font-size="10.00">algorithm</text>
</g>
<!-- Node3&#45;&gt;Node8 -->
<g id="edge7" class="edge"><title>Node3&#45;&gt;Node8</title>
<path fill="none" stroke="midnightblue" d="M373.881,-68.4311C346.691,-59.7139 303.707,-45.5898 267,-32 264.751,-31.1675 262.435,-30.2861 260.11,-29.3842"/>
<polygon fill="midnightblue" stroke="midnightblue" points="261.242,-26.0681 250.656,-25.634 258.661,-32.5748 261.242,-26.0681"/>
</g>
<!-- Node9 -->
<g id="node9" class="node"><title>Node9</title>
<polygon fill="none" stroke="#bfbfbf" points="431.5,-6.5 431.5,-25.5 490.5,-25.5 490.5,-6.5 431.5,-6.5"/>
<text text-anchor="middle" x="461" y="-13.5" font-family="Helvetica,sans-Serif" font-size="10.00">stdexcept</text>
</g>
<!-- Node3&#45;&gt;Node9 -->
<g id="edge8" class="edge"><title>Node3&#45;&gt;Node9</title>
<path fill="none" stroke="midnightblue" d="M409.597,-68.4035C418.864,-59.1361 433.817,-44.1828 445.212,-32.7876"/>
<polygon fill="midnightblue" stroke="midnightblue" points="447.823,-35.1266 452.419,-25.5806 442.873,-30.1768 447.823,-35.1266"/>
</g>
<!-- Node10 -->
<g id="node10" class="node"><title>Node10</title>
<polygon fill="none" stroke="#bfbfbf" points="573.5,-6.5 573.5,-25.5 614.5,-25.5 614.5,-6.5 573.5,-6.5"/>
<text text-anchor="middle" x="594" y="-13.5" font-family="Helvetica,sans-Serif" font-size="10.00">string</text>
</g>
<!-- Node3&#45;&gt;Node10 -->
<g id="edge9" class="edge"><title>Node3&#45;&gt;Node10</title>
<path fill="none" stroke="midnightblue" d="M440.216,-68.4385C473.667,-60.6026 522.752,-47.8331 564,-32 565.644,-31.3688 567.319,-30.6773 568.994,-29.9486"/>
<polygon fill="midnightblue" stroke="midnightblue" points="570.823,-32.956 578.379,-25.5287 567.84,-26.6232 570.823,-32.956"/>
</g>
<!-- Node11 -->
<g id="node11" class="node"><title>Node11</title>
<g id="a_node11"><a xlink:href="../../d7/df8/Types_8h.html" target="_top" xlink:title="MemoryResources/Types.h">
<polygon fill="none" stroke="black" points="276.5,-6.5 276.5,-25.5 413.5,-25.5 413.5,-6.5 276.5,-6.5"/>
<text text-anchor="middle" x="345" y="-13.5" font-family="Helvetica,sans-Serif" font-size="10.00">MemoryResources/Types.h</text>
</a>
</g>
</g>
<!-- Node3&#45;&gt;Node11 -->
<g id="edge10" class="edge"><title>Node3&#45;&gt;Node11</title>
<path fill="none" stroke="midnightblue" d="M392.977,-68.4035C384.41,-59.2252 370.639,-44.4699 360.043,-33.1173"/>
<polygon fill="midnightblue" stroke="midnightblue" points="362.39,-30.503 353.009,-25.5806 357.273,-35.2793 362.39,-30.503"/>
</g>
<!-- Node12&#45;&gt;Node3 -->
<g id="edge12" class="edge"><title>Node12&#45;&gt;Node3</title>
<path fill="none" stroke="midnightblue" d="M1214.31,-241.474C1151.9,-236.707 1057.35,-225.613 979,-200 960.859,-194.07 959.026,-186.269 941,-180 854.475,-149.909 593.74,-108.106 468.966,-89.1125"/>
<polygon fill="midnightblue" stroke="midnightblue" points="469.184,-85.6056 458.772,-87.5655 468.134,-92.5264 469.184,-85.6056"/>
</g>
<!-- Node13 -->
<g id="node13" class="node"><title>Node13</title>
<polygon fill="none" stroke="#bfbfbf" points="1233.5,-180.5 1233.5,-199.5 1292.5,-199.5 1292.5,-180.5 1233.5,-180.5"/>
<text text-anchor="middle" x="1263" y="-187.5" font-family="Helvetica,sans-Serif" font-size="10.00">functional</text>
</g>
<!-- Node12&#45;&gt;Node13 -->
<g id="edge13" class="edge"><title>Node12&#45;&gt;Node13</title>
<path fill="none" stroke="midnightblue" d="M1278.86,-236.083C1276.32,-228.849 1272.64,-218.409 1269.47,-209.397"/>
<polygon fill="midnightblue" stroke="midnightblue" points="1272.7,-208.023 1266.08,-199.751 1266.1,-210.346 1272.7,-208.023"/>
</g>
<!-- Node14 -->
<g id="node14" class="node"><title>Node14</title>
<polygon fill="none" stroke="#bfbfbf" points="1310.5,-180.5 1310.5,-199.5 1345.5,-199.5 1345.5,-180.5 1310.5,-180.5"/>
<text text-anchor="middle" x="1328" y="-187.5" font-family="Helvetica,sans-Serif" font-size="10.00">map</text>
</g>
<!-- Node12&#45;&gt;Node14 -->
<g id="edge14" class="edge"><title>Node12&#45;&gt;Node14</title>
<path fill="none" stroke="midnightblue" d="M1289.6,-236.083C1296.23,-228.298 1306.02,-216.801 1314.06,-207.367"/>
<polygon fill="midnightblue" stroke="midnightblue" points="1316.73,-209.633 1320.55,-199.751 1311.4,-205.094 1316.73,-209.633"/>
</g>
<!-- Node12&#45;&gt;Node15 -->
<g id="edge15" class="edge"><title>Node12&#45;&gt;Node15</title>
<path fill="none" stroke="midnightblue" d="M1299.01,-236.478C1367.91,-201.951 1626.63,-72.3084 1710.54,-30.258"/>
<polygon fill="midnightblue" stroke="midnightblue" points="1712.29,-33.2956 1719.67,-25.6865 1709.16,-27.0374 1712.29,-33.2956"/>
</g>
<!-- Node16&#45;&gt;Node9 -->
<g id="edge40" class="edge"><title>Node16&#45;&gt;Node9</title>
<path fill="none" stroke="midnightblue" d="M916.708,-242.508C980.715,-238.391 1078.02,-227.647 1101,-200 1124.35,-171.904 1086.36,-138.919 1063,-124 1009.58,-89.8867 561.18,-48.5753 500,-32 496.849,-31.1463 493.601,-30.1293 490.387,-29.0327"/>
<polygon fill="midnightblue" stroke="midnightblue" points="491.573,-25.7399 480.979,-25.5881 489.166,-32.3131 491.573,-25.7399"/>
</g>
<!-- Node17 -->
<g id="node17" class="node"><title>Node17</title>
<polygon fill="none" stroke="#bfbfbf" points="680,-180.5 680,-199.5 768,-199.5 768,-180.5 680,-180.5"/>
<text text-anchor="middle" x="724" y="-187.5" font-family="Helvetica,sans-Serif" font-size="10.00">FairMQDevice.h</text>
</g>
<!-- Node16&#45;&gt;Node17 -->
<g id="edge17" class="edge"><title>Node16&#45;&gt;Node17</title>
<path fill="none" stroke="midnightblue" d="M837.609,-236.444C815.293,-227.517 780.097,-213.439 754.792,-203.317"/>
<polygon fill="midnightblue" stroke="midnightblue" points="755.876,-199.981 745.291,-199.516 753.276,-206.48 755.876,-199.981"/>
</g>
<!-- Node16&#45;&gt;Node18 -->
<g id="edge18" class="edge"><title>Node16&#45;&gt;Node18</title>
<path fill="none" stroke="midnightblue" d="M859,-236.083C859,-229.006 859,-218.861 859,-209.986"/>
<polygon fill="midnightblue" stroke="midnightblue" points="862.5,-209.751 859,-199.751 855.5,-209.751 862.5,-209.751"/>
</g>
<!-- Node19 -->
<g id="node19" class="node"><title>Node19</title>
<g id="a_node19"><a xlink:href="../../d7/db2/Utilities_8h.html" target="_top" xlink:title="O2Device/Utilities.h">
<polygon fill="none" stroke="black" points="988,-180.5 988,-199.5 1092,-199.5 1092,-180.5 988,-180.5"/>
<text text-anchor="middle" x="1040" y="-187.5" font-family="Helvetica,sans-Serif" font-size="10.00">O2Device/Utilities.h</text>
</a>
</g>
</g>
<!-- Node16&#45;&gt;Node19 -->
<g id="edge19" class="edge"><title>Node16&#45;&gt;Node19</title>
<path fill="none" stroke="midnightblue" d="M887.68,-236.444C918.527,-227.241 967.728,-212.562 1001.83,-202.388"/>
<polygon fill="midnightblue" stroke="midnightblue" points="1002.87,-205.729 1011.45,-199.516 1000.87,-199.021 1002.87,-205.729"/>
</g>
<!-- Node32 -->
<g id="node32" class="node"><title>Node32</title>
<polygon fill="none" stroke="#bfbfbf" points="510.5,-180.5 510.5,-199.5 661.5,-199.5 661.5,-180.5 510.5,-180.5"/>
<text text-anchor="middle" x="586" y="-187.5" font-family="Helvetica,sans-Serif" font-size="10.00">Monitoring/MonitoringFactory.h</text>
</g>
<!-- Node16&#45;&gt;Node32 -->
<g id="edge39" class="edge"><title>Node16&#45;&gt;Node32</title>
<path fill="none" stroke="midnightblue" d="M815.742,-236.444C767.819,-226.964 690.522,-211.675 639,-201.483"/>
<polygon fill="midnightblue" stroke="midnightblue" points="639.544,-198.023 629.055,-199.516 638.186,-204.89 639.544,-198.023"/>
</g>
<!-- Node19&#45;&gt;Node3 -->
<g id="edge33" class="edge"><title>Node19&#45;&gt;Node3</title>
<path fill="none" stroke="midnightblue" d="M993.15,-180.425C954.871,-172.779 899.661,-160.283 853,-144 833.1,-137.056 830.3,-129.672 810,-124 693.548,-91.4614 552.291,-82.2783 469.937,-79.791"/>
<polygon fill="midnightblue" stroke="midnightblue" points="469.793,-76.2857 459.7,-79.5073 469.599,-83.283 469.793,-76.2857"/>
</g>
<!-- Node20 -->
<g id="node20" class="node"><title>Node20</title>
<g id="a_node20"><a xlink:href="../../dc/d03/MemoryResources_8h.html" target="_top" xlink:title="MemoryResources/MemoryResources.h">
<polygon fill="none" stroke="black" points="964.5,-68.5 964.5,-87.5 1157.5,-87.5 1157.5,-68.5 964.5,-68.5"/>
<text text-anchor="middle" x="1061" y="-75.5" font-family="Helvetica,sans-Serif" font-size="10.00">MemoryResources/MemoryResources.h</text>
</a>
</g>
</g>
<!-- Node19&#45;&gt;Node20 -->
<g id="edge20" class="edge"><title>Node19&#45;&gt;Node20</title>
<path fill="none" stroke="midnightblue" d="M1046.1,-180.191C1051.75,-171.46 1059.76,-157.478 1063,-144 1066.68,-128.719 1065.76,-110.835 1064.17,-97.6982"/>
<polygon fill="midnightblue" stroke="midnightblue" points="1067.59,-96.9485 1062.68,-87.5608 1060.67,-97.9623 1067.59,-96.9485"/>
</g>
<!-- Node26 -->
<g id="node26" class="node"><title>Node26</title>
<polygon fill="none" stroke="#bfbfbf" points="633,-6.5 633,-25.5 673,-25.5 673,-6.5 633,-6.5"/>
<text text-anchor="middle" x="653" y="-13.5" font-family="Helvetica,sans-Serif" font-size="10.00">utility</text>
</g>
<!-- Node19&#45;&gt;Node26 -->
<g id="edge37" class="edge"><title>Node19&#45;&gt;Node26</title>
<path fill="none" stroke="midnightblue" d="M1023.59,-180.271C992.404,-163.702 926.722,-128.9 916,-124 814.364,-77.5464 783.763,-78.1755 682,-32 680.645,-31.3852 679.263,-30.7387 677.874,-30.0736"/>
<polygon fill="midnightblue" stroke="midnightblue" points="679.321,-26.8841 668.81,-25.5505 676.195,-33.1475 679.321,-26.8841"/>
</g>
<!-- Node30 -->
<g id="node30" class="node"><title>Node30</title>
<g id="a_node30"><a xlink:href="../../d4/d00/Headers_2include_2Headers_2Stack_8h.html" target="_top" xlink:title="Headers/Stack.h">
<polygon fill="none" stroke="black" points="964,-124.5 964,-143.5 1054,-143.5 1054,-124.5 964,-124.5"/>
<text text-anchor="middle" x="1009" y="-131.5" font-family="Helvetica,sans-Serif" font-size="10.00">Headers/Stack.h</text>
</a>
</g>
</g>
<!-- Node19&#45;&gt;Node30 -->
<g id="edge34" class="edge"><title>Node19&#45;&gt;Node30</title>
<path fill="none" stroke="midnightblue" d="M1034.88,-180.083C1030.59,-172.613 1024.34,-161.724 1019.06,-152.52"/>
<polygon fill="midnightblue" stroke="midnightblue" points="1022.04,-150.681 1014.02,-143.751 1015.97,-154.166 1022.04,-150.681"/>
</g>
<!-- Node31 -->
<g id="node31" class="node"><title>Node31</title>
<polygon fill="none" stroke="#bfbfbf" points="862.5,-124.5 862.5,-143.5 907.5,-143.5 907.5,-124.5 862.5,-124.5"/>
<text text-anchor="middle" x="885" y="-131.5" font-family="Helvetica,sans-Serif" font-size="10.00">gsl/gsl</text>
</g>
<!-- Node19&#45;&gt;Node31 -->
<g id="edge38" class="edge"><title>Node19&#45;&gt;Node31</title>
<path fill="none" stroke="midnightblue" d="M1015.44,-180.444C989.019,-171.239 946.875,-156.556 917.672,-146.383"/>
<polygon fill="midnightblue" stroke="midnightblue" points="918.524,-142.973 907.929,-142.988 916.221,-149.583 918.524,-142.973"/>
</g>
<!-- Node20&#45;&gt;Node7 -->
<g id="edge25" class="edge"><title>Node20&#45;&gt;Node7</title>
<path fill="none" stroke="midnightblue" d="M964.435,-70.0674C830.775,-60.1943 601.528,-42.157 564,-32 561.651,-31.3643 559.262,-30.5657 556.902,-29.6697"/>
<polygon fill="midnightblue" stroke="midnightblue" points="558.104,-26.376 547.537,-25.6079 555.318,-32.798 558.104,-26.376"/>
</g>
<!-- Node20&#45;&gt;Node10 -->
<g id="edge26" class="edge"><title>Node20&#45;&gt;Node10</title>
<path fill="none" stroke="midnightblue" d="M964.365,-71.1137C855.499,-63.7666 685.698,-49.951 624,-32 622.029,-31.4266 620.032,-30.7267 618.054,-29.946"/>
<polygon fill="midnightblue" stroke="midnightblue" points="619.071,-26.5624 608.522,-25.5809 616.157,-32.9268 619.071,-26.5624"/>
</g>
<!-- Node20&#45;&gt;Node15 -->
<g id="edge29" class="edge"><title>Node20&#45;&gt;Node15</title>
<path fill="none" stroke="midnightblue" d="M1157.56,-69.0919C1162.44,-68.7167 1167.28,-68.3507 1172,-68 1409.22,-50.3877 1476.06,-92.9195 1706,-32 1708.34,-31.3799 1710.72,-30.5805 1713.06,-29.6742"/>
<polygon fill="midnightblue" stroke="midnightblue" points="1714.61,-32.8124 1722.31,-25.5313 1711.75,-26.4236 1714.61,-32.8124"/>
</g>
<!-- Node21 -->
<g id="node21" class="node"><title>Node21</title>
<polygon fill="none" stroke="#bfbfbf" points="841,-1 841,-31 941,-31 941,-1 841,-1"/>
<text text-anchor="start" x="849" y="-19" font-family="Helvetica,sans-Serif" font-size="10.00">boost/container/flat</text>
<text text-anchor="middle" x="891" y="-8" font-family="Helvetica,sans-Serif" font-size="10.00">_map.hpp</text>
</g>
<!-- Node20&#45;&gt;Node21 -->
<g id="edge21" class="edge"><title>Node20&#45;&gt;Node21</title>
<path fill="none" stroke="midnightblue" d="M1036.64,-68.4035C1011.6,-59.5644 971.9,-45.553 940.27,-34.3895"/>
<polygon fill="midnightblue" stroke="midnightblue" points="941.333,-31.0531 930.738,-31.0253 939.003,-37.6541 941.333,-31.0531"/>
</g>
<!-- Node22 -->
<g id="node22" class="node"><title>Node22</title>
<polygon fill="none" stroke="#bfbfbf" points="959,-1 959,-31 1075,-31 1075,-1 959,-1"/>
<text text-anchor="start" x="967" y="-19" font-family="Helvetica,sans-Serif" font-size="10.00">boost/container/pmr</text>
<text text-anchor="middle" x="1017" y="-8" font-family="Helvetica,sans-Serif" font-size="10.00">/memory_resource.hpp</text>
</g>
<!-- Node20&#45;&gt;Node22 -->
<g id="edge22" class="edge"><title>Node20&#45;&gt;Node22</title>
<path fill="none" stroke="midnightblue" d="M1054.7,-68.4035C1049.13,-60.8089 1040.76,-49.3959 1033.32,-39.2518"/>
<polygon fill="midnightblue" stroke="midnightblue" points="1036.11,-37.1351 1027.37,-31.1408 1030.46,-41.2747 1036.11,-37.1351"/>
</g>
<!-- Node23 -->
<g id="node23" class="node"><title>Node23</title>
<polygon fill="none" stroke="#bfbfbf" points="1093,-1 1093,-31 1249,-31 1249,-1 1093,-1"/>
<text text-anchor="start" x="1101" y="-19" font-family="Helvetica,sans-Serif" font-size="10.00">boost/container/pmr</text>
<text text-anchor="middle" x="1171" y="-8" font-family="Helvetica,sans-Serif" font-size="10.00">/monotonic_buffer_resource.hpp</text>
</g>
<!-- Node20&#45;&gt;Node23 -->
<g id="edge23" class="edge"><title>Node20&#45;&gt;Node23</title>
<path fill="none" stroke="midnightblue" d="M1076.76,-68.4035C1092.22,-59.9735 1116.3,-46.8389 1136.25,-35.957"/>
<polygon fill="midnightblue" stroke="midnightblue" points="1137.97,-39.002 1145.08,-31.1408 1134.62,-32.8567 1137.97,-39.002"/>
</g>
<!-- Node24 -->
<g id="node24" class="node"><title>Node24</title>
<polygon fill="none" stroke="#bfbfbf" points="1267.5,-1 1267.5,-31 1400.5,-31 1400.5,-1 1267.5,-1"/>
<text text-anchor="start" x="1275.5" y="-19" font-family="Helvetica,sans-Serif" font-size="10.00">boost/container/pmr</text>
<text text-anchor="middle" x="1334" y="-8" font-family="Helvetica,sans-Serif" font-size="10.00">/polymorphic_allocator.hpp</text>
</g>
<!-- Node20&#45;&gt;Node24 -->
<g id="edge24" class="edge"><title>Node20&#45;&gt;Node24</title>
<path fill="none" stroke="midnightblue" d="M1099.82,-68.4672C1141.45,-59.3184 1208.53,-44.5763 1260.25,-33.2097"/>
<polygon fill="midnightblue" stroke="midnightblue" points="1261.03,-36.6216 1270.04,-31.0565 1259.52,-29.7848 1261.03,-36.6216"/>
</g>
<!-- Node25 -->
<g id="node25" class="node"><title>Node25</title>
<polygon fill="none" stroke="#bfbfbf" points="1419,-6.5 1419,-25.5 1481,-25.5 1481,-6.5 1419,-6.5"/>
<text text-anchor="middle" x="1450" y="-13.5" font-family="Helvetica,sans-Serif" font-size="10.00">type_traits</text>
</g>
<!-- Node20&#45;&gt;Node25 -->
<g id="edge27" class="edge"><title>Node20&#45;&gt;Node25</title>
<path fill="none" stroke="midnightblue" d="M1143.54,-68.4641C1230.12,-59.1293 1360.25,-43.9121 1409,-32 1412.49,-31.1465 1416.1,-30.0943 1419.66,-28.9463"/>
<polygon fill="midnightblue" stroke="midnightblue" points="1421.13,-32.1396 1429.42,-25.5427 1418.82,-25.5297 1421.13,-32.1396"/>
</g>
<!-- Node20&#45;&gt;Node26 -->
<g id="edge28" class="edge"><title>Node20&#45;&gt;Node26</title>
<path fill="none" stroke="midnightblue" d="M975.507,-68.4821C872.375,-57.9516 709.357,-40.3955 682,-32 680.09,-31.4138 678.156,-30.7046 676.241,-29.9175"/>
<polygon fill="midnightblue" stroke="midnightblue" points="677.557,-26.6678 667.022,-25.54 674.554,-32.9911 677.557,-26.6678"/>
</g>
<!-- Node27 -->
<g id="node27" class="node"><title>Node27</title>
<polygon fill="none" stroke="#bfbfbf" points="1499.5,-6.5 1499.5,-25.5 1582.5,-25.5 1582.5,-6.5 1499.5,-6.5"/>
<text text-anchor="middle" x="1541" y="-13.5" font-family="Helvetica,sans-Serif" font-size="10.00">unordered_map</text>
</g>
<!-- Node20&#45;&gt;Node27 -->
<g id="edge30" class="edge"><title>Node20&#45;&gt;Node27</title>
<path fill="none" stroke="midnightblue" d="M1157.54,-68.8412C1263.8,-59.5078 1427.68,-43.9715 1489,-32 1494.17,-30.9907 1499.57,-29.7041 1504.85,-28.31"/>
<polygon fill="midnightblue" stroke="midnightblue" points="1506.08,-31.6017 1514.77,-25.5414 1504.19,-24.8596 1506.08,-31.6017"/>
</g>
<!-- Node28 -->
<g id="node28" class="node"><title>Node28</title>
<polygon fill="none" stroke="#bfbfbf" points="1600.5,-6.5 1600.5,-25.5 1697.5,-25.5 1697.5,-6.5 1600.5,-6.5"/>
<text text-anchor="middle" x="1649" y="-13.5" font-family="Helvetica,sans-Serif" font-size="10.00">FairMQMessage.h</text>
</g>
<!-- Node20&#45;&gt;Node28 -->
<g id="edge31" class="edge"><title>Node20&#45;&gt;Node28</title>
<path fill="none" stroke="midnightblue" d="M1157.65,-69.0004C1307.64,-56.5574 1580.46,-33.7972 1591,-32 1597.26,-30.933 1603.83,-29.5223 1610.21,-27.9923"/>
<polygon fill="midnightblue" stroke="midnightblue" points="1611.16,-31.3617 1620,-25.5221 1609.45,-24.5743 1611.16,-31.3617"/>
</g>
<!-- Node29 -->
<g id="node29" class="node"><title>Node29</title>
<polygon fill="none" stroke="#bfbfbf" points="691.5,-6.5 691.5,-25.5 822.5,-25.5 822.5,-6.5 691.5,-6.5"/>
<text text-anchor="middle" x="757" y="-13.5" font-family="Helvetica,sans-Serif" font-size="10.00">FairMQTransportFactory.h</text>
</g>
<!-- Node20&#45;&gt;Node29 -->
<g id="edge32" class="edge"><title>Node20&#45;&gt;Node29</title>
<path fill="none" stroke="midnightblue" d="M1017.09,-68.417C970.986,-59.3942 896.385,-44.7645 832,-32 824.664,-30.5457 816.926,-29.0052 809.318,-27.487"/>
<polygon fill="midnightblue" stroke="midnightblue" points="809.927,-24.0396 799.435,-25.5129 808.556,-30.904 809.927,-24.0396"/>
</g>
<!-- Node30&#45;&gt;Node3 -->
<g id="edge36" class="edge"><title>Node30&#45;&gt;Node3</title>
<path fill="none" stroke="midnightblue" d="M963.598,-128.521C948.462,-127.05 931.507,-125.428 916,-124 756.312,-109.297 568.656,-93.1966 469.864,-84.812"/>
<polygon fill="midnightblue" stroke="midnightblue" points="469.974,-81.3089 459.714,-83.9512 469.383,-88.2838 469.974,-81.3089"/>
</g>
<!-- Node30&#45;&gt;Node20 -->
<g id="edge35" class="edge"><title>Node30&#45;&gt;Node20</title>
<path fill="none" stroke="midnightblue" d="M1017.59,-124.083C1025.16,-116.22 1036.38,-104.569 1045.51,-95.0813"/>
<polygon fill="midnightblue" stroke="midnightblue" points="1048.16,-97.3821 1052.57,-87.7511 1043.12,-92.5266 1048.16,-97.3821"/>
</g>
<!-- Node33&#45;&gt;Node15 -->
<g id="edge46" class="edge"><title>Node33&#45;&gt;Node15</title>
<path fill="none" stroke="midnightblue" d="M1388.69,-299.219C1497.4,-285.665 1688,-253.052 1688,-191 1688,-191 1688,-191 1688,-133 1688,-95.4838 1710.02,-56.14 1724.54,-34.2767"/>
<polygon fill="midnightblue" stroke="midnightblue" points="1727.6,-36.0012 1730.39,-25.7815 1721.83,-32.0282 1727.6,-36.0012"/>
</g>
</g>
</svg>
