<?xml version="1.0" encoding="UTF-8" standalone="no"?>
<!DOCTYPE svg PUBLIC "-//W3C//DTD SVG 1.1//EN"
 "http://www.w3.org/Graphics/SVG/1.1/DTD/svg11.dtd">
<!-- Generated by graphviz version 2.36.0 (20140111.2315)
 -->
<!-- Title: /home/travis/build/AliceO2Group/AliceO2/Detectors/PHOS/reconstruction/src/ClustererTask.cxx Pages: 1 -->
<!--zoomable 526 -->
<svg id="main" version="1.1" xmlns="http://www.w3.org/2000/svg" xmlns:xlink="http://www.w3.org/1999/xlink" xml:space="preserve" onload="init(evt)">
<style type="text/css"><![CDATA[
.edge:hover path { stroke: red; }
.edge:hover polygon { stroke: red; fill: red; }
]]></style>
<script type="text/javascript"><![CDATA[
var edges = document.getElementsByTagName('g');
if (edges && edges.length) {
  for (var i=0;i<edges.length;i++) {
    if (edges[i].id.substr(0,4)=='edge') {
      edges[i].setAttribute('class','edge');
    }
  }
}
]]></script>
        <defs>
                <circle id="rim" cx="0" cy="0" r="7"/>
                <circle id="rim2" cx="0" cy="0" r="3.5"/>
                <g id="zoomPlus">
                        <use xlink:href="#rim" fill="#404040">
                                <set attributeName="fill" to="#808080" begin="zoomplus.mouseover" end="zoomplus.mouseout"/>
                        </use>
                        <path d="M-4,0h8M0,-4v8" fill="none" stroke="white" stroke-width="1.5" pointer-events="none"/>
                </g>
                <g id="zoomMin">
                        <use xlink:href="#rim" fill="#404040">
                                <set attributeName="fill" to="#808080" begin="zoomminus.mouseover" end="zoomminus.mouseout"/>
                        </use>
                        <path d="M-4,0h8" fill="none" stroke="white" stroke-width="1.5" pointer-events="none"/>
                </g>
                <g id="dirArrow">
                        <path fill="none" stroke="white" stroke-width="1.5" d="M0,-3.0v7 M-2.5,-0.5L0,-3.0L2.5,-0.5"/>
                </g>
               <g id="resetDef">
                       <use xlink:href="#rim2" fill="#404040">
                               <set attributeName="fill" to="#808080" begin="reset.mouseover" end="reset.mouseout"/>
                       </use>
               </g>
        </defs>

<script type="text/javascript">
var viewWidth = 1543;
var viewHeight = 526;
var sectionId = 'dynsection-0';
</script>
<script xlink:href="../../svgpan.js"/>
<svg id="graph" class="graph">
<g id="viewport">
<title>/home/travis/build/AliceO2Group/AliceO2/Detectors/PHOS/reconstruction/src/ClustererTask.cxx</title>
<!-- Node1 -->
<g id="node1" class="node"><title>Node1</title>
<polygon fill="#bfbfbf" stroke="black" points="1004,-465 1004,-517 1162,-517 1162,-465 1004,-465"/>
<text text-anchor="start" x="1012" y="-505" font-family="Helvetica,sans-Serif" font-size="10.00">/home/travis/build</text>
<text text-anchor="start" x="1012" y="-494" font-family="Helvetica,sans-Serif" font-size="10.00">/AliceO2Group/AliceO2</text>
<text text-anchor="start" x="1012" y="-483" font-family="Helvetica,sans-Serif" font-size="10.00">/Detectors/PHOS/reconstruction</text>
<text text-anchor="middle" x="1083" y="-472" font-family="Helvetica,sans-Serif" font-size="10.00">/src/ClustererTask.cxx</text>
</g>
<!-- Node2 -->
<g id="node2" class="node"><title>Node2</title>
<polygon fill="none" stroke="#bfbfbf" points="735.5,-402.5 735.5,-421.5 806.5,-421.5 806.5,-402.5 735.5,-402.5"/>
<text text-anchor="middle" x="771" y="-409.5" font-family="Helvetica,sans-Serif" font-size="10.00">FairLogger.h</text>
</g>
<!-- Node1&#45;&gt;Node2 -->
<g id="edge1" class="edge"><title>Node1&#45;&gt;Node2</title>
<path fill="none" stroke="midnightblue" d="M1003.94,-473.675C950.538,-462.152 878.631,-445.669 816,-428 812.379,-426.978 808.617,-425.844 804.88,-424.669"/>
<polygon fill="midnightblue" stroke="midnightblue" points="805.751,-421.272 795.159,-421.515 803.591,-427.93 805.751,-421.272"/>
</g>
<!-- Node3 -->
<g id="node3" class="node"><title>Node3</title>
<polygon fill="none" stroke="#bfbfbf" points="825,-402.5 825,-421.5 925,-421.5 925,-402.5 825,-402.5"/>
<text text-anchor="middle" x="875" y="-409.5" font-family="Helvetica,sans-Serif" font-size="10.00">FairRootManager.h</text>
</g>
<!-- Node1&#45;&gt;Node3 -->
<g id="edge2" class="edge"><title>Node1&#45;&gt;Node3</title>
<path fill="none" stroke="midnightblue" d="M1015.18,-464.894C979.124,-451.546 936.44,-435.745 907.725,-425.114"/>
<polygon fill="midnightblue" stroke="midnightblue" points="908.777,-421.772 898.184,-421.583 906.347,-428.337 908.777,-421.772"/>
</g>
<!-- Node4 -->
<g id="node4" class="node"><title>Node4</title>
<g id="a_node4"><a xlink:href="../../d7/d3c/PHOS_2reconstruction_2include_2PHOSReconstruction_2ClustererTask_8h.html" target="_top" xlink:title="PHOSReconstruction\l/ClustererTask.h">
<polygon fill="none" stroke="black" points="1111.5,-397 1111.5,-427 1222.5,-427 1222.5,-397 1111.5,-397"/>
<text text-anchor="start" x="1119.5" y="-415" font-family="Helvetica,sans-Serif" font-size="10.00">PHOSReconstruction</text>
<text text-anchor="middle" x="1167" y="-404" font-family="Helvetica,sans-Serif" font-size="10.00">/ClustererTask.h</text>
</a>
</g>
</g>
<!-- Node1&#45;&gt;Node4 -->
<g id="edge3" class="edge"><title>Node1&#45;&gt;Node4</title>
<path fill="none" stroke="midnightblue" d="M1110.5,-464.787C1121.33,-454.861 1133.63,-443.592 1143.97,-434.106"/>
<polygon fill="midnightblue" stroke="midnightblue" points="1146.45,-436.589 1151.45,-427.252 1141.72,-431.429 1146.45,-436.589"/>
</g>
<!-- Node6 -->
<g id="node6" class="node"><title>Node6</title>
<g id="a_node6"><a xlink:href="../../d1/d34/PHOS_2reconstruction_2include_2PHOSReconstruction_2Clusterer_8h.html" target="_top" xlink:title="PHOSReconstruction\l/Clusterer.h">
<polygon fill="none" stroke="black" points="1195.5,-329 1195.5,-359 1306.5,-359 1306.5,-329 1195.5,-329"/>
<text text-anchor="start" x="1203.5" y="-347" font-family="Helvetica,sans-Serif" font-size="10.00">PHOSReconstruction</text>
<text text-anchor="middle" x="1251" y="-336" font-family="Helvetica,sans-Serif" font-size="10.00">/Clusterer.h</text>
</a>
</g>
</g>
<!-- Node1&#45;&gt;Node6 -->
<g id="edge7" class="edge"><title>Node1&#45;&gt;Node6</title>
<path fill="none" stroke="midnightblue" d="M1162.32,-472.057C1187.47,-462.746 1213.3,-448.788 1231,-428 1244.91,-411.661 1249.48,-387.257 1250.83,-369.136"/>
<polygon fill="midnightblue" stroke="midnightblue" points="1254.33,-369.2 1251.3,-359.047 1247.34,-368.873 1254.33,-369.2"/>
</g>
<!-- Node8 -->
<g id="node8" class="node"><title>Node8</title>
<g id="a_node8"><a xlink:href="../../d9/dad/Detectors_2PHOS_2reconstruction_2include_2PHOSReconstruction_2Cluster_8h.html" target="_top" xlink:title="PHOSReconstruction\l/Cluster.h">
<polygon fill="none" stroke="black" points="943.5,-397 943.5,-427 1054.5,-427 1054.5,-397 943.5,-397"/>
<text text-anchor="start" x="951.5" y="-415" font-family="Helvetica,sans-Serif" font-size="10.00">PHOSReconstruction</text>
<text text-anchor="middle" x="999" y="-404" font-family="Helvetica,sans-Serif" font-size="10.00">/Cluster.h</text>
</a>
</g>
</g>
<!-- Node1&#45;&gt;Node8 -->
<g id="edge8" class="edge"><title>Node1&#45;&gt;Node8</title>
<path fill="none" stroke="midnightblue" d="M1055.5,-464.787C1044.67,-454.861 1032.37,-443.592 1022.03,-434.106"/>
<polygon fill="midnightblue" stroke="midnightblue" points="1024.28,-431.429 1014.55,-427.252 1019.55,-436.589 1024.28,-431.429"/>
</g>
<!-- Node9 -->
<g id="node9" class="node"><title>Node9</title>
<g id="a_node9"><a xlink:href="../../d8/de9/PHOS_2base_2include_2PHOSBase_2Digit_8h.html" target="_top" xlink:title="PHOSBase/Digit.h">
<polygon fill="none" stroke="black" points="988.5,-334.5 988.5,-353.5 1087.5,-353.5 1087.5,-334.5 988.5,-334.5"/>
<text text-anchor="middle" x="1038" y="-341.5" font-family="Helvetica,sans-Serif" font-size="10.00">PHOSBase/Digit.h</text>
</a>
</g>
</g>
<!-- Node1&#45;&gt;Node9 -->
<g id="edge33" class="edge"><title>Node1&#45;&gt;Node9</title>
<path fill="none" stroke="midnightblue" d="M1079.37,-464.806C1076.19,-445.612 1070.85,-418.708 1063,-396 1059.03,-384.517 1053.09,-372.275 1048,-362.663"/>
<polygon fill="midnightblue" stroke="midnightblue" points="1050.99,-360.832 1043.11,-353.742 1044.85,-364.194 1050.99,-360.832"/>
</g>
<!-- Node25 -->
<g id="node25" class="node"><title>Node25</title>
<g id="a_node25"><a xlink:href="../../d7/d7f/PHOS_2base_2include_2PHOSBase_2Geometry_8h.html" target="_top" xlink:title="PHOSBase/Geometry.h">
<polygon fill="none" stroke="black" points="1324,-402.5 1324,-421.5 1446,-421.5 1446,-402.5 1324,-402.5"/>
<text text-anchor="middle" x="1385" y="-409.5" font-family="Helvetica,sans-Serif" font-size="10.00">PHOSBase/Geometry.h</text>
</a>
</g>
</g>
<!-- Node1&#45;&gt;Node25 -->
<g id="edge29" class="edge"><title>Node1&#45;&gt;Node25</title>
<path fill="none" stroke="midnightblue" d="M1162.35,-469.769C1219.66,-455.157 1294.89,-435.974 1341.58,-424.07"/>
<polygon fill="midnightblue" stroke="midnightblue" points="1342.56,-427.434 1351.38,-421.572 1340.83,-420.651 1342.56,-427.434"/>
</g>
<!-- Node5 -->
<g id="node5" class="node"><title>Node5</title>
<polygon fill="none" stroke="#bfbfbf" points="1114.5,-334.5 1114.5,-353.5 1177.5,-353.5 1177.5,-334.5 1114.5,-334.5"/>
<text text-anchor="middle" x="1146" y="-341.5" font-family="Helvetica,sans-Serif" font-size="10.00">FairTask.h</text>
</g>
<!-- Node4&#45;&gt;Node5 -->
<g id="edge4" class="edge"><title>Node4&#45;&gt;Node5</title>
<path fill="none" stroke="midnightblue" d="M1162.44,-396.679C1159.36,-386.999 1155.27,-374.123 1151.93,-363.645"/>
<polygon fill="midnightblue" stroke="midnightblue" points="1155.18,-362.296 1148.81,-353.828 1148.51,-364.419 1155.18,-362.296"/>
</g>
<!-- Node4&#45;&gt;Node6 -->
<g id="edge5" class="edge"><title>Node4&#45;&gt;Node6</title>
<path fill="none" stroke="midnightblue" d="M1185.23,-396.679C1196.86,-387.536 1212.13,-375.54 1225.03,-365.407"/>
<polygon fill="midnightblue" stroke="midnightblue" points="1227.4,-367.997 1233.1,-359.066 1223.07,-362.492 1227.4,-367.997"/>
</g>
<!-- Node7 -->
<g id="node7" class="node"><title>Node7</title>
<polygon fill="none" stroke="#bfbfbf" points="1183,-74.5 1183,-93.5 1239,-93.5 1239,-74.5 1183,-74.5"/>
<text text-anchor="middle" x="1211" y="-81.5" font-family="Helvetica,sans-Serif" font-size="10.00">Rtypes.h</text>
</g>
<!-- Node6&#45;&gt;Node7 -->
<g id="edge6" class="edge"><title>Node6&#45;&gt;Node7</title>
<path fill="none" stroke="midnightblue" d="M1252.19,-328.699C1254.1,-301.719 1256.83,-241.562 1248,-192 1242.22,-159.554 1228.14,-123.709 1219.11,-102.836"/>
<polygon fill="midnightblue" stroke="midnightblue" points="1222.28,-101.354 1215.03,-93.6277 1215.88,-104.188 1222.28,-101.354"/>
</g>
<!-- Node8&#45;&gt;Node9 -->
<g id="edge9" class="edge"><title>Node8&#45;&gt;Node9</title>
<path fill="none" stroke="midnightblue" d="M1007.46,-396.679C1013.36,-386.694 1021.27,-373.307 1027.56,-362.66"/>
<polygon fill="midnightblue" stroke="midnightblue" points="1030.71,-364.218 1032.78,-353.828 1024.68,-360.657 1030.71,-364.218"/>
</g>
<!-- Node11 -->
<g id="node11" class="node"><title>Node11</title>
<g id="a_node11"><a xlink:href="../../d7/dcd/MCCompLabel_8h.html" target="_top" xlink:title="SimulationDataFormat\l/MCCompLabel.h">
<polygon fill="none" stroke="black" points="860,-261 860,-291 974,-291 974,-261 860,-261"/>
<text text-anchor="start" x="868" y="-279" font-family="Helvetica,sans-Serif" font-size="10.00">SimulationDataFormat</text>
<text text-anchor="middle" x="917" y="-268" font-family="Helvetica,sans-Serif" font-size="10.00">/MCCompLabel.h</text>
</a>
</g>
</g>
<!-- Node8&#45;&gt;Node11 -->
<g id="edge28" class="edge"><title>Node8&#45;&gt;Node11</title>
<path fill="none" stroke="midnightblue" d="M990.225,-396.66C976.045,-373.488 947.973,-327.615 931.005,-299.886"/>
<polygon fill="midnightblue" stroke="midnightblue" points="933.917,-297.94 925.712,-291.237 927.947,-301.594 933.917,-297.94"/>
</g>
<!-- Node10 -->
<g id="node10" class="node"><title>Node10</title>
<g id="a_node10"><a xlink:href="../../df/d5d/common_2include_2CommonDataFormat_2TimeStamp_8h.html" target="_top" xlink:title="CommonDataFormat/TimeStamp.h">
<polygon fill="none" stroke="black" points="1069,-198.5 1069,-217.5 1239,-217.5 1239,-198.5 1069,-198.5"/>
<text text-anchor="middle" x="1154" y="-205.5" font-family="Helvetica,sans-Serif" font-size="10.00">CommonDataFormat/TimeStamp.h</text>
</a>
</g>
</g>
<!-- Node9&#45;&gt;Node10 -->
<g id="edge10" class="edge"><title>Node9&#45;&gt;Node10</title>
<path fill="none" stroke="midnightblue" d="M1048.7,-334.149C1060.21,-324.384 1078.78,-307.936 1093,-292 1112.09,-270.608 1131.19,-243.459 1142.8,-226.153"/>
<polygon fill="midnightblue" stroke="midnightblue" points="1145.83,-227.919 1148.44,-217.65 1140,-224.053 1145.83,-227.919"/>
</g>
<!-- Node9&#45;&gt;Node11 -->
<g id="edge12" class="edge"><title>Node9&#45;&gt;Node11</title>
<path fill="none" stroke="midnightblue" d="M1022.18,-334.372C1004.42,-324.686 975.063,-308.671 951.869,-296.019"/>
<polygon fill="midnightblue" stroke="midnightblue" points="953.454,-292.897 942.999,-291.181 950.102,-299.043 953.454,-292.897"/>
</g>
<!-- Node12 -->
<g id="node12" class="node"><title>Node12</title>
<g id="a_node12"><a xlink:href="../../d1/def/PHOS_2base_2include_2PHOSBase_2Hit_8h.html" target="_top" xlink:title="PHOSBase/Hit.h">
<polygon fill="none" stroke="black" points="992,-266.5 992,-285.5 1084,-285.5 1084,-266.5 992,-266.5"/>
<text text-anchor="middle" x="1038" y="-273.5" font-family="Helvetica,sans-Serif" font-size="10.00">PHOSBase/Hit.h</text>
</a>
</g>
</g>
<!-- Node9&#45;&gt;Node12 -->
<g id="edge14" class="edge"><title>Node9&#45;&gt;Node12</title>
<path fill="none" stroke="midnightblue" d="M1038,-334.372C1038,-324.643 1038,-308.528 1038,-295.85"/>
<polygon fill="midnightblue" stroke="midnightblue" points="1041.5,-295.841 1038,-285.841 1034.5,-295.841 1041.5,-295.841"/>
</g>
<!-- Node10&#45;&gt;Node7 -->
<g id="edge11" class="edge"><title>Node10&#45;&gt;Node7</title>
<path fill="none" stroke="midnightblue" d="M1158.1,-198.226C1167.38,-178.354 1190.17,-129.576 1202.6,-102.989"/>
<polygon fill="midnightblue" stroke="midnightblue" points="1205.88,-104.236 1206.94,-93.6944 1199.53,-101.273 1205.88,-104.236"/>
</g>
<!-- Node11&#45;&gt;Node7 -->
<g id="edge13" class="edge"><title>Node11&#45;&gt;Node7</title>
<path fill="none" stroke="midnightblue" d="M914.784,-260.691C912.829,-242.669 912.351,-211.684 928,-192 1000.38,-100.952 1064.46,-141.799 1173,-100 1175.23,-99.1398 1177.54,-98.2456 1179.86,-97.3415"/>
<polygon fill="midnightblue" stroke="midnightblue" points="1181.29,-100.54 1189.32,-93.6296 1178.73,-94.0229 1181.29,-100.54"/>
</g>
<!-- Node13 -->
<g id="node13" class="node"><title>Node13</title>
<g id="a_node13"><a xlink:href="../../d4/d25/BaseHits_8h.html" target="_top" xlink:title="SimulationDataFormat\l/BaseHits.h">
<polygon fill="none" stroke="black" points="937,-193 937,-223 1051,-223 1051,-193 937,-193"/>
<text text-anchor="start" x="945" y="-211" font-family="Helvetica,sans-Serif" font-size="10.00">SimulationDataFormat</text>
<text text-anchor="middle" x="994" y="-200" font-family="Helvetica,sans-Serif" font-size="10.00">/BaseHits.h</text>
</a>
</g>
</g>
<!-- Node12&#45;&gt;Node13 -->
<g id="edge15" class="edge"><title>Node12&#45;&gt;Node13</title>
<path fill="none" stroke="midnightblue" d="M1032.25,-266.372C1026.42,-257.629 1017.15,-243.729 1009.2,-231.801"/>
<polygon fill="midnightblue" stroke="midnightblue" points="1011.91,-229.561 1003.45,-223.181 1006.09,-233.443 1011.91,-229.561"/>
</g>
<!-- Node14 -->
<g id="node14" class="node"><title>Node14</title>
<g id="a_node14"><a xlink:href="../../dd/d76/Cartesian3D_8h.html" target="_top" xlink:title="MathUtils/Cartesian3D.h">
<polygon fill="none" stroke="black" points="624.5,-136.5 624.5,-155.5 749.5,-155.5 749.5,-136.5 624.5,-136.5"/>
<text text-anchor="middle" x="687" y="-143.5" font-family="Helvetica,sans-Serif" font-size="10.00">MathUtils/Cartesian3D.h</text>
</a>
</g>
</g>
<!-- Node13&#45;&gt;Node14 -->
<g id="edge16" class="edge"><title>Node13&#45;&gt;Node14</title>
<path fill="none" stroke="midnightblue" d="M936.975,-195.855C880.82,-184.88 795.695,-168.243 740.714,-157.498"/>
<polygon fill="midnightblue" stroke="midnightblue" points="741.298,-154.046 730.812,-155.563 739.955,-160.916 741.298,-154.046"/>
</g>
<!-- Node14&#45;&gt;Node7 -->
<g id="edge22" class="edge"><title>Node14&#45;&gt;Node7</title>
<path fill="none" stroke="midnightblue" d="M749.86,-141.401C862.493,-134.584 1094.29,-118.775 1173,-100 1176.24,-99.2266 1179.58,-98.2316 1182.86,-97.1224"/>
<polygon fill="midnightblue" stroke="midnightblue" points="1184.25,-100.336 1192.4,-93.5597 1181.81,-93.7784 1184.25,-100.336"/>
</g>
<!-- Node15 -->
<g id="node15" class="node"><title>Node15</title>
<polygon fill="none" stroke="#bfbfbf" points="819.5,-69 819.5,-99 970.5,-99 970.5,-69 819.5,-69"/>
<text text-anchor="start" x="827.5" y="-87" font-family="Helvetica,sans-Serif" font-size="10.00">Math/GenVector/Displacement</text>
<text text-anchor="middle" x="895" y="-76" font-family="Helvetica,sans-Serif" font-size="10.00">Vector3D.h</text>
</g>
<!-- Node14&#45;&gt;Node15 -->
<g id="edge17" class="edge"><title>Node14&#45;&gt;Node15</title>
<path fill="none" stroke="midnightblue" d="M716.801,-136.403C747.972,-127.412 797.697,-113.068 836.709,-101.815"/>
<polygon fill="midnightblue" stroke="midnightblue" points="837.741,-105.16 846.379,-99.0253 835.801,-98.4341 837.741,-105.16"/>
</g>
<!-- Node16 -->
<g id="node16" class="node"><title>Node16</title>
<polygon fill="none" stroke="#bfbfbf" points="989,-74.5 989,-93.5 1165,-93.5 1165,-74.5 989,-74.5"/>
<text text-anchor="middle" x="1077" y="-81.5" font-family="Helvetica,sans-Serif" font-size="10.00">Math/GenVector/PositionVector3D.h</text>
</g>
<!-- Node14&#45;&gt;Node16 -->
<g id="edge18" class="edge"><title>Node14&#45;&gt;Node16</title>
<path fill="none" stroke="midnightblue" d="M742.463,-136.467C813.363,-125.559 935.945,-106.701 1011.4,-95.0918"/>
<polygon fill="midnightblue" stroke="midnightblue" points="1012.38,-98.4833 1021.73,-93.5034 1011.31,-91.5647 1012.38,-98.4833"/>
</g>
<!-- Node17 -->
<g id="node17" class="node"><title>Node17</title>
<polygon fill="none" stroke="#bfbfbf" points="-0.5,-74.5 -0.5,-93.5 148.5,-93.5 148.5,-74.5 -0.5,-74.5"/>
<text text-anchor="middle" x="74" y="-81.5" font-family="Helvetica,sans-Serif" font-size="10.00">Math/GenVector/Rotation3D.h</text>
</g>
<!-- Node14&#45;&gt;Node17 -->
<g id="edge19" class="edge"><title>Node14&#45;&gt;Node17</title>
<path fill="none" stroke="midnightblue" d="M624.096,-141.524C524.78,-135.614 325.691,-122.057 158,-100 148.086,-98.6959 137.56,-97.0367 127.434,-95.3003"/>
<polygon fill="midnightblue" stroke="midnightblue" points="127.935,-91.8347 117.479,-93.5484 126.721,-98.7287 127.935,-91.8347"/>
</g>
<!-- Node18 -->
<g id="node18" class="node"><title>Node18</title>
<polygon fill="none" stroke="#bfbfbf" points="167,-74.5 167,-93.5 323,-93.5 323,-74.5 167,-74.5"/>
<text text-anchor="middle" x="245" y="-81.5" font-family="Helvetica,sans-Serif" font-size="10.00">Math/GenVector/Transform3D.h</text>
</g>
<!-- Node14&#45;&gt;Node18 -->
<g id="edge20" class="edge"><title>Node14&#45;&gt;Node18</title>
<path fill="none" stroke="midnightblue" d="M624.36,-137.917C553.34,-129.687 434.148,-115.272 332,-100 322.437,-98.5702 312.304,-96.9342 302.463,-95.2805"/>
<polygon fill="midnightblue" stroke="midnightblue" points="302.794,-91.7866 292.348,-93.5585 301.619,-98.6873 302.794,-91.7866"/>
</g>
<!-- Node19 -->
<g id="node19" class="node"><title>Node19</title>
<polygon fill="none" stroke="#bfbfbf" points="341,-74.5 341,-93.5 501,-93.5 501,-74.5 341,-74.5"/>
<text text-anchor="middle" x="421" y="-81.5" font-family="Helvetica,sans-Serif" font-size="10.00">Math/GenVector/Translation3D.h</text>
</g>
<!-- Node14&#45;&gt;Node19 -->
<g id="edge21" class="edge"><title>Node14&#45;&gt;Node19</title>
<path fill="none" stroke="midnightblue" d="M649.171,-136.467C601.704,-125.76 520.272,-107.392 468.614,-95.74"/>
<polygon fill="midnightblue" stroke="midnightblue" points="469.223,-92.2896 458.698,-93.5034 467.683,-99.118 469.223,-92.2896"/>
</g>
<!-- Node20 -->
<g id="node20" class="node"><title>Node20</title>
<polygon fill="none" stroke="#bfbfbf" points="519,-74.5 519,-93.5 595,-93.5 595,-74.5 519,-74.5"/>
<text text-anchor="middle" x="557" y="-81.5" font-family="Helvetica,sans-Serif" font-size="10.00">TGeoMatrix.h</text>
</g>
<!-- Node14&#45;&gt;Node20 -->
<g id="edge23" class="edge"><title>Node14&#45;&gt;Node20</title>
<path fill="none" stroke="midnightblue" d="M668.374,-136.403C646.557,-126.334 610.196,-109.552 584.983,-97.9151"/>
<polygon fill="midnightblue" stroke="midnightblue" points="586.138,-94.5934 575.591,-93.5806 583.204,-100.949 586.138,-94.5934"/>
</g>
<!-- Node21 -->
<g id="node21" class="node"><title>Node21</title>
<polygon fill="none" stroke="#bfbfbf" points="613.5,-74.5 613.5,-93.5 658.5,-93.5 658.5,-74.5 613.5,-74.5"/>
<text text-anchor="middle" x="636" y="-81.5" font-family="Helvetica,sans-Serif" font-size="10.00">iosfwd</text>
</g>
<!-- Node14&#45;&gt;Node21 -->
<g id="edge24" class="edge"><title>Node14&#45;&gt;Node21</title>
<path fill="none" stroke="midnightblue" d="M679.693,-136.403C671.967,-127.314 659.592,-112.756 649.982,-101.449"/>
<polygon fill="midnightblue" stroke="midnightblue" points="652.437,-98.9332 643.294,-93.5806 647.103,-103.467 652.437,-98.9332"/>
</g>
<!-- Node22 -->
<g id="node22" class="node"><title>Node22</title>
<g id="a_node22"><a xlink:href="../../d2/dd0/Cartesian2D_8h.html" target="_top" xlink:title="MathUtils/Cartesian2D.h">
<polygon fill="none" stroke="black" points="676.5,-74.5 676.5,-93.5 801.5,-93.5 801.5,-74.5 676.5,-74.5"/>
<text text-anchor="middle" x="739" y="-81.5" font-family="Helvetica,sans-Serif" font-size="10.00">MathUtils/Cartesian2D.h</text>
</a>
</g>
</g>
<!-- Node14&#45;&gt;Node22 -->
<g id="edge25" class="edge"><title>Node14&#45;&gt;Node22</title>
<path fill="none" stroke="midnightblue" d="M694.45,-136.403C702.328,-127.314 714.945,-112.756 724.744,-101.449"/>
<polygon fill="midnightblue" stroke="midnightblue" points="727.659,-103.43 731.563,-93.5806 722.369,-98.8452 727.659,-103.43"/>
</g>
<!-- Node23 -->
<g id="node23" class="node"><title>Node23</title>
<polygon fill="none" stroke="#bfbfbf" points="572.5,-1 572.5,-31 723.5,-31 723.5,-1 572.5,-1"/>
<text text-anchor="start" x="580.5" y="-19" font-family="Helvetica,sans-Serif" font-size="10.00">Math/GenVector/Displacement</text>
<text text-anchor="middle" x="648" y="-8" font-family="Helvetica,sans-Serif" font-size="10.00">Vector2D.h</text>
</g>
<!-- Node22&#45;&gt;Node23 -->
<g id="edge26" class="edge"><title>Node22&#45;&gt;Node23</title>
<path fill="none" stroke="midnightblue" d="M727.103,-74.3717C714.221,-65.0286 693.22,-49.7966 676.093,-37.375"/>
<polygon fill="midnightblue" stroke="midnightblue" points="677.703,-34.2194 667.553,-31.1815 673.593,-39.8859 677.703,-34.2194"/>
</g>
<!-- Node24 -->
<g id="node24" class="node"><title>Node24</title>
<polygon fill="none" stroke="#bfbfbf" points="742,-6.5 742,-25.5 918,-25.5 918,-6.5 742,-6.5"/>
<text text-anchor="middle" x="830" y="-13.5" font-family="Helvetica,sans-Serif" font-size="10.00">Math/GenVector/PositionVector2D.h</text>
</g>
<!-- Node22&#45;&gt;Node24 -->
<g id="edge27" class="edge"><title>Node22&#45;&gt;Node24</title>
<path fill="none" stroke="midnightblue" d="M750.897,-74.3717C765.884,-63.5015 791.862,-44.6602 809.942,-31.5474"/>
<polygon fill="midnightblue" stroke="midnightblue" points="812.06,-34.3349 818.1,-25.6305 807.95,-28.6684 812.06,-34.3349"/>
</g>
<!-- Node26 -->
<g id="node26" class="node"><title>Node26</title>
<polygon fill="none" stroke="#bfbfbf" points="1324.5,-334.5 1324.5,-353.5 1365.5,-353.5 1365.5,-334.5 1324.5,-334.5"/>
<text text-anchor="middle" x="1345" y="-341.5" font-family="Helvetica,sans-Serif" font-size="10.00">string</text>
</g>
<!-- Node25&#45;&gt;Node26 -->
<g id="edge30" class="edge"><title>Node25&#45;&gt;Node26</title>
<path fill="none" stroke="midnightblue" d="M1379.77,-402.372C1373.7,-392.348 1363.51,-375.546 1355.73,-362.708"/>
<polygon fill="midnightblue" stroke="midnightblue" points="1358.53,-360.579 1350.36,-353.841 1352.55,-364.207 1358.53,-360.579"/>
</g>
<!-- Node27 -->
<g id="node27" class="node"><title>Node27</title>
<polygon fill="none" stroke="#bfbfbf" points="1384,-334.5 1384,-353.5 1464,-353.5 1464,-334.5 1384,-334.5"/>
<text text-anchor="middle" x="1424" y="-341.5" font-family="Helvetica,sans-Serif" font-size="10.00">RStringView.h</text>
</g>
<!-- Node25&#45;&gt;Node27 -->
<g id="edge31" class="edge"><title>Node25&#45;&gt;Node27</title>
<path fill="none" stroke="midnightblue" d="M1390.1,-402.372C1396.02,-392.348 1405.95,-375.546 1413.54,-362.708"/>
<polygon fill="midnightblue" stroke="midnightblue" points="1416.7,-364.231 1418.78,-353.841 1410.68,-360.67 1416.7,-364.231"/>
</g>
<!-- Node28 -->
<g id="node28" class="node"><title>Node28</title>
<polygon fill="none" stroke="#bfbfbf" points="1482.5,-334.5 1482.5,-353.5 1535.5,-353.5 1535.5,-334.5 1482.5,-334.5"/>
<text text-anchor="middle" x="1509" y="-341.5" font-family="Helvetica,sans-Serif" font-size="10.00">TMath.h</text>
</g>
<!-- Node25&#45;&gt;Node28 -->
<g id="edge32" class="edge"><title>Node25&#45;&gt;Node28</title>
<path fill="none" stroke="midnightblue" d="M1401.21,-402.372C1422.19,-391.205 1458.97,-371.627 1483.66,-358.488"/>
<polygon fill="midnightblue" stroke="midnightblue" points="1485.6,-361.419 1492.79,-353.63 1482.31,-355.239 1485.6,-361.419"/>
</g>
</g>
</svg>
        <g id="navigator" transform="translate(0 0)" fill="#404254">
                <rect fill="#f2f5e9" fill-opacity="0.5" stroke="#606060" stroke-width=".5" x="0" y="0" width="60" height="60"/>
                <use id="zoomplus" xlink:href="#zoomPlus" x="17" y="9" onmousedown="handleZoom(evt,'in')"/>
                <use id="zoomminus" xlink:href="#zoomMin" x="42" y="9" onmousedown="handleZoom(evt,'out')"/>
                <use id="reset" xlink:href="#resetDef" x="30" y="36" onmousedown="handleReset()"/>
                <g id="arrowUp" xlink:href="#dirArrow" transform="translate(30 24)" onmousedown="handlePan(0,-1)">
                  <use xlink:href="#rim" fill="#404040">
                        <set attributeName="fill" to="#808080" begin="arrowUp.mouseover" end="arrowUp.mouseout"/>
                  </use>
                  <path fill="none" stroke="white" stroke-width="1.5" d="M0,-3.0v7 M-2.5,-0.5L0,-3.0L2.5,-0.5"/>
                </g>
                <g id="arrowRight" xlink:href="#dirArrow" transform="rotate(90) translate(36 -43)" onmousedown="handlePan(1,0)">
                  <use xlink:href="#rim" fill="#404040">
                        <set attributeName="fill" to="#808080" begin="arrowRight.mouseover" end="arrowRight.mouseout"/>
                  </use>
                  <path fill="none" stroke="white" stroke-width="1.5" d="M0,-3.0v7 M-2.5,-0.5L0,-3.0L2.5,-0.5"/>
                </g>
                <g id="arrowDown" xlink:href="#dirArrow" transform="rotate(180) translate(-30 -48)" onmousedown="handlePan(0,1)">
                  <use xlink:href="#rim" fill="#404040">
                        <set attributeName="fill" to="#808080" begin="arrowDown.mouseover" end="arrowDown.mouseout"/>
                  </use>
                  <path fill="none" stroke="white" stroke-width="1.5" d="M0,-3.0v7 M-2.5,-0.5L0,-3.0L2.5,-0.5"/>
                </g>
                <g id="arrowLeft" xlink:href="#dirArrow" transform="rotate(270) translate(-36 17)" onmousedown="handlePan(-1,0)">
                  <use xlink:href="#rim" fill="#404040">
                        <set attributeName="fill" to="#808080" begin="arrowLeft.mouseover" end="arrowLeft.mouseout"/>
                  </use>
                  <path fill="none" stroke="white" stroke-width="1.5" d="M0,-3.0v7 M-2.5,-0.5L0,-3.0L2.5,-0.5"/>
                </g>
        </g>
        <svg viewBox="0 0 15 15" width="100%" height="30px" preserveAspectRatio="xMaxYMin meet">
         <g id="arrow_out" transform="scale(0.3 0.3)">
          <a xlink:href="PHOS_2reconstruction_2src_2ClustererTask_8cxx__incl_org.svg" target="_base">
           <rect id="button" ry="5" rx="5" y="6" x="6" height="38" width="38"
                fill="#f2f5e9" fill-opacity="0.5" stroke="#606060" stroke-width="1.0"/>
           <path id="arrow"
             d="M 11.500037,31.436501 C 11.940474,20.09759 22.043105,11.32322 32.158766,21.979434 L 37.068811,17.246167 C 37.068811,17.246167 37.088388,32 37.088388,32 L 22.160133,31.978069 C 22.160133,31.978069 26.997745,27.140456 26.997745,27.140456 C 18.528582,18.264221 13.291696,25.230495 11.500037,31.436501 z"
             style="fill:#404040;"/>
          </a>
         </g>
        </svg>
</svg>
