<?xml version="1.0" encoding="UTF-8" standalone="no"?>
<!DOCTYPE svg PUBLIC "-//W3C//DTD SVG 1.1//EN"
 "http://www.w3.org/Graphics/SVG/1.1/DTD/svg11.dtd">
<!-- Generated by graphviz version 2.36.0 (20140111.2315)
 -->
<!-- Title: /home/travis/build/AliceO2Group/AliceO2/Detectors/EMCAL/simulation/include/EMCALSimulation/Detector.h Pages: 1 -->
<svg width="1866pt" height="378pt"
 viewBox="0.00 0.00 1866.39 378.00" xmlns="http://www.w3.org/2000/svg" xmlns:xlink="http://www.w3.org/1999/xlink">
<g id="graph0" class="graph" transform="scale(1 1) rotate(0) translate(4 374)">
<title>/home/travis/build/AliceO2Group/AliceO2/Detectors/EMCAL/simulation/include/EMCALSimulation/Detector.h</title>
<!-- Node1 -->
<g id="node1" class="node"><title>Node1</title>
<polygon fill="#bfbfbf" stroke="black" points="939.386,-317 939.386,-369 1121.39,-369 1121.39,-317 939.386,-317"/>
<text text-anchor="start" x="947.386" y="-357" font-family="Helvetica,sans-Serif" font-size="10.00">/home/travis/build</text>
<text text-anchor="start" x="947.386" y="-346" font-family="Helvetica,sans-Serif" font-size="10.00">/AliceO2Group/AliceO2</text>
<text text-anchor="start" x="947.386" y="-335" font-family="Helvetica,sans-Serif" font-size="10.00">/Detectors/EMCAL/simulation</text>
<text text-anchor="middle" x="1030.39" y="-324" font-family="Helvetica,sans-Serif" font-size="10.00">/include/EMCALSimulation/Detector.h</text>
</g>
<!-- Node2 -->
<g id="node2" class="node"><title>Node2</title>
<g id="a_node2"><a xlink:href="../../d1/d3a/Base_2include_2DetectorsBase_2Detector_8h.html" target="_top" xlink:title="DetectorsBase/Detector.h">
<polygon fill="none" stroke="black" points="618.886,-260.5 618.886,-279.5 749.886,-279.5 749.886,-260.5 618.886,-260.5"/>
<text text-anchor="middle" x="684.386" y="-267.5" font-family="Helvetica,sans-Serif" font-size="10.00">DetectorsBase/Detector.h</text>
</a>
</g>
</g>
<!-- Node1&#45;&gt;Node2 -->
<g id="edge1" class="edge"><title>Node1&#45;&gt;Node2</title>
<path fill="none" stroke="midnightblue" d="M939.026,-323.253C874.134,-309.937 789.358,-292.541 735.877,-281.566"/>
<polygon fill="midnightblue" stroke="midnightblue" points="736.439,-278.109 725.94,-279.527 735.032,-284.966 736.439,-278.109"/>
</g>
<!-- Node4 -->
<g id="node4" class="node"><title>Node4</title>
<polygon fill="none" stroke="#bfbfbf" points="26.386,-198.5 26.386,-217.5 70.386,-217.5 70.386,-198.5 26.386,-198.5"/>
<text text-anchor="middle" x="48.386" y="-205.5" font-family="Helvetica,sans-Serif" font-size="10.00">vector</text>
</g>
<!-- Node1&#45;&gt;Node4 -->
<g id="edge39" class="edge"><title>Node1&#45;&gt;Node4</title>
<path fill="none" stroke="midnightblue" d="M939.235,-340.52C767.504,-335.595 385.746,-314.44 79.386,-224 77.1963,-223.354 74.97,-222.566 72.7669,-221.694"/>
<polygon fill="midnightblue" stroke="midnightblue" points="73.9973,-218.41 63.4411,-217.506 71.1296,-224.796 73.9973,-218.41"/>
</g>
<!-- Node10 -->
<g id="node10" class="node"><title>Node10</title>
<polygon fill="none" stroke="#bfbfbf" points="404.386,-74.5 404.386,-93.5 460.386,-93.5 460.386,-74.5 404.386,-74.5"/>
<text text-anchor="middle" x="432.386" y="-81.5" font-family="Helvetica,sans-Serif" font-size="10.00">Rtypes.h</text>
</g>
<!-- Node1&#45;&gt;Node10 -->
<g id="edge38" class="edge"><title>Node1&#45;&gt;Node10</title>
<path fill="none" stroke="midnightblue" d="M938.959,-338.654C700.321,-328.927 73.1749,-296.615 17.386,-224 -81.4713,-95.3262 273.397,-84.603 393.791,-84.5845"/>
<polygon fill="midnightblue" stroke="midnightblue" points="394.024,-88.085 404.032,-84.6091 394.04,-81.085 394.024,-88.085"/>
</g>
<!-- Node20 -->
<g id="node20" class="node"><title>Node20</title>
<g id="a_node20"><a xlink:href="../../d5/d8b/EMCAL_2base_2include_2EMCALBase_2Hit_8h.html" target="_top" xlink:title="EMCALBase/Hit.h">
<polygon fill="none" stroke="black" points="1405.39,-260.5 1405.39,-279.5 1503.39,-279.5 1503.39,-260.5 1405.39,-260.5"/>
<text text-anchor="middle" x="1454.39" y="-267.5" font-family="Helvetica,sans-Serif" font-size="10.00">EMCALBase/Hit.h</text>
</a>
</g>
</g>
<!-- Node1&#45;&gt;Node20 -->
<g id="edge22" class="edge"><title>Node1&#45;&gt;Node20</title>
<path fill="none" stroke="midnightblue" d="M1121.61,-326.725C1204.42,-312.857 1324.14,-292.81 1395.13,-280.922"/>
<polygon fill="midnightblue" stroke="midnightblue" points="1395.96,-284.332 1405.25,-279.229 1394.8,-277.428 1395.96,-284.332"/>
</g>
<!-- Node22 -->
<g id="node22" class="node"><title>Node22</title>
<g id="a_node22"><a xlink:href="../../dd/d76/Cartesian3D_8h.html" target="_top" xlink:title="MathUtils/Cartesian3D.h">
<polygon fill="none" stroke="black" points="1314.89,-136.5 1314.89,-155.5 1439.89,-155.5 1439.89,-136.5 1314.89,-136.5"/>
<text text-anchor="middle" x="1377.39" y="-143.5" font-family="Helvetica,sans-Serif" font-size="10.00">MathUtils/Cartesian3D.h</text>
</a>
</g>
</g>
<!-- Node1&#45;&gt;Node22 -->
<g id="edge36" class="edge"><title>Node1&#45;&gt;Node22</title>
<path fill="none" stroke="midnightblue" d="M1121.68,-324.703C1187.71,-308.26 1275.64,-277.791 1336.39,-224 1354.32,-208.118 1365.74,-182.467 1371.86,-165.182"/>
<polygon fill="midnightblue" stroke="midnightblue" points="1375.19,-166.255 1374.99,-155.662 1368.54,-164.069 1375.19,-166.255"/>
</g>
<!-- Node33 -->
<g id="node33" class="node"><title>Node33</title>
<polygon fill="none" stroke="#bfbfbf" points="1521.39,-260.5 1521.39,-279.5 1601.39,-279.5 1601.39,-260.5 1521.39,-260.5"/>
<text text-anchor="middle" x="1561.39" y="-267.5" font-family="Helvetica,sans-Serif" font-size="10.00">RStringView.h</text>
</g>
<!-- Node1&#45;&gt;Node33 -->
<g id="edge37" class="edge"><title>Node1&#45;&gt;Node33</title>
<path fill="none" stroke="midnightblue" d="M1121.45,-331.635C1218.32,-320.287 1375.96,-300.903 1511.39,-280 1511.49,-279.984 1511.59,-279.969 1511.69,-279.953"/>
<polygon fill="midnightblue" stroke="midnightblue" points="1511.99,-283.451 1521.3,-278.397 1510.87,-276.541 1511.99,-283.451"/>
</g>
<!-- Node3 -->
<g id="node3" class="node"><title>Node3</title>
<polygon fill="none" stroke="#bfbfbf" points="931.886,-136.5 931.886,-155.5 966.886,-155.5 966.886,-136.5 931.886,-136.5"/>
<text text-anchor="middle" x="949.386" y="-143.5" font-family="Helvetica,sans-Serif" font-size="10.00">map</text>
</g>
<!-- Node2&#45;&gt;Node3 -->
<g id="edge2" class="edge"><title>Node2&#45;&gt;Node3</title>
<path fill="none" stroke="midnightblue" d="M750.031,-264.803C813.563,-259.395 903.894,-247.709 929.386,-224 945.315,-209.185 949.214,-183.454 949.857,-165.846"/>
<polygon fill="midnightblue" stroke="midnightblue" points="953.357,-165.661 949.902,-155.645 946.357,-165.629 953.357,-165.661"/>
</g>
<!-- Node2&#45;&gt;Node4 -->
<g id="edge3" class="edge"><title>Node2&#45;&gt;Node4</title>
<path fill="none" stroke="midnightblue" d="M618.758,-267.22C483.836,-263.055 179.578,-250.917 79.386,-224 77.0475,-223.372 74.673,-222.567 72.3325,-221.657"/>
<polygon fill="midnightblue" stroke="midnightblue" points="73.6383,-218.407 63.0815,-217.509 70.7742,-224.794 73.6383,-218.407"/>
</g>
<!-- Node5 -->
<g id="node5" class="node"><title>Node5</title>
<polygon fill="none" stroke="#bfbfbf" points="1174.89,-136.5 1174.89,-155.5 1247.89,-155.5 1247.89,-136.5 1174.89,-136.5"/>
<text text-anchor="middle" x="1211.39" y="-143.5" font-family="Helvetica,sans-Serif" font-size="10.00">initializer_list</text>
</g>
<!-- Node2&#45;&gt;Node5 -->
<g id="edge4" class="edge"><title>Node2&#45;&gt;Node5</title>
<path fill="none" stroke="midnightblue" d="M750.138,-269.289C904.731,-269.283 1281.18,-265.013 1319.39,-224 1329.08,-213.594 1327.28,-203.834 1319.39,-192 1305.65,-171.389 1280.49,-160.203 1257.91,-154.14"/>
<polygon fill="midnightblue" stroke="midnightblue" points="1258.64,-150.716 1248.1,-151.771 1257,-157.52 1258.64,-150.716"/>
</g>
<!-- Node6 -->
<g id="node6" class="node"><title>Node6</title>
<polygon fill="none" stroke="#bfbfbf" points="1161.39,-198.5 1161.39,-217.5 1213.39,-217.5 1213.39,-198.5 1161.39,-198.5"/>
<text text-anchor="middle" x="1187.39" y="-205.5" font-family="Helvetica,sans-Serif" font-size="10.00">memory</text>
</g>
<!-- Node2&#45;&gt;Node6 -->
<g id="edge5" class="edge"><title>Node2&#45;&gt;Node6</title>
<path fill="none" stroke="midnightblue" d="M750.015,-268.803C841.347,-267.154 1011.34,-259.079 1151.39,-224 1154.38,-223.251 1157.44,-222.294 1160.46,-221.226"/>
<polygon fill="midnightblue" stroke="midnightblue" points="1161.77,-224.473 1169.8,-217.56 1159.21,-217.957 1161.77,-224.473"/>
</g>
<!-- Node7 -->
<g id="node7" class="node"><title>Node7</title>
<polygon fill="none" stroke="#bfbfbf" points="1231.89,-198.5 1231.89,-217.5 1310.89,-217.5 1310.89,-198.5 1231.89,-198.5"/>
<text text-anchor="middle" x="1271.39" y="-205.5" font-family="Helvetica,sans-Serif" font-size="10.00">FairDetector.h</text>
</g>
<!-- Node2&#45;&gt;Node7 -->
<g id="edge6" class="edge"><title>Node2&#45;&gt;Node7</title>
<path fill="none" stroke="midnightblue" d="M750.008,-268.012C851.963,-265.47 1054.19,-256.393 1222.39,-224 1227.26,-223.061 1232.34,-221.818 1237.3,-220.449"/>
<polygon fill="midnightblue" stroke="midnightblue" points="1238.62,-223.709 1247.22,-217.518 1236.64,-216.996 1238.62,-223.709"/>
</g>
<!-- Node8 -->
<g id="node8" class="node"><title>Node8</title>
<polygon fill="none" stroke="#bfbfbf" points="88.386,-198.5 88.386,-217.5 188.386,-217.5 188.386,-198.5 88.386,-198.5"/>
<text text-anchor="middle" x="138.386" y="-205.5" font-family="Helvetica,sans-Serif" font-size="10.00">FairRootManager.h</text>
</g>
<!-- Node2&#45;&gt;Node8 -->
<g id="edge7" class="edge"><title>Node2&#45;&gt;Node8</title>
<path fill="none" stroke="midnightblue" d="M618.535,-265.719C525.387,-260.428 350.035,-248.078 202.386,-224 195.424,-222.865 188.093,-221.403 180.976,-219.839"/>
<polygon fill="midnightblue" stroke="midnightblue" points="181.301,-216.323 170.772,-217.5 179.737,-223.146 181.301,-216.323"/>
</g>
<!-- Node9 -->
<g id="node9" class="node"><title>Node9</title>
<g id="a_node9"><a xlink:href="../../d0/d9a/MaterialManager_8h.html" target="_top" xlink:title="DetectorsBase/MaterialManager.h">
<polygon fill="none" stroke="black" points="977.886,-198.5 977.886,-217.5 1142.89,-217.5 1142.89,-198.5 977.886,-198.5"/>
<text text-anchor="middle" x="1060.39" y="-205.5" font-family="Helvetica,sans-Serif" font-size="10.00">DetectorsBase/MaterialManager.h</text>
</a>
</g>
</g>
<!-- Node2&#45;&gt;Node9 -->
<g id="edge8" class="edge"><title>Node2&#45;&gt;Node9</title>
<path fill="none" stroke="midnightblue" d="M737.858,-260.467C806.213,-249.559 924.395,-230.701 997.144,-219.092"/>
<polygon fill="midnightblue" stroke="midnightblue" points="997.775,-222.536 1007.1,-217.503 996.672,-215.623 997.775,-222.536"/>
</g>
<!-- Node2&#45;&gt;Node10 -->
<g id="edge13" class="edge"><title>Node2&#45;&gt;Node10</title>
<path fill="none" stroke="midnightblue" d="M618.497,-267.182C499.939,-263.225 260.583,-251.848 235.386,-224 180.781,-163.649 322.767,-114.788 394.214,-94.7787"/>
<polygon fill="midnightblue" stroke="midnightblue" points="395.493,-98.0573 404.212,-92.0378 393.643,-91.3064 395.493,-98.0573"/>
</g>
<!-- Node12 -->
<g id="node12" class="node"><title>Node12</title>
<polygon fill="none" stroke="#bfbfbf" points="244.886,-198.5 244.886,-217.5 297.886,-217.5 297.886,-198.5 244.886,-198.5"/>
<text text-anchor="middle" x="271.386" y="-205.5" font-family="Helvetica,sans-Serif" font-size="10.00">cxxabi.h</text>
</g>
<!-- Node2&#45;&gt;Node12 -->
<g id="edge14" class="edge"><title>Node2&#45;&gt;Node12</title>
<path fill="none" stroke="midnightblue" d="M618.774,-266.869C542.526,-263.097 413.475,-252.682 306.386,-224 303.724,-223.287 301.001,-222.408 298.307,-221.437"/>
<polygon fill="midnightblue" stroke="midnightblue" points="299.425,-218.115 288.841,-217.643 296.821,-224.612 299.425,-218.115"/>
</g>
<!-- Node13 -->
<g id="node13" class="node"><title>Node13</title>
<polygon fill="none" stroke="#bfbfbf" points="315.886,-198.5 315.886,-217.5 366.886,-217.5 366.886,-198.5 315.886,-198.5"/>
<text text-anchor="middle" x="341.386" y="-205.5" font-family="Helvetica,sans-Serif" font-size="10.00">typeinfo</text>
</g>
<!-- Node2&#45;&gt;Node13 -->
<g id="edge15" class="edge"><title>Node2&#45;&gt;Node13</title>
<path fill="none" stroke="midnightblue" d="M618.762,-264.378C555.694,-258.78 458.171,-247.074 376.386,-224 373.734,-223.252 371.017,-222.349 368.327,-221.363"/>
<polygon fill="midnightblue" stroke="midnightblue" points="369.451,-218.042 358.867,-217.547 366.832,-224.534 369.451,-218.042"/>
</g>
<!-- Node14 -->
<g id="node14" class="node"><title>Node14</title>
<polygon fill="none" stroke="#bfbfbf" points="385.386,-198.5 385.386,-217.5 447.386,-217.5 447.386,-198.5 385.386,-198.5"/>
<text text-anchor="middle" x="416.386" y="-205.5" font-family="Helvetica,sans-Serif" font-size="10.00">type_traits</text>
</g>
<!-- Node2&#45;&gt;Node14 -->
<g id="edge16" class="edge"><title>Node2&#45;&gt;Node14</title>
<path fill="none" stroke="midnightblue" d="M628.777,-260.453C582.47,-252.747 515.029,-240.153 457.386,-224 454.175,-223.1 450.856,-222.066 447.562,-220.972"/>
<polygon fill="midnightblue" stroke="midnightblue" points="448.48,-217.584 437.885,-217.576 446.162,-224.19 448.48,-217.584"/>
</g>
<!-- Node15 -->
<g id="node15" class="node"><title>Node15</title>
<polygon fill="none" stroke="#bfbfbf" points="465.886,-198.5 465.886,-217.5 506.886,-217.5 506.886,-198.5 465.886,-198.5"/>
<text text-anchor="middle" x="486.386" y="-205.5" font-family="Helvetica,sans-Serif" font-size="10.00">string</text>
</g>
<!-- Node2&#45;&gt;Node15 -->
<g id="edge17" class="edge"><title>Node2&#45;&gt;Node15</title>
<path fill="none" stroke="midnightblue" d="M643.264,-260.431C608.796,-252.672 558.591,-240.015 516.386,-224 514.739,-223.375 513.063,-222.688 511.386,-221.963"/>
<polygon fill="midnightblue" stroke="midnightblue" points="512.538,-218.637 501.999,-217.552 509.561,-224.973 512.538,-218.637"/>
</g>
<!-- Node16 -->
<g id="node16" class="node"><title>Node16</title>
<polygon fill="none" stroke="#bfbfbf" points="524.886,-198.5 524.886,-217.5 617.886,-217.5 617.886,-198.5 524.886,-198.5"/>
<text text-anchor="middle" x="571.386" y="-205.5" font-family="Helvetica,sans-Serif" font-size="10.00">FairMQChannel.h</text>
</g>
<!-- Node2&#45;&gt;Node16 -->
<g id="edge18" class="edge"><title>Node2&#45;&gt;Node16</title>
<path fill="none" stroke="midnightblue" d="M668.196,-260.403C649.484,-250.468 618.463,-233.997 596.587,-222.381"/>
<polygon fill="midnightblue" stroke="midnightblue" points="598.02,-219.179 587.546,-217.581 594.737,-225.362 598.02,-219.179"/>
</g>
<!-- Node17 -->
<g id="node17" class="node"><title>Node17</title>
<polygon fill="none" stroke="#bfbfbf" points="635.886,-198.5 635.886,-217.5 732.886,-217.5 732.886,-198.5 635.886,-198.5"/>
<text text-anchor="middle" x="684.386" y="-205.5" font-family="Helvetica,sans-Serif" font-size="10.00">FairMQMessage.h</text>
</g>
<!-- Node2&#45;&gt;Node17 -->
<g id="edge19" class="edge"><title>Node2&#45;&gt;Node17</title>
<path fill="none" stroke="midnightblue" d="M684.386,-260.403C684.386,-251.938 684.386,-238.728 684.386,-227.82"/>
<polygon fill="midnightblue" stroke="midnightblue" points="687.886,-227.581 684.386,-217.581 680.886,-227.581 687.886,-227.581"/>
</g>
<!-- Node18 -->
<g id="node18" class="node"><title>Node18</title>
<polygon fill="none" stroke="#bfbfbf" points="751.386,-198.5 751.386,-217.5 831.386,-217.5 831.386,-198.5 751.386,-198.5"/>
<text text-anchor="middle" x="791.386" y="-205.5" font-family="Helvetica,sans-Serif" font-size="10.00">FairMQParts.h</text>
</g>
<!-- Node2&#45;&gt;Node18 -->
<g id="edge20" class="edge"><title>Node2&#45;&gt;Node18</title>
<path fill="none" stroke="midnightblue" d="M699.717,-260.403C717.356,-250.512 746.546,-234.144 767.244,-222.538"/>
<polygon fill="midnightblue" stroke="midnightblue" points="769.074,-225.524 776.084,-217.581 765.65,-219.419 769.074,-225.524"/>
</g>
<!-- Node19 -->
<g id="node19" class="node"><title>Node19</title>
<polygon fill="none" stroke="#bfbfbf" points="849.886,-198.5 849.886,-217.5 920.886,-217.5 920.886,-198.5 849.886,-198.5"/>
<text text-anchor="middle" x="885.386" y="-205.5" font-family="Helvetica,sans-Serif" font-size="10.00">TMessage.h</text>
</g>
<!-- Node2&#45;&gt;Node19 -->
<g id="edge21" class="edge"><title>Node2&#45;&gt;Node19</title>
<path fill="none" stroke="midnightblue" d="M715.28,-260.49C746.833,-251.705 797.183,-237.426 840.386,-224 843.711,-222.967 847.165,-221.866 850.615,-220.747"/>
<polygon fill="midnightblue" stroke="midnightblue" points="851.809,-224.039 860.217,-217.592 849.624,-217.389 851.809,-224.039"/>
</g>
<!-- Node9&#45;&gt;Node3 -->
<g id="edge10" class="edge"><title>Node9&#45;&gt;Node3</title>
<path fill="none" stroke="midnightblue" d="M1044.48,-198.403C1026.1,-188.468 995.63,-171.997 974.141,-160.381"/>
<polygon fill="midnightblue" stroke="midnightblue" points="975.722,-157.257 965.26,-155.581 972.393,-163.415 975.722,-157.257"/>
</g>
<!-- Node9&#45;&gt;Node5 -->
<g id="edge12" class="edge"><title>Node9&#45;&gt;Node5</title>
<path fill="none" stroke="midnightblue" d="M1082.02,-198.403C1107.81,-188.156 1151.1,-170.956 1180.43,-159.302"/>
<polygon fill="midnightblue" stroke="midnightblue" points="1181.79,-162.526 1189.79,-155.581 1179.21,-156.021 1181.79,-162.526"/>
</g>
<!-- Node9&#45;&gt;Node10 -->
<g id="edge9" class="edge"><title>Node9&#45;&gt;Node10</title>
<path fill="none" stroke="midnightblue" d="M1066.59,-198.326C1076.32,-183.56 1092.51,-153.448 1076.39,-136 1066.04,-124.798 608.068,-95.7964 470.845,-87.3442"/>
<polygon fill="midnightblue" stroke="midnightblue" points="470.983,-83.8461 460.787,-86.7261 470.554,-90.833 470.983,-83.8461"/>
</g>
<!-- Node11 -->
<g id="node11" class="node"><title>Node11</title>
<polygon fill="none" stroke="#bfbfbf" points="984.886,-136.5 984.886,-155.5 1067.89,-155.5 1067.89,-136.5 984.886,-136.5"/>
<text text-anchor="middle" x="1026.39" y="-143.5" font-family="Helvetica,sans-Serif" font-size="10.00">unordered_map</text>
</g>
<!-- Node9&#45;&gt;Node11 -->
<g id="edge11" class="edge"><title>Node9&#45;&gt;Node11</title>
<path fill="none" stroke="midnightblue" d="M1055.51,-198.403C1050.52,-189.582 1042.6,-175.608 1036.28,-164.455"/>
<polygon fill="midnightblue" stroke="midnightblue" points="1039.22,-162.555 1031.25,-155.581 1033.13,-166.006 1039.22,-162.555"/>
</g>
<!-- Node21 -->
<g id="node21" class="node"><title>Node21</title>
<g id="a_node21"><a xlink:href="../../d4/d25/BaseHits_8h.html" target="_top" xlink:title="SimulationDataFormat\l/BaseHits.h">
<polygon fill="none" stroke="black" points="1405.39,-193 1405.39,-223 1519.39,-223 1519.39,-193 1405.39,-193"/>
<text text-anchor="start" x="1413.39" y="-211" font-family="Helvetica,sans-Serif" font-size="10.00">SimulationDataFormat</text>
<text text-anchor="middle" x="1462.39" y="-200" font-family="Helvetica,sans-Serif" font-size="10.00">/BaseHits.h</text>
</a>
</g>
</g>
<!-- Node20&#45;&gt;Node21 -->
<g id="edge23" class="edge"><title>Node20&#45;&gt;Node21</title>
<path fill="none" stroke="midnightblue" d="M1455.53,-260.403C1456.48,-253.265 1457.89,-242.752 1459.17,-233.09"/>
<polygon fill="midnightblue" stroke="midnightblue" points="1462.65,-233.516 1460.5,-223.141 1455.71,-232.59 1462.65,-233.516"/>
</g>
<!-- Node21&#45;&gt;Node22 -->
<g id="edge24" class="edge"><title>Node21&#45;&gt;Node22</title>
<path fill="none" stroke="midnightblue" d="M1442.24,-192.781C1428.79,-183.286 1411.16,-170.843 1397.68,-161.327"/>
<polygon fill="midnightblue" stroke="midnightblue" points="1399.69,-158.463 1389.51,-155.556 1395.66,-164.182 1399.69,-158.463"/>
</g>
<!-- Node22&#45;&gt;Node10 -->
<g id="edge30" class="edge"><title>Node22&#45;&gt;Node10</title>
<path fill="none" stroke="midnightblue" d="M1314.6,-140.181C1295.87,-138.784 1275.3,-137.289 1256.39,-136 1100.47,-125.377 612.274,-95.8455 471.026,-87.3275"/>
<polygon fill="midnightblue" stroke="midnightblue" points="470.898,-83.8135 460.706,-86.7052 470.477,-90.8008 470.898,-83.8135"/>
</g>
<!-- Node23 -->
<g id="node23" class="node"><title>Node23</title>
<polygon fill="none" stroke="#bfbfbf" points="1707.89,-69 1707.89,-99 1858.89,-99 1858.89,-69 1707.89,-69"/>
<text text-anchor="start" x="1715.89" y="-87" font-family="Helvetica,sans-Serif" font-size="10.00">Math/GenVector/Displacement</text>
<text text-anchor="middle" x="1783.39" y="-76" font-family="Helvetica,sans-Serif" font-size="10.00">Vector3D.h</text>
</g>
<!-- Node22&#45;&gt;Node23 -->
<g id="edge25" class="edge"><title>Node22&#45;&gt;Node23</title>
<path fill="none" stroke="midnightblue" d="M1439.92,-136.9C1502.53,-128.638 1601.89,-115.121 1697.98,-100.03"/>
<polygon fill="midnightblue" stroke="midnightblue" points="1698.53,-103.486 1707.87,-98.4701 1697.44,-96.5717 1698.53,-103.486"/>
</g>
<!-- Node24 -->
<g id="node24" class="node"><title>Node24</title>
<polygon fill="none" stroke="#bfbfbf" points="694.386,-74.5 694.386,-93.5 870.386,-93.5 870.386,-74.5 694.386,-74.5"/>
<text text-anchor="middle" x="782.386" y="-81.5" font-family="Helvetica,sans-Serif" font-size="10.00">Math/GenVector/PositionVector3D.h</text>
</g>
<!-- Node22&#45;&gt;Node24 -->
<g id="edge26" class="edge"><title>Node22&#45;&gt;Node24</title>
<path fill="none" stroke="midnightblue" d="M1314.64,-139.83C1200.25,-130.321 961.999,-110.11 879.386,-100 867.691,-98.5689 855.238,-96.8166 843.289,-95.0211"/>
<polygon fill="midnightblue" stroke="midnightblue" points="843.813,-91.5605 833.399,-93.5088 842.755,-98.4801 843.813,-91.5605"/>
</g>
<!-- Node25 -->
<g id="node25" class="node"><title>Node25</title>
<polygon fill="none" stroke="#bfbfbf" points="887.886,-74.5 887.886,-93.5 1036.89,-93.5 1036.89,-74.5 887.886,-74.5"/>
<text text-anchor="middle" x="962.386" y="-81.5" font-family="Helvetica,sans-Serif" font-size="10.00">Math/GenVector/Rotation3D.h</text>
</g>
<!-- Node22&#45;&gt;Node25 -->
<g id="edge27" class="edge"><title>Node22&#45;&gt;Node25</title>
<path fill="none" stroke="midnightblue" d="M1314.74,-137.272C1248.09,-128.865 1139.63,-114.657 1046.39,-100 1037.25,-98.564 1027.58,-96.9365 1018.17,-95.2962"/>
<polygon fill="midnightblue" stroke="midnightblue" points="1018.56,-91.8112 1008.1,-93.5198 1017.34,-98.7047 1018.56,-91.8112"/>
</g>
<!-- Node26 -->
<g id="node26" class="node"><title>Node26</title>
<polygon fill="none" stroke="#bfbfbf" points="1055.39,-74.5 1055.39,-93.5 1211.39,-93.5 1211.39,-74.5 1055.39,-74.5"/>
<text text-anchor="middle" x="1133.39" y="-81.5" font-family="Helvetica,sans-Serif" font-size="10.00">Math/GenVector/Transform3D.h</text>
</g>
<!-- Node22&#45;&gt;Node26 -->
<g id="edge28" class="edge"><title>Node22&#45;&gt;Node26</title>
<path fill="none" stroke="midnightblue" d="M1342.69,-136.467C1299.42,-125.827 1225.38,-107.622 1177.95,-95.9593"/>
<polygon fill="midnightblue" stroke="midnightblue" points="1178.51,-92.4926 1167.97,-93.5034 1176.84,-99.2901 1178.51,-92.4926"/>
</g>
<!-- Node27 -->
<g id="node27" class="node"><title>Node27</title>
<polygon fill="none" stroke="#bfbfbf" points="1229.39,-74.5 1229.39,-93.5 1389.39,-93.5 1389.39,-74.5 1229.39,-74.5"/>
<text text-anchor="middle" x="1309.39" y="-81.5" font-family="Helvetica,sans-Serif" font-size="10.00">Math/GenVector/Translation3D.h</text>
</g>
<!-- Node22&#45;&gt;Node27 -->
<g id="edge29" class="edge"><title>Node22&#45;&gt;Node27</title>
<path fill="none" stroke="midnightblue" d="M1367.64,-136.403C1357.04,-127.047 1339.87,-111.895 1326.91,-100.46"/>
<polygon fill="midnightblue" stroke="midnightblue" points="1328.92,-97.5724 1319.11,-93.5806 1324.29,-102.821 1328.92,-97.5724"/>
</g>
<!-- Node28 -->
<g id="node28" class="node"><title>Node28</title>
<polygon fill="none" stroke="#bfbfbf" points="1407.39,-74.5 1407.39,-93.5 1483.39,-93.5 1483.39,-74.5 1407.39,-74.5"/>
<text text-anchor="middle" x="1445.39" y="-81.5" font-family="Helvetica,sans-Serif" font-size="10.00">TGeoMatrix.h</text>
</g>
<!-- Node22&#45;&gt;Node28 -->
<g id="edge31" class="edge"><title>Node22&#45;&gt;Node28</title>
<path fill="none" stroke="midnightblue" d="M1387.13,-136.403C1397.73,-127.047 1414.91,-111.895 1427.86,-100.46"/>
<polygon fill="midnightblue" stroke="midnightblue" points="1430.48,-102.821 1435.66,-93.5806 1425.85,-97.5724 1430.48,-102.821"/>
</g>
<!-- Node29 -->
<g id="node29" class="node"><title>Node29</title>
<polygon fill="none" stroke="#bfbfbf" points="1501.89,-74.5 1501.89,-93.5 1546.89,-93.5 1546.89,-74.5 1501.89,-74.5"/>
<text text-anchor="middle" x="1524.39" y="-81.5" font-family="Helvetica,sans-Serif" font-size="10.00">iosfwd</text>
</g>
<!-- Node22&#45;&gt;Node29 -->
<g id="edge32" class="edge"><title>Node22&#45;&gt;Node29</title>
<path fill="none" stroke="midnightblue" d="M1400.48,-136.473C1423.82,-127.731 1460.87,-113.537 1492.39,-100 1493.98,-99.3175 1495.6,-98.6034 1497.24,-97.8731"/>
<polygon fill="midnightblue" stroke="midnightblue" points="1498.9,-100.961 1506.54,-93.6172 1495.99,-94.596 1498.9,-100.961"/>
</g>
<!-- Node30 -->
<g id="node30" class="node"><title>Node30</title>
<g id="a_node30"><a xlink:href="../../d2/dd0/Cartesian2D_8h.html" target="_top" xlink:title="MathUtils/Cartesian2D.h">
<polygon fill="none" stroke="black" points="1564.89,-74.5 1564.89,-93.5 1689.89,-93.5 1689.89,-74.5 1564.89,-74.5"/>
<text text-anchor="middle" x="1627.39" y="-81.5" font-family="Helvetica,sans-Serif" font-size="10.00">MathUtils/Cartesian2D.h</text>
</a>
</g>
</g>
<!-- Node22&#45;&gt;Node30 -->
<g id="edge33" class="edge"><title>Node22&#45;&gt;Node30</title>
<path fill="none" stroke="midnightblue" d="M1412.94,-136.467C1457.37,-125.805 1533.45,-107.545 1582.03,-95.886"/>
<polygon fill="midnightblue" stroke="midnightblue" points="1583.05,-99.2405 1591.96,-93.5034 1581.41,-92.4338 1583.05,-99.2405"/>
</g>
<!-- Node31 -->
<g id="node31" class="node"><title>Node31</title>
<polygon fill="none" stroke="#bfbfbf" points="1460.89,-1 1460.89,-31 1611.89,-31 1611.89,-1 1460.89,-1"/>
<text text-anchor="start" x="1468.89" y="-19" font-family="Helvetica,sans-Serif" font-size="10.00">Math/GenVector/Displacement</text>
<text text-anchor="middle" x="1536.39" y="-8" font-family="Helvetica,sans-Serif" font-size="10.00">Vector2D.h</text>
</g>
<!-- Node30&#45;&gt;Node31 -->
<g id="edge34" class="edge"><title>Node30&#45;&gt;Node31</title>
<path fill="none" stroke="midnightblue" d="M1615.49,-74.3717C1602.61,-65.0286 1581.61,-49.7966 1564.48,-37.375"/>
<polygon fill="midnightblue" stroke="midnightblue" points="1566.09,-34.2194 1555.94,-31.1815 1561.98,-39.8859 1566.09,-34.2194"/>
</g>
<!-- Node32 -->
<g id="node32" class="node"><title>Node32</title>
<polygon fill="none" stroke="#bfbfbf" points="1630.39,-6.5 1630.39,-25.5 1806.39,-25.5 1806.39,-6.5 1630.39,-6.5"/>
<text text-anchor="middle" x="1718.39" y="-13.5" font-family="Helvetica,sans-Serif" font-size="10.00">Math/GenVector/PositionVector2D.h</text>
</g>
<!-- Node30&#45;&gt;Node32 -->
<g id="edge35" class="edge"><title>Node30&#45;&gt;Node32</title>
<path fill="none" stroke="midnightblue" d="M1639.28,-74.3717C1654.27,-63.5015 1680.25,-44.6602 1698.33,-31.5474"/>
<polygon fill="midnightblue" stroke="midnightblue" points="1700.45,-34.3349 1706.49,-25.6305 1696.34,-28.6684 1700.45,-34.3349"/>
</g>
</g>
</svg>
