<?xml version="1.0" encoding="UTF-8" standalone="no"?>
<!DOCTYPE svg PUBLIC "-//W3C//DTD SVG 1.1//EN"
 "http://www.w3.org/Graphics/SVG/1.1/DTD/svg11.dtd">
<!-- Generated by graphviz version 2.36.0 (20140111.2315)
 -->
<!-- Title: /home/travis/build/AliceO2Group/AliceO2/Detectors/MUON/MCH/Contour/include/MCHContour/Vertex.h Pages: 1 -->
<!--zoomable 702 -->
<svg id="main" version="1.1" xmlns="http://www.w3.org/2000/svg" xmlns:xlink="http://www.w3.org/1999/xlink" xml:space="preserve" onload="init(evt)">
<style type="text/css"><![CDATA[
.edge:hover path { stroke: red; }
.edge:hover polygon { stroke: red; fill: red; }
]]></style>
<script type="text/javascript"><![CDATA[
var edges = document.getElementsByTagName('g');
if (edges && edges.length) {
  for (var i=0;i<edges.length;i++) {
    if (edges[i].id.substr(0,4)=='edge') {
      edges[i].setAttribute('class','edge');
    }
  }
}
]]></script>
        <defs>
                <circle id="rim" cx="0" cy="0" r="7"/>
                <circle id="rim2" cx="0" cy="0" r="3.5"/>
                <g id="zoomPlus">
                        <use xlink:href="#rim" fill="#404040">
                                <set attributeName="fill" to="#808080" begin="zoomplus.mouseover" end="zoomplus.mouseout"/>
                        </use>
                        <path d="M-4,0h8M0,-4v8" fill="none" stroke="white" stroke-width="1.5" pointer-events="none"/>
                </g>
                <g id="zoomMin">
                        <use xlink:href="#rim" fill="#404040">
                                <set attributeName="fill" to="#808080" begin="zoomminus.mouseover" end="zoomminus.mouseout"/>
                        </use>
                        <path d="M-4,0h8" fill="none" stroke="white" stroke-width="1.5" pointer-events="none"/>
                </g>
                <g id="dirArrow">
                        <path fill="none" stroke="white" stroke-width="1.5" d="M0,-3.0v7 M-2.5,-0.5L0,-3.0L2.5,-0.5"/>
                </g>
               <g id="resetDef">
                       <use xlink:href="#rim2" fill="#404040">
                               <set attributeName="fill" to="#808080" begin="reset.mouseover" end="reset.mouseout"/>
                       </use>
               </g>
        </defs>

<script type="text/javascript">
var viewWidth = 1202;
var viewHeight = 702;
var sectionId = 'dynsection-1';
</script>
<script xlink:href="../../svgpan.js"/>
<svg id="graph" class="graph">
<g id="viewport">
<title>/home/travis/build/AliceO2Group/AliceO2/Detectors/MUON/MCH/Contour/include/MCHContour/Vertex.h</title>
<!-- Node1 -->
<g id="node1" class="node"><title>Node1</title>
<polygon fill="#bfbfbf" stroke="black" points="262,-641 262,-693 422,-693 422,-641 262,-641"/>
<text text-anchor="start" x="270" y="-681" font-family="Helvetica,sans-Serif" font-size="10.00">/home/travis/build</text>
<text text-anchor="start" x="270" y="-670" font-family="Helvetica,sans-Serif" font-size="10.00">/AliceO2Group/AliceO2</text>
<text text-anchor="start" x="270" y="-659" font-family="Helvetica,sans-Serif" font-size="10.00">/Detectors/MUON/MCH/Contour</text>
<text text-anchor="middle" x="342" y="-648" font-family="Helvetica,sans-Serif" font-size="10.00">/include/MCHContour/Vertex.h</text>
</g>
<!-- Node2 -->
<g id="node2" class="node"><title>Node2</title>
<g id="a_node2"><a xlink:href="../../dc/ddd/Polygon_8h.html" target="_top" xlink:title="/home/travis/build\l/AliceO2Group/AliceO2\l/Detectors/MUON/MCH/Contour\l/include/MCHContour/Polygon.h">
<polygon fill="none" stroke="black" points="262,-551 262,-603 422,-603 422,-551 262,-551"/>
<text text-anchor="start" x="270" y="-591" font-family="Helvetica,sans-Serif" font-size="10.00">/home/travis/build</text>
<text text-anchor="start" x="270" y="-580" font-family="Helvetica,sans-Serif" font-size="10.00">/AliceO2Group/AliceO2</text>
<text text-anchor="start" x="270" y="-569" font-family="Helvetica,sans-Serif" font-size="10.00">/Detectors/MUON/MCH/Contour</text>
<text text-anchor="middle" x="342" y="-558" font-family="Helvetica,sans-Serif" font-size="10.00">/include/MCHContour/Polygon.h</text>
</a>
</g>
</g>
<!-- Node1&#45;&gt;Node2 -->
<g id="edge1" class="edge"><title>Node1&#45;&gt;Node2</title>
<path fill="none" stroke="midnightblue" d="M342,-630.489C342,-621.309 342,-611.616 342,-603.092"/>
<polygon fill="midnightblue" stroke="midnightblue" points="338.5,-630.547 342,-640.547 345.5,-630.547 338.5,-630.547"/>
</g>
<!-- Node18 -->
<g id="node18" class="node"><title>Node18</title>
<g id="a_node18"><a xlink:href="../../d5/de0/Edge_8h.html" target="_top" xlink:title="/home/travis/build\l/AliceO2Group/AliceO2\l/Detectors/MUON/MCH/Contour\l/include/MCHContour/Edge.h">
<polygon fill="none" stroke="black" points="46,-551 46,-603 206,-603 206,-551 46,-551"/>
<text text-anchor="start" x="54" y="-591" font-family="Helvetica,sans-Serif" font-size="10.00">/home/travis/build</text>
<text text-anchor="start" x="54" y="-580" font-family="Helvetica,sans-Serif" font-size="10.00">/AliceO2Group/AliceO2</text>
<text text-anchor="start" x="54" y="-569" font-family="Helvetica,sans-Serif" font-size="10.00">/Detectors/MUON/MCH/Contour</text>
<text text-anchor="middle" x="126" y="-558" font-family="Helvetica,sans-Serif" font-size="10.00">/include/MCHContour/Edge.h</text>
</a>
</g>
</g>
<!-- Node1&#45;&gt;Node18 -->
<g id="edge29" class="edge"><title>Node1&#45;&gt;Node18</title>
<path fill="none" stroke="midnightblue" d="M271.028,-637.085C244.105,-626.117 213.689,-613.725 187.69,-603.133"/>
<polygon fill="midnightblue" stroke="midnightblue" points="269.811,-640.369 280.392,-640.901 272.452,-633.886 269.811,-640.369"/>
</g>
<!-- Node20 -->
<g id="node20" class="node"><title>Node20</title>
<g id="a_node20"><a xlink:href="../../d2/db1/Detectors_2MUON_2MCH_2Contour_2test_2Vertex_8cxx.html" target="_top" xlink:title="/home/travis/build\l/AliceO2Group/AliceO2\l/Detectors/MUON/MCH/Contour\l/test/Vertex.cxx">
<polygon fill="none" stroke="black" points="440,-551 440,-603 600,-603 600,-551 440,-551"/>
<text text-anchor="start" x="448" y="-591" font-family="Helvetica,sans-Serif" font-size="10.00">/home/travis/build</text>
<text text-anchor="start" x="448" y="-580" font-family="Helvetica,sans-Serif" font-size="10.00">/AliceO2Group/AliceO2</text>
<text text-anchor="start" x="448" y="-569" font-family="Helvetica,sans-Serif" font-size="10.00">/Detectors/MUON/MCH/Contour</text>
<text text-anchor="middle" x="520" y="-558" font-family="Helvetica,sans-Serif" font-size="10.00">/test/Vertex.cxx</text>
</a>
</g>
</g>
<!-- Node1&#45;&gt;Node20 -->
<g id="edge32" class="edge"><title>Node1&#45;&gt;Node20</title>
<path fill="none" stroke="midnightblue" d="M402.178,-636.249C423.986,-625.468 448.382,-613.407 469.293,-603.069"/>
<polygon fill="midnightblue" stroke="midnightblue" points="400.421,-633.213 393.008,-640.783 403.523,-639.488 400.421,-633.213"/>
</g>
<!-- Node3 -->
<g id="node3" class="node"><title>Node3</title>
<g id="a_node3"><a xlink:href="../../db/d08/Contour_8h.html" target="_top" xlink:title="/home/travis/build\l/AliceO2Group/AliceO2\l/Detectors/MUON/MCH/Contour\l/include/MCHContour/Contour.h">
<polygon fill="none" stroke="black" points="440,-461 440,-513 600,-513 600,-461 440,-461"/>
<text text-anchor="start" x="448" y="-501" font-family="Helvetica,sans-Serif" font-size="10.00">/home/travis/build</text>
<text text-anchor="start" x="448" y="-490" font-family="Helvetica,sans-Serif" font-size="10.00">/AliceO2Group/AliceO2</text>
<text text-anchor="start" x="448" y="-479" font-family="Helvetica,sans-Serif" font-size="10.00">/Detectors/MUON/MCH/Contour</text>
<text text-anchor="middle" x="520" y="-468" font-family="Helvetica,sans-Serif" font-size="10.00">/include/MCHContour/Contour.h</text>
</a>
</g>
</g>
<!-- Node2&#45;&gt;Node3 -->
<g id="edge2" class="edge"><title>Node2&#45;&gt;Node3</title>
<path fill="none" stroke="midnightblue" d="M402.178,-546.249C423.986,-535.468 448.382,-523.407 469.293,-513.069"/>
<polygon fill="midnightblue" stroke="midnightblue" points="400.421,-543.213 393.008,-550.783 403.523,-549.488 400.421,-543.213"/>
</g>
<!-- Node4 -->
<g id="node4" class="node"><title>Node4</title>
<g id="a_node4"><a xlink:href="../../dc/d15/ContourCreator_8inl.html" target="_top" xlink:title="/home/travis/build\l/AliceO2Group/AliceO2\l/Detectors/MUON/MCH/Contour\l/include/MCHContour/ContourCreator.inl">
<polygon fill="none" stroke="black" points="137,-371 137,-423 331,-423 331,-371 137,-371"/>
<text text-anchor="start" x="145" y="-411" font-family="Helvetica,sans-Serif" font-size="10.00">/home/travis/build</text>
<text text-anchor="start" x="145" y="-400" font-family="Helvetica,sans-Serif" font-size="10.00">/AliceO2Group/AliceO2</text>
<text text-anchor="start" x="145" y="-389" font-family="Helvetica,sans-Serif" font-size="10.00">/Detectors/MUON/MCH/Contour</text>
<text text-anchor="middle" x="234" y="-378" font-family="Helvetica,sans-Serif" font-size="10.00">/include/MCHContour/ContourCreator.inl</text>
</a>
</g>
</g>
<!-- Node2&#45;&gt;Node4 -->
<g id="edge26" class="edge"><title>Node2&#45;&gt;Node4</title>
<path fill="none" stroke="midnightblue" d="M283.027,-544.984C271.471,-536.393 260.594,-526.05 253,-514 235.591,-486.376 232.521,-447.97 232.667,-423.049"/>
<polygon fill="midnightblue" stroke="midnightblue" points="281.325,-548.064 291.525,-550.93 285.338,-542.329 281.325,-548.064"/>
</g>
<!-- Node15 -->
<g id="node15" class="node"><title>Node15</title>
<g id="a_node15"><a xlink:href="../../dd/d1c/SegmentationContours_8h.html" target="_top" xlink:title="/home/travis/build\l/AliceO2Group/AliceO2\l/Detectors/MUON/MCH/Mapping\l/SegContour/include/MCHMappingSegContour\l/SegmentationContours.h">
<polygon fill="none" stroke="black" points="378,-90.5 378,-153.5 598,-153.5 598,-90.5 378,-90.5"/>
<text text-anchor="start" x="386" y="-141.5" font-family="Helvetica,sans-Serif" font-size="10.00">/home/travis/build</text>
<text text-anchor="start" x="386" y="-130.5" font-family="Helvetica,sans-Serif" font-size="10.00">/AliceO2Group/AliceO2</text>
<text text-anchor="start" x="386" y="-119.5" font-family="Helvetica,sans-Serif" font-size="10.00">/Detectors/MUON/MCH/Mapping</text>
<text text-anchor="start" x="386" y="-108.5" font-family="Helvetica,sans-Serif" font-size="10.00">/SegContour/include/MCHMappingSegContour</text>
<text text-anchor="middle" x="488" y="-97.5" font-family="Helvetica,sans-Serif" font-size="10.00">/SegmentationContours.h</text>
</a>
</g>
</g>
<!-- Node2&#45;&gt;Node15 -->
<g id="edge28" class="edge"><title>Node2&#45;&gt;Node15</title>
<path fill="none" stroke="midnightblue" d="M432.46,-549.945C513.159,-534.08 559.893,-574.034 609,-514 699.656,-403.173 572.635,-224.571 514.443,-153.549"/>
<polygon fill="midnightblue" stroke="midnightblue" points="431.452,-546.584 422.448,-552.167 432.968,-553.417 431.452,-546.584"/>
</g>
<!-- Node17 -->
<g id="node17" class="node"><title>Node17</title>
<g id="a_node17"><a xlink:href="../../d4/d33/Polygon_8cxx.html" target="_top" xlink:title="/home/travis/build\l/AliceO2Group/AliceO2\l/Detectors/MUON/MCH/Contour\l/test/Polygon.cxx">
<polygon fill="none" stroke="black" points="262,-461 262,-513 422,-513 422,-461 262,-461"/>
<text text-anchor="start" x="270" y="-501" font-family="Helvetica,sans-Serif" font-size="10.00">/home/travis/build</text>
<text text-anchor="start" x="270" y="-490" font-family="Helvetica,sans-Serif" font-size="10.00">/AliceO2Group/AliceO2</text>
<text text-anchor="start" x="270" y="-479" font-family="Helvetica,sans-Serif" font-size="10.00">/Detectors/MUON/MCH/Contour</text>
<text text-anchor="middle" x="342" y="-468" font-family="Helvetica,sans-Serif" font-size="10.00">/test/Polygon.cxx</text>
</a>
</g>
</g>
<!-- Node2&#45;&gt;Node17 -->
<g id="edge27" class="edge"><title>Node2&#45;&gt;Node17</title>
<path fill="none" stroke="midnightblue" d="M342,-540.489C342,-531.309 342,-521.616 342,-513.092"/>
<polygon fill="midnightblue" stroke="midnightblue" points="338.5,-540.547 342,-550.547 345.5,-540.547 338.5,-540.547"/>
</g>
<!-- Node3&#45;&gt;Node4 -->
<g id="edge3" class="edge"><title>Node3&#45;&gt;Node4</title>
<path fill="none" stroke="midnightblue" d="M430.248,-458.384C393.528,-447.086 351.344,-434.106 315.519,-423.083"/>
<polygon fill="midnightblue" stroke="midnightblue" points="429.366,-461.774 439.953,-461.37 431.424,-455.084 429.366,-461.774"/>
</g>
<!-- Node6 -->
<g id="node6" class="node"><title>Node6</title>
<g id="a_node6"><a xlink:href="../../de/d51/SVGWriter_8h.html" target="_top" xlink:title="/home/travis/build\l/AliceO2Group/AliceO2\l/Detectors/MUON/MCH/Contour\l/include/MCHContour/SVGWriter.h">
<polygon fill="none" stroke="black" points="592,-191 592,-243 762,-243 762,-191 592,-191"/>
<text text-anchor="start" x="600" y="-231" font-family="Helvetica,sans-Serif" font-size="10.00">/home/travis/build</text>
<text text-anchor="start" x="600" y="-220" font-family="Helvetica,sans-Serif" font-size="10.00">/AliceO2Group/AliceO2</text>
<text text-anchor="start" x="600" y="-209" font-family="Helvetica,sans-Serif" font-size="10.00">/Detectors/MUON/MCH/Contour</text>
<text text-anchor="middle" x="677" y="-198" font-family="Helvetica,sans-Serif" font-size="10.00">/include/MCHContour/SVGWriter.h</text>
</a>
</g>
</g>
<!-- Node3&#45;&gt;Node6 -->
<g id="edge17" class="edge"><title>Node3&#45;&gt;Node6</title>
<path fill="none" stroke="midnightblue" d="M557.209,-453.83C566.363,-444.777 575.639,-434.515 583,-424 624.594,-364.582 655.059,-283.811 668.832,-243.327"/>
<polygon fill="midnightblue" stroke="midnightblue" points="554.725,-451.363 549.933,-460.812 559.572,-456.413 554.725,-451.363"/>
</g>
<!-- Node14 -->
<g id="node14" class="node"><title>Node14</title>
<g id="a_node14"><a xlink:href="../../d8/d3b/Contour_8cxx.html" target="_top" xlink:title="/home/travis/build\l/AliceO2Group/AliceO2\l/Detectors/MUON/MCH/Contour\l/test/Contour.cxx">
<polygon fill="none" stroke="black" points="414,-371 414,-423 574,-423 574,-371 414,-371"/>
<text text-anchor="start" x="422" y="-411" font-family="Helvetica,sans-Serif" font-size="10.00">/home/travis/build</text>
<text text-anchor="start" x="422" y="-400" font-family="Helvetica,sans-Serif" font-size="10.00">/AliceO2Group/AliceO2</text>
<text text-anchor="start" x="422" y="-389" font-family="Helvetica,sans-Serif" font-size="10.00">/Detectors/MUON/MCH/Contour</text>
<text text-anchor="middle" x="494" y="-378" font-family="Helvetica,sans-Serif" font-size="10.00">/test/Contour.cxx</text>
</a>
</g>
</g>
<!-- Node3&#45;&gt;Node14 -->
<g id="edge18" class="edge"><title>Node3&#45;&gt;Node14</title>
<path fill="none" stroke="midnightblue" d="M509.596,-450.785C506.857,-441.517 503.959,-431.708 501.414,-423.092"/>
<polygon fill="midnightblue" stroke="midnightblue" points="506.29,-451.948 512.48,-460.547 513.003,-449.965 506.29,-451.948"/>
</g>
<!-- Node3&#45;&gt;Node15 -->
<g id="edge19" class="edge"><title>Node3&#45;&gt;Node15</title>
<path fill="none" stroke="midnightblue" d="M437.162,-455.801C424.329,-447.469 412.773,-437.021 405,-424 351.792,-334.866 424.633,-210.653 464.715,-153.72"/>
<polygon fill="midnightblue" stroke="midnightblue" points="435.381,-458.814 445.753,-460.976 438.993,-452.818 435.381,-458.814"/>
</g>
<!-- Node5 -->
<g id="node5" class="node"><title>Node5</title>
<g id="a_node5"><a xlink:href="../../d4/d84/ContourCreator_8h.html" target="_top" xlink:title="/home/travis/build\l/AliceO2Group/AliceO2\l/Detectors/MUON/MCH/Contour\l/include/MCHContour/ContourCreator.h">
<polygon fill="none" stroke="black" points="139.5,-281 139.5,-333 328.5,-333 328.5,-281 139.5,-281"/>
<text text-anchor="start" x="147.5" y="-321" font-family="Helvetica,sans-Serif" font-size="10.00">/home/travis/build</text>
<text text-anchor="start" x="147.5" y="-310" font-family="Helvetica,sans-Serif" font-size="10.00">/AliceO2Group/AliceO2</text>
<text text-anchor="start" x="147.5" y="-299" font-family="Helvetica,sans-Serif" font-size="10.00">/Detectors/MUON/MCH/Contour</text>
<text text-anchor="middle" x="234" y="-288" font-family="Helvetica,sans-Serif" font-size="10.00">/include/MCHContour/ContourCreator.h</text>
</a>
</g>
</g>
<!-- Node4&#45;&gt;Node5 -->
<g id="edge4" class="edge"><title>Node4&#45;&gt;Node5</title>
<path fill="none" stroke="midnightblue" d="M234,-360.489C234,-351.309 234,-341.616 234,-333.092"/>
<polygon fill="midnightblue" stroke="midnightblue" points="230.5,-360.547 234,-370.547 237.5,-360.547 230.5,-360.547"/>
</g>
<!-- Node5&#45;&gt;Node6 -->
<g id="edge5" class="edge"><title>Node5&#45;&gt;Node6</title>
<path fill="none" stroke="midnightblue" d="M338.991,-285.144C416.154,-269.816 519.686,-249.25 591.753,-234.934"/>
<polygon fill="midnightblue" stroke="midnightblue" points="337.889,-281.794 328.763,-287.176 339.253,-288.66 337.889,-281.794"/>
</g>
<!-- Node12 -->
<g id="node12" class="node"><title>Node12</title>
<g id="a_node12"><a xlink:href="../../d3/d4a/ContourCreator_8cxx.html" target="_top" xlink:title="/home/travis/build\l/AliceO2Group/AliceO2\l/Detectors/MUON/MCH/Contour\l/test/ContourCreator.cxx">
<polygon fill="none" stroke="black" points="154,-191 154,-243 314,-243 314,-191 154,-191"/>
<text text-anchor="start" x="162" y="-231" font-family="Helvetica,sans-Serif" font-size="10.00">/home/travis/build</text>
<text text-anchor="start" x="162" y="-220" font-family="Helvetica,sans-Serif" font-size="10.00">/AliceO2Group/AliceO2</text>
<text text-anchor="start" x="162" y="-209" font-family="Helvetica,sans-Serif" font-size="10.00">/Detectors/MUON/MCH/Contour</text>
<text text-anchor="middle" x="234" y="-198" font-family="Helvetica,sans-Serif" font-size="10.00">/test/ContourCreator.cxx</text>
</a>
</g>
</g>
<!-- Node5&#45;&gt;Node12 -->
<g id="edge15" class="edge"><title>Node5&#45;&gt;Node12</title>
<path fill="none" stroke="midnightblue" d="M234,-270.489C234,-261.309 234,-251.616 234,-243.092"/>
<polygon fill="midnightblue" stroke="midnightblue" points="230.5,-270.547 234,-280.547 237.5,-270.547 230.5,-270.547"/>
</g>
<!-- Node13 -->
<g id="node13" class="node"><title>Node13</title>
<g id="a_node13"><a xlink:href="../../de/de2/SegmentationContours_8cxx.html" target="_top" xlink:title="/home/travis/build\l/AliceO2Group/AliceO2\l/Detectors/MUON/MCH/Mapping\l/SegContour/src/SegmentationContours.cxx">
<polygon fill="none" stroke="black" points="-0.5,-1 -0.5,-53 208.5,-53 208.5,-1 -0.5,-1"/>
<text text-anchor="start" x="7.5" y="-41" font-family="Helvetica,sans-Serif" font-size="10.00">/home/travis/build</text>
<text text-anchor="start" x="7.5" y="-30" font-family="Helvetica,sans-Serif" font-size="10.00">/AliceO2Group/AliceO2</text>
<text text-anchor="start" x="7.5" y="-19" font-family="Helvetica,sans-Serif" font-size="10.00">/Detectors/MUON/MCH/Mapping</text>
<text text-anchor="middle" x="104" y="-8" font-family="Helvetica,sans-Serif" font-size="10.00">/SegContour/src/SegmentationContours.cxx</text>
</a>
</g>
</g>
<!-- Node5&#45;&gt;Node13 -->
<g id="edge16" class="edge"><title>Node5&#45;&gt;Node13</title>
<path fill="none" stroke="midnightblue" d="M175.253,-274.84C163.684,-266.256 152.746,-255.954 145,-244 106.081,-183.939 102.178,-95.9866 102.876,-53.2185"/>
<polygon fill="midnightblue" stroke="midnightblue" points="173.55,-277.92 183.751,-280.785 177.563,-272.185 173.55,-277.92"/>
</g>
<!-- Node7 -->
<g id="node7" class="node"><title>Node7</title>
<g id="a_node7"><a xlink:href="../../d5/d3f/SegmentationSVGWriter_8h.html" target="_top" xlink:title="/home/travis/build\l/AliceO2Group/AliceO2\l/Detectors/MUON/MCH/Mapping\l/SegContour/include/MCHMappingSegContour\l/SegmentationSVGWriter.h">
<polygon fill="none" stroke="black" points="692,-90.5 692,-153.5 912,-153.5 912,-90.5 692,-90.5"/>
<text text-anchor="start" x="700" y="-141.5" font-family="Helvetica,sans-Serif" font-size="10.00">/home/travis/build</text>
<text text-anchor="start" x="700" y="-130.5" font-family="Helvetica,sans-Serif" font-size="10.00">/AliceO2Group/AliceO2</text>
<text text-anchor="start" x="700" y="-119.5" font-family="Helvetica,sans-Serif" font-size="10.00">/Detectors/MUON/MCH/Mapping</text>
<text text-anchor="start" x="700" y="-108.5" font-family="Helvetica,sans-Serif" font-size="10.00">/SegContour/include/MCHMappingSegContour</text>
<text text-anchor="middle" x="802" y="-97.5" font-family="Helvetica,sans-Serif" font-size="10.00">/SegmentationSVGWriter.h</text>
</a>
</g>
</g>
<!-- Node6&#45;&gt;Node7 -->
<g id="edge6" class="edge"><title>Node6&#45;&gt;Node7</title>
<path fill="none" stroke="midnightblue" d="M718.965,-184.778C732.371,-174.804 747.196,-163.774 760.564,-153.828"/>
<polygon fill="midnightblue" stroke="midnightblue" points="716.761,-182.056 710.827,-190.833 720.939,-187.672 716.761,-182.056"/>
</g>
<!-- Node8 -->
<g id="node8" class="node"><title>Node8</title>
<g id="a_node8"><a xlink:href="../../de/d56/SegmentationSVGWriter_8cxx.html" target="_top" xlink:title="/home/travis/build\l/AliceO2Group/AliceO2\l/Detectors/MUON/MCH/Mapping\l/SegContour/src/SegmentationSVGWriter.cxx">
<polygon fill="none" stroke="black" points="587.5,-1 587.5,-53 804.5,-53 804.5,-1 587.5,-1"/>
<text text-anchor="start" x="595.5" y="-41" font-family="Helvetica,sans-Serif" font-size="10.00">/home/travis/build</text>
<text text-anchor="start" x="595.5" y="-30" font-family="Helvetica,sans-Serif" font-size="10.00">/AliceO2Group/AliceO2</text>
<text text-anchor="start" x="595.5" y="-19" font-family="Helvetica,sans-Serif" font-size="10.00">/Detectors/MUON/MCH/Mapping</text>
<text text-anchor="middle" x="696" y="-8" font-family="Helvetica,sans-Serif" font-size="10.00">/SegContour/src/SegmentationSVGWriter.cxx</text>
</a>
</g>
</g>
<!-- Node6&#45;&gt;Node8 -->
<g id="edge11" class="edge"><title>Node6&#45;&gt;Node8</title>
<path fill="none" stroke="midnightblue" d="M677.185,-180.566C677.683,-155.244 679.113,-120.412 683,-90 684.562,-77.7817 687.245,-64.3872 689.77,-53.1844"/>
<polygon fill="midnightblue" stroke="midnightblue" points="673.682,-180.742 677.024,-190.796 680.681,-180.852 673.682,-180.742"/>
</g>
<!-- Node9 -->
<g id="node9" class="node"><title>Node9</title>
<g id="a_node9"><a xlink:href="../../d2/d0f/SVGSegmentation_8cxx.html" target="_top" xlink:title="/home/travis/build\l/AliceO2Group/AliceO2\l/Detectors/MUON/MCH/Mapping\l/SegContour/src/SVGSegmentation.cxx">
<polygon fill="none" stroke="black" points="1003.5,-1 1003.5,-53 1194.5,-53 1194.5,-1 1003.5,-1"/>
<text text-anchor="start" x="1011.5" y="-41" font-family="Helvetica,sans-Serif" font-size="10.00">/home/travis/build</text>
<text text-anchor="start" x="1011.5" y="-30" font-family="Helvetica,sans-Serif" font-size="10.00">/AliceO2Group/AliceO2</text>
<text text-anchor="start" x="1011.5" y="-19" font-family="Helvetica,sans-Serif" font-size="10.00">/Detectors/MUON/MCH/Mapping</text>
<text text-anchor="middle" x="1099" y="-8" font-family="Helvetica,sans-Serif" font-size="10.00">/SegContour/src/SVGSegmentation.cxx</text>
</a>
</g>
</g>
<!-- Node6&#45;&gt;Node9 -->
<g id="edge12" class="edge"><title>Node6&#45;&gt;Node9</title>
<path fill="none" stroke="midnightblue" d="M772.338,-203.862C823.838,-194.795 887.45,-179.437 940,-154 993.418,-128.142 1045.4,-81.7367 1074.69,-53.0349"/>
<polygon fill="midnightblue" stroke="midnightblue" points="771.474,-200.459 762.206,-205.592 772.653,-207.359 771.474,-200.459"/>
</g>
<!-- Node10 -->
<g id="node10" class="node"><title>Node10</title>
<g id="a_node10"><a xlink:href="../../d5/d2d/MUON_2MCH_2Mapping_2test_2src_2Segmentation_8cxx.html" target="_top" xlink:title="/home/travis/build\l/AliceO2Group/AliceO2\l/Detectors/MUON/MCH/Mapping\l/test/src/Segmentation.cxx">
<polygon fill="none" stroke="black" points="407,-1 407,-53 569,-53 569,-1 407,-1"/>
<text text-anchor="start" x="415" y="-41" font-family="Helvetica,sans-Serif" font-size="10.00">/home/travis/build</text>
<text text-anchor="start" x="415" y="-30" font-family="Helvetica,sans-Serif" font-size="10.00">/AliceO2Group/AliceO2</text>
<text text-anchor="start" x="415" y="-19" font-family="Helvetica,sans-Serif" font-size="10.00">/Detectors/MUON/MCH/Mapping</text>
<text text-anchor="middle" x="488" y="-8" font-family="Helvetica,sans-Serif" font-size="10.00">/test/src/Segmentation.cxx</text>
</a>
</g>
</g>
<!-- Node6&#45;&gt;Node10 -->
<g id="edge13" class="edge"><title>Node6&#45;&gt;Node10</title>
<path fill="none" stroke="midnightblue" d="M664.269,-181.353C652.746,-153.831 633.509,-115.808 607,-90 591.477,-74.8871 571.527,-62.5724 552.416,-53.0172"/>
<polygon fill="midnightblue" stroke="midnightblue" points="661.167,-183.019 668.164,-190.975 667.656,-180.392 661.167,-183.019"/>
</g>
<!-- Node11 -->
<g id="node11" class="node"><title>Node11</title>
<g id="a_node11"><a xlink:href="../../df/ded/SegmentationLong_8cxx.html" target="_top" xlink:title="/home/travis/build\l/AliceO2Group/AliceO2\l/Detectors/MUON/MCH/Mapping\l/test/src/SegmentationLong.cxx">
<polygon fill="none" stroke="black" points="823,-1 823,-53 985,-53 985,-1 823,-1"/>
<text text-anchor="start" x="831" y="-41" font-family="Helvetica,sans-Serif" font-size="10.00">/home/travis/build</text>
<text text-anchor="start" x="831" y="-30" font-family="Helvetica,sans-Serif" font-size="10.00">/AliceO2Group/AliceO2</text>
<text text-anchor="start" x="831" y="-19" font-family="Helvetica,sans-Serif" font-size="10.00">/Detectors/MUON/MCH/Mapping</text>
<text text-anchor="middle" x="904" y="-8" font-family="Helvetica,sans-Serif" font-size="10.00">/test/src/SegmentationLong.cxx</text>
</a>
</g>
</g>
<!-- Node6&#45;&gt;Node11 -->
<g id="edge14" class="edge"><title>Node6&#45;&gt;Node11</title>
<path fill="none" stroke="midnightblue" d="M772.23,-203.914C832.487,-194.089 902.414,-177.899 921,-154 943.494,-125.076 929.668,-80.6831 917.167,-53.0447"/>
<polygon fill="midnightblue" stroke="midnightblue" points="771.594,-200.471 762.267,-205.496 772.692,-207.384 771.594,-200.471"/>
</g>
<!-- Node7&#45;&gt;Node8 -->
<g id="edge7" class="edge"><title>Node7&#45;&gt;Node8</title>
<path fill="none" stroke="midnightblue" d="M759.434,-83.6542C747.73,-73.3858 735.32,-62.4973 724.609,-53.1001"/>
<polygon fill="midnightblue" stroke="midnightblue" points="757.173,-86.3264 766.998,-90.2906 761.789,-81.0645 757.173,-86.3264"/>
</g>
<!-- Node7&#45;&gt;Node9 -->
<g id="edge8" class="edge"><title>Node7&#45;&gt;Node9</title>
<path fill="none" stroke="midnightblue" d="M909.287,-87.405C945.541,-76.0527 985.354,-63.586 1019.11,-53.0171"/>
<polygon fill="midnightblue" stroke="midnightblue" points="908.157,-84.0911 899.66,-90.4195 910.249,-90.7713 908.157,-84.0911"/>
</g>
<!-- Node7&#45;&gt;Node10 -->
<g id="edge9" class="edge"><title>Node7&#45;&gt;Node10</title>
<path fill="none" stroke="midnightblue" d="M689.035,-87.5421C649.397,-75.8024 605.686,-62.8561 569.175,-52.0423"/>
<polygon fill="midnightblue" stroke="midnightblue" points="688.167,-90.9355 698.75,-90.4195 690.155,-84.2237 688.167,-90.9355"/>
</g>
<!-- Node7&#45;&gt;Node11 -->
<g id="edge10" class="edge"><title>Node7&#45;&gt;Node11</title>
<path fill="none" stroke="midnightblue" d="M843.282,-83.3607C854.449,-73.1786 866.262,-62.4078 876.471,-53.1001"/>
<polygon fill="midnightblue" stroke="midnightblue" points="840.713,-80.9667 835.681,-90.2906 845.429,-86.1394 840.713,-80.9667"/>
</g>
<!-- Node15&#45;&gt;Node8 -->
<g id="edge21" class="edge"><title>Node15&#45;&gt;Node8</title>
<path fill="none" stroke="midnightblue" d="M565.739,-86.2418C590.421,-75.2061 617.214,-63.2262 640.048,-53.0171"/>
<polygon fill="midnightblue" stroke="midnightblue" points="564.095,-83.1426 556.395,-90.4195 566.953,-89.5329 564.095,-83.1426"/>
</g>
<!-- Node15&#45;&gt;Node9 -->
<g id="edge22" class="edge"><title>Node15&#45;&gt;Node9</title>
<path fill="none" stroke="midnightblue" d="M608.347,-101.049C633.012,-97.1902 658.823,-93.3196 683,-90 820.852,-71.0727 857.078,-78.7728 994,-54 997.049,-53.4483 1000.14,-52.8598 1003.26,-52.2414"/>
<polygon fill="midnightblue" stroke="midnightblue" points="607.558,-97.6296 598.224,-102.641 608.647,-104.545 607.558,-97.6296"/>
</g>
<!-- Node15&#45;&gt;Node10 -->
<g id="edge24" class="edge"><title>Node15&#45;&gt;Node10</title>
<path fill="none" stroke="midnightblue" d="M488,-80.1125C488,-70.9165 488,-61.4234 488,-53.1001"/>
<polygon fill="midnightblue" stroke="midnightblue" points="484.5,-80.2905 488,-90.2906 491.5,-80.2906 484.5,-80.2905"/>
</g>
<!-- Node15&#45;&gt;Node11 -->
<g id="edge25" class="edge"><title>Node15&#45;&gt;Node11</title>
<path fill="none" stroke="midnightblue" d="M608.406,-98.4139C669.874,-86.3184 745.693,-70.5284 813,-54 816.191,-53.2163 819.439,-52.3964 822.716,-51.5507"/>
<polygon fill="midnightblue" stroke="midnightblue" points="607.418,-95.0409 598.278,-100.399 608.764,-101.91 607.418,-95.0409"/>
</g>
<!-- Node15&#45;&gt;Node13 -->
<g id="edge20" class="edge"><title>Node15&#45;&gt;Node13</title>
<path fill="none" stroke="midnightblue" d="M368.108,-91.9638C316.603,-79.4899 256.998,-65.0543 207.461,-53.0571"/>
<polygon fill="midnightblue" stroke="midnightblue" points="367.418,-95.3977 377.961,-94.3499 369.066,-88.5944 367.418,-95.3977"/>
</g>
<!-- Node16 -->
<g id="node16" class="node"><title>Node16</title>
<g id="a_node16"><a xlink:href="../../da/d72/BenchSegmentation_8cxx.html" target="_top" xlink:title="/home/travis/build\l/AliceO2Group/AliceO2\l/Detectors/MUON/MCH/Mapping\l/test/src/BenchSegmentation.cxx">
<polygon fill="none" stroke="black" points="227,-1 227,-53 389,-53 389,-1 227,-1"/>
<text text-anchor="start" x="235" y="-41" font-family="Helvetica,sans-Serif" font-size="10.00">/home/travis/build</text>
<text text-anchor="start" x="235" y="-30" font-family="Helvetica,sans-Serif" font-size="10.00">/AliceO2Group/AliceO2</text>
<text text-anchor="start" x="235" y="-19" font-family="Helvetica,sans-Serif" font-size="10.00">/Detectors/MUON/MCH/Mapping</text>
<text text-anchor="middle" x="308" y="-8" font-family="Helvetica,sans-Serif" font-size="10.00">/test/src/BenchSegmentation.cxx</text>
</a>
</g>
</g>
<!-- Node15&#45;&gt;Node16 -->
<g id="edge23" class="edge"><title>Node15&#45;&gt;Node16</title>
<path fill="none" stroke="midnightblue" d="M419.676,-85.699C398.666,-74.8443 375.982,-63.1238 356.581,-53.1001"/>
<polygon fill="midnightblue" stroke="midnightblue" points="418.072,-88.8098 428.562,-90.2906 421.285,-82.5908 418.072,-88.8098"/>
</g>
<!-- Node18&#45;&gt;Node4 -->
<g id="edge30" class="edge"><title>Node18&#45;&gt;Node4</title>
<path fill="none" stroke="midnightblue" d="M64.4392,-545.009C53.3948,-536.527 43.3819,-526.224 37,-514 25.8924,-492.725 22.8035,-479.351 37,-460 60.171,-428.416 99.4432,-412.498 136.854,-404.627"/>
<polygon fill="midnightblue" stroke="midnightblue" points="62.4565,-547.894 72.6265,-550.864 66.5287,-542.2 62.4565,-547.894"/>
</g>
<!-- Node19 -->
<g id="node19" class="node"><title>Node19</title>
<g id="a_node19"><a xlink:href="../../d6/d3f/Edge_8cxx.html" target="_top" xlink:title="/home/travis/build\l/AliceO2Group/AliceO2\l/Detectors/MUON/MCH/Contour\l/test/Edge.cxx">
<polygon fill="none" stroke="black" points="46,-461 46,-513 206,-513 206,-461 46,-461"/>
<text text-anchor="start" x="54" y="-501" font-family="Helvetica,sans-Serif" font-size="10.00">/home/travis/build</text>
<text text-anchor="start" x="54" y="-490" font-family="Helvetica,sans-Serif" font-size="10.00">/AliceO2Group/AliceO2</text>
<text text-anchor="start" x="54" y="-479" font-family="Helvetica,sans-Serif" font-size="10.00">/Detectors/MUON/MCH/Contour</text>
<text text-anchor="middle" x="126" y="-468" font-family="Helvetica,sans-Serif" font-size="10.00">/test/Edge.cxx</text>
</a>
</g>
</g>
<!-- Node18&#45;&gt;Node19 -->
<g id="edge31" class="edge"><title>Node18&#45;&gt;Node19</title>
<path fill="none" stroke="midnightblue" d="M126,-540.489C126,-531.309 126,-521.616 126,-513.092"/>
<polygon fill="midnightblue" stroke="midnightblue" points="122.5,-540.547 126,-550.547 129.5,-540.547 122.5,-540.547"/>
</g>
</g>
</svg>
        <g id="navigator" transform="translate(0 0)" fill="#404254">
                <rect fill="#f2f5e9" fill-opacity="0.5" stroke="#606060" stroke-width=".5" x="0" y="0" width="60" height="60"/>
                <use id="zoomplus" xlink:href="#zoomPlus" x="17" y="9" onmousedown="handleZoom(evt,'in')"/>
                <use id="zoomminus" xlink:href="#zoomMin" x="42" y="9" onmousedown="handleZoom(evt,'out')"/>
                <use id="reset" xlink:href="#resetDef" x="30" y="36" onmousedown="handleReset()"/>
                <g id="arrowUp" xlink:href="#dirArrow" transform="translate(30 24)" onmousedown="handlePan(0,-1)">
                  <use xlink:href="#rim" fill="#404040">
                        <set attributeName="fill" to="#808080" begin="arrowUp.mouseover" end="arrowUp.mouseout"/>
                  </use>
                  <path fill="none" stroke="white" stroke-width="1.5" d="M0,-3.0v7 M-2.5,-0.5L0,-3.0L2.5,-0.5"/>
                </g>
                <g id="arrowRight" xlink:href="#dirArrow" transform="rotate(90) translate(36 -43)" onmousedown="handlePan(1,0)">
                  <use xlink:href="#rim" fill="#404040">
                        <set attributeName="fill" to="#808080" begin="arrowRight.mouseover" end="arrowRight.mouseout"/>
                  </use>
                  <path fill="none" stroke="white" stroke-width="1.5" d="M0,-3.0v7 M-2.5,-0.5L0,-3.0L2.5,-0.5"/>
                </g>
                <g id="arrowDown" xlink:href="#dirArrow" transform="rotate(180) translate(-30 -48)" onmousedown="handlePan(0,1)">
                  <use xlink:href="#rim" fill="#404040">
                        <set attributeName="fill" to="#808080" begin="arrowDown.mouseover" end="arrowDown.mouseout"/>
                  </use>
                  <path fill="none" stroke="white" stroke-width="1.5" d="M0,-3.0v7 M-2.5,-0.5L0,-3.0L2.5,-0.5"/>
                </g>
                <g id="arrowLeft" xlink:href="#dirArrow" transform="rotate(270) translate(-36 17)" onmousedown="handlePan(-1,0)">
                  <use xlink:href="#rim" fill="#404040">
                        <set attributeName="fill" to="#808080" begin="arrowLeft.mouseover" end="arrowLeft.mouseout"/>
                  </use>
                  <path fill="none" stroke="white" stroke-width="1.5" d="M0,-3.0v7 M-2.5,-0.5L0,-3.0L2.5,-0.5"/>
                </g>
        </g>
        <svg viewBox="0 0 15 15" width="100%" height="30px" preserveAspectRatio="xMaxYMin meet">
         <g id="arrow_out" transform="scale(0.3 0.3)">
          <a xlink:href="Detectors_2MUON_2MCH_2Contour_2include_2MCHContour_2Vertex_8h__dep__incl_org.svg" target="_base">
           <rect id="button" ry="5" rx="5" y="6" x="6" height="38" width="38"
                fill="#f2f5e9" fill-opacity="0.5" stroke="#606060" stroke-width="1.0"/>
           <path id="arrow"
             d="M 11.500037,31.436501 C 11.940474,20.09759 22.043105,11.32322 32.158766,21.979434 L 37.068811,17.246167 C 37.068811,17.246167 37.088388,32 37.088388,32 L 22.160133,31.978069 C 22.160133,31.978069 26.997745,27.140456 26.997745,27.140456 C 18.528582,18.264221 13.291696,25.230495 11.500037,31.436501 z"
             style="fill:#404040;"/>
          </a>
         </g>
        </svg>
</svg>
