<?xml version="1.0" encoding="UTF-8" standalone="no"?>
<!DOCTYPE svg PUBLIC "-//W3C//DTD SVG 1.1//EN"
 "http://www.w3.org/Graphics/SVG/1.1/DTD/svg11.dtd">
<!-- Generated by graphviz version 2.36.0 (20140111.2315)
 -->
<!-- Title: /home/travis/build/AliceO2Group/AliceO2/Common/SimConfig/include/SimConfig/ConfigurableParamHelper.h Pages: 1 -->
<svg width="882pt" height="242pt"
 viewBox="0.00 0.00 882.00 242.00" xmlns="http://www.w3.org/2000/svg" xmlns:xlink="http://www.w3.org/1999/xlink">
<g id="graph0" class="graph" transform="scale(1 1) rotate(0) translate(4 238)">
<title>/home/travis/build/AliceO2Group/AliceO2/Common/SimConfig/include/SimConfig/ConfigurableParamHelper.h</title>
<!-- Node1 -->
<g id="node1" class="node"><title>Node1</title>
<polygon fill="#bfbfbf" stroke="black" points="231,-181 231,-233 419,-233 419,-181 231,-181"/>
<text text-anchor="start" x="239" y="-221" font-family="Helvetica,sans-Serif" font-size="10.00">/home/travis/build</text>
<text text-anchor="start" x="239" y="-210" font-family="Helvetica,sans-Serif" font-size="10.00">/AliceO2Group/AliceO2</text>
<text text-anchor="start" x="239" y="-199" font-family="Helvetica,sans-Serif" font-size="10.00">/Common/SimConfig/include</text>
<text text-anchor="middle" x="325" y="-188" font-family="Helvetica,sans-Serif" font-size="10.00">/SimConfig/ConfigurableParamHelper.h</text>
</g>
<!-- Node2 -->
<g id="node2" class="node"><title>Node2</title>
<g id="a_node2"><a xlink:href="../../d9/df7/ConfigurableParamHelper_8cxx.html" target="_top" xlink:title="/home/travis/build\l/AliceO2Group/AliceO2\l/Common/SimConfig/src\l/ConfigurableParamHelper.cxx">
<polygon fill="none" stroke="black" points="-1,-91 -1,-143 149,-143 149,-91 -1,-91"/>
<text text-anchor="start" x="7" y="-131" font-family="Helvetica,sans-Serif" font-size="10.00">/home/travis/build</text>
<text text-anchor="start" x="7" y="-120" font-family="Helvetica,sans-Serif" font-size="10.00">/AliceO2Group/AliceO2</text>
<text text-anchor="start" x="7" y="-109" font-family="Helvetica,sans-Serif" font-size="10.00">/Common/SimConfig/src</text>
<text text-anchor="middle" x="74" y="-98" font-family="Helvetica,sans-Serif" font-size="10.00">/ConfigurableParamHelper.cxx</text>
</a>
</g>
</g>
<!-- Node1&#45;&gt;Node2 -->
<g id="edge1" class="edge"><title>Node1&#45;&gt;Node2</title>
<path fill="none" stroke="midnightblue" d="M243.755,-177.516C212.169,-166.442 176.293,-153.864 145.686,-143.133"/>
<polygon fill="midnightblue" stroke="midnightblue" points="242.815,-180.895 253.409,-180.901 245.131,-174.289 242.815,-180.895"/>
</g>
<!-- Node3 -->
<g id="node3" class="node"><title>Node3</title>
<g id="a_node3"><a xlink:href="../../d6/d4f/TestConfigurableParam_8cxx.html" target="_top" xlink:title="/home/travis/build\l/AliceO2Group/AliceO2\l/Common/SimConfig/test\l/TestConfigurableParam.cxx">
<polygon fill="none" stroke="black" points="167.5,-91 167.5,-143 308.5,-143 308.5,-91 167.5,-91"/>
<text text-anchor="start" x="175.5" y="-131" font-family="Helvetica,sans-Serif" font-size="10.00">/home/travis/build</text>
<text text-anchor="start" x="175.5" y="-120" font-family="Helvetica,sans-Serif" font-size="10.00">/AliceO2Group/AliceO2</text>
<text text-anchor="start" x="175.5" y="-109" font-family="Helvetica,sans-Serif" font-size="10.00">/Common/SimConfig/test</text>
<text text-anchor="middle" x="238" y="-98" font-family="Helvetica,sans-Serif" font-size="10.00">/TestConfigurableParam.cxx</text>
</a>
</g>
</g>
<!-- Node1&#45;&gt;Node3 -->
<g id="edge2" class="edge"><title>Node1&#45;&gt;Node3</title>
<path fill="none" stroke="midnightblue" d="M292.801,-173.431C282.891,-163.407 272.14,-152.533 262.807,-143.092"/>
<polygon fill="midnightblue" stroke="midnightblue" points="290.316,-175.896 299.836,-180.547 295.294,-170.975 290.316,-175.896"/>
</g>
<!-- Node4 -->
<g id="node4" class="node"><title>Node4</title>
<g id="a_node4"><a xlink:href="../../d9/df5/HallSimParam_8h.html" target="_top" xlink:title="/home/travis/build\l/AliceO2Group/AliceO2\l/Detectors/Passive/include\l/DetectorsPassive/HallSimParam.h">
<polygon fill="none" stroke="black" points="327,-91 327,-143 499,-143 499,-91 327,-91"/>
<text text-anchor="start" x="335" y="-131" font-family="Helvetica,sans-Serif" font-size="10.00">/home/travis/build</text>
<text text-anchor="start" x="335" y="-120" font-family="Helvetica,sans-Serif" font-size="10.00">/AliceO2Group/AliceO2</text>
<text text-anchor="start" x="335" y="-109" font-family="Helvetica,sans-Serif" font-size="10.00">/Detectors/Passive/include</text>
<text text-anchor="middle" x="413" y="-98" font-family="Helvetica,sans-Serif" font-size="10.00">/DetectorsPassive/HallSimParam.h</text>
</a>
</g>
</g>
<!-- Node1&#45;&gt;Node4 -->
<g id="edge3" class="edge"><title>Node1&#45;&gt;Node4</title>
<path fill="none" stroke="midnightblue" d="M357.569,-173.431C367.593,-163.407 378.467,-152.533 387.908,-143.092"/>
<polygon fill="midnightblue" stroke="midnightblue" points="355.049,-171.001 350.453,-180.547 359.999,-175.951 355.049,-171.001"/>
</g>
<!-- Node7 -->
<g id="node7" class="node"><title>Node7</title>
<g id="a_node7"><a xlink:href="../../d8/d6a/InteractionDiamondParam_8h.html" target="_top" xlink:title="/home/travis/build\l/AliceO2Group/AliceO2\l/Generators/include/Generators\l/InteractionDiamondParam.h">
<polygon fill="none" stroke="black" points="517,-91 517,-143 669,-143 669,-91 517,-91"/>
<text text-anchor="start" x="525" y="-131" font-family="Helvetica,sans-Serif" font-size="10.00">/home/travis/build</text>
<text text-anchor="start" x="525" y="-120" font-family="Helvetica,sans-Serif" font-size="10.00">/AliceO2Group/AliceO2</text>
<text text-anchor="start" x="525" y="-109" font-family="Helvetica,sans-Serif" font-size="10.00">/Generators/include/Generators</text>
<text text-anchor="middle" x="593" y="-98" font-family="Helvetica,sans-Serif" font-size="10.00">/InteractionDiamondParam.h</text>
</a>
</g>
</g>
<!-- Node1&#45;&gt;Node7 -->
<g id="edge6" class="edge"><title>Node1&#45;&gt;Node7</title>
<path fill="none" stroke="midnightblue" d="M411.355,-177.645C445.335,-166.487 484.015,-153.786 516.923,-142.981"/>
<polygon fill="midnightblue" stroke="midnightblue" points="409.848,-174.455 401.439,-180.901 412.032,-181.106 409.848,-174.455"/>
</g>
<!-- Node5 -->
<g id="node5" class="node"><title>Node5</title>
<g id="a_node5"><a xlink:href="../../da/d60/Hall_8cxx.html" target="_top" xlink:title="/home/travis/build\l/AliceO2Group/AliceO2\l/Detectors/Passive/src\l/Hall.cxx">
<polygon fill="none" stroke="black" points="222,-1 222,-53 340,-53 340,-1 222,-1"/>
<text text-anchor="start" x="230" y="-41" font-family="Helvetica,sans-Serif" font-size="10.00">/home/travis/build</text>
<text text-anchor="start" x="230" y="-30" font-family="Helvetica,sans-Serif" font-size="10.00">/AliceO2Group/AliceO2</text>
<text text-anchor="start" x="230" y="-19" font-family="Helvetica,sans-Serif" font-size="10.00">/Detectors/Passive/src</text>
<text text-anchor="middle" x="281" y="-8" font-family="Helvetica,sans-Serif" font-size="10.00">/Hall.cxx</text>
</a>
</g>
</g>
<!-- Node4&#45;&gt;Node5 -->
<g id="edge4" class="edge"><title>Node4&#45;&gt;Node5</title>
<path fill="none" stroke="midnightblue" d="M366.671,-85.1143C351.02,-74.6802 333.745,-63.1632 318.831,-53.221"/>
<polygon fill="midnightblue" stroke="midnightblue" points="364.912,-88.1479 375.174,-90.7827 368.795,-82.3235 364.912,-88.1479"/>
</g>
<!-- Node6 -->
<g id="node6" class="node"><title>Node6</title>
<g id="a_node6"><a xlink:href="../../d9/dde/HallSimParam_8cxx.html" target="_top" xlink:title="/home/travis/build\l/AliceO2Group/AliceO2\l/Detectors/Passive/src\l/HallSimParam.cxx">
<polygon fill="none" stroke="black" points="358,-1 358,-53 476,-53 476,-1 358,-1"/>
<text text-anchor="start" x="366" y="-41" font-family="Helvetica,sans-Serif" font-size="10.00">/home/travis/build</text>
<text text-anchor="start" x="366" y="-30" font-family="Helvetica,sans-Serif" font-size="10.00">/AliceO2Group/AliceO2</text>
<text text-anchor="start" x="366" y="-19" font-family="Helvetica,sans-Serif" font-size="10.00">/Detectors/Passive/src</text>
<text text-anchor="middle" x="417" y="-8" font-family="Helvetica,sans-Serif" font-size="10.00">/HallSimParam.cxx</text>
</a>
</g>
</g>
<!-- Node4&#45;&gt;Node6 -->
<g id="edge5" class="edge"><title>Node4&#45;&gt;Node6</title>
<path fill="none" stroke="midnightblue" d="M414.614,-80.4892C415.031,-71.3088 415.472,-61.616 415.859,-53.0921"/>
<polygon fill="midnightblue" stroke="midnightblue" points="411.115,-80.3981 414.157,-90.5468 418.108,-80.716 411.115,-80.3981"/>
</g>
<!-- Node8 -->
<g id="node8" class="node"><title>Node8</title>
<g id="a_node8"><a xlink:href="../../d9/d9d/InteractionDiamondParam_8cxx.html" target="_top" xlink:title="/home/travis/build\l/AliceO2Group/AliceO2\l/Generators/src/InteractionDiamond\lParam.cxx">
<polygon fill="none" stroke="black" points="502,-1 502,-53 674,-53 674,-1 502,-1"/>
<text text-anchor="start" x="510" y="-41" font-family="Helvetica,sans-Serif" font-size="10.00">/home/travis/build</text>
<text text-anchor="start" x="510" y="-30" font-family="Helvetica,sans-Serif" font-size="10.00">/AliceO2Group/AliceO2</text>
<text text-anchor="start" x="510" y="-19" font-family="Helvetica,sans-Serif" font-size="10.00">/Generators/src/InteractionDiamond</text>
<text text-anchor="middle" x="588" y="-8" font-family="Helvetica,sans-Serif" font-size="10.00">Param.cxx</text>
</a>
</g>
</g>
<!-- Node7&#45;&gt;Node8 -->
<g id="edge7" class="edge"><title>Node7&#45;&gt;Node8</title>
<path fill="none" stroke="midnightblue" d="M590.982,-80.4892C590.461,-71.3088 589.91,-61.616 589.426,-53.0921"/>
<polygon fill="midnightblue" stroke="midnightblue" points="587.492,-80.7614 591.554,-90.5468 594.481,-80.3643 587.492,-80.7614"/>
</g>
<!-- Node9 -->
<g id="node9" class="node"><title>Node9</title>
<g id="a_node9"><a xlink:href="../../dc/d20/PrimaryGenerator_8cxx.html" target="_top" xlink:title="/home/travis/build\l/AliceO2Group/AliceO2\l/Generators/src/PrimaryGenerator.cxx">
<polygon fill="none" stroke="black" points="692,-6.5 692,-47.5 874,-47.5 874,-6.5 692,-6.5"/>
<text text-anchor="start" x="700" y="-35.5" font-family="Helvetica,sans-Serif" font-size="10.00">/home/travis/build</text>
<text text-anchor="start" x="700" y="-24.5" font-family="Helvetica,sans-Serif" font-size="10.00">/AliceO2Group/AliceO2</text>
<text text-anchor="middle" x="783" y="-13.5" font-family="Helvetica,sans-Serif" font-size="10.00">/Generators/src/PrimaryGenerator.cxx</text>
</a>
</g>
</g>
<!-- Node7&#45;&gt;Node9 -->
<g id="edge8" class="edge"><title>Node7&#45;&gt;Node9</title>
<path fill="none" stroke="midnightblue" d="M656.436,-86.6189C684.201,-73.7593 716.025,-59.0201 740.815,-47.5384"/>
<polygon fill="midnightblue" stroke="midnightblue" points="654.795,-83.5218 647.192,-90.9005 657.737,-89.8737 654.795,-83.5218"/>
</g>
</g>
</svg>
