<?xml version="1.0" encoding="UTF-8" standalone="no"?>
<!DOCTYPE svg PUBLIC "-//W3C//DTD SVG 1.1//EN"
 "http://www.w3.org/Graphics/SVG/1.1/DTD/svg11.dtd">
<!-- Generated by graphviz version 2.36.0 (20140111.2315)
 -->
<!-- Title: /home/travis/build/AliceO2Group/AliceO2/DataFormats/simulation/src/RunContext.cxx Pages: 1 -->
<svg width="606pt" height="254pt"
 viewBox="0.00 0.00 606.00 254.00" xmlns="http://www.w3.org/2000/svg" xmlns:xlink="http://www.w3.org/1999/xlink">
<g id="graph0" class="graph" transform="scale(1 1) rotate(0) translate(4 250)">
<title>/home/travis/build/AliceO2Group/AliceO2/DataFormats/simulation/src/RunContext.cxx</title>
<!-- Node1 -->
<g id="node1" class="node"><title>Node1</title>
<polygon fill="#bfbfbf" stroke="black" points="156,-193 156,-245 280,-245 280,-193 156,-193"/>
<text text-anchor="start" x="164" y="-233" font-family="Helvetica,sans-Serif" font-size="10.00">/home/travis/build</text>
<text text-anchor="start" x="164" y="-222" font-family="Helvetica,sans-Serif" font-size="10.00">/AliceO2Group/AliceO2</text>
<text text-anchor="start" x="164" y="-211" font-family="Helvetica,sans-Serif" font-size="10.00">/DataFormats/simulation</text>
<text text-anchor="middle" x="218" y="-200" font-family="Helvetica,sans-Serif" font-size="10.00">/src/RunContext.cxx</text>
</g>
<!-- Node2 -->
<g id="node2" class="node"><title>Node2</title>
<g id="a_node2"><a xlink:href="../../d5/d3f/RunContext_8h.html" target="_top" xlink:title="SimulationDataFormat\l/RunContext.h">
<polygon fill="none" stroke="black" points="110,-125 110,-155 224,-155 224,-125 110,-125"/>
<text text-anchor="start" x="118" y="-143" font-family="Helvetica,sans-Serif" font-size="10.00">SimulationDataFormat</text>
<text text-anchor="middle" x="167" y="-132" font-family="Helvetica,sans-Serif" font-size="10.00">/RunContext.h</text>
</a>
</g>
</g>
<!-- Node1&#45;&gt;Node2 -->
<g id="edge1" class="edge"><title>Node1&#45;&gt;Node2</title>
<path fill="none" stroke="midnightblue" d="M201.301,-192.787C195.113,-183.445 188.137,-172.913 182.1,-163.798"/>
<polygon fill="midnightblue" stroke="midnightblue" points="184.88,-161.656 176.44,-155.252 179.044,-165.522 184.88,-161.656"/>
</g>
<!-- Node13 -->
<g id="node13" class="node"><title>Node13</title>
<polygon fill="none" stroke="#bfbfbf" points="242,-130.5 242,-149.5 296,-149.5 296,-130.5 242,-130.5"/>
<text text-anchor="middle" x="269" y="-137.5" font-family="Helvetica,sans-Serif" font-size="10.00">iostream</text>
</g>
<!-- Node1&#45;&gt;Node13 -->
<g id="edge13" class="edge"><title>Node1&#45;&gt;Node13</title>
<path fill="none" stroke="midnightblue" d="M234.699,-192.787C242.261,-181.37 251.001,-168.176 257.765,-157.962"/>
<polygon fill="midnightblue" stroke="midnightblue" points="260.728,-159.828 263.332,-149.558 254.892,-155.962 260.728,-159.828"/>
</g>
<!-- Node3 -->
<g id="node3" class="node"><title>Node3</title>
<polygon fill="none" stroke="#bfbfbf" points="0,-62.5 0,-81.5 44,-81.5 44,-62.5 0,-62.5"/>
<text text-anchor="middle" x="22" y="-69.5" font-family="Helvetica,sans-Serif" font-size="10.00">vector</text>
</g>
<!-- Node2&#45;&gt;Node3 -->
<g id="edge2" class="edge"><title>Node2&#45;&gt;Node3</title>
<path fill="none" stroke="midnightblue" d="M134.943,-124.966C112.034,-114.862 80.5193,-100.81 53,-88 51.611,-87.3534 50.1895,-86.686 48.7559,-86.0084"/>
<polygon fill="midnightblue" stroke="midnightblue" points="49.867,-82.6601 39.3357,-81.5015 46.8459,-88.9746 49.867,-82.6601"/>
</g>
<!-- Node4 -->
<g id="node4" class="node"><title>Node4</title>
<polygon fill="none" stroke="#bfbfbf" points="62,-62.5 62,-81.5 118,-81.5 118,-62.5 62,-62.5"/>
<text text-anchor="middle" x="90" y="-69.5" font-family="Helvetica,sans-Serif" font-size="10.00">TChain.h</text>
</g>
<!-- Node2&#45;&gt;Node4 -->
<g id="edge3" class="edge"><title>Node2&#45;&gt;Node4</title>
<path fill="none" stroke="midnightblue" d="M150.292,-124.679C137.811,-113.981 120.773,-99.3768 107.993,-88.4223"/>
<polygon fill="midnightblue" stroke="midnightblue" points="110.17,-85.6788 100.3,-81.8283 105.614,-90.9937 110.17,-85.6788"/>
</g>
<!-- Node5 -->
<g id="node5" class="node"><title>Node5</title>
<polygon fill="none" stroke="#bfbfbf" points="136,-62.5 136,-81.5 198,-81.5 198,-62.5 136,-62.5"/>
<text text-anchor="middle" x="167" y="-69.5" font-family="Helvetica,sans-Serif" font-size="10.00">TBranch.h</text>
</g>
<!-- Node2&#45;&gt;Node5 -->
<g id="edge4" class="edge"><title>Node2&#45;&gt;Node5</title>
<path fill="none" stroke="midnightblue" d="M167,-124.679C167,-115.101 167,-102.394 167,-91.9766"/>
<polygon fill="midnightblue" stroke="midnightblue" points="170.5,-91.8283 167,-81.8283 163.5,-91.8283 170.5,-91.8283"/>
</g>
<!-- Node6 -->
<g id="node6" class="node"><title>Node6</title>
<g id="a_node6"><a xlink:href="../../d9/d80/InteractionRecord_8h.html" target="_top" xlink:title="CommonDataFormat/Interaction\lRecord.h">
<polygon fill="none" stroke="black" points="216.5,-57 216.5,-87 373.5,-87 373.5,-57 216.5,-57"/>
<text text-anchor="start" x="224.5" y="-75" font-family="Helvetica,sans-Serif" font-size="10.00">CommonDataFormat/Interaction</text>
<text text-anchor="middle" x="295" y="-64" font-family="Helvetica,sans-Serif" font-size="10.00">Record.h</text>
</a>
</g>
</g>
<!-- Node2&#45;&gt;Node6 -->
<g id="edge5" class="edge"><title>Node2&#45;&gt;Node6</title>
<path fill="none" stroke="midnightblue" d="M194.459,-124.841C213.188,-115.185 238.194,-102.29 258.583,-91.7777"/>
<polygon fill="midnightblue" stroke="midnightblue" points="260.302,-94.829 267.586,-87.1352 257.094,-88.6074 260.302,-94.829"/>
</g>
<!-- Node11 -->
<g id="node11" class="node"><title>Node11</title>
<g id="a_node11"><a xlink:href="../../d4/d5f/BunchFilling_8h.html" target="_top" xlink:title="CommonDataFormat/BunchFilling.h">
<polygon fill="none" stroke="black" points="391.5,-62.5 391.5,-81.5 564.5,-81.5 564.5,-62.5 391.5,-62.5"/>
<text text-anchor="middle" x="478" y="-69.5" font-family="Helvetica,sans-Serif" font-size="10.00">CommonDataFormat/BunchFilling.h</text>
</a>
</g>
</g>
<!-- Node2&#45;&gt;Node11 -->
<g id="edge10" class="edge"><title>Node2&#45;&gt;Node11</title>
<path fill="none" stroke="midnightblue" d="M224.223,-125.928C227.19,-125.271 230.13,-124.625 233,-124 299.524,-109.518 376.407,-93.6558 426.04,-83.5298"/>
<polygon fill="midnightblue" stroke="midnightblue" points="426.799,-86.9473 435.898,-81.5209 425.401,-80.0882 426.799,-86.9473"/>
</g>
<!-- Node7 -->
<g id="node7" class="node"><title>Node7</title>
<polygon fill="none" stroke="#bfbfbf" points="162,-0.5 162,-19.5 218,-19.5 218,-0.5 162,-0.5"/>
<text text-anchor="middle" x="190" y="-7.5" font-family="Helvetica,sans-Serif" font-size="10.00">Rtypes.h</text>
</g>
<!-- Node6&#45;&gt;Node7 -->
<g id="edge6" class="edge"><title>Node6&#45;&gt;Node7</title>
<path fill="none" stroke="midnightblue" d="M270.382,-56.9327C253.3,-47.1715 230.67,-34.2401 213.775,-24.5856"/>
<polygon fill="midnightblue" stroke="midnightblue" points="215.469,-21.5226 205.05,-19.6 211.996,-27.6003 215.469,-21.5226"/>
</g>
<!-- Node8 -->
<g id="node8" class="node"><title>Node8</title>
<polygon fill="none" stroke="#bfbfbf" points="236.5,-0.5 236.5,-19.5 281.5,-19.5 281.5,-0.5 236.5,-0.5"/>
<text text-anchor="middle" x="259" y="-7.5" font-family="Helvetica,sans-Serif" font-size="10.00">iosfwd</text>
</g>
<!-- Node6&#45;&gt;Node8 -->
<g id="edge7" class="edge"><title>Node6&#45;&gt;Node8</title>
<path fill="none" stroke="midnightblue" d="M286.469,-56.7808C281.399,-48.3318 274.929,-37.5481 269.542,-28.5693"/>
<polygon fill="midnightblue" stroke="midnightblue" points="272.385,-26.5047 264.238,-19.7305 266.382,-30.1062 272.385,-26.5047"/>
</g>
<!-- Node9 -->
<g id="node9" class="node"><title>Node9</title>
<polygon fill="none" stroke="#bfbfbf" points="300,-0.5 300,-19.5 344,-19.5 344,-0.5 300,-0.5"/>
<text text-anchor="middle" x="322" y="-7.5" font-family="Helvetica,sans-Serif" font-size="10.00">cmath</text>
</g>
<!-- Node6&#45;&gt;Node9 -->
<g id="edge8" class="edge"><title>Node6&#45;&gt;Node9</title>
<path fill="none" stroke="midnightblue" d="M301.399,-56.7808C305.16,-48.4217 309.95,-37.7773 313.965,-28.8565"/>
<polygon fill="midnightblue" stroke="midnightblue" points="317.159,-30.2861 318.071,-19.7305 310.776,-27.4135 317.159,-30.2861"/>
</g>
<!-- Node10 -->
<g id="node10" class="node"><title>Node10</title>
<g id="a_node10"><a xlink:href="../../d4/dc6/LHCConstants_8h.html" target="_top" xlink:title="Header to collect LHC related constants. ">
<polygon fill="none" stroke="black" points="362,-0.5 362,-19.5 540,-19.5 540,-0.5 362,-0.5"/>
<text text-anchor="middle" x="451" y="-7.5" font-family="Helvetica,sans-Serif" font-size="10.00">CommonConstants/LHCConstants.h</text>
</a>
</g>
</g>
<!-- Node6&#45;&gt;Node10 -->
<g id="edge9" class="edge"><title>Node6&#45;&gt;Node10</title>
<path fill="none" stroke="midnightblue" d="M331.575,-56.9327C358.129,-46.7196 393.706,-33.036 419.107,-23.2664"/>
<polygon fill="midnightblue" stroke="midnightblue" points="420.563,-26.4566 428.64,-19.6 418.05,-19.9232 420.563,-26.4566"/>
</g>
<!-- Node11&#45;&gt;Node10 -->
<g id="edge11" class="edge"><title>Node11&#45;&gt;Node10</title>
<path fill="none" stroke="midnightblue" d="M474.132,-62.4035C470.202,-53.6707 464,-39.8893 459.007,-28.7936"/>
<polygon fill="midnightblue" stroke="midnightblue" points="462.157,-27.2635 454.861,-19.5806 455.773,-30.1361 462.157,-27.2635"/>
</g>
<!-- Node12 -->
<g id="node12" class="node"><title>Node12</title>
<polygon fill="none" stroke="#bfbfbf" points="557.5,-0.5 557.5,-19.5 598.5,-19.5 598.5,-0.5 557.5,-0.5"/>
<text text-anchor="middle" x="578" y="-7.5" font-family="Helvetica,sans-Serif" font-size="10.00">bitset</text>
</g>
<!-- Node11&#45;&gt;Node12 -->
<g id="edge12" class="edge"><title>Node11&#45;&gt;Node12</title>
<path fill="none" stroke="midnightblue" d="M492.328,-62.4035C508.664,-52.6014 535.602,-36.4385 554.912,-24.8526"/>
<polygon fill="midnightblue" stroke="midnightblue" points="556.925,-27.7268 563.699,-19.5806 553.323,-21.7244 556.925,-27.7268"/>
</g>
</g>
</svg>
