<?xml version="1.0" encoding="UTF-8" standalone="no"?>
<!DOCTYPE svg PUBLIC "-//W3C//DTD SVG 1.1//EN"
 "http://www.w3.org/Graphics/SVG/1.1/DTD/svg11.dtd">
<!-- Generated by graphviz version 2.36.0 (20140111.2315)
 -->
<!-- Title: /home/travis/build/AliceO2Group/AliceO2/Detectors/ITSMFT/ITS/reconstruction/include/ITSReconstruction/CA/gpu/Stream.h Pages: 1 -->
<!--zoomable 420 -->
<svg id="main" version="1.1" xmlns="http://www.w3.org/2000/svg" xmlns:xlink="http://www.w3.org/1999/xlink" xml:space="preserve" onload="init(evt)">
<style type="text/css"><![CDATA[
.edge:hover path { stroke: red; }
.edge:hover polygon { stroke: red; fill: red; }
]]></style>
<script type="text/javascript"><![CDATA[
var edges = document.getElementsByTagName('g');
if (edges && edges.length) {
  for (var i=0;i<edges.length;i++) {
    if (edges[i].id.substr(0,4)=='edge') {
      edges[i].setAttribute('class','edge');
    }
  }
}
]]></script>
        <defs>
                <circle id="rim" cx="0" cy="0" r="7"/>
                <circle id="rim2" cx="0" cy="0" r="3.5"/>
                <g id="zoomPlus">
                        <use xlink:href="#rim" fill="#404040">
                                <set attributeName="fill" to="#808080" begin="zoomplus.mouseover" end="zoomplus.mouseout"/>
                        </use>
                        <path d="M-4,0h8M0,-4v8" fill="none" stroke="white" stroke-width="1.5" pointer-events="none"/>
                </g>
                <g id="zoomMin">
                        <use xlink:href="#rim" fill="#404040">
                                <set attributeName="fill" to="#808080" begin="zoomminus.mouseover" end="zoomminus.mouseout"/>
                        </use>
                        <path d="M-4,0h8" fill="none" stroke="white" stroke-width="1.5" pointer-events="none"/>
                </g>
                <g id="dirArrow">
                        <path fill="none" stroke="white" stroke-width="1.5" d="M0,-3.0v7 M-2.5,-0.5L0,-3.0L2.5,-0.5"/>
                </g>
               <g id="resetDef">
                       <use xlink:href="#rim2" fill="#404040">
                               <set attributeName="fill" to="#808080" begin="reset.mouseover" end="reset.mouseout"/>
                       </use>
               </g>
        </defs>

<script type="text/javascript">
var viewWidth = 610;
var viewHeight = 420;
var sectionId = 'dynsection-1';
</script>
<script xlink:href="../../svgpan.js"/>
<svg id="graph" class="graph">
<g id="viewport">
<title>/home/travis/build/AliceO2Group/AliceO2/Detectors/ITSMFT/ITS/reconstruction/include/ITSReconstruction/CA/gpu/Stream.h</title>
<!-- Node1 -->
<g id="node1" class="node"><title>Node1</title>
<polygon fill="#bfbfbf" stroke="black" points="158.5,-337 158.5,-411 295.5,-411 295.5,-337 158.5,-337"/>
<text text-anchor="start" x="166.5" y="-399" font-family="Helvetica,sans-Serif" font-size="10.00">/home/travis/build</text>
<text text-anchor="start" x="166.5" y="-388" font-family="Helvetica,sans-Serif" font-size="10.00">/AliceO2Group/AliceO2</text>
<text text-anchor="start" x="166.5" y="-377" font-family="Helvetica,sans-Serif" font-size="10.00">/Detectors/ITSMFT/ITS</text>
<text text-anchor="start" x="166.5" y="-366" font-family="Helvetica,sans-Serif" font-size="10.00">/reconstruction/include</text>
<text text-anchor="start" x="166.5" y="-355" font-family="Helvetica,sans-Serif" font-size="10.00">/ITSReconstruction/CA/gpu</text>
<text text-anchor="middle" x="227" y="-344" font-family="Helvetica,sans-Serif" font-size="10.00">/Stream.h</text>
</g>
<!-- Node2 -->
<g id="node2" class="node"><title>Node2</title>
<g id="a_node2"><a xlink:href="../../dd/d65/Detectors_2ITSMFT_2ITS_2reconstruction_2include_2ITSReconstruction_2CA_2gpu_2gpu_2Utils_8h.html" target="_top" xlink:title="/home/travis/build\l/AliceO2Group/AliceO2\l/Detectors/ITSMFT/ITS\l/reconstruction/include\l/ITSReconstruction/CA/gpu\l/gpu/Utils.h">
<polygon fill="none" stroke="black" points="13.5,-225 13.5,-299 150.5,-299 150.5,-225 13.5,-225"/>
<text text-anchor="start" x="21.5" y="-287" font-family="Helvetica,sans-Serif" font-size="10.00">/home/travis/build</text>
<text text-anchor="start" x="21.5" y="-276" font-family="Helvetica,sans-Serif" font-size="10.00">/AliceO2Group/AliceO2</text>
<text text-anchor="start" x="21.5" y="-265" font-family="Helvetica,sans-Serif" font-size="10.00">/Detectors/ITSMFT/ITS</text>
<text text-anchor="start" x="21.5" y="-254" font-family="Helvetica,sans-Serif" font-size="10.00">/reconstruction/include</text>
<text text-anchor="start" x="21.5" y="-243" font-family="Helvetica,sans-Serif" font-size="10.00">/ITSReconstruction/CA/gpu</text>
<text text-anchor="middle" x="82" y="-232" font-family="Helvetica,sans-Serif" font-size="10.00">/gpu/Utils.h</text>
</a>
</g>
</g>
<!-- Node1&#45;&gt;Node2 -->
<g id="edge1" class="edge"><title>Node1&#45;&gt;Node2</title>
<path fill="none" stroke="midnightblue" d="M171.501,-330.898C157.681,-320.413 142.986,-309.266 129.585,-299.099"/>
<polygon fill="midnightblue" stroke="midnightblue" points="169.439,-333.726 179.522,-336.982 173.67,-328.15 169.439,-333.726"/>
</g>
<!-- Node3 -->
<g id="node3" class="node"><title>Node3</title>
<g id="a_node3"><a xlink:href="../../d6/da9/gpu_2Vector_8h.html" target="_top" xlink:title="/home/travis/build\l/AliceO2Group/AliceO2\l/Detectors/ITSMFT/ITS\l/reconstruction/include\l/ITSReconstruction/CA/gpu\l/gpu/Vector.h">
<polygon fill="none" stroke="black" points="-0.5,-113 -0.5,-187 136.5,-187 136.5,-113 -0.5,-113"/>
<text text-anchor="start" x="7.5" y="-175" font-family="Helvetica,sans-Serif" font-size="10.00">/home/travis/build</text>
<text text-anchor="start" x="7.5" y="-164" font-family="Helvetica,sans-Serif" font-size="10.00">/AliceO2Group/AliceO2</text>
<text text-anchor="start" x="7.5" y="-153" font-family="Helvetica,sans-Serif" font-size="10.00">/Detectors/ITSMFT/ITS</text>
<text text-anchor="start" x="7.5" y="-142" font-family="Helvetica,sans-Serif" font-size="10.00">/reconstruction/include</text>
<text text-anchor="start" x="7.5" y="-131" font-family="Helvetica,sans-Serif" font-size="10.00">/ITSReconstruction/CA/gpu</text>
<text text-anchor="middle" x="68" y="-120" font-family="Helvetica,sans-Serif" font-size="10.00">/gpu/Vector.h</text>
</a>
</g>
</g>
<!-- Node1&#45;&gt;Node3 -->
<g id="edge2" class="edge"><title>Node1&#45;&gt;Node3</title>
<path fill="none" stroke="midnightblue" d="M208.861,-327.257C193.607,-290.037 172.227,-240.993 159,-224 148.425,-210.415 134.841,-197.803 121.411,-187.016"/>
<polygon fill="midnightblue" stroke="midnightblue" points="205.783,-328.977 212.794,-336.92 212.266,-326.339 205.783,-328.977"/>
</g>
<!-- Node4 -->
<g id="node4" class="node"><title>Node4</title>
<g id="a_node4"><a xlink:href="../../df/d55/Detectors_2ITSMFT_2ITS_2reconstruction_2include_2ITSReconstruction_2CA_2gpu_2Utils_8h.html" target="_top" xlink:title="/home/travis/build\l/AliceO2Group/AliceO2\l/Detectors/ITSMFT/ITS\l/reconstruction/include\l/ITSReconstruction/CA/gpu\l/Utils.h">
<polygon fill="none" stroke="black" points="207.5,-225 207.5,-299 344.5,-299 344.5,-225 207.5,-225"/>
<text text-anchor="start" x="215.5" y="-287" font-family="Helvetica,sans-Serif" font-size="10.00">/home/travis/build</text>
<text text-anchor="start" x="215.5" y="-276" font-family="Helvetica,sans-Serif" font-size="10.00">/AliceO2Group/AliceO2</text>
<text text-anchor="start" x="215.5" y="-265" font-family="Helvetica,sans-Serif" font-size="10.00">/Detectors/ITSMFT/ITS</text>
<text text-anchor="start" x="215.5" y="-254" font-family="Helvetica,sans-Serif" font-size="10.00">/reconstruction/include</text>
<text text-anchor="start" x="215.5" y="-243" font-family="Helvetica,sans-Serif" font-size="10.00">/ITSReconstruction/CA/gpu</text>
<text text-anchor="middle" x="276" y="-232" font-family="Helvetica,sans-Serif" font-size="10.00">/Utils.h</text>
</a>
</g>
</g>
<!-- Node1&#45;&gt;Node4 -->
<g id="edge3" class="edge"><title>Node1&#45;&gt;Node4</title>
<path fill="none" stroke="midnightblue" d="M247.204,-327.645C251.442,-318.131 255.856,-308.22 259.92,-299.099"/>
<polygon fill="midnightblue" stroke="midnightblue" points="243.916,-326.423 243.044,-336.982 250.311,-329.271 243.916,-326.423"/>
</g>
<!-- Node9 -->
<g id="node9" class="node"><title>Node9</title>
<g id="a_node9"><a xlink:href="../../d6/dbe/Vector_8h.html" target="_top" xlink:title="/home/travis/build\l/AliceO2Group/AliceO2\l/Detectors/ITSMFT/ITS\l/reconstruction/include\l/ITSReconstruction/CA/gpu\l/Vector.h">
<polygon fill="none" stroke="black" points="464.5,-113 464.5,-187 601.5,-187 601.5,-113 464.5,-113"/>
<text text-anchor="start" x="472.5" y="-175" font-family="Helvetica,sans-Serif" font-size="10.00">/home/travis/build</text>
<text text-anchor="start" x="472.5" y="-164" font-family="Helvetica,sans-Serif" font-size="10.00">/AliceO2Group/AliceO2</text>
<text text-anchor="start" x="472.5" y="-153" font-family="Helvetica,sans-Serif" font-size="10.00">/Detectors/ITSMFT/ITS</text>
<text text-anchor="start" x="472.5" y="-142" font-family="Helvetica,sans-Serif" font-size="10.00">/reconstruction/include</text>
<text text-anchor="start" x="472.5" y="-131" font-family="Helvetica,sans-Serif" font-size="10.00">/ITSReconstruction/CA/gpu</text>
<text text-anchor="middle" x="533" y="-120" font-family="Helvetica,sans-Serif" font-size="10.00">/Vector.h</text>
</a>
</g>
</g>
<!-- Node1&#45;&gt;Node9 -->
<g id="edge12" class="edge"><title>Node1&#45;&gt;Node9</title>
<path fill="none" stroke="midnightblue" d="M302.751,-331.85C319.623,-321.936 337.188,-311.011 353,-300 403.769,-264.647 457.926,-218.539 493.42,-187.035"/>
<polygon fill="midnightblue" stroke="midnightblue" points="300.888,-328.884 294.003,-336.937 304.407,-334.935 300.888,-328.884"/>
</g>
<!-- Node4&#45;&gt;Node3 -->
<g id="edge5" class="edge"><title>Node4&#45;&gt;Node3</title>
<path fill="none" stroke="midnightblue" d="M198.883,-220.217C178.339,-209.352 156.292,-197.693 136.26,-187.099"/>
<polygon fill="midnightblue" stroke="midnightblue" points="197.417,-223.401 207.893,-224.982 200.689,-217.213 197.417,-223.401"/>
</g>
<!-- Node5 -->
<g id="node5" class="node"><title>Node5</title>
<g id="a_node5"><a xlink:href="../../db/d76/gpu_2UniquePointer_8h.html" target="_top" xlink:title="/home/travis/build\l/AliceO2Group/AliceO2\l/Detectors/ITSMFT/ITS\l/reconstruction/include\l/ITSReconstruction/CA/gpu\l/gpu/UniquePointer.h">
<polygon fill="none" stroke="black" points="154.5,-113 154.5,-187 291.5,-187 291.5,-113 154.5,-113"/>
<text text-anchor="start" x="162.5" y="-175" font-family="Helvetica,sans-Serif" font-size="10.00">/home/travis/build</text>
<text text-anchor="start" x="162.5" y="-164" font-family="Helvetica,sans-Serif" font-size="10.00">/AliceO2Group/AliceO2</text>
<text text-anchor="start" x="162.5" y="-153" font-family="Helvetica,sans-Serif" font-size="10.00">/Detectors/ITSMFT/ITS</text>
<text text-anchor="start" x="162.5" y="-142" font-family="Helvetica,sans-Serif" font-size="10.00">/reconstruction/include</text>
<text text-anchor="start" x="162.5" y="-131" font-family="Helvetica,sans-Serif" font-size="10.00">/ITSReconstruction/CA/gpu</text>
<text text-anchor="middle" x="223" y="-120" font-family="Helvetica,sans-Serif" font-size="10.00">/gpu/UniquePointer.h</text>
</a>
</g>
</g>
<!-- Node4&#45;&gt;Node5 -->
<g id="edge4" class="edge"><title>Node4&#45;&gt;Node5</title>
<path fill="none" stroke="midnightblue" d="M254.29,-215.942C249.663,-206.338 244.834,-196.315 240.393,-187.099"/>
<polygon fill="midnightblue" stroke="midnightblue" points="251.152,-217.492 258.646,-224.982 257.458,-214.454 251.152,-217.492"/>
</g>
<!-- Node6 -->
<g id="node6" class="node"><title>Node6</title>
<g id="a_node6"><a xlink:href="../../da/db5/UniquePointer_8h.html" target="_top" xlink:title="/home/travis/build\l/AliceO2Group/AliceO2\l/Detectors/ITSMFT/ITS\l/reconstruction/include\l/ITSReconstruction/CA/gpu\l/UniquePointer.h">
<polygon fill="none" stroke="black" points="309.5,-113 309.5,-187 446.5,-187 446.5,-113 309.5,-113"/>
<text text-anchor="start" x="317.5" y="-175" font-family="Helvetica,sans-Serif" font-size="10.00">/home/travis/build</text>
<text text-anchor="start" x="317.5" y="-164" font-family="Helvetica,sans-Serif" font-size="10.00">/AliceO2Group/AliceO2</text>
<text text-anchor="start" x="317.5" y="-153" font-family="Helvetica,sans-Serif" font-size="10.00">/Detectors/ITSMFT/ITS</text>
<text text-anchor="start" x="317.5" y="-142" font-family="Helvetica,sans-Serif" font-size="10.00">/reconstruction/include</text>
<text text-anchor="start" x="317.5" y="-131" font-family="Helvetica,sans-Serif" font-size="10.00">/ITSReconstruction/CA/gpu</text>
<text text-anchor="middle" x="378" y="-120" font-family="Helvetica,sans-Serif" font-size="10.00">/UniquePointer.h</text>
</a>
</g>
</g>
<!-- Node4&#45;&gt;Node6 -->
<g id="edge6" class="edge"><title>Node4&#45;&gt;Node6</title>
<path fill="none" stroke="midnightblue" d="M316.407,-217.424C325.727,-207.373 335.54,-196.79 344.526,-187.099"/>
<polygon fill="midnightblue" stroke="midnightblue" points="313.632,-215.269 309.399,-224.982 318.764,-220.029 313.632,-215.269"/>
</g>
<!-- Node4&#45;&gt;Node9 -->
<g id="edge9" class="edge"><title>Node4&#45;&gt;Node9</title>
<path fill="none" stroke="midnightblue" d="M354.388,-230.131C385.83,-217.464 422.297,-202.412 455,-188 458.017,-186.67 461.092,-185.296 464.192,-183.894"/>
<polygon fill="midnightblue" stroke="midnightblue" points="352.776,-227.007 344.801,-233.983 355.385,-233.503 352.776,-227.007"/>
</g>
<!-- Node7 -->
<g id="node7" class="node"><title>Node7</title>
<g id="a_node7"><a xlink:href="../../da/d7f/gpu_2gpu_2PrimaryVertexContext_8h.html" target="_top" xlink:title="/home/travis/build\l/AliceO2Group/AliceO2\l/Detectors/ITSMFT/ITS\l/reconstruction/include\l/ITSReconstruction/CA/gpu\l/gpu/PrimaryVertexContext.h">
<polygon fill="none" stroke="black" points="304.5,-1 304.5,-75 447.5,-75 447.5,-1 304.5,-1"/>
<text text-anchor="start" x="312.5" y="-63" font-family="Helvetica,sans-Serif" font-size="10.00">/home/travis/build</text>
<text text-anchor="start" x="312.5" y="-52" font-family="Helvetica,sans-Serif" font-size="10.00">/AliceO2Group/AliceO2</text>
<text text-anchor="start" x="312.5" y="-41" font-family="Helvetica,sans-Serif" font-size="10.00">/Detectors/ITSMFT/ITS</text>
<text text-anchor="start" x="312.5" y="-30" font-family="Helvetica,sans-Serif" font-size="10.00">/reconstruction/include</text>
<text text-anchor="start" x="312.5" y="-19" font-family="Helvetica,sans-Serif" font-size="10.00">/ITSReconstruction/CA/gpu</text>
<text text-anchor="middle" x="376" y="-8" font-family="Helvetica,sans-Serif" font-size="10.00">/gpu/PrimaryVertexContext.h</text>
</a>
</g>
</g>
<!-- Node6&#45;&gt;Node7 -->
<g id="edge7" class="edge"><title>Node6&#45;&gt;Node7</title>
<path fill="none" stroke="midnightblue" d="M377.159,-102.752C376.991,-93.5127 376.817,-83.9353 376.656,-75.099"/>
<polygon fill="midnightblue" stroke="midnightblue" points="373.664,-103.047 377.345,-112.982 380.663,-102.92 373.664,-103.047"/>
</g>
<!-- Node8 -->
<g id="node8" class="node"><title>Node8</title>
<g id="a_node8"><a xlink:href="../../db/dbf/gpu_2PrimaryVertexContext_8h.html" target="_top" xlink:title="/home/travis/build\l/AliceO2Group/AliceO2\l/Detectors/ITSMFT/ITS\l/reconstruction/include\l/ITSReconstruction/CA/gpu\l/PrimaryVertexContext.h">
<polygon fill="none" stroke="black" points="465.5,-1 465.5,-75 602.5,-75 602.5,-1 465.5,-1"/>
<text text-anchor="start" x="473.5" y="-63" font-family="Helvetica,sans-Serif" font-size="10.00">/home/travis/build</text>
<text text-anchor="start" x="473.5" y="-52" font-family="Helvetica,sans-Serif" font-size="10.00">/AliceO2Group/AliceO2</text>
<text text-anchor="start" x="473.5" y="-41" font-family="Helvetica,sans-Serif" font-size="10.00">/Detectors/ITSMFT/ITS</text>
<text text-anchor="start" x="473.5" y="-30" font-family="Helvetica,sans-Serif" font-size="10.00">/reconstruction/include</text>
<text text-anchor="start" x="473.5" y="-19" font-family="Helvetica,sans-Serif" font-size="10.00">/ITSReconstruction/CA/gpu</text>
<text text-anchor="middle" x="534" y="-8" font-family="Helvetica,sans-Serif" font-size="10.00">/PrimaryVertexContext.h</text>
</a>
</g>
</g>
<!-- Node6&#45;&gt;Node8 -->
<g id="edge8" class="edge"><title>Node6&#45;&gt;Node8</title>
<path fill="none" stroke="midnightblue" d="M437.292,-107.191C452.282,-96.6214 468.252,-85.3606 482.805,-75.099"/>
<polygon fill="midnightblue" stroke="midnightblue" points="435.236,-104.359 429.08,-112.982 439.27,-110.08 435.236,-104.359"/>
</g>
<!-- Node9&#45;&gt;Node7 -->
<g id="edge10" class="edge"><title>Node9&#45;&gt;Node7</title>
<path fill="none" stroke="midnightblue" d="M473.328,-107.191C458.241,-96.6214 442.169,-85.3606 427.523,-75.099"/>
<polygon fill="midnightblue" stroke="midnightblue" points="471.394,-110.11 481.592,-112.982 475.411,-104.377 471.394,-110.11"/>
</g>
<!-- Node9&#45;&gt;Node8 -->
<g id="edge11" class="edge"><title>Node9&#45;&gt;Node8</title>
<path fill="none" stroke="midnightblue" d="M533.42,-102.752C533.504,-93.5127 533.591,-83.9353 533.672,-75.099"/>
<polygon fill="midnightblue" stroke="midnightblue" points="529.919,-102.95 533.327,-112.982 536.918,-103.014 529.919,-102.95"/>
</g>
</g>
</svg>
        <g id="navigator" transform="translate(0 0)" fill="#404254">
                <rect fill="#f2f5e9" fill-opacity="0.5" stroke="#606060" stroke-width=".5" x="0" y="0" width="60" height="60"/>
                <use id="zoomplus" xlink:href="#zoomPlus" x="17" y="9" onmousedown="handleZoom(evt,'in')"/>
                <use id="zoomminus" xlink:href="#zoomMin" x="42" y="9" onmousedown="handleZoom(evt,'out')"/>
                <use id="reset" xlink:href="#resetDef" x="30" y="36" onmousedown="handleReset()"/>
                <g id="arrowUp" xlink:href="#dirArrow" transform="translate(30 24)" onmousedown="handlePan(0,-1)">
                  <use xlink:href="#rim" fill="#404040">
                        <set attributeName="fill" to="#808080" begin="arrowUp.mouseover" end="arrowUp.mouseout"/>
                  </use>
                  <path fill="none" stroke="white" stroke-width="1.5" d="M0,-3.0v7 M-2.5,-0.5L0,-3.0L2.5,-0.5"/>
                </g>
                <g id="arrowRight" xlink:href="#dirArrow" transform="rotate(90) translate(36 -43)" onmousedown="handlePan(1,0)">
                  <use xlink:href="#rim" fill="#404040">
                        <set attributeName="fill" to="#808080" begin="arrowRight.mouseover" end="arrowRight.mouseout"/>
                  </use>
                  <path fill="none" stroke="white" stroke-width="1.5" d="M0,-3.0v7 M-2.5,-0.5L0,-3.0L2.5,-0.5"/>
                </g>
                <g id="arrowDown" xlink:href="#dirArrow" transform="rotate(180) translate(-30 -48)" onmousedown="handlePan(0,1)">
                  <use xlink:href="#rim" fill="#404040">
                        <set attributeName="fill" to="#808080" begin="arrowDown.mouseover" end="arrowDown.mouseout"/>
                  </use>
                  <path fill="none" stroke="white" stroke-width="1.5" d="M0,-3.0v7 M-2.5,-0.5L0,-3.0L2.5,-0.5"/>
                </g>
                <g id="arrowLeft" xlink:href="#dirArrow" transform="rotate(270) translate(-36 17)" onmousedown="handlePan(-1,0)">
                  <use xlink:href="#rim" fill="#404040">
                        <set attributeName="fill" to="#808080" begin="arrowLeft.mouseover" end="arrowLeft.mouseout"/>
                  </use>
                  <path fill="none" stroke="white" stroke-width="1.5" d="M0,-3.0v7 M-2.5,-0.5L0,-3.0L2.5,-0.5"/>
                </g>
        </g>
        <svg viewBox="0 0 15 15" width="100%" height="30px" preserveAspectRatio="xMaxYMin meet">
         <g id="arrow_out" transform="scale(0.3 0.3)">
          <a xlink:href="Stream_8h__dep__incl_org.svg" target="_base">
           <rect id="button" ry="5" rx="5" y="6" x="6" height="38" width="38"
                fill="#f2f5e9" fill-opacity="0.5" stroke="#606060" stroke-width="1.0"/>
           <path id="arrow"
             d="M 11.500037,31.436501 C 11.940474,20.09759 22.043105,11.32322 32.158766,21.979434 L 37.068811,17.246167 C 37.068811,17.246167 37.088388,32 37.088388,32 L 22.160133,31.978069 C 22.160133,31.978069 26.997745,27.140456 26.997745,27.140456 C 18.528582,18.264221 13.291696,25.230495 11.500037,31.436501 z"
             style="fill:#404040;"/>
          </a>
         </g>
        </svg>
</svg>
