<?xml version="1.0" encoding="UTF-8" standalone="no"?>
<!DOCTYPE svg PUBLIC "-//W3C//DTD SVG 1.1//EN"
 "http://www.w3.org/Graphics/SVG/1.1/DTD/svg11.dtd">
<!-- Generated by graphviz version 2.36.0 (20140111.2315)
 -->
<!-- Title: /home/travis/build/AliceO2Group/AliceO2/Utilities/DataFlow/src/TimeframeWriterDevice.cxx Pages: 1 -->
<!--zoomable 422 -->
<svg id="main" version="1.1" xmlns="http://www.w3.org/2000/svg" xmlns:xlink="http://www.w3.org/1999/xlink" xml:space="preserve" onload="init(evt)">
<style type="text/css"><![CDATA[
.edge:hover path { stroke: red; }
.edge:hover polygon { stroke: red; fill: red; }
]]></style>
<script type="text/javascript"><![CDATA[
var edges = document.getElementsByTagName('g');
if (edges && edges.length) {
  for (var i=0;i<edges.length;i++) {
    if (edges[i].id.substr(0,4)=='edge') {
      edges[i].setAttribute('class','edge');
    }
  }
}
]]></script>
        <defs>
                <circle id="rim" cx="0" cy="0" r="7"/>
                <circle id="rim2" cx="0" cy="0" r="3.5"/>
                <g id="zoomPlus">
                        <use xlink:href="#rim" fill="#404040">
                                <set attributeName="fill" to="#808080" begin="zoomplus.mouseover" end="zoomplus.mouseout"/>
                        </use>
                        <path d="M-4,0h8M0,-4v8" fill="none" stroke="white" stroke-width="1.5" pointer-events="none"/>
                </g>
                <g id="zoomMin">
                        <use xlink:href="#rim" fill="#404040">
                                <set attributeName="fill" to="#808080" begin="zoomminus.mouseover" end="zoomminus.mouseout"/>
                        </use>
                        <path d="M-4,0h8" fill="none" stroke="white" stroke-width="1.5" pointer-events="none"/>
                </g>
                <g id="dirArrow">
                        <path fill="none" stroke="white" stroke-width="1.5" d="M0,-3.0v7 M-2.5,-0.5L0,-3.0L2.5,-0.5"/>
                </g>
               <g id="resetDef">
                       <use xlink:href="#rim2" fill="#404040">
                               <set attributeName="fill" to="#808080" begin="reset.mouseover" end="reset.mouseout"/>
                       </use>
               </g>
        </defs>

<script type="text/javascript">
var viewWidth = 1766;
var viewHeight = 422;
var sectionId = 'dynsection-0';
</script>
<script xlink:href="../../svgpan.js"/>
<svg id="graph" class="graph">
<g id="viewport">
<title>/home/travis/build/AliceO2Group/AliceO2/Utilities/DataFlow/src/TimeframeWriterDevice.cxx</title>
<!-- Node1 -->
<g id="node1" class="node"><title>Node1</title>
<polygon fill="#bfbfbf" stroke="black" points="517,-361 517,-413 659,-413 659,-361 517,-361"/>
<text text-anchor="start" x="525" y="-401" font-family="Helvetica,sans-Serif" font-size="10.00">/home/travis/build</text>
<text text-anchor="start" x="525" y="-390" font-family="Helvetica,sans-Serif" font-size="10.00">/AliceO2Group/AliceO2</text>
<text text-anchor="start" x="525" y="-379" font-family="Helvetica,sans-Serif" font-size="10.00">/Utilities/DataFlow/src</text>
<text text-anchor="middle" x="588" y="-368" font-family="Helvetica,sans-Serif" font-size="10.00">/TimeframeWriterDevice.cxx</text>
</g>
<!-- Node2 -->
<g id="node2" class="node"><title>Node2</title>
<polygon fill="none" stroke="#bfbfbf" points="10,-298.5 10,-317.5 54,-317.5 54,-298.5 10,-298.5"/>
<text text-anchor="middle" x="32" y="-305.5" font-family="Helvetica,sans-Serif" font-size="10.00">thread</text>
</g>
<!-- Node1&#45;&gt;Node2 -->
<g id="edge1" class="edge"><title>Node1&#45;&gt;Node2</title>
<path fill="none" stroke="midnightblue" d="M516.616,-383.704C415.318,-379.054 224.748,-365.15 68,-324 65.1758,-323.259 62.2815,-322.341 59.4209,-321.328"/>
<polygon fill="midnightblue" stroke="midnightblue" points="60.5634,-318.017 49.9755,-317.633 58.0131,-324.536 60.5634,-318.017"/>
</g>
<!-- Node3 -->
<g id="node3" class="node"><title>Node3</title>
<polygon fill="none" stroke="#bfbfbf" points="96,-68.5 96,-87.5 142,-87.5 142,-68.5 96,-68.5"/>
<text text-anchor="middle" x="119" y="-75.5" font-family="Helvetica,sans-Serif" font-size="10.00">chrono</text>
</g>
<!-- Node1&#45;&gt;Node3 -->
<g id="edge2" class="edge"><title>Node1&#45;&gt;Node3</title>
<path fill="none" stroke="midnightblue" d="M516.843,-381.322C377.474,-370.199 82,-336.109 82,-247 82,-247 82,-247 82,-189 82,-154.889 98.1815,-117.787 109.142,-96.5681"/>
<polygon fill="midnightblue" stroke="midnightblue" points="112.359,-97.9756 114.01,-87.5101 106.193,-94.662 112.359,-97.9756"/>
</g>
<!-- Node4 -->
<g id="node4" class="node"><title>Node4</title>
<g id="a_node4"><a xlink:href="../../dd/dcc/TimeframeWriterDevice_8h.html" target="_top" xlink:title="DataFlow/TimeframeWriter\lDevice.h">
<polygon fill="none" stroke="black" points="521,-293 521,-323 655,-323 655,-293 521,-293"/>
<text text-anchor="start" x="529" y="-311" font-family="Helvetica,sans-Serif" font-size="10.00">DataFlow/TimeframeWriter</text>
<text text-anchor="middle" x="588" y="-300" font-family="Helvetica,sans-Serif" font-size="10.00">Device.h</text>
</a>
</g>
</g>
<!-- Node1&#45;&gt;Node4 -->
<g id="edge3" class="edge"><title>Node1&#45;&gt;Node4</title>
<path fill="none" stroke="midnightblue" d="M588,-360.787C588,-352.029 588,-342.225 588,-333.523"/>
<polygon fill="midnightblue" stroke="midnightblue" points="591.5,-333.252 588,-323.252 584.5,-333.252 591.5,-333.252"/>
</g>
<!-- Node7 -->
<g id="node7" class="node"><title>Node7</title>
<polygon fill="none" stroke="#bfbfbf" points="855,-180.5 855,-199.5 1001,-199.5 1001,-180.5 855,-180.5"/>
<text text-anchor="middle" x="928" y="-187.5" font-family="Helvetica,sans-Serif" font-size="10.00">options/FairMQProgOptions.h</text>
</g>
<!-- Node1&#45;&gt;Node7 -->
<g id="edge52" class="edge"><title>Node1&#45;&gt;Node7</title>
<path fill="none" stroke="midnightblue" d="M631.753,-360.906C704.318,-319.288 847.19,-237.347 903.939,-204.8"/>
<polygon fill="midnightblue" stroke="midnightblue" points="905.96,-207.675 912.893,-199.664 902.477,-201.603 905.96,-207.675"/>
</g>
<!-- Node22 -->
<g id="node22" class="node"><title>Node22</title>
<g id="a_node22"><a xlink:href="../../dc/dcd/DataHeader_8h.html" target="_top" xlink:title="Headers/DataHeader.h">
<polygon fill="none" stroke="black" points="457.5,-68.5 457.5,-87.5 574.5,-87.5 574.5,-68.5 457.5,-68.5"/>
<text text-anchor="middle" x="516" y="-75.5" font-family="Helvetica,sans-Serif" font-size="10.00">Headers/DataHeader.h</text>
</a>
</g>
</g>
<!-- Node1&#45;&gt;Node22 -->
<g id="edge51" class="edge"><title>Node1&#45;&gt;Node22</title>
<path fill="none" stroke="midnightblue" d="M551.236,-360.929C537.791,-350.565 523.156,-337.754 512,-324 472.932,-275.834 462.636,-260.267 448,-200 437.928,-158.526 474.343,-116.521 497.741,-94.5722"/>
<polygon fill="midnightblue" stroke="midnightblue" points="500.299,-96.9779 505.376,-87.6789 495.608,-91.782 500.299,-96.9779"/>
</g>
<!-- Node33 -->
<g id="node33" class="node"><title>Node33</title>
<g id="a_node33"><a xlink:href="../../dd/ddb/TimeframeParser_8h.html" target="_top" xlink:title="DataFlow/TimeframeParser.h">
<polygon fill="none" stroke="black" points="1057.5,-298.5 1057.5,-317.5 1202.5,-317.5 1202.5,-298.5 1057.5,-298.5"/>
<text text-anchor="middle" x="1130" y="-305.5" font-family="Helvetica,sans-Serif" font-size="10.00">DataFlow/TimeframeParser.h</text>
</a>
</g>
</g>
<!-- Node1&#45;&gt;Node33 -->
<g id="edge38" class="edge"><title>Node1&#45;&gt;Node33</title>
<path fill="none" stroke="midnightblue" d="M659.043,-377.108C748.671,-365.71 907.48,-344.909 1043,-324 1052.44,-322.543 1062.45,-320.906 1072.18,-319.263"/>
<polygon fill="midnightblue" stroke="midnightblue" points="1072.92,-322.688 1082.19,-317.556 1071.74,-315.788 1072.92,-322.688"/>
</g>
<!-- Node36 -->
<g id="node36" class="node"><title>Node36</title>
<g id="a_node36"><a xlink:href="../../de/dfa/TimeFrame_8h.html" target="_top" xlink:title="TimeFrame/TimeFrame.h">
<polygon fill="none" stroke="black" points="208.5,-180.5 208.5,-199.5 335.5,-199.5 335.5,-180.5 208.5,-180.5"/>
<text text-anchor="middle" x="272" y="-187.5" font-family="Helvetica,sans-Serif" font-size="10.00">TimeFrame/TimeFrame.h</text>
</a>
</g>
</g>
<!-- Node1&#45;&gt;Node36 -->
<g id="edge41" class="edge"><title>Node1&#45;&gt;Node36</title>
<path fill="none" stroke="midnightblue" d="M516.838,-376.311C473.555,-367.816 418.761,-352.213 377,-324 331.643,-293.358 296.752,-237.001 281.073,-208.495"/>
<polygon fill="midnightblue" stroke="midnightblue" points="284.148,-206.824 276.342,-199.661 277.978,-210.129 284.148,-206.824"/>
</g>
<!-- Node40 -->
<g id="node40" class="node"><title>Node40</title>
<g id="a_node40"><a xlink:href="../../d2/d1b/SubframeMetadata_8h.html" target="_top" xlink:title="Headers/SubframeMetadata.h">
<polygon fill="none" stroke="black" points="1340.5,-68.5 1340.5,-87.5 1487.5,-87.5 1487.5,-68.5 1340.5,-68.5"/>
<text text-anchor="middle" x="1414" y="-75.5" font-family="Helvetica,sans-Serif" font-size="10.00">Headers/SubframeMetadata.h</text>
</a>
</g>
</g>
<!-- Node1&#45;&gt;Node40 -->
<g id="edge49" class="edge"><title>Node1&#45;&gt;Node40</title>
<path fill="none" stroke="midnightblue" d="M659.344,-378.435C784.157,-363.202 1029,-323.563 1029,-247 1029,-247 1029,-247 1029,-189 1029,-126.836 1216.92,-97.8415 1330.18,-86.0118"/>
<polygon fill="midnightblue" stroke="midnightblue" points="1330.63,-89.4841 1340.22,-84.9872 1329.92,-82.5202 1330.63,-89.4841"/>
</g>
<!-- Node41 -->
<g id="node41" class="node"><title>Node41</title>
<polygon fill="none" stroke="#bfbfbf" points="1220.5,-298.5 1220.5,-317.5 1327.5,-317.5 1327.5,-298.5 1220.5,-298.5"/>
<text text-anchor="middle" x="1274" y="-305.5" font-family="Helvetica,sans-Serif" font-size="10.00">boost/filesystem.hpp</text>
</g>
<!-- Node1&#45;&gt;Node41 -->
<g id="edge53" class="edge"><title>Node1&#45;&gt;Node41</title>
<path fill="none" stroke="midnightblue" d="M659.421,-382.027C775.653,-374.86 1012.7,-357.32 1211,-324 1217.78,-322.861 1224.91,-321.41 1231.85,-319.862"/>
<polygon fill="midnightblue" stroke="midnightblue" points="1232.85,-323.222 1241.8,-317.549 1231.26,-316.404 1232.85,-323.222"/>
</g>
<!-- Node5 -->
<g id="node5" class="node"><title>Node5</title>
<g id="a_node5"><a xlink:href="../../d2/dee/O2Device_8h.html" target="_top" xlink:title="O2Device/O2Device.h">
<polygon fill="none" stroke="black" points="581.5,-236.5 581.5,-255.5 696.5,-255.5 696.5,-236.5 581.5,-236.5"/>
<text text-anchor="middle" x="639" y="-243.5" font-family="Helvetica,sans-Serif" font-size="10.00">O2Device/O2Device.h</text>
</a>
</g>
</g>
<!-- Node4&#45;&gt;Node5 -->
<g id="edge4" class="edge"><title>Node4&#45;&gt;Node5</title>
<path fill="none" stroke="midnightblue" d="M600.086,-292.781C607.574,-283.972 617.218,-272.626 625.032,-263.433"/>
<polygon fill="midnightblue" stroke="midnightblue" points="627.769,-265.617 631.579,-255.731 622.436,-261.083 627.769,-265.617"/>
</g>
<!-- Node32 -->
<g id="node32" class="node"><title>Node32</title>
<polygon fill="none" stroke="#bfbfbf" points="513,-236.5 513,-255.5 563,-255.5 563,-236.5 513,-236.5"/>
<text text-anchor="middle" x="538" y="-243.5" font-family="Helvetica,sans-Serif" font-size="10.00">fstream</text>
</g>
<!-- Node4&#45;&gt;Node32 -->
<g id="edge37" class="edge"><title>Node4&#45;&gt;Node32</title>
<path fill="none" stroke="midnightblue" d="M576.151,-292.781C568.81,-283.972 559.355,-272.626 551.694,-263.433"/>
<polygon fill="midnightblue" stroke="midnightblue" points="554.366,-261.172 545.275,-255.731 548.989,-265.653 554.366,-261.172"/>
</g>
<!-- Node6 -->
<g id="node6" class="node"><title>Node6</title>
<polygon fill="none" stroke="#bfbfbf" points="457,-180.5 457,-199.5 545,-199.5 545,-180.5 457,-180.5"/>
<text text-anchor="middle" x="501" y="-187.5" font-family="Helvetica,sans-Serif" font-size="10.00">FairMQDevice.h</text>
</g>
<!-- Node5&#45;&gt;Node6 -->
<g id="edge5" class="edge"><title>Node5&#45;&gt;Node6</title>
<path fill="none" stroke="midnightblue" d="M617.133,-236.444C594.221,-227.478 558.025,-213.314 532.134,-203.183"/>
<polygon fill="midnightblue" stroke="midnightblue" points="533.352,-199.901 522.764,-199.516 530.801,-206.42 533.352,-199.901"/>
</g>
<!-- Node5&#45;&gt;Node7 -->
<g id="edge6" class="edge"><title>Node5&#45;&gt;Node7</title>
<path fill="none" stroke="midnightblue" d="M684.793,-236.444C735.737,-226.925 818.034,-211.547 872.574,-201.356"/>
<polygon fill="midnightblue" stroke="midnightblue" points="873.234,-204.794 882.421,-199.516 871.949,-197.913 873.234,-204.794"/>
</g>
<!-- Node8 -->
<g id="node8" class="node"><title>Node8</title>
<g id="a_node8"><a xlink:href="../../d7/db2/Utilities_8h.html" target="_top" xlink:title="O2Device/Utilities.h">
<polygon fill="none" stroke="black" points="733,-180.5 733,-199.5 837,-199.5 837,-180.5 733,-180.5"/>
<text text-anchor="middle" x="785" y="-187.5" font-family="Helvetica,sans-Serif" font-size="10.00">O2Device/Utilities.h</text>
</a>
</g>
</g>
<!-- Node5&#45;&gt;Node8 -->
<g id="edge7" class="edge"><title>Node5&#45;&gt;Node8</title>
<path fill="none" stroke="midnightblue" d="M662.134,-236.444C686.482,-227.438 725.007,-213.189 752.423,-203.049"/>
<polygon fill="midnightblue" stroke="midnightblue" points="753.809,-206.268 761.974,-199.516 751.381,-199.703 753.809,-206.268"/>
</g>
<!-- Node27 -->
<g id="node27" class="node"><title>Node27</title>
<polygon fill="none" stroke="#bfbfbf" points="66.5,-6.5 66.5,-25.5 125.5,-25.5 125.5,-6.5 66.5,-6.5"/>
<text text-anchor="middle" x="96" y="-13.5" font-family="Helvetica,sans-Serif" font-size="10.00">stdexcept</text>
</g>
<!-- Node5&#45;&gt;Node27 -->
<g id="edge36" class="edge"><title>Node5&#45;&gt;Node27</title>
<path fill="none" stroke="midnightblue" d="M581.049,-236.86C532.671,-229.085 468.44,-216.169 448,-200 418.382,-176.57 438.516,-148.759 410,-124 312.683,-39.5042 256.286,-75.5878 135,-32 132.463,-31.0884 129.842,-30.1254 127.213,-29.1452"/>
<polygon fill="midnightblue" stroke="midnightblue" points="128.392,-25.8494 117.801,-25.5807 125.913,-32.3956 128.392,-25.8494"/>
</g>
<!-- Node31 -->
<g id="node31" class="node"><title>Node31</title>
<polygon fill="none" stroke="#bfbfbf" points="563.5,-180.5 563.5,-199.5 714.5,-199.5 714.5,-180.5 563.5,-180.5"/>
<text text-anchor="middle" x="639" y="-187.5" font-family="Helvetica,sans-Serif" font-size="10.00">Monitoring/MonitoringFactory.h</text>
</g>
<!-- Node5&#45;&gt;Node31 -->
<g id="edge35" class="edge"><title>Node5&#45;&gt;Node31</title>
<path fill="none" stroke="midnightblue" d="M639,-236.083C639,-229.006 639,-218.861 639,-209.986"/>
<polygon fill="midnightblue" stroke="midnightblue" points="642.5,-209.751 639,-199.751 635.5,-209.751 642.5,-209.751"/>
</g>
<!-- Node9 -->
<g id="node9" class="node"><title>Node9</title>
<g id="a_node9"><a xlink:href="../../dc/d03/MemoryResources_8h.html" target="_top" xlink:title="MemoryResources/MemoryResources.h">
<polygon fill="none" stroke="black" points="766.5,-68.5 766.5,-87.5 959.5,-87.5 959.5,-68.5 766.5,-68.5"/>
<text text-anchor="middle" x="863" y="-75.5" font-family="Helvetica,sans-Serif" font-size="10.00">MemoryResources/MemoryResources.h</text>
</a>
</g>
</g>
<!-- Node8&#45;&gt;Node9 -->
<g id="edge8" class="edge"><title>Node8&#45;&gt;Node9</title>
<path fill="none" stroke="midnightblue" d="M794.948,-180.407C804.473,-171.837 818.856,-157.969 829,-144 839.733,-129.219 849.113,-110.595 855.286,-97.0758"/>
<polygon fill="midnightblue" stroke="midnightblue" points="858.509,-98.4417 859.351,-87.8804 852.106,-95.6114 858.509,-98.4417"/>
</g>
<!-- Node17 -->
<g id="node17" class="node"><title>Node17</title>
<polygon fill="none" stroke="#bfbfbf" points="1656,-6.5 1656,-25.5 1696,-25.5 1696,-6.5 1656,-6.5"/>
<text text-anchor="middle" x="1676" y="-13.5" font-family="Helvetica,sans-Serif" font-size="10.00">utility</text>
</g>
<!-- Node8&#45;&gt;Node17 -->
<g id="edge33" class="edge"><title>Node8&#45;&gt;Node17</title>
<path fill="none" stroke="midnightblue" d="M812.034,-180.403C854.787,-167.025 940.779,-140.998 1015,-124 1154.46,-92.0607 1190.42,-88.602 1332,-68 1471.01,-47.7724 1511.35,-72.0195 1646,-32 1647.97,-31.4152 1649.96,-30.7071 1651.94,-29.9206"/>
<polygon fill="midnightblue" stroke="midnightblue" points="1653.84,-32.8987 1661.47,-25.5446 1650.92,-26.5375 1653.84,-32.8987"/>
</g>
<!-- Node8&#45;&gt;Node22 -->
<g id="edge21" class="edge"><title>Node8&#45;&gt;Node22</title>
<path fill="none" stroke="midnightblue" d="M758.475,-180.366C732.603,-171.766 692.255,-157.877 658,-144 617.089,-127.426 570.782,-105.644 542.489,-91.9816"/>
<polygon fill="midnightblue" stroke="midnightblue" points="543.796,-88.7255 533.271,-87.5094 540.741,-95.0234 543.796,-88.7255"/>
</g>
<!-- Node29 -->
<g id="node29" class="node"><title>Node29</title>
<g id="a_node29"><a xlink:href="../../d4/d00/Headers_2include_2Headers_2Stack_8h.html" target="_top" xlink:title="Headers/Stack.h">
<polygon fill="none" stroke="black" points="667,-124.5 667,-143.5 757,-143.5 757,-124.5 667,-124.5"/>
<text text-anchor="middle" x="712" y="-131.5" font-family="Helvetica,sans-Serif" font-size="10.00">Headers/Stack.h</text>
</a>
</g>
</g>
<!-- Node8&#45;&gt;Node29 -->
<g id="edge30" class="edge"><title>Node8&#45;&gt;Node29</title>
<path fill="none" stroke="midnightblue" d="M773.271,-180.324C762.163,-172.107 745.258,-159.602 732.017,-149.807"/>
<polygon fill="midnightblue" stroke="midnightblue" points="734.063,-146.967 723.942,-143.834 729.9,-152.595 734.063,-146.967"/>
</g>
<!-- Node30 -->
<g id="node30" class="node"><title>Node30</title>
<polygon fill="none" stroke="#bfbfbf" points="775.5,-124.5 775.5,-143.5 820.5,-143.5 820.5,-124.5 775.5,-124.5"/>
<text text-anchor="middle" x="798" y="-131.5" font-family="Helvetica,sans-Serif" font-size="10.00">gsl/gsl</text>
</g>
<!-- Node8&#45;&gt;Node30 -->
<g id="edge34" class="edge"><title>Node8&#45;&gt;Node30</title>
<path fill="none" stroke="midnightblue" d="M787.147,-180.083C788.869,-172.927 791.347,-162.635 793.5,-153.691"/>
<polygon fill="midnightblue" stroke="midnightblue" points="796.955,-154.293 795.893,-143.751 790.15,-152.654 796.955,-154.293"/>
</g>
<!-- Node10 -->
<g id="node10" class="node"><title>Node10</title>
<polygon fill="none" stroke="#bfbfbf" points="1078,-1 1078,-31 1178,-31 1178,-1 1078,-1"/>
<text text-anchor="start" x="1086" y="-19" font-family="Helvetica,sans-Serif" font-size="10.00">boost/container/flat</text>
<text text-anchor="middle" x="1128" y="-8" font-family="Helvetica,sans-Serif" font-size="10.00">_map.hpp</text>
</g>
<!-- Node9&#45;&gt;Node10 -->
<g id="edge9" class="edge"><title>Node9&#45;&gt;Node10</title>
<path fill="none" stroke="midnightblue" d="M903.531,-68.4641C944.942,-59.6582 1011.06,-45.363 1068,-32 1068.1,-31.9762 1068.2,-31.9524 1068.3,-31.9286"/>
<polygon fill="midnightblue" stroke="midnightblue" points="1069.02,-35.3558 1077.94,-29.6309 1067.4,-28.5469 1069.02,-35.3558"/>
</g>
<!-- Node11 -->
<g id="node11" class="node"><title>Node11</title>
<polygon fill="none" stroke="#bfbfbf" points="1196,-1 1196,-31 1312,-31 1312,-1 1196,-1"/>
<text text-anchor="start" x="1204" y="-19" font-family="Helvetica,sans-Serif" font-size="10.00">boost/container/pmr</text>
<text text-anchor="middle" x="1254" y="-8" font-family="Helvetica,sans-Serif" font-size="10.00">/memory_resource.hpp</text>
</g>
<!-- Node9&#45;&gt;Node11 -->
<g id="edge10" class="edge"><title>Node9&#45;&gt;Node11</title>
<path fill="none" stroke="midnightblue" d="M936.944,-68.487C1000.48,-60.7696 1094.73,-48.3659 1185.99,-32.0957"/>
<polygon fill="midnightblue" stroke="midnightblue" points="1186.73,-35.5187 1195.95,-30.3019 1185.49,-28.6295 1186.73,-35.5187"/>
</g>
<!-- Node12 -->
<g id="node12" class="node"><title>Node12</title>
<polygon fill="none" stroke="#bfbfbf" points="1330,-1 1330,-31 1486,-31 1486,-1 1330,-1"/>
<text text-anchor="start" x="1338" y="-19" font-family="Helvetica,sans-Serif" font-size="10.00">boost/container/pmr</text>
<text text-anchor="middle" x="1408" y="-8" font-family="Helvetica,sans-Serif" font-size="10.00">/monotonic_buffer_resource.hpp</text>
</g>
<!-- Node9&#45;&gt;Node12 -->
<g id="edge11" class="edge"><title>Node9&#45;&gt;Node12</title>
<path fill="none" stroke="midnightblue" d="M957.851,-68.4571C1066.07,-58.5753 1237.56,-42.4743 1319.79,-31.939"/>
<polygon fill="midnightblue" stroke="midnightblue" points="1320.37,-35.3917 1329.83,-30.6187 1319.46,-28.4513 1320.37,-35.3917"/>
</g>
<!-- Node13 -->
<g id="node13" class="node"><title>Node13</title>
<polygon fill="none" stroke="#bfbfbf" points="1504.5,-1 1504.5,-31 1637.5,-31 1637.5,-1 1504.5,-1"/>
<text text-anchor="start" x="1512.5" y="-19" font-family="Helvetica,sans-Serif" font-size="10.00">boost/container/pmr</text>
<text text-anchor="middle" x="1571" y="-8" font-family="Helvetica,sans-Serif" font-size="10.00">/polymorphic_allocator.hpp</text>
</g>
<!-- Node9&#45;&gt;Node13 -->
<g id="edge12" class="edge"><title>Node9&#45;&gt;Node13</title>
<path fill="none" stroke="midnightblue" d="M959.774,-69.2269C965.263,-68.8064 970.701,-68.3948 976,-68 1203.32,-51.0642 1264.08,-62.1226 1494.32,-31.9713"/>
<polygon fill="midnightblue" stroke="midnightblue" points="1494.9,-35.4262 1504.35,-30.6463 1493.98,-28.4865 1494.9,-35.4262"/>
</g>
<!-- Node14 -->
<g id="node14" class="node"><title>Node14</title>
<polygon fill="none" stroke="#bfbfbf" points="648,-6.5 648,-25.5 694,-25.5 694,-6.5 648,-6.5"/>
<text text-anchor="middle" x="671" y="-13.5" font-family="Helvetica,sans-Serif" font-size="10.00">cstring</text>
</g>
<!-- Node9&#45;&gt;Node14 -->
<g id="edge13" class="edge"><title>Node9&#45;&gt;Node14</title>
<path fill="none" stroke="midnightblue" d="M826.234,-68.4857C793.446,-60.4639 744.377,-47.3976 703,-32 701.146,-31.3099 699.25,-30.5556 697.354,-29.7643"/>
<polygon fill="midnightblue" stroke="midnightblue" points="698.609,-26.4918 688.05,-25.6243 695.764,-32.8873 698.609,-26.4918"/>
</g>
<!-- Node15 -->
<g id="node15" class="node"><title>Node15</title>
<polygon fill="none" stroke="#bfbfbf" points="588.5,-6.5 588.5,-25.5 629.5,-25.5 629.5,-6.5 588.5,-6.5"/>
<text text-anchor="middle" x="609" y="-13.5" font-family="Helvetica,sans-Serif" font-size="10.00">string</text>
</g>
<!-- Node9&#45;&gt;Node15 -->
<g id="edge14" class="edge"><title>Node9&#45;&gt;Node15</title>
<path fill="none" stroke="midnightblue" d="M797.095,-68.4686C751.816,-61.4739 690.768,-49.787 639,-32 637.141,-31.3614 635.251,-30.6305 633.371,-29.8426"/>
<polygon fill="midnightblue" stroke="midnightblue" points="634.775,-26.6358 624.231,-25.5936 631.824,-32.9833 634.775,-26.6358"/>
</g>
<!-- Node16 -->
<g id="node16" class="node"><title>Node16</title>
<polygon fill="none" stroke="#bfbfbf" points="214,-6.5 214,-25.5 276,-25.5 276,-6.5 214,-6.5"/>
<text text-anchor="middle" x="245" y="-13.5" font-family="Helvetica,sans-Serif" font-size="10.00">type_traits</text>
</g>
<!-- Node9&#45;&gt;Node16 -->
<g id="edge15" class="edge"><title>Node9&#45;&gt;Node16</title>
<path fill="none" stroke="midnightblue" d="M766.427,-72.7679C626.393,-66.0705 373.99,-51.735 285,-32 281.49,-31.2217 277.876,-30.2004 274.322,-29.0561"/>
<polygon fill="midnightblue" stroke="midnightblue" points="275.199,-25.6534 264.605,-25.6047 272.856,-32.2497 275.199,-25.6534"/>
</g>
<!-- Node9&#45;&gt;Node17 -->
<g id="edge16" class="edge"><title>Node9&#45;&gt;Node17</title>
<path fill="none" stroke="midnightblue" d="M959.767,-69.1279C965.258,-68.7326 970.698,-68.3535 976,-68 1124.77,-58.0802 1501.86,-70.1391 1646,-32 1648.2,-31.4191 1650.42,-30.6671 1652.61,-29.8095"/>
<polygon fill="midnightblue" stroke="midnightblue" points="1654.2,-32.9315 1661.83,-25.5782 1651.28,-26.5699 1654.2,-32.9315"/>
</g>
<!-- Node18 -->
<g id="node18" class="node"><title>Node18</title>
<polygon fill="none" stroke="#bfbfbf" points="1714,-6.5 1714,-25.5 1758,-25.5 1758,-6.5 1714,-6.5"/>
<text text-anchor="middle" x="1736" y="-13.5" font-family="Helvetica,sans-Serif" font-size="10.00">vector</text>
</g>
<!-- Node9&#45;&gt;Node18 -->
<g id="edge17" class="edge"><title>Node9&#45;&gt;Node18</title>
<path fill="none" stroke="midnightblue" d="M959.728,-76.6181C1150.05,-75.0811 1566.69,-67.6149 1705,-32 1707.34,-31.3962 1709.72,-30.608 1712.07,-29.7089"/>
<polygon fill="midnightblue" stroke="midnightblue" points="1713.62,-32.8495 1721.32,-25.5766 1710.76,-26.4576 1713.62,-32.8495"/>
</g>
<!-- Node19 -->
<g id="node19" class="node"><title>Node19</title>
<polygon fill="none" stroke="#bfbfbf" points="712.5,-6.5 712.5,-25.5 795.5,-25.5 795.5,-6.5 712.5,-6.5"/>
<text text-anchor="middle" x="754" y="-13.5" font-family="Helvetica,sans-Serif" font-size="10.00">unordered_map</text>
</g>
<!-- Node9&#45;&gt;Node19 -->
<g id="edge18" class="edge"><title>Node9&#45;&gt;Node19</title>
<path fill="none" stroke="midnightblue" d="M847.383,-68.4035C829.414,-58.5123 799.679,-42.1442 778.594,-30.5378"/>
<polygon fill="midnightblue" stroke="midnightblue" points="780.036,-27.3367 769.588,-25.5806 776.661,-33.4691 780.036,-27.3367"/>
</g>
<!-- Node20 -->
<g id="node20" class="node"><title>Node20</title>
<polygon fill="none" stroke="#bfbfbf" points="813.5,-6.5 813.5,-25.5 910.5,-25.5 910.5,-6.5 813.5,-6.5"/>
<text text-anchor="middle" x="862" y="-13.5" font-family="Helvetica,sans-Serif" font-size="10.00">FairMQMessage.h</text>
</g>
<!-- Node9&#45;&gt;Node20 -->
<g id="edge19" class="edge"><title>Node9&#45;&gt;Node20</title>
<path fill="none" stroke="midnightblue" d="M862.857,-68.4035C862.716,-59.9381 862.495,-46.7283 862.314,-35.8199"/>
<polygon fill="midnightblue" stroke="midnightblue" points="865.809,-35.5208 862.143,-25.5806 858.81,-35.6376 865.809,-35.5208"/>
</g>
<!-- Node21 -->
<g id="node21" class="node"><title>Node21</title>
<polygon fill="none" stroke="#bfbfbf" points="928.5,-6.5 928.5,-25.5 1059.5,-25.5 1059.5,-6.5 928.5,-6.5"/>
<text text-anchor="middle" x="994" y="-13.5" font-family="Helvetica,sans-Serif" font-size="10.00">FairMQTransportFactory.h</text>
</g>
<!-- Node9&#45;&gt;Node21 -->
<g id="edge20" class="edge"><title>Node9&#45;&gt;Node21</title>
<path fill="none" stroke="midnightblue" d="M881.769,-68.4035C903.851,-58.2896 940.719,-41.4036 966.139,-29.761"/>
<polygon fill="midnightblue" stroke="midnightblue" points="967.631,-32.9269 975.266,-25.5806 964.716,-26.5627 967.631,-32.9269"/>
</g>
<!-- Node22&#45;&gt;Node14 -->
<g id="edge25" class="edge"><title>Node22&#45;&gt;Node14</title>
<path fill="none" stroke="midnightblue" d="M540.974,-68.3918C565.779,-59.7008 604.8,-45.6468 638,-32 639.641,-31.3256 641.32,-30.6178 643.01,-29.8922"/>
<polygon fill="midnightblue" stroke="midnightblue" points="644.873,-32.8953 652.603,-25.6498 642.042,-26.4933 644.873,-32.8953"/>
</g>
<!-- Node22&#45;&gt;Node15 -->
<g id="edge28" class="edge"><title>Node22&#45;&gt;Node15</title>
<path fill="none" stroke="midnightblue" d="M529.325,-68.4035C544.38,-58.6905 569.116,-42.7319 587.037,-31.1697"/>
<polygon fill="midnightblue" stroke="midnightblue" points="589.195,-33.9429 595.7,-25.5806 585.4,-28.0609 589.195,-33.9429"/>
</g>
<!-- Node23 -->
<g id="node23" class="node"><title>Node23</title>
<polygon fill="none" stroke="#bfbfbf" points="524,-6.5 524,-25.5 570,-25.5 570,-6.5 524,-6.5"/>
<text text-anchor="middle" x="547" y="-13.5" font-family="Helvetica,sans-Serif" font-size="10.00">cstdint</text>
</g>
<!-- Node22&#45;&gt;Node23 -->
<g id="edge22" class="edge"><title>Node22&#45;&gt;Node23</title>
<path fill="none" stroke="midnightblue" d="M520.442,-68.4035C524.953,-59.6707 532.074,-45.8893 537.807,-34.7936"/>
<polygon fill="midnightblue" stroke="midnightblue" points="541.086,-36.0714 542.567,-25.5806 534.867,-32.8583 541.086,-36.0714"/>
</g>
<!-- Node24 -->
<g id="node24" class="node"><title>Node24</title>
<polygon fill="none" stroke="#bfbfbf" points="144,-6.5 144,-25.5 196,-25.5 196,-6.5 144,-6.5"/>
<text text-anchor="middle" x="170" y="-13.5" font-family="Helvetica,sans-Serif" font-size="10.00">memory</text>
</g>
<!-- Node22&#45;&gt;Node24 -->
<g id="edge23" class="edge"><title>Node22&#45;&gt;Node24</title>
<path fill="none" stroke="midnightblue" d="M457.334,-69.3522C373.989,-58.3587 228.731,-38.6775 205,-32 202.347,-31.2535 199.63,-30.3524 196.94,-29.3668"/>
<polygon fill="midnightblue" stroke="midnightblue" points="198.063,-26.0458 187.48,-25.5523 195.446,-32.538 198.063,-26.0458"/>
</g>
<!-- Node25 -->
<g id="node25" class="node"><title>Node25</title>
<polygon fill="none" stroke="#bfbfbf" points="-0.5,-6.5 -0.5,-25.5 48.5,-25.5 48.5,-6.5 -0.5,-6.5"/>
<text text-anchor="middle" x="24" y="-13.5" font-family="Helvetica,sans-Serif" font-size="10.00">cassert</text>
</g>
<!-- Node22&#45;&gt;Node25 -->
<g id="edge24" class="edge"><title>Node22&#45;&gt;Node25</title>
<path fill="none" stroke="midnightblue" d="M457.303,-77.3515C368.94,-76.5236 197.167,-69.6143 57,-32 54.5003,-31.3292 51.9522,-30.4868 49.4356,-29.5453"/>
<polygon fill="midnightblue" stroke="midnightblue" points="50.629,-26.2499 40.0556,-25.576 47.901,-32.6965 50.629,-26.2499"/>
</g>
<!-- Node26 -->
<g id="node26" class="node"><title>Node26</title>
<polygon fill="none" stroke="#bfbfbf" points="450,-6.5 450,-25.5 506,-25.5 506,-6.5 450,-6.5"/>
<text text-anchor="middle" x="478" y="-13.5" font-family="Helvetica,sans-Serif" font-size="10.00">algorithm</text>
</g>
<!-- Node22&#45;&gt;Node26 -->
<g id="edge26" class="edge"><title>Node22&#45;&gt;Node26</title>
<path fill="none" stroke="midnightblue" d="M510.556,-68.4035C504.912,-59.4925 495.939,-45.3247 488.841,-34.1177"/>
<polygon fill="midnightblue" stroke="midnightblue" points="491.742,-32.1561 483.434,-25.5806 485.828,-35.9015 491.742,-32.1561"/>
</g>
<!-- Node22&#45;&gt;Node27 -->
<g id="edge27" class="edge"><title>Node22&#45;&gt;Node27</title>
<path fill="none" stroke="midnightblue" d="M457.433,-69.7464C452.551,-69.1518 447.691,-68.5633 443,-68 306.162,-51.568 268.813,-64.9965 135,-32 131.76,-31.2011 128.425,-30.2049 125.134,-29.1083"/>
<polygon fill="midnightblue" stroke="midnightblue" points="126.126,-25.7445 115.532,-25.6133 123.732,-32.3224 126.126,-25.7445"/>
</g>
<!-- Node28 -->
<g id="node28" class="node"><title>Node28</title>
<g id="a_node28"><a xlink:href="../../d7/df8/Types_8h.html" target="_top" xlink:title="MemoryResources/Types.h">
<polygon fill="none" stroke="black" points="294.5,-6.5 294.5,-25.5 431.5,-25.5 431.5,-6.5 294.5,-6.5"/>
<text text-anchor="middle" x="363" y="-13.5" font-family="Helvetica,sans-Serif" font-size="10.00">MemoryResources/Types.h</text>
</a>
</g>
</g>
<!-- Node22&#45;&gt;Node28 -->
<g id="edge29" class="edge"><title>Node22&#45;&gt;Node28</title>
<path fill="none" stroke="midnightblue" d="M494.079,-68.4035C467.948,-58.1559 424.088,-40.9561 394.37,-29.3021"/>
<polygon fill="midnightblue" stroke="midnightblue" points="395.468,-25.9731 384.881,-25.5806 392.912,-32.4899 395.468,-25.9731"/>
</g>
<!-- Node29&#45;&gt;Node9 -->
<g id="edge31" class="edge"><title>Node29&#45;&gt;Node9</title>
<path fill="none" stroke="midnightblue" d="M735.926,-124.444C761.219,-115.399 801.302,-101.064 829.68,-90.9158"/>
<polygon fill="midnightblue" stroke="midnightblue" points="830.948,-94.1794 839.186,-87.5164 828.591,-87.5882 830.948,-94.1794"/>
</g>
<!-- Node29&#45;&gt;Node22 -->
<g id="edge32" class="edge"><title>Node29&#45;&gt;Node22</title>
<path fill="none" stroke="midnightblue" d="M680.943,-124.444C647.397,-115.201 593.803,-100.436 556.859,-90.2572"/>
<polygon fill="midnightblue" stroke="midnightblue" points="557.482,-86.7984 546.911,-87.5164 555.623,-93.5469 557.482,-86.7984"/>
</g>
<!-- Node34 -->
<g id="node34" class="node"><title>Node34</title>
<polygon fill="none" stroke="#bfbfbf" points="1155.5,-236.5 1155.5,-255.5 1200.5,-255.5 1200.5,-236.5 1155.5,-236.5"/>
<text text-anchor="middle" x="1178" y="-243.5" font-family="Helvetica,sans-Serif" font-size="10.00">iosfwd</text>
</g>
<!-- Node33&#45;&gt;Node34 -->
<g id="edge39" class="edge"><title>Node33&#45;&gt;Node34</title>
<path fill="none" stroke="midnightblue" d="M1136.88,-298.403C1144.15,-289.314 1155.8,-274.756 1164.84,-263.449"/>
<polygon fill="midnightblue" stroke="midnightblue" points="1167.62,-265.576 1171.14,-255.581 1162.16,-261.203 1167.62,-265.576"/>
</g>
<!-- Node35 -->
<g id="node35" class="node"><title>Node35</title>
<polygon fill="none" stroke="#bfbfbf" points="1078.5,-236.5 1078.5,-255.5 1137.5,-255.5 1137.5,-236.5 1078.5,-236.5"/>
<text text-anchor="middle" x="1108" y="-243.5" font-family="Helvetica,sans-Serif" font-size="10.00">functional</text>
</g>
<!-- Node33&#45;&gt;Node35 -->
<g id="edge40" class="edge"><title>Node33&#45;&gt;Node35</title>
<path fill="none" stroke="midnightblue" d="M1126.85,-298.403C1123.68,-289.76 1118.7,-276.17 1114.65,-265.134"/>
<polygon fill="midnightblue" stroke="midnightblue" points="1117.87,-263.764 1111.15,-255.581 1111.3,-266.174 1117.87,-263.764"/>
</g>
<!-- Node37 -->
<g id="node37" class="node"><title>Node37</title>
<polygon fill="none" stroke="#bfbfbf" points="321,-124.5 321,-143.5 401,-143.5 401,-124.5 321,-124.5"/>
<text text-anchor="middle" x="361" y="-131.5" font-family="Helvetica,sans-Serif" font-size="10.00">FairMQParts.h</text>
</g>
<!-- Node36&#45;&gt;Node37 -->
<g id="edge42" class="edge"><title>Node36&#45;&gt;Node37</title>
<path fill="none" stroke="midnightblue" d="M286.299,-180.324C300.183,-171.9 321.492,-158.971 337.804,-149.074"/>
<polygon fill="midnightblue" stroke="midnightblue" points="340.002,-151.834 346.736,-143.655 336.371,-145.85 340.002,-151.834"/>
</g>
<!-- Node38 -->
<g id="node38" class="node"><title>Node38</title>
<polygon fill="none" stroke="#bfbfbf" points="110.5,-124.5 110.5,-143.5 169.5,-143.5 169.5,-124.5 110.5,-124.5"/>
<text text-anchor="middle" x="140" y="-131.5" font-family="Helvetica,sans-Serif" font-size="10.00">TObject.h</text>
</g>
<!-- Node36&#45;&gt;Node38 -->
<g id="edge43" class="edge"><title>Node36&#45;&gt;Node38</title>
<path fill="none" stroke="midnightblue" d="M251.084,-180.444C229.264,-171.517 194.85,-157.439 170.108,-147.317"/>
<polygon fill="midnightblue" stroke="midnightblue" points="171.399,-144.063 160.818,-143.516 168.748,-150.542 171.399,-144.063"/>
</g>
<!-- Node39 -->
<g id="node39" class="node"><title>Node39</title>
<g id="a_node39"><a xlink:href="../../d6/d90/Headers_2include_2Headers_2TimeStamp_8h.html" target="_top" xlink:title="Headers/TimeStamp.h">
<polygon fill="none" stroke="black" points="187.5,-124.5 187.5,-143.5 302.5,-143.5 302.5,-124.5 187.5,-124.5"/>
<text text-anchor="middle" x="245" y="-131.5" font-family="Helvetica,sans-Serif" font-size="10.00">Headers/TimeStamp.h</text>
</a>
</g>
</g>
<!-- Node36&#45;&gt;Node39 -->
<g id="edge44" class="edge"><title>Node36&#45;&gt;Node39</title>
<path fill="none" stroke="midnightblue" d="M267.541,-180.083C263.846,-172.691 258.477,-161.953 253.906,-152.811"/>
<polygon fill="midnightblue" stroke="midnightblue" points="256.978,-151.13 249.376,-143.751 250.717,-154.261 256.978,-151.13"/>
</g>
<!-- Node39&#45;&gt;Node3 -->
<g id="edge46" class="edge"><title>Node39&#45;&gt;Node3</title>
<path fill="none" stroke="midnightblue" d="M225.035,-124.444C204.391,-115.596 171.937,-101.687 148.368,-91.5865"/>
<polygon fill="midnightblue" stroke="midnightblue" points="149.442,-88.2387 138.872,-87.5164 146.684,-94.6727 149.442,-88.2387"/>
</g>
<!-- Node39&#45;&gt;Node16 -->
<g id="edge48" class="edge"><title>Node39&#45;&gt;Node16</title>
<path fill="none" stroke="midnightblue" d="M245,-124.281C245,-105.547 245,-61.098 245,-35.6822"/>
<polygon fill="midnightblue" stroke="midnightblue" points="248.5,-35.5047 245,-25.5048 241.5,-35.5048 248.5,-35.5047"/>
</g>
<!-- Node39&#45;&gt;Node22 -->
<g id="edge45" class="edge"><title>Node39&#45;&gt;Node22</title>
<path fill="none" stroke="midnightblue" d="M287.941,-124.444C335.513,-114.964 412.244,-99.6747 463.389,-89.4835"/>
<polygon fill="midnightblue" stroke="midnightblue" points="464.137,-92.9032 473.26,-87.5164 462.769,-86.0382 464.137,-92.9032"/>
</g>
<!-- Node39&#45;&gt;Node25 -->
<g id="edge47" class="edge"><title>Node39&#45;&gt;Node25</title>
<path fill="none" stroke="midnightblue" d="M234.263,-124.29C217.35,-110.876 183.116,-84.9395 151,-68 111.43,-47.1287 98.2715,-49.2641 57,-32 55.3635,-31.3154 53.6873,-30.5998 52,-29.8682"/>
<polygon fill="midnightblue" stroke="midnightblue" points="52.9733,-26.4708 42.4136,-25.6089 50.1311,-32.8678 52.9733,-26.4708"/>
</g>
<!-- Node40&#45;&gt;Node18 -->
<g id="edge50" class="edge"><title>Node40&#45;&gt;Node18</title>
<path fill="none" stroke="midnightblue" d="M1487.71,-71.6894C1547.37,-65.9522 1633.01,-54.4305 1705,-32 1707.13,-31.3353 1709.3,-30.5449 1711.46,-29.6798"/>
<polygon fill="midnightblue" stroke="midnightblue" points="1712.92,-32.8614 1720.6,-25.5661 1710.04,-26.4779 1712.92,-32.8614"/>
</g>
</g>
</svg>
        <g id="navigator" transform="translate(0 0)" fill="#404254">
                <rect fill="#f2f5e9" fill-opacity="0.5" stroke="#606060" stroke-width=".5" x="0" y="0" width="60" height="60"/>
                <use id="zoomplus" xlink:href="#zoomPlus" x="17" y="9" onmousedown="handleZoom(evt,'in')"/>
                <use id="zoomminus" xlink:href="#zoomMin" x="42" y="9" onmousedown="handleZoom(evt,'out')"/>
                <use id="reset" xlink:href="#resetDef" x="30" y="36" onmousedown="handleReset()"/>
                <g id="arrowUp" xlink:href="#dirArrow" transform="translate(30 24)" onmousedown="handlePan(0,-1)">
                  <use xlink:href="#rim" fill="#404040">
                        <set attributeName="fill" to="#808080" begin="arrowUp.mouseover" end="arrowUp.mouseout"/>
                  </use>
                  <path fill="none" stroke="white" stroke-width="1.5" d="M0,-3.0v7 M-2.5,-0.5L0,-3.0L2.5,-0.5"/>
                </g>
                <g id="arrowRight" xlink:href="#dirArrow" transform="rotate(90) translate(36 -43)" onmousedown="handlePan(1,0)">
                  <use xlink:href="#rim" fill="#404040">
                        <set attributeName="fill" to="#808080" begin="arrowRight.mouseover" end="arrowRight.mouseout"/>
                  </use>
                  <path fill="none" stroke="white" stroke-width="1.5" d="M0,-3.0v7 M-2.5,-0.5L0,-3.0L2.5,-0.5"/>
                </g>
                <g id="arrowDown" xlink:href="#dirArrow" transform="rotate(180) translate(-30 -48)" onmousedown="handlePan(0,1)">
                  <use xlink:href="#rim" fill="#404040">
                        <set attributeName="fill" to="#808080" begin="arrowDown.mouseover" end="arrowDown.mouseout"/>
                  </use>
                  <path fill="none" stroke="white" stroke-width="1.5" d="M0,-3.0v7 M-2.5,-0.5L0,-3.0L2.5,-0.5"/>
                </g>
                <g id="arrowLeft" xlink:href="#dirArrow" transform="rotate(270) translate(-36 17)" onmousedown="handlePan(-1,0)">
                  <use xlink:href="#rim" fill="#404040">
                        <set attributeName="fill" to="#808080" begin="arrowLeft.mouseover" end="arrowLeft.mouseout"/>
                  </use>
                  <path fill="none" stroke="white" stroke-width="1.5" d="M0,-3.0v7 M-2.5,-0.5L0,-3.0L2.5,-0.5"/>
                </g>
        </g>
        <svg viewBox="0 0 15 15" width="100%" height="30px" preserveAspectRatio="xMaxYMin meet">
         <g id="arrow_out" transform="scale(0.3 0.3)">
          <a xlink:href="TimeframeWriterDevice_8cxx__incl_org.svg" target="_base">
           <rect id="button" ry="5" rx="5" y="6" x="6" height="38" width="38"
                fill="#f2f5e9" fill-opacity="0.5" stroke="#606060" stroke-width="1.0"/>
           <path id="arrow"
             d="M 11.500037,31.436501 C 11.940474,20.09759 22.043105,11.32322 32.158766,21.979434 L 37.068811,17.246167 C 37.068811,17.246167 37.088388,32 37.088388,32 L 22.160133,31.978069 C 22.160133,31.978069 26.997745,27.140456 26.997745,27.140456 C 18.528582,18.264221 13.291696,25.230495 11.500037,31.436501 z"
             style="fill:#404040;"/>
          </a>
         </g>
        </svg>
</svg>
