<?xml version="1.0" encoding="UTF-8" standalone="no"?>
<!DOCTYPE svg PUBLIC "-//W3C//DTD SVG 1.1//EN"
 "http://www.w3.org/Graphics/SVG/1.1/DTD/svg11.dtd">
<!-- Generated by graphviz version 2.36.0 (20140111.2315)
 -->
<!-- Title: o2::ITSMFT::AlpideCoder::HitsRecord Pages: 1 -->
<svg width="141pt" height="228pt"
 viewBox="0.00 0.00 141.00 228.00" xmlns="http://www.w3.org/2000/svg" xmlns:xlink="http://www.w3.org/1999/xlink">
<g id="graph0" class="graph" transform="scale(1 1) rotate(0) translate(4 224)">
<title>o2::ITSMFT::AlpideCoder::HitsRecord</title>
<!-- Node1 -->
<g id="node1" class="node"><title>Node1</title>
<polygon fill="#bfbfbf" stroke="black" points="0,-1 0,-91 128,-91 128,-1 0,-1"/>
<text text-anchor="start" x="8" y="-79" font-family="Helvetica,sans-Serif" font-size="10.00">o2::ITSMFT::AlpideCoder</text>
<text text-anchor="middle" x="64" y="-68" font-family="Helvetica,sans-Serif" font-size="10.00">::HitsRecord</text>
<polyline fill="none" stroke="black" points="0,-61 128,-61 "/>
<text text-anchor="middle" x="64" y="-49" font-family="Helvetica,sans-Serif" font-size="10.00"> </text>
<polyline fill="none" stroke="black" points="0,-42 128,-42 "/>
<text text-anchor="start" x="8" y="-30" font-family="Helvetica,sans-Serif" font-size="10.00">+ HitsRecord()</text>
<text text-anchor="start" x="8" y="-19" font-family="Helvetica,sans-Serif" font-size="10.00">+ ~HitsRecord()</text>
<text text-anchor="start" x="8" y="-8" font-family="Helvetica,sans-Serif" font-size="10.00">+ HitsRecord()</text>
</g>
<!-- Node2 -->
<g id="node2" class="node"><title>Node2</title>
<polygon fill="none" stroke="#bfbfbf" points="0,-162.5 0,-219.5 56,-219.5 56,-162.5 0,-162.5"/>
<text text-anchor="middle" x="28" y="-207.5" font-family="Helvetica,sans-Serif" font-size="10.00">UShort_t</text>
<polyline fill="none" stroke="#bfbfbf" points="0,-200.5 56,-200.5 "/>
<text text-anchor="middle" x="28" y="-188.5" font-family="Helvetica,sans-Serif" font-size="10.00"> </text>
<polyline fill="none" stroke="#bfbfbf" points="0,-181.5 56,-181.5 "/>
<text text-anchor="middle" x="28" y="-169.5" font-family="Helvetica,sans-Serif" font-size="10.00"> </text>
</g>
<!-- Node2&#45;&gt;Node1 -->
<g id="edge1" class="edge"><title>Node2&#45;&gt;Node1</title>
<path fill="none" stroke="#404040" d="M28.097,-162.198C28.729,-146.625 30.4951,-126.979 35,-110 35.6513,-107.545 36.3922,-105.067 37.2034,-102.586"/>
<polygon fill="none" stroke="#404040" points="37.3083,-102.3 35.6194,-95.2898 41.4411,-91.0345 43.13,-98.045 37.3083,-102.3"/>
<text text-anchor="middle" x="57" y="-124.5" font-family="Helvetica,sans-Serif" font-size="10.00"> +address</text>
</g>
<!-- Node3 -->
<g id="node3" class="node"><title>Node3</title>
<polygon fill="none" stroke="#bfbfbf" points="74.5,-162.5 74.5,-219.5 127.5,-219.5 127.5,-162.5 74.5,-162.5"/>
<text text-anchor="middle" x="101" y="-207.5" font-family="Helvetica,sans-Serif" font-size="10.00">UChar_t</text>
<polyline fill="none" stroke="#bfbfbf" points="74.5,-200.5 127.5,-200.5 "/>
<text text-anchor="middle" x="101" y="-188.5" font-family="Helvetica,sans-Serif" font-size="10.00"> </text>
<polyline fill="none" stroke="#bfbfbf" points="74.5,-181.5 127.5,-181.5 "/>
<text text-anchor="middle" x="101" y="-169.5" font-family="Helvetica,sans-Serif" font-size="10.00"> </text>
</g>
<!-- Node3&#45;&gt;Node1 -->
<g id="edge2" class="edge"><title>Node3&#45;&gt;Node1</title>
<path fill="none" stroke="#404040" d="M93.866,-162.428C89.495,-145.535 83.7419,-123.3 78.4528,-102.858"/>
<polygon fill="none" stroke="#404040" points="78.4123,-102.701 73.0368,-97.8945 75.4063,-91.0837 80.7817,-95.8905 78.4123,-102.701"/>
<text text-anchor="middle" x="111.5" y="-135.5" font-family="Helvetica,sans-Serif" font-size="10.00"> +hitmap</text>
<text text-anchor="middle" x="111.5" y="-124.5" font-family="Helvetica,sans-Serif" font-size="10.00">+dcolumn</text>
<text text-anchor="middle" x="111.5" y="-113.5" font-family="Helvetica,sans-Serif" font-size="10.00">+region</text>
</g>
</g>
</svg>
