<?xml version="1.0" encoding="UTF-8" standalone="no"?>
<!DOCTYPE svg PUBLIC "-//W3C//DTD SVG 1.1//EN"
 "http://www.w3.org/Graphics/SVG/1.1/DTD/svg11.dtd">
<!-- Generated by graphviz version 2.36.0 (20140111.2315)
 -->
<!-- Title: o2::framework::UnifiedDataSpecType Pages: 1 -->
<svg width="703pt" height="750pt"
 viewBox="0.00 0.00 703.08 750.00" xmlns="http://www.w3.org/2000/svg" xmlns:xlink="http://www.w3.org/1999/xlink">
<g id="graph0" class="graph" transform="scale(1 1) rotate(0) translate(4 746)">
<title>o2::framework::UnifiedDataSpecType</title>
<!-- Node1 -->
<g id="node1" class="node"><title>Node1</title>
<polygon fill="#bfbfbf" stroke="black" points="340.585,-1 340.585,-69 477.585,-69 477.585,-1 340.585,-1"/>
<text text-anchor="start" x="348.585" y="-57" font-family="Helvetica,sans-Serif" font-size="10.00">o2::framework::UnifiedData</text>
<text text-anchor="middle" x="409.085" y="-46" font-family="Helvetica,sans-Serif" font-size="10.00">SpecType</text>
<polyline fill="none" stroke="black" points="340.585,-39 477.585,-39 "/>
<text text-anchor="middle" x="409.085" y="-27" font-family="Helvetica,sans-Serif" font-size="10.00"> </text>
<polyline fill="none" stroke="black" points="340.585,-20 477.585,-20 "/>
<text text-anchor="middle" x="409.085" y="-8" font-family="Helvetica,sans-Serif" font-size="10.00"> </text>
</g>
<!-- Node2 -->
<g id="node2" class="node"><title>Node2</title>
<polygon fill="none" stroke="#bfbfbf" points="192.585,-201.5 192.585,-258.5 243.585,-258.5 243.585,-201.5 192.585,-201.5"/>
<text text-anchor="middle" x="218.085" y="-246.5" font-family="Helvetica,sans-Serif" font-size="10.00">uint64_t</text>
<polyline fill="none" stroke="#bfbfbf" points="192.585,-239.5 243.585,-239.5 "/>
<text text-anchor="middle" x="218.085" y="-227.5" font-family="Helvetica,sans-Serif" font-size="10.00"> </text>
<polyline fill="none" stroke="#bfbfbf" points="192.585,-220.5 243.585,-220.5 "/>
<text text-anchor="middle" x="218.085" y="-208.5" font-family="Helvetica,sans-Serif" font-size="10.00"> </text>
</g>
<!-- Node2&#45;&gt;Node1 -->
<g id="edge1" class="edge"><title>Node2&#45;&gt;Node1</title>
<path fill="none" stroke="#404040" d="M220.597,-201.071C224.081,-176.733 232.377,-141.717 252.085,-118 272.298,-93.6759 301.61,-75.6612 329.447,-62.8122"/>
<polygon fill="none" stroke="#404040" points="329.452,-62.8103 333.326,-56.7285 340.431,-57.9658 336.556,-64.0476 329.452,-62.8103"/>
<text text-anchor="middle" x="308.085" y="-91.5" font-family="Helvetica,sans-Serif" font-size="10.00"> +subSpec</text>
</g>
<!-- Node3 -->
<g id="node3" class="node"><title>Node3</title>
<g id="a_node3"><a xlink:href="../../d9/db3/structo2_1_1header_1_1Descriptor.html" target="_top" xlink:title="{o2::header::Descriptor\l\&lt; gSizeDataOriginString,\l printDataOrigin \&gt;\n||+ Descriptor()\l+ Descriptor()\l+ Descriptor()\l+ Descriptor()\l+ operator=()\l+ operator ItgType()\l+ runtimeInit()\l+ operator==()\l+ operator==()\l+ operator\&lt;()\l+ operator!=()\l+ operator!=()\l+ as()\l+ print()\l}">
<polygon fill="none" stroke="black" points="443.585,-119 443.585,-341 568.585,-341 568.585,-119 443.585,-119"/>
<text text-anchor="start" x="451.585" y="-329" font-family="Helvetica,sans-Serif" font-size="10.00">o2::header::Descriptor</text>
<text text-anchor="start" x="451.585" y="-318" font-family="Helvetica,sans-Serif" font-size="10.00">&lt; gSizeDataOriginString,</text>
<text text-anchor="middle" x="506.085" y="-307" font-family="Helvetica,sans-Serif" font-size="10.00"> printDataOrigin &gt;</text>
<polyline fill="none" stroke="black" points="443.585,-300 568.585,-300 "/>
<text text-anchor="middle" x="506.085" y="-288" font-family="Helvetica,sans-Serif" font-size="10.00"> </text>
<polyline fill="none" stroke="black" points="443.585,-281 568.585,-281 "/>
<text text-anchor="start" x="451.585" y="-269" font-family="Helvetica,sans-Serif" font-size="10.00">+ Descriptor()</text>
<text text-anchor="start" x="451.585" y="-258" font-family="Helvetica,sans-Serif" font-size="10.00">+ Descriptor()</text>
<text text-anchor="start" x="451.585" y="-247" font-family="Helvetica,sans-Serif" font-size="10.00">+ Descriptor()</text>
<text text-anchor="start" x="451.585" y="-236" font-family="Helvetica,sans-Serif" font-size="10.00">+ Descriptor()</text>
<text text-anchor="start" x="451.585" y="-225" font-family="Helvetica,sans-Serif" font-size="10.00">+ operator=()</text>
<text text-anchor="start" x="451.585" y="-214" font-family="Helvetica,sans-Serif" font-size="10.00">+ operator ItgType()</text>
<text text-anchor="start" x="451.585" y="-203" font-family="Helvetica,sans-Serif" font-size="10.00">+ runtimeInit()</text>
<text text-anchor="start" x="451.585" y="-192" font-family="Helvetica,sans-Serif" font-size="10.00">+ operator==()</text>
<text text-anchor="start" x="451.585" y="-181" font-family="Helvetica,sans-Serif" font-size="10.00">+ operator==()</text>
<text text-anchor="start" x="451.585" y="-170" font-family="Helvetica,sans-Serif" font-size="10.00">+ operator&lt;()</text>
<text text-anchor="start" x="451.585" y="-159" font-family="Helvetica,sans-Serif" font-size="10.00">+ operator!=()</text>
<text text-anchor="start" x="451.585" y="-148" font-family="Helvetica,sans-Serif" font-size="10.00">+ operator!=()</text>
<text text-anchor="start" x="451.585" y="-137" font-family="Helvetica,sans-Serif" font-size="10.00">+ as()</text>
<text text-anchor="start" x="451.585" y="-126" font-family="Helvetica,sans-Serif" font-size="10.00">+ print()</text>
</a>
</g>
</g>
<!-- Node3&#45;&gt;Node1 -->
<g id="edge2" class="edge"><title>Node3&#45;&gt;Node1</title>
<path fill="none" stroke="#404040" d="M454.807,-118.889C449.607,-108.394 444.313,-97.9585 439.085,-88 437.665,-85.295 436.177,-82.5277 434.654,-79.7479"/>
<polygon fill="none" stroke="#404040" points="434.541,-79.5448 428.123,-76.2578 428.688,-69.0689 435.107,-72.3559 434.541,-79.5448"/>
<text text-anchor="middle" x="461.585" y="-91.5" font-family="Helvetica,sans-Serif" font-size="10.00"> +origin</text>
</g>
<!-- Node4 -->
<g id="node4" class="node"><title>Node4</title>
<polygon fill="none" stroke="#bfbfbf" points="346.085,-683.5 346.085,-740.5 384.085,-740.5 384.085,-683.5 346.085,-683.5"/>
<text text-anchor="middle" x="365.085" y="-728.5" font-family="Helvetica,sans-Serif" font-size="10.00">Type</text>
<polyline fill="none" stroke="#bfbfbf" points="346.085,-721.5 384.085,-721.5 "/>
<text text-anchor="middle" x="365.085" y="-709.5" font-family="Helvetica,sans-Serif" font-size="10.00"> </text>
<polyline fill="none" stroke="#bfbfbf" points="346.085,-702.5 384.085,-702.5 "/>
<text text-anchor="middle" x="365.085" y="-690.5" font-family="Helvetica,sans-Serif" font-size="10.00"> </text>
</g>
<!-- Node4&#45;&gt;Node3 -->
<g id="edge3" class="edge"><title>Node4&#45;&gt;Node3</title>
<path fill="none" stroke="#404040" d="M384.347,-706.489C420.802,-696.716 498.359,-669.662 522.085,-612 555.682,-530.349 549.931,-430.369 536.712,-353.317"/>
<polygon fill="none" stroke="#404040" points="536.649,-352.966 531.653,-347.766 534.531,-341.154 539.527,-346.354 536.649,-352.966"/>
<text text-anchor="middle" x="558.085" y="-503.5" font-family="Helvetica,sans-Serif" font-size="10.00"> +itg</text>
</g>
<!-- Node8 -->
<g id="node8" class="node"><title>Node8</title>
<g id="a_node8"><a xlink:href="../../d9/db3/structo2_1_1header_1_1Descriptor.html" target="_top" xlink:title="{o2::header::Descriptor\l\&lt; N, PrinterPolicy \&gt;\n||+ Descriptor()\l+ Descriptor()\l+ Descriptor()\l+ operator=()\l+ operator ItgType()\l+ Descriptor()\l+ runtimeInit()\l+ operator==()\l+ operator\&lt;()\l+ operator!=()\l+ operator==()\l+ operator!=()\l+ as()\l+ print()\l}">
<polygon fill="none" stroke="black" points="204.585,-400.5 204.585,-611.5 317.585,-611.5 317.585,-400.5 204.585,-400.5"/>
<text text-anchor="start" x="212.585" y="-599.5" font-family="Helvetica,sans-Serif" font-size="10.00">o2::header::Descriptor</text>
<text text-anchor="middle" x="261.085" y="-588.5" font-family="Helvetica,sans-Serif" font-size="10.00">&lt; N, PrinterPolicy &gt;</text>
<polyline fill="none" stroke="black" points="204.585,-581.5 317.585,-581.5 "/>
<text text-anchor="middle" x="261.085" y="-569.5" font-family="Helvetica,sans-Serif" font-size="10.00"> </text>
<polyline fill="none" stroke="black" points="204.585,-562.5 317.585,-562.5 "/>
<text text-anchor="start" x="212.585" y="-550.5" font-family="Helvetica,sans-Serif" font-size="10.00">+ Descriptor()</text>
<text text-anchor="start" x="212.585" y="-539.5" font-family="Helvetica,sans-Serif" font-size="10.00">+ Descriptor()</text>
<text text-anchor="start" x="212.585" y="-528.5" font-family="Helvetica,sans-Serif" font-size="10.00">+ Descriptor()</text>
<text text-anchor="start" x="212.585" y="-517.5" font-family="Helvetica,sans-Serif" font-size="10.00">+ operator=()</text>
<text text-anchor="start" x="212.585" y="-506.5" font-family="Helvetica,sans-Serif" font-size="10.00">+ operator ItgType()</text>
<text text-anchor="start" x="212.585" y="-495.5" font-family="Helvetica,sans-Serif" font-size="10.00">+ Descriptor()</text>
<text text-anchor="start" x="212.585" y="-484.5" font-family="Helvetica,sans-Serif" font-size="10.00">+ runtimeInit()</text>
<text text-anchor="start" x="212.585" y="-473.5" font-family="Helvetica,sans-Serif" font-size="10.00">+ operator==()</text>
<text text-anchor="start" x="212.585" y="-462.5" font-family="Helvetica,sans-Serif" font-size="10.00">+ operator&lt;()</text>
<text text-anchor="start" x="212.585" y="-451.5" font-family="Helvetica,sans-Serif" font-size="10.00">+ operator!=()</text>
<text text-anchor="start" x="212.585" y="-440.5" font-family="Helvetica,sans-Serif" font-size="10.00">+ operator==()</text>
<text text-anchor="start" x="212.585" y="-429.5" font-family="Helvetica,sans-Serif" font-size="10.00">+ operator!=()</text>
<text text-anchor="start" x="212.585" y="-418.5" font-family="Helvetica,sans-Serif" font-size="10.00">+ as()</text>
<text text-anchor="start" x="212.585" y="-407.5" font-family="Helvetica,sans-Serif" font-size="10.00">+ print()</text>
</a>
</g>
</g>
<!-- Node4&#45;&gt;Node8 -->
<g id="edge8" class="edge"><title>Node4&#45;&gt;Node8</title>
<path fill="none" stroke="#404040" d="M345.739,-686.276C340.666,-679.27 335.41,-671.504 331.085,-664 323.485,-650.813 316.135,-636.649 309.237,-622.421"/>
<polygon fill="none" stroke="#404040" points="309.215,-622.377 303.023,-618.681 304.053,-611.544 310.245,-615.239 309.215,-622.377"/>
<text text-anchor="middle" x="341.085" y="-644.5" font-family="Helvetica,sans-Serif" font-size="10.00"> +itg</text>
</g>
<!-- Node9 -->
<g id="node9" class="node"><title>Node9</title>
<g id="a_node9"><a xlink:href="../../d9/db3/structo2_1_1header_1_1Descriptor.html" target="_top" xlink:title="{o2::header::Descriptor\l\&lt; gSizeDataDescriptionString,\l printDataDescription \&gt;\n||+ Descriptor()\l+ Descriptor()\l+ Descriptor()\l+ Descriptor()\l+ operator=()\l+ operator ItgType()\l+ runtimeInit()\l+ operator==()\l+ operator==()\l+ operator\&lt;()\l+ operator!=()\l+ operator!=()\l+ as()\l+ print()\l}">
<polygon fill="none" stroke="black" points="261.585,-119 261.585,-341 410.585,-341 410.585,-119 261.585,-119"/>
<text text-anchor="start" x="269.585" y="-329" font-family="Helvetica,sans-Serif" font-size="10.00">o2::header::Descriptor</text>
<text text-anchor="start" x="269.585" y="-318" font-family="Helvetica,sans-Serif" font-size="10.00">&lt; gSizeDataDescriptionString,</text>
<text text-anchor="middle" x="336.085" y="-307" font-family="Helvetica,sans-Serif" font-size="10.00"> printDataDescription &gt;</text>
<polyline fill="none" stroke="black" points="261.585,-300 410.585,-300 "/>
<text text-anchor="middle" x="336.085" y="-288" font-family="Helvetica,sans-Serif" font-size="10.00"> </text>
<polyline fill="none" stroke="black" points="261.585,-281 410.585,-281 "/>
<text text-anchor="start" x="269.585" y="-269" font-family="Helvetica,sans-Serif" font-size="10.00">+ Descriptor()</text>
<text text-anchor="start" x="269.585" y="-258" font-family="Helvetica,sans-Serif" font-size="10.00">+ Descriptor()</text>
<text text-anchor="start" x="269.585" y="-247" font-family="Helvetica,sans-Serif" font-size="10.00">+ Descriptor()</text>
<text text-anchor="start" x="269.585" y="-236" font-family="Helvetica,sans-Serif" font-size="10.00">+ Descriptor()</text>
<text text-anchor="start" x="269.585" y="-225" font-family="Helvetica,sans-Serif" font-size="10.00">+ operator=()</text>
<text text-anchor="start" x="269.585" y="-214" font-family="Helvetica,sans-Serif" font-size="10.00">+ operator ItgType()</text>
<text text-anchor="start" x="269.585" y="-203" font-family="Helvetica,sans-Serif" font-size="10.00">+ runtimeInit()</text>
<text text-anchor="start" x="269.585" y="-192" font-family="Helvetica,sans-Serif" font-size="10.00">+ operator==()</text>
<text text-anchor="start" x="269.585" y="-181" font-family="Helvetica,sans-Serif" font-size="10.00">+ operator==()</text>
<text text-anchor="start" x="269.585" y="-170" font-family="Helvetica,sans-Serif" font-size="10.00">+ operator&lt;()</text>
<text text-anchor="start" x="269.585" y="-159" font-family="Helvetica,sans-Serif" font-size="10.00">+ operator!=()</text>
<text text-anchor="start" x="269.585" y="-148" font-family="Helvetica,sans-Serif" font-size="10.00">+ operator!=()</text>
<text text-anchor="start" x="269.585" y="-137" font-family="Helvetica,sans-Serif" font-size="10.00">+ as()</text>
<text text-anchor="start" x="269.585" y="-126" font-family="Helvetica,sans-Serif" font-size="10.00">+ print()</text>
</a>
</g>
</g>
<!-- Node4&#45;&gt;Node9 -->
<g id="edge13" class="edge"><title>Node4&#45;&gt;Node9</title>
<path fill="none" stroke="#404040" d="M363.421,-683.469C359.636,-620.811 350.184,-464.374 343.457,-353.029"/>
<polygon fill="none" stroke="#404040" points="343.457,-353.022 339.102,-347.274 342.733,-341.044 347.088,-346.792 343.457,-353.022"/>
<text text-anchor="middle" x="369.085" y="-503.5" font-family="Helvetica,sans-Serif" font-size="10.00"> +itg</text>
</g>
<!-- Node5 -->
<g id="node5" class="node"><title>Node5</title>
<polygon fill="none" stroke="#bfbfbf" points="243.585,-683.5 243.585,-740.5 278.585,-740.5 278.585,-683.5 243.585,-683.5"/>
<text text-anchor="middle" x="261.085" y="-728.5" font-family="Helvetica,sans-Serif" font-size="10.00">char</text>
<polyline fill="none" stroke="#bfbfbf" points="243.585,-721.5 278.585,-721.5 "/>
<text text-anchor="middle" x="261.085" y="-709.5" font-family="Helvetica,sans-Serif" font-size="10.00"> </text>
<polyline fill="none" stroke="#bfbfbf" points="243.585,-702.5 278.585,-702.5 "/>
<text text-anchor="middle" x="261.085" y="-690.5" font-family="Helvetica,sans-Serif" font-size="10.00"> </text>
</g>
<!-- Node5&#45;&gt;Node3 -->
<g id="edge4" class="edge"><title>Node5&#45;&gt;Node3</title>
<path fill="none" stroke="#404040" d="M275.227,-683.351C286.249,-662.813 301.28,-637.17 311.085,-630 337.711,-610.531 360.398,-635.944 383.085,-612 449.09,-542.335 356.994,-468.62 424.085,-400 450.473,-373.01 483.391,-411.383 507.085,-382 514.02,-373.4 518.644,-363.54 521.531,-353.067"/>
<polygon fill="none" stroke="#404040" points="521.597,-352.757 518.927,-346.059 524.083,-341.018 526.753,-347.716 521.597,-352.757"/>
<text text-anchor="middle" x="434.585" y="-503.5" font-family="Helvetica,sans-Serif" font-size="10.00"> +str</text>
</g>
<!-- Node5&#45;&gt;Node8 -->
<g id="edge9" class="edge"><title>Node5&#45;&gt;Node8</title>
<path fill="none" stroke="#404040" d="M261.085,-683.488C261.085,-667.539 261.085,-646.248 261.085,-623.984"/>
<polygon fill="none" stroke="#404040" points="261.085,-623.911 257.085,-617.911 261.085,-611.911 265.085,-617.911 261.085,-623.911"/>
<text text-anchor="middle" x="271.585" y="-644.5" font-family="Helvetica,sans-Serif" font-size="10.00"> +str</text>
</g>
<!-- Node5&#45;&gt;Node9 -->
<g id="edge14" class="edge"><title>Node5&#45;&gt;Node9</title>
<path fill="none" stroke="#404040" d="M252.076,-683.398C244.727,-665.343 232.508,-642.805 214.085,-630 175.206,-602.977 139.605,-648.198 109.085,-612 48.3485,-539.966 61.7921,-481.494 109.085,-400 127.07,-369.008 145.815,-373.306 179.085,-360 207.082,-348.803 221.268,-358.122 251.225,-341.51"/>
<polygon fill="none" stroke="#404040" points="251.329,-341.445 254.336,-334.891 261.543,-335.146 258.536,-341.7 251.329,-341.445"/>
<text text-anchor="middle" x="119.585" y="-503.5" font-family="Helvetica,sans-Serif" font-size="10.00"> +str</text>
</g>
<!-- Node6 -->
<g id="node6" class="node"><title>Node6</title>
<polygon fill="none" stroke="#bfbfbf" points="568.585,-683.5 568.585,-740.5 597.585,-740.5 597.585,-683.5 568.585,-683.5"/>
<text text-anchor="middle" x="583.085" y="-728.5" font-family="Helvetica,sans-Serif" font-size="10.00">int</text>
<polyline fill="none" stroke="#bfbfbf" points="568.585,-721.5 597.585,-721.5 "/>
<text text-anchor="middle" x="583.085" y="-709.5" font-family="Helvetica,sans-Serif" font-size="10.00"> </text>
<polyline fill="none" stroke="#bfbfbf" points="568.585,-702.5 597.585,-702.5 "/>
<text text-anchor="middle" x="583.085" y="-690.5" font-family="Helvetica,sans-Serif" font-size="10.00"> </text>
</g>
<!-- Node6&#45;&gt;Node1 -->
<g id="edge18" class="edge"><title>Node6&#45;&gt;Node1</title>
<path fill="none" stroke="#404040" d="M597.6,-696.493C614.486,-678.486 641.412,-645.979 652.085,-612 680.32,-522.108 664.296,-493.428 652.085,-400 635.276,-271.404 659.47,-218.161 577.085,-118 554.591,-90.6529 520.756,-71.7218 489.333,-59.0003"/>
<polygon fill="none" stroke="#404040" points="489.088,-58.9058 482.051,-60.4804 477.891,-54.5903 484.928,-53.0157 489.088,-58.9058"/>
<text text-anchor="middle" x="672.085" y="-368.5" font-family="Helvetica,sans-Serif" font-size="10.00"> +isOutput</text>
</g>
<!-- Node6&#45;&gt;Node3 -->
<g id="edge5" class="edge"><title>Node6&#45;&gt;Node3</title>
<path fill="none" stroke="#404040" d="M587.377,-683.066C595.574,-622.187 609.202,-473.876 568.085,-360 567.176,-357.484 566.235,-354.951 565.264,-352.408"/>
<polygon fill="none" stroke="#404040" points="565.248,-352.367 559.323,-348.257 560.838,-341.207 566.763,-345.317 565.248,-352.367"/>
<text text-anchor="middle" x="622.585" y="-514.5" font-family="Helvetica,sans-Serif" font-size="10.00"> +arraySize</text>
<text text-anchor="middle" x="622.585" y="-503.5" font-family="Helvetica,sans-Serif" font-size="10.00">+size</text>
<text text-anchor="middle" x="622.585" y="-492.5" font-family="Helvetica,sans-Serif" font-size="10.00">+bitcount</text>
</g>
<!-- Node6&#45;&gt;Node8 -->
<g id="edge10" class="edge"><title>Node6&#45;&gt;Node8</title>
<path fill="none" stroke="#404040" d="M568.533,-708.408C527.425,-700.477 408.46,-673.253 332.085,-612 330.218,-610.503 328.382,-608.943 326.576,-607.329"/>
<polygon fill="none" stroke="#404040" points="326.436,-607.193 319.343,-605.893 317.815,-598.845 324.908,-600.146 326.436,-607.193"/>
<text text-anchor="middle" x="446.585" y="-655.5" font-family="Helvetica,sans-Serif" font-size="10.00"> +arraySize</text>
<text text-anchor="middle" x="446.585" y="-644.5" font-family="Helvetica,sans-Serif" font-size="10.00">+size</text>
<text text-anchor="middle" x="446.585" y="-633.5" font-family="Helvetica,sans-Serif" font-size="10.00">+bitcount</text>
</g>
<!-- Node6&#45;&gt;Node9 -->
<g id="edge15" class="edge"><title>Node6&#45;&gt;Node9</title>
<path fill="none" stroke="#404040" d="M568.544,-703.975C542.412,-690.428 488.265,-657.92 467.085,-612 447.353,-569.22 451.047,-444.297 467.085,-400 470.63,-390.208 478.54,-391.792 482.085,-382 485.413,-372.806 487.654,-368.037 482.085,-360 469.107,-341.273 452.849,-354.924 434.085,-342 429.308,-338.71 424.612,-335.138 420.02,-331.358"/>
<polygon fill="none" stroke="#404040" points="419.821,-331.186 412.666,-330.285 410.746,-323.334 417.901,-324.235 419.821,-331.186"/>
<text text-anchor="middle" x="492.585" y="-514.5" font-family="Helvetica,sans-Serif" font-size="10.00"> +arraySize</text>
<text text-anchor="middle" x="492.585" y="-503.5" font-family="Helvetica,sans-Serif" font-size="10.00">+size</text>
<text text-anchor="middle" x="492.585" y="-492.5" font-family="Helvetica,sans-Serif" font-size="10.00">+bitcount</text>
</g>
<!-- Node7 -->
<g id="node7" class="node"><title>Node7</title>
<polygon fill="none" stroke="#bfbfbf" points="134.585,-683 134.585,-741 163.585,-741 163.585,-683 134.585,-683"/>
<polyline fill="none" stroke="#bfbfbf" points="134.585,-721 163.585,-721 "/>
<text text-anchor="middle" x="149.085" y="-709" font-family="Helvetica,sans-Serif" font-size="10.00"> </text>
<polyline fill="none" stroke="#bfbfbf" points="134.585,-702 163.585,-702 "/>
<text text-anchor="middle" x="149.085" y="-690" font-family="Helvetica,sans-Serif" font-size="10.00"> </text>
</g>
<!-- Node7&#45;&gt;Node3 -->
<g id="edge6" class="edge"><title>Node7&#45;&gt;Node3</title>
<path fill="none" stroke="#404040" d="M146.509,-682.908C140.226,-606.525 128.137,-398.207 179.085,-360 221.873,-327.913 371.906,-367.191 419.085,-342 424.279,-339.227 429.264,-335.995 434.035,-332.416"/>
<polygon fill="none" stroke="#404040" points="434.254,-332.236 436.349,-325.335 443.524,-324.615 441.429,-331.515 434.254,-332.236"/>
<text text-anchor="middle" x="171.585" y="-503.5" font-family="Helvetica,sans-Serif" font-size="10.00"> +@14</text>
</g>
<!-- Node7&#45;&gt;Node8 -->
<g id="edge11" class="edge"><title>Node7&#45;&gt;Node8</title>
<path fill="none" stroke="#404040" d="M163.727,-684.331C172.972,-667.49 185.616,-644.461 198.731,-620.573"/>
<polygon fill="none" stroke="#404040" points="198.8,-620.448 198.181,-613.264 204.575,-609.929 205.193,-617.114 198.8,-620.448"/>
<text text-anchor="middle" x="207.585" y="-644.5" font-family="Helvetica,sans-Serif" font-size="10.00"> +@14</text>
</g>
<!-- Node7&#45;&gt;Node9 -->
<g id="edge16" class="edge"><title>Node7&#45;&gt;Node9</title>
<path fill="none" stroke="#404040" d="M134.256,-703.724C108.191,-689.993 54.9515,-657.497 34.0848,-612 -5.1948,-526.356 -16.5797,-479.441 34.0848,-400 56.7517,-364.458 79.6361,-371.87 120.085,-360 173.459,-344.337 197.94,-368.601 250.919,-341.687"/>
<polygon fill="none" stroke="#404040" points="251.03,-341.626 254.346,-335.222 261.532,-335.821 258.216,-342.224 251.03,-341.626"/>
<text text-anchor="middle" x="49.5848" y="-503.5" font-family="Helvetica,sans-Serif" font-size="10.00"> +@14</text>
</g>
<!-- Node8&#45;&gt;Node3 -->
<g id="edge7" class="edge"><title>Node8&#45;&gt;Node3</title>
<path fill="none" stroke="orange" d="M324.368,-408.089C326.898,-405.3 329.472,-402.595 332.085,-400 348.569,-383.624 402.036,-357.788 419.085,-342 427.439,-334.264 435.628,-325.676 443.437,-316.801"/>
<polygon fill="orange" stroke="orange" points="321.711,-405.811 317.779,-415.649 326.988,-410.41 321.711,-405.811"/>
<text text-anchor="start" x="392.085" y="-374" font-family="Helvetica,sans-Serif" font-size="10.00"> &lt; gSizeDataOriginString,</text>
<text text-anchor="middle" x="448.085" y="-363" font-family="Helvetica,sans-Serif" font-size="10.00"> printDataOrigin &gt;</text>
</g>
<!-- Node8&#45;&gt;Node9 -->
<g id="edge17" class="edge"><title>Node8&#45;&gt;Node9</title>
<path fill="none" stroke="orange" d="M199.265,-416.98C185.957,-392.929 178.003,-370.582 186.085,-360 204.54,-335.837 226.899,-359.032 252.085,-342 255.288,-339.834 258.419,-337.505 261.474,-335.042"/>
<polygon fill="orange" stroke="orange" points="196.373,-418.973 204.39,-425.9 202.442,-415.485 196.373,-418.973"/>
<text text-anchor="start" x="186.085" y="-374" font-family="Helvetica,sans-Serif" font-size="10.00"> &lt; gSizeDataDescriptionString,</text>
<text text-anchor="middle" x="254.085" y="-363" font-family="Helvetica,sans-Serif" font-size="10.00"> printDataDescription &gt;</text>
</g>
<!-- Node9&#45;&gt;Node1 -->
<g id="edge12" class="edge"><title>Node9&#45;&gt;Node1</title>
<path fill="none" stroke="#404040" d="M370.145,-118.67C373.95,-108.219 377.952,-97.8542 382.085,-88 383.18,-85.3881 384.357,-82.7292 385.584,-80.0645"/>
<polygon fill="none" stroke="#404040" points="385.62,-79.99 384.624,-72.8479 390.834,-69.1822 391.83,-76.3243 385.62,-79.99"/>
<text text-anchor="middle" x="410.585" y="-91.5" font-family="Helvetica,sans-Serif" font-size="10.00"> +description</text>
</g>
</g>
</svg>
