<?xml version="1.0" encoding="UTF-8" standalone="no"?>
<!DOCTYPE svg PUBLIC "-//W3C//DTD SVG 1.1//EN"
 "http://www.w3.org/Graphics/SVG/1.1/DTD/svg11.dtd">
<!-- Generated by graphviz version 2.36.0 (20140111.2315)
 -->
<!-- Title: /home/travis/build/AliceO2Group/AliceO2/Detectors/ITSMFT/common/reconstruction Pages: 1 -->
<svg width="239pt" height="303pt"
 viewBox="0.00 0.00 239.00 303.00" xmlns="http://www.w3.org/2000/svg" xmlns:xlink="http://www.w3.org/1999/xlink">
<g id="graph0" class="graph" transform="scale(1 1) rotate(0) translate(4 299)">
<title>/home/travis/build/AliceO2Group/AliceO2/Detectors/ITSMFT/common/reconstruction</title>
<g id="clust1" class="cluster"><title>clusterdir_85bf31a2e8d306e7598ffcb73f8df6bf</title>
<g id="a_clust1"><a xlink:href="dir_85bf31a2e8d306e7598ffcb73f8df6bf.html" target="_top" xlink:title="common">
<polygon fill="#ddddee" stroke="black" points="41,-128 41,-287 223,-287 223,-128 41,-128"/>
<text text-anchor="middle" x="132" y="-275" font-family="Helvetica,sans-Serif" font-size="10.00">common</text>
</a>
</g>
</g>
<g id="clust2" class="cluster"><title>clusterdir_2174d8cbbd82d5c404dd04814f845a3a</title>
<g id="a_clust2"><a xlink:href="dir_2174d8cbbd82d5c404dd04814f845a3a.html" target="_top">
<polygon fill="#eeeeff" stroke="black" points="49,-136 49,-260 215,-260 215,-136 49,-136"/>
</a>
</g>
</g>
<!-- dir_2174d8cbbd82d5c404dd04814f845a3a -->
<g id="node1" class="node"><title>dir_2174d8cbbd82d5c404dd04814f845a3a</title>
<text text-anchor="middle" x="168" y="-231.5" font-family="Helvetica,sans-Serif" font-size="10.00">reconstruction</text>
</g>
<!-- dir_5ae603abd45d2d750401429407a7bf9c -->
<g id="node2" class="node"><title>dir_5ae603abd45d2d750401429407a7bf9c</title>
<g id="a_node2"><a xlink:href="dir_5ae603abd45d2d750401429407a7bf9c.html" target="_top" xlink:title="include">
<polygon fill="white" stroke="red" points="111,-180 57,-180 57,-144 111,-144 111,-180"/>
<text text-anchor="middle" x="84" y="-159.5" font-family="Helvetica,sans-Serif" font-size="10.00">include</text>
</a>
</g>
</g>
<!-- dir_4ab6b4cc6a7edbff49100e9123df213f -->
<g id="node4" class="node"><title>dir_4ab6b4cc6a7edbff49100e9123df213f</title>
<g id="a_node4"><a xlink:href="dir_4ab6b4cc6a7edbff49100e9123df213f.html" target="_top" xlink:title="Common">
<polygon fill="none" stroke="red" points="55.5,-108 0.5,-108 0.5,-72 55.5,-72 55.5,-108"/>
<text text-anchor="middle" x="28" y="-87.5" font-family="Helvetica,sans-Serif" font-size="10.00">Common</text>
</a>
</g>
</g>
<!-- dir_5ae603abd45d2d750401429407a7bf9c&#45;&gt;dir_4ab6b4cc6a7edbff49100e9123df213f -->
<g id="edge1" class="edge"><title>dir_5ae603abd45d2d750401429407a7bf9c&#45;&gt;dir_4ab6b4cc6a7edbff49100e9123df213f</title>
<path fill="none" stroke="black" d="M70.1573,-143.697C63.5115,-135.389 55.4216,-125.277 48.1126,-116.141"/>
<polygon fill="black" stroke="black" points="50.6635,-113.727 41.6835,-108.104 45.1974,-118.099 50.6635,-113.727"/>
<g id="a_edge1&#45;headlabel"><a xlink:href="dir_000271_000016.html" target="_top" xlink:title="1">
<text text-anchor="middle" x="55.1261" y="-112.26" font-family="Helvetica,sans-Serif" font-size="10.00">1</text>
</a>
</g>
</g>
<!-- dir_7c9998090bca7c4aa89c05dd66fe73f5 -->
<g id="node5" class="node"><title>dir_7c9998090bca7c4aa89c05dd66fe73f5</title>
<g id="a_node5"><a xlink:href="dir_7c9998090bca7c4aa89c05dd66fe73f5.html" target="_top" xlink:title="base">
<polygon fill="none" stroke="red" points="166,-108 112,-108 112,-72 166,-72 166,-108"/>
<text text-anchor="middle" x="139" y="-87.5" font-family="Helvetica,sans-Serif" font-size="10.00">base</text>
</a>
</g>
</g>
<!-- dir_5ae603abd45d2d750401429407a7bf9c&#45;&gt;dir_7c9998090bca7c4aa89c05dd66fe73f5 -->
<g id="edge2" class="edge"><title>dir_5ae603abd45d2d750401429407a7bf9c&#45;&gt;dir_7c9998090bca7c4aa89c05dd66fe73f5</title>
<path fill="none" stroke="black" d="M97.5955,-143.697C104.123,-135.389 112.068,-125.277 119.247,-116.141"/>
<polygon fill="black" stroke="black" points="122.135,-118.13 125.561,-108.104 116.631,-113.805 122.135,-118.13"/>
<g id="a_edge2&#45;headlabel"><a xlink:href="dir_000271_000220.html" target="_top" xlink:title="6">
<text text-anchor="middle" x="122.147" y="-120.211" font-family="Helvetica,sans-Serif" font-size="10.00">6</text>
</a>
</g>
</g>
<!-- dir_2171f7ec022c5423887b07c69b2f5b48 -->
<g id="node6" class="node"><title>dir_2171f7ec022c5423887b07c69b2f5b48</title>
<g id="a_node6"><a xlink:href="dir_2171f7ec022c5423887b07c69b2f5b48.html" target="_top" xlink:title="DataFormats">
<polygon fill="none" stroke="red" points="121,-36 47,-36 47,-0 121,-0 121,-36"/>
<text text-anchor="middle" x="84" y="-15.5" font-family="Helvetica,sans-Serif" font-size="10.00">DataFormats</text>
</a>
</g>
</g>
<!-- dir_5ae603abd45d2d750401429407a7bf9c&#45;&gt;dir_2171f7ec022c5423887b07c69b2f5b48 -->
<g id="edge3" class="edge"><title>dir_5ae603abd45d2d750401429407a7bf9c&#45;&gt;dir_2171f7ec022c5423887b07c69b2f5b48</title>
<path fill="none" stroke="black" d="M84,-143.871C84,-119.67 84,-75.2108 84,-46.3932"/>
<polygon fill="black" stroke="black" points="87.5001,-46.1892 84,-36.1893 80.5001,-46.1893 87.5001,-46.1892"/>
<g id="a_edge3&#45;headlabel"><a xlink:href="dir_000271_000056.html" target="_top" xlink:title="13">
<text text-anchor="middle" x="90.3393" y="-47.2839" font-family="Helvetica,sans-Serif" font-size="10.00">13</text>
</a>
</g>
</g>
<!-- dir_2382d22bdf51ce6783d3a58c2cee3de2 -->
<g id="node3" class="node"><title>dir_2382d22bdf51ce6783d3a58c2cee3de2</title>
<g id="a_node3"><a xlink:href="dir_2382d22bdf51ce6783d3a58c2cee3de2.html" target="_top" xlink:title="src">
<polygon fill="white" stroke="black" points="111,-252 57,-252 57,-216 111,-216 111,-252"/>
<text text-anchor="middle" x="84" y="-231.5" font-family="Helvetica,sans-Serif" font-size="10.00">src</text>
</a>
</g>
</g>
<!-- dir_2382d22bdf51ce6783d3a58c2cee3de2&#45;&gt;dir_5ae603abd45d2d750401429407a7bf9c -->
<g id="edge5" class="edge"><title>dir_2382d22bdf51ce6783d3a58c2cee3de2&#45;&gt;dir_5ae603abd45d2d750401429407a7bf9c</title>
<path fill="none" stroke="black" d="M84,-215.697C84,-207.983 84,-198.712 84,-190.112"/>
<polygon fill="black" stroke="black" points="87.5001,-190.104 84,-180.104 80.5001,-190.104 87.5001,-190.104"/>
<g id="a_edge5&#45;headlabel"><a xlink:href="dir_000279_000271.html" target="_top" xlink:title="10">
<text text-anchor="middle" x="90.3393" y="-191.199" font-family="Helvetica,sans-Serif" font-size="10.00">10</text>
</a>
</g>
</g>
<!-- dir_2382d22bdf51ce6783d3a58c2cee3de2&#45;&gt;dir_4ab6b4cc6a7edbff49100e9123df213f -->
<g id="edge6" class="edge"><title>dir_2382d22bdf51ce6783d3a58c2cee3de2&#45;&gt;dir_4ab6b4cc6a7edbff49100e9123df213f</title>
<path fill="none" stroke="black" d="M69.8887,-215.828C62.3799,-205.9 53.5719,-192.86 48,-180 39.4613,-160.292 34.3566,-136.487 31.4438,-118.457"/>
<polygon fill="black" stroke="black" points="34.87,-117.702 29.9375,-108.325 27.9461,-118.731 34.87,-117.702"/>
<g id="a_edge6&#45;headlabel"><a xlink:href="dir_000279_000016.html" target="_top" xlink:title="1">
<text text-anchor="middle" x="38.2069" y="-118.34" font-family="Helvetica,sans-Serif" font-size="10.00">1</text>
</a>
</g>
</g>
<!-- dir_2382d22bdf51ce6783d3a58c2cee3de2&#45;&gt;dir_7c9998090bca7c4aa89c05dd66fe73f5 -->
<g id="edge7" class="edge"><title>dir_2382d22bdf51ce6783d3a58c2cee3de2&#45;&gt;dir_7c9998090bca7c4aa89c05dd66fe73f5</title>
<path fill="none" stroke="black" d="M98.1647,-215.851C105.69,-205.93 114.497,-192.89 120,-180 128.413,-160.293 133.245,-136.488 135.928,-118.458"/>
<polygon fill="black" stroke="black" points="139.427,-118.705 137.303,-108.326 132.49,-117.764 139.427,-118.705"/>
<g id="a_edge7&#45;headlabel"><a xlink:href="dir_000279_000220.html" target="_top" xlink:title="2">
<text text-anchor="middle" x="141.757" y="-120.149" font-family="Helvetica,sans-Serif" font-size="10.00">2</text>
</a>
</g>
</g>
<!-- dir_2382d22bdf51ce6783d3a58c2cee3de2&#45;&gt;dir_2171f7ec022c5423887b07c69b2f5b48 -->
<g id="edge8" class="edge"><title>dir_2382d22bdf51ce6783d3a58c2cee3de2&#45;&gt;dir_2171f7ec022c5423887b07c69b2f5b48</title>
<path fill="none" stroke="black" d="M106.694,-215.925C118.339,-206.321 132.114,-193.556 142,-180 162.741,-151.558 167.494,-142.391 175,-108 178.412,-92.368 182.974,-85.8716 175,-72 165.237,-55.015 147.703,-42.9631 130.614,-34.6904"/>
<polygon fill="black" stroke="black" points="131.775,-31.3752 121.218,-30.4759 128.91,-37.7621 131.775,-31.3752"/>
<g id="a_edge8&#45;headlabel"><a xlink:href="dir_000279_000056.html" target="_top" xlink:title="1">
<text text-anchor="middle" x="136.217" y="-27.7557" font-family="Helvetica,sans-Serif" font-size="10.00">1</text>
</a>
</g>
</g>
<!-- dir_4ab6b4cc6a7edbff49100e9123df213f&#45;&gt;dir_2171f7ec022c5423887b07c69b2f5b48 -->
<g id="edge4" class="edge"><title>dir_4ab6b4cc6a7edbff49100e9123df213f&#45;&gt;dir_2171f7ec022c5423887b07c69b2f5b48</title>
<path fill="none" stroke="black" d="M35.927,-71.6966C41.775,-63.3046 49.7702,-53.0705 57.6192,-43.8613"/>
<polygon fill="black" stroke="black" points="60.4598,-45.9306 64.4215,-36.1043 55.1967,-41.3153 60.4598,-45.9306"/>
<g id="a_edge4&#45;headlabel"><a xlink:href="dir_000016_000056.html" target="_top" xlink:title="3">
<text text-anchor="middle" x="60.2245" y="-48.0052" font-family="Helvetica,sans-Serif" font-size="10.00">3</text>
</a>
</g>
</g>
<!-- dir_7c9998090bca7c4aa89c05dd66fe73f5&#45;&gt;dir_2171f7ec022c5423887b07c69b2f5b48 -->
<g id="edge9" class="edge"><title>dir_7c9998090bca7c4aa89c05dd66fe73f5&#45;&gt;dir_2171f7ec022c5423887b07c69b2f5b48</title>
<path fill="none" stroke="black" d="M125.404,-71.6966C118.877,-63.3893 110.932,-53.2771 103.753,-44.1407"/>
<polygon fill="black" stroke="black" points="106.369,-41.8051 97.4391,-36.1043 100.865,-46.1299 106.369,-41.8051"/>
<g id="a_edge9&#45;headlabel"><a xlink:href="dir_000220_000056.html" target="_top" xlink:title="1">
<text text-anchor="middle" x="110.823" y="-40.3775" font-family="Helvetica,sans-Serif" font-size="10.00">1</text>
</a>
</g>
</g>
<!-- dir_2171f7ec022c5423887b07c69b2f5b48&#45;&gt;dir_4ab6b4cc6a7edbff49100e9123df213f -->
<g id="edge10" class="edge"><title>dir_2171f7ec022c5423887b07c69b2f5b48&#45;&gt;dir_4ab6b4cc6a7edbff49100e9123df213f</title>
<path fill="none" stroke="black" d="M76.2116,-36.1043C70.3977,-44.467 62.4185,-54.6945 54.5673,-63.9197"/>
<polygon fill="black" stroke="black" points="51.7124,-61.8672 47.7584,-71.6966 56.9791,-66.4783 51.7124,-61.8672"/>
<g id="a_edge10&#45;headlabel"><a xlink:href="dir_000056_000016.html" target="_top" xlink:title="20">
<text text-anchor="middle" x="51.944" y="-54.7924" font-family="Helvetica,sans-Serif" font-size="10.00">20</text>
</a>
</g>
</g>
</g>
</svg>
