<?xml version="1.0" encoding="UTF-8" standalone="no"?>
<!DOCTYPE svg PUBLIC "-//W3C//DTD SVG 1.1//EN"
 "http://www.w3.org/Graphics/SVG/1.1/DTD/svg11.dtd">
<!-- Generated by graphviz version 2.36.0 (20140111.2315)
 -->
<!-- Title: /home/travis/build/AliceO2Group/AliceO2/Framework/Core Pages: 1 -->
<svg width="279pt" height="375pt"
 viewBox="0.00 0.00 278.77 375.00" xmlns="http://www.w3.org/2000/svg" xmlns:xlink="http://www.w3.org/1999/xlink">
<g id="graph0" class="graph" transform="scale(1 1) rotate(0) translate(4 371)">
<title>/home/travis/build/AliceO2Group/AliceO2/Framework/Core</title>
<g id="clust1" class="cluster"><title>clusterdir_bcbb2cf9a3d3d83e5515c82071a07177</title>
<g id="a_clust1"><a xlink:href="dir_bcbb2cf9a3d3d83e5515c82071a07177.html" target="_top" xlink:title="Framework">
<polygon fill="#ddddee" stroke="black" points="8,-128 8,-359 166,-359 166,-128 8,-128"/>
<text text-anchor="middle" x="87" y="-347" font-family="Helvetica,sans-Serif" font-size="10.00">Framework</text>
</a>
</g>
</g>
<g id="clust2" class="cluster"><title>clusterdir_9f165b2481dacfe69aa54d326bd5cd47</title>
<g id="a_clust2"><a xlink:href="dir_9f165b2481dacfe69aa54d326bd5cd47.html" target="_top">
<polygon fill="#eeeeff" stroke="black" points="16,-136 16,-332 158,-332 158,-136 16,-136"/>
</a>
</g>
</g>
<!-- dir_9f165b2481dacfe69aa54d326bd5cd47 -->
<g id="node1" class="node"><title>dir_9f165b2481dacfe69aa54d326bd5cd47</title>
<text text-anchor="middle" x="123" y="-303.5" font-family="Helvetica,sans-Serif" font-size="10.00">Core</text>
</g>
<!-- dir_985a55873ec4a56b27533251576853b6 -->
<g id="node2" class="node"><title>dir_985a55873ec4a56b27533251576853b6</title>
<g id="a_node2"><a xlink:href="dir_985a55873ec4a56b27533251576853b6.html" target="_top" xlink:title="include">
<polygon fill="white" stroke="red" points="146,-180 92,-180 92,-144 146,-144 146,-180"/>
<text text-anchor="middle" x="119" y="-159.5" font-family="Helvetica,sans-Serif" font-size="10.00">include</text>
</a>
</g>
</g>
<!-- dir_f0af9df59806ed8bcb6931e6b1774828 -->
<g id="node5" class="node"><title>dir_f0af9df59806ed8bcb6931e6b1774828</title>
<g id="a_node5"><a xlink:href="dir_f0af9df59806ed8bcb6931e6b1774828.html" target="_top" xlink:title="DebugGUI">
<polygon fill="none" stroke="red" points="77.25,-108 14.75,-108 14.75,-72 77.25,-72 77.25,-108"/>
<text text-anchor="middle" x="46" y="-87.5" font-family="Helvetica,sans-Serif" font-size="10.00">DebugGUI</text>
</a>
</g>
</g>
<!-- dir_985a55873ec4a56b27533251576853b6&#45;&gt;dir_f0af9df59806ed8bcb6931e6b1774828 -->
<g id="edge9" class="edge"><title>dir_985a55873ec4a56b27533251576853b6&#45;&gt;dir_f0af9df59806ed8bcb6931e6b1774828</title>
<path fill="none" stroke="black" d="M100.955,-143.697C91.9381,-135.05 80.8821,-124.449 71.0568,-115.027"/>
<polygon fill="black" stroke="black" points="73.4777,-112.499 63.8374,-108.104 68.6328,-117.552 73.4777,-112.499"/>
<g id="a_edge9&#45;headlabel"><a xlink:href="dir_000406_000410.html" target="_top" xlink:title="1">
<text text-anchor="middle" x="78.0373" y="-110.438" font-family="Helvetica,sans-Serif" font-size="10.00">1</text>
</a>
</g>
</g>
<!-- dir_4ab6b4cc6a7edbff49100e9123df213f -->
<g id="node6" class="node"><title>dir_4ab6b4cc6a7edbff49100e9123df213f</title>
<g id="a_node6"><a xlink:href="dir_4ab6b4cc6a7edbff49100e9123df213f.html" target="_top" xlink:title="Common">
<polygon fill="none" stroke="red" points="189.5,-108 134.5,-108 134.5,-72 189.5,-72 189.5,-108"/>
<text text-anchor="middle" x="162" y="-87.5" font-family="Helvetica,sans-Serif" font-size="10.00">Common</text>
</a>
</g>
</g>
<!-- dir_985a55873ec4a56b27533251576853b6&#45;&gt;dir_4ab6b4cc6a7edbff49100e9123df213f -->
<g id="edge10" class="edge"><title>dir_985a55873ec4a56b27533251576853b6&#45;&gt;dir_4ab6b4cc6a7edbff49100e9123df213f</title>
<path fill="none" stroke="black" d="M129.629,-143.697C134.628,-135.559 140.691,-125.689 146.212,-116.701"/>
<polygon fill="black" stroke="black" points="149.241,-118.457 151.493,-108.104 143.277,-114.793 149.241,-118.457"/>
<g id="a_edge10&#45;headlabel"><a xlink:href="dir_000406_000016.html" target="_top" xlink:title="1">
<text text-anchor="middle" x="149.779" y="-120.506" font-family="Helvetica,sans-Serif" font-size="10.00">1</text>
</a>
</g>
</g>
<!-- dir_2171f7ec022c5423887b07c69b2f5b48 -->
<g id="node8" class="node"><title>dir_2171f7ec022c5423887b07c69b2f5b48</title>
<g id="a_node8"><a xlink:href="dir_2171f7ec022c5423887b07c69b2f5b48.html" target="_top" xlink:title="DataFormats">
<polygon fill="none" stroke="red" points="227,-36 153,-36 153,-0 227,-0 227,-36"/>
<text text-anchor="middle" x="190" y="-15.5" font-family="Helvetica,sans-Serif" font-size="10.00">DataFormats</text>
</a>
</g>
</g>
<!-- dir_985a55873ec4a56b27533251576853b6&#45;&gt;dir_2171f7ec022c5423887b07c69b2f5b48 -->
<g id="edge11" class="edge"><title>dir_985a55873ec4a56b27533251576853b6&#45;&gt;dir_2171f7ec022c5423887b07c69b2f5b48</title>
<path fill="none" stroke="black" d="M116.288,-143.863C114.167,-125.111 113.268,-94.7 125,-72 131.014,-60.3645 140.827,-50.3622 151.026,-42.2819"/>
<polygon fill="black" stroke="black" points="153.265,-44.9795 159.224,-36.2193 149.103,-39.3514 153.265,-44.9795"/>
<g id="a_edge11&#45;headlabel"><a xlink:href="dir_000406_000056.html" target="_top" xlink:title="13">
<text text-anchor="middle" x="152.063" y="-46.8996" font-family="Helvetica,sans-Serif" font-size="10.00">13</text>
</a>
</g>
</g>
<!-- dir_0b60ff9a1849fb34896fe8bde9baec43 -->
<g id="node3" class="node"><title>dir_0b60ff9a1849fb34896fe8bde9baec43</title>
<g id="a_node3"><a xlink:href="dir_0b60ff9a1849fb34896fe8bde9baec43.html" target="_top" xlink:title="src">
<polygon fill="white" stroke="black" points="146,-252 92,-252 92,-216 146,-216 146,-252"/>
<text text-anchor="middle" x="119" y="-231.5" font-family="Helvetica,sans-Serif" font-size="10.00">src</text>
</a>
</g>
</g>
<!-- dir_0b60ff9a1849fb34896fe8bde9baec43&#45;&gt;dir_985a55873ec4a56b27533251576853b6 -->
<g id="edge7" class="edge"><title>dir_0b60ff9a1849fb34896fe8bde9baec43&#45;&gt;dir_985a55873ec4a56b27533251576853b6</title>
<path fill="none" stroke="black" d="M119,-215.697C119,-207.983 119,-198.712 119,-190.112"/>
<polygon fill="black" stroke="black" points="122.5,-190.104 119,-180.104 115.5,-190.104 122.5,-190.104"/>
<g id="a_edge7&#45;headlabel"><a xlink:href="dir_000408_000406.html" target="_top" xlink:title="207">
<text text-anchor="middle" x="125.339" y="-191.199" font-family="Helvetica,sans-Serif" font-size="10.00">207</text>
</a>
</g>
</g>
<!-- dir_0b60ff9a1849fb34896fe8bde9baec43&#45;&gt;dir_f0af9df59806ed8bcb6931e6b1774828 -->
<g id="edge5" class="edge"><title>dir_0b60ff9a1849fb34896fe8bde9baec43&#45;&gt;dir_f0af9df59806ed8bcb6931e6b1774828</title>
<path fill="none" stroke="black" d="M106.076,-215.895C98.7675,-205.777 89.7675,-192.527 83,-180 72.1118,-159.846 62.2882,-135.797 55.5041,-117.781"/>
<polygon fill="black" stroke="black" points="58.7145,-116.371 51.9683,-108.202 52.1476,-118.795 58.7145,-116.371"/>
<g id="a_edge5&#45;headlabel"><a xlink:href="dir_000408_000410.html" target="_top" xlink:title="5">
<text text-anchor="middle" x="62.6228" y="-116.26" font-family="Helvetica,sans-Serif" font-size="10.00">5</text>
</a>
</g>
</g>
<!-- dir_b05a5fa85f84bfc9013183c9d87f9a36 -->
<g id="node7" class="node"><title>dir_b05a5fa85f84bfc9013183c9d87f9a36</title>
<g id="a_node7"><a xlink:href="dir_b05a5fa85f84bfc9013183c9d87f9a36.html" target="_top" xlink:title="Utilities">
<polygon fill="none" stroke="red" points="228,-180 174,-180 174,-144 228,-144 228,-180"/>
<text text-anchor="middle" x="201" y="-159.5" font-family="Helvetica,sans-Serif" font-size="10.00">Utilities</text>
</a>
</g>
</g>
<!-- dir_0b60ff9a1849fb34896fe8bde9baec43&#45;&gt;dir_b05a5fa85f84bfc9013183c9d87f9a36 -->
<g id="edge6" class="edge"><title>dir_0b60ff9a1849fb34896fe8bde9baec43&#45;&gt;dir_b05a5fa85f84bfc9013183c9d87f9a36</title>
<path fill="none" stroke="black" d="M139.27,-215.697C149.498,-206.965 162.061,-196.24 173.178,-186.75"/>
<polygon fill="black" stroke="black" points="175.63,-189.259 180.963,-180.104 171.085,-183.935 175.63,-189.259"/>
<g id="a_edge6&#45;headlabel"><a xlink:href="dir_000408_000392.html" target="_top" xlink:title="1">
<text text-anchor="middle" x="174.74" y="-191.252" font-family="Helvetica,sans-Serif" font-size="10.00">1</text>
</a>
</g>
</g>
<!-- dir_0b60ff9a1849fb34896fe8bde9baec43&#45;&gt;dir_2171f7ec022c5423887b07c69b2f5b48 -->
<g id="edge8" class="edge"><title>dir_0b60ff9a1849fb34896fe8bde9baec43&#45;&gt;dir_2171f7ec022c5423887b07c69b2f5b48</title>
<path fill="none" stroke="black" d="M146.013,-229.365C174.191,-223.976 216.991,-210.921 237,-180 264.59,-137.362 232.77,-78.0906 209.685,-44.6422"/>
<polygon fill="black" stroke="black" points="212.41,-42.4345 203.754,-36.324 206.71,-46.4983 212.41,-42.4345"/>
<g id="a_edge8&#45;headlabel"><a xlink:href="dir_000408_000056.html" target="_top" xlink:title="9">
<text text-anchor="middle" x="216.808" y="-41.2131" font-family="Helvetica,sans-Serif" font-size="10.00">9</text>
</a>
</g>
</g>
<!-- dir_8cb91374fcd70b92d5ee52379f113c0f -->
<g id="node4" class="node"><title>dir_8cb91374fcd70b92d5ee52379f113c0f</title>
<g id="a_node4"><a xlink:href="dir_8cb91374fcd70b92d5ee52379f113c0f.html" target="_top" xlink:title="test">
<polygon fill="white" stroke="black" points="78,-324 24,-324 24,-288 78,-288 78,-324"/>
<text text-anchor="middle" x="51" y="-303.5" font-family="Helvetica,sans-Serif" font-size="10.00">test</text>
</a>
</g>
</g>
<!-- dir_8cb91374fcd70b92d5ee52379f113c0f&#45;&gt;dir_985a55873ec4a56b27533251576853b6 -->
<g id="edge15" class="edge"><title>dir_8cb91374fcd70b92d5ee52379f113c0f&#45;&gt;dir_985a55873ec4a56b27533251576853b6</title>
<path fill="none" stroke="black" d="M55.7935,-287.74C61.2043,-269.411 70.8571,-239.851 83,-216 87.7194,-206.73 93.7947,-197.16 99.6055,-188.747"/>
<polygon fill="black" stroke="black" points="102.556,-190.637 105.497,-180.459 96.8508,-186.581 102.556,-190.637"/>
<g id="a_edge15&#45;headlabel"><a xlink:href="dir_000409_000406.html" target="_top" xlink:title="146">
<text text-anchor="middle" x="102.788" y="-192.712" font-family="Helvetica,sans-Serif" font-size="10.00">146</text>
</a>
</g>
</g>
<!-- dir_8cb91374fcd70b92d5ee52379f113c0f&#45;&gt;dir_0b60ff9a1849fb34896fe8bde9baec43 -->
<g id="edge14" class="edge"><title>dir_8cb91374fcd70b92d5ee52379f113c0f&#45;&gt;dir_0b60ff9a1849fb34896fe8bde9baec43</title>
<path fill="none" stroke="black" d="M67.809,-287.697C76.126,-279.135 86.3054,-268.656 95.3899,-259.304"/>
<polygon fill="black" stroke="black" points="97.927,-261.716 102.384,-252.104 92.906,-256.838 97.927,-261.716"/>
<g id="a_edge14&#45;headlabel"><a xlink:href="dir_000409_000408.html" target="_top" xlink:title="17">
<text text-anchor="middle" x="97.4589" y="-263.773" font-family="Helvetica,sans-Serif" font-size="10.00">17</text>
</a>
</g>
</g>
<!-- dir_8cb91374fcd70b92d5ee52379f113c0f&#45;&gt;dir_f0af9df59806ed8bcb6931e6b1774828 -->
<g id="edge13" class="edge"><title>dir_8cb91374fcd70b92d5ee52379f113c0f&#45;&gt;dir_f0af9df59806ed8bcb6931e6b1774828</title>
<path fill="none" stroke="black" d="M50.5993,-287.849C49.7344,-250.832 47.6865,-163.181 46.6399,-118.386"/>
<polygon fill="black" stroke="black" points="50.1353,-118.148 46.4026,-108.232 43.1373,-118.312 50.1353,-118.148"/>
<g id="a_edge13&#45;headlabel"><a xlink:href="dir_000409_000410.html" target="_top" xlink:title="3">
<text text-anchor="middle" x="53.0577" y="-119.175" font-family="Helvetica,sans-Serif" font-size="10.00">3</text>
</a>
</g>
</g>
<!-- dir_8cb91374fcd70b92d5ee52379f113c0f&#45;&gt;dir_2171f7ec022c5423887b07c69b2f5b48 -->
<g id="edge16" class="edge"><title>dir_8cb91374fcd70b92d5ee52379f113c0f&#45;&gt;dir_2171f7ec022c5423887b07c69b2f5b48</title>
<path fill="none" stroke="black" d="M78.0505,-291.764C103.965,-278.986 141.12,-260.377 155,-252 202.509,-223.329 231.471,-229.269 257,-180 279.144,-137.265 271.669,-114.459 249,-72 243.022,-60.8027 233.698,-50.797 224.214,-42.5767"/>
<polygon fill="black" stroke="black" points="226.24,-39.7131 216.279,-36.1046 221.816,-45.1375 226.24,-39.7131"/>
<g id="a_edge16&#45;headlabel"><a xlink:href="dir_000409_000056.html" target="_top" xlink:title="12">
<text text-anchor="middle" x="230.82" y="-37.2849" font-family="Helvetica,sans-Serif" font-size="10.00">12</text>
</a>
</g>
</g>
<!-- dir_4ab6b4cc6a7edbff49100e9123df213f&#45;&gt;dir_2171f7ec022c5423887b07c69b2f5b48 -->
<g id="edge1" class="edge"><title>dir_4ab6b4cc6a7edbff49100e9123df213f&#45;&gt;dir_2171f7ec022c5423887b07c69b2f5b48</title>
<path fill="none" stroke="black" d="M163.006,-71.6966C165.371,-63.7284 169.008,-54.0995 172.935,-45.2641"/>
<polygon fill="black" stroke="black" points="176.155,-46.6411 177.263,-36.1043 169.826,-43.6503 176.155,-46.6411"/>
<g id="a_edge1&#45;headlabel"><a xlink:href="dir_000016_000056.html" target="_top" xlink:title="3">
<text text-anchor="middle" x="177.187" y="-48.6041" font-family="Helvetica,sans-Serif" font-size="10.00">3</text>
</a>
</g>
</g>
<!-- dir_b05a5fa85f84bfc9013183c9d87f9a36&#45;&gt;dir_985a55873ec4a56b27533251576853b6 -->
<g id="edge3" class="edge"><title>dir_b05a5fa85f84bfc9013183c9d87f9a36&#45;&gt;dir_985a55873ec4a56b27533251576853b6</title>
<path fill="none" stroke="black" d="M173.613,-162C167.908,-162 162.202,-162 156.497,-162"/>
<polygon fill="black" stroke="black" points="156.227,-158.5 146.227,-162 156.227,-165.5 156.227,-158.5"/>
<g id="a_edge3&#45;headlabel"><a xlink:href="dir_000392_000406.html" target="_top" xlink:title="7">
<text text-anchor="middle" x="159.821" y="-153.161" font-family="Helvetica,sans-Serif" font-size="10.00">7</text>
</a>
</g>
</g>
<!-- dir_b05a5fa85f84bfc9013183c9d87f9a36&#45;&gt;dir_4ab6b4cc6a7edbff49100e9123df213f -->
<g id="edge2" class="edge"><title>dir_b05a5fa85f84bfc9013183c9d87f9a36&#45;&gt;dir_4ab6b4cc6a7edbff49100e9123df213f</title>
<path fill="none" stroke="black" d="M191.36,-143.697C186.873,-135.644 181.441,-125.894 176.476,-116.982"/>
<polygon fill="black" stroke="black" points="179.454,-115.137 171.53,-108.104 173.339,-118.544 179.454,-115.137"/>
<g id="a_edge2&#45;headlabel"><a xlink:href="dir_000392_000016.html" target="_top" xlink:title="1">
<text text-anchor="middle" x="183.684" y="-114.395" font-family="Helvetica,sans-Serif" font-size="10.00">1</text>
</a>
</g>
</g>
<!-- dir_b05a5fa85f84bfc9013183c9d87f9a36&#45;&gt;dir_2171f7ec022c5423887b07c69b2f5b48 -->
<g id="edge4" class="edge"><title>dir_b05a5fa85f84bfc9013183c9d87f9a36&#45;&gt;dir_2171f7ec022c5423887b07c69b2f5b48</title>
<path fill="none" stroke="black" d="M201.012,-143.901C200.887,-125.956 200.295,-96.9401 198,-72 197.221,-63.5299 195.978,-54.3514 194.702,-46.0504"/>
<polygon fill="black" stroke="black" points="198.149,-45.4392 193.101,-36.1243 191.238,-46.5541 198.149,-45.4392"/>
<g id="a_edge4&#45;headlabel"><a xlink:href="dir_000392_000056.html" target="_top" xlink:title="47">
<text text-anchor="middle" x="201.524" y="-46.0357" font-family="Helvetica,sans-Serif" font-size="10.00">47</text>
</a>
</g>
</g>
<!-- dir_2171f7ec022c5423887b07c69b2f5b48&#45;&gt;dir_4ab6b4cc6a7edbff49100e9123df213f -->
<g id="edge12" class="edge"><title>dir_2171f7ec022c5423887b07c69b2f5b48&#45;&gt;dir_4ab6b4cc6a7edbff49100e9123df213f</title>
<path fill="none" stroke="black" d="M189.053,-36.1043C186.709,-44.0447 183.085,-53.6661 179.163,-62.5146"/>
<polygon fill="black" stroke="black" points="175.933,-61.1586 174.837,-71.6966 182.266,-64.1423 175.933,-61.1586"/>
<g id="a_edge12&#45;headlabel"><a xlink:href="dir_000056_000016.html" target="_top" xlink:title="20">
<text text-anchor="middle" x="174.897" y="-54.1967" font-family="Helvetica,sans-Serif" font-size="10.00">20</text>
</a>
</g>
</g>
</g>
</svg>
