<?xml version="1.0" encoding="UTF-8" standalone="no"?>
<!DOCTYPE svg PUBLIC "-//W3C//DTD SVG 1.1//EN"
 "http://www.w3.org/Graphics/SVG/1.1/DTD/svg11.dtd">
<!-- Generated by graphviz version 2.36.0 (20140111.2315)
 -->
<!-- Title: /home/travis/build/AliceO2Group/AliceO2/Detectors/FIT/reconstruction Pages: 1 -->
<svg width="210pt" height="303pt"
 viewBox="0.00 0.00 210.00 303.00" xmlns="http://www.w3.org/2000/svg" xmlns:xlink="http://www.w3.org/1999/xlink">
<g id="graph0" class="graph" transform="scale(1 1) rotate(0) translate(4 299)">
<title>/home/travis/build/AliceO2Group/AliceO2/Detectors/FIT/reconstruction</title>
<g id="clust1" class="cluster"><title>clusterdir_d14e88a79bca429480864605ee348cef</title>
<g id="a_clust1"><a xlink:href="dir_d14e88a79bca429480864605ee348cef.html" target="_top" xlink:title="FIT">
<polygon fill="#ddddee" stroke="black" points="12,-128 12,-287 194,-287 194,-128 12,-128"/>
<text text-anchor="middle" x="103" y="-275" font-family="Helvetica,sans-Serif" font-size="10.00">FIT</text>
</a>
</g>
</g>
<g id="clust2" class="cluster"><title>clusterdir_2c820bed5c411b935519b7bdac22c9ce</title>
<g id="a_clust2"><a xlink:href="dir_2c820bed5c411b935519b7bdac22c9ce.html" target="_top">
<polygon fill="#eeeeff" stroke="black" points="20,-136 20,-260 186,-260 186,-136 20,-136"/>
</a>
</g>
</g>
<!-- dir_2c820bed5c411b935519b7bdac22c9ce -->
<g id="node1" class="node"><title>dir_2c820bed5c411b935519b7bdac22c9ce</title>
<text text-anchor="middle" x="139" y="-231.5" font-family="Helvetica,sans-Serif" font-size="10.00">reconstruction</text>
</g>
<!-- dir_1af69bfcf1f17ec123009496bd1e7488 -->
<g id="node2" class="node"><title>dir_1af69bfcf1f17ec123009496bd1e7488</title>
<g id="a_node2"><a xlink:href="dir_1af69bfcf1f17ec123009496bd1e7488.html" target="_top" xlink:title="include">
<polygon fill="white" stroke="red" points="109,-180 55,-180 55,-144 109,-144 109,-180"/>
<text text-anchor="middle" x="82" y="-159.5" font-family="Helvetica,sans-Serif" font-size="10.00">include</text>
</a>
</g>
</g>
<!-- dir_efd5be80f1ea96799fa313034d485898 -->
<g id="node4" class="node"><title>dir_efd5be80f1ea96799fa313034d485898</title>
<g id="a_node4"><a xlink:href="dir_efd5be80f1ea96799fa313034d485898.html" target="_top" xlink:title="base">
<polygon fill="none" stroke="red" points="54,-108 0,-108 0,-72 54,-72 54,-108"/>
<text text-anchor="middle" x="27" y="-87.5" font-family="Helvetica,sans-Serif" font-size="10.00">base</text>
</a>
</g>
</g>
<!-- dir_1af69bfcf1f17ec123009496bd1e7488&#45;&gt;dir_efd5be80f1ea96799fa313034d485898 -->
<g id="edge4" class="edge"><title>dir_1af69bfcf1f17ec123009496bd1e7488&#45;&gt;dir_efd5be80f1ea96799fa313034d485898</title>
<path fill="none" stroke="black" d="M68.4045,-143.697C61.8773,-135.389 53.932,-125.277 46.7534,-116.141"/>
<polygon fill="black" stroke="black" points="49.3695,-113.805 40.4391,-108.104 43.8653,-118.13 49.3695,-113.805"/>
<g id="a_edge4&#45;headlabel"><a xlink:href="dir_000251_000216.html" target="_top" xlink:title="2">
<text text-anchor="middle" x="53.8229" y="-112.377" font-family="Helvetica,sans-Serif" font-size="10.00">2</text>
</a>
</g>
</g>
<!-- dir_2171f7ec022c5423887b07c69b2f5b48 -->
<g id="node5" class="node"><title>dir_2171f7ec022c5423887b07c69b2f5b48</title>
<g id="a_node5"><a xlink:href="dir_2171f7ec022c5423887b07c69b2f5b48.html" target="_top" xlink:title="DataFormats">
<polygon fill="none" stroke="red" points="91,-36 17,-36 17,-0 91,-0 91,-36"/>
<text text-anchor="middle" x="54" y="-15.5" font-family="Helvetica,sans-Serif" font-size="10.00">DataFormats</text>
</a>
</g>
</g>
<!-- dir_1af69bfcf1f17ec123009496bd1e7488&#45;&gt;dir_2171f7ec022c5423887b07c69b2f5b48 -->
<g id="edge5" class="edge"><title>dir_1af69bfcf1f17ec123009496bd1e7488&#45;&gt;dir_2171f7ec022c5423887b07c69b2f5b48</title>
<path fill="none" stroke="black" d="M78.6225,-143.871C73.8294,-119.564 65.0065,-74.8187 59.3266,-46.0132"/>
<polygon fill="black" stroke="black" points="62.758,-45.3232 57.3894,-36.1893 55.8902,-46.6775 62.758,-45.3232"/>
<g id="a_edge5&#45;headlabel"><a xlink:href="dir_000251_000056.html" target="_top" xlink:title="1">
<text text-anchor="middle" x="66.2389" y="-45.8007" font-family="Helvetica,sans-Serif" font-size="10.00">1</text>
</a>
</g>
</g>
<!-- dir_825166f14433d183d2d3a946ddb96719 -->
<g id="node3" class="node"><title>dir_825166f14433d183d2d3a946ddb96719</title>
<g id="a_node3"><a xlink:href="dir_825166f14433d183d2d3a946ddb96719.html" target="_top" xlink:title="src">
<polygon fill="white" stroke="black" points="82,-252 28,-252 28,-216 82,-216 82,-252"/>
<text text-anchor="middle" x="55" y="-231.5" font-family="Helvetica,sans-Serif" font-size="10.00">src</text>
</a>
</g>
</g>
<!-- dir_825166f14433d183d2d3a946ddb96719&#45;&gt;dir_1af69bfcf1f17ec123009496bd1e7488 -->
<g id="edge3" class="edge"><title>dir_825166f14433d183d2d3a946ddb96719&#45;&gt;dir_1af69bfcf1f17ec123009496bd1e7488</title>
<path fill="none" stroke="black" d="M61.6742,-215.697C64.7149,-207.813 68.3827,-198.304 71.7607,-189.546"/>
<polygon fill="black" stroke="black" points="75.0693,-190.694 75.4026,-180.104 68.5383,-188.175 75.0693,-190.694"/>
<g id="a_edge3&#45;headlabel"><a xlink:href="dir_000253_000251.html" target="_top" xlink:title="3">
<text text-anchor="middle" x="76.4248" y="-192.569" font-family="Helvetica,sans-Serif" font-size="10.00">3</text>
</a>
</g>
</g>
<!-- dir_825166f14433d183d2d3a946ddb96719&#45;&gt;dir_efd5be80f1ea96799fa313034d485898 -->
<g id="edge2" class="edge"><title>dir_825166f14433d183d2d3a946ddb96719&#45;&gt;dir_efd5be80f1ea96799fa313034d485898</title>
<path fill="none" stroke="black" d="M51.6225,-215.871C46.8294,-191.564 38.0065,-146.819 32.3266,-118.013"/>
<polygon fill="black" stroke="black" points="35.758,-117.323 30.3894,-108.189 28.8902,-118.677 35.758,-117.323"/>
<g id="a_edge2&#45;headlabel"><a xlink:href="dir_000253_000216.html" target="_top" xlink:title="2">
<text text-anchor="middle" x="39.2389" y="-117.801" font-family="Helvetica,sans-Serif" font-size="10.00">2</text>
</a>
</g>
</g>
<!-- dir_efd5be80f1ea96799fa313034d485898&#45;&gt;dir_2171f7ec022c5423887b07c69b2f5b48 -->
<g id="edge1" class="edge"><title>dir_efd5be80f1ea96799fa313034d485898&#45;&gt;dir_2171f7ec022c5423887b07c69b2f5b48</title>
<path fill="none" stroke="black" d="M33.6742,-71.6966C36.7149,-63.8132 40.3827,-54.3042 43.7607,-45.5464"/>
<polygon fill="black" stroke="black" points="47.0693,-46.6939 47.4026,-36.1043 40.5383,-44.1748 47.0693,-46.6939"/>
<g id="a_edge1&#45;headlabel"><a xlink:href="dir_000216_000056.html" target="_top" xlink:title="1">
<text text-anchor="middle" x="48.4248" y="-48.5695" font-family="Helvetica,sans-Serif" font-size="10.00">1</text>
</a>
</g>
</g>
</g>
</svg>
