<?xml version="1.0" encoding="UTF-8" standalone="no"?>
<!DOCTYPE svg PUBLIC "-//W3C//DTD SVG 1.1//EN"
 "http://www.w3.org/Graphics/SVG/1.1/DTD/svg11.dtd">
<!-- Generated by graphviz version 2.36.0 (20140111.2315)
 -->
<!-- Title: /home/travis/build/AliceO2Group/AliceO2/Detectors/MUON/MID/Clustering/src Pages: 1 -->
<svg width="133pt" height="295pt"
 viewBox="0.00 0.00 133.00 295.00" xmlns="http://www.w3.org/2000/svg" xmlns:xlink="http://www.w3.org/1999/xlink">
<g id="graph0" class="graph" transform="scale(1 1) rotate(0) translate(4 291)">
<title>/home/travis/build/AliceO2Group/AliceO2/Detectors/MUON/MID/Clustering/src</title>
<g id="clust1" class="cluster"><title>clusterdir_754f2fe7806627988f6bd801b7f2fe5b</title>
<g id="a_clust1"><a xlink:href="dir_754f2fe7806627988f6bd801b7f2fe5b.html" target="_top" xlink:title="Clustering">
<polygon fill="#ddddee" stroke="black" points="8,-208 8,-279 78,-279 78,-208 8,-208"/>
<text text-anchor="middle" x="43" y="-267" font-family="Helvetica,sans-Serif" font-size="10.00">Clustering</text>
</a>
</g>
</g>
<!-- dir_c9e06deb0c16244bef517806180dc845 -->
<g id="node1" class="node"><title>dir_c9e06deb0c16244bef517806180dc845</title>
<g id="a_node1"><a xlink:href="dir_c9e06deb0c16244bef517806180dc845.html" target="_top" xlink:title="src">
<polygon fill="#eeeeff" stroke="black" points="70,-252 16,-252 16,-216 70,-216 70,-252"/>
<text text-anchor="middle" x="43" y="-231.5" font-family="Helvetica,sans-Serif" font-size="10.00">src</text>
</a>
</g>
</g>
<!-- dir_b5547b1068d53f0f904ee5a2a84992af -->
<g id="node2" class="node"><title>dir_b5547b1068d53f0f904ee5a2a84992af</title>
<g id="a_node2"><a xlink:href="dir_b5547b1068d53f0f904ee5a2a84992af.html" target="_top" xlink:title="Base">
<polygon fill="none" stroke="red" points="79,-108 25,-108 25,-72 79,-72 79,-108"/>
<text text-anchor="middle" x="52" y="-87.5" font-family="Helvetica,sans-Serif" font-size="10.00">Base</text>
</a>
</g>
</g>
<!-- dir_c9e06deb0c16244bef517806180dc845&#45;&gt;dir_b5547b1068d53f0f904ee5a2a84992af -->
<g id="edge1" class="edge"><title>dir_c9e06deb0c16244bef517806180dc845&#45;&gt;dir_b5547b1068d53f0f904ee5a2a84992af</title>
<path fill="none" stroke="black" d="M44.0856,-215.871C45.6195,-191.67 48.4373,-147.211 50.2638,-118.393"/>
<polygon fill="black" stroke="black" points="53.7709,-118.391 50.9105,-108.189 46.7849,-117.948 53.7709,-118.391"/>
<g id="a_edge1&#45;headlabel"><a xlink:href="dir_000325_000124.html" target="_top" xlink:title="2">
<text text-anchor="middle" x="56.3772" y="-119.658" font-family="Helvetica,sans-Serif" font-size="10.00">2</text>
</a>
</g>
</g>
<!-- dir_2171f7ec022c5423887b07c69b2f5b48 -->
<g id="node3" class="node"><title>dir_2171f7ec022c5423887b07c69b2f5b48</title>
<g id="a_node3"><a xlink:href="dir_2171f7ec022c5423887b07c69b2f5b48.html" target="_top" xlink:title="DataFormats">
<polygon fill="none" stroke="red" points="89,-36 15,-36 15,-0 89,-0 89,-36"/>
<text text-anchor="middle" x="52" y="-15.5" font-family="Helvetica,sans-Serif" font-size="10.00">DataFormats</text>
</a>
</g>
</g>
<!-- dir_c9e06deb0c16244bef517806180dc845&#45;&gt;dir_2171f7ec022c5423887b07c69b2f5b48 -->
<g id="edge2" class="edge"><title>dir_c9e06deb0c16244bef517806180dc845&#45;&gt;dir_2171f7ec022c5423887b07c69b2f5b48</title>
<path fill="none" stroke="black" d="M34.982,-215.736C22.2414,-185.884 0.338986,-122.929 16,-72 19.0089,-62.2153 24.507,-52.6161 30.3157,-44.3336"/>
<polygon fill="black" stroke="black" points="33.1948,-46.3279 36.3901,-36.2264 27.5928,-42.1306 33.1948,-46.3279"/>
<g id="a_edge2&#45;headlabel"><a xlink:href="dir_000325_000056.html" target="_top" xlink:title="1">
<text text-anchor="middle" x="33.3117" y="-48.4071" font-family="Helvetica,sans-Serif" font-size="10.00">1</text>
</a>
</g>
</g>
<!-- dir_a71522c76b0f7d8d670e75fb93aba2fa -->
<g id="node4" class="node"><title>dir_a71522c76b0f7d8d670e75fb93aba2fa</title>
<g id="a_node4"><a xlink:href="dir_a71522c76b0f7d8d670e75fb93aba2fa.html" target="_top" xlink:title="include">
<polygon fill="none" stroke="red" points="125,-180 71,-180 71,-144 125,-144 125,-180"/>
<text text-anchor="middle" x="98" y="-159.5" font-family="Helvetica,sans-Serif" font-size="10.00">include</text>
</a>
</g>
</g>
<!-- dir_c9e06deb0c16244bef517806180dc845&#45;&gt;dir_a71522c76b0f7d8d670e75fb93aba2fa -->
<g id="edge3" class="edge"><title>dir_c9e06deb0c16244bef517806180dc845&#45;&gt;dir_a71522c76b0f7d8d670e75fb93aba2fa</title>
<path fill="none" stroke="black" d="M56.5955,-215.697C63.1227,-207.389 71.068,-197.277 78.2466,-188.141"/>
<polygon fill="black" stroke="black" points="81.1347,-190.13 84.5609,-180.104 75.6305,-185.805 81.1347,-190.13"/>
<g id="a_edge3&#45;headlabel"><a xlink:href="dir_000325_000323.html" target="_top" xlink:title="2">
<text text-anchor="middle" x="81.1465" y="-192.211" font-family="Helvetica,sans-Serif" font-size="10.00">2</text>
</a>
</g>
</g>
<!-- dir_b5547b1068d53f0f904ee5a2a84992af&#45;&gt;dir_2171f7ec022c5423887b07c69b2f5b48 -->
<g id="edge4" class="edge"><title>dir_b5547b1068d53f0f904ee5a2a84992af&#45;&gt;dir_2171f7ec022c5423887b07c69b2f5b48</title>
<path fill="none" stroke="black" d="M52,-71.6966C52,-63.9827 52,-54.7125 52,-46.1124"/>
<polygon fill="black" stroke="black" points="55.5001,-46.1043 52,-36.1043 48.5001,-46.1044 55.5001,-46.1043"/>
<g id="a_edge4&#45;headlabel"><a xlink:href="dir_000124_000056.html" target="_top" xlink:title="2">
<text text-anchor="middle" x="58.3393" y="-47.199" font-family="Helvetica,sans-Serif" font-size="10.00">2</text>
</a>
</g>
</g>
<!-- dir_a71522c76b0f7d8d670e75fb93aba2fa&#45;&gt;dir_b5547b1068d53f0f904ee5a2a84992af -->
<g id="edge5" class="edge"><title>dir_a71522c76b0f7d8d670e75fb93aba2fa&#45;&gt;dir_b5547b1068d53f0f904ee5a2a84992af</title>
<path fill="none" stroke="black" d="M86.6292,-143.697C81.2815,-135.559 74.7957,-125.689 68.8894,-116.701"/>
<polygon fill="black" stroke="black" points="71.6568,-114.539 63.24,-108.104 65.8068,-118.384 71.6568,-114.539"/>
<g id="a_edge5&#45;headlabel"><a xlink:href="dir_000323_000124.html" target="_top" xlink:title="1">
<text text-anchor="middle" x="76.0036" y="-113.484" font-family="Helvetica,sans-Serif" font-size="10.00">1</text>
</a>
</g>
</g>
<!-- dir_a71522c76b0f7d8d670e75fb93aba2fa&#45;&gt;dir_2171f7ec022c5423887b07c69b2f5b48 -->
<g id="edge6" class="edge"><title>dir_a71522c76b0f7d8d670e75fb93aba2fa&#45;&gt;dir_2171f7ec022c5423887b07c69b2f5b48</title>
<path fill="none" stroke="black" d="M98.4807,-143.708C98.4422,-125.352 96.7922,-95.7703 88,-72 84.4487,-62.3988 78.7982,-52.8512 73.0168,-44.5595"/>
<polygon fill="black" stroke="black" points="75.7743,-42.4016 67.027,-36.4237 70.1372,-46.5517 75.7743,-42.4016"/>
<g id="a_edge6&#45;headlabel"><a xlink:href="dir_000323_000056.html" target="_top" xlink:title="2">
<text text-anchor="middle" x="80.1919" y="-41.1129" font-family="Helvetica,sans-Serif" font-size="10.00">2</text>
</a>
</g>
</g>
</g>
</svg>
