<?xml version="1.0" encoding="UTF-8" standalone="no"?>
<!DOCTYPE svg PUBLIC "-//W3C//DTD SVG 1.1//EN"
 "http://www.w3.org/Graphics/SVG/1.1/DTD/svg11.dtd">
<!-- Generated by graphviz version 2.36.0 (20140111.2315)
 -->
<!-- Title: /home/travis/build/AliceO2Group/AliceO2/Detectors/TPC/simulation/src Pages: 1 -->
<svg width="127pt" height="367pt"
 viewBox="0.00 0.00 127.46 367.00" xmlns="http://www.w3.org/2000/svg" xmlns:xlink="http://www.w3.org/1999/xlink">
<g id="graph0" class="graph" transform="scale(1 1) rotate(0) translate(4 363)">
<title>/home/travis/build/AliceO2Group/AliceO2/Detectors/TPC/simulation/src</title>
<g id="clust1" class="cluster"><title>clusterdir_7f309bec8670bb3fb666e7e061b24659</title>
<g id="a_clust1"><a xlink:href="dir_7f309bec8670bb3fb666e7e061b24659.html" target="_top" xlink:title="simulation">
<polygon fill="#ddddee" stroke="black" points="12.4408,-280 12.4408,-351 82.4408,-351 82.4408,-280 12.4408,-280"/>
<text text-anchor="middle" x="47.4408" y="-339" font-family="Helvetica,sans-Serif" font-size="10.00">simulation</text>
</a>
</g>
</g>
<!-- dir_72815adbd439f00f784a5a4eca496fde -->
<g id="node1" class="node"><title>dir_72815adbd439f00f784a5a4eca496fde</title>
<g id="a_node1"><a xlink:href="dir_72815adbd439f00f784a5a4eca496fde.html" target="_top" xlink:title="src">
<polygon fill="#eeeeff" stroke="black" points="74.4408,-324 20.4408,-324 20.4408,-288 74.4408,-288 74.4408,-324"/>
<text text-anchor="middle" x="47.4408" y="-303.5" font-family="Helvetica,sans-Serif" font-size="10.00">src</text>
</a>
</g>
</g>
<!-- dir_677b030cc750909e4cd27413873678d8 -->
<g id="node2" class="node"><title>dir_677b030cc750909e4cd27413873678d8</title>
<g id="a_node2"><a xlink:href="dir_677b030cc750909e4cd27413873678d8.html" target="_top" xlink:title="base">
<polygon fill="none" stroke="red" points="64.4408,-180 10.4408,-180 10.4408,-144 64.4408,-144 64.4408,-180"/>
<text text-anchor="middle" x="37.4408" y="-159.5" font-family="Helvetica,sans-Serif" font-size="10.00">base</text>
</a>
</g>
</g>
<!-- dir_72815adbd439f00f784a5a4eca496fde&#45;&gt;dir_677b030cc750909e4cd27413873678d8 -->
<g id="edge1" class="edge"><title>dir_72815adbd439f00f784a5a4eca496fde&#45;&gt;dir_677b030cc750909e4cd27413873678d8</title>
<path fill="none" stroke="black" d="M44.291,-287.88C42.5283,-277.531 40.4816,-264.052 39.4408,-252 37.657,-231.343 37.1935,-207.894 37.1565,-190.254"/>
<polygon fill="black" stroke="black" points="40.6567,-190.105 37.1805,-180.097 33.6568,-190.089 40.6567,-190.105"/>
<g id="a_edge1&#45;headlabel"><a xlink:href="dir_000213_000229.html" target="_top" xlink:title="17">
<text text-anchor="middle" x="43.4876" y="-191.206" font-family="Helvetica,sans-Serif" font-size="10.00">17</text>
</a>
</g>
</g>
<!-- dir_4ab6b4cc6a7edbff49100e9123df213f -->
<g id="node3" class="node"><title>dir_4ab6b4cc6a7edbff49100e9123df213f</title>
<g id="a_node3"><a xlink:href="dir_4ab6b4cc6a7edbff49100e9123df213f.html" target="_top" xlink:title="Common">
<polygon fill="none" stroke="red" points="96.9408,-36 41.9408,-36 41.9408,-0 96.9408,-0 96.9408,-36"/>
<text text-anchor="middle" x="69.4408" y="-15.5" font-family="Helvetica,sans-Serif" font-size="10.00">Common</text>
</a>
</g>
</g>
<!-- dir_72815adbd439f00f784a5a4eca496fde&#45;&gt;dir_4ab6b4cc6a7edbff49100e9123df213f -->
<g id="edge2" class="edge"><title>dir_72815adbd439f00f784a5a4eca496fde&#45;&gt;dir_4ab6b4cc6a7edbff49100e9123df213f</title>
<path fill="none" stroke="black" d="M37.4667,-287.934C21.6567,-258.889 -6.58987,-197.764 1.44085,-144 6.38397,-110.907 7.23258,-101.273 23.4408,-72 29.0439,-61.8807 36.8175,-51.9778 44.3812,-43.5225"/>
<polygon fill="black" stroke="black" points="46.9467,-45.9033 51.2002,-36.1998 41.8239,-41.1329 46.9467,-45.9033"/>
<g id="a_edge2&#45;headlabel"><a xlink:href="dir_000213_000016.html" target="_top" xlink:title="4">
<text text-anchor="middle" x="46.5749" y="-47.9689" font-family="Helvetica,sans-Serif" font-size="10.00">4</text>
</a>
</g>
</g>
<!-- dir_a3959ed40b1558172144f5e1a56e443f -->
<g id="node4" class="node"><title>dir_a3959ed40b1558172144f5e1a56e443f</title>
<g id="a_node4"><a xlink:href="dir_a3959ed40b1558172144f5e1a56e443f.html" target="_top" xlink:title="include">
<polygon fill="none" stroke="red" points="102.441,-252 48.4408,-252 48.4408,-216 102.441,-216 102.441,-252"/>
<text text-anchor="middle" x="75.4408" y="-231.5" font-family="Helvetica,sans-Serif" font-size="10.00">include</text>
</a>
</g>
</g>
<!-- dir_72815adbd439f00f784a5a4eca496fde&#45;&gt;dir_a3959ed40b1558172144f5e1a56e443f -->
<g id="edge3" class="edge"><title>dir_72815adbd439f00f784a5a4eca496fde&#45;&gt;dir_a3959ed40b1558172144f5e1a56e443f</title>
<path fill="none" stroke="black" d="M54.3622,-287.697C57.5156,-279.813 61.3192,-270.304 64.8223,-261.546"/>
<polygon fill="black" stroke="black" points="68.1348,-262.689 68.5991,-252.104 61.6355,-260.089 68.1348,-262.689"/>
<g id="a_edge3&#45;headlabel"><a xlink:href="dir_000213_000193.html" target="_top" xlink:title="26">
<text text-anchor="middle" x="69.4361" y="-264.581" font-family="Helvetica,sans-Serif" font-size="10.00">26</text>
</a>
</g>
</g>
<!-- dir_2171f7ec022c5423887b07c69b2f5b48 -->
<g id="node5" class="node"><title>dir_2171f7ec022c5423887b07c69b2f5b48</title>
<g id="a_node5"><a xlink:href="dir_2171f7ec022c5423887b07c69b2f5b48.html" target="_top" xlink:title="DataFormats">
<polygon fill="none" stroke="red" points="106.441,-108 32.4408,-108 32.4408,-72 106.441,-72 106.441,-108"/>
<text text-anchor="middle" x="69.4408" y="-87.5" font-family="Helvetica,sans-Serif" font-size="10.00">DataFormats</text>
</a>
</g>
</g>
<!-- dir_72815adbd439f00f784a5a4eca496fde&#45;&gt;dir_2171f7ec022c5423887b07c69b2f5b48 -->
<g id="edge4" class="edge"><title>dir_72815adbd439f00f784a5a4eca496fde&#45;&gt;dir_2171f7ec022c5423887b07c69b2f5b48</title>
<path fill="none" stroke="black" d="M74.5372,-290.388C88.3282,-281.337 103.767,-268.319 111.441,-252 132.678,-206.84 106.125,-149.311 86.6114,-116.674"/>
<polygon fill="black" stroke="black" points="89.5797,-114.819 81.3398,-108.159 83.6281,-118.504 89.5797,-114.819"/>
<g id="a_edge4&#45;headlabel"><a xlink:href="dir_000213_000056.html" target="_top" xlink:title="4">
<text text-anchor="middle" x="93.8859" y="-113.881" font-family="Helvetica,sans-Serif" font-size="10.00">4</text>
</a>
</g>
</g>
<!-- dir_677b030cc750909e4cd27413873678d8&#45;&gt;dir_2171f7ec022c5423887b07c69b2f5b48 -->
<g id="edge5" class="edge"><title>dir_677b030cc750909e4cd27413873678d8&#45;&gt;dir_2171f7ec022c5423887b07c69b2f5b48</title>
<path fill="none" stroke="black" d="M45.351,-143.697C48.9936,-135.728 53.3953,-126.1 57.4344,-117.264"/>
<polygon fill="black" stroke="black" points="60.6472,-118.654 61.6217,-108.104 54.2809,-115.744 60.6472,-118.654"/>
<g id="a_edge5&#45;headlabel"><a xlink:href="dir_000229_000056.html" target="_top" xlink:title="13">
<text text-anchor="middle" x="61.735" y="-120.604" font-family="Helvetica,sans-Serif" font-size="10.00">13</text>
</a>
</g>
</g>
<!-- dir_4ab6b4cc6a7edbff49100e9123df213f&#45;&gt;dir_2171f7ec022c5423887b07c69b2f5b48 -->
<g id="edge6" class="edge"><title>dir_4ab6b4cc6a7edbff49100e9123df213f&#45;&gt;dir_2171f7ec022c5423887b07c69b2f5b48</title>
<path fill="none" stroke="black" d="M75.3359,-36.1043C76.1414,-43.7913 76.3777,-53.0537 76.0449,-61.6651"/>
<polygon fill="black" stroke="black" points="72.5494,-61.4805 75.3566,-71.6966 79.533,-61.9597 72.5494,-61.4805"/>
<g id="a_edge6&#45;headlabel"><a xlink:href="dir_000016_000056.html" target="_top" xlink:title="3">
<text text-anchor="middle" x="69.9627" y="-55.2" font-family="Helvetica,sans-Serif" font-size="10.00">3</text>
</a>
</g>
</g>
<!-- dir_a3959ed40b1558172144f5e1a56e443f&#45;&gt;dir_677b030cc750909e4cd27413873678d8 -->
<g id="edge7" class="edge"><title>dir_a3959ed40b1558172144f5e1a56e443f&#45;&gt;dir_677b030cc750909e4cd27413873678d8</title>
<path fill="none" stroke="black" d="M66.0476,-215.697C61.676,-207.644 56.3836,-197.894 51.5456,-188.982"/>
<polygon fill="black" stroke="black" points="54.573,-187.223 46.7261,-180.104 48.421,-190.563 54.573,-187.223"/>
<g id="a_edge7&#45;headlabel"><a xlink:href="dir_000193_000229.html" target="_top" xlink:title="24">
<text text-anchor="middle" x="58.7832" y="-186.528" font-family="Helvetica,sans-Serif" font-size="10.00">24</text>
</a>
</g>
</g>
<!-- dir_a3959ed40b1558172144f5e1a56e443f&#45;&gt;dir_2171f7ec022c5423887b07c69b2f5b48 -->
<g id="edge8" class="edge"><title>dir_a3959ed40b1558172144f5e1a56e443f&#45;&gt;dir_2171f7ec022c5423887b07c69b2f5b48</title>
<path fill="none" stroke="black" d="M75.3249,-215.929C75.1405,-198.005 74.6647,-169.008 73.4408,-144 73.0332,-135.669 72.4147,-126.614 71.7851,-118.384"/>
<polygon fill="black" stroke="black" points="75.2545,-117.86 70.9679,-108.171 68.2768,-118.419 75.2545,-117.86"/>
<g id="a_edge8&#45;headlabel"><a xlink:href="dir_000193_000056.html" target="_top" xlink:title="7">
<text text-anchor="middle" x="78.3713" y="-118.717" font-family="Helvetica,sans-Serif" font-size="10.00">7</text>
</a>
</g>
</g>
<!-- dir_2171f7ec022c5423887b07c69b2f5b48&#45;&gt;dir_4ab6b4cc6a7edbff49100e9123df213f -->
<g id="edge9" class="edge"><title>dir_2171f7ec022c5423887b07c69b2f5b48&#45;&gt;dir_4ab6b4cc6a7edbff49100e9123df213f</title>
<path fill="none" stroke="black" d="M63.5251,-71.6966C62.7294,-63.9827 62.5029,-54.7125 62.8456,-46.1124"/>
<polygon fill="black" stroke="black" points="66.3392,-46.3243 63.5458,-36.1043 59.3563,-45.8356 66.3392,-46.3243"/>
<g id="a_edge9&#45;headlabel"><a xlink:href="dir_000056_000016.html" target="_top" xlink:title="20">
<text text-anchor="middle" x="68.9208" y="-47.6083" font-family="Helvetica,sans-Serif" font-size="10.00">20</text>
</a>
</g>
</g>
</g>
</svg>
