<?xml version="1.0" encoding="UTF-8" standalone="no"?>
<!DOCTYPE svg PUBLIC "-//W3C//DTD SVG 1.1//EN"
 "http://www.w3.org/Graphics/SVG/1.1/DTD/svg11.dtd">
<!-- Generated by graphviz version 2.36.0 (20140111.2315)
 -->
<!-- Title: /home/travis/build/AliceO2Group/AliceO2/Detectors/MUON/MID/Base Pages: 1 -->
<svg width="254pt" height="303pt"
 viewBox="0.00 0.00 254.00 303.00" xmlns="http://www.w3.org/2000/svg" xmlns:xlink="http://www.w3.org/1999/xlink">
<g id="graph0" class="graph" transform="scale(1 1) rotate(0) translate(4 299)">
<title>/home/travis/build/AliceO2Group/AliceO2/Detectors/MUON/MID/Base</title>
<g id="clust1" class="cluster"><title>clusterdir_9e24c537087392bd208449d0b48c466c</title>
<g id="a_clust1"><a xlink:href="dir_9e24c537087392bd208449d0b48c466c.html" target="_top" xlink:title="MID">
<polygon fill="#ddddee" stroke="black" points="8,-128 8,-287 238,-287 238,-128 8,-128"/>
<text text-anchor="middle" x="123" y="-275" font-family="Helvetica,sans-Serif" font-size="10.00">MID</text>
</a>
</g>
</g>
<g id="clust2" class="cluster"><title>clusterdir_b5547b1068d53f0f904ee5a2a84992af</title>
<g id="a_clust2"><a xlink:href="dir_b5547b1068d53f0f904ee5a2a84992af.html" target="_top">
<polygon fill="#eeeeff" stroke="black" points="16,-136 16,-260 230,-260 230,-136 16,-136"/>
</a>
</g>
</g>
<!-- dir_b5547b1068d53f0f904ee5a2a84992af -->
<g id="node1" class="node"><title>dir_b5547b1068d53f0f904ee5a2a84992af</title>
<text text-anchor="middle" x="195" y="-231.5" font-family="Helvetica,sans-Serif" font-size="10.00">Base</text>
</g>
<!-- dir_489f40b36f28d316deaebf4fe902d76f -->
<g id="node2" class="node"><title>dir_489f40b36f28d316deaebf4fe902d76f</title>
<g id="a_node2"><a xlink:href="dir_489f40b36f28d316deaebf4fe902d76f.html" target="_top" xlink:title="include">
<polygon fill="white" stroke="red" points="133,-180 79,-180 79,-144 133,-144 133,-180"/>
<text text-anchor="middle" x="106" y="-159.5" font-family="Helvetica,sans-Serif" font-size="10.00">include</text>
</a>
</g>
</g>
<!-- dir_4ab6b4cc6a7edbff49100e9123df213f -->
<g id="node5" class="node"><title>dir_4ab6b4cc6a7edbff49100e9123df213f</title>
<g id="a_node5"><a xlink:href="dir_4ab6b4cc6a7edbff49100e9123df213f.html" target="_top" xlink:title="Common">
<polygon fill="none" stroke="red" points="78.5,-108 23.5,-108 23.5,-72 78.5,-72 78.5,-108"/>
<text text-anchor="middle" x="51" y="-87.5" font-family="Helvetica,sans-Serif" font-size="10.00">Common</text>
</a>
</g>
</g>
<!-- dir_489f40b36f28d316deaebf4fe902d76f&#45;&gt;dir_4ab6b4cc6a7edbff49100e9123df213f -->
<g id="edge1" class="edge"><title>dir_489f40b36f28d316deaebf4fe902d76f&#45;&gt;dir_4ab6b4cc6a7edbff49100e9123df213f</title>
<path fill="none" stroke="black" d="M92.4045,-143.697C85.8773,-135.389 77.932,-125.277 70.7534,-116.141"/>
<polygon fill="black" stroke="black" points="73.3695,-113.805 64.4391,-108.104 67.8653,-118.13 73.3695,-113.805"/>
<g id="a_edge1&#45;headlabel"><a xlink:href="dir_000125_000016.html" target="_top" xlink:title="2">
<text text-anchor="middle" x="77.8229" y="-112.377" font-family="Helvetica,sans-Serif" font-size="10.00">2</text>
</a>
</g>
</g>
<!-- dir_2171f7ec022c5423887b07c69b2f5b48 -->
<g id="node6" class="node"><title>dir_2171f7ec022c5423887b07c69b2f5b48</title>
<g id="a_node6"><a xlink:href="dir_2171f7ec022c5423887b07c69b2f5b48.html" target="_top" xlink:title="DataFormats">
<polygon fill="none" stroke="red" points="88,-36 14,-36 14,-0 88,-0 88,-36"/>
<text text-anchor="middle" x="51" y="-15.5" font-family="Helvetica,sans-Serif" font-size="10.00">DataFormats</text>
</a>
</g>
</g>
<!-- dir_489f40b36f28d316deaebf4fe902d76f&#45;&gt;dir_2171f7ec022c5423887b07c69b2f5b48 -->
<g id="edge2" class="edge"><title>dir_489f40b36f28d316deaebf4fe902d76f&#45;&gt;dir_2171f7ec022c5423887b07c69b2f5b48</title>
<path fill="none" stroke="black" d="M104.303,-143.674C102.05,-125.29 97.1116,-95.6852 87,-72 82.9158,-62.4333 77.0116,-52.7836 71.1621,-44.3881"/>
<polygon fill="black" stroke="black" points="73.8797,-42.1741 65.1647,-36.1492 68.2203,-46.2938 73.8797,-42.1741"/>
<g id="a_edge2&#45;headlabel"><a xlink:href="dir_000125_000056.html" target="_top" xlink:title="2">
<text text-anchor="middle" x="78.2906" y="-40.9093" font-family="Helvetica,sans-Serif" font-size="10.00">2</text>
</a>
</g>
</g>
<!-- dir_554d48a72df50006a7ae70f74df1311e -->
<g id="node3" class="node"><title>dir_554d48a72df50006a7ae70f74df1311e</title>
<g id="a_node3"><a xlink:href="dir_554d48a72df50006a7ae70f74df1311e.html" target="_top" xlink:title="src">
<polygon fill="white" stroke="black" points="150,-252 96,-252 96,-216 150,-216 150,-252"/>
<text text-anchor="middle" x="123" y="-231.5" font-family="Helvetica,sans-Serif" font-size="10.00">src</text>
</a>
</g>
</g>
<!-- dir_554d48a72df50006a7ae70f74df1311e&#45;&gt;dir_489f40b36f28d316deaebf4fe902d76f -->
<g id="edge3" class="edge"><title>dir_554d48a72df50006a7ae70f74df1311e&#45;&gt;dir_489f40b36f28d316deaebf4fe902d76f</title>
<path fill="none" stroke="black" d="M118.798,-215.697C116.904,-207.898 114.623,-198.509 112.516,-189.829"/>
<polygon fill="black" stroke="black" points="115.915,-188.996 110.154,-180.104 109.113,-190.648 115.915,-188.996"/>
<g id="a_edge3&#45;headlabel"><a xlink:href="dir_000311_000125.html" target="_top" xlink:title="9">
<text text-anchor="middle" x="119.522" y="-189.319" font-family="Helvetica,sans-Serif" font-size="10.00">9</text>
</a>
</g>
</g>
<!-- dir_32e49f0791d191b7d3ff38f062842c3d -->
<g id="node4" class="node"><title>dir_32e49f0791d191b7d3ff38f062842c3d</title>
<g id="a_node4"><a xlink:href="dir_32e49f0791d191b7d3ff38f062842c3d.html" target="_top" xlink:title="test">
<polygon fill="white" stroke="black" points="78,-252 24,-252 24,-216 78,-216 78,-252"/>
<text text-anchor="middle" x="51" y="-231.5" font-family="Helvetica,sans-Serif" font-size="10.00">test</text>
</a>
</g>
</g>
<!-- dir_32e49f0791d191b7d3ff38f062842c3d&#45;&gt;dir_489f40b36f28d316deaebf4fe902d76f -->
<g id="edge5" class="edge"><title>dir_32e49f0791d191b7d3ff38f062842c3d&#45;&gt;dir_489f40b36f28d316deaebf4fe902d76f</title>
<path fill="none" stroke="black" d="M64.5955,-215.697C71.1227,-207.389 79.068,-197.277 86.2466,-188.141"/>
<polygon fill="black" stroke="black" points="89.1347,-190.13 92.5609,-180.104 83.6305,-185.805 89.1347,-190.13"/>
<g id="a_edge5&#45;headlabel"><a xlink:href="dir_000321_000125.html" target="_top" xlink:title="4">
<text text-anchor="middle" x="89.1465" y="-192.211" font-family="Helvetica,sans-Serif" font-size="10.00">4</text>
</a>
</g>
</g>
<!-- dir_32e49f0791d191b7d3ff38f062842c3d&#45;&gt;dir_4ab6b4cc6a7edbff49100e9123df213f -->
<g id="edge6" class="edge"><title>dir_32e49f0791d191b7d3ff38f062842c3d&#45;&gt;dir_4ab6b4cc6a7edbff49100e9123df213f</title>
<path fill="none" stroke="black" d="M51,-215.871C51,-191.67 51,-147.211 51,-118.393"/>
<polygon fill="black" stroke="black" points="54.5001,-118.189 51,-108.189 47.5001,-118.189 54.5001,-118.189"/>
<g id="a_edge6&#45;headlabel"><a xlink:href="dir_000321_000016.html" target="_top" xlink:title="1">
<text text-anchor="middle" x="57.3393" y="-119.284" font-family="Helvetica,sans-Serif" font-size="10.00">1</text>
</a>
</g>
</g>
<!-- dir_4ab6b4cc6a7edbff49100e9123df213f&#45;&gt;dir_2171f7ec022c5423887b07c69b2f5b48 -->
<g id="edge4" class="edge"><title>dir_4ab6b4cc6a7edbff49100e9123df213f&#45;&gt;dir_2171f7ec022c5423887b07c69b2f5b48</title>
<path fill="none" stroke="black" d="M45.0843,-71.6966C44.2886,-63.9827 44.0621,-54.7125 44.4047,-46.1124"/>
<polygon fill="black" stroke="black" points="47.8984,-46.3243 45.105,-36.1043 40.9154,-45.8356 47.8984,-46.3243"/>
<g id="a_edge4&#45;headlabel"><a xlink:href="dir_000016_000056.html" target="_top" xlink:title="3">
<text text-anchor="middle" x="50.4799" y="-47.6083" font-family="Helvetica,sans-Serif" font-size="10.00">3</text>
</a>
</g>
</g>
<!-- dir_2171f7ec022c5423887b07c69b2f5b48&#45;&gt;dir_4ab6b4cc6a7edbff49100e9123df213f -->
<g id="edge7" class="edge"><title>dir_2171f7ec022c5423887b07c69b2f5b48&#45;&gt;dir_4ab6b4cc6a7edbff49100e9123df213f</title>
<path fill="none" stroke="black" d="M56.895,-36.1043C57.7005,-43.7913 57.9369,-53.0537 57.604,-61.6651"/>
<polygon fill="black" stroke="black" points="54.1085,-61.4805 56.9157,-71.6966 61.0921,-61.9597 54.1085,-61.4805"/>
<g id="a_edge7&#45;headlabel"><a xlink:href="dir_000056_000016.html" target="_top" xlink:title="20">
<text text-anchor="middle" x="51.5219" y="-55.2" font-family="Helvetica,sans-Serif" font-size="10.00">20</text>
</a>
</g>
</g>
</g>
</svg>
