<?xml version="1.0" encoding="UTF-8" standalone="no"?>
<!DOCTYPE svg PUBLIC "-//W3C//DTD SVG 1.1//EN"
 "http://www.w3.org/Graphics/SVG/1.1/DTD/svg11.dtd">
<!-- Generated by graphviz version 2.36.0 (20140111.2315)
 -->
<!-- Title: /home/travis/build/AliceO2Group/AliceO2/Detectors/ZDC/simulation Pages: 1 -->
<svg width="238pt" height="303pt"
 viewBox="0.00 0.00 238.00 303.00" xmlns="http://www.w3.org/2000/svg" xmlns:xlink="http://www.w3.org/1999/xlink">
<g id="graph0" class="graph" transform="scale(1 1) rotate(0) translate(4 299)">
<title>/home/travis/build/AliceO2Group/AliceO2/Detectors/ZDC/simulation</title>
<g id="clust1" class="cluster"><title>clusterdir_db9e312ee82793cf7e11be39a4401551</title>
<g id="a_clust1"><a xlink:href="dir_db9e312ee82793cf7e11be39a4401551.html" target="_top" xlink:title="ZDC">
<polygon fill="#ddddee" stroke="black" points="56,-128 56,-287 222,-287 222,-128 56,-128"/>
<text text-anchor="middle" x="139" y="-275" font-family="Helvetica,sans-Serif" font-size="10.00">ZDC</text>
</a>
</g>
</g>
<g id="clust2" class="cluster"><title>clusterdir_42e3a2880e2a7a6dc7f4f0567528a1f9</title>
<g id="a_clust2"><a xlink:href="dir_42e3a2880e2a7a6dc7f4f0567528a1f9.html" target="_top">
<polygon fill="#eeeeff" stroke="black" points="64,-136 64,-260 214,-260 214,-136 64,-136"/>
</a>
</g>
</g>
<!-- dir_42e3a2880e2a7a6dc7f4f0567528a1f9 -->
<g id="node1" class="node"><title>dir_42e3a2880e2a7a6dc7f4f0567528a1f9</title>
<text text-anchor="middle" x="175" y="-231.5" font-family="Helvetica,sans-Serif" font-size="10.00">simulation</text>
</g>
<!-- dir_8753232d356b54b3d5b7685c17590977 -->
<g id="node2" class="node"><title>dir_8753232d356b54b3d5b7685c17590977</title>
<g id="a_node2"><a xlink:href="dir_8753232d356b54b3d5b7685c17590977.html" target="_top" xlink:title="include">
<polygon fill="white" stroke="red" points="126,-180 72,-180 72,-144 126,-144 126,-180"/>
<text text-anchor="middle" x="99" y="-159.5" font-family="Helvetica,sans-Serif" font-size="10.00">include</text>
</a>
</g>
</g>
<!-- dir_37c90836491b695b472bf98d1be8336b -->
<g id="node4" class="node"><title>dir_37c90836491b695b472bf98d1be8336b</title>
<g id="a_node4"><a xlink:href="dir_37c90836491b695b472bf98d1be8336b.html" target="_top" xlink:title="Base">
<polygon fill="none" stroke="red" points="54,-108 0,-108 0,-72 54,-72 54,-108"/>
<text text-anchor="middle" x="27" y="-87.5" font-family="Helvetica,sans-Serif" font-size="10.00">Base</text>
</a>
</g>
</g>
<!-- dir_8753232d356b54b3d5b7685c17590977&#45;&gt;dir_37c90836491b695b472bf98d1be8336b -->
<g id="edge1" class="edge"><title>dir_8753232d356b54b3d5b7685c17590977&#45;&gt;dir_37c90836491b695b472bf98d1be8336b</title>
<path fill="none" stroke="black" d="M81.2022,-143.697C72.396,-135.135 61.6179,-124.656 51.9989,-115.304"/>
<polygon fill="black" stroke="black" points="54.2028,-112.566 44.593,-108.104 49.3232,-117.585 54.2028,-112.566"/>
<g id="a_edge1&#45;headlabel"><a xlink:href="dir_000201_000158.html" target="_top" xlink:title="2">
<text text-anchor="middle" x="58.7593" y="-110.536" font-family="Helvetica,sans-Serif" font-size="10.00">2</text>
</a>
</g>
</g>
<!-- dir_9a03fde50984971e6d5cd095204aab10 -->
<g id="node5" class="node"><title>dir_9a03fde50984971e6d5cd095204aab10</title>
<g id="a_node5"><a xlink:href="dir_9a03fde50984971e6d5cd095204aab10.html" target="_top" xlink:title="base">
<polygon fill="none" stroke="red" points="126,-108 72,-108 72,-72 126,-72 126,-108"/>
<text text-anchor="middle" x="99" y="-87.5" font-family="Helvetica,sans-Serif" font-size="10.00">base</text>
</a>
</g>
</g>
<!-- dir_8753232d356b54b3d5b7685c17590977&#45;&gt;dir_9a03fde50984971e6d5cd095204aab10 -->
<g id="edge2" class="edge"><title>dir_8753232d356b54b3d5b7685c17590977&#45;&gt;dir_9a03fde50984971e6d5cd095204aab10</title>
<path fill="none" stroke="black" d="M99,-143.697C99,-135.983 99,-126.712 99,-118.112"/>
<polygon fill="black" stroke="black" points="102.5,-118.104 99,-108.104 95.5001,-118.104 102.5,-118.104"/>
<g id="a_edge2&#45;headlabel"><a xlink:href="dir_000201_000232.html" target="_top" xlink:title="1">
<text text-anchor="middle" x="105.339" y="-119.199" font-family="Helvetica,sans-Serif" font-size="10.00">1</text>
</a>
</g>
</g>
<!-- dir_2171f7ec022c5423887b07c69b2f5b48 -->
<g id="node6" class="node"><title>dir_2171f7ec022c5423887b07c69b2f5b48</title>
<g id="a_node6"><a xlink:href="dir_2171f7ec022c5423887b07c69b2f5b48.html" target="_top" xlink:title="DataFormats">
<polygon fill="none" stroke="red" points="127,-36 53,-36 53,-0 127,-0 127,-36"/>
<text text-anchor="middle" x="90" y="-15.5" font-family="Helvetica,sans-Serif" font-size="10.00">DataFormats</text>
</a>
</g>
</g>
<!-- dir_8753232d356b54b3d5b7685c17590977&#45;&gt;dir_2171f7ec022c5423887b07c69b2f5b48 -->
<g id="edge3" class="edge"><title>dir_8753232d356b54b3d5b7685c17590977&#45;&gt;dir_2171f7ec022c5423887b07c69b2f5b48</title>
<path fill="none" stroke="black" d="M114.61,-143.774C122.373,-134.03 130.946,-121.184 135,-108 139.703,-92.7067 140.516,-87.0191 135,-72 131.216,-61.6962 124.442,-52.0249 117.28,-43.837"/>
<polygon fill="black" stroke="black" points="119.769,-41.3751 110.379,-36.469 114.66,-46.1603 119.769,-41.3751"/>
<g id="a_edge3&#45;headlabel"><a xlink:href="dir_000201_000056.html" target="_top" xlink:title="2">
<text text-anchor="middle" x="124.299" y="-39.5577" font-family="Helvetica,sans-Serif" font-size="10.00">2</text>
</a>
</g>
</g>
<!-- dir_191ec3c3fa67efcf13c1b6bfa78daccb -->
<g id="node3" class="node"><title>dir_191ec3c3fa67efcf13c1b6bfa78daccb</title>
<g id="a_node3"><a xlink:href="dir_191ec3c3fa67efcf13c1b6bfa78daccb.html" target="_top" xlink:title="src">
<polygon fill="white" stroke="black" points="126,-252 72,-252 72,-216 126,-216 126,-252"/>
<text text-anchor="middle" x="99" y="-231.5" font-family="Helvetica,sans-Serif" font-size="10.00">src</text>
</a>
</g>
</g>
<!-- dir_191ec3c3fa67efcf13c1b6bfa78daccb&#45;&gt;dir_8753232d356b54b3d5b7685c17590977 -->
<g id="edge5" class="edge"><title>dir_191ec3c3fa67efcf13c1b6bfa78daccb&#45;&gt;dir_8753232d356b54b3d5b7685c17590977</title>
<path fill="none" stroke="black" d="M99,-215.697C99,-207.983 99,-198.712 99,-190.112"/>
<polygon fill="black" stroke="black" points="102.5,-190.104 99,-180.104 95.5001,-190.104 102.5,-190.104"/>
<g id="a_edge5&#45;headlabel"><a xlink:href="dir_000215_000201.html" target="_top" xlink:title="2">
<text text-anchor="middle" x="105.339" y="-191.199" font-family="Helvetica,sans-Serif" font-size="10.00">2</text>
</a>
</g>
</g>
<!-- dir_191ec3c3fa67efcf13c1b6bfa78daccb&#45;&gt;dir_37c90836491b695b472bf98d1be8336b -->
<g id="edge6" class="edge"><title>dir_191ec3c3fa67efcf13c1b6bfa78daccb&#45;&gt;dir_37c90836491b695b472bf98d1be8336b</title>
<path fill="none" stroke="black" d="M86.0304,-215.919C78.7072,-205.809 69.7072,-192.559 63,-180 52.2513,-159.873 42.704,-135.822 36.1468,-117.799"/>
<polygon fill="black" stroke="black" points="39.3858,-116.461 32.734,-108.215 32.7913,-118.81 39.3858,-116.461"/>
<g id="a_edge6&#45;headlabel"><a xlink:href="dir_000215_000158.html" target="_top" xlink:title="1">
<text text-anchor="middle" x="43.2662" y="-116.395" font-family="Helvetica,sans-Serif" font-size="10.00">1</text>
</a>
</g>
</g>
<!-- dir_191ec3c3fa67efcf13c1b6bfa78daccb&#45;&gt;dir_2171f7ec022c5423887b07c69b2f5b48 -->
<g id="edge7" class="edge"><title>dir_191ec3c3fa67efcf13c1b6bfa78daccb&#45;&gt;dir_2171f7ec022c5423887b07c69b2f5b48</title>
<path fill="none" stroke="black" d="M112.906,-215.592C135.125,-185.522 173.906,-122.247 151,-72 145.772,-60.5311 136.7,-50.5844 127.126,-42.5041"/>
<polygon fill="black" stroke="black" points="129.069,-39.5796 119.04,-36.1631 124.749,-45.088 129.069,-39.5796"/>
<g id="a_edge7&#45;headlabel"><a xlink:href="dir_000215_000056.html" target="_top" xlink:title="1">
<text text-anchor="middle" x="133.649" y="-37.0634" font-family="Helvetica,sans-Serif" font-size="10.00">1</text>
</a>
</g>
</g>
<!-- dir_37c90836491b695b472bf98d1be8336b&#45;&gt;dir_2171f7ec022c5423887b07c69b2f5b48 -->
<g id="edge4" class="edge"><title>dir_37c90836491b695b472bf98d1be8336b&#45;&gt;dir_2171f7ec022c5423887b07c69b2f5b48</title>
<path fill="none" stroke="black" d="M36.6573,-71.6966C43.4796,-63.135 52.7285,-52.6562 61.6643,-43.3045"/>
<polygon fill="black" stroke="black" points="64.2179,-45.6992 68.7111,-36.1043 59.2151,-40.803 64.2179,-45.6992"/>
<g id="a_edge4&#45;headlabel"><a xlink:href="dir_000158_000056.html" target="_top" xlink:title="5">
<text text-anchor="middle" x="63.7328" y="-47.7541" font-family="Helvetica,sans-Serif" font-size="10.00">5</text>
</a>
</g>
</g>
<!-- dir_2171f7ec022c5423887b07c69b2f5b48&#45;&gt;dir_37c90836491b695b472bf98d1be8336b -->
<g id="edge8" class="edge"><title>dir_2171f7ec022c5423887b07c69b2f5b48&#45;&gt;dir_37c90836491b695b472bf98d1be8336b</title>
<path fill="none" stroke="black" d="M80.5011,-36.1043C73.7167,-44.636 64.4843,-55.1084 55.5439,-64.4775"/>
<polygon fill="black" stroke="black" points="52.975,-62.0985 48.4888,-71.6966 57.9813,-66.9911 52.975,-62.0985"/>
<g id="a_edge8&#45;headlabel"><a xlink:href="dir_000056_000158.html" target="_top" xlink:title="1">
<text text-anchor="middle" x="53.4568" y="-55.0432" font-family="Helvetica,sans-Serif" font-size="10.00">1</text>
</a>
</g>
</g>
</g>
</svg>
