<?xml version="1.0" encoding="UTF-8" standalone="no"?>
<!DOCTYPE svg PUBLIC "-//W3C//DTD SVG 1.1//EN"
 "http://www.w3.org/Graphics/SVG/1.1/DTD/svg11.dtd">
<!-- Generated by graphviz version 2.36.0 (20140111.2315)
 -->
<!-- Title: /home/travis/build/AliceO2Group/AliceO2/DataFormats Pages: 1 -->
<svg width="454pt" height="320pt"
 viewBox="0.00 0.00 454.12 319.76" xmlns="http://www.w3.org/2000/svg" xmlns:xlink="http://www.w3.org/1999/xlink">
<g id="graph0" class="graph" transform="scale(1 1) rotate(0) translate(4 315.763)">
<title>/home/travis/build/AliceO2Group/AliceO2/DataFormats</title>
<g id="clust1" class="cluster"><title>clusterdir_2171f7ec022c5423887b07c69b2f5b48</title>
<g id="a_clust1"><a xlink:href="dir_2171f7ec022c5423887b07c69b2f5b48.html" target="_top">
<polygon fill="#eeeeff" stroke="black" points="8,-8 8,-276 279,-276 279,-8 8,-8"/>
</a>
</g>
</g>
<!-- dir_2171f7ec022c5423887b07c69b2f5b48 -->
<g id="node1" class="node"><title>dir_2171f7ec022c5423887b07c69b2f5b48</title>
<text text-anchor="middle" x="234" y="-247.5" font-family="Helvetica,sans-Serif" font-size="10.00">DataFormats</text>
</g>
<!-- dir_7924ba4398ae4560cd37376e44666c6d -->
<g id="node2" class="node"><title>dir_7924ba4398ae4560cd37376e44666c6d</title>
<g id="a_node2"><a xlink:href="dir_7924ba4398ae4560cd37376e44666c6d.html" target="_top" xlink:title="common">
<polygon fill="white" stroke="red" points="227,-52 173,-52 173,-16 227,-16 227,-52"/>
<text text-anchor="middle" x="200" y="-31.5" font-family="Helvetica,sans-Serif" font-size="10.00">common</text>
</a>
</g>
</g>
<!-- dir_4ab6b4cc6a7edbff49100e9123df213f -->
<g id="node11" class="node"><title>dir_4ab6b4cc6a7edbff49100e9123df213f</title>
<g id="a_node11"><a xlink:href="dir_4ab6b4cc6a7edbff49100e9123df213f.html" target="_top" xlink:title="Common">
<polygon fill="none" stroke="red" points="342.5,-52 287.5,-52 287.5,-16 342.5,-16 342.5,-52"/>
<text text-anchor="middle" x="315" y="-31.5" font-family="Helvetica,sans-Serif" font-size="10.00">Common</text>
</a>
</g>
</g>
<!-- dir_7924ba4398ae4560cd37376e44666c6d&#45;&gt;dir_4ab6b4cc6a7edbff49100e9123df213f -->
<g id="edge26" class="edge"><title>dir_7924ba4398ae4560cd37376e44666c6d&#45;&gt;dir_4ab6b4cc6a7edbff49100e9123df213f</title>
<path fill="none" stroke="black" d="M227.402,-34C243.932,-34 260.462,-34 276.991,-34"/>
<polygon fill="black" stroke="black" points="277.284,-37.5001 287.284,-34 277.284,-30.5001 277.284,-37.5001"/>
<g id="a_edge26&#45;headlabel"><a xlink:href="dir_000057_000016.html" target="_top" xlink:title="2">
<text text-anchor="middle" x="273.689" y="-37.8393" font-family="Helvetica,sans-Serif" font-size="10.00">2</text>
</a>
</g>
</g>
<!-- dir_2801adc79bf3c286b1b479858d2cade4 -->
<g id="node3" class="node"><title>dir_2801adc79bf3c286b1b479858d2cade4</title>
<g id="a_node3"><a xlink:href="dir_2801adc79bf3c286b1b479858d2cade4.html" target="_top" xlink:title="Detectors">
<polygon fill="white" stroke="red" points="179.25,-196 120.75,-196 120.75,-160 179.25,-160 179.25,-196"/>
<text text-anchor="middle" x="150" y="-175.5" font-family="Helvetica,sans-Serif" font-size="10.00">Detectors</text>
</a>
</g>
</g>
<!-- dir_2801adc79bf3c286b1b479858d2cade4&#45;&gt;dir_7924ba4398ae4560cd37376e44666c6d -->
<g id="edge10" class="edge"><title>dir_2801adc79bf3c286b1b479858d2cade4&#45;&gt;dir_7924ba4398ae4560cd37376e44666c6d</title>
<path fill="none" stroke="black" d="M126.695,-159.819C116.099,-150.538 104.68,-138.094 99,-124 93.0195,-109.16 90.7221,-101.692 99,-88 112.833,-65.1194 140.17,-51.6311 162.918,-43.9924"/>
<polygon fill="black" stroke="black" points="164.141,-47.2776 172.657,-40.9741 162.069,-40.5914 164.141,-47.2776"/>
<g id="a_edge10&#45;headlabel"><a xlink:href="dir_000066_000057.html" target="_top" xlink:title="3">
<text text-anchor="middle" x="161.548" y="-48.5537" font-family="Helvetica,sans-Serif" font-size="10.00">3</text>
</a>
</g>
</g>
<!-- dir_183e7c4434404fe9096e1bd8673e1fcf -->
<g id="node4" class="node"><title>dir_183e7c4434404fe9096e1bd8673e1fcf</title>
<g id="a_node4"><a xlink:href="dir_183e7c4434404fe9096e1bd8673e1fcf.html" target="_top" xlink:title="Headers">
<polygon fill="white" stroke="red" points="70,-124 16,-124 16,-88 70,-88 70,-124"/>
<text text-anchor="middle" x="43" y="-103.5" font-family="Helvetica,sans-Serif" font-size="10.00">Headers</text>
</a>
</g>
</g>
<!-- dir_2801adc79bf3c286b1b479858d2cade4&#45;&gt;dir_183e7c4434404fe9096e1bd8673e1fcf -->
<g id="edge8" class="edge"><title>dir_2801adc79bf3c286b1b479858d2cade4&#45;&gt;dir_183e7c4434404fe9096e1bd8673e1fcf</title>
<path fill="none" stroke="black" d="M123.825,-159.876C109.964,-150.808 92.7586,-139.552 77.789,-129.759"/>
<polygon fill="black" stroke="black" points="79.5602,-126.735 69.2758,-124.19 75.728,-132.593 79.5602,-126.735"/>
<g id="a_edge8&#45;headlabel"><a xlink:href="dir_000066_000060.html" target="_top" xlink:title="1">
<text text-anchor="middle" x="84.1227" y="-123.827" font-family="Helvetica,sans-Serif" font-size="10.00">1</text>
</a>
</g>
</g>
<!-- dir_d269712cc31e133b892a3b3f6424741a -->
<g id="node8" class="node"><title>dir_d269712cc31e133b892a3b3f6424741a</title>
<g id="a_node8"><a xlink:href="dir_d269712cc31e133b892a3b3f6424741a.html" target="_top" xlink:title="Reconstruction">
<polygon fill="white" stroke="red" points="191.25,-124 108.75,-124 108.75,-88 191.25,-88 191.25,-124"/>
<text text-anchor="middle" x="150" y="-103.5" font-family="Helvetica,sans-Serif" font-size="10.00">Reconstruction</text>
</a>
</g>
</g>
<!-- dir_2801adc79bf3c286b1b479858d2cade4&#45;&gt;dir_d269712cc31e133b892a3b3f6424741a -->
<g id="edge6" class="edge"><title>dir_2801adc79bf3c286b1b479858d2cade4&#45;&gt;dir_d269712cc31e133b892a3b3f6424741a</title>
<path fill="none" stroke="black" d="M144.084,-159.697C143.289,-151.983 143.062,-142.712 143.405,-134.112"/>
<polygon fill="black" stroke="black" points="146.898,-134.324 144.105,-124.104 139.915,-133.836 146.898,-134.324"/>
<g id="a_edge6&#45;headlabel"><a xlink:href="dir_000066_000104.html" target="_top" xlink:title="5">
<text text-anchor="middle" x="149.48" y="-135.608" font-family="Helvetica,sans-Serif" font-size="10.00">5</text>
</a>
</g>
</g>
<!-- dir_047746f9f311f49446db9474b7431d0d -->
<g id="node9" class="node"><title>dir_047746f9f311f49446db9474b7431d0d</title>
<g id="a_node9"><a xlink:href="dir_047746f9f311f49446db9474b7431d0d.html" target="_top" xlink:title="simulation">
<polygon fill="white" stroke="red" points="270.25,-124 209.75,-124 209.75,-88 270.25,-88 270.25,-124"/>
<text text-anchor="middle" x="240" y="-103.5" font-family="Helvetica,sans-Serif" font-size="10.00">simulation</text>
</a>
</g>
</g>
<!-- dir_2801adc79bf3c286b1b479858d2cade4&#45;&gt;dir_047746f9f311f49446db9474b7431d0d -->
<g id="edge9" class="edge"><title>dir_2801adc79bf3c286b1b479858d2cade4&#45;&gt;dir_047746f9f311f49446db9474b7431d0d</title>
<path fill="none" stroke="black" d="M166.331,-159.697C176.857,-150.796 190.805,-139.823 203.776,-130.199"/>
<polygon fill="black" stroke="black" points="206.106,-132.831 212.114,-124.104 201.975,-127.18 206.106,-132.831"/>
<g id="a_edge9&#45;headlabel"><a xlink:href="dir_000066_000128.html" target="_top" xlink:title="2">
<text text-anchor="middle" x="204.88" y="-134.745" font-family="Helvetica,sans-Serif" font-size="10.00">2</text>
</a>
</g>
</g>
<!-- dir_2801adc79bf3c286b1b479858d2cade4&#45;&gt;dir_4ab6b4cc6a7edbff49100e9123df213f -->
<g id="edge7" class="edge"><title>dir_2801adc79bf3c286b1b479858d2cade4&#45;&gt;dir_4ab6b4cc6a7edbff49100e9123df213f</title>
<path fill="none" stroke="black" d="M179.449,-165.568C216.355,-151.143 275.265,-127.755 279,-124 295.738,-107.171 304.994,-81.5245 309.913,-62.0784"/>
<polygon fill="black" stroke="black" points="313.335,-62.8113 312.163,-52.2816 306.513,-61.2444 313.335,-62.8113"/>
<g id="a_edge7&#45;headlabel"><a xlink:href="dir_000066_000016.html" target="_top" xlink:title="9">
<text text-anchor="middle" x="315.298" y="-64.4502" font-family="Helvetica,sans-Serif" font-size="10.00">9</text>
</a>
</g>
</g>
<!-- dir_0b530fc7dcf9a7fe279ee6facafec658 -->
<g id="node6" class="node"><title>dir_0b530fc7dcf9a7fe279ee6facafec658</title>
<g id="a_node6"><a xlink:href="dir_0b530fc7dcf9a7fe279ee6facafec658.html" target="_top" xlink:title="MemoryResources">
<polygon fill="white" stroke="red" points="115.25,-52 16.75,-52 16.75,-16 115.25,-16 115.25,-52"/>
<text text-anchor="middle" x="66" y="-31.5" font-family="Helvetica,sans-Serif" font-size="10.00">MemoryResources</text>
</a>
</g>
</g>
<!-- dir_183e7c4434404fe9096e1bd8673e1fcf&#45;&gt;dir_0b530fc7dcf9a7fe279ee6facafec658 -->
<g id="edge18" class="edge"><title>dir_183e7c4434404fe9096e1bd8673e1fcf&#45;&gt;dir_0b530fc7dcf9a7fe279ee6facafec658</title>
<path fill="none" stroke="black" d="M48.6854,-87.6966C51.2478,-79.8979 54.3329,-70.5085 57.1847,-61.8292"/>
<polygon fill="black" stroke="black" points="60.5835,-62.6972 60.38,-52.1043 53.9333,-60.5121 60.5835,-62.6972"/>
<g id="a_edge18&#45;headlabel"><a xlink:href="dir_000060_000136.html" target="_top" xlink:title="2">
<text text-anchor="middle" x="62.1589" y="-64.4985" font-family="Helvetica,sans-Serif" font-size="10.00">2</text>
</a>
</g>
</g>
<!-- dir_dfa95816b29f32ea9733fcc47ad2b363 -->
<g id="node5" class="node"><title>dir_dfa95816b29f32ea9733fcc47ad2b363</title>
<g id="a_node5"><a xlink:href="dir_dfa95816b29f32ea9733fcc47ad2b363.html" target="_top" xlink:title="Legacy">
<polygon fill="white" stroke="red" points="179,-268 125,-268 125,-232 179,-232 179,-268"/>
<text text-anchor="middle" x="152" y="-247.5" font-family="Helvetica,sans-Serif" font-size="10.00">Legacy</text>
</a>
</g>
</g>
<!-- dir_d462256f2f72f303235b8fb5b5a9f479 -->
<g id="node7" class="node"><title>dir_d462256f2f72f303235b8fb5b5a9f479</title>
<g id="a_node7"><a xlink:href="dir_d462256f2f72f303235b8fb5b5a9f479.html" target="_top" xlink:title="Parameters">
<polygon fill="white" stroke="red" points="106.25,-268 39.75,-268 39.75,-232 106.25,-232 106.25,-268"/>
<text text-anchor="middle" x="73" y="-247.5" font-family="Helvetica,sans-Serif" font-size="10.00">Parameters</text>
</a>
</g>
</g>
<!-- dir_d462256f2f72f303235b8fb5b5a9f479&#45;&gt;dir_2801adc79bf3c286b1b479858d2cade4 -->
<g id="edge24" class="edge"><title>dir_d462256f2f72f303235b8fb5b5a9f479&#45;&gt;dir_2801adc79bf3c286b1b479858d2cade4</title>
<path fill="none" stroke="black" d="M92.0337,-231.697C101.545,-223.05 113.207,-212.449 123.57,-203.027"/>
<polygon fill="black" stroke="black" points="126.14,-205.421 131.185,-196.104 121.431,-200.241 126.14,-205.421"/>
<g id="a_edge24&#45;headlabel"><a xlink:href="dir_000141_000066.html" target="_top" xlink:title="1">
<text text-anchor="middle" x="125.39" y="-207.44" font-family="Helvetica,sans-Serif" font-size="10.00">1</text>
</a>
</g>
</g>
<!-- dir_d462256f2f72f303235b8fb5b5a9f479&#45;&gt;dir_4ab6b4cc6a7edbff49100e9123df213f -->
<g id="edge23" class="edge"><title>dir_d462256f2f72f303235b8fb5b5a9f479&#45;&gt;dir_4ab6b4cc6a7edbff49100e9123df213f</title>
<path fill="none" stroke="black" d="M106.506,-235.27C173.788,-207.368 320.036,-144.912 333,-124 344.742,-105.06 338.028,-79.9 329.66,-61.1641"/>
<polygon fill="black" stroke="black" points="332.737,-59.4877 325.223,-52.0189 326.439,-62.5437 332.737,-59.4877"/>
<g id="a_edge23&#45;headlabel"><a xlink:href="dir_000141_000016.html" target="_top" xlink:title="3">
<text text-anchor="middle" x="336.861" y="-58.9822" font-family="Helvetica,sans-Serif" font-size="10.00">3</text>
</a>
</g>
</g>
<!-- dir_d269712cc31e133b892a3b3f6424741a&#45;&gt;dir_7924ba4398ae4560cd37376e44666c6d -->
<g id="edge3" class="edge"><title>dir_d269712cc31e133b892a3b3f6424741a&#45;&gt;dir_7924ba4398ae4560cd37376e44666c6d</title>
<path fill="none" stroke="black" d="M162.36,-87.6966C168.233,-79.4741 175.369,-69.4832 181.842,-60.4207"/>
<polygon fill="black" stroke="black" points="184.818,-62.276 187.783,-52.1043 179.122,-58.2073 184.818,-62.276"/>
<g id="a_edge3&#45;headlabel"><a xlink:href="dir_000104_000057.html" target="_top" xlink:title="4">
<text text-anchor="middle" x="185.039" y="-64.3514" font-family="Helvetica,sans-Serif" font-size="10.00">4</text>
</a>
</g>
</g>
<!-- dir_d269712cc31e133b892a3b3f6424741a&#45;&gt;dir_2801adc79bf3c286b1b479858d2cade4 -->
<g id="edge2" class="edge"><title>dir_d269712cc31e133b892a3b3f6424741a&#45;&gt;dir_2801adc79bf3c286b1b479858d2cade4</title>
<path fill="none" stroke="black" d="M155.895,-124.104C156.701,-131.791 156.937,-141.054 156.604,-149.665"/>
<polygon fill="black" stroke="black" points="153.109,-149.48 155.916,-159.697 160.092,-149.96 153.109,-149.48"/>
<g id="a_edge2&#45;headlabel"><a xlink:href="dir_000104_000066.html" target="_top" xlink:title="1">
<text text-anchor="middle" x="150.522" y="-143.2" font-family="Helvetica,sans-Serif" font-size="10.00">1</text>
</a>
</g>
</g>
<!-- dir_d269712cc31e133b892a3b3f6424741a&#45;&gt;dir_4ab6b4cc6a7edbff49100e9123df213f -->
<g id="edge1" class="edge"><title>dir_d269712cc31e133b892a3b3f6424741a&#45;&gt;dir_4ab6b4cc6a7edbff49100e9123df213f</title>
<path fill="none" stroke="black" d="M188.442,-87.9448C213.178,-78.1044 245.695,-65.1109 274,-52 275.356,-51.372 276.735,-50.7143 278.13,-50.0377"/>
<polygon fill="black" stroke="black" points="280.051,-52.9917 287.456,-45.4144 276.942,-46.72 280.051,-52.9917"/>
<g id="a_edge1&#45;headlabel"><a xlink:href="dir_000104_000016.html" target="_top" xlink:title="5">
<text text-anchor="middle" x="278.092" y="-54.6321" font-family="Helvetica,sans-Serif" font-size="10.00">5</text>
</a>
</g>
</g>
<!-- dir_047746f9f311f49446db9474b7431d0d&#45;&gt;dir_7924ba4398ae4560cd37376e44666c6d -->
<g id="edge22" class="edge"><title>dir_047746f9f311f49446db9474b7431d0d&#45;&gt;dir_7924ba4398ae4560cd37376e44666c6d</title>
<path fill="none" stroke="black" d="M230.112,-87.6966C225.511,-79.6436 219.94,-69.8945 214.847,-60.9824"/>
<polygon fill="black" stroke="black" points="217.774,-59.0503 209.774,-52.1043 211.696,-62.5233 217.774,-59.0503"/>
<g id="a_edge22&#45;headlabel"><a xlink:href="dir_000128_000057.html" target="_top" xlink:title="2">
<text text-anchor="middle" x="222.023" y="-58.2626" font-family="Helvetica,sans-Serif" font-size="10.00">2</text>
</a>
</g>
</g>
<!-- dir_047746f9f311f49446db9474b7431d0d&#45;&gt;dir_2801adc79bf3c286b1b479858d2cade4 -->
<g id="edge20" class="edge"><title>dir_047746f9f311f49446db9474b7431d0d&#45;&gt;dir_2801adc79bf3c286b1b479858d2cade4</title>
<path fill="none" stroke="black" d="M223.904,-124.104C213.429,-132.974 199.501,-143.941 186.515,-153.585"/>
<polygon fill="black" stroke="black" points="184.166,-150.967 178.163,-159.697 188.3,-156.616 184.166,-150.967"/>
<g id="a_edge20&#45;headlabel"><a xlink:href="dir_000128_000066.html" target="_top" xlink:title="4">
<text text-anchor="middle" x="185.39" y="-144.053" font-family="Helvetica,sans-Serif" font-size="10.00">4</text>
</a>
</g>
</g>
<!-- dir_047746f9f311f49446db9474b7431d0d&#45;&gt;dir_4ab6b4cc6a7edbff49100e9123df213f -->
<g id="edge19" class="edge"><title>dir_047746f9f311f49446db9474b7431d0d&#45;&gt;dir_4ab6b4cc6a7edbff49100e9123df213f</title>
<path fill="none" stroke="black" d="M258.539,-87.6966C267.803,-79.0503 279.162,-68.4486 289.257,-59.027"/>
<polygon fill="black" stroke="black" points="291.751,-61.4863 296.674,-52.1043 286.975,-56.3688 291.751,-61.4863"/>
<g id="a_edge19&#45;headlabel"><a xlink:href="dir_000128_000016.html" target="_top" xlink:title="1">
<text text-anchor="middle" x="291.061" y="-63.5145" font-family="Helvetica,sans-Serif" font-size="10.00">1</text>
</a>
</g>
</g>
<!-- dir_051dca18e802f8e9474f2e30d29c04e0 -->
<g id="node12" class="node"><title>dir_051dca18e802f8e9474f2e30d29c04e0</title>
<g id="a_node12"><a xlink:href="dir_051dca18e802f8e9474f2e30d29c04e0.html" target="_top" xlink:title="Detectors">
<polygon fill="none" stroke="red" points="350.25,-268 291.75,-268 291.75,-232 350.25,-232 350.25,-268"/>
<text text-anchor="middle" x="321" y="-247.5" font-family="Helvetica,sans-Serif" font-size="10.00">Detectors</text>
</a>
</g>
</g>
<!-- dir_047746f9f311f49446db9474b7431d0d&#45;&gt;dir_051dca18e802f8e9474f2e30d29c04e0 -->
<g id="edge21" class="edge"><title>dir_047746f9f311f49446db9474b7431d0d&#45;&gt;dir_051dca18e802f8e9474f2e30d29c04e0</title>
<path fill="none" stroke="black" d="M270.321,-118.47C288.228,-126.993 309.407,-140.538 320,-160 330.237,-178.807 329.684,-203.332 327.023,-221.873"/>
<polygon fill="black" stroke="black" points="323.571,-221.299 325.331,-231.746 330.47,-222.481 323.571,-221.299"/>
<g id="a_edge21&#45;headlabel"><a xlink:href="dir_000128_000028.html" target="_top" xlink:title="1">
<text text-anchor="middle" x="321.379" y="-214.776" font-family="Helvetica,sans-Serif" font-size="10.00">1</text>
</a>
</g>
</g>
<!-- dir_938f0f489a9afdd9521c88acbea7d897 -->
<g id="node10" class="node"><title>dir_938f0f489a9afdd9521c88acbea7d897</title>
<g id="a_node10"><a xlink:href="dir_938f0f489a9afdd9521c88acbea7d897.html" target="_top" xlink:title="TimeFrame">
<polygon fill="white" stroke="red" points="82,-196 16,-196 16,-160 82,-160 82,-196"/>
<text text-anchor="middle" x="49" y="-175.5" font-family="Helvetica,sans-Serif" font-size="10.00">TimeFrame</text>
</a>
</g>
</g>
<!-- dir_938f0f489a9afdd9521c88acbea7d897&#45;&gt;dir_183e7c4434404fe9096e1bd8673e1fcf -->
<g id="edge25" class="edge"><title>dir_938f0f489a9afdd9521c88acbea7d897&#45;&gt;dir_183e7c4434404fe9096e1bd8673e1fcf</title>
<path fill="none" stroke="black" d="M47.5169,-159.697C46.8557,-151.983 46.0611,-142.712 45.3239,-134.112"/>
<polygon fill="black" stroke="black" points="48.8074,-133.769 44.4661,-124.104 41.833,-134.367 48.8074,-133.769"/>
<g id="a_edge25&#45;headlabel"><a xlink:href="dir_000153_000060.html" target="_top" xlink:title="2">
<text text-anchor="middle" x="51.9432" y="-134.608" font-family="Helvetica,sans-Serif" font-size="10.00">2</text>
</a>
</g>
</g>
<!-- dir_4ab6b4cc6a7edbff49100e9123df213f&#45;&gt;dir_2801adc79bf3c286b1b479858d2cade4 -->
<g id="edge5" class="edge"><title>dir_4ab6b4cc6a7edbff49100e9123df213f&#45;&gt;dir_2801adc79bf3c286b1b479858d2cade4</title>
<path fill="none" stroke="black" d="M320.105,-52.3397C324.708,-71.8364 328.615,-103.449 313,-124 279.571,-167.997 246.252,-142.03 194,-160 192.403,-160.549 190.777,-161.12 189.139,-161.706"/>
<polygon fill="black" stroke="black" points="187.888,-158.437 179.711,-165.174 190.305,-165.007 187.888,-158.437"/>
<g id="a_edge5&#45;headlabel"><a xlink:href="dir_000016_000066.html" target="_top" xlink:title="2">
<text text-anchor="middle" x="190.282" y="-152.031" font-family="Helvetica,sans-Serif" font-size="10.00">2</text>
</a>
</g>
</g>
<!-- dir_4ab6b4cc6a7edbff49100e9123df213f&#45;&gt;dir_d269712cc31e133b892a3b3f6424741a -->
<g id="edge4" class="edge"><title>dir_4ab6b4cc6a7edbff49100e9123df213f&#45;&gt;dir_d269712cc31e133b892a3b3f6424741a</title>
<path fill="none" stroke="black" d="M291.613,-52.1793C262.26,-65.7557 228.44,-79.1914 201.114,-89.1147"/>
<polygon fill="black" stroke="black" points="199.597,-85.9403 191.361,-92.6054 201.956,-92.5308 199.597,-85.9403"/>
<g id="a_edge4&#45;headlabel"><a xlink:href="dir_000016_000104.html" target="_top" xlink:title="1">
<text text-anchor="middle" x="202.024" y="-79.5558" font-family="Helvetica,sans-Serif" font-size="10.00">1</text>
</a>
</g>
</g>
<!-- dir_051dca18e802f8e9474f2e30d29c04e0&#45;&gt;dir_7924ba4398ae4560cd37376e44666c6d -->
<g id="edge17" class="edge"><title>dir_051dca18e802f8e9474f2e30d29c04e0&#45;&gt;dir_7924ba4398ae4560cd37376e44666c6d</title>
<path fill="none" stroke="black" d="M329.864,-231.863C338.058,-213.636 347.747,-184.161 339,-160 321.251,-110.977 271.043,-74.2577 236.102,-53.7042"/>
<polygon fill="black" stroke="black" points="237.554,-50.5031 227.134,-48.5842 234.083,-56.582 237.554,-50.5031"/>
<g id="a_edge17&#45;headlabel"><a xlink:href="dir_000028_000057.html" target="_top" xlink:title="7">
<text text-anchor="middle" x="242.083" y="-47.3197" font-family="Helvetica,sans-Serif" font-size="10.00">7</text>
</a>
</g>
</g>
<!-- dir_051dca18e802f8e9474f2e30d29c04e0&#45;&gt;dir_2801adc79bf3c286b1b479858d2cade4 -->
<g id="edge13" class="edge"><title>dir_051dca18e802f8e9474f2e30d29c04e0&#45;&gt;dir_2801adc79bf3c286b1b479858d2cade4</title>
<path fill="none" stroke="black" d="M291.594,-235.7C288.697,-234.434 285.796,-233.182 283,-232 251.497,-218.683 215.434,-204.37 188.816,-193.978"/>
<polygon fill="black" stroke="black" points="190.051,-190.703 179.462,-190.337 187.511,-197.226 190.051,-190.703"/>
<g id="a_edge13&#45;headlabel"><a xlink:href="dir_000028_000066.html" target="_top" xlink:title="139">
<text text-anchor="middle" x="194.43" y="-186.862" font-family="Helvetica,sans-Serif" font-size="10.00">139</text>
</a>
</g>
</g>
<!-- dir_051dca18e802f8e9474f2e30d29c04e0&#45;&gt;dir_183e7c4434404fe9096e1bd8673e1fcf -->
<g id="edge14" class="edge"><title>dir_051dca18e802f8e9474f2e30d29c04e0&#45;&gt;dir_183e7c4434404fe9096e1bd8673e1fcf</title>
<path fill="none" stroke="black" d="M298.951,-231.829C273.36,-212.487 229.365,-181.016 188,-160 168.725,-150.207 116.156,-131.708 79.9132,-119.365"/>
<polygon fill="black" stroke="black" points="80.7592,-115.956 70.1649,-116.06 78.5112,-122.586 80.7592,-115.956"/>
<g id="a_edge14&#45;headlabel"><a xlink:href="dir_000028_000060.html" target="_top" xlink:title="5">
<text text-anchor="middle" x="85.0752" y="-111.922" font-family="Helvetica,sans-Serif" font-size="10.00">5</text>
</a>
</g>
</g>
<!-- dir_051dca18e802f8e9474f2e30d29c04e0&#45;&gt;dir_d462256f2f72f303235b8fb5b5a9f479 -->
<g id="edge16" class="edge"><title>dir_051dca18e802f8e9474f2e30d29c04e0&#45;&gt;dir_d462256f2f72f303235b8fb5b5a9f479</title>
<path fill="none" stroke="black" d="M307.48,-268.058C299.056,-277.743 287.306,-288.743 274,-294 212.409,-318.331 187.182,-316.778 125,-294 114.118,-290.014 103.947,-282.631 95.5374,-275.037"/>
<polygon fill="black" stroke="black" points="97.9672,-272.518 88.3398,-268.095 93.1075,-277.557 97.9672,-272.518"/>
<g id="a_edge16&#45;headlabel"><a xlink:href="dir_000028_000141.html" target="_top" xlink:title="2">
<text text-anchor="middle" x="102.525" y="-270.47" font-family="Helvetica,sans-Serif" font-size="10.00">2</text>
</a>
</g>
</g>
<!-- dir_051dca18e802f8e9474f2e30d29c04e0&#45;&gt;dir_d269712cc31e133b892a3b3f6424741a -->
<g id="edge11" class="edge"><title>dir_051dca18e802f8e9474f2e30d29c04e0&#45;&gt;dir_d269712cc31e133b892a3b3f6424741a</title>
<path fill="none" stroke="black" d="M312.796,-231.948C302.686,-212.423 283.877,-180.501 260,-160 242.714,-145.158 220.553,-133.437 200.658,-124.831"/>
<polygon fill="black" stroke="black" points="201.982,-121.591 191.405,-120.977 199.291,-128.053 201.982,-121.591"/>
<g id="a_edge11&#45;headlabel"><a xlink:href="dir_000028_000104.html" target="_top" xlink:title="9">
<text text-anchor="middle" x="206.392" y="-117.852" font-family="Helvetica,sans-Serif" font-size="10.00">9</text>
</a>
</g>
</g>
<!-- dir_051dca18e802f8e9474f2e30d29c04e0&#45;&gt;dir_047746f9f311f49446db9474b7431d0d -->
<g id="edge15" class="edge"><title>dir_051dca18e802f8e9474f2e30d29c04e0&#45;&gt;dir_047746f9f311f49446db9474b7431d0d</title>
<path fill="none" stroke="black" d="M319.494,-231.811C317.206,-213.013 311.576,-182.563 298,-160 291.407,-149.043 281.865,-139.003 272.417,-130.678"/>
<polygon fill="black" stroke="black" points="274.484,-127.844 264.57,-124.106 269.989,-133.21 274.484,-127.844"/>
<g id="a_edge15&#45;headlabel"><a xlink:href="dir_000028_000128.html" target="_top" xlink:title="134">
<text text-anchor="middle" x="279.063" y="-125.475" font-family="Helvetica,sans-Serif" font-size="10.00">134</text>
</a>
</g>
</g>
<!-- dir_051dca18e802f8e9474f2e30d29c04e0&#45;&gt;dir_4ab6b4cc6a7edbff49100e9123df213f -->
<g id="edge12" class="edge"><title>dir_051dca18e802f8e9474f2e30d29c04e0&#45;&gt;dir_4ab6b4cc6a7edbff49100e9123df213f</title>
<path fill="none" stroke="black" d="M350.633,-243.17C375.82,-236.479 410.45,-222.778 427,-196 452.235,-155.169 452.676,-128.556 427,-88 410.747,-62.3273 378.332,-48.8497 352.539,-41.9254"/>
<polygon fill="black" stroke="black" points="353.217,-38.4879 342.67,-39.5011 351.547,-45.2858 353.217,-38.4879"/>
<g id="a_edge12&#45;headlabel"><a xlink:href="dir_000028_000016.html" target="_top" xlink:title="70">
<text text-anchor="middle" x="357.385" y="-34.0881" font-family="Helvetica,sans-Serif" font-size="10.00">70</text>
</a>
</g>
</g>
</g>
</svg>
