<?xml version="1.0" encoding="UTF-8" standalone="no"?>
<!DOCTYPE svg PUBLIC "-//W3C//DTD SVG 1.1//EN"
 "http://www.w3.org/Graphics/SVG/1.1/DTD/svg11.dtd">
<!-- Generated by graphviz version 2.36.0 (20140111.2315)
 -->
<!-- Title: /home/travis/build/AliceO2Group/AliceO2/Detectors/gconfig Pages: 1 -->
<svg width="262pt" height="303pt"
 viewBox="0.00 0.00 262.41 303.00" xmlns="http://www.w3.org/2000/svg" xmlns:xlink="http://www.w3.org/1999/xlink">
<g id="graph0" class="graph" transform="scale(1 1) rotate(0) translate(4 299)">
<title>/home/travis/build/AliceO2Group/AliceO2/Detectors/gconfig</title>
<g id="clust1" class="cluster"><title>clusterdir_051dca18e802f8e9474f2e30d29c04e0</title>
<g id="a_clust1"><a xlink:href="dir_051dca18e802f8e9474f2e30d29c04e0.html" target="_top" xlink:title="Detectors">
<polygon fill="#ddddee" stroke="black" points="8,-128 8,-287 166,-287 166,-128 8,-128"/>
<text text-anchor="middle" x="87" y="-275" font-family="Helvetica,sans-Serif" font-size="10.00">Detectors</text>
</a>
</g>
</g>
<g id="clust2" class="cluster"><title>clusterdir_fda58d415f46ed5554e220ec8997f6b0</title>
<g id="a_clust2"><a xlink:href="dir_fda58d415f46ed5554e220ec8997f6b0.html" target="_top">
<polygon fill="#eeeeff" stroke="black" points="16,-136 16,-260 158,-260 158,-136 16,-136"/>
</a>
</g>
</g>
<!-- dir_fda58d415f46ed5554e220ec8997f6b0 -->
<g id="node1" class="node"><title>dir_fda58d415f46ed5554e220ec8997f6b0</title>
<text text-anchor="middle" x="123" y="-231.5" font-family="Helvetica,sans-Serif" font-size="10.00">gconfig</text>
</g>
<!-- dir_b37385ac8c40ffd9e301f70e181b5ea7 -->
<g id="node2" class="node"><title>dir_b37385ac8c40ffd9e301f70e181b5ea7</title>
<g id="a_node2"><a xlink:href="dir_b37385ac8c40ffd9e301f70e181b5ea7.html" target="_top" xlink:title="include">
<polygon fill="white" stroke="red" points="78,-180 24,-180 24,-144 78,-144 78,-180"/>
<text text-anchor="middle" x="51" y="-159.5" font-family="Helvetica,sans-Serif" font-size="10.00">include</text>
</a>
</g>
</g>
<!-- dir_c0beb4acc36ff406387963d5baa86235 -->
<g id="node3" class="node"><title>dir_c0beb4acc36ff406387963d5baa86235</title>
<g id="a_node3"><a xlink:href="dir_c0beb4acc36ff406387963d5baa86235.html" target="_top" xlink:title="src">
<polygon fill="white" stroke="black" points="78,-252 24,-252 24,-216 78,-216 78,-252"/>
<text text-anchor="middle" x="51" y="-231.5" font-family="Helvetica,sans-Serif" font-size="10.00">src</text>
</a>
</g>
</g>
<!-- dir_c0beb4acc36ff406387963d5baa86235&#45;&gt;dir_b37385ac8c40ffd9e301f70e181b5ea7 -->
<g id="edge3" class="edge"><title>dir_c0beb4acc36ff406387963d5baa86235&#45;&gt;dir_b37385ac8c40ffd9e301f70e181b5ea7</title>
<path fill="none" stroke="black" d="M51,-215.697C51,-207.983 51,-198.712 51,-190.112"/>
<polygon fill="black" stroke="black" points="54.5001,-190.104 51,-180.104 47.5001,-190.104 54.5001,-190.104"/>
<g id="a_edge3&#45;headlabel"><a xlink:href="dir_000257_000255.html" target="_top" xlink:title="2">
<text text-anchor="middle" x="57.3393" y="-191.199" font-family="Helvetica,sans-Serif" font-size="10.00">2</text>
</a>
</g>
</g>
<!-- dir_37c90836491b695b472bf98d1be8336b -->
<g id="node4" class="node"><title>dir_37c90836491b695b472bf98d1be8336b</title>
<g id="a_node4"><a xlink:href="dir_37c90836491b695b472bf98d1be8336b.html" target="_top" xlink:title="Base">
<polygon fill="none" stroke="red" points="228,-108 174,-108 174,-72 228,-72 228,-108"/>
<text text-anchor="middle" x="201" y="-87.5" font-family="Helvetica,sans-Serif" font-size="10.00">Base</text>
</a>
</g>
</g>
<!-- dir_c0beb4acc36ff406387963d5baa86235&#45;&gt;dir_37c90836491b695b472bf98d1be8336b -->
<g id="edge4" class="edge"><title>dir_c0beb4acc36ff406387963d5baa86235&#45;&gt;dir_37c90836491b695b472bf98d1be8336b</title>
<path fill="none" stroke="black" d="M69.0935,-215.871C95.5592,-190.817 144.959,-144.052 175.219,-115.406"/>
<polygon fill="black" stroke="black" points="177.986,-117.606 182.842,-108.189 173.174,-112.522 177.986,-117.606"/>
<g id="a_edge4&#45;headlabel"><a xlink:href="dir_000257_000158.html" target="_top" xlink:title="2">
<text text-anchor="middle" x="177.328" y="-119.639" font-family="Helvetica,sans-Serif" font-size="10.00">2</text>
</a>
</g>
</g>
<!-- dir_f01815b857f9009bea48e2cb39492245 -->
<g id="node5" class="node"><title>dir_f01815b857f9009bea48e2cb39492245</title>
<g id="a_node5"><a xlink:href="dir_f01815b857f9009bea48e2cb39492245.html" target="_top" xlink:title="Passive">
<polygon fill="none" stroke="red" points="228,-180 174,-180 174,-144 228,-144 228,-180"/>
<text text-anchor="middle" x="201" y="-159.5" font-family="Helvetica,sans-Serif" font-size="10.00">Passive</text>
</a>
</g>
</g>
<!-- dir_c0beb4acc36ff406387963d5baa86235&#45;&gt;dir_f01815b857f9009bea48e2cb39492245 -->
<g id="edge5" class="edge"><title>dir_c0beb4acc36ff406387963d5baa86235&#45;&gt;dir_f01815b857f9009bea48e2cb39492245</title>
<path fill="none" stroke="black" d="M78.1186,-220.173C81.1142,-218.762 84.1209,-217.349 87,-216 112.94,-203.845 142.247,-190.223 164.65,-179.832"/>
<polygon fill="black" stroke="black" points="166.199,-182.972 173.799,-175.591 163.254,-176.621 166.199,-182.972"/>
<g id="a_edge5&#45;headlabel"><a xlink:href="dir_000257_000333.html" target="_top" xlink:title="2">
<text text-anchor="middle" x="164.132" y="-184.56" font-family="Helvetica,sans-Serif" font-size="10.00">2</text>
</a>
</g>
</g>
<!-- dir_2171f7ec022c5423887b07c69b2f5b48 -->
<g id="node6" class="node"><title>dir_2171f7ec022c5423887b07c69b2f5b48</title>
<g id="a_node6"><a xlink:href="dir_2171f7ec022c5423887b07c69b2f5b48.html" target="_top" xlink:title="DataFormats">
<polygon fill="none" stroke="red" points="238,-36 164,-36 164,-0 238,-0 238,-36"/>
<text text-anchor="middle" x="201" y="-15.5" font-family="Helvetica,sans-Serif" font-size="10.00">DataFormats</text>
</a>
</g>
</g>
<!-- dir_c0beb4acc36ff406387963d5baa86235&#45;&gt;dir_2171f7ec022c5423887b07c69b2f5b48 -->
<g id="edge6" class="edge"><title>dir_c0beb4acc36ff406387963d5baa86235&#45;&gt;dir_2171f7ec022c5423887b07c69b2f5b48</title>
<path fill="none" stroke="black" d="M78.273,-219.411C81.1851,-218.174 84.1312,-217.01 87,-216 151.672,-193.242 194.553,-233.84 237,-180 266.718,-142.306 251.108,-117.88 237,-72 233.991,-62.2153 228.493,-52.6161 222.684,-44.3336"/>
<polygon fill="black" stroke="black" points="225.407,-42.1306 216.61,-36.2264 219.805,-46.3279 225.407,-42.1306"/>
<g id="a_edge6&#45;headlabel"><a xlink:href="dir_000257_000056.html" target="_top" xlink:title="2">
<text text-anchor="middle" x="229.835" y="-40.8048" font-family="Helvetica,sans-Serif" font-size="10.00">2</text>
</a>
</g>
</g>
<!-- dir_37c90836491b695b472bf98d1be8336b&#45;&gt;dir_2171f7ec022c5423887b07c69b2f5b48 -->
<g id="edge1" class="edge"><title>dir_37c90836491b695b472bf98d1be8336b&#45;&gt;dir_2171f7ec022c5423887b07c69b2f5b48</title>
<path fill="none" stroke="black" d="M195.084,-71.6966C194.289,-63.9827 194.062,-54.7125 194.405,-46.1124"/>
<polygon fill="black" stroke="black" points="197.898,-46.3243 195.105,-36.1043 190.915,-45.8356 197.898,-46.3243"/>
<g id="a_edge1&#45;headlabel"><a xlink:href="dir_000158_000056.html" target="_top" xlink:title="5">
<text text-anchor="middle" x="200.48" y="-47.6083" font-family="Helvetica,sans-Serif" font-size="10.00">5</text>
</a>
</g>
</g>
<!-- dir_f01815b857f9009bea48e2cb39492245&#45;&gt;dir_37c90836491b695b472bf98d1be8336b -->
<g id="edge2" class="edge"><title>dir_f01815b857f9009bea48e2cb39492245&#45;&gt;dir_37c90836491b695b472bf98d1be8336b</title>
<path fill="none" stroke="black" d="M201,-143.697C201,-135.983 201,-126.712 201,-118.112"/>
<polygon fill="black" stroke="black" points="204.5,-118.104 201,-108.104 197.5,-118.104 204.5,-118.104"/>
<g id="a_edge2&#45;headlabel"><a xlink:href="dir_000333_000158.html" target="_top" xlink:title="16">
<text text-anchor="middle" x="207.339" y="-119.199" font-family="Helvetica,sans-Serif" font-size="10.00">16</text>
</a>
</g>
</g>
<!-- dir_2171f7ec022c5423887b07c69b2f5b48&#45;&gt;dir_37c90836491b695b472bf98d1be8336b -->
<g id="edge7" class="edge"><title>dir_2171f7ec022c5423887b07c69b2f5b48&#45;&gt;dir_37c90836491b695b472bf98d1be8336b</title>
<path fill="none" stroke="black" d="M206.895,-36.1043C207.701,-43.7913 207.937,-53.0537 207.604,-61.6651"/>
<polygon fill="black" stroke="black" points="204.109,-61.4805 206.916,-71.6966 211.092,-61.9597 204.109,-61.4805"/>
<g id="a_edge7&#45;headlabel"><a xlink:href="dir_000056_000158.html" target="_top" xlink:title="1">
<text text-anchor="middle" x="201.522" y="-55.2" font-family="Helvetica,sans-Serif" font-size="10.00">1</text>
</a>
</g>
</g>
</g>
</svg>
