<?xml version="1.0" encoding="UTF-8" standalone="no"?>
<!DOCTYPE svg PUBLIC "-//W3C//DTD SVG 1.1//EN"
 "http://www.w3.org/Graphics/SVG/1.1/DTD/svg11.dtd">
<!-- Generated by graphviz version 2.36.0 (20140111.2315)
 -->
<!-- Title: /home/travis/build/AliceO2Group/AliceO2/Detectors/TPC Pages: 1 -->
<!--zoomable 519 -->
<svg id="main" version="1.1" xmlns="http://www.w3.org/2000/svg" xmlns:xlink="http://www.w3.org/1999/xlink" xml:space="preserve" onload="init(evt)">
<style type="text/css"><![CDATA[
.edge:hover path { stroke: red; }
.edge:hover polygon { stroke: red; fill: red; }
]]></style>
<script type="text/javascript"><![CDATA[
var edges = document.getElementsByTagName('g');
if (edges && edges.length) {
  for (var i=0;i<edges.length;i++) {
    if (edges[i].id.substr(0,4)=='edge') {
      edges[i].setAttribute('class','edge');
    }
  }
}
]]></script>
        <defs>
                <circle id="rim" cx="0" cy="0" r="7"/>
                <circle id="rim2" cx="0" cy="0" r="3.5"/>
                <g id="zoomPlus">
                        <use xlink:href="#rim" fill="#404040">
                                <set attributeName="fill" to="#808080" begin="zoomplus.mouseover" end="zoomplus.mouseout"/>
                        </use>
                        <path d="M-4,0h8M0,-4v8" fill="none" stroke="white" stroke-width="1.5" pointer-events="none"/>
                </g>
                <g id="zoomMin">
                        <use xlink:href="#rim" fill="#404040">
                                <set attributeName="fill" to="#808080" begin="zoomminus.mouseover" end="zoomminus.mouseout"/>
                        </use>
                        <path d="M-4,0h8" fill="none" stroke="white" stroke-width="1.5" pointer-events="none"/>
                </g>
                <g id="dirArrow">
                        <path fill="none" stroke="white" stroke-width="1.5" d="M0,-3.0v7 M-2.5,-0.5L0,-3.0L2.5,-0.5"/>
                </g>
               <g id="resetDef">
                       <use xlink:href="#rim2" fill="#404040">
                               <set attributeName="fill" to="#808080" begin="reset.mouseover" end="reset.mouseout"/>
                       </use>
               </g>
        </defs>

<script type="text/javascript">
var viewWidth = 662;
var viewHeight = 519;
var sectionId = 'dynsection-0';
</script>
<script xlink:href="svgpan.js"/>
<svg id="graph" class="graph">
<g id="viewport">
<title>/home/travis/build/AliceO2Group/AliceO2/Detectors/TPC</title>
<g id="clust1" class="cluster"><title>clusterdir_051dca18e802f8e9474f2e30d29c04e0</title>
<g id="a_clust1"><a xlink:href="dir_051dca18e802f8e9474f2e30d29c04e0.html" target="_top" xlink:title="Detectors">
<polygon fill="#ddddee" stroke="black" points="8,-128 8,-503 216,-503 216,-128 8,-128"/>
<text text-anchor="middle" x="112" y="-491" font-family="Helvetica,sans-Serif" font-size="10.00">Detectors</text>
</a>
</g>
</g>
<g id="clust2" class="cluster"><title>clusterdir_a597e8e061b11201a1dff411feb10d0b</title>
<g id="a_clust2"><a xlink:href="dir_a597e8e061b11201a1dff411feb10d0b.html" target="_top">
<polygon fill="#eeeeff" stroke="black" points="16,-136 16,-476 208,-476 208,-136 16,-136"/>
</a>
</g>
</g>
<!-- dir_a597e8e061b11201a1dff411feb10d0b -->
<g id="node1" class="node"><title>dir_a597e8e061b11201a1dff411feb10d0b</title>
<text text-anchor="middle" x="159" y="-447.5" font-family="Helvetica,sans-Serif" font-size="10.00">TPC</text>
</g>
<!-- dir_677b030cc750909e4cd27413873678d8 -->
<g id="node2" class="node"><title>dir_677b030cc750909e4cd27413873678d8</title>
<g id="a_node2"><a xlink:href="dir_677b030cc750909e4cd27413873678d8.html" target="_top" xlink:title="base">
<polygon fill="white" stroke="red" points="146,-180 92,-180 92,-144 146,-144 146,-180"/>
<text text-anchor="middle" x="119" y="-159.5" font-family="Helvetica,sans-Serif" font-size="10.00">base</text>
</a>
</g>
</g>
<!-- dir_6af676bf18881990e4083e191d0e63e0 -->
<g id="node10" class="node"><title>dir_6af676bf18881990e4083e191d0e63e0</title>
<g id="a_node10"><a xlink:href="dir_6af676bf18881990e4083e191d0e63e0.html" target="_top" xlink:title="CCDB">
<polygon fill="none" stroke="red" points="146,-108 92,-108 92,-72 146,-72 146,-108"/>
<text text-anchor="middle" x="119" y="-87.5" font-family="Helvetica,sans-Serif" font-size="10.00">CCDB</text>
</a>
</g>
</g>
<!-- dir_677b030cc750909e4cd27413873678d8&#45;&gt;dir_6af676bf18881990e4083e191d0e63e0 -->
<g id="edge22" class="edge"><title>dir_677b030cc750909e4cd27413873678d8&#45;&gt;dir_6af676bf18881990e4083e191d0e63e0</title>
<path fill="none" stroke="black" d="M119,-143.697C119,-135.983 119,-126.712 119,-118.112"/>
<polygon fill="black" stroke="black" points="122.5,-118.104 119,-108.104 115.5,-118.104 122.5,-118.104"/>
<g id="a_edge22&#45;headlabel"><a xlink:href="dir_000229_000004.html" target="_top" xlink:title="4">
<text text-anchor="middle" x="125.339" y="-119.199" font-family="Helvetica,sans-Serif" font-size="10.00">4</text>
</a>
</g>
</g>
<!-- dir_2171f7ec022c5423887b07c69b2f5b48 -->
<g id="node14" class="node"><title>dir_2171f7ec022c5423887b07c69b2f5b48</title>
<g id="a_node14"><a xlink:href="dir_2171f7ec022c5423887b07c69b2f5b48.html" target="_top" xlink:title="DataFormats">
<polygon fill="none" stroke="red" points="379,-180 305,-180 305,-144 379,-144 379,-180"/>
<text text-anchor="middle" x="342" y="-159.5" font-family="Helvetica,sans-Serif" font-size="10.00">DataFormats</text>
</a>
</g>
</g>
<!-- dir_677b030cc750909e4cd27413873678d8&#45;&gt;dir_2171f7ec022c5423887b07c69b2f5b48 -->
<g id="edge23" class="edge"><title>dir_677b030cc750909e4cd27413873678d8&#45;&gt;dir_2171f7ec022c5423887b07c69b2f5b48</title>
<path fill="none" stroke="black" d="M146.004,-162C195.545,-162 245.087,-162 294.629,-162"/>
<polygon fill="black" stroke="black" points="294.868,-165.5 304.868,-162 294.868,-158.5 294.868,-165.5"/>
<g id="a_edge23&#45;headlabel"><a xlink:href="dir_000229_000056.html" target="_top" xlink:title="13">
<text text-anchor="middle" x="291.273" y="-165.839" font-family="Helvetica,sans-Serif" font-size="10.00">13</text>
</a>
</g>
</g>
<!-- dir_4995562033b321477cfe3c34a14a5189 -->
<g id="node3" class="node"><title>dir_4995562033b321477cfe3c34a14a5189</title>
<g id="a_node3"><a xlink:href="dir_4995562033b321477cfe3c34a14a5189.html" target="_top" xlink:title="calibration">
<polygon fill="white" stroke="red" points="125.25,-396 64.75,-396 64.75,-360 125.25,-360 125.25,-396"/>
<text text-anchor="middle" x="95" y="-375.5" font-family="Helvetica,sans-Serif" font-size="10.00">calibration</text>
</a>
</g>
</g>
<!-- dir_4995562033b321477cfe3c34a14a5189&#45;&gt;dir_677b030cc750909e4cd27413873678d8 -->
<g id="edge13" class="edge"><title>dir_4995562033b321477cfe3c34a14a5189&#45;&gt;dir_677b030cc750909e4cd27413873678d8</title>
<path fill="none" stroke="black" d="M77.2669,-359.599C68.7614,-349.998 59.4675,-337.336 55,-324 49.9175,-308.829 51.2496,-303.554 55,-288 63.8679,-251.221 85.5003,-213.102 101.164,-188.78"/>
<polygon fill="black" stroke="black" points="104.26,-190.443 106.837,-180.166 98.4138,-186.593 104.26,-190.443"/>
<g id="a_edge13&#45;headlabel"><a xlink:href="dir_000342_000229.html" target="_top" xlink:title="10">
<text text-anchor="middle" x="104.655" y="-192.507" font-family="Helvetica,sans-Serif" font-size="10.00">10</text>
</a>
</g>
</g>
<!-- dir_a5de047958dd458e809773c6ffaa8478 -->
<g id="node5" class="node"><title>dir_a5de047958dd458e809773c6ffaa8478</title>
<g id="a_node5"><a xlink:href="dir_a5de047958dd458e809773c6ffaa8478.html" target="_top" xlink:title="reconstruction">
<polygon fill="white" stroke="red" points="142,-324 64,-324 64,-288 142,-288 142,-324"/>
<text text-anchor="middle" x="103" y="-303.5" font-family="Helvetica,sans-Serif" font-size="10.00">reconstruction</text>
</a>
</g>
</g>
<!-- dir_4995562033b321477cfe3c34a14a5189&#45;&gt;dir_a5de047958dd458e809773c6ffaa8478 -->
<g id="edge15" class="edge"><title>dir_4995562033b321477cfe3c34a14a5189&#45;&gt;dir_a5de047958dd458e809773c6ffaa8478</title>
<path fill="none" stroke="black" d="M91.0618,-359.697C91.1477,-351.983 91.9806,-342.712 93.3062,-334.112"/>
<polygon fill="black" stroke="black" points="96.7801,-334.573 95.1502,-324.104 89.896,-333.305 96.7801,-334.573"/>
<g id="a_edge15&#45;headlabel"><a xlink:href="dir_000342_000276.html" target="_top" xlink:title="3">
<text text-anchor="middle" x="98.9211" y="-336.123" font-family="Helvetica,sans-Serif" font-size="10.00">3</text>
</a>
</g>
</g>
<!-- dir_4ab6b4cc6a7edbff49100e9123df213f -->
<g id="node9" class="node"><title>dir_4ab6b4cc6a7edbff49100e9123df213f</title>
<g id="a_node9"><a xlink:href="dir_4ab6b4cc6a7edbff49100e9123df213f.html" target="_top" xlink:title="Common">
<polygon fill="none" stroke="red" points="337.5,-36 282.5,-36 282.5,-0 337.5,-0 337.5,-36"/>
<text text-anchor="middle" x="310" y="-15.5" font-family="Helvetica,sans-Serif" font-size="10.00">Common</text>
</a>
</g>
</g>
<!-- dir_4995562033b321477cfe3c34a14a5189&#45;&gt;dir_4ab6b4cc6a7edbff49100e9123df213f -->
<g id="edge14" class="edge"><title>dir_4995562033b321477cfe3c34a14a5189&#45;&gt;dir_4ab6b4cc6a7edbff49100e9123df213f</title>
<path fill="none" stroke="black" d="M114.323,-359.979C125.43,-349.888 139.43,-336.638 151,-324 178.559,-293.895 186.976,-286.983 208,-252 250.416,-181.422 285.159,-90.0368 300.902,-45.605"/>
<polygon fill="black" stroke="black" points="304.226,-46.7035 304.23,-36.1087 297.62,-44.3886 304.226,-46.7035"/>
<g id="a_edge14&#45;headlabel"><a xlink:href="dir_000342_000016.html" target="_top" xlink:title="3">
<text text-anchor="middle" x="305.717" y="-48.5348" font-family="Helvetica,sans-Serif" font-size="10.00">3</text>
</a>
</g>
</g>
<!-- dir_4995562033b321477cfe3c34a14a5189&#45;&gt;dir_2171f7ec022c5423887b07c69b2f5b48 -->
<g id="edge16" class="edge"><title>dir_4995562033b321477cfe3c34a14a5189&#45;&gt;dir_2171f7ec022c5423887b07c69b2f5b48</title>
<path fill="none" stroke="black" d="M125.429,-363.88C152.89,-351.74 190.924,-334.093 204,-324 255.363,-284.353 301.413,-222.984 325.121,-188.596"/>
<polygon fill="black" stroke="black" points="328.198,-190.295 330.929,-180.058 322.41,-186.358 328.198,-190.295"/>
<g id="a_edge16&#45;headlabel"><a xlink:href="dir_000342_000056.html" target="_top" xlink:title="3">
<text text-anchor="middle" x="328.524" y="-192.364" font-family="Helvetica,sans-Serif" font-size="10.00">3</text>
</a>
</g>
</g>
<!-- dir_c8aedc994017b243e124cedd663b3bbb -->
<g id="node4" class="node"><title>dir_c8aedc994017b243e124cedd663b3bbb</title>
<g id="a_node4"><a xlink:href="dir_c8aedc994017b243e124cedd663b3bbb.html" target="_top" xlink:title="monitor">
<polygon fill="white" stroke="red" points="100,-468 46,-468 46,-432 100,-432 100,-468"/>
<text text-anchor="middle" x="73" y="-447.5" font-family="Helvetica,sans-Serif" font-size="10.00">monitor</text>
</a>
</g>
</g>
<!-- dir_c8aedc994017b243e124cedd663b3bbb&#45;&gt;dir_677b030cc750909e4cd27413873678d8 -->
<g id="edge33" class="edge"><title>dir_c8aedc994017b243e124cedd663b3bbb&#45;&gt;dir_677b030cc750909e4cd27413873678d8</title>
<path fill="none" stroke="black" d="M62.3749,-431.556C56.9021,-421.543 50.8021,-408.509 48,-396 37.5074,-349.161 42.7624,-335.713 48,-288 51.5769,-255.415 47.9603,-244.588 64,-216 70.0221,-205.267 78.9068,-195.349 87.787,-187.068"/>
<polygon fill="black" stroke="black" points="90.3452,-189.478 95.5176,-180.231 85.7079,-184.234 90.3452,-189.478"/>
<g id="a_edge33&#45;headlabel"><a xlink:href="dir_000347_000229.html" target="_top" xlink:title="11">
<text text-anchor="middle" x="89.5334" y="-191.486" font-family="Helvetica,sans-Serif" font-size="10.00">11</text>
</a>
</g>
</g>
<!-- dir_c8aedc994017b243e124cedd663b3bbb&#45;&gt;dir_4995562033b321477cfe3c34a14a5189 -->
<g id="edge32" class="edge"><title>dir_c8aedc994017b243e124cedd663b3bbb&#45;&gt;dir_4995562033b321477cfe3c34a14a5189</title>
<path fill="none" stroke="black" d="M78.4382,-431.697C80.8892,-423.898 83.8402,-414.509 86.568,-405.829"/>
<polygon fill="black" stroke="black" points="89.965,-406.694 89.6244,-396.104 83.287,-404.595 89.965,-406.694"/>
<g id="a_edge32&#45;headlabel"><a xlink:href="dir_000347_000342.html" target="_top" xlink:title="1">
<text text-anchor="middle" x="91.596" y="-408.474" font-family="Helvetica,sans-Serif" font-size="10.00">1</text>
</a>
</g>
</g>
<!-- dir_c8aedc994017b243e124cedd663b3bbb&#45;&gt;dir_a5de047958dd458e809773c6ffaa8478 -->
<g id="edge34" class="edge"><title>dir_c8aedc994017b243e124cedd663b3bbb&#45;&gt;dir_a5de047958dd458e809773c6ffaa8478</title>
<path fill="none" stroke="black" d="M63.9398,-431.789C55.5816,-413.501 45.7568,-383.976 55,-360 59.1028,-349.358 66.4431,-339.528 74.1686,-331.298"/>
<polygon fill="black" stroke="black" points="76.6699,-333.747 81.29,-324.213 71.7325,-328.785 76.6699,-333.747"/>
<g id="a_edge34&#45;headlabel"><a xlink:href="dir_000347_000276.html" target="_top" xlink:title="2">
<text text-anchor="middle" x="76.1244" y="-335.795" font-family="Helvetica,sans-Serif" font-size="10.00">2</text>
</a>
</g>
</g>
<!-- dir_c8aedc994017b243e124cedd663b3bbb&#45;&gt;dir_2171f7ec022c5423887b07c69b2f5b48 -->
<g id="edge35" class="edge"><title>dir_c8aedc994017b243e124cedd663b3bbb&#45;&gt;dir_2171f7ec022c5423887b07c69b2f5b48</title>
<path fill="none" stroke="black" d="M100.173,-438.419C107.486,-435.943 115.461,-433.573 123,-432 216.87,-412.421 478.372,-456.212 553,-396 591.124,-365.24 593.098,-333.52 575,-288 558.738,-247.098 544.237,-239.469 507,-216 470.628,-193.076 423.452,-179.23 388.865,-171.471"/>
<polygon fill="black" stroke="black" points="389.526,-168.033 379.013,-169.348 388.052,-174.876 389.526,-168.033"/>
<g id="a_edge35&#45;headlabel"><a xlink:href="dir_000347_000056.html" target="_top" xlink:title="1">
<text text-anchor="middle" x="393.638" y="-163.515" font-family="Helvetica,sans-Serif" font-size="10.00">1</text>
</a>
</g>
</g>
<!-- dir_a5de047958dd458e809773c6ffaa8478&#45;&gt;dir_677b030cc750909e4cd27413873678d8 -->
<g id="edge27" class="edge"><title>dir_a5de047958dd458e809773c6ffaa8478&#45;&gt;dir_677b030cc750909e4cd27413873678d8</title>
<path fill="none" stroke="black" d="M104.93,-287.871C107.657,-263.67 112.666,-219.211 115.913,-190.393"/>
<polygon fill="black" stroke="black" points="119.421,-190.518 117.063,-180.189 112.465,-189.734 119.421,-190.518"/>
<g id="a_edge27&#45;headlabel"><a xlink:href="dir_000276_000229.html" target="_top" xlink:title="39">
<text text-anchor="middle" x="121.84" y="-191.908" font-family="Helvetica,sans-Serif" font-size="10.00">39</text>
</a>
</g>
</g>
<!-- dir_a5de047958dd458e809773c6ffaa8478&#45;&gt;dir_4995562033b321477cfe3c34a14a5189 -->
<g id="edge26" class="edge"><title>dir_a5de047958dd458e809773c6ffaa8478&#45;&gt;dir_4995562033b321477cfe3c34a14a5189</title>
<path fill="none" stroke="black" d="M106.94,-324.104C106.867,-331.791 106.045,-341.054 104.728,-349.665"/>
<polygon fill="black" stroke="black" points="101.25,-349.23 102.893,-359.697 108.135,-350.49 101.25,-349.23"/>
<g id="a_edge26&#45;headlabel"><a xlink:href="dir_000276_000342.html" target="_top" xlink:title="1">
<text text-anchor="middle" x="99.1033" y="-342.683" font-family="Helvetica,sans-Serif" font-size="10.00">1</text>
</a>
</g>
</g>
<!-- dir_7f309bec8670bb3fb666e7e061b24659 -->
<g id="node6" class="node"><title>dir_7f309bec8670bb3fb666e7e061b24659</title>
<g id="a_node6"><a xlink:href="dir_7f309bec8670bb3fb666e7e061b24659.html" target="_top" xlink:title="simulation">
<polygon fill="white" stroke="red" points="199.25,-252 138.75,-252 138.75,-216 199.25,-216 199.25,-252"/>
<text text-anchor="middle" x="169" y="-231.5" font-family="Helvetica,sans-Serif" font-size="10.00">simulation</text>
</a>
</g>
</g>
<!-- dir_a5de047958dd458e809773c6ffaa8478&#45;&gt;dir_7f309bec8670bb3fb666e7e061b24659 -->
<g id="edge25" class="edge"><title>dir_a5de047958dd458e809773c6ffaa8478&#45;&gt;dir_7f309bec8670bb3fb666e7e061b24659</title>
<path fill="none" stroke="black" d="M119.315,-287.697C127.307,-279.22 137.072,-268.864 145.822,-259.583"/>
<polygon fill="black" stroke="black" points="148.559,-261.781 152.873,-252.104 143.466,-256.979 148.559,-261.781"/>
<g id="a_edge25&#45;headlabel"><a xlink:href="dir_000276_000192.html" target="_top" xlink:title="1">
<text text-anchor="middle" x="148.159" y="-263.844" font-family="Helvetica,sans-Serif" font-size="10.00">1</text>
</a>
</g>
</g>
<!-- dir_a5de047958dd458e809773c6ffaa8478&#45;&gt;dir_2171f7ec022c5423887b07c69b2f5b48 -->
<g id="edge28" class="edge"><title>dir_a5de047958dd458e809773c6ffaa8478&#45;&gt;dir_2171f7ec022c5423887b07c69b2f5b48</title>
<path fill="none" stroke="black" d="M139.525,-287.887C159.977,-277.978 185.76,-264.937 208,-252 243.724,-231.219 282.924,-204.723 309.643,-186.064"/>
<polygon fill="black" stroke="black" points="311.684,-188.908 317.86,-180.299 307.663,-183.178 311.684,-188.908"/>
<g id="a_edge28&#45;headlabel"><a xlink:href="dir_000276_000056.html" target="_top" xlink:title="60">
<text text-anchor="middle" x="310.373" y="-190.797" font-family="Helvetica,sans-Serif" font-size="10.00">60</text>
</a>
</g>
</g>
<!-- dir_7f309bec8670bb3fb666e7e061b24659&#45;&gt;dir_677b030cc750909e4cd27413873678d8 -->
<g id="edge2" class="edge"><title>dir_7f309bec8670bb3fb666e7e061b24659&#45;&gt;dir_677b030cc750909e4cd27413873678d8</title>
<path fill="none" stroke="black" d="M156.64,-215.697C150.767,-207.474 143.631,-197.483 137.158,-188.421"/>
<polygon fill="black" stroke="black" points="139.878,-186.207 131.217,-180.104 134.182,-190.276 139.878,-186.207"/>
<g id="a_edge2&#45;headlabel"><a xlink:href="dir_000192_000229.html" target="_top" xlink:title="50">
<text text-anchor="middle" x="144.278" y="-184.982" font-family="Helvetica,sans-Serif" font-size="10.00">50</text>
</a>
</g>
</g>
<!-- dir_40b4a122691869ee86baf7f2711ed718 -->
<g id="node8" class="node"><title>dir_40b4a122691869ee86baf7f2711ed718</title>
<g id="a_node8"><a xlink:href="dir_40b4a122691869ee86baf7f2711ed718.html" target="_top" xlink:title="Steer">
<polygon fill="none" stroke="red" points="544,-396 490,-396 490,-360 544,-360 544,-396"/>
<text text-anchor="middle" x="517" y="-375.5" font-family="Helvetica,sans-Serif" font-size="10.00">Steer</text>
</a>
</g>
</g>
<!-- dir_7f309bec8670bb3fb666e7e061b24659&#45;&gt;dir_40b4a122691869ee86baf7f2711ed718 -->
<g id="edge1" class="edge"><title>dir_7f309bec8670bb3fb666e7e061b24659&#45;&gt;dir_40b4a122691869ee86baf7f2711ed718</title>
<path fill="none" stroke="black" d="M187.16,-252.103C209.59,-272.288 249.737,-305.448 290,-324 353.084,-353.067 433.613,-366.982 479.84,-372.996"/>
<polygon fill="black" stroke="black" points="479.638,-376.498 489.994,-374.261 480.504,-369.552 479.638,-376.498"/>
<g id="a_edge1&#45;headlabel"><a xlink:href="dir_000192_000426.html" target="_top" xlink:title="2">
<text text-anchor="middle" x="475.72" y="-376.371" font-family="Helvetica,sans-Serif" font-size="10.00">2</text>
</a>
</g>
</g>
<!-- dir_7f309bec8670bb3fb666e7e061b24659&#45;&gt;dir_4ab6b4cc6a7edbff49100e9123df213f -->
<g id="edge3" class="edge"><title>dir_7f309bec8670bb3fb666e7e061b24659&#45;&gt;dir_4ab6b4cc6a7edbff49100e9123df213f</title>
<path fill="none" stroke="black" d="M169.562,-215.789C171.44,-184.053 179.51,-115.582 214,-72 229.026,-53.0124 252.818,-39.8095 272.956,-31.3302"/>
<polygon fill="black" stroke="black" points="274.492,-34.4862 282.494,-27.5425 271.908,-27.9804 274.492,-34.4862"/>
<g id="a_edge3&#45;headlabel"><a xlink:href="dir_000192_000016.html" target="_top" xlink:title="4">
<text text-anchor="middle" x="272.199" y="-35.9517" font-family="Helvetica,sans-Serif" font-size="10.00">4</text>
</a>
</g>
</g>
<!-- dir_37c90836491b695b472bf98d1be8336b -->
<g id="node11" class="node"><title>dir_37c90836491b695b472bf98d1be8336b</title>
<g id="a_node11"><a xlink:href="dir_37c90836491b695b472bf98d1be8336b.html" target="_top" xlink:title="Base">
<polygon fill="none" stroke="red" points="401,-108 347,-108 347,-72 401,-72 401,-108"/>
<text text-anchor="middle" x="374" y="-87.5" font-family="Helvetica,sans-Serif" font-size="10.00">Base</text>
</a>
</g>
</g>
<!-- dir_7f309bec8670bb3fb666e7e061b24659&#45;&gt;dir_37c90836491b695b472bf98d1be8336b -->
<g id="edge4" class="edge"><title>dir_7f309bec8670bb3fb666e7e061b24659&#45;&gt;dir_37c90836491b695b472bf98d1be8336b</title>
<path fill="none" stroke="black" d="M186.818,-215.81C210.428,-193.632 254.008,-154.732 296,-128 308.921,-119.775 323.956,-112.22 337.358,-106.111"/>
<polygon fill="black" stroke="black" points="339.056,-109.187 346.775,-101.93 336.215,-102.79 339.056,-109.187"/>
<g id="a_edge4&#45;headlabel"><a xlink:href="dir_000192_000158.html" target="_top" xlink:title="1">
<text text-anchor="middle" x="336.923" y="-110.741" font-family="Helvetica,sans-Serif" font-size="10.00">1</text>
</a>
</g>
</g>
<!-- dir_7f309bec8670bb3fb666e7e061b24659&#45;&gt;dir_2171f7ec022c5423887b07c69b2f5b48 -->
<g id="edge5" class="edge"><title>dir_7f309bec8670bb3fb666e7e061b24659&#45;&gt;dir_2171f7ec022c5423887b07c69b2f5b48</title>
<path fill="none" stroke="black" d="M199.531,-220.647C226.052,-209.915 264.875,-194.207 295.298,-181.897"/>
<polygon fill="black" stroke="black" points="296.898,-185.025 304.855,-178.03 294.272,-178.536 296.898,-185.025"/>
<g id="a_edge5&#45;headlabel"><a xlink:href="dir_000192_000056.html" target="_top" xlink:title="11">
<text text-anchor="middle" x="294.63" y="-186.505" font-family="Helvetica,sans-Serif" font-size="10.00">11</text>
</a>
</g>
</g>
<!-- dir_9cc61f72f781098a662027b321784562 -->
<g id="node7" class="node"><title>dir_9cc61f72f781098a662027b321784562</title>
<g id="a_node7"><a xlink:href="dir_9cc61f72f781098a662027b321784562.html" target="_top" xlink:title="workflow">
<polygon fill="white" stroke="red" points="199.5,-396 144.5,-396 144.5,-360 199.5,-360 199.5,-396"/>
<text text-anchor="middle" x="172" y="-375.5" font-family="Helvetica,sans-Serif" font-size="10.00">workflow</text>
</a>
</g>
</g>
<!-- dir_9cc61f72f781098a662027b321784562&#45;&gt;dir_677b030cc750909e4cd27413873678d8 -->
<g id="edge17" class="edge"><title>dir_9cc61f72f781098a662027b321784562&#45;&gt;dir_677b030cc750909e4cd27413873678d8</title>
<path fill="none" stroke="black" d="M169.596,-359.773C166.664,-341.47 160.841,-311.933 151,-288 143.869,-270.658 135.08,-269.738 129,-252 122.162,-232.052 119.763,-208.261 119.018,-190.298"/>
<polygon fill="black" stroke="black" points="122.515,-190.113 118.747,-180.211 115.517,-190.301 122.515,-190.113"/>
<g id="a_edge17&#45;headlabel"><a xlink:href="dir_000358_000229.html" target="_top" xlink:title="4">
<text text-anchor="middle" x="125.45" y="-191.13" font-family="Helvetica,sans-Serif" font-size="10.00">4</text>
</a>
</g>
</g>
<!-- dir_9cc61f72f781098a662027b321784562&#45;&gt;dir_a5de047958dd458e809773c6ffaa8478 -->
<g id="edge18" class="edge"><title>dir_9cc61f72f781098a662027b321784562&#45;&gt;dir_a5de047958dd458e809773c6ffaa8478</title>
<path fill="none" stroke="black" d="M154.944,-359.697C146.505,-351.135 136.175,-340.656 126.957,-331.304"/>
<polygon fill="black" stroke="black" points="129.373,-328.769 119.86,-324.104 124.387,-333.683 129.373,-328.769"/>
<g id="a_edge18&#45;headlabel"><a xlink:href="dir_000358_000276.html" target="_top" xlink:title="3">
<text text-anchor="middle" x="133.918" y="-326.836" font-family="Helvetica,sans-Serif" font-size="10.00">3</text>
</a>
</g>
</g>
<!-- dir_8ba487e25de5ee77e05e9dce7582cb98 -->
<g id="node12" class="node"><title>dir_8ba487e25de5ee77e05e9dce7582cb98</title>
<g id="a_node12"><a xlink:href="dir_8ba487e25de5ee77e05e9dce7582cb98.html" target="_top" xlink:title="Algorithm">
<polygon fill="none" stroke="red" points="389.5,-324 332.5,-324 332.5,-288 389.5,-288 389.5,-324"/>
<text text-anchor="middle" x="361" y="-303.5" font-family="Helvetica,sans-Serif" font-size="10.00">Algorithm</text>
</a>
</g>
</g>
<!-- dir_9cc61f72f781098a662027b321784562&#45;&gt;dir_8ba487e25de5ee77e05e9dce7582cb98 -->
<g id="edge19" class="edge"><title>dir_9cc61f72f781098a662027b321784562&#45;&gt;dir_8ba487e25de5ee77e05e9dce7582cb98</title>
<path fill="none" stroke="black" d="M199.888,-366.671C232.363,-354.643 286.192,-334.707 322.603,-321.221"/>
<polygon fill="black" stroke="black" points="324.217,-324.356 332.378,-317.601 321.785,-317.792 324.217,-324.356"/>
<g id="a_edge19&#45;headlabel"><a xlink:href="dir_000358_000000.html" target="_top" xlink:title="1">
<text text-anchor="middle" x="321.832" y="-325.767" font-family="Helvetica,sans-Serif" font-size="10.00">1</text>
</a>
</g>
</g>
<!-- dir_bcbb2cf9a3d3d83e5515c82071a07177 -->
<g id="node13" class="node"><title>dir_bcbb2cf9a3d3d83e5515c82071a07177</title>
<g id="a_node13"><a xlink:href="dir_bcbb2cf9a3d3d83e5515c82071a07177.html" target="_top" xlink:title="Framework">
<polygon fill="none" stroke="red" points="549.25,-324 484.75,-324 484.75,-288 549.25,-288 549.25,-324"/>
<text text-anchor="middle" x="517" y="-303.5" font-family="Helvetica,sans-Serif" font-size="10.00">Framework</text>
</a>
</g>
</g>
<!-- dir_9cc61f72f781098a662027b321784562&#45;&gt;dir_bcbb2cf9a3d3d83e5515c82071a07177 -->
<g id="edge20" class="edge"><title>dir_9cc61f72f781098a662027b321784562&#45;&gt;dir_bcbb2cf9a3d3d83e5515c82071a07177</title>
<path fill="none" stroke="black" d="M199.65,-371.39C259.772,-359.191 402.744,-330.182 474.452,-315.633"/>
<polygon fill="black" stroke="black" points="475.392,-319.014 484.497,-313.595 474,-312.153 475.392,-319.014"/>
<g id="a_edge20&#45;headlabel"><a xlink:href="dir_000358_000037.html" target="_top" xlink:title="19">
<text text-anchor="middle" x="472.434" y="-320.011" font-family="Helvetica,sans-Serif" font-size="10.00">19</text>
</a>
</g>
</g>
<!-- dir_9cc61f72f781098a662027b321784562&#45;&gt;dir_2171f7ec022c5423887b07c69b2f5b48 -->
<g id="edge21" class="edge"><title>dir_9cc61f72f781098a662027b321784562&#45;&gt;dir_2171f7ec022c5423887b07c69b2f5b48</title>
<path fill="none" stroke="black" d="M199.801,-374.692C254.632,-369.501 373.53,-354.872 398,-324 430.368,-283.163 391.718,-222.337 364.43,-188.338"/>
<polygon fill="black" stroke="black" points="366.856,-185.779 357.788,-180.3 361.461,-190.238 366.856,-185.779"/>
<g id="a_edge21&#45;headlabel"><a xlink:href="dir_000358_000056.html" target="_top" xlink:title="31">
<text text-anchor="middle" x="371.335" y="-184.241" font-family="Helvetica,sans-Serif" font-size="10.00">31</text>
</a>
</g>
</g>
<!-- dir_40b4a122691869ee86baf7f2711ed718&#45;&gt;dir_677b030cc750909e4cd27413873678d8 -->
<g id="edge8" class="edge"><title>dir_40b4a122691869ee86baf7f2711ed718&#45;&gt;dir_677b030cc750909e4cd27413873678d8</title>
<path fill="none" stroke="black" d="M496.905,-359.785C473.991,-340.688 434.914,-309.712 398,-288 315.307,-239.362 210.301,-197.092 155.713,-176.444"/>
<polygon fill="black" stroke="black" points="156.716,-173.082 146.124,-172.844 154.255,-179.636 156.716,-173.082"/>
<g id="a_edge8&#45;headlabel"><a xlink:href="dir_000426_000229.html" target="_top" xlink:title="5">
<text text-anchor="middle" x="161.079" y="-169.188" font-family="Helvetica,sans-Serif" font-size="10.00">5</text>
</a>
</g>
</g>
<!-- dir_40b4a122691869ee86baf7f2711ed718&#45;&gt;dir_7f309bec8670bb3fb666e7e061b24659 -->
<g id="edge6" class="edge"><title>dir_40b4a122691869ee86baf7f2711ed718&#45;&gt;dir_7f309bec8670bb3fb666e7e061b24659</title>
<path fill="none" stroke="black" d="M489.779,-372.979C451.128,-366.525 378.84,-351.677 323,-324 299.425,-312.315 298.338,-301.905 276,-288 254.481,-274.605 229.108,-261.915 208.472,-252.312"/>
<polygon fill="black" stroke="black" points="209.903,-249.118 199.355,-248.126 206.982,-255.479 209.903,-249.118"/>
<g id="a_edge6&#45;headlabel"><a xlink:href="dir_000426_000192.html" target="_top" xlink:title="8">
<text text-anchor="middle" x="214.354" y="-245.537" font-family="Helvetica,sans-Serif" font-size="10.00">8</text>
</a>
</g>
</g>
<!-- dir_40b4a122691869ee86baf7f2711ed718&#45;&gt;dir_9cc61f72f781098a662027b321784562 -->
<g id="edge7" class="edge"><title>dir_40b4a122691869ee86baf7f2711ed718&#45;&gt;dir_9cc61f72f781098a662027b321784562</title>
<path fill="none" stroke="black" d="M489.726,-378C396.426,-378 303.126,-378 209.826,-378"/>
<polygon fill="black" stroke="black" points="209.627,-374.5 199.627,-378 209.627,-381.5 209.627,-374.5"/>
<g id="a_edge7&#45;headlabel"><a xlink:href="dir_000426_000358.html" target="_top" xlink:title="1">
<text text-anchor="middle" x="213.222" y="-369.161" font-family="Helvetica,sans-Serif" font-size="10.00">1</text>
</a>
</g>
</g>
<!-- dir_40b4a122691869ee86baf7f2711ed718&#45;&gt;dir_4ab6b4cc6a7edbff49100e9123df213f -->
<g id="edge9" class="edge"><title>dir_40b4a122691869ee86baf7f2711ed718&#45;&gt;dir_4ab6b4cc6a7edbff49100e9123df213f</title>
<path fill="none" stroke="black" d="M544.067,-364.238C583.993,-343.314 654,-297.688 654,-235 654,-235 654,-235 654,-161 654,-95.2767 436.744,-44.3336 347.541,-26.1869"/>
<polygon fill="black" stroke="black" points="348.063,-22.7218 337.569,-24.1868 346.686,-29.5851 348.063,-22.7218"/>
<g id="a_edge9&#45;headlabel"><a xlink:href="dir_000426_000016.html" target="_top" xlink:title="2">
<text text-anchor="middle" x="352.145" y="-18.1448" font-family="Helvetica,sans-Serif" font-size="10.00">2</text>
</a>
</g>
</g>
<!-- dir_40b4a122691869ee86baf7f2711ed718&#45;&gt;dir_37c90836491b695b472bf98d1be8336b -->
<g id="edge10" class="edge"><title>dir_40b4a122691869ee86baf7f2711ed718&#45;&gt;dir_37c90836491b695b472bf98d1be8336b</title>
<path fill="none" stroke="black" d="M544.035,-360.008C555.894,-350.929 568.562,-338.603 575,-324 581.454,-309.359 580.911,-302.868 575,-288 542.881,-207.213 458.315,-143.562 409.72,-112.251"/>
<polygon fill="black" stroke="black" points="411.407,-109.177 401.086,-106.784 407.663,-115.091 411.407,-109.177"/>
<g id="a_edge10&#45;headlabel"><a xlink:href="dir_000426_000158.html" target="_top" xlink:title="3">
<text text-anchor="middle" x="415.963" y="-106.201" font-family="Helvetica,sans-Serif" font-size="10.00">3</text>
</a>
</g>
</g>
<!-- dir_40b4a122691869ee86baf7f2711ed718&#45;&gt;dir_bcbb2cf9a3d3d83e5515c82071a07177 -->
<g id="edge11" class="edge"><title>dir_40b4a122691869ee86baf7f2711ed718&#45;&gt;dir_bcbb2cf9a3d3d83e5515c82071a07177</title>
<path fill="none" stroke="black" d="M517,-359.697C517,-351.983 517,-342.712 517,-334.112"/>
<polygon fill="black" stroke="black" points="520.5,-334.104 517,-324.104 513.5,-334.104 520.5,-334.104"/>
<g id="a_edge11&#45;headlabel"><a xlink:href="dir_000426_000037.html" target="_top" xlink:title="64">
<text text-anchor="middle" x="523.339" y="-335.199" font-family="Helvetica,sans-Serif" font-size="10.00">64</text>
</a>
</g>
</g>
<!-- dir_40b4a122691869ee86baf7f2711ed718&#45;&gt;dir_2171f7ec022c5423887b07c69b2f5b48 -->
<g id="edge12" class="edge"><title>dir_40b4a122691869ee86baf7f2711ed718&#45;&gt;dir_2171f7ec022c5423887b07c69b2f5b48</title>
<path fill="none" stroke="black" d="M535.169,-359.677C543.885,-350.097 553.412,-337.43 558,-324 563.173,-308.859 565.046,-302.365 558,-288 546.491,-264.534 487.513,-229.277 465,-216 440.883,-201.778 412.242,-189.209 388.667,-179.885"/>
<polygon fill="black" stroke="black" points="389.826,-176.58 379.237,-176.22 387.29,-183.105 389.826,-176.58"/>
<g id="a_edge12&#45;headlabel"><a xlink:href="dir_000426_000056.html" target="_top" xlink:title="52">
<text text-anchor="middle" x="394.205" y="-172.736" font-family="Helvetica,sans-Serif" font-size="10.00">52</text>
</a>
</g>
</g>
<!-- dir_4ab6b4cc6a7edbff49100e9123df213f&#45;&gt;dir_2171f7ec022c5423887b07c69b2f5b48 -->
<g id="edge24" class="edge"><title>dir_4ab6b4cc6a7edbff49100e9123df213f&#45;&gt;dir_2171f7ec022c5423887b07c69b2f5b48</title>
<path fill="none" stroke="black" d="M318.465,-36.1893C326.481,-60.4244 336.788,-104.888 341.297,-133.679"/>
<polygon fill="black" stroke="black" points="337.871,-134.454 342.725,-143.871 344.804,-133.483 337.871,-134.454"/>
<g id="a_edge24&#45;headlabel"><a xlink:href="dir_000016_000056.html" target="_top" xlink:title="3">
<text text-anchor="middle" x="334.561" y="-128.787" font-family="Helvetica,sans-Serif" font-size="10.00">3</text>
</a>
</g>
</g>
<!-- dir_37c90836491b695b472bf98d1be8336b&#45;&gt;dir_4ab6b4cc6a7edbff49100e9123df213f -->
<g id="edge29" class="edge"><title>dir_37c90836491b695b472bf98d1be8336b&#45;&gt;dir_4ab6b4cc6a7edbff49100e9123df213f</title>
<path fill="none" stroke="black" d="M358.18,-71.6966C350.43,-63.2198 340.961,-52.8636 332.476,-43.5826"/>
<polygon fill="black" stroke="black" points="334.969,-41.1229 325.638,-36.1043 329.803,-45.8464 334.969,-41.1229"/>
<g id="a_edge29&#45;headlabel"><a xlink:href="dir_000158_000016.html" target="_top" xlink:title="5">
<text text-anchor="middle" x="339.49" y="-39.36" font-family="Helvetica,sans-Serif" font-size="10.00">5</text>
</a>
</g>
</g>
<!-- dir_37c90836491b695b472bf98d1be8336b&#45;&gt;dir_2171f7ec022c5423887b07c69b2f5b48 -->
<g id="edge30" class="edge"><title>dir_37c90836491b695b472bf98d1be8336b&#45;&gt;dir_2171f7ec022c5423887b07c69b2f5b48</title>
<path fill="none" stroke="black" d="M372.076,-108.104C369.248,-116.129 365.015,-125.871 360.535,-134.797"/>
<polygon fill="black" stroke="black" points="357.41,-133.221 355.826,-143.697 363.597,-136.495 357.41,-133.221"/>
<g id="a_edge30&#45;headlabel"><a xlink:href="dir_000158_000056.html" target="_top" xlink:title="5">
<text text-anchor="middle" x="356.581" y="-126.216" font-family="Helvetica,sans-Serif" font-size="10.00">5</text>
</a>
</g>
</g>
<!-- dir_8ba487e25de5ee77e05e9dce7582cb98&#45;&gt;dir_2171f7ec022c5423887b07c69b2f5b48 -->
<g id="edge31" class="edge"><title>dir_8ba487e25de5ee77e05e9dce7582cb98&#45;&gt;dir_2171f7ec022c5423887b07c69b2f5b48</title>
<path fill="none" stroke="black" d="M358.708,-287.871C355.47,-263.67 349.521,-219.211 345.665,-190.393"/>
<polygon fill="black" stroke="black" points="349.095,-189.637 344.3,-180.189 342.157,-190.565 349.095,-189.637"/>
<g id="a_edge31&#45;headlabel"><a xlink:href="dir_000000_000056.html" target="_top" xlink:title="8">
<text text-anchor="middle" x="352.386" y="-190.323" font-family="Helvetica,sans-Serif" font-size="10.00">8</text>
</a>
</g>
</g>
<!-- dir_bcbb2cf9a3d3d83e5515c82071a07177&#45;&gt;dir_7f309bec8670bb3fb666e7e061b24659 -->
<g id="edge36" class="edge"><title>dir_bcbb2cf9a3d3d83e5515c82071a07177&#45;&gt;dir_7f309bec8670bb3fb666e7e061b24659</title>
<path fill="none" stroke="black" d="M484.574,-298.477C420.858,-285.661 279.47,-257.221 209.64,-243.175"/>
<polygon fill="black" stroke="black" points="209.965,-239.67 199.471,-241.129 208.585,-246.533 209.965,-239.67"/>
<g id="a_edge36&#45;headlabel"><a xlink:href="dir_000037_000192.html" target="_top" xlink:title="1">
<text text-anchor="middle" x="214.049" y="-235.095" font-family="Helvetica,sans-Serif" font-size="10.00">1</text>
</a>
</g>
</g>
<!-- dir_bcbb2cf9a3d3d83e5515c82071a07177&#45;&gt;dir_4ab6b4cc6a7edbff49100e9123df213f -->
<g id="edge37" class="edge"><title>dir_bcbb2cf9a3d3d83e5515c82071a07177&#45;&gt;dir_4ab6b4cc6a7edbff49100e9123df213f</title>
<path fill="none" stroke="black" d="M513.194,-287.929C503.127,-246.241 472.206,-137.847 410,-72 392.76,-53.7511 367.82,-40.5162 347.16,-31.836"/>
<polygon fill="black" stroke="black" points="348.298,-28.5216 337.714,-28.0528 345.696,-35.0198 348.298,-28.5216"/>
<g id="a_edge37&#45;headlabel"><a xlink:href="dir_000037_000016.html" target="_top" xlink:title="3">
<text text-anchor="middle" x="352.691" y="-24.7222" font-family="Helvetica,sans-Serif" font-size="10.00">3</text>
</a>
</g>
</g>
<!-- dir_bcbb2cf9a3d3d83e5515c82071a07177&#45;&gt;dir_2171f7ec022c5423887b07c69b2f5b48 -->
<g id="edge38" class="edge"><title>dir_bcbb2cf9a3d3d83e5515c82071a07177&#45;&gt;dir_2171f7ec022c5423887b07c69b2f5b48</title>
<path fill="none" stroke="black" d="M503.175,-287.904C487.283,-268.914 459.794,-238.033 432,-216 417.508,-204.512 400.28,-193.766 384.794,-184.993"/>
<polygon fill="black" stroke="black" points="386.355,-181.857 375.912,-180.066 382.959,-187.978 386.355,-181.857"/>
<g id="a_edge38&#45;headlabel"><a xlink:href="dir_000037_000056.html" target="_top" xlink:title="42">
<text text-anchor="middle" x="390.875" y="-178.618" font-family="Helvetica,sans-Serif" font-size="10.00">42</text>
</a>
</g>
</g>
<!-- dir_2171f7ec022c5423887b07c69b2f5b48&#45;&gt;dir_4ab6b4cc6a7edbff49100e9123df213f -->
<g id="edge39" class="edge"><title>dir_2171f7ec022c5423887b07c69b2f5b48&#45;&gt;dir_4ab6b4cc6a7edbff49100e9123df213f</title>
<path fill="none" stroke="black" d="M333.556,-143.871C325.543,-119.67 315.233,-75.2108 310.714,-46.3932"/>
<polygon fill="black" stroke="black" points="314.138,-45.6061 309.283,-36.1893 307.206,-46.5785 314.138,-45.6061"/>
<g id="a_edge39&#45;headlabel"><a xlink:href="dir_000056_000016.html" target="_top" xlink:title="20">
<text text-anchor="middle" x="317.449" y="-46.2714" font-family="Helvetica,sans-Serif" font-size="10.00">20</text>
</a>
</g>
</g>
<!-- dir_2171f7ec022c5423887b07c69b2f5b48&#45;&gt;dir_37c90836491b695b472bf98d1be8336b -->
<g id="edge40" class="edge"><title>dir_2171f7ec022c5423887b07c69b2f5b48&#45;&gt;dir_37c90836491b695b472bf98d1be8336b</title>
<path fill="none" stroke="black" d="M343.994,-143.697C346.845,-135.644 351.091,-125.894 355.576,-116.982"/>
<polygon fill="black" stroke="black" points="358.691,-118.578 360.286,-108.104 352.507,-115.298 358.691,-118.578"/>
<g id="a_edge40&#45;headlabel"><a xlink:href="dir_000056_000158.html" target="_top" xlink:title="1">
<text text-anchor="middle" x="359.514" y="-120.584" font-family="Helvetica,sans-Serif" font-size="10.00">1</text>
</a>
</g>
</g>
</g>
</svg>
        <g id="navigator" transform="translate(0 0)" fill="#404254">
                <rect fill="#f2f5e9" fill-opacity="0.5" stroke="#606060" stroke-width=".5" x="0" y="0" width="60" height="60"/>
                <use id="zoomplus" xlink:href="#zoomPlus" x="17" y="9" onmousedown="handleZoom(evt,'in')"/>
                <use id="zoomminus" xlink:href="#zoomMin" x="42" y="9" onmousedown="handleZoom(evt,'out')"/>
                <use id="reset" xlink:href="#resetDef" x="30" y="36" onmousedown="handleReset()"/>
                <g id="arrowUp" xlink:href="#dirArrow" transform="translate(30 24)" onmousedown="handlePan(0,-1)">
                  <use xlink:href="#rim" fill="#404040">
                        <set attributeName="fill" to="#808080" begin="arrowUp.mouseover" end="arrowUp.mouseout"/>
                  </use>
                  <path fill="none" stroke="white" stroke-width="1.5" d="M0,-3.0v7 M-2.5,-0.5L0,-3.0L2.5,-0.5"/>
                </g>
                <g id="arrowRight" xlink:href="#dirArrow" transform="rotate(90) translate(36 -43)" onmousedown="handlePan(1,0)">
                  <use xlink:href="#rim" fill="#404040">
                        <set attributeName="fill" to="#808080" begin="arrowRight.mouseover" end="arrowRight.mouseout"/>
                  </use>
                  <path fill="none" stroke="white" stroke-width="1.5" d="M0,-3.0v7 M-2.5,-0.5L0,-3.0L2.5,-0.5"/>
                </g>
                <g id="arrowDown" xlink:href="#dirArrow" transform="rotate(180) translate(-30 -48)" onmousedown="handlePan(0,1)">
                  <use xlink:href="#rim" fill="#404040">
                        <set attributeName="fill" to="#808080" begin="arrowDown.mouseover" end="arrowDown.mouseout"/>
                  </use>
                  <path fill="none" stroke="white" stroke-width="1.5" d="M0,-3.0v7 M-2.5,-0.5L0,-3.0L2.5,-0.5"/>
                </g>
                <g id="arrowLeft" xlink:href="#dirArrow" transform="rotate(270) translate(-36 17)" onmousedown="handlePan(-1,0)">
                  <use xlink:href="#rim" fill="#404040">
                        <set attributeName="fill" to="#808080" begin="arrowLeft.mouseover" end="arrowLeft.mouseout"/>
                  </use>
                  <path fill="none" stroke="white" stroke-width="1.5" d="M0,-3.0v7 M-2.5,-0.5L0,-3.0L2.5,-0.5"/>
                </g>
        </g>
        <svg viewBox="0 0 15 15" width="100%" height="30px" preserveAspectRatio="xMaxYMin meet">
         <g id="arrow_out" transform="scale(0.3 0.3)">
          <a xlink:href="dir_a597e8e061b11201a1dff411feb10d0b_dep_org.svg" target="_base">
           <rect id="button" ry="5" rx="5" y="6" x="6" height="38" width="38"
                fill="#f2f5e9" fill-opacity="0.5" stroke="#606060" stroke-width="1.0"/>
           <path id="arrow"
             d="M 11.500037,31.436501 C 11.940474,20.09759 22.043105,11.32322 32.158766,21.979434 L 37.068811,17.246167 C 37.068811,17.246167 37.088388,32 37.088388,32 L 22.160133,31.978069 C 22.160133,31.978069 26.997745,27.140456 26.997745,27.140456 C 18.528582,18.264221 13.291696,25.230495 11.500037,31.436501 z"
             style="fill:#404040;"/>
          </a>
         </g>
        </svg>
</svg>
