<?xml version="1.0" encoding="UTF-8" standalone="no"?>
<!DOCTYPE svg PUBLIC "-//W3C//DTD SVG 1.1//EN"
 "http://www.w3.org/Graphics/SVG/1.1/DTD/svg11.dtd">
<!-- Generated by graphviz version 2.36.0 (20140111.2315)
 -->
<!-- Title: /home/travis/build/AliceO2Group/AliceO2/Detectors/MUON/MCH Pages: 1 -->
<svg width="431pt" height="375pt"
 viewBox="0.00 0.00 430.53 375.00" xmlns="http://www.w3.org/2000/svg" xmlns:xlink="http://www.w3.org/1999/xlink">
<g id="graph0" class="graph" transform="scale(1 1) rotate(0) translate(4 371)">
<title>/home/travis/build/AliceO2Group/AliceO2/Detectors/MUON/MCH</title>
<g id="clust1" class="cluster"><title>clusterdir_1cc233fd3b1202b9dad36810b41b97af</title>
<g id="a_clust1"><a xlink:href="dir_1cc233fd3b1202b9dad36810b41b97af.html" target="_top" xlink:title="MUON">
<polygon fill="#ddddee" stroke="black" points="8,-128 8,-359 268,-359 268,-128 8,-128"/>
<text text-anchor="middle" x="138" y="-347" font-family="Helvetica,sans-Serif" font-size="10.00">MUON</text>
</a>
</g>
</g>
<g id="clust2" class="cluster"><title>clusterdir_061f7088060f41729027f6c2fce0273e</title>
<g id="a_clust2"><a xlink:href="dir_061f7088060f41729027f6c2fce0273e.html" target="_top">
<polygon fill="#eeeeff" stroke="black" points="16,-136 16,-332 260,-332 260,-136 16,-136"/>
</a>
</g>
</g>
<!-- dir_061f7088060f41729027f6c2fce0273e -->
<g id="node1" class="node"><title>dir_061f7088060f41729027f6c2fce0273e</title>
<text text-anchor="middle" x="225" y="-303.5" font-family="Helvetica,sans-Serif" font-size="10.00">MCH</text>
</g>
<!-- dir_1155c84989a046e7de4bf0156dc4b34c -->
<g id="node2" class="node"><title>dir_1155c84989a046e7de4bf0156dc4b34c</title>
<g id="a_node2"><a xlink:href="dir_1155c84989a046e7de4bf0156dc4b34c.html" target="_top" xlink:title="Base">
<polygon fill="white" stroke="red" points="89,-252 35,-252 35,-216 89,-216 89,-252"/>
<text text-anchor="middle" x="62" y="-231.5" font-family="Helvetica,sans-Serif" font-size="10.00">Base</text>
</a>
</g>
</g>
<!-- dir_f53aaea7b1f4a3d2e21e52645ea2576d -->
<g id="node3" class="node"><title>dir_f53aaea7b1f4a3d2e21e52645ea2576d</title>
<g id="a_node3"><a xlink:href="dir_f53aaea7b1f4a3d2e21e52645ea2576d.html" target="_top" xlink:title="Contour">
<polygon fill="white" stroke="red" points="176,-180 122,-180 122,-144 176,-144 176,-180"/>
<text text-anchor="middle" x="149" y="-159.5" font-family="Helvetica,sans-Serif" font-size="10.00">Contour</text>
</a>
</g>
</g>
<!-- dir_b098e3604916eca5f90f2bb1c75b7880 -->
<g id="node4" class="node"><title>dir_b098e3604916eca5f90f2bb1c75b7880</title>
<g id="a_node4"><a xlink:href="dir_b098e3604916eca5f90f2bb1c75b7880.html" target="_top" xlink:title="Mapping">
<polygon fill="white" stroke="red" points="176,-252 122,-252 122,-216 176,-216 176,-252"/>
<text text-anchor="middle" x="149" y="-231.5" font-family="Helvetica,sans-Serif" font-size="10.00">Mapping</text>
</a>
</g>
</g>
<!-- dir_b098e3604916eca5f90f2bb1c75b7880&#45;&gt;dir_f53aaea7b1f4a3d2e21e52645ea2576d -->
<g id="edge14" class="edge"><title>dir_b098e3604916eca5f90f2bb1c75b7880&#45;&gt;dir_f53aaea7b1f4a3d2e21e52645ea2576d</title>
<path fill="none" stroke="black" d="M149,-215.697C149,-207.983 149,-198.712 149,-190.112"/>
<polygon fill="black" stroke="black" points="152.5,-190.104 149,-180.104 145.5,-190.104 152.5,-190.104"/>
<g id="a_edge14&#45;headlabel"><a xlink:href="dir_000294_000146.html" target="_top" xlink:title="9">
<text text-anchor="middle" x="155.339" y="-191.199" font-family="Helvetica,sans-Serif" font-size="10.00">9</text>
</a>
</g>
</g>
<!-- dir_6229e1f1a243f5ed3f0013dfa4f13deb -->
<g id="node5" class="node"><title>dir_6229e1f1a243f5ed3f0013dfa4f13deb</title>
<g id="a_node5"><a xlink:href="dir_6229e1f1a243f5ed3f0013dfa4f13deb.html" target="_top" xlink:title="PreClustering">
<polygon fill="white" stroke="red" points="100,-324 24,-324 24,-288 100,-288 100,-324"/>
<text text-anchor="middle" x="62" y="-303.5" font-family="Helvetica,sans-Serif" font-size="10.00">PreClustering</text>
</a>
</g>
</g>
<!-- dir_6229e1f1a243f5ed3f0013dfa4f13deb&#45;&gt;dir_1155c84989a046e7de4bf0156dc4b34c -->
<g id="edge1" class="edge"><title>dir_6229e1f1a243f5ed3f0013dfa4f13deb&#45;&gt;dir_1155c84989a046e7de4bf0156dc4b34c</title>
<path fill="none" stroke="black" d="M62,-287.697C62,-279.983 62,-270.712 62,-262.112"/>
<polygon fill="black" stroke="black" points="65.5001,-262.104 62,-252.104 58.5001,-262.104 65.5001,-262.104"/>
<g id="a_edge1&#45;headlabel"><a xlink:href="dir_000318_000307.html" target="_top" xlink:title="6">
<text text-anchor="middle" x="68.3393" y="-263.199" font-family="Helvetica,sans-Serif" font-size="10.00">6</text>
</a>
</g>
</g>
<!-- dir_b05a5fa85f84bfc9013183c9d87f9a36 -->
<g id="node8" class="node"><title>dir_b05a5fa85f84bfc9013183c9d87f9a36</title>
<g id="a_node8"><a xlink:href="dir_b05a5fa85f84bfc9013183c9d87f9a36.html" target="_top" xlink:title="Utilities">
<polygon fill="none" stroke="red" points="330,-252 276,-252 276,-216 330,-216 330,-252"/>
<text text-anchor="middle" x="303" y="-231.5" font-family="Helvetica,sans-Serif" font-size="10.00">Utilities</text>
</a>
</g>
</g>
<!-- dir_6229e1f1a243f5ed3f0013dfa4f13deb&#45;&gt;dir_b05a5fa85f84bfc9013183c9d87f9a36 -->
<g id="edge2" class="edge"><title>dir_6229e1f1a243f5ed3f0013dfa4f13deb&#45;&gt;dir_b05a5fa85f84bfc9013183c9d87f9a36</title>
<path fill="none" stroke="black" d="M100.094,-290.793C103.093,-289.805 106.088,-288.862 109,-288 176.817,-267.937 196.86,-274.223 264,-252 264.859,-251.716 265.725,-251.42 266.596,-251.114"/>
<polygon fill="black" stroke="black" points="267.877,-254.371 275.972,-247.536 265.381,-247.831 267.877,-254.371"/>
<g id="a_edge2&#45;headlabel"><a xlink:href="dir_000318_000392.html" target="_top" xlink:title="4">
<text text-anchor="middle" x="265.531" y="-255.805" font-family="Helvetica,sans-Serif" font-size="10.00">4</text>
</a>
</g>
</g>
<!-- dir_e4cb5181a3c884468a78a261ced84e7b -->
<g id="node6" class="node"><title>dir_e4cb5181a3c884468a78a261ced84e7b</title>
<g id="a_node6"><a xlink:href="dir_e4cb5181a3c884468a78a261ced84e7b.html" target="_top" xlink:title="Simulation">
<polygon fill="white" stroke="red" points="179.5,-324 118.5,-324 118.5,-288 179.5,-288 179.5,-324"/>
<text text-anchor="middle" x="149" y="-303.5" font-family="Helvetica,sans-Serif" font-size="10.00">Simulation</text>
</a>
</g>
</g>
<!-- dir_e4cb5181a3c884468a78a261ced84e7b&#45;&gt;dir_b098e3604916eca5f90f2bb1c75b7880 -->
<g id="edge11" class="edge"><title>dir_e4cb5181a3c884468a78a261ced84e7b&#45;&gt;dir_b098e3604916eca5f90f2bb1c75b7880</title>
<path fill="none" stroke="black" d="M149,-287.697C149,-279.983 149,-270.712 149,-262.112"/>
<polygon fill="black" stroke="black" points="152.5,-262.104 149,-252.104 145.5,-262.104 152.5,-262.104"/>
<g id="a_edge11&#45;headlabel"><a xlink:href="dir_000178_000294.html" target="_top" xlink:title="1">
<text text-anchor="middle" x="155.339" y="-263.199" font-family="Helvetica,sans-Serif" font-size="10.00">1</text>
</a>
</g>
</g>
<!-- dir_4ab6b4cc6a7edbff49100e9123df213f -->
<g id="node7" class="node"><title>dir_4ab6b4cc6a7edbff49100e9123df213f</title>
<g id="a_node7"><a xlink:href="dir_4ab6b4cc6a7edbff49100e9123df213f.html" target="_top" xlink:title="Common">
<polygon fill="none" stroke="red" points="369.5,-180 314.5,-180 314.5,-144 369.5,-144 369.5,-180"/>
<text text-anchor="middle" x="342" y="-159.5" font-family="Helvetica,sans-Serif" font-size="10.00">Common</text>
</a>
</g>
</g>
<!-- dir_e4cb5181a3c884468a78a261ced84e7b&#45;&gt;dir_4ab6b4cc6a7edbff49100e9123df213f -->
<g id="edge8" class="edge"><title>dir_e4cb5181a3c884468a78a261ced84e7b&#45;&gt;dir_4ab6b4cc6a7edbff49100e9123df213f</title>
<path fill="none" stroke="black" d="M179.814,-291.304C182.892,-290.118 185.99,-288.993 189,-288 254.107,-266.517 295.652,-305.117 339,-252 352.856,-235.021 352.287,-209.558 349.02,-190.212"/>
<polygon fill="black" stroke="black" points="352.406,-189.299 347.002,-180.186 345.544,-190.68 352.406,-189.299"/>
<g id="a_edge8&#45;headlabel"><a xlink:href="dir_000178_000016.html" target="_top" xlink:title="1">
<text text-anchor="middle" x="355.899" y="-189.762" font-family="Helvetica,sans-Serif" font-size="10.00">1</text>
</a>
</g>
</g>
<!-- dir_37c90836491b695b472bf98d1be8336b -->
<g id="node9" class="node"><title>dir_37c90836491b695b472bf98d1be8336b</title>
<g id="a_node9"><a xlink:href="dir_37c90836491b695b472bf98d1be8336b.html" target="_top" xlink:title="Base">
<polygon fill="none" stroke="red" points="396,-36 342,-36 342,-0 396,-0 396,-36"/>
<text text-anchor="middle" x="369" y="-15.5" font-family="Helvetica,sans-Serif" font-size="10.00">Base</text>
</a>
</g>
</g>
<!-- dir_e4cb5181a3c884468a78a261ced84e7b&#45;&gt;dir_37c90836491b695b472bf98d1be8336b -->
<g id="edge9" class="edge"><title>dir_e4cb5181a3c884468a78a261ced84e7b&#45;&gt;dir_37c90836491b695b472bf98d1be8336b</title>
<path fill="none" stroke="black" d="M179.759,-291.128C182.847,-289.977 185.964,-288.909 189,-288 274.686,-262.35 323.793,-315.284 387,-252 443.659,-195.271 420.113,-149.348 399,-72 396.424,-62.5618 391.791,-53.0222 386.924,-44.6876"/>
<polygon fill="black" stroke="black" points="389.888,-42.8258 381.638,-36.1784 383.942,-46.5197 389.888,-42.8258"/>
<g id="a_edge9&#45;headlabel"><a xlink:href="dir_000178_000158.html" target="_top" xlink:title="5">
<text text-anchor="middle" x="394.196" y="-41.8809" font-family="Helvetica,sans-Serif" font-size="10.00">5</text>
</a>
</g>
</g>
<!-- dir_2171f7ec022c5423887b07c69b2f5b48 -->
<g id="node10" class="node"><title>dir_2171f7ec022c5423887b07c69b2f5b48</title>
<g id="a_node10"><a xlink:href="dir_2171f7ec022c5423887b07c69b2f5b48.html" target="_top" xlink:title="DataFormats">
<polygon fill="none" stroke="red" points="374,-108 300,-108 300,-72 374,-72 374,-108"/>
<text text-anchor="middle" x="337" y="-87.5" font-family="Helvetica,sans-Serif" font-size="10.00">DataFormats</text>
</a>
</g>
</g>
<!-- dir_e4cb5181a3c884468a78a261ced84e7b&#45;&gt;dir_2171f7ec022c5423887b07c69b2f5b48 -->
<g id="edge10" class="edge"><title>dir_e4cb5181a3c884468a78a261ced84e7b&#45;&gt;dir_2171f7ec022c5423887b07c69b2f5b48</title>
<path fill="none" stroke="black" d="M179.787,-291.219C182.87,-290.05 185.977,-288.953 189,-288 262.66,-264.788 303.059,-305.247 359,-252 399.384,-213.56 400.649,-178.947 378,-128 376.011,-123.526 373.185,-119.365 369.933,-115.57"/>
<polygon fill="black" stroke="black" points="372.303,-112.988 362.796,-108.311 367.311,-117.895 372.303,-112.988"/>
<g id="a_edge10&#45;headlabel"><a xlink:href="dir_000178_000056.html" target="_top" xlink:title="3">
<text text-anchor="middle" x="376.848" y="-111.061" font-family="Helvetica,sans-Serif" font-size="10.00">3</text>
</a>
</g>
</g>
<!-- dir_4ab6b4cc6a7edbff49100e9123df213f&#45;&gt;dir_2171f7ec022c5423887b07c69b2f5b48 -->
<g id="edge3" class="edge"><title>dir_4ab6b4cc6a7edbff49100e9123df213f&#45;&gt;dir_2171f7ec022c5423887b07c69b2f5b48</title>
<path fill="none" stroke="black" d="M334.848,-143.697C333.502,-135.983 332.613,-126.712 332.341,-118.112"/>
<polygon fill="black" stroke="black" points="335.841,-118.099 332.327,-108.104 328.841,-118.109 335.841,-118.099"/>
<g id="a_edge3&#45;headlabel"><a xlink:href="dir_000016_000056.html" target="_top" xlink:title="3">
<text text-anchor="middle" x="338.686" y="-119.19" font-family="Helvetica,sans-Serif" font-size="10.00">3</text>
</a>
</g>
</g>
<!-- dir_b05a5fa85f84bfc9013183c9d87f9a36&#45;&gt;dir_4ab6b4cc6a7edbff49100e9123df213f -->
<g id="edge4" class="edge"><title>dir_b05a5fa85f84bfc9013183c9d87f9a36&#45;&gt;dir_4ab6b4cc6a7edbff49100e9123df213f</title>
<path fill="none" stroke="black" d="M312.64,-215.697C317.127,-207.644 322.559,-197.894 327.524,-188.982"/>
<polygon fill="black" stroke="black" points="330.661,-190.544 332.47,-180.104 324.546,-187.137 330.661,-190.544"/>
<g id="a_edge4&#45;headlabel"><a xlink:href="dir_000392_000016.html" target="_top" xlink:title="1">
<text text-anchor="middle" x="331.392" y="-192.565" font-family="Helvetica,sans-Serif" font-size="10.00">1</text>
</a>
</g>
</g>
<!-- dir_b05a5fa85f84bfc9013183c9d87f9a36&#45;&gt;dir_2171f7ec022c5423887b07c69b2f5b48 -->
<g id="edge5" class="edge"><title>dir_b05a5fa85f84bfc9013183c9d87f9a36&#45;&gt;dir_2171f7ec022c5423887b07c69b2f5b48</title>
<path fill="none" stroke="black" d="M299.879,-215.962C296.731,-194.615 293.775,-157.282 305,-128 306.617,-123.782 308.943,-119.72 311.614,-115.93"/>
<polygon fill="black" stroke="black" points="314.353,-118.11 317.871,-108.116 308.889,-113.735 314.353,-118.11"/>
<g id="a_edge5&#45;headlabel"><a xlink:href="dir_000392_000056.html" target="_top" xlink:title="47">
<text text-anchor="middle" x="314.322" y="-120.191" font-family="Helvetica,sans-Serif" font-size="10.00">47</text>
</a>
</g>
</g>
<!-- dir_37c90836491b695b472bf98d1be8336b&#45;&gt;dir_4ab6b4cc6a7edbff49100e9123df213f -->
<g id="edge6" class="edge"><title>dir_37c90836491b695b472bf98d1be8336b&#45;&gt;dir_4ab6b4cc6a7edbff49100e9123df213f</title>
<path fill="none" stroke="black" d="M376.464,-36.1509C383.313,-54.3892 391.243,-83.8737 383,-108 379.559,-118.073 373.34,-127.716 366.768,-135.95"/>
<polygon fill="black" stroke="black" points="364.001,-133.8 360.169,-143.677 369.324,-138.346 364.001,-133.8"/>
<g id="a_edge6&#45;headlabel"><a xlink:href="dir_000158_000016.html" target="_top" xlink:title="5">
<text text-anchor="middle" x="364.176" y="-126.723" font-family="Helvetica,sans-Serif" font-size="10.00">5</text>
</a>
</g>
</g>
<!-- dir_37c90836491b695b472bf98d1be8336b&#45;&gt;dir_2171f7ec022c5423887b07c69b2f5b48 -->
<g id="edge7" class="edge"><title>dir_37c90836491b695b472bf98d1be8336b&#45;&gt;dir_2171f7ec022c5423887b07c69b2f5b48</title>
<path fill="none" stroke="black" d="M367.076,-36.1043C364.248,-44.1291 360.015,-53.871 355.535,-62.7967"/>
<polygon fill="black" stroke="black" points="352.41,-61.2208 350.826,-71.6966 358.597,-64.4949 352.41,-61.2208"/>
<g id="a_edge7&#45;headlabel"><a xlink:href="dir_000158_000056.html" target="_top" xlink:title="5">
<text text-anchor="middle" x="351.581" y="-54.2157" font-family="Helvetica,sans-Serif" font-size="10.00">5</text>
</a>
</g>
</g>
<!-- dir_2171f7ec022c5423887b07c69b2f5b48&#45;&gt;dir_4ab6b4cc6a7edbff49100e9123df213f -->
<g id="edge12" class="edge"><title>dir_2171f7ec022c5423887b07c69b2f5b48&#45;&gt;dir_4ab6b4cc6a7edbff49100e9123df213f</title>
<path fill="none" stroke="black" d="M344.117,-108.104C345.471,-115.791 346.369,-125.054 346.652,-133.665"/>
<polygon fill="black" stroke="black" points="343.152,-133.707 346.68,-143.697 350.151,-133.687 343.152,-133.707"/>
<g id="a_edge12&#45;headlabel"><a xlink:href="dir_000056_000016.html" target="_top" xlink:title="20">
<text text-anchor="middle" x="340.302" y="-127.62" font-family="Helvetica,sans-Serif" font-size="10.00">20</text>
</a>
</g>
</g>
<!-- dir_2171f7ec022c5423887b07c69b2f5b48&#45;&gt;dir_37c90836491b695b472bf98d1be8336b -->
<g id="edge13" class="edge"><title>dir_2171f7ec022c5423887b07c69b2f5b48&#45;&gt;dir_37c90836491b695b472bf98d1be8336b</title>
<path fill="none" stroke="black" d="M338.994,-71.6966C341.845,-63.6436 346.091,-53.8945 350.576,-44.9824"/>
<polygon fill="black" stroke="black" points="353.691,-46.5784 355.286,-36.1043 347.507,-43.2977 353.691,-46.5784"/>
<g id="a_edge13&#45;headlabel"><a xlink:href="dir_000056_000158.html" target="_top" xlink:title="1">
<text text-anchor="middle" x="354.514" y="-48.5845" font-family="Helvetica,sans-Serif" font-size="10.00">1</text>
</a>
</g>
</g>
</g>
</svg>
