<?xml version="1.0" encoding="UTF-8" standalone="no"?>
<!DOCTYPE svg PUBLIC "-//W3C//DTD SVG 1.1//EN"
 "http://www.w3.org/Graphics/SVG/1.1/DTD/svg11.dtd">
<!-- Generated by graphviz version 2.36.0 (20140111.2315)
 -->
<!-- Title: /home/travis/build/AliceO2Group/AliceO2/Detectors/ITSMFT/ITS/reconstruction Pages: 1 -->
<!--zoomable 519 -->
<svg id="main" version="1.1" xmlns="http://www.w3.org/2000/svg" xmlns:xlink="http://www.w3.org/1999/xlink" xml:space="preserve" onload="init(evt)">
<style type="text/css"><![CDATA[
.edge:hover path { stroke: red; }
.edge:hover polygon { stroke: red; fill: red; }
]]></style>
<script type="text/javascript"><![CDATA[
var edges = document.getElementsByTagName('g');
if (edges && edges.length) {
  for (var i=0;i<edges.length;i++) {
    if (edges[i].id.substr(0,4)=='edge') {
      edges[i].setAttribute('class','edge');
    }
  }
}
]]></script>
        <defs>
                <circle id="rim" cx="0" cy="0" r="7"/>
                <circle id="rim2" cx="0" cy="0" r="3.5"/>
                <g id="zoomPlus">
                        <use xlink:href="#rim" fill="#404040">
                                <set attributeName="fill" to="#808080" begin="zoomplus.mouseover" end="zoomplus.mouseout"/>
                        </use>
                        <path d="M-4,0h8M0,-4v8" fill="none" stroke="white" stroke-width="1.5" pointer-events="none"/>
                </g>
                <g id="zoomMin">
                        <use xlink:href="#rim" fill="#404040">
                                <set attributeName="fill" to="#808080" begin="zoomminus.mouseover" end="zoomminus.mouseout"/>
                        </use>
                        <path d="M-4,0h8" fill="none" stroke="white" stroke-width="1.5" pointer-events="none"/>
                </g>
                <g id="dirArrow">
                        <path fill="none" stroke="white" stroke-width="1.5" d="M0,-3.0v7 M-2.5,-0.5L0,-3.0L2.5,-0.5"/>
                </g>
               <g id="resetDef">
                       <use xlink:href="#rim2" fill="#404040">
                               <set attributeName="fill" to="#808080" begin="reset.mouseover" end="reset.mouseout"/>
                       </use>
               </g>
        </defs>

<script type="text/javascript">
var viewWidth = 300;
var viewHeight = 519;
var sectionId = 'dynsection-0';
</script>
<script xlink:href="svgpan.js"/>
<svg id="graph" class="graph">
<g id="viewport">
<title>/home/travis/build/AliceO2Group/AliceO2/Detectors/ITSMFT/ITS/reconstruction</title>
<g id="clust1" class="cluster"><title>clusterdir_871aad07cbf94d6cd423c3d8d5bdf4e9</title>
<g id="a_clust1"><a xlink:href="dir_871aad07cbf94d6cd423c3d8d5bdf4e9.html" target="_top" xlink:title="ITS">
<polygon fill="#ddddee" stroke="black" points="102,-344 102,-503 284,-503 284,-344 102,-344"/>
<text text-anchor="middle" x="193" y="-491" font-family="Helvetica,sans-Serif" font-size="10.00">ITS</text>
</a>
</g>
</g>
<g id="clust2" class="cluster"><title>clusterdir_5125ceb2b58f632ed0a3019fe2d5cbbc</title>
<g id="a_clust2"><a xlink:href="dir_5125ceb2b58f632ed0a3019fe2d5cbbc.html" target="_top">
<polygon fill="#eeeeff" stroke="black" points="110,-352 110,-476 276,-476 276,-352 110,-352"/>
</a>
</g>
</g>
<!-- dir_5125ceb2b58f632ed0a3019fe2d5cbbc -->
<g id="node1" class="node"><title>dir_5125ceb2b58f632ed0a3019fe2d5cbbc</title>
<text text-anchor="middle" x="229" y="-447.5" font-family="Helvetica,sans-Serif" font-size="10.00">reconstruction</text>
</g>
<!-- dir_a7418508cffd1c8afbbd736339058404 -->
<g id="node2" class="node"><title>dir_a7418508cffd1c8afbbd736339058404</title>
<g id="a_node2"><a xlink:href="dir_a7418508cffd1c8afbbd736339058404.html" target="_top" xlink:title="include">
<polygon fill="white" stroke="red" points="200,-396 146,-396 146,-360 200,-360 200,-396"/>
<text text-anchor="middle" x="173" y="-375.5" font-family="Helvetica,sans-Serif" font-size="10.00">include</text>
</a>
</g>
</g>
<!-- dir_eedff867f3c4e67d20b227cb6e0f96ab -->
<g id="node4" class="node"><title>dir_eedff867f3c4e67d20b227cb6e0f96ab</title>
<g id="a_node4"><a xlink:href="dir_eedff867f3c4e67d20b227cb6e0f96ab.html" target="_top" xlink:title="base">
<polygon fill="none" stroke="red" points="276,-324 222,-324 222,-288 276,-288 276,-324"/>
<text text-anchor="middle" x="249" y="-303.5" font-family="Helvetica,sans-Serif" font-size="10.00">base</text>
</a>
</g>
</g>
<!-- dir_a7418508cffd1c8afbbd736339058404&#45;&gt;dir_eedff867f3c4e67d20b227cb6e0f96ab -->
<g id="edge17" class="edge"><title>dir_a7418508cffd1c8afbbd736339058404&#45;&gt;dir_eedff867f3c4e67d20b227cb6e0f96ab</title>
<path fill="none" stroke="black" d="M191.787,-359.697C201.174,-351.05 212.684,-340.449 222.913,-331.027"/>
<polygon fill="black" stroke="black" points="225.445,-333.454 230.43,-324.104 220.703,-328.305 225.445,-333.454"/>
<g id="a_edge17&#45;headlabel"><a xlink:href="dir_000032_000266.html" target="_top" xlink:title="4">
<text text-anchor="middle" x="224.725" y="-335.477" font-family="Helvetica,sans-Serif" font-size="10.00">4</text>
</a>
</g>
</g>
<!-- dir_4ab6b4cc6a7edbff49100e9123df213f -->
<g id="node5" class="node"><title>dir_4ab6b4cc6a7edbff49100e9123df213f</title>
<g id="a_node5"><a xlink:href="dir_4ab6b4cc6a7edbff49100e9123df213f.html" target="_top" xlink:title="Common">
<polygon fill="none" stroke="red" points="273.5,-180 218.5,-180 218.5,-144 273.5,-144 273.5,-180"/>
<text text-anchor="middle" x="246" y="-159.5" font-family="Helvetica,sans-Serif" font-size="10.00">Common</text>
</a>
</g>
</g>
<!-- dir_a7418508cffd1c8afbbd736339058404&#45;&gt;dir_4ab6b4cc6a7edbff49100e9123df213f -->
<g id="edge18" class="edge"><title>dir_a7418508cffd1c8afbbd736339058404&#45;&gt;dir_4ab6b4cc6a7edbff49100e9123df213f</title>
<path fill="none" stroke="black" d="M178.85,-359.849C191.531,-322.675 221.631,-234.439 236.851,-189.82"/>
<polygon fill="black" stroke="black" points="240.206,-190.827 240.122,-180.232 233.58,-188.567 240.206,-190.827"/>
<g id="a_edge18&#45;headlabel"><a xlink:href="dir_000032_000016.html" target="_top" xlink:title="1">
<text text-anchor="middle" x="241.732" y="-192.646" font-family="Helvetica,sans-Serif" font-size="10.00">1</text>
</a>
</g>
</g>
<!-- dir_85bf31a2e8d306e7598ffcb73f8df6bf -->
<g id="node7" class="node"><title>dir_85bf31a2e8d306e7598ffcb73f8df6bf</title>
<g id="a_node7"><a xlink:href="dir_85bf31a2e8d306e7598ffcb73f8df6bf.html" target="_top" xlink:title="common">
<polygon fill="none" stroke="red" points="162,-252 108,-252 108,-216 162,-216 162,-252"/>
<text text-anchor="middle" x="135" y="-231.5" font-family="Helvetica,sans-Serif" font-size="10.00">common</text>
</a>
</g>
</g>
<!-- dir_a7418508cffd1c8afbbd736339058404&#45;&gt;dir_85bf31a2e8d306e7598ffcb73f8df6bf -->
<g id="edge19" class="edge"><title>dir_a7418508cffd1c8afbbd736339058404&#45;&gt;dir_85bf31a2e8d306e7598ffcb73f8df6bf</title>
<path fill="none" stroke="black" d="M168.416,-359.871C161.911,-335.564 149.937,-290.819 142.229,-262.013"/>
<polygon fill="black" stroke="black" points="145.566,-260.945 139.6,-252.189 138.804,-262.754 145.566,-260.945"/>
<g id="a_edge19&#45;headlabel"><a xlink:href="dir_000032_000219.html" target="_top" xlink:title="6">
<text text-anchor="middle" x="149.238" y="-261.183" font-family="Helvetica,sans-Serif" font-size="10.00">6</text>
</a>
</g>
</g>
<!-- dir_2171f7ec022c5423887b07c69b2f5b48 -->
<g id="node8" class="node"><title>dir_2171f7ec022c5423887b07c69b2f5b48</title>
<g id="a_node8"><a xlink:href="dir_2171f7ec022c5423887b07c69b2f5b48.html" target="_top" xlink:title="DataFormats">
<polygon fill="none" stroke="red" points="196,-108 122,-108 122,-72 196,-72 196,-108"/>
<text text-anchor="middle" x="159" y="-87.5" font-family="Helvetica,sans-Serif" font-size="10.00">DataFormats</text>
</a>
</g>
</g>
<!-- dir_a7418508cffd1c8afbbd736339058404&#45;&gt;dir_2171f7ec022c5423887b07c69b2f5b48 -->
<g id="edge20" class="edge"><title>dir_a7418508cffd1c8afbbd736339058404&#45;&gt;dir_2171f7ec022c5423887b07c69b2f5b48</title>
<path fill="none" stroke="black" d="M158.654,-359.768C140.61,-336.86 110.588,-294.323 99,-252 85.5349,-202.823 116.8,-147.54 139.066,-116.229"/>
<polygon fill="black" stroke="black" points="141.967,-118.191 145.063,-108.058 136.324,-114.049 141.967,-118.191"/>
<g id="a_edge20&#45;headlabel"><a xlink:href="dir_000032_000056.html" target="_top" xlink:title="13">
<text text-anchor="middle" x="142.129" y="-120.269" font-family="Helvetica,sans-Serif" font-size="10.00">13</text>
</a>
</g>
</g>
<!-- dir_912fdeb75838ec7e9173df897dc72438 -->
<g id="node3" class="node"><title>dir_912fdeb75838ec7e9173df897dc72438</title>
<g id="a_node3"><a xlink:href="dir_912fdeb75838ec7e9173df897dc72438.html" target="_top" xlink:title="src">
<polygon fill="white" stroke="red" points="172,-468 118,-468 118,-432 172,-432 172,-468"/>
<text text-anchor="middle" x="145" y="-447.5" font-family="Helvetica,sans-Serif" font-size="10.00">src</text>
</a>
</g>
</g>
<!-- dir_912fdeb75838ec7e9173df897dc72438&#45;&gt;dir_a7418508cffd1c8afbbd736339058404 -->
<g id="edge12" class="edge"><title>dir_912fdeb75838ec7e9173df897dc72438&#45;&gt;dir_a7418508cffd1c8afbbd736339058404</title>
<path fill="none" stroke="black" d="M151.921,-431.697C155.075,-423.813 158.878,-414.304 162.381,-405.546"/>
<polygon fill="black" stroke="black" points="165.694,-406.689 166.158,-396.104 159.195,-404.089 165.694,-406.689"/>
<g id="a_edge12&#45;headlabel"><a xlink:href="dir_000089_000032.html" target="_top" xlink:title="35">
<text text-anchor="middle" x="166.995" y="-408.581" font-family="Helvetica,sans-Serif" font-size="10.00">35</text>
</a>
</g>
</g>
<!-- dir_912fdeb75838ec7e9173df897dc72438&#45;&gt;dir_eedff867f3c4e67d20b227cb6e0f96ab -->
<g id="edge8" class="edge"><title>dir_912fdeb75838ec7e9173df897dc72438&#45;&gt;dir_eedff867f3c4e67d20b227cb6e0f96ab</title>
<path fill="none" stroke="black" d="M170.8,-431.915C183.549,-422.488 198.425,-409.888 209,-396 223.287,-377.236 233.865,-352.559 240.542,-333.95"/>
<polygon fill="black" stroke="black" points="243.914,-334.907 243.849,-324.312 237.293,-332.635 243.914,-334.907"/>
<g id="a_edge8&#45;headlabel"><a xlink:href="dir_000089_000266.html" target="_top" xlink:title="1">
<text text-anchor="middle" x="245.433" y="-336.729" font-family="Helvetica,sans-Serif" font-size="10.00">1</text>
</a>
</g>
</g>
<!-- dir_912fdeb75838ec7e9173df897dc72438&#45;&gt;dir_4ab6b4cc6a7edbff49100e9123df213f -->
<g id="edge9" class="edge"><title>dir_912fdeb75838ec7e9173df897dc72438&#45;&gt;dir_4ab6b4cc6a7edbff49100e9123df213f</title>
<path fill="none" stroke="black" d="M172.244,-435.084C195.453,-422.912 226.641,-405.703 237,-396 265.069,-369.708 273.855,-360.809 285,-324 299.199,-277.103 277.224,-221.317 260.936,-189.246"/>
<polygon fill="black" stroke="black" points="263.869,-187.305 256.11,-180.09 257.677,-190.569 263.869,-187.305"/>
<g id="a_edge9&#45;headlabel"><a xlink:href="dir_000089_000016.html" target="_top" xlink:title="12">
<text text-anchor="middle" x="268.057" y="-186.661" font-family="Helvetica,sans-Serif" font-size="10.00">12</text>
</a>
</g>
</g>
<!-- dir_37c90836491b695b472bf98d1be8336b -->
<g id="node6" class="node"><title>dir_37c90836491b695b472bf98d1be8336b</title>
<g id="a_node6"><a xlink:href="dir_37c90836491b695b472bf98d1be8336b.html" target="_top" xlink:title="Base">
<polygon fill="none" stroke="red" points="186,-36 132,-36 132,-0 186,-0 186,-36"/>
<text text-anchor="middle" x="159" y="-15.5" font-family="Helvetica,sans-Serif" font-size="10.00">Base</text>
</a>
</g>
</g>
<!-- dir_912fdeb75838ec7e9173df897dc72438&#45;&gt;dir_37c90836491b695b472bf98d1be8336b -->
<g id="edge10" class="edge"><title>dir_912fdeb75838ec7e9173df897dc72438&#45;&gt;dir_37c90836491b695b472bf98d1be8336b</title>
<path fill="none" stroke="black" d="M117.618,-440.028C95.4439,-431.604 64.6105,-417.113 44,-396 13.1769,-364.425 0,-351.126 0,-307 0,-307 0,-307 0,-161 0,-95.7324 75.452,-53.0017 122.403,-32.7301"/>
<polygon fill="black" stroke="black" points="123.789,-35.9443 131.667,-28.8601 121.091,-29.4852 123.789,-35.9443"/>
<g id="a_edge10&#45;headlabel"><a xlink:href="dir_000089_000158.html" target="_top" xlink:title="1">
<text text-anchor="middle" x="121.566" y="-37.4497" font-family="Helvetica,sans-Serif" font-size="10.00">1</text>
</a>
</g>
</g>
<!-- dir_912fdeb75838ec7e9173df897dc72438&#45;&gt;dir_85bf31a2e8d306e7598ffcb73f8df6bf -->
<g id="edge11" class="edge"><title>dir_912fdeb75838ec7e9173df897dc72438&#45;&gt;dir_85bf31a2e8d306e7598ffcb73f8df6bf</title>
<path fill="none" stroke="black" d="M141.806,-431.884C140.028,-421.536 137.98,-408.058 137,-396 133.211,-349.394 133.52,-294.953 134.189,-262.816"/>
<polygon fill="black" stroke="black" points="137.697,-262.509 134.434,-252.429 130.699,-262.343 137.697,-262.509"/>
<g id="a_edge11&#45;headlabel"><a xlink:href="dir_000089_000219.html" target="_top" xlink:title="3">
<text text-anchor="middle" x="140.451" y="-263.669" font-family="Helvetica,sans-Serif" font-size="10.00">3</text>
</a>
</g>
</g>
<!-- dir_912fdeb75838ec7e9173df897dc72438&#45;&gt;dir_2171f7ec022c5423887b07c69b2f5b48 -->
<g id="edge13" class="edge"><title>dir_912fdeb75838ec7e9173df897dc72438&#45;&gt;dir_2171f7ec022c5423887b07c69b2f5b48</title>
<path fill="none" stroke="black" d="M120.183,-431.982C88.5742,-408.072 38,-361.328 38,-307 38,-307 38,-307 38,-233 38,-181.046 85.506,-138.449 120.985,-113.88"/>
<polygon fill="black" stroke="black" points="123.354,-116.505 129.709,-108.028 119.455,-110.692 123.354,-116.505"/>
<g id="a_edge13&#45;headlabel"><a xlink:href="dir_000089_000056.html" target="_top" xlink:title="20">
<text text-anchor="middle" x="121.951" y="-118.365" font-family="Helvetica,sans-Serif" font-size="10.00">20</text>
</a>
</g>
</g>
<!-- dir_eedff867f3c4e67d20b227cb6e0f96ab&#45;&gt;dir_4ab6b4cc6a7edbff49100e9123df213f -->
<g id="edge1" class="edge"><title>dir_eedff867f3c4e67d20b227cb6e0f96ab&#45;&gt;dir_4ab6b4cc6a7edbff49100e9123df213f</title>
<path fill="none" stroke="black" d="M248.638,-287.871C248.127,-263.67 247.188,-219.211 246.579,-190.393"/>
<polygon fill="black" stroke="black" points="250.074,-190.113 246.363,-180.189 243.075,-190.261 250.074,-190.113"/>
<g id="a_edge1&#45;headlabel"><a xlink:href="dir_000266_000016.html" target="_top" xlink:title="2">
<text text-anchor="middle" x="252.988" y="-191.147" font-family="Helvetica,sans-Serif" font-size="10.00">2</text>
</a>
</g>
</g>
<!-- dir_eedff867f3c4e67d20b227cb6e0f96ab&#45;&gt;dir_37c90836491b695b472bf98d1be8336b -->
<g id="edge2" class="edge"><title>dir_eedff867f3c4e67d20b227cb6e0f96ab&#45;&gt;dir_37c90836491b695b472bf98d1be8336b</title>
<path fill="none" stroke="black" d="M258.29,-287.743C273.093,-257.903 298.735,-194.964 282,-144 267.284,-99.1835 225.328,-62.8289 194.494,-41.1091"/>
<polygon fill="black" stroke="black" points="196.353,-38.1396 186.124,-35.3762 192.397,-43.9148 196.353,-38.1396"/>
<g id="a_edge2&#45;headlabel"><a xlink:href="dir_000266_000158.html" target="_top" xlink:title="2">
<text text-anchor="middle" x="200.923" y="-35.3284" font-family="Helvetica,sans-Serif" font-size="10.00">2</text>
</a>
</g>
</g>
<!-- dir_eedff867f3c4e67d20b227cb6e0f96ab&#45;&gt;dir_85bf31a2e8d306e7598ffcb73f8df6bf -->
<g id="edge3" class="edge"><title>dir_eedff867f3c4e67d20b227cb6e0f96ab&#45;&gt;dir_85bf31a2e8d306e7598ffcb73f8df6bf</title>
<path fill="none" stroke="black" d="M221.984,-288.411C206.762,-279.064 187.551,-267.268 171.058,-257.141"/>
<polygon fill="black" stroke="black" points="172.571,-253.963 162.218,-251.713 168.908,-259.928 172.571,-253.963"/>
<g id="a_edge3&#45;headlabel"><a xlink:href="dir_000266_000219.html" target="_top" xlink:title="2">
<text text-anchor="middle" x="177.12" y="-250.924" font-family="Helvetica,sans-Serif" font-size="10.00">2</text>
</a>
</g>
</g>
<!-- dir_eedff867f3c4e67d20b227cb6e0f96ab&#45;&gt;dir_2171f7ec022c5423887b07c69b2f5b48 -->
<g id="edge4" class="edge"><title>dir_eedff867f3c4e67d20b227cb6e0f96ab&#45;&gt;dir_2171f7ec022c5423887b07c69b2f5b48</title>
<path fill="none" stroke="black" d="M241.787,-287.849C226.12,-250.597 188.888,-162.067 170.161,-117.539"/>
<polygon fill="black" stroke="black" points="173.35,-116.094 166.247,-108.232 166.898,-118.807 173.35,-116.094"/>
<g id="a_edge4&#45;headlabel"><a xlink:href="dir_000266_000056.html" target="_top" xlink:title="1">
<text text-anchor="middle" x="177.361" y="-115.806" font-family="Helvetica,sans-Serif" font-size="10.00">1</text>
</a>
</g>
</g>
<!-- dir_4ab6b4cc6a7edbff49100e9123df213f&#45;&gt;dir_2171f7ec022c5423887b07c69b2f5b48 -->
<g id="edge5" class="edge"><title>dir_4ab6b4cc6a7edbff49100e9123df213f&#45;&gt;dir_2171f7ec022c5423887b07c69b2f5b48</title>
<path fill="none" stroke="black" d="M218.579,-143.697C206.826,-134.965 193.325,-124.24 182.088,-114.75"/>
<polygon fill="black" stroke="black" points="184.227,-111.973 174.363,-108.104 179.661,-117.279 184.227,-111.973"/>
<g id="a_edge5&#45;headlabel"><a xlink:href="dir_000016_000056.html" target="_top" xlink:title="3">
<text text-anchor="middle" x="188.803" y="-109.665" font-family="Helvetica,sans-Serif" font-size="10.00">3</text>
</a>
</g>
</g>
<!-- dir_37c90836491b695b472bf98d1be8336b&#45;&gt;dir_4ab6b4cc6a7edbff49100e9123df213f -->
<g id="edge6" class="edge"><title>dir_37c90836491b695b472bf98d1be8336b&#45;&gt;dir_4ab6b4cc6a7edbff49100e9123df213f</title>
<path fill="none" stroke="black" d="M176.098,-36.1433C185.4,-46.0619 196.674,-59.1026 205,-72 217.768,-91.7774 228.712,-116.177 236.073,-134.424"/>
<polygon fill="black" stroke="black" points="232.867,-135.834 239.783,-143.86 239.381,-133.273 232.867,-135.834"/>
<g id="a_edge6&#45;headlabel"><a xlink:href="dir_000158_000016.html" target="_top" xlink:title="5">
<text text-anchor="middle" x="228.909" y="-131.028" font-family="Helvetica,sans-Serif" font-size="10.00">5</text>
</a>
</g>
</g>
<!-- dir_37c90836491b695b472bf98d1be8336b&#45;&gt;dir_2171f7ec022c5423887b07c69b2f5b48 -->
<g id="edge7" class="edge"><title>dir_37c90836491b695b472bf98d1be8336b&#45;&gt;dir_2171f7ec022c5423887b07c69b2f5b48</title>
<path fill="none" stroke="black" d="M164.895,-36.1043C165.701,-43.7913 165.937,-53.0537 165.604,-61.6651"/>
<polygon fill="black" stroke="black" points="162.109,-61.4805 164.916,-71.6966 169.092,-61.9597 162.109,-61.4805"/>
<g id="a_edge7&#45;headlabel"><a xlink:href="dir_000158_000056.html" target="_top" xlink:title="5">
<text text-anchor="middle" x="159.522" y="-55.2" font-family="Helvetica,sans-Serif" font-size="10.00">5</text>
</a>
</g>
</g>
<!-- dir_85bf31a2e8d306e7598ffcb73f8df6bf&#45;&gt;dir_4ab6b4cc6a7edbff49100e9123df213f -->
<g id="edge14" class="edge"><title>dir_85bf31a2e8d306e7598ffcb73f8df6bf&#45;&gt;dir_4ab6b4cc6a7edbff49100e9123df213f</title>
<path fill="none" stroke="black" d="M162.154,-215.876C176.533,-206.808 194.381,-195.552 209.91,-185.759"/>
<polygon fill="black" stroke="black" points="212.15,-188.484 218.742,-180.19 208.416,-182.564 212.15,-188.484"/>
<g id="a_edge14&#45;headlabel"><a xlink:href="dir_000219_000016.html" target="_top" xlink:title="3">
<text text-anchor="middle" x="210.624" y="-190.303" font-family="Helvetica,sans-Serif" font-size="10.00">3</text>
</a>
</g>
</g>
<!-- dir_85bf31a2e8d306e7598ffcb73f8df6bf&#45;&gt;dir_37c90836491b695b472bf98d1be8336b -->
<g id="edge15" class="edge"><title>dir_85bf31a2e8d306e7598ffcb73f8df6bf&#45;&gt;dir_37c90836491b695b472bf98d1be8336b</title>
<path fill="none" stroke="black" d="M127.435,-215.953C115.227,-185.9 94.3467,-121.95 113,-72 116.876,-61.6206 123.803,-51.9274 131.124,-43.7427"/>
<polygon fill="black" stroke="black" points="133.784,-46.0256 138.177,-36.3845 128.731,-41.1816 133.784,-46.0256"/>
<g id="a_edge15&#45;headlabel"><a xlink:href="dir_000219_000158.html" target="_top" xlink:title="2">
<text text-anchor="middle" x="133.346" y="-48.0853" font-family="Helvetica,sans-Serif" font-size="10.00">2</text>
</a>
</g>
</g>
<!-- dir_85bf31a2e8d306e7598ffcb73f8df6bf&#45;&gt;dir_2171f7ec022c5423887b07c69b2f5b48 -->
<g id="edge16" class="edge"><title>dir_85bf31a2e8d306e7598ffcb73f8df6bf&#45;&gt;dir_2171f7ec022c5423887b07c69b2f5b48</title>
<path fill="none" stroke="black" d="M137.895,-215.871C141.985,-191.67 149.5,-147.211 154.37,-118.393"/>
<polygon fill="black" stroke="black" points="157.879,-118.633 156.095,-108.189 150.977,-117.466 157.879,-118.633"/>
<g id="a_edge16&#45;headlabel"><a xlink:href="dir_000219_000056.html" target="_top" xlink:title="21">
<text text-anchor="middle" x="160.08" y="-120.15" font-family="Helvetica,sans-Serif" font-size="10.00">21</text>
</a>
</g>
</g>
<!-- dir_2171f7ec022c5423887b07c69b2f5b48&#45;&gt;dir_4ab6b4cc6a7edbff49100e9123df213f -->
<g id="edge21" class="edge"><title>dir_2171f7ec022c5423887b07c69b2f5b48&#45;&gt;dir_4ab6b4cc6a7edbff49100e9123df213f</title>
<path fill="none" stroke="black" d="M186.153,-108.104C197.879,-116.805 211.383,-127.524 222.655,-137.033"/>
<polygon fill="black" stroke="black" points="220.544,-139.834 230.41,-143.697 225.106,-134.525 220.544,-139.834"/>
<g id="a_edge21&#45;headlabel"><a xlink:href="dir_000056_000016.html" target="_top" xlink:title="20">
<text text-anchor="middle" x="215.968" y="-137.145" font-family="Helvetica,sans-Serif" font-size="10.00">20</text>
</a>
</g>
</g>
<!-- dir_2171f7ec022c5423887b07c69b2f5b48&#45;&gt;dir_37c90836491b695b472bf98d1be8336b -->
<g id="edge22" class="edge"><title>dir_2171f7ec022c5423887b07c69b2f5b48&#45;&gt;dir_37c90836491b695b472bf98d1be8336b</title>
<path fill="none" stroke="black" d="M153.084,-71.6966C152.289,-63.9827 152.062,-54.7125 152.405,-46.1124"/>
<polygon fill="black" stroke="black" points="155.898,-46.3243 153.105,-36.1043 148.915,-45.8356 155.898,-46.3243"/>
<g id="a_edge22&#45;headlabel"><a xlink:href="dir_000056_000158.html" target="_top" xlink:title="1">
<text text-anchor="middle" x="158.48" y="-47.6083" font-family="Helvetica,sans-Serif" font-size="10.00">1</text>
</a>
</g>
</g>
</g>
</svg>
        <g id="navigator" transform="translate(0 0)" fill="#404254">
                <rect fill="#f2f5e9" fill-opacity="0.5" stroke="#606060" stroke-width=".5" x="0" y="0" width="60" height="60"/>
                <use id="zoomplus" xlink:href="#zoomPlus" x="17" y="9" onmousedown="handleZoom(evt,'in')"/>
                <use id="zoomminus" xlink:href="#zoomMin" x="42" y="9" onmousedown="handleZoom(evt,'out')"/>
                <use id="reset" xlink:href="#resetDef" x="30" y="36" onmousedown="handleReset()"/>
                <g id="arrowUp" xlink:href="#dirArrow" transform="translate(30 24)" onmousedown="handlePan(0,-1)">
                  <use xlink:href="#rim" fill="#404040">
                        <set attributeName="fill" to="#808080" begin="arrowUp.mouseover" end="arrowUp.mouseout"/>
                  </use>
                  <path fill="none" stroke="white" stroke-width="1.5" d="M0,-3.0v7 M-2.5,-0.5L0,-3.0L2.5,-0.5"/>
                </g>
                <g id="arrowRight" xlink:href="#dirArrow" transform="rotate(90) translate(36 -43)" onmousedown="handlePan(1,0)">
                  <use xlink:href="#rim" fill="#404040">
                        <set attributeName="fill" to="#808080" begin="arrowRight.mouseover" end="arrowRight.mouseout"/>
                  </use>
                  <path fill="none" stroke="white" stroke-width="1.5" d="M0,-3.0v7 M-2.5,-0.5L0,-3.0L2.5,-0.5"/>
                </g>
                <g id="arrowDown" xlink:href="#dirArrow" transform="rotate(180) translate(-30 -48)" onmousedown="handlePan(0,1)">
                  <use xlink:href="#rim" fill="#404040">
                        <set attributeName="fill" to="#808080" begin="arrowDown.mouseover" end="arrowDown.mouseout"/>
                  </use>
                  <path fill="none" stroke="white" stroke-width="1.5" d="M0,-3.0v7 M-2.5,-0.5L0,-3.0L2.5,-0.5"/>
                </g>
                <g id="arrowLeft" xlink:href="#dirArrow" transform="rotate(270) translate(-36 17)" onmousedown="handlePan(-1,0)">
                  <use xlink:href="#rim" fill="#404040">
                        <set attributeName="fill" to="#808080" begin="arrowLeft.mouseover" end="arrowLeft.mouseout"/>
                  </use>
                  <path fill="none" stroke="white" stroke-width="1.5" d="M0,-3.0v7 M-2.5,-0.5L0,-3.0L2.5,-0.5"/>
                </g>
        </g>
        <svg viewBox="0 0 15 15" width="100%" height="30px" preserveAspectRatio="xMaxYMin meet">
         <g id="arrow_out" transform="scale(0.3 0.3)">
          <a xlink:href="dir_5125ceb2b58f632ed0a3019fe2d5cbbc_dep_org.svg" target="_base">
           <rect id="button" ry="5" rx="5" y="6" x="6" height="38" width="38"
                fill="#f2f5e9" fill-opacity="0.5" stroke="#606060" stroke-width="1.0"/>
           <path id="arrow"
             d="M 11.500037,31.436501 C 11.940474,20.09759 22.043105,11.32322 32.158766,21.979434 L 37.068811,17.246167 C 37.068811,17.246167 37.088388,32 37.088388,32 L 22.160133,31.978069 C 22.160133,31.978069 26.997745,27.140456 26.997745,27.140456 C 18.528582,18.264221 13.291696,25.230495 11.500037,31.436501 z"
             style="fill:#404040;"/>
          </a>
         </g>
        </svg>
</svg>
