<?xml version="1.0" encoding="UTF-8" standalone="no"?>
<!DOCTYPE svg PUBLIC "-//W3C//DTD SVG 1.1//EN"
 "http://www.w3.org/Graphics/SVG/1.1/DTD/svg11.dtd">
<!-- Generated by graphviz version 2.36.0 (20140111.2315)
 -->
<!-- Title: /home/travis/build/AliceO2Group/AliceO2/DataFormats/simulation/src Pages: 1 -->
<svg width="128pt" height="295pt"
 viewBox="0.00 0.00 128.00 295.00" xmlns="http://www.w3.org/2000/svg" xmlns:xlink="http://www.w3.org/1999/xlink">
<g id="graph0" class="graph" transform="scale(1 1) rotate(0) translate(4 291)">
<title>/home/travis/build/AliceO2Group/AliceO2/DataFormats/simulation/src</title>
<g id="clust1" class="cluster"><title>clusterdir_047746f9f311f49446db9474b7431d0d</title>
<g id="a_clust1"><a xlink:href="dir_047746f9f311f49446db9474b7431d0d.html" target="_top" xlink:title="simulation">
<polygon fill="#ddddee" stroke="black" points="42,-208 42,-279 112,-279 112,-208 42,-208"/>
<text text-anchor="middle" x="77" y="-267" font-family="Helvetica,sans-Serif" font-size="10.00">simulation</text>
</a>
</g>
</g>
<!-- dir_38abbb9c71f32f91a25826cfc3ede3a8 -->
<g id="node1" class="node"><title>dir_38abbb9c71f32f91a25826cfc3ede3a8</title>
<g id="a_node1"><a xlink:href="dir_38abbb9c71f32f91a25826cfc3ede3a8.html" target="_top" xlink:title="src">
<polygon fill="#eeeeff" stroke="black" points="104,-252 50,-252 50,-216 104,-216 104,-252"/>
<text text-anchor="middle" x="77" y="-231.5" font-family="Helvetica,sans-Serif" font-size="10.00">src</text>
</a>
</g>
</g>
<!-- dir_2801adc79bf3c286b1b479858d2cade4 -->
<g id="node2" class="node"><title>dir_2801adc79bf3c286b1b479858d2cade4</title>
<g id="a_node2"><a xlink:href="dir_2801adc79bf3c286b1b479858d2cade4.html" target="_top" xlink:title="Detectors">
<polygon fill="none" stroke="red" points="58.25,-108 -0.25,-108 -0.25,-72 58.25,-72 58.25,-108"/>
<text text-anchor="middle" x="29" y="-87.5" font-family="Helvetica,sans-Serif" font-size="10.00">Detectors</text>
</a>
</g>
</g>
<!-- dir_38abbb9c71f32f91a25826cfc3ede3a8&#45;&gt;dir_2801adc79bf3c286b1b479858d2cade4 -->
<g id="edge1" class="edge"><title>dir_38abbb9c71f32f91a25826cfc3ede3a8&#45;&gt;dir_2801adc79bf3c286b1b479858d2cade4</title>
<path fill="none" stroke="black" d="M60.6466,-215.802C52.3999,-206.067 43.0906,-193.22 38,-180 30.3846,-160.224 28.3306,-136.244 28.0728,-118.161"/>
<polygon fill="black" stroke="black" points="31.5732,-118.024 28.1054,-108.013 24.5732,-118.001 31.5732,-118.024"/>
<g id="a_edge1&#45;headlabel"><a xlink:href="dir_000151_000066.html" target="_top" xlink:title="1">
<text text-anchor="middle" x="34.401" y="-119.127" font-family="Helvetica,sans-Serif" font-size="10.00">1</text>
</a>
</g>
</g>
<!-- dir_051dca18e802f8e9474f2e30d29c04e0 -->
<g id="node3" class="node"><title>dir_051dca18e802f8e9474f2e30d29c04e0</title>
<g id="a_node3"><a xlink:href="dir_051dca18e802f8e9474f2e30d29c04e0.html" target="_top" xlink:title="Detectors">
<polygon fill="none" stroke="red" points="106.25,-180 47.75,-180 47.75,-144 106.25,-144 106.25,-180"/>
<text text-anchor="middle" x="77" y="-159.5" font-family="Helvetica,sans-Serif" font-size="10.00">Detectors</text>
</a>
</g>
</g>
<!-- dir_38abbb9c71f32f91a25826cfc3ede3a8&#45;&gt;dir_051dca18e802f8e9474f2e30d29c04e0 -->
<g id="edge2" class="edge"><title>dir_38abbb9c71f32f91a25826cfc3ede3a8&#45;&gt;dir_051dca18e802f8e9474f2e30d29c04e0</title>
<path fill="none" stroke="black" d="M77,-215.697C77,-207.983 77,-198.712 77,-190.112"/>
<polygon fill="black" stroke="black" points="80.5001,-190.104 77,-180.104 73.5001,-190.104 80.5001,-190.104"/>
<g id="a_edge2&#45;headlabel"><a xlink:href="dir_000151_000028.html" target="_top" xlink:title="1">
<text text-anchor="middle" x="83.3393" y="-191.199" font-family="Helvetica,sans-Serif" font-size="10.00">1</text>
</a>
</g>
</g>
<!-- dir_e977c6a9672cee72083a88d55f0ce0c6 -->
<g id="node4" class="node"><title>dir_e977c6a9672cee72083a88d55f0ce0c6</title>
<g id="a_node4"><a xlink:href="dir_e977c6a9672cee72083a88d55f0ce0c6.html" target="_top" xlink:title="include">
<polygon fill="none" stroke="red" points="85,-36 31,-36 31,-0 85,-0 85,-36"/>
<text text-anchor="middle" x="58" y="-15.5" font-family="Helvetica,sans-Serif" font-size="10.00">include</text>
</a>
</g>
</g>
<!-- dir_38abbb9c71f32f91a25826cfc3ede3a8&#45;&gt;dir_e977c6a9672cee72083a88d55f0ce0c6 -->
<g id="edge3" class="edge"><title>dir_38abbb9c71f32f91a25826cfc3ede3a8&#45;&gt;dir_e977c6a9672cee72083a88d55f0ce0c6</title>
<path fill="none" stroke="black" d="M93.4635,-215.919C101.654,-206.218 110.704,-193.366 115,-180 119.896,-164.768 118.23,-159.671 115,-144 107.528,-107.751 88.1712,-69.5189 74.083,-45.0267"/>
<polygon fill="black" stroke="black" points="77.0638,-43.1908 68.9774,-36.3454 71.0299,-46.7395 77.0638,-43.1908"/>
<g id="a_edge3&#45;headlabel"><a xlink:href="dir_000151_000129.html" target="_top" xlink:title="6">
<text text-anchor="middle" x="81.3334" y="-42.35" font-family="Helvetica,sans-Serif" font-size="10.00">6</text>
</a>
</g>
</g>
<!-- dir_2801adc79bf3c286b1b479858d2cade4&#45;&gt;dir_e977c6a9672cee72083a88d55f0ce0c6 -->
<g id="edge4" class="edge"><title>dir_2801adc79bf3c286b1b479858d2cade4&#45;&gt;dir_e977c6a9672cee72083a88d55f0ce0c6</title>
<path fill="none" stroke="black" d="M30.2528,-71.6966C32.732,-63.7284 36.5065,-54.0995 40.5596,-45.2641"/>
<polygon fill="black" stroke="black" points="43.7886,-46.6275 45.0189,-36.1043 37.4948,-43.5634 43.7886,-46.6275"/>
<g id="a_edge4&#45;headlabel"><a xlink:href="dir_000066_000129.html" target="_top" xlink:title="2">
<text text-anchor="middle" x="44.768" y="-48.6022" font-family="Helvetica,sans-Serif" font-size="10.00">2</text>
</a>
</g>
</g>
<!-- dir_051dca18e802f8e9474f2e30d29c04e0&#45;&gt;dir_2801adc79bf3c286b1b479858d2cade4 -->
<g id="edge5" class="edge"><title>dir_051dca18e802f8e9474f2e30d29c04e0&#45;&gt;dir_2801adc79bf3c286b1b479858d2cade4</title>
<path fill="none" stroke="black" d="M65.1348,-143.697C59.4965,-135.474 52.6457,-125.483 46.4313,-116.421"/>
<polygon fill="black" stroke="black" points="49.2706,-114.372 40.7287,-108.104 43.4975,-118.331 49.2706,-114.372"/>
<g id="a_edge5&#45;headlabel"><a xlink:href="dir_000028_000066.html" target="_top" xlink:title="139">
<text text-anchor="middle" x="53.645" y="-113.231" font-family="Helvetica,sans-Serif" font-size="10.00">139</text>
</a>
</g>
</g>
<!-- dir_051dca18e802f8e9474f2e30d29c04e0&#45;&gt;dir_e977c6a9672cee72083a88d55f0ce0c6 -->
<g id="edge6" class="edge"><title>dir_051dca18e802f8e9474f2e30d29c04e0&#45;&gt;dir_e977c6a9672cee72083a88d55f0ce0c6</title>
<path fill="none" stroke="black" d="M75.3675,-143.902C73.5867,-125.957 70.5161,-96.9421 67,-72 65.8091,-63.5525 64.3213,-54.3805 62.9004,-46.0784"/>
<polygon fill="black" stroke="black" points="66.3341,-45.3952 61.1637,-36.1477 59.4387,-46.6011 66.3341,-45.3952"/>
<g id="a_edge6&#45;headlabel"><a xlink:href="dir_000028_000129.html" target="_top" xlink:title="134">
<text text-anchor="middle" x="69.75" y="-45.947" font-family="Helvetica,sans-Serif" font-size="10.00">134</text>
</a>
</g>
</g>
<!-- dir_e977c6a9672cee72083a88d55f0ce0c6&#45;&gt;dir_2801adc79bf3c286b1b479858d2cade4 -->
<g id="edge7" class="edge"><title>dir_e977c6a9672cee72083a88d55f0ce0c6&#45;&gt;dir_2801adc79bf3c286b1b479858d2cade4</title>
<path fill="none" stroke="black" d="M56.809,-36.1043C54.3514,-44.0447 50.5901,-53.6661 46.5418,-62.5146"/>
<polygon fill="black" stroke="black" points="43.3029,-61.1721 42.0843,-71.6966 49.6001,-64.2292 43.3029,-61.1721"/>
<g id="a_edge7&#45;headlabel"><a xlink:href="dir_000129_000066.html" target="_top" xlink:title="2">
<text text-anchor="middle" x="42.3185" y="-54.1985" font-family="Helvetica,sans-Serif" font-size="10.00">2</text>
</a>
</g>
</g>
</g>
</svg>
