<?xml version="1.0" encoding="UTF-8" standalone="no"?>
<!DOCTYPE svg PUBLIC "-//W3C//DTD SVG 1.1//EN"
 "http://www.w3.org/Graphics/SVG/1.1/DTD/svg11.dtd">
<!-- Generated by graphviz version 2.36.0 (20140111.2315)
 -->
<!-- Title: /home/travis/build/AliceO2Group/AliceO2/Detectors/ITSMFT/ITS Pages: 1 -->
<svg width="582pt" height="375pt"
 viewBox="0.00 0.00 582.20 375.00" xmlns="http://www.w3.org/2000/svg" xmlns:xlink="http://www.w3.org/1999/xlink">
<g id="graph0" class="graph" transform="scale(1 1) rotate(0) translate(4 371)">
<title>/home/travis/build/AliceO2Group/AliceO2/Detectors/ITSMFT/ITS</title>
<g id="clust1" class="cluster"><title>clusterdir_1306292b77b40360479b729ac9ee7efe</title>
<g id="a_clust1"><a xlink:href="dir_1306292b77b40360479b729ac9ee7efe.html" target="_top" xlink:title="ITSMFT">
<polygon fill="#ddddee" stroke="black" points="8,-200 8,-359 342,-359 342,-200 8,-200"/>
<text text-anchor="middle" x="175" y="-347" font-family="Helvetica,sans-Serif" font-size="10.00">ITSMFT</text>
</a>
</g>
</g>
<g id="clust2" class="cluster"><title>clusterdir_871aad07cbf94d6cd423c3d8d5bdf4e9</title>
<g id="a_clust2"><a xlink:href="dir_871aad07cbf94d6cd423c3d8d5bdf4e9.html" target="_top">
<polygon fill="#eeeeff" stroke="black" points="16,-208 16,-332 334,-332 334,-208 16,-208"/>
</a>
</g>
</g>
<!-- dir_871aad07cbf94d6cd423c3d8d5bdf4e9 -->
<g id="node1" class="node"><title>dir_871aad07cbf94d6cd423c3d8d5bdf4e9</title>
<text text-anchor="middle" x="299" y="-303.5" font-family="Helvetica,sans-Serif" font-size="10.00">ITS</text>
</g>
<!-- dir_eedff867f3c4e67d20b227cb6e0f96ab -->
<g id="node2" class="node"><title>dir_eedff867f3c4e67d20b227cb6e0f96ab</title>
<g id="a_node2"><a xlink:href="dir_eedff867f3c4e67d20b227cb6e0f96ab.html" target="_top" xlink:title="base">
<polygon fill="white" stroke="red" points="218,-252 164,-252 164,-216 218,-216 218,-252"/>
<text text-anchor="middle" x="191" y="-231.5" font-family="Helvetica,sans-Serif" font-size="10.00">base</text>
</a>
</g>
</g>
<!-- dir_4ab6b4cc6a7edbff49100e9123df213f -->
<g id="node6" class="node"><title>dir_4ab6b4cc6a7edbff49100e9123df213f</title>
<g id="a_node6"><a xlink:href="dir_4ab6b4cc6a7edbff49100e9123df213f.html" target="_top" xlink:title="Common">
<polygon fill="none" stroke="red" points="459.5,-180 404.5,-180 404.5,-144 459.5,-144 459.5,-180"/>
<text text-anchor="middle" x="432" y="-159.5" font-family="Helvetica,sans-Serif" font-size="10.00">Common</text>
</a>
</g>
</g>
<!-- dir_eedff867f3c4e67d20b227cb6e0f96ab&#45;&gt;dir_4ab6b4cc6a7edbff49100e9123df213f -->
<g id="edge1" class="edge"><title>dir_eedff867f3c4e67d20b227cb6e0f96ab&#45;&gt;dir_4ab6b4cc6a7edbff49100e9123df213f</title>
<path fill="none" stroke="black" d="M218.351,-220.213C233.365,-213.543 252.448,-205.625 270,-200 311.771,-186.614 361.07,-176.077 394.219,-169.727"/>
<polygon fill="black" stroke="black" points="395.205,-173.103 404.385,-167.814 393.91,-166.223 395.205,-173.103"/>
<g id="a_edge1&#45;headlabel"><a xlink:href="dir_000266_000016.html" target="_top" xlink:title="2">
<text text-anchor="middle" x="392.197" y="-174.058" font-family="Helvetica,sans-Serif" font-size="10.00">2</text>
</a>
</g>
</g>
<!-- dir_37c90836491b695b472bf98d1be8336b -->
<g id="node8" class="node"><title>dir_37c90836491b695b472bf98d1be8336b</title>
<g id="a_node8"><a xlink:href="dir_37c90836491b695b472bf98d1be8336b.html" target="_top" xlink:title="Base">
<polygon fill="none" stroke="red" points="351,-36 297,-36 297,-0 351,-0 351,-36"/>
<text text-anchor="middle" x="324" y="-15.5" font-family="Helvetica,sans-Serif" font-size="10.00">Base</text>
</a>
</g>
</g>
<!-- dir_eedff867f3c4e67d20b227cb6e0f96ab&#45;&gt;dir_37c90836491b695b472bf98d1be8336b -->
<g id="edge2" class="edge"><title>dir_eedff867f3c4e67d20b227cb6e0f96ab&#45;&gt;dir_37c90836491b695b472bf98d1be8336b</title>
<path fill="none" stroke="black" d="M191.24,-215.694C192.134,-197.065 195.452,-167.011 207,-144 227.661,-102.83 266.182,-65.6983 293.369,-42.8028"/>
<polygon fill="black" stroke="black" points="295.925,-45.2306 301.41,-36.1655 291.469,-39.832 295.925,-45.2306"/>
<g id="a_edge2&#45;headlabel"><a xlink:href="dir_000266_000158.html" target="_top" xlink:title="2">
<text text-anchor="middle" x="294.961" y="-47.2084" font-family="Helvetica,sans-Serif" font-size="10.00">2</text>
</a>
</g>
</g>
<!-- dir_85bf31a2e8d306e7598ffcb73f8df6bf -->
<g id="node9" class="node"><title>dir_85bf31a2e8d306e7598ffcb73f8df6bf</title>
<g id="a_node9"><a xlink:href="dir_85bf31a2e8d306e7598ffcb73f8df6bf.html" target="_top" xlink:title="common">
<polygon fill="none" stroke="red" points="404,-252 350,-252 350,-216 404,-216 404,-252"/>
<text text-anchor="middle" x="377" y="-231.5" font-family="Helvetica,sans-Serif" font-size="10.00">common</text>
</a>
</g>
</g>
<!-- dir_eedff867f3c4e67d20b227cb6e0f96ab&#45;&gt;dir_85bf31a2e8d306e7598ffcb73f8df6bf -->
<g id="edge3" class="edge"><title>dir_eedff867f3c4e67d20b227cb6e0f96ab&#45;&gt;dir_85bf31a2e8d306e7598ffcb73f8df6bf</title>
<path fill="none" stroke="black" d="M218.246,-234C258.731,-234 299.215,-234 339.7,-234"/>
<polygon fill="black" stroke="black" points="339.714,-237.5 349.714,-234 339.714,-230.5 339.714,-237.5"/>
<g id="a_edge3&#45;headlabel"><a xlink:href="dir_000266_000219.html" target="_top" xlink:title="2">
<text text-anchor="middle" x="336.12" y="-237.839" font-family="Helvetica,sans-Serif" font-size="10.00">2</text>
</a>
</g>
</g>
<!-- dir_2171f7ec022c5423887b07c69b2f5b48 -->
<g id="node10" class="node"><title>dir_2171f7ec022c5423887b07c69b2f5b48</title>
<g id="a_node10"><a xlink:href="dir_2171f7ec022c5423887b07c69b2f5b48.html" target="_top" xlink:title="DataFormats">
<polygon fill="none" stroke="red" points="426,-108 352,-108 352,-72 426,-72 426,-108"/>
<text text-anchor="middle" x="389" y="-87.5" font-family="Helvetica,sans-Serif" font-size="10.00">DataFormats</text>
</a>
</g>
</g>
<!-- dir_eedff867f3c4e67d20b227cb6e0f96ab&#45;&gt;dir_2171f7ec022c5423887b07c69b2f5b48 -->
<g id="edge4" class="edge"><title>dir_eedff867f3c4e67d20b227cb6e0f96ab&#45;&gt;dir_2171f7ec022c5423887b07c69b2f5b48</title>
<path fill="none" stroke="black" d="M195.424,-215.82C201.411,-195.872 213.964,-163.252 236,-144 265.833,-117.936 309.184,-104.507 342.13,-97.7006"/>
<polygon fill="black" stroke="black" points="342.84,-101.128 351.994,-95.7941 341.512,-94.2554 342.84,-101.128"/>
<g id="a_edge4&#45;headlabel"><a xlink:href="dir_000266_000056.html" target="_top" xlink:title="1">
<text text-anchor="middle" x="339.85" y="-102.098" font-family="Helvetica,sans-Serif" font-size="10.00">1</text>
</a>
</g>
</g>
<!-- dir_d1915fc52ae3a2d414030e7b83b60b4d -->
<g id="node3" class="node"><title>dir_d1915fc52ae3a2d414030e7b83b60b4d</title>
<g id="a_node3"><a xlink:href="dir_d1915fc52ae3a2d414030e7b83b60b4d.html" target="_top" xlink:title="macros">
<polygon fill="white" stroke="red" points="174,-324 120,-324 120,-288 174,-288 174,-324"/>
<text text-anchor="middle" x="147" y="-303.5" font-family="Helvetica,sans-Serif" font-size="10.00">macros</text>
</a>
</g>
</g>
<!-- dir_d1915fc52ae3a2d414030e7b83b60b4d&#45;&gt;dir_eedff867f3c4e67d20b227cb6e0f96ab -->
<g id="edge24" class="edge"><title>dir_d1915fc52ae3a2d414030e7b83b60b4d&#45;&gt;dir_eedff867f3c4e67d20b227cb6e0f96ab</title>
<path fill="none" stroke="black" d="M157.876,-287.697C162.992,-279.559 169.195,-269.689 174.845,-260.701"/>
<polygon fill="black" stroke="black" points="177.89,-262.433 180.249,-252.104 171.964,-258.708 177.89,-262.433"/>
<g id="a_edge24&#45;headlabel"><a xlink:href="dir_000282_000266.html" target="_top" xlink:title="6">
<text text-anchor="middle" x="178.381" y="-264.488" font-family="Helvetica,sans-Serif" font-size="10.00">6</text>
</a>
</g>
</g>
<!-- dir_d1915fc52ae3a2d414030e7b83b60b4d&#45;&gt;dir_4ab6b4cc6a7edbff49100e9123df213f -->
<g id="edge25" class="edge"><title>dir_d1915fc52ae3a2d414030e7b83b60b4d&#45;&gt;dir_4ab6b4cc6a7edbff49100e9123df213f</title>
<path fill="none" stroke="black" d="M174.194,-291.172C177.122,-289.982 180.093,-288.894 183,-288 281.9,-257.599 337.852,-323.12 413,-252 429.536,-236.35 433.476,-210.119 433.761,-190.178"/>
<polygon fill="black" stroke="black" points="437.26,-190.08 433.613,-180.133 430.261,-190.184 437.26,-190.08"/>
<g id="a_edge25&#45;headlabel"><a xlink:href="dir_000282_000016.html" target="_top" xlink:title="7">
<text text-anchor="middle" x="440.152" y="-191.132" font-family="Helvetica,sans-Serif" font-size="10.00">7</text>
</a>
</g>
</g>
<!-- dir_a597e8e061b11201a1dff411feb10d0b -->
<g id="node7" class="node"><title>dir_a597e8e061b11201a1dff411feb10d0b</title>
<g id="a_node7"><a xlink:href="dir_a597e8e061b11201a1dff411feb10d0b.html" target="_top" xlink:title="TPC">
<polygon fill="none" stroke="red" points="552,-252 498,-252 498,-216 552,-216 552,-252"/>
<text text-anchor="middle" x="525" y="-231.5" font-family="Helvetica,sans-Serif" font-size="10.00">TPC</text>
</a>
</g>
</g>
<!-- dir_d1915fc52ae3a2d414030e7b83b60b4d&#45;&gt;dir_a597e8e061b11201a1dff411feb10d0b -->
<g id="edge26" class="edge"><title>dir_d1915fc52ae3a2d414030e7b83b60b4d&#45;&gt;dir_a597e8e061b11201a1dff411feb10d0b</title>
<path fill="none" stroke="black" d="M174.177,-291.115C177.108,-289.936 180.085,-288.866 183,-288 296.099,-254.421 329.803,-272.425 446,-252 459.628,-249.604 474.482,-246.531 487.594,-243.658"/>
<polygon fill="black" stroke="black" points="488.679,-247.003 497.68,-241.414 487.158,-240.17 488.679,-247.003"/>
<g id="a_edge26&#45;headlabel"><a xlink:href="dir_000282_000191.html" target="_top" xlink:title="1">
<text text-anchor="middle" x="485.787" y="-248.055" font-family="Helvetica,sans-Serif" font-size="10.00">1</text>
</a>
</g>
</g>
<!-- dir_d1915fc52ae3a2d414030e7b83b60b4d&#45;&gt;dir_37c90836491b695b472bf98d1be8336b -->
<g id="edge27" class="edge"><title>dir_d1915fc52ae3a2d414030e7b83b60b4d&#45;&gt;dir_37c90836491b695b472bf98d1be8336b</title>
<path fill="none" stroke="black" d="M144.221,-287.824C138.284,-244.44 129.507,-129.796 191,-72 217.733,-46.8745 257.851,-33.1034 287.033,-25.946"/>
<polygon fill="black" stroke="black" points="287.9,-29.338 296.859,-23.6824 286.329,-22.5167 287.9,-29.338"/>
<g id="a_edge27&#45;headlabel"><a xlink:href="dir_000282_000158.html" target="_top" xlink:title="1">
<text text-anchor="middle" x="285.035" y="-30.4117" font-family="Helvetica,sans-Serif" font-size="10.00">1</text>
</a>
</g>
</g>
<!-- dir_d1915fc52ae3a2d414030e7b83b60b4d&#45;&gt;dir_85bf31a2e8d306e7598ffcb73f8df6bf -->
<g id="edge28" class="edge"><title>dir_d1915fc52ae3a2d414030e7b83b60b4d&#45;&gt;dir_85bf31a2e8d306e7598ffcb73f8df6bf</title>
<path fill="none" stroke="black" d="M174.265,-291.389C177.179,-290.157 180.128,-288.999 183,-288 249.798,-264.769 270.86,-274.223 338,-252 338.859,-251.716 339.725,-251.42 340.596,-251.114"/>
<polygon fill="black" stroke="black" points="341.877,-254.371 349.972,-247.536 339.381,-247.831 341.877,-254.371"/>
<g id="a_edge28&#45;headlabel"><a xlink:href="dir_000282_000219.html" target="_top" xlink:title="10">
<text text-anchor="middle" x="339.531" y="-255.805" font-family="Helvetica,sans-Serif" font-size="10.00">10</text>
</a>
</g>
</g>
<!-- dir_d1915fc52ae3a2d414030e7b83b60b4d&#45;&gt;dir_2171f7ec022c5423887b07c69b2f5b48 -->
<g id="edge29" class="edge"><title>dir_d1915fc52ae3a2d414030e7b83b60b4d&#45;&gt;dir_2171f7ec022c5423887b07c69b2f5b48</title>
<path fill="none" stroke="black" d="M174.122,-292.179C177.117,-290.767 180.122,-289.352 183,-288 217.191,-271.934 230.303,-275.35 260,-252 309.625,-212.981 352.064,-151.375 373.691,-116.779"/>
<polygon fill="black" stroke="black" points="376.718,-118.537 378.98,-108.186 370.757,-114.868 376.718,-118.537"/>
<g id="a_edge29&#45;headlabel"><a xlink:href="dir_000282_000056.html" target="_top" xlink:title="21">
<text text-anchor="middle" x="377.252" y="-120.587" font-family="Helvetica,sans-Serif" font-size="10.00">21</text>
</a>
</g>
</g>
<!-- dir_5125ceb2b58f632ed0a3019fe2d5cbbc -->
<g id="node4" class="node"><title>dir_5125ceb2b58f632ed0a3019fe2d5cbbc</title>
<g id="a_node4"><a xlink:href="dir_5125ceb2b58f632ed0a3019fe2d5cbbc.html" target="_top" xlink:title="reconstruction">
<polygon fill="white" stroke="red" points="102,-324 24,-324 24,-288 102,-288 102,-324"/>
<text text-anchor="middle" x="63" y="-303.5" font-family="Helvetica,sans-Serif" font-size="10.00">reconstruction</text>
</a>
</g>
</g>
<!-- dir_5125ceb2b58f632ed0a3019fe2d5cbbc&#45;&gt;dir_eedff867f3c4e67d20b227cb6e0f96ab -->
<g id="edge19" class="edge"><title>dir_5125ceb2b58f632ed0a3019fe2d5cbbc&#45;&gt;dir_eedff867f3c4e67d20b227cb6e0f96ab</title>
<path fill="none" stroke="black" d="M94.3123,-287.876C112.63,-277.858 135.832,-265.17 154.915,-254.734"/>
<polygon fill="black" stroke="black" points="156.819,-257.682 163.913,-249.813 153.46,-251.54 156.819,-257.682"/>
<g id="a_edge19&#45;headlabel"><a xlink:href="dir_000031_000266.html" target="_top" xlink:title="5">
<text text-anchor="middle" x="155.027" y="-259.398" font-family="Helvetica,sans-Serif" font-size="10.00">5</text>
</a>
</g>
</g>
<!-- dir_5125ceb2b58f632ed0a3019fe2d5cbbc&#45;&gt;dir_4ab6b4cc6a7edbff49100e9123df213f -->
<g id="edge20" class="edge"><title>dir_5125ceb2b58f632ed0a3019fe2d5cbbc&#45;&gt;dir_4ab6b4cc6a7edbff49100e9123df213f</title>
<path fill="none" stroke="black" d="M102.184,-290.751C105.156,-289.784 108.119,-288.856 111,-288 176.308,-268.602 197.354,-278.774 260,-252 299.338,-235.188 303.024,-219.696 341,-200 358.212,-191.073 378.083,-182.778 394.857,-176.314"/>
<polygon fill="black" stroke="black" points="396.218,-179.541 404.332,-172.729 393.741,-172.994 396.218,-179.541"/>
<g id="a_edge20&#45;headlabel"><a xlink:href="dir_000031_000016.html" target="_top" xlink:title="13">
<text text-anchor="middle" x="393.861" y="-180.969" font-family="Helvetica,sans-Serif" font-size="10.00">13</text>
</a>
</g>
</g>
<!-- dir_5125ceb2b58f632ed0a3019fe2d5cbbc&#45;&gt;dir_37c90836491b695b472bf98d1be8336b -->
<g id="edge21" class="edge"><title>dir_5125ceb2b58f632ed0a3019fe2d5cbbc&#45;&gt;dir_37c90836491b695b472bf98d1be8336b</title>
<path fill="none" stroke="black" d="M65.3683,-287.884C72.1838,-245.137 95.7838,-132.778 162,-72 196.624,-40.2193 250.64,-27.4726 286.659,-22.3748"/>
<polygon fill="black" stroke="black" points="287.291,-25.8225 296.764,-21.0778 286.4,-18.8795 287.291,-25.8225"/>
<g id="a_edge21&#45;headlabel"><a xlink:href="dir_000031_000158.html" target="_top" xlink:title="1">
<text text-anchor="middle" x="284.087" y="-26.5962" font-family="Helvetica,sans-Serif" font-size="10.00">1</text>
</a>
</g>
</g>
<!-- dir_5125ceb2b58f632ed0a3019fe2d5cbbc&#45;&gt;dir_85bf31a2e8d306e7598ffcb73f8df6bf -->
<g id="edge22" class="edge"><title>dir_5125ceb2b58f632ed0a3019fe2d5cbbc&#45;&gt;dir_85bf31a2e8d306e7598ffcb73f8df6bf</title>
<path fill="none" stroke="black" d="M102.113,-290.49C105.101,-289.584 108.087,-288.74 111,-288 210.004,-262.843 239.947,-280.639 338,-252 338.718,-251.79 339.44,-251.571 340.165,-251.342"/>
<polygon fill="black" stroke="black" points="341.386,-254.622 349.625,-247.961 339.03,-248.031 341.386,-254.622"/>
<g id="a_edge22&#45;headlabel"><a xlink:href="dir_000031_000219.html" target="_top" xlink:title="9">
<text text-anchor="middle" x="338.957" y="-256.006" font-family="Helvetica,sans-Serif" font-size="10.00">9</text>
</a>
</g>
</g>
<!-- dir_5125ceb2b58f632ed0a3019fe2d5cbbc&#45;&gt;dir_2171f7ec022c5423887b07c69b2f5b48 -->
<g id="edge23" class="edge"><title>dir_5125ceb2b58f632ed0a3019fe2d5cbbc&#45;&gt;dir_2171f7ec022c5423887b07c69b2f5b48</title>
<path fill="none" stroke="black" d="M102.249,-290.957C105.206,-289.943 108.147,-288.947 111,-288 162.23,-270.986 184.128,-284.802 227,-252 248.739,-235.367 242.027,-220.645 260,-200 285.26,-170.986 296.614,-168.827 326,-144 337.31,-134.444 349.783,-123.943 360.626,-114.827"/>
<polygon fill="black" stroke="black" points="363.15,-117.278 368.553,-108.164 358.646,-111.919 363.15,-117.278"/>
<g id="a_edge23&#45;headlabel"><a xlink:href="dir_000031_000056.html" target="_top" xlink:title="33">
<text text-anchor="middle" x="362.225" y="-119.264" font-family="Helvetica,sans-Serif" font-size="10.00">33</text>
</a>
</g>
</g>
<!-- dir_e6f6998399f381fa585023934f76a907 -->
<g id="node5" class="node"><title>dir_e6f6998399f381fa585023934f76a907</title>
<g id="a_node5"><a xlink:href="dir_e6f6998399f381fa585023934f76a907.html" target="_top" xlink:title="simulation">
<polygon fill="white" stroke="red" points="253.25,-324 192.75,-324 192.75,-288 253.25,-288 253.25,-324"/>
<text text-anchor="middle" x="223" y="-303.5" font-family="Helvetica,sans-Serif" font-size="10.00">simulation</text>
</a>
</g>
</g>
<!-- dir_e6f6998399f381fa585023934f76a907&#45;&gt;dir_eedff867f3c4e67d20b227cb6e0f96ab -->
<g id="edge14" class="edge"><title>dir_e6f6998399f381fa585023934f76a907&#45;&gt;dir_eedff867f3c4e67d20b227cb6e0f96ab</title>
<path fill="none" stroke="black" d="M215.09,-287.697C211.447,-279.728 207.046,-270.1 203.006,-261.264"/>
<polygon fill="black" stroke="black" points="206.16,-259.744 198.819,-252.104 199.794,-262.654 206.16,-259.744"/>
<g id="a_edge14&#45;headlabel"><a xlink:href="dir_000172_000266.html" target="_top" xlink:title="4">
<text text-anchor="middle" x="210.237" y="-259.333" font-family="Helvetica,sans-Serif" font-size="10.00">4</text>
</a>
</g>
</g>
<!-- dir_e6f6998399f381fa585023934f76a907&#45;&gt;dir_4ab6b4cc6a7edbff49100e9123df213f -->
<g id="edge15" class="edge"><title>dir_e6f6998399f381fa585023934f76a907&#45;&gt;dir_4ab6b4cc6a7edbff49100e9123df213f</title>
<path fill="none" stroke="black" d="M253.332,-291.34C256.562,-290.117 259.826,-288.975 263,-288 342.237,-263.658 393.346,-316.021 446,-252 460.279,-234.638 454.113,-208.72 445.958,-189.324"/>
<polygon fill="black" stroke="black" points="449.09,-187.758 441.743,-180.125 442.726,-190.674 449.09,-187.758"/>
<g id="a_edge15&#45;headlabel"><a xlink:href="dir_000172_000016.html" target="_top" xlink:title="1">
<text text-anchor="middle" x="453.169" y="-187.344" font-family="Helvetica,sans-Serif" font-size="10.00">1</text>
</a>
</g>
</g>
<!-- dir_e6f6998399f381fa585023934f76a907&#45;&gt;dir_37c90836491b695b472bf98d1be8336b -->
<g id="edge16" class="edge"><title>dir_e6f6998399f381fa585023934f76a907&#45;&gt;dir_37c90836491b695b472bf98d1be8336b</title>
<path fill="none" stroke="black" d="M192.491,-289.683C178.317,-280.793 162.883,-268.139 155,-252 144.857,-231.234 149.144,-222.357 155,-200 171.54,-136.859 180.563,-117.869 227,-72 244.13,-55.0798 267.769,-42.014 287.422,-33.0889"/>
<polygon fill="black" stroke="black" points="288.937,-36.2469 296.704,-29.0414 286.138,-29.8305 288.937,-36.2469"/>
<g id="a_edge16&#45;headlabel"><a xlink:href="dir_000172_000158.html" target="_top" xlink:title="2">
<text text-anchor="middle" x="286.777" y="-37.7863" font-family="Helvetica,sans-Serif" font-size="10.00">2</text>
</a>
</g>
</g>
<!-- dir_e6f6998399f381fa585023934f76a907&#45;&gt;dir_85bf31a2e8d306e7598ffcb73f8df6bf -->
<g id="edge17" class="edge"><title>dir_e6f6998399f381fa585023934f76a907&#45;&gt;dir_85bf31a2e8d306e7598ffcb73f8df6bf</title>
<path fill="none" stroke="black" d="M253.425,-291.17C278.486,-279.779 314.089,-263.596 340.647,-251.524"/>
<polygon fill="black" stroke="black" points="342.331,-254.603 349.987,-247.279 339.435,-248.231 342.331,-254.603"/>
<g id="a_edge17&#45;headlabel"><a xlink:href="dir_000172_000219.html" target="_top" xlink:title="8">
<text text-anchor="middle" x="340.234" y="-256.175" font-family="Helvetica,sans-Serif" font-size="10.00">8</text>
</a>
</g>
</g>
<!-- dir_e6f6998399f381fa585023934f76a907&#45;&gt;dir_2171f7ec022c5423887b07c69b2f5b48 -->
<g id="edge18" class="edge"><title>dir_e6f6998399f381fa585023934f76a907&#45;&gt;dir_2171f7ec022c5423887b07c69b2f5b48</title>
<path fill="none" stroke="black" d="M253.262,-291.097C256.506,-289.921 259.792,-288.857 263,-288 327.444,-270.784 516.752,-301.915 561,-252 610.523,-196.135 501.993,-138.088 435.613,-109.369"/>
<polygon fill="black" stroke="black" points="436.721,-106.037 426.149,-105.349 433.984,-112.48 436.721,-106.037"/>
<g id="a_edge18&#45;headlabel"><a xlink:href="dir_000172_000056.html" target="_top" xlink:title="5">
<text text-anchor="middle" x="441.14" y="-102.33" font-family="Helvetica,sans-Serif" font-size="10.00">5</text>
</a>
</g>
</g>
<!-- dir_4ab6b4cc6a7edbff49100e9123df213f&#45;&gt;dir_2171f7ec022c5423887b07c69b2f5b48 -->
<g id="edge5" class="edge"><title>dir_4ab6b4cc6a7edbff49100e9123df213f&#45;&gt;dir_2171f7ec022c5423887b07c69b2f5b48</title>
<path fill="none" stroke="black" d="M415.455,-143.697C409.678,-135.644 403.478,-125.894 398.414,-116.982"/>
<polygon fill="black" stroke="black" points="401.448,-115.235 393.612,-108.104 395.291,-118.565 401.448,-115.235"/>
<g id="a_edge5&#45;headlabel"><a xlink:href="dir_000016_000056.html" target="_top" xlink:title="3">
<text text-anchor="middle" x="405.655" y="-114.546" font-family="Helvetica,sans-Serif" font-size="10.00">3</text>
</a>
</g>
</g>
<!-- dir_a597e8e061b11201a1dff411feb10d0b&#45;&gt;dir_4ab6b4cc6a7edbff49100e9123df213f -->
<g id="edge6" class="edge"><title>dir_a597e8e061b11201a1dff411feb10d0b&#45;&gt;dir_4ab6b4cc6a7edbff49100e9123df213f</title>
<path fill="none" stroke="black" d="M504.331,-215.97C497.882,-210.764 490.702,-205.074 484,-200 477.927,-195.402 471.366,-190.605 465.016,-186.047"/>
<polygon fill="black" stroke="black" points="466.731,-182.972 456.555,-180.023 462.67,-188.674 466.731,-182.972"/>
<g id="a_edge6&#45;headlabel"><a xlink:href="dir_000191_000016.html" target="_top" xlink:title="7">
<text text-anchor="middle" x="471.306" y="-180.244" font-family="Helvetica,sans-Serif" font-size="10.00">7</text>
</a>
</g>
</g>
<!-- dir_a597e8e061b11201a1dff411feb10d0b&#45;&gt;dir_37c90836491b695b472bf98d1be8336b -->
<g id="edge7" class="edge"><title>dir_a597e8e061b11201a1dff411feb10d0b&#45;&gt;dir_37c90836491b695b472bf98d1be8336b</title>
<path fill="none" stroke="black" d="M522.352,-215.826C516.36,-182.904 498.638,-110.751 454,-72 427.281,-48.8045 389.06,-34.8727 360.975,-27.1573"/>
<polygon fill="black" stroke="black" points="361.686,-23.7257 351.127,-24.5904 359.92,-30.4994 361.686,-23.7257"/>
<g id="a_edge7&#45;headlabel"><a xlink:href="dir_000191_000158.html" target="_top" xlink:title="1">
<text text-anchor="middle" x="365.88" y="-19.3848" font-family="Helvetica,sans-Serif" font-size="10.00">1</text>
</a>
</g>
</g>
<!-- dir_a597e8e061b11201a1dff411feb10d0b&#45;&gt;dir_2171f7ec022c5423887b07c69b2f5b48 -->
<g id="edge8" class="edge"><title>dir_a597e8e061b11201a1dff411feb10d0b&#45;&gt;dir_2171f7ec022c5423887b07c69b2f5b48</title>
<path fill="none" stroke="black" d="M516.719,-215.805C506.948,-196.726 489.307,-165.766 468,-144 456.722,-132.479 442.558,-122.038 429.349,-113.529"/>
<polygon fill="black" stroke="black" points="431.183,-110.548 420.847,-108.224 427.478,-116.487 431.183,-110.548"/>
<g id="a_edge8&#45;headlabel"><a xlink:href="dir_000191_000056.html" target="_top" xlink:title="119">
<text text-anchor="middle" x="435.736" y="-107.542" font-family="Helvetica,sans-Serif" font-size="10.00">119</text>
</a>
</g>
</g>
<!-- dir_37c90836491b695b472bf98d1be8336b&#45;&gt;dir_4ab6b4cc6a7edbff49100e9123df213f -->
<g id="edge9" class="edge"><title>dir_37c90836491b695b472bf98d1be8336b&#45;&gt;dir_4ab6b4cc6a7edbff49100e9123df213f</title>
<path fill="none" stroke="black" d="M351.432,-23.5772C377.971,-29.6216 416.773,-43.0996 435,-72 446.551,-90.3157 444.565,-115.231 440.396,-134.041"/>
<polygon fill="black" stroke="black" points="436.991,-133.23 437.928,-143.783 443.777,-134.949 436.991,-133.23"/>
<g id="a_edge9&#45;headlabel"><a xlink:href="dir_000158_000016.html" target="_top" xlink:title="5">
<text text-anchor="middle" x="435.122" y="-126.548" font-family="Helvetica,sans-Serif" font-size="10.00">5</text>
</a>
</g>
</g>
<!-- dir_37c90836491b695b472bf98d1be8336b&#45;&gt;dir_2171f7ec022c5423887b07c69b2f5b48 -->
<g id="edge10" class="edge"><title>dir_37c90836491b695b472bf98d1be8336b&#45;&gt;dir_2171f7ec022c5423887b07c69b2f5b48</title>
<path fill="none" stroke="black" d="M345.778,-36.1043C354.419,-44.467 364.119,-54.6945 372.214,-63.9197"/>
<polygon fill="black" stroke="black" points="369.696,-66.3602 378.848,-71.6966 375.021,-61.8172 369.696,-66.3602"/>
<g id="a_edge10&#45;headlabel"><a xlink:href="dir_000158_000056.html" target="_top" xlink:title="5">
<text text-anchor="middle" x="365.203" y="-62.9681" font-family="Helvetica,sans-Serif" font-size="10.00">5</text>
</a>
</g>
</g>
<!-- dir_85bf31a2e8d306e7598ffcb73f8df6bf&#45;&gt;dir_4ab6b4cc6a7edbff49100e9123df213f -->
<g id="edge11" class="edge"><title>dir_85bf31a2e8d306e7598ffcb73f8df6bf&#45;&gt;dir_4ab6b4cc6a7edbff49100e9123df213f</title>
<path fill="none" stroke="black" d="M390.596,-215.697C397.123,-207.389 405.068,-197.277 412.247,-188.141"/>
<polygon fill="black" stroke="black" points="415.135,-190.13 418.561,-180.104 409.631,-185.805 415.135,-190.13"/>
<g id="a_edge11&#45;headlabel"><a xlink:href="dir_000219_000016.html" target="_top" xlink:title="3">
<text text-anchor="middle" x="415.147" y="-192.211" font-family="Helvetica,sans-Serif" font-size="10.00">3</text>
</a>
</g>
</g>
<!-- dir_85bf31a2e8d306e7598ffcb73f8df6bf&#45;&gt;dir_37c90836491b695b472bf98d1be8336b -->
<g id="edge12" class="edge"><title>dir_85bf31a2e8d306e7598ffcb73f8df6bf&#45;&gt;dir_37c90836491b695b472bf98d1be8336b</title>
<path fill="none" stroke="black" d="M371.965,-215.688C365.044,-191.631 352.383,-146.685 343,-108 338.004,-87.4011 333.026,-63.9501 329.42,-46.2933"/>
<polygon fill="black" stroke="black" points="332.776,-45.2333 327.364,-36.1255 325.915,-46.6208 332.776,-45.2333"/>
<g id="a_edge12&#45;headlabel"><a xlink:href="dir_000219_000158.html" target="_top" xlink:title="2">
<text text-anchor="middle" x="336.272" y="-45.6938" font-family="Helvetica,sans-Serif" font-size="10.00">2</text>
</a>
</g>
</g>
<!-- dir_85bf31a2e8d306e7598ffcb73f8df6bf&#45;&gt;dir_2171f7ec022c5423887b07c69b2f5b48 -->
<g id="edge13" class="edge"><title>dir_85bf31a2e8d306e7598ffcb73f8df6bf&#45;&gt;dir_2171f7ec022c5423887b07c69b2f5b48</title>
<path fill="none" stroke="black" d="M378.447,-215.871C380.493,-191.67 384.25,-147.211 386.685,-118.393"/>
<polygon fill="black" stroke="black" points="390.193,-118.449 387.547,-108.189 383.218,-117.859 390.193,-118.449"/>
<g id="a_edge13&#45;headlabel"><a xlink:href="dir_000219_000056.html" target="_top" xlink:title="21">
<text text-anchor="middle" x="392.719" y="-119.769" font-family="Helvetica,sans-Serif" font-size="10.00">21</text>
</a>
</g>
</g>
<!-- dir_2171f7ec022c5423887b07c69b2f5b48&#45;&gt;dir_4ab6b4cc6a7edbff49100e9123df213f -->
<g id="edge30" class="edge"><title>dir_2171f7ec022c5423887b07c69b2f5b48&#45;&gt;dir_4ab6b4cc6a7edbff49100e9123df213f</title>
<path fill="none" stroke="black" d="M405.402,-108.104C411.172,-116.129 417.377,-125.871 422.461,-134.797"/>
<polygon fill="black" stroke="black" points="419.443,-136.574 427.287,-143.697 425.596,-133.237 419.443,-136.574"/>
<g id="a_edge30&#45;headlabel"><a xlink:href="dir_000056_000016.html" target="_top" xlink:title="20">
<text text-anchor="middle" x="415.234" y="-132.268" font-family="Helvetica,sans-Serif" font-size="10.00">20</text>
</a>
</g>
</g>
<!-- dir_2171f7ec022c5423887b07c69b2f5b48&#45;&gt;dir_37c90836491b695b472bf98d1be8336b -->
<g id="edge31" class="edge"><title>dir_2171f7ec022c5423887b07c69b2f5b48&#45;&gt;dir_37c90836491b695b472bf98d1be8336b</title>
<path fill="none" stroke="black" d="M367.017,-71.6966C358.359,-63.3046 348.664,-53.0705 340.594,-43.8613"/>
<polygon fill="black" stroke="black" points="343.136,-41.4482 333.988,-36.1043 337.807,-45.9869 343.136,-41.4482"/>
<g id="a_edge31&#45;headlabel"><a xlink:href="dir_000056_000158.html" target="_top" xlink:title="1">
<text text-anchor="middle" x="347.628" y="-39.8439" font-family="Helvetica,sans-Serif" font-size="10.00">1</text>
</a>
</g>
</g>
</g>
</svg>
