<?xml version="1.0" encoding="UTF-8" standalone="no"?>
<!DOCTYPE svg PUBLIC "-//W3C//DTD SVG 1.1//EN"
 "http://www.w3.org/Graphics/SVG/1.1/DTD/svg11.dtd">
<!-- Generated by graphviz version 2.36.0 (20140111.2315)
 -->
<!-- Title: /home/travis/build/AliceO2Group/AliceO2/Detectors/ITSMFT/common Pages: 1 -->
<svg width="286pt" height="375pt"
 viewBox="0.00 0.00 286.00 375.00" xmlns="http://www.w3.org/2000/svg" xmlns:xlink="http://www.w3.org/1999/xlink">
<g id="graph0" class="graph" transform="scale(1 1) rotate(0) translate(4 371)">
<title>/home/travis/build/AliceO2Group/AliceO2/Detectors/ITSMFT/common</title>
<g id="clust1" class="cluster"><title>clusterdir_1306292b77b40360479b729ac9ee7efe</title>
<g id="a_clust1"><a xlink:href="dir_1306292b77b40360479b729ac9ee7efe.html" target="_top" xlink:title="ITSMFT">
<polygon fill="#ddddee" stroke="black" points="8,-200 8,-359 270,-359 270,-200 8,-200"/>
<text text-anchor="middle" x="139" y="-347" font-family="Helvetica,sans-Serif" font-size="10.00">ITSMFT</text>
</a>
</g>
</g>
<g id="clust2" class="cluster"><title>clusterdir_85bf31a2e8d306e7598ffcb73f8df6bf</title>
<g id="a_clust2"><a xlink:href="dir_85bf31a2e8d306e7598ffcb73f8df6bf.html" target="_top">
<polygon fill="#eeeeff" stroke="black" points="16,-208 16,-332 262,-332 262,-208 16,-208"/>
</a>
</g>
</g>
<!-- dir_85bf31a2e8d306e7598ffcb73f8df6bf -->
<g id="node1" class="node"><title>dir_85bf31a2e8d306e7598ffcb73f8df6bf</title>
<text text-anchor="middle" x="227" y="-303.5" font-family="Helvetica,sans-Serif" font-size="10.00">common</text>
</g>
<!-- dir_7c9998090bca7c4aa89c05dd66fe73f5 -->
<g id="node2" class="node"><title>dir_7c9998090bca7c4aa89c05dd66fe73f5</title>
<g id="a_node2"><a xlink:href="dir_7c9998090bca7c4aa89c05dd66fe73f5.html" target="_top" xlink:title="base">
<polygon fill="white" stroke="red" points="78,-252 24,-252 24,-216 78,-216 78,-252"/>
<text text-anchor="middle" x="51" y="-231.5" font-family="Helvetica,sans-Serif" font-size="10.00">base</text>
</a>
</g>
</g>
<!-- dir_2171f7ec022c5423887b07c69b2f5b48 -->
<g id="node7" class="node"><title>dir_2171f7ec022c5423887b07c69b2f5b48</title>
<g id="a_node7"><a xlink:href="dir_2171f7ec022c5423887b07c69b2f5b48.html" target="_top" xlink:title="DataFormats">
<polygon fill="none" stroke="red" points="208,-180 134,-180 134,-144 208,-144 208,-180"/>
<text text-anchor="middle" x="171" y="-159.5" font-family="Helvetica,sans-Serif" font-size="10.00">DataFormats</text>
</a>
</g>
</g>
<!-- dir_7c9998090bca7c4aa89c05dd66fe73f5&#45;&gt;dir_2171f7ec022c5423887b07c69b2f5b48 -->
<g id="edge7" class="edge"><title>dir_7c9998090bca7c4aa89c05dd66fe73f5&#45;&gt;dir_2171f7ec022c5423887b07c69b2f5b48</title>
<path fill="none" stroke="black" d="M78.2299,-217.116C94.3646,-207.704 115.06,-195.632 132.808,-185.278"/>
<polygon fill="black" stroke="black" points="134.907,-188.106 141.781,-180.044 131.38,-182.06 134.907,-188.106"/>
<g id="a_edge7&#45;headlabel"><a xlink:href="dir_000220_000056.html" target="_top" xlink:title="1">
<text text-anchor="middle" x="133.233" y="-189.87" font-family="Helvetica,sans-Serif" font-size="10.00">1</text>
</a>
</g>
</g>
<!-- dir_2174d8cbbd82d5c404dd04814f845a3a -->
<g id="node3" class="node"><title>dir_2174d8cbbd82d5c404dd04814f845a3a</title>
<g id="a_node3"><a xlink:href="dir_2174d8cbbd82d5c404dd04814f845a3a.html" target="_top" xlink:title="reconstruction">
<polygon fill="white" stroke="red" points="102,-324 24,-324 24,-288 102,-288 102,-324"/>
<text text-anchor="middle" x="63" y="-303.5" font-family="Helvetica,sans-Serif" font-size="10.00">reconstruction</text>
</a>
</g>
</g>
<!-- dir_2174d8cbbd82d5c404dd04814f845a3a&#45;&gt;dir_7c9998090bca7c4aa89c05dd66fe73f5 -->
<g id="edge2" class="edge"><title>dir_2174d8cbbd82d5c404dd04814f845a3a&#45;&gt;dir_7c9998090bca7c4aa89c05dd66fe73f5</title>
<path fill="none" stroke="black" d="M60.0337,-287.697C58.7113,-279.983 57.1221,-270.712 55.6478,-262.112"/>
<polygon fill="black" stroke="black" points="59.0716,-261.369 53.9322,-252.104 52.1722,-262.552 59.0716,-261.369"/>
<g id="a_edge2&#45;headlabel"><a xlink:href="dir_000270_000220.html" target="_top" xlink:title="8">
<text text-anchor="middle" x="62.4773" y="-261.932" font-family="Helvetica,sans-Serif" font-size="10.00">8</text>
</a>
</g>
</g>
<!-- dir_4ab6b4cc6a7edbff49100e9123df213f -->
<g id="node5" class="node"><title>dir_4ab6b4cc6a7edbff49100e9123df213f</title>
<g id="a_node5"><a xlink:href="dir_4ab6b4cc6a7edbff49100e9123df213f.html" target="_top" xlink:title="Common">
<polygon fill="none" stroke="red" points="182.5,-36 127.5,-36 127.5,-0 182.5,-0 182.5,-36"/>
<text text-anchor="middle" x="155" y="-15.5" font-family="Helvetica,sans-Serif" font-size="10.00">Common</text>
</a>
</g>
</g>
<!-- dir_2174d8cbbd82d5c404dd04814f845a3a&#45;&gt;dir_4ab6b4cc6a7edbff49100e9123df213f -->
<g id="edge1" class="edge"><title>dir_2174d8cbbd82d5c404dd04814f845a3a&#45;&gt;dir_4ab6b4cc6a7edbff49100e9123df213f</title>
<path fill="none" stroke="black" d="M71.6333,-287.594C76.5111,-277.375 82.5111,-264.125 87,-252 114.032,-178.985 137.466,-89.994 148.414,-46.1221"/>
<polygon fill="black" stroke="black" points="151.859,-46.7724 150.862,-36.2245 145.063,-45.0914 151.859,-46.7724"/>
<g id="a_edge1&#45;headlabel"><a xlink:href="dir_000270_000016.html" target="_top" xlink:title="2">
<text text-anchor="middle" x="153.752" y="-48.4437" font-family="Helvetica,sans-Serif" font-size="10.00">2</text>
</a>
</g>
</g>
<!-- dir_2174d8cbbd82d5c404dd04814f845a3a&#45;&gt;dir_2171f7ec022c5423887b07c69b2f5b48 -->
<g id="edge3" class="edge"><title>dir_2174d8cbbd82d5c404dd04814f845a3a&#45;&gt;dir_2171f7ec022c5423887b07c69b2f5b48</title>
<path fill="none" stroke="black" d="M84.251,-287.96C95.6611,-278.175 109.497,-265.228 120,-252 135.559,-232.403 149.402,-207.507 158.726,-189.033"/>
<polygon fill="black" stroke="black" points="161.887,-190.535 163.175,-180.019 155.61,-187.437 161.887,-190.535"/>
<g id="a_edge3&#45;headlabel"><a xlink:href="dir_000270_000056.html" target="_top" xlink:title="14">
<text text-anchor="middle" x="162.842" y="-192.515" font-family="Helvetica,sans-Serif" font-size="10.00">14</text>
</a>
</g>
</g>
<!-- dir_948e043a2a9c0d8c3d26178da976c005 -->
<g id="node4" class="node"><title>dir_948e043a2a9c0d8c3d26178da976c005</title>
<g id="a_node4"><a xlink:href="dir_948e043a2a9c0d8c3d26178da976c005.html" target="_top" xlink:title="simulation">
<polygon fill="white" stroke="red" points="181.25,-324 120.75,-324 120.75,-288 181.25,-288 181.25,-324"/>
<text text-anchor="middle" x="151" y="-303.5" font-family="Helvetica,sans-Serif" font-size="10.00">simulation</text>
</a>
</g>
</g>
<!-- dir_948e043a2a9c0d8c3d26178da976c005&#45;&gt;dir_7c9998090bca7c4aa89c05dd66fe73f5 -->
<g id="edge10" class="edge"><title>dir_948e043a2a9c0d8c3d26178da976c005&#45;&gt;dir_7c9998090bca7c4aa89c05dd66fe73f5</title>
<path fill="none" stroke="black" d="M126.537,-287.876C113.704,-278.893 97.8036,-267.763 83.9059,-258.034"/>
<polygon fill="black" stroke="black" points="85.7563,-255.057 75.5568,-252.19 81.742,-260.792 85.7563,-255.057"/>
<g id="a_edge10&#45;headlabel"><a xlink:href="dir_000235_000220.html" target="_top" xlink:title="6">
<text text-anchor="middle" x="90.3293" y="-252.292" font-family="Helvetica,sans-Serif" font-size="10.00">6</text>
</a>
</g>
</g>
<!-- dir_948e043a2a9c0d8c3d26178da976c005&#45;&gt;dir_4ab6b4cc6a7edbff49100e9123df213f -->
<g id="edge8" class="edge"><title>dir_948e043a2a9c0d8c3d26178da976c005&#45;&gt;dir_4ab6b4cc6a7edbff49100e9123df213f</title>
<path fill="none" stroke="black" d="M177.407,-287.87C189.815,-278.601 203.855,-266.154 213,-252 249.18,-196.005 245.572,-173.997 255,-108 257.263,-92.1608 263.25,-85.7092 255,-72 241.409,-49.4154 214.603,-35.9468 192.163,-28.2418"/>
<polygon fill="black" stroke="black" points="193.135,-24.8783 182.545,-25.189 191.017,-31.5503 193.135,-24.8783"/>
<g id="a_edge8&#45;headlabel"><a xlink:href="dir_000235_000016.html" target="_top" xlink:title="1">
<text text-anchor="middle" x="197.42" y="-20.7595" font-family="Helvetica,sans-Serif" font-size="10.00">1</text>
</a>
</g>
</g>
<!-- dir_37c90836491b695b472bf98d1be8336b -->
<g id="node6" class="node"><title>dir_37c90836491b695b472bf98d1be8336b</title>
<g id="a_node6"><a xlink:href="dir_37c90836491b695b472bf98d1be8336b.html" target="_top" xlink:title="Base">
<polygon fill="none" stroke="red" points="246,-108 192,-108 192,-72 246,-72 246,-108"/>
<text text-anchor="middle" x="219" y="-87.5" font-family="Helvetica,sans-Serif" font-size="10.00">Base</text>
</a>
</g>
</g>
<!-- dir_948e043a2a9c0d8c3d26178da976c005&#45;&gt;dir_37c90836491b695b472bf98d1be8336b -->
<g id="edge9" class="edge"><title>dir_948e043a2a9c0d8c3d26178da976c005&#45;&gt;dir_37c90836491b695b472bf98d1be8336b</title>
<path fill="none" stroke="black" d="M163.398,-287.861C179.326,-264.717 206.203,-221.567 217,-180 222.27,-159.713 222.517,-135.942 221.585,-118.073"/>
<polygon fill="black" stroke="black" points="225.074,-117.79 220.907,-108.049 218.09,-118.262 225.074,-117.79"/>
<g id="a_edge9&#45;headlabel"><a xlink:href="dir_000235_000158.html" target="_top" xlink:title="2">
<text text-anchor="middle" x="228.149" y="-118.686" font-family="Helvetica,sans-Serif" font-size="10.00">2</text>
</a>
</g>
</g>
<!-- dir_948e043a2a9c0d8c3d26178da976c005&#45;&gt;dir_2171f7ec022c5423887b07c69b2f5b48 -->
<g id="edge11" class="edge"><title>dir_948e043a2a9c0d8c3d26178da976c005&#45;&gt;dir_2171f7ec022c5423887b07c69b2f5b48</title>
<path fill="none" stroke="black" d="M153.412,-287.871C156.821,-263.67 163.083,-219.211 167.142,-190.393"/>
<polygon fill="black" stroke="black" points="170.65,-190.58 168.579,-180.189 163.718,-189.603 170.65,-190.58"/>
<g id="a_edge11&#45;headlabel"><a xlink:href="dir_000235_000056.html" target="_top" xlink:title="6">
<text text-anchor="middle" x="172.96" y="-192.035" font-family="Helvetica,sans-Serif" font-size="10.00">6</text>
</a>
</g>
</g>
<!-- dir_4ab6b4cc6a7edbff49100e9123df213f&#45;&gt;dir_2171f7ec022c5423887b07c69b2f5b48 -->
<g id="edge4" class="edge"><title>dir_4ab6b4cc6a7edbff49100e9123df213f&#45;&gt;dir_2171f7ec022c5423887b07c69b2f5b48</title>
<path fill="none" stroke="black" d="M161.528,-36.1893C166.813,-60.4244 172.111,-104.888 173.376,-133.679"/>
<polygon fill="black" stroke="black" points="169.882,-133.971 173.655,-143.871 176.88,-133.779 169.882,-133.971"/>
<g id="a_edge4&#45;headlabel"><a xlink:href="dir_000016_000056.html" target="_top" xlink:title="3">
<text text-anchor="middle" x="166.946" y="-127.955" font-family="Helvetica,sans-Serif" font-size="10.00">3</text>
</a>
</g>
</g>
<!-- dir_37c90836491b695b472bf98d1be8336b&#45;&gt;dir_4ab6b4cc6a7edbff49100e9123df213f -->
<g id="edge5" class="edge"><title>dir_37c90836491b695b472bf98d1be8336b&#45;&gt;dir_4ab6b4cc6a7edbff49100e9123df213f</title>
<path fill="none" stroke="black" d="M203.18,-71.6966C195.43,-63.2198 185.961,-52.8636 177.476,-43.5826"/>
<polygon fill="black" stroke="black" points="179.969,-41.1229 170.638,-36.1043 174.803,-45.8464 179.969,-41.1229"/>
<g id="a_edge5&#45;headlabel"><a xlink:href="dir_000158_000016.html" target="_top" xlink:title="5">
<text text-anchor="middle" x="184.49" y="-39.36" font-family="Helvetica,sans-Serif" font-size="10.00">5</text>
</a>
</g>
</g>
<!-- dir_37c90836491b695b472bf98d1be8336b&#45;&gt;dir_2171f7ec022c5423887b07c69b2f5b48 -->
<g id="edge6" class="edge"><title>dir_37c90836491b695b472bf98d1be8336b&#45;&gt;dir_2171f7ec022c5423887b07c69b2f5b48</title>
<path fill="none" stroke="black" d="M213.166,-108.104C208.357,-116.383 201.635,-126.488 194.907,-135.64"/>
<polygon fill="black" stroke="black" points="192.047,-133.618 188.781,-143.697 197.62,-137.855 192.047,-133.618"/>
<g id="a_edge6&#45;headlabel"><a xlink:href="dir_000158_000056.html" target="_top" xlink:title="5">
<text text-anchor="middle" x="191.963" y="-126.538" font-family="Helvetica,sans-Serif" font-size="10.00">5</text>
</a>
</g>
</g>
<!-- dir_2171f7ec022c5423887b07c69b2f5b48&#45;&gt;dir_4ab6b4cc6a7edbff49100e9123df213f -->
<g id="edge12" class="edge"><title>dir_2171f7ec022c5423887b07c69b2f5b48&#45;&gt;dir_4ab6b4cc6a7edbff49100e9123df213f</title>
<path fill="none" stroke="black" d="M164.486,-143.871C159.2,-119.67 153.899,-75.2108 152.628,-46.3932"/>
<polygon fill="black" stroke="black" points="156.121,-46.0888 152.346,-36.1893 149.123,-46.2821 156.121,-46.0888"/>
<g id="a_edge12&#45;headlabel"><a xlink:href="dir_000056_000016.html" target="_top" xlink:title="20">
<text text-anchor="middle" x="159.058" y="-47.1038" font-family="Helvetica,sans-Serif" font-size="10.00">20</text>
</a>
</g>
</g>
<!-- dir_2171f7ec022c5423887b07c69b2f5b48&#45;&gt;dir_37c90836491b695b472bf98d1be8336b -->
<g id="edge13" class="edge"><title>dir_2171f7ec022c5423887b07c69b2f5b48&#45;&gt;dir_37c90836491b695b472bf98d1be8336b</title>
<path fill="none" stroke="black" d="M176.949,-143.697C181.789,-135.389 188.526,-125.277 195.255,-116.141"/>
<polygon fill="black" stroke="black" points="198.101,-118.18 201.376,-108.104 192.532,-113.938 198.101,-118.18"/>
<g id="a_edge13&#45;headlabel"><a xlink:href="dir_000056_000158.html" target="_top" xlink:title="1">
<text text-anchor="middle" x="198.181" y="-120.26" font-family="Helvetica,sans-Serif" font-size="10.00">1</text>
</a>
</g>
</g>
</g>
</svg>
