<?xml version="1.0" encoding="UTF-8" standalone="no"?>
<!DOCTYPE svg PUBLIC "-//W3C//DTD SVG 1.1//EN"
 "http://www.w3.org/Graphics/SVG/1.1/DTD/svg11.dtd">
<!-- Generated by graphviz version 2.36.0 (20140111.2315)
 -->
<!-- Title: /home/travis/build/AliceO2Group/AliceO2/Detectors/TOF/simulation Pages: 1 -->
<svg width="220pt" height="375pt"
 viewBox="0.00 0.00 220.41 375.00" xmlns="http://www.w3.org/2000/svg" xmlns:xlink="http://www.w3.org/1999/xlink">
<g id="graph0" class="graph" transform="scale(1 1) rotate(0) translate(4 371)">
<title>/home/travis/build/AliceO2Group/AliceO2/Detectors/TOF/simulation</title>
<g id="clust1" class="cluster"><title>clusterdir_577c839d346a264df4e9e588ca2a45dd</title>
<g id="a_clust1"><a xlink:href="dir_577c839d346a264df4e9e588ca2a45dd.html" target="_top" xlink:title="TOF">
<polygon fill="#ddddee" stroke="black" points="38.4123,-200 38.4123,-359 204.412,-359 204.412,-200 38.4123,-200"/>
<text text-anchor="middle" x="121.412" y="-347" font-family="Helvetica,sans-Serif" font-size="10.00">TOF</text>
</a>
</g>
</g>
<g id="clust2" class="cluster"><title>clusterdir_827012254b0f6cad75d9a7a2745b1aea</title>
<g id="a_clust2"><a xlink:href="dir_827012254b0f6cad75d9a7a2745b1aea.html" target="_top">
<polygon fill="#eeeeff" stroke="black" points="46.4123,-208 46.4123,-332 196.412,-332 196.412,-208 46.4123,-208"/>
</a>
</g>
</g>
<!-- dir_827012254b0f6cad75d9a7a2745b1aea -->
<g id="node1" class="node"><title>dir_827012254b0f6cad75d9a7a2745b1aea</title>
<text text-anchor="middle" x="157.412" y="-303.5" font-family="Helvetica,sans-Serif" font-size="10.00">simulation</text>
</g>
<!-- dir_4d55c0327ef0082eaebc074a5f8651c4 -->
<g id="node2" class="node"><title>dir_4d55c0327ef0082eaebc074a5f8651c4</title>
<g id="a_node2"><a xlink:href="dir_4d55c0327ef0082eaebc074a5f8651c4.html" target="_top" xlink:title="include">
<polygon fill="white" stroke="red" points="136.412,-252 82.4123,-252 82.4123,-216 136.412,-216 136.412,-252"/>
<text text-anchor="middle" x="109.412" y="-231.5" font-family="Helvetica,sans-Serif" font-size="10.00">include</text>
</a>
</g>
</g>
<!-- dir_4ab6b4cc6a7edbff49100e9123df213f -->
<g id="node4" class="node"><title>dir_4ab6b4cc6a7edbff49100e9123df213f</title>
<g id="a_node4"><a xlink:href="dir_4ab6b4cc6a7edbff49100e9123df213f.html" target="_top" xlink:title="Common">
<polygon fill="none" stroke="red" points="81.9123,-180 26.9123,-180 26.9123,-144 81.9123,-144 81.9123,-180"/>
<text text-anchor="middle" x="54.4123" y="-159.5" font-family="Helvetica,sans-Serif" font-size="10.00">Common</text>
</a>
</g>
</g>
<!-- dir_4d55c0327ef0082eaebc074a5f8651c4&#45;&gt;dir_4ab6b4cc6a7edbff49100e9123df213f -->
<g id="edge8" class="edge"><title>dir_4d55c0327ef0082eaebc074a5f8651c4&#45;&gt;dir_4ab6b4cc6a7edbff49100e9123df213f</title>
<path fill="none" stroke="black" d="M95.8168,-215.697C89.2896,-207.389 81.3443,-197.277 74.1657,-188.141"/>
<polygon fill="black" stroke="black" points="76.7818,-185.805 67.8514,-180.104 71.2775,-190.13 76.7818,-185.805"/>
<g id="a_edge8&#45;headlabel"><a xlink:href="dir_000189_000016.html" target="_top" xlink:title="1">
<text text-anchor="middle" x="81.2351" y="-184.377" font-family="Helvetica,sans-Serif" font-size="10.00">1</text>
</a>
</g>
</g>
<!-- dir_37c90836491b695b472bf98d1be8336b -->
<g id="node5" class="node"><title>dir_37c90836491b695b472bf98d1be8336b</title>
<g id="a_node5"><a xlink:href="dir_37c90836491b695b472bf98d1be8336b.html" target="_top" xlink:title="Base">
<polygon fill="none" stroke="red" points="67.4123,-36 13.4123,-36 13.4123,-0 67.4123,-0 67.4123,-36"/>
<text text-anchor="middle" x="40.4123" y="-15.5" font-family="Helvetica,sans-Serif" font-size="10.00">Base</text>
</a>
</g>
</g>
<!-- dir_4d55c0327ef0082eaebc074a5f8651c4&#45;&gt;dir_37c90836491b695b472bf98d1be8336b -->
<g id="edge9" class="edge"><title>dir_4d55c0327ef0082eaebc074a5f8651c4&#45;&gt;dir_37c90836491b695b472bf98d1be8336b</title>
<path fill="none" stroke="black" d="M82.2714,-225.577C60.456,-218.02 31.2484,-203.939 17.4123,-180 -7.02124,-137.726 12.0504,-79.0991 27.0003,-45.5021"/>
<polygon fill="black" stroke="black" points="30.2248,-46.8683 31.2613,-36.3243 23.8757,-43.9206 30.2248,-46.8683"/>
<g id="a_edge9&#45;headlabel"><a xlink:href="dir_000189_000158.html" target="_top" xlink:title="1">
<text text-anchor="middle" x="31.2865" y="-48.8243" font-family="Helvetica,sans-Serif" font-size="10.00">1</text>
</a>
</g>
</g>
<!-- dir_0189f3ad6abecd72f822a0c3914f12b2 -->
<g id="node6" class="node"><title>dir_0189f3ad6abecd72f822a0c3914f12b2</title>
<g id="a_node6"><a xlink:href="dir_0189f3ad6abecd72f822a0c3914f12b2.html" target="_top" xlink:title="base">
<polygon fill="none" stroke="red" points="192.412,-180 138.412,-180 138.412,-144 192.412,-144 192.412,-180"/>
<text text-anchor="middle" x="165.412" y="-159.5" font-family="Helvetica,sans-Serif" font-size="10.00">base</text>
</a>
</g>
</g>
<!-- dir_4d55c0327ef0082eaebc074a5f8651c4&#45;&gt;dir_0189f3ad6abecd72f822a0c3914f12b2 -->
<g id="edge10" class="edge"><title>dir_4d55c0327ef0082eaebc074a5f8651c4&#45;&gt;dir_0189f3ad6abecd72f822a0c3914f12b2</title>
<path fill="none" stroke="black" d="M123.255,-215.697C129.901,-207.389 137.991,-197.277 145.3,-188.141"/>
<polygon fill="black" stroke="black" points="148.215,-190.099 151.729,-180.104 142.749,-185.727 148.215,-190.099"/>
<g id="a_edge10&#45;headlabel"><a xlink:href="dir_000189_000226.html" target="_top" xlink:title="5">
<text text-anchor="middle" x="148.186" y="-192.18" font-family="Helvetica,sans-Serif" font-size="10.00">5</text>
</a>
</g>
</g>
<!-- dir_2171f7ec022c5423887b07c69b2f5b48 -->
<g id="node7" class="node"><title>dir_2171f7ec022c5423887b07c69b2f5b48</title>
<g id="a_node7"><a xlink:href="dir_2171f7ec022c5423887b07c69b2f5b48.html" target="_top" xlink:title="DataFormats">
<polygon fill="none" stroke="red" points="142.412,-108 68.4123,-108 68.4123,-72 142.412,-72 142.412,-108"/>
<text text-anchor="middle" x="105.412" y="-87.5" font-family="Helvetica,sans-Serif" font-size="10.00">DataFormats</text>
</a>
</g>
</g>
<!-- dir_4d55c0327ef0082eaebc074a5f8651c4&#45;&gt;dir_2171f7ec022c5423887b07c69b2f5b48 -->
<g id="edge11" class="edge"><title>dir_4d55c0327ef0082eaebc074a5f8651c4&#45;&gt;dir_2171f7ec022c5423887b07c69b2f5b48</title>
<path fill="none" stroke="black" d="M108.93,-215.871C108.248,-191.67 106.996,-147.211 106.184,-118.393"/>
<polygon fill="black" stroke="black" points="109.677,-118.087 105.896,-108.189 102.68,-118.284 109.677,-118.087"/>
<g id="a_edge11&#45;headlabel"><a xlink:href="dir_000189_000056.html" target="_top" xlink:title="4">
<text text-anchor="middle" x="112.616" y="-119.1" font-family="Helvetica,sans-Serif" font-size="10.00">4</text>
</a>
</g>
</g>
<!-- dir_67d024a16e1068fbfc78cd33f7b16177 -->
<g id="node3" class="node"><title>dir_67d024a16e1068fbfc78cd33f7b16177</title>
<g id="a_node3"><a xlink:href="dir_67d024a16e1068fbfc78cd33f7b16177.html" target="_top" xlink:title="src">
<polygon fill="white" stroke="black" points="108.412,-324 54.4123,-324 54.4123,-288 108.412,-288 108.412,-324"/>
<text text-anchor="middle" x="81.4123" y="-303.5" font-family="Helvetica,sans-Serif" font-size="10.00">src</text>
</a>
</g>
</g>
<!-- dir_67d024a16e1068fbfc78cd33f7b16177&#45;&gt;dir_4d55c0327ef0082eaebc074a5f8651c4 -->
<g id="edge3" class="edge"><title>dir_67d024a16e1068fbfc78cd33f7b16177&#45;&gt;dir_4d55c0327ef0082eaebc074a5f8651c4</title>
<path fill="none" stroke="black" d="M88.3336,-287.697C91.487,-279.813 95.2906,-270.304 98.7937,-261.546"/>
<polygon fill="black" stroke="black" points="102.106,-262.689 102.571,-252.104 95.6069,-260.089 102.106,-262.689"/>
<g id="a_edge3&#45;headlabel"><a xlink:href="dir_000212_000189.html" target="_top" xlink:title="4">
<text text-anchor="middle" x="103.408" y="-264.581" font-family="Helvetica,sans-Serif" font-size="10.00">4</text>
</a>
</g>
</g>
<!-- dir_67d024a16e1068fbfc78cd33f7b16177&#45;&gt;dir_4ab6b4cc6a7edbff49100e9123df213f -->
<g id="edge1" class="edge"><title>dir_67d024a16e1068fbfc78cd33f7b16177&#45;&gt;dir_4ab6b4cc6a7edbff49100e9123df213f</title>
<path fill="none" stroke="black" d="M78.1555,-287.871C73.5538,-263.67 65.1003,-219.211 59.6209,-190.393"/>
<polygon fill="black" stroke="black" points="62.9871,-189.359 57.6807,-180.189 56.1103,-190.667 62.9871,-189.359"/>
<g id="a_edge1&#45;headlabel"><a xlink:href="dir_000212_000016.html" target="_top" xlink:title="1">
<text text-anchor="middle" x="66.4478" y="-189.86" font-family="Helvetica,sans-Serif" font-size="10.00">1</text>
</a>
</g>
</g>
<!-- dir_67d024a16e1068fbfc78cd33f7b16177&#45;&gt;dir_37c90836491b695b472bf98d1be8336b -->
<g id="edge2" class="edge"><title>dir_67d024a16e1068fbfc78cd33f7b16177&#45;&gt;dir_37c90836491b695b472bf98d1be8336b</title>
<path fill="none" stroke="black" d="M66.3027,-287.911C47.2972,-265.158 15.6672,-222.789 3.41229,-180 -0.560342,-166.129 -1.97821,-92.2793 4.41229,-72 7.48905,-62.2364 13.0062,-52.6431 18.8115,-44.3596"/>
<polygon fill="black" stroke="black" points="21.6905,-46.3539 24.8753,-36.2491 16.0842,-42.1623 21.6905,-46.3539"/>
<g id="a_edge2&#45;headlabel"><a xlink:href="dir_000212_000158.html" target="_top" xlink:title="1">
<text text-anchor="middle" x="21.812" y="-48.433" font-family="Helvetica,sans-Serif" font-size="10.00">1</text>
</a>
</g>
</g>
<!-- dir_67d024a16e1068fbfc78cd33f7b16177&#45;&gt;dir_2171f7ec022c5423887b07c69b2f5b48 -->
<g id="edge4" class="edge"><title>dir_67d024a16e1068fbfc78cd33f7b16177&#45;&gt;dir_2171f7ec022c5423887b07c69b2f5b48</title>
<path fill="none" stroke="black" d="M108.12,-287.977C138.179,-266.929 184.962,-227.946 201.412,-180 206.605,-164.866 209.545,-157.779 201.412,-144 190.568,-125.626 170.822,-113.183 152.045,-104.998"/>
<polygon fill="black" stroke="black" points="153.241,-101.707 142.658,-101.206 150.62,-108.197 153.241,-101.707"/>
<g id="a_edge4&#45;headlabel"><a xlink:href="dir_000212_000056.html" target="_top" xlink:title="1">
<text text-anchor="middle" x="157.638" y="-97.9203" font-family="Helvetica,sans-Serif" font-size="10.00">1</text>
</a>
</g>
</g>
<!-- dir_4ab6b4cc6a7edbff49100e9123df213f&#45;&gt;dir_2171f7ec022c5423887b07c69b2f5b48 -->
<g id="edge5" class="edge"><title>dir_4ab6b4cc6a7edbff49100e9123df213f&#45;&gt;dir_2171f7ec022c5423887b07c69b2f5b48</title>
<path fill="none" stroke="black" d="M61.1033,-143.697C66.2989,-135.389 73.4696,-125.277 80.5894,-116.141"/>
<polygon fill="black" stroke="black" points="83.5136,-118.09 87.0555,-108.104 78.0598,-113.701 83.5136,-118.09"/>
<g id="a_edge5&#45;headlabel"><a xlink:href="dir_000016_000056.html" target="_top" xlink:title="3">
<text text-anchor="middle" x="83.4723" y="-120.17" font-family="Helvetica,sans-Serif" font-size="10.00">3</text>
</a>
</g>
</g>
<!-- dir_37c90836491b695b472bf98d1be8336b&#45;&gt;dir_4ab6b4cc6a7edbff49100e9123df213f -->
<g id="edge6" class="edge"><title>dir_37c90836491b695b472bf98d1be8336b&#45;&gt;dir_4ab6b4cc6a7edbff49100e9123df213f</title>
<path fill="none" stroke="black" d="M42.107,-36.1893C44.4964,-60.4244 48.8801,-104.888 51.7187,-133.679"/>
<polygon fill="black" stroke="black" points="48.2592,-134.263 52.7236,-143.871 55.2254,-133.576 48.2592,-134.263"/>
<g id="a_edge6&#45;headlabel"><a xlink:href="dir_000158_000016.html" target="_top" xlink:title="5">
<text text-anchor="middle" x="45.081" y="-128.464" font-family="Helvetica,sans-Serif" font-size="10.00">5</text>
</a>
</g>
</g>
<!-- dir_37c90836491b695b472bf98d1be8336b&#45;&gt;dir_2171f7ec022c5423887b07c69b2f5b48 -->
<g id="edge7" class="edge"><title>dir_37c90836491b695b472bf98d1be8336b&#45;&gt;dir_2171f7ec022c5423887b07c69b2f5b48</title>
<path fill="none" stroke="black" d="M62.1899,-36.1043C70.8316,-44.467 80.5312,-54.6945 88.6264,-63.9197"/>
<polygon fill="black" stroke="black" points="86.1078,-66.3602 95.2606,-71.6966 91.4334,-61.8172 86.1078,-66.3602"/>
<g id="a_edge7&#45;headlabel"><a xlink:href="dir_000158_000056.html" target="_top" xlink:title="5">
<text text-anchor="middle" x="81.6149" y="-62.9681" font-family="Helvetica,sans-Serif" font-size="10.00">5</text>
</a>
</g>
</g>
<!-- dir_0189f3ad6abecd72f822a0c3914f12b2&#45;&gt;dir_2171f7ec022c5423887b07c69b2f5b48 -->
<g id="edge12" class="edge"><title>dir_0189f3ad6abecd72f822a0c3914f12b2&#45;&gt;dir_2171f7ec022c5423887b07c69b2f5b48</title>
<path fill="none" stroke="black" d="M150.581,-143.697C143.388,-135.305 134.616,-125.07 126.722,-115.861"/>
<polygon fill="black" stroke="black" points="129.239,-113.419 120.073,-108.104 123.924,-117.975 129.239,-113.419"/>
<g id="a_edge12&#45;headlabel"><a xlink:href="dir_000226_000056.html" target="_top" xlink:title="1">
<text text-anchor="middle" x="133.734" y="-111.801" font-family="Helvetica,sans-Serif" font-size="10.00">1</text>
</a>
</g>
</g>
<!-- dir_2171f7ec022c5423887b07c69b2f5b48&#45;&gt;dir_4ab6b4cc6a7edbff49100e9123df213f -->
<g id="edge13" class="edge"><title>dir_2171f7ec022c5423887b07c69b2f5b48&#45;&gt;dir_4ab6b4cc6a7edbff49100e9123df213f</title>
<path fill="none" stroke="black" d="M98.8456,-108.104C93.6818,-116.383 86.5266,-126.488 79.4061,-135.64"/>
<polygon fill="black" stroke="black" points="76.4682,-133.708 72.9348,-143.697 81.9258,-138.092 76.4682,-133.708"/>
<g id="a_edge13&#45;headlabel"><a xlink:href="dir_000056_000016.html" target="_top" xlink:title="20">
<text text-anchor="middle" x="76.5056" y="-126.628" font-family="Helvetica,sans-Serif" font-size="10.00">20</text>
</a>
</g>
</g>
<!-- dir_2171f7ec022c5423887b07c69b2f5b48&#45;&gt;dir_37c90836491b695b472bf98d1be8336b -->
<g id="edge14" class="edge"><title>dir_2171f7ec022c5423887b07c69b2f5b48&#45;&gt;dir_37c90836491b695b472bf98d1be8336b</title>
<path fill="none" stroke="black" d="M83.4291,-71.6966C74.7709,-63.3046 65.0758,-53.0705 57.0061,-43.8613"/>
<polygon fill="black" stroke="black" points="59.5483,-41.4482 50.3999,-36.1043 54.219,-45.9869 59.5483,-41.4482"/>
<g id="a_edge14&#45;headlabel"><a xlink:href="dir_000056_000158.html" target="_top" xlink:title="1">
<text text-anchor="middle" x="64.0405" y="-39.8439" font-family="Helvetica,sans-Serif" font-size="10.00">1</text>
</a>
</g>
</g>
</g>
</svg>
