<?xml version="1.0" encoding="UTF-8" standalone="no"?>
<!DOCTYPE svg PUBLIC "-//W3C//DTD SVG 1.1//EN"
 "http://www.w3.org/Graphics/SVG/1.1/DTD/svg11.dtd">
<!-- Generated by graphviz version 2.36.0 (20140111.2315)
 -->
<!-- Title: Graphical Class Hierarchy Pages: 1 -->
<svg width="284pt" height="104pt"
 viewBox="0.00 0.00 284.00 104.00" xmlns="http://www.w3.org/2000/svg" xmlns:xlink="http://www.w3.org/1999/xlink">
<g id="graph0" class="graph" transform="scale(1 1) rotate(0) translate(4 100)">
<title>Graphical Class Hierarchy</title>
<!-- Node1 -->
<g id="node1" class="node"><title>Node1</title>
<g id="a_node1"><a xlink:href="de/dac/classo2_1_1framework_1_1Task.html" target="_top" xlink:title="o2::framework::Task">
<polygon fill="none" stroke="black" points="0.5,-38.5 0.5,-57.5 107.5,-57.5 107.5,-38.5 0.5,-38.5"/>
<text text-anchor="middle" x="54" y="-45.5" font-family="Helvetica,sans-Serif" font-size="10.00">o2::framework::Task</text>
</a>
</g>
</g>
<!-- Node2 -->
<g id="node2" class="node"><title>Node2</title>
<g id="a_node2"><a xlink:href="dd/d33/classATask.html" target="_top" xlink:title="ATask">
<polygon fill="none" stroke="black" points="187.5,-76.5 187.5,-95.5 232.5,-95.5 232.5,-76.5 187.5,-76.5"/>
<text text-anchor="middle" x="210" y="-83.5" font-family="Helvetica,sans-Serif" font-size="10.00">ATask</text>
</a>
</g>
</g>
<!-- Node1&#45;&gt;Node2 -->
<g id="edge1" class="edge"><title>Node1&#45;&gt;Node2</title>
<path fill="none" stroke="midnightblue" d="M103.895,-60.0649C131.928,-66.9822 165.722,-75.3209 187.283,-80.6411"/>
<polygon fill="midnightblue" stroke="midnightblue" points="104.408,-56.5867 93.8607,-57.589 102.731,-63.3828 104.408,-56.5867"/>
</g>
<!-- Node3 -->
<g id="node3" class="node"><title>Node3</title>
<g id="a_node3"><a xlink:href="d7/d29/classBTask.html" target="_top" xlink:title="BTask">
<polygon fill="none" stroke="black" points="187.5,-38.5 187.5,-57.5 232.5,-57.5 232.5,-38.5 187.5,-38.5"/>
<text text-anchor="middle" x="210" y="-45.5" font-family="Helvetica,sans-Serif" font-size="10.00">BTask</text>
</a>
</g>
</g>
<!-- Node1&#45;&gt;Node3 -->
<g id="edge2" class="edge"><title>Node1&#45;&gt;Node3</title>
<path fill="none" stroke="midnightblue" d="M117.68,-48C142.5,-48 169.376,-48 187.5,-48"/>
<polygon fill="midnightblue" stroke="midnightblue" points="117.567,-44.5001 107.567,-48 117.567,-51.5001 117.567,-44.5001"/>
</g>
<!-- Node4 -->
<g id="node4" class="node"><title>Node4</title>
<g id="a_node4"><a xlink:href="d8/d30/classo2_1_1framework_1_1Dispatcher.html" target="_top" xlink:title="o2::framework::Dispatcher">
<polygon fill="none" stroke="black" points="144,-0.5 144,-19.5 276,-19.5 276,-0.5 144,-0.5"/>
<text text-anchor="middle" x="210" y="-7.5" font-family="Helvetica,sans-Serif" font-size="10.00">o2::framework::Dispatcher</text>
</a>
</g>
</g>
<!-- Node1&#45;&gt;Node4 -->
<g id="edge3" class="edge"><title>Node1&#45;&gt;Node4</title>
<path fill="none" stroke="midnightblue" d="M103.794,-35.96C125.308,-30.6512 150.232,-24.5012 170.419,-19.5201"/>
<polygon fill="midnightblue" stroke="midnightblue" points="102.731,-32.6172 93.8607,-38.411 104.408,-39.4133 102.731,-32.6172"/>
</g>
</g>
</svg>
