<?xml version="1.0" encoding="UTF-8" standalone="no"?>
<!DOCTYPE svg PUBLIC "-//W3C//DTD SVG 1.1//EN"
 "http://www.w3.org/Graphics/SVG/1.1/DTD/svg11.dtd">
<!-- Generated by graphviz version 2.36.0 (20140111.2315)
 -->
<!-- Title: Graphical Class Hierarchy Pages: 1 -->
<svg width="454pt" height="241pt"
 viewBox="0.00 0.00 454.00 241.00" xmlns="http://www.w3.org/2000/svg" xmlns:xlink="http://www.w3.org/1999/xlink">
<g id="graph0" class="graph" transform="scale(1 1) rotate(0) translate(4 237)">
<title>Graphical Class Hierarchy</title>
<!-- Node1 -->
<g id="node1" class="node"><title>Node1</title>
<g id="a_node1"><a xlink:href="dd/de2/classo2_1_1track_1_1TrackPar.html" target="_top" xlink:title="o2::track::TrackPar">
<polygon fill="none" stroke="black" points="0.5,-98.5 0.5,-117.5 101.5,-117.5 101.5,-98.5 0.5,-98.5"/>
<text text-anchor="middle" x="51" y="-105.5" font-family="Helvetica,sans-Serif" font-size="10.00">o2::track::TrackPar</text>
</a>
</g>
</g>
<!-- Node2 -->
<g id="node2" class="node"><title>Node2</title>
<g id="a_node2"><a xlink:href="de/dea/classo2_1_1track_1_1TrackParCov.html" target="_top" xlink:title="o2::track::TrackParCov">
<polygon fill="none" stroke="black" points="138.5,-98.5 138.5,-117.5 257.5,-117.5 257.5,-98.5 138.5,-98.5"/>
<text text-anchor="middle" x="198" y="-105.5" font-family="Helvetica,sans-Serif" font-size="10.00">o2::track::TrackParCov</text>
</a>
</g>
</g>
<!-- Node1&#45;&gt;Node2 -->
<g id="edge1" class="edge"><title>Node1&#45;&gt;Node2</title>
<path fill="none" stroke="midnightblue" d="M111.961,-108C120.655,-108 129.597,-108 138.266,-108"/>
<polygon fill="midnightblue" stroke="midnightblue" points="111.901,-104.5 101.901,-108 111.901,-111.5 111.901,-104.5"/>
</g>
<!-- Node3 -->
<g id="node3" class="node"><title>Node3</title>
<g id="a_node3"><a xlink:href="d6/d67/classo2_1_1dataformats_1_1TrackTPCITS.html" target="_top" xlink:title="o2::dataformats::TrackTPCITS">
<polygon fill="none" stroke="black" points="294,-213.5 294,-232.5 446,-232.5 446,-213.5 294,-213.5"/>
<text text-anchor="middle" x="370" y="-220.5" font-family="Helvetica,sans-Serif" font-size="10.00">o2::dataformats::TrackTPCITS</text>
</a>
</g>
</g>
<!-- Node2&#45;&gt;Node3 -->
<g id="edge2" class="edge"><title>Node2&#45;&gt;Node3</title>
<path fill="none" stroke="midnightblue" d="M211.924,-125.73C228.528,-147.222 259.368,-183.033 294,-203 301.472,-207.308 309.895,-210.712 318.327,-213.394"/>
<polygon fill="midnightblue" stroke="midnightblue" points="214.715,-123.618 205.899,-117.742 209.126,-127.833 214.715,-123.618"/>
</g>
<!-- Node4 -->
<g id="node4" class="node"><title>Node4</title>
<g id="a_node4"><a xlink:href="d8/d71/structo2_1_1globaltracking_1_1TrackLocITS.html" target="_top" xlink:title="o2::globaltracking\l::TrackLocITS">
<polygon fill="none" stroke="black" points="323.5,-164 323.5,-194 416.5,-194 416.5,-164 323.5,-164"/>
<text text-anchor="start" x="331.5" y="-182" font-family="Helvetica,sans-Serif" font-size="10.00">o2::globaltracking</text>
<text text-anchor="middle" x="370" y="-171" font-family="Helvetica,sans-Serif" font-size="10.00">::TrackLocITS</text>
</a>
</g>
</g>
<!-- Node2&#45;&gt;Node4 -->
<g id="edge3" class="edge"><title>Node2&#45;&gt;Node4</title>
<path fill="none" stroke="midnightblue" d="M226.034,-122.246C244.817,-131.857 270.584,-144.475 294,-154 303.408,-157.827 313.644,-161.531 323.443,-164.862"/>
<polygon fill="midnightblue" stroke="midnightblue" points="227.388,-119.007 216.897,-117.527 224.175,-125.226 227.388,-119.007"/>
</g>
<!-- Node5 -->
<g id="node5" class="node"><title>Node5</title>
<g id="a_node5"><a xlink:href="db/dea/structo2_1_1globaltracking_1_1TrackLocTPC.html" target="_top" xlink:title="o2::globaltracking\l::TrackLocTPC">
<polygon fill="none" stroke="black" points="323.5,-115 323.5,-145 416.5,-145 416.5,-115 323.5,-115"/>
<text text-anchor="start" x="331.5" y="-133" font-family="Helvetica,sans-Serif" font-size="10.00">o2::globaltracking</text>
<text text-anchor="middle" x="370" y="-122" font-family="Helvetica,sans-Serif" font-size="10.00">::TrackLocTPC</text>
</a>
</g>
</g>
<!-- Node2&#45;&gt;Node5 -->
<g id="edge4" class="edge"><title>Node2&#45;&gt;Node5</title>
<path fill="none" stroke="midnightblue" d="M267.49,-116.863C286.252,-119.291 306.13,-121.864 323.275,-124.083"/>
<polygon fill="midnightblue" stroke="midnightblue" points="267.871,-113.384 257.504,-115.571 266.972,-120.326 267.871,-113.384"/>
</g>
<!-- Node6 -->
<g id="node6" class="node"><title>Node6</title>
<g id="a_node6"><a xlink:href="dd/d41/classo2_1_1ITS_1_1TrackITS.html" target="_top" xlink:title="o2::ITS::TrackITS">
<polygon fill="none" stroke="black" points="322.5,-76.5 322.5,-95.5 417.5,-95.5 417.5,-76.5 322.5,-76.5"/>
<text text-anchor="middle" x="370" y="-83.5" font-family="Helvetica,sans-Serif" font-size="10.00">o2::ITS::TrackITS</text>
</a>
</g>
</g>
<!-- Node2&#45;&gt;Node6 -->
<g id="edge5" class="edge"><title>Node2&#45;&gt;Node6</title>
<path fill="none" stroke="midnightblue" d="M267.61,-99.121C286.04,-96.736 305.539,-94.2126 322.461,-92.0227"/>
<polygon fill="midnightblue" stroke="midnightblue" points="266.972,-95.6743 257.504,-100.429 267.871,-102.616 266.972,-95.6743"/>
</g>
<!-- Node7 -->
<g id="node7" class="node"><title>Node7</title>
<g id="a_node7"><a xlink:href="d7/dc5/classo2_1_1MFT_1_1TrackMFT.html" target="_top" xlink:title="o2::MFT::TrackMFT">
<polygon fill="none" stroke="black" points="318,-38.5 318,-57.5 422,-57.5 422,-38.5 318,-38.5"/>
<text text-anchor="middle" x="370" y="-45.5" font-family="Helvetica,sans-Serif" font-size="10.00">o2::MFT::TrackMFT</text>
</a>
</g>
</g>
<!-- Node2&#45;&gt;Node7 -->
<g id="edge6" class="edge"><title>Node2&#45;&gt;Node7</title>
<path fill="none" stroke="midnightblue" d="M227.762,-94.1615C246.363,-85.5701 271.262,-74.7317 294,-67 304.301,-63.4973 315.592,-60.3091 326.215,-57.5869"/>
<polygon fill="midnightblue" stroke="midnightblue" points="226.23,-91.0144 218.654,-98.4211 229.195,-97.3553 226.23,-91.0144"/>
</g>
<!-- Node8 -->
<g id="node8" class="node"><title>Node8</title>
<g id="a_node8"><a xlink:href="d9/d6e/classo2_1_1TPC_1_1TrackTPC.html" target="_top" xlink:title="o2::TPC::TrackTPC">
<polygon fill="none" stroke="black" points="318,-0.5 318,-19.5 422,-19.5 422,-0.5 318,-0.5"/>
<text text-anchor="middle" x="370" y="-7.5" font-family="Helvetica,sans-Serif" font-size="10.00">o2::TPC::TrackTPC</text>
</a>
</g>
</g>
<!-- Node2&#45;&gt;Node8 -->
<g id="edge7" class="edge"><title>Node2&#45;&gt;Node8</title>
<path fill="none" stroke="midnightblue" d="M214.875,-90.8751C232.516,-72.8587 262.669,-44.9507 294,-29 301.541,-25.1607 309.913,-22.0604 318.25,-19.5678"/>
<polygon fill="midnightblue" stroke="midnightblue" points="212.079,-88.7349 207.691,-98.3784 217.135,-93.5759 212.079,-88.7349"/>
</g>
</g>
</svg>
