<?xml version="1.0" encoding="UTF-8" standalone="no"?>
<!DOCTYPE svg PUBLIC "-//W3C//DTD SVG 1.1//EN"
 "http://www.w3.org/Graphics/SVG/1.1/DTD/svg11.dtd">
<!-- Generated by graphviz version 2.36.0 (20140111.2315)
 -->
<!-- Title: Graphical Class Hierarchy Pages: 1 -->
<svg width="454pt" height="136pt"
 viewBox="0.00 0.00 454.00 136.00" xmlns="http://www.w3.org/2000/svg" xmlns:xlink="http://www.w3.org/1999/xlink">
<g id="graph0" class="graph" transform="scale(1 1) rotate(0) translate(4 132)">
<title>Graphical Class Hierarchy</title>
<!-- Node1 -->
<g id="node1" class="node"><title>Node1</title>
<polygon fill="none" stroke="#bfbfbf" points="0.5,-54.5 0.5,-73.5 95.5,-73.5 95.5,-54.5 0.5,-54.5"/>
<text text-anchor="middle" x="48" y="-61.5" font-family="Helvetica,sans-Serif" font-size="10.00">memory_resource</text>
</g>
<!-- Node2 -->
<g id="node2" class="node"><title>Node2</title>
<g id="a_node2"><a xlink:href="d6/d00/classo2_1_1memory__resource_1_1FairMQMemoryResource.html" target="_top" xlink:title="All FairMQ related memory resources need to inherit from this interface class for the getMessage() ap...">
<polygon fill="none" stroke="black" points="132,-49 132,-79 264,-79 264,-49 132,-49"/>
<text text-anchor="start" x="140" y="-67" font-family="Helvetica,sans-Serif" font-size="10.00">o2::memory_resource</text>
<text text-anchor="middle" x="198" y="-56" font-family="Helvetica,sans-Serif" font-size="10.00">::FairMQMemoryResource</text>
</a>
</g>
</g>
<!-- Node1&#45;&gt;Node2 -->
<g id="edge1" class="edge"><title>Node1&#45;&gt;Node2</title>
<path fill="none" stroke="midnightblue" d="M105.962,-64C114.424,-64 123.201,-64 131.816,-64"/>
<polygon fill="midnightblue" stroke="midnightblue" points="105.828,-60.5001 95.8281,-64 105.828,-67.5001 105.828,-60.5001"/>
</g>
<!-- Node3 -->
<g id="node3" class="node"><title>Node3</title>
<g id="a_node3"><a xlink:href="db/da9/classo2_1_1memory__resource_1_1ChannelResource.html" target="_top" xlink:title="o2::memory_resource\l::ChannelResource">
<polygon fill="none" stroke="black" points="317.5,-98 317.5,-128 428.5,-128 428.5,-98 317.5,-98"/>
<text text-anchor="start" x="325.5" y="-116" font-family="Helvetica,sans-Serif" font-size="10.00">o2::memory_resource</text>
<text text-anchor="middle" x="373" y="-105" font-family="Helvetica,sans-Serif" font-size="10.00">::ChannelResource</text>
</a>
</g>
</g>
<!-- Node2&#45;&gt;Node3 -->
<g id="edge2" class="edge"><title>Node2&#45;&gt;Node3</title>
<path fill="none" stroke="midnightblue" d="M262.177,-81.8941C280.785,-87.1644 300.948,-92.8755 318.859,-97.9484"/>
<polygon fill="midnightblue" stroke="midnightblue" points="262.893,-78.4591 252.317,-79.1014 260.985,-85.1942 262.893,-78.4591"/>
</g>
<!-- Node4 -->
<g id="node4" class="node"><title>Node4</title>
<g id="a_node4"><a xlink:href="da/d3c/classo2_1_1memory__resource_1_1MessageResource.html" target="_top" xlink:title="o2::memory_resource\l::MessageResource">
<polygon fill="none" stroke="black" points="317.5,-49 317.5,-79 428.5,-79 428.5,-49 317.5,-49"/>
<text text-anchor="start" x="325.5" y="-67" font-family="Helvetica,sans-Serif" font-size="10.00">o2::memory_resource</text>
<text text-anchor="middle" x="373" y="-56" font-family="Helvetica,sans-Serif" font-size="10.00">::MessageResource</text>
</a>
</g>
</g>
<!-- Node2&#45;&gt;Node4 -->
<g id="edge3" class="edge"><title>Node2&#45;&gt;Node4</title>
<path fill="none" stroke="midnightblue" d="M274.724,-64C289.025,-64 303.725,-64 317.228,-64"/>
<polygon fill="midnightblue" stroke="midnightblue" points="274.404,-60.5001 264.404,-64 274.404,-67.5001 274.404,-60.5001"/>
</g>
<!-- Node5 -->
<g id="node5" class="node"><title>Node5</title>
<g id="a_node5"><a xlink:href="de/d47/classo2_1_1memory__resource_1_1SpectatorMessageResource.html" target="_top" xlink:title="o2::memory_resource\l::SpectatorMessageResource">
<polygon fill="none" stroke="black" points="300,-0 300,-30 446,-30 446,-0 300,-0"/>
<text text-anchor="start" x="308" y="-18" font-family="Helvetica,sans-Serif" font-size="10.00">o2::memory_resource</text>
<text text-anchor="middle" x="373" y="-7" font-family="Helvetica,sans-Serif" font-size="10.00">::SpectatorMessageResource</text>
</a>
</g>
</g>
<!-- Node2&#45;&gt;Node5 -->
<g id="edge4" class="edge"><title>Node2&#45;&gt;Node5</title>
<path fill="none" stroke="midnightblue" d="M262.177,-46.1059C280.785,-40.8356 300.948,-35.1245 318.859,-30.0516"/>
<polygon fill="midnightblue" stroke="midnightblue" points="260.985,-42.8058 252.317,-48.8986 262.893,-49.5409 260.985,-42.8058"/>
</g>
</g>
</svg>
