<?xml version="1.0" encoding="UTF-8" standalone="no"?>
<!DOCTYPE svg PUBLIC "-//W3C//DTD SVG 1.1//EN"
 "http://www.w3.org/Graphics/SVG/1.1/DTD/svg11.dtd">
<!-- Generated by graphviz version 2.36.0 (20140111.2315)
 -->
<!-- Title: /home/travis/build/AliceO2Group/AliceO2/Detectors/MUON/MCH/Mapping/Impl3/src/SegmentationImpl3.cxx Pages: 1 -->
<svg width="1193pt" height="310pt"
 viewBox="0.00 0.00 1193.00 310.00" xmlns="http://www.w3.org/2000/svg" xmlns:xlink="http://www.w3.org/1999/xlink">
<g id="graph0" class="graph" transform="scale(1 1) rotate(0) translate(4 306)">
<title>/home/travis/build/AliceO2Group/AliceO2/Detectors/MUON/MCH/Mapping/Impl3/src/SegmentationImpl3.cxx</title>
<!-- Node1 -->
<g id="node1" class="node"><title>Node1</title>
<polygon fill="#bfbfbf" stroke="black" points="572,-249 572,-301 738,-301 738,-249 572,-249"/>
<text text-anchor="start" x="580" y="-289" font-family="Helvetica,sans-Serif" font-size="10.00">/home/travis/build</text>
<text text-anchor="start" x="580" y="-278" font-family="Helvetica,sans-Serif" font-size="10.00">/AliceO2Group/AliceO2</text>
<text text-anchor="start" x="580" y="-267" font-family="Helvetica,sans-Serif" font-size="10.00">/Detectors/MUON/MCH/Mapping</text>
<text text-anchor="middle" x="655" y="-256" font-family="Helvetica,sans-Serif" font-size="10.00">/Impl3/src/SegmentationImpl3.cxx</text>
</g>
<!-- Node2 -->
<g id="node2" class="node"><title>Node2</title>
<g id="a_node2"><a xlink:href="../../d2/d89/SegmentationImpl3_8h.html" target="_top" xlink:title="SegmentationImpl3.h">
<polygon fill="none" stroke="black" points="111.5,-124.5 111.5,-143.5 220.5,-143.5 220.5,-124.5 111.5,-124.5"/>
<text text-anchor="middle" x="166" y="-131.5" font-family="Helvetica,sans-Serif" font-size="10.00">SegmentationImpl3.h</text>
</a>
</g>
</g>
<!-- Node1&#45;&gt;Node2 -->
<g id="edge1" class="edge"><title>Node1&#45;&gt;Node2</title>
<path fill="none" stroke="midnightblue" d="M571.79,-270.748C424.176,-264.117 129.002,-246.644 98,-212 88.5159,-201.402 91.2678,-192.528 98,-180 105.622,-165.815 119.897,-155.352 133.406,-148.103"/>
<polygon fill="midnightblue" stroke="midnightblue" points="135.128,-151.156 142.546,-143.592 132.03,-144.879 135.128,-151.156"/>
</g>
<!-- Node3 -->
<g id="node3" class="node"><title>Node3</title>
<g id="a_node3"><a xlink:href="../../dc/d0f/PadGroup_8h.html" target="_top" xlink:title="PadGroup.h">
<polygon fill="none" stroke="black" points="0,-62.5 0,-81.5 68,-81.5 68,-62.5 0,-62.5"/>
<text text-anchor="middle" x="34" y="-69.5" font-family="Helvetica,sans-Serif" font-size="10.00">PadGroup.h</text>
</a>
</g>
</g>
<!-- Node1&#45;&gt;Node3 -->
<g id="edge13" class="edge"><title>Node1&#45;&gt;Node3</title>
<path fill="none" stroke="midnightblue" d="M571.739,-269.64C423.451,-261.185 125.56,-240.826 88,-212 49.7564,-182.649 38.5776,-122.454 35.3249,-91.8145"/>
<polygon fill="midnightblue" stroke="midnightblue" points="38.793,-91.298 34.4264,-81.6449 31.8201,-91.9141 38.793,-91.298"/>
</g>
<!-- Node6 -->
<g id="node6" class="node"><title>Node6</title>
<polygon fill="none" stroke="#bfbfbf" points="398,-0.5 398,-19.5 442,-19.5 442,-0.5 398,-0.5"/>
<text text-anchor="middle" x="420" y="-7.5" font-family="Helvetica,sans-Serif" font-size="10.00">vector</text>
</g>
<!-- Node1&#45;&gt;Node6 -->
<g id="edge31" class="edge"><title>Node1&#45;&gt;Node6</title>
<path fill="none" stroke="midnightblue" d="M672.254,-248.748C686.608,-228.781 708.297,-200.887 731,-180 756.219,-156.798 804.324,-151.591 784,-124 743.672,-69.2536 533.49,-29.5793 452.171,-16.062"/>
<polygon fill="midnightblue" stroke="midnightblue" points="452.459,-12.5625 442.025,-14.4005 451.327,-19.4705 452.459,-12.5625"/>
</g>
<!-- Node7 -->
<g id="node7" class="node"><title>Node7</title>
<polygon fill="none" stroke="#bfbfbf" points="398,-62.5 398,-81.5 428,-81.5 428,-62.5 398,-62.5"/>
<text text-anchor="middle" x="413" y="-69.5" font-family="Helvetica,sans-Serif" font-size="10.00">set</text>
</g>
<!-- Node1&#45;&gt;Node7 -->
<g id="edge28" class="edge"><title>Node1&#45;&gt;Node7</title>
<path fill="none" stroke="midnightblue" d="M571.877,-261.409C517.726,-251.624 446.212,-235.677 386,-212 329.669,-189.849 298.286,-196.408 268,-144 229.071,-76.6361 310.745,-118.038 384,-88 385.586,-87.3495 387.203,-86.6432 388.82,-85.9036"/>
<polygon fill="midnightblue" stroke="midnightblue" points="390.45,-89.0024 397.887,-81.4562 387.368,-82.7177 390.45,-89.0024"/>
</g>
<!-- Node9 -->
<g id="node9" class="node"><title>Node9</title>
<polygon fill="none" stroke="#bfbfbf" points="277,-124.5 277,-143.5 367,-143.5 367,-124.5 277,-124.5"/>
<text text-anchor="middle" x="322" y="-131.5" font-family="Helvetica,sans-Serif" font-size="10.00">boost/format.hpp</text>
</g>
<!-- Node1&#45;&gt;Node9 -->
<g id="edge11" class="edge"><title>Node1&#45;&gt;Node9</title>
<path fill="none" stroke="midnightblue" d="M571.782,-254.789C532.718,-244.4 486.051,-229.984 446,-212 406.848,-194.42 365.227,-166.399 341.541,-149.447"/>
<polygon fill="midnightblue" stroke="midnightblue" points="343.535,-146.57 333.383,-143.537 339.428,-152.238 343.535,-146.57"/>
</g>
<!-- Node10 -->
<g id="node10" class="node"><title>Node10</title>
<g id="a_node10"><a xlink:href="../../dc/de3/GenDetElemId2SegType_8h.html" target="_top" xlink:title="GenDetElemId2SegType.h">
<polygon fill="none" stroke="black" points="740,-186.5 740,-205.5 874,-205.5 874,-186.5 740,-186.5"/>
<text text-anchor="middle" x="807" y="-193.5" font-family="Helvetica,sans-Serif" font-size="10.00">GenDetElemId2SegType.h</text>
</a>
</g>
</g>
<!-- Node1&#45;&gt;Node10 -->
<g id="edge12" class="edge"><title>Node1&#45;&gt;Node10</title>
<path fill="none" stroke="midnightblue" d="M704.77,-248.787C730.183,-235.914 760.056,-220.781 780.924,-210.21"/>
<polygon fill="midnightblue" stroke="midnightblue" points="782.768,-213.199 790.107,-205.558 779.605,-206.955 782.768,-213.199"/>
</g>
<!-- Node11 -->
<g id="node11" class="node"><title>Node11</title>
<g id="a_node11"><a xlink:href="../../d4/dec/PadSize_8h.html" target="_top" xlink:title="PadSize.h">
<polygon fill="none" stroke="black" points="892,-186.5 892,-205.5 954,-205.5 954,-186.5 892,-186.5"/>
<text text-anchor="middle" x="923" y="-193.5" font-family="Helvetica,sans-Serif" font-size="10.00">PadSize.h</text>
</a>
</g>
</g>
<!-- Node1&#45;&gt;Node11 -->
<g id="edge14" class="edge"><title>Node1&#45;&gt;Node11</title>
<path fill="none" stroke="midnightblue" d="M738.13,-253.385C781.58,-242.109 835.471,-227.337 883,-212 885.779,-211.103 888.65,-210.127 891.518,-209.118"/>
<polygon fill="midnightblue" stroke="midnightblue" points="892.922,-212.332 901.123,-205.624 890.529,-205.754 892.922,-212.332"/>
</g>
<!-- Node12 -->
<g id="node12" class="node"><title>Node12</title>
<g id="a_node12"><a xlink:href="../../d6/d1f/MUON_2MCH_2Mapping_2Interface_2include_2MCHMappingInterface_2Segmentation_8h.html" target="_top" xlink:title="MCHMappingInterface\l/Segmentation.h">
<polygon fill="none" stroke="black" points="492.5,-181 492.5,-211 607.5,-211 607.5,-181 492.5,-181"/>
<text text-anchor="start" x="500.5" y="-199" font-family="Helvetica,sans-Serif" font-size="10.00">MCHMappingInterface</text>
<text text-anchor="middle" x="550" y="-188" font-family="Helvetica,sans-Serif" font-size="10.00">/Segmentation.h</text>
</a>
</g>
</g>
<!-- Node1&#45;&gt;Node12 -->
<g id="edge15" class="edge"><title>Node1&#45;&gt;Node12</title>
<path fill="none" stroke="midnightblue" d="M620.619,-248.787C606.587,-238.497 590.587,-226.764 577.369,-217.07"/>
<polygon fill="midnightblue" stroke="midnightblue" points="579.267,-214.122 569.133,-211.031 575.127,-219.767 579.267,-214.122"/>
</g>
<!-- Node14 -->
<g id="node14" class="node"><title>Node14</title>
<polygon fill="none" stroke="#bfbfbf" points="385.5,-124.5 385.5,-143.5 444.5,-143.5 444.5,-124.5 385.5,-124.5"/>
<text text-anchor="middle" x="415" y="-131.5" font-family="Helvetica,sans-Serif" font-size="10.00">stdexcept</text>
</g>
<!-- Node1&#45;&gt;Node14 -->
<g id="edge29" class="edge"><title>Node1&#45;&gt;Node14</title>
<path fill="none" stroke="midnightblue" d="M571.796,-253.292C542.207,-243.598 509.651,-230.103 483,-212 459.225,-195.85 438.435,-169.519 426.295,-152.225"/>
<polygon fill="midnightblue" stroke="midnightblue" points="428.994,-149.97 420.476,-143.669 423.205,-153.907 428.994,-149.97"/>
</g>
<!-- Node15 -->
<g id="node15" class="node"><title>Node15</title>
<polygon fill="none" stroke="#bfbfbf" points="651,-124.5 651,-143.5 703,-143.5 703,-124.5 651,-124.5"/>
<text text-anchor="middle" x="677" y="-131.5" font-family="Helvetica,sans-Serif" font-size="10.00">memory</text>
</g>
<!-- Node1&#45;&gt;Node15 -->
<g id="edge27" class="edge"><title>Node1&#45;&gt;Node15</title>
<path fill="none" stroke="midnightblue" d="M654.254,-248.991C654.182,-229.893 655.159,-203.03 660,-180 661.933,-170.806 665.45,-161.002 668.785,-152.9"/>
<polygon fill="midnightblue" stroke="midnightblue" points="671.998,-154.288 672.781,-143.722 665.58,-151.494 671.998,-154.288"/>
</g>
<!-- Node16 -->
<g id="node16" class="node"><title>Node16</title>
<polygon fill="none" stroke="#bfbfbf" points="721,-124.5 721,-143.5 775,-143.5 775,-124.5 721,-124.5"/>
<text text-anchor="middle" x="748" y="-131.5" font-family="Helvetica,sans-Serif" font-size="10.00">iostream</text>
</g>
<!-- Node1&#45;&gt;Node16 -->
<g id="edge25" class="edge"><title>Node1&#45;&gt;Node16</title>
<path fill="none" stroke="midnightblue" d="M663.255,-248.951C670.523,-229.1 682.383,-201.262 698,-180 706.341,-168.643 717.927,-157.996 727.845,-149.911"/>
<polygon fill="midnightblue" stroke="midnightblue" points="730.297,-152.437 736.009,-143.513 725.979,-146.927 730.297,-152.437"/>
</g>
<!-- Node17 -->
<g id="node17" class="node"><title>Node17</title>
<g id="a_node17"><a xlink:href="../../de/d27/SegmentationCreator_8h.html" target="_top" xlink:title="SegmentationCreator.h">
<polygon fill="none" stroke="black" points="107.5,-186.5 107.5,-205.5 224.5,-205.5 224.5,-186.5 107.5,-186.5"/>
<text text-anchor="middle" x="166" y="-193.5" font-family="Helvetica,sans-Serif" font-size="10.00">SegmentationCreator.h</text>
</a>
</g>
</g>
<!-- Node1&#45;&gt;Node17 -->
<g id="edge22" class="edge"><title>Node1&#45;&gt;Node17</title>
<path fill="none" stroke="midnightblue" d="M571.908,-262.979C487.781,-251.501 354.041,-232.376 239,-212 231.47,-210.666 223.527,-209.149 215.761,-207.604"/>
<polygon fill="midnightblue" stroke="midnightblue" points="216.201,-204.122 205.705,-205.57 214.813,-210.983 216.201,-204.122"/>
</g>
<!-- Node18 -->
<g id="node18" class="node"><title>Node18</title>
<polygon fill="none" stroke="#bfbfbf" points="972,-186.5 972,-205.5 1010,-205.5 1010,-186.5 972,-186.5"/>
<text text-anchor="middle" x="991" y="-193.5" font-family="Helvetica,sans-Serif" font-size="10.00">array</text>
</g>
<!-- Node1&#45;&gt;Node18 -->
<g id="edge24" class="edge"><title>Node1&#45;&gt;Node18</title>
<path fill="none" stroke="midnightblue" d="M738.111,-263.607C800.845,-254.242 888.395,-237.897 962,-212 963.654,-211.418 965.332,-210.758 967.004,-210.046"/>
<polygon fill="midnightblue" stroke="midnightblue" points="968.787,-213.073 976.303,-205.606 965.771,-206.757 968.787,-213.073"/>
</g>
<!-- Node19 -->
<g id="node19" class="node"><title>Node19</title>
<polygon fill="none" stroke="#bfbfbf" points="1028.5,-186.5 1028.5,-205.5 1063.5,-205.5 1063.5,-186.5 1028.5,-186.5"/>
<text text-anchor="middle" x="1046" y="-193.5" font-family="Helvetica,sans-Serif" font-size="10.00">map</text>
</g>
<!-- Node1&#45;&gt;Node19 -->
<g id="edge26" class="edge"><title>Node1&#45;&gt;Node19</title>
<path fill="none" stroke="midnightblue" d="M738.318,-267.866C813.423,-260.465 926.013,-244.674 1019,-212 1020.45,-211.489 1021.92,-210.903 1023.38,-210.267"/>
<polygon fill="midnightblue" stroke="midnightblue" points="1025.34,-213.201 1032.69,-205.567 1022.18,-206.953 1025.34,-213.201"/>
</g>
<!-- Node20 -->
<g id="node20" class="node"><title>Node20</title>
<polygon fill="none" stroke="#bfbfbf" points="1081.5,-186.5 1081.5,-205.5 1122.5,-205.5 1122.5,-186.5 1081.5,-186.5"/>
<text text-anchor="middle" x="1102" y="-193.5" font-family="Helvetica,sans-Serif" font-size="10.00">string</text>
</g>
<!-- Node1&#45;&gt;Node20 -->
<g id="edge30" class="edge"><title>Node1&#45;&gt;Node20</title>
<path fill="none" stroke="midnightblue" d="M738.229,-269.371C823.661,-262.838 959.622,-247.456 1072,-212 1073.92,-211.396 1075.86,-210.682 1077.79,-209.899"/>
<polygon fill="midnightblue" stroke="midnightblue" points="1079.51,-212.959 1087.13,-205.596 1076.58,-206.602 1079.51,-212.959"/>
</g>
<!-- Node21 -->
<g id="node21" class="node"><title>Node21</title>
<polygon fill="none" stroke="#bfbfbf" points="1140.5,-186.5 1140.5,-205.5 1185.5,-205.5 1185.5,-186.5 1140.5,-186.5"/>
<text text-anchor="middle" x="1163" y="-193.5" font-family="Helvetica,sans-Serif" font-size="10.00">gsl/gsl</text>
</g>
<!-- Node1&#45;&gt;Node21 -->
<g id="edge32" class="edge"><title>Node1&#45;&gt;Node21</title>
<path fill="none" stroke="midnightblue" d="M738.286,-270.914C834.574,-265.579 996.999,-251.103 1131,-212 1133.29,-211.333 1135.61,-210.523 1137.92,-209.63"/>
<polygon fill="midnightblue" stroke="midnightblue" points="1139.33,-212.834 1147.1,-205.634 1136.53,-206.416 1139.33,-212.834"/>
</g>
<!-- Node2&#45;&gt;Node3 -->
<g id="edge2" class="edge"><title>Node2&#45;&gt;Node3</title>
<path fill="none" stroke="midnightblue" d="M147.088,-124.403C124.837,-114.29 87.6878,-97.4036 62.0741,-85.761"/>
<polygon fill="midnightblue" stroke="midnightblue" points="63.4293,-82.5324 52.8773,-81.5806 60.5326,-88.905 63.4293,-82.5324"/>
</g>
<!-- Node4 -->
<g id="node4" class="node"><title>Node4</title>
<polygon fill="none" stroke="#bfbfbf" points="70,-0.5 70,-19.5 122,-19.5 122,-0.5 70,-0.5"/>
<text text-anchor="middle" x="96" y="-7.5" font-family="Helvetica,sans-Serif" font-size="10.00">ostream</text>
</g>
<!-- Node2&#45;&gt;Node4 -->
<g id="edge9" class="edge"><title>Node2&#45;&gt;Node4</title>
<path fill="none" stroke="midnightblue" d="M152.194,-124.354C140.538,-116.336 124.303,-103.349 115,-88 104.099,-70.0134 99.4422,-46.0772 97.4592,-29.6952"/>
<polygon fill="midnightblue" stroke="midnightblue" points="100.94,-29.3319 96.4696,-19.7266 93.9747,-30.0234 100.94,-29.3319"/>
</g>
<!-- Node5 -->
<g id="node5" class="node"><title>Node5</title>
<g id="a_node5"><a xlink:href="../../dd/d31/PadGroupType_8h.html" target="_top" xlink:title="PadGroupType.h">
<polygon fill="none" stroke="black" points="124,-62.5 124,-81.5 214,-81.5 214,-62.5 124,-62.5"/>
<text text-anchor="middle" x="169" y="-69.5" font-family="Helvetica,sans-Serif" font-size="10.00">PadGroupType.h</text>
</a>
</g>
</g>
<!-- Node2&#45;&gt;Node5 -->
<g id="edge4" class="edge"><title>Node2&#45;&gt;Node5</title>
<path fill="none" stroke="midnightblue" d="M166.43,-124.403C166.853,-115.938 167.514,-102.728 168.059,-91.8199"/>
<polygon fill="midnightblue" stroke="midnightblue" points="171.567,-91.7429 168.571,-81.5806 164.576,-91.3933 171.567,-91.7429"/>
</g>
<!-- Node2&#45;&gt;Node6 -->
<g id="edge7" class="edge"><title>Node2&#45;&gt;Node6</title>
<path fill="none" stroke="midnightblue" d="M214.963,-124.491C261.717,-115.764 328.311,-101.581 351,-88 375.951,-73.065 396.954,-46.1973 409.015,-28.48"/>
<polygon fill="midnightblue" stroke="midnightblue" points="412.207,-29.9943 414.763,-19.7124 406.353,-26.1561 412.207,-29.9943"/>
</g>
<!-- Node2&#45;&gt;Node7 -->
<g id="edge8" class="edge"><title>Node2&#45;&gt;Node7</title>
<path fill="none" stroke="midnightblue" d="M220.875,-125.928C265.65,-119.154 330.088,-107.098 384,-88 385.653,-87.4144 387.33,-86.7513 389.001,-86.038"/>
<polygon fill="midnightblue" stroke="midnightblue" points="390.786,-89.064 398.298,-81.5929 387.767,-82.7487 390.786,-89.064"/>
</g>
<!-- Node8 -->
<g id="node8" class="node"><title>Node8</title>
<polygon fill="none" stroke="#bfbfbf" points="232,-57 232,-87 342,-87 342,-57 232,-57"/>
<text text-anchor="start" x="240" y="-75" font-family="Helvetica,sans-Serif" font-size="10.00">boost/geometry/index</text>
<text text-anchor="middle" x="287" y="-64" font-family="Helvetica,sans-Serif" font-size="10.00">/rtree.hpp</text>
</g>
<!-- Node2&#45;&gt;Node8 -->
<g id="edge10" class="edge"><title>Node2&#45;&gt;Node8</title>
<path fill="none" stroke="midnightblue" d="M183.336,-124.403C200.49,-115.898 227.303,-102.602 249.362,-91.6635"/>
<polygon fill="midnightblue" stroke="midnightblue" points="251.079,-94.719 258.483,-87.1408 247.969,-88.4477 251.079,-94.719"/>
</g>
<!-- Node3&#45;&gt;Node4 -->
<g id="edge3" class="edge"><title>Node3&#45;&gt;Node4</title>
<path fill="none" stroke="midnightblue" d="M42.8831,-62.4035C52.4594,-53.1361 67.9111,-38.1828 79.6862,-26.7876"/>
<polygon fill="midnightblue" stroke="midnightblue" points="82.3813,-29.05 87.1334,-19.5806 77.5134,-24.0197 82.3813,-29.05"/>
</g>
<!-- Node5&#45;&gt;Node4 -->
<g id="edge6" class="edge"><title>Node5&#45;&gt;Node4</title>
<path fill="none" stroke="midnightblue" d="M158.541,-62.4035C147.049,-52.9579 128.37,-37.6056 114.413,-26.1342"/>
<polygon fill="midnightblue" stroke="midnightblue" points="116.388,-23.2264 106.44,-19.5806 111.943,-28.6342 116.388,-23.2264"/>
</g>
<!-- Node5&#45;&gt;Node6 -->
<g id="edge5" class="edge"><title>Node5&#45;&gt;Node6</title>
<path fill="none" stroke="midnightblue" d="M198.643,-62.4995C206.539,-60.3083 215.076,-58.0043 223,-56 280.792,-41.3811 348.657,-26.3433 387.761,-17.8833"/>
<polygon fill="midnightblue" stroke="midnightblue" points="388.724,-21.2563 397.762,-15.7277 387.249,-14.4135 388.724,-21.2563"/>
</g>
<!-- Node12&#45;&gt;Node6 -->
<g id="edge20" class="edge"><title>Node12&#45;&gt;Node6</title>
<path fill="none" stroke="midnightblue" d="M530.667,-180.865C518.564,-171.366 503.198,-158.051 492,-144 462.386,-106.838 438.659,-55.7503 427.296,-28.998"/>
<polygon fill="midnightblue" stroke="midnightblue" points="430.51,-27.6111 423.44,-19.7204 424.046,-30.2979 430.51,-27.6111"/>
</g>
<!-- Node12&#45;&gt;Node9 -->
<g id="edge21" class="edge"><title>Node12&#45;&gt;Node9</title>
<path fill="none" stroke="midnightblue" d="M496.544,-180.933C456.24,-170.326 401.713,-155.977 364.392,-146.156"/>
<polygon fill="midnightblue" stroke="midnightblue" points="364.91,-142.673 354.348,-143.513 363.128,-149.442 364.91,-142.673"/>
</g>
<!-- Node13 -->
<g id="node13" class="node"><title>Node13</title>
<g id="a_node13"><a xlink:href="../../d0/d85/SegmentationCInterface_8h.html" target="_top" xlink:title="SegmentationCInterface.h">
<polygon fill="none" stroke="black" points="501.5,-124.5 501.5,-143.5 632.5,-143.5 632.5,-124.5 501.5,-124.5"/>
<text text-anchor="middle" x="567" y="-131.5" font-family="Helvetica,sans-Serif" font-size="10.00">SegmentationCInterface.h</text>
</a>
</g>
</g>
<!-- Node12&#45;&gt;Node13 -->
<g id="edge16" class="edge"><title>Node12&#45;&gt;Node13</title>
<path fill="none" stroke="midnightblue" d="M554.029,-180.781C556.346,-172.601 559.284,-162.234 561.777,-153.434"/>
<polygon fill="midnightblue" stroke="midnightblue" points="565.168,-154.306 564.526,-143.731 558.433,-152.398 565.168,-154.306"/>
</g>
<!-- Node12&#45;&gt;Node14 -->
<g id="edge17" class="edge"><title>Node12&#45;&gt;Node14</title>
<path fill="none" stroke="midnightblue" d="M518.348,-180.933C495.776,-170.9 465.668,-157.519 443.775,-147.789"/>
<polygon fill="midnightblue" stroke="midnightblue" points="444.91,-144.463 434.35,-143.6 442.067,-150.86 444.91,-144.463"/>
</g>
<!-- Node12&#45;&gt;Node15 -->
<g id="edge18" class="edge"><title>Node12&#45;&gt;Node15</title>
<path fill="none" stroke="midnightblue" d="M579.776,-180.933C600.915,-170.946 629.079,-157.64 649.652,-147.92"/>
<polygon fill="midnightblue" stroke="midnightblue" points="651.25,-151.036 658.797,-143.6 648.26,-144.707 651.25,-151.036"/>
</g>
<!-- Node12&#45;&gt;Node16 -->
<g id="edge19" class="edge"><title>Node12&#45;&gt;Node16</title>
<path fill="none" stroke="midnightblue" d="M596.422,-180.933C631.284,-170.369 678.398,-156.091 710.798,-146.273"/>
<polygon fill="midnightblue" stroke="midnightblue" points="712.211,-149.502 720.766,-143.253 710.181,-142.803 712.211,-149.502"/>
</g>
<!-- Node17&#45;&gt;Node2 -->
<g id="edge23" class="edge"><title>Node17&#45;&gt;Node2</title>
<path fill="none" stroke="midnightblue" d="M166,-186.403C166,-177.938 166,-164.728 166,-153.82"/>
<polygon fill="midnightblue" stroke="midnightblue" points="169.5,-153.581 166,-143.581 162.5,-153.581 169.5,-153.581"/>
</g>
</g>
</svg>
