<?xml version="1.0" encoding="UTF-8" standalone="no"?>
<!DOCTYPE svg PUBLIC "-//W3C//DTD SVG 1.1//EN"
 "http://www.w3.org/Graphics/SVG/1.1/DTD/svg11.dtd">
<!-- Generated by graphviz version 2.36.0 (20140111.2315)
 -->
<!-- Title: /home/travis/build/AliceO2Group/AliceO2/Detectors/ITSMFT/common/reconstruction/include/ITSMFTReconstruction/BuildTopologyDictionary.h Pages: 1 -->
<svg width="2067pt" height="616pt"
 viewBox="0.00 0.00 2067.00 616.00" xmlns="http://www.w3.org/2000/svg" xmlns:xlink="http://www.w3.org/1999/xlink">
<g id="graph0" class="graph" transform="scale(1 1) rotate(0) translate(4 612)">
<title>/home/travis/build/AliceO2Group/AliceO2/Detectors/ITSMFT/common/reconstruction/include/ITSMFTReconstruction/BuildTopologyDictionary.h</title>
<!-- Node1 -->
<g id="node1" class="node"><title>Node1</title>
<polygon fill="#bfbfbf" stroke="black" points="1636,-533 1636,-607 1822,-607 1822,-533 1636,-533"/>
<text text-anchor="start" x="1644" y="-595" font-family="Helvetica,sans-Serif" font-size="10.00">/home/travis/build</text>
<text text-anchor="start" x="1644" y="-584" font-family="Helvetica,sans-Serif" font-size="10.00">/AliceO2Group/AliceO2</text>
<text text-anchor="start" x="1644" y="-573" font-family="Helvetica,sans-Serif" font-size="10.00">/Detectors/ITSMFT/common</text>
<text text-anchor="start" x="1644" y="-562" font-family="Helvetica,sans-Serif" font-size="10.00">/reconstruction/include</text>
<text text-anchor="start" x="1644" y="-551" font-family="Helvetica,sans-Serif" font-size="10.00">/ITSMFTReconstruction/BuildTopology</text>
<text text-anchor="middle" x="1729" y="-540" font-family="Helvetica,sans-Serif" font-size="10.00">Dictionary.h</text>
</g>
<!-- Node2 -->
<g id="node2" class="node"><title>Node2</title>
<polygon fill="none" stroke="#bfbfbf" points="1446,-470.5 1446,-489.5 1502,-489.5 1502,-470.5 1446,-470.5"/>
<text text-anchor="middle" x="1474" y="-477.5" font-family="Helvetica,sans-Serif" font-size="10.00">algorithm</text>
</g>
<!-- Node1&#45;&gt;Node2 -->
<g id="edge1" class="edge"><title>Node1&#45;&gt;Node2</title>
<path fill="none" stroke="midnightblue" d="M1635.74,-539.18C1596.97,-526.419 1551.62,-511.018 1511,-496 1508.75,-495.168 1506.43,-494.288 1504.11,-493.386"/>
<polygon fill="midnightblue" stroke="midnightblue" points="1505.24,-490.07 1494.65,-489.637 1502.66,-496.577 1505.24,-490.07"/>
</g>
<!-- Node3 -->
<g id="node3" class="node"><title>Node3</title>
<polygon fill="none" stroke="#bfbfbf" points="1520.5,-470.5 1520.5,-489.5 1555.5,-489.5 1555.5,-470.5 1520.5,-470.5"/>
<text text-anchor="middle" x="1538" y="-477.5" font-family="Helvetica,sans-Serif" font-size="10.00">map</text>
</g>
<!-- Node1&#45;&gt;Node3 -->
<g id="edge2" class="edge"><title>Node1&#45;&gt;Node3</title>
<path fill="none" stroke="midnightblue" d="M1644.06,-532.899C1618.43,-521.551 1590.38,-508.665 1565,-496 1564.02,-495.509 1563.02,-495.001 1562.01,-494.481"/>
<polygon fill="midnightblue" stroke="midnightblue" points="1563.48,-491.295 1553.01,-489.647 1560.17,-497.462 1563.48,-491.295"/>
</g>
<!-- Node4 -->
<g id="node4" class="node"><title>Node4</title>
<g id="a_node4"><a xlink:href="../../d3/dba/SegmentationAlpide_8h.html" target="_top" xlink:title="Definition of the SegmentationAlpide class. ">
<polygon fill="none" stroke="black" points="1818.5,-340.5 1818.5,-359.5 1991.5,-359.5 1991.5,-340.5 1818.5,-340.5"/>
<text text-anchor="middle" x="1905" y="-347.5" font-family="Helvetica,sans-Serif" font-size="10.00">ITSMFTBase/SegmentationAlpide.h</text>
</a>
</g>
</g>
<!-- Node1&#45;&gt;Node4 -->
<g id="edge3" class="edge"><title>Node1&#45;&gt;Node4</title>
<path fill="none" stroke="midnightblue" d="M1822.16,-543.167C1876.38,-522.278 1938.55,-486.475 1962,-428 1967.29,-414.8 1968.2,-408.799 1962,-396 1955.6,-382.8 1943.25,-372.303 1931.67,-364.779"/>
<polygon fill="midnightblue" stroke="midnightblue" points="1933.45,-361.768 1923.08,-359.61 1929.84,-367.765 1933.45,-361.768"/>
</g>
<!-- Node6 -->
<g id="node6" class="node"><title>Node6</title>
<g id="a_node6"><a xlink:href="../../d8/ddb/ClusterTopology_8h.html" target="_top" xlink:title="Definition of the ClusterTopology class. ">
<polygon fill="none" stroke="black" points="1574,-465 1574,-495 1718,-495 1718,-465 1574,-465"/>
<text text-anchor="start" x="1582" y="-483" font-family="Helvetica,sans-Serif" font-size="10.00">DataFormatsITSMFT/Cluster</text>
<text text-anchor="middle" x="1646" y="-472" font-family="Helvetica,sans-Serif" font-size="10.00">Topology.h</text>
</a>
</g>
</g>
<!-- Node1&#45;&gt;Node6 -->
<g id="edge5" class="edge"><title>Node1&#45;&gt;Node6</title>
<path fill="none" stroke="midnightblue" d="M1695,-532.953C1685.31,-522.674 1675.05,-511.796 1666.43,-502.664"/>
<polygon fill="midnightblue" stroke="midnightblue" points="1668.75,-500.021 1659.34,-495.148 1663.66,-504.824 1668.75,-500.021"/>
</g>
<!-- Node36 -->
<g id="node36" class="node"><title>Node36</title>
<g id="a_node36"><a xlink:href="../../d1/d08/TopologyDictionary_8h.html" target="_top" xlink:title="Definition of the ClusterTopology class. ">
<polygon fill="none" stroke="black" points="1736,-465 1736,-495 1888,-495 1888,-465 1736,-465"/>
<text text-anchor="start" x="1744" y="-483" font-family="Helvetica,sans-Serif" font-size="10.00">DataFormatsITSMFT/Topology</text>
<text text-anchor="middle" x="1812" y="-472" font-family="Helvetica,sans-Serif" font-size="10.00">Dictionary.h</text>
</a>
</g>
</g>
<!-- Node1&#45;&gt;Node36 -->
<g id="edge46" class="edge"><title>Node1&#45;&gt;Node36</title>
<path fill="none" stroke="midnightblue" d="M1763,-532.953C1772.69,-522.674 1782.95,-511.796 1791.57,-502.664"/>
<polygon fill="midnightblue" stroke="midnightblue" points="1794.34,-504.824 1798.66,-495.148 1789.25,-500.021 1794.34,-504.824"/>
</g>
<!-- Node40 -->
<g id="node40" class="node"><title>Node40</title>
<polygon fill="none" stroke="#bfbfbf" points="2009,-470.5 2009,-489.5 2059,-489.5 2059,-470.5 2009,-470.5"/>
<text text-anchor="middle" x="2034" y="-477.5" font-family="Helvetica,sans-Serif" font-size="10.00">TH1F.h</text>
</g>
<!-- Node1&#45;&gt;Node40 -->
<g id="edge52" class="edge"><title>Node1&#45;&gt;Node40</title>
<path fill="none" stroke="midnightblue" d="M1822,-545.898C1873.38,-532.531 1938.13,-514.688 1995,-496 1997.62,-495.138 2000.33,-494.201 2003.03,-493.23"/>
<polygon fill="midnightblue" stroke="midnightblue" points="2004.53,-496.407 2012.68,-489.638 2002.09,-489.847 2004.53,-496.407"/>
</g>
<!-- Node5 -->
<g id="node5" class="node"><title>Node5</title>
<polygon fill="none" stroke="#bfbfbf" points="1599,-74.5 1599,-93.5 1655,-93.5 1655,-74.5 1599,-74.5"/>
<text text-anchor="middle" x="1627" y="-81.5" font-family="Helvetica,sans-Serif" font-size="10.00">Rtypes.h</text>
</g>
<!-- Node4&#45;&gt;Node5 -->
<g id="edge4" class="edge"><title>Node4&#45;&gt;Node5</title>
<path fill="none" stroke="midnightblue" d="M1896.7,-340.161C1868.6,-310.384 1774.13,-211.386 1690,-136 1675.86,-123.334 1659.14,-109.858 1646.47,-99.9412"/>
<polygon fill="midnightblue" stroke="midnightblue" points="1648.48,-97.0684 1638.43,-93.698 1644.18,-102.597 1648.48,-97.0684"/>
</g>
<!-- Node7 -->
<g id="node7" class="node"><title>Node7</title>
<g id="a_node7"><a xlink:href="../../de/dc1/ClusterPattern_8h.html" target="_top" xlink:title="DataFormatsITSMFT/Cluster\lPattern.h">
<polygon fill="none" stroke="black" points="1542,-397 1542,-427 1686,-427 1686,-397 1542,-397"/>
<text text-anchor="start" x="1550" y="-415" font-family="Helvetica,sans-Serif" font-size="10.00">DataFormatsITSMFT/Cluster</text>
<text text-anchor="middle" x="1614" y="-404" font-family="Helvetica,sans-Serif" font-size="10.00">Pattern.h</text>
</a>
</g>
</g>
<!-- Node6&#45;&gt;Node7 -->
<g id="edge6" class="edge"><title>Node6&#45;&gt;Node7</title>
<path fill="none" stroke="midnightblue" d="M1639.06,-464.679C1635.07,-456.463 1629.97,-445.943 1625.41,-436.542"/>
<polygon fill="midnightblue" stroke="midnightblue" points="1628.44,-434.764 1620.93,-427.293 1622.14,-437.818 1628.44,-434.764"/>
</g>
<!-- Node7&#45;&gt;Node5 -->
<g id="edge7" class="edge"><title>Node7&#45;&gt;Node5</title>
<path fill="none" stroke="midnightblue" d="M1617.32,-396.868C1625.86,-359.673 1648.46,-255.872 1656,-168 1657.22,-153.83 1659.64,-149.75 1656,-136 1652.8,-123.888 1645.98,-111.642 1639.76,-102.186"/>
<polygon fill="midnightblue" stroke="midnightblue" points="1642.48,-99.9717 1633.89,-93.7688 1636.74,-103.974 1642.48,-99.9717"/>
</g>
<!-- Node8 -->
<g id="node8" class="node"><title>Node8</title>
<polygon fill="none" stroke="#bfbfbf" points="1649,-6.5 1649,-25.5 1687,-25.5 1687,-6.5 1649,-6.5"/>
<text text-anchor="middle" x="1668" y="-13.5" font-family="Helvetica,sans-Serif" font-size="10.00">array</text>
</g>
<!-- Node7&#45;&gt;Node8 -->
<g id="edge8" class="edge"><title>Node7&#45;&gt;Node8</title>
<path fill="none" stroke="midnightblue" d="M1622.91,-396.763C1628.8,-386.797 1636.27,-372.992 1641,-360 1680.98,-250.133 1673.74,-216.689 1681,-100 1681.88,-85.8053 1682.77,-82.1116 1681,-68 1679.61,-56.9335 1676.59,-44.8256 1673.81,-35.1853"/>
<polygon fill="midnightblue" stroke="midnightblue" points="1677.14,-34.084 1670.87,-25.5366 1670.44,-36.1225 1677.14,-34.084"/>
</g>
<!-- Node9 -->
<g id="node9" class="node"><title>Node9</title>
<polygon fill="none" stroke="#bfbfbf" points="-0.5,-74.5 -0.5,-93.5 44.5,-93.5 44.5,-74.5 -0.5,-74.5"/>
<text text-anchor="middle" x="22" y="-81.5" font-family="Helvetica,sans-Serif" font-size="10.00">iosfwd</text>
</g>
<!-- Node7&#45;&gt;Node9 -->
<g id="edge9" class="edge"><title>Node7&#45;&gt;Node9</title>
<path fill="none" stroke="midnightblue" d="M1541.82,-408.648C1251.94,-398.736 188,-357.68 188,-289 188,-289 188,-289 188,-219 188,-183.137 93.0052,-124.851 46.7384,-98.5892"/>
<polygon fill="midnightblue" stroke="midnightblue" points="48.3498,-95.48 37.9168,-93.6353 44.9223,-101.583 48.3498,-95.48"/>
</g>
<!-- Node10 -->
<g id="node10" class="node"><title>Node10</title>
<g id="a_node10"><a xlink:href="../../d1/d62/DataFormats_2Detectors_2ITSMFT_2common_2include_2DataFormatsITSMFT_2Cluster_8h.html" target="_top" xlink:title="DataFormatsITSMFT/Cluster.h">
<polygon fill="none" stroke="black" points="1307,-340.5 1307,-359.5 1459,-359.5 1459,-340.5 1307,-340.5"/>
<text text-anchor="middle" x="1383" y="-347.5" font-family="Helvetica,sans-Serif" font-size="10.00">DataFormatsITSMFT/Cluster.h</text>
</a>
</g>
</g>
<!-- Node7&#45;&gt;Node10 -->
<g id="edge10" class="edge"><title>Node7&#45;&gt;Node10</title>
<path fill="none" stroke="midnightblue" d="M1559.84,-396.933C1518.83,-386.281 1463.29,-371.855 1425.47,-362.03"/>
<polygon fill="midnightblue" stroke="midnightblue" points="1426.33,-358.639 1415.77,-359.513 1424.57,-365.414 1426.33,-358.639"/>
</g>
<!-- Node11 -->
<g id="node11" class="node"><title>Node11</title>
<g id="a_node11"><a xlink:href="../../d4/de2/BaseCluster_8h.html" target="_top" xlink:title="ReconstructionDataFormats\l/BaseCluster.h">
<polygon fill="none" stroke="black" points="1217,-273 1217,-303 1357,-303 1357,-273 1217,-273"/>
<text text-anchor="start" x="1225" y="-291" font-family="Helvetica,sans-Serif" font-size="10.00">ReconstructionDataFormats</text>
<text text-anchor="middle" x="1287" y="-280" font-family="Helvetica,sans-Serif" font-size="10.00">/BaseCluster.h</text>
</a>
</g>
</g>
<!-- Node10&#45;&gt;Node11 -->
<g id="edge11" class="edge"><title>Node10&#45;&gt;Node11</title>
<path fill="none" stroke="midnightblue" d="M1369.25,-340.403C1356,-332.125 1335.5,-319.311 1318.28,-308.547"/>
<polygon fill="midnightblue" stroke="midnightblue" points="1319.96,-305.473 1309.63,-303.141 1316.25,-311.409 1319.96,-305.473"/>
</g>
<!-- Node11&#45;&gt;Node9 -->
<g id="edge16" class="edge"><title>Node11&#45;&gt;Node9</title>
<path fill="none" stroke="midnightblue" d="M1216.63,-279.026C989.187,-252.833 275.827,-167.267 54,-100 51.7211,-99.3089 49.3976,-98.4826 47.0955,-97.578"/>
<polygon fill="midnightblue" stroke="midnightblue" points="48.4857,-94.3659 37.9212,-93.5639 45.6797,-100.779 48.4857,-94.3659"/>
</g>
<!-- Node12 -->
<g id="node12" class="node"><title>Node12</title>
<polygon fill="none" stroke="#bfbfbf" points="1221.5,-210.5 1221.5,-229.5 1280.5,-229.5 1280.5,-210.5 1221.5,-210.5"/>
<text text-anchor="middle" x="1251" y="-217.5" font-family="Helvetica,sans-Serif" font-size="10.00">TObject.h</text>
</g>
<!-- Node11&#45;&gt;Node12 -->
<g id="edge12" class="edge"><title>Node11&#45;&gt;Node12</title>
<path fill="none" stroke="midnightblue" d="M1279.19,-272.679C1273.74,-262.694 1266.44,-249.307 1260.63,-238.66"/>
<polygon fill="midnightblue" stroke="midnightblue" points="1263.68,-236.931 1255.82,-229.828 1257.53,-240.283 1263.68,-236.931"/>
</g>
<!-- Node13 -->
<g id="node13" class="node"><title>Node13</title>
<polygon fill="none" stroke="#bfbfbf" points="1182.5,-74.5 1182.5,-93.5 1223.5,-93.5 1223.5,-74.5 1182.5,-74.5"/>
<text text-anchor="middle" x="1203" y="-81.5" font-family="Helvetica,sans-Serif" font-size="10.00">bitset</text>
</g>
<!-- Node11&#45;&gt;Node13 -->
<g id="edge13" class="edge"><title>Node11&#45;&gt;Node13</title>
<path fill="none" stroke="midnightblue" d="M1253.5,-272.813C1238.11,-264.458 1221.25,-252.293 1212,-236 1187.96,-193.681 1194.01,-133.5 1199.18,-103.496"/>
<polygon fill="midnightblue" stroke="midnightblue" points="1202.64,-104.05 1201.06,-93.5743 1195.76,-102.751 1202.64,-104.05"/>
</g>
<!-- Node14 -->
<g id="node14" class="node"><title>Node14</title>
<polygon fill="none" stroke="#bfbfbf" points="1299,-210.5 1299,-229.5 1349,-229.5 1349,-210.5 1299,-210.5"/>
<text text-anchor="middle" x="1324" y="-217.5" font-family="Helvetica,sans-Serif" font-size="10.00">iomanip</text>
</g>
<!-- Node11&#45;&gt;Node14 -->
<g id="edge14" class="edge"><title>Node11&#45;&gt;Node14</title>
<path fill="none" stroke="midnightblue" d="M1295.03,-272.679C1300.63,-262.694 1308.13,-249.307 1314.1,-238.66"/>
<polygon fill="midnightblue" stroke="midnightblue" points="1317.21,-240.263 1319.05,-229.828 1311.11,-236.84 1317.21,-240.263"/>
</g>
<!-- Node15 -->
<g id="node15" class="node"><title>Node15</title>
<polygon fill="none" stroke="#bfbfbf" points="1367.5,-210.5 1367.5,-229.5 1396.5,-229.5 1396.5,-210.5 1367.5,-210.5"/>
<text text-anchor="middle" x="1382" y="-217.5" font-family="Helvetica,sans-Serif" font-size="10.00">ios</text>
</g>
<!-- Node11&#45;&gt;Node15 -->
<g id="edge15" class="edge"><title>Node11&#45;&gt;Node15</title>
<path fill="none" stroke="midnightblue" d="M1307.61,-272.679C1323.4,-261.713 1345.09,-246.645 1360.97,-235.609"/>
<polygon fill="midnightblue" stroke="midnightblue" points="1363.35,-238.218 1369.57,-229.638 1359.36,-232.469 1363.35,-238.218"/>
</g>
<!-- Node16 -->
<g id="node16" class="node"><title>Node16</title>
<g id="a_node16"><a xlink:href="../../d4/d20/DetMatrixCache_8h.html" target="_top" xlink:title="DetectorsCommonDataFormats\l/DetMatrixCache.h">
<polygon fill="none" stroke="black" points="1415,-205 1415,-235 1571,-235 1571,-205 1415,-205"/>
<text text-anchor="start" x="1423" y="-223" font-family="Helvetica,sans-Serif" font-size="10.00">DetectorsCommonDataFormats</text>
<text text-anchor="middle" x="1493" y="-212" font-family="Helvetica,sans-Serif" font-size="10.00">/DetMatrixCache.h</text>
</a>
</g>
</g>
<!-- Node11&#45;&gt;Node16 -->
<g id="edge17" class="edge"><title>Node11&#45;&gt;Node16</title>
<path fill="none" stroke="midnightblue" d="M1330.94,-272.922C1362.67,-262.757 1405.68,-248.975 1439.43,-238.164"/>
<polygon fill="midnightblue" stroke="midnightblue" points="1440.67,-241.44 1449.13,-235.056 1438.54,-234.774 1440.67,-241.44"/>
</g>
<!-- Node26 -->
<g id="node26" class="node"><title>Node26</title>
<g id="a_node26"><a xlink:href="../../dd/d76/Cartesian3D_8h.html" target="_top" xlink:title="MathUtils/Cartesian3D.h">
<polygon fill="none" stroke="black" points="751.5,-142.5 751.5,-161.5 876.5,-161.5 876.5,-142.5 751.5,-142.5"/>
<text text-anchor="middle" x="814" y="-149.5" font-family="Helvetica,sans-Serif" font-size="10.00">MathUtils/Cartesian3D.h</text>
</a>
</g>
</g>
<!-- Node11&#45;&gt;Node26 -->
<g id="edge45" class="edge"><title>Node11&#45;&gt;Node26</title>
<path fill="none" stroke="midnightblue" d="M1237.27,-272.913C1142.93,-246.186 939.721,-188.617 853.729,-164.255"/>
<polygon fill="midnightblue" stroke="midnightblue" points="854.655,-160.88 844.08,-161.522 852.747,-167.615 854.655,-160.88"/>
</g>
<!-- Node16&#45;&gt;Node5 -->
<g id="edge44" class="edge"><title>Node16&#45;&gt;Node5</title>
<path fill="none" stroke="midnightblue" d="M1503.4,-204.71C1516.23,-187.52 1539.16,-158.205 1562,-136 1575.7,-122.677 1592.75,-109.407 1605.95,-99.7429"/>
<polygon fill="midnightblue" stroke="midnightblue" points="1608.31,-102.355 1614.38,-93.6728 1604.22,-96.6738 1608.31,-102.355"/>
</g>
<!-- Node16&#45;&gt;Node8 -->
<g id="edge19" class="edge"><title>Node16&#45;&gt;Node8</title>
<path fill="none" stroke="midnightblue" d="M1513.47,-204.956C1527.49,-195.076 1546.32,-181.294 1562,-168 1577.58,-154.788 1578.47,-148.011 1595,-136 1622.66,-115.896 1644.49,-128.752 1663,-100 1675.37,-80.7921 1674.35,-53.6149 1671.78,-35.661"/>
<polygon fill="midnightblue" stroke="midnightblue" points="1675.19,-34.8531 1670.03,-25.5992 1668.29,-36.0505 1675.19,-34.8531"/>
</g>
<!-- Node17 -->
<g id="node17" class="node"><title>Node17</title>
<polygon fill="none" stroke="#bfbfbf" points="1438.5,-142.5 1438.5,-161.5 1509.5,-161.5 1509.5,-142.5 1438.5,-142.5"/>
<text text-anchor="middle" x="1474" y="-149.5" font-family="Helvetica,sans-Serif" font-size="10.00">FairLogger.h</text>
</g>
<!-- Node16&#45;&gt;Node17 -->
<g id="edge18" class="edge"><title>Node16&#45;&gt;Node17</title>
<path fill="none" stroke="midnightblue" d="M1488.88,-204.679C1486.09,-194.999 1482.38,-182.123 1479.37,-171.645"/>
<polygon fill="midnightblue" stroke="midnightblue" points="1482.67,-170.47 1476.54,-161.828 1475.94,-172.406 1482.67,-170.47"/>
</g>
<!-- Node18 -->
<g id="node18" class="node"><title>Node18</title>
<polygon fill="none" stroke="#bfbfbf" points="1604,-142.5 1604,-161.5 1648,-161.5 1648,-142.5 1604,-142.5"/>
<text text-anchor="middle" x="1626" y="-149.5" font-family="Helvetica,sans-Serif" font-size="10.00">vector</text>
</g>
<!-- Node16&#45;&gt;Node18 -->
<g id="edge20" class="edge"><title>Node16&#45;&gt;Node18</title>
<path fill="none" stroke="midnightblue" d="M1521.53,-204.841C1544.64,-193.374 1576.95,-177.342 1599.49,-166.153"/>
<polygon fill="midnightblue" stroke="midnightblue" points="1601.1,-169.262 1608.5,-161.682 1597.99,-162.992 1601.1,-169.262"/>
</g>
<!-- Node19 -->
<g id="node19" class="node"><title>Node19</title>
<g id="a_node19"><a xlink:href="../../d6/d31/DetID_8h.html" target="_top" xlink:title="DetectorsCommonDataFormats\l/DetID.h">
<polygon fill="none" stroke="black" points="1264,-137 1264,-167 1420,-167 1420,-137 1264,-137"/>
<text text-anchor="start" x="1272" y="-155" font-family="Helvetica,sans-Serif" font-size="10.00">DetectorsCommonDataFormats</text>
<text text-anchor="middle" x="1342" y="-144" font-family="Helvetica,sans-Serif" font-size="10.00">/DetID.h</text>
</a>
</g>
</g>
<!-- Node16&#45;&gt;Node19 -->
<g id="edge21" class="edge"><title>Node16&#45;&gt;Node19</title>
<path fill="none" stroke="midnightblue" d="M1460.61,-204.841C1438.04,-194.977 1407.74,-181.735 1383.42,-171.104"/>
<polygon fill="midnightblue" stroke="midnightblue" points="1384.64,-167.82 1374.08,-167.022 1381.84,-174.234 1384.64,-167.82"/>
</g>
<!-- Node16&#45;&gt;Node26 -->
<g id="edge32" class="edge"><title>Node16&#45;&gt;Node26</title>
<path fill="none" stroke="midnightblue" d="M1414.84,-205.332C1411.52,-204.86 1408.23,-204.414 1405,-204 1219.02,-180.166 998.648,-164.438 886.873,-157.341"/>
<polygon fill="midnightblue" stroke="midnightblue" points="886.926,-153.837 876.726,-156.701 886.486,-160.823 886.926,-153.837"/>
</g>
<!-- Node19&#45;&gt;Node5 -->
<g id="edge22" class="edge"><title>Node19&#45;&gt;Node5</title>
<path fill="none" stroke="midnightblue" d="M1420.08,-137.414C1468.06,-128.376 1530.55,-115.361 1585,-100 1588.38,-99.0462 1591.88,-97.9592 1595.36,-96.8163"/>
<polygon fill="midnightblue" stroke="midnightblue" points="1596.63,-100.078 1604.95,-93.5112 1594.35,-93.46 1596.63,-100.078"/>
</g>
<!-- Node19&#45;&gt;Node8 -->
<g id="edge23" class="edge"><title>Node19&#45;&gt;Node8</title>
<path fill="none" stroke="midnightblue" d="M1414.91,-136.995C1465.57,-126.568 1528.11,-112.105 1552,-100 1571.69,-90.0188 1572.28,-81.1767 1590,-68 1608.02,-54.6014 1629.42,-40.7434 1645.24,-30.8608"/>
<polygon fill="midnightblue" stroke="midnightblue" points="1647.19,-33.774 1653.85,-25.5351 1643.5,-27.8217 1647.19,-33.774"/>
</g>
<!-- Node19&#45;&gt;Node13 -->
<g id="edge24" class="edge"><title>Node19&#45;&gt;Node13</title>
<path fill="none" stroke="midnightblue" d="M1310.54,-136.849C1288.44,-126.807 1258.27,-112.878 1232,-100 1230.83,-99.4246 1229.63,-98.8312 1228.42,-98.2276"/>
<polygon fill="midnightblue" stroke="midnightblue" points="1229.7,-94.9492 1219.2,-93.5337 1226.52,-101.188 1229.7,-94.9492"/>
</g>
<!-- Node20 -->
<g id="node20" class="node"><title>Node20</title>
<polygon fill="none" stroke="#bfbfbf" points="1241.5,-74.5 1241.5,-93.5 1290.5,-93.5 1290.5,-74.5 1241.5,-74.5"/>
<text text-anchor="middle" x="1266" y="-81.5" font-family="Helvetica,sans-Serif" font-size="10.00">cassert</text>
</g>
<!-- Node19&#45;&gt;Node20 -->
<g id="edge25" class="edge"><title>Node19&#45;&gt;Node20</title>
<path fill="none" stroke="midnightblue" d="M1325.51,-136.679C1313.19,-125.981 1296.37,-111.377 1283.76,-100.422"/>
<polygon fill="midnightblue" stroke="midnightblue" points="1286.01,-97.7426 1276.17,-93.8283 1281.42,-103.028 1286.01,-97.7426"/>
</g>
<!-- Node21 -->
<g id="node21" class="node"><title>Node21</title>
<polygon fill="none" stroke="#bfbfbf" points="1309,-74.5 1309,-93.5 1355,-93.5 1355,-74.5 1309,-74.5"/>
<text text-anchor="middle" x="1332" y="-81.5" font-family="Helvetica,sans-Serif" font-size="10.00">cstdint</text>
</g>
<!-- Node19&#45;&gt;Node21 -->
<g id="edge26" class="edge"><title>Node19&#45;&gt;Node21</title>
<path fill="none" stroke="midnightblue" d="M1339.83,-136.679C1338.38,-127.101 1336.45,-114.394 1334.88,-103.977"/>
<polygon fill="midnightblue" stroke="midnightblue" points="1338.3,-103.191 1333.34,-93.8283 1331.38,-104.24 1338.3,-103.191"/>
</g>
<!-- Node22 -->
<g id="node22" class="node"><title>Node22</title>
<polygon fill="none" stroke="#bfbfbf" points="1373,-74.5 1373,-93.5 1435,-93.5 1435,-74.5 1373,-74.5"/>
<text text-anchor="middle" x="1404" y="-81.5" font-family="Helvetica,sans-Serif" font-size="10.00">type_traits</text>
</g>
<!-- Node19&#45;&gt;Node22 -->
<g id="edge27" class="edge"><title>Node19&#45;&gt;Node22</title>
<path fill="none" stroke="midnightblue" d="M1355.45,-136.679C1365.22,-126.286 1378.44,-112.208 1388.62,-101.37"/>
<polygon fill="midnightblue" stroke="midnightblue" points="1391.41,-103.513 1395.71,-93.8283 1386.31,-98.7204 1391.41,-103.513"/>
</g>
<!-- Node23 -->
<g id="node23" class="node"><title>Node23</title>
<g id="a_node23"><a xlink:href="../../d9/d52/Common_2MathUtils_2include_2MathUtils_2Utils_8h.html" target="_top" xlink:title="MathUtils/Utils.h">
<polygon fill="none" stroke="black" points="1453,-74.5 1453,-93.5 1543,-93.5 1543,-74.5 1453,-74.5"/>
<text text-anchor="middle" x="1498" y="-81.5" font-family="Helvetica,sans-Serif" font-size="10.00">MathUtils/Utils.h</text>
</a>
</g>
</g>
<!-- Node19&#45;&gt;Node23 -->
<g id="edge28" class="edge"><title>Node19&#45;&gt;Node23</title>
<path fill="none" stroke="midnightblue" d="M1375.47,-136.841C1402.93,-125.221 1441.48,-108.912 1467.97,-97.7063"/>
<polygon fill="midnightblue" stroke="midnightblue" points="1469.63,-100.802 1477.48,-93.6819 1466.91,-94.355 1469.63,-100.802"/>
</g>
<!-- Node23&#45;&gt;Node8 -->
<g id="edge29" class="edge"><title>Node23&#45;&gt;Node8</title>
<path fill="none" stroke="midnightblue" d="M1520.22,-74.3717C1550.73,-62.5286 1605.61,-41.2237 1639.22,-28.174"/>
<polygon fill="midnightblue" stroke="midnightblue" points="1640.86,-31.2908 1648.92,-24.4088 1638.33,-24.7653 1640.86,-31.2908"/>
</g>
<!-- Node24 -->
<g id="node24" class="node"><title>Node24</title>
<polygon fill="none" stroke="#bfbfbf" points="1360,-6.5 1360,-25.5 1404,-25.5 1404,-6.5 1360,-6.5"/>
<text text-anchor="middle" x="1382" y="-13.5" font-family="Helvetica,sans-Serif" font-size="10.00">cmath</text>
</g>
<!-- Node23&#45;&gt;Node24 -->
<g id="edge30" class="edge"><title>Node23&#45;&gt;Node24</title>
<path fill="none" stroke="midnightblue" d="M1482.84,-74.3717C1463.3,-63.2545 1429.1,-43.7997 1406.01,-30.6624"/>
<polygon fill="midnightblue" stroke="midnightblue" points="1407.59,-27.5337 1397.17,-25.6305 1404.13,-33.6178 1407.59,-27.5337"/>
</g>
<!-- Node25 -->
<g id="node25" class="node"><title>Node25</title>
<g id="a_node25"><a xlink:href="../../d6/d84/MathConstants_8h.html" target="_top" xlink:title="useful math constants ">
<polygon fill="none" stroke="black" points="1422.5,-6.5 1422.5,-25.5 1601.5,-25.5 1601.5,-6.5 1422.5,-6.5"/>
<text text-anchor="middle" x="1512" y="-13.5" font-family="Helvetica,sans-Serif" font-size="10.00">CommonConstants/MathConstants.h</text>
</a>
</g>
</g>
<!-- Node23&#45;&gt;Node25 -->
<g id="edge31" class="edge"><title>Node23&#45;&gt;Node25</title>
<path fill="none" stroke="midnightblue" d="M1499.83,-74.3717C1501.89,-64.6426 1505.31,-48.528 1508,-35.8504"/>
<polygon fill="midnightblue" stroke="midnightblue" points="1511.47,-36.3498 1510.12,-25.8411 1504.63,-34.8972 1511.47,-36.3498"/>
</g>
<!-- Node26&#45;&gt;Node5 -->
<g id="edge38" class="edge"><title>Node26&#45;&gt;Node5</title>
<path fill="none" stroke="midnightblue" d="M876.965,-149.373C1004.74,-145.472 1303.46,-133.302 1552,-100 1564.01,-98.3906 1576.99,-96.0223 1588.72,-93.6407"/>
<polygon fill="midnightblue" stroke="midnightblue" points="1589.58,-97.0366 1598.65,-91.5631 1588.15,-90.1849 1589.58,-97.0366"/>
</g>
<!-- Node26&#45;&gt;Node9 -->
<g id="edge40" class="edge"><title>Node26&#45;&gt;Node9</title>
<path fill="none" stroke="midnightblue" d="M751.498,-148.135C581.794,-140.17 120.662,-117.211 54,-100 51.5049,-99.3558 48.9671,-98.5192 46.4679,-97.5707"/>
<polygon fill="midnightblue" stroke="midnightblue" points="47.7572,-94.3147 37.1916,-93.5283 44.9607,-100.732 47.7572,-94.3147"/>
</g>
<!-- Node27 -->
<g id="node27" class="node"><title>Node27</title>
<polygon fill="none" stroke="#bfbfbf" points="1013.5,-69 1013.5,-99 1164.5,-99 1164.5,-69 1013.5,-69"/>
<text text-anchor="start" x="1021.5" y="-87" font-family="Helvetica,sans-Serif" font-size="10.00">Math/GenVector/Displacement</text>
<text text-anchor="middle" x="1089" y="-76" font-family="Helvetica,sans-Serif" font-size="10.00">Vector3D.h</text>
</g>
<!-- Node26&#45;&gt;Node27 -->
<g id="edge33" class="edge"><title>Node26&#45;&gt;Node27</title>
<path fill="none" stroke="midnightblue" d="M849.67,-142.439C892.834,-132.08 966.459,-114.41 1020.68,-101.397"/>
<polygon fill="midnightblue" stroke="midnightblue" points="1021.66,-104.762 1030.56,-99.0247 1020.02,-97.9552 1021.66,-104.762"/>
</g>
<!-- Node28 -->
<g id="node28" class="node"><title>Node28</title>
<polygon fill="none" stroke="#bfbfbf" points="63,-74.5 63,-93.5 239,-93.5 239,-74.5 63,-74.5"/>
<text text-anchor="middle" x="151" y="-81.5" font-family="Helvetica,sans-Serif" font-size="10.00">Math/GenVector/PositionVector3D.h</text>
</g>
<!-- Node26&#45;&gt;Node28 -->
<g id="edge34" class="edge"><title>Node26&#45;&gt;Node28</title>
<path fill="none" stroke="midnightblue" d="M751.352,-146.708C646.68,-139.237 429.704,-122.466 247,-100 235.604,-98.5987 223.482,-96.8823 211.826,-95.1173"/>
<polygon fill="midnightblue" stroke="midnightblue" points="212.148,-91.6258 201.732,-93.5604 211.081,-98.544 212.148,-91.6258"/>
</g>
<!-- Node29 -->
<g id="node29" class="node"><title>Node29</title>
<polygon fill="none" stroke="#bfbfbf" points="256.5,-74.5 256.5,-93.5 405.5,-93.5 405.5,-74.5 256.5,-74.5"/>
<text text-anchor="middle" x="331" y="-81.5" font-family="Helvetica,sans-Serif" font-size="10.00">Math/GenVector/Rotation3D.h</text>
</g>
<!-- Node26&#45;&gt;Node29 -->
<g id="edge35" class="edge"><title>Node26&#45;&gt;Node29</title>
<path fill="none" stroke="midnightblue" d="M751.322,-143.962C672.628,-134.903 533.559,-118.151 415,-100 405.653,-98.569 395.746,-96.9192 386.138,-95.2485"/>
<polygon fill="midnightblue" stroke="midnightblue" points="386.726,-91.7983 376.27,-93.5083 385.51,-98.6919 386.726,-91.7983"/>
</g>
<!-- Node30 -->
<g id="node30" class="node"><title>Node30</title>
<polygon fill="none" stroke="#bfbfbf" points="424,-74.5 424,-93.5 580,-93.5 580,-74.5 424,-74.5"/>
<text text-anchor="middle" x="502" y="-81.5" font-family="Helvetica,sans-Serif" font-size="10.00">Math/GenVector/Transform3D.h</text>
</g>
<!-- Node26&#45;&gt;Node30 -->
<g id="edge36" class="edge"><title>Node26&#45;&gt;Node30</title>
<path fill="none" stroke="midnightblue" d="M773.531,-142.439C716.835,-130.446 613.821,-108.654 552.275,-95.6351"/>
<polygon fill="midnightblue" stroke="midnightblue" points="552.905,-92.191 542.397,-93.5455 551.456,-99.0394 552.905,-92.191"/>
</g>
<!-- Node31 -->
<g id="node31" class="node"><title>Node31</title>
<polygon fill="none" stroke="#bfbfbf" points="598,-74.5 598,-93.5 758,-93.5 758,-74.5 598,-74.5"/>
<text text-anchor="middle" x="678" y="-81.5" font-family="Helvetica,sans-Serif" font-size="10.00">Math/GenVector/Translation3D.h</text>
</g>
<!-- Node26&#45;&gt;Node31 -->
<g id="edge37" class="edge"><title>Node26&#45;&gt;Node31</title>
<path fill="none" stroke="midnightblue" d="M796.22,-142.372C773.007,-131.106 732.151,-111.279 705.077,-98.1403"/>
<polygon fill="midnightblue" stroke="midnightblue" points="706.309,-94.8477 695.784,-93.6305 703.252,-101.145 706.309,-94.8477"/>
</g>
<!-- Node32 -->
<g id="node32" class="node"><title>Node32</title>
<polygon fill="none" stroke="#bfbfbf" points="776,-74.5 776,-93.5 852,-93.5 852,-74.5 776,-74.5"/>
<text text-anchor="middle" x="814" y="-81.5" font-family="Helvetica,sans-Serif" font-size="10.00">TGeoMatrix.h</text>
</g>
<!-- Node26&#45;&gt;Node32 -->
<g id="edge39" class="edge"><title>Node26&#45;&gt;Node32</title>
<path fill="none" stroke="midnightblue" d="M814,-142.372C814,-132.643 814,-116.528 814,-103.85"/>
<polygon fill="midnightblue" stroke="midnightblue" points="817.5,-103.841 814,-93.8411 810.5,-103.841 817.5,-103.841"/>
</g>
<!-- Node33 -->
<g id="node33" class="node"><title>Node33</title>
<g id="a_node33"><a xlink:href="../../d2/dd0/Cartesian2D_8h.html" target="_top" xlink:title="MathUtils/Cartesian2D.h">
<polygon fill="none" stroke="black" points="870.5,-74.5 870.5,-93.5 995.5,-93.5 995.5,-74.5 870.5,-74.5"/>
<text text-anchor="middle" x="933" y="-81.5" font-family="Helvetica,sans-Serif" font-size="10.00">MathUtils/Cartesian2D.h</text>
</a>
</g>
</g>
<!-- Node26&#45;&gt;Node33 -->
<g id="edge41" class="edge"><title>Node26&#45;&gt;Node33</title>
<path fill="none" stroke="midnightblue" d="M829.557,-142.372C849.691,-131.205 884.991,-111.627 908.681,-98.4876"/>
<polygon fill="midnightblue" stroke="midnightblue" points="910.392,-101.541 917.439,-93.6305 906.996,-95.4199 910.392,-101.541"/>
</g>
<!-- Node34 -->
<g id="node34" class="node"><title>Node34</title>
<polygon fill="none" stroke="#bfbfbf" points="766.5,-1 766.5,-31 917.5,-31 917.5,-1 766.5,-1"/>
<text text-anchor="start" x="774.5" y="-19" font-family="Helvetica,sans-Serif" font-size="10.00">Math/GenVector/Displacement</text>
<text text-anchor="middle" x="842" y="-8" font-family="Helvetica,sans-Serif" font-size="10.00">Vector2D.h</text>
</g>
<!-- Node33&#45;&gt;Node34 -->
<g id="edge42" class="edge"><title>Node33&#45;&gt;Node34</title>
<path fill="none" stroke="midnightblue" d="M921.103,-74.3717C908.221,-65.0286 887.22,-49.7966 870.093,-37.375"/>
<polygon fill="midnightblue" stroke="midnightblue" points="871.703,-34.2194 861.553,-31.1815 867.593,-39.8859 871.703,-34.2194"/>
</g>
<!-- Node35 -->
<g id="node35" class="node"><title>Node35</title>
<polygon fill="none" stroke="#bfbfbf" points="936,-6.5 936,-25.5 1112,-25.5 1112,-6.5 936,-6.5"/>
<text text-anchor="middle" x="1024" y="-13.5" font-family="Helvetica,sans-Serif" font-size="10.00">Math/GenVector/PositionVector2D.h</text>
</g>
<!-- Node33&#45;&gt;Node35 -->
<g id="edge43" class="edge"><title>Node33&#45;&gt;Node35</title>
<path fill="none" stroke="midnightblue" d="M944.897,-74.3717C959.884,-63.5015 985.862,-44.6602 1003.94,-31.5474"/>
<polygon fill="midnightblue" stroke="midnightblue" points="1006.06,-34.3349 1012.1,-25.6305 1001.95,-28.6684 1006.06,-34.3349"/>
</g>
<!-- Node36&#45;&gt;Node7 -->
<g id="edge47" class="edge"><title>Node36&#45;&gt;Node7</title>
<path fill="none" stroke="midnightblue" d="M1769.52,-464.841C1739.15,-454.715 1698.09,-441.03 1665.79,-430.262"/>
<polygon fill="midnightblue" stroke="midnightblue" points="1666.66,-426.864 1656.07,-427.022 1664.45,-433.505 1666.66,-426.864"/>
</g>
<!-- Node36&#45;&gt;Node18 -->
<g id="edge51" class="edge"><title>Node36&#45;&gt;Node18</title>
<path fill="none" stroke="midnightblue" d="M1781.66,-464.928C1765.66,-456.215 1746.76,-443.688 1734,-428 1667.61,-346.399 1638.28,-219.046 1629.24,-171.62"/>
<polygon fill="midnightblue" stroke="midnightblue" points="1632.65,-170.798 1627.41,-161.59 1625.76,-172.056 1632.65,-170.798"/>
</g>
<!-- Node37 -->
<g id="node37" class="node"><title>Node37</title>
<polygon fill="none" stroke="#bfbfbf" points="1903,-402.5 1903,-421.5 1953,-421.5 1953,-402.5 1903,-402.5"/>
<text text-anchor="middle" x="1928" y="-409.5" font-family="Helvetica,sans-Serif" font-size="10.00">fstream</text>
</g>
<!-- Node36&#45;&gt;Node37 -->
<g id="edge48" class="edge"><title>Node36&#45;&gt;Node37</title>
<path fill="none" stroke="midnightblue" d="M1836.88,-464.841C1856.68,-453.579 1884.21,-437.913 1903.82,-426.757"/>
<polygon fill="midnightblue" stroke="midnightblue" points="1905.78,-429.669 1912.74,-421.682 1902.32,-423.585 1905.78,-429.669"/>
</g>
<!-- Node38 -->
<g id="node38" class="node"><title>Node38</title>
<polygon fill="none" stroke="#bfbfbf" points="1742.5,-402.5 1742.5,-421.5 1783.5,-421.5 1783.5,-402.5 1742.5,-402.5"/>
<text text-anchor="middle" x="1763" y="-409.5" font-family="Helvetica,sans-Serif" font-size="10.00">string</text>
</g>
<!-- Node36&#45;&gt;Node38 -->
<g id="edge49" class="edge"><title>Node36&#45;&gt;Node38</title>
<path fill="none" stroke="midnightblue" d="M1801.37,-464.679C1793.8,-454.49 1783.61,-440.759 1775.63,-430.011"/>
<polygon fill="midnightblue" stroke="midnightblue" points="1778.33,-427.771 1769.55,-421.828 1772.71,-431.944 1778.33,-427.771"/>
</g>
<!-- Node39 -->
<g id="node39" class="node"><title>Node39</title>
<polygon fill="none" stroke="#bfbfbf" points="1801.5,-402.5 1801.5,-421.5 1884.5,-421.5 1884.5,-402.5 1801.5,-402.5"/>
<text text-anchor="middle" x="1843" y="-409.5" font-family="Helvetica,sans-Serif" font-size="10.00">unordered_map</text>
</g>
<!-- Node36&#45;&gt;Node39 -->
<g id="edge50" class="edge"><title>Node36&#45;&gt;Node39</title>
<path fill="none" stroke="midnightblue" d="M1818.73,-464.679C1823.37,-454.796 1829.58,-441.579 1834.55,-430.986"/>
<polygon fill="midnightblue" stroke="midnightblue" points="1837.77,-432.368 1838.85,-421.828 1831.43,-429.392 1837.77,-432.368"/>
</g>
</g>
</svg>
