<?xml version="1.0" encoding="UTF-8" standalone="no"?>
<!DOCTYPE svg PUBLIC "-//W3C//DTD SVG 1.1//EN"
 "http://www.w3.org/Graphics/SVG/1.1/DTD/svg11.dtd">
<!-- Generated by graphviz version 2.36.0 (20140111.2315)
 -->
<!-- Title: /home/travis/build/AliceO2Group/AliceO2/Utilities/Publishers/include/Publishers/DataPublisherDevice.h Pages: 1 -->
<!--zoomable 364 -->
<svg id="main" version="1.1" xmlns="http://www.w3.org/2000/svg" xmlns:xlink="http://www.w3.org/1999/xlink" xml:space="preserve" onload="init(evt)">
<style type="text/css"><![CDATA[
.edge:hover path { stroke: red; }
.edge:hover polygon { stroke: red; fill: red; }
]]></style>
<script type="text/javascript"><![CDATA[
var edges = document.getElementsByTagName('g');
if (edges && edges.length) {
  for (var i=0;i<edges.length;i++) {
    if (edges[i].id.substr(0,4)=='edge') {
      edges[i].setAttribute('class','edge');
    }
  }
}
]]></script>
        <defs>
                <circle id="rim" cx="0" cy="0" r="7"/>
                <circle id="rim2" cx="0" cy="0" r="3.5"/>
                <g id="zoomPlus">
                        <use xlink:href="#rim" fill="#404040">
                                <set attributeName="fill" to="#808080" begin="zoomplus.mouseover" end="zoomplus.mouseout"/>
                        </use>
                        <path d="M-4,0h8M0,-4v8" fill="none" stroke="white" stroke-width="1.5" pointer-events="none"/>
                </g>
                <g id="zoomMin">
                        <use xlink:href="#rim" fill="#404040">
                                <set attributeName="fill" to="#808080" begin="zoomminus.mouseover" end="zoomminus.mouseout"/>
                        </use>
                        <path d="M-4,0h8" fill="none" stroke="white" stroke-width="1.5" pointer-events="none"/>
                </g>
                <g id="dirArrow">
                        <path fill="none" stroke="white" stroke-width="1.5" d="M0,-3.0v7 M-2.5,-0.5L0,-3.0L2.5,-0.5"/>
                </g>
               <g id="resetDef">
                       <use xlink:href="#rim2" fill="#404040">
                               <set attributeName="fill" to="#808080" begin="reset.mouseover" end="reset.mouseout"/>
                       </use>
               </g>
        </defs>

<script type="text/javascript">
var viewWidth = 1768;
var viewHeight = 364;
var sectionId = 'dynsection-0';
</script>
<script xlink:href="../../svgpan.js"/>
<svg id="graph" class="graph">
<g id="viewport">
<title>/home/travis/build/AliceO2Group/AliceO2/Utilities/Publishers/include/Publishers/DataPublisherDevice.h</title>
<!-- Node1 -->
<g id="node1" class="node"><title>Node1</title>
<polygon fill="#bfbfbf" stroke="black" points="288,-292.5 288,-355.5 452,-355.5 452,-292.5 288,-292.5"/>
<text text-anchor="start" x="296" y="-343.5" font-family="Helvetica,sans-Serif" font-size="10.00">/home/travis/build</text>
<text text-anchor="start" x="296" y="-332.5" font-family="Helvetica,sans-Serif" font-size="10.00">/AliceO2Group/AliceO2</text>
<text text-anchor="start" x="296" y="-321.5" font-family="Helvetica,sans-Serif" font-size="10.00">/Utilities/Publishers</text>
<text text-anchor="start" x="296" y="-310.5" font-family="Helvetica,sans-Serif" font-size="10.00">/include/Publishers/DataPublisher</text>
<text text-anchor="middle" x="370" y="-299.5" font-family="Helvetica,sans-Serif" font-size="10.00">Device.h</text>
</g>
<!-- Node2 -->
<g id="node2" class="node"><title>Node2</title>
<g id="a_node2"><a xlink:href="../../dc/dcd/DataHeader_8h.html" target="_top" xlink:title="Headers/DataHeader.h">
<polygon fill="none" stroke="black" points="311.5,-68.5 311.5,-87.5 428.5,-87.5 428.5,-68.5 311.5,-68.5"/>
<text text-anchor="middle" x="370" y="-75.5" font-family="Helvetica,sans-Serif" font-size="10.00">Headers/DataHeader.h</text>
</a>
</g>
</g>
<!-- Node1&#45;&gt;Node2 -->
<g id="edge1" class="edge"><title>Node1&#45;&gt;Node2</title>
<path fill="none" stroke="midnightblue" d="M370,-292.097C370,-240.757 370,-139.41 370,-97.6537"/>
<polygon fill="midnightblue" stroke="midnightblue" points="373.5,-97.5477 370,-87.5477 366.5,-97.5477 373.5,-97.5477"/>
</g>
<!-- Node6 -->
<g id="node6" class="node"><title>Node6</title>
<polygon fill="none" stroke="#bfbfbf" points="572,-6.5 572,-25.5 618,-25.5 618,-6.5 572,-6.5"/>
<text text-anchor="middle" x="595" y="-13.5" font-family="Helvetica,sans-Serif" font-size="10.00">cstring</text>
</g>
<!-- Node1&#45;&gt;Node6 -->
<g id="edge40" class="edge"><title>Node1&#45;&gt;Node6</title>
<path fill="none" stroke="midnightblue" d="M405.135,-292.262C429.281,-267.604 457,-230.66 457,-191 457,-191 457,-191 457,-133 457,-103.518 531.739,-54.6051 571.212,-30.8278"/>
<polygon fill="midnightblue" stroke="midnightblue" points="573.165,-33.7384 579.969,-25.6168 569.585,-27.7229 573.165,-33.7384"/>
</g>
<!-- Node11 -->
<g id="node11" class="node"><title>Node11</title>
<g id="a_node11"><a xlink:href="../../d2/d09/HeartbeatFrame_8h.html" target="_top" xlink:title="Headers/HeartbeatFrame.h">
<polygon fill="none" stroke="black" points="119.5,-124.5 119.5,-143.5 254.5,-143.5 254.5,-124.5 119.5,-124.5"/>
<text text-anchor="middle" x="187" y="-131.5" font-family="Helvetica,sans-Serif" font-size="10.00">Headers/HeartbeatFrame.h</text>
</a>
</g>
</g>
<!-- Node1&#45;&gt;Node11 -->
<g id="edge10" class="edge"><title>Node1&#45;&gt;Node11</title>
<path fill="none" stroke="midnightblue" d="M340.191,-292.376C300.957,-252.07 233.397,-182.665 202.835,-151.267"/>
<polygon fill="midnightblue" stroke="midnightblue" points="205.058,-148.533 195.574,-143.809 200.042,-153.416 205.058,-148.533"/>
</g>
<!-- Node14 -->
<g id="node14" class="node"><title>Node14</title>
<polygon fill="none" stroke="#bfbfbf" points="0,-6.5 0,-25.5 44,-25.5 44,-6.5 0,-6.5"/>
<text text-anchor="middle" x="22" y="-13.5" font-family="Helvetica,sans-Serif" font-size="10.00">vector</text>
</g>
<!-- Node1&#45;&gt;Node14 -->
<g id="edge41" class="edge"><title>Node1&#45;&gt;Node14</title>
<path fill="none" stroke="midnightblue" d="M287.888,-308.135C186.987,-287.48 29,-246.309 29,-191 29,-191 29,-191 29,-133 29,-98.6535 25.9045,-58.6903 23.8305,-35.7692"/>
<polygon fill="midnightblue" stroke="midnightblue" points="27.3065,-35.349 22.8866,-25.7202 20.3372,-36.0037 27.3065,-35.349"/>
</g>
<!-- Node15 -->
<g id="node15" class="node"><title>Node15</title>
<g id="a_node15"><a xlink:href="../../d2/dee/O2Device_8h.html" target="_top" xlink:title="O2Device/O2Device.h">
<polygon fill="none" stroke="black" points="572.5,-236.5 572.5,-255.5 687.5,-255.5 687.5,-236.5 572.5,-236.5"/>
<text text-anchor="middle" x="630" y="-243.5" font-family="Helvetica,sans-Serif" font-size="10.00">O2Device/O2Device.h</text>
</a>
</g>
</g>
<!-- Node1&#45;&gt;Node15 -->
<g id="edge15" class="edge"><title>Node1&#45;&gt;Node15</title>
<path fill="none" stroke="midnightblue" d="M452.266,-298.953C498.638,-285.398 554.42,-269.093 590.968,-258.409"/>
<polygon fill="midnightblue" stroke="midnightblue" points="592.127,-261.717 600.743,-255.552 590.163,-254.998 592.127,-261.717"/>
</g>
<!-- Node3 -->
<g id="node3" class="node"><title>Node3</title>
<polygon fill="none" stroke="#bfbfbf" points="140,-6.5 140,-25.5 186,-25.5 186,-6.5 140,-6.5"/>
<text text-anchor="middle" x="163" y="-13.5" font-family="Helvetica,sans-Serif" font-size="10.00">cstdint</text>
</g>
<!-- Node2&#45;&gt;Node3 -->
<g id="edge2" class="edge"><title>Node2&#45;&gt;Node3</title>
<path fill="none" stroke="midnightblue" d="M327.613,-68.4292C291.753,-60.6288 239.283,-47.9146 195,-32 193.095,-31.3152 191.149,-30.5577 189.204,-29.7576"/>
<polygon fill="midnightblue" stroke="midnightblue" points="190.252,-26.3935 179.691,-25.5419 187.416,-32.7933 190.252,-26.3935"/>
</g>
<!-- Node4 -->
<g id="node4" class="node"><title>Node4</title>
<polygon fill="none" stroke="#bfbfbf" points="204,-6.5 204,-25.5 256,-25.5 256,-6.5 204,-6.5"/>
<text text-anchor="middle" x="230" y="-13.5" font-family="Helvetica,sans-Serif" font-size="10.00">memory</text>
</g>
<!-- Node2&#45;&gt;Node4 -->
<g id="edge3" class="edge"><title>Node2&#45;&gt;Node4</title>
<path fill="none" stroke="midnightblue" d="M349.941,-68.4035C326.238,-58.245 286.594,-41.2547 259.417,-29.6074"/>
<polygon fill="midnightblue" stroke="midnightblue" points="260.592,-26.3028 250.021,-25.5806 257.834,-32.7369 260.592,-26.3028"/>
</g>
<!-- Node5 -->
<g id="node5" class="node"><title>Node5</title>
<polygon fill="none" stroke="#bfbfbf" points="274.5,-6.5 274.5,-25.5 323.5,-25.5 323.5,-6.5 274.5,-6.5"/>
<text text-anchor="middle" x="299" y="-13.5" font-family="Helvetica,sans-Serif" font-size="10.00">cassert</text>
</g>
<!-- Node2&#45;&gt;Node5 -->
<g id="edge4" class="edge"><title>Node2&#45;&gt;Node5</title>
<path fill="none" stroke="midnightblue" d="M359.827,-68.4035C348.65,-58.9579 330.483,-43.6056 316.909,-32.1342"/>
<polygon fill="midnightblue" stroke="midnightblue" points="319.051,-29.3619 309.154,-25.5806 314.533,-34.7085 319.051,-29.3619"/>
</g>
<!-- Node2&#45;&gt;Node6 -->
<g id="edge5" class="edge"><title>Node2&#45;&gt;Node6</title>
<path fill="none" stroke="midnightblue" d="M418.074,-68.457C457.36,-60.8303 514.038,-48.3437 562,-32 564.13,-31.2743 566.308,-30.4588 568.48,-29.5927"/>
<polygon fill="midnightblue" stroke="midnightblue" points="569.983,-32.7561 577.79,-25.5933 567.221,-26.3244 569.983,-32.7561"/>
</g>
<!-- Node7 -->
<g id="node7" class="node"><title>Node7</title>
<polygon fill="none" stroke="#bfbfbf" points="342,-6.5 342,-25.5 398,-25.5 398,-6.5 342,-6.5"/>
<text text-anchor="middle" x="370" y="-13.5" font-family="Helvetica,sans-Serif" font-size="10.00">algorithm</text>
</g>
<!-- Node2&#45;&gt;Node7 -->
<g id="edge6" class="edge"><title>Node2&#45;&gt;Node7</title>
<path fill="none" stroke="midnightblue" d="M370,-68.4035C370,-59.9381 370,-46.7283 370,-35.8199"/>
<polygon fill="midnightblue" stroke="midnightblue" points="373.5,-35.5806 370,-25.5806 366.5,-35.5806 373.5,-35.5806"/>
</g>
<!-- Node8 -->
<g id="node8" class="node"><title>Node8</title>
<polygon fill="none" stroke="#bfbfbf" points="62.5,-6.5 62.5,-25.5 121.5,-25.5 121.5,-6.5 62.5,-6.5"/>
<text text-anchor="middle" x="92" y="-13.5" font-family="Helvetica,sans-Serif" font-size="10.00">stdexcept</text>
</g>
<!-- Node2&#45;&gt;Node8 -->
<g id="edge7" class="edge"><title>Node2&#45;&gt;Node8</title>
<path fill="none" stroke="midnightblue" d="M311.362,-68.9927C262.554,-61.6078 191.519,-49.1825 131,-32 128.025,-31.1555 124.96,-30.1763 121.917,-29.1308"/>
<polygon fill="midnightblue" stroke="midnightblue" points="123.003,-25.8011 112.409,-25.6485 120.595,-32.3741 123.003,-25.8011"/>
</g>
<!-- Node9 -->
<g id="node9" class="node"><title>Node9</title>
<polygon fill="none" stroke="#bfbfbf" points="636.5,-6.5 636.5,-25.5 677.5,-25.5 677.5,-6.5 636.5,-6.5"/>
<text text-anchor="middle" x="657" y="-13.5" font-family="Helvetica,sans-Serif" font-size="10.00">string</text>
</g>
<!-- Node2&#45;&gt;Node9 -->
<g id="edge8" class="edge"><title>Node2&#45;&gt;Node9</title>
<path fill="none" stroke="midnightblue" d="M428.592,-71.6352C481.464,-65.6525 560.859,-53.8081 627,-32 628.908,-31.3709 630.846,-30.639 632.773,-29.8433"/>
<polygon fill="midnightblue" stroke="midnightblue" points="634.504,-32.8984 642.103,-25.5152 631.559,-26.5483 634.504,-32.8984"/>
</g>
<!-- Node10 -->
<g id="node10" class="node"><title>Node10</title>
<g id="a_node10"><a xlink:href="../../d7/df8/Types_8h.html" target="_top" xlink:title="MemoryResources/Types.h">
<polygon fill="none" stroke="black" points="416.5,-6.5 416.5,-25.5 553.5,-25.5 553.5,-6.5 416.5,-6.5"/>
<text text-anchor="middle" x="485" y="-13.5" font-family="Helvetica,sans-Serif" font-size="10.00">MemoryResources/Types.h</text>
</a>
</g>
</g>
<!-- Node2&#45;&gt;Node10 -->
<g id="edge9" class="edge"><title>Node2&#45;&gt;Node10</title>
<path fill="none" stroke="midnightblue" d="M386.477,-68.4035C405.605,-58.4232 437.373,-41.8487 459.652,-30.2253"/>
<polygon fill="midnightblue" stroke="midnightblue" points="461.307,-33.3094 468.554,-25.5806 458.069,-27.1033 461.307,-33.3094"/>
</g>
<!-- Node11&#45;&gt;Node2 -->
<g id="edge11" class="edge"><title>Node11&#45;&gt;Node2</title>
<path fill="none" stroke="midnightblue" d="M215.997,-124.444C247.185,-115.241 296.93,-100.562 331.408,-90.3879"/>
<polygon fill="midnightblue" stroke="midnightblue" points="332.538,-93.7036 341.139,-87.5164 330.557,-86.9898 332.538,-93.7036"/>
</g>
<!-- Node12 -->
<g id="node12" class="node"><title>Node12</title>
<polygon fill="none" stroke="#bfbfbf" points="188.5,-68.5 188.5,-87.5 247.5,-87.5 247.5,-68.5 188.5,-68.5"/>
<text text-anchor="middle" x="218" y="-75.5" font-family="Helvetica,sans-Serif" font-size="10.00">functional</text>
</g>
<!-- Node11&#45;&gt;Node12 -->
<g id="edge12" class="edge"><title>Node11&#45;&gt;Node12</title>
<path fill="none" stroke="midnightblue" d="M192.119,-124.083C196.408,-116.613 202.658,-105.724 207.942,-96.5199"/>
<polygon fill="midnightblue" stroke="midnightblue" points="211.033,-98.1662 212.976,-87.7511 204.962,-94.6811 211.033,-98.1662"/>
</g>
<!-- Node13 -->
<g id="node13" class="node"><title>Node13</title>
<polygon fill="none" stroke="#bfbfbf" points="135.5,-68.5 135.5,-87.5 170.5,-87.5 170.5,-68.5 135.5,-68.5"/>
<text text-anchor="middle" x="153" y="-75.5" font-family="Helvetica,sans-Serif" font-size="10.00">map</text>
</g>
<!-- Node11&#45;&gt;Node13 -->
<g id="edge13" class="edge"><title>Node11&#45;&gt;Node13</title>
<path fill="none" stroke="midnightblue" d="M181.386,-124.083C176.633,-116.534 169.682,-105.495 163.848,-96.2298"/>
<polygon fill="midnightblue" stroke="midnightblue" points="166.8,-94.3486 158.51,-87.7511 160.876,-98.0783 166.8,-94.3486"/>
</g>
<!-- Node11&#45;&gt;Node14 -->
<g id="edge14" class="edge"><title>Node11&#45;&gt;Node14</title>
<path fill="none" stroke="midnightblue" d="M174.867,-124.47C146.857,-104.778 77.4234,-55.9643 42.6022,-31.484"/>
<polygon fill="midnightblue" stroke="midnightblue" points="44.3443,-28.4303 34.1506,-25.5423 40.3183,-34.1568 44.3443,-28.4303"/>
</g>
<!-- Node15&#45;&gt;Node8 -->
<g id="edge39" class="edge"><title>Node15&#45;&gt;Node8</title>
<path fill="none" stroke="midnightblue" d="M590.744,-236.475C559.031,-228.896 513.641,-216.466 476,-200 371.53,-154.301 360.558,-113.496 256,-68 202.987,-44.9329 185.809,-50.3943 131,-32 128.382,-31.1215 125.681,-30.1726 122.978,-29.1937"/>
<polygon fill="midnightblue" stroke="midnightblue" points="123.928,-25.8121 113.335,-25.5893 121.477,-32.369 123.928,-25.8121"/>
</g>
<!-- Node16 -->
<g id="node16" class="node"><title>Node16</title>
<polygon fill="none" stroke="#bfbfbf" points="655,-180.5 655,-199.5 743,-199.5 743,-180.5 655,-180.5"/>
<text text-anchor="middle" x="699" y="-187.5" font-family="Helvetica,sans-Serif" font-size="10.00">FairMQDevice.h</text>
</g>
<!-- Node15&#45;&gt;Node16 -->
<g id="edge16" class="edge"><title>Node15&#45;&gt;Node16</title>
<path fill="none" stroke="midnightblue" d="M641.086,-236.324C651.486,-228.185 667.261,-215.839 679.722,-206.087"/>
<polygon fill="midnightblue" stroke="midnightblue" points="681.994,-208.753 687.712,-199.834 677.68,-203.241 681.994,-208.753"/>
</g>
<!-- Node17 -->
<g id="node17" class="node"><title>Node17</title>
<polygon fill="none" stroke="#bfbfbf" points="761,-180.5 761,-199.5 907,-199.5 907,-180.5 761,-180.5"/>
<text text-anchor="middle" x="834" y="-187.5" font-family="Helvetica,sans-Serif" font-size="10.00">options/FairMQProgOptions.h</text>
</g>
<!-- Node15&#45;&gt;Node17 -->
<g id="edge17" class="edge"><title>Node15&#45;&gt;Node17</title>
<path fill="none" stroke="midnightblue" d="M662.324,-236.444C697.389,-227.162 753.498,-212.309 791.965,-202.127"/>
<polygon fill="midnightblue" stroke="midnightblue" points="793.055,-205.459 801.827,-199.516 791.264,-198.692 793.055,-205.459"/>
</g>
<!-- Node18 -->
<g id="node18" class="node"><title>Node18</title>
<g id="a_node18"><a xlink:href="../../d7/db2/Utilities_8h.html" target="_top" xlink:title="O2Device/Utilities.h">
<polygon fill="none" stroke="black" points="945,-180.5 945,-199.5 1049,-199.5 1049,-180.5 945,-180.5"/>
<text text-anchor="middle" x="997" y="-187.5" font-family="Helvetica,sans-Serif" font-size="10.00">O2Device/Utilities.h</text>
</a>
</g>
</g>
<!-- Node15&#45;&gt;Node18 -->
<g id="edge18" class="edge"><title>Node15&#45;&gt;Node18</title>
<path fill="none" stroke="midnightblue" d="M687.747,-236.503C754.949,-226.615 865.505,-210.348 934.625,-200.178"/>
<polygon fill="midnightblue" stroke="midnightblue" points="935.547,-203.58 944.931,-198.661 934.528,-196.655 935.547,-203.58"/>
</g>
<!-- Node31 -->
<g id="node31" class="node"><title>Node31</title>
<polygon fill="none" stroke="#bfbfbf" points="485.5,-180.5 485.5,-199.5 636.5,-199.5 636.5,-180.5 485.5,-180.5"/>
<text text-anchor="middle" x="561" y="-187.5" font-family="Helvetica,sans-Serif" font-size="10.00">Monitoring/MonitoringFactory.h</text>
</g>
<!-- Node15&#45;&gt;Node31 -->
<g id="edge38" class="edge"><title>Node15&#45;&gt;Node31</title>
<path fill="none" stroke="midnightblue" d="M618.914,-236.324C608.514,-228.185 592.739,-215.839 580.278,-206.087"/>
<polygon fill="midnightblue" stroke="midnightblue" points="582.32,-203.241 572.288,-199.834 578.006,-208.753 582.32,-203.241"/>
</g>
<!-- Node18&#45;&gt;Node2 -->
<g id="edge32" class="edge"><title>Node18&#45;&gt;Node2</title>
<path fill="none" stroke="midnightblue" d="M948.322,-180.46C834.559,-160.502 551.618,-110.863 428.633,-89.2864"/>
<polygon fill="midnightblue" stroke="midnightblue" points="429.101,-85.8153 418.647,-87.5345 427.892,-92.71 429.101,-85.8153"/>
</g>
<!-- Node19 -->
<g id="node19" class="node"><title>Node19</title>
<g id="a_node19"><a xlink:href="../../dc/d03/MemoryResources_8h.html" target="_top" xlink:title="MemoryResources/MemoryResources.h">
<polygon fill="none" stroke="black" points="936.5,-68.5 936.5,-87.5 1129.5,-87.5 1129.5,-68.5 936.5,-68.5"/>
<text text-anchor="middle" x="1033" y="-75.5" font-family="Helvetica,sans-Serif" font-size="10.00">MemoryResources/MemoryResources.h</text>
</a>
</g>
</g>
<!-- Node18&#45;&gt;Node19 -->
<g id="edge19" class="edge"><title>Node18&#45;&gt;Node19</title>
<path fill="none" stroke="midnightblue" d="M1000.46,-180.444C1004.04,-171.443 1009.71,-156.831 1014,-144 1019.19,-128.495 1024.34,-110.655 1027.97,-97.5916"/>
<polygon fill="midnightblue" stroke="midnightblue" points="1031.36,-98.4678 1030.63,-87.8983 1024.61,-96.6172 1031.36,-98.4678"/>
</g>
<!-- Node25 -->
<g id="node25" class="node"><title>Node25</title>
<polygon fill="none" stroke="#bfbfbf" points="1720,-6.5 1720,-25.5 1760,-25.5 1760,-6.5 1720,-6.5"/>
<text text-anchor="middle" x="1740" y="-13.5" font-family="Helvetica,sans-Serif" font-size="10.00">utility</text>
</g>
<!-- Node18&#45;&gt;Node25 -->
<g id="edge36" class="edge"><title>Node18&#45;&gt;Node25</title>
<path fill="none" stroke="midnightblue" d="M1017.26,-180.411C1050.35,-166.687 1118.28,-139.76 1178,-124 1410.01,-62.7751 1482.04,-106.899 1710,-32 1711.91,-31.3729 1713.85,-30.6424 1715.77,-29.8478"/>
<polygon fill="midnightblue" stroke="midnightblue" points="1717.5,-32.9034 1725.11,-25.5218 1714.56,-26.5527 1717.5,-32.9034"/>
</g>
<!-- Node29 -->
<g id="node29" class="node"><title>Node29</title>
<g id="a_node29"><a xlink:href="../../d4/d00/Headers_2include_2Headers_2Stack_8h.html" target="_top" xlink:title="Headers/Stack.h">
<polygon fill="none" stroke="black" points="915,-124.5 915,-143.5 1005,-143.5 1005,-124.5 915,-124.5"/>
<text text-anchor="middle" x="960" y="-131.5" font-family="Helvetica,sans-Serif" font-size="10.00">Headers/Stack.h</text>
</a>
</g>
</g>
<!-- Node18&#45;&gt;Node29 -->
<g id="edge33" class="edge"><title>Node18&#45;&gt;Node29</title>
<path fill="none" stroke="midnightblue" d="M990.89,-180.083C985.718,-172.534 978.154,-161.495 971.806,-152.23"/>
<polygon fill="midnightblue" stroke="midnightblue" points="974.536,-150.022 965.996,-143.751 968.761,-153.979 974.536,-150.022"/>
</g>
<!-- Node30 -->
<g id="node30" class="node"><title>Node30</title>
<polygon fill="none" stroke="#bfbfbf" points="1186.5,-124.5 1186.5,-143.5 1231.5,-143.5 1231.5,-124.5 1186.5,-124.5"/>
<text text-anchor="middle" x="1209" y="-131.5" font-family="Helvetica,sans-Serif" font-size="10.00">gsl/gsl</text>
</g>
<!-- Node18&#45;&gt;Node30 -->
<g id="edge37" class="edge"><title>Node18&#45;&gt;Node30</title>
<path fill="none" stroke="midnightblue" d="M1030.59,-180.444C1070.57,-170.261 1136.87,-153.374 1176.4,-143.303"/>
<polygon fill="midnightblue" stroke="midnightblue" points="1177.49,-146.637 1186.32,-140.777 1175.77,-139.853 1177.49,-146.637"/>
</g>
<!-- Node19&#45;&gt;Node6 -->
<g id="edge24" class="edge"><title>Node19&#45;&gt;Node6</title>
<path fill="none" stroke="midnightblue" d="M936.149,-75.1416C852.812,-71.456 730.081,-61.013 627,-32 624.658,-31.3408 622.273,-30.5258 619.916,-29.6193"/>
<polygon fill="midnightblue" stroke="midnightblue" points="621.121,-26.3265 610.555,-25.5408 618.325,-32.7439 621.121,-26.3265"/>
</g>
<!-- Node19&#45;&gt;Node9 -->
<g id="edge25" class="edge"><title>Node19&#45;&gt;Node9</title>
<path fill="none" stroke="midnightblue" d="M936.464,-73.0755C866.037,-68.1496 768.974,-57.0427 687,-32 685.079,-31.4131 683.13,-30.7119 681.197,-29.9379"/>
<polygon fill="midnightblue" stroke="midnightblue" points="682.402,-26.64 671.853,-25.6536 679.484,-33.003 682.402,-26.64"/>
</g>
<!-- Node19&#45;&gt;Node14 -->
<g id="edge28" class="edge"><title>Node19&#45;&gt;Node14</title>
<path fill="none" stroke="midnightblue" d="M936.43,-74.7747C706.013,-69.1493 136.941,-53.2794 53,-32 50.6528,-31.405 48.2724,-30.6228 45.928,-29.7276"/>
<polygon fill="midnightblue" stroke="midnightblue" points="47.2301,-26.476 36.6714,-25.6011 44.3799,-32.8695 47.2301,-26.476"/>
</g>
<!-- Node20 -->
<g id="node20" class="node"><title>Node20</title>
<polygon fill="none" stroke="#bfbfbf" points="1468,-1 1468,-31 1568,-31 1568,-1 1468,-1"/>
<text text-anchor="start" x="1476" y="-19" font-family="Helvetica,sans-Serif" font-size="10.00">boost/container/flat</text>
<text text-anchor="middle" x="1518" y="-8" font-family="Helvetica,sans-Serif" font-size="10.00">_map.hpp</text>
</g>
<!-- Node19&#45;&gt;Node20 -->
<g id="edge20" class="edge"><title>Node19&#45;&gt;Node20</title>
<path fill="none" stroke="midnightblue" d="M1128.32,-68.4686C1229.01,-59.1913 1382.28,-44.2513 1457.6,-31.8495"/>
<polygon fill="midnightblue" stroke="midnightblue" points="1458.43,-35.2579 1467.69,-30.1173 1457.25,-28.3587 1458.43,-35.2579"/>
</g>
<!-- Node21 -->
<g id="node21" class="node"><title>Node21</title>
<polygon fill="none" stroke="#bfbfbf" points="1586,-1 1586,-31 1702,-31 1702,-1 1586,-1"/>
<text text-anchor="start" x="1594" y="-19" font-family="Helvetica,sans-Serif" font-size="10.00">boost/container/pmr</text>
<text text-anchor="middle" x="1644" y="-8" font-family="Helvetica,sans-Serif" font-size="10.00">/memory_resource.hpp</text>
</g>
<!-- Node19&#45;&gt;Node21 -->
<g id="edge21" class="edge"><title>Node19&#45;&gt;Node21</title>
<path fill="none" stroke="midnightblue" d="M1129.68,-69.086C1270.63,-57.5383 1521.03,-36.9805 1575.79,-31.6207"/>
<polygon fill="midnightblue" stroke="midnightblue" points="1576.43,-35.0711 1585.99,-30.501 1575.67,-28.1129 1576.43,-35.0711"/>
</g>
<!-- Node22 -->
<g id="node22" class="node"><title>Node22</title>
<polygon fill="none" stroke="#bfbfbf" points="696,-1 696,-31 852,-31 852,-1 696,-1"/>
<text text-anchor="start" x="704" y="-19" font-family="Helvetica,sans-Serif" font-size="10.00">boost/container/pmr</text>
<text text-anchor="middle" x="774" y="-8" font-family="Helvetica,sans-Serif" font-size="10.00">/monotonic_buffer_resource.hpp</text>
</g>
<!-- Node19&#45;&gt;Node22 -->
<g id="edge22" class="edge"><title>Node19&#45;&gt;Node22</title>
<path fill="none" stroke="midnightblue" d="M996.167,-68.4672C956.839,-59.3565 893.566,-44.6988 844.585,-33.3517"/>
<polygon fill="midnightblue" stroke="midnightblue" points="845.209,-29.9037 834.677,-31.0565 843.629,-36.7231 845.209,-29.9037"/>
</g>
<!-- Node23 -->
<g id="node23" class="node"><title>Node23</title>
<polygon fill="none" stroke="#bfbfbf" points="870.5,-1 870.5,-31 1003.5,-31 1003.5,-1 870.5,-1"/>
<text text-anchor="start" x="878.5" y="-19" font-family="Helvetica,sans-Serif" font-size="10.00">boost/container/pmr</text>
<text text-anchor="middle" x="937" y="-8" font-family="Helvetica,sans-Serif" font-size="10.00">/polymorphic_allocator.hpp</text>
</g>
<!-- Node19&#45;&gt;Node23 -->
<g id="edge23" class="edge"><title>Node19&#45;&gt;Node23</title>
<path fill="none" stroke="midnightblue" d="M1019.25,-68.4035C1006,-60.1254 985.497,-47.3106 968.276,-36.5474"/>
<polygon fill="midnightblue" stroke="midnightblue" points="969.96,-33.4728 959.625,-31.1408 966.25,-39.4088 969.96,-33.4728"/>
</g>
<!-- Node24 -->
<g id="node24" class="node"><title>Node24</title>
<polygon fill="none" stroke="#bfbfbf" points="1022,-6.5 1022,-25.5 1084,-25.5 1084,-6.5 1022,-6.5"/>
<text text-anchor="middle" x="1053" y="-13.5" font-family="Helvetica,sans-Serif" font-size="10.00">type_traits</text>
</g>
<!-- Node19&#45;&gt;Node24 -->
<g id="edge26" class="edge"><title>Node19&#45;&gt;Node24</title>
<path fill="none" stroke="midnightblue" d="M1035.87,-68.4035C1038.75,-59.7599 1043.28,-46.17 1046.96,-35.1341"/>
<polygon fill="midnightblue" stroke="midnightblue" points="1050.3,-36.1742 1050.14,-25.5806 1043.66,-33.9606 1050.3,-36.1742"/>
</g>
<!-- Node19&#45;&gt;Node25 -->
<g id="edge27" class="edge"><title>Node19&#45;&gt;Node25</title>
<path fill="none" stroke="midnightblue" d="M1129.55,-69.0699C1134.44,-68.7005 1139.28,-68.3418 1144,-68 1269.7,-58.907 1588.32,-64.8366 1710,-32 1712.19,-31.4083 1714.41,-30.6488 1716.6,-29.7863"/>
<polygon fill="midnightblue" stroke="midnightblue" points="1718.2,-32.9064 1725.82,-25.5471 1715.27,-26.5471 1718.2,-32.9064"/>
</g>
<!-- Node26 -->
<g id="node26" class="node"><title>Node26</title>
<polygon fill="none" stroke="#bfbfbf" points="1102.5,-6.5 1102.5,-25.5 1185.5,-25.5 1185.5,-6.5 1102.5,-6.5"/>
<text text-anchor="middle" x="1144" y="-13.5" font-family="Helvetica,sans-Serif" font-size="10.00">unordered_map</text>
</g>
<!-- Node19&#45;&gt;Node26 -->
<g id="edge29" class="edge"><title>Node19&#45;&gt;Node26</title>
<path fill="none" stroke="midnightblue" d="M1048.9,-68.4035C1067.28,-58.4678 1097.76,-41.9966 1119.24,-30.3812"/>
<polygon fill="midnightblue" stroke="midnightblue" points="1120.99,-33.4148 1128.13,-25.5806 1117.66,-27.2568 1120.99,-33.4148"/>
</g>
<!-- Node27 -->
<g id="node27" class="node"><title>Node27</title>
<polygon fill="none" stroke="#bfbfbf" points="1203.5,-6.5 1203.5,-25.5 1300.5,-25.5 1300.5,-6.5 1203.5,-6.5"/>
<text text-anchor="middle" x="1252" y="-13.5" font-family="Helvetica,sans-Serif" font-size="10.00">FairMQMessage.h</text>
</g>
<!-- Node19&#45;&gt;Node27 -->
<g id="edge30" class="edge"><title>Node19&#45;&gt;Node27</title>
<path fill="none" stroke="midnightblue" d="M1064.38,-68.4035C1102.92,-57.844 1168.41,-39.9027 1210.92,-28.2538"/>
<polygon fill="midnightblue" stroke="midnightblue" points="1211.96,-31.5986 1220.68,-25.5806 1210.11,-24.8474 1211.96,-31.5986"/>
</g>
<!-- Node28 -->
<g id="node28" class="node"><title>Node28</title>
<polygon fill="none" stroke="#bfbfbf" points="1318.5,-6.5 1318.5,-25.5 1449.5,-25.5 1449.5,-6.5 1318.5,-6.5"/>
<text text-anchor="middle" x="1384" y="-13.5" font-family="Helvetica,sans-Serif" font-size="10.00">FairMQTransportFactory.h</text>
</g>
<!-- Node19&#45;&gt;Node28 -->
<g id="edge31" class="edge"><title>Node19&#45;&gt;Node28</title>
<path fill="none" stroke="midnightblue" d="M1088.87,-68.4911C1144.7,-59.8478 1232.93,-45.8043 1309,-32 1316.72,-30.5997 1324.86,-29.0471 1332.83,-27.4871"/>
<polygon fill="midnightblue" stroke="midnightblue" points="1333.66,-30.8921 1342.79,-25.5179 1332.3,-24.0252 1333.66,-30.8921"/>
</g>
<!-- Node29&#45;&gt;Node2 -->
<g id="edge35" class="edge"><title>Node29&#45;&gt;Node2</title>
<path fill="none" stroke="midnightblue" d="M914.683,-128.852C811.931,-119.448 560.73,-96.4566 438.731,-85.2907"/>
<polygon fill="midnightblue" stroke="midnightblue" points="439.032,-81.8037 428.755,-84.3776 438.394,-88.7745 439.032,-81.8037"/>
</g>
<!-- Node29&#45;&gt;Node19 -->
<g id="edge34" class="edge"><title>Node29&#45;&gt;Node19</title>
<path fill="none" stroke="midnightblue" d="M971.729,-124.324C982.837,-116.107 999.742,-103.602 1012.98,-93.8069"/>
<polygon fill="midnightblue" stroke="midnightblue" points="1015.1,-96.5948 1021.06,-87.8339 1010.94,-90.9671 1015.1,-96.5948"/>
</g>
</g>
</svg>
        <g id="navigator" transform="translate(0 0)" fill="#404254">
                <rect fill="#f2f5e9" fill-opacity="0.5" stroke="#606060" stroke-width=".5" x="0" y="0" width="60" height="60"/>
                <use id="zoomplus" xlink:href="#zoomPlus" x="17" y="9" onmousedown="handleZoom(evt,'in')"/>
                <use id="zoomminus" xlink:href="#zoomMin" x="42" y="9" onmousedown="handleZoom(evt,'out')"/>
                <use id="reset" xlink:href="#resetDef" x="30" y="36" onmousedown="handleReset()"/>
                <g id="arrowUp" xlink:href="#dirArrow" transform="translate(30 24)" onmousedown="handlePan(0,-1)">
                  <use xlink:href="#rim" fill="#404040">
                        <set attributeName="fill" to="#808080" begin="arrowUp.mouseover" end="arrowUp.mouseout"/>
                  </use>
                  <path fill="none" stroke="white" stroke-width="1.5" d="M0,-3.0v7 M-2.5,-0.5L0,-3.0L2.5,-0.5"/>
                </g>
                <g id="arrowRight" xlink:href="#dirArrow" transform="rotate(90) translate(36 -43)" onmousedown="handlePan(1,0)">
                  <use xlink:href="#rim" fill="#404040">
                        <set attributeName="fill" to="#808080" begin="arrowRight.mouseover" end="arrowRight.mouseout"/>
                  </use>
                  <path fill="none" stroke="white" stroke-width="1.5" d="M0,-3.0v7 M-2.5,-0.5L0,-3.0L2.5,-0.5"/>
                </g>
                <g id="arrowDown" xlink:href="#dirArrow" transform="rotate(180) translate(-30 -48)" onmousedown="handlePan(0,1)">
                  <use xlink:href="#rim" fill="#404040">
                        <set attributeName="fill" to="#808080" begin="arrowDown.mouseover" end="arrowDown.mouseout"/>
                  </use>
                  <path fill="none" stroke="white" stroke-width="1.5" d="M0,-3.0v7 M-2.5,-0.5L0,-3.0L2.5,-0.5"/>
                </g>
                <g id="arrowLeft" xlink:href="#dirArrow" transform="rotate(270) translate(-36 17)" onmousedown="handlePan(-1,0)">
                  <use xlink:href="#rim" fill="#404040">
                        <set attributeName="fill" to="#808080" begin="arrowLeft.mouseover" end="arrowLeft.mouseout"/>
                  </use>
                  <path fill="none" stroke="white" stroke-width="1.5" d="M0,-3.0v7 M-2.5,-0.5L0,-3.0L2.5,-0.5"/>
                </g>
        </g>
        <svg viewBox="0 0 15 15" width="100%" height="30px" preserveAspectRatio="xMaxYMin meet">
         <g id="arrow_out" transform="scale(0.3 0.3)">
          <a xlink:href="DataPublisherDevice_8h__incl_org.svg" target="_base">
           <rect id="button" ry="5" rx="5" y="6" x="6" height="38" width="38"
                fill="#f2f5e9" fill-opacity="0.5" stroke="#606060" stroke-width="1.0"/>
           <path id="arrow"
             d="M 11.500037,31.436501 C 11.940474,20.09759 22.043105,11.32322 32.158766,21.979434 L 37.068811,17.246167 C 37.068811,17.246167 37.088388,32 37.088388,32 L 22.160133,31.978069 C 22.160133,31.978069 26.997745,27.140456 26.997745,27.140456 C 18.528582,18.264221 13.291696,25.230495 11.500037,31.436501 z"
             style="fill:#404040;"/>
          </a>
         </g>
        </svg>
</svg>
