<?xml version="1.0" encoding="UTF-8" standalone="no"?>
<!DOCTYPE svg PUBLIC "-//W3C//DTD SVG 1.1//EN"
 "http://www.w3.org/Graphics/SVG/1.1/DTD/svg11.dtd">
<!-- Generated by graphviz version 2.36.0 (20140111.2315)
 -->
<!-- Title: /home/travis/build/AliceO2Group/AliceO2/Detectors/MUON/MID/Tracking/test/bench_Tracker.cxx Pages: 1 -->
<!--zoomable 390 -->
<svg id="main" version="1.1" xmlns="http://www.w3.org/2000/svg" xmlns:xlink="http://www.w3.org/1999/xlink" xml:space="preserve" onload="init(evt)">
<style type="text/css"><![CDATA[
.edge:hover path { stroke: red; }
.edge:hover polygon { stroke: red; fill: red; }
]]></style>
<script type="text/javascript"><![CDATA[
var edges = document.getElementsByTagName('g');
if (edges && edges.length) {
  for (var i=0;i<edges.length;i++) {
    if (edges[i].id.substr(0,4)=='edge') {
      edges[i].setAttribute('class','edge');
    }
  }
}
]]></script>
        <defs>
                <circle id="rim" cx="0" cy="0" r="7"/>
                <circle id="rim2" cx="0" cy="0" r="3.5"/>
                <g id="zoomPlus">
                        <use xlink:href="#rim" fill="#404040">
                                <set attributeName="fill" to="#808080" begin="zoomplus.mouseover" end="zoomplus.mouseout"/>
                        </use>
                        <path d="M-4,0h8M0,-4v8" fill="none" stroke="white" stroke-width="1.5" pointer-events="none"/>
                </g>
                <g id="zoomMin">
                        <use xlink:href="#rim" fill="#404040">
                                <set attributeName="fill" to="#808080" begin="zoomminus.mouseover" end="zoomminus.mouseout"/>
                        </use>
                        <path d="M-4,0h8" fill="none" stroke="white" stroke-width="1.5" pointer-events="none"/>
                </g>
                <g id="dirArrow">
                        <path fill="none" stroke="white" stroke-width="1.5" d="M0,-3.0v7 M-2.5,-0.5L0,-3.0L2.5,-0.5"/>
                </g>
               <g id="resetDef">
                       <use xlink:href="#rim2" fill="#404040">
                               <set attributeName="fill" to="#808080" begin="reset.mouseover" end="reset.mouseout"/>
                       </use>
               </g>
        </defs>

<script type="text/javascript">
var viewWidth = 1474;
var viewHeight = 390;
var sectionId = 'dynsection-0';
</script>
<script xlink:href="../../svgpan.js"/>
<svg id="graph" class="graph">
<g id="viewport">
<title>/home/travis/build/AliceO2Group/AliceO2/Detectors/MUON/MID/Tracking/test/bench_Tracker.cxx</title>
<!-- Node1 -->
<g id="node1" class="node"><title>Node1</title>
<polygon fill="#bfbfbf" stroke="black" points="348,-329 348,-381 506,-381 506,-329 348,-329"/>
<text text-anchor="start" x="356" y="-369" font-family="Helvetica,sans-Serif" font-size="10.00">/home/travis/build</text>
<text text-anchor="start" x="356" y="-358" font-family="Helvetica,sans-Serif" font-size="10.00">/AliceO2Group/AliceO2</text>
<text text-anchor="start" x="356" y="-347" font-family="Helvetica,sans-Serif" font-size="10.00">/Detectors/MUON/MID/Tracking</text>
<text text-anchor="middle" x="427" y="-336" font-family="Helvetica,sans-Serif" font-size="10.00">/test/bench_Tracker.cxx</text>
</g>
<!-- Node2 -->
<g id="node2" class="node"><title>Node2</title>
<polygon fill="none" stroke="#bfbfbf" points="0,-266.5 0,-285.5 124,-285.5 124,-266.5 0,-266.5"/>
<text text-anchor="middle" x="62" y="-273.5" font-family="Helvetica,sans-Serif" font-size="10.00">benchmark/benchmark.h</text>
</g>
<!-- Node1&#45;&gt;Node2 -->
<g id="edge1" class="edge"><title>Node1&#45;&gt;Node2</title>
<path fill="none" stroke="midnightblue" d="M347.762,-337.298C288.588,-324.823 205.732,-307.352 133,-292 126.374,-290.601 119.401,-289.129 112.518,-287.675"/>
<polygon fill="midnightblue" stroke="midnightblue" points="113.057,-284.212 102.549,-285.569 111.61,-291.061 113.057,-284.212"/>
</g>
<!-- Node3 -->
<g id="node3" class="node"><title>Node3</title>
<polygon fill="none" stroke="#bfbfbf" points="142,-266.5 142,-285.5 196,-285.5 196,-266.5 142,-266.5"/>
<text text-anchor="middle" x="169" y="-273.5" font-family="Helvetica,sans-Serif" font-size="10.00">iostream</text>
</g>
<!-- Node1&#45;&gt;Node3 -->
<g id="edge2" class="edge"><title>Node1&#45;&gt;Node3</title>
<path fill="none" stroke="midnightblue" d="M347.985,-332.906C306.66,-321.501 255.363,-306.757 210,-292 207.067,-291.046 204.031,-290.016 200.999,-288.959"/>
<polygon fill="midnightblue" stroke="midnightblue" points="202.049,-285.618 191.455,-285.548 199.693,-292.209 202.049,-285.618"/>
</g>
<!-- Node4 -->
<g id="node4" class="node"><title>Node4</title>
<polygon fill="none" stroke="#bfbfbf" points="329.5,-204.5 329.5,-223.5 378.5,-223.5 378.5,-204.5 329.5,-204.5"/>
<text text-anchor="middle" x="354" y="-211.5" font-family="Helvetica,sans-Serif" font-size="10.00">random</text>
</g>
<!-- Node1&#45;&gt;Node4 -->
<g id="edge3" class="edge"><title>Node1&#45;&gt;Node4</title>
<path fill="none" stroke="midnightblue" d="M413.78,-328.828C399.184,-301.035 376.063,-257.011 363.274,-232.659"/>
<polygon fill="midnightblue" stroke="midnightblue" points="366.229,-230.758 358.481,-223.532 360.032,-234.013 366.229,-230.758"/>
</g>
<!-- Node5 -->
<g id="node5" class="node"><title>Node5</title>
<g id="a_node5"><a xlink:href="../../d6/d31/Cluster2D_8h.html" target="_top" xlink:title="Reconstructed cluster per RPC. ">
<polygon fill="none" stroke="black" points="1161,-204.5 1161,-223.5 1309,-223.5 1309,-204.5 1161,-204.5"/>
<text text-anchor="middle" x="1235" y="-211.5" font-family="Helvetica,sans-Serif" font-size="10.00">DataFormatsMID/Cluster2D.h</text>
</a>
</g>
</g>
<!-- Node1&#45;&gt;Node5 -->
<g id="edge4" class="edge"><title>Node1&#45;&gt;Node5</title>
<path fill="none" stroke="midnightblue" d="M506.262,-347.174C605.246,-337.961 779.525,-319.472 927,-292 1024.89,-273.765 1138,-242.921 1196.1,-226.345"/>
<polygon fill="midnightblue" stroke="midnightblue" points="1197.31,-229.64 1205.96,-223.52 1195.38,-222.911 1197.31,-229.64"/>
</g>
<!-- Node8 -->
<g id="node8" class="node"><title>Node8</title>
<g id="a_node8"><a xlink:href="../../d4/d54/DataFormats_2Detectors_2MUON_2MID_2include_2DataFormatsMID_2Track_8h.html" target="_top" xlink:title="Reconstructed MID track. ">
<polygon fill="none" stroke="black" points="629,-204.5 629,-223.5 757,-223.5 757,-204.5 629,-204.5"/>
<text text-anchor="middle" x="693" y="-211.5" font-family="Helvetica,sans-Serif" font-size="10.00">DataFormatsMID/Track.h</text>
</a>
</g>
</g>
<!-- Node1&#45;&gt;Node8 -->
<g id="edge7" class="edge"><title>Node1&#45;&gt;Node8</title>
<path fill="none" stroke="midnightblue" d="M474.863,-328.989C531.439,-299.425 623.475,-251.331 667.701,-228.22"/>
<polygon fill="midnightblue" stroke="midnightblue" points="669.389,-231.287 676.631,-223.554 666.147,-225.083 669.389,-231.287"/>
</g>
<!-- Node25 -->
<g id="node25" class="node"><title>Node25</title>
<g id="a_node25"><a xlink:href="../../d4/d73/MID_2Base_2include_2MIDBase_2Mapping_8h.html" target="_top" xlink:title="Mapping for MID. ">
<polygon fill="none" stroke="black" points="252,-266.5 252,-285.5 358,-285.5 358,-266.5 252,-266.5"/>
<text text-anchor="middle" x="305" y="-273.5" font-family="Helvetica,sans-Serif" font-size="10.00">MIDBase/Mapping.h</text>
</a>
</g>
</g>
<!-- Node1&#45;&gt;Node25 -->
<g id="edge24" class="edge"><title>Node1&#45;&gt;Node25</title>
<path fill="none" stroke="midnightblue" d="M387.053,-328.787C367.117,-316.205 343.762,-301.464 327.078,-290.934"/>
<polygon fill="midnightblue" stroke="midnightblue" points="328.884,-287.935 318.559,-285.558 325.147,-293.855 328.884,-287.935"/>
</g>
<!-- Node27 -->
<g id="node27" class="node"><title>Node27</title>
<g id="a_node27"><a xlink:href="../../d7/d0a/MpArea_8h.html" target="_top" xlink:title="Mapping area for MID. ">
<polygon fill="none" stroke="black" points="169.5,-204.5 169.5,-223.5 272.5,-223.5 272.5,-204.5 169.5,-204.5"/>
<text text-anchor="middle" x="221" y="-211.5" font-family="Helvetica,sans-Serif" font-size="10.00">MIDBase/MpArea.h</text>
</a>
</g>
</g>
<!-- Node1&#45;&gt;Node27 -->
<g id="edge29" class="edge"><title>Node1&#45;&gt;Node27</title>
<path fill="none" stroke="midnightblue" d="M347.717,-344.355C311.351,-336.066 270.346,-320.654 243,-292 227.961,-276.241 223.09,-250.93 221.574,-233.661"/>
<polygon fill="midnightblue" stroke="midnightblue" points="225.067,-233.435 220.989,-223.656 218.079,-233.843 225.067,-233.435"/>
</g>
<!-- Node28 -->
<g id="node28" class="node"><title>Node28</title>
<g id="a_node28"><a xlink:href="../../d7/d40/HitFinder_8h.html" target="_top" xlink:title="Hit finder for MID. ">
<polygon fill="none" stroke="black" points="638.5,-266.5 638.5,-285.5 747.5,-285.5 747.5,-266.5 638.5,-266.5"/>
<text text-anchor="middle" x="693" y="-273.5" font-family="Helvetica,sans-Serif" font-size="10.00">MIDBase/HitFinder.h</text>
</a>
</g>
</g>
<!-- Node1&#45;&gt;Node28 -->
<g id="edge30" class="edge"><title>Node1&#45;&gt;Node28</title>
<path fill="none" stroke="midnightblue" d="M506.089,-331.106C554.73,-317.026 614.951,-299.593 653.667,-288.386"/>
<polygon fill="midnightblue" stroke="midnightblue" points="654.875,-291.68 663.507,-285.537 652.928,-284.956 654.875,-291.68"/>
</g>
<!-- Node31 -->
<g id="node31" class="node"><title>Node31</title>
<g id="a_node31"><a xlink:href="../../d3/d93/TrackGenerator_8h.html" target="_top" xlink:title="Fast track generator for MID. ">
<polygon fill="none" stroke="black" points="414.5,-261 414.5,-291 523.5,-291 523.5,-261 414.5,-261"/>
<text text-anchor="start" x="422.5" y="-279" font-family="Helvetica,sans-Serif" font-size="10.00">MIDTestingSimTools</text>
<text text-anchor="middle" x="469" y="-268" font-family="Helvetica,sans-Serif" font-size="10.00">/TrackGenerator.h</text>
</a>
</g>
</g>
<!-- Node1&#45;&gt;Node31 -->
<g id="edge38" class="edge"><title>Node1&#45;&gt;Node31</title>
<path fill="none" stroke="midnightblue" d="M440.752,-328.787C445.795,-319.542 451.473,-309.132 456.409,-300.083"/>
<polygon fill="midnightblue" stroke="midnightblue" points="459.51,-301.707 461.226,-291.252 453.365,-298.355 459.51,-301.707"/>
</g>
<!-- Node32 -->
<g id="node32" class="node"><title>Node32</title>
<g id="a_node32"><a xlink:href="../../db/d8e/MUON_2MID_2Tracking_2include_2MIDTracking_2Tracker_8h.html" target="_top" xlink:title="MIDTracking/Tracker.h">
<polygon fill="none" stroke="black" points="801.5,-266.5 801.5,-285.5 918.5,-285.5 918.5,-266.5 801.5,-266.5"/>
<text text-anchor="middle" x="860" y="-273.5" font-family="Helvetica,sans-Serif" font-size="10.00">MIDTracking/Tracker.h</text>
</a>
</g>
</g>
<!-- Node1&#45;&gt;Node32 -->
<g id="edge43" class="edge"><title>Node1&#45;&gt;Node32</title>
<path fill="none" stroke="midnightblue" d="M506.167,-339.922C591.764,-324.7 726.14,-300.804 802.29,-287.262"/>
<polygon fill="midnightblue" stroke="midnightblue" points="802.953,-290.7 812.185,-285.503 801.727,-283.808 802.953,-290.7"/>
</g>
<!-- Node6 -->
<g id="node6" class="node"><title>Node6</title>
<polygon fill="none" stroke="#bfbfbf" points="1187.5,-137 1187.5,-167 1282.5,-167 1282.5,-137 1187.5,-137"/>
<text text-anchor="start" x="1195.5" y="-155" font-family="Helvetica,sans-Serif" font-size="10.00">boost/serialization</text>
<text text-anchor="middle" x="1235" y="-144" font-family="Helvetica,sans-Serif" font-size="10.00">/access.hpp</text>
</g>
<!-- Node5&#45;&gt;Node6 -->
<g id="edge5" class="edge"><title>Node5&#45;&gt;Node6</title>
<path fill="none" stroke="midnightblue" d="M1235,-204.403C1235,-197.341 1235,-186.975 1235,-177.399"/>
<polygon fill="midnightblue" stroke="midnightblue" points="1238.5,-177.141 1235,-167.141 1231.5,-177.141 1238.5,-177.141"/>
</g>
<!-- Node7 -->
<g id="node7" class="node"><title>Node7</title>
<polygon fill="none" stroke="#bfbfbf" points="1084,-142.5 1084,-161.5 1130,-161.5 1130,-142.5 1084,-142.5"/>
<text text-anchor="middle" x="1107" y="-149.5" font-family="Helvetica,sans-Serif" font-size="10.00">cstdint</text>
</g>
<!-- Node5&#45;&gt;Node7 -->
<g id="edge6" class="edge"><title>Node5&#45;&gt;Node7</title>
<path fill="none" stroke="midnightblue" d="M1216.66,-204.403C1195.18,-194.334 1159.38,-177.552 1134.55,-165.915"/>
<polygon fill="midnightblue" stroke="midnightblue" points="1135.85,-162.656 1125.31,-161.581 1132.87,-168.994 1135.85,-162.656"/>
</g>
<!-- Node9 -->
<g id="node9" class="node"><title>Node9</title>
<polygon fill="none" stroke="#bfbfbf" points="464,-142.5 464,-161.5 502,-161.5 502,-142.5 464,-142.5"/>
<text text-anchor="middle" x="483" y="-149.5" font-family="Helvetica,sans-Serif" font-size="10.00">array</text>
</g>
<!-- Node8&#45;&gt;Node9 -->
<g id="edge8" class="edge"><title>Node8&#45;&gt;Node9</title>
<path fill="none" stroke="midnightblue" d="M657.688,-204.43C623.527,-195.931 570.399,-182.162 525,-168 520.641,-166.64 516.062,-165.111 511.595,-163.563"/>
<polygon fill="midnightblue" stroke="midnightblue" points="512.72,-160.248 502.126,-160.201 510.378,-166.845 512.72,-160.248"/>
</g>
<!-- Node10 -->
<g id="node10" class="node"><title>Node10</title>
<polygon fill="none" stroke="#bfbfbf" points="534,-142.5 534,-161.5 586,-161.5 586,-142.5 534,-142.5"/>
<text text-anchor="middle" x="560" y="-149.5" font-family="Helvetica,sans-Serif" font-size="10.00">ostream</text>
</g>
<!-- Node8&#45;&gt;Node10 -->
<g id="edge9" class="edge"><title>Node8&#45;&gt;Node10</title>
<path fill="none" stroke="midnightblue" d="M673.944,-204.403C651.525,-194.29 614.095,-177.404 588.287,-165.761"/>
<polygon fill="midnightblue" stroke="midnightblue" points="589.575,-162.502 579.02,-161.581 586.696,-168.883 589.575,-162.502"/>
</g>
<!-- Node11 -->
<g id="node11" class="node"><title>Node11</title>
<polygon fill="none" stroke="#bfbfbf" points="604.5,-137 604.5,-167 701.5,-167 701.5,-137 604.5,-137"/>
<text text-anchor="start" x="612.5" y="-155" font-family="Helvetica,sans-Serif" font-size="10.00">boost/serialization</text>
<text text-anchor="middle" x="653" y="-144" font-family="Helvetica,sans-Serif" font-size="10.00">/split_member.hpp</text>
</g>
<!-- Node8&#45;&gt;Node11 -->
<g id="edge10" class="edge"><title>Node8&#45;&gt;Node11</title>
<path fill="none" stroke="midnightblue" d="M687.269,-204.403C682.257,-196.885 674.749,-185.624 668.038,-175.556"/>
<polygon fill="midnightblue" stroke="midnightblue" points="670.886,-173.52 662.427,-167.141 665.062,-177.403 670.886,-173.52"/>
</g>
<!-- Node12 -->
<g id="node12" class="node"><title>Node12</title>
<polygon fill="none" stroke="#bfbfbf" points="719.5,-137 719.5,-167 814.5,-167 814.5,-137 719.5,-137"/>
<text text-anchor="start" x="727.5" y="-155" font-family="Helvetica,sans-Serif" font-size="10.00">boost/serialization</text>
<text text-anchor="middle" x="767" y="-144" font-family="Helvetica,sans-Serif" font-size="10.00">/array.hpp</text>
</g>
<!-- Node8&#45;&gt;Node12 -->
<g id="edge11" class="edge"><title>Node8&#45;&gt;Node12</title>
<path fill="none" stroke="midnightblue" d="M703.602,-204.403C713.531,-196.353 728.751,-184.013 741.79,-173.441"/>
<polygon fill="midnightblue" stroke="midnightblue" points="743.996,-176.158 749.56,-167.141 739.588,-170.72 743.996,-176.158"/>
</g>
<!-- Node13 -->
<g id="node13" class="node"><title>Node13</title>
<g id="a_node13"><a xlink:href="../../dd/d76/Cartesian3D_8h.html" target="_top" xlink:title="MathUtils/Cartesian3D.h">
<polygon fill="none" stroke="black" points="832.5,-142.5 832.5,-161.5 957.5,-161.5 957.5,-142.5 832.5,-142.5"/>
<text text-anchor="middle" x="895" y="-149.5" font-family="Helvetica,sans-Serif" font-size="10.00">MathUtils/Cartesian3D.h</text>
</a>
</g>
</g>
<!-- Node8&#45;&gt;Node13 -->
<g id="edge12" class="edge"><title>Node8&#45;&gt;Node13</title>
<path fill="none" stroke="midnightblue" d="M721.942,-204.403C757.267,-193.911 817.131,-176.129 856.365,-164.476"/>
<polygon fill="midnightblue" stroke="midnightblue" points="857.523,-167.783 866.112,-161.581 855.529,-161.073 857.523,-167.783"/>
</g>
<!-- Node14 -->
<g id="node14" class="node"><title>Node14</title>
<polygon fill="none" stroke="#bfbfbf" points="110.5,-69 110.5,-99 261.5,-99 261.5,-69 110.5,-69"/>
<text text-anchor="start" x="118.5" y="-87" font-family="Helvetica,sans-Serif" font-size="10.00">Math/GenVector/Displacement</text>
<text text-anchor="middle" x="186" y="-76" font-family="Helvetica,sans-Serif" font-size="10.00">Vector3D.h</text>
</g>
<!-- Node13&#45;&gt;Node14 -->
<g id="edge13" class="edge"><title>Node13&#45;&gt;Node14</title>
<path fill="none" stroke="midnightblue" d="M858.913,-142.448C847.486,-140.019 834.766,-137.601 823,-136 582.722,-103.3 516.881,-128.692 272.217,-100.048"/>
<polygon fill="midnightblue" stroke="midnightblue" points="272.282,-96.5314 261.939,-98.8257 271.455,-103.482 272.282,-96.5314"/>
</g>
<!-- Node15 -->
<g id="node15" class="node"><title>Node15</title>
<polygon fill="none" stroke="#bfbfbf" points="280,-74.5 280,-93.5 456,-93.5 456,-74.5 280,-74.5"/>
<text text-anchor="middle" x="368" y="-81.5" font-family="Helvetica,sans-Serif" font-size="10.00">Math/GenVector/PositionVector3D.h</text>
</g>
<!-- Node13&#45;&gt;Node15 -->
<g id="edge14" class="edge"><title>Node13&#45;&gt;Node15</title>
<path fill="none" stroke="midnightblue" d="M857.766,-142.465C846.628,-140.122 834.358,-137.749 823,-136 664.95,-111.659 623.629,-120.226 465,-100 453.626,-98.5497 441.529,-96.8255 429.876,-95.0715"/>
<polygon fill="midnightblue" stroke="midnightblue" points="430.193,-91.5794 419.779,-93.5287 429.135,-98.4991 430.193,-91.5794"/>
</g>
<!-- Node16 -->
<g id="node16" class="node"><title>Node16</title>
<polygon fill="none" stroke="#bfbfbf" points="473.5,-74.5 473.5,-93.5 622.5,-93.5 622.5,-74.5 473.5,-74.5"/>
<text text-anchor="middle" x="548" y="-81.5" font-family="Helvetica,sans-Serif" font-size="10.00">Math/GenVector/Rotation3D.h</text>
</g>
<!-- Node13&#45;&gt;Node16 -->
<g id="edge15" class="edge"><title>Node13&#45;&gt;Node16</title>
<path fill="none" stroke="midnightblue" d="M854.667,-142.434C844.352,-140.288 833.273,-138.022 823,-136 748.099,-121.254 661.48,-105.385 605.784,-95.3343"/>
<polygon fill="midnightblue" stroke="midnightblue" points="606.216,-91.8559 595.754,-93.5268 604.974,-98.7449 606.216,-91.8559"/>
</g>
<!-- Node17 -->
<g id="node17" class="node"><title>Node17</title>
<polygon fill="none" stroke="#bfbfbf" points="641,-74.5 641,-93.5 797,-93.5 797,-74.5 641,-74.5"/>
<text text-anchor="middle" x="719" y="-81.5" font-family="Helvetica,sans-Serif" font-size="10.00">Math/GenVector/Transform3D.h</text>
</g>
<!-- Node13&#45;&gt;Node17 -->
<g id="edge16" class="edge"><title>Node13&#45;&gt;Node17</title>
<path fill="none" stroke="midnightblue" d="M871.991,-142.372C841.206,-130.827 786.447,-110.293 751.472,-97.1772"/>
<polygon fill="midnightblue" stroke="midnightblue" points="752.328,-93.76 741.736,-93.5259 749.87,-100.314 752.328,-93.76"/>
</g>
<!-- Node18 -->
<g id="node18" class="node"><title>Node18</title>
<polygon fill="none" stroke="#bfbfbf" points="815,-74.5 815,-93.5 975,-93.5 975,-74.5 815,-74.5"/>
<text text-anchor="middle" x="895" y="-81.5" font-family="Helvetica,sans-Serif" font-size="10.00">Math/GenVector/Translation3D.h</text>
</g>
<!-- Node13&#45;&gt;Node18 -->
<g id="edge17" class="edge"><title>Node13&#45;&gt;Node18</title>
<path fill="none" stroke="midnightblue" d="M895,-142.372C895,-132.643 895,-116.528 895,-103.85"/>
<polygon fill="midnightblue" stroke="midnightblue" points="898.5,-103.841 895,-93.8411 891.5,-103.841 898.5,-103.841"/>
</g>
<!-- Node19 -->
<g id="node19" class="node"><title>Node19</title>
<polygon fill="none" stroke="#bfbfbf" points="993,-74.5 993,-93.5 1049,-93.5 1049,-74.5 993,-74.5"/>
<text text-anchor="middle" x="1021" y="-81.5" font-family="Helvetica,sans-Serif" font-size="10.00">Rtypes.h</text>
</g>
<!-- Node13&#45;&gt;Node19 -->
<g id="edge18" class="edge"><title>Node13&#45;&gt;Node19</title>
<path fill="none" stroke="midnightblue" d="M911.472,-142.372C932.885,-131.156 970.499,-111.453 995.583,-98.3136"/>
<polygon fill="midnightblue" stroke="midnightblue" points="997.289,-101.371 1004.52,-93.6305 994.041,-95.1702 997.289,-101.371"/>
</g>
<!-- Node20 -->
<g id="node20" class="node"><title>Node20</title>
<polygon fill="none" stroke="#bfbfbf" points="1067,-74.5 1067,-93.5 1143,-93.5 1143,-74.5 1067,-74.5"/>
<text text-anchor="middle" x="1105" y="-81.5" font-family="Helvetica,sans-Serif" font-size="10.00">TGeoMatrix.h</text>
</g>
<!-- Node13&#45;&gt;Node20 -->
<g id="edge19" class="edge"><title>Node13&#45;&gt;Node20</title>
<path fill="none" stroke="midnightblue" d="M922.454,-142.372C959.737,-130.654 1026.49,-109.674 1068.12,-96.5912"/>
<polygon fill="midnightblue" stroke="midnightblue" points="1069.38,-99.8632 1077.87,-93.5259 1067.28,-93.1852 1069.38,-99.8632"/>
</g>
<!-- Node21 -->
<g id="node21" class="node"><title>Node21</title>
<polygon fill="none" stroke="#bfbfbf" points="1161.5,-74.5 1161.5,-93.5 1206.5,-93.5 1206.5,-74.5 1161.5,-74.5"/>
<text text-anchor="middle" x="1184" y="-81.5" font-family="Helvetica,sans-Serif" font-size="10.00">iosfwd</text>
</g>
<!-- Node13&#45;&gt;Node21 -->
<g id="edge20" class="edge"><title>Node13&#45;&gt;Node21</title>
<path fill="none" stroke="midnightblue" d="M957.616,-142.914C1010.34,-135.083 1087.28,-121.241 1152,-100 1154.13,-99.3005 1156.31,-98.4948 1158.47,-97.6275"/>
<polygon fill="midnightblue" stroke="midnightblue" points="1159.96,-100.798 1167.7,-93.5696 1157.14,-94.3892 1159.96,-100.798"/>
</g>
<!-- Node22 -->
<g id="node22" class="node"><title>Node22</title>
<g id="a_node22"><a xlink:href="../../d2/dd0/Cartesian2D_8h.html" target="_top" xlink:title="MathUtils/Cartesian2D.h">
<polygon fill="none" stroke="black" points="1224.5,-74.5 1224.5,-93.5 1349.5,-93.5 1349.5,-74.5 1224.5,-74.5"/>
<text text-anchor="middle" x="1287" y="-81.5" font-family="Helvetica,sans-Serif" font-size="10.00">MathUtils/Cartesian2D.h</text>
</a>
</g>
</g>
<!-- Node13&#45;&gt;Node22 -->
<g id="edge21" class="edge"><title>Node13&#45;&gt;Node22</title>
<path fill="none" stroke="midnightblue" d="M953.828,-142.478C1018.13,-132.964 1124.12,-116.699 1215,-100 1222.42,-98.6362 1230.25,-97.1026 1237.91,-95.5504"/>
<polygon fill="midnightblue" stroke="midnightblue" points="1238.74,-98.9537 1247.83,-93.5117 1237.33,-92.097 1238.74,-98.9537"/>
</g>
<!-- Node23 -->
<g id="node23" class="node"><title>Node23</title>
<polygon fill="none" stroke="#bfbfbf" points="1120.5,-1 1120.5,-31 1271.5,-31 1271.5,-1 1120.5,-1"/>
<text text-anchor="start" x="1128.5" y="-19" font-family="Helvetica,sans-Serif" font-size="10.00">Math/GenVector/Displacement</text>
<text text-anchor="middle" x="1196" y="-8" font-family="Helvetica,sans-Serif" font-size="10.00">Vector2D.h</text>
</g>
<!-- Node22&#45;&gt;Node23 -->
<g id="edge22" class="edge"><title>Node22&#45;&gt;Node23</title>
<path fill="none" stroke="midnightblue" d="M1275.1,-74.3717C1262.22,-65.0286 1241.22,-49.7966 1224.09,-37.375"/>
<polygon fill="midnightblue" stroke="midnightblue" points="1225.7,-34.2194 1215.55,-31.1815 1221.59,-39.8859 1225.7,-34.2194"/>
</g>
<!-- Node24 -->
<g id="node24" class="node"><title>Node24</title>
<polygon fill="none" stroke="#bfbfbf" points="1290,-6.5 1290,-25.5 1466,-25.5 1466,-6.5 1290,-6.5"/>
<text text-anchor="middle" x="1378" y="-13.5" font-family="Helvetica,sans-Serif" font-size="10.00">Math/GenVector/PositionVector2D.h</text>
</g>
<!-- Node22&#45;&gt;Node24 -->
<g id="edge23" class="edge"><title>Node22&#45;&gt;Node24</title>
<path fill="none" stroke="midnightblue" d="M1298.9,-74.3717C1313.88,-63.5015 1339.86,-44.6602 1357.94,-31.5474"/>
<polygon fill="midnightblue" stroke="midnightblue" points="1360.06,-34.3349 1366.1,-25.6305 1355.95,-28.6684 1360.06,-34.3349"/>
</g>
<!-- Node25&#45;&gt;Node9 -->
<g id="edge25" class="edge"><title>Node25&#45;&gt;Node9</title>
<path fill="none" stroke="midnightblue" d="M304.24,-266.342C303.446,-251.601 304.066,-221.524 320,-204 354.585,-165.961 417.093,-156.054 453.835,-153.621"/>
<polygon fill="midnightblue" stroke="midnightblue" points="454.106,-157.112 463.911,-153.1 453.744,-150.122 454.106,-157.112"/>
</g>
<!-- Node26 -->
<g id="node26" class="node"><title>Node26</title>
<polygon fill="none" stroke="#bfbfbf" points="397,-204.5 397,-223.5 441,-223.5 441,-204.5 397,-204.5"/>
<text text-anchor="middle" x="419" y="-211.5" font-family="Helvetica,sans-Serif" font-size="10.00">vector</text>
</g>
<!-- Node25&#45;&gt;Node26 -->
<g id="edge26" class="edge"><title>Node25&#45;&gt;Node26</title>
<path fill="none" stroke="midnightblue" d="M321.333,-266.403C340.211,-256.468 371.507,-239.997 393.576,-228.381"/>
<polygon fill="midnightblue" stroke="midnightblue" points="395.478,-231.335 402.697,-223.581 392.218,-225.141 395.478,-231.335"/>
</g>
<!-- Node25&#45;&gt;Node27 -->
<g id="edge27" class="edge"><title>Node25&#45;&gt;Node27</title>
<path fill="none" stroke="midnightblue" d="M292.965,-266.403C279.492,-256.78 257.434,-241.024 241.285,-229.489"/>
<polygon fill="midnightblue" stroke="midnightblue" points="243.185,-226.545 233.013,-223.581 239.116,-232.241 243.185,-226.545"/>
</g>
<!-- Node27&#45;&gt;Node9 -->
<g id="edge28" class="edge"><title>Node27&#45;&gt;Node9</title>
<path fill="none" stroke="midnightblue" d="M258.26,-204.467C310.928,-192.406 406.05,-170.622 453.878,-159.669"/>
<polygon fill="midnightblue" stroke="midnightblue" points="454.913,-163.023 463.879,-157.379 453.35,-156.199 454.913,-163.023"/>
</g>
<!-- Node28&#45;&gt;Node8 -->
<g id="edge32" class="edge"><title>Node28&#45;&gt;Node8</title>
<path fill="none" stroke="midnightblue" d="M693,-266.403C693,-257.938 693,-244.728 693,-233.82"/>
<polygon fill="midnightblue" stroke="midnightblue" points="696.5,-233.581 693,-223.581 689.5,-233.581 696.5,-233.581"/>
</g>
<!-- Node28&#45;&gt;Node13 -->
<g id="edge31" class="edge"><title>Node28&#45;&gt;Node13</title>
<path fill="none" stroke="midnightblue" d="M705.834,-266.445C726.349,-252.85 767.896,-225.639 804,-204 826.091,-190.76 851.721,-176.491 870.14,-166.423"/>
<polygon fill="midnightblue" stroke="midnightblue" points="871.948,-169.424 879.058,-161.569 868.601,-163.276 871.948,-169.424"/>
</g>
<!-- Node29 -->
<g id="node29" class="node"><title>Node29</title>
<g id="a_node29"><a xlink:href="../../de/d0c/GeometryTransformer_8h.html" target="_top" xlink:title="Geometry transformer for MID. ">
<polygon fill="none" stroke="black" points="813,-204.5 813,-223.5 977,-223.5 977,-204.5 813,-204.5"/>
<text text-anchor="middle" x="895" y="-211.5" font-family="Helvetica,sans-Serif" font-size="10.00">MIDBase/GeometryTransformer.h</text>
</a>
</g>
</g>
<!-- Node28&#45;&gt;Node29 -->
<g id="edge33" class="edge"><title>Node28&#45;&gt;Node29</title>
<path fill="none" stroke="midnightblue" d="M721.942,-266.403C757.267,-255.911 817.131,-238.129 856.365,-226.476"/>
<polygon fill="midnightblue" stroke="midnightblue" points="857.523,-229.783 866.112,-223.581 855.529,-223.073 857.523,-229.783"/>
</g>
<!-- Node30 -->
<g id="node30" class="node"><title>Node30</title>
<g id="a_node30"><a xlink:href="../../dd/df0/Detectors_2MUON_2MID_2Base_2include_2MIDBase_2Constants_8h.html" target="_top" xlink:title="Useful constants for MID. ">
<polygon fill="none" stroke="black" points="497,-204.5 497,-223.5 611,-223.5 611,-204.5 497,-204.5"/>
<text text-anchor="middle" x="554" y="-211.5" font-family="Helvetica,sans-Serif" font-size="10.00">MIDBase/Constants.h</text>
</a>
</g>
</g>
<!-- Node28&#45;&gt;Node30 -->
<g id="edge36" class="edge"><title>Node28&#45;&gt;Node30</title>
<path fill="none" stroke="midnightblue" d="M673.085,-266.403C649.551,-256.245 610.19,-239.255 583.207,-227.607"/>
<polygon fill="midnightblue" stroke="midnightblue" points="584.447,-224.33 573.878,-223.581 581.672,-230.757 584.447,-224.33"/>
</g>
<!-- Node29&#45;&gt;Node9 -->
<g id="edge34" class="edge"><title>Node29&#45;&gt;Node9</title>
<path fill="none" stroke="midnightblue" d="M812.648,-205.134C720.714,-195.973 577.899,-180.499 525,-168 520.761,-166.999 516.358,-165.713 512.066,-164.316"/>
<polygon fill="midnightblue" stroke="midnightblue" points="512.981,-160.929 502.386,-160.938 510.675,-167.538 512.981,-160.929"/>
</g>
<!-- Node29&#45;&gt;Node13 -->
<g id="edge35" class="edge"><title>Node29&#45;&gt;Node13</title>
<path fill="none" stroke="midnightblue" d="M895,-204.403C895,-195.938 895,-182.728 895,-171.82"/>
<polygon fill="midnightblue" stroke="midnightblue" points="898.5,-171.581 895,-161.581 891.5,-171.581 898.5,-171.581"/>
</g>
<!-- Node30&#45;&gt;Node9 -->
<g id="edge37" class="edge"><title>Node30&#45;&gt;Node9</title>
<path fill="none" stroke="midnightblue" d="M543.827,-204.403C532.65,-194.958 514.483,-179.606 500.909,-168.134"/>
<polygon fill="midnightblue" stroke="midnightblue" points="503.051,-165.362 493.154,-161.581 498.533,-170.709 503.051,-165.362"/>
</g>
<!-- Node31&#45;&gt;Node4 -->
<g id="edge41" class="edge"><title>Node31&#45;&gt;Node4</title>
<path fill="none" stroke="midnightblue" d="M442.038,-260.933C423.155,-251.081 398.084,-238 379.527,-228.318"/>
<polygon fill="midnightblue" stroke="midnightblue" points="380.968,-225.123 370.483,-223.6 377.73,-231.329 380.968,-225.123"/>
</g>
<!-- Node31&#45;&gt;Node8 -->
<g id="edge42" class="edge"><title>Node31&#45;&gt;Node8</title>
<path fill="none" stroke="midnightblue" d="M521.518,-260.933C561.115,-250.326 614.685,-235.977 651.351,-226.156"/>
<polygon fill="midnightblue" stroke="midnightblue" points="652.465,-229.481 661.219,-223.513 650.654,-222.719 652.465,-229.481"/>
</g>
<!-- Node31&#45;&gt;Node9 -->
<g id="edge39" class="edge"><title>Node31&#45;&gt;Node9</title>
<path fill="none" stroke="midnightblue" d="M470.661,-260.526C473.2,-238.403 478.045,-196.181 480.849,-171.744"/>
<polygon fill="midnightblue" stroke="midnightblue" points="484.348,-171.957 482.01,-161.623 477.393,-171.159 484.348,-171.957"/>
</g>
<!-- Node31&#45;&gt;Node26 -->
<g id="edge40" class="edge"><title>Node31&#45;&gt;Node26</title>
<path fill="none" stroke="midnightblue" d="M457.151,-260.781C449.81,-251.972 440.355,-240.626 432.694,-231.433"/>
<polygon fill="midnightblue" stroke="midnightblue" points="435.366,-229.172 426.275,-223.731 429.989,-233.653 435.366,-229.172"/>
</g>
<!-- Node32&#45;&gt;Node5 -->
<g id="edge45" class="edge"><title>Node32&#45;&gt;Node5</title>
<path fill="none" stroke="midnightblue" d="M913.33,-266.467C981.503,-255.559 1099.37,-236.701 1171.93,-225.092"/>
<polygon fill="midnightblue" stroke="midnightblue" points="1172.53,-228.539 1181.85,-223.503 1171.43,-221.627 1172.53,-228.539"/>
</g>
<!-- Node32&#45;&gt;Node8 -->
<g id="edge49" class="edge"><title>Node32&#45;&gt;Node8</title>
<path fill="none" stroke="midnightblue" d="M836.073,-266.403C807.303,-256.067 758.844,-238.656 726.398,-226.999"/>
<polygon fill="midnightblue" stroke="midnightblue" points="727.477,-223.668 716.883,-223.581 725.11,-230.256 727.477,-223.668"/>
</g>
<!-- Node32&#45;&gt;Node26 -->
<g id="edge44" class="edge"><title>Node32&#45;&gt;Node26</title>
<path fill="none" stroke="midnightblue" d="M801.71,-266.483C786.812,-264.336 770.817,-262.058 756,-260 644.038,-244.451 511.003,-226.984 451.075,-219.169"/>
<polygon fill="midnightblue" stroke="midnightblue" points="451.46,-215.69 441.091,-217.868 450.555,-222.631 451.46,-215.69"/>
</g>
<!-- Node32&#45;&gt;Node29 -->
<g id="edge50" class="edge"><title>Node32&#45;&gt;Node29</title>
<path fill="none" stroke="midnightblue" d="M865.015,-266.403C870.161,-257.582 878.312,-243.608 884.818,-232.455"/>
<polygon fill="midnightblue" stroke="midnightblue" points="887.979,-233.982 889.995,-223.581 881.933,-230.455 887.979,-233.982"/>
</g>
<!-- Node33 -->
<g id="node33" class="node"><title>Node33</title>
<g id="a_node33"><a xlink:href="../../d0/daa/Cluster3D_8h.html" target="_top" xlink:title="Reconstructed MID cluster (global coordinates) ">
<polygon fill="none" stroke="black" points="995,-204.5 995,-223.5 1143,-223.5 1143,-204.5 995,-204.5"/>
<text text-anchor="middle" x="1069" y="-211.5" font-family="Helvetica,sans-Serif" font-size="10.00">DataFormatsMID/Cluster3D.h</text>
</a>
</g>
</g>
<!-- Node32&#45;&gt;Node33 -->
<g id="edge46" class="edge"><title>Node32&#45;&gt;Node33</title>
<path fill="none" stroke="midnightblue" d="M889.945,-266.403C926.572,-255.889 988.695,-238.054 1029.28,-226.402"/>
<polygon fill="midnightblue" stroke="midnightblue" points="1030.46,-229.704 1039.11,-223.581 1028.53,-222.976 1030.46,-229.704"/>
</g>
<!-- Node33&#45;&gt;Node7 -->
<g id="edge47" class="edge"><title>Node33&#45;&gt;Node7</title>
<path fill="none" stroke="midnightblue" d="M1074.44,-204.403C1080.09,-195.493 1089.06,-181.325 1096.16,-170.118"/>
<polygon fill="midnightblue" stroke="midnightblue" points="1099.17,-171.901 1101.57,-161.581 1093.26,-168.156 1099.17,-171.901"/>
</g>
<!-- Node33&#45;&gt;Node13 -->
<g id="edge48" class="edge"><title>Node33&#45;&gt;Node13</title>
<path fill="none" stroke="midnightblue" d="M1044.07,-204.403C1013.96,-194.022 963.168,-176.506 929.362,-164.849"/>
<polygon fill="midnightblue" stroke="midnightblue" points="930.478,-161.532 919.884,-161.581 928.196,-168.149 930.478,-161.532"/>
</g>
</g>
</svg>
        <g id="navigator" transform="translate(0 0)" fill="#404254">
                <rect fill="#f2f5e9" fill-opacity="0.5" stroke="#606060" stroke-width=".5" x="0" y="0" width="60" height="60"/>
                <use id="zoomplus" xlink:href="#zoomPlus" x="17" y="9" onmousedown="handleZoom(evt,'in')"/>
                <use id="zoomminus" xlink:href="#zoomMin" x="42" y="9" onmousedown="handleZoom(evt,'out')"/>
                <use id="reset" xlink:href="#resetDef" x="30" y="36" onmousedown="handleReset()"/>
                <g id="arrowUp" xlink:href="#dirArrow" transform="translate(30 24)" onmousedown="handlePan(0,-1)">
                  <use xlink:href="#rim" fill="#404040">
                        <set attributeName="fill" to="#808080" begin="arrowUp.mouseover" end="arrowUp.mouseout"/>
                  </use>
                  <path fill="none" stroke="white" stroke-width="1.5" d="M0,-3.0v7 M-2.5,-0.5L0,-3.0L2.5,-0.5"/>
                </g>
                <g id="arrowRight" xlink:href="#dirArrow" transform="rotate(90) translate(36 -43)" onmousedown="handlePan(1,0)">
                  <use xlink:href="#rim" fill="#404040">
                        <set attributeName="fill" to="#808080" begin="arrowRight.mouseover" end="arrowRight.mouseout"/>
                  </use>
                  <path fill="none" stroke="white" stroke-width="1.5" d="M0,-3.0v7 M-2.5,-0.5L0,-3.0L2.5,-0.5"/>
                </g>
                <g id="arrowDown" xlink:href="#dirArrow" transform="rotate(180) translate(-30 -48)" onmousedown="handlePan(0,1)">
                  <use xlink:href="#rim" fill="#404040">
                        <set attributeName="fill" to="#808080" begin="arrowDown.mouseover" end="arrowDown.mouseout"/>
                  </use>
                  <path fill="none" stroke="white" stroke-width="1.5" d="M0,-3.0v7 M-2.5,-0.5L0,-3.0L2.5,-0.5"/>
                </g>
                <g id="arrowLeft" xlink:href="#dirArrow" transform="rotate(270) translate(-36 17)" onmousedown="handlePan(-1,0)">
                  <use xlink:href="#rim" fill="#404040">
                        <set attributeName="fill" to="#808080" begin="arrowLeft.mouseover" end="arrowLeft.mouseout"/>
                  </use>
                  <path fill="none" stroke="white" stroke-width="1.5" d="M0,-3.0v7 M-2.5,-0.5L0,-3.0L2.5,-0.5"/>
                </g>
        </g>
        <svg viewBox="0 0 15 15" width="100%" height="30px" preserveAspectRatio="xMaxYMin meet">
         <g id="arrow_out" transform="scale(0.3 0.3)">
          <a xlink:href="bench__Tracker_8cxx__incl_org.svg" target="_base">
           <rect id="button" ry="5" rx="5" y="6" x="6" height="38" width="38"
                fill="#f2f5e9" fill-opacity="0.5" stroke="#606060" stroke-width="1.0"/>
           <path id="arrow"
             d="M 11.500037,31.436501 C 11.940474,20.09759 22.043105,11.32322 32.158766,21.979434 L 37.068811,17.246167 C 37.068811,17.246167 37.088388,32 37.088388,32 L 22.160133,31.978069 C 22.160133,31.978069 26.997745,27.140456 26.997745,27.140456 C 18.528582,18.264221 13.291696,25.230495 11.500037,31.436501 z"
             style="fill:#404040;"/>
          </a>
         </g>
        </svg>
</svg>
