<?xml version="1.0" encoding="UTF-8" standalone="no"?>
<!DOCTYPE svg PUBLIC "-//W3C//DTD SVG 1.1//EN"
 "http://www.w3.org/Graphics/SVG/1.1/DTD/svg11.dtd">
<!-- Generated by graphviz version 2.36.0 (20140111.2315)
 -->
<!-- Title: /home/travis/build/AliceO2Group/AliceO2/Detectors/EMCAL/simulation/src/Digitizer.cxx Pages: 1 -->
<svg width="2124pt" height="458pt"
 viewBox="0.00 0.00 2123.86 458.00" xmlns="http://www.w3.org/2000/svg" xmlns:xlink="http://www.w3.org/1999/xlink">
<g id="graph0" class="graph" transform="scale(1 1) rotate(0) translate(4 454)">
<title>/home/travis/build/AliceO2Group/AliceO2/Detectors/EMCAL/simulation/src/Digitizer.cxx</title>
<!-- Node1 -->
<g id="node1" class="node"><title>Node1</title>
<polygon fill="#bfbfbf" stroke="black" points="994.356,-397 994.356,-449 1141.36,-449 1141.36,-397 994.356,-397"/>
<text text-anchor="start" x="1002.36" y="-437" font-family="Helvetica,sans-Serif" font-size="10.00">/home/travis/build</text>
<text text-anchor="start" x="1002.36" y="-426" font-family="Helvetica,sans-Serif" font-size="10.00">/AliceO2Group/AliceO2</text>
<text text-anchor="start" x="1002.36" y="-415" font-family="Helvetica,sans-Serif" font-size="10.00">/Detectors/EMCAL/simulation</text>
<text text-anchor="middle" x="1067.86" y="-404" font-family="Helvetica,sans-Serif" font-size="10.00">/src/Digitizer.cxx</text>
</g>
<!-- Node2 -->
<g id="node2" class="node"><title>Node2</title>
<g id="a_node2"><a xlink:href="../../d8/d19/EMCAL_2simulation_2include_2EMCALSimulation_2Digitizer_8h.html" target="_top" xlink:title="EMCALSimulation/Digitizer.h">
<polygon fill="none" stroke="black" points="632.856,-334.5 632.856,-353.5 776.856,-353.5 776.856,-334.5 632.856,-334.5"/>
<text text-anchor="middle" x="704.856" y="-341.5" font-family="Helvetica,sans-Serif" font-size="10.00">EMCALSimulation/Digitizer.h</text>
</a>
</g>
</g>
<!-- Node1&#45;&gt;Node2 -->
<g id="edge1" class="edge"><title>Node1&#45;&gt;Node2</title>
<path fill="none" stroke="midnightblue" d="M993.96,-406.325C922.68,-391.205 816.745,-368.734 754.853,-355.605"/>
<polygon fill="midnightblue" stroke="midnightblue" points="755.449,-352.154 744.94,-353.503 753.996,-359.002 755.449,-352.154"/>
</g>
<!-- Node9 -->
<g id="node9" class="node"><title>Node9</title>
<g id="a_node9"><a xlink:href="../../dd/dc7/EMCAL_2base_2include_2EMCALBase_2Digit_8h.html" target="_top" xlink:title="EMCALBase/Digit.h">
<polygon fill="none" stroke="black" points="267.356,-210.5 267.356,-229.5 372.356,-229.5 372.356,-210.5 267.356,-210.5"/>
<text text-anchor="middle" x="319.856" y="-217.5" font-family="Helvetica,sans-Serif" font-size="10.00">EMCALBase/Digit.h</text>
</a>
</g>
</g>
<!-- Node1&#45;&gt;Node9 -->
<g id="edge45" class="edge"><title>Node1&#45;&gt;Node9</title>
<path fill="none" stroke="midnightblue" d="M994.112,-418.913C861.37,-412.542 587.835,-395.462 499.856,-360 429.563,-331.667 363.483,-267.674 334.819,-237.427"/>
<polygon fill="midnightblue" stroke="midnightblue" points="337.133,-234.777 327.754,-229.849 332.013,-239.55 337.133,-234.777"/>
</g>
<!-- Node14 -->
<g id="node14" class="node"><title>Node14</title>
<g id="a_node14"><a xlink:href="../../dd/da8/EMCAL_2base_2include_2EMCALBase_2Geometry_8h.html" target="_top" xlink:title="EMCALBase/Geometry.h">
<polygon fill="none" stroke="black" points="896.856,-272.5 896.856,-291.5 1024.86,-291.5 1024.86,-272.5 896.856,-272.5"/>
<text text-anchor="middle" x="960.856" y="-279.5" font-family="Helvetica,sans-Serif" font-size="10.00">EMCALBase/Geometry.h</text>
</a>
</g>
</g>
<!-- Node1&#45;&gt;Node14 -->
<g id="edge46" class="edge"><title>Node1&#45;&gt;Node14</title>
<path fill="none" stroke="midnightblue" d="M1048.48,-396.828C1026.8,-368.663 992.286,-323.829 973.705,-299.692"/>
<polygon fill="midnightblue" stroke="midnightblue" points="976.298,-297.321 967.424,-291.532 970.751,-301.591 976.298,-297.321"/>
</g>
<!-- Node24 -->
<g id="node24" class="node"><title>Node24</title>
<g id="a_node24"><a xlink:href="../../d5/d5e/GeometryBase_8h.html" target="_top" xlink:title="EMCALBase/GeometryBase.h">
<polygon fill="none" stroke="black" points="461.856,-210.5 461.856,-229.5 611.856,-229.5 611.856,-210.5 461.856,-210.5"/>
<text text-anchor="middle" x="536.856" y="-217.5" font-family="Helvetica,sans-Serif" font-size="10.00">EMCALBase/GeometryBase.h</text>
</a>
</g>
</g>
<!-- Node1&#45;&gt;Node24 -->
<g id="edge47" class="edge"><title>Node1&#45;&gt;Node24</title>
<path fill="none" stroke="midnightblue" d="M994.247,-418.625C844.444,-409.947 513.172,-380.894 452.856,-292 435.927,-267.049 471.844,-245.864 501.853,-233.294"/>
<polygon fill="midnightblue" stroke="midnightblue" points="503.322,-236.476 511.315,-229.521 500.729,-229.974 503.322,-236.476"/>
</g>
<!-- Node26 -->
<g id="node26" class="node"><title>Node26</title>
<g id="a_node26"><a xlink:href="../../dd/d76/Cartesian3D_8h.html" target="_top" xlink:title="MathUtils/Cartesian3D.h">
<polygon fill="none" stroke="black" points="1383.36,-142.5 1383.36,-161.5 1508.36,-161.5 1508.36,-142.5 1383.36,-142.5"/>
<text text-anchor="middle" x="1445.86" y="-149.5" font-family="Helvetica,sans-Serif" font-size="10.00">MathUtils/Cartesian3D.h</text>
</a>
</g>
</g>
<!-- Node1&#45;&gt;Node26 -->
<g id="edge49" class="edge"><title>Node1&#45;&gt;Node26</title>
<path fill="none" stroke="midnightblue" d="M1076.56,-396.814C1085.35,-375.195 1101.06,-344.925 1124.86,-328 1284.12,-214.725 1431.97,-387.965 1554.86,-236 1563.8,-224.941 1562.49,-216 1554.86,-204 1542.41,-184.433 1520.26,-172.246 1499.17,-164.718"/>
<polygon fill="midnightblue" stroke="midnightblue" points="1500.18,-161.367 1489.59,-161.577 1498,-168.019 1500.18,-161.367"/>
</g>
<!-- Node35 -->
<g id="node35" class="node"><title>Node35</title>
<g id="a_node35"><a xlink:href="../../d5/d8b/EMCAL_2base_2include_2EMCALBase_2Hit_8h.html" target="_top" xlink:title="EMCALBase/Hit.h">
<polygon fill="none" stroke="black" points="1042.86,-272.5 1042.86,-291.5 1140.86,-291.5 1140.86,-272.5 1042.86,-272.5"/>
<text text-anchor="middle" x="1091.86" y="-279.5" font-family="Helvetica,sans-Serif" font-size="10.00">EMCALBase/Hit.h</text>
</a>
</g>
</g>
<!-- Node1&#45;&gt;Node35 -->
<g id="edge48" class="edge"><title>Node1&#45;&gt;Node35</title>
<path fill="none" stroke="midnightblue" d="M1072.2,-396.828C1076.94,-369.408 1084.4,-326.187 1088.64,-301.648"/>
<polygon fill="midnightblue" stroke="midnightblue" points="1092.13,-301.982 1090.38,-291.532 1085.23,-300.791 1092.13,-301.982"/>
</g>
<!-- Node37 -->
<g id="node37" class="node"><title>Node37</title>
<g id="a_node37"><a xlink:href="../../d7/dcd/MCCompLabel_8h.html" target="_top" xlink:title="SimulationDataFormat\l/MCCompLabel.h">
<polygon fill="none" stroke="black" points="54.8563,-329 54.8563,-359 168.856,-359 168.856,-329 54.8563,-329"/>
<text text-anchor="start" x="62.8563" y="-347" font-family="Helvetica,sans-Serif" font-size="10.00">SimulationDataFormat</text>
<text text-anchor="middle" x="111.856" y="-336" font-family="Helvetica,sans-Serif" font-size="10.00">/MCCompLabel.h</text>
</a>
</g>
</g>
<!-- Node1&#45;&gt;Node37 -->
<g id="edge50" class="edge"><title>Node1&#45;&gt;Node37</title>
<path fill="none" stroke="midnightblue" d="M994.033,-416.054C813.572,-401.519 352.225,-364.36 178.965,-350.405"/>
<polygon fill="midnightblue" stroke="midnightblue" points="179.207,-346.913 168.958,-349.599 178.645,-353.891 179.207,-346.913"/>
</g>
<!-- Node38 -->
<g id="node38" class="node"><title>Node38</title>
<polygon fill="none" stroke="#bfbfbf" points="1133.86,-334.5 1133.86,-353.5 1201.86,-353.5 1201.86,-334.5 1133.86,-334.5"/>
<text text-anchor="middle" x="1167.86" y="-341.5" font-family="Helvetica,sans-Serif" font-size="10.00">TRandom.h</text>
</g>
<!-- Node1&#45;&gt;Node38 -->
<g id="edge52" class="edge"><title>Node1&#45;&gt;Node38</title>
<path fill="none" stroke="midnightblue" d="M1100.6,-396.787C1116.49,-384.554 1135.02,-370.282 1148.61,-359.821"/>
<polygon fill="midnightblue" stroke="midnightblue" points="1150.95,-362.432 1156.74,-353.558 1146.68,-356.886 1150.95,-362.432"/>
</g>
<!-- Node39 -->
<g id="node39" class="node"><title>Node39</title>
<polygon fill="none" stroke="#bfbfbf" points="1220.36,-334.5 1220.36,-353.5 1265.36,-353.5 1265.36,-334.5 1220.36,-334.5"/>
<text text-anchor="middle" x="1242.86" y="-341.5" font-family="Helvetica,sans-Serif" font-size="10.00">climits</text>
</g>
<!-- Node1&#45;&gt;Node39 -->
<g id="edge53" class="edge"><title>Node1&#45;&gt;Node39</title>
<path fill="none" stroke="midnightblue" d="M1126.82,-396.896C1152.68,-385.766 1183.35,-372.405 1210.86,-360 1212.43,-359.289 1214.05,-358.553 1215.68,-357.805"/>
<polygon fill="midnightblue" stroke="midnightblue" points="1217.36,-360.884 1224.96,-353.502 1214.41,-354.534 1217.36,-360.884"/>
</g>
<!-- Node40 -->
<g id="node40" class="node"><title>Node40</title>
<polygon fill="none" stroke="#bfbfbf" points="1283.36,-334.5 1283.36,-353.5 1350.36,-353.5 1350.36,-334.5 1283.36,-334.5"/>
<text text-anchor="middle" x="1316.86" y="-341.5" font-family="Helvetica,sans-Serif" font-size="10.00">forward_list</text>
</g>
<!-- Node1&#45;&gt;Node40 -->
<g id="edge54" class="edge"><title>Node1&#45;&gt;Node40</title>
<path fill="none" stroke="midnightblue" d="M1141.51,-400.674C1180.9,-389.056 1230.16,-374.189 1273.86,-360 1276.94,-358.999 1280.14,-357.934 1283.34,-356.85"/>
<polygon fill="midnightblue" stroke="midnightblue" points="1284.49,-360.154 1292.81,-353.594 1282.22,-353.534 1284.49,-360.154"/>
</g>
<!-- Node41 -->
<g id="node41" class="node"><title>Node41</title>
<polygon fill="none" stroke="#bfbfbf" points="1368.36,-334.5 1368.36,-353.5 1439.36,-353.5 1439.36,-334.5 1368.36,-334.5"/>
<text text-anchor="middle" x="1403.86" y="-341.5" font-family="Helvetica,sans-Serif" font-size="10.00">FairLogger.h</text>
</g>
<!-- Node1&#45;&gt;Node41 -->
<g id="edge55" class="edge"><title>Node1&#45;&gt;Node41</title>
<path fill="none" stroke="midnightblue" d="M1141.65,-408.644C1200.81,-397.371 1285.72,-379.915 1358.86,-360 1362.49,-359.012 1366.25,-357.898 1369.99,-356.736"/>
<polygon fill="midnightblue" stroke="midnightblue" points="1371.28,-360 1379.72,-353.597 1369.13,-353.338 1371.28,-360"/>
</g>
<!-- Node3 -->
<g id="node3" class="node"><title>Node3</title>
<polygon fill="none" stroke="#bfbfbf" points="461.856,-272.5 461.856,-291.5 513.856,-291.5 513.856,-272.5 461.856,-272.5"/>
<text text-anchor="middle" x="487.856" y="-279.5" font-family="Helvetica,sans-Serif" font-size="10.00">memory</text>
</g>
<!-- Node2&#45;&gt;Node3 -->
<g id="edge2" class="edge"><title>Node2&#45;&gt;Node3</title>
<path fill="none" stroke="midnightblue" d="M673.766,-334.403C634.14,-323.447 565.773,-304.544 523.907,-292.968"/>
<polygon fill="midnightblue" stroke="midnightblue" points="524.694,-289.554 514.123,-290.263 522.828,-296.301 524.694,-289.554"/>
</g>
<!-- Node4 -->
<g id="node4" class="node"><title>Node4</title>
<polygon fill="none" stroke="#bfbfbf" points="532.356,-272.5 532.356,-291.5 615.356,-291.5 615.356,-272.5 532.356,-272.5"/>
<text text-anchor="middle" x="573.856" y="-279.5" font-family="Helvetica,sans-Serif" font-size="10.00">unordered_map</text>
</g>
<!-- Node2&#45;&gt;Node4 -->
<g id="edge3" class="edge"><title>Node2&#45;&gt;Node4</title>
<path fill="none" stroke="midnightblue" d="M686.087,-334.403C664.005,-324.29 627.137,-307.404 601.718,-295.761"/>
<polygon fill="midnightblue" stroke="midnightblue" points="603.14,-292.563 592.591,-291.581 600.225,-298.927 603.14,-292.563"/>
</g>
<!-- Node5 -->
<g id="node5" class="node"><title>Node5</title>
<polygon fill="none" stroke="#bfbfbf" points="629.856,-210.5 629.856,-229.5 673.856,-229.5 673.856,-210.5 629.856,-210.5"/>
<text text-anchor="middle" x="651.856" y="-217.5" font-family="Helvetica,sans-Serif" font-size="10.00">vector</text>
</g>
<!-- Node2&#45;&gt;Node5 -->
<g id="edge4" class="edge"><title>Node2&#45;&gt;Node5</title>
<path fill="none" stroke="midnightblue" d="M735.625,-334.439C771.149,-322.985 822.135,-300.739 800.856,-272 768.229,-227.933 733.909,-256.001 682.856,-236 681.211,-235.355 679.532,-234.659 677.849,-233.933"/>
<polygon fill="midnightblue" stroke="midnightblue" points="678.926,-230.576 668.378,-229.578 676.001,-236.935 678.926,-230.576"/>
</g>
<!-- Node6 -->
<g id="node6" class="node"><title>Node6</title>
<polygon fill="none" stroke="#bfbfbf" points="633.356,-272.5 633.356,-291.5 676.356,-291.5 676.356,-272.5 633.356,-272.5"/>
<text text-anchor="middle" x="654.856" y="-279.5" font-family="Helvetica,sans-Serif" font-size="10.00">deque</text>
</g>
<!-- Node2&#45;&gt;Node6 -->
<g id="edge5" class="edge"><title>Node2&#45;&gt;Node6</title>
<path fill="none" stroke="midnightblue" d="M697.693,-334.403C690.118,-325.314 677.986,-310.756 668.564,-299.449"/>
<polygon fill="midnightblue" stroke="midnightblue" points="671.097,-297.022 662.007,-291.581 665.72,-301.503 671.097,-297.022"/>
</g>
<!-- Node7 -->
<g id="node7" class="node"><title>Node7</title>
<polygon fill="none" stroke="#bfbfbf" points="256.856,-74.5 256.856,-93.5 312.856,-93.5 312.856,-74.5 256.856,-74.5"/>
<text text-anchor="middle" x="284.856" y="-81.5" font-family="Helvetica,sans-Serif" font-size="10.00">Rtypes.h</text>
</g>
<!-- Node2&#45;&gt;Node7 -->
<g id="edge6" class="edge"><title>Node2&#45;&gt;Node7</title>
<path fill="none" stroke="midnightblue" d="M632.832,-337.048C567.627,-330.171 478.047,-316.517 452.856,-292 401.864,-242.372 463.478,-189.755 416.856,-136 393.098,-108.606 352.857,-95.8473 323.037,-89.9538"/>
<polygon fill="midnightblue" stroke="midnightblue" points="323.43,-86.4683 312.968,-88.1427 322.191,-93.3578 323.43,-86.4683"/>
</g>
<!-- Node8 -->
<g id="node8" class="node"><title>Node8</title>
<polygon fill="none" stroke="#bfbfbf" points="733.356,-272.5 733.356,-291.5 792.356,-291.5 792.356,-272.5 733.356,-272.5"/>
<text text-anchor="middle" x="762.856" y="-279.5" font-family="Helvetica,sans-Serif" font-size="10.00">TObject.h</text>
</g>
<!-- Node2&#45;&gt;Node8 -->
<g id="edge7" class="edge"><title>Node2&#45;&gt;Node8</title>
<path fill="none" stroke="midnightblue" d="M713.166,-334.403C722.125,-325.136 736.58,-310.183 747.595,-298.788"/>
<polygon fill="midnightblue" stroke="midnightblue" points="750.128,-301.203 754.562,-291.581 745.095,-296.338 750.128,-301.203"/>
</g>
<!-- Node2&#45;&gt;Node9 -->
<g id="edge8" class="edge"><title>Node2&#45;&gt;Node9</title>
<path fill="none" stroke="midnightblue" d="M632.709,-338.85C573.564,-333.414 488.688,-320.878 419.856,-292 387.506,-278.428 355.374,-252.915 336.58,-236.454"/>
<polygon fill="midnightblue" stroke="midnightblue" points="338.715,-233.668 328.931,-229.603 334.045,-238.882 338.715,-233.668"/>
</g>
<!-- Node2&#45;&gt;Node14 -->
<g id="edge15" class="edge"><title>Node2&#45;&gt;Node14</title>
<path fill="none" stroke="midnightblue" d="M741.263,-334.467C786.851,-323.783 864.99,-305.469 914.721,-293.813"/>
<polygon fill="midnightblue" stroke="midnightblue" points="915.638,-297.193 924.575,-291.503 914.04,-290.378 915.638,-297.193"/>
</g>
<!-- Node2&#45;&gt;Node24 -->
<g id="edge41" class="edge"><title>Node2&#45;&gt;Node24</title>
<path fill="none" stroke="midnightblue" d="M704.871,-334.338C704.424,-319.59 701.386,-289.504 684.856,-272 670.725,-257.036 621.507,-241.926 583.667,-232.081"/>
<polygon fill="midnightblue" stroke="midnightblue" points="584.384,-228.652 573.829,-229.572 582.654,-235.435 584.384,-228.652"/>
</g>
<!-- Node2&#45;&gt;Node35 -->
<g id="edge42" class="edge"><title>Node2&#45;&gt;Node35</title>
<path fill="none" stroke="midnightblue" d="M759.867,-334.475C823.158,-324.667 930.5,-308.029 1032.91,-292.146"/>
<polygon fill="midnightblue" stroke="midnightblue" points="1033.46,-295.603 1042.81,-290.611 1032.39,-288.685 1033.46,-295.603"/>
</g>
<!-- Node9&#45;&gt;Node7 -->
<g id="edge11" class="edge"><title>Node9&#45;&gt;Node7</title>
<path fill="none" stroke="midnightblue" d="M316.929,-210.398C313.549,-200.309 307.932,-183.048 303.856,-168 297.953,-146.205 292.33,-120.869 288.754,-103.977"/>
<polygon fill="midnightblue" stroke="midnightblue" points="292.096,-102.855 286.628,-93.7796 285.243,-104.284 292.096,-102.855"/>
</g>
<!-- Node10 -->
<g id="node10" class="node"><title>Node10</title>
<polygon fill="none" stroke="#bfbfbf" points="704.356,-74.5 704.356,-93.5 749.356,-93.5 749.356,-74.5 704.356,-74.5"/>
<text text-anchor="middle" x="726.856" y="-81.5" font-family="Helvetica,sans-Serif" font-size="10.00">iosfwd</text>
</g>
<!-- Node9&#45;&gt;Node10 -->
<g id="edge9" class="edge"><title>Node9&#45;&gt;Node10</title>
<path fill="none" stroke="midnightblue" d="M335.96,-210.287C367.154,-193.721 438.348,-157.426 501.856,-136 568.613,-113.478 649.857,-97.8282 694.163,-90.2397"/>
<polygon fill="midnightblue" stroke="midnightblue" points="694.8,-93.6818 704.081,-88.5706 693.638,-86.7789 694.8,-93.6818"/>
</g>
<!-- Node11 -->
<g id="node11" class="node"><title>Node11</title>
<polygon fill="none" stroke="#bfbfbf" points="212.856,-142.5 212.856,-161.5 256.856,-161.5 256.856,-142.5 212.856,-142.5"/>
<text text-anchor="middle" x="234.856" y="-149.5" font-family="Helvetica,sans-Serif" font-size="10.00">cmath</text>
</g>
<!-- Node9&#45;&gt;Node11 -->
<g id="edge10" class="edge"><title>Node9&#45;&gt;Node11</title>
<path fill="none" stroke="midnightblue" d="M308.744,-210.372C294.872,-199.6 270.92,-181.002 254.054,-167.906"/>
<polygon fill="midnightblue" stroke="midnightblue" points="256.016,-164.999 245.971,-161.63 251.723,-170.528 256.016,-164.999"/>
</g>
<!-- Node12 -->
<g id="node12" class="node"><title>Node12</title>
<g id="a_node12"><a xlink:href="../../df/d5d/common_2include_2CommonDataFormat_2TimeStamp_8h.html" target="_top" xlink:title="CommonDataFormat/TimeStamp.h">
<polygon fill="none" stroke="black" points="24.8563,-142.5 24.8563,-161.5 194.856,-161.5 194.856,-142.5 24.8563,-142.5"/>
<text text-anchor="middle" x="109.856" y="-149.5" font-family="Helvetica,sans-Serif" font-size="10.00">CommonDataFormat/TimeStamp.h</text>
</a>
</g>
</g>
<!-- Node9&#45;&gt;Node12 -->
<g id="edge12" class="edge"><title>Node9&#45;&gt;Node12</title>
<path fill="none" stroke="midnightblue" d="M292.403,-210.372C255.119,-198.654 188.363,-177.674 146.737,-164.591"/>
<polygon fill="midnightblue" stroke="midnightblue" points="147.573,-161.185 136.984,-161.526 145.475,-167.863 147.573,-161.185"/>
</g>
<!-- Node13 -->
<g id="node13" class="node"><title>Node13</title>
<polygon fill="none" stroke="#bfbfbf" points="313.356,-137 313.356,-167 408.356,-167 408.356,-137 313.356,-137"/>
<text text-anchor="start" x="321.356" y="-155" font-family="Helvetica,sans-Serif" font-size="10.00">boost/serialization</text>
<text text-anchor="middle" x="360.856" y="-144" font-family="Helvetica,sans-Serif" font-size="10.00">/base_object.hpp</text>
</g>
<!-- Node9&#45;&gt;Node13 -->
<g id="edge14" class="edge"><title>Node9&#45;&gt;Node13</title>
<path fill="none" stroke="midnightblue" d="M325.216,-210.372C330.648,-201.629 339.282,-187.729 346.692,-175.801"/>
<polygon fill="midnightblue" stroke="midnightblue" points="349.743,-177.523 352.047,-167.181 343.797,-173.829 349.743,-177.523"/>
</g>
<!-- Node12&#45;&gt;Node7 -->
<g id="edge13" class="edge"><title>Node12&#45;&gt;Node7</title>
<path fill="none" stroke="midnightblue" d="M132.735,-142.372C163.344,-130.827 217.793,-110.293 252.568,-97.1772"/>
<polygon fill="midnightblue" stroke="midnightblue" points="254.128,-100.33 262.25,-93.5259 251.658,-93.7799 254.128,-100.33"/>
</g>
<!-- Node14&#45;&gt;Node5 -->
<g id="edge19" class="edge"><title>Node14&#45;&gt;Node5</title>
<path fill="none" stroke="midnightblue" d="M896.707,-275.937C839.562,-270.182 754.196,-258.504 682.856,-236 680.725,-235.328 678.556,-234.532 676.404,-233.663"/>
<polygon fill="midnightblue" stroke="midnightblue" points="677.819,-230.462 667.264,-229.543 674.943,-236.844 677.819,-230.462"/>
</g>
<!-- Node15 -->
<g id="node15" class="node"><title>Node15</title>
<polygon fill="none" stroke="#bfbfbf" points="1044.36,-210.5 1044.36,-229.5 1103.36,-229.5 1103.36,-210.5 1044.36,-210.5"/>
<text text-anchor="middle" x="1073.86" y="-217.5" font-family="Helvetica,sans-Serif" font-size="10.00">exception</text>
</g>
<!-- Node14&#45;&gt;Node15 -->
<g id="edge16" class="edge"><title>Node14&#45;&gt;Node15</title>
<path fill="none" stroke="midnightblue" d="M977.046,-272.403C995.759,-262.468 1026.78,-245.997 1048.66,-234.381"/>
<polygon fill="midnightblue" stroke="midnightblue" points="1050.51,-237.362 1057.7,-229.581 1047.22,-231.179 1050.51,-237.362"/>
</g>
<!-- Node16 -->
<g id="node16" class="node"><title>Node16</title>
<polygon fill="none" stroke="#bfbfbf" points="714.356,-142.5 714.356,-161.5 755.356,-161.5 755.356,-142.5 714.356,-142.5"/>
<text text-anchor="middle" x="734.856" y="-149.5" font-family="Helvetica,sans-Serif" font-size="10.00">string</text>
</g>
<!-- Node14&#45;&gt;Node16 -->
<g id="edge17" class="edge"><title>Node14&#45;&gt;Node16</title>
<path fill="none" stroke="midnightblue" d="M945.435,-272.47C930.182,-263.838 906.359,-249.828 886.856,-236 868.566,-223.032 866.906,-215.825 847.856,-204 821.295,-187.512 788.497,-173.316 765.091,-164.119"/>
<polygon fill="midnightblue" stroke="midnightblue" points="766.269,-160.822 755.68,-160.491 763.752,-167.354 766.269,-160.822"/>
</g>
<!-- Node17 -->
<g id="node17" class="node"><title>Node17</title>
<polygon fill="none" stroke="#bfbfbf" points="1159.86,-210.5 1159.86,-229.5 1197.86,-229.5 1197.86,-210.5 1159.86,-210.5"/>
<text text-anchor="middle" x="1178.86" y="-217.5" font-family="Helvetica,sans-Serif" font-size="10.00">tuple</text>
</g>
<!-- Node14&#45;&gt;Node17 -->
<g id="edge18" class="edge"><title>Node14&#45;&gt;Node17</title>
<path fill="none" stroke="midnightblue" d="M1006.02,-272.493C1043.9,-264.772 1099.15,-252.135 1145.86,-236 1147.98,-235.265 1150.16,-234.443 1152.33,-233.573"/>
<polygon fill="midnightblue" stroke="midnightblue" points="1153.84,-236.735 1161.64,-229.565 1151.07,-230.305 1153.84,-236.735"/>
</g>
<!-- Node18 -->
<g id="node18" class="node"><title>Node18</title>
<polygon fill="none" stroke="#bfbfbf" points="1215.86,-210.5 1215.86,-229.5 1295.86,-229.5 1295.86,-210.5 1215.86,-210.5"/>
<text text-anchor="middle" x="1255.86" y="-217.5" font-family="Helvetica,sans-Serif" font-size="10.00">RStringView.h</text>
</g>
<!-- Node14&#45;&gt;Node18 -->
<g id="edge20" class="edge"><title>Node14&#45;&gt;Node18</title>
<path fill="none" stroke="midnightblue" d="M1017.92,-272.489C1068.04,-264.558 1142.74,-251.623 1206.86,-236 1211.25,-234.929 1215.84,-233.691 1220.36,-232.394"/>
<polygon fill="midnightblue" stroke="midnightblue" points="1221.49,-235.712 1230.07,-229.507 1219.49,-229.002 1221.49,-235.712"/>
</g>
<!-- Node19 -->
<g id="node19" class="node"><title>Node19</title>
<polygon fill="none" stroke="#bfbfbf" points="1014.86,-74.5 1014.86,-93.5 1090.86,-93.5 1090.86,-74.5 1014.86,-74.5"/>
<text text-anchor="middle" x="1052.86" y="-81.5" font-family="Helvetica,sans-Serif" font-size="10.00">TGeoMatrix.h</text>
</g>
<!-- Node14&#45;&gt;Node19 -->
<g id="edge21" class="edge"><title>Node14&#45;&gt;Node19</title>
<path fill="none" stroke="midnightblue" d="M1011.95,-272.473C1050.85,-264.818 1099.72,-252.284 1111.86,-236 1143.99,-192.891 1095.31,-130.032 1068.53,-100.907"/>
<polygon fill="midnightblue" stroke="midnightblue" points="1071.06,-98.4885 1061.65,-93.6312 1065.98,-103.3 1071.06,-98.4885"/>
</g>
<!-- Node20 -->
<g id="node20" class="node"><title>Node20</title>
<polygon fill="none" stroke="#bfbfbf" points="1313.86,-210.5 1313.86,-229.5 1375.86,-229.5 1375.86,-210.5 1313.86,-210.5"/>
<text text-anchor="middle" x="1344.86" y="-217.5" font-family="Helvetica,sans-Serif" font-size="10.00">TNamed.h</text>
</g>
<!-- Node14&#45;&gt;Node20 -->
<g id="edge22" class="edge"><title>Node14&#45;&gt;Node20</title>
<path fill="none" stroke="midnightblue" d="M1025.17,-272.972C1120.98,-260.956 1291.47,-239.339 1304.86,-236 1308.27,-235.149 1311.79,-234.098 1315.27,-232.95"/>
<polygon fill="midnightblue" stroke="midnightblue" points="1316.55,-236.207 1324.79,-229.548 1314.2,-229.615 1316.55,-236.207"/>
</g>
<!-- Node21 -->
<g id="node21" class="node"><title>Node21</title>
<polygon fill="none" stroke="#bfbfbf" points="691.856,-210.5 691.856,-229.5 755.856,-229.5 755.856,-210.5 691.856,-210.5"/>
<text text-anchor="middle" x="723.856" y="-217.5" font-family="Helvetica,sans-Serif" font-size="10.00">TParticle.h</text>
</g>
<!-- Node14&#45;&gt;Node21 -->
<g id="edge23" class="edge"><title>Node14&#45;&gt;Node21</title>
<path fill="none" stroke="midnightblue" d="M916.465,-272.461C876.47,-264.377 816.238,-251.232 764.856,-236 761.732,-235.074 758.5,-234.035 755.285,-232.949"/>
<polygon fill="midnightblue" stroke="midnightblue" points="756.411,-229.635 745.816,-229.608 754.082,-236.236 756.411,-229.635"/>
</g>
<!-- Node22 -->
<g id="node22" class="node"><title>Node22</title>
<polygon fill="none" stroke="#bfbfbf" points="774.356,-210.5 774.356,-229.5 839.356,-229.5 839.356,-210.5 774.356,-210.5"/>
<text text-anchor="middle" x="806.856" y="-217.5" font-family="Helvetica,sans-Serif" font-size="10.00">TVector3.h</text>
</g>
<!-- Node14&#45;&gt;Node22 -->
<g id="edge24" class="edge"><title>Node14&#45;&gt;Node22</title>
<path fill="none" stroke="midnightblue" d="M938.792,-272.403C912.49,-262.156 868.344,-244.956 838.432,-233.302"/>
<polygon fill="midnightblue" stroke="midnightblue" points="839.468,-229.95 828.88,-229.581 836.927,-236.472 839.468,-229.95"/>
</g>
<!-- Node23 -->
<g id="node23" class="node"><title>Node23</title>
<g id="a_node23"><a xlink:href="../../d4/d82/Detectors_2EMCAL_2base_2include_2EMCALBase_2Constants_8h.html" target="_top" xlink:title="EMCALBase/Constants.h">
<polygon fill="none" stroke="black" points="895.856,-210.5 895.856,-229.5 1025.86,-229.5 1025.86,-210.5 895.856,-210.5"/>
<text text-anchor="middle" x="960.856" y="-217.5" font-family="Helvetica,sans-Serif" font-size="10.00">EMCALBase/Constants.h</text>
</a>
</g>
</g>
<!-- Node14&#45;&gt;Node23 -->
<g id="edge25" class="edge"><title>Node14&#45;&gt;Node23</title>
<path fill="none" stroke="midnightblue" d="M960.856,-272.403C960.856,-263.938 960.856,-250.728 960.856,-239.82"/>
<polygon fill="midnightblue" stroke="midnightblue" points="964.356,-239.581 960.856,-229.581 957.356,-239.581 964.356,-239.581"/>
</g>
<!-- Node14&#45;&gt;Node24 -->
<g id="edge26" class="edge"><title>Node14&#45;&gt;Node24</title>
<path fill="none" stroke="midnightblue" d="M896.815,-273.398C828.376,-265.07 716.76,-250.902 620.856,-236 611.719,-234.58 602.043,-232.961 592.635,-231.324"/>
<polygon fill="midnightblue" stroke="midnightblue" points="593.025,-227.839 582.569,-229.549 591.81,-234.733 593.025,-227.839"/>
</g>
<!-- Node14&#45;&gt;Node26 -->
<g id="edge29" class="edge"><title>Node14&#45;&gt;Node26</title>
<path fill="none" stroke="midnightblue" d="M1024.94,-273.025C1027.95,-272.673 1030.94,-272.33 1033.86,-272 1111.55,-263.216 1315.84,-274.569 1383.86,-236 1409.97,-221.192 1428.39,-190.411 1438.04,-170.781"/>
<polygon fill="midnightblue" stroke="midnightblue" points="1441.24,-172.217 1442.29,-161.675 1434.89,-169.259 1441.24,-172.217"/>
</g>
<!-- Node24&#45;&gt;Node16 -->
<g id="edge28" class="edge"><title>Node24&#45;&gt;Node16</title>
<path fill="none" stroke="midnightblue" d="M562.741,-210.372C599.211,-198.215 665.589,-176.089 704.39,-163.155"/>
<polygon fill="midnightblue" stroke="midnightblue" points="705.711,-166.405 714.091,-159.922 703.497,-159.764 705.711,-166.405"/>
</g>
<!-- Node25 -->
<g id="node25" class="node"><title>Node25</title>
<polygon fill="none" stroke="#bfbfbf" points="510.856,-142.5 510.856,-161.5 562.856,-161.5 562.856,-142.5 510.856,-142.5"/>
<text text-anchor="middle" x="536.856" y="-149.5" font-family="Helvetica,sans-Serif" font-size="10.00">sstream</text>
</g>
<!-- Node24&#45;&gt;Node25 -->
<g id="edge27" class="edge"><title>Node24&#45;&gt;Node25</title>
<path fill="none" stroke="midnightblue" d="M536.856,-210.372C536.856,-200.643 536.856,-184.528 536.856,-171.85"/>
<polygon fill="midnightblue" stroke="midnightblue" points="540.356,-171.841 536.856,-161.841 533.356,-171.841 540.356,-171.841"/>
</g>
<!-- Node26&#45;&gt;Node7 -->
<g id="edge35" class="edge"><title>Node26&#45;&gt;Node7</title>
<path fill="none" stroke="midnightblue" d="M1383.02,-147.428C1172.04,-135.434 492.665,-96.8134 323.353,-87.1884"/>
<polygon fill="midnightblue" stroke="midnightblue" points="323.356,-83.683 313.173,-86.6097 322.958,-90.6717 323.356,-83.683"/>
</g>
<!-- Node26&#45;&gt;Node10 -->
<g id="edge37" class="edge"><title>Node26&#45;&gt;Node10</title>
<path fill="none" stroke="midnightblue" d="M1383.31,-145.258C1236,-131.737 871.298,-98.2589 759.78,-88.0222"/>
<polygon fill="midnightblue" stroke="midnightblue" points="759.777,-84.5073 749.499,-87.0784 759.137,-91.478 759.777,-84.5073"/>
</g>
<!-- Node26&#45;&gt;Node19 -->
<g id="edge36" class="edge"><title>Node26&#45;&gt;Node19</title>
<path fill="none" stroke="midnightblue" d="M1383.09,-144.854C1313.33,-137.305 1197.61,-122.644 1099.86,-100 1095.63,-99.0214 1091.24,-97.8433 1086.91,-96.5828"/>
<polygon fill="midnightblue" stroke="midnightblue" points="1087.63,-93.1409 1077.04,-93.5473 1085.57,-99.8318 1087.63,-93.1409"/>
</g>
<!-- Node27 -->
<g id="node27" class="node"><title>Node27</title>
<polygon fill="none" stroke="#bfbfbf" points="1604.36,-69 1604.36,-99 1755.36,-99 1755.36,-69 1604.36,-69"/>
<text text-anchor="start" x="1612.36" y="-87" font-family="Helvetica,sans-Serif" font-size="10.00">Math/GenVector/Displacement</text>
<text text-anchor="middle" x="1679.86" y="-76" font-family="Helvetica,sans-Serif" font-size="10.00">Vector3D.h</text>
</g>
<!-- Node26&#45;&gt;Node27 -->
<g id="edge30" class="edge"><title>Node26&#45;&gt;Node27</title>
<path fill="none" stroke="midnightblue" d="M1476.45,-142.372C1512.8,-132.117 1574.31,-114.77 1620.19,-101.829"/>
<polygon fill="midnightblue" stroke="midnightblue" points="1621.35,-105.139 1630.02,-99.0562 1619.45,-98.4023 1621.35,-105.139"/>
</g>
<!-- Node28 -->
<g id="node28" class="node"><title>Node28</title>
<polygon fill="none" stroke="#bfbfbf" points="1773.86,-74.5 1773.86,-93.5 1949.86,-93.5 1949.86,-74.5 1773.86,-74.5"/>
<text text-anchor="middle" x="1861.86" y="-81.5" font-family="Helvetica,sans-Serif" font-size="10.00">Math/GenVector/PositionVector3D.h</text>
</g>
<!-- Node26&#45;&gt;Node28 -->
<g id="edge31" class="edge"><title>Node26&#45;&gt;Node28</title>
<path fill="none" stroke="midnightblue" d="M1499.81,-142.439C1576.34,-130.298 1716.17,-108.114 1797.84,-95.156"/>
<polygon fill="midnightblue" stroke="midnightblue" points="1798.67,-98.5693 1807.99,-93.5455 1797.57,-91.6558 1798.67,-98.5693"/>
</g>
<!-- Node29 -->
<g id="node29" class="node"><title>Node29</title>
<polygon fill="none" stroke="#bfbfbf" points="1967.36,-74.5 1967.36,-93.5 2116.36,-93.5 2116.36,-74.5 1967.36,-74.5"/>
<text text-anchor="middle" x="2041.86" y="-81.5" font-family="Helvetica,sans-Serif" font-size="10.00">Math/GenVector/Rotation3D.h</text>
</g>
<!-- Node26&#45;&gt;Node29 -->
<g id="edge32" class="edge"><title>Node26&#45;&gt;Node29</title>
<path fill="none" stroke="midnightblue" d="M1508.7,-146.317C1605.45,-138.751 1796.6,-122.395 1957.86,-100 1967.65,-98.6398 1978.05,-96.9691 1988.07,-95.2423"/>
<polygon fill="midnightblue" stroke="midnightblue" points="1988.69,-98.6876 1997.93,-93.5063 1987.47,-91.7937 1988.69,-98.6876"/>
</g>
<!-- Node30 -->
<g id="node30" class="node"><title>Node30</title>
<polygon fill="none" stroke="#bfbfbf" points="1108.86,-74.5 1108.86,-93.5 1264.86,-93.5 1264.86,-74.5 1108.86,-74.5"/>
<text text-anchor="middle" x="1186.86" y="-81.5" font-family="Helvetica,sans-Serif" font-size="10.00">Math/GenVector/Transform3D.h</text>
</g>
<!-- Node26&#45;&gt;Node30 -->
<g id="edge33" class="edge"><title>Node26&#45;&gt;Node30</title>
<path fill="none" stroke="midnightblue" d="M1412.26,-142.439C1365.68,-130.57 1281.44,-109.103 1230.18,-96.0406"/>
<polygon fill="midnightblue" stroke="midnightblue" points="1230.95,-92.6233 1220.39,-93.5455 1229.22,-99.4066 1230.95,-92.6233"/>
</g>
<!-- Node31 -->
<g id="node31" class="node"><title>Node31</title>
<polygon fill="none" stroke="#bfbfbf" points="1282.86,-74.5 1282.86,-93.5 1442.86,-93.5 1442.86,-74.5 1282.86,-74.5"/>
<text text-anchor="middle" x="1362.86" y="-81.5" font-family="Helvetica,sans-Serif" font-size="10.00">Math/GenVector/Translation3D.h</text>
</g>
<!-- Node26&#45;&gt;Node31 -->
<g id="edge34" class="edge"><title>Node26&#45;&gt;Node31</title>
<path fill="none" stroke="midnightblue" d="M1435.01,-142.372C1421.46,-131.6 1398.07,-113.002 1381.6,-99.9065"/>
<polygon fill="midnightblue" stroke="midnightblue" points="1383.72,-97.1149 1373.71,-93.6305 1379.36,-102.594 1383.72,-97.1149"/>
</g>
<!-- Node32 -->
<g id="node32" class="node"><title>Node32</title>
<g id="a_node32"><a xlink:href="../../d2/dd0/Cartesian2D_8h.html" target="_top" xlink:title="MathUtils/Cartesian2D.h">
<polygon fill="none" stroke="black" points="1461.36,-74.5 1461.36,-93.5 1586.36,-93.5 1586.36,-74.5 1461.36,-74.5"/>
<text text-anchor="middle" x="1523.86" y="-81.5" font-family="Helvetica,sans-Serif" font-size="10.00">MathUtils/Cartesian2D.h</text>
</a>
</g>
</g>
<!-- Node26&#45;&gt;Node32 -->
<g id="edge38" class="edge"><title>Node26&#45;&gt;Node32</title>
<path fill="none" stroke="midnightblue" d="M1456.05,-142.372C1468.6,-131.758 1490.12,-113.545 1505.56,-100.485"/>
<polygon fill="midnightblue" stroke="midnightblue" points="1508.03,-102.972 1513.41,-93.8411 1503.51,-97.6287 1508.03,-102.972"/>
</g>
<!-- Node33 -->
<g id="node33" class="node"><title>Node33</title>
<polygon fill="none" stroke="#bfbfbf" points="1357.36,-1 1357.36,-31 1508.36,-31 1508.36,-1 1357.36,-1"/>
<text text-anchor="start" x="1365.36" y="-19" font-family="Helvetica,sans-Serif" font-size="10.00">Math/GenVector/Displacement</text>
<text text-anchor="middle" x="1432.86" y="-8" font-family="Helvetica,sans-Serif" font-size="10.00">Vector2D.h</text>
</g>
<!-- Node32&#45;&gt;Node33 -->
<g id="edge39" class="edge"><title>Node32&#45;&gt;Node33</title>
<path fill="none" stroke="midnightblue" d="M1511.96,-74.3717C1499.08,-65.0286 1478.08,-49.7966 1460.95,-37.375"/>
<polygon fill="midnightblue" stroke="midnightblue" points="1462.56,-34.2194 1452.41,-31.1815 1458.45,-39.8859 1462.56,-34.2194"/>
</g>
<!-- Node34 -->
<g id="node34" class="node"><title>Node34</title>
<polygon fill="none" stroke="#bfbfbf" points="1526.86,-6.5 1526.86,-25.5 1702.86,-25.5 1702.86,-6.5 1526.86,-6.5"/>
<text text-anchor="middle" x="1614.86" y="-13.5" font-family="Helvetica,sans-Serif" font-size="10.00">Math/GenVector/PositionVector2D.h</text>
</g>
<!-- Node32&#45;&gt;Node34 -->
<g id="edge40" class="edge"><title>Node32&#45;&gt;Node34</title>
<path fill="none" stroke="midnightblue" d="M1535.75,-74.3717C1550.74,-63.5015 1576.72,-44.6602 1594.8,-31.5474"/>
<polygon fill="midnightblue" stroke="midnightblue" points="1596.92,-34.3349 1602.96,-25.6305 1592.81,-28.6684 1596.92,-34.3349"/>
</g>
<!-- Node36 -->
<g id="node36" class="node"><title>Node36</title>
<g id="a_node36"><a xlink:href="../../d4/d25/BaseHits_8h.html" target="_top" xlink:title="SimulationDataFormat\l/BaseHits.h">
<polygon fill="none" stroke="black" points="1431.86,-205 1431.86,-235 1545.86,-235 1545.86,-205 1431.86,-205"/>
<text text-anchor="start" x="1439.86" y="-223" font-family="Helvetica,sans-Serif" font-size="10.00">SimulationDataFormat</text>
<text text-anchor="middle" x="1488.86" y="-212" font-family="Helvetica,sans-Serif" font-size="10.00">/BaseHits.h</text>
</a>
</g>
</g>
<!-- Node35&#45;&gt;Node36 -->
<g id="edge43" class="edge"><title>Node35&#45;&gt;Node36</title>
<path fill="none" stroke="midnightblue" d="M1140.9,-275.332C1204.84,-267.69 1320.06,-253.058 1417.86,-236 1419.11,-235.781 1420.38,-235.556 1421.66,-235.325"/>
<polygon fill="midnightblue" stroke="midnightblue" points="1422.39,-238.749 1431.57,-233.467 1421.1,-231.869 1422.39,-238.749"/>
</g>
<!-- Node36&#45;&gt;Node26 -->
<g id="edge44" class="edge"><title>Node36&#45;&gt;Node26</title>
<path fill="none" stroke="midnightblue" d="M1479.53,-204.679C1472.95,-194.592 1464.12,-181.033 1457.15,-170.335"/>
<polygon fill="midnightblue" stroke="midnightblue" points="1460,-168.296 1451.61,-161.828 1454.13,-172.118 1460,-168.296"/>
</g>
<!-- Node37&#45;&gt;Node7 -->
<g id="edge51" class="edge"><title>Node37&#45;&gt;Node7</title>
<path fill="none" stroke="midnightblue" d="M95.4904,-328.814C56.3259,-293.195 -35.8172,-198.391 15.8563,-136 44.7082,-101.164 179.335,-89.9372 246.518,-86.4694"/>
<polygon fill="midnightblue" stroke="midnightblue" points="246.875,-89.9563 256.694,-85.9771 246.537,-82.9645 246.875,-89.9563"/>
</g>
</g>
</svg>
