<?xml version="1.0" encoding="UTF-8" standalone="no"?>
<!DOCTYPE svg PUBLIC "-//W3C//DTD SVG 1.1//EN"
 "http://www.w3.org/Graphics/SVG/1.1/DTD/svg11.dtd">
<!-- Generated by graphviz version 2.36.0 (20140111.2315)
 -->
<!-- Title: /home/travis/build/AliceO2Group/AliceO2/Detectors/ITSMFT/ITS/reconstruction/include/ITSReconstruction/CA/MathUtils.h Pages: 1 -->
<svg width="331pt" height="264pt"
 viewBox="0.00 0.00 331.00 264.00" xmlns="http://www.w3.org/2000/svg" xmlns:xlink="http://www.w3.org/1999/xlink">
<g id="graph0" class="graph" transform="scale(1 1) rotate(0) translate(4 260)">
<title>/home/travis/build/AliceO2Group/AliceO2/Detectors/ITSMFT/ITS/reconstruction/include/ITSReconstruction/CA/MathUtils.h</title>
<!-- Node1 -->
<g id="node1" class="node"><title>Node1</title>
<polygon fill="#bfbfbf" stroke="black" points="0,-192.5 0,-255.5 172,-255.5 172,-192.5 0,-192.5"/>
<text text-anchor="start" x="8" y="-243.5" font-family="Helvetica,sans-Serif" font-size="10.00">/home/travis/build</text>
<text text-anchor="start" x="8" y="-232.5" font-family="Helvetica,sans-Serif" font-size="10.00">/AliceO2Group/AliceO2</text>
<text text-anchor="start" x="8" y="-221.5" font-family="Helvetica,sans-Serif" font-size="10.00">/Detectors/ITSMFT/ITS</text>
<text text-anchor="start" x="8" y="-210.5" font-family="Helvetica,sans-Serif" font-size="10.00">/reconstruction/include</text>
<text text-anchor="middle" x="86" y="-199.5" font-family="Helvetica,sans-Serif" font-size="10.00">/ITSReconstruction/CA/MathUtils.h</text>
</g>
<!-- Node2 -->
<g id="node2" class="node"><title>Node2</title>
<polygon fill="none" stroke="#bfbfbf" points="131,-0.5 131,-19.5 169,-19.5 169,-0.5 131,-0.5"/>
<text text-anchor="middle" x="150" y="-7.5" font-family="Helvetica,sans-Serif" font-size="10.00">array</text>
</g>
<!-- Node1&#45;&gt;Node2 -->
<g id="edge1" class="edge"><title>Node1&#45;&gt;Node2</title>
<path fill="none" stroke="midnightblue" d="M68.4005,-192.292C62.982,-181.219 57.7278,-168.392 55,-156 45.308,-111.972 44.8518,-91.9912 72,-56 84.4345,-39.5152 104.801,-28.0621 121.604,-20.8367"/>
<polygon fill="midnightblue" stroke="midnightblue" points="123.023,-24.0386 130.999,-17.065 120.415,-17.5426 123.023,-24.0386"/>
</g>
<!-- Node3 -->
<g id="node3" class="node"><title>Node3</title>
<polygon fill="none" stroke="#bfbfbf" points="64,-130.5 64,-149.5 108,-149.5 108,-130.5 64,-130.5"/>
<text text-anchor="middle" x="86" y="-137.5" font-family="Helvetica,sans-Serif" font-size="10.00">cmath</text>
</g>
<!-- Node1&#45;&gt;Node3 -->
<g id="edge2" class="edge"><title>Node1&#45;&gt;Node3</title>
<path fill="none" stroke="midnightblue" d="M86,-192.466C86,-181.47 86,-169.396 86,-159.709"/>
<polygon fill="midnightblue" stroke="midnightblue" points="89.5001,-159.64 86,-149.64 82.5001,-159.64 89.5001,-159.64"/>
</g>
<!-- Node4 -->
<g id="node4" class="node"><title>Node4</title>
<g id="a_node4"><a xlink:href="../../d5/d20/Detectors_2ITSMFT_2ITS_2reconstruction_2include_2ITSReconstruction_2CA_2Constants_8h.html" target="_top" xlink:title="ITSReconstruction/CA\l/Constants.h">
<polygon fill="none" stroke="black" points="126,-125 126,-155 242,-155 242,-125 126,-125"/>
<text text-anchor="start" x="134" y="-143" font-family="Helvetica,sans-Serif" font-size="10.00">ITSReconstruction/CA</text>
<text text-anchor="middle" x="184" y="-132" font-family="Helvetica,sans-Serif" font-size="10.00">/Constants.h</text>
</a>
</g>
</g>
<!-- Node1&#45;&gt;Node4 -->
<g id="edge3" class="edge"><title>Node1&#45;&gt;Node4</title>
<path fill="none" stroke="midnightblue" d="M122.492,-192.466C134.841,-182.133 148.325,-170.85 159.514,-161.489"/>
<polygon fill="midnightblue" stroke="midnightblue" points="161.782,-164.154 167.205,-155.053 157.29,-158.786 161.782,-164.154"/>
</g>
<!-- Node5 -->
<g id="node5" class="node"><title>Node5</title>
<polygon fill="none" stroke="#bfbfbf" points="81.5,-62.5 81.5,-81.5 126.5,-81.5 126.5,-62.5 81.5,-62.5"/>
<text text-anchor="middle" x="104" y="-69.5" font-family="Helvetica,sans-Serif" font-size="10.00">climits</text>
</g>
<!-- Node4&#45;&gt;Node5 -->
<g id="edge4" class="edge"><title>Node4&#45;&gt;Node5</title>
<path fill="none" stroke="midnightblue" d="M166.641,-124.679C153.673,-113.981 135.972,-99.3768 122.694,-88.4223"/>
<polygon fill="midnightblue" stroke="midnightblue" points="124.642,-85.4923 114.701,-81.8283 120.187,-90.892 124.642,-85.4923"/>
</g>
<!-- Node6 -->
<g id="node6" class="node"><title>Node6</title>
<polygon fill="none" stroke="#bfbfbf" points="145,-62.5 145,-81.5 189,-81.5 189,-62.5 145,-62.5"/>
<text text-anchor="middle" x="167" y="-69.5" font-family="Helvetica,sans-Serif" font-size="10.00">vector</text>
</g>
<!-- Node4&#45;&gt;Node6 -->
<g id="edge5" class="edge"><title>Node4&#45;&gt;Node6</title>
<path fill="none" stroke="midnightblue" d="M180.311,-124.679C177.818,-114.999 174.501,-102.123 171.802,-91.6449"/>
<polygon fill="midnightblue" stroke="midnightblue" points="175.158,-90.6392 169.274,-81.8283 168.379,-92.3853 175.158,-90.6392"/>
</g>
<!-- Node7 -->
<g id="node7" class="node"><title>Node7</title>
<g id="a_node7"><a xlink:href="../../df/d3d/Definitions_8h.html" target="_top" xlink:title="ITSReconstruction/CA\l/Definitions.h">
<polygon fill="none" stroke="black" points="207,-57 207,-87 323,-87 323,-57 207,-57"/>
<text text-anchor="start" x="215" y="-75" font-family="Helvetica,sans-Serif" font-size="10.00">ITSReconstruction/CA</text>
<text text-anchor="middle" x="265" y="-64" font-family="Helvetica,sans-Serif" font-size="10.00">/Definitions.h</text>
</a>
</g>
</g>
<!-- Node4&#45;&gt;Node7 -->
<g id="edge6" class="edge"><title>Node4&#45;&gt;Node7</title>
<path fill="none" stroke="midnightblue" d="M201.576,-124.679C212.797,-115.536 227.52,-103.54 239.955,-93.407"/>
<polygon fill="midnightblue" stroke="midnightblue" points="242.195,-96.0964 247.737,-87.0663 237.774,-90.6698 242.195,-96.0964"/>
</g>
<!-- Node7&#45;&gt;Node2 -->
<g id="edge7" class="edge"><title>Node7&#45;&gt;Node2</title>
<path fill="none" stroke="midnightblue" d="M238.038,-56.9327C219.155,-47.0811 194.084,-34.0004 175.527,-24.3182"/>
<polygon fill="midnightblue" stroke="midnightblue" points="176.968,-21.1227 166.483,-19.6 173.73,-27.3288 176.968,-21.1227"/>
</g>
</g>
</svg>
