<?xml version="1.0" encoding="UTF-8" standalone="no"?>
<!DOCTYPE svg PUBLIC "-//W3C//DTD SVG 1.1//EN"
 "http://www.w3.org/Graphics/SVG/1.1/DTD/svg11.dtd">
<!-- Generated by graphviz version 2.36.0 (20140111.2315)
 -->
<!-- Title: /home/travis/build/AliceO2Group/AliceO2/Detectors/MUON/MCH/Contour/include/MCHContour/Helper.h Pages: 1 -->
<!--zoomable 802 -->
<svg id="main" version="1.1" xmlns="http://www.w3.org/2000/svg" xmlns:xlink="http://www.w3.org/1999/xlink" xml:space="preserve" onload="init(evt)">
<style type="text/css"><![CDATA[
.edge:hover path { stroke: red; }
.edge:hover polygon { stroke: red; fill: red; }
]]></style>
<script type="text/javascript"><![CDATA[
var edges = document.getElementsByTagName('g');
if (edges && edges.length) {
  for (var i=0;i<edges.length;i++) {
    if (edges[i].id.substr(0,4)=='edge') {
      edges[i].setAttribute('class','edge');
    }
  }
}
]]></script>
        <defs>
                <circle id="rim" cx="0" cy="0" r="7"/>
                <circle id="rim2" cx="0" cy="0" r="3.5"/>
                <g id="zoomPlus">
                        <use xlink:href="#rim" fill="#404040">
                                <set attributeName="fill" to="#808080" begin="zoomplus.mouseover" end="zoomplus.mouseout"/>
                        </use>
                        <path d="M-4,0h8M0,-4v8" fill="none" stroke="white" stroke-width="1.5" pointer-events="none"/>
                </g>
                <g id="zoomMin">
                        <use xlink:href="#rim" fill="#404040">
                                <set attributeName="fill" to="#808080" begin="zoomminus.mouseover" end="zoomminus.mouseout"/>
                        </use>
                        <path d="M-4,0h8" fill="none" stroke="white" stroke-width="1.5" pointer-events="none"/>
                </g>
                <g id="dirArrow">
                        <path fill="none" stroke="white" stroke-width="1.5" d="M0,-3.0v7 M-2.5,-0.5L0,-3.0L2.5,-0.5"/>
                </g>
               <g id="resetDef">
                       <use xlink:href="#rim2" fill="#404040">
                               <set attributeName="fill" to="#808080" begin="reset.mouseover" end="reset.mouseout"/>
                       </use>
               </g>
        </defs>

<script type="text/javascript">
var viewWidth = 1524;
var viewHeight = 802;
var sectionId = 'dynsection-1';
</script>
<script xlink:href="../../svgpan.js"/>
<svg id="graph" class="graph">
<g id="viewport">
<title>/home/travis/build/AliceO2Group/AliceO2/Detectors/MUON/MCH/Contour/include/MCHContour/Helper.h</title>
<!-- Node1 -->
<g id="node1" class="node"><title>Node1</title>
<polygon fill="#bfbfbf" stroke="black" points="801,-741 801,-793 961,-793 961,-741 801,-741"/>
<text text-anchor="start" x="809" y="-781" font-family="Helvetica,sans-Serif" font-size="10.00">/home/travis/build</text>
<text text-anchor="start" x="809" y="-770" font-family="Helvetica,sans-Serif" font-size="10.00">/AliceO2Group/AliceO2</text>
<text text-anchor="start" x="809" y="-759" font-family="Helvetica,sans-Serif" font-size="10.00">/Detectors/MUON/MCH/Contour</text>
<text text-anchor="middle" x="881" y="-748" font-family="Helvetica,sans-Serif" font-size="10.00">/include/MCHContour/Helper.h</text>
</g>
<!-- Node2 -->
<g id="node2" class="node"><title>Node2</title>
<g id="a_node2"><a xlink:href="../../d0/ddc/BBox_8h.html" target="_top" xlink:title="/home/travis/build\l/AliceO2Group/AliceO2\l/Detectors/MUON/MCH/Contour\l/include/MCHContour/BBox.h">
<polygon fill="none" stroke="black" points="488,-651 488,-703 648,-703 648,-651 488,-651"/>
<text text-anchor="start" x="496" y="-691" font-family="Helvetica,sans-Serif" font-size="10.00">/home/travis/build</text>
<text text-anchor="start" x="496" y="-680" font-family="Helvetica,sans-Serif" font-size="10.00">/AliceO2Group/AliceO2</text>
<text text-anchor="start" x="496" y="-669" font-family="Helvetica,sans-Serif" font-size="10.00">/Detectors/MUON/MCH/Contour</text>
<text text-anchor="middle" x="568" y="-658" font-family="Helvetica,sans-Serif" font-size="10.00">/include/MCHContour/BBox.h</text>
</a>
</g>
</g>
<!-- Node1&#45;&gt;Node2 -->
<g id="edge1" class="edge"><title>Node1&#45;&gt;Node2</title>
<path fill="none" stroke="midnightblue" d="M791.038,-740.707C745.985,-728.041 691.893,-712.832 648.262,-700.566"/>
<polygon fill="midnightblue" stroke="midnightblue" points="790.227,-744.115 800.801,-743.452 792.122,-737.376 790.227,-744.115"/>
</g>
<!-- Node20 -->
<g id="node20" class="node"><title>Node20</title>
<g id="a_node20"><a xlink:href="../../dd/dbc/Detectors_2MUON_2MCH_2Contour_2include_2MCHContour_2Vertex_8h.html" target="_top" xlink:title="/home/travis/build\l/AliceO2Group/AliceO2\l/Detectors/MUON/MCH/Contour\l/include/MCHContour/Vertex.h">
<polygon fill="none" stroke="black" points="801,-651 801,-703 961,-703 961,-651 801,-651"/>
<text text-anchor="start" x="809" y="-691" font-family="Helvetica,sans-Serif" font-size="10.00">/home/travis/build</text>
<text text-anchor="start" x="809" y="-680" font-family="Helvetica,sans-Serif" font-size="10.00">/AliceO2Group/AliceO2</text>
<text text-anchor="start" x="809" y="-669" font-family="Helvetica,sans-Serif" font-size="10.00">/Detectors/MUON/MCH/Contour</text>
<text text-anchor="middle" x="881" y="-658" font-family="Helvetica,sans-Serif" font-size="10.00">/include/MCHContour/Vertex.h</text>
</a>
</g>
</g>
<!-- Node1&#45;&gt;Node20 -->
<g id="edge34" class="edge"><title>Node1&#45;&gt;Node20</title>
<path fill="none" stroke="midnightblue" d="M881,-730.489C881,-721.309 881,-711.616 881,-703.092"/>
<polygon fill="midnightblue" stroke="midnightblue" points="877.5,-730.547 881,-740.547 884.5,-730.547 877.5,-730.547"/>
</g>
<!-- Node24 -->
<g id="node24" class="node"><title>Node24</title>
<g id="a_node24"><a xlink:href="../../d1/d55/Interval_8h.html" target="_top" xlink:title="/home/travis/build\l/AliceO2Group/AliceO2\l/Detectors/MUON/MCH/Contour\l/include/MCHContour/Interval.h">
<polygon fill="none" stroke="black" points="1068,-651 1068,-703 1228,-703 1228,-651 1068,-651"/>
<text text-anchor="start" x="1076" y="-691" font-family="Helvetica,sans-Serif" font-size="10.00">/home/travis/build</text>
<text text-anchor="start" x="1076" y="-680" font-family="Helvetica,sans-Serif" font-size="10.00">/AliceO2Group/AliceO2</text>
<text text-anchor="start" x="1076" y="-669" font-family="Helvetica,sans-Serif" font-size="10.00">/Detectors/MUON/MCH/Contour</text>
<text text-anchor="middle" x="1148" y="-658" font-family="Helvetica,sans-Serif" font-size="10.00">/include/MCHContour/Interval.h</text>
</a>
</g>
</g>
<!-- Node1&#45;&gt;Node24 -->
<g id="edge40" class="edge"><title>Node1&#45;&gt;Node24</title>
<path fill="none" stroke="midnightblue" d="M966.99,-737.659C1000.69,-726.55 1039.05,-713.91 1071.74,-703.133"/>
<polygon fill="midnightblue" stroke="midnightblue" points="965.556,-734.446 957.154,-740.901 967.747,-741.094 965.556,-734.446"/>
</g>
<!-- Node3 -->
<g id="node3" class="node"><title>Node3</title>
<g id="a_node3"><a xlink:href="../../dc/ddd/Polygon_8h.html" target="_top" xlink:title="/home/travis/build\l/AliceO2Group/AliceO2\l/Detectors/MUON/MCH/Contour\l/include/MCHContour/Polygon.h">
<polygon fill="none" stroke="black" points="623,-561 623,-613 783,-613 783,-561 623,-561"/>
<text text-anchor="start" x="631" y="-601" font-family="Helvetica,sans-Serif" font-size="10.00">/home/travis/build</text>
<text text-anchor="start" x="631" y="-590" font-family="Helvetica,sans-Serif" font-size="10.00">/AliceO2Group/AliceO2</text>
<text text-anchor="start" x="631" y="-579" font-family="Helvetica,sans-Serif" font-size="10.00">/Detectors/MUON/MCH/Contour</text>
<text text-anchor="middle" x="703" y="-568" font-family="Helvetica,sans-Serif" font-size="10.00">/include/MCHContour/Polygon.h</text>
</a>
</g>
</g>
<!-- Node2&#45;&gt;Node3 -->
<g id="edge2" class="edge"><title>Node2&#45;&gt;Node3</title>
<path fill="none" stroke="midnightblue" d="M615.381,-645.114C631.388,-634.68 649.056,-623.163 664.309,-613.221"/>
<polygon fill="midnightblue" stroke="midnightblue" points="613.152,-642.39 606.686,-650.783 616.974,-648.254 613.152,-642.39"/>
</g>
<!-- Node7 -->
<g id="node7" class="node"><title>Node7</title>
<g id="a_node7"><a xlink:href="../../de/d51/SVGWriter_8h.html" target="_top" xlink:title="/home/travis/build\l/AliceO2Group/AliceO2\l/Detectors/MUON/MCH/Contour\l/include/MCHContour/SVGWriter.h">
<polygon fill="none" stroke="black" points="812,-191 812,-243 982,-243 982,-191 812,-191"/>
<text text-anchor="start" x="820" y="-231" font-family="Helvetica,sans-Serif" font-size="10.00">/home/travis/build</text>
<text text-anchor="start" x="820" y="-220" font-family="Helvetica,sans-Serif" font-size="10.00">/AliceO2Group/AliceO2</text>
<text text-anchor="start" x="820" y="-209" font-family="Helvetica,sans-Serif" font-size="10.00">/Detectors/MUON/MCH/Contour</text>
<text text-anchor="middle" x="897" y="-198" font-family="Helvetica,sans-Serif" font-size="10.00">/include/MCHContour/SVGWriter.h</text>
</a>
</g>
</g>
<!-- Node2&#45;&gt;Node7 -->
<g id="edge30" class="edge"><title>Node2&#45;&gt;Node7</title>
<path fill="none" stroke="midnightblue" d="M558.314,-640.865C548.528,-598.242 538.199,-525.241 564,-470 617.768,-354.88 753.976,-279.279 834.554,-243.039"/>
<polygon fill="midnightblue" stroke="midnightblue" points="554.954,-641.862 560.702,-650.762 561.758,-640.22 554.954,-641.862"/>
</g>
<!-- Node16 -->
<g id="node16" class="node"><title>Node16</title>
<g id="a_node16"><a xlink:href="../../dd/d1c/SegmentationContours_8h.html" target="_top" xlink:title="/home/travis/build\l/AliceO2Group/AliceO2\l/Detectors/MUON/MCH/Mapping\l/SegContour/include/MCHMappingSegContour\l/SegmentationContours.h">
<polygon fill="none" stroke="black" points="408,-280.5 408,-343.5 628,-343.5 628,-280.5 408,-280.5"/>
<text text-anchor="start" x="416" y="-331.5" font-family="Helvetica,sans-Serif" font-size="10.00">/home/travis/build</text>
<text text-anchor="start" x="416" y="-320.5" font-family="Helvetica,sans-Serif" font-size="10.00">/AliceO2Group/AliceO2</text>
<text text-anchor="start" x="416" y="-309.5" font-family="Helvetica,sans-Serif" font-size="10.00">/Detectors/MUON/MCH/Mapping</text>
<text text-anchor="start" x="416" y="-298.5" font-family="Helvetica,sans-Serif" font-size="10.00">/SegContour/include/MCHMappingSegContour</text>
<text text-anchor="middle" x="518" y="-287.5" font-family="Helvetica,sans-Serif" font-size="10.00">/SegmentationContours.h</text>
</a>
</g>
</g>
<!-- Node2&#45;&gt;Node16 -->
<g id="edge33" class="edge"><title>Node2&#45;&gt;Node16</title>
<path fill="none" stroke="midnightblue" d="M543.686,-642.054C538.582,-633.303 533.879,-623.626 531,-614 502.524,-518.786 509.156,-399.102 514.469,-343.718"/>
<polygon fill="midnightblue" stroke="midnightblue" points="540.855,-644.131 549.089,-650.798 546.81,-640.452 540.855,-644.131"/>
</g>
<!-- Node18 -->
<g id="node18" class="node"><title>Node18</title>
<g id="a_node18"><a xlink:href="../../d4/d33/Polygon_8cxx.html" target="_top" xlink:title="/home/travis/build\l/AliceO2Group/AliceO2\l/Detectors/MUON/MCH/Contour\l/test/Polygon.cxx">
<polygon fill="none" stroke="black" points="573,-471 573,-523 733,-523 733,-471 573,-471"/>
<text text-anchor="start" x="581" y="-511" font-family="Helvetica,sans-Serif" font-size="10.00">/home/travis/build</text>
<text text-anchor="start" x="581" y="-500" font-family="Helvetica,sans-Serif" font-size="10.00">/AliceO2Group/AliceO2</text>
<text text-anchor="start" x="581" y="-489" font-family="Helvetica,sans-Serif" font-size="10.00">/Detectors/MUON/MCH/Contour</text>
<text text-anchor="middle" x="653" y="-478" font-family="Helvetica,sans-Serif" font-size="10.00">/test/Polygon.cxx</text>
</a>
</g>
</g>
<!-- Node2&#45;&gt;Node18 -->
<g id="edge32" class="edge"><title>Node2&#45;&gt;Node18</title>
<path fill="none" stroke="midnightblue" d="M579.804,-641.457C588.274,-618.001 600.534,-586.541 614,-560 620.386,-547.412 628.567,-534.084 635.785,-523.024"/>
<polygon fill="midnightblue" stroke="midnightblue" points="576.469,-640.388 576.413,-650.983 583.064,-642.735 576.469,-640.388"/>
</g>
<!-- Node19 -->
<g id="node19" class="node"><title>Node19</title>
<g id="a_node19"><a xlink:href="../../d4/da8/BBox_8cxx.html" target="_top" xlink:title="/home/travis/build\l/AliceO2Group/AliceO2\l/Detectors/MUON/MCH/Contour\l/test/BBox.cxx">
<polygon fill="none" stroke="black" points="319,-561 319,-613 479,-613 479,-561 319,-561"/>
<text text-anchor="start" x="327" y="-601" font-family="Helvetica,sans-Serif" font-size="10.00">/home/travis/build</text>
<text text-anchor="start" x="327" y="-590" font-family="Helvetica,sans-Serif" font-size="10.00">/AliceO2Group/AliceO2</text>
<text text-anchor="start" x="327" y="-579" font-family="Helvetica,sans-Serif" font-size="10.00">/Detectors/MUON/MCH/Contour</text>
<text text-anchor="middle" x="399" y="-568" font-family="Helvetica,sans-Serif" font-size="10.00">/test/BBox.cxx</text>
</a>
</g>
</g>
<!-- Node2&#45;&gt;Node19 -->
<g id="edge31" class="edge"><title>Node2&#45;&gt;Node19</title>
<path fill="none" stroke="midnightblue" d="M510.588,-646.105C489.953,-635.36 466.909,-623.361 447.143,-613.069"/>
<polygon fill="midnightblue" stroke="midnightblue" points="509.085,-649.269 519.571,-650.783 512.318,-643.06 509.085,-649.269"/>
</g>
<!-- Node4 -->
<g id="node4" class="node"><title>Node4</title>
<g id="a_node4"><a xlink:href="../../db/d08/Contour_8h.html" target="_top" xlink:title="/home/travis/build\l/AliceO2Group/AliceO2\l/Detectors/MUON/MCH/Contour\l/include/MCHContour/Contour.h">
<polygon fill="none" stroke="black" points="789,-471 789,-523 949,-523 949,-471 789,-471"/>
<text text-anchor="start" x="797" y="-511" font-family="Helvetica,sans-Serif" font-size="10.00">/home/travis/build</text>
<text text-anchor="start" x="797" y="-500" font-family="Helvetica,sans-Serif" font-size="10.00">/AliceO2Group/AliceO2</text>
<text text-anchor="start" x="797" y="-489" font-family="Helvetica,sans-Serif" font-size="10.00">/Detectors/MUON/MCH/Contour</text>
<text text-anchor="middle" x="869" y="-478" font-family="Helvetica,sans-Serif" font-size="10.00">/include/MCHContour/Contour.h</text>
</a>
</g>
</g>
<!-- Node3&#45;&gt;Node4 -->
<g id="edge3" class="edge"><title>Node3&#45;&gt;Node4</title>
<path fill="none" stroke="midnightblue" d="M759.666,-555.96C779.864,-545.253 802.384,-533.315 821.711,-523.069"/>
<polygon fill="midnightblue" stroke="midnightblue" points="757.765,-553.007 750.569,-560.783 761.044,-559.191 757.765,-553.007"/>
</g>
<!-- Node5 -->
<g id="node5" class="node"><title>Node5</title>
<g id="a_node5"><a xlink:href="../../dc/d15/ContourCreator_8inl.html" target="_top" xlink:title="/home/travis/build\l/AliceO2Group/AliceO2\l/Detectors/MUON/MCH/Contour\l/include/MCHContour/ContourCreator.inl">
<polygon fill="none" stroke="black" points="964,-381 964,-433 1158,-433 1158,-381 964,-381"/>
<text text-anchor="start" x="972" y="-421" font-family="Helvetica,sans-Serif" font-size="10.00">/home/travis/build</text>
<text text-anchor="start" x="972" y="-410" font-family="Helvetica,sans-Serif" font-size="10.00">/AliceO2Group/AliceO2</text>
<text text-anchor="start" x="972" y="-399" font-family="Helvetica,sans-Serif" font-size="10.00">/Detectors/MUON/MCH/Contour</text>
<text text-anchor="middle" x="1061" y="-388" font-family="Helvetica,sans-Serif" font-size="10.00">/include/MCHContour/ContourCreator.inl</text>
</a>
</g>
</g>
<!-- Node3&#45;&gt;Node5 -->
<g id="edge27" class="edge"><title>Node3&#45;&gt;Node5</title>
<path fill="none" stroke="midnightblue" d="M793.248,-559.86C867.499,-543.003 895.504,-560.544 958,-524 996.361,-501.569 1028.06,-459.864 1045.75,-433.049"/>
<polygon fill="midnightblue" stroke="midnightblue" points="792.362,-556.473 783.46,-562.218 794.002,-563.278 792.362,-556.473"/>
</g>
<!-- Node3&#45;&gt;Node16 -->
<g id="edge29" class="edge"><title>Node3&#45;&gt;Node16</title>
<path fill="none" stroke="midnightblue" d="M729.58,-552.265C745.441,-527.757 759.415,-494.696 742,-470 714.536,-431.055 681.381,-459.306 641,-434 601.911,-409.504 565.34,-370.693 542.403,-343.654"/>
<polygon fill="midnightblue" stroke="midnightblue" points="726.675,-550.314 723.94,-560.549 732.461,-554.253 726.675,-550.314"/>
</g>
<!-- Node3&#45;&gt;Node18 -->
<g id="edge28" class="edge"><title>Node3&#45;&gt;Node18</title>
<path fill="none" stroke="midnightblue" d="M683.495,-551.671C678.082,-542.145 672.308,-531.983 667.257,-523.092"/>
<polygon fill="midnightblue" stroke="midnightblue" points="680.555,-553.581 688.538,-560.547 686.641,-550.123 680.555,-553.581"/>
</g>
<!-- Node4&#45;&gt;Node5 -->
<g id="edge4" class="edge"><title>Node4&#45;&gt;Node5</title>
<path fill="none" stroke="midnightblue" d="M933.029,-466.654C956.726,-455.792 983.357,-443.586 1006.16,-433.133"/>
<polygon fill="midnightblue" stroke="midnightblue" points="931.395,-463.552 923.763,-470.901 934.312,-469.916 931.395,-463.552"/>
</g>
<!-- Node4&#45;&gt;Node7 -->
<g id="edge18" class="edge"><title>Node4&#45;&gt;Node7</title>
<path fill="none" stroke="midnightblue" d="M805.029,-465.077C793.759,-456.624 783.551,-446.315 777,-434 765.728,-412.812 769.478,-402.791 777,-380 795.264,-324.66 840.531,-272.778 869.951,-243.265"/>
<polygon fill="midnightblue" stroke="midnightblue" points="803.182,-468.056 813.387,-470.905 807.187,-462.314 803.182,-468.056"/>
</g>
<!-- Node15 -->
<g id="node15" class="node"><title>Node15</title>
<g id="a_node15"><a xlink:href="../../d8/d3b/Contour_8cxx.html" target="_top" xlink:title="/home/travis/build\l/AliceO2Group/AliceO2\l/Detectors/MUON/MCH/Contour\l/test/Contour.cxx">
<polygon fill="none" stroke="black" points="786,-381 786,-433 946,-433 946,-381 786,-381"/>
<text text-anchor="start" x="794" y="-421" font-family="Helvetica,sans-Serif" font-size="10.00">/home/travis/build</text>
<text text-anchor="start" x="794" y="-410" font-family="Helvetica,sans-Serif" font-size="10.00">/AliceO2Group/AliceO2</text>
<text text-anchor="start" x="794" y="-399" font-family="Helvetica,sans-Serif" font-size="10.00">/Detectors/MUON/MCH/Contour</text>
<text text-anchor="middle" x="866" y="-388" font-family="Helvetica,sans-Serif" font-size="10.00">/test/Contour.cxx</text>
</a>
</g>
</g>
<!-- Node4&#45;&gt;Node15 -->
<g id="edge19" class="edge"><title>Node4&#45;&gt;Node15</title>
<path fill="none" stroke="midnightblue" d="M867.789,-460.489C867.476,-451.309 867.146,-441.616 866.855,-433.092"/>
<polygon fill="midnightblue" stroke="midnightblue" points="864.294,-460.672 868.132,-470.547 871.289,-460.433 864.294,-460.672"/>
</g>
<!-- Node4&#45;&gt;Node16 -->
<g id="edge20" class="edge"><title>Node4&#45;&gt;Node16</title>
<path fill="none" stroke="midnightblue" d="M808.213,-466.322C787.743,-456.203 764.819,-444.733 744,-434 685.652,-403.919 619.514,-368.333 573.934,-343.571"/>
<polygon fill="midnightblue" stroke="midnightblue" points="806.912,-469.583 817.429,-470.869 810.009,-463.306 806.912,-469.583"/>
</g>
<!-- Node6 -->
<g id="node6" class="node"><title>Node6</title>
<g id="a_node6"><a xlink:href="../../d4/d84/ContourCreator_8h.html" target="_top" xlink:title="/home/travis/build\l/AliceO2Group/AliceO2\l/Detectors/MUON/MCH/Contour\l/include/MCHContour/ContourCreator.h">
<polygon fill="none" stroke="black" points="884.5,-286 884.5,-338 1073.5,-338 1073.5,-286 884.5,-286"/>
<text text-anchor="start" x="892.5" y="-326" font-family="Helvetica,sans-Serif" font-size="10.00">/home/travis/build</text>
<text text-anchor="start" x="892.5" y="-315" font-family="Helvetica,sans-Serif" font-size="10.00">/AliceO2Group/AliceO2</text>
<text text-anchor="start" x="892.5" y="-304" font-family="Helvetica,sans-Serif" font-size="10.00">/Detectors/MUON/MCH/Contour</text>
<text text-anchor="middle" x="979" y="-293" font-family="Helvetica,sans-Serif" font-size="10.00">/include/MCHContour/ContourCreator.h</text>
</a>
</g>
</g>
<!-- Node5&#45;&gt;Node6 -->
<g id="edge5" class="edge"><title>Node5&#45;&gt;Node6</title>
<path fill="none" stroke="midnightblue" d="M1031.8,-372.879C1021.69,-361.416 1010.54,-348.767 1001.1,-338.06"/>
<polygon fill="midnightblue" stroke="midnightblue" points="1029.35,-375.401 1038.59,-380.587 1034.6,-370.772 1029.35,-375.401"/>
</g>
<!-- Node6&#45;&gt;Node7 -->
<g id="edge6" class="edge"><title>Node6&#45;&gt;Node7</title>
<path fill="none" stroke="midnightblue" d="M949.797,-277.879C939.689,-266.416 928.537,-253.767 919.096,-243.06"/>
<polygon fill="midnightblue" stroke="midnightblue" points="947.354,-280.401 956.593,-285.587 952.605,-275.772 947.354,-280.401"/>
</g>
<!-- Node13 -->
<g id="node13" class="node"><title>Node13</title>
<g id="a_node13"><a xlink:href="../../d3/d4a/ContourCreator_8cxx.html" target="_top" xlink:title="/home/travis/build\l/AliceO2Group/AliceO2\l/Detectors/MUON/MCH/Contour\l/test/ContourCreator.cxx">
<polygon fill="none" stroke="black" points="1000,-191 1000,-243 1160,-243 1160,-191 1000,-191"/>
<text text-anchor="start" x="1008" y="-231" font-family="Helvetica,sans-Serif" font-size="10.00">/home/travis/build</text>
<text text-anchor="start" x="1008" y="-220" font-family="Helvetica,sans-Serif" font-size="10.00">/AliceO2Group/AliceO2</text>
<text text-anchor="start" x="1008" y="-209" font-family="Helvetica,sans-Serif" font-size="10.00">/Detectors/MUON/MCH/Contour</text>
<text text-anchor="middle" x="1080" y="-198" font-family="Helvetica,sans-Serif" font-size="10.00">/test/ContourCreator.cxx</text>
</a>
</g>
</g>
<!-- Node6&#45;&gt;Node13 -->
<g id="edge16" class="edge"><title>Node6&#45;&gt;Node13</title>
<path fill="none" stroke="midnightblue" d="M1013.99,-278.779C1026.65,-267.126 1040.74,-254.148 1052.65,-243.187"/>
<polygon fill="midnightblue" stroke="midnightblue" points="1011.32,-276.484 1006.33,-285.833 1016.06,-281.634 1011.32,-276.484"/>
</g>
<!-- Node14 -->
<g id="node14" class="node"><title>Node14</title>
<g id="a_node14"><a xlink:href="../../de/de2/SegmentationContours_8cxx.html" target="_top" xlink:title="/home/travis/build\l/AliceO2Group/AliceO2\l/Detectors/MUON/MCH/Mapping\l/SegContour/src/SegmentationContours.cxx">
<polygon fill="none" stroke="black" points="584.5,-191 584.5,-243 793.5,-243 793.5,-191 584.5,-191"/>
<text text-anchor="start" x="592.5" y="-231" font-family="Helvetica,sans-Serif" font-size="10.00">/home/travis/build</text>
<text text-anchor="start" x="592.5" y="-220" font-family="Helvetica,sans-Serif" font-size="10.00">/AliceO2Group/AliceO2</text>
<text text-anchor="start" x="592.5" y="-209" font-family="Helvetica,sans-Serif" font-size="10.00">/Detectors/MUON/MCH/Mapping</text>
<text text-anchor="middle" x="689" y="-198" font-family="Helvetica,sans-Serif" font-size="10.00">/SegContour/src/SegmentationContours.cxx</text>
</a>
</g>
</g>
<!-- Node6&#45;&gt;Node14 -->
<g id="edge17" class="edge"><title>Node6&#45;&gt;Node14</title>
<path fill="none" stroke="midnightblue" d="M891.261,-282.863C851.684,-270.171 805.326,-255.305 766.984,-243.009"/>
<polygon fill="midnightblue" stroke="midnightblue" points="890.313,-286.234 900.904,-285.955 892.45,-279.569 890.313,-286.234"/>
</g>
<!-- Node8 -->
<g id="node8" class="node"><title>Node8</title>
<g id="a_node8"><a xlink:href="../../d5/d3f/SegmentationSVGWriter_8h.html" target="_top" xlink:title="/home/travis/build\l/AliceO2Group/AliceO2\l/Detectors/MUON/MCH/Mapping\l/SegContour/include/MCHMappingSegContour\l/SegmentationSVGWriter.h">
<polygon fill="none" stroke="black" points="270,-90.5 270,-153.5 490,-153.5 490,-90.5 270,-90.5"/>
<text text-anchor="start" x="278" y="-141.5" font-family="Helvetica,sans-Serif" font-size="10.00">/home/travis/build</text>
<text text-anchor="start" x="278" y="-130.5" font-family="Helvetica,sans-Serif" font-size="10.00">/AliceO2Group/AliceO2</text>
<text text-anchor="start" x="278" y="-119.5" font-family="Helvetica,sans-Serif" font-size="10.00">/Detectors/MUON/MCH/Mapping</text>
<text text-anchor="start" x="278" y="-108.5" font-family="Helvetica,sans-Serif" font-size="10.00">/SegContour/include/MCHMappingSegContour</text>
<text text-anchor="middle" x="380" y="-97.5" font-family="Helvetica,sans-Serif" font-size="10.00">/SegmentationSVGWriter.h</text>
</a>
</g>
</g>
<!-- Node7&#45;&gt;Node8 -->
<g id="edge7" class="edge"><title>Node7&#45;&gt;Node8</title>
<path fill="none" stroke="midnightblue" d="M802.306,-190.063C802.204,-190.042 802.102,-190.021 802,-190 687.723,-166.553 657.105,-172.969 542,-154 525.189,-151.23 507.441,-148.072 490.1,-144.858"/>
<polygon fill="midnightblue" stroke="midnightblue" points="801.419,-193.452 811.933,-192.145 802.899,-186.61 801.419,-193.452"/>
</g>
<!-- Node9 -->
<g id="node9" class="node"><title>Node9</title>
<g id="a_node9"><a xlink:href="../../de/d56/SegmentationSVGWriter_8cxx.html" target="_top" xlink:title="/home/travis/build\l/AliceO2Group/AliceO2\l/Detectors/MUON/MCH/Mapping\l/SegContour/src/SegmentationSVGWriter.cxx">
<polygon fill="none" stroke="black" points="-0.5,-1 -0.5,-53 216.5,-53 216.5,-1 -0.5,-1"/>
<text text-anchor="start" x="7.5" y="-41" font-family="Helvetica,sans-Serif" font-size="10.00">/home/travis/build</text>
<text text-anchor="start" x="7.5" y="-30" font-family="Helvetica,sans-Serif" font-size="10.00">/AliceO2Group/AliceO2</text>
<text text-anchor="start" x="7.5" y="-19" font-family="Helvetica,sans-Serif" font-size="10.00">/Detectors/MUON/MCH/Mapping</text>
<text text-anchor="middle" x="108" y="-8" font-family="Helvetica,sans-Serif" font-size="10.00">/SegContour/src/SegmentationSVGWriter.cxx</text>
</a>
</g>
</g>
<!-- Node7&#45;&gt;Node9 -->
<g id="edge12" class="edge"><title>Node7&#45;&gt;Node9</title>
<path fill="none" stroke="midnightblue" d="M802.308,-190.052C802.206,-190.034 802.103,-190.017 802,-190 679.886,-169.553 359.929,-202.48 246,-154 194.803,-132.215 150.269,-83.07 126.446,-53.0005"/>
<polygon fill="midnightblue" stroke="midnightblue" points="801.52,-193.465 811.99,-191.839 802.792,-186.582 801.52,-193.465"/>
</g>
<!-- Node10 -->
<g id="node10" class="node"><title>Node10</title>
<g id="a_node10"><a xlink:href="../../d2/d0f/SVGSegmentation_8cxx.html" target="_top" xlink:title="/home/travis/build\l/AliceO2Group/AliceO2\l/Detectors/MUON/MCH/Mapping\l/SegContour/src/SVGSegmentation.cxx">
<polygon fill="none" stroke="black" points="234.5,-1 234.5,-53 425.5,-53 425.5,-1 234.5,-1"/>
<text text-anchor="start" x="242.5" y="-41" font-family="Helvetica,sans-Serif" font-size="10.00">/home/travis/build</text>
<text text-anchor="start" x="242.5" y="-30" font-family="Helvetica,sans-Serif" font-size="10.00">/AliceO2Group/AliceO2</text>
<text text-anchor="start" x="242.5" y="-19" font-family="Helvetica,sans-Serif" font-size="10.00">/Detectors/MUON/MCH/Mapping</text>
<text text-anchor="middle" x="330" y="-8" font-family="Helvetica,sans-Serif" font-size="10.00">/SegContour/src/SVGSegmentation.cxx</text>
</a>
</g>
</g>
<!-- Node7&#45;&gt;Node10 -->
<g id="edge13" class="edge"><title>Node7&#45;&gt;Node10</title>
<path fill="none" stroke="midnightblue" d="M802.308,-190.052C802.206,-190.035 802.103,-190.017 802,-190 742.592,-179.998 302.16,-197.99 261,-154 241.566,-133.23 249.417,-115.979 261,-90 267.427,-75.5852 279.045,-63.1209 290.937,-53.2262"/>
<polygon fill="midnightblue" stroke="midnightblue" points="801.518,-193.465 811.989,-191.847 802.794,-186.582 801.518,-193.465"/>
</g>
<!-- Node11 -->
<g id="node11" class="node"><title>Node11</title>
<g id="a_node11"><a xlink:href="../../d5/d2d/MUON_2MCH_2Mapping_2test_2src_2Segmentation_8cxx.html" target="_top" xlink:title="/home/travis/build\l/AliceO2Group/AliceO2\l/Detectors/MUON/MCH/Mapping\l/test/src/Segmentation.cxx">
<polygon fill="none" stroke="black" points="444,-1 444,-53 606,-53 606,-1 444,-1"/>
<text text-anchor="start" x="452" y="-41" font-family="Helvetica,sans-Serif" font-size="10.00">/home/travis/build</text>
<text text-anchor="start" x="452" y="-30" font-family="Helvetica,sans-Serif" font-size="10.00">/AliceO2Group/AliceO2</text>
<text text-anchor="start" x="452" y="-19" font-family="Helvetica,sans-Serif" font-size="10.00">/Detectors/MUON/MCH/Mapping</text>
<text text-anchor="middle" x="525" y="-8" font-family="Helvetica,sans-Serif" font-size="10.00">/test/src/Segmentation.cxx</text>
</a>
</g>
</g>
<!-- Node7&#45;&gt;Node11 -->
<g id="edge14" class="edge"><title>Node7&#45;&gt;Node11</title>
<path fill="none" stroke="midnightblue" d="M835.359,-186.536C814.258,-176.346 790.544,-164.778 769,-154 700.566,-119.764 622.033,-78.9299 572.963,-53.2282"/>
<polygon fill="midnightblue" stroke="midnightblue" points="834.011,-189.772 844.539,-190.963 837.052,-183.467 834.011,-189.772"/>
</g>
<!-- Node12 -->
<g id="node12" class="node"><title>Node12</title>
<g id="a_node12"><a xlink:href="../../df/ded/SegmentationLong_8cxx.html" target="_top" xlink:title="/home/travis/build\l/AliceO2Group/AliceO2\l/Detectors/MUON/MCH/Mapping\l/test/src/SegmentationLong.cxx">
<polygon fill="none" stroke="black" points="624,-1 624,-53 786,-53 786,-1 624,-1"/>
<text text-anchor="start" x="632" y="-41" font-family="Helvetica,sans-Serif" font-size="10.00">/home/travis/build</text>
<text text-anchor="start" x="632" y="-30" font-family="Helvetica,sans-Serif" font-size="10.00">/AliceO2Group/AliceO2</text>
<text text-anchor="start" x="632" y="-19" font-family="Helvetica,sans-Serif" font-size="10.00">/Detectors/MUON/MCH/Mapping</text>
<text text-anchor="middle" x="705" y="-8" font-family="Helvetica,sans-Serif" font-size="10.00">/test/src/SegmentationLong.cxx</text>
</a>
</g>
</g>
<!-- Node7&#45;&gt;Node12 -->
<g id="edge15" class="edge"><title>Node7&#45;&gt;Node12</title>
<path fill="none" stroke="midnightblue" d="M863.878,-183.568C826.117,-146.594 765.186,-86.9323 730.79,-53.2523"/>
<polygon fill="midnightblue" stroke="midnightblue" points="861.512,-186.15 871.106,-190.645 866.41,-181.148 861.512,-186.15"/>
</g>
<!-- Node8&#45;&gt;Node9 -->
<g id="edge8" class="edge"><title>Node8&#45;&gt;Node9</title>
<path fill="none" stroke="midnightblue" d="M280.895,-87.1149C247.921,-75.8407 211.817,-63.4961 181.168,-53.0171"/>
<polygon fill="midnightblue" stroke="midnightblue" points="279.966,-90.496 290.56,-90.4195 282.23,-83.8724 279.966,-90.496"/>
</g>
<!-- Node8&#45;&gt;Node10 -->
<g id="edge9" class="edge"><title>Node8&#45;&gt;Node10</title>
<path fill="none" stroke="midnightblue" d="M358.654,-81.2973C353.514,-71.7353 348.162,-61.7814 343.495,-53.1001"/>
<polygon fill="midnightblue" stroke="midnightblue" points="355.671,-83.1402 363.49,-90.2906 361.837,-79.8254 355.671,-83.1402"/>
</g>
<!-- Node8&#45;&gt;Node11 -->
<g id="edge10" class="edge"><title>Node8&#45;&gt;Node11</title>
<path fill="none" stroke="midnightblue" d="M436.402,-84.8249C452.94,-74.2176 470.656,-62.8553 485.865,-53.1001"/>
<polygon fill="midnightblue" stroke="midnightblue" points="434.408,-81.9457 427.88,-90.2906 438.187,-87.8379 434.408,-81.9457"/>
</g>
<!-- Node8&#45;&gt;Node12 -->
<g id="edge11" class="edge"><title>Node8&#45;&gt;Node12</title>
<path fill="none" stroke="midnightblue" d="M497.331,-87.6353C534.925,-76.9215 576.725,-64.9849 615,-54 617.814,-53.1924 620.677,-52.3699 623.569,-51.5384"/>
<polygon fill="midnightblue" stroke="midnightblue" points="496.017,-84.3703 487.359,-90.4766 497.935,-91.1023 496.017,-84.3703"/>
</g>
<!-- Node16&#45;&gt;Node9 -->
<g id="edge22" class="edge"><title>Node16&#45;&gt;Node9</title>
<path fill="none" stroke="midnightblue" d="M397.962,-298.046C351.438,-288.596 299.693,-272.255 259,-244 187.216,-194.158 138.492,-98.4517 118.377,-53.0643"/>
<polygon fill="midnightblue" stroke="midnightblue" points="397.32,-301.486 407.805,-299.96 398.657,-294.615 397.32,-301.486"/>
</g>
<!-- Node16&#45;&gt;Node10 -->
<g id="edge23" class="edge"><title>Node16&#45;&gt;Node10</title>
<path fill="none" stroke="midnightblue" d="M398.251,-282.824C370.777,-273.15 342.703,-260.462 319,-244 276.698,-214.62 263.212,-202.543 246,-154 236.494,-127.191 233.182,-115.393 246,-90 253.596,-74.9519 266.759,-62.6548 280.442,-53.0959"/>
<polygon fill="midnightblue" stroke="midnightblue" points="397.342,-286.212 407.936,-286.121 399.598,-279.585 397.342,-286.212"/>
</g>
<!-- Node16&#45;&gt;Node11 -->
<g id="edge25" class="edge"><title>Node16&#45;&gt;Node11</title>
<path fill="none" stroke="midnightblue" d="M519.007,-270.295C520.477,-210.852 523.168,-102.055 524.38,-53.0726"/>
<polygon fill="midnightblue" stroke="midnightblue" points="515.504,-270.362 518.756,-280.445 522.502,-270.535 515.504,-270.362"/>
</g>
<!-- Node16&#45;&gt;Node12 -->
<g id="edge26" class="edge"><title>Node16&#45;&gt;Node12</title>
<path fill="none" stroke="midnightblue" d="M533.95,-271.135C544.317,-246.928 558.875,-215.821 575,-190 607.377,-138.156 653.87,-83.9458 681.593,-53.2306"/>
<polygon fill="midnightblue" stroke="midnightblue" points="530.711,-269.808 530.049,-280.382 537.161,-272.529 530.711,-269.808"/>
</g>
<!-- Node16&#45;&gt;Node14 -->
<g id="edge21" class="edge"><title>Node16&#45;&gt;Node14</title>
<path fill="none" stroke="midnightblue" d="M583.443,-275.408C603.252,-264.635 624.582,-253.034 642.848,-243.1"/>
<polygon fill="midnightblue" stroke="midnightblue" points="581.578,-272.438 574.466,-280.291 584.923,-278.588 581.578,-272.438"/>
</g>
<!-- Node17 -->
<g id="node17" class="node"><title>Node17</title>
<g id="a_node17"><a xlink:href="../../da/d72/BenchSegmentation_8cxx.html" target="_top" xlink:title="/home/travis/build\l/AliceO2Group/AliceO2\l/Detectors/MUON/MCH/Mapping\l/test/src/BenchSegmentation.cxx">
<polygon fill="none" stroke="black" points="328,-191 328,-243 490,-243 490,-191 328,-191"/>
<text text-anchor="start" x="336" y="-231" font-family="Helvetica,sans-Serif" font-size="10.00">/home/travis/build</text>
<text text-anchor="start" x="336" y="-220" font-family="Helvetica,sans-Serif" font-size="10.00">/AliceO2Group/AliceO2</text>
<text text-anchor="start" x="336" y="-209" font-family="Helvetica,sans-Serif" font-size="10.00">/Detectors/MUON/MCH/Mapping</text>
<text text-anchor="middle" x="409" y="-198" font-family="Helvetica,sans-Serif" font-size="10.00">/test/src/BenchSegmentation.cxx</text>
</a>
</g>
</g>
<!-- Node16&#45;&gt;Node17 -->
<g id="edge24" class="edge"><title>Node16&#45;&gt;Node17</title>
<path fill="none" stroke="midnightblue" d="M474.229,-273.654C462.194,-263.386 449.432,-252.497 438.418,-243.1"/>
<polygon fill="midnightblue" stroke="midnightblue" points="472.128,-276.462 482.007,-280.291 476.672,-271.137 472.128,-276.462"/>
</g>
<!-- Node20&#45;&gt;Node3 -->
<g id="edge35" class="edge"><title>Node20&#45;&gt;Node3</title>
<path fill="none" stroke="midnightblue" d="M820.822,-646.249C799.014,-635.468 774.618,-623.407 753.707,-613.069"/>
<polygon fill="midnightblue" stroke="midnightblue" points="819.477,-649.488 829.992,-650.783 822.579,-643.213 819.477,-649.488"/>
</g>
<!-- Node21 -->
<g id="node21" class="node"><title>Node21</title>
<g id="a_node21"><a xlink:href="../../d5/de0/Edge_8h.html" target="_top" xlink:title="/home/travis/build\l/AliceO2Group/AliceO2\l/Detectors/MUON/MCH/Contour\l/include/MCHContour/Edge.h">
<polygon fill="none" stroke="black" points="979,-561 979,-613 1139,-613 1139,-561 979,-561"/>
<text text-anchor="start" x="987" y="-601" font-family="Helvetica,sans-Serif" font-size="10.00">/home/travis/build</text>
<text text-anchor="start" x="987" y="-590" font-family="Helvetica,sans-Serif" font-size="10.00">/AliceO2Group/AliceO2</text>
<text text-anchor="start" x="987" y="-579" font-family="Helvetica,sans-Serif" font-size="10.00">/Detectors/MUON/MCH/Contour</text>
<text text-anchor="middle" x="1059" y="-568" font-family="Helvetica,sans-Serif" font-size="10.00">/include/MCHContour/Edge.h</text>
</a>
</g>
</g>
<!-- Node20&#45;&gt;Node21 -->
<g id="edge36" class="edge"><title>Node20&#45;&gt;Node21</title>
<path fill="none" stroke="midnightblue" d="M941.178,-646.249C962.986,-635.468 987.382,-623.407 1008.29,-613.069"/>
<polygon fill="midnightblue" stroke="midnightblue" points="939.421,-643.213 932.008,-650.783 942.523,-649.488 939.421,-643.213"/>
</g>
<!-- Node23 -->
<g id="node23" class="node"><title>Node23</title>
<g id="a_node23"><a xlink:href="../../d2/db1/Detectors_2MUON_2MCH_2Contour_2test_2Vertex_8cxx.html" target="_top" xlink:title="/home/travis/build\l/AliceO2Group/AliceO2\l/Detectors/MUON/MCH/Contour\l/test/Vertex.cxx">
<polygon fill="none" stroke="black" points="801,-561 801,-613 961,-613 961,-561 801,-561"/>
<text text-anchor="start" x="809" y="-601" font-family="Helvetica,sans-Serif" font-size="10.00">/home/travis/build</text>
<text text-anchor="start" x="809" y="-590" font-family="Helvetica,sans-Serif" font-size="10.00">/AliceO2Group/AliceO2</text>
<text text-anchor="start" x="809" y="-579" font-family="Helvetica,sans-Serif" font-size="10.00">/Detectors/MUON/MCH/Contour</text>
<text text-anchor="middle" x="881" y="-568" font-family="Helvetica,sans-Serif" font-size="10.00">/test/Vertex.cxx</text>
</a>
</g>
</g>
<!-- Node20&#45;&gt;Node23 -->
<g id="edge39" class="edge"><title>Node20&#45;&gt;Node23</title>
<path fill="none" stroke="midnightblue" d="M881,-640.489C881,-631.309 881,-621.616 881,-613.092"/>
<polygon fill="midnightblue" stroke="midnightblue" points="877.5,-640.547 881,-650.547 884.5,-640.547 877.5,-640.547"/>
</g>
<!-- Node21&#45;&gt;Node5 -->
<g id="edge37" class="edge"><title>Node21&#45;&gt;Node5</title>
<path fill="none" stroke="midnightblue" d="M1059.4,-550.717C1059.79,-516.052 1060.37,-464.016 1060.72,-433.285"/>
<polygon fill="midnightblue" stroke="midnightblue" points="1055.89,-550.836 1059.28,-560.874 1062.89,-550.914 1055.89,-550.836"/>
</g>
<!-- Node22 -->
<g id="node22" class="node"><title>Node22</title>
<g id="a_node22"><a xlink:href="../../d6/d3f/Edge_8cxx.html" target="_top" xlink:title="/home/travis/build\l/AliceO2Group/AliceO2\l/Detectors/MUON/MCH/Contour\l/test/Edge.cxx">
<polygon fill="none" stroke="black" points="1087,-471 1087,-523 1247,-523 1247,-471 1087,-471"/>
<text text-anchor="start" x="1095" y="-511" font-family="Helvetica,sans-Serif" font-size="10.00">/home/travis/build</text>
<text text-anchor="start" x="1095" y="-500" font-family="Helvetica,sans-Serif" font-size="10.00">/AliceO2Group/AliceO2</text>
<text text-anchor="start" x="1095" y="-489" font-family="Helvetica,sans-Serif" font-size="10.00">/Detectors/MUON/MCH/Contour</text>
<text text-anchor="middle" x="1167" y="-478" font-family="Helvetica,sans-Serif" font-size="10.00">/test/Edge.cxx</text>
</a>
</g>
</g>
<!-- Node21&#45;&gt;Node22 -->
<g id="edge38" class="edge"><title>Node21&#45;&gt;Node22</title>
<path fill="none" stroke="midnightblue" d="M1097.98,-554.242C1110.49,-544.042 1124.18,-532.887 1136.05,-523.221"/>
<polygon fill="midnightblue" stroke="midnightblue" points="1095.49,-551.753 1089.95,-560.783 1099.91,-557.179 1095.49,-551.753"/>
</g>
<!-- Node24&#45;&gt;Node21 -->
<g id="edge41" class="edge"><title>Node24&#45;&gt;Node21</title>
<path fill="none" stroke="midnightblue" d="M1115.06,-643.431C1104.92,-633.407 1093.92,-622.533 1084.38,-613.092"/>
<polygon fill="midnightblue" stroke="midnightblue" points="1112.69,-646.005 1122.26,-650.547 1117.61,-641.027 1112.69,-646.005"/>
</g>
<!-- Node25 -->
<g id="node25" class="node"><title>Node25</title>
<g id="a_node25"><a xlink:href="../../dc/ded/SegmentTree_8h.html" target="_top" xlink:title="/home/travis/build\l/AliceO2Group/AliceO2\l/Detectors/MUON/MCH/Contour\l/include/MCHContour/SegmentTree.h">
<polygon fill="none" stroke="black" points="1335.5,-561 1335.5,-613 1516.5,-613 1516.5,-561 1335.5,-561"/>
<text text-anchor="start" x="1343.5" y="-601" font-family="Helvetica,sans-Serif" font-size="10.00">/home/travis/build</text>
<text text-anchor="start" x="1343.5" y="-590" font-family="Helvetica,sans-Serif" font-size="10.00">/AliceO2Group/AliceO2</text>
<text text-anchor="start" x="1343.5" y="-579" font-family="Helvetica,sans-Serif" font-size="10.00">/Detectors/MUON/MCH/Contour</text>
<text text-anchor="middle" x="1426" y="-568" font-family="Helvetica,sans-Serif" font-size="10.00">/include/MCHContour/SegmentTree.h</text>
</a>
</g>
</g>
<!-- Node24&#45;&gt;Node25 -->
<g id="edge42" class="edge"><title>Node24&#45;&gt;Node25</title>
<path fill="none" stroke="midnightblue" d="M1237.08,-647.802C1272.28,-636.659 1312.41,-623.956 1346.6,-613.133"/>
<polygon fill="midnightblue" stroke="midnightblue" points="1235.77,-644.546 1227.29,-650.901 1237.88,-651.219 1235.77,-644.546"/>
</g>
<!-- Node27 -->
<g id="node27" class="node"><title>Node27</title>
<g id="a_node27"><a xlink:href="../../d7/dba/Interval_8cxx.html" target="_top" xlink:title="/home/travis/build\l/AliceO2Group/AliceO2\l/Detectors/MUON/MCH/Contour\l/test/Interval.cxx">
<polygon fill="none" stroke="black" points="1157,-561 1157,-613 1317,-613 1317,-561 1157,-561"/>
<text text-anchor="start" x="1165" y="-601" font-family="Helvetica,sans-Serif" font-size="10.00">/home/travis/build</text>
<text text-anchor="start" x="1165" y="-590" font-family="Helvetica,sans-Serif" font-size="10.00">/AliceO2Group/AliceO2</text>
<text text-anchor="start" x="1165" y="-579" font-family="Helvetica,sans-Serif" font-size="10.00">/Detectors/MUON/MCH/Contour</text>
<text text-anchor="middle" x="1237" y="-568" font-family="Helvetica,sans-Serif" font-size="10.00">/test/Interval.cxx</text>
</a>
</g>
</g>
<!-- Node24&#45;&gt;Node27 -->
<g id="edge45" class="edge"><title>Node24&#45;&gt;Node27</title>
<path fill="none" stroke="midnightblue" d="M1180.94,-643.431C1191.08,-633.407 1202.08,-622.533 1211.62,-613.092"/>
<polygon fill="midnightblue" stroke="midnightblue" points="1178.39,-641.027 1173.74,-650.547 1183.31,-646.005 1178.39,-641.027"/>
</g>
<!-- Node25&#45;&gt;Node5 -->
<g id="edge43" class="edge"><title>Node25&#45;&gt;Node5</title>
<path fill="none" stroke="midnightblue" d="M1381.46,-555.138C1333.38,-521.894 1262.72,-473.275 1256,-470 1225.34,-455.065 1190.25,-442.612 1158.37,-432.88"/>
<polygon fill="midnightblue" stroke="midnightblue" points="1379.64,-558.136 1389.86,-560.947 1383.63,-552.379 1379.64,-558.136"/>
</g>
<!-- Node26 -->
<g id="node26" class="node"><title>Node26</title>
<g id="a_node26"><a xlink:href="../../df/d83/SegmentTree_8cxx.html" target="_top" xlink:title="/home/travis/build\l/AliceO2Group/AliceO2\l/Detectors/MUON/MCH/Contour\l/test/SegmentTree.cxx">
<polygon fill="none" stroke="black" points="1346,-471 1346,-523 1506,-523 1506,-471 1346,-471"/>
<text text-anchor="start" x="1354" y="-511" font-family="Helvetica,sans-Serif" font-size="10.00">/home/travis/build</text>
<text text-anchor="start" x="1354" y="-500" font-family="Helvetica,sans-Serif" font-size="10.00">/AliceO2Group/AliceO2</text>
<text text-anchor="start" x="1354" y="-489" font-family="Helvetica,sans-Serif" font-size="10.00">/Detectors/MUON/MCH/Contour</text>
<text text-anchor="middle" x="1426" y="-478" font-family="Helvetica,sans-Serif" font-size="10.00">/test/SegmentTree.cxx</text>
</a>
</g>
</g>
<!-- Node25&#45;&gt;Node26 -->
<g id="edge44" class="edge"><title>Node25&#45;&gt;Node26</title>
<path fill="none" stroke="midnightblue" d="M1426,-550.489C1426,-541.309 1426,-531.616 1426,-523.092"/>
<polygon fill="midnightblue" stroke="midnightblue" points="1422.5,-550.547 1426,-560.547 1429.5,-550.547 1422.5,-550.547"/>
</g>
</g>
</svg>
        <g id="navigator" transform="translate(0 0)" fill="#404254">
                <rect fill="#f2f5e9" fill-opacity="0.5" stroke="#606060" stroke-width=".5" x="0" y="0" width="60" height="60"/>
                <use id="zoomplus" xlink:href="#zoomPlus" x="17" y="9" onmousedown="handleZoom(evt,'in')"/>
                <use id="zoomminus" xlink:href="#zoomMin" x="42" y="9" onmousedown="handleZoom(evt,'out')"/>
                <use id="reset" xlink:href="#resetDef" x="30" y="36" onmousedown="handleReset()"/>
                <g id="arrowUp" xlink:href="#dirArrow" transform="translate(30 24)" onmousedown="handlePan(0,-1)">
                  <use xlink:href="#rim" fill="#404040">
                        <set attributeName="fill" to="#808080" begin="arrowUp.mouseover" end="arrowUp.mouseout"/>
                  </use>
                  <path fill="none" stroke="white" stroke-width="1.5" d="M0,-3.0v7 M-2.5,-0.5L0,-3.0L2.5,-0.5"/>
                </g>
                <g id="arrowRight" xlink:href="#dirArrow" transform="rotate(90) translate(36 -43)" onmousedown="handlePan(1,0)">
                  <use xlink:href="#rim" fill="#404040">
                        <set attributeName="fill" to="#808080" begin="arrowRight.mouseover" end="arrowRight.mouseout"/>
                  </use>
                  <path fill="none" stroke="white" stroke-width="1.5" d="M0,-3.0v7 M-2.5,-0.5L0,-3.0L2.5,-0.5"/>
                </g>
                <g id="arrowDown" xlink:href="#dirArrow" transform="rotate(180) translate(-30 -48)" onmousedown="handlePan(0,1)">
                  <use xlink:href="#rim" fill="#404040">
                        <set attributeName="fill" to="#808080" begin="arrowDown.mouseover" end="arrowDown.mouseout"/>
                  </use>
                  <path fill="none" stroke="white" stroke-width="1.5" d="M0,-3.0v7 M-2.5,-0.5L0,-3.0L2.5,-0.5"/>
                </g>
                <g id="arrowLeft" xlink:href="#dirArrow" transform="rotate(270) translate(-36 17)" onmousedown="handlePan(-1,0)">
                  <use xlink:href="#rim" fill="#404040">
                        <set attributeName="fill" to="#808080" begin="arrowLeft.mouseover" end="arrowLeft.mouseout"/>
                  </use>
                  <path fill="none" stroke="white" stroke-width="1.5" d="M0,-3.0v7 M-2.5,-0.5L0,-3.0L2.5,-0.5"/>
                </g>
        </g>
        <svg viewBox="0 0 15 15" width="100%" height="30px" preserveAspectRatio="xMaxYMin meet">
         <g id="arrow_out" transform="scale(0.3 0.3)">
          <a xlink:href="Helper_8h__dep__incl_org.svg" target="_base">
           <rect id="button" ry="5" rx="5" y="6" x="6" height="38" width="38"
                fill="#f2f5e9" fill-opacity="0.5" stroke="#606060" stroke-width="1.0"/>
           <path id="arrow"
             d="M 11.500037,31.436501 C 11.940474,20.09759 22.043105,11.32322 32.158766,21.979434 L 37.068811,17.246167 C 37.068811,17.246167 37.088388,32 37.088388,32 L 22.160133,31.978069 C 22.160133,31.978069 26.997745,27.140456 26.997745,27.140456 C 18.528582,18.264221 13.291696,25.230495 11.500037,31.436501 z"
             style="fill:#404040;"/>
          </a>
         </g>
        </svg>
</svg>
