<?xml version="1.0" encoding="UTF-8" standalone="no"?>
<!DOCTYPE svg PUBLIC "-//W3C//DTD SVG 1.1//EN"
 "http://www.w3.org/Graphics/SVG/1.1/DTD/svg11.dtd">
<!-- Generated by graphviz version 2.36.0 (20140111.2315)
 -->
<!-- Title: /home/travis/build/AliceO2Group/AliceO2/Detectors/TPC/reconstruction/include/TPCReconstruction/Clusterer.h Pages: 1 -->
<svg width="1408pt" height="736pt"
 viewBox="0.00 0.00 1408.00 736.00" xmlns="http://www.w3.org/2000/svg" xmlns:xlink="http://www.w3.org/1999/xlink">
<g id="graph0" class="graph" transform="scale(1 1) rotate(0) translate(4 732)">
<title>/home/travis/build/AliceO2Group/AliceO2/Detectors/TPC/reconstruction/include/TPCReconstruction/Clusterer.h</title>
<!-- Node1 -->
<g id="node1" class="node"><title>Node1</title>
<polygon fill="#bfbfbf" stroke="black" points="491,-664.5 491,-727.5 641,-727.5 641,-664.5 491,-664.5"/>
<text text-anchor="start" x="499" y="-715.5" font-family="Helvetica,sans-Serif" font-size="10.00">/home/travis/build</text>
<text text-anchor="start" x="499" y="-704.5" font-family="Helvetica,sans-Serif" font-size="10.00">/AliceO2Group/AliceO2</text>
<text text-anchor="start" x="499" y="-693.5" font-family="Helvetica,sans-Serif" font-size="10.00">/Detectors/TPC/reconstruction</text>
<text text-anchor="start" x="499" y="-682.5" font-family="Helvetica,sans-Serif" font-size="10.00">/include/TPCReconstruction</text>
<text text-anchor="middle" x="566" y="-671.5" font-family="Helvetica,sans-Serif" font-size="10.00">/Clusterer.h</text>
</g>
<!-- Node2 -->
<g id="node2" class="node"><title>Node2</title>
<polygon fill="none" stroke="#bfbfbf" points="1059,-372.5 1059,-391.5 1103,-391.5 1103,-372.5 1059,-372.5"/>
<text text-anchor="middle" x="1081" y="-379.5" font-family="Helvetica,sans-Serif" font-size="10.00">vector</text>
</g>
<!-- Node1&#45;&gt;Node2 -->
<g id="edge1" class="edge"><title>Node1&#45;&gt;Node2</title>
<path fill="none" stroke="midnightblue" d="M641.161,-692.385C807.346,-684.859 1197.65,-657.017 1278,-560 1336.84,-488.955 1182.45,-420.552 1112.92,-394.287"/>
<polygon fill="midnightblue" stroke="midnightblue" points="1113.9,-390.92 1103.31,-390.722 1111.47,-397.482 1113.9,-390.92"/>
</g>
<!-- Node3 -->
<g id="node3" class="node"><title>Node3</title>
<polygon fill="none" stroke="#bfbfbf" points="540,-484.5 540,-503.5 592,-503.5 592,-484.5 540,-484.5"/>
<text text-anchor="middle" x="566" y="-491.5" font-family="Helvetica,sans-Serif" font-size="10.00">memory</text>
</g>
<!-- Node1&#45;&gt;Node3 -->
<g id="edge2" class="edge"><title>Node1&#45;&gt;Node3</title>
<path fill="none" stroke="midnightblue" d="M566,-664.188C566,-622.251 566,-548.47 566,-513.888"/>
<polygon fill="midnightblue" stroke="midnightblue" points="569.5,-513.766 566,-503.766 562.5,-513.766 569.5,-513.766"/>
</g>
<!-- Node4 -->
<g id="node4" class="node"><title>Node4</title>
<g id="a_node4"><a xlink:href="../../db/d14/MCTruthContainer_8h.html" target="_top" xlink:title="Definition of a container to keep Monte Carlo truth external to simulation objects. ">
<polygon fill="none" stroke="black" points="237,-597 237,-627 351,-627 351,-597 237,-597"/>
<text text-anchor="start" x="245" y="-615" font-family="Helvetica,sans-Serif" font-size="10.00">SimulationDataFormat</text>
<text text-anchor="middle" x="294" y="-604" font-family="Helvetica,sans-Serif" font-size="10.00">/MCTruthContainer.h</text>
</a>
</g>
</g>
<!-- Node1&#45;&gt;Node4 -->
<g id="edge3" class="edge"><title>Node1&#45;&gt;Node4</title>
<path fill="none" stroke="midnightblue" d="M490.955,-672.376C446.502,-658.975 391.096,-642.271 350.382,-629.998"/>
<polygon fill="midnightblue" stroke="midnightblue" points="351.21,-626.592 340.626,-627.056 349.19,-633.294 351.21,-626.592"/>
</g>
<!-- Node10 -->
<g id="node10" class="node"><title>Node10</title>
<g id="a_node10"><a xlink:href="../../d7/dcd/MCCompLabel_8h.html" target="_top" xlink:title="SimulationDataFormat\l/MCCompLabel.h">
<polygon fill="none" stroke="black" points="0,-249 0,-279 114,-279 114,-249 0,-249"/>
<text text-anchor="start" x="8" y="-267" font-family="Helvetica,sans-Serif" font-size="10.00">SimulationDataFormat</text>
<text text-anchor="middle" x="57" y="-256" font-family="Helvetica,sans-Serif" font-size="10.00">/MCCompLabel.h</text>
</a>
</g>
</g>
<!-- Node1&#45;&gt;Node10 -->
<g id="edge9" class="edge"><title>Node1&#45;&gt;Node10</title>
<path fill="none" stroke="midnightblue" d="M490.895,-689.427C349.308,-676.845 57,-640.081 57,-551 57,-551 57,-551 57,-381 57,-349.358 57,-312.862 57,-289.388"/>
<polygon fill="midnightblue" stroke="midnightblue" points="60.5001,-289.286 57,-279.287 53.5001,-289.287 60.5001,-289.286"/>
</g>
<!-- Node12 -->
<g id="node12" class="node"><title>Node12</title>
<g id="a_node12"><a xlink:href="../../d8/d81/CalDet_8h.html" target="_top" xlink:title="TPCBase/CalDet.h">
<polygon fill="none" stroke="black" points="789.5,-602.5 789.5,-621.5 890.5,-621.5 890.5,-602.5 789.5,-602.5"/>
<text text-anchor="middle" x="840" y="-609.5" font-family="Helvetica,sans-Serif" font-size="10.00">TPCBase/CalDet.h</text>
</a>
</g>
</g>
<!-- Node1&#45;&gt;Node12 -->
<g id="edge11" class="edge"><title>Node1&#45;&gt;Node12</title>
<path fill="none" stroke="midnightblue" d="M641.234,-672.485C693.338,-656.891 760.518,-636.787 801.906,-624.4"/>
<polygon fill="midnightblue" stroke="midnightblue" points="803.018,-627.721 811.595,-621.501 801.011,-621.015 803.018,-627.721"/>
</g>
<!-- Node5 -->
<g id="node5" class="node"><title>Node5</title>
<polygon fill="none" stroke="#bfbfbf" points="226,-540.5 226,-559.5 288,-559.5 288,-540.5 226,-540.5"/>
<text text-anchor="middle" x="257" y="-547.5" font-family="Helvetica,sans-Serif" font-size="10.00">TNamed.h</text>
</g>
<!-- Node4&#45;&gt;Node5 -->
<g id="edge4" class="edge"><title>Node4&#45;&gt;Node5</title>
<path fill="none" stroke="midnightblue" d="M285.232,-596.781C279.966,-588.242 273.23,-577.318 267.658,-568.283"/>
<polygon fill="midnightblue" stroke="midnightblue" points="270.612,-566.405 262.384,-559.731 264.654,-570.079 270.612,-566.405"/>
</g>
<!-- Node6 -->
<g id="node6" class="node"><title>Node6</title>
<polygon fill="none" stroke="#bfbfbf" points="306.5,-540.5 306.5,-559.5 355.5,-559.5 355.5,-540.5 306.5,-540.5"/>
<text text-anchor="middle" x="331" y="-547.5" font-family="Helvetica,sans-Serif" font-size="10.00">cassert</text>
</g>
<!-- Node4&#45;&gt;Node6 -->
<g id="edge5" class="edge"><title>Node4&#45;&gt;Node6</title>
<path fill="none" stroke="midnightblue" d="M302.768,-596.781C308.034,-588.242 314.77,-577.318 320.342,-568.283"/>
<polygon fill="midnightblue" stroke="midnightblue" points="323.346,-570.079 325.616,-559.731 317.388,-566.405 323.346,-570.079"/>
</g>
<!-- Node7 -->
<g id="node7" class="node"><title>Node7</title>
<polygon fill="none" stroke="#bfbfbf" points="85.5,-540.5 85.5,-559.5 144.5,-559.5 144.5,-540.5 85.5,-540.5"/>
<text text-anchor="middle" x="115" y="-547.5" font-family="Helvetica,sans-Serif" font-size="10.00">stdexcept</text>
</g>
<!-- Node4&#45;&gt;Node7 -->
<g id="edge6" class="edge"><title>Node4&#45;&gt;Node7</title>
<path fill="none" stroke="midnightblue" d="M252.032,-596.933C221.067,-586.553 179.406,-572.589 150.178,-562.792"/>
<polygon fill="midnightblue" stroke="midnightblue" points="150.99,-559.372 140.396,-559.513 148.765,-566.009 150.99,-559.372"/>
</g>
<!-- Node8 -->
<g id="node8" class="node"><title>Node8</title>
<polygon fill="none" stroke="#bfbfbf" points="162.5,-540.5 162.5,-559.5 207.5,-559.5 207.5,-540.5 162.5,-540.5"/>
<text text-anchor="middle" x="185" y="-547.5" font-family="Helvetica,sans-Serif" font-size="10.00">gsl/gsl</text>
</g>
<!-- Node4&#45;&gt;Node8 -->
<g id="edge7" class="edge"><title>Node4&#45;&gt;Node8</title>
<path fill="none" stroke="midnightblue" d="M268.444,-596.933C250.712,-587.171 227.22,-574.24 209.68,-564.586"/>
<polygon fill="midnightblue" stroke="midnightblue" points="211.072,-561.356 200.623,-559.6 207.696,-567.489 211.072,-561.356"/>
</g>
<!-- Node9 -->
<g id="node9" class="node"><title>Node9</title>
<polygon fill="none" stroke="#bfbfbf" points="427,-484.5 427,-503.5 489,-503.5 489,-484.5 427,-484.5"/>
<text text-anchor="middle" x="458" y="-491.5" font-family="Helvetica,sans-Serif" font-size="10.00">type_traits</text>
</g>
<!-- Node4&#45;&gt;Node9 -->
<g id="edge8" class="edge"><title>Node4&#45;&gt;Node9</title>
<path fill="none" stroke="midnightblue" d="M314.11,-596.776C345.405,-574.641 405.453,-532.167 437.178,-509.728"/>
<polygon fill="midnightblue" stroke="midnightblue" points="439.547,-512.339 445.69,-503.707 435.505,-506.624 439.547,-512.339"/>
</g>
<!-- Node11 -->
<g id="node11" class="node"><title>Node11</title>
<polygon fill="none" stroke="#bfbfbf" points="41,-74.5 41,-93.5 97,-93.5 97,-74.5 41,-74.5"/>
<text text-anchor="middle" x="69" y="-81.5" font-family="Helvetica,sans-Serif" font-size="10.00">Rtypes.h</text>
</g>
<!-- Node10&#45;&gt;Node11 -->
<g id="edge10" class="edge"><title>Node10&#45;&gt;Node11</title>
<path fill="none" stroke="midnightblue" d="M57.9617,-248.734C60.1197,-216.725 65.3462,-139.198 67.7511,-103.525"/>
<polygon fill="midnightblue" stroke="midnightblue" points="71.2447,-103.737 68.4253,-93.5244 64.2605,-103.266 71.2447,-103.737"/>
</g>
<!-- Node12&#45;&gt;Node2 -->
<g id="edge13" class="edge"><title>Node12&#45;&gt;Node2</title>
<path fill="none" stroke="midnightblue" d="M890.52,-605.818C930.462,-599.804 986.254,-586.995 1028,-560 1074.4,-529.993 1078.08,-503.122 1082,-448 1083.1,-432.501 1082.73,-414.874 1082.15,-401.89"/>
<polygon fill="midnightblue" stroke="midnightblue" points="1085.64,-401.646 1081.62,-391.845 1078.65,-402.016 1085.64,-401.646"/>
</g>
<!-- Node12&#45;&gt;Node3 -->
<g id="edge12" class="edge"><title>Node12&#45;&gt;Node3</title>
<path fill="none" stroke="midnightblue" d="M819.852,-602.47C772.051,-582.233 651.605,-531.242 595.549,-507.51"/>
<polygon fill="midnightblue" stroke="midnightblue" points="596.751,-504.218 586.177,-503.542 594.022,-510.664 596.751,-504.218"/>
</g>
<!-- Node13 -->
<g id="node13" class="node"><title>Node13</title>
<polygon fill="none" stroke="#bfbfbf" points="1011.5,-428.5 1011.5,-447.5 1052.5,-447.5 1052.5,-428.5 1011.5,-428.5"/>
<text text-anchor="middle" x="1032" y="-435.5" font-family="Helvetica,sans-Serif" font-size="10.00">string</text>
</g>
<!-- Node12&#45;&gt;Node13 -->
<g id="edge14" class="edge"><title>Node12&#45;&gt;Node13</title>
<path fill="none" stroke="midnightblue" d="M889.109,-602.432C941.283,-590.424 1021.21,-563.04 1058,-504 1067.49,-488.769 1057.38,-469.484 1047.13,-455.888"/>
<polygon fill="midnightblue" stroke="midnightblue" points="1049.61,-453.399 1040.57,-447.876 1044.2,-457.831 1049.61,-453.399"/>
</g>
<!-- Node14 -->
<g id="node14" class="node"><title>Node14</title>
<polygon fill="none" stroke="#bfbfbf" points="959,-484.5 959,-503.5 1049,-503.5 1049,-484.5 959,-484.5"/>
<text text-anchor="middle" x="1004" y="-491.5" font-family="Helvetica,sans-Serif" font-size="10.00">boost/format.hpp</text>
</g>
<!-- Node12&#45;&gt;Node14 -->
<g id="edge15" class="edge"><title>Node12&#45;&gt;Node14</title>
<path fill="none" stroke="midnightblue" d="M852.059,-602.47C879.9,-582.778 948.913,-533.964 983.523,-509.484"/>
<polygon fill="midnightblue" stroke="midnightblue" points="985.78,-512.174 991.923,-503.542 981.738,-506.459 985.78,-512.174"/>
</g>
<!-- Node15 -->
<g id="node15" class="node"><title>Node15</title>
<polygon fill="none" stroke="#bfbfbf" points="1143,-540.5 1143,-559.5 1269,-559.5 1269,-540.5 1143,-540.5"/>
<text text-anchor="middle" x="1206" y="-547.5" font-family="Helvetica,sans-Serif" font-size="10.00">boost/range/combine.hpp</text>
</g>
<!-- Node12&#45;&gt;Node15 -->
<g id="edge16" class="edge"><title>Node12&#45;&gt;Node15</title>
<path fill="none" stroke="midnightblue" d="M890.506,-602.72C956.579,-591.889 1072.32,-572.915 1143.74,-561.207"/>
<polygon fill="midnightblue" stroke="midnightblue" points="1144.64,-564.605 1153.94,-559.534 1143.51,-557.698 1144.64,-564.605"/>
</g>
<!-- Node16 -->
<g id="node16" class="node"><title>Node16</title>
<polygon fill="none" stroke="#bfbfbf" points="731.5,-484.5 731.5,-503.5 802.5,-503.5 802.5,-484.5 731.5,-484.5"/>
<text text-anchor="middle" x="767" y="-491.5" font-family="Helvetica,sans-Serif" font-size="10.00">FairLogger.h</text>
</g>
<!-- Node12&#45;&gt;Node16 -->
<g id="edge17" class="edge"><title>Node12&#45;&gt;Node16</title>
<path fill="none" stroke="midnightblue" d="M823.065,-602.384C808.062,-593.795 786.9,-579.135 776,-560 767.983,-545.925 766.095,-527.433 766.001,-513.773"/>
<polygon fill="midnightblue" stroke="midnightblue" points="769.503,-513.72 766.249,-503.638 762.505,-513.549 769.503,-513.72"/>
</g>
<!-- Node17 -->
<g id="node17" class="node"><title>Node17</title>
<g id="a_node17"><a xlink:href="../../d1/d73/Defs_8h.html" target="_top" xlink:title="Common definitions for 2D coordinates. ">
<polygon fill="none" stroke="black" points="490,-192.5 490,-211.5 616,-211.5 616,-192.5 490,-192.5"/>
<text text-anchor="middle" x="553" y="-199.5" font-family="Helvetica,sans-Serif" font-size="10.00">DataFormatsTPC/Defs.h</text>
</a>
</g>
</g>
<!-- Node12&#45;&gt;Node17 -->
<g id="edge18" class="edge"><title>Node12&#45;&gt;Node17</title>
<path fill="none" stroke="midnightblue" d="M890.67,-611.879C993.225,-612.603 1220.53,-608.522 1278,-560 1301,-540.584 1297,-525.098 1297,-495 1297,-495 1297,-495 1297,-325 1297,-257.483 813.705,-219.55 626.159,-207.371"/>
<polygon fill="midnightblue" stroke="midnightblue" points="626.316,-203.874 616.112,-206.725 625.867,-210.86 626.316,-203.874"/>
</g>
<!-- Node30 -->
<g id="node30" class="node"><title>Node30</title>
<g id="a_node30"><a xlink:href="../../d7/d2c/Mapper_8h.html" target="_top" xlink:title="TPCBase/Mapper.h">
<polygon fill="none" stroke="black" points="610.5,-484.5 610.5,-503.5 713.5,-503.5 713.5,-484.5 610.5,-484.5"/>
<text text-anchor="middle" x="662" y="-491.5" font-family="Helvetica,sans-Serif" font-size="10.00">TPCBase/Mapper.h</text>
</a>
</g>
</g>
<!-- Node12&#45;&gt;Node30 -->
<g id="edge33" class="edge"><title>Node12&#45;&gt;Node30</title>
<path fill="none" stroke="midnightblue" d="M826.911,-602.47C796.565,-582.694 721.152,-533.548 683.748,-509.173"/>
<polygon fill="midnightblue" stroke="midnightblue" points="685.397,-506.07 675.108,-503.542 681.575,-511.934 685.397,-506.07"/>
</g>
<!-- Node38 -->
<g id="node38" class="node"><title>Node38</title>
<g id="a_node38"><a xlink:href="../../dc/d14/ROC_8h.html" target="_top" xlink:title="TPCBase/ROC.h">
<polygon fill="none" stroke="black" points="393.5,-316.5 393.5,-335.5 486.5,-335.5 486.5,-316.5 393.5,-316.5"/>
<text text-anchor="middle" x="440" y="-323.5" font-family="Helvetica,sans-Serif" font-size="10.00">TPCBase/ROC.h</text>
</a>
</g>
</g>
<!-- Node12&#45;&gt;Node38 -->
<g id="edge68" class="edge"><title>Node12&#45;&gt;Node38</title>
<path fill="none" stroke="midnightblue" d="M789.161,-604.412C662.476,-586.798 338.768,-534.02 281,-448 272.964,-436.033 260.987,-399.323 282,-372 294.543,-355.691 343.13,-343.472 383.152,-335.913"/>
<polygon fill="midnightblue" stroke="midnightblue" points="383.907,-339.333 393.115,-334.092 382.648,-332.447 383.907,-339.333"/>
</g>
<!-- Node44 -->
<g id="node44" class="node"><title>Node44</title>
<g id="a_node44"><a xlink:href="../../db/d9b/CalArray_8h.html" target="_top" xlink:title="TPCBase/CalArray.h">
<polygon fill="none" stroke="black" points="785.5,-540.5 785.5,-559.5 894.5,-559.5 894.5,-540.5 785.5,-540.5"/>
<text text-anchor="middle" x="840" y="-547.5" font-family="Helvetica,sans-Serif" font-size="10.00">TPCBase/CalArray.h</text>
</a>
</g>
</g>
<!-- Node12&#45;&gt;Node44 -->
<g id="edge69" class="edge"><title>Node12&#45;&gt;Node44</title>
<path fill="none" stroke="midnightblue" d="M840,-602.403C840,-593.938 840,-580.728 840,-569.82"/>
<polygon fill="midnightblue" stroke="midnightblue" points="843.5,-569.581 840,-559.581 836.5,-569.581 843.5,-569.581"/>
</g>
<!-- Node18 -->
<g id="node18" class="node"><title>Node18</title>
<polygon fill="none" stroke="#bfbfbf" points="322,-136.5 322,-155.5 366,-155.5 366,-136.5 322,-136.5"/>
<text text-anchor="middle" x="344" y="-143.5" font-family="Helvetica,sans-Serif" font-size="10.00">cmath</text>
</g>
<!-- Node17&#45;&gt;Node18 -->
<g id="edge19" class="edge"><title>Node17&#45;&gt;Node18</title>
<path fill="none" stroke="midnightblue" d="M519.883,-192.444C480.366,-182.233 414.762,-165.283 375.825,-155.223"/>
<polygon fill="midnightblue" stroke="midnightblue" points="376.62,-151.813 366.062,-152.7 374.869,-158.591 376.62,-151.813"/>
</g>
<!-- Node19 -->
<g id="node19" class="node"><title>Node19</title>
<g id="a_node19"><a xlink:href="../../d2/dd0/Cartesian2D_8h.html" target="_top" xlink:title="MathUtils/Cartesian2D.h">
<polygon fill="none" stroke="black" points="1158.5,-74.5 1158.5,-93.5 1283.5,-93.5 1283.5,-74.5 1158.5,-74.5"/>
<text text-anchor="middle" x="1221" y="-81.5" font-family="Helvetica,sans-Serif" font-size="10.00">MathUtils/Cartesian2D.h</text>
</a>
</g>
</g>
<!-- Node17&#45;&gt;Node19 -->
<g id="edge20" class="edge"><title>Node17&#45;&gt;Node19</title>
<path fill="none" stroke="midnightblue" d="M607.358,-192.489C712.288,-175.904 949.969,-137.583 1149,-100 1156.33,-98.6163 1164.06,-97.0831 1171.63,-95.5408"/>
<polygon fill="midnightblue" stroke="midnightblue" points="1172.35,-98.9655 1181.44,-93.5198 1170.94,-92.1094 1172.35,-98.9655"/>
</g>
<!-- Node22 -->
<g id="node22" class="node"><title>Node22</title>
<g id="a_node22"><a xlink:href="../../dd/d76/Cartesian3D_8h.html" target="_top" xlink:title="MathUtils/Cartesian3D.h">
<polygon fill="none" stroke="black" points="483.5,-136.5 483.5,-155.5 608.5,-155.5 608.5,-136.5 483.5,-136.5"/>
<text text-anchor="middle" x="546" y="-143.5" font-family="Helvetica,sans-Serif" font-size="10.00">MathUtils/Cartesian3D.h</text>
</a>
</g>
</g>
<!-- Node17&#45;&gt;Node22 -->
<g id="edge23" class="edge"><title>Node17&#45;&gt;Node22</title>
<path fill="none" stroke="midnightblue" d="M551.844,-192.083C550.916,-184.927 549.582,-174.635 548.423,-165.691"/>
<polygon fill="midnightblue" stroke="midnightblue" points="551.891,-165.218 547.134,-155.751 544.949,-166.118 551.891,-165.218"/>
</g>
<!-- Node20 -->
<g id="node20" class="node"><title>Node20</title>
<polygon fill="none" stroke="#bfbfbf" points="1054.5,-1 1054.5,-31 1205.5,-31 1205.5,-1 1054.5,-1"/>
<text text-anchor="start" x="1062.5" y="-19" font-family="Helvetica,sans-Serif" font-size="10.00">Math/GenVector/Displacement</text>
<text text-anchor="middle" x="1130" y="-8" font-family="Helvetica,sans-Serif" font-size="10.00">Vector2D.h</text>
</g>
<!-- Node19&#45;&gt;Node20 -->
<g id="edge21" class="edge"><title>Node19&#45;&gt;Node20</title>
<path fill="none" stroke="midnightblue" d="M1209.1,-74.3717C1196.22,-65.0286 1175.22,-49.7966 1158.09,-37.375"/>
<polygon fill="midnightblue" stroke="midnightblue" points="1159.7,-34.2194 1149.55,-31.1815 1155.59,-39.8859 1159.7,-34.2194"/>
</g>
<!-- Node21 -->
<g id="node21" class="node"><title>Node21</title>
<polygon fill="none" stroke="#bfbfbf" points="1224,-6.5 1224,-25.5 1400,-25.5 1400,-6.5 1224,-6.5"/>
<text text-anchor="middle" x="1312" y="-13.5" font-family="Helvetica,sans-Serif" font-size="10.00">Math/GenVector/PositionVector2D.h</text>
</g>
<!-- Node19&#45;&gt;Node21 -->
<g id="edge22" class="edge"><title>Node19&#45;&gt;Node21</title>
<path fill="none" stroke="midnightblue" d="M1232.9,-74.3717C1247.88,-63.5015 1273.86,-44.6602 1291.94,-31.5474"/>
<polygon fill="midnightblue" stroke="midnightblue" points="1294.06,-34.3349 1300.1,-25.6305 1289.95,-28.6684 1294.06,-34.3349"/>
</g>
<!-- Node22&#45;&gt;Node11 -->
<g id="edge29" class="edge"><title>Node22&#45;&gt;Node11</title>
<path fill="none" stroke="midnightblue" d="M483.259,-140.609C379.721,-133.018 177.605,-116.649 108,-100 104.58,-99.1821 101.058,-98.1362 97.5934,-96.9779"/>
<polygon fill="midnightblue" stroke="midnightblue" points="98.7132,-93.6608 88.1194,-93.5123 96.3083,-100.235 98.7132,-93.6608"/>
</g>
<!-- Node22&#45;&gt;Node19 -->
<g id="edge32" class="edge"><title>Node22&#45;&gt;Node19</title>
<path fill="none" stroke="midnightblue" d="M608.79,-143.021C718.733,-138.954 953.05,-127.602 1149,-100 1157.36,-98.8223 1166.21,-97.2522 1174.73,-95.571"/>
<polygon fill="midnightblue" stroke="midnightblue" points="1175.44,-98.9979 1184.53,-93.5633 1174.04,-92.1402 1175.44,-98.9979"/>
</g>
<!-- Node23 -->
<g id="node23" class="node"><title>Node23</title>
<polygon fill="none" stroke="#bfbfbf" points="275.5,-69 275.5,-99 426.5,-99 426.5,-69 275.5,-69"/>
<text text-anchor="start" x="283.5" y="-87" font-family="Helvetica,sans-Serif" font-size="10.00">Math/GenVector/Displacement</text>
<text text-anchor="middle" x="351" y="-76" font-family="Helvetica,sans-Serif" font-size="10.00">Vector3D.h</text>
</g>
<!-- Node22&#45;&gt;Node23 -->
<g id="edge24" class="edge"><title>Node22&#45;&gt;Node23</title>
<path fill="none" stroke="midnightblue" d="M518.061,-136.403C489.087,-127.488 443.011,-113.311 406.58,-102.101"/>
<polygon fill="midnightblue" stroke="midnightblue" points="407.169,-98.621 396.582,-99.0253 405.111,-105.311 407.169,-98.621"/>
</g>
<!-- Node24 -->
<g id="node24" class="node"><title>Node24</title>
<polygon fill="none" stroke="#bfbfbf" points="445,-74.5 445,-93.5 621,-93.5 621,-74.5 445,-74.5"/>
<text text-anchor="middle" x="533" y="-81.5" font-family="Helvetica,sans-Serif" font-size="10.00">Math/GenVector/PositionVector3D.h</text>
</g>
<!-- Node22&#45;&gt;Node24 -->
<g id="edge25" class="edge"><title>Node22&#45;&gt;Node24</title>
<path fill="none" stroke="midnightblue" d="M544.137,-136.403C542.284,-127.849 539.381,-114.45 537.003,-103.476"/>
<polygon fill="midnightblue" stroke="midnightblue" points="540.397,-102.613 534.859,-93.5806 533.556,-104.095 540.397,-102.613"/>
</g>
<!-- Node25 -->
<g id="node25" class="node"><title>Node25</title>
<polygon fill="none" stroke="#bfbfbf" points="638.5,-74.5 638.5,-93.5 787.5,-93.5 787.5,-74.5 638.5,-74.5"/>
<text text-anchor="middle" x="713" y="-81.5" font-family="Helvetica,sans-Serif" font-size="10.00">Math/GenVector/Rotation3D.h</text>
</g>
<!-- Node22&#45;&gt;Node25 -->
<g id="edge26" class="edge"><title>Node22&#45;&gt;Node25</title>
<path fill="none" stroke="midnightblue" d="M569.927,-136.403C598.697,-126.067 647.156,-108.656 679.602,-96.9994"/>
<polygon fill="midnightblue" stroke="midnightblue" points="680.89,-100.256 689.117,-93.5806 678.523,-93.668 680.89,-100.256"/>
</g>
<!-- Node26 -->
<g id="node26" class="node"><title>Node26</title>
<polygon fill="none" stroke="#bfbfbf" points="806,-74.5 806,-93.5 962,-93.5 962,-74.5 806,-74.5"/>
<text text-anchor="middle" x="884" y="-81.5" font-family="Helvetica,sans-Serif" font-size="10.00">Math/GenVector/Transform3D.h</text>
</g>
<!-- Node22&#45;&gt;Node26 -->
<g id="edge27" class="edge"><title>Node22&#45;&gt;Node26</title>
<path fill="none" stroke="midnightblue" d="M594.068,-136.467C655.138,-125.626 760.451,-106.932 825.942,-95.3062"/>
<polygon fill="midnightblue" stroke="midnightblue" points="826.863,-98.6974 836.098,-93.5034 825.64,-91.8052 826.863,-98.6974"/>
</g>
<!-- Node27 -->
<g id="node27" class="node"><title>Node27</title>
<polygon fill="none" stroke="#bfbfbf" points="980,-74.5 980,-93.5 1140,-93.5 1140,-74.5 980,-74.5"/>
<text text-anchor="middle" x="1060" y="-81.5" font-family="Helvetica,sans-Serif" font-size="10.00">Math/GenVector/Translation3D.h</text>
</g>
<!-- Node22&#45;&gt;Node27 -->
<g id="edge28" class="edge"><title>Node22&#45;&gt;Node27</title>
<path fill="none" stroke="midnightblue" d="M608.795,-139.568C691.856,-132.104 842.726,-117.584 971,-100 981.235,-98.597 992.101,-96.9218 1002.59,-95.2076"/>
<polygon fill="midnightblue" stroke="midnightblue" points="1003.22,-98.6521 1012.51,-93.5597 1002.07,-91.7469 1003.22,-98.6521"/>
</g>
<!-- Node28 -->
<g id="node28" class="node"><title>Node28</title>
<polygon fill="none" stroke="#bfbfbf" points="181,-74.5 181,-93.5 257,-93.5 257,-74.5 181,-74.5"/>
<text text-anchor="middle" x="219" y="-81.5" font-family="Helvetica,sans-Serif" font-size="10.00">TGeoMatrix.h</text>
</g>
<!-- Node22&#45;&gt;Node28 -->
<g id="edge30" class="edge"><title>Node22&#45;&gt;Node28</title>
<path fill="none" stroke="midnightblue" d="M483.473,-137.675C426.378,-130.344 339.873,-117.62 266,-100 261.876,-99.0163 257.589,-97.8523 253.358,-96.6143"/>
<polygon fill="midnightblue" stroke="midnightblue" points="254.271,-93.2337 243.685,-93.6418 252.215,-99.9249 254.271,-93.2337"/>
</g>
<!-- Node29 -->
<g id="node29" class="node"><title>Node29</title>
<polygon fill="none" stroke="#bfbfbf" points="117.5,-74.5 117.5,-93.5 162.5,-93.5 162.5,-74.5 117.5,-74.5"/>
<text text-anchor="middle" x="140" y="-81.5" font-family="Helvetica,sans-Serif" font-size="10.00">iosfwd</text>
</g>
<!-- Node22&#45;&gt;Node29 -->
<g id="edge31" class="edge"><title>Node22&#45;&gt;Node29</title>
<path fill="none" stroke="midnightblue" d="M483.256,-143.517C407.971,-140.361 278.563,-130.532 172,-100 169.661,-99.3298 167.279,-98.5073 164.923,-97.5958"/>
<polygon fill="midnightblue" stroke="midnightblue" points="166.129,-94.3036 155.564,-93.5096 163.328,-100.719 166.129,-94.3036"/>
</g>
<!-- Node30&#45;&gt;Node2 -->
<g id="edge35" class="edge"><title>Node30&#45;&gt;Node2</title>
<path fill="none" stroke="midnightblue" d="M713.71,-485.239C716.514,-484.82 719.291,-484.405 722,-484 829.546,-467.935 861.036,-482.967 964,-448 968.906,-446.334 1023.79,-415.427 1056.61,-396.84"/>
<polygon fill="midnightblue" stroke="midnightblue" points="1058.65,-399.712 1065.62,-391.736 1055.19,-393.622 1058.65,-399.712"/>
</g>
<!-- Node30&#45;&gt;Node13 -->
<g id="edge37" class="edge"><title>Node30&#45;&gt;Node13</title>
<path fill="none" stroke="midnightblue" d="M713.702,-485.182C716.508,-484.777 719.288,-484.381 722,-484 844.067,-466.857 875.975,-471.392 997,-448 998.463,-447.717 999.956,-447.409 1001.46,-447.084"/>
<polygon fill="midnightblue" stroke="midnightblue" points="1002.44,-450.45 1011.37,-444.749 1000.83,-443.636 1002.44,-450.45"/>
</g>
<!-- Node30&#45;&gt;Node17 -->
<g id="edge39" class="edge"><title>Node30&#45;&gt;Node17</title>
<path fill="none" stroke="midnightblue" d="M713.508,-484.584C771.012,-474.757 857.559,-458.514 869,-448 891.256,-427.548 889,-413.225 889,-383 889,-383 889,-383 889,-325 889,-268.208 717.26,-230.263 619.346,-213.245"/>
<polygon fill="midnightblue" stroke="midnightblue" points="619.686,-209.752 609.239,-211.517 618.506,-216.652 619.686,-209.752"/>
</g>
<!-- Node30&#45;&gt;Node18 -->
<g id="edge38" class="edge"><title>Node30&#45;&gt;Node18</title>
<path fill="none" stroke="midnightblue" d="M610.435,-485.246C607.244,-484.812 604.08,-484.392 601,-484 526.728,-474.534 329.749,-487.269 266,-448 236.715,-429.961 224,-417.395 224,-383 224,-383 224,-383 224,-263 224,-213.074 278.36,-177.806 313.905,-160.081"/>
<polygon fill="midnightblue" stroke="midnightblue" points="315.863,-163.024 323.371,-155.549 312.84,-156.71 315.863,-163.024"/>
</g>
<!-- Node31 -->
<g id="node31" class="node"><title>Node31</title>
<polygon fill="none" stroke="#bfbfbf" points="431.5,-428.5 431.5,-447.5 466.5,-447.5 466.5,-428.5 431.5,-428.5"/>
<text text-anchor="middle" x="449" y="-435.5" font-family="Helvetica,sans-Serif" font-size="10.00">map</text>
</g>
<!-- Node30&#45;&gt;Node31 -->
<g id="edge34" class="edge"><title>Node30&#45;&gt;Node31</title>
<path fill="none" stroke="midnightblue" d="M626.201,-484.441C589.628,-475.616 531.238,-461.306 481,-448 479.536,-447.612 478.035,-447.209 476.521,-446.798"/>
<polygon fill="midnightblue" stroke="midnightblue" points="477.15,-443.341 466.579,-444.048 475.284,-450.088 477.15,-443.341"/>
</g>
<!-- Node32 -->
<g id="node32" class="node"><title>Node32</title>
<polygon fill="none" stroke="#bfbfbf" points="917,-428.5 917,-447.5 955,-447.5 955,-428.5 917,-428.5"/>
<text text-anchor="middle" x="936" y="-435.5" font-family="Helvetica,sans-Serif" font-size="10.00">array</text>
</g>
<!-- Node30&#45;&gt;Node32 -->
<g id="edge36" class="edge"><title>Node30&#45;&gt;Node32</title>
<path fill="none" stroke="midnightblue" d="M713.966,-484.559C762.946,-476.305 838.281,-462.841 903,-448 904.27,-447.709 905.564,-447.401 906.87,-447.083"/>
<polygon fill="midnightblue" stroke="midnightblue" points="908.064,-450.389 916.872,-444.501 906.314,-443.612 908.064,-450.389"/>
</g>
<!-- Node33 -->
<g id="node33" class="node"><title>Node33</title>
<g id="a_node33"><a xlink:href="../../de/d41/PadPos_8h.html" target="_top" xlink:title="TPCBase/PadPos.h">
<polygon fill="none" stroke="black" points="581.5,-316.5 581.5,-335.5 686.5,-335.5 686.5,-316.5 581.5,-316.5"/>
<text text-anchor="middle" x="634" y="-323.5" font-family="Helvetica,sans-Serif" font-size="10.00">TPCBase/PadPos.h</text>
</a>
</g>
</g>
<!-- Node30&#45;&gt;Node33 -->
<g id="edge40" class="edge"><title>Node30&#45;&gt;Node33</title>
<path fill="none" stroke="midnightblue" d="M660.495,-484.075C656.087,-457.945 643.144,-381.211 637.133,-345.577"/>
<polygon fill="midnightblue" stroke="midnightblue" points="640.56,-344.847 635.445,-335.568 633.657,-346.011 640.56,-344.847"/>
</g>
<!-- Node34 -->
<g id="node34" class="node"><title>Node34</title>
<g id="a_node34"><a xlink:href="../../dd/d0b/PadSecPos_8h.html" target="_top" xlink:title="TPCBase/PadSecPos.h">
<polygon fill="none" stroke="black" points="291,-372.5 291,-391.5 413,-391.5 413,-372.5 291,-372.5"/>
<text text-anchor="middle" x="352" y="-379.5" font-family="Helvetica,sans-Serif" font-size="10.00">TPCBase/PadSecPos.h</text>
</a>
</g>
</g>
<!-- Node30&#45;&gt;Node34 -->
<g id="edge41" class="edge"><title>Node30&#45;&gt;Node34</title>
<path fill="none" stroke="midnightblue" d="M627.902,-484.493C597.515,-476.476 552.089,-463.413 514,-448 495.943,-440.693 492.847,-435.806 475,-428 446.253,-415.427 412.76,-403.334 387.989,-394.856"/>
<polygon fill="midnightblue" stroke="midnightblue" points="388.877,-391.462 378.283,-391.566 386.63,-398.091 388.877,-391.462"/>
</g>
<!-- Node35 -->
<g id="node35" class="node"><title>Node35</title>
<g id="a_node35"><a xlink:href="../../d3/dd6/Sector_8h.html" target="_top" xlink:title="TPCBase/Sector.h">
<polygon fill="none" stroke="black" points="315.5,-254.5 315.5,-273.5 414.5,-273.5 414.5,-254.5 315.5,-254.5"/>
<text text-anchor="middle" x="365" y="-261.5" font-family="Helvetica,sans-Serif" font-size="10.00">TPCBase/Sector.h</text>
</a>
</g>
</g>
<!-- Node30&#45;&gt;Node35 -->
<g id="edge67" class="edge"><title>Node30&#45;&gt;Node35</title>
<path fill="none" stroke="midnightblue" d="M610.433,-485.264C607.242,-484.825 604.079,-484.4 601,-484 530.037,-474.776 328.688,-501.354 281,-448 234.651,-396.145 311.078,-314.361 347.441,-280.487"/>
<polygon fill="midnightblue" stroke="midnightblue" points="349.901,-282.98 354.933,-273.657 345.185,-277.807 349.901,-282.98"/>
</g>
<!-- Node37 -->
<g id="node37" class="node"><title>Node37</title>
<g id="a_node37"><a xlink:href="../../da/d61/PadROCPos_8h.html" target="_top" xlink:title="TPCBase/PadROCPos.h">
<polygon fill="none" stroke="black" points="657,-372.5 657,-391.5 785,-391.5 785,-372.5 657,-372.5"/>
<text text-anchor="middle" x="721" y="-379.5" font-family="Helvetica,sans-Serif" font-size="10.00">TPCBase/PadROCPos.h</text>
</a>
</g>
</g>
<!-- Node30&#45;&gt;Node37 -->
<g id="edge46" class="edge"><title>Node30&#45;&gt;Node37</title>
<path fill="none" stroke="midnightblue" d="M666.63,-484.368C676.28,-466.376 698.714,-424.55 711.546,-400.627"/>
<polygon fill="midnightblue" stroke="midnightblue" points="714.75,-402.058 716.392,-391.591 708.581,-398.749 714.75,-402.058"/>
</g>
<!-- Node39 -->
<g id="node39" class="node"><title>Node39</title>
<g id="a_node39"><a xlink:href="../../d3/d54/DigitPos_8h.html" target="_top" xlink:title="TPCBase/DigitPos.h">
<polygon fill="none" stroke="black" points="523,-428.5 523,-447.5 631,-447.5 631,-428.5 523,-428.5"/>
<text text-anchor="middle" x="577" y="-435.5" font-family="Helvetica,sans-Serif" font-size="10.00">TPCBase/DigitPos.h</text>
</a>
</g>
</g>
<!-- Node30&#45;&gt;Node39 -->
<g id="edge52" class="edge"><title>Node30&#45;&gt;Node39</title>
<path fill="none" stroke="midnightblue" d="M648.343,-484.324C635.084,-475.9 614.732,-462.971 599.154,-453.074"/>
<polygon fill="midnightblue" stroke="midnightblue" points="600.94,-450.063 590.623,-447.655 597.187,-455.971 600.94,-450.063"/>
</g>
<!-- Node41 -->
<g id="node41" class="node"><title>Node41</title>
<g id="a_node41"><a xlink:href="../../d1/d1f/FECInfo_8h.html" target="_top" xlink:title="TPCBase/FECInfo.h">
<polygon fill="none" stroke="black" points="88.5,-316.5 88.5,-335.5 195.5,-335.5 195.5,-316.5 88.5,-316.5"/>
<text text-anchor="middle" x="142" y="-323.5" font-family="Helvetica,sans-Serif" font-size="10.00">TPCBase/FECInfo.h</text>
</a>
</g>
</g>
<!-- Node30&#45;&gt;Node41 -->
<g id="edge60" class="edge"><title>Node30&#45;&gt;Node41</title>
<path fill="none" stroke="midnightblue" d="M610.442,-485.191C607.249,-484.77 604.082,-484.369 601,-484 514.362,-473.628 283.21,-495.475 210,-448 173.217,-424.147 154.371,-373.085 146.546,-345.535"/>
<polygon fill="midnightblue" stroke="midnightblue" points="149.863,-344.39 143.92,-335.619 143.096,-346.182 149.863,-344.39"/>
</g>
<!-- Node42 -->
<g id="node42" class="node"><title>Node42</title>
<g id="a_node42"><a xlink:href="../../da/d9d/PadRegionInfo_8h.html" target="_top" xlink:title="TPCBase/PadRegionInfo.h">
<polygon fill="none" stroke="black" points="725.5,-428.5 725.5,-447.5 860.5,-447.5 860.5,-428.5 725.5,-428.5"/>
<text text-anchor="middle" x="793" y="-435.5" font-family="Helvetica,sans-Serif" font-size="10.00">TPCBase/PadRegionInfo.h</text>
</a>
</g>
</g>
<!-- Node30&#45;&gt;Node42 -->
<g id="edge62" class="edge"><title>Node30&#45;&gt;Node42</title>
<path fill="none" stroke="midnightblue" d="M682.757,-484.444C704.316,-475.557 738.263,-461.563 762.794,-451.451"/>
<polygon fill="midnightblue" stroke="midnightblue" points="764.428,-454.563 772.34,-447.516 761.761,-448.092 764.428,-454.563"/>
</g>
<!-- Node43 -->
<g id="node43" class="node"><title>Node43</title>
<g id="a_node43"><a xlink:href="../../d6/d42/PartitionInfo_8h.html" target="_top" xlink:title="TPCBase/PartitionInfo.h">
<polygon fill="none" stroke="black" points="290.5,-428.5 290.5,-447.5 413.5,-447.5 413.5,-428.5 290.5,-428.5"/>
<text text-anchor="middle" x="352" y="-435.5" font-family="Helvetica,sans-Serif" font-size="10.00">TPCBase/PartitionInfo.h</text>
</a>
</g>
</g>
<!-- Node30&#45;&gt;Node43 -->
<g id="edge66" class="edge"><title>Node30&#45;&gt;Node43</title>
<path fill="none" stroke="midnightblue" d="M612.88,-484.444C558.121,-474.905 469.59,-459.483 411.089,-449.293"/>
<polygon fill="midnightblue" stroke="midnightblue" points="411.343,-445.785 400.891,-447.516 410.142,-452.681 411.343,-445.785"/>
</g>
<!-- Node34&#45;&gt;Node33 -->
<g id="edge45" class="edge"><title>Node34&#45;&gt;Node33</title>
<path fill="none" stroke="midnightblue" d="M396.684,-372.444C446.29,-362.944 526.365,-347.611 579.585,-337.42"/>
<polygon fill="midnightblue" stroke="midnightblue" points="580.362,-340.835 589.525,-335.516 579.045,-333.96 580.362,-340.835"/>
</g>
<!-- Node34&#45;&gt;Node35 -->
<g id="edge42" class="edge"><title>Node34&#45;&gt;Node35</title>
<path fill="none" stroke="midnightblue" d="M351.751,-372.374C351.504,-363.316 351.141,-348.659 351,-336 350.901,-327.112 349.813,-324.809 351,-316 352.497,-304.893 355.749,-292.783 358.742,-283.152"/>
<polygon fill="midnightblue" stroke="midnightblue" points="362.112,-284.11 361.905,-273.517 355.461,-281.927 362.112,-284.11"/>
</g>
<!-- Node35&#45;&gt;Node17 -->
<g id="edge44" class="edge"><title>Node35&#45;&gt;Node17</title>
<path fill="none" stroke="midnightblue" d="M391.936,-254.403C424.603,-243.978 479.819,-226.356 516.343,-214.699"/>
<polygon fill="midnightblue" stroke="midnightblue" points="517.652,-217.955 526.114,-211.581 515.523,-211.287 517.652,-217.955"/>
</g>
<!-- Node36 -->
<g id="node36" class="node"><title>Node36</title>
<g id="a_node36"><a xlink:href="../../d0/dda/DataFormats_2Detectors_2TPC_2include_2DataFormatsTPC_2Constants_8h.html" target="_top" xlink:title="DataFormatsTPC/Constants.h">
<polygon fill="none" stroke="black" points="290,-192.5 290,-211.5 440,-211.5 440,-192.5 290,-192.5"/>
<text text-anchor="middle" x="365" y="-199.5" font-family="Helvetica,sans-Serif" font-size="10.00">DataFormatsTPC/Constants.h</text>
</a>
</g>
</g>
<!-- Node35&#45;&gt;Node36 -->
<g id="edge43" class="edge"><title>Node35&#45;&gt;Node36</title>
<path fill="none" stroke="midnightblue" d="M365,-254.403C365,-245.938 365,-232.728 365,-221.82"/>
<polygon fill="midnightblue" stroke="midnightblue" points="368.5,-221.581 365,-211.581 361.5,-221.581 368.5,-221.581"/>
</g>
<!-- Node37&#45;&gt;Node17 -->
<g id="edge47" class="edge"><title>Node37&#45;&gt;Node17</title>
<path fill="none" stroke="midnightblue" d="M719.048,-372.295C715.774,-359.114 708.203,-333.748 695,-316 662.28,-272.015 608.438,-235.619 577.303,-216.815"/>
<polygon fill="midnightblue" stroke="midnightblue" points="578.806,-213.638 568.418,-211.556 575.24,-219.662 578.806,-213.638"/>
</g>
<!-- Node37&#45;&gt;Node33 -->
<g id="edge51" class="edge"><title>Node37&#45;&gt;Node33</title>
<path fill="none" stroke="midnightblue" d="M707.022,-372.324C693.45,-363.9 672.62,-350.971 656.675,-341.074"/>
<polygon fill="midnightblue" stroke="midnightblue" points="658.286,-337.954 647.943,-335.655 654.594,-343.902 658.286,-337.954"/>
</g>
<!-- Node37&#45;&gt;Node38 -->
<g id="edge48" class="edge"><title>Node37&#45;&gt;Node38</title>
<path fill="none" stroke="midnightblue" d="M676.475,-372.444C627.044,-362.944 547.254,-347.611 494.222,-337.42"/>
<polygon fill="midnightblue" stroke="midnightblue" points="494.798,-333.967 484.317,-335.516 493.477,-340.841 494.798,-333.967"/>
</g>
<!-- Node38&#45;&gt;Node17 -->
<g id="edge49" class="edge"><title>Node38&#45;&gt;Node17</title>
<path fill="none" stroke="midnightblue" d="M445.932,-316.49C456.322,-301.829 478.825,-271.158 501,-248 511.192,-237.356 523.645,-226.514 533.809,-218.14"/>
<polygon fill="midnightblue" stroke="midnightblue" points="536.139,-220.757 541.709,-211.745 531.734,-215.317 536.139,-220.757"/>
</g>
<!-- Node38&#45;&gt;Node35 -->
<g id="edge50" class="edge"><title>Node38&#45;&gt;Node35</title>
<path fill="none" stroke="midnightblue" d="M429.254,-316.403C417.447,-306.958 398.257,-291.606 383.918,-280.134"/>
<polygon fill="midnightblue" stroke="midnightblue" points="385.721,-277.095 375.726,-273.581 381.348,-282.561 385.721,-277.095"/>
</g>
<!-- Node39&#45;&gt;Node17 -->
<g id="edge53" class="edge"><title>Node39&#45;&gt;Node17</title>
<path fill="none" stroke="midnightblue" d="M576.117,-428.394C572.649,-394.573 559.901,-270.281 554.968,-222.184"/>
<polygon fill="midnightblue" stroke="midnightblue" points="558.418,-221.525 553.916,-211.934 551.455,-222.239 558.418,-221.525"/>
</g>
<!-- Node39&#45;&gt;Node33 -->
<g id="edge58" class="edge"><title>Node39&#45;&gt;Node33</title>
<path fill="none" stroke="midnightblue" d="M581.473,-428.368C590.796,-410.376 612.469,-368.55 624.866,-344.627"/>
<polygon fill="midnightblue" stroke="midnightblue" points="628.055,-346.081 629.548,-335.591 621.84,-342.86 628.055,-346.081"/>
</g>
<!-- Node39&#45;&gt;Node34 -->
<g id="edge59" class="edge"><title>Node39&#45;&gt;Node34</title>
<path fill="none" stroke="midnightblue" d="M541.348,-428.444C502.344,-419.083 439.734,-404.056 397.283,-393.868"/>
<polygon fill="midnightblue" stroke="midnightblue" points="398.026,-390.447 387.485,-391.516 396.392,-397.254 398.026,-390.447"/>
</g>
<!-- Node40 -->
<g id="node40" class="node"><title>Node40</title>
<g id="a_node40"><a xlink:href="../../df/d26/CRU_8h.html" target="_top" xlink:title="TPCBase/CRU.h">
<polygon fill="none" stroke="black" points="431.5,-372.5 431.5,-391.5 524.5,-391.5 524.5,-372.5 431.5,-372.5"/>
<text text-anchor="middle" x="478" y="-379.5" font-family="Helvetica,sans-Serif" font-size="10.00">TPCBase/CRU.h</text>
</a>
</g>
</g>
<!-- Node39&#45;&gt;Node40 -->
<g id="edge54" class="edge"><title>Node39&#45;&gt;Node40</title>
<path fill="none" stroke="midnightblue" d="M561.094,-428.324C545.362,-419.743 521.058,-406.486 502.791,-396.522"/>
<polygon fill="midnightblue" stroke="midnightblue" points="504.322,-393.37 493.867,-391.655 500.97,-399.516 504.322,-393.37"/>
</g>
<!-- Node40&#45;&gt;Node17 -->
<g id="edge55" class="edge"><title>Node40&#45;&gt;Node17</title>
<path fill="none" stroke="midnightblue" d="M481.617,-372.415C493.172,-344.992 529.363,-259.099 545.316,-221.236"/>
<polygon fill="midnightblue" stroke="midnightblue" points="548.585,-222.493 549.242,-211.918 542.134,-219.775 548.585,-222.493"/>
</g>
<!-- Node40&#45;&gt;Node35 -->
<g id="edge56" class="edge"><title>Node40&#45;&gt;Node35</title>
<path fill="none" stroke="midnightblue" d="M443.94,-372.488C423.771,-365.765 399.256,-354.375 384,-336 371.801,-321.306 367.371,-299.524 365.797,-283.966"/>
<polygon fill="midnightblue" stroke="midnightblue" points="369.284,-283.654 365.084,-273.927 362.301,-284.149 369.284,-283.654"/>
</g>
<!-- Node40&#45;&gt;Node38 -->
<g id="edge57" class="edge"><title>Node40&#45;&gt;Node38</title>
<path fill="none" stroke="midnightblue" d="M471.725,-372.083C466.358,-364.455 458.482,-353.264 451.921,-343.941"/>
<polygon fill="midnightblue" stroke="midnightblue" points="454.775,-341.915 446.158,-335.751 449.051,-345.943 454.775,-341.915"/>
</g>
<!-- Node41&#45;&gt;Node29 -->
<g id="edge61" class="edge"><title>Node41&#45;&gt;Node29</title>
<path fill="none" stroke="midnightblue" d="M141.929,-316.458C141.642,-281.98 140.563,-152.583 140.157,-103.782"/>
<polygon fill="midnightblue" stroke="midnightblue" points="143.656,-103.661 140.072,-93.6902 136.656,-103.719 143.656,-103.661"/>
</g>
<!-- Node42&#45;&gt;Node2 -->
<g id="edge63" class="edge"><title>Node42&#45;&gt;Node2</title>
<path fill="none" stroke="midnightblue" d="M838.634,-428.444C897.396,-417.426 998.016,-398.559 1049.15,-388.971"/>
<polygon fill="midnightblue" stroke="midnightblue" points="1049.8,-392.41 1058.99,-387.127 1048.51,-385.53 1049.8,-392.41"/>
</g>
<!-- Node42&#45;&gt;Node17 -->
<g id="edge64" class="edge"><title>Node42&#45;&gt;Node17</title>
<path fill="none" stroke="midnightblue" d="M799.453,-428.258C808.05,-415.46 821.167,-391.074 812,-372 769.368,-283.3 655.007,-234.979 593.489,-214.688"/>
<polygon fill="midnightblue" stroke="midnightblue" points="594.319,-211.278 583.727,-211.557 592.181,-217.944 594.319,-211.278"/>
</g>
<!-- Node42&#45;&gt;Node33 -->
<g id="edge65" class="edge"><title>Node42&#45;&gt;Node33</title>
<path fill="none" stroke="midnightblue" d="M796.169,-428.395C800.537,-414.89 806.54,-388.553 794,-372 781.953,-356.097 736.237,-344.245 696.74,-336.707"/>
<polygon fill="midnightblue" stroke="midnightblue" points="697.326,-333.256 686.857,-334.884 696.056,-340.14 697.326,-333.256"/>
</g>
<!-- Node44&#45;&gt;Node2 -->
<g id="edge72" class="edge"><title>Node44&#45;&gt;Node2</title>
<path fill="none" stroke="midnightblue" d="M852.38,-540.449C872.245,-527.017 912.793,-500.779 950,-484 997.278,-462.679 1024.61,-484.949 1061,-448 1073.03,-435.787 1077.85,-416.52 1079.76,-402.129"/>
<polygon fill="midnightblue" stroke="midnightblue" points="1083.28,-402.151 1080.76,-391.86 1076.31,-401.474 1083.28,-402.151"/>
</g>
<!-- Node44&#45;&gt;Node3 -->
<g id="edge71" class="edge"><title>Node44&#45;&gt;Node3</title>
<path fill="none" stroke="midnightblue" d="M789.447,-540.474C743.117,-532.437 672.412,-519.612 602.226,-504.164"/>
<polygon fill="midnightblue" stroke="midnightblue" points="602.85,-500.718 592.329,-501.967 601.333,-507.551 602.85,-500.718"/>
</g>
<!-- Node44&#45;&gt;Node9 -->
<g id="edge74" class="edge"><title>Node44&#45;&gt;Node9</title>
<path fill="none" stroke="midnightblue" d="M785.269,-541.263C707.955,-530.334 568.484,-510.618 499.271,-500.834"/>
<polygon fill="midnightblue" stroke="midnightblue" points="499.576,-497.343 489.185,-499.408 498.596,-504.274 499.576,-497.343"/>
</g>
<!-- Node44&#45;&gt;Node13 -->
<g id="edge73" class="edge"><title>Node44&#45;&gt;Node13</title>
<path fill="none" stroke="midnightblue" d="M838.561,-540.143C836.852,-526.293 835.809,-499.491 850,-484 895.437,-434.402 931.76,-464.376 997,-448 998.445,-447.637 999.924,-447.264 1001.42,-446.886"/>
<polygon fill="midnightblue" stroke="midnightblue" points="1002.46,-450.233 1011.28,-444.37 1000.73,-443.45 1002.46,-450.233"/>
</g>
<!-- Node44&#45;&gt;Node14 -->
<g id="edge75" class="edge"><title>Node44&#45;&gt;Node14</title>
<path fill="none" stroke="midnightblue" d="M865.986,-540.444C893.696,-531.32 937.752,-516.813 968.616,-506.651"/>
<polygon fill="midnightblue" stroke="midnightblue" points="969.732,-509.968 978.135,-503.516 967.542,-503.32 969.732,-509.968"/>
</g>
<!-- Node44&#45;&gt;Node16 -->
<g id="edge76" class="edge"><title>Node44&#45;&gt;Node16</title>
<path fill="none" stroke="midnightblue" d="M828.271,-540.324C817.163,-532.107 800.258,-519.602 787.017,-509.807"/>
<polygon fill="midnightblue" stroke="midnightblue" points="789.063,-506.967 778.942,-503.834 784.9,-512.595 789.063,-506.967"/>
</g>
<!-- Node44&#45;&gt;Node30 -->
<g id="edge77" class="edge"><title>Node44&#45;&gt;Node30</title>
<path fill="none" stroke="midnightblue" d="M811.795,-540.444C781.59,-531.28 733.489,-516.688 699.971,-506.519"/>
<polygon fill="midnightblue" stroke="midnightblue" points="700.658,-503.07 690.073,-503.516 698.626,-509.769 700.658,-503.07"/>
</g>
<!-- Node45 -->
<g id="node45" class="node"><title>Node45</title>
<polygon fill="none" stroke="#bfbfbf" points="859,-484.5 859,-503.5 903,-503.5 903,-484.5 859,-484.5"/>
<text text-anchor="middle" x="881" y="-491.5" font-family="Helvetica,sans-Serif" font-size="10.00">Vc/Vc</text>
</g>
<!-- Node44&#45;&gt;Node45 -->
<g id="edge70" class="edge"><title>Node44&#45;&gt;Node45</title>
<path fill="none" stroke="midnightblue" d="M846.77,-540.083C852.562,-532.455 861.058,-521.264 868.138,-511.941"/>
<polygon fill="midnightblue" stroke="midnightblue" points="871.096,-513.832 874.356,-503.751 865.521,-509.599 871.096,-513.832"/>
</g>
</g>
</svg>
