<?xml version="1.0" encoding="UTF-8" standalone="no"?>
<!DOCTYPE svg PUBLIC "-//W3C//DTD SVG 1.1//EN"
 "http://www.w3.org/Graphics/SVG/1.1/DTD/svg11.dtd">
<!-- Generated by graphviz version 2.36.0 (20140111.2315)
 -->
<!-- Title: /home/travis/build/AliceO2Group/AliceO2/Detectors/PHOS/base/include/PHOSBase/Digit.h Pages: 1 -->
<!--zoomable 390 -->
<svg id="main" version="1.1" xmlns="http://www.w3.org/2000/svg" xmlns:xlink="http://www.w3.org/1999/xlink" xml:space="preserve" onload="init(evt)">
<style type="text/css"><![CDATA[
.edge:hover path { stroke: red; }
.edge:hover polygon { stroke: red; fill: red; }
]]></style>
<script type="text/javascript"><![CDATA[
var edges = document.getElementsByTagName('g');
if (edges && edges.length) {
  for (var i=0;i<edges.length;i++) {
    if (edges[i].id.substr(0,4)=='edge') {
      edges[i].setAttribute('class','edge');
    }
  }
}
]]></script>
        <defs>
                <circle id="rim" cx="0" cy="0" r="7"/>
                <circle id="rim2" cx="0" cy="0" r="3.5"/>
                <g id="zoomPlus">
                        <use xlink:href="#rim" fill="#404040">
                                <set attributeName="fill" to="#808080" begin="zoomplus.mouseover" end="zoomplus.mouseout"/>
                        </use>
                        <path d="M-4,0h8M0,-4v8" fill="none" stroke="white" stroke-width="1.5" pointer-events="none"/>
                </g>
                <g id="zoomMin">
                        <use xlink:href="#rim" fill="#404040">
                                <set attributeName="fill" to="#808080" begin="zoomminus.mouseover" end="zoomminus.mouseout"/>
                        </use>
                        <path d="M-4,0h8" fill="none" stroke="white" stroke-width="1.5" pointer-events="none"/>
                </g>
                <g id="dirArrow">
                        <path fill="none" stroke="white" stroke-width="1.5" d="M0,-3.0v7 M-2.5,-0.5L0,-3.0L2.5,-0.5"/>
                </g>
               <g id="resetDef">
                       <use xlink:href="#rim2" fill="#404040">
                               <set attributeName="fill" to="#808080" begin="reset.mouseover" end="reset.mouseout"/>
                       </use>
               </g>
        </defs>

<script type="text/javascript">
var viewWidth = 1421;
var viewHeight = 390;
var sectionId = 'dynsection-0';
</script>
<script xlink:href="../../svgpan.js"/>
<svg id="graph" class="graph">
<g id="viewport">
<title>/home/travis/build/AliceO2Group/AliceO2/Detectors/PHOS/base/include/PHOSBase/Digit.h</title>
<!-- Node1 -->
<g id="node1" class="node"><title>Node1</title>
<polygon fill="#bfbfbf" stroke="black" points="122,-329 122,-381 274,-381 274,-329 122,-329"/>
<text text-anchor="start" x="130" y="-369" font-family="Helvetica,sans-Serif" font-size="10.00">/home/travis/build</text>
<text text-anchor="start" x="130" y="-358" font-family="Helvetica,sans-Serif" font-size="10.00">/AliceO2Group/AliceO2</text>
<text text-anchor="start" x="130" y="-347" font-family="Helvetica,sans-Serif" font-size="10.00">/Detectors/PHOS/base/include</text>
<text text-anchor="middle" x="198" y="-336" font-family="Helvetica,sans-Serif" font-size="10.00">/PHOSBase/Digit.h</text>
</g>
<!-- Node2 -->
<g id="node2" class="node"><title>Node2</title>
<g id="a_node2"><a xlink:href="../../df/d5d/common_2include_2CommonDataFormat_2TimeStamp_8h.html" target="_top" xlink:title="CommonDataFormat/TimeStamp.h">
<polygon fill="none" stroke="black" points="0,-210.5 0,-229.5 170,-229.5 170,-210.5 0,-210.5"/>
<text text-anchor="middle" x="85" y="-217.5" font-family="Helvetica,sans-Serif" font-size="10.00">CommonDataFormat/TimeStamp.h</text>
</a>
</g>
</g>
<!-- Node1&#45;&gt;Node2 -->
<g id="edge1" class="edge"><title>Node1&#45;&gt;Node2</title>
<path fill="none" stroke="midnightblue" d="M176.746,-328.984C153.956,-302.161 118.429,-260.346 98.9469,-237.415"/>
<polygon fill="midnightblue" stroke="midnightblue" points="101.468,-234.977 92.3258,-229.622 96.1334,-239.509 101.468,-234.977"/>
</g>
<!-- Node4 -->
<g id="node4" class="node"><title>Node4</title>
<g id="a_node4"><a xlink:href="../../d7/dcd/MCCompLabel_8h.html" target="_top" xlink:title="SimulationDataFormat\l/MCCompLabel.h">
<polygon fill="none" stroke="black" points="127,-137 127,-167 241,-167 241,-137 127,-137"/>
<text text-anchor="start" x="135" y="-155" font-family="Helvetica,sans-Serif" font-size="10.00">SimulationDataFormat</text>
<text text-anchor="middle" x="184" y="-144" font-family="Helvetica,sans-Serif" font-size="10.00">/MCCompLabel.h</text>
</a>
</g>
</g>
<!-- Node1&#45;&gt;Node4 -->
<g id="edge3" class="edge"><title>Node1&#45;&gt;Node4</title>
<path fill="none" stroke="midnightblue" d="M196.255,-328.95C193.547,-290.062 188.364,-215.657 185.69,-177.258"/>
<polygon fill="midnightblue" stroke="midnightblue" points="189.162,-176.741 184.976,-167.008 182.179,-177.227 189.162,-176.741"/>
</g>
<!-- Node5 -->
<g id="node5" class="node"><title>Node5</title>
<g id="a_node5"><a xlink:href="../../d1/def/PHOS_2base_2include_2PHOSBase_2Hit_8h.html" target="_top" xlink:title="PHOSBase/Hit.h">
<polygon fill="none" stroke="black" points="231,-272.5 231,-291.5 323,-291.5 323,-272.5 231,-272.5"/>
<text text-anchor="middle" x="277" y="-279.5" font-family="Helvetica,sans-Serif" font-size="10.00">PHOSBase/Hit.h</text>
</a>
</g>
</g>
<!-- Node1&#45;&gt;Node5 -->
<g id="edge5" class="edge"><title>Node1&#45;&gt;Node5</title>
<path fill="none" stroke="midnightblue" d="M226.075,-328.768C237.301,-318.679 249.874,-307.379 259.718,-298.532"/>
<polygon fill="midnightblue" stroke="midnightblue" points="262.158,-301.045 267.256,-291.757 257.479,-295.838 262.158,-301.045"/>
</g>
<!-- Node3 -->
<g id="node3" class="node"><title>Node3</title>
<polygon fill="none" stroke="#bfbfbf" points="57,-74.5 57,-93.5 113,-93.5 113,-74.5 57,-74.5"/>
<text text-anchor="middle" x="85" y="-81.5" font-family="Helvetica,sans-Serif" font-size="10.00">Rtypes.h</text>
</g>
<!-- Node2&#45;&gt;Node3 -->
<g id="edge2" class="edge"><title>Node2&#45;&gt;Node3</title>
<path fill="none" stroke="midnightblue" d="M85,-210.208C85,-188.722 85,-133.167 85,-103.814"/>
<polygon fill="midnightblue" stroke="midnightblue" points="88.5001,-103.65 85,-93.6503 81.5001,-103.65 88.5001,-103.65"/>
</g>
<!-- Node4&#45;&gt;Node3 -->
<g id="edge4" class="edge"><title>Node4&#45;&gt;Node3</title>
<path fill="none" stroke="midnightblue" d="M162.518,-136.679C145.916,-125.611 123.044,-110.363 106.45,-99.3002"/>
<polygon fill="midnightblue" stroke="midnightblue" points="108.219,-96.2727 97.9568,-93.6379 104.336,-102.097 108.219,-96.2727"/>
</g>
<!-- Node6 -->
<g id="node6" class="node"><title>Node6</title>
<g id="a_node6"><a xlink:href="../../d4/d25/BaseHits_8h.html" target="_top" xlink:title="SimulationDataFormat\l/BaseHits.h">
<polygon fill="none" stroke="black" points="369,-205 369,-235 483,-235 483,-205 369,-205"/>
<text text-anchor="start" x="377" y="-223" font-family="Helvetica,sans-Serif" font-size="10.00">SimulationDataFormat</text>
<text text-anchor="middle" x="426" y="-212" font-family="Helvetica,sans-Serif" font-size="10.00">/BaseHits.h</text>
</a>
</g>
</g>
<!-- Node5&#45;&gt;Node6 -->
<g id="edge6" class="edge"><title>Node5&#45;&gt;Node6</title>
<path fill="none" stroke="midnightblue" d="M298.348,-272.403C320.015,-263.679 354.196,-249.914 381.737,-238.824"/>
<polygon fill="midnightblue" stroke="midnightblue" points="383.202,-242.007 391.17,-235.025 380.587,-235.514 383.202,-242.007"/>
</g>
<!-- Node7 -->
<g id="node7" class="node"><title>Node7</title>
<g id="a_node7"><a xlink:href="../../dd/d76/Cartesian3D_8h.html" target="_top" xlink:title="MathUtils/Cartesian3D.h">
<polygon fill="none" stroke="black" points="591.5,-142.5 591.5,-161.5 716.5,-161.5 716.5,-142.5 591.5,-142.5"/>
<text text-anchor="middle" x="654" y="-149.5" font-family="Helvetica,sans-Serif" font-size="10.00">MathUtils/Cartesian3D.h</text>
</a>
</g>
</g>
<!-- Node6&#45;&gt;Node7 -->
<g id="edge7" class="edge"><title>Node6&#45;&gt;Node7</title>
<path fill="none" stroke="midnightblue" d="M474.632,-204.922C516.411,-192.828 575.882,-175.613 614.703,-164.375"/>
<polygon fill="midnightblue" stroke="midnightblue" points="615.956,-167.656 624.589,-161.514 614.01,-160.932 615.956,-167.656"/>
</g>
<!-- Node7&#45;&gt;Node3 -->
<g id="edge13" class="edge"><title>Node7&#45;&gt;Node3</title>
<path fill="none" stroke="midnightblue" d="M591.184,-150.818C490.653,-149.231 288.041,-140.697 122,-100 118.935,-99.2487 115.789,-98.2902 112.69,-97.2218"/>
<polygon fill="midnightblue" stroke="midnightblue" points="113.686,-93.8558 103.095,-93.5546 111.187,-100.394 113.686,-93.8558"/>
</g>
<!-- Node8 -->
<g id="node8" class="node"><title>Node8</title>
<polygon fill="none" stroke="#bfbfbf" points="131.5,-69 131.5,-99 282.5,-99 282.5,-69 131.5,-69"/>
<text text-anchor="start" x="139.5" y="-87" font-family="Helvetica,sans-Serif" font-size="10.00">Math/GenVector/Displacement</text>
<text text-anchor="middle" x="207" y="-76" font-family="Helvetica,sans-Serif" font-size="10.00">Vector3D.h</text>
</g>
<!-- Node7&#45;&gt;Node8 -->
<g id="edge8" class="edge"><title>Node7&#45;&gt;Node8</title>
<path fill="none" stroke="midnightblue" d="M591.444,-142.858C521.319,-133.579 403.966,-117.601 292.588,-100.06"/>
<polygon fill="midnightblue" stroke="midnightblue" points="292.945,-96.5729 282.521,-98.4674 291.851,-103.487 292.945,-96.5729"/>
</g>
<!-- Node9 -->
<g id="node9" class="node"><title>Node9</title>
<polygon fill="none" stroke="#bfbfbf" points="301,-74.5 301,-93.5 477,-93.5 477,-74.5 301,-74.5"/>
<text text-anchor="middle" x="389" y="-81.5" font-family="Helvetica,sans-Serif" font-size="10.00">Math/GenVector/PositionVector3D.h</text>
</g>
<!-- Node7&#45;&gt;Node9 -->
<g id="edge9" class="edge"><title>Node7&#45;&gt;Node9</title>
<path fill="none" stroke="midnightblue" d="M619.628,-142.439C571.969,-130.57 485.776,-109.103 433.329,-96.0406"/>
<polygon fill="midnightblue" stroke="midnightblue" points="433.861,-92.5661 423.312,-93.5455 432.169,-99.3586 433.861,-92.5661"/>
</g>
<!-- Node10 -->
<g id="node10" class="node"><title>Node10</title>
<polygon fill="none" stroke="#bfbfbf" points="494.5,-74.5 494.5,-93.5 643.5,-93.5 643.5,-74.5 494.5,-74.5"/>
<text text-anchor="middle" x="569" y="-81.5" font-family="Helvetica,sans-Serif" font-size="10.00">Math/GenVector/Rotation3D.h</text>
</g>
<!-- Node7&#45;&gt;Node10 -->
<g id="edge10" class="edge"><title>Node7&#45;&gt;Node10</title>
<path fill="none" stroke="midnightblue" d="M642.888,-142.372C629.016,-131.6 605.063,-113.002 588.198,-99.9065"/>
<polygon fill="midnightblue" stroke="midnightblue" points="590.16,-96.999 580.115,-93.6305 585.867,-102.528 590.16,-96.999"/>
</g>
<!-- Node11 -->
<g id="node11" class="node"><title>Node11</title>
<polygon fill="none" stroke="#bfbfbf" points="662,-74.5 662,-93.5 818,-93.5 818,-74.5 662,-74.5"/>
<text text-anchor="middle" x="740" y="-81.5" font-family="Helvetica,sans-Serif" font-size="10.00">Math/GenVector/Transform3D.h</text>
</g>
<!-- Node7&#45;&gt;Node11 -->
<g id="edge11" class="edge"><title>Node7&#45;&gt;Node11</title>
<path fill="none" stroke="midnightblue" d="M665.243,-142.372C679.278,-131.6 703.512,-113.002 720.576,-99.9065"/>
<polygon fill="midnightblue" stroke="midnightblue" points="722.952,-102.495 728.754,-93.6305 718.69,-96.9421 722.952,-102.495"/>
</g>
<!-- Node12 -->
<g id="node12" class="node"><title>Node12</title>
<polygon fill="none" stroke="#bfbfbf" points="836,-74.5 836,-93.5 996,-93.5 996,-74.5 836,-74.5"/>
<text text-anchor="middle" x="916" y="-81.5" font-family="Helvetica,sans-Serif" font-size="10.00">Math/GenVector/Translation3D.h</text>
</g>
<!-- Node7&#45;&gt;Node12 -->
<g id="edge12" class="edge"><title>Node7&#45;&gt;Node12</title>
<path fill="none" stroke="midnightblue" d="M687.983,-142.439C735.103,-130.57 820.319,-109.103 872.172,-96.0406"/>
<polygon fill="midnightblue" stroke="midnightblue" points="873.235,-99.3823 882.077,-93.5455 871.525,-92.5944 873.235,-99.3823"/>
</g>
<!-- Node13 -->
<g id="node13" class="node"><title>Node13</title>
<polygon fill="none" stroke="#bfbfbf" points="1014,-74.5 1014,-93.5 1090,-93.5 1090,-74.5 1014,-74.5"/>
<text text-anchor="middle" x="1052" y="-81.5" font-family="Helvetica,sans-Serif" font-size="10.00">TGeoMatrix.h</text>
</g>
<!-- Node7&#45;&gt;Node13 -->
<g id="edge14" class="edge"><title>Node7&#45;&gt;Node13</title>
<path fill="none" stroke="midnightblue" d="M716.711,-145.037C787.38,-137.592 905.395,-122.966 1005,-100 1009.23,-99.0258 1013.62,-97.8503 1017.95,-96.5912"/>
<polygon fill="midnightblue" stroke="midnightblue" points="1019.29,-99.8404 1027.82,-93.557 1017.23,-93.1492 1019.29,-99.8404"/>
</g>
<!-- Node14 -->
<g id="node14" class="node"><title>Node14</title>
<polygon fill="none" stroke="#bfbfbf" points="1108.5,-74.5 1108.5,-93.5 1153.5,-93.5 1153.5,-74.5 1108.5,-74.5"/>
<text text-anchor="middle" x="1131" y="-81.5" font-family="Helvetica,sans-Serif" font-size="10.00">iosfwd</text>
</g>
<!-- Node7&#45;&gt;Node14 -->
<g id="edge15" class="edge"><title>Node7&#45;&gt;Node14</title>
<path fill="none" stroke="midnightblue" d="M716.776,-150.162C804.084,-147.576 966.391,-137.591 1099,-100 1101.34,-99.3364 1103.72,-98.5185 1106.08,-97.6099"/>
<polygon fill="midnightblue" stroke="midnightblue" points="1107.67,-100.734 1115.44,-93.5284 1104.88,-94.3174 1107.67,-100.734"/>
</g>
<!-- Node15 -->
<g id="node15" class="node"><title>Node15</title>
<g id="a_node15"><a xlink:href="../../d2/dd0/Cartesian2D_8h.html" target="_top" xlink:title="MathUtils/Cartesian2D.h">
<polygon fill="none" stroke="black" points="1171.5,-74.5 1171.5,-93.5 1296.5,-93.5 1296.5,-74.5 1171.5,-74.5"/>
<text text-anchor="middle" x="1234" y="-81.5" font-family="Helvetica,sans-Serif" font-size="10.00">MathUtils/Cartesian2D.h</text>
</a>
</g>
</g>
<!-- Node7&#45;&gt;Node15 -->
<g id="edge16" class="edge"><title>Node7&#45;&gt;Node15</title>
<path fill="none" stroke="midnightblue" d="M716.834,-146.831C813.063,-139.966 1002.56,-124.542 1162,-100 1170.07,-98.7571 1178.61,-97.1985 1186.87,-95.5595"/>
<polygon fill="midnightblue" stroke="midnightblue" points="1187.67,-98.969 1196.77,-93.5365 1186.27,-92.1109 1187.67,-98.969"/>
</g>
<!-- Node16 -->
<g id="node16" class="node"><title>Node16</title>
<polygon fill="none" stroke="#bfbfbf" points="1067.5,-1 1067.5,-31 1218.5,-31 1218.5,-1 1067.5,-1"/>
<text text-anchor="start" x="1075.5" y="-19" font-family="Helvetica,sans-Serif" font-size="10.00">Math/GenVector/Displacement</text>
<text text-anchor="middle" x="1143" y="-8" font-family="Helvetica,sans-Serif" font-size="10.00">Vector2D.h</text>
</g>
<!-- Node15&#45;&gt;Node16 -->
<g id="edge17" class="edge"><title>Node15&#45;&gt;Node16</title>
<path fill="none" stroke="midnightblue" d="M1222.1,-74.3717C1209.22,-65.0286 1188.22,-49.7966 1171.09,-37.375"/>
<polygon fill="midnightblue" stroke="midnightblue" points="1172.7,-34.2194 1162.55,-31.1815 1168.59,-39.8859 1172.7,-34.2194"/>
</g>
<!-- Node17 -->
<g id="node17" class="node"><title>Node17</title>
<polygon fill="none" stroke="#bfbfbf" points="1237,-6.5 1237,-25.5 1413,-25.5 1413,-6.5 1237,-6.5"/>
<text text-anchor="middle" x="1325" y="-13.5" font-family="Helvetica,sans-Serif" font-size="10.00">Math/GenVector/PositionVector2D.h</text>
</g>
<!-- Node15&#45;&gt;Node17 -->
<g id="edge18" class="edge"><title>Node15&#45;&gt;Node17</title>
<path fill="none" stroke="midnightblue" d="M1245.9,-74.3717C1260.88,-63.5015 1286.86,-44.6602 1304.94,-31.5474"/>
<polygon fill="midnightblue" stroke="midnightblue" points="1307.06,-34.3349 1313.1,-25.6305 1302.95,-28.6684 1307.06,-34.3349"/>
</g>
</g>
</svg>
        <g id="navigator" transform="translate(0 0)" fill="#404254">
                <rect fill="#f2f5e9" fill-opacity="0.5" stroke="#606060" stroke-width=".5" x="0" y="0" width="60" height="60"/>
                <use id="zoomplus" xlink:href="#zoomPlus" x="17" y="9" onmousedown="handleZoom(evt,'in')"/>
                <use id="zoomminus" xlink:href="#zoomMin" x="42" y="9" onmousedown="handleZoom(evt,'out')"/>
                <use id="reset" xlink:href="#resetDef" x="30" y="36" onmousedown="handleReset()"/>
                <g id="arrowUp" xlink:href="#dirArrow" transform="translate(30 24)" onmousedown="handlePan(0,-1)">
                  <use xlink:href="#rim" fill="#404040">
                        <set attributeName="fill" to="#808080" begin="arrowUp.mouseover" end="arrowUp.mouseout"/>
                  </use>
                  <path fill="none" stroke="white" stroke-width="1.5" d="M0,-3.0v7 M-2.5,-0.5L0,-3.0L2.5,-0.5"/>
                </g>
                <g id="arrowRight" xlink:href="#dirArrow" transform="rotate(90) translate(36 -43)" onmousedown="handlePan(1,0)">
                  <use xlink:href="#rim" fill="#404040">
                        <set attributeName="fill" to="#808080" begin="arrowRight.mouseover" end="arrowRight.mouseout"/>
                  </use>
                  <path fill="none" stroke="white" stroke-width="1.5" d="M0,-3.0v7 M-2.5,-0.5L0,-3.0L2.5,-0.5"/>
                </g>
                <g id="arrowDown" xlink:href="#dirArrow" transform="rotate(180) translate(-30 -48)" onmousedown="handlePan(0,1)">
                  <use xlink:href="#rim" fill="#404040">
                        <set attributeName="fill" to="#808080" begin="arrowDown.mouseover" end="arrowDown.mouseout"/>
                  </use>
                  <path fill="none" stroke="white" stroke-width="1.5" d="M0,-3.0v7 M-2.5,-0.5L0,-3.0L2.5,-0.5"/>
                </g>
                <g id="arrowLeft" xlink:href="#dirArrow" transform="rotate(270) translate(-36 17)" onmousedown="handlePan(-1,0)">
                  <use xlink:href="#rim" fill="#404040">
                        <set attributeName="fill" to="#808080" begin="arrowLeft.mouseover" end="arrowLeft.mouseout"/>
                  </use>
                  <path fill="none" stroke="white" stroke-width="1.5" d="M0,-3.0v7 M-2.5,-0.5L0,-3.0L2.5,-0.5"/>
                </g>
        </g>
        <svg viewBox="0 0 15 15" width="100%" height="30px" preserveAspectRatio="xMaxYMin meet">
         <g id="arrow_out" transform="scale(0.3 0.3)">
          <a xlink:href="PHOS_2base_2include_2PHOSBase_2Digit_8h__incl_org.svg" target="_base">
           <rect id="button" ry="5" rx="5" y="6" x="6" height="38" width="38"
                fill="#f2f5e9" fill-opacity="0.5" stroke="#606060" stroke-width="1.0"/>
           <path id="arrow"
             d="M 11.500037,31.436501 C 11.940474,20.09759 22.043105,11.32322 32.158766,21.979434 L 37.068811,17.246167 C 37.068811,17.246167 37.088388,32 37.088388,32 L 22.160133,31.978069 C 22.160133,31.978069 26.997745,27.140456 26.997745,27.140456 C 18.528582,18.264221 13.291696,25.230495 11.500037,31.436501 z"
             style="fill:#404040;"/>
          </a>
         </g>
        </svg>
</svg>
