<?xml version="1.0" encoding="UTF-8" standalone="no"?>
<!DOCTYPE svg PUBLIC "-//W3C//DTD SVG 1.1//EN"
 "http://www.w3.org/Graphics/SVG/1.1/DTD/svg11.dtd">
<!-- Generated by graphviz version 2.36.0 (20140111.2315)
 -->
<!-- Title: /home/travis/build/AliceO2Group/AliceO2/Detectors/PHOS/reconstruction/include/PHOSReconstruction/Cluster.h Pages: 1 -->
<!--zoomable 456 -->
<svg id="main" version="1.1" xmlns="http://www.w3.org/2000/svg" xmlns:xlink="http://www.w3.org/1999/xlink" xml:space="preserve" onload="init(evt)">
<style type="text/css"><![CDATA[
.edge:hover path { stroke: red; }
.edge:hover polygon { stroke: red; fill: red; }
]]></style>
<script type="text/javascript"><![CDATA[
var edges = document.getElementsByTagName('g');
if (edges && edges.length) {
  for (var i=0;i<edges.length;i++) {
    if (edges[i].id.substr(0,4)=='edge') {
      edges[i].setAttribute('class','edge');
    }
  }
}
]]></script>
        <defs>
                <circle id="rim" cx="0" cy="0" r="7"/>
                <circle id="rim2" cx="0" cy="0" r="3.5"/>
                <g id="zoomPlus">
                        <use xlink:href="#rim" fill="#404040">
                                <set attributeName="fill" to="#808080" begin="zoomplus.mouseover" end="zoomplus.mouseout"/>
                        </use>
                        <path d="M-4,0h8M0,-4v8" fill="none" stroke="white" stroke-width="1.5" pointer-events="none"/>
                </g>
                <g id="zoomMin">
                        <use xlink:href="#rim" fill="#404040">
                                <set attributeName="fill" to="#808080" begin="zoomminus.mouseover" end="zoomminus.mouseout"/>
                        </use>
                        <path d="M-4,0h8" fill="none" stroke="white" stroke-width="1.5" pointer-events="none"/>
                </g>
                <g id="dirArrow">
                        <path fill="none" stroke="white" stroke-width="1.5" d="M0,-3.0v7 M-2.5,-0.5L0,-3.0L2.5,-0.5"/>
                </g>
               <g id="resetDef">
                       <use xlink:href="#rim2" fill="#404040">
                               <set attributeName="fill" to="#808080" begin="reset.mouseover" end="reset.mouseout"/>
                       </use>
               </g>
        </defs>

<script type="text/javascript">
var viewWidth = 1365;
var viewHeight = 456;
var sectionId = 'dynsection-0';
</script>
<script xlink:href="../../svgpan.js"/>
<svg id="graph" class="graph">
<g id="viewport">
<title>/home/travis/build/AliceO2Group/AliceO2/Detectors/PHOS/reconstruction/include/PHOSReconstruction/Cluster.h</title>
<!-- Node1 -->
<g id="node1" class="node"><title>Node1</title>
<polygon fill="#bfbfbf" stroke="black" points="21,-384.5 21,-447.5 179,-447.5 179,-384.5 21,-384.5"/>
<text text-anchor="start" x="29" y="-435.5" font-family="Helvetica,sans-Serif" font-size="10.00">/home/travis/build</text>
<text text-anchor="start" x="29" y="-424.5" font-family="Helvetica,sans-Serif" font-size="10.00">/AliceO2Group/AliceO2</text>
<text text-anchor="start" x="29" y="-413.5" font-family="Helvetica,sans-Serif" font-size="10.00">/Detectors/PHOS/reconstruction</text>
<text text-anchor="start" x="29" y="-402.5" font-family="Helvetica,sans-Serif" font-size="10.00">/include/PHOSReconstruction</text>
<text text-anchor="middle" x="100" y="-391.5" font-family="Helvetica,sans-Serif" font-size="10.00">/Cluster.h</text>
</g>
<!-- Node2 -->
<g id="node2" class="node"><title>Node2</title>
<g id="a_node2"><a xlink:href="../../d8/de9/PHOS_2base_2include_2PHOSBase_2Digit_8h.html" target="_top" xlink:title="PHOSBase/Digit.h">
<polygon fill="none" stroke="black" points="90.5,-328.5 90.5,-347.5 189.5,-347.5 189.5,-328.5 90.5,-328.5"/>
<text text-anchor="middle" x="140" y="-335.5" font-family="Helvetica,sans-Serif" font-size="10.00">PHOSBase/Digit.h</text>
</a>
</g>
</g>
<!-- Node1&#45;&gt;Node2 -->
<g id="edge1" class="edge"><title>Node1&#45;&gt;Node2</title>
<path fill="none" stroke="midnightblue" d="M116.27,-384.088C121.19,-374.739 126.423,-364.796 130.72,-356.633"/>
<polygon fill="midnightblue" stroke="midnightblue" points="133.851,-358.197 135.411,-347.718 127.657,-354.937 133.851,-358.197"/>
</g>
<!-- Node5 -->
<g id="node5" class="node"><title>Node5</title>
<g id="a_node5"><a xlink:href="../../d7/dcd/MCCompLabel_8h.html" target="_top" xlink:title="SimulationDataFormat\l/MCCompLabel.h">
<polygon fill="none" stroke="black" points="0,-261 0,-291 114,-291 114,-261 0,-261"/>
<text text-anchor="start" x="8" y="-279" font-family="Helvetica,sans-Serif" font-size="10.00">SimulationDataFormat</text>
<text text-anchor="middle" x="57" y="-268" font-family="Helvetica,sans-Serif" font-size="10.00">/MCCompLabel.h</text>
</a>
</g>
</g>
<!-- Node1&#45;&gt;Node5 -->
<g id="edge20" class="edge"><title>Node1&#45;&gt;Node5</title>
<path fill="none" stroke="midnightblue" d="M90.4569,-384.373C82.6039,-359.171 71.6303,-323.953 64.4227,-300.822"/>
<polygon fill="midnightblue" stroke="midnightblue" points="67.7174,-299.63 61.4009,-291.124 61.0343,-301.712 67.7174,-299.63"/>
</g>
<!-- Node3 -->
<g id="node3" class="node"><title>Node3</title>
<g id="a_node3"><a xlink:href="../../df/d5d/common_2include_2CommonDataFormat_2TimeStamp_8h.html" target="_top" xlink:title="CommonDataFormat/TimeStamp.h">
<polygon fill="none" stroke="black" points="57,-198.5 57,-217.5 227,-217.5 227,-198.5 57,-198.5"/>
<text text-anchor="middle" x="142" y="-205.5" font-family="Helvetica,sans-Serif" font-size="10.00">CommonDataFormat/TimeStamp.h</text>
</a>
</g>
</g>
<!-- Node2&#45;&gt;Node3 -->
<g id="edge2" class="edge"><title>Node2&#45;&gt;Node3</title>
<path fill="none" stroke="midnightblue" d="M140.137,-328.202C140.46,-307.551 141.272,-255.606 141.709,-227.594"/>
<polygon fill="midnightblue" stroke="midnightblue" points="145.21,-227.576 141.867,-217.522 138.211,-227.466 145.21,-227.576"/>
</g>
<!-- Node2&#45;&gt;Node5 -->
<g id="edge4" class="edge"><title>Node2&#45;&gt;Node5</title>
<path fill="none" stroke="midnightblue" d="M128.108,-328.403C116.867,-320.277 99.5781,-307.779 84.863,-297.142"/>
<polygon fill="midnightblue" stroke="midnightblue" points="86.7162,-294.163 76.5615,-291.141 82.6152,-299.836 86.7162,-294.163"/>
</g>
<!-- Node6 -->
<g id="node6" class="node"><title>Node6</title>
<g id="a_node6"><a xlink:href="../../d1/def/PHOS_2base_2include_2PHOSBase_2Hit_8h.html" target="_top" xlink:title="PHOSBase/Hit.h">
<polygon fill="none" stroke="black" points="318,-266.5 318,-285.5 410,-285.5 410,-266.5 318,-266.5"/>
<text text-anchor="middle" x="364" y="-273.5" font-family="Helvetica,sans-Serif" font-size="10.00">PHOSBase/Hit.h</text>
</a>
</g>
</g>
<!-- Node2&#45;&gt;Node6 -->
<g id="edge6" class="edge"><title>Node2&#45;&gt;Node6</title>
<path fill="none" stroke="midnightblue" d="M172.094,-328.403C211.599,-317.822 278.779,-299.827 322.261,-288.18"/>
<polygon fill="midnightblue" stroke="midnightblue" points="323.212,-291.549 331.966,-285.581 321.401,-284.787 323.212,-291.549"/>
</g>
<!-- Node4 -->
<g id="node4" class="node"><title>Node4</title>
<polygon fill="none" stroke="#bfbfbf" points="1,-74.5 1,-93.5 57,-93.5 57,-74.5 1,-74.5"/>
<text text-anchor="middle" x="29" y="-81.5" font-family="Helvetica,sans-Serif" font-size="10.00">Rtypes.h</text>
</g>
<!-- Node3&#45;&gt;Node4 -->
<g id="edge3" class="edge"><title>Node3&#45;&gt;Node4</title>
<path fill="none" stroke="midnightblue" d="M133.873,-198.226C115.06,-177.914 68.2754,-127.404 44.0586,-101.258"/>
<polygon fill="midnightblue" stroke="midnightblue" points="46.4161,-98.6526 37.053,-93.6944 41.2806,-103.409 46.4161,-98.6526"/>
</g>
<!-- Node5&#45;&gt;Node4 -->
<g id="edge5" class="edge"><title>Node5&#45;&gt;Node4</title>
<path fill="none" stroke="midnightblue" d="M54.3299,-260.736C52.4556,-250.523 49.9465,-236.436 48,-224 41.307,-181.239 34.7508,-130.866 31.3665,-104.054"/>
<polygon fill="midnightblue" stroke="midnightblue" points="34.7979,-103.287 30.0823,-93.7992 27.8521,-104.157 34.7979,-103.287"/>
</g>
<!-- Node7 -->
<g id="node7" class="node"><title>Node7</title>
<g id="a_node7"><a xlink:href="../../d4/d25/BaseHits_8h.html" target="_top" xlink:title="SimulationDataFormat\l/BaseHits.h">
<polygon fill="none" stroke="black" points="424,-193 424,-223 538,-223 538,-193 424,-193"/>
<text text-anchor="start" x="432" y="-211" font-family="Helvetica,sans-Serif" font-size="10.00">SimulationDataFormat</text>
<text text-anchor="middle" x="481" y="-200" font-family="Helvetica,sans-Serif" font-size="10.00">/BaseHits.h</text>
</a>
</g>
</g>
<!-- Node6&#45;&gt;Node7 -->
<g id="edge7" class="edge"><title>Node6&#45;&gt;Node7</title>
<path fill="none" stroke="midnightblue" d="M379.296,-266.372C396.39,-256.729 424.605,-240.812 446.986,-228.187"/>
<polygon fill="midnightblue" stroke="midnightblue" points="448.87,-231.143 455.86,-223.181 445.431,-225.046 448.87,-231.143"/>
</g>
<!-- Node8 -->
<g id="node8" class="node"><title>Node8</title>
<g id="a_node8"><a xlink:href="../../dd/d76/Cartesian3D_8h.html" target="_top" xlink:title="MathUtils/Cartesian3D.h">
<polygon fill="none" stroke="black" points="535.5,-136.5 535.5,-155.5 660.5,-155.5 660.5,-136.5 535.5,-136.5"/>
<text text-anchor="middle" x="598" y="-143.5" font-family="Helvetica,sans-Serif" font-size="10.00">MathUtils/Cartesian3D.h</text>
</a>
</g>
</g>
<!-- Node7&#45;&gt;Node8 -->
<g id="edge8" class="edge"><title>Node7&#45;&gt;Node8</title>
<path fill="none" stroke="midnightblue" d="M508.431,-192.933C527.73,-183.036 553.383,-169.88 572.289,-160.185"/>
<polygon fill="midnightblue" stroke="midnightblue" points="573.929,-163.278 581.23,-155.6 570.735,-157.049 573.929,-163.278"/>
</g>
<!-- Node8&#45;&gt;Node4 -->
<g id="edge14" class="edge"><title>Node8&#45;&gt;Node4</title>
<path fill="none" stroke="midnightblue" d="M535.197,-145.739C434.685,-145.58 232.098,-139.728 66,-100 62.9306,-99.2659 59.7826,-98.3184 56.6811,-97.2566"/>
<polygon fill="midnightblue" stroke="midnightblue" points="57.6758,-93.8901 47.085,-93.5972 55.1815,-100.431 57.6758,-93.8901"/>
</g>
<!-- Node9 -->
<g id="node9" class="node"><title>Node9</title>
<polygon fill="none" stroke="#bfbfbf" points="75.5,-69 75.5,-99 226.5,-99 226.5,-69 75.5,-69"/>
<text text-anchor="start" x="83.5" y="-87" font-family="Helvetica,sans-Serif" font-size="10.00">Math/GenVector/Displacement</text>
<text text-anchor="middle" x="151" y="-76" font-family="Helvetica,sans-Serif" font-size="10.00">Vector3D.h</text>
</g>
<!-- Node8&#45;&gt;Node9 -->
<g id="edge9" class="edge"><title>Node8&#45;&gt;Node9</title>
<path fill="none" stroke="midnightblue" d="M535.41,-138.201C465.255,-130.359 347.873,-116.579 236.571,-100.037"/>
<polygon fill="midnightblue" stroke="midnightblue" points="236.919,-96.5499 226.511,-98.5314 235.883,-103.473 236.919,-96.5499"/>
</g>
<!-- Node10 -->
<g id="node10" class="node"><title>Node10</title>
<polygon fill="none" stroke="#bfbfbf" points="245,-74.5 245,-93.5 421,-93.5 421,-74.5 245,-74.5"/>
<text text-anchor="middle" x="333" y="-81.5" font-family="Helvetica,sans-Serif" font-size="10.00">Math/GenVector/PositionVector3D.h</text>
</g>
<!-- Node8&#45;&gt;Node10 -->
<g id="edge10" class="edge"><title>Node8&#45;&gt;Node10</title>
<path fill="none" stroke="midnightblue" d="M560.313,-136.467C513.024,-125.76 431.899,-107.392 380.435,-95.74"/>
<polygon fill="midnightblue" stroke="midnightblue" points="381.083,-92.2981 370.557,-93.5034 379.537,-99.1253 381.083,-92.2981"/>
</g>
<!-- Node11 -->
<g id="node11" class="node"><title>Node11</title>
<polygon fill="none" stroke="#bfbfbf" points="438.5,-74.5 438.5,-93.5 587.5,-93.5 587.5,-74.5 438.5,-74.5"/>
<text text-anchor="middle" x="513" y="-81.5" font-family="Helvetica,sans-Serif" font-size="10.00">Math/GenVector/Rotation3D.h</text>
</g>
<!-- Node8&#45;&gt;Node11 -->
<g id="edge11" class="edge"><title>Node8&#45;&gt;Node11</title>
<path fill="none" stroke="midnightblue" d="M585.822,-136.403C572.188,-126.78 549.868,-111.024 533.526,-99.4891"/>
<polygon fill="midnightblue" stroke="midnightblue" points="535.344,-96.4881 525.156,-93.5806 531.307,-102.207 535.344,-96.4881"/>
</g>
<!-- Node12 -->
<g id="node12" class="node"><title>Node12</title>
<polygon fill="none" stroke="#bfbfbf" points="606,-74.5 606,-93.5 762,-93.5 762,-74.5 606,-74.5"/>
<text text-anchor="middle" x="684" y="-81.5" font-family="Helvetica,sans-Serif" font-size="10.00">Math/GenVector/Transform3D.h</text>
</g>
<!-- Node8&#45;&gt;Node12 -->
<g id="edge12" class="edge"><title>Node8&#45;&gt;Node12</title>
<path fill="none" stroke="midnightblue" d="M610.322,-136.403C624.116,-126.78 646.699,-111.024 663.232,-99.4891"/>
<polygon fill="midnightblue" stroke="midnightblue" points="665.503,-102.173 671.701,-93.5806 661.497,-96.432 665.503,-102.173"/>
</g>
<!-- Node13 -->
<g id="node13" class="node"><title>Node13</title>
<polygon fill="none" stroke="#bfbfbf" points="780,-74.5 780,-93.5 940,-93.5 940,-74.5 780,-74.5"/>
<text text-anchor="middle" x="860" y="-81.5" font-family="Helvetica,sans-Serif" font-size="10.00">Math/GenVector/Translation3D.h</text>
</g>
<!-- Node8&#45;&gt;Node13 -->
<g id="edge13" class="edge"><title>Node8&#45;&gt;Node13</title>
<path fill="none" stroke="midnightblue" d="M635.26,-136.467C682.014,-125.76 762.221,-107.392 813.102,-95.74"/>
<polygon fill="midnightblue" stroke="midnightblue" points="813.902,-99.1474 822.869,-93.5034 812.34,-92.3241 813.902,-99.1474"/>
</g>
<!-- Node14 -->
<g id="node14" class="node"><title>Node14</title>
<polygon fill="none" stroke="#bfbfbf" points="958,-74.5 958,-93.5 1034,-93.5 1034,-74.5 958,-74.5"/>
<text text-anchor="middle" x="996" y="-81.5" font-family="Helvetica,sans-Serif" font-size="10.00">TGeoMatrix.h</text>
</g>
<!-- Node8&#45;&gt;Node14 -->
<g id="edge15" class="edge"><title>Node8&#45;&gt;Node14</title>
<path fill="none" stroke="midnightblue" d="M660.726,-140.412C731.408,-134.445 849.434,-122.079 949,-100 953.233,-99.0613 957.63,-97.9072 961.961,-96.6597"/>
<polygon fill="midnightblue" stroke="midnightblue" points="963.298,-99.9106 971.836,-93.6366 961.249,-93.2172 963.298,-99.9106"/>
</g>
<!-- Node15 -->
<g id="node15" class="node"><title>Node15</title>
<polygon fill="none" stroke="#bfbfbf" points="1052.5,-74.5 1052.5,-93.5 1097.5,-93.5 1097.5,-74.5 1052.5,-74.5"/>
<text text-anchor="middle" x="1075" y="-81.5" font-family="Helvetica,sans-Serif" font-size="10.00">iosfwd</text>
</g>
<!-- Node8&#45;&gt;Node15 -->
<g id="edge16" class="edge"><title>Node8&#45;&gt;Node15</title>
<path fill="none" stroke="midnightblue" d="M660.76,-145.25C748.049,-144.123 910.334,-136.653 1043,-100 1045.35,-99.352 1047.73,-98.5449 1050.09,-97.6434"/>
<polygon fill="midnightblue" stroke="midnightblue" points="1051.68,-100.77 1059.45,-93.5728 1048.89,-94.3502 1051.68,-100.77"/>
</g>
<!-- Node16 -->
<g id="node16" class="node"><title>Node16</title>
<g id="a_node16"><a xlink:href="../../d2/dd0/Cartesian2D_8h.html" target="_top" xlink:title="MathUtils/Cartesian2D.h">
<polygon fill="none" stroke="black" points="1115.5,-74.5 1115.5,-93.5 1240.5,-93.5 1240.5,-74.5 1115.5,-74.5"/>
<text text-anchor="middle" x="1178" y="-81.5" font-family="Helvetica,sans-Serif" font-size="10.00">MathUtils/Cartesian2D.h</text>
</a>
</g>
</g>
<!-- Node8&#45;&gt;Node16 -->
<g id="edge17" class="edge"><title>Node8&#45;&gt;Node16</title>
<path fill="none" stroke="midnightblue" d="M660.842,-141.805C757.083,-136.378 946.593,-123.583 1106,-100 1114.17,-98.7911 1122.81,-97.2352 1131.16,-95.585"/>
<polygon fill="midnightblue" stroke="midnightblue" points="1132.05,-98.9748 1141.15,-93.5422 1130.65,-92.1167 1132.05,-98.9748"/>
</g>
<!-- Node17 -->
<g id="node17" class="node"><title>Node17</title>
<polygon fill="none" stroke="#bfbfbf" points="1011.5,-1 1011.5,-31 1162.5,-31 1162.5,-1 1011.5,-1"/>
<text text-anchor="start" x="1019.5" y="-19" font-family="Helvetica,sans-Serif" font-size="10.00">Math/GenVector/Displacement</text>
<text text-anchor="middle" x="1087" y="-8" font-family="Helvetica,sans-Serif" font-size="10.00">Vector2D.h</text>
</g>
<!-- Node16&#45;&gt;Node17 -->
<g id="edge18" class="edge"><title>Node16&#45;&gt;Node17</title>
<path fill="none" stroke="midnightblue" d="M1166.1,-74.3717C1153.22,-65.0286 1132.22,-49.7966 1115.09,-37.375"/>
<polygon fill="midnightblue" stroke="midnightblue" points="1116.7,-34.2194 1106.55,-31.1815 1112.59,-39.8859 1116.7,-34.2194"/>
</g>
<!-- Node18 -->
<g id="node18" class="node"><title>Node18</title>
<polygon fill="none" stroke="#bfbfbf" points="1181,-6.5 1181,-25.5 1357,-25.5 1357,-6.5 1181,-6.5"/>
<text text-anchor="middle" x="1269" y="-13.5" font-family="Helvetica,sans-Serif" font-size="10.00">Math/GenVector/PositionVector2D.h</text>
</g>
<!-- Node16&#45;&gt;Node18 -->
<g id="edge19" class="edge"><title>Node16&#45;&gt;Node18</title>
<path fill="none" stroke="midnightblue" d="M1189.9,-74.3717C1204.88,-63.5015 1230.86,-44.6602 1248.94,-31.5474"/>
<polygon fill="midnightblue" stroke="midnightblue" points="1251.06,-34.3349 1257.1,-25.6305 1246.95,-28.6684 1251.06,-34.3349"/>
</g>
</g>
</svg>
        <g id="navigator" transform="translate(0 0)" fill="#404254">
                <rect fill="#f2f5e9" fill-opacity="0.5" stroke="#606060" stroke-width=".5" x="0" y="0" width="60" height="60"/>
                <use id="zoomplus" xlink:href="#zoomPlus" x="17" y="9" onmousedown="handleZoom(evt,'in')"/>
                <use id="zoomminus" xlink:href="#zoomMin" x="42" y="9" onmousedown="handleZoom(evt,'out')"/>
                <use id="reset" xlink:href="#resetDef" x="30" y="36" onmousedown="handleReset()"/>
                <g id="arrowUp" xlink:href="#dirArrow" transform="translate(30 24)" onmousedown="handlePan(0,-1)">
                  <use xlink:href="#rim" fill="#404040">
                        <set attributeName="fill" to="#808080" begin="arrowUp.mouseover" end="arrowUp.mouseout"/>
                  </use>
                  <path fill="none" stroke="white" stroke-width="1.5" d="M0,-3.0v7 M-2.5,-0.5L0,-3.0L2.5,-0.5"/>
                </g>
                <g id="arrowRight" xlink:href="#dirArrow" transform="rotate(90) translate(36 -43)" onmousedown="handlePan(1,0)">
                  <use xlink:href="#rim" fill="#404040">
                        <set attributeName="fill" to="#808080" begin="arrowRight.mouseover" end="arrowRight.mouseout"/>
                  </use>
                  <path fill="none" stroke="white" stroke-width="1.5" d="M0,-3.0v7 M-2.5,-0.5L0,-3.0L2.5,-0.5"/>
                </g>
                <g id="arrowDown" xlink:href="#dirArrow" transform="rotate(180) translate(-30 -48)" onmousedown="handlePan(0,1)">
                  <use xlink:href="#rim" fill="#404040">
                        <set attributeName="fill" to="#808080" begin="arrowDown.mouseover" end="arrowDown.mouseout"/>
                  </use>
                  <path fill="none" stroke="white" stroke-width="1.5" d="M0,-3.0v7 M-2.5,-0.5L0,-3.0L2.5,-0.5"/>
                </g>
                <g id="arrowLeft" xlink:href="#dirArrow" transform="rotate(270) translate(-36 17)" onmousedown="handlePan(-1,0)">
                  <use xlink:href="#rim" fill="#404040">
                        <set attributeName="fill" to="#808080" begin="arrowLeft.mouseover" end="arrowLeft.mouseout"/>
                  </use>
                  <path fill="none" stroke="white" stroke-width="1.5" d="M0,-3.0v7 M-2.5,-0.5L0,-3.0L2.5,-0.5"/>
                </g>
        </g>
        <svg viewBox="0 0 15 15" width="100%" height="30px" preserveAspectRatio="xMaxYMin meet">
         <g id="arrow_out" transform="scale(0.3 0.3)">
          <a xlink:href="Detectors_2PHOS_2reconstruction_2include_2PHOSReconstruction_2Cluster_8h__incl_org.svg" target="_base">
           <rect id="button" ry="5" rx="5" y="6" x="6" height="38" width="38"
                fill="#f2f5e9" fill-opacity="0.5" stroke="#606060" stroke-width="1.0"/>
           <path id="arrow"
             d="M 11.500037,31.436501 C 11.940474,20.09759 22.043105,11.32322 32.158766,21.979434 L 37.068811,17.246167 C 37.068811,17.246167 37.088388,32 37.088388,32 L 22.160133,31.978069 C 22.160133,31.978069 26.997745,27.140456 26.997745,27.140456 C 18.528582,18.264221 13.291696,25.230495 11.500037,31.436501 z"
             style="fill:#404040;"/>
          </a>
         </g>
        </svg>
</svg>
