<?xml version="1.0" encoding="UTF-8" standalone="no"?>
<!DOCTYPE svg PUBLIC "-//W3C//DTD SVG 1.1//EN"
 "http://www.w3.org/Graphics/SVG/1.1/DTD/svg11.dtd">
<!-- Generated by graphviz version 2.36.0 (20140111.2315)
 -->
<!-- Title: /home/travis/build/AliceO2Group/AliceO2/Detectors/TPC/workflow/src/RangeTokenizer.h Pages: 1 -->
<svg width="240pt" height="118pt"
 viewBox="0.00 0.00 240.00 118.00" xmlns="http://www.w3.org/2000/svg" xmlns:xlink="http://www.w3.org/1999/xlink">
<g id="graph0" class="graph" transform="scale(1 1) rotate(0) translate(4 114)">
<title>/home/travis/build/AliceO2Group/AliceO2/Detectors/TPC/workflow/src/RangeTokenizer.h</title>
<!-- Node1 -->
<g id="node1" class="node"><title>Node1</title>
<polygon fill="#bfbfbf" stroke="black" points="51,-57 51,-109 179,-109 179,-57 51,-57"/>
<text text-anchor="start" x="59" y="-97" font-family="Helvetica,sans-Serif" font-size="10.00">/home/travis/build</text>
<text text-anchor="start" x="59" y="-86" font-family="Helvetica,sans-Serif" font-size="10.00">/AliceO2Group/AliceO2</text>
<text text-anchor="start" x="59" y="-75" font-family="Helvetica,sans-Serif" font-size="10.00">/Detectors/TPC/workflow</text>
<text text-anchor="middle" x="115" y="-64" font-family="Helvetica,sans-Serif" font-size="10.00">/src/RangeTokenizer.h</text>
</g>
<!-- Node2 -->
<g id="node2" class="node"><title>Node2</title>
<polygon fill="none" stroke="#bfbfbf" points="0,-0.5 0,-19.5 44,-19.5 44,-0.5 0,-0.5"/>
<text text-anchor="middle" x="22" y="-7.5" font-family="Helvetica,sans-Serif" font-size="10.00">vector</text>
</g>
<!-- Node1&#45;&gt;Node2 -->
<g id="edge1" class="edge"><title>Node1&#45;&gt;Node2</title>
<path fill="none" stroke="midnightblue" d="M82.2117,-56.9681C68.7097,-46.6601 53.5138,-35.0589 41.7658,-26.09"/>
<polygon fill="midnightblue" stroke="midnightblue" points="43.6116,-23.0958 33.5393,-19.8095 39.3638,-28.6597 43.6116,-23.0958"/>
</g>
<!-- Node3 -->
<g id="node3" class="node"><title>Node3</title>
<polygon fill="none" stroke="#bfbfbf" points="62.5,-0.5 62.5,-19.5 103.5,-19.5 103.5,-0.5 62.5,-0.5"/>
<text text-anchor="middle" x="83" y="-7.5" font-family="Helvetica,sans-Serif" font-size="10.00">string</text>
</g>
<!-- Node1&#45;&gt;Node3 -->
<g id="edge2" class="edge"><title>Node1&#45;&gt;Node3</title>
<path fill="none" stroke="midnightblue" d="M103.628,-56.7681C99.4899,-47.587 94.9001,-37.4034 91.1025,-28.9775"/>
<polygon fill="midnightblue" stroke="midnightblue" points="94.2468,-27.4358 86.9469,-19.7572 87.865,-30.3121 94.2468,-27.4358"/>
</g>
<!-- Node4 -->
<g id="node4" class="node"><title>Node4</title>
<polygon fill="none" stroke="#bfbfbf" points="122,-0.5 122,-19.5 174,-19.5 174,-0.5 122,-0.5"/>
<text text-anchor="middle" x="148" y="-7.5" font-family="Helvetica,sans-Serif" font-size="10.00">sstream</text>
</g>
<!-- Node1&#45;&gt;Node4 -->
<g id="edge3" class="edge"><title>Node1&#45;&gt;Node4</title>
<path fill="none" stroke="midnightblue" d="M126.727,-56.7681C130.995,-47.587 135.728,-37.4034 139.644,-28.9775"/>
<polygon fill="midnightblue" stroke="midnightblue" points="142.889,-30.3007 143.93,-19.7572 136.541,-27.3503 142.889,-30.3007"/>
</g>
<!-- Node5 -->
<g id="node5" class="node"><title>Node5</title>
<polygon fill="none" stroke="#bfbfbf" points="192,-0.5 192,-19.5 232,-19.5 232,-0.5 192,-0.5"/>
<text text-anchor="middle" x="212" y="-7.5" font-family="Helvetica,sans-Serif" font-size="10.00">utility</text>
</g>
<!-- Node1&#45;&gt;Node5 -->
<g id="edge4" class="edge"><title>Node1&#45;&gt;Node5</title>
<path fill="none" stroke="midnightblue" d="M149.199,-56.9681C163.419,-46.559 179.442,-34.8313 191.743,-25.827"/>
<polygon fill="midnightblue" stroke="midnightblue" points="193.962,-28.5403 199.964,-19.8095 189.828,-22.8917 193.962,-28.5403"/>
</g>
</g>
</svg>
