<?xml version="1.0" encoding="UTF-8" standalone="no"?>
<!DOCTYPE svg PUBLIC "-//W3C//DTD SVG 1.1//EN"
 "http://www.w3.org/Graphics/SVG/1.1/DTD/svg11.dtd">
<!-- Generated by graphviz version 2.36.0 (20140111.2315)
 -->
<!-- Title: /home/travis/build/AliceO2Group/AliceO2/Detectors/MUON/MCH/Simulation/src/Stepper.cxx Pages: 1 -->
<svg width="2338pt" height="458pt"
 viewBox="0.00 0.00 2338.00 458.00" xmlns="http://www.w3.org/2000/svg" xmlns:xlink="http://www.w3.org/1999/xlink">
<g id="graph0" class="graph" transform="scale(1 1) rotate(0) translate(4 454)">
<title>/home/travis/build/AliceO2Group/AliceO2/Detectors/MUON/MCH/Simulation/src/Stepper.cxx</title>
<!-- Node1 -->
<g id="node1" class="node"><title>Node1</title>
<polygon fill="#bfbfbf" stroke="black" points="1651.5,-397 1651.5,-449 1822.5,-449 1822.5,-397 1651.5,-397"/>
<text text-anchor="start" x="1659.5" y="-437" font-family="Helvetica,sans-Serif" font-size="10.00">/home/travis/build</text>
<text text-anchor="start" x="1659.5" y="-426" font-family="Helvetica,sans-Serif" font-size="10.00">/AliceO2Group/AliceO2</text>
<text text-anchor="start" x="1659.5" y="-415" font-family="Helvetica,sans-Serif" font-size="10.00">/Detectors/MUON/MCH/Simulation</text>
<text text-anchor="middle" x="1737" y="-404" font-family="Helvetica,sans-Serif" font-size="10.00">/src/Stepper.cxx</text>
</g>
<!-- Node2 -->
<g id="node2" class="node"><title>Node2</title>
<g id="a_node2"><a xlink:href="../../df/d6c/Stepper_8h.html" target="_top" xlink:title="Stepper.h">
<polygon fill="none" stroke="black" points="882.5,-334.5 882.5,-353.5 941.5,-353.5 941.5,-334.5 882.5,-334.5"/>
<text text-anchor="middle" x="912" y="-341.5" font-family="Helvetica,sans-Serif" font-size="10.00">Stepper.h</text>
</a>
</g>
</g>
<!-- Node1&#45;&gt;Node2 -->
<g id="edge1" class="edge"><title>Node1&#45;&gt;Node2</title>
<path fill="none" stroke="midnightblue" d="M1651.48,-417.106C1514.03,-408.72 1235.57,-389.595 1001,-360 984.832,-357.96 967.112,-355.102 951.77,-352.427"/>
<polygon fill="midnightblue" stroke="midnightblue" points="952.034,-348.919 941.576,-350.617 950.81,-355.812 952.034,-348.919"/>
</g>
<!-- Node17 -->
<g id="node17" class="node"><title>Node17</title>
<polygon fill="none" stroke="#bfbfbf" points="967,-198.5 967,-217.5 1041,-217.5 1041,-198.5 967,-198.5"/>
<text text-anchor="middle" x="1004" y="-205.5" font-family="Helvetica,sans-Serif" font-size="10.00">TVirtualMC.h</text>
</g>
<!-- Node1&#45;&gt;Node17 -->
<g id="edge62" class="edge"><title>Node1&#45;&gt;Node17</title>
<path fill="none" stroke="midnightblue" d="M1651.3,-417.493C1483.91,-406.93 1122.17,-374.89 1034,-292 1015.98,-275.06 1008.76,-246.484 1005.88,-227.681"/>
<polygon fill="midnightblue" stroke="midnightblue" points="1009.34,-227.147 1004.62,-217.664 1002.4,-228.024 1009.34,-227.147"/>
</g>
<!-- Node21 -->
<g id="node21" class="node"><title>Node21</title>
<g id="a_node21"><a xlink:href="../../d4/d03/simulation_2include_2SimulationDataFormat_2Stack_8h.html" target="_top" xlink:title="SimulationDataFormat\l/Stack.h">
<polygon fill="none" stroke="black" points="1401,-329 1401,-359 1515,-359 1515,-329 1401,-329"/>
<text text-anchor="start" x="1409" y="-347" font-family="Helvetica,sans-Serif" font-size="10.00">SimulationDataFormat</text>
<text text-anchor="middle" x="1458" y="-336" font-family="Helvetica,sans-Serif" font-size="10.00">/Stack.h</text>
</a>
</g>
</g>
<!-- Node1&#45;&gt;Node21 -->
<g id="edge20" class="edge"><title>Node1&#45;&gt;Node21</title>
<path fill="none" stroke="midnightblue" d="M1651.39,-398.374C1608.61,-386.565 1557.82,-372.549 1519.03,-361.844"/>
<polygon fill="midnightblue" stroke="midnightblue" points="1519.51,-358.344 1508.94,-359.058 1517.64,-365.092 1519.51,-358.344"/>
</g>
<!-- Node34 -->
<g id="node34" class="node"><title>Node34</title>
<polygon fill="none" stroke="#bfbfbf" points="2115.5,-198.5 2115.5,-217.5 2198.5,-217.5 2198.5,-198.5 2115.5,-198.5"/>
<text text-anchor="middle" x="2157" y="-205.5" font-family="Helvetica,sans-Serif" font-size="10.00">TMCProcess.h</text>
</g>
<!-- Node1&#45;&gt;Node34 -->
<g id="edge64" class="edge"><title>Node1&#45;&gt;Node34</title>
<path fill="none" stroke="midnightblue" d="M1723.09,-396.726C1713.88,-376.214 1706,-347.584 1721,-328 1734.47,-310.409 2084.68,-230.015 2106,-224 2110.1,-222.844 2114.37,-221.618 2118.63,-220.384"/>
<polygon fill="midnightblue" stroke="midnightblue" points="2119.82,-223.683 2128.44,-217.521 2117.86,-216.963 2119.82,-223.683"/>
</g>
<!-- Node43 -->
<g id="node43" class="node"><title>Node43</title>
<g id="a_node43"><a xlink:href="../../d5/dbe/TrackReference_8h.html" target="_top" xlink:title="SimulationDataFormat\l/TrackReference.h">
<polygon fill="none" stroke="black" points="1043,-261 1043,-291 1157,-291 1157,-261 1043,-261"/>
<text text-anchor="start" x="1051" y="-279" font-family="Helvetica,sans-Serif" font-size="10.00">SimulationDataFormat</text>
<text text-anchor="middle" x="1100" y="-268" font-family="Helvetica,sans-Serif" font-size="10.00">/TrackReference.h</text>
</a>
</g>
</g>
<!-- Node1&#45;&gt;Node43 -->
<g id="edge60" class="edge"><title>Node1&#45;&gt;Node43</title>
<path fill="none" stroke="midnightblue" d="M1651.45,-409.047C1581.35,-397.853 1479.75,-380.303 1392,-360 1308.03,-340.571 1212.18,-312.093 1153.9,-294.057"/>
<polygon fill="midnightblue" stroke="midnightblue" points="1154.76,-290.659 1144.17,-291.035 1152.68,-297.344 1154.76,-290.659"/>
</g>
<!-- Node49 -->
<g id="node49" class="node"><title>Node49</title>
<polygon fill="none" stroke="#bfbfbf" points="1730,-334.5 1730,-353.5 1816,-353.5 1816,-334.5 1730,-334.5"/>
<text text-anchor="middle" x="1773" y="-341.5" font-family="Helvetica,sans-Serif" font-size="10.00">TGeoManager.h</text>
</g>
<!-- Node1&#45;&gt;Node49 -->
<g id="edge61" class="edge"><title>Node1&#45;&gt;Node49</title>
<path fill="none" stroke="midnightblue" d="M1748.79,-396.787C1753.96,-385.719 1759.92,-372.982 1764.63,-362.909"/>
<polygon fill="midnightblue" stroke="midnightblue" points="1767.93,-364.099 1769,-353.558 1761.59,-361.134 1767.93,-364.099"/>
</g>
<!-- Node50 -->
<g id="node50" class="node"><title>Node50</title>
<polygon fill="none" stroke="#bfbfbf" points="1834,-334.5 1834,-353.5 1934,-353.5 1934,-334.5 1834,-334.5"/>
<text text-anchor="middle" x="1884" y="-341.5" font-family="Helvetica,sans-Serif" font-size="10.00">TVirtualMCStack.h</text>
</g>
<!-- Node1&#45;&gt;Node50 -->
<g id="edge63" class="edge"><title>Node1&#45;&gt;Node50</title>
<path fill="none" stroke="midnightblue" d="M1785.13,-396.787C1809.71,-383.914 1838.6,-368.781 1858.78,-358.21"/>
<polygon fill="midnightblue" stroke="midnightblue" points="1860.43,-361.298 1867.66,-353.558 1857.18,-355.097 1860.43,-361.298"/>
</g>
<!-- Node51 -->
<g id="node51" class="node"><title>Node51</title>
<polygon fill="none" stroke="#bfbfbf" points="1952,-334.5 1952,-353.5 2002,-353.5 2002,-334.5 1952,-334.5"/>
<text text-anchor="middle" x="1977" y="-341.5" font-family="Helvetica,sans-Serif" font-size="10.00">iomanip</text>
</g>
<!-- Node1&#45;&gt;Node51 -->
<g id="edge65" class="edge"><title>Node1&#45;&gt;Node51</title>
<path fill="none" stroke="midnightblue" d="M1822.72,-398.762C1860.02,-387.994 1904.02,-374.4 1943,-360 1945.11,-359.219 1947.28,-358.371 1949.46,-357.491"/>
<polygon fill="midnightblue" stroke="midnightblue" points="1950.98,-360.645 1958.82,-353.515 1948.25,-354.202 1950.98,-360.645"/>
</g>
<!-- Node52 -->
<g id="node52" class="node"><title>Node52</title>
<polygon fill="none" stroke="#bfbfbf" points="2020.5,-334.5 2020.5,-353.5 2077.5,-353.5 2077.5,-334.5 2020.5,-334.5"/>
<text text-anchor="middle" x="2049" y="-341.5" font-family="Helvetica,sans-Serif" font-size="10.00">TArrayI.h</text>
</g>
<!-- Node1&#45;&gt;Node52 -->
<g id="edge66" class="edge"><title>Node1&#45;&gt;Node52</title>
<path fill="none" stroke="midnightblue" d="M1822.74,-406.121C1877.21,-395.17 1948.9,-379.159 2011,-360 2013.8,-359.138 2016.68,-358.164 2019.54,-357.136"/>
<polygon fill="midnightblue" stroke="midnightblue" points="2020.98,-360.337 2029.09,-353.524 2018.5,-353.79 2020.98,-360.337"/>
</g>
<!-- Node53 -->
<g id="node53" class="node"><title>Node53</title>
<polygon fill="none" stroke="#bfbfbf" points="2096,-334.5 2096,-353.5 2196,-353.5 2196,-334.5 2096,-334.5"/>
<text text-anchor="middle" x="2146" y="-341.5" font-family="Helvetica,sans-Serif" font-size="10.00">FairRootManager.h</text>
</g>
<!-- Node1&#45;&gt;Node53 -->
<g id="edge67" class="edge"><title>Node1&#45;&gt;Node53</title>
<path fill="none" stroke="midnightblue" d="M1822.66,-408.48C1893.51,-396.891 1996.63,-379.086 2086,-360 2091.79,-358.765 2097.86,-357.366 2103.83,-355.932"/>
<polygon fill="midnightblue" stroke="midnightblue" points="2104.83,-359.29 2113.71,-353.508 2103.16,-352.491 2104.83,-359.29"/>
</g>
<!-- Node3 -->
<g id="node3" class="node"><title>Node3</title>
<g id="a_node3"><a xlink:href="../../de/d89/MUON_2MCH_2Simulation_2include_2MCHSimulation_2Hit_8h.html" target="_top" xlink:title="MCHSimulation/Hit.h">
<polygon fill="none" stroke="black" points="729,-266.5 729,-285.5 839,-285.5 839,-266.5 729,-266.5"/>
<text text-anchor="middle" x="784" y="-273.5" font-family="Helvetica,sans-Serif" font-size="10.00">MCHSimulation/Hit.h</text>
</a>
</g>
</g>
<!-- Node2&#45;&gt;Node3 -->
<g id="edge2" class="edge"><title>Node2&#45;&gt;Node3</title>
<path fill="none" stroke="midnightblue" d="M895.266,-334.372C873.514,-323.156 835.303,-303.453 809.82,-290.314"/>
<polygon fill="midnightblue" stroke="midnightblue" points="811.23,-287.103 800.738,-285.63 808.022,-293.324 811.23,-287.103"/>
</g>
<!-- Node2&#45;&gt;Node17 -->
<g id="edge16" class="edge"><title>Node2&#45;&gt;Node17</title>
<path fill="none" stroke="midnightblue" d="M919.61,-334.237C928.12,-324.282 942.134,-307.413 953,-292 968.315,-270.276 984.046,-243.945 993.911,-226.85"/>
<polygon fill="midnightblue" stroke="midnightblue" points="997.071,-228.376 998.994,-217.957 990.993,-224.902 997.071,-228.376"/>
</g>
<!-- Node18 -->
<g id="node18" class="node"><title>Node18</title>
<polygon fill="none" stroke="#bfbfbf" points="857,-266.5 857,-285.5 911,-285.5 911,-266.5 857,-266.5"/>
<text text-anchor="middle" x="884" y="-273.5" font-family="Helvetica,sans-Serif" font-size="10.00">iostream</text>
</g>
<!-- Node2&#45;&gt;Node18 -->
<g id="edge17" class="edge"><title>Node2&#45;&gt;Node18</title>
<path fill="none" stroke="midnightblue" d="M908.339,-334.372C904.129,-324.446 897.098,-307.874 891.673,-295.086"/>
<polygon fill="midnightblue" stroke="midnightblue" points="894.878,-293.68 887.751,-285.841 888.434,-296.414 894.878,-293.68"/>
</g>
<!-- Node19 -->
<g id="node19" class="node"><title>Node19</title>
<polygon fill="none" stroke="#bfbfbf" points="667,-266.5 667,-285.5 711,-285.5 711,-266.5 667,-266.5"/>
<text text-anchor="middle" x="689" y="-273.5" font-family="Helvetica,sans-Serif" font-size="10.00">vector</text>
</g>
<!-- Node2&#45;&gt;Node19 -->
<g id="edge18" class="edge"><title>Node2&#45;&gt;Node19</title>
<path fill="none" stroke="midnightblue" d="M882.181,-336.936C843.958,-328.744 775.943,-312.748 720,-292 718.15,-291.314 716.262,-290.555 714.376,-289.755"/>
<polygon fill="midnightblue" stroke="midnightblue" points="715.705,-286.514 705.156,-285.537 712.794,-292.88 715.705,-286.514"/>
</g>
<!-- Node20 -->
<g id="node20" class="node"><title>Node20</title>
<polygon fill="none" stroke="#bfbfbf" points="1960,-74.5 1960,-93.5 1998,-93.5 1998,-74.5 1960,-74.5"/>
<text text-anchor="middle" x="1979" y="-81.5" font-family="Helvetica,sans-Serif" font-size="10.00">array</text>
</g>
<!-- Node2&#45;&gt;Node20 -->
<g id="edge19" class="edge"><title>Node2&#45;&gt;Node20</title>
<path fill="none" stroke="midnightblue" d="M913.495,-334.158C918.617,-304.902 936.341,-211.969 958,-192 1033.01,-122.84 1790.74,-91.794 1949.8,-86.0124"/>
<polygon fill="midnightblue" stroke="midnightblue" points="1949.94,-89.51 1959.8,-85.6538 1949.69,-82.5145 1949.94,-89.51"/>
</g>
<!-- Node4 -->
<g id="node4" class="node"><title>Node4</title>
<g id="a_node4"><a xlink:href="../../d4/d25/BaseHits_8h.html" target="_top" xlink:title="SimulationDataFormat\l/BaseHits.h">
<polygon fill="none" stroke="black" points="727,-193 727,-223 841,-223 841,-193 727,-193"/>
<text text-anchor="start" x="735" y="-211" font-family="Helvetica,sans-Serif" font-size="10.00">SimulationDataFormat</text>
<text text-anchor="middle" x="784" y="-200" font-family="Helvetica,sans-Serif" font-size="10.00">/BaseHits.h</text>
</a>
</g>
</g>
<!-- Node3&#45;&gt;Node4 -->
<g id="edge3" class="edge"><title>Node3&#45;&gt;Node4</title>
<path fill="none" stroke="midnightblue" d="M784,-266.372C784,-257.971 784,-244.811 784,-233.213"/>
<polygon fill="midnightblue" stroke="midnightblue" points="787.5,-233.181 784,-223.181 780.5,-233.181 787.5,-233.181"/>
</g>
<!-- Node5 -->
<g id="node5" class="node"><title>Node5</title>
<g id="a_node5"><a xlink:href="../../dd/d76/Cartesian3D_8h.html" target="_top" xlink:title="MathUtils/Cartesian3D.h">
<polygon fill="none" stroke="black" points="721.5,-136.5 721.5,-155.5 846.5,-155.5 846.5,-136.5 721.5,-136.5"/>
<text text-anchor="middle" x="784" y="-143.5" font-family="Helvetica,sans-Serif" font-size="10.00">MathUtils/Cartesian3D.h</text>
</a>
</g>
</g>
<!-- Node4&#45;&gt;Node5 -->
<g id="edge4" class="edge"><title>Node4&#45;&gt;Node5</title>
<path fill="none" stroke="midnightblue" d="M784,-192.781C784,-184.781 784,-174.689 784,-166.017"/>
<polygon fill="midnightblue" stroke="midnightblue" points="787.5,-165.73 784,-155.731 780.5,-165.731 787.5,-165.73"/>
</g>
<!-- Node6 -->
<g id="node6" class="node"><title>Node6</title>
<polygon fill="none" stroke="#bfbfbf" points="-0.5,-69 -0.5,-99 150.5,-99 150.5,-69 -0.5,-69"/>
<text text-anchor="start" x="7.5" y="-87" font-family="Helvetica,sans-Serif" font-size="10.00">Math/GenVector/Displacement</text>
<text text-anchor="middle" x="75" y="-76" font-family="Helvetica,sans-Serif" font-size="10.00">Vector3D.h</text>
</g>
<!-- Node5&#45;&gt;Node6 -->
<g id="edge5" class="edge"><title>Node5&#45;&gt;Node6</title>
<path fill="none" stroke="midnightblue" d="M721.352,-142.613C610.443,-137.92 372.129,-125.742 160.975,-100.034"/>
<polygon fill="midnightblue" stroke="midnightblue" points="161.294,-96.547 150.942,-98.7997 160.439,-103.495 161.294,-96.547"/>
</g>
<!-- Node7 -->
<g id="node7" class="node"><title>Node7</title>
<polygon fill="none" stroke="#bfbfbf" points="169,-74.5 169,-93.5 345,-93.5 345,-74.5 169,-74.5"/>
<text text-anchor="middle" x="257" y="-81.5" font-family="Helvetica,sans-Serif" font-size="10.00">Math/GenVector/PositionVector3D.h</text>
</g>
<!-- Node5&#45;&gt;Node7 -->
<g id="edge6" class="edge"><title>Node5&#45;&gt;Node7</title>
<path fill="none" stroke="midnightblue" d="M721.43,-139.475C637.462,-131.831 483.742,-117.028 353,-100 341.744,-98.534 329.773,-96.8023 318.24,-95.046"/>
<polygon fill="midnightblue" stroke="midnightblue" points="318.664,-91.57 308.247,-93.5022 317.595,-98.488 318.664,-91.57"/>
</g>
<!-- Node8 -->
<g id="node8" class="node"><title>Node8</title>
<polygon fill="none" stroke="#bfbfbf" points="362.5,-74.5 362.5,-93.5 511.5,-93.5 511.5,-74.5 362.5,-74.5"/>
<text text-anchor="middle" x="437" y="-81.5" font-family="Helvetica,sans-Serif" font-size="10.00">Math/GenVector/Rotation3D.h</text>
</g>
<!-- Node5&#45;&gt;Node8 -->
<g id="edge7" class="edge"><title>Node5&#45;&gt;Node8</title>
<path fill="none" stroke="midnightblue" d="M733.562,-136.482C680.606,-127.512 594.922,-112.924 521,-100 512.412,-98.4985 503.333,-96.8946 494.443,-95.3148"/>
<polygon fill="midnightblue" stroke="midnightblue" points="494.981,-91.8557 484.523,-93.5481 493.754,-98.7472 494.981,-91.8557"/>
</g>
<!-- Node9 -->
<g id="node9" class="node"><title>Node9</title>
<polygon fill="none" stroke="#bfbfbf" points="530,-74.5 530,-93.5 686,-93.5 686,-74.5 530,-74.5"/>
<text text-anchor="middle" x="608" y="-81.5" font-family="Helvetica,sans-Serif" font-size="10.00">Math/GenVector/Transform3D.h</text>
</g>
<!-- Node5&#45;&gt;Node9 -->
<g id="edge8" class="edge"><title>Node5&#45;&gt;Node9</title>
<path fill="none" stroke="midnightblue" d="M758.783,-136.403C728.332,-126.022 676.951,-108.506 642.757,-96.849"/>
<polygon fill="midnightblue" stroke="midnightblue" points="643.764,-93.4946 633.17,-93.5806 641.505,-100.12 643.764,-93.4946"/>
</g>
<!-- Node10 -->
<g id="node10" class="node"><title>Node10</title>
<polygon fill="none" stroke="#bfbfbf" points="704,-74.5 704,-93.5 864,-93.5 864,-74.5 704,-74.5"/>
<text text-anchor="middle" x="784" y="-81.5" font-family="Helvetica,sans-Serif" font-size="10.00">Math/GenVector/Translation3D.h</text>
</g>
<!-- Node5&#45;&gt;Node10 -->
<g id="edge9" class="edge"><title>Node5&#45;&gt;Node10</title>
<path fill="none" stroke="midnightblue" d="M784,-136.403C784,-127.938 784,-114.728 784,-103.82"/>
<polygon fill="midnightblue" stroke="midnightblue" points="787.5,-103.581 784,-93.5806 780.5,-103.581 787.5,-103.581"/>
</g>
<!-- Node11 -->
<g id="node11" class="node"><title>Node11</title>
<polygon fill="none" stroke="#bfbfbf" points="1182,-74.5 1182,-93.5 1238,-93.5 1238,-74.5 1182,-74.5"/>
<text text-anchor="middle" x="1210" y="-81.5" font-family="Helvetica,sans-Serif" font-size="10.00">Rtypes.h</text>
</g>
<!-- Node5&#45;&gt;Node11 -->
<g id="edge10" class="edge"><title>Node5&#45;&gt;Node11</title>
<path fill="none" stroke="midnightblue" d="M846.536,-139.833C940.32,-131.733 1112.81,-115.379 1173,-100 1175.99,-99.2353 1179.06,-98.2824 1182.1,-97.2298"/>
<polygon fill="midnightblue" stroke="midnightblue" points="1183.41,-100.474 1191.51,-93.637 1180.92,-93.934 1183.41,-100.474"/>
</g>
<!-- Node12 -->
<g id="node12" class="node"><title>Node12</title>
<polygon fill="none" stroke="#bfbfbf" points="882,-74.5 882,-93.5 958,-93.5 958,-74.5 882,-74.5"/>
<text text-anchor="middle" x="920" y="-81.5" font-family="Helvetica,sans-Serif" font-size="10.00">TGeoMatrix.h</text>
</g>
<!-- Node5&#45;&gt;Node12 -->
<g id="edge11" class="edge"><title>Node5&#45;&gt;Node12</title>
<path fill="none" stroke="midnightblue" d="M803.485,-136.403C826.41,-126.29 864.685,-109.404 891.075,-97.761"/>
<polygon fill="midnightblue" stroke="midnightblue" points="892.814,-100.819 900.551,-93.5806 889.989,-94.4148 892.814,-100.819"/>
</g>
<!-- Node13 -->
<g id="node13" class="node"><title>Node13</title>
<polygon fill="none" stroke="#bfbfbf" points="976.5,-74.5 976.5,-93.5 1021.5,-93.5 1021.5,-74.5 976.5,-74.5"/>
<text text-anchor="middle" x="999" y="-81.5" font-family="Helvetica,sans-Serif" font-size="10.00">iosfwd</text>
</g>
<!-- Node5&#45;&gt;Node13 -->
<g id="edge12" class="edge"><title>Node5&#45;&gt;Node13</title>
<path fill="none" stroke="midnightblue" d="M829.474,-136.424C866.95,-128.739 921.192,-116.19 967,-100 968.909,-99.3253 970.858,-98.5753 972.804,-97.7806"/>
<polygon fill="midnightblue" stroke="midnightblue" points="974.588,-100.819 982.321,-93.5766 971.76,-94.4156 974.588,-100.819"/>
</g>
<!-- Node14 -->
<g id="node14" class="node"><title>Node14</title>
<g id="a_node14"><a xlink:href="../../d2/dd0/Cartesian2D_8h.html" target="_top" xlink:title="MathUtils/Cartesian2D.h">
<polygon fill="none" stroke="black" points="1039.5,-74.5 1039.5,-93.5 1164.5,-93.5 1164.5,-74.5 1039.5,-74.5"/>
<text text-anchor="middle" x="1102" y="-81.5" font-family="Helvetica,sans-Serif" font-size="10.00">MathUtils/Cartesian2D.h</text>
</a>
</g>
</g>
<!-- Node5&#45;&gt;Node14 -->
<g id="edge13" class="edge"><title>Node5&#45;&gt;Node14</title>
<path fill="none" stroke="midnightblue" d="M832.609,-136.47C882.281,-127.668 961.612,-113.377 1030,-100 1037.15,-98.6014 1044.69,-97.081 1052.09,-95.5626"/>
<polygon fill="midnightblue" stroke="midnightblue" points="1052.96,-98.9566 1062.05,-93.505 1051.55,-92.1015 1052.96,-98.9566"/>
</g>
<!-- Node15 -->
<g id="node15" class="node"><title>Node15</title>
<polygon fill="none" stroke="#bfbfbf" points="935.5,-1 935.5,-31 1086.5,-31 1086.5,-1 935.5,-1"/>
<text text-anchor="start" x="943.5" y="-19" font-family="Helvetica,sans-Serif" font-size="10.00">Math/GenVector/Displacement</text>
<text text-anchor="middle" x="1011" y="-8" font-family="Helvetica,sans-Serif" font-size="10.00">Vector2D.h</text>
</g>
<!-- Node14&#45;&gt;Node15 -->
<g id="edge14" class="edge"><title>Node14&#45;&gt;Node15</title>
<path fill="none" stroke="midnightblue" d="M1090.1,-74.3717C1077.22,-65.0286 1056.22,-49.7966 1039.09,-37.375"/>
<polygon fill="midnightblue" stroke="midnightblue" points="1040.7,-34.2194 1030.55,-31.1815 1036.59,-39.8859 1040.7,-34.2194"/>
</g>
<!-- Node16 -->
<g id="node16" class="node"><title>Node16</title>
<polygon fill="none" stroke="#bfbfbf" points="1105,-6.5 1105,-25.5 1281,-25.5 1281,-6.5 1105,-6.5"/>
<text text-anchor="middle" x="1193" y="-13.5" font-family="Helvetica,sans-Serif" font-size="10.00">Math/GenVector/PositionVector2D.h</text>
</g>
<!-- Node14&#45;&gt;Node16 -->
<g id="edge15" class="edge"><title>Node14&#45;&gt;Node16</title>
<path fill="none" stroke="midnightblue" d="M1113.9,-74.3717C1128.88,-63.5015 1154.86,-44.6602 1172.94,-31.5474"/>
<polygon fill="midnightblue" stroke="midnightblue" points="1175.06,-34.3349 1181.1,-25.6305 1170.95,-28.6684 1175.06,-34.3349"/>
</g>
<!-- Node21&#45;&gt;Node11 -->
<g id="edge54" class="edge"><title>Node21&#45;&gt;Node11</title>
<path fill="none" stroke="midnightblue" d="M1430.07,-328.973C1396.07,-312.041 1336.76,-282.98 1285,-260 1246.38,-242.853 1220.55,-259.084 1197,-224 1172.2,-187.064 1189.65,-131.636 1201.51,-103.222"/>
<polygon fill="midnightblue" stroke="midnightblue" points="1204.85,-104.312 1205.68,-93.7497 1198.45,-101.49 1204.85,-104.312"/>
</g>
<!-- Node22 -->
<g id="node22" class="node"><title>Node22</title>
<g id="a_node22"><a xlink:href="../../d6/d31/DetID_8h.html" target="_top" xlink:title="DetectorsCommonDataFormats\l/DetID.h">
<polygon fill="none" stroke="black" points="1941,-193 1941,-223 2097,-223 2097,-193 1941,-193"/>
<text text-anchor="start" x="1949" y="-211" font-family="Helvetica,sans-Serif" font-size="10.00">DetectorsCommonDataFormats</text>
<text text-anchor="middle" x="2019" y="-200" font-family="Helvetica,sans-Serif" font-size="10.00">/DetID.h</text>
</a>
</g>
</g>
<!-- Node21&#45;&gt;Node22 -->
<g id="edge21" class="edge"><title>Node21&#45;&gt;Node22</title>
<path fill="none" stroke="midnightblue" d="M1515.39,-335.006C1556.23,-327.727 1611.53,-314.57 1656,-292 1675.99,-281.853 1674.53,-269.153 1695,-260 1790.25,-217.401 1823.95,-240.396 1927,-224 1928.26,-223.8 1929.53,-223.598 1930.8,-223.394"/>
<polygon fill="midnightblue" stroke="midnightblue" points="1931.39,-226.845 1940.71,-221.807 1930.28,-219.933 1931.39,-226.845"/>
</g>
<!-- Node30 -->
<g id="node30" class="node"><title>Node30</title>
<polygon fill="none" stroke="#bfbfbf" points="1175.5,-266.5 1175.5,-285.5 1276.5,-285.5 1276.5,-266.5 1175.5,-266.5"/>
<text text-anchor="middle" x="1226" y="-273.5" font-family="Helvetica,sans-Serif" font-size="10.00">FairGenericStack.h</text>
</g>
<!-- Node21&#45;&gt;Node30 -->
<g id="edge32" class="edge"><title>Node21&#45;&gt;Node30</title>
<path fill="none" stroke="midnightblue" d="M1408.51,-328.922C1365.91,-316.803 1305.23,-299.54 1265.73,-288.304"/>
<polygon fill="midnightblue" stroke="midnightblue" points="1266.5,-284.884 1255.93,-285.514 1264.59,-291.617 1266.5,-284.884"/>
</g>
<!-- Node31 -->
<g id="node31" class="node"><title>Node31</title>
<g id="a_node31"><a xlink:href="../../d2/de2/MCTrack_8h.html" target="_top" xlink:title="Definition of the MCTrack class. ">
<polygon fill="none" stroke="black" points="1533,-261 1533,-291 1647,-291 1647,-261 1533,-261"/>
<text text-anchor="start" x="1541" y="-279" font-family="Helvetica,sans-Serif" font-size="10.00">SimulationDataFormat</text>
<text text-anchor="middle" x="1590" y="-268" font-family="Helvetica,sans-Serif" font-size="10.00">/MCTrack.h</text>
</a>
</g>
</g>
<!-- Node21&#45;&gt;Node31 -->
<g id="edge33" class="edge"><title>Node21&#45;&gt;Node31</title>
<path fill="none" stroke="midnightblue" d="M1486.32,-328.841C1505.72,-319.141 1531.65,-306.174 1552.73,-295.636"/>
<polygon fill="midnightblue" stroke="midnightblue" points="1554.35,-298.738 1561.73,-291.135 1551.22,-292.477 1554.35,-298.738"/>
</g>
<!-- Node36 -->
<g id="node36" class="node"><title>Node36</title>
<polygon fill="none" stroke="#bfbfbf" points="1409,-198.5 1409,-217.5 1473,-217.5 1473,-198.5 1409,-198.5"/>
<text text-anchor="middle" x="1441" y="-205.5" font-family="Helvetica,sans-Serif" font-size="10.00">TParticle.h</text>
</g>
<!-- Node21&#45;&gt;Node36 -->
<g id="edge55" class="edge"><title>Node21&#45;&gt;Node36</title>
<path fill="none" stroke="midnightblue" d="M1434.41,-328.929C1421.97,-320.067 1407.88,-307.395 1401,-292 1395.19,-279.016 1396.36,-273.443 1401,-260 1405.6,-246.673 1415.28,-234.175 1423.97,-224.886"/>
<polygon fill="midnightblue" stroke="midnightblue" points="1426.63,-227.172 1431.19,-217.609 1421.66,-222.241 1426.63,-227.172"/>
</g>
<!-- Node39 -->
<g id="node39" class="node"><title>Node39</title>
<g id="a_node39"><a xlink:href="../../db/d14/MCTruthContainer_8h.html" target="_top" xlink:title="Definition of a container to keep Monte Carlo truth external to simulation objects. ">
<polygon fill="none" stroke="black" points="1277,-193 1277,-223 1391,-223 1391,-193 1277,-193"/>
<text text-anchor="start" x="1285" y="-211" font-family="Helvetica,sans-Serif" font-size="10.00">SimulationDataFormat</text>
<text text-anchor="middle" x="1334" y="-200" font-family="Helvetica,sans-Serif" font-size="10.00">/MCTruthContainer.h</text>
</a>
</g>
</g>
<!-- Node21&#45;&gt;Node39 -->
<g id="edge43" class="edge"><title>Node21&#45;&gt;Node39</title>
<path fill="none" stroke="midnightblue" d="M1437.12,-328.981C1423.71,-319.429 1406.36,-306.013 1393,-292 1375.39,-273.541 1358.89,-249.525 1347.84,-232.079"/>
<polygon fill="midnightblue" stroke="midnightblue" points="1350.54,-229.789 1342.29,-223.139 1344.59,-233.481 1350.54,-229.789"/>
</g>
<!-- Node21&#45;&gt;Node43 -->
<g id="edge49" class="edge"><title>Node21&#45;&gt;Node43</title>
<path fill="none" stroke="midnightblue" d="M1400.98,-333.816C1344.33,-324.509 1254.75,-309.301 1167.18,-291.98"/>
<polygon fill="midnightblue" stroke="midnightblue" points="1167.84,-288.542 1157.34,-290.023 1166.47,-295.407 1167.84,-288.542"/>
</g>
<!-- Node45 -->
<g id="node45" class="node"><title>Node45</title>
<polygon fill="none" stroke="#bfbfbf" points="1409.5,-266.5 1409.5,-285.5 1444.5,-285.5 1444.5,-266.5 1409.5,-266.5"/>
<text text-anchor="middle" x="1427" y="-273.5" font-family="Helvetica,sans-Serif" font-size="10.00">map</text>
</g>
<!-- Node21&#45;&gt;Node45 -->
<g id="edge56" class="edge"><title>Node21&#45;&gt;Node45</title>
<path fill="none" stroke="midnightblue" d="M1451.27,-328.679C1446.63,-318.796 1440.42,-305.579 1435.45,-294.986"/>
<polygon fill="midnightblue" stroke="midnightblue" points="1438.57,-293.392 1431.15,-285.828 1432.23,-296.368 1438.57,-293.392"/>
</g>
<!-- Node46 -->
<g id="node46" class="node"><title>Node46</title>
<polygon fill="none" stroke="#bfbfbf" points="1463,-266.5 1463,-285.5 1515,-285.5 1515,-266.5 1463,-266.5"/>
<text text-anchor="middle" x="1489" y="-273.5" font-family="Helvetica,sans-Serif" font-size="10.00">memory</text>
</g>
<!-- Node21&#45;&gt;Node46 -->
<g id="edge57" class="edge"><title>Node21&#45;&gt;Node46</title>
<path fill="none" stroke="midnightblue" d="M1464.73,-328.679C1469.37,-318.796 1475.58,-305.579 1480.55,-294.986"/>
<polygon fill="midnightblue" stroke="midnightblue" points="1483.77,-296.368 1484.85,-285.828 1477.43,-293.392 1483.77,-296.368"/>
</g>
<!-- Node47 -->
<g id="node47" class="node"><title>Node47</title>
<polygon fill="none" stroke="#bfbfbf" points="1703.5,-266.5 1703.5,-285.5 1744.5,-285.5 1744.5,-266.5 1703.5,-266.5"/>
<text text-anchor="middle" x="1724" y="-273.5" font-family="Helvetica,sans-Serif" font-size="10.00">stack</text>
</g>
<!-- Node21&#45;&gt;Node47 -->
<g id="edge58" class="edge"><title>Node21&#45;&gt;Node47</title>
<path fill="none" stroke="midnightblue" d="M1515.28,-333.449C1562.51,-324.84 1630.94,-310.669 1689,-292 1691.42,-291.221 1693.91,-290.337 1696.38,-289.397"/>
<polygon fill="midnightblue" stroke="midnightblue" points="1697.77,-292.61 1705.72,-285.6 1695.14,-286.126 1697.77,-292.61"/>
</g>
<!-- Node48 -->
<g id="node48" class="node"><title>Node48</title>
<polygon fill="none" stroke="#bfbfbf" points="1763,-266.5 1763,-285.5 1803,-285.5 1803,-266.5 1763,-266.5"/>
<text text-anchor="middle" x="1783" y="-273.5" font-family="Helvetica,sans-Serif" font-size="10.00">utility</text>
</g>
<!-- Node21&#45;&gt;Node48 -->
<g id="edge59" class="edge"><title>Node21&#45;&gt;Node48</title>
<path fill="none" stroke="midnightblue" d="M1515.2,-338.109C1575.52,-331.805 1672.76,-318.361 1753,-292 1754.91,-291.373 1756.85,-290.643 1758.77,-289.848"/>
<polygon fill="midnightblue" stroke="midnightblue" points="1760.5,-292.903 1768.11,-285.522 1757.56,-286.553 1760.5,-292.903"/>
</g>
<!-- Node22&#45;&gt;Node11 -->
<g id="edge22" class="edge"><title>Node22&#45;&gt;Node11</title>
<path fill="none" stroke="midnightblue" d="M2004.24,-192.786C1985.61,-175.851 1951.78,-148.306 1917,-136 1792.03,-91.7852 1376.67,-85.8699 1248.2,-85.1053"/>
<polygon fill="midnightblue" stroke="midnightblue" points="1248.08,-81.6047 1238.06,-85.0523 1248.04,-88.6046 1248.08,-81.6047"/>
</g>
<!-- Node22&#45;&gt;Node20 -->
<g id="edge23" class="edge"><title>Node22&#45;&gt;Node20</title>
<path fill="none" stroke="midnightblue" d="M2013.01,-192.85C2008.82,-182.691 2003.24,-168.621 1999,-156 1993.08,-138.394 1987.45,-117.949 1983.68,-103.532"/>
<polygon fill="midnightblue" stroke="midnightblue" points="1987.07,-102.643 1981.19,-93.8298 1980.29,-104.386 1987.07,-102.643"/>
</g>
<!-- Node23 -->
<g id="node23" class="node"><title>Node23</title>
<polygon fill="none" stroke="#bfbfbf" points="2007.5,-136.5 2007.5,-155.5 2048.5,-155.5 2048.5,-136.5 2007.5,-136.5"/>
<text text-anchor="middle" x="2028" y="-143.5" font-family="Helvetica,sans-Serif" font-size="10.00">bitset</text>
</g>
<!-- Node22&#45;&gt;Node23 -->
<g id="edge24" class="edge"><title>Node22&#45;&gt;Node23</title>
<path fill="none" stroke="midnightblue" d="M2021.13,-192.781C2022.35,-184.691 2023.88,-174.462 2025.19,-165.725"/>
<polygon fill="midnightblue" stroke="midnightblue" points="2028.67,-166.139 2026.69,-155.731 2021.75,-165.101 2028.67,-166.139"/>
</g>
<!-- Node24 -->
<g id="node24" class="node"><title>Node24</title>
<polygon fill="none" stroke="#bfbfbf" points="1526.5,-136.5 1526.5,-155.5 1575.5,-155.5 1575.5,-136.5 1526.5,-136.5"/>
<text text-anchor="middle" x="1551" y="-143.5" font-family="Helvetica,sans-Serif" font-size="10.00">cassert</text>
</g>
<!-- Node22&#45;&gt;Node24 -->
<g id="edge25" class="edge"><title>Node22&#45;&gt;Node24</title>
<path fill="none" stroke="midnightblue" d="M1940.93,-196.991C1837.82,-183.771 1660.56,-161.046 1585.83,-151.466"/>
<polygon fill="midnightblue" stroke="midnightblue" points="1585.94,-147.951 1575.57,-150.151 1585.05,-154.894 1585.94,-147.951"/>
</g>
<!-- Node25 -->
<g id="node25" class="node"><title>Node25</title>
<polygon fill="none" stroke="#bfbfbf" points="2067,-136.5 2067,-155.5 2113,-155.5 2113,-136.5 2067,-136.5"/>
<text text-anchor="middle" x="2090" y="-143.5" font-family="Helvetica,sans-Serif" font-size="10.00">cstdint</text>
</g>
<!-- Node22&#45;&gt;Node25 -->
<g id="edge26" class="edge"><title>Node22&#45;&gt;Node25</title>
<path fill="none" stroke="midnightblue" d="M2035.83,-192.781C2046.67,-183.613 2060.78,-171.696 2071.87,-162.319"/>
<polygon fill="midnightblue" stroke="midnightblue" points="2074.29,-164.858 2079.67,-155.731 2069.77,-159.512 2074.29,-164.858"/>
</g>
<!-- Node26 -->
<g id="node26" class="node"><title>Node26</title>
<polygon fill="none" stroke="#bfbfbf" points="1740,-136.5 1740,-155.5 1802,-155.5 1802,-136.5 1740,-136.5"/>
<text text-anchor="middle" x="1771" y="-143.5" font-family="Helvetica,sans-Serif" font-size="10.00">type_traits</text>
</g>
<!-- Node22&#45;&gt;Node26 -->
<g id="edge27" class="edge"><title>Node22&#45;&gt;Node26</title>
<path fill="none" stroke="midnightblue" d="M1960.86,-192.933C1915.19,-181.885 1852.74,-166.775 1812.14,-156.952"/>
<polygon fill="midnightblue" stroke="midnightblue" points="1812.85,-153.525 1802.31,-154.575 1811.21,-160.328 1812.85,-153.525"/>
</g>
<!-- Node27 -->
<g id="node27" class="node"><title>Node27</title>
<g id="a_node27"><a xlink:href="../../d9/d52/Common_2MathUtils_2include_2MathUtils_2Utils_8h.html" target="_top" xlink:title="MathUtils/Utils.h">
<polygon fill="none" stroke="black" points="2131,-136.5 2131,-155.5 2221,-155.5 2221,-136.5 2131,-136.5"/>
<text text-anchor="middle" x="2176" y="-143.5" font-family="Helvetica,sans-Serif" font-size="10.00">MathUtils/Utils.h</text>
</a>
</g>
</g>
<!-- Node22&#45;&gt;Node27 -->
<g id="edge28" class="edge"><title>Node22&#45;&gt;Node27</title>
<path fill="none" stroke="midnightblue" d="M2055.81,-192.933C2082.53,-182.72 2118.34,-169.036 2143.9,-159.266"/>
<polygon fill="midnightblue" stroke="midnightblue" points="2145.4,-162.439 2153.5,-155.6 2142.91,-155.901 2145.4,-162.439"/>
</g>
<!-- Node27&#45;&gt;Node20 -->
<g id="edge29" class="edge"><title>Node27&#45;&gt;Node20</title>
<path fill="none" stroke="midnightblue" d="M2147.77,-136.403C2110.63,-125.089 2045.65,-105.3 2008.08,-93.857"/>
<polygon fill="midnightblue" stroke="midnightblue" points="2008.84,-90.4303 1998.26,-90.8649 2006.8,-97.1266 2008.84,-90.4303"/>
</g>
<!-- Node28 -->
<g id="node28" class="node"><title>Node28</title>
<polygon fill="none" stroke="#bfbfbf" points="2089,-74.5 2089,-93.5 2133,-93.5 2133,-74.5 2089,-74.5"/>
<text text-anchor="middle" x="2111" y="-81.5" font-family="Helvetica,sans-Serif" font-size="10.00">cmath</text>
</g>
<!-- Node27&#45;&gt;Node28 -->
<g id="edge30" class="edge"><title>Node27&#45;&gt;Node28</title>
<path fill="none" stroke="midnightblue" d="M2166.69,-136.403C2156.55,-127.047 2140.14,-111.895 2127.75,-100.46"/>
<polygon fill="midnightblue" stroke="midnightblue" points="2130.02,-97.7916 2120.3,-93.5806 2125.27,-102.935 2130.02,-97.7916"/>
</g>
<!-- Node29 -->
<g id="node29" class="node"><title>Node29</title>
<g id="a_node29"><a xlink:href="../../d6/d84/MathConstants_8h.html" target="_top" xlink:title="useful math constants ">
<polygon fill="none" stroke="black" points="2151.5,-74.5 2151.5,-93.5 2330.5,-93.5 2330.5,-74.5 2151.5,-74.5"/>
<text text-anchor="middle" x="2241" y="-81.5" font-family="Helvetica,sans-Serif" font-size="10.00">CommonConstants/MathConstants.h</text>
</a>
</g>
</g>
<!-- Node27&#45;&gt;Node29 -->
<g id="edge31" class="edge"><title>Node27&#45;&gt;Node29</title>
<path fill="none" stroke="midnightblue" d="M2185.31,-136.403C2195.45,-127.047 2211.86,-111.895 2224.25,-100.46"/>
<polygon fill="midnightblue" stroke="midnightblue" points="2226.73,-102.935 2231.7,-93.5806 2221.98,-97.7916 2226.73,-102.935"/>
</g>
<!-- Node31&#45;&gt;Node11 -->
<g id="edge35" class="edge"><title>Node31&#45;&gt;Node11</title>
<path fill="none" stroke="midnightblue" d="M1647.05,-260.995C1648.72,-260.651 1650.37,-260.318 1652,-260 1761.23,-238.672 1945.24,-290.269 1893,-192 1872.11,-152.707 1851.96,-150.805 1810,-136 1705.67,-99.1936 1363.76,-88.3875 1248.4,-85.7478"/>
<polygon fill="midnightblue" stroke="midnightblue" points="1248.35,-82.2459 1238.27,-85.5239 1248.19,-89.2442 1248.35,-82.2459"/>
</g>
<!-- Node31&#45;&gt;Node22 -->
<g id="edge34" class="edge"><title>Node31&#45;&gt;Node22</title>
<path fill="none" stroke="midnightblue" d="M1647.28,-262.52C1651.91,-261.626 1656.53,-260.773 1661,-260 1778.55,-239.656 1809.01,-241.6 1927,-224 1928.26,-223.812 1929.53,-223.621 1930.81,-223.428"/>
<polygon fill="midnightblue" stroke="midnightblue" points="1931.37,-226.883 1940.73,-221.91 1930.31,-219.964 1931.37,-226.883"/>
</g>
<!-- Node32 -->
<g id="node32" class="node"><title>Node32</title>
<polygon fill="none" stroke="#bfbfbf" points="1491.5,-198.5 1491.5,-217.5 1586.5,-217.5 1586.5,-198.5 1491.5,-198.5"/>
<text text-anchor="middle" x="1539" y="-205.5" font-family="Helvetica,sans-Serif" font-size="10.00">TDatabasePDG.h</text>
</g>
<!-- Node31&#45;&gt;Node32 -->
<g id="edge36" class="edge"><title>Node31&#45;&gt;Node32</title>
<path fill="none" stroke="midnightblue" d="M1578.93,-260.679C1571.06,-250.49 1560.45,-236.759 1552.15,-226.011"/>
<polygon fill="midnightblue" stroke="midnightblue" points="1554.71,-223.601 1545.82,-217.828 1549.17,-227.881 1554.71,-223.601"/>
</g>
<!-- Node33 -->
<g id="node33" class="node"><title>Node33</title>
<polygon fill="none" stroke="#bfbfbf" points="1605,-198.5 1605,-217.5 1697,-217.5 1697,-198.5 1605,-198.5"/>
<text text-anchor="middle" x="1651" y="-205.5" font-family="Helvetica,sans-Serif" font-size="10.00">TLorentzVector.h</text>
</g>
<!-- Node31&#45;&gt;Node33 -->
<g id="edge37" class="edge"><title>Node31&#45;&gt;Node33</title>
<path fill="none" stroke="midnightblue" d="M1603.24,-260.679C1612.84,-250.286 1625.85,-236.208 1635.87,-225.37"/>
<polygon fill="midnightblue" stroke="midnightblue" points="1638.62,-227.548 1642.84,-217.828 1633.48,-222.796 1638.62,-227.548"/>
</g>
<!-- Node31&#45;&gt;Node34 -->
<g id="edge38" class="edge"><title>Node31&#45;&gt;Node34</title>
<path fill="none" stroke="midnightblue" d="M1647.15,-266.259C1662.65,-264.045 1679.45,-261.79 1695,-260 1877.16,-239.026 1925.82,-258.038 2106,-224 2111.14,-223.029 2116.5,-221.753 2121.74,-220.354"/>
<polygon fill="midnightblue" stroke="midnightblue" points="2122.9,-223.664 2131.56,-217.562 2120.98,-216.93 2122.9,-223.664"/>
</g>
<!-- Node35 -->
<g id="node35" class="node"><title>Node35</title>
<polygon fill="none" stroke="#bfbfbf" points="1205.5,-198.5 1205.5,-217.5 1258.5,-217.5 1258.5,-198.5 1205.5,-198.5"/>
<text text-anchor="middle" x="1232" y="-205.5" font-family="Helvetica,sans-Serif" font-size="10.00">TMath.h</text>
</g>
<!-- Node31&#45;&gt;Node35 -->
<g id="edge39" class="edge"><title>Node31&#45;&gt;Node35</title>
<path fill="none" stroke="midnightblue" d="M1532.82,-261.697C1529.84,-261.1 1526.89,-260.531 1524,-260 1410.99,-239.25 1378.82,-254.342 1268,-224 1265.18,-223.229 1262.29,-222.292 1259.44,-221.267"/>
<polygon fill="midnightblue" stroke="midnightblue" points="1260.58,-217.957 1250,-217.555 1258.02,-224.471 1260.58,-217.957"/>
</g>
<!-- Node31&#45;&gt;Node36 -->
<g id="edge40" class="edge"><title>Node31&#45;&gt;Node36</title>
<path fill="none" stroke="midnightblue" d="M1558.04,-260.841C1531.92,-249.272 1495.31,-233.055 1470.02,-221.855"/>
<polygon fill="midnightblue" stroke="midnightblue" points="1471.16,-218.532 1460.6,-217.682 1468.33,-224.932 1471.16,-218.532"/>
</g>
<!-- Node37 -->
<g id="node37" class="node"><title>Node37</title>
<polygon fill="none" stroke="#bfbfbf" points="1715,-198.5 1715,-217.5 1801,-217.5 1801,-198.5 1715,-198.5"/>
<text text-anchor="middle" x="1758" y="-205.5" font-family="Helvetica,sans-Serif" font-size="10.00">TParticlePDG.h</text>
</g>
<!-- Node31&#45;&gt;Node37 -->
<g id="edge41" class="edge"><title>Node31&#45;&gt;Node37</title>
<path fill="none" stroke="midnightblue" d="M1626.04,-260.841C1655.88,-249.118 1697.87,-232.624 1726.41,-221.411"/>
<polygon fill="midnightblue" stroke="midnightblue" points="1727.87,-224.596 1735.9,-217.682 1725.31,-218.081 1727.87,-224.596"/>
</g>
<!-- Node38 -->
<g id="node38" class="node"><title>Node38</title>
<polygon fill="none" stroke="#bfbfbf" points="1819.5,-198.5 1819.5,-217.5 1884.5,-217.5 1884.5,-198.5 1819.5,-198.5"/>
<text text-anchor="middle" x="1852" y="-205.5" font-family="Helvetica,sans-Serif" font-size="10.00">TVector3.h</text>
</g>
<!-- Node31&#45;&gt;Node38 -->
<g id="edge42" class="edge"><title>Node31&#45;&gt;Node38</title>
<path fill="none" stroke="midnightblue" d="M1647.17,-262.532C1701.73,-250.49 1779.95,-232.817 1810,-224 1813.19,-223.063 1816.5,-222.017 1819.79,-220.926"/>
<polygon fill="midnightblue" stroke="midnightblue" points="1821.18,-224.15 1829.49,-217.579 1818.89,-217.533 1821.18,-224.15"/>
</g>
<!-- Node39&#45;&gt;Node24 -->
<g id="edge45" class="edge"><title>Node39&#45;&gt;Node24</title>
<path fill="none" stroke="midnightblue" d="M1384.88,-192.933C1425.35,-181.741 1480.9,-166.382 1516.38,-156.573"/>
<polygon fill="midnightblue" stroke="midnightblue" points="1517.56,-159.878 1526.26,-153.84 1515.69,-153.131 1517.56,-159.878"/>
</g>
<!-- Node39&#45;&gt;Node26 -->
<g id="edge48" class="edge"><title>Node39&#45;&gt;Node26</title>
<path fill="none" stroke="midnightblue" d="M1391.16,-193.63C1394.15,-193.051 1397.11,-192.503 1400,-192 1518.87,-171.34 1660.8,-156.95 1729.57,-150.623"/>
<polygon fill="midnightblue" stroke="midnightblue" points="1729.93,-154.105 1739.57,-149.713 1729.29,-147.134 1729.93,-154.105"/>
</g>
<!-- Node40 -->
<g id="node40" class="node"><title>Node40</title>
<polygon fill="none" stroke="#bfbfbf" points="1224,-136.5 1224,-155.5 1286,-155.5 1286,-136.5 1224,-136.5"/>
<text text-anchor="middle" x="1255" y="-143.5" font-family="Helvetica,sans-Serif" font-size="10.00">TNamed.h</text>
</g>
<!-- Node39&#45;&gt;Node40 -->
<g id="edge44" class="edge"><title>Node39&#45;&gt;Node40</title>
<path fill="none" stroke="midnightblue" d="M1315.28,-192.781C1303.09,-183.523 1287.21,-171.462 1274.81,-162.044"/>
<polygon fill="midnightblue" stroke="midnightblue" points="1276.58,-158.992 1266.5,-155.731 1272.34,-164.566 1276.58,-158.992"/>
</g>
<!-- Node41 -->
<g id="node41" class="node"><title>Node41</title>
<polygon fill="none" stroke="#bfbfbf" points="1304.5,-136.5 1304.5,-155.5 1363.5,-155.5 1363.5,-136.5 1304.5,-136.5"/>
<text text-anchor="middle" x="1334" y="-143.5" font-family="Helvetica,sans-Serif" font-size="10.00">stdexcept</text>
</g>
<!-- Node39&#45;&gt;Node41 -->
<g id="edge46" class="edge"><title>Node39&#45;&gt;Node41</title>
<path fill="none" stroke="midnightblue" d="M1334,-192.781C1334,-184.781 1334,-174.689 1334,-166.017"/>
<polygon fill="midnightblue" stroke="midnightblue" points="1337.5,-165.73 1334,-155.731 1330.5,-165.731 1337.5,-165.73"/>
</g>
<!-- Node42 -->
<g id="node42" class="node"><title>Node42</title>
<polygon fill="none" stroke="#bfbfbf" points="1381.5,-136.5 1381.5,-155.5 1426.5,-155.5 1426.5,-136.5 1381.5,-136.5"/>
<text text-anchor="middle" x="1404" y="-143.5" font-family="Helvetica,sans-Serif" font-size="10.00">gsl/gsl</text>
</g>
<!-- Node39&#45;&gt;Node42 -->
<g id="edge47" class="edge"><title>Node39&#45;&gt;Node42</title>
<path fill="none" stroke="midnightblue" d="M1350.59,-192.781C1361.29,-183.613 1375.19,-171.696 1386.13,-162.319"/>
<polygon fill="midnightblue" stroke="midnightblue" points="1388.5,-164.896 1393.81,-155.731 1383.94,-159.581 1388.5,-164.896"/>
</g>
<!-- Node43&#45;&gt;Node11 -->
<g id="edge52" class="edge"><title>Node43&#45;&gt;Node11</title>
<path fill="none" stroke="midnightblue" d="M1093.39,-260.826C1086.43,-243.749 1077.79,-214.545 1088,-192 1107.62,-148.699 1154.38,-115.993 1183.98,-98.728"/>
<polygon fill="midnightblue" stroke="midnightblue" points="1185.94,-101.637 1192.93,-93.671 1182.5,-95.5428 1185.94,-101.637"/>
</g>
<!-- Node43&#45;&gt;Node17 -->
<g id="edge50" class="edge"><title>Node43&#45;&gt;Node17</title>
<path fill="none" stroke="midnightblue" d="M1079.17,-260.679C1063.22,-249.713 1041.3,-234.645 1025.25,-223.609"/>
<polygon fill="midnightblue" stroke="midnightblue" points="1026.79,-220.419 1016.56,-217.638 1022.82,-226.187 1026.79,-220.419"/>
</g>
<!-- Node43&#45;&gt;Node35 -->
<g id="edge53" class="edge"><title>Node43&#45;&gt;Node35</title>
<path fill="none" stroke="midnightblue" d="M1128.32,-260.841C1151.15,-249.425 1183.03,-233.485 1205.39,-222.303"/>
<polygon fill="midnightblue" stroke="midnightblue" points="1207.26,-225.285 1214.64,-217.682 1204.13,-219.024 1207.26,-225.285"/>
</g>
<!-- Node44 -->
<g id="node44" class="node"><title>Node44</title>
<polygon fill="none" stroke="#bfbfbf" points="1097,-198.5 1097,-217.5 1149,-217.5 1149,-198.5 1097,-198.5"/>
<text text-anchor="middle" x="1123" y="-205.5" font-family="Helvetica,sans-Serif" font-size="10.00">ostream</text>
</g>
<!-- Node43&#45;&gt;Node44 -->
<g id="edge51" class="edge"><title>Node43&#45;&gt;Node44</title>
<path fill="none" stroke="midnightblue" d="M1104.99,-260.679C1108.4,-250.898 1112.95,-237.852 1116.62,-227.315"/>
<polygon fill="midnightblue" stroke="midnightblue" points="1119.94,-228.423 1119.92,-217.828 1113.33,-226.12 1119.94,-228.423"/>
</g>
</g>
</svg>
