<?xml version="1.0" encoding="UTF-8" standalone="no"?>
<!DOCTYPE svg PUBLIC "-//W3C//DTD SVG 1.1//EN"
 "http://www.w3.org/Graphics/SVG/1.1/DTD/svg11.dtd">
<!-- Generated by graphviz version 2.36.0 (20140111.2315)
 -->
<!-- Title: /home/travis/build/AliceO2Group/AliceO2/DataFormats/Reconstruction/include/ReconstructionDataFormats/BaseCluster.h Pages: 1 -->
<!--zoomable 344 -->
<svg id="main" version="1.1" xmlns="http://www.w3.org/2000/svg" xmlns:xlink="http://www.w3.org/1999/xlink" xml:space="preserve" onload="init(evt)">
<style type="text/css"><![CDATA[
.edge:hover path { stroke: red; }
.edge:hover polygon { stroke: red; fill: red; }
]]></style>
<script type="text/javascript"><![CDATA[
var edges = document.getElementsByTagName('g');
if (edges && edges.length) {
  for (var i=0;i<edges.length;i++) {
    if (edges[i].id.substr(0,4)=='edge') {
      edges[i].setAttribute('class','edge');
    }
  }
}
]]></script>
        <defs>
                <circle id="rim" cx="0" cy="0" r="7"/>
                <circle id="rim2" cx="0" cy="0" r="3.5"/>
                <g id="zoomPlus">
                        <use xlink:href="#rim" fill="#404040">
                                <set attributeName="fill" to="#808080" begin="zoomplus.mouseover" end="zoomplus.mouseout"/>
                        </use>
                        <path d="M-4,0h8M0,-4v8" fill="none" stroke="white" stroke-width="1.5" pointer-events="none"/>
                </g>
                <g id="zoomMin">
                        <use xlink:href="#rim" fill="#404040">
                                <set attributeName="fill" to="#808080" begin="zoomminus.mouseover" end="zoomminus.mouseout"/>
                        </use>
                        <path d="M-4,0h8" fill="none" stroke="white" stroke-width="1.5" pointer-events="none"/>
                </g>
                <g id="dirArrow">
                        <path fill="none" stroke="white" stroke-width="1.5" d="M0,-3.0v7 M-2.5,-0.5L0,-3.0L2.5,-0.5"/>
                </g>
               <g id="resetDef">
                       <use xlink:href="#rim2" fill="#404040">
                               <set attributeName="fill" to="#808080" begin="reset.mouseover" end="reset.mouseout"/>
                       </use>
               </g>
        </defs>

<script type="text/javascript">
var viewWidth = 1702;
var viewHeight = 344;
var sectionId = 'dynsection-0';
</script>
<script xlink:href="../../svgpan.js"/>
<svg id="graph" class="graph">
<g id="viewport">
<title>/home/travis/build/AliceO2Group/AliceO2/DataFormats/Reconstruction/include/ReconstructionDataFormats/BaseCluster.h</title>
<!-- Node1 -->
<g id="node1" class="node"><title>Node1</title>
<polygon fill="#bfbfbf" stroke="black" points="505,-272.5 505,-335.5 681,-335.5 681,-272.5 505,-272.5"/>
<text text-anchor="start" x="513" y="-323.5" font-family="Helvetica,sans-Serif" font-size="10.00">/home/travis/build</text>
<text text-anchor="start" x="513" y="-312.5" font-family="Helvetica,sans-Serif" font-size="10.00">/AliceO2Group/AliceO2</text>
<text text-anchor="start" x="513" y="-301.5" font-family="Helvetica,sans-Serif" font-size="10.00">/DataFormats/Reconstruction</text>
<text text-anchor="start" x="513" y="-290.5" font-family="Helvetica,sans-Serif" font-size="10.00">/include/ReconstructionDataFormats</text>
<text text-anchor="middle" x="593" y="-279.5" font-family="Helvetica,sans-Serif" font-size="10.00">/BaseCluster.h</text>
</g>
<!-- Node2 -->
<g id="node2" class="node"><title>Node2</title>
<polygon fill="none" stroke="#bfbfbf" points="65.5,-210.5 65.5,-229.5 124.5,-229.5 124.5,-210.5 65.5,-210.5"/>
<text text-anchor="middle" x="95" y="-217.5" font-family="Helvetica,sans-Serif" font-size="10.00">TObject.h</text>
</g>
<!-- Node1&#45;&gt;Node2 -->
<g id="edge1" class="edge"><title>Node1&#45;&gt;Node2</title>
<path fill="none" stroke="midnightblue" d="M504.632,-294.773C412.471,-285.076 264.253,-266.325 139,-236 135.139,-235.065 131.137,-233.936 127.189,-232.72"/>
<polygon fill="midnightblue" stroke="midnightblue" points="128.197,-229.367 117.604,-229.586 126.021,-236.021 128.197,-229.367"/>
</g>
<!-- Node3 -->
<g id="node3" class="node"><title>Node3</title>
<polygon fill="none" stroke="#bfbfbf" points="-0.5,-74.5 -0.5,-93.5 40.5,-93.5 40.5,-74.5 -0.5,-74.5"/>
<text text-anchor="middle" x="20" y="-81.5" font-family="Helvetica,sans-Serif" font-size="10.00">bitset</text>
</g>
<!-- Node1&#45;&gt;Node3 -->
<g id="edge2" class="edge"><title>Node1&#45;&gt;Node3</title>
<path fill="none" stroke="midnightblue" d="M504.97,-280.032C418.555,-256.269 283.814,-215.942 172,-168 124.124,-147.473 71.433,-116.715 42.3711,-98.9759"/>
<polygon fill="midnightblue" stroke="midnightblue" points="44.1529,-95.9628 33.8018,-93.7033 40.4846,-101.925 44.1529,-95.9628"/>
</g>
<!-- Node4 -->
<g id="node4" class="node"><title>Node4</title>
<polygon fill="none" stroke="#bfbfbf" points="659,-210.5 659,-229.5 709,-229.5 709,-210.5 659,-210.5"/>
<text text-anchor="middle" x="684" y="-217.5" font-family="Helvetica,sans-Serif" font-size="10.00">iomanip</text>
</g>
<!-- Node1&#45;&gt;Node4 -->
<g id="edge3" class="edge"><title>Node1&#45;&gt;Node4</title>
<path fill="none" stroke="midnightblue" d="M626.885,-272.466C640.548,-260.155 655.708,-246.494 666.974,-236.342"/>
<polygon fill="midnightblue" stroke="midnightblue" points="669.326,-238.934 674.412,-229.64 664.64,-233.734 669.326,-238.934"/>
</g>
<!-- Node5 -->
<g id="node5" class="node"><title>Node5</title>
<polygon fill="none" stroke="#bfbfbf" points="727.5,-210.5 727.5,-229.5 756.5,-229.5 756.5,-210.5 727.5,-210.5"/>
<text text-anchor="middle" x="742" y="-217.5" font-family="Helvetica,sans-Serif" font-size="10.00">ios</text>
</g>
<!-- Node1&#45;&gt;Node5 -->
<g id="edge4" class="edge"><title>Node1&#45;&gt;Node5</title>
<path fill="none" stroke="midnightblue" d="M651.95,-272.439C672.964,-261.272 696.698,-248.348 718,-236 718.531,-235.692 719.068,-235.378 719.608,-235.06"/>
<polygon fill="midnightblue" stroke="midnightblue" points="721.66,-237.909 728.389,-229.726 718.025,-231.927 721.66,-237.909"/>
</g>
<!-- Node6 -->
<g id="node6" class="node"><title>Node6</title>
<polygon fill="none" stroke="#bfbfbf" points="529.5,-74.5 529.5,-93.5 574.5,-93.5 574.5,-74.5 529.5,-74.5"/>
<text text-anchor="middle" x="552" y="-81.5" font-family="Helvetica,sans-Serif" font-size="10.00">iosfwd</text>
</g>
<!-- Node1&#45;&gt;Node6 -->
<g id="edge5" class="edge"><title>Node1&#45;&gt;Node6</title>
<path fill="none" stroke="midnightblue" d="M587.213,-272.228C578.571,-226.279 562.557,-141.13 555.497,-103.595"/>
<polygon fill="midnightblue" stroke="midnightblue" points="558.9,-102.752 553.612,-93.571 552.021,-104.046 558.9,-102.752"/>
</g>
<!-- Node7 -->
<g id="node7" class="node"><title>Node7</title>
<g id="a_node7"><a xlink:href="../../d4/d20/DetMatrixCache_8h.html" target="_top" xlink:title="DetectorsCommonDataFormats\l/DetMatrixCache.h">
<polygon fill="none" stroke="black" points="409,-205 409,-235 565,-235 565,-205 409,-205"/>
<text text-anchor="start" x="417" y="-223" font-family="Helvetica,sans-Serif" font-size="10.00">DetectorsCommonDataFormats</text>
<text text-anchor="middle" x="487" y="-212" font-family="Helvetica,sans-Serif" font-size="10.00">/DetMatrixCache.h</text>
</a>
</g>
</g>
<!-- Node1&#45;&gt;Node7 -->
<g id="edge6" class="edge"><title>Node1&#45;&gt;Node7</title>
<path fill="none" stroke="midnightblue" d="M553.53,-272.466C540.043,-262.033 525.303,-250.631 513.133,-241.216"/>
<polygon fill="midnightblue" stroke="midnightblue" points="515.217,-238.403 505.166,-235.053 510.934,-243.94 515.217,-238.403"/>
</g>
<!-- Node19 -->
<g id="node19" class="node"><title>Node19</title>
<g id="a_node19"><a xlink:href="../../dd/d76/Cartesian3D_8h.html" target="_top" xlink:title="MathUtils/Cartesian3D.h">
<polygon fill="none" stroke="black" points="748.5,-142.5 748.5,-161.5 873.5,-161.5 873.5,-142.5 748.5,-142.5"/>
<text text-anchor="middle" x="811" y="-149.5" font-family="Helvetica,sans-Serif" font-size="10.00">MathUtils/Cartesian3D.h</text>
</a>
</g>
</g>
<!-- Node1&#45;&gt;Node19 -->
<g id="edge34" class="edge"><title>Node1&#45;&gt;Node19</title>
<path fill="none" stroke="midnightblue" d="M603.79,-272.092C612.921,-250.184 628.059,-221.655 650,-204 675.449,-183.522 709.238,-171.209 739.29,-163.832"/>
<polygon fill="midnightblue" stroke="midnightblue" points="740.365,-167.176 749.32,-161.515 738.789,-160.356 740.365,-167.176"/>
</g>
<!-- Node8 -->
<g id="node8" class="node"><title>Node8</title>
<polygon fill="none" stroke="#bfbfbf" points="455.5,-142.5 455.5,-161.5 526.5,-161.5 526.5,-142.5 455.5,-142.5"/>
<text text-anchor="middle" x="491" y="-149.5" font-family="Helvetica,sans-Serif" font-size="10.00">FairLogger.h</text>
</g>
<!-- Node7&#45;&gt;Node8 -->
<g id="edge7" class="edge"><title>Node7&#45;&gt;Node8</title>
<path fill="none" stroke="midnightblue" d="M487.868,-204.679C488.448,-195.101 489.219,-182.394 489.85,-171.977"/>
<polygon fill="midnightblue" stroke="midnightblue" points="493.353,-172.022 490.465,-161.828 486.366,-171.598 493.353,-172.022"/>
</g>
<!-- Node9 -->
<g id="node9" class="node"><title>Node9</title>
<polygon fill="none" stroke="#bfbfbf" points="370,-6.5 370,-25.5 408,-25.5 408,-6.5 370,-6.5"/>
<text text-anchor="middle" x="389" y="-13.5" font-family="Helvetica,sans-Serif" font-size="10.00">array</text>
</g>
<!-- Node7&#45;&gt;Node9 -->
<g id="edge8" class="edge"><title>Node7&#45;&gt;Node9</title>
<path fill="none" stroke="midnightblue" d="M473.471,-204.731C464.756,-194.971 453.664,-181.416 446,-168 420.364,-123.126 402.081,-64.5333 393.862,-35.282"/>
<polygon fill="midnightblue" stroke="midnightblue" points="397.227,-34.3184 391.211,-25.5976 390.476,-36.1669 397.227,-34.3184"/>
</g>
<!-- Node10 -->
<g id="node10" class="node"><title>Node10</title>
<polygon fill="none" stroke="#bfbfbf" points="181,-142.5 181,-161.5 225,-161.5 225,-142.5 181,-142.5"/>
<text text-anchor="middle" x="203" y="-149.5" font-family="Helvetica,sans-Serif" font-size="10.00">vector</text>
</g>
<!-- Node7&#45;&gt;Node10 -->
<g id="edge9" class="edge"><title>Node7&#45;&gt;Node10</title>
<path fill="none" stroke="midnightblue" d="M408.723,-208.436C358.051,-200.332 291.115,-187.231 234,-168 232.088,-167.356 230.141,-166.621 228.202,-165.831"/>
<polygon fill="midnightblue" stroke="midnightblue" points="229.322,-162.496 218.767,-161.576 226.444,-168.877 229.322,-162.496"/>
</g>
<!-- Node11 -->
<g id="node11" class="node"><title>Node11</title>
<g id="a_node11"><a xlink:href="../../d6/d31/DetID_8h.html" target="_top" xlink:title="DetectorsCommonDataFormats\l/DetID.h">
<polygon fill="none" stroke="black" points="243,-137 243,-167 399,-167 399,-137 243,-137"/>
<text text-anchor="start" x="251" y="-155" font-family="Helvetica,sans-Serif" font-size="10.00">DetectorsCommonDataFormats</text>
<text text-anchor="middle" x="321" y="-144" font-family="Helvetica,sans-Serif" font-size="10.00">/DetID.h</text>
</a>
</g>
</g>
<!-- Node7&#45;&gt;Node11 -->
<g id="edge10" class="edge"><title>Node7&#45;&gt;Node11</title>
<path fill="none" stroke="midnightblue" d="M451.389,-204.841C426.359,-194.89 392.683,-181.5 365.825,-170.822"/>
<polygon fill="midnightblue" stroke="midnightblue" points="366.853,-167.464 356.267,-167.022 364.266,-173.969 366.853,-167.464"/>
</g>
<!-- Node12 -->
<g id="node12" class="node"><title>Node12</title>
<polygon fill="none" stroke="#bfbfbf" points="455,-74.5 455,-93.5 511,-93.5 511,-74.5 455,-74.5"/>
<text text-anchor="middle" x="483" y="-81.5" font-family="Helvetica,sans-Serif" font-size="10.00">Rtypes.h</text>
</g>
<!-- Node7&#45;&gt;Node12 -->
<g id="edge33" class="edge"><title>Node7&#45;&gt;Node12</title>
<path fill="none" stroke="midnightblue" d="M506.203,-204.776C516.886,-195.615 529.173,-182.693 535,-168 540.243,-154.779 540.506,-149.113 535,-136 528.836,-121.321 516.157,-108.744 504.862,-99.7531"/>
<polygon fill="midnightblue" stroke="midnightblue" points="506.732,-96.7812 496.626,-93.6008 502.543,-102.389 506.732,-96.7812"/>
</g>
<!-- Node7&#45;&gt;Node19 -->
<g id="edge21" class="edge"><title>Node7&#45;&gt;Node19</title>
<path fill="none" stroke="midnightblue" d="M556.109,-204.922C616.995,-192.52 704.322,-174.731 759.325,-163.526"/>
<polygon fill="midnightblue" stroke="midnightblue" points="760.105,-166.939 769.205,-161.514 758.708,-160.08 760.105,-166.939"/>
</g>
<!-- Node11&#45;&gt;Node3 -->
<g id="edge13" class="edge"><title>Node11&#45;&gt;Node3</title>
<path fill="none" stroke="midnightblue" d="M242.91,-137.442C169.471,-124.506 68.1484,-106.112 50,-100 48.1375,-99.3728 46.2446,-98.6502 44.3618,-97.8684"/>
<polygon fill="midnightblue" stroke="midnightblue" points="45.7632,-94.6603 35.2184,-93.6319 42.8203,-101.012 45.7632,-94.6603"/>
</g>
<!-- Node11&#45;&gt;Node9 -->
<g id="edge12" class="edge"><title>Node11&#45;&gt;Node9</title>
<path fill="none" stroke="midnightblue" d="M338.501,-136.632C348.842,-127.236 361.365,-114.117 369,-100 380.048,-79.5728 385.064,-53.0595 387.293,-35.5615"/>
<polygon fill="midnightblue" stroke="midnightblue" points="390.784,-35.8405 388.391,-25.5193 383.825,-35.0796 390.784,-35.8405"/>
</g>
<!-- Node11&#45;&gt;Node12 -->
<g id="edge11" class="edge"><title>Node11&#45;&gt;Node12</title>
<path fill="none" stroke="midnightblue" d="M355.753,-136.841C384.403,-125.169 424.66,-108.768 452.175,-97.5585"/>
<polygon fill="midnightblue" stroke="midnightblue" points="453.75,-100.696 461.69,-93.6819 451.108,-94.2136 453.75,-100.696"/>
</g>
<!-- Node13 -->
<g id="node13" class="node"><title>Node13</title>
<polygon fill="none" stroke="#bfbfbf" points="311.5,-74.5 311.5,-93.5 360.5,-93.5 360.5,-74.5 311.5,-74.5"/>
<text text-anchor="middle" x="336" y="-81.5" font-family="Helvetica,sans-Serif" font-size="10.00">cassert</text>
</g>
<!-- Node11&#45;&gt;Node13 -->
<g id="edge14" class="edge"><title>Node11&#45;&gt;Node13</title>
<path fill="none" stroke="midnightblue" d="M324.255,-136.679C326.455,-126.999 329.381,-114.123 331.763,-103.645"/>
<polygon fill="midnightblue" stroke="midnightblue" points="335.19,-104.355 333.994,-93.8283 328.364,-102.804 335.19,-104.355"/>
</g>
<!-- Node14 -->
<g id="node14" class="node"><title>Node14</title>
<polygon fill="none" stroke="#bfbfbf" points="59,-74.5 59,-93.5 105,-93.5 105,-74.5 59,-74.5"/>
<text text-anchor="middle" x="82" y="-81.5" font-family="Helvetica,sans-Serif" font-size="10.00">cstdint</text>
</g>
<!-- Node11&#45;&gt;Node14 -->
<g id="edge15" class="edge"><title>Node11&#45;&gt;Node14</title>
<path fill="none" stroke="midnightblue" d="M249.088,-136.932C208.799,-128.148 157.966,-115.55 114,-100 112.091,-99.3249 110.143,-98.5745 108.196,-97.7796"/>
<polygon fill="midnightblue" stroke="midnightblue" points="109.241,-94.4146 98.6792,-93.5751 106.412,-100.818 109.241,-94.4146"/>
</g>
<!-- Node15 -->
<g id="node15" class="node"><title>Node15</title>
<polygon fill="none" stroke="#bfbfbf" points="123,-74.5 123,-93.5 185,-93.5 185,-74.5 123,-74.5"/>
<text text-anchor="middle" x="154" y="-81.5" font-family="Helvetica,sans-Serif" font-size="10.00">type_traits</text>
</g>
<!-- Node11&#45;&gt;Node15 -->
<g id="edge16" class="edge"><title>Node11&#45;&gt;Node15</title>
<path fill="none" stroke="midnightblue" d="M285.174,-136.841C255.511,-125.118 213.776,-108.624 185.404,-97.4113"/>
<polygon fill="midnightblue" stroke="midnightblue" points="186.554,-94.1024 175.968,-93.6819 183.981,-100.612 186.554,-94.1024"/>
</g>
<!-- Node16 -->
<g id="node16" class="node"><title>Node16</title>
<g id="a_node16"><a xlink:href="../../d9/d52/Common_2MathUtils_2include_2MathUtils_2Utils_8h.html" target="_top" xlink:title="MathUtils/Utils.h">
<polygon fill="none" stroke="black" points="203,-74.5 203,-93.5 293,-93.5 293,-74.5 203,-74.5"/>
<text text-anchor="middle" x="248" y="-81.5" font-family="Helvetica,sans-Serif" font-size="10.00">MathUtils/Utils.h</text>
</a>
</g>
</g>
<!-- Node11&#45;&gt;Node16 -->
<g id="edge17" class="edge"><title>Node11&#45;&gt;Node16</title>
<path fill="none" stroke="midnightblue" d="M305.16,-136.679C293.44,-126.082 277.482,-111.655 265.405,-100.736"/>
<polygon fill="midnightblue" stroke="midnightblue" points="267.53,-97.9386 257.765,-93.8283 262.835,-103.131 267.53,-97.9386"/>
</g>
<!-- Node16&#45;&gt;Node9 -->
<g id="edge18" class="edge"><title>Node16&#45;&gt;Node9</title>
<path fill="none" stroke="midnightblue" d="M266.433,-74.3717C290.606,-63.0569 333.23,-43.1053 361.296,-29.9678"/>
<polygon fill="midnightblue" stroke="midnightblue" points="362.989,-33.0398 370.562,-25.6305 360.021,-26.7 362.989,-33.0398"/>
</g>
<!-- Node17 -->
<g id="node17" class="node"><title>Node17</title>
<polygon fill="none" stroke="#bfbfbf" points="267,-6.5 267,-25.5 311,-25.5 311,-6.5 267,-6.5"/>
<text text-anchor="middle" x="289" y="-13.5" font-family="Helvetica,sans-Serif" font-size="10.00">cmath</text>
</g>
<!-- Node16&#45;&gt;Node17 -->
<g id="edge19" class="edge"><title>Node16&#45;&gt;Node17</title>
<path fill="none" stroke="midnightblue" d="M253.36,-74.3717C259.587,-64.3478 270.025,-47.5455 278,-34.7076"/>
<polygon fill="midnightblue" stroke="midnightblue" points="281.204,-36.1825 283.508,-25.8411 275.258,-32.4886 281.204,-36.1825"/>
</g>
<!-- Node18 -->
<g id="node18" class="node"><title>Node18</title>
<g id="a_node18"><a xlink:href="../../d6/d84/MathConstants_8h.html" target="_top" xlink:title="useful math constants ">
<polygon fill="none" stroke="black" points="69.5,-6.5 69.5,-25.5 248.5,-25.5 248.5,-6.5 69.5,-6.5"/>
<text text-anchor="middle" x="159" y="-13.5" font-family="Helvetica,sans-Serif" font-size="10.00">CommonConstants/MathConstants.h</text>
</a>
</g>
</g>
<!-- Node16&#45;&gt;Node18 -->
<g id="edge20" class="edge"><title>Node16&#45;&gt;Node18</title>
<path fill="none" stroke="midnightblue" d="M236.365,-74.3717C221.84,-63.6004 196.76,-45.0021 179.101,-31.9065"/>
<polygon fill="midnightblue" stroke="midnightblue" points="180.755,-28.7758 170.638,-25.6305 176.586,-34.3984 180.755,-28.7758"/>
</g>
<!-- Node19&#45;&gt;Node6 -->
<g id="edge29" class="edge"><title>Node19&#45;&gt;Node6</title>
<path fill="none" stroke="midnightblue" d="M757.809,-142.429C711.224,-134.128 642.09,-119.876 584,-100 582.084,-99.3445 580.131,-98.6088 578.181,-97.8244"/>
<polygon fill="midnightblue" stroke="midnightblue" points="579.219,-94.4578 568.656,-93.6429 576.405,-100.867 579.219,-94.4578"/>
</g>
<!-- Node19&#45;&gt;Node12 -->
<g id="edge27" class="edge"><title>Node19&#45;&gt;Node12</title>
<path fill="none" stroke="midnightblue" d="M748.237,-143.685C688.94,-135.903 597.873,-121.691 521,-100 518.024,-99.1603 514.96,-98.1717 511.924,-97.1091"/>
<polygon fill="midnightblue" stroke="midnightblue" points="513.055,-93.7953 502.463,-93.5551 510.593,-100.348 513.055,-93.7953"/>
</g>
<!-- Node20 -->
<g id="node20" class="node"><title>Node20</title>
<polygon fill="none" stroke="#bfbfbf" points="735.5,-69 735.5,-99 886.5,-99 886.5,-69 735.5,-69"/>
<text text-anchor="start" x="743.5" y="-87" font-family="Helvetica,sans-Serif" font-size="10.00">Math/GenVector/Displacement</text>
<text text-anchor="middle" x="811" y="-76" font-family="Helvetica,sans-Serif" font-size="10.00">Vector3D.h</text>
</g>
<!-- Node19&#45;&gt;Node20 -->
<g id="edge22" class="edge"><title>Node19&#45;&gt;Node20</title>
<path fill="none" stroke="midnightblue" d="M811,-142.372C811,-133.971 811,-120.811 811,-109.213"/>
<polygon fill="midnightblue" stroke="midnightblue" points="814.5,-109.181 811,-99.1815 807.5,-109.181 814.5,-109.181"/>
</g>
<!-- Node21 -->
<g id="node21" class="node"><title>Node21</title>
<polygon fill="none" stroke="#bfbfbf" points="905,-74.5 905,-93.5 1081,-93.5 1081,-74.5 905,-74.5"/>
<text text-anchor="middle" x="993" y="-81.5" font-family="Helvetica,sans-Serif" font-size="10.00">Math/GenVector/PositionVector3D.h</text>
</g>
<!-- Node19&#45;&gt;Node21 -->
<g id="edge23" class="edge"><title>Node19&#45;&gt;Node21</title>
<path fill="none" stroke="midnightblue" d="M834.793,-142.372C866.764,-130.778 923.74,-110.116 959.885,-97.0087"/>
<polygon fill="midnightblue" stroke="midnightblue" points="961.282,-100.225 969.489,-93.5259 958.895,-93.6447 961.282,-100.225"/>
</g>
<!-- Node22 -->
<g id="node22" class="node"><title>Node22</title>
<polygon fill="none" stroke="#bfbfbf" points="1098.5,-74.5 1098.5,-93.5 1247.5,-93.5 1247.5,-74.5 1098.5,-74.5"/>
<text text-anchor="middle" x="1173" y="-81.5" font-family="Helvetica,sans-Serif" font-size="10.00">Math/GenVector/Rotation3D.h</text>
</g>
<!-- Node19&#45;&gt;Node22 -->
<g id="edge24" class="edge"><title>Node19&#45;&gt;Node22</title>
<path fill="none" stroke="midnightblue" d="M857.954,-142.439C924.143,-130.372 1044.74,-108.384 1115.99,-95.3945"/>
<polygon fill="midnightblue" stroke="midnightblue" points="1116.92,-98.7825 1126.13,-93.5455 1115.66,-91.896 1116.92,-98.7825"/>
</g>
<!-- Node23 -->
<g id="node23" class="node"><title>Node23</title>
<polygon fill="none" stroke="#bfbfbf" points="1266,-74.5 1266,-93.5 1422,-93.5 1422,-74.5 1266,-74.5"/>
<text text-anchor="middle" x="1344" y="-81.5" font-family="Helvetica,sans-Serif" font-size="10.00">Math/GenVector/Transform3D.h</text>
</g>
<!-- Node19&#45;&gt;Node23 -->
<g id="edge25" class="edge"><title>Node19&#45;&gt;Node23</title>
<path fill="none" stroke="midnightblue" d="M873.779,-144.899C960.077,-136.262 1120.12,-119.352 1256,-100 1265.9,-98.5905 1276.39,-96.9391 1286.56,-95.2571"/>
<polygon fill="midnightblue" stroke="midnightblue" points="1287.3,-98.6821 1296.58,-93.5727 1286.14,-91.779 1287.3,-98.6821"/>
</g>
<!-- Node24 -->
<g id="node24" class="node"><title>Node24</title>
<polygon fill="none" stroke="#bfbfbf" points="1440,-74.5 1440,-93.5 1600,-93.5 1600,-74.5 1440,-74.5"/>
<text text-anchor="middle" x="1520" y="-81.5" font-family="Helvetica,sans-Serif" font-size="10.00">Math/GenVector/Translation3D.h</text>
</g>
<!-- Node19&#45;&gt;Node24 -->
<g id="edge26" class="edge"><title>Node19&#45;&gt;Node24</title>
<path fill="none" stroke="midnightblue" d="M873.664,-147.61C985.767,-141.151 1227.92,-125.419 1431,-100 1441.71,-98.659 1453.11,-96.9531 1464.04,-95.176"/>
<polygon fill="midnightblue" stroke="midnightblue" points="1464.63,-98.6265 1473.92,-93.5323 1463.48,-91.7215 1464.63,-98.6265"/>
</g>
<!-- Node25 -->
<g id="node25" class="node"><title>Node25</title>
<polygon fill="none" stroke="#bfbfbf" points="1618,-74.5 1618,-93.5 1694,-93.5 1694,-74.5 1618,-74.5"/>
<text text-anchor="middle" x="1656" y="-81.5" font-family="Helvetica,sans-Serif" font-size="10.00">TGeoMatrix.h</text>
</g>
<!-- Node19&#45;&gt;Node25 -->
<g id="edge28" class="edge"><title>Node19&#45;&gt;Node25</title>
<path fill="none" stroke="midnightblue" d="M873.76,-148.976C1036.34,-143.415 1468.32,-126.528 1609,-100 1613.57,-99.1375 1618.32,-97.9652 1622.97,-96.6536"/>
<polygon fill="midnightblue" stroke="midnightblue" points="1624.32,-99.8992 1632.86,-93.6257 1622.28,-93.2058 1624.32,-99.8992"/>
</g>
<!-- Node26 -->
<g id="node26" class="node"><title>Node26</title>
<g id="a_node26"><a xlink:href="../../d2/dd0/Cartesian2D_8h.html" target="_top" xlink:title="MathUtils/Cartesian2D.h">
<polygon fill="none" stroke="black" points="592.5,-74.5 592.5,-93.5 717.5,-93.5 717.5,-74.5 592.5,-74.5"/>
<text text-anchor="middle" x="655" y="-81.5" font-family="Helvetica,sans-Serif" font-size="10.00">MathUtils/Cartesian2D.h</text>
</a>
</g>
</g>
<!-- Node19&#45;&gt;Node26 -->
<g id="edge30" class="edge"><title>Node19&#45;&gt;Node26</title>
<path fill="none" stroke="midnightblue" d="M790.606,-142.372C763.628,-130.958 715.878,-110.756 684.841,-97.6252"/>
<polygon fill="midnightblue" stroke="midnightblue" points="685.973,-94.3035 675.399,-93.6305 683.245,-100.75 685.973,-94.3035"/>
</g>
<!-- Node27 -->
<g id="node27" class="node"><title>Node27</title>
<polygon fill="none" stroke="#bfbfbf" points="690.5,-1 690.5,-31 841.5,-31 841.5,-1 690.5,-1"/>
<text text-anchor="start" x="698.5" y="-19" font-family="Helvetica,sans-Serif" font-size="10.00">Math/GenVector/Displacement</text>
<text text-anchor="middle" x="766" y="-8" font-family="Helvetica,sans-Serif" font-size="10.00">Vector2D.h</text>
</g>
<!-- Node26&#45;&gt;Node27 -->
<g id="edge31" class="edge"><title>Node26&#45;&gt;Node27</title>
<path fill="none" stroke="midnightblue" d="M669.511,-74.3717C685.657,-64.7715 712.26,-48.9537 733.447,-36.3559"/>
<polygon fill="midnightblue" stroke="midnightblue" points="735.343,-39.3006 742.149,-31.1815 731.765,-33.2839 735.343,-39.3006"/>
</g>
<!-- Node28 -->
<g id="node28" class="node"><title>Node28</title>
<polygon fill="none" stroke="#bfbfbf" points="496,-6.5 496,-25.5 672,-25.5 672,-6.5 496,-6.5"/>
<text text-anchor="middle" x="584" y="-13.5" font-family="Helvetica,sans-Serif" font-size="10.00">Math/GenVector/PositionVector2D.h</text>
</g>
<!-- Node26&#45;&gt;Node28 -->
<g id="edge32" class="edge"><title>Node26&#45;&gt;Node28</title>
<path fill="none" stroke="midnightblue" d="M645.718,-74.3717C634.406,-63.8564 615.07,-45.8819 601.05,-32.8496"/>
<polygon fill="midnightblue" stroke="midnightblue" points="603.218,-30.0861 593.511,-25.8411 598.452,-35.2131 603.218,-30.0861"/>
</g>
</g>
</svg>
        <g id="navigator" transform="translate(0 0)" fill="#404254">
                <rect fill="#f2f5e9" fill-opacity="0.5" stroke="#606060" stroke-width=".5" x="0" y="0" width="60" height="60"/>
                <use id="zoomplus" xlink:href="#zoomPlus" x="17" y="9" onmousedown="handleZoom(evt,'in')"/>
                <use id="zoomminus" xlink:href="#zoomMin" x="42" y="9" onmousedown="handleZoom(evt,'out')"/>
                <use id="reset" xlink:href="#resetDef" x="30" y="36" onmousedown="handleReset()"/>
                <g id="arrowUp" xlink:href="#dirArrow" transform="translate(30 24)" onmousedown="handlePan(0,-1)">
                  <use xlink:href="#rim" fill="#404040">
                        <set attributeName="fill" to="#808080" begin="arrowUp.mouseover" end="arrowUp.mouseout"/>
                  </use>
                  <path fill="none" stroke="white" stroke-width="1.5" d="M0,-3.0v7 M-2.5,-0.5L0,-3.0L2.5,-0.5"/>
                </g>
                <g id="arrowRight" xlink:href="#dirArrow" transform="rotate(90) translate(36 -43)" onmousedown="handlePan(1,0)">
                  <use xlink:href="#rim" fill="#404040">
                        <set attributeName="fill" to="#808080" begin="arrowRight.mouseover" end="arrowRight.mouseout"/>
                  </use>
                  <path fill="none" stroke="white" stroke-width="1.5" d="M0,-3.0v7 M-2.5,-0.5L0,-3.0L2.5,-0.5"/>
                </g>
                <g id="arrowDown" xlink:href="#dirArrow" transform="rotate(180) translate(-30 -48)" onmousedown="handlePan(0,1)">
                  <use xlink:href="#rim" fill="#404040">
                        <set attributeName="fill" to="#808080" begin="arrowDown.mouseover" end="arrowDown.mouseout"/>
                  </use>
                  <path fill="none" stroke="white" stroke-width="1.5" d="M0,-3.0v7 M-2.5,-0.5L0,-3.0L2.5,-0.5"/>
                </g>
                <g id="arrowLeft" xlink:href="#dirArrow" transform="rotate(270) translate(-36 17)" onmousedown="handlePan(-1,0)">
                  <use xlink:href="#rim" fill="#404040">
                        <set attributeName="fill" to="#808080" begin="arrowLeft.mouseover" end="arrowLeft.mouseout"/>
                  </use>
                  <path fill="none" stroke="white" stroke-width="1.5" d="M0,-3.0v7 M-2.5,-0.5L0,-3.0L2.5,-0.5"/>
                </g>
        </g>
        <svg viewBox="0 0 15 15" width="100%" height="30px" preserveAspectRatio="xMaxYMin meet">
         <g id="arrow_out" transform="scale(0.3 0.3)">
          <a xlink:href="BaseCluster_8h__incl_org.svg" target="_base">
           <rect id="button" ry="5" rx="5" y="6" x="6" height="38" width="38"
                fill="#f2f5e9" fill-opacity="0.5" stroke="#606060" stroke-width="1.0"/>
           <path id="arrow"
             d="M 11.500037,31.436501 C 11.940474,20.09759 22.043105,11.32322 32.158766,21.979434 L 37.068811,17.246167 C 37.068811,17.246167 37.088388,32 37.088388,32 L 22.160133,31.978069 C 22.160133,31.978069 26.997745,27.140456 26.997745,27.140456 C 18.528582,18.264221 13.291696,25.230495 11.500037,31.436501 z"
             style="fill:#404040;"/>
          </a>
         </g>
        </svg>
</svg>
