<?xml version="1.0" encoding="UTF-8" standalone="no"?>
<!DOCTYPE svg PUBLIC "-//W3C//DTD SVG 1.1//EN"
 "http://www.w3.org/Graphics/SVG/1.1/DTD/svg11.dtd">
<!-- Generated by graphviz version 2.36.0 (20140111.2315)
 -->
<!-- Title: /home/travis/build/AliceO2Group/AliceO2/Detectors/ITSMFT/common/reconstruction/src/TopologyFastSimulation.cxx Pages: 1 -->
<svg width="1730pt" height="672pt"
 viewBox="0.00 0.00 1730.00 672.00" xmlns="http://www.w3.org/2000/svg" xmlns:xlink="http://www.w3.org/1999/xlink">
<g id="graph0" class="graph" transform="scale(1 1) rotate(0) translate(4 668)">
<title>/home/travis/build/AliceO2Group/AliceO2/Detectors/ITSMFT/common/reconstruction/src/TopologyFastSimulation.cxx</title>
<!-- Node1 -->
<g id="node1" class="node"><title>Node1</title>
<polygon fill="#bfbfbf" stroke="black" points="392,-600.5 392,-663.5 552,-663.5 552,-600.5 392,-600.5"/>
<text text-anchor="start" x="400" y="-651.5" font-family="Helvetica,sans-Serif" font-size="10.00">/home/travis/build</text>
<text text-anchor="start" x="400" y="-640.5" font-family="Helvetica,sans-Serif" font-size="10.00">/AliceO2Group/AliceO2</text>
<text text-anchor="start" x="400" y="-629.5" font-family="Helvetica,sans-Serif" font-size="10.00">/Detectors/ITSMFT/common</text>
<text text-anchor="start" x="400" y="-618.5" font-family="Helvetica,sans-Serif" font-size="10.00">/reconstruction/src/TopologyFast</text>
<text text-anchor="middle" x="472" y="-607.5" font-family="Helvetica,sans-Serif" font-size="10.00">Simulation.cxx</text>
</g>
<!-- Node2 -->
<g id="node2" class="node"><title>Node2</title>
<g id="a_node2"><a xlink:href="../../d9/d45/TopologyFastSimulation_8h.html" target="_top" xlink:title="Definition of the TopologyFastSimulation class. ">
<polygon fill="none" stroke="black" points="349.5,-533 349.5,-563 482.5,-563 482.5,-533 349.5,-533"/>
<text text-anchor="start" x="357.5" y="-551" font-family="Helvetica,sans-Serif" font-size="10.00">ITSMFTReconstruction</text>
<text text-anchor="middle" x="416" y="-540" font-family="Helvetica,sans-Serif" font-size="10.00">/TopologyFastSimulation.h</text>
</a>
</g>
</g>
<!-- Node1&#45;&gt;Node2 -->
<g id="edge1" class="edge"><title>Node1&#45;&gt;Node2</title>
<path fill="none" stroke="midnightblue" d="M451.148,-600.466C444.617,-590.904 437.531,-580.528 431.444,-571.614"/>
<polygon fill="midnightblue" stroke="midnightblue" points="434.276,-569.556 425.746,-563.272 428.496,-573.504 434.276,-569.556"/>
</g>
<!-- Node38 -->
<g id="node38" class="node"><title>Node38</title>
<polygon fill="none" stroke="#bfbfbf" points="501,-538.5 501,-557.5 557,-557.5 557,-538.5 501,-538.5"/>
<text text-anchor="middle" x="529" y="-545.5" font-family="Helvetica,sans-Serif" font-size="10.00">algorithm</text>
</g>
<!-- Node1&#45;&gt;Node38 -->
<g id="edge48" class="edge"><title>Node1&#45;&gt;Node38</title>
<path fill="none" stroke="midnightblue" d="M493.225,-600.466C501.284,-588.872 510.175,-576.081 517.078,-566.151"/>
<polygon fill="midnightblue" stroke="midnightblue" points="520.16,-567.849 522.994,-557.64 514.413,-563.853 520.16,-567.849"/>
</g>
<!-- Node3 -->
<g id="node3" class="node"><title>Node3</title>
<polygon fill="none" stroke="#bfbfbf" points="332.5,-470.5 332.5,-489.5 381.5,-489.5 381.5,-470.5 332.5,-470.5"/>
<text text-anchor="middle" x="357" y="-477.5" font-family="Helvetica,sans-Serif" font-size="10.00">random</text>
</g>
<!-- Node2&#45;&gt;Node3 -->
<g id="edge2" class="edge"><title>Node2&#45;&gt;Node3</title>
<path fill="none" stroke="midnightblue" d="M403.198,-532.679C393.907,-522.286 381.322,-508.208 371.634,-497.37"/>
<polygon fill="midnightblue" stroke="midnightblue" points="374.166,-494.951 364.892,-489.828 368.947,-499.616 374.166,-494.951"/>
</g>
<!-- Node4 -->
<g id="node4" class="node"><title>Node4</title>
<g id="a_node4"><a xlink:href="../../d1/d08/TopologyDictionary_8h.html" target="_top" xlink:title="Definition of the ClusterTopology class. ">
<polygon fill="none" stroke="black" points="400,-465 400,-495 552,-495 552,-465 400,-465"/>
<text text-anchor="start" x="408" y="-483" font-family="Helvetica,sans-Serif" font-size="10.00">DataFormatsITSMFT/Topology</text>
<text text-anchor="middle" x="476" y="-472" font-family="Helvetica,sans-Serif" font-size="10.00">Dictionary.h</text>
</a>
</g>
</g>
<!-- Node2&#45;&gt;Node4 -->
<g id="edge3" class="edge"><title>Node2&#45;&gt;Node4</title>
<path fill="none" stroke="midnightblue" d="M429.019,-532.679C436.96,-523.944 447.268,-512.605 456.205,-502.775"/>
<polygon fill="midnightblue" stroke="midnightblue" points="458.869,-505.047 463.006,-495.293 453.69,-500.338 458.869,-505.047"/>
</g>
<!-- Node5 -->
<g id="node5" class="node"><title>Node5</title>
<g id="a_node5"><a xlink:href="../../de/dc1/ClusterPattern_8h.html" target="_top" xlink:title="DataFormatsITSMFT/Cluster\lPattern.h">
<polygon fill="none" stroke="black" points="289,-397 289,-427 433,-427 433,-397 289,-397"/>
<text text-anchor="start" x="297" y="-415" font-family="Helvetica,sans-Serif" font-size="10.00">DataFormatsITSMFT/Cluster</text>
<text text-anchor="middle" x="361" y="-404" font-family="Helvetica,sans-Serif" font-size="10.00">Pattern.h</text>
</a>
</g>
</g>
<!-- Node4&#45;&gt;Node5 -->
<g id="edge4" class="edge"><title>Node4&#45;&gt;Node5</title>
<path fill="none" stroke="midnightblue" d="M451.33,-464.841C434.806,-455.359 412.844,-442.754 394.713,-432.348"/>
<polygon fill="midnightblue" stroke="midnightblue" points="396.045,-429.077 385.63,-427.135 392.561,-435.149 396.045,-429.077"/>
</g>
<!-- Node17 -->
<g id="node17" class="node"><title>Node17</title>
<polygon fill="none" stroke="#bfbfbf" points="28,-142.5 28,-161.5 72,-161.5 72,-142.5 28,-142.5"/>
<text text-anchor="middle" x="50" y="-149.5" font-family="Helvetica,sans-Serif" font-size="10.00">vector</text>
</g>
<!-- Node4&#45;&gt;Node17 -->
<g id="edge47" class="edge"><title>Node4&#45;&gt;Node17</title>
<path fill="none" stroke="midnightblue" d="M401.699,-464.979C276.736,-440.361 38,-388.433 38,-351 38,-351 38,-351 38,-287 38,-245.697 43.7256,-197.518 47.2669,-171.669"/>
<polygon fill="midnightblue" stroke="midnightblue" points="50.7341,-172.147 48.6699,-161.755 43.8031,-171.166 50.7341,-172.147"/>
</g>
<!-- Node35 -->
<g id="node35" class="node"><title>Node35</title>
<polygon fill="none" stroke="#bfbfbf" points="451,-402.5 451,-421.5 501,-421.5 501,-402.5 451,-402.5"/>
<text text-anchor="middle" x="476" y="-409.5" font-family="Helvetica,sans-Serif" font-size="10.00">fstream</text>
</g>
<!-- Node4&#45;&gt;Node35 -->
<g id="edge44" class="edge"><title>Node4&#45;&gt;Node35</title>
<path fill="none" stroke="midnightblue" d="M476,-464.679C476,-455.101 476,-442.394 476,-431.977"/>
<polygon fill="midnightblue" stroke="midnightblue" points="479.5,-431.828 476,-421.828 472.5,-431.828 479.5,-431.828"/>
</g>
<!-- Node36 -->
<g id="node36" class="node"><title>Node36</title>
<polygon fill="none" stroke="#bfbfbf" points="519.5,-402.5 519.5,-421.5 560.5,-421.5 560.5,-402.5 519.5,-402.5"/>
<text text-anchor="middle" x="540" y="-409.5" font-family="Helvetica,sans-Serif" font-size="10.00">string</text>
</g>
<!-- Node4&#45;&gt;Node36 -->
<g id="edge45" class="edge"><title>Node4&#45;&gt;Node36</title>
<path fill="none" stroke="midnightblue" d="M489.887,-464.679C500.064,-454.184 513.884,-439.932 524.434,-429.052"/>
<polygon fill="midnightblue" stroke="midnightblue" points="526.99,-431.444 531.439,-421.828 521.965,-426.571 526.99,-431.444"/>
</g>
<!-- Node37 -->
<g id="node37" class="node"><title>Node37</title>
<polygon fill="none" stroke="#bfbfbf" points="578.5,-402.5 578.5,-421.5 661.5,-421.5 661.5,-402.5 578.5,-402.5"/>
<text text-anchor="middle" x="620" y="-409.5" font-family="Helvetica,sans-Serif" font-size="10.00">unordered_map</text>
</g>
<!-- Node4&#45;&gt;Node37 -->
<g id="edge46" class="edge"><title>Node4&#45;&gt;Node37</title>
<path fill="none" stroke="midnightblue" d="M506.892,-464.841C532.134,-453.272 567.515,-437.055 591.953,-425.855"/>
<polygon fill="midnightblue" stroke="midnightblue" points="593.425,-429.03 601.058,-421.682 590.509,-422.667 593.425,-429.03"/>
</g>
<!-- Node6 -->
<g id="node6" class="node"><title>Node6</title>
<polygon fill="none" stroke="#bfbfbf" points="484,-74.5 484,-93.5 540,-93.5 540,-74.5 484,-74.5"/>
<text text-anchor="middle" x="512" y="-81.5" font-family="Helvetica,sans-Serif" font-size="10.00">Rtypes.h</text>
</g>
<!-- Node5&#45;&gt;Node6 -->
<g id="edge5" class="edge"><title>Node5&#45;&gt;Node6</title>
<path fill="none" stroke="midnightblue" d="M361,-396.725C361,-373.947 361,-327.972 361,-289 361,-289 361,-289 361,-219 361,-185.041 447.521,-125.713 489.577,-98.8805"/>
<polygon fill="midnightblue" stroke="midnightblue" points="491.478,-101.82 498.065,-93.5217 487.741,-95.9008 491.478,-101.82"/>
</g>
<!-- Node7 -->
<g id="node7" class="node"><title>Node7</title>
<polygon fill="none" stroke="#bfbfbf" points="68,-6.5 68,-25.5 106,-25.5 106,-6.5 68,-6.5"/>
<text text-anchor="middle" x="87" y="-13.5" font-family="Helvetica,sans-Serif" font-size="10.00">array</text>
</g>
<!-- Node5&#45;&gt;Node7 -->
<g id="edge6" class="edge"><title>Node5&#45;&gt;Node7</title>
<path fill="none" stroke="midnightblue" d="M288.814,-404.971C183.465,-391.781 0,-350.254 0,-221 0,-221 0,-221 0,-151 0,-101.194 42.8045,-55.3299 68.3647,-32.3829"/>
<polygon fill="midnightblue" stroke="midnightblue" points="70.7304,-34.964 75.9814,-25.7619 66.138,-29.681 70.7304,-34.964"/>
</g>
<!-- Node8 -->
<g id="node8" class="node"><title>Node8</title>
<polygon fill="none" stroke="#bfbfbf" points="1677.5,-74.5 1677.5,-93.5 1722.5,-93.5 1722.5,-74.5 1677.5,-74.5"/>
<text text-anchor="middle" x="1700" y="-81.5" font-family="Helvetica,sans-Serif" font-size="10.00">iosfwd</text>
</g>
<!-- Node5&#45;&gt;Node8 -->
<g id="edge7" class="edge"><title>Node5&#45;&gt;Node8</title>
<path fill="none" stroke="midnightblue" d="M433.372,-397.274C436.283,-396.825 439.167,-396.398 442,-396 565.141,-378.718 1556,-413.347 1556,-289 1556,-289 1556,-289 1556,-219 1556,-185.981 1638.16,-126.387 1678.36,-99.2058"/>
<polygon fill="midnightblue" stroke="midnightblue" points="1680.35,-102.091 1686.71,-93.6204 1676.45,-96.2729 1680.35,-102.091"/>
</g>
<!-- Node9 -->
<g id="node9" class="node"><title>Node9</title>
<g id="a_node9"><a xlink:href="../../d1/d62/DataFormats_2Detectors_2ITSMFT_2common_2include_2DataFormatsITSMFT_2Cluster_8h.html" target="_top" xlink:title="DataFormatsITSMFT/Cluster.h">
<polygon fill="none" stroke="black" points="482,-340.5 482,-359.5 634,-359.5 634,-340.5 482,-340.5"/>
<text text-anchor="middle" x="558" y="-347.5" font-family="Helvetica,sans-Serif" font-size="10.00">DataFormatsITSMFT/Cluster.h</text>
</a>
</g>
</g>
<!-- Node5&#45;&gt;Node9 -->
<g id="edge8" class="edge"><title>Node5&#45;&gt;Node9</title>
<path fill="none" stroke="midnightblue" d="M407.188,-396.933C441.565,-386.462 487.919,-372.345 520.124,-362.536"/>
<polygon fill="midnightblue" stroke="midnightblue" points="521.504,-365.774 530.05,-359.513 519.464,-359.078 521.504,-365.774"/>
</g>
<!-- Node10 -->
<g id="node10" class="node"><title>Node10</title>
<g id="a_node10"><a xlink:href="../../d4/de2/BaseCluster_8h.html" target="_top" xlink:title="ReconstructionDataFormats\l/BaseCluster.h">
<polygon fill="none" stroke="black" points="528,-273 528,-303 668,-303 668,-273 528,-273"/>
<text text-anchor="start" x="536" y="-291" font-family="Helvetica,sans-Serif" font-size="10.00">ReconstructionDataFormats</text>
<text text-anchor="middle" x="598" y="-280" font-family="Helvetica,sans-Serif" font-size="10.00">/BaseCluster.h</text>
</a>
</g>
</g>
<!-- Node9&#45;&gt;Node10 -->
<g id="edge9" class="edge"><title>Node9&#45;&gt;Node10</title>
<path fill="none" stroke="midnightblue" d="M563.731,-340.403C568.743,-332.885 576.251,-321.624 582.962,-311.556"/>
<polygon fill="midnightblue" stroke="midnightblue" points="585.938,-313.403 588.573,-303.141 580.114,-309.52 585.938,-313.403"/>
</g>
<!-- Node10&#45;&gt;Node8 -->
<g id="edge14" class="edge"><title>Node10&#45;&gt;Node8</title>
<path fill="none" stroke="midnightblue" d="M668.343,-277.195C875.124,-247.98 1478.38,-159.837 1668,-100 1670.14,-99.3249 1672.32,-98.5367 1674.49,-97.6814"/>
<polygon fill="midnightblue" stroke="midnightblue" points="1675.96,-100.856 1683.73,-93.6455 1673.16,-94.441 1675.96,-100.856"/>
</g>
<!-- Node11 -->
<g id="node11" class="node"><title>Node11</title>
<polygon fill="none" stroke="#bfbfbf" points="389.5,-210.5 389.5,-229.5 448.5,-229.5 448.5,-210.5 389.5,-210.5"/>
<text text-anchor="middle" x="419" y="-217.5" font-family="Helvetica,sans-Serif" font-size="10.00">TObject.h</text>
</g>
<!-- Node10&#45;&gt;Node11 -->
<g id="edge10" class="edge"><title>Node10&#45;&gt;Node11</title>
<path fill="none" stroke="midnightblue" d="M558.706,-272.897C530.606,-262.761 491.916,-248.699 458,-236 455.622,-235.11 453.166,-234.182 450.696,-233.245"/>
<polygon fill="midnightblue" stroke="midnightblue" points="451.839,-229.935 441.248,-229.635 449.34,-236.474 451.839,-229.935"/>
</g>
<!-- Node12 -->
<g id="node12" class="node"><title>Node12</title>
<polygon fill="none" stroke="#bfbfbf" points="66.5,-74.5 66.5,-93.5 107.5,-93.5 107.5,-74.5 66.5,-74.5"/>
<text text-anchor="middle" x="87" y="-81.5" font-family="Helvetica,sans-Serif" font-size="10.00">bitset</text>
</g>
<!-- Node10&#45;&gt;Node12 -->
<g id="edge11" class="edge"><title>Node10&#45;&gt;Node12</title>
<path fill="none" stroke="midnightblue" d="M527.661,-279.791C438.3,-268.008 282.009,-238.419 168,-168 139.441,-150.36 113.726,-120.494 99.2632,-101.808"/>
<polygon fill="midnightblue" stroke="midnightblue" points="101.918,-99.5146 93.1041,-93.635 96.3275,-103.728 101.918,-99.5146"/>
</g>
<!-- Node13 -->
<g id="node13" class="node"><title>Node13</title>
<polygon fill="none" stroke="#bfbfbf" points="679,-210.5 679,-229.5 729,-229.5 729,-210.5 679,-210.5"/>
<text text-anchor="middle" x="704" y="-217.5" font-family="Helvetica,sans-Serif" font-size="10.00">iomanip</text>
</g>
<!-- Node10&#45;&gt;Node13 -->
<g id="edge12" class="edge"><title>Node10&#45;&gt;Node13</title>
<path fill="none" stroke="midnightblue" d="M620.74,-272.841C638.663,-261.681 663.531,-246.198 681.415,-235.063"/>
<polygon fill="midnightblue" stroke="midnightblue" points="683.417,-237.939 690.056,-229.682 679.717,-231.996 683.417,-237.939"/>
</g>
<!-- Node14 -->
<g id="node14" class="node"><title>Node14</title>
<polygon fill="none" stroke="#bfbfbf" points="747.5,-210.5 747.5,-229.5 776.5,-229.5 776.5,-210.5 747.5,-210.5"/>
<text text-anchor="middle" x="762" y="-217.5" font-family="Helvetica,sans-Serif" font-size="10.00">ios</text>
</g>
<!-- Node10&#45;&gt;Node14 -->
<g id="edge13" class="edge"><title>Node10&#45;&gt;Node14</title>
<path fill="none" stroke="midnightblue" d="M644.076,-272.921C671.873,-263.768 707.661,-250.804 738,-236 738.695,-235.661 739.396,-235.306 740.099,-234.94"/>
<polygon fill="midnightblue" stroke="midnightblue" points="742.164,-237.79 749.08,-229.764 738.668,-231.725 742.164,-237.79"/>
</g>
<!-- Node15 -->
<g id="node15" class="node"><title>Node15</title>
<g id="a_node15"><a xlink:href="../../d4/d20/DetMatrixCache_8h.html" target="_top" xlink:title="DetectorsCommonDataFormats\l/DetMatrixCache.h">
<polygon fill="none" stroke="black" points="467,-205 467,-235 623,-235 623,-205 467,-205"/>
<text text-anchor="start" x="475" y="-223" font-family="Helvetica,sans-Serif" font-size="10.00">DetectorsCommonDataFormats</text>
<text text-anchor="middle" x="545" y="-212" font-family="Helvetica,sans-Serif" font-size="10.00">/DetMatrixCache.h</text>
</a>
</g>
</g>
<!-- Node10&#45;&gt;Node15 -->
<g id="edge15" class="edge"><title>Node10&#45;&gt;Node15</title>
<path fill="none" stroke="midnightblue" d="M586.5,-272.679C579.624,-264.117 570.739,-253.053 562.956,-243.36"/>
<polygon fill="midnightblue" stroke="midnightblue" points="565.468,-240.899 556.478,-235.293 560.01,-245.282 565.468,-240.899"/>
</g>
<!-- Node25 -->
<g id="node25" class="node"><title>Node25</title>
<g id="a_node25"><a xlink:href="../../dd/d76/Cartesian3D_8h.html" target="_top" xlink:title="MathUtils/Cartesian3D.h">
<polygon fill="none" stroke="black" points="934.5,-142.5 934.5,-161.5 1059.5,-161.5 1059.5,-142.5 934.5,-142.5"/>
<text text-anchor="middle" x="997" y="-149.5" font-family="Helvetica,sans-Serif" font-size="10.00">MathUtils/Cartesian3D.h</text>
</a>
</g>
</g>
<!-- Node10&#45;&gt;Node25 -->
<g id="edge43" class="edge"><title>Node10&#45;&gt;Node25</title>
<path fill="none" stroke="midnightblue" d="M605.898,-272.837C617.348,-253.768 640.458,-220.35 670,-204 712.528,-180.463 841.676,-165.761 924.372,-158.496"/>
<polygon fill="midnightblue" stroke="midnightblue" points="924.805,-161.972 934.467,-157.626 924.203,-154.998 924.805,-161.972"/>
</g>
<!-- Node15&#45;&gt;Node6 -->
<g id="edge42" class="edge"><title>Node15&#45;&gt;Node6</title>
<path fill="none" stroke="midnightblue" d="M541.307,-204.723C538.678,-194.505 535.078,-180.416 532,-168 526.552,-146.024 520.485,-120.723 516.477,-103.889"/>
<polygon fill="midnightblue" stroke="midnightblue" points="519.781,-102.653 514.064,-93.7325 512.97,-104.271 519.781,-102.653"/>
</g>
<!-- Node15&#45;&gt;Node7 -->
<g id="edge17" class="edge"><title>Node15&#45;&gt;Node7</title>
<path fill="none" stroke="midnightblue" d="M466.819,-205.486C463.504,-204.972 460.22,-204.475 457,-204 328.947,-185.121 290.166,-210.773 168,-168 113.396,-148.882 85.2725,-150.476 57,-100 44.8853,-78.3711 60.0675,-50.9277 72.8814,-33.6593"/>
<polygon fill="midnightblue" stroke="midnightblue" points="75.7616,-35.6593 79.2093,-25.6411 70.2667,-31.3227 75.7616,-35.6593"/>
</g>
<!-- Node16 -->
<g id="node16" class="node"><title>Node16</title>
<polygon fill="none" stroke="#bfbfbf" points="540.5,-142.5 540.5,-161.5 611.5,-161.5 611.5,-142.5 540.5,-142.5"/>
<text text-anchor="middle" x="576" y="-149.5" font-family="Helvetica,sans-Serif" font-size="10.00">FairLogger.h</text>
</g>
<!-- Node15&#45;&gt;Node16 -->
<g id="edge16" class="edge"><title>Node15&#45;&gt;Node16</title>
<path fill="none" stroke="midnightblue" d="M551.727,-204.679C556.369,-194.796 562.576,-181.579 567.552,-170.986"/>
<polygon fill="midnightblue" stroke="midnightblue" points="570.77,-172.368 571.853,-161.828 564.434,-169.392 570.77,-172.368"/>
</g>
<!-- Node15&#45;&gt;Node17 -->
<g id="edge18" class="edge"><title>Node15&#45;&gt;Node17</title>
<path fill="none" stroke="midnightblue" d="M466.828,-205.42C463.51,-204.924 460.224,-204.449 457,-204 309.558,-183.484 271.104,-190.811 124,-168 110.201,-165.86 95.0733,-162.904 82.1115,-160.181"/>
<polygon fill="midnightblue" stroke="midnightblue" points="82.7589,-156.741 72.2476,-158.068 81.2923,-163.585 82.7589,-156.741"/>
</g>
<!-- Node18 -->
<g id="node18" class="node"><title>Node18</title>
<g id="a_node18"><a xlink:href="../../d6/d31/DetID_8h.html" target="_top" xlink:title="DetectorsCommonDataFormats\l/DetID.h">
<polygon fill="none" stroke="black" points="177,-137 177,-167 333,-167 333,-137 177,-137"/>
<text text-anchor="start" x="185" y="-155" font-family="Helvetica,sans-Serif" font-size="10.00">DetectorsCommonDataFormats</text>
<text text-anchor="middle" x="255" y="-144" font-family="Helvetica,sans-Serif" font-size="10.00">/DetID.h</text>
</a>
</g>
</g>
<!-- Node15&#45;&gt;Node18 -->
<g id="edge19" class="edge"><title>Node15&#45;&gt;Node18</title>
<path fill="none" stroke="midnightblue" d="M483.143,-204.922C437.33,-194.496 374.791,-180.263 326.776,-169.335"/>
<polygon fill="midnightblue" stroke="midnightblue" points="327.289,-165.863 316.762,-167.056 325.735,-172.688 327.289,-165.863"/>
</g>
<!-- Node15&#45;&gt;Node25 -->
<g id="edge30" class="edge"><title>Node15&#45;&gt;Node25</title>
<path fill="none" stroke="midnightblue" d="M623.279,-206.123C627.92,-205.395 632.52,-204.682 637,-204 736.384,-188.86 851.439,-172.82 924.204,-162.858"/>
<polygon fill="midnightblue" stroke="midnightblue" points="924.751,-166.316 934.185,-161.494 923.803,-159.381 924.751,-166.316"/>
</g>
<!-- Node18&#45;&gt;Node6 -->
<g id="edge20" class="edge"><title>Node18&#45;&gt;Node6</title>
<path fill="none" stroke="midnightblue" d="M328.611,-136.961C371.723,-127.991 426.966,-115.2 475,-100 477.635,-99.1661 480.347,-98.2281 483.048,-97.2386"/>
<polygon fill="midnightblue" stroke="midnightblue" points="484.567,-100.404 492.624,-93.5236 482.035,-93.8774 484.567,-100.404"/>
</g>
<!-- Node18&#45;&gt;Node7 -->
<g id="edge21" class="edge"><title>Node18&#45;&gt;Node7</title>
<path fill="none" stroke="midnightblue" d="M218.623,-136.818C198.648,-127.998 174.124,-115.402 155,-100 131.279,-80.8958 110.121,-52.3384 97.9274,-34.1954"/>
<polygon fill="midnightblue" stroke="midnightblue" points="100.81,-32.2087 92.4021,-25.7623 94.9549,-36.045 100.81,-32.2087"/>
</g>
<!-- Node18&#45;&gt;Node12 -->
<g id="edge22" class="edge"><title>Node18&#45;&gt;Node12</title>
<path fill="none" stroke="midnightblue" d="M217.298,-136.987C190.587,-126.951 153.966,-112.973 122,-100 120.116,-99.2355 118.18,-98.4383 116.231,-97.6272"/>
<polygon fill="midnightblue" stroke="midnightblue" points="117.14,-94.2114 106.566,-93.5436 114.415,-100.66 117.14,-94.2114"/>
</g>
<!-- Node19 -->
<g id="node19" class="node"><title>Node19</title>
<polygon fill="none" stroke="#bfbfbf" points="164.5,-74.5 164.5,-93.5 213.5,-93.5 213.5,-74.5 164.5,-74.5"/>
<text text-anchor="middle" x="189" y="-81.5" font-family="Helvetica,sans-Serif" font-size="10.00">cassert</text>
</g>
<!-- Node18&#45;&gt;Node19 -->
<g id="edge23" class="edge"><title>Node18&#45;&gt;Node19</title>
<path fill="none" stroke="midnightblue" d="M240.679,-136.679C230.184,-126.184 215.932,-111.932 205.052,-101.052"/>
<polygon fill="midnightblue" stroke="midnightblue" points="207.374,-98.4245 197.828,-93.8283 202.425,-103.374 207.374,-98.4245"/>
</g>
<!-- Node20 -->
<g id="node20" class="node"><title>Node20</title>
<polygon fill="none" stroke="#bfbfbf" points="232,-74.5 232,-93.5 278,-93.5 278,-74.5 232,-74.5"/>
<text text-anchor="middle" x="255" y="-81.5" font-family="Helvetica,sans-Serif" font-size="10.00">cstdint</text>
</g>
<!-- Node18&#45;&gt;Node20 -->
<g id="edge24" class="edge"><title>Node18&#45;&gt;Node20</title>
<path fill="none" stroke="midnightblue" d="M255,-136.679C255,-127.101 255,-114.394 255,-103.977"/>
<polygon fill="midnightblue" stroke="midnightblue" points="258.5,-103.828 255,-93.8283 251.5,-103.828 258.5,-103.828"/>
</g>
<!-- Node21 -->
<g id="node21" class="node"><title>Node21</title>
<polygon fill="none" stroke="#bfbfbf" points="296,-74.5 296,-93.5 358,-93.5 358,-74.5 296,-74.5"/>
<text text-anchor="middle" x="327" y="-81.5" font-family="Helvetica,sans-Serif" font-size="10.00">type_traits</text>
</g>
<!-- Node18&#45;&gt;Node21 -->
<g id="edge25" class="edge"><title>Node18&#45;&gt;Node21</title>
<path fill="none" stroke="midnightblue" d="M270.623,-136.679C282.183,-126.082 297.922,-111.655 309.833,-100.736"/>
<polygon fill="midnightblue" stroke="midnightblue" points="312.363,-103.166 317.369,-93.8283 307.633,-98.0055 312.363,-103.166"/>
</g>
<!-- Node22 -->
<g id="node22" class="node"><title>Node22</title>
<g id="a_node22"><a xlink:href="../../d9/d52/Common_2MathUtils_2include_2MathUtils_2Utils_8h.html" target="_top" xlink:title="MathUtils/Utils.h">
<polygon fill="none" stroke="black" points="376,-74.5 376,-93.5 466,-93.5 466,-74.5 376,-74.5"/>
<text text-anchor="middle" x="421" y="-81.5" font-family="Helvetica,sans-Serif" font-size="10.00">MathUtils/Utils.h</text>
</a>
</g>
</g>
<!-- Node18&#45;&gt;Node22 -->
<g id="edge26" class="edge"><title>Node18&#45;&gt;Node22</title>
<path fill="none" stroke="midnightblue" d="M290.611,-136.841C320.097,-125.118 361.582,-108.624 389.784,-97.4113"/>
<polygon fill="midnightblue" stroke="midnightblue" points="391.164,-100.629 399.164,-93.6819 388.578,-94.1242 391.164,-100.629"/>
</g>
<!-- Node22&#45;&gt;Node7 -->
<g id="edge27" class="edge"><title>Node22&#45;&gt;Node7</title>
<path fill="none" stroke="midnightblue" d="M391.431,-74.4372C383.23,-72.1987 374.3,-69.8868 366,-68 275.45,-47.4158 166.904,-29.4825 116.015,-21.465"/>
<polygon fill="midnightblue" stroke="midnightblue" points="116.479,-17.9951 106.058,-19.9073 115.397,-24.911 116.479,-17.9951"/>
</g>
<!-- Node23 -->
<g id="node23" class="node"><title>Node23</title>
<polygon fill="none" stroke="#bfbfbf" points="334,-6.5 334,-25.5 378,-25.5 378,-6.5 334,-6.5"/>
<text text-anchor="middle" x="356" y="-13.5" font-family="Helvetica,sans-Serif" font-size="10.00">cmath</text>
</g>
<!-- Node22&#45;&gt;Node23 -->
<g id="edge28" class="edge"><title>Node22&#45;&gt;Node23</title>
<path fill="none" stroke="midnightblue" d="M412.502,-74.3717C402.243,-63.9547 384.775,-46.2173 371.971,-33.2162"/>
<polygon fill="midnightblue" stroke="midnightblue" points="374.218,-30.5101 364.707,-25.8411 369.23,-35.4219 374.218,-30.5101"/>
</g>
<!-- Node24 -->
<g id="node24" class="node"><title>Node24</title>
<g id="a_node24"><a xlink:href="../../d6/d84/MathConstants_8h.html" target="_top" xlink:title="useful math constants ">
<polygon fill="none" stroke="black" points="396.5,-6.5 396.5,-25.5 575.5,-25.5 575.5,-6.5 396.5,-6.5"/>
<text text-anchor="middle" x="486" y="-13.5" font-family="Helvetica,sans-Serif" font-size="10.00">CommonConstants/MathConstants.h</text>
</a>
</g>
</g>
<!-- Node22&#45;&gt;Node24 -->
<g id="edge29" class="edge"><title>Node22&#45;&gt;Node24</title>
<path fill="none" stroke="midnightblue" d="M429.498,-74.3717C439.757,-63.9547 457.225,-46.2173 470.029,-33.2162"/>
<polygon fill="midnightblue" stroke="midnightblue" points="472.77,-35.4219 477.293,-25.8411 467.782,-30.5101 472.77,-35.4219"/>
</g>
<!-- Node25&#45;&gt;Node6 -->
<g id="edge36" class="edge"><title>Node25&#45;&gt;Node6</title>
<path fill="none" stroke="midnightblue" d="M934.444,-149.223C846.955,-145.539 683.653,-134.276 549,-100 546.007,-99.238 542.934,-98.2868 539.901,-97.2354"/>
<polygon fill="midnightblue" stroke="midnightblue" points="541.081,-93.9395 530.49,-93.6439 538.585,-100.479 541.081,-93.9395"/>
</g>
<!-- Node25&#45;&gt;Node8 -->
<g id="edge38" class="edge"><title>Node25&#45;&gt;Node8</title>
<path fill="none" stroke="midnightblue" d="M1059.73,-146.532C1223.69,-134.816 1653.38,-103.843 1668,-100 1670.35,-99.3813 1672.75,-98.5944 1675.11,-97.7061"/>
<polygon fill="midnightblue" stroke="midnightblue" points="1676.69,-100.837 1684.48,-93.6562 1673.91,-94.4116 1676.69,-100.837"/>
</g>
<!-- Node26 -->
<g id="node26" class="node"><title>Node26</title>
<polygon fill="none" stroke="#bfbfbf" points="1508.5,-69 1508.5,-99 1659.5,-99 1659.5,-69 1508.5,-69"/>
<text text-anchor="start" x="1516.5" y="-87" font-family="Helvetica,sans-Serif" font-size="10.00">Math/GenVector/Displacement</text>
<text text-anchor="middle" x="1584" y="-76" font-family="Helvetica,sans-Serif" font-size="10.00">Vector3D.h</text>
</g>
<!-- Node25&#45;&gt;Node26 -->
<g id="edge31" class="edge"><title>Node25&#45;&gt;Node26</title>
<path fill="none" stroke="midnightblue" d="M1059.79,-146.112C1153.05,-138.521 1333.9,-122.538 1497.77,-100.106"/>
<polygon fill="midnightblue" stroke="midnightblue" points="1498.62,-103.523 1508.04,-98.6888 1497.66,-96.5891 1498.62,-103.523"/>
</g>
<!-- Node27 -->
<g id="node27" class="node"><title>Node27</title>
<polygon fill="none" stroke="#bfbfbf" points="558,-74.5 558,-93.5 734,-93.5 734,-74.5 558,-74.5"/>
<text text-anchor="middle" x="646" y="-81.5" font-family="Helvetica,sans-Serif" font-size="10.00">Math/GenVector/PositionVector3D.h</text>
</g>
<!-- Node25&#45;&gt;Node27 -->
<g id="edge32" class="edge"><title>Node25&#45;&gt;Node27</title>
<path fill="none" stroke="midnightblue" d="M951.473,-142.439C887.295,-130.372 770.363,-108.384 701.28,-95.3945"/>
<polygon fill="midnightblue" stroke="midnightblue" points="701.921,-91.9538 691.447,-93.5455 700.628,-98.8333 701.921,-91.9538"/>
</g>
<!-- Node28 -->
<g id="node28" class="node"><title>Node28</title>
<polygon fill="none" stroke="#bfbfbf" points="751.5,-74.5 751.5,-93.5 900.5,-93.5 900.5,-74.5 751.5,-74.5"/>
<text text-anchor="middle" x="826" y="-81.5" font-family="Helvetica,sans-Serif" font-size="10.00">Math/GenVector/Rotation3D.h</text>
</g>
<!-- Node25&#45;&gt;Node28 -->
<g id="edge33" class="edge"><title>Node25&#45;&gt;Node28</title>
<path fill="none" stroke="midnightblue" d="M974.645,-142.372C944.735,-130.827 891.531,-110.293 857.55,-97.1772"/>
<polygon fill="midnightblue" stroke="midnightblue" points="858.679,-93.8615 848.09,-93.5259 856.159,-100.392 858.679,-93.8615"/>
</g>
<!-- Node29 -->
<g id="node29" class="node"><title>Node29</title>
<polygon fill="none" stroke="#bfbfbf" points="919,-74.5 919,-93.5 1075,-93.5 1075,-74.5 919,-74.5"/>
<text text-anchor="middle" x="997" y="-81.5" font-family="Helvetica,sans-Serif" font-size="10.00">Math/GenVector/Transform3D.h</text>
</g>
<!-- Node25&#45;&gt;Node29 -->
<g id="edge34" class="edge"><title>Node25&#45;&gt;Node29</title>
<path fill="none" stroke="midnightblue" d="M997,-142.372C997,-132.643 997,-116.528 997,-103.85"/>
<polygon fill="midnightblue" stroke="midnightblue" points="1000.5,-103.841 997,-93.8411 993.5,-103.841 1000.5,-103.841"/>
</g>
<!-- Node30 -->
<g id="node30" class="node"><title>Node30</title>
<polygon fill="none" stroke="#bfbfbf" points="1093,-74.5 1093,-93.5 1253,-93.5 1253,-74.5 1093,-74.5"/>
<text text-anchor="middle" x="1173" y="-81.5" font-family="Helvetica,sans-Serif" font-size="10.00">Math/GenVector/Translation3D.h</text>
</g>
<!-- Node25&#45;&gt;Node30 -->
<g id="edge35" class="edge"><title>Node25&#45;&gt;Node30</title>
<path fill="none" stroke="midnightblue" d="M1020.01,-142.372C1050.79,-130.827 1105.55,-110.293 1140.53,-97.1772"/>
<polygon fill="midnightblue" stroke="midnightblue" points="1142.13,-100.314 1150.26,-93.5259 1139.67,-93.76 1142.13,-100.314"/>
</g>
<!-- Node31 -->
<g id="node31" class="node"><title>Node31</title>
<polygon fill="none" stroke="#bfbfbf" points="1271,-74.5 1271,-93.5 1347,-93.5 1347,-74.5 1271,-74.5"/>
<text text-anchor="middle" x="1309" y="-81.5" font-family="Helvetica,sans-Serif" font-size="10.00">TGeoMatrix.h</text>
</g>
<!-- Node25&#45;&gt;Node31 -->
<g id="edge37" class="edge"><title>Node25&#45;&gt;Node31</title>
<path fill="none" stroke="midnightblue" d="M1051.47,-142.464C1105.34,-133.566 1189.93,-118.367 1262,-100 1265.9,-99.0052 1269.96,-97.8697 1273.98,-96.6787"/>
<polygon fill="midnightblue" stroke="midnightblue" points="1275.27,-99.9441 1283.79,-93.6525 1273.2,-93.255 1275.27,-99.9441"/>
</g>
<!-- Node32 -->
<g id="node32" class="node"><title>Node32</title>
<g id="a_node32"><a xlink:href="../../d2/dd0/Cartesian2D_8h.html" target="_top" xlink:title="MathUtils/Cartesian2D.h">
<polygon fill="none" stroke="black" points="1365.5,-74.5 1365.5,-93.5 1490.5,-93.5 1490.5,-74.5 1365.5,-74.5"/>
<text text-anchor="middle" x="1428" y="-81.5" font-family="Helvetica,sans-Serif" font-size="10.00">MathUtils/Cartesian2D.h</text>
</a>
</g>
</g>
<!-- Node25&#45;&gt;Node32 -->
<g id="edge39" class="edge"><title>Node25&#45;&gt;Node32</title>
<path fill="none" stroke="midnightblue" d="M1059.78,-143.324C1131.59,-134.256 1252.6,-118.096 1356,-100 1363.52,-98.6838 1371.46,-97.164 1379.2,-95.6077"/>
<polygon fill="midnightblue" stroke="midnightblue" points="1380.13,-98.9901 1389.23,-93.5546 1378.73,-92.1324 1380.13,-98.9901"/>
</g>
<!-- Node33 -->
<g id="node33" class="node"><title>Node33</title>
<polygon fill="none" stroke="#bfbfbf" points="1261.5,-1 1261.5,-31 1412.5,-31 1412.5,-1 1261.5,-1"/>
<text text-anchor="start" x="1269.5" y="-19" font-family="Helvetica,sans-Serif" font-size="10.00">Math/GenVector/Displacement</text>
<text text-anchor="middle" x="1337" y="-8" font-family="Helvetica,sans-Serif" font-size="10.00">Vector2D.h</text>
</g>
<!-- Node32&#45;&gt;Node33 -->
<g id="edge40" class="edge"><title>Node32&#45;&gt;Node33</title>
<path fill="none" stroke="midnightblue" d="M1416.1,-74.3717C1403.22,-65.0286 1382.22,-49.7966 1365.09,-37.375"/>
<polygon fill="midnightblue" stroke="midnightblue" points="1366.7,-34.2194 1356.55,-31.1815 1362.59,-39.8859 1366.7,-34.2194"/>
</g>
<!-- Node34 -->
<g id="node34" class="node"><title>Node34</title>
<polygon fill="none" stroke="#bfbfbf" points="1431,-6.5 1431,-25.5 1607,-25.5 1607,-6.5 1431,-6.5"/>
<text text-anchor="middle" x="1519" y="-13.5" font-family="Helvetica,sans-Serif" font-size="10.00">Math/GenVector/PositionVector2D.h</text>
</g>
<!-- Node32&#45;&gt;Node34 -->
<g id="edge41" class="edge"><title>Node32&#45;&gt;Node34</title>
<path fill="none" stroke="midnightblue" d="M1439.9,-74.3717C1454.88,-63.5015 1480.86,-44.6602 1498.94,-31.5474"/>
<polygon fill="midnightblue" stroke="midnightblue" points="1501.06,-34.3349 1507.1,-25.6305 1496.95,-28.6684 1501.06,-34.3349"/>
</g>
</g>
</svg>
