<?xml version="1.0" encoding="UTF-8" standalone="no"?>
<!DOCTYPE svg PUBLIC "-//W3C//DTD SVG 1.1//EN"
 "http://www.w3.org/Graphics/SVG/1.1/DTD/svg11.dtd">
<!-- Generated by graphviz version 2.36.0 (20140111.2315)
 -->
<!-- Title: /home/travis/build/AliceO2Group/AliceO2/Framework/Core/include/Framework/ArrowContext.h Pages: 1 -->
<svg width="766pt" height="174pt"
 viewBox="0.00 0.00 766.00 174.00" xmlns="http://www.w3.org/2000/svg" xmlns:xlink="http://www.w3.org/1999/xlink">
<g id="graph0" class="graph" transform="scale(1 1) rotate(0) translate(4 170)">
<title>/home/travis/build/AliceO2Group/AliceO2/Framework/Core/include/Framework/ArrowContext.h</title>
<!-- Node1 -->
<g id="node1" class="node"><title>Node1</title>
<polygon fill="#bfbfbf" stroke="black" points="384,-113 384,-165 524,-165 524,-113 384,-113"/>
<text text-anchor="start" x="392" y="-153" font-family="Helvetica,sans-Serif" font-size="10.00">/home/travis/build</text>
<text text-anchor="start" x="392" y="-142" font-family="Helvetica,sans-Serif" font-size="10.00">/AliceO2Group/AliceO2</text>
<text text-anchor="start" x="392" y="-131" font-family="Helvetica,sans-Serif" font-size="10.00">/Framework/Core/include</text>
<text text-anchor="middle" x="454" y="-120" font-family="Helvetica,sans-Serif" font-size="10.00">/Framework/ArrowContext.h</text>
</g>
<!-- Node2 -->
<g id="node2" class="node"><title>Node2</title>
<g id="a_node2"><a xlink:href="../../df/d2f/ContextRegistry_8h.html" target="_top" xlink:title="Framework/ContextRegistry.h">
<polygon fill="none" stroke="black" points="0,-56.5 0,-75.5 148,-75.5 148,-56.5 0,-56.5"/>
<text text-anchor="middle" x="74" y="-63.5" font-family="Helvetica,sans-Serif" font-size="10.00">Framework/ContextRegistry.h</text>
</a>
</g>
</g>
<!-- Node1&#45;&gt;Node2 -->
<g id="edge1" class="edge"><title>Node1&#45;&gt;Node2</title>
<path fill="none" stroke="midnightblue" d="M383.859,-124.895C310.529,-111.194 196.937,-89.9699 129.571,-77.3831"/>
<polygon fill="midnightblue" stroke="midnightblue" points="130.047,-73.9114 119.574,-75.5151 128.761,-80.7923 130.047,-73.9114"/>
</g>
<!-- Node4 -->
<g id="node4" class="node"><title>Node4</title>
<g id="a_node4"><a xlink:href="../../d8/d71/FairMQDeviceProxy_8h.html" target="_top" xlink:title="Framework/FairMQDeviceProxy.h">
<polygon fill="none" stroke="black" points="166.5,-56.5 166.5,-75.5 331.5,-75.5 331.5,-56.5 166.5,-56.5"/>
<text text-anchor="middle" x="249" y="-63.5" font-family="Helvetica,sans-Serif" font-size="10.00">Framework/FairMQDeviceProxy.h</text>
</a>
</g>
</g>
<!-- Node1&#45;&gt;Node4 -->
<g id="edge3" class="edge"><title>Node1&#45;&gt;Node4</title>
<path fill="none" stroke="midnightblue" d="M383.737,-113.665C349.879,-101.938 310.795,-88.4021 283.471,-78.9386"/>
<polygon fill="midnightblue" stroke="midnightblue" points="284.562,-75.6127 273.967,-75.6472 282.271,-82.2272 284.562,-75.6127"/>
</g>
<!-- Node5 -->
<g id="node5" class="node"><title>Node5</title>
<polygon fill="none" stroke="#bfbfbf" points="143,-0.5 143,-19.5 195,-19.5 195,-0.5 143,-0.5"/>
<text text-anchor="middle" x="169" y="-7.5" font-family="Helvetica,sans-Serif" font-size="10.00">memory</text>
</g>
<!-- Node1&#45;&gt;Node5 -->
<g id="edge17" class="edge"><title>Node1&#45;&gt;Node5</title>
<path fill="none" stroke="midnightblue" d="M425.407,-112.862C403.411,-94.7079 371.536,-70.8636 340,-56 336.889,-54.5337 254.298,-33.0585 205.055,-20.3136"/>
<polygon fill="midnightblue" stroke="midnightblue" points="205.652,-16.8528 195.094,-17.7368 203.899,-23.6297 205.652,-16.8528"/>
</g>
<!-- Node6 -->
<g id="node6" class="node"><title>Node6</title>
<g id="a_node6"><a xlink:href="../../d5/d98/TableBuilder_8h.html" target="_top" xlink:title="Framework/TableBuilder.h">
<polygon fill="none" stroke="black" points="388.5,-56.5 388.5,-75.5 519.5,-75.5 519.5,-56.5 388.5,-56.5"/>
<text text-anchor="middle" x="454" y="-63.5" font-family="Helvetica,sans-Serif" font-size="10.00">Framework/TableBuilder.h</text>
</a>
</g>
</g>
<!-- Node1&#45;&gt;Node6 -->
<g id="edge5" class="edge"><title>Node1&#45;&gt;Node6</title>
<path fill="none" stroke="midnightblue" d="M454,-112.768C454,-103.89 454,-94.0737 454,-85.8165"/>
<polygon fill="midnightblue" stroke="midnightblue" points="457.5,-85.7571 454,-75.7572 450.5,-85.7572 457.5,-85.7571"/>
</g>
<!-- Node11 -->
<g id="node11" class="node"><title>Node11</title>
<polygon fill="none" stroke="#bfbfbf" points="655,-0.5 655,-19.5 699,-19.5 699,-0.5 655,-0.5"/>
<text text-anchor="middle" x="677" y="-7.5" font-family="Helvetica,sans-Serif" font-size="10.00">vector</text>
</g>
<!-- Node1&#45;&gt;Node11 -->
<g id="edge14" class="edge"><title>Node1&#45;&gt;Node11</title>
<path fill="none" stroke="midnightblue" d="M486.408,-112.806C509.489,-95.5402 541.671,-72.8099 572,-56 595.66,-42.8863 623.916,-30.972 645.153,-22.7017"/>
<polygon fill="midnightblue" stroke="midnightblue" points="646.582,-25.9022 654.668,-19.0564 644.078,-19.3654 646.582,-25.9022"/>
</g>
<!-- Node12 -->
<g id="node12" class="node"><title>Node12</title>
<polygon fill="none" stroke="#bfbfbf" points="717.5,-0.5 717.5,-19.5 758.5,-19.5 758.5,-0.5 717.5,-0.5"/>
<text text-anchor="middle" x="738" y="-7.5" font-family="Helvetica,sans-Serif" font-size="10.00">string</text>
</g>
<!-- Node1&#45;&gt;Node12 -->
<g id="edge16" class="edge"><title>Node1&#45;&gt;Node12</title>
<path fill="none" stroke="midnightblue" d="M502.286,-112.854C523.456,-101.716 548.546,-88.3609 571,-76 586.695,-67.36 589.669,-63.3684 606,-56 624.4,-47.6978 674.835,-31.1186 707.764,-20.5676"/>
<polygon fill="midnightblue" stroke="midnightblue" points="708.905,-23.8776 717.367,-17.5025 706.776,-17.209 708.905,-23.8776"/>
</g>
<!-- Node14 -->
<g id="node14" class="node"><title>Node14</title>
<polygon fill="none" stroke="#bfbfbf" points="614.5,-56.5 614.5,-75.5 663.5,-75.5 663.5,-56.5 614.5,-56.5"/>
<text text-anchor="middle" x="639" y="-63.5" font-family="Helvetica,sans-Serif" font-size="10.00">cassert</text>
</g>
<!-- Node1&#45;&gt;Node14 -->
<g id="edge15" class="edge"><title>Node1&#45;&gt;Node14</title>
<path fill="none" stroke="midnightblue" d="M519.224,-112.968C549.031,-101.529 582.987,-88.4969 607.114,-79.2373"/>
<polygon fill="midnightblue" stroke="midnightblue" points="608.408,-82.4896 616.49,-75.6389 605.9,-75.9544 608.408,-82.4896"/>
</g>
<!-- Node3 -->
<g id="node3" class="node"><title>Node3</title>
<polygon fill="none" stroke="#bfbfbf" points="55,-0.5 55,-19.5 93,-19.5 93,-0.5 55,-0.5"/>
<text text-anchor="middle" x="74" y="-7.5" font-family="Helvetica,sans-Serif" font-size="10.00">array</text>
</g>
<!-- Node2&#45;&gt;Node3 -->
<g id="edge2" class="edge"><title>Node2&#45;&gt;Node3</title>
<path fill="none" stroke="midnightblue" d="M74,-56.083C74,-49.0059 74,-38.8611 74,-29.9865"/>
<polygon fill="midnightblue" stroke="midnightblue" points="77.5001,-29.751 74,-19.7511 70.5001,-29.7511 77.5001,-29.751"/>
</g>
<!-- Node4&#45;&gt;Node5 -->
<g id="edge4" class="edge"><title>Node4&#45;&gt;Node5</title>
<path fill="none" stroke="midnightblue" d="M236.147,-56.324C223.784,-47.979 204.87,-35.2122 190.263,-25.3524"/>
<polygon fill="midnightblue" stroke="midnightblue" points="192.068,-22.3483 181.821,-19.6545 188.152,-28.1503 192.068,-22.3483"/>
</g>
<!-- Node6&#45;&gt;Node5 -->
<g id="edge12" class="edge"><title>Node6&#45;&gt;Node5</title>
<path fill="none" stroke="midnightblue" d="M400.13,-56.4806C351.528,-48.5284 277.878,-35.8209 205.117,-20.1227"/>
<polygon fill="midnightblue" stroke="midnightblue" points="205.839,-16.6981 195.324,-17.9903 204.35,-23.5379 205.839,-16.6981"/>
</g>
<!-- Node7 -->
<g id="node7" class="node"><title>Node7</title>
<polygon fill="none" stroke="#bfbfbf" points="459,-0.5 459,-19.5 521,-19.5 521,-0.5 459,-0.5"/>
<text text-anchor="middle" x="490" y="-7.5" font-family="Helvetica,sans-Serif" font-size="10.00">arrow/stl.h</text>
</g>
<!-- Node6&#45;&gt;Node7 -->
<g id="edge6" class="edge"><title>Node6&#45;&gt;Node7</title>
<path fill="none" stroke="midnightblue" d="M459.945,-56.083C464.977,-48.5341 472.337,-37.4948 478.513,-28.2298"/>
<polygon fill="midnightblue" stroke="midnightblue" points="481.531,-30.0131 484.166,-19.7511 475.707,-26.1301 481.531,-30.0131"/>
</g>
<!-- Node8 -->
<g id="node8" class="node"><title>Node8</title>
<polygon fill="none" stroke="#bfbfbf" points="539,-0.5 539,-19.5 637,-19.5 637,-0.5 539,-0.5"/>
<text text-anchor="middle" x="588" y="-7.5" font-family="Helvetica,sans-Serif" font-size="10.00">arrow/type_traits.h</text>
</g>
<!-- Node6&#45;&gt;Node8 -->
<g id="edge7" class="edge"><title>Node6&#45;&gt;Node8</title>
<path fill="none" stroke="midnightblue" d="M475.233,-56.4435C497.384,-47.5171 532.319,-33.4387 557.436,-23.3168"/>
<polygon fill="midnightblue" stroke="midnightblue" points="558.9,-26.5006 566.867,-19.5164 556.283,-20.0079 558.9,-26.5006"/>
</g>
<!-- Node9 -->
<g id="node9" class="node"><title>Node9</title>
<polygon fill="none" stroke="#bfbfbf" points="213.5,-0.5 213.5,-19.5 286.5,-19.5 286.5,-0.5 213.5,-0.5"/>
<text text-anchor="middle" x="250" y="-7.5" font-family="Helvetica,sans-Serif" font-size="10.00">arrow/table.h</text>
</g>
<!-- Node6&#45;&gt;Node9 -->
<g id="edge8" class="edge"><title>Node6&#45;&gt;Node9</title>
<path fill="none" stroke="midnightblue" d="M421.676,-56.4435C386.611,-47.1616 330.502,-32.3093 292.035,-22.127"/>
<polygon fill="midnightblue" stroke="midnightblue" points="292.736,-18.692 282.173,-19.5164 290.945,-25.4589 292.736,-18.692"/>
</g>
<!-- Node10 -->
<g id="node10" class="node"><title>Node10</title>
<polygon fill="none" stroke="#bfbfbf" points="305,-0.5 305,-19.5 385,-19.5 385,-0.5 305,-0.5"/>
<text text-anchor="middle" x="345" y="-7.5" font-family="Helvetica,sans-Serif" font-size="10.00">arrow/builder.h</text>
</g>
<!-- Node6&#45;&gt;Node10 -->
<g id="edge9" class="edge"><title>Node6&#45;&gt;Node10</title>
<path fill="none" stroke="midnightblue" d="M436.487,-56.324C418.928,-47.6247 391.669,-34.1202 371.469,-24.113"/>
<polygon fill="midnightblue" stroke="midnightblue" points="372.984,-20.9575 362.469,-19.6545 369.876,-27.23 372.984,-20.9575"/>
</g>
<!-- Node6&#45;&gt;Node11 -->
<g id="edge10" class="edge"><title>Node6&#45;&gt;Node11</title>
<path fill="none" stroke="midnightblue" d="M492.532,-56.4309C531.192,-47.7136 592.389,-33.5894 645,-20 645.101,-19.9738 645.203,-19.9476 645.304,-19.9213"/>
<polygon fill="midnightblue" stroke="midnightblue" points="646.248,-23.2921 655,-17.3211 644.434,-16.531 646.248,-23.2921"/>
</g>
<!-- Node6&#45;&gt;Node12 -->
<g id="edge11" class="edge"><title>Node6&#45;&gt;Node12</title>
<path fill="none" stroke="midnightblue" d="M512.135,-56.4638C563.647,-48.4724 640.746,-35.4634 707,-20 707.211,-19.9506 707.424,-19.9007 707.636,-19.8503"/>
<polygon fill="midnightblue" stroke="midnightblue" points="708.606,-23.2147 717.404,-17.3114 706.845,-16.4398 708.606,-23.2147"/>
</g>
<!-- Node13 -->
<g id="node13" class="node"><title>Node13</title>
<polygon fill="none" stroke="#bfbfbf" points="403,-0.5 403,-19.5 441,-19.5 441,-0.5 403,-0.5"/>
<text text-anchor="middle" x="422" y="-7.5" font-family="Helvetica,sans-Serif" font-size="10.00">tuple</text>
</g>
<!-- Node6&#45;&gt;Node13 -->
<g id="edge13" class="edge"><title>Node6&#45;&gt;Node13</title>
<path fill="none" stroke="midnightblue" d="M448.716,-56.083C444.289,-48.6127 437.837,-37.7244 432.382,-28.5199"/>
<polygon fill="midnightblue" stroke="midnightblue" points="435.295,-26.5697 427.186,-19.7511 429.273,-30.1383 435.295,-26.5697"/>
</g>
</g>
</svg>
