<?xml version="1.0" encoding="UTF-8" standalone="no"?>
<!DOCTYPE svg PUBLIC "-//W3C//DTD SVG 1.1//EN"
 "http://www.w3.org/Graphics/SVG/1.1/DTD/svg11.dtd">
<!-- Generated by graphviz version 2.36.0 (20140111.2315)
 -->
<!-- Title: /home/travis/build/AliceO2Group/AliceO2/Framework/Core/include/Framework/DeviceInfo.h Pages: 1 -->
<svg width="606pt" height="174pt"
 viewBox="0.00 0.00 606.00 174.00" xmlns="http://www.w3.org/2000/svg" xmlns:xlink="http://www.w3.org/1999/xlink">
<g id="graph0" class="graph" transform="scale(1 1) rotate(0) translate(4 170)">
<title>/home/travis/build/AliceO2Group/AliceO2/Framework/Core/include/Framework/DeviceInfo.h</title>
<!-- Node1 -->
<g id="node1" class="node"><title>Node1</title>
<polygon fill="#bfbfbf" stroke="black" points="313.5,-113 313.5,-165 440.5,-165 440.5,-113 313.5,-113"/>
<text text-anchor="start" x="321.5" y="-153" font-family="Helvetica,sans-Serif" font-size="10.00">/home/travis/build</text>
<text text-anchor="start" x="321.5" y="-142" font-family="Helvetica,sans-Serif" font-size="10.00">/AliceO2Group/AliceO2</text>
<text text-anchor="start" x="321.5" y="-131" font-family="Helvetica,sans-Serif" font-size="10.00">/Framework/Core/include</text>
<text text-anchor="middle" x="377" y="-120" font-family="Helvetica,sans-Serif" font-size="10.00">/Framework/DeviceInfo.h</text>
</g>
<!-- Node2 -->
<g id="node2" class="node"><title>Node2</title>
<g id="a_node2"><a xlink:href="../../d8/d4a/LogParsingHelpers_8h.html" target="_top" xlink:title="Framework/LogParsingHelpers.h">
<polygon fill="none" stroke="black" points="-0.5,-56.5 -0.5,-75.5 158.5,-75.5 158.5,-56.5 -0.5,-56.5"/>
<text text-anchor="middle" x="79" y="-63.5" font-family="Helvetica,sans-Serif" font-size="10.00">Framework/LogParsingHelpers.h</text>
</a>
</g>
</g>
<!-- Node1&#45;&gt;Node2 -->
<g id="edge1" class="edge"><title>Node1&#45;&gt;Node2</title>
<path fill="none" stroke="midnightblue" d="M313.437,-122.856C256.826,-109.368 175.362,-89.9587 124.883,-77.9319"/>
<polygon fill="midnightblue" stroke="midnightblue" points="125.449,-74.4688 114.91,-75.5557 123.826,-81.2782 125.449,-74.4688"/>
</g>
<!-- Node3 -->
<g id="node3" class="node"><title>Node3</title>
<polygon fill="none" stroke="#bfbfbf" points="54.5,-0.5 54.5,-19.5 95.5,-19.5 95.5,-0.5 54.5,-0.5"/>
<text text-anchor="middle" x="75" y="-7.5" font-family="Helvetica,sans-Serif" font-size="10.00">string</text>
</g>
<!-- Node1&#45;&gt;Node3 -->
<g id="edge12" class="edge"><title>Node1&#45;&gt;Node3</title>
<path fill="none" stroke="midnightblue" d="M313.28,-113.832C284.367,-102.651 249.818,-88.9925 219,-76 178.078,-58.7478 131.318,-37.3178 102.474,-23.8956"/>
<polygon fill="midnightblue" stroke="midnightblue" points="103.599,-20.5586 93.0574,-19.502 100.64,-26.9021 103.599,-20.5586"/>
</g>
<!-- Node4 -->
<g id="node4" class="node"><title>Node4</title>
<g id="a_node4"><a xlink:href="../../de/d56/Variant_8h.html" target="_top" xlink:title="Framework/Variant.h">
<polygon fill="none" stroke="black" points="227.5,-56.5 227.5,-75.5 334.5,-75.5 334.5,-56.5 227.5,-56.5"/>
<text text-anchor="middle" x="281" y="-63.5" font-family="Helvetica,sans-Serif" font-size="10.00">Framework/Variant.h</text>
</a>
</g>
</g>
<!-- Node1&#45;&gt;Node4 -->
<g id="edge3" class="edge"><title>Node1&#45;&gt;Node4</title>
<path fill="none" stroke="midnightblue" d="M343.154,-112.968C329.08,-102.559 313.223,-90.8313 301.048,-81.827"/>
<polygon fill="midnightblue" stroke="midnightblue" points="303.033,-78.9418 292.911,-75.8095 298.87,-84.5699 303.033,-78.9418"/>
</g>
<!-- Node12 -->
<g id="node12" class="node"><title>Node12</title>
<polygon fill="none" stroke="#bfbfbf" points="352.5,-56.5 352.5,-75.5 401.5,-75.5 401.5,-56.5 352.5,-56.5"/>
<text text-anchor="middle" x="377" y="-63.5" font-family="Helvetica,sans-Serif" font-size="10.00">cstddef</text>
</g>
<!-- Node1&#45;&gt;Node12 -->
<g id="edge11" class="edge"><title>Node1&#45;&gt;Node12</title>
<path fill="none" stroke="midnightblue" d="M377,-112.768C377,-103.89 377,-94.0737 377,-85.8165"/>
<polygon fill="midnightblue" stroke="midnightblue" points="380.5,-85.7571 377,-75.7572 373.5,-85.7572 380.5,-85.7571"/>
</g>
<!-- Node13 -->
<g id="node13" class="node"><title>Node13</title>
<polygon fill="none" stroke="#bfbfbf" points="420,-56.5 420,-75.5 464,-75.5 464,-56.5 420,-56.5"/>
<text text-anchor="middle" x="442" y="-63.5" font-family="Helvetica,sans-Serif" font-size="10.00">vector</text>
</g>
<!-- Node1&#45;&gt;Node13 -->
<g id="edge13" class="edge"><title>Node1&#45;&gt;Node13</title>
<path fill="none" stroke="midnightblue" d="M400.1,-112.768C409.059,-102.982 419.061,-92.0561 427.046,-83.3346"/>
<polygon fill="midnightblue" stroke="midnightblue" points="429.812,-85.4964 433.983,-75.7572 424.649,-80.7696 429.812,-85.4964"/>
</g>
<!-- Node14 -->
<g id="node14" class="node"><title>Node14</title>
<polygon fill="none" stroke="#bfbfbf" points="482.5,-56.5 482.5,-75.5 533.5,-75.5 533.5,-56.5 482.5,-56.5"/>
<text text-anchor="middle" x="508" y="-63.5" font-family="Helvetica,sans-Serif" font-size="10.00">unistd.h</text>
</g>
<!-- Node1&#45;&gt;Node14 -->
<g id="edge14" class="edge"><title>Node1&#45;&gt;Node14</title>
<path fill="none" stroke="midnightblue" d="M423.186,-112.968C443.26,-102.088 465.993,-89.7673 482.867,-80.6218"/>
<polygon fill="midnightblue" stroke="midnightblue" points="484.937,-83.481 492.061,-75.6389 481.601,-77.3268 484.937,-83.481"/>
</g>
<!-- Node15 -->
<g id="node15" class="node"><title>Node15</title>
<polygon fill="none" stroke="#bfbfbf" points="552,-56.5 552,-75.5 590,-75.5 590,-56.5 552,-56.5"/>
<text text-anchor="middle" x="571" y="-63.5" font-family="Helvetica,sans-Serif" font-size="10.00">array</text>
</g>
<!-- Node1&#45;&gt;Node15 -->
<g id="edge15" class="edge"><title>Node1&#45;&gt;Node15</title>
<path fill="none" stroke="midnightblue" d="M440.523,-114.752C474.818,-102.201 515.477,-87.3201 542.185,-77.5458"/>
<polygon fill="midnightblue" stroke="midnightblue" points="543.507,-80.789 551.695,-74.0653 541.101,-74.2154 543.507,-80.789"/>
</g>
<!-- Node2&#45;&gt;Node3 -->
<g id="edge2" class="edge"><title>Node2&#45;&gt;Node3</title>
<path fill="none" stroke="midnightblue" d="M78.3395,-56.083C77.8152,-49.0059 77.0638,-38.8611 76.4064,-29.9865"/>
<polygon fill="midnightblue" stroke="midnightblue" points="79.8775,-29.4652 75.6482,-19.7511 72.8966,-29.9823 79.8775,-29.4652"/>
</g>
<!-- Node5 -->
<g id="node5" class="node"><title>Node5</title>
<polygon fill="none" stroke="#bfbfbf" points="114,-0.5 114,-19.5 176,-19.5 176,-0.5 114,-0.5"/>
<text text-anchor="middle" x="145" y="-7.5" font-family="Helvetica,sans-Serif" font-size="10.00">type_traits</text>
</g>
<!-- Node4&#45;&gt;Node5 -->
<g id="edge4" class="edge"><title>Node4&#45;&gt;Node5</title>
<path fill="none" stroke="midnightblue" d="M259.45,-56.4435C236.969,-47.5171 201.512,-33.4387 176.02,-23.3168"/>
<polygon fill="midnightblue" stroke="midnightblue" points="177.035,-19.9539 166.449,-19.5164 174.451,-26.4598 177.035,-19.9539"/>
</g>
<!-- Node6 -->
<g id="node6" class="node"><title>Node6</title>
<polygon fill="none" stroke="#bfbfbf" points="194,-0.5 194,-19.5 240,-19.5 240,-0.5 194,-0.5"/>
<text text-anchor="middle" x="217" y="-7.5" font-family="Helvetica,sans-Serif" font-size="10.00">cstring</text>
</g>
<!-- Node4&#45;&gt;Node6 -->
<g id="edge5" class="edge"><title>Node4&#45;&gt;Node6</title>
<path fill="none" stroke="midnightblue" d="M270.717,-56.324C261.164,-48.2631 246.72,-36.0765 235.216,-26.3695"/>
<polygon fill="midnightblue" stroke="midnightblue" points="237.37,-23.6076 227.47,-19.8339 232.856,-28.9577 237.37,-23.6076"/>
</g>
<!-- Node7 -->
<g id="node7" class="node"><title>Node7</title>
<polygon fill="none" stroke="#bfbfbf" points="258,-0.5 258,-19.5 304,-19.5 304,-0.5 258,-0.5"/>
<text text-anchor="middle" x="281" y="-7.5" font-family="Helvetica,sans-Serif" font-size="10.00">cstdint</text>
</g>
<!-- Node4&#45;&gt;Node7 -->
<g id="edge6" class="edge"><title>Node4&#45;&gt;Node7</title>
<path fill="none" stroke="midnightblue" d="M281,-56.083C281,-49.0059 281,-38.8611 281,-29.9865"/>
<polygon fill="midnightblue" stroke="midnightblue" points="284.5,-29.751 281,-19.7511 277.5,-29.7511 284.5,-29.751"/>
</g>
<!-- Node8 -->
<g id="node8" class="node"><title>Node8</title>
<polygon fill="none" stroke="#bfbfbf" points="322.5,-0.5 322.5,-19.5 367.5,-19.5 367.5,-0.5 322.5,-0.5"/>
<text text-anchor="middle" x="345" y="-7.5" font-family="Helvetica,sans-Serif" font-size="10.00">cstdlib</text>
</g>
<!-- Node4&#45;&gt;Node8 -->
<g id="edge7" class="edge"><title>Node4&#45;&gt;Node8</title>
<path fill="none" stroke="midnightblue" d="M291.283,-56.324C300.836,-48.2631 315.28,-36.0765 326.784,-26.3695"/>
<polygon fill="midnightblue" stroke="midnightblue" points="329.144,-28.9577 334.53,-19.8339 324.63,-23.6076 329.144,-28.9577"/>
</g>
<!-- Node9 -->
<g id="node9" class="node"><title>Node9</title>
<polygon fill="none" stroke="#bfbfbf" points="385.5,-0.5 385.5,-19.5 444.5,-19.5 444.5,-0.5 385.5,-0.5"/>
<text text-anchor="middle" x="415" y="-7.5" font-family="Helvetica,sans-Serif" font-size="10.00">stdexcept</text>
</g>
<!-- Node4&#45;&gt;Node9 -->
<g id="edge8" class="edge"><title>Node4&#45;&gt;Node9</title>
<path fill="none" stroke="midnightblue" d="M302.233,-56.4435C324.384,-47.5171 359.319,-33.4387 384.436,-23.3168"/>
<polygon fill="midnightblue" stroke="midnightblue" points="385.9,-26.5006 393.867,-19.5164 383.283,-20.0079 385.9,-26.5006"/>
</g>
<!-- Node10 -->
<g id="node10" class="node"><title>Node10</title>
<polygon fill="none" stroke="#bfbfbf" points="462.5,-0.5 462.5,-19.5 507.5,-19.5 507.5,-0.5 462.5,-0.5"/>
<text text-anchor="middle" x="485" y="-7.5" font-family="Helvetica,sans-Serif" font-size="10.00">iosfwd</text>
</g>
<!-- Node4&#45;&gt;Node10 -->
<g id="edge9" class="edge"><title>Node4&#45;&gt;Node10</title>
<path fill="none" stroke="midnightblue" d="M314.343,-56.4691C347.065,-48.0545 398.631,-34.6811 452.554,-20.0845"/>
<polygon fill="midnightblue" stroke="midnightblue" points="453.554,-23.4397 462.289,-17.4428 451.721,-16.684 453.554,-23.4397"/>
</g>
<!-- Node11 -->
<g id="node11" class="node"><title>Node11</title>
<polygon fill="none" stroke="#bfbfbf" points="525.5,-0.5 525.5,-19.5 598.5,-19.5 598.5,-0.5 525.5,-0.5"/>
<text text-anchor="middle" x="562" y="-7.5" font-family="Helvetica,sans-Serif" font-size="10.00">initializer_list</text>
</g>
<!-- Node4&#45;&gt;Node11 -->
<g id="edge10" class="edge"><title>Node4&#45;&gt;Node11</title>
<path fill="none" stroke="midnightblue" d="M326.061,-56.4268C371.25,-47.8171 443.113,-34.0913 515.177,-20.1532"/>
<polygon fill="midnightblue" stroke="midnightblue" points="516.191,-23.5219 525.344,-18.1855 514.861,-16.6494 516.191,-23.5219"/>
</g>
</g>
</svg>
