<?xml version="1.0" encoding="UTF-8" standalone="no"?>
<!DOCTYPE svg PUBLIC "-//W3C//DTD SVG 1.1//EN"
 "http://www.w3.org/Graphics/SVG/1.1/DTD/svg11.dtd">
<!-- Generated by graphviz version 2.36.0 (20140111.2315)
 -->
<!-- Title: o2::framework::DataRef Pages: 1 -->
<svg width="547pt" height="312pt"
 viewBox="0.00 0.00 547.00 312.00" xmlns="http://www.w3.org/2000/svg" xmlns:xlink="http://www.w3.org/1999/xlink">
<g id="graph0" class="graph" transform="scale(1 1) rotate(0) translate(4 308)">
<title>o2::framework::DataRef</title>
<!-- Node1 -->
<g id="node1" class="node"><title>Node1</title>
<polygon fill="#bfbfbf" stroke="black" points="294,-0.5 294,-57.5 416,-57.5 416,-0.5 294,-0.5"/>
<text text-anchor="middle" x="355" y="-45.5" font-family="Helvetica,sans-Serif" font-size="10.00">o2::framework::DataRef</text>
<polyline fill="none" stroke="black" points="294,-38.5 416,-38.5 "/>
<text text-anchor="middle" x="355" y="-26.5" font-family="Helvetica,sans-Serif" font-size="10.00"> </text>
<polyline fill="none" stroke="black" points="294,-19.5 416,-19.5 "/>
<text text-anchor="middle" x="355" y="-7.5" font-family="Helvetica,sans-Serif" font-size="10.00"> </text>
</g>
<!-- Node2 -->
<g id="node2" class="node"><title>Node2</title>
<g id="a_node2"><a xlink:href="../../da/d96/structo2_1_1framework_1_1InputSpec.html" target="_top" xlink:title="{o2::framework::InputSpec\n||+ InputSpec()\l+ operator==()\l}">
<polygon fill="none" stroke="black" points="203.5,-117 203.5,-185 332.5,-185 332.5,-117 203.5,-117"/>
<text text-anchor="middle" x="268" y="-173" font-family="Helvetica,sans-Serif" font-size="10.00">o2::framework::InputSpec</text>
<polyline fill="none" stroke="black" points="203.5,-166 332.5,-166 "/>
<text text-anchor="middle" x="268" y="-154" font-family="Helvetica,sans-Serif" font-size="10.00"> </text>
<polyline fill="none" stroke="black" points="203.5,-147 332.5,-147 "/>
<text text-anchor="start" x="211.5" y="-135" font-family="Helvetica,sans-Serif" font-size="10.00">+ InputSpec()</text>
<text text-anchor="start" x="211.5" y="-124" font-family="Helvetica,sans-Serif" font-size="10.00">+ operator==()</text>
</a>
</g>
</g>
<!-- Node2&#45;&gt;Node1 -->
<g id="edge1" class="edge"><title>Node2&#45;&gt;Node1</title>
<path fill="none" stroke="#404040" d="M292.003,-116.892C303.061,-101.64 316.237,-83.4663 327.674,-67.6911"/>
<polygon fill="none" stroke="#404040" points="327.855,-67.4412 328.138,-60.2357 334.899,-57.7259 334.615,-64.9314 327.855,-67.4412"/>
<text text-anchor="middle" x="335.5" y="-84.5" font-family="Helvetica,sans-Serif" font-size="10.00"> +spec</text>
</g>
<!-- Node3 -->
<g id="node3" class="node"><title>Node3</title>
<polygon fill="none" stroke="#bfbfbf" points="-0.5,-240.5 -0.5,-297.5 50.5,-297.5 50.5,-240.5 -0.5,-240.5"/>
<text text-anchor="middle" x="25" y="-285.5" font-family="Helvetica,sans-Serif" font-size="10.00">uint64_t</text>
<polyline fill="none" stroke="#bfbfbf" points="-0.5,-278.5 50.5,-278.5 "/>
<text text-anchor="middle" x="25" y="-266.5" font-family="Helvetica,sans-Serif" font-size="10.00"> </text>
<polyline fill="none" stroke="#bfbfbf" points="-0.5,-259.5 50.5,-259.5 "/>
<text text-anchor="middle" x="25" y="-247.5" font-family="Helvetica,sans-Serif" font-size="10.00"> </text>
</g>
<!-- Node3&#45;&gt;Node2 -->
<g id="edge2" class="edge"><title>Node3&#45;&gt;Node2</title>
<path fill="none" stroke="#404040" d="M50.8106,-240.827C53.7793,-238.353 56.8684,-236.022 60,-234 100.603,-207.791 150.909,-187.679 191.878,-173.934"/>
<polygon fill="none" stroke="#404040" points="192.042,-173.88 196.495,-168.209 203.443,-170.138 198.99,-175.81 192.042,-173.88"/>
<text text-anchor="middle" x="138" y="-207.5" font-family="Helvetica,sans-Serif" font-size="10.00"> +subSpec</text>
</g>
<!-- Node4 -->
<g id="node4" class="node"><title>Node4</title>
<polygon fill="none" stroke="#bfbfbf" points="69,-235 69,-303 211,-303 211,-235 69,-235"/>
<text text-anchor="start" x="77" y="-291" font-family="Helvetica,sans-Serif" font-size="10.00">Descriptor&lt; gSizeDataOrigin</text>
<text text-anchor="middle" x="140" y="-280" font-family="Helvetica,sans-Serif" font-size="10.00">String, printDataOrigin &gt;</text>
<polyline fill="none" stroke="#bfbfbf" points="69,-273 211,-273 "/>
<text text-anchor="middle" x="140" y="-261" font-family="Helvetica,sans-Serif" font-size="10.00"> </text>
<polyline fill="none" stroke="#bfbfbf" points="69,-254 211,-254 "/>
<text text-anchor="middle" x="140" y="-242" font-family="Helvetica,sans-Serif" font-size="10.00"> </text>
</g>
<!-- Node4&#45;&gt;Node2 -->
<g id="edge3" class="edge"><title>Node4&#45;&gt;Node2</title>
<path fill="none" stroke="#404040" d="M176.68,-234.759C190.873,-221.897 207.273,-207.034 222.225,-193.484"/>
<polygon fill="none" stroke="#404040" points="222.423,-193.304 224.183,-186.311 231.315,-185.246 229.555,-192.239 222.423,-193.304"/>
<text text-anchor="middle" x="224.5" y="-207.5" font-family="Helvetica,sans-Serif" font-size="10.00"> +origin</text>
</g>
<!-- Node5 -->
<g id="node5" class="node"><title>Node5</title>
<polygon fill="none" stroke="#bfbfbf" points="229,-240.5 229,-297.5 307,-297.5 307,-240.5 229,-240.5"/>
<text text-anchor="middle" x="268" y="-285.5" font-family="Helvetica,sans-Serif" font-size="10.00">enum Lifetime</text>
<polyline fill="none" stroke="#bfbfbf" points="229,-278.5 307,-278.5 "/>
<text text-anchor="middle" x="268" y="-266.5" font-family="Helvetica,sans-Serif" font-size="10.00"> </text>
<polyline fill="none" stroke="#bfbfbf" points="229,-259.5 307,-259.5 "/>
<text text-anchor="middle" x="268" y="-247.5" font-family="Helvetica,sans-Serif" font-size="10.00"> </text>
</g>
<!-- Node5&#45;&gt;Node2 -->
<g id="edge4" class="edge"><title>Node5&#45;&gt;Node2</title>
<path fill="none" stroke="#404040" d="M268,-240.215C268,-227.462 268,-212.006 268,-197.616"/>
<polygon fill="none" stroke="#404040" points="268,-197.339 264,-191.339 268,-185.339 272,-191.339 268,-197.339"/>
<text text-anchor="middle" x="288.5" y="-207.5" font-family="Helvetica,sans-Serif" font-size="10.00"> +lifetime</text>
</g>
<!-- Node6 -->
<g id="node6" class="node"><title>Node6</title>
<polygon fill="none" stroke="#bfbfbf" points="325,-235 325,-303 491,-303 491,-235 325,-235"/>
<text text-anchor="start" x="333" y="-291" font-family="Helvetica,sans-Serif" font-size="10.00">Descriptor&lt; gSizeDataDescription</text>
<text text-anchor="middle" x="408" y="-280" font-family="Helvetica,sans-Serif" font-size="10.00">String, printDataDescription &gt;</text>
<polyline fill="none" stroke="#bfbfbf" points="325,-273 491,-273 "/>
<text text-anchor="middle" x="408" y="-261" font-family="Helvetica,sans-Serif" font-size="10.00"> </text>
<polyline fill="none" stroke="#bfbfbf" points="325,-254 491,-254 "/>
<text text-anchor="middle" x="408" y="-242" font-family="Helvetica,sans-Serif" font-size="10.00"> </text>
</g>
<!-- Node6&#45;&gt;Node2 -->
<g id="edge5" class="edge"><title>Node6&#45;&gt;Node2</title>
<path fill="none" stroke="#404040" d="M367.882,-234.759C352.211,-221.775 334.082,-206.753 317.604,-193.1"/>
<polygon fill="none" stroke="#404040" points="317.365,-192.902 310.192,-192.154 308.124,-185.246 315.296,-185.994 317.365,-192.902"/>
<text text-anchor="middle" x="371.5" y="-207.5" font-family="Helvetica,sans-Serif" font-size="10.00"> +description</text>
</g>
<!-- Node7 -->
<g id="node7" class="node"><title>Node7</title>
<polygon fill="none" stroke="#bfbfbf" points="509.5,-240.5 509.5,-297.5 538.5,-297.5 538.5,-240.5 509.5,-240.5"/>
<text text-anchor="middle" x="524" y="-285.5" font-family="Helvetica,sans-Serif" font-size="10.00">int</text>
<polyline fill="none" stroke="#bfbfbf" points="509.5,-278.5 538.5,-278.5 "/>
<text text-anchor="middle" x="524" y="-266.5" font-family="Helvetica,sans-Serif" font-size="10.00"> </text>
<polyline fill="none" stroke="#bfbfbf" points="509.5,-259.5 538.5,-259.5 "/>
<text text-anchor="middle" x="524" y="-247.5" font-family="Helvetica,sans-Serif" font-size="10.00"> </text>
</g>
<!-- Node7&#45;&gt;Node2 -->
<g id="edge6" class="edge"><title>Node7&#45;&gt;Node2</title>
<path fill="none" stroke="#404040" d="M509.499,-243.216C506.684,-239.776 503.504,-236.552 500,-234 443.363,-192.748 413.301,-209.81 344.105,-186.808"/>
<polygon fill="none" stroke="#404040" points="343.966,-186.759 336.976,-188.529 332.653,-182.757 339.643,-180.987 343.966,-186.759"/>
<text text-anchor="middle" x="488" y="-207.5" font-family="Helvetica,sans-Serif" font-size="10.00"> +binding</text>
</g>
<!-- Node8 -->
<g id="node8" class="node"><title>Node8</title>
<polygon fill="none" stroke="#bfbfbf" points="350.5,-122.5 350.5,-179.5 419.5,-179.5 419.5,-122.5 350.5,-122.5"/>
<text text-anchor="middle" x="385" y="-167.5" font-family="Helvetica,sans-Serif" font-size="10.00">const char *</text>
<polyline fill="none" stroke="#bfbfbf" points="350.5,-160.5 419.5,-160.5 "/>
<text text-anchor="middle" x="385" y="-148.5" font-family="Helvetica,sans-Serif" font-size="10.00"> </text>
<polyline fill="none" stroke="#bfbfbf" points="350.5,-141.5 419.5,-141.5 "/>
<text text-anchor="middle" x="385" y="-129.5" font-family="Helvetica,sans-Serif" font-size="10.00"> </text>
</g>
<!-- Node8&#45;&gt;Node1 -->
<g id="edge7" class="edge"><title>Node8&#45;&gt;Node1</title>
<path fill="none" stroke="#404040" d="M378.117,-122.47C374.201,-106.803 369.228,-86.9107 364.898,-69.5929"/>
<polygon fill="none" stroke="#404040" points="364.865,-69.4596 359.529,-64.6089 361.954,-57.8179 367.29,-62.6686 364.865,-69.4596"/>
<text text-anchor="middle" x="392" y="-90" font-family="Helvetica,sans-Serif" font-size="10.00"> +header</text>
<text text-anchor="middle" x="392" y="-79" font-family="Helvetica,sans-Serif" font-size="10.00">+payload</text>
</g>
</g>
</svg>
