<?xml version="1.0" encoding="UTF-8" standalone="no"?>
<!DOCTYPE svg PUBLIC "-//W3C//DTD SVG 1.1//EN"
 "http://www.w3.org/Graphics/SVG/1.1/DTD/svg11.dtd">
<!-- Generated by graphviz version 2.36.0 (20140111.2315)
 -->
<!-- Title: /home/travis/build/AliceO2Group/AliceO2/Detectors/ITSMFT/test/HitAnalysis/include/HitAnalysis/HitAnalysis.h Pages: 1 -->
<!--zoomable 388 -->
<svg id="main" version="1.1" xmlns="http://www.w3.org/2000/svg" xmlns:xlink="http://www.w3.org/1999/xlink" xml:space="preserve" onload="init(evt)">
<style type="text/css"><![CDATA[
.edge:hover path { stroke: red; }
.edge:hover polygon { stroke: red; fill: red; }
]]></style>
<script type="text/javascript"><![CDATA[
var edges = document.getElementsByTagName('g');
if (edges && edges.length) {
  for (var i=0;i<edges.length;i++) {
    if (edges[i].id.substr(0,4)=='edge') {
      edges[i].setAttribute('class','edge');
    }
  }
}
]]></script>
        <defs>
                <circle id="rim" cx="0" cy="0" r="7"/>
                <circle id="rim2" cx="0" cy="0" r="3.5"/>
                <g id="zoomPlus">
                        <use xlink:href="#rim" fill="#404040">
                                <set attributeName="fill" to="#808080" begin="zoomplus.mouseover" end="zoomplus.mouseout"/>
                        </use>
                        <path d="M-4,0h8M0,-4v8" fill="none" stroke="white" stroke-width="1.5" pointer-events="none"/>
                </g>
                <g id="zoomMin">
                        <use xlink:href="#rim" fill="#404040">
                                <set attributeName="fill" to="#808080" begin="zoomminus.mouseover" end="zoomminus.mouseout"/>
                        </use>
                        <path d="M-4,0h8" fill="none" stroke="white" stroke-width="1.5" pointer-events="none"/>
                </g>
                <g id="dirArrow">
                        <path fill="none" stroke="white" stroke-width="1.5" d="M0,-3.0v7 M-2.5,-0.5L0,-3.0L2.5,-0.5"/>
                </g>
               <g id="resetDef">
                       <use xlink:href="#rim2" fill="#404040">
                               <set attributeName="fill" to="#808080" begin="reset.mouseover" end="reset.mouseout"/>
                       </use>
               </g>
        </defs>

<script type="text/javascript">
var viewWidth = 1301;
var viewHeight = 388;
var sectionId = 'dynsection-0';
</script>
<script xlink:href="../../svgpan.js"/>
<svg id="graph" class="graph">
<g id="viewport">
<title>/home/travis/build/AliceO2Group/AliceO2/Detectors/ITSMFT/test/HitAnalysis/include/HitAnalysis/HitAnalysis.h</title>
<!-- Node1 -->
<g id="node1" class="node"><title>Node1</title>
<polygon fill="#bfbfbf" stroke="black" points="389.5,-316.5 389.5,-379.5 546.5,-379.5 546.5,-316.5 389.5,-316.5"/>
<text text-anchor="start" x="397.5" y="-367.5" font-family="Helvetica,sans-Serif" font-size="10.00">/home/travis/build</text>
<text text-anchor="start" x="397.5" y="-356.5" font-family="Helvetica,sans-Serif" font-size="10.00">/AliceO2Group/AliceO2</text>
<text text-anchor="start" x="397.5" y="-345.5" font-family="Helvetica,sans-Serif" font-size="10.00">/Detectors/ITSMFT/test</text>
<text text-anchor="start" x="397.5" y="-334.5" font-family="Helvetica,sans-Serif" font-size="10.00">/HitAnalysis/include/HitAnalysis</text>
<text text-anchor="middle" x="468" y="-323.5" font-family="Helvetica,sans-Serif" font-size="10.00">/HitAnalysis.h</text>
</g>
<!-- Node2 -->
<g id="node2" class="node"><title>Node2</title>
<polygon fill="none" stroke="#bfbfbf" points="323.5,-260.5 323.5,-279.5 358.5,-279.5 358.5,-260.5 323.5,-260.5"/>
<text text-anchor="middle" x="341" y="-267.5" font-family="Helvetica,sans-Serif" font-size="10.00">map</text>
</g>
<!-- Node1&#45;&gt;Node2 -->
<g id="edge1" class="edge"><title>Node1&#45;&gt;Node2</title>
<path fill="none" stroke="midnightblue" d="M416.71,-316.307C398.526,-305.425 378.954,-293.713 364.266,-284.923"/>
<polygon fill="midnightblue" stroke="midnightblue" points="365.76,-281.738 355.382,-279.607 362.166,-287.745 365.76,-281.738"/>
</g>
<!-- Node3 -->
<g id="node3" class="node"><title>Node3</title>
<polygon fill="none" stroke="#bfbfbf" points="376.5,-260.5 376.5,-279.5 439.5,-279.5 439.5,-260.5 376.5,-260.5"/>
<text text-anchor="middle" x="408" y="-267.5" font-family="Helvetica,sans-Serif" font-size="10.00">FairTask.h</text>
</g>
<!-- Node1&#45;&gt;Node3 -->
<g id="edge2" class="edge"><title>Node1&#45;&gt;Node3</title>
<path fill="none" stroke="midnightblue" d="M443.596,-316.088C435.89,-306.328 427.674,-295.921 421.079,-287.567"/>
<polygon fill="midnightblue" stroke="midnightblue" points="423.826,-285.398 414.883,-279.718 418.332,-289.736 423.826,-285.398"/>
</g>
<!-- Node4 -->
<g id="node4" class="node"><title>Node4</title>
<polygon fill="none" stroke="#bfbfbf" points="0,-74.5 0,-93.5 56,-93.5 56,-74.5 0,-74.5"/>
<text text-anchor="middle" x="28" y="-81.5" font-family="Helvetica,sans-Serif" font-size="10.00">Rtypes.h</text>
</g>
<!-- Node1&#45;&gt;Node4 -->
<g id="edge3" class="edge"><title>Node1&#45;&gt;Node4</title>
<path fill="none" stroke="midnightblue" d="M467.717,-316.126C466.025,-297.933 461.095,-275.515 448,-260 444.598,-255.969 154.239,-136.736 58.3494,-97.4314"/>
<polygon fill="midnightblue" stroke="midnightblue" points="59.5013,-94.121 48.921,-93.5675 56.8469,-100.598 59.5013,-94.121"/>
</g>
<!-- Node5 -->
<g id="node5" class="node"><title>Node5</title>
<g id="a_node5"><a xlink:href="../../d0/dae/ITSMFT_2common_2simulation_2include_2ITSMFTSimulation_2Hit_8h.html" target="_top" xlink:title="ITSMFTSimulation/Hit.h">
<polygon fill="none" stroke="black" points="515,-260.5 515,-279.5 637,-279.5 637,-260.5 515,-260.5"/>
<text text-anchor="middle" x="576" y="-267.5" font-family="Helvetica,sans-Serif" font-size="10.00">ITSMFTSimulation/Hit.h</text>
</a>
</g>
</g>
<!-- Node1&#45;&gt;Node5 -->
<g id="edge4" class="edge"><title>Node1&#45;&gt;Node5</title>
<path fill="none" stroke="midnightblue" d="M511.616,-316.307C526.691,-305.699 542.888,-294.301 555.265,-285.591"/>
<polygon fill="midnightblue" stroke="midnightblue" points="557.368,-288.391 563.532,-279.774 553.34,-282.666 557.368,-288.391"/>
</g>
<!-- Node19 -->
<g id="node19" class="node"><title>Node19</title>
<polygon fill="none" stroke="#bfbfbf" points="655,-260.5 655,-279.5 699,-279.5 699,-260.5 655,-260.5"/>
<text text-anchor="middle" x="677" y="-267.5" font-family="Helvetica,sans-Serif" font-size="10.00">vector</text>
</g>
<!-- Node1&#45;&gt;Node19 -->
<g id="edge21" class="edge"><title>Node1&#45;&gt;Node19</title>
<path fill="none" stroke="midnightblue" d="M546.716,-318.376C580.835,-305.969 618.866,-292.14 644.987,-282.641"/>
<polygon fill="midnightblue" stroke="midnightblue" points="646.52,-285.808 654.722,-279.101 644.128,-279.229 646.52,-285.808"/>
</g>
<!-- Node5&#45;&gt;Node4 -->
<g id="edge18" class="edge"><title>Node5&#45;&gt;Node4</title>
<path fill="none" stroke="midnightblue" d="M564.684,-260.261C554.245,-251.796 538.779,-238.19 528,-224 501.304,-188.858 518.729,-160.466 482,-136 404.59,-84.4358 155.441,-121.715 65,-100 61.9313,-99.2632 58.7837,-98.314 55.6824,-97.2513"/>
<polygon fill="midnightblue" stroke="midnightblue" points="56.6773,-93.8848 46.0866,-93.5906 54.1823,-100.425 56.6773,-93.8848"/>
</g>
<!-- Node6 -->
<g id="node6" class="node"><title>Node6</title>
<g id="a_node6"><a xlink:href="../../d4/d25/BaseHits_8h.html" target="_top" xlink:title="SimulationDataFormat\l/BaseHits.h">
<polygon fill="none" stroke="black" points="537,-193 537,-223 651,-223 651,-193 537,-193"/>
<text text-anchor="start" x="545" y="-211" font-family="Helvetica,sans-Serif" font-size="10.00">SimulationDataFormat</text>
<text text-anchor="middle" x="594" y="-200" font-family="Helvetica,sans-Serif" font-size="10.00">/BaseHits.h</text>
</a>
</g>
</g>
<!-- Node5&#45;&gt;Node6 -->
<g id="edge5" class="edge"><title>Node5&#45;&gt;Node6</title>
<path fill="none" stroke="midnightblue" d="M578.579,-260.403C580.743,-253.189 583.942,-242.528 586.865,-232.782"/>
<polygon fill="midnightblue" stroke="midnightblue" points="590.237,-233.725 589.758,-223.141 583.532,-231.713 590.237,-233.725"/>
</g>
<!-- Node14 -->
<g id="node14" class="node"><title>Node14</title>
<polygon fill="none" stroke="#bfbfbf" points="1194.5,-74.5 1194.5,-93.5 1239.5,-93.5 1239.5,-74.5 1194.5,-74.5"/>
<text text-anchor="middle" x="1217" y="-81.5" font-family="Helvetica,sans-Serif" font-size="10.00">iosfwd</text>
</g>
<!-- Node5&#45;&gt;Node14 -->
<g id="edge20" class="edge"><title>Node5&#45;&gt;Node14</title>
<path fill="none" stroke="midnightblue" d="M593.322,-260.338C610.497,-251.606 637.437,-237.522 660,-224 681.992,-210.82 684.279,-201.73 708,-192 907.755,-110.061 979.678,-166.776 1185,-100 1187.13,-99.3062 1189.31,-98.5046 1191.47,-97.6401"/>
<polygon fill="midnightblue" stroke="midnightblue" points="1192.96,-100.811 1200.71,-93.5874 1190.14,-94.4014 1192.96,-100.811"/>
</g>
<!-- Node18 -->
<g id="node18" class="node"><title>Node18</title>
<polygon fill="none" stroke="#bfbfbf" points="716.5,-198.5 716.5,-217.5 781.5,-217.5 781.5,-198.5 716.5,-198.5"/>
<text text-anchor="middle" x="749" y="-205.5" font-family="Helvetica,sans-Serif" font-size="10.00">TVector3.h</text>
</g>
<!-- Node5&#45;&gt;Node18 -->
<g id="edge19" class="edge"><title>Node5&#45;&gt;Node18</title>
<path fill="none" stroke="midnightblue" d="M600.787,-260.403C630.591,-250.067 680.791,-232.656 714.402,-220.999"/>
<polygon fill="midnightblue" stroke="midnightblue" points="715.958,-224.164 724.259,-217.581 713.665,-217.551 715.958,-224.164"/>
</g>
<!-- Node7 -->
<g id="node7" class="node"><title>Node7</title>
<g id="a_node7"><a xlink:href="../../dd/d76/Cartesian3D_8h.html" target="_top" xlink:title="MathUtils/Cartesian3D.h">
<polygon fill="none" stroke="black" points="534.5,-136.5 534.5,-155.5 659.5,-155.5 659.5,-136.5 534.5,-136.5"/>
<text text-anchor="middle" x="597" y="-143.5" font-family="Helvetica,sans-Serif" font-size="10.00">MathUtils/Cartesian3D.h</text>
</a>
</g>
</g>
<!-- Node6&#45;&gt;Node7 -->
<g id="edge6" class="edge"><title>Node6&#45;&gt;Node7</title>
<path fill="none" stroke="midnightblue" d="M594.711,-192.781C595.115,-184.691 595.627,-174.462 596.064,-165.725"/>
<polygon fill="midnightblue" stroke="midnightblue" points="599.56,-165.893 596.563,-155.731 592.568,-165.543 599.56,-165.893"/>
</g>
<!-- Node7&#45;&gt;Node4 -->
<g id="edge12" class="edge"><title>Node7&#45;&gt;Node4</title>
<path fill="none" stroke="midnightblue" d="M534.406,-137.486C529.534,-136.961 524.688,-136.459 520,-136 318.112,-116.222 262.417,-146.652 65,-100 61.9286,-99.2742 58.7794,-98.3321 55.6771,-97.2735"/>
<polygon fill="midnightblue" stroke="midnightblue" points="56.671,-93.9069 46.0801,-93.6178 54.1792,-100.448 56.671,-93.9069"/>
</g>
<!-- Node8 -->
<g id="node8" class="node"><title>Node8</title>
<polygon fill="none" stroke="#bfbfbf" points="74.5,-69 74.5,-99 225.5,-99 225.5,-69 74.5,-69"/>
<text text-anchor="start" x="82.5" y="-87" font-family="Helvetica,sans-Serif" font-size="10.00">Math/GenVector/Displacement</text>
<text text-anchor="middle" x="150" y="-76" font-family="Helvetica,sans-Serif" font-size="10.00">Vector3D.h</text>
</g>
<!-- Node7&#45;&gt;Node8 -->
<g id="edge7" class="edge"><title>Node7&#45;&gt;Node8</title>
<path fill="none" stroke="midnightblue" d="M534.4,-137.609C450.856,-127.682 306.219,-110.256 235.758,-100.045"/>
<polygon fill="midnightblue" stroke="midnightblue" points="235.915,-96.5304 225.511,-98.5314 234.892,-103.455 235.915,-96.5304"/>
</g>
<!-- Node9 -->
<g id="node9" class="node"><title>Node9</title>
<polygon fill="none" stroke="#bfbfbf" points="244,-74.5 244,-93.5 420,-93.5 420,-74.5 244,-74.5"/>
<text text-anchor="middle" x="332" y="-81.5" font-family="Helvetica,sans-Serif" font-size="10.00">Math/GenVector/PositionVector3D.h</text>
</g>
<!-- Node7&#45;&gt;Node9 -->
<g id="edge8" class="edge"><title>Node7&#45;&gt;Node9</title>
<path fill="none" stroke="midnightblue" d="M559.313,-136.467C512.024,-125.76 430.899,-107.392 379.435,-95.74"/>
<polygon fill="midnightblue" stroke="midnightblue" points="380.083,-92.2981 369.557,-93.5034 378.537,-99.1253 380.083,-92.2981"/>
</g>
<!-- Node10 -->
<g id="node10" class="node"><title>Node10</title>
<polygon fill="none" stroke="#bfbfbf" points="437.5,-74.5 437.5,-93.5 586.5,-93.5 586.5,-74.5 437.5,-74.5"/>
<text text-anchor="middle" x="512" y="-81.5" font-family="Helvetica,sans-Serif" font-size="10.00">Math/GenVector/Rotation3D.h</text>
</g>
<!-- Node7&#45;&gt;Node10 -->
<g id="edge9" class="edge"><title>Node7&#45;&gt;Node10</title>
<path fill="none" stroke="midnightblue" d="M584.822,-136.403C571.188,-126.78 548.868,-111.024 532.526,-99.4891"/>
<polygon fill="midnightblue" stroke="midnightblue" points="534.344,-96.4881 524.156,-93.5806 530.307,-102.207 534.344,-96.4881"/>
</g>
<!-- Node11 -->
<g id="node11" class="node"><title>Node11</title>
<polygon fill="none" stroke="#bfbfbf" points="605,-74.5 605,-93.5 761,-93.5 761,-74.5 605,-74.5"/>
<text text-anchor="middle" x="683" y="-81.5" font-family="Helvetica,sans-Serif" font-size="10.00">Math/GenVector/Transform3D.h</text>
</g>
<!-- Node7&#45;&gt;Node11 -->
<g id="edge10" class="edge"><title>Node7&#45;&gt;Node11</title>
<path fill="none" stroke="midnightblue" d="M609.322,-136.403C623.116,-126.78 645.699,-111.024 662.232,-99.4891"/>
<polygon fill="midnightblue" stroke="midnightblue" points="664.503,-102.173 670.701,-93.5806 660.497,-96.432 664.503,-102.173"/>
</g>
<!-- Node12 -->
<g id="node12" class="node"><title>Node12</title>
<polygon fill="none" stroke="#bfbfbf" points="779,-74.5 779,-93.5 939,-93.5 939,-74.5 779,-74.5"/>
<text text-anchor="middle" x="859" y="-81.5" font-family="Helvetica,sans-Serif" font-size="10.00">Math/GenVector/Translation3D.h</text>
</g>
<!-- Node7&#45;&gt;Node12 -->
<g id="edge11" class="edge"><title>Node7&#45;&gt;Node12</title>
<path fill="none" stroke="midnightblue" d="M634.26,-136.467C681.014,-125.76 761.221,-107.392 812.102,-95.74"/>
<polygon fill="midnightblue" stroke="midnightblue" points="812.902,-99.1474 821.869,-93.5034 811.34,-92.3241 812.902,-99.1474"/>
</g>
<!-- Node13 -->
<g id="node13" class="node"><title>Node13</title>
<polygon fill="none" stroke="#bfbfbf" points="957,-74.5 957,-93.5 1033,-93.5 1033,-74.5 957,-74.5"/>
<text text-anchor="middle" x="995" y="-81.5" font-family="Helvetica,sans-Serif" font-size="10.00">TGeoMatrix.h</text>
</g>
<!-- Node7&#45;&gt;Node13 -->
<g id="edge13" class="edge"><title>Node7&#45;&gt;Node13</title>
<path fill="none" stroke="midnightblue" d="M659.652,-137.594C752.989,-126.465 920.559,-106.085 948,-100 952.233,-99.0613 956.63,-97.9072 960.961,-96.6597"/>
<polygon fill="midnightblue" stroke="midnightblue" points="962.298,-99.9106 970.836,-93.6366 960.249,-93.2172 962.298,-99.9106"/>
</g>
<!-- Node7&#45;&gt;Node14 -->
<g id="edge14" class="edge"><title>Node7&#45;&gt;Node14</title>
<path fill="none" stroke="midnightblue" d="M659.59,-137.44C664.463,-136.926 669.31,-136.439 674,-136 900.683,-114.779 964.65,-157.283 1185,-100 1187.49,-99.3516 1190.03,-98.5123 1192.53,-97.562"/>
<polygon fill="midnightblue" stroke="midnightblue" points="1194.04,-100.723 1201.81,-93.5172 1191.24,-94.3062 1194.04,-100.723"/>
</g>
<!-- Node15 -->
<g id="node15" class="node"><title>Node15</title>
<g id="a_node15"><a xlink:href="../../d2/dd0/Cartesian2D_8h.html" target="_top" xlink:title="MathUtils/Cartesian2D.h">
<polygon fill="none" stroke="black" points="1051.5,-74.5 1051.5,-93.5 1176.5,-93.5 1176.5,-74.5 1051.5,-74.5"/>
<text text-anchor="middle" x="1114" y="-81.5" font-family="Helvetica,sans-Serif" font-size="10.00">MathUtils/Cartesian2D.h</text>
</a>
</g>
</g>
<!-- Node7&#45;&gt;Node15 -->
<g id="edge15" class="edge"><title>Node7&#45;&gt;Node15</title>
<path fill="none" stroke="midnightblue" d="M659.604,-137.583C664.474,-137.036 669.316,-136.503 674,-136 837.398,-118.46 879.545,-124.795 1042,-100 1050.08,-98.7674 1058.61,-97.2139 1066.88,-95.5769"/>
<polygon fill="midnightblue" stroke="midnightblue" points="1067.67,-98.9864 1076.77,-93.5547 1066.27,-92.1282 1067.67,-98.9864"/>
</g>
<!-- Node16 -->
<g id="node16" class="node"><title>Node16</title>
<polygon fill="none" stroke="#bfbfbf" points="947.5,-1 947.5,-31 1098.5,-31 1098.5,-1 947.5,-1"/>
<text text-anchor="start" x="955.5" y="-19" font-family="Helvetica,sans-Serif" font-size="10.00">Math/GenVector/Displacement</text>
<text text-anchor="middle" x="1023" y="-8" font-family="Helvetica,sans-Serif" font-size="10.00">Vector2D.h</text>
</g>
<!-- Node15&#45;&gt;Node16 -->
<g id="edge16" class="edge"><title>Node15&#45;&gt;Node16</title>
<path fill="none" stroke="midnightblue" d="M1102.1,-74.3717C1089.22,-65.0286 1068.22,-49.7966 1051.09,-37.375"/>
<polygon fill="midnightblue" stroke="midnightblue" points="1052.7,-34.2194 1042.55,-31.1815 1048.59,-39.8859 1052.7,-34.2194"/>
</g>
<!-- Node17 -->
<g id="node17" class="node"><title>Node17</title>
<polygon fill="none" stroke="#bfbfbf" points="1117,-6.5 1117,-25.5 1293,-25.5 1293,-6.5 1117,-6.5"/>
<text text-anchor="middle" x="1205" y="-13.5" font-family="Helvetica,sans-Serif" font-size="10.00">Math/GenVector/PositionVector2D.h</text>
</g>
<!-- Node15&#45;&gt;Node17 -->
<g id="edge17" class="edge"><title>Node15&#45;&gt;Node17</title>
<path fill="none" stroke="midnightblue" d="M1125.9,-74.3717C1140.88,-63.5015 1166.86,-44.6602 1184.94,-31.5474"/>
<polygon fill="midnightblue" stroke="midnightblue" points="1187.06,-34.3349 1193.1,-25.6305 1182.95,-28.6684 1187.06,-34.3349"/>
</g>
</g>
</svg>
        <g id="navigator" transform="translate(0 0)" fill="#404254">
                <rect fill="#f2f5e9" fill-opacity="0.5" stroke="#606060" stroke-width=".5" x="0" y="0" width="60" height="60"/>
                <use id="zoomplus" xlink:href="#zoomPlus" x="17" y="9" onmousedown="handleZoom(evt,'in')"/>
                <use id="zoomminus" xlink:href="#zoomMin" x="42" y="9" onmousedown="handleZoom(evt,'out')"/>
                <use id="reset" xlink:href="#resetDef" x="30" y="36" onmousedown="handleReset()"/>
                <g id="arrowUp" xlink:href="#dirArrow" transform="translate(30 24)" onmousedown="handlePan(0,-1)">
                  <use xlink:href="#rim" fill="#404040">
                        <set attributeName="fill" to="#808080" begin="arrowUp.mouseover" end="arrowUp.mouseout"/>
                  </use>
                  <path fill="none" stroke="white" stroke-width="1.5" d="M0,-3.0v7 M-2.5,-0.5L0,-3.0L2.5,-0.5"/>
                </g>
                <g id="arrowRight" xlink:href="#dirArrow" transform="rotate(90) translate(36 -43)" onmousedown="handlePan(1,0)">
                  <use xlink:href="#rim" fill="#404040">
                        <set attributeName="fill" to="#808080" begin="arrowRight.mouseover" end="arrowRight.mouseout"/>
                  </use>
                  <path fill="none" stroke="white" stroke-width="1.5" d="M0,-3.0v7 M-2.5,-0.5L0,-3.0L2.5,-0.5"/>
                </g>
                <g id="arrowDown" xlink:href="#dirArrow" transform="rotate(180) translate(-30 -48)" onmousedown="handlePan(0,1)">
                  <use xlink:href="#rim" fill="#404040">
                        <set attributeName="fill" to="#808080" begin="arrowDown.mouseover" end="arrowDown.mouseout"/>
                  </use>
                  <path fill="none" stroke="white" stroke-width="1.5" d="M0,-3.0v7 M-2.5,-0.5L0,-3.0L2.5,-0.5"/>
                </g>
                <g id="arrowLeft" xlink:href="#dirArrow" transform="rotate(270) translate(-36 17)" onmousedown="handlePan(-1,0)">
                  <use xlink:href="#rim" fill="#404040">
                        <set attributeName="fill" to="#808080" begin="arrowLeft.mouseover" end="arrowLeft.mouseout"/>
                  </use>
                  <path fill="none" stroke="white" stroke-width="1.5" d="M0,-3.0v7 M-2.5,-0.5L0,-3.0L2.5,-0.5"/>
                </g>
        </g>
        <svg viewBox="0 0 15 15" width="100%" height="30px" preserveAspectRatio="xMaxYMin meet">
         <g id="arrow_out" transform="scale(0.3 0.3)">
          <a xlink:href="HitAnalysis_8h__incl_org.svg" target="_base">
           <rect id="button" ry="5" rx="5" y="6" x="6" height="38" width="38"
                fill="#f2f5e9" fill-opacity="0.5" stroke="#606060" stroke-width="1.0"/>
           <path id="arrow"
             d="M 11.500037,31.436501 C 11.940474,20.09759 22.043105,11.32322 32.158766,21.979434 L 37.068811,17.246167 C 37.068811,17.246167 37.088388,32 37.088388,32 L 22.160133,31.978069 C 22.160133,31.978069 26.997745,27.140456 26.997745,27.140456 C 18.528582,18.264221 13.291696,25.230495 11.500037,31.436501 z"
             style="fill:#404040;"/>
          </a>
         </g>
        </svg>
</svg>
