<?xml version="1.0" encoding="UTF-8" standalone="no"?>
<!DOCTYPE svg PUBLIC "-//W3C//DTD SVG 1.1//EN"
 "http://www.w3.org/Graphics/SVG/1.1/DTD/svg11.dtd">
<!-- Generated by graphviz version 2.36.0 (20140111.2315)
 -->
<!-- Title: /home/travis/build/AliceO2Group/AliceO2/run/O2PrimaryServerDevice.h Pages: 1 -->
<!--zoomable 366 -->
<svg id="main" version="1.1" xmlns="http://www.w3.org/2000/svg" xmlns:xlink="http://www.w3.org/1999/xlink" xml:space="preserve" onload="init(evt)">
<style type="text/css"><![CDATA[
.edge:hover path { stroke: red; }
.edge:hover polygon { stroke: red; fill: red; }
]]></style>
<script type="text/javascript"><![CDATA[
var edges = document.getElementsByTagName('g');
if (edges && edges.length) {
  for (var i=0;i<edges.length;i++) {
    if (edges[i].id.substr(0,4)=='edge') {
      edges[i].setAttribute('class','edge');
    }
  }
}
]]></script>
        <defs>
                <circle id="rim" cx="0" cy="0" r="7"/>
                <circle id="rim2" cx="0" cy="0" r="3.5"/>
                <g id="zoomPlus">
                        <use xlink:href="#rim" fill="#404040">
                                <set attributeName="fill" to="#808080" begin="zoomplus.mouseover" end="zoomplus.mouseout"/>
                        </use>
                        <path d="M-4,0h8M0,-4v8" fill="none" stroke="white" stroke-width="1.5" pointer-events="none"/>
                </g>
                <g id="zoomMin">
                        <use xlink:href="#rim" fill="#404040">
                                <set attributeName="fill" to="#808080" begin="zoomminus.mouseover" end="zoomminus.mouseout"/>
                        </use>
                        <path d="M-4,0h8" fill="none" stroke="white" stroke-width="1.5" pointer-events="none"/>
                </g>
                <g id="dirArrow">
                        <path fill="none" stroke="white" stroke-width="1.5" d="M0,-3.0v7 M-2.5,-0.5L0,-3.0L2.5,-0.5"/>
                </g>
               <g id="resetDef">
                       <use xlink:href="#rim2" fill="#404040">
                               <set attributeName="fill" to="#808080" begin="reset.mouseover" end="reset.mouseout"/>
                       </use>
               </g>
        </defs>

<script type="text/javascript">
var viewWidth = 1697;
var viewHeight = 366;
var sectionId = 'dynsection-0';
</script>
<script xlink:href="../../svgpan.js"/>
<svg id="graph" class="graph">
<g id="viewport">
<title>/home/travis/build/AliceO2Group/AliceO2/run/O2PrimaryServerDevice.h</title>
<!-- Node1 -->
<g id="node1" class="node"><title>Node1</title>
<polygon fill="#bfbfbf" stroke="black" points="978,-316.5 978,-357.5 1128,-357.5 1128,-316.5 978,-316.5"/>
<text text-anchor="start" x="986" y="-345.5" font-family="Helvetica,sans-Serif" font-size="10.00">/home/travis/build</text>
<text text-anchor="start" x="986" y="-334.5" font-family="Helvetica,sans-Serif" font-size="10.00">/AliceO2Group/AliceO2</text>
<text text-anchor="middle" x="1053" y="-323.5" font-family="Helvetica,sans-Serif" font-size="10.00">/run/O2PrimaryServerDevice.h</text>
</g>
<!-- Node2 -->
<g id="node2" class="node"><title>Node2</title>
<polygon fill="none" stroke="#bfbfbf" points="199,-254.5 199,-273.5 287,-273.5 287,-254.5 199,-254.5"/>
<text text-anchor="middle" x="243" y="-261.5" font-family="Helvetica,sans-Serif" font-size="10.00">FairMQDevice.h</text>
</g>
<!-- Node1&#45;&gt;Node2 -->
<g id="edge1" class="edge"><title>Node1&#45;&gt;Node2</title>
<path fill="none" stroke="midnightblue" d="M977.973,-335.449C841.3,-333.342 543.057,-323.637 296,-280 290.467,-279.023 284.683,-277.704 279.054,-276.252"/>
<polygon fill="midnightblue" stroke="midnightblue" points="279.746,-272.813 269.176,-273.54 277.892,-279.563 279.746,-272.813"/>
</g>
<!-- Node3 -->
<g id="node3" class="node"><title>Node3</title>
<polygon fill="none" stroke="#bfbfbf" points="305,-254.5 305,-273.5 423,-273.5 423,-254.5 305,-254.5"/>
<text text-anchor="middle" x="364" y="-261.5" font-family="Helvetica,sans-Serif" font-size="10.00">FairPrimaryGenerator.h</text>
</g>
<!-- Node1&#45;&gt;Node3 -->
<g id="edge2" class="edge"><title>Node1&#45;&gt;Node3</title>
<path fill="none" stroke="midnightblue" d="M977.586,-332.3C860.344,-325.85 627.5,-310.252 432,-280 424.441,-278.83 416.464,-277.322 408.738,-275.715"/>
<polygon fill="midnightblue" stroke="midnightblue" points="409.296,-272.255 398.782,-273.565 407.818,-279.097 409.296,-272.255"/>
</g>
<!-- Node4 -->
<g id="node4" class="node"><title>Node4</title>
<g id="a_node4"><a xlink:href="../../d4/d6f/GeneratorFactory_8h.html" target="_top" xlink:title="Generators/GeneratorFactory.h">
<polygon fill="none" stroke="black" points="441,-254.5 441,-273.5 593,-273.5 593,-254.5 441,-254.5"/>
<text text-anchor="middle" x="517" y="-261.5" font-family="Helvetica,sans-Serif" font-size="10.00">Generators/GeneratorFactory.h</text>
</a>
</g>
</g>
<!-- Node1&#45;&gt;Node4 -->
<g id="edge3" class="edge"><title>Node1&#45;&gt;Node4</title>
<path fill="none" stroke="midnightblue" d="M977.828,-327.856C888.173,-317.868 733.861,-299.808 602,-280 592.542,-278.579 582.516,-276.934 572.793,-275.266"/>
<polygon fill="midnightblue" stroke="midnightblue" points="573.26,-271.794 562.808,-273.526 572.059,-278.69 573.26,-271.794"/>
</g>
<!-- Node5 -->
<g id="node5" class="node"><title>Node5</title>
<polygon fill="none" stroke="#bfbfbf" points="611.5,-254.5 611.5,-273.5 708.5,-273.5 708.5,-254.5 611.5,-254.5"/>
<text text-anchor="middle" x="660" y="-261.5" font-family="Helvetica,sans-Serif" font-size="10.00">FairMQMessage.h</text>
</g>
<!-- Node1&#45;&gt;Node5 -->
<g id="edge4" class="edge"><title>Node1&#45;&gt;Node5</title>
<path fill="none" stroke="midnightblue" d="M977.805,-325.353C909.677,-315.251 806.682,-298.842 718,-280 712.468,-278.825 706.669,-277.472 700.967,-276.07"/>
<polygon fill="midnightblue" stroke="midnightblue" points="701.438,-272.579 690.885,-273.522 699.722,-279.366 701.438,-272.579"/>
</g>
<!-- Node6 -->
<g id="node6" class="node"><title>Node6</title>
<g id="a_node6"><a xlink:href="../../d4/d03/simulation_2include_2SimulationDataFormat_2Stack_8h.html" target="_top" xlink:title="SimulationDataFormat\l/Stack.h">
<polygon fill="none" stroke="black" points="864,-249 864,-279 978,-279 978,-249 864,-249"/>
<text text-anchor="start" x="872" y="-267" font-family="Helvetica,sans-Serif" font-size="10.00">SimulationDataFormat</text>
<text text-anchor="middle" x="921" y="-256" font-family="Helvetica,sans-Serif" font-size="10.00">/Stack.h</text>
</a>
</g>
</g>
<!-- Node1&#45;&gt;Node6 -->
<g id="edge5" class="edge"><title>Node1&#45;&gt;Node6</title>
<path fill="none" stroke="midnightblue" d="M1016.58,-316.411C997.78,-306.298 974.941,-294.014 956.303,-283.989"/>
<polygon fill="midnightblue" stroke="midnightblue" points="957.721,-280.777 947.257,-279.123 954.405,-286.942 957.721,-280.777"/>
</g>
<!-- Node37 -->
<g id="node37" class="node"><title>Node37</title>
<polygon fill="none" stroke="#bfbfbf" points="996,-254.5 996,-273.5 1110,-273.5 1110,-254.5 996,-254.5"/>
<text text-anchor="middle" x="1053" y="-261.5" font-family="Helvetica,sans-Serif" font-size="10.00">FairMCEventHeader.h</text>
</g>
<!-- Node1&#45;&gt;Node37 -->
<g id="edge45" class="edge"><title>Node1&#45;&gt;Node37</title>
<path fill="none" stroke="midnightblue" d="M1053,-316.223C1053,-306.086 1053,-293.807 1053,-283.813"/>
<polygon fill="midnightblue" stroke="midnightblue" points="1056.5,-283.735 1053,-273.735 1049.5,-283.735 1056.5,-283.735"/>
</g>
<!-- Node38 -->
<g id="node38" class="node"><title>Node38</title>
<polygon fill="none" stroke="#bfbfbf" points="1128.5,-254.5 1128.5,-273.5 1199.5,-273.5 1199.5,-254.5 1128.5,-254.5"/>
<text text-anchor="middle" x="1164" y="-261.5" font-family="Helvetica,sans-Serif" font-size="10.00">TMessage.h</text>
</g>
<!-- Node1&#45;&gt;Node38 -->
<g id="edge46" class="edge"><title>Node1&#45;&gt;Node38</title>
<path fill="none" stroke="midnightblue" d="M1083.63,-316.411C1102.14,-304.567 1125.32,-289.743 1142.02,-279.06"/>
<polygon fill="midnightblue" stroke="midnightblue" points="1144.02,-281.934 1150.56,-273.597 1140.25,-276.037 1144.02,-281.934"/>
</g>
<!-- Node39 -->
<g id="node39" class="node"><title>Node39</title>
<polygon fill="none" stroke="#bfbfbf" points="1218,-254.5 1218,-273.5 1274,-273.5 1274,-254.5 1218,-254.5"/>
<text text-anchor="middle" x="1246" y="-261.5" font-family="Helvetica,sans-Serif" font-size="10.00">TClass.h</text>
</g>
<!-- Node1&#45;&gt;Node39 -->
<g id="edge47" class="edge"><title>Node1&#45;&gt;Node39</title>
<path fill="none" stroke="midnightblue" d="M1108.38,-316.434C1138.01,-305.855 1175.08,-292.441 1208,-280 1210.38,-279.1 1212.84,-278.159 1215.31,-277.204"/>
<polygon fill="midnightblue" stroke="midnightblue" points="1216.7,-280.419 1224.74,-273.519 1214.15,-273.899 1216.7,-280.419"/>
</g>
<!-- Node40 -->
<g id="node40" class="node"><title>Node40</title>
<g id="a_node40"><a xlink:href="../../d9/d45/PrimaryChunk_8h.html" target="_top" xlink:title="SimulationDataFormat\l/PrimaryChunk.h">
<polygon fill="none" stroke="black" points="1292,-249 1292,-279 1406,-279 1406,-249 1292,-249"/>
<text text-anchor="start" x="1300" y="-267" font-family="Helvetica,sans-Serif" font-size="10.00">SimulationDataFormat</text>
<text text-anchor="middle" x="1349" y="-256" font-family="Helvetica,sans-Serif" font-size="10.00">/PrimaryChunk.h</text>
</a>
</g>
</g>
<!-- Node1&#45;&gt;Node40 -->
<g id="edge48" class="edge"><title>Node1&#45;&gt;Node40</title>
<path fill="none" stroke="midnightblue" d="M1128.08,-317.992C1175.47,-306.624 1236.16,-292.067 1281.93,-281.087"/>
<polygon fill="midnightblue" stroke="midnightblue" points="1282.85,-284.466 1291.76,-278.73 1281.22,-277.66 1282.85,-284.466"/>
</g>
<!-- Node42 -->
<g id="node42" class="node"><title>Node42</title>
<g id="a_node42"><a xlink:href="../../de/daf/GeneratorFromFile_8h.html" target="_top" xlink:title="Generators/GeneratorFrom\lFile.h">
<polygon fill="none" stroke="black" points="1424.5,-249 1424.5,-279 1557.5,-279 1557.5,-249 1424.5,-249"/>
<text text-anchor="start" x="1432.5" y="-267" font-family="Helvetica,sans-Serif" font-size="10.00">Generators/GeneratorFrom</text>
<text text-anchor="middle" x="1491" y="-256" font-family="Helvetica,sans-Serif" font-size="10.00">File.h</text>
</a>
</g>
</g>
<!-- Node1&#45;&gt;Node42 -->
<g id="edge50" class="edge"><title>Node1&#45;&gt;Node42</title>
<path fill="none" stroke="midnightblue" d="M1128.03,-325.319C1199.05,-314.996 1308.91,-298.484 1414.13,-280.11"/>
<polygon fill="midnightblue" stroke="midnightblue" points="1415.06,-283.502 1424.3,-278.326 1413.85,-276.607 1415.06,-283.502"/>
</g>
<!-- Node44 -->
<g id="node44" class="node"><title>Node44</title>
<g id="a_node44"><a xlink:href="../../d4/dee/SimConfig_8h.html" target="_top" xlink:title="SimConfig/SimConfig.h">
<polygon fill="none" stroke="black" points="726.5,-254.5 726.5,-273.5 845.5,-273.5 845.5,-254.5 726.5,-254.5"/>
<text text-anchor="middle" x="786" y="-261.5" font-family="Helvetica,sans-Serif" font-size="10.00">SimConfig/SimConfig.h</text>
</a>
</g>
</g>
<!-- Node1&#45;&gt;Node44 -->
<g id="edge52" class="edge"><title>Node1&#45;&gt;Node44</title>
<path fill="none" stroke="midnightblue" d="M979.334,-316.411C930.526,-303.432 868.265,-286.876 827.783,-276.111"/>
<polygon fill="midnightblue" stroke="midnightblue" points="828.545,-272.692 817.982,-273.504 826.746,-279.457 828.545,-272.692"/>
</g>
<!-- Node46 -->
<g id="node46" class="node"><title>Node46</title>
<polygon fill="none" stroke="#bfbfbf" points="1575.5,-254.5 1575.5,-273.5 1626.5,-273.5 1626.5,-254.5 1575.5,-254.5"/>
<text text-anchor="middle" x="1601" y="-261.5" font-family="Helvetica,sans-Serif" font-size="10.00">typeinfo</text>
</g>
<!-- Node1&#45;&gt;Node46 -->
<g id="edge55" class="edge"><title>Node1&#45;&gt;Node46</title>
<path fill="none" stroke="midnightblue" d="M1128.16,-334.717C1229.26,-331.435 1413.92,-319.937 1566,-280 1568.82,-279.26 1571.7,-278.331 1574.55,-277.299"/>
<polygon fill="midnightblue" stroke="midnightblue" points="1575.95,-280.508 1583.91,-273.522 1573.33,-274.016 1575.95,-280.508"/>
</g>
<!-- Node47 -->
<g id="node47" class="node"><title>Node47</title>
<polygon fill="none" stroke="#bfbfbf" points="1645,-254.5 1645,-273.5 1689,-273.5 1689,-254.5 1645,-254.5"/>
<text text-anchor="middle" x="1667" y="-261.5" font-family="Helvetica,sans-Serif" font-size="10.00">thread</text>
</g>
<!-- Node1&#45;&gt;Node47 -->
<g id="edge56" class="edge"><title>Node1&#45;&gt;Node47</title>
<path fill="none" stroke="midnightblue" d="M1128.43,-336.883C1240.83,-336.389 1458.03,-328.431 1635,-280 1637.35,-279.358 1639.73,-278.555 1642.09,-277.656"/>
<polygon fill="midnightblue" stroke="midnightblue" points="1643.68,-280.783 1651.46,-273.589 1640.89,-274.362 1643.68,-280.783"/>
</g>
<!-- Node7 -->
<g id="node7" class="node"><title>Node7</title>
<g id="a_node7"><a xlink:href="../../d6/d31/DetID_8h.html" target="_top" xlink:title="DetectorsCommonDataFormats\l/DetID.h">
<polygon fill="none" stroke="black" points="1133,-113 1133,-143 1289,-143 1289,-113 1133,-113"/>
<text text-anchor="start" x="1141" y="-131" font-family="Helvetica,sans-Serif" font-size="10.00">DetectorsCommonDataFormats</text>
<text text-anchor="middle" x="1211" y="-120" font-family="Helvetica,sans-Serif" font-size="10.00">/DetID.h</text>
</a>
</g>
</g>
<!-- Node6&#45;&gt;Node7 -->
<g id="edge6" class="edge"><title>Node6&#45;&gt;Node7</title>
<path fill="none" stroke="midnightblue" d="M932.931,-248.825C951.062,-227.612 985.117,-189.115 1001,-180 1022.2,-167.835 1076.2,-154.844 1124.14,-145.018"/>
<polygon fill="midnightblue" stroke="midnightblue" points="1124.84,-148.447 1133.94,-143.034 1123.45,-141.587 1124.84,-148.447"/>
</g>
<!-- Node8 -->
<g id="node8" class="node"><title>Node8</title>
<polygon fill="none" stroke="#bfbfbf" points="723,-56.5 723,-75.5 779,-75.5 779,-56.5 723,-56.5"/>
<text text-anchor="middle" x="751" y="-63.5" font-family="Helvetica,sans-Serif" font-size="10.00">Rtypes.h</text>
</g>
<!-- Node6&#45;&gt;Node8 -->
<g id="edge39" class="edge"><title>Node6&#45;&gt;Node8</title>
<path fill="none" stroke="midnightblue" d="M863.678,-249.857C860.409,-249.204 857.166,-248.58 854,-248 713.347,-222.249 310.848,-253.592 219,-144 209.865,-133.1 209.377,-122.472 219,-112 252.261,-75.8064 595.681,-68.6968 712.412,-67.3229"/>
<polygon fill="midnightblue" stroke="midnightblue" points="712.704,-70.82 722.665,-67.2103 712.627,-63.8205 712.704,-70.82"/>
</g>
<!-- Node17 -->
<g id="node17" class="node"><title>Node17</title>
<polygon fill="none" stroke="#bfbfbf" points="1009.5,-186.5 1009.5,-205.5 1110.5,-205.5 1110.5,-186.5 1009.5,-186.5"/>
<text text-anchor="middle" x="1060" y="-193.5" font-family="Helvetica,sans-Serif" font-size="10.00">FairGenericStack.h</text>
</g>
<!-- Node6&#45;&gt;Node17 -->
<g id="edge17" class="edge"><title>Node6&#45;&gt;Node17</title>
<path fill="none" stroke="midnightblue" d="M950.819,-248.841C975.077,-237.323 1009.04,-221.199 1032.61,-210.004"/>
<polygon fill="midnightblue" stroke="midnightblue" points="1034.18,-213.133 1041.72,-205.682 1031.18,-206.809 1034.18,-213.133"/>
</g>
<!-- Node18 -->
<g id="node18" class="node"><title>Node18</title>
<g id="a_node18"><a xlink:href="../../d2/de2/MCTrack_8h.html" target="_top" xlink:title="Definition of the MCTrack class. ">
<polygon fill="none" stroke="black" points="669,-181 669,-211 783,-211 783,-181 669,-181"/>
<text text-anchor="start" x="677" y="-199" font-family="Helvetica,sans-Serif" font-size="10.00">SimulationDataFormat</text>
<text text-anchor="middle" x="726" y="-188" font-family="Helvetica,sans-Serif" font-size="10.00">/MCTrack.h</text>
</a>
</g>
</g>
<!-- Node6&#45;&gt;Node18 -->
<g id="edge18" class="edge"><title>Node6&#45;&gt;Node18</title>
<path fill="none" stroke="midnightblue" d="M879.168,-248.841C849.249,-238.715 808.815,-225.03 777.003,-214.262"/>
<polygon fill="midnightblue" stroke="midnightblue" points="778.022,-210.913 767.428,-211.022 775.778,-217.543 778.022,-210.913"/>
</g>
<!-- Node23 -->
<g id="node23" class="node"><title>Node23</title>
<polygon fill="none" stroke="#bfbfbf" points="779,-118.5 779,-137.5 843,-137.5 843,-118.5 779,-118.5"/>
<text text-anchor="middle" x="811" y="-125.5" font-family="Helvetica,sans-Serif" font-size="10.00">TParticle.h</text>
</g>
<!-- Node6&#45;&gt;Node23 -->
<g id="edge40" class="edge"><title>Node6&#45;&gt;Node23</title>
<path fill="none" stroke="midnightblue" d="M879.95,-248.803C862.111,-240.659 842.48,-228.674 830,-212 815.983,-193.271 812.035,-165.981 811.064,-147.871"/>
<polygon fill="midnightblue" stroke="midnightblue" points="814.558,-147.607 810.78,-137.708 807.561,-147.802 814.558,-147.607"/>
</g>
<!-- Node26 -->
<g id="node26" class="node"><title>Node26</title>
<g id="a_node26"><a xlink:href="../../db/d14/MCTruthContainer_8h.html" target="_top" xlink:title="Definition of a container to keep Monte Carlo truth external to simulation objects. ">
<polygon fill="none" stroke="black" points="1355,-113 1355,-143 1469,-143 1469,-113 1355,-113"/>
<text text-anchor="start" x="1363" y="-131" font-family="Helvetica,sans-Serif" font-size="10.00">SimulationDataFormat</text>
<text text-anchor="middle" x="1412" y="-120" font-family="Helvetica,sans-Serif" font-size="10.00">/MCTruthContainer.h</text>
</a>
</g>
</g>
<!-- Node6&#45;&gt;Node26 -->
<g id="edge28" class="edge"><title>Node6&#45;&gt;Node26</title>
<path fill="none" stroke="midnightblue" d="M978.038,-249.601C1031.9,-236.739 1106.28,-218.357 1119,-212 1139.37,-201.823 1138.37,-189.632 1159,-180 1191.37,-164.885 1281.59,-148.811 1345.02,-138.838"/>
<polygon fill="midnightblue" stroke="midnightblue" points="1345.61,-142.288 1354.96,-137.291 1344.54,-135.371 1345.61,-142.288"/>
</g>
<!-- Node30 -->
<g id="node30" class="node"><title>Node30</title>
<g id="a_node30"><a xlink:href="../../d5/dbe/TrackReference_8h.html" target="_top" xlink:title="SimulationDataFormat\l/TrackReference.h">
<polygon fill="none" stroke="black" points="839,-181 839,-211 953,-211 953,-181 839,-181"/>
<text text-anchor="start" x="847" y="-199" font-family="Helvetica,sans-Serif" font-size="10.00">SimulationDataFormat</text>
<text text-anchor="middle" x="896" y="-188" font-family="Helvetica,sans-Serif" font-size="10.00">/TrackReference.h</text>
</a>
</g>
</g>
<!-- Node6&#45;&gt;Node30 -->
<g id="edge34" class="edge"><title>Node6&#45;&gt;Node30</title>
<path fill="none" stroke="midnightblue" d="M915.575,-248.679C912.496,-240.549 908.562,-230.164 905.03,-220.839"/>
<polygon fill="midnightblue" stroke="midnightblue" points="908.229,-219.405 901.414,-211.293 901.683,-221.884 908.229,-219.405"/>
</g>
<!-- Node33 -->
<g id="node33" class="node"><title>Node33</title>
<polygon fill="none" stroke="#bfbfbf" points="1167.5,-186.5 1167.5,-205.5 1202.5,-205.5 1202.5,-186.5 1167.5,-186.5"/>
<text text-anchor="middle" x="1185" y="-193.5" font-family="Helvetica,sans-Serif" font-size="10.00">map</text>
</g>
<!-- Node6&#45;&gt;Node33 -->
<g id="edge41" class="edge"><title>Node6&#45;&gt;Node33</title>
<path fill="none" stroke="midnightblue" d="M978.23,-249.957C981.195,-249.292 984.132,-248.637 987,-248 1060.7,-231.634 1081.48,-236.173 1153,-212 1155.13,-211.282 1157.3,-210.463 1159.46,-209.586"/>
<polygon fill="midnightblue" stroke="midnightblue" points="1160.95,-212.753 1168.68,-205.511 1158.12,-206.349 1160.95,-212.753"/>
</g>
<!-- Node34 -->
<g id="node34" class="node"><title>Node34</title>
<polygon fill="none" stroke="#bfbfbf" points="1221,-186.5 1221,-205.5 1273,-205.5 1273,-186.5 1221,-186.5"/>
<text text-anchor="middle" x="1247" y="-193.5" font-family="Helvetica,sans-Serif" font-size="10.00">memory</text>
</g>
<!-- Node6&#45;&gt;Node34 -->
<g id="edge42" class="edge"><title>Node6&#45;&gt;Node34</title>
<path fill="none" stroke="midnightblue" d="M978.19,-249.766C981.166,-249.152 984.116,-248.559 987,-248 1085.99,-228.817 1114.01,-239.582 1211,-212 1213.66,-211.245 1216.38,-210.349 1219.08,-209.378"/>
<polygon fill="midnightblue" stroke="midnightblue" points="1220.58,-212.549 1228.61,-205.639 1218.03,-206.032 1220.58,-212.549"/>
</g>
<!-- Node35 -->
<g id="node35" class="node"><title>Node35</title>
<polygon fill="none" stroke="#bfbfbf" points="1291.5,-186.5 1291.5,-205.5 1332.5,-205.5 1332.5,-186.5 1291.5,-186.5"/>
<text text-anchor="middle" x="1312" y="-193.5" font-family="Helvetica,sans-Serif" font-size="10.00">stack</text>
</g>
<!-- Node6&#45;&gt;Node35 -->
<g id="edge43" class="edge"><title>Node6&#45;&gt;Node35</title>
<path fill="none" stroke="midnightblue" d="M978.165,-249.633C981.148,-249.053 984.106,-248.504 987,-248 1117.12,-225.334 1155.53,-250.091 1282,-212 1283.97,-211.408 1285.96,-210.695 1287.93,-209.905"/>
<polygon fill="midnightblue" stroke="midnightblue" points="1289.84,-212.881 1297.46,-205.522 1286.91,-206.522 1289.84,-212.881"/>
</g>
<!-- Node36 -->
<g id="node36" class="node"><title>Node36</title>
<polygon fill="none" stroke="#bfbfbf" points="611,-186.5 611,-205.5 651,-205.5 651,-186.5 611,-186.5"/>
<text text-anchor="middle" x="631" y="-193.5" font-family="Helvetica,sans-Serif" font-size="10.00">utility</text>
</g>
<!-- Node6&#45;&gt;Node36 -->
<g id="edge44" class="edge"><title>Node6&#45;&gt;Node36</title>
<path fill="none" stroke="midnightblue" d="M863.648,-250.014C860.386,-249.321 857.153,-248.645 854,-248 768.086,-230.418 742.951,-240.451 660,-212 658.341,-211.431 656.66,-210.781 654.986,-210.077"/>
<polygon fill="midnightblue" stroke="midnightblue" points="656.215,-206.786 645.68,-205.654 653.21,-213.108 656.215,-206.786"/>
</g>
<!-- Node7&#45;&gt;Node8 -->
<g id="edge7" class="edge"><title>Node7&#45;&gt;Node8</title>
<path fill="none" stroke="midnightblue" d="M1132.74,-114.021C1128.09,-113.319 1123.49,-112.64 1119,-112 998.939,-94.8786 856.259,-78.5831 789.295,-71.1727"/>
<polygon fill="midnightblue" stroke="midnightblue" points="789.536,-67.6782 779.213,-70.0609 788.769,-74.636 789.536,-67.6782"/>
</g>
<!-- Node9 -->
<g id="node9" class="node"><title>Node9</title>
<polygon fill="none" stroke="#bfbfbf" points="1092,-0.5 1092,-19.5 1130,-19.5 1130,-0.5 1092,-0.5"/>
<text text-anchor="middle" x="1111" y="-7.5" font-family="Helvetica,sans-Serif" font-size="10.00">array</text>
</g>
<!-- Node7&#45;&gt;Node9 -->
<g id="edge8" class="edge"><title>Node7&#45;&gt;Node9</title>
<path fill="none" stroke="midnightblue" d="M1194.11,-112.617C1183.02,-102.809 1168.5,-89.2434 1157,-76 1143.87,-60.8787 1130.87,-42.0604 1122.06,-28.5693"/>
<polygon fill="midnightblue" stroke="midnightblue" points="1124.79,-26.3404 1116.44,-19.8163 1118.9,-30.1222 1124.79,-26.3404"/>
</g>
<!-- Node10 -->
<g id="node10" class="node"><title>Node10</title>
<polygon fill="none" stroke="#bfbfbf" points="1004.5,-56.5 1004.5,-75.5 1045.5,-75.5 1045.5,-56.5 1004.5,-56.5"/>
<text text-anchor="middle" x="1025" y="-63.5" font-family="Helvetica,sans-Serif" font-size="10.00">bitset</text>
</g>
<!-- Node7&#45;&gt;Node10 -->
<g id="edge9" class="edge"><title>Node7&#45;&gt;Node10</title>
<path fill="none" stroke="midnightblue" d="M1167.39,-112.933C1133.05,-101.854 1086.05,-86.6921 1055.6,-76.8718"/>
<polygon fill="midnightblue" stroke="midnightblue" points="1056.55,-73.4989 1045.96,-73.7598 1054.4,-80.1609 1056.55,-73.4989"/>
</g>
<!-- Node11 -->
<g id="node11" class="node"><title>Node11</title>
<polygon fill="none" stroke="#bfbfbf" points="1354.5,-56.5 1354.5,-75.5 1403.5,-75.5 1403.5,-56.5 1354.5,-56.5"/>
<text text-anchor="middle" x="1379" y="-63.5" font-family="Helvetica,sans-Serif" font-size="10.00">cassert</text>
</g>
<!-- Node7&#45;&gt;Node11 -->
<g id="edge10" class="edge"><title>Node7&#45;&gt;Node11</title>
<path fill="none" stroke="midnightblue" d="M1250.39,-112.933C1279.24,-102.629 1317.98,-88.7935 1345.38,-79.0079"/>
<polygon fill="midnightblue" stroke="midnightblue" points="1346.68,-82.2596 1354.92,-75.6 1344.33,-75.6674 1346.68,-82.2596"/>
</g>
<!-- Node12 -->
<g id="node12" class="node"><title>Node12</title>
<polygon fill="none" stroke="#bfbfbf" points="1064,-56.5 1064,-75.5 1110,-75.5 1110,-56.5 1064,-56.5"/>
<text text-anchor="middle" x="1087" y="-63.5" font-family="Helvetica,sans-Serif" font-size="10.00">cstdint</text>
</g>
<!-- Node7&#45;&gt;Node12 -->
<g id="edge11" class="edge"><title>Node7&#45;&gt;Node12</title>
<path fill="none" stroke="midnightblue" d="M1181.93,-112.933C1161.38,-102.991 1134.04,-89.7601 1113.98,-80.0526"/>
<polygon fill="midnightblue" stroke="midnightblue" points="1115.3,-76.8051 1104.77,-75.6 1112.25,-83.1063 1115.3,-76.8051"/>
</g>
<!-- Node13 -->
<g id="node13" class="node"><title>Node13</title>
<polygon fill="none" stroke="#bfbfbf" points="1274,-56.5 1274,-75.5 1336,-75.5 1336,-56.5 1274,-56.5"/>
<text text-anchor="middle" x="1305" y="-63.5" font-family="Helvetica,sans-Serif" font-size="10.00">type_traits</text>
</g>
<!-- Node7&#45;&gt;Node13 -->
<g id="edge12" class="edge"><title>Node7&#45;&gt;Node13</title>
<path fill="none" stroke="midnightblue" d="M1233.28,-112.781C1248.29,-103.196 1268.02,-90.6062 1282.98,-81.0555"/>
<polygon fill="midnightblue" stroke="midnightblue" points="1285.05,-83.8863 1291.6,-75.5557 1281.28,-77.9859 1285.05,-83.8863"/>
</g>
<!-- Node14 -->
<g id="node14" class="node"><title>Node14</title>
<g id="a_node14"><a xlink:href="../../d9/d52/Common_2MathUtils_2include_2MathUtils_2Utils_8h.html" target="_top" xlink:title="MathUtils/Utils.h">
<polygon fill="none" stroke="black" points="1166,-56.5 1166,-75.5 1256,-75.5 1256,-56.5 1166,-56.5"/>
<text text-anchor="middle" x="1211" y="-63.5" font-family="Helvetica,sans-Serif" font-size="10.00">MathUtils/Utils.h</text>
</a>
</g>
</g>
<!-- Node7&#45;&gt;Node14 -->
<g id="edge13" class="edge"><title>Node7&#45;&gt;Node14</title>
<path fill="none" stroke="midnightblue" d="M1211,-112.781C1211,-104.781 1211,-94.6887 1211,-86.0168"/>
<polygon fill="midnightblue" stroke="midnightblue" points="1214.5,-85.7305 1211,-75.7305 1207.5,-85.7306 1214.5,-85.7305"/>
</g>
<!-- Node14&#45;&gt;Node9 -->
<g id="edge14" class="edge"><title>Node14&#45;&gt;Node9</title>
<path fill="none" stroke="midnightblue" d="M1194.93,-56.324C1179.04,-47.7428 1154.49,-34.486 1136.04,-24.5224"/>
<polygon fill="midnightblue" stroke="midnightblue" points="1137.49,-21.3264 1127.03,-19.6545 1134.16,-27.4857 1137.49,-21.3264"/>
</g>
<!-- Node15 -->
<g id="node15" class="node"><title>Node15</title>
<polygon fill="none" stroke="#bfbfbf" points="1346,-0.5 1346,-19.5 1390,-19.5 1390,-0.5 1346,-0.5"/>
<text text-anchor="middle" x="1368" y="-7.5" font-family="Helvetica,sans-Serif" font-size="10.00">cmath</text>
</g>
<!-- Node14&#45;&gt;Node15 -->
<g id="edge15" class="edge"><title>Node14&#45;&gt;Node15</title>
<path fill="none" stroke="midnightblue" d="M1235.88,-56.4435C1263.07,-47.0919 1306.69,-32.0859 1336.31,-21.8984"/>
<polygon fill="midnightblue" stroke="midnightblue" points="1337.46,-25.2056 1345.78,-18.6433 1335.18,-18.5862 1337.46,-25.2056"/>
</g>
<!-- Node16 -->
<g id="node16" class="node"><title>Node16</title>
<g id="a_node16"><a xlink:href="../../d6/d84/MathConstants_8h.html" target="_top" xlink:title="useful math constants ">
<polygon fill="none" stroke="black" points="1148.5,-0.5 1148.5,-19.5 1327.5,-19.5 1327.5,-0.5 1148.5,-0.5"/>
<text text-anchor="middle" x="1238" y="-7.5" font-family="Helvetica,sans-Serif" font-size="10.00">CommonConstants/MathConstants.h</text>
</a>
</g>
</g>
<!-- Node14&#45;&gt;Node16 -->
<g id="edge16" class="edge"><title>Node14&#45;&gt;Node16</title>
<path fill="none" stroke="midnightblue" d="M1215.46,-56.083C1219.15,-48.6913 1224.52,-37.9533 1229.09,-28.8111"/>
<polygon fill="midnightblue" stroke="midnightblue" points="1232.28,-30.2606 1233.62,-19.7511 1226.02,-27.1301 1232.28,-30.2606"/>
</g>
<!-- Node18&#45;&gt;Node7 -->
<g id="edge19" class="edge"><title>Node18&#45;&gt;Node7</title>
<path fill="none" stroke="midnightblue" d="M783.202,-186.643C798.408,-184.451 814.822,-182.11 830,-180 930.267,-166.059 1045.48,-150.733 1122.72,-140.558"/>
<polygon fill="midnightblue" stroke="midnightblue" points="1123.43,-143.995 1132.89,-139.219 1122.52,-137.054 1123.43,-143.995"/>
</g>
<!-- Node18&#45;&gt;Node8 -->
<g id="edge20" class="edge"><title>Node18&#45;&gt;Node8</title>
<path fill="none" stroke="midnightblue" d="M728.771,-180.813C733.311,-157.566 742.334,-111.371 747.376,-85.5555"/>
<polygon fill="midnightblue" stroke="midnightblue" points="750.844,-86.0593 749.325,-75.5738 743.973,-84.7174 750.844,-86.0593"/>
</g>
<!-- Node19 -->
<g id="node19" class="node"><title>Node19</title>
<polygon fill="none" stroke="#bfbfbf" points="415.5,-118.5 415.5,-137.5 510.5,-137.5 510.5,-118.5 415.5,-118.5"/>
<text text-anchor="middle" x="463" y="-125.5" font-family="Helvetica,sans-Serif" font-size="10.00">TDatabasePDG.h</text>
</g>
<!-- Node18&#45;&gt;Node19 -->
<g id="edge21" class="edge"><title>Node18&#45;&gt;Node19</title>
<path fill="none" stroke="midnightblue" d="M668.669,-181.045C627.308,-170.918 570.156,-156.807 520,-144 515.232,-142.782 510.243,-141.493 505.286,-140.201"/>
<polygon fill="midnightblue" stroke="midnightblue" points="505.794,-136.717 495.233,-137.57 504.021,-143.488 505.794,-136.717"/>
</g>
<!-- Node20 -->
<g id="node20" class="node"><title>Node20</title>
<polygon fill="none" stroke="#bfbfbf" points="529,-118.5 529,-137.5 621,-137.5 621,-118.5 529,-118.5"/>
<text text-anchor="middle" x="575" y="-125.5" font-family="Helvetica,sans-Serif" font-size="10.00">TLorentzVector.h</text>
</g>
<!-- Node18&#45;&gt;Node20 -->
<g id="edge22" class="edge"><title>Node18&#45;&gt;Node20</title>
<path fill="none" stroke="midnightblue" d="M693.607,-180.841C667.02,-169.221 629.707,-152.912 604.07,-141.706"/>
<polygon fill="midnightblue" stroke="midnightblue" points="605.428,-138.48 594.863,-137.682 602.624,-144.894 605.428,-138.48"/>
</g>
<!-- Node21 -->
<g id="node21" class="node"><title>Node21</title>
<polygon fill="none" stroke="#bfbfbf" points="639.5,-118.5 639.5,-137.5 722.5,-137.5 722.5,-118.5 639.5,-118.5"/>
<text text-anchor="middle" x="681" y="-125.5" font-family="Helvetica,sans-Serif" font-size="10.00">TMCProcess.h</text>
</g>
<!-- Node18&#45;&gt;Node21 -->
<g id="edge23" class="edge"><title>Node18&#45;&gt;Node21</title>
<path fill="none" stroke="midnightblue" d="M716.236,-180.679C709.358,-170.592 700.113,-157.033 692.819,-146.335"/>
<polygon fill="midnightblue" stroke="midnightblue" points="695.545,-144.119 687.019,-137.828 689.761,-148.062 695.545,-144.119"/>
</g>
<!-- Node22 -->
<g id="node22" class="node"><title>Node22</title>
<polygon fill="none" stroke="#bfbfbf" points="861.5,-118.5 861.5,-137.5 914.5,-137.5 914.5,-118.5 861.5,-118.5"/>
<text text-anchor="middle" x="888" y="-125.5" font-family="Helvetica,sans-Serif" font-size="10.00">TMath.h</text>
</g>
<!-- Node18&#45;&gt;Node22 -->
<g id="edge24" class="edge"><title>Node18&#45;&gt;Node22</title>
<path fill="none" stroke="midnightblue" d="M761.071,-180.916C786.372,-170.728 821.329,-156.596 852,-144 853.879,-143.228 855.812,-142.431 857.76,-141.626"/>
<polygon fill="midnightblue" stroke="midnightblue" points="859.56,-144.669 867.454,-137.603 856.877,-138.203 859.56,-144.669"/>
</g>
<!-- Node18&#45;&gt;Node23 -->
<g id="edge25" class="edge"><title>Node18&#45;&gt;Node23</title>
<path fill="none" stroke="midnightblue" d="M744.444,-180.679C758.353,-169.879 777.389,-155.098 791.54,-144.11"/>
<polygon fill="midnightblue" stroke="midnightblue" points="793.878,-146.726 799.63,-137.828 789.585,-141.197 793.878,-146.726"/>
</g>
<!-- Node24 -->
<g id="node24" class="node"><title>Node24</title>
<polygon fill="none" stroke="#bfbfbf" points="228,-118.5 228,-137.5 314,-137.5 314,-118.5 228,-118.5"/>
<text text-anchor="middle" x="271" y="-125.5" font-family="Helvetica,sans-Serif" font-size="10.00">TParticlePDG.h</text>
</g>
<!-- Node18&#45;&gt;Node24 -->
<g id="edge26" class="edge"><title>Node18&#45;&gt;Node24</title>
<path fill="none" stroke="midnightblue" d="M668.844,-181.579C665.859,-181.014 662.898,-180.482 660,-180 511.415,-155.266 470.815,-172.984 323,-144 317.831,-142.986 312.432,-141.697 307.152,-140.302"/>
<polygon fill="midnightblue" stroke="midnightblue" points="307.809,-136.852 297.236,-137.533 305.926,-143.594 307.809,-136.852"/>
</g>
<!-- Node25 -->
<g id="node25" class="node"><title>Node25</title>
<polygon fill="none" stroke="#bfbfbf" points="332.5,-118.5 332.5,-137.5 397.5,-137.5 397.5,-118.5 332.5,-118.5"/>
<text text-anchor="middle" x="365" y="-125.5" font-family="Helvetica,sans-Serif" font-size="10.00">TVector3.h</text>
</g>
<!-- Node18&#45;&gt;Node25 -->
<g id="edge27" class="edge"><title>Node18&#45;&gt;Node25</title>
<path fill="none" stroke="midnightblue" d="M668.822,-181.701C665.843,-181.103 662.889,-180.532 660,-180 547.869,-159.348 516.591,-171.74 406,-144 402.588,-143.144 399.066,-142.106 395.586,-140.979"/>
<polygon fill="midnightblue" stroke="midnightblue" points="396.609,-137.629 386.015,-137.648 394.309,-144.241 396.609,-137.629"/>
</g>
<!-- Node26&#45;&gt;Node11 -->
<g id="edge30" class="edge"><title>Node26&#45;&gt;Node11</title>
<path fill="none" stroke="midnightblue" d="M1404.18,-112.781C1399.53,-104.332 1393.6,-93.5481 1388.66,-84.5693"/>
<polygon fill="midnightblue" stroke="midnightblue" points="1391.69,-82.806 1383.8,-75.7305 1385.55,-86.1794 1391.69,-82.806"/>
</g>
<!-- Node26&#45;&gt;Node13 -->
<g id="edge33" class="edge"><title>Node26&#45;&gt;Node13</title>
<path fill="none" stroke="midnightblue" d="M1386.91,-112.933C1369.51,-103.171 1346.44,-90.2401 1329.23,-80.5856"/>
<polygon fill="midnightblue" stroke="midnightblue" points="1330.77,-77.4383 1320.34,-75.6 1327.35,-83.5439 1330.77,-77.4383"/>
</g>
<!-- Node27 -->
<g id="node27" class="node"><title>Node27</title>
<polygon fill="none" stroke="#bfbfbf" points="1485,-56.5 1485,-75.5 1547,-75.5 1547,-56.5 1485,-56.5"/>
<text text-anchor="middle" x="1516" y="-63.5" font-family="Helvetica,sans-Serif" font-size="10.00">TNamed.h</text>
</g>
<!-- Node26&#45;&gt;Node27 -->
<g id="edge29" class="edge"><title>Node26&#45;&gt;Node27</title>
<path fill="none" stroke="midnightblue" d="M1436.38,-112.933C1453.15,-103.262 1475.3,-90.4793 1491.99,-80.8546"/>
<polygon fill="midnightblue" stroke="midnightblue" points="1494.18,-83.629 1501.09,-75.6 1490.68,-77.5656 1494.18,-83.629"/>
</g>
<!-- Node28 -->
<g id="node28" class="node"><title>Node28</title>
<polygon fill="none" stroke="#bfbfbf" points="1565.5,-56.5 1565.5,-75.5 1624.5,-75.5 1624.5,-56.5 1565.5,-56.5"/>
<text text-anchor="middle" x="1595" y="-63.5" font-family="Helvetica,sans-Serif" font-size="10.00">stdexcept</text>
</g>
<!-- Node26&#45;&gt;Node28 -->
<g id="edge31" class="edge"><title>Node26&#45;&gt;Node28</title>
<path fill="none" stroke="midnightblue" d="M1454.91,-112.933C1486.7,-102.508 1529.53,-88.4667 1559.43,-78.6635"/>
<polygon fill="midnightblue" stroke="midnightblue" points="1560.62,-81.9541 1569.04,-75.5127 1558.44,-75.3025 1560.62,-81.9541"/>
</g>
<!-- Node29 -->
<g id="node29" class="node"><title>Node29</title>
<polygon fill="none" stroke="#bfbfbf" points="1421.5,-56.5 1421.5,-75.5 1466.5,-75.5 1466.5,-56.5 1421.5,-56.5"/>
<text text-anchor="middle" x="1444" y="-63.5" font-family="Helvetica,sans-Serif" font-size="10.00">gsl/gsl</text>
</g>
<!-- Node26&#45;&gt;Node29 -->
<g id="edge32" class="edge"><title>Node26&#45;&gt;Node29</title>
<path fill="none" stroke="midnightblue" d="M1419.58,-112.781C1424.09,-104.332 1429.84,-93.5481 1434.63,-84.5693"/>
<polygon fill="midnightblue" stroke="midnightblue" points="1437.73,-86.2012 1439.34,-75.7305 1431.55,-82.907 1437.73,-86.2012"/>
</g>
<!-- Node30&#45;&gt;Node8 -->
<g id="edge37" class="edge"><title>Node30&#45;&gt;Node8</title>
<path fill="none" stroke="midnightblue" d="M953.094,-181.457C1007.52,-168.278 1081.81,-149.462 1086,-144 1094.66,-132.715 1095.36,-122.705 1086,-112 1047.82,-68.3537 868.946,-65.2777 789.355,-66.1442"/>
<polygon fill="midnightblue" stroke="midnightblue" points="789.209,-62.6457 779.257,-66.2814 789.304,-69.6451 789.209,-62.6457"/>
</g>
<!-- Node30&#45;&gt;Node22 -->
<g id="edge38" class="edge"><title>Node30&#45;&gt;Node22</title>
<path fill="none" stroke="midnightblue" d="M894.264,-180.679C893.103,-171.101 891.563,-158.394 890.3,-147.977"/>
<polygon fill="midnightblue" stroke="midnightblue" points="893.748,-147.334 889.07,-137.828 886.799,-148.177 893.748,-147.334"/>
</g>
<!-- Node31 -->
<g id="node31" class="node"><title>Node31</title>
<polygon fill="none" stroke="#bfbfbf" points="933,-118.5 933,-137.5 1007,-137.5 1007,-118.5 933,-118.5"/>
<text text-anchor="middle" x="970" y="-125.5" font-family="Helvetica,sans-Serif" font-size="10.00">TVirtualMC.h</text>
</g>
<!-- Node30&#45;&gt;Node31 -->
<g id="edge35" class="edge"><title>Node30&#45;&gt;Node31</title>
<path fill="none" stroke="midnightblue" d="M912.057,-180.679C923.938,-170.082 940.115,-155.655 952.356,-144.736"/>
<polygon fill="midnightblue" stroke="midnightblue" points="954.968,-147.097 960.102,-137.828 950.309,-141.872 954.968,-147.097"/>
</g>
<!-- Node32 -->
<g id="node32" class="node"><title>Node32</title>
<polygon fill="none" stroke="#bfbfbf" points="1025,-118.5 1025,-137.5 1077,-137.5 1077,-118.5 1025,-118.5"/>
<text text-anchor="middle" x="1051" y="-125.5" font-family="Helvetica,sans-Serif" font-size="10.00">ostream</text>
</g>
<!-- Node30&#45;&gt;Node32 -->
<g id="edge36" class="edge"><title>Node30&#45;&gt;Node32</title>
<path fill="none" stroke="midnightblue" d="M929.119,-180.956C953.222,-170.728 986.644,-156.529 1016,-144 1017.82,-143.222 1019.7,-142.419 1021.59,-141.61"/>
<polygon fill="midnightblue" stroke="midnightblue" points="1023.2,-144.73 1031.02,-137.577 1020.44,-138.295 1023.2,-144.73"/>
</g>
<!-- Node41 -->
<g id="node41" class="node"><title>Node41</title>
<polygon fill="none" stroke="#bfbfbf" points="1351,-186.5 1351,-205.5 1397,-205.5 1397,-186.5 1351,-186.5"/>
<text text-anchor="middle" x="1374" y="-193.5" font-family="Helvetica,sans-Serif" font-size="10.00">cstring</text>
</g>
<!-- Node40&#45;&gt;Node41 -->
<g id="edge49" class="edge"><title>Node40&#45;&gt;Node41</title>
<path fill="none" stroke="midnightblue" d="M1354.42,-248.679C1358.13,-238.898 1363.07,-225.852 1367.06,-215.315"/>
<polygon fill="midnightblue" stroke="midnightblue" points="1370.39,-216.42 1370.66,-205.828 1363.84,-213.94 1370.39,-216.42"/>
</g>
<!-- Node43 -->
<g id="node43" class="node"><title>Node43</title>
<polygon fill="none" stroke="#bfbfbf" points="1449,-186.5 1449,-205.5 1533,-205.5 1533,-186.5 1449,-186.5"/>
<text text-anchor="middle" x="1491" y="-193.5" font-family="Helvetica,sans-Serif" font-size="10.00">FairGenerator.h</text>
</g>
<!-- Node42&#45;&gt;Node43 -->
<g id="edge51" class="edge"><title>Node42&#45;&gt;Node43</title>
<path fill="none" stroke="midnightblue" d="M1491,-248.679C1491,-239.101 1491,-226.394 1491,-215.977"/>
<polygon fill="midnightblue" stroke="midnightblue" points="1494.5,-215.828 1491,-205.828 1487.5,-215.828 1494.5,-215.828"/>
</g>
<!-- Node44&#45;&gt;Node8 -->
<g id="edge53" class="edge"><title>Node44&#45;&gt;Node8</title>
<path fill="none" stroke="midnightblue" d="M751.431,-254.447C740.481,-252.018 728.288,-249.601 717,-248 658.45,-239.697 226.376,-255.206 186,-212 155.655,-179.528 155.846,-144.651 186,-112 221.643,-73.4057 590.995,-67.8871 712.494,-67.1181"/>
<polygon fill="midnightblue" stroke="midnightblue" points="712.821,-70.6164 722.802,-67.0606 712.782,-63.6165 712.821,-70.6164"/>
</g>
<!-- Node45 -->
<g id="node45" class="node"><title>Node45</title>
<polygon fill="none" stroke="#bfbfbf" points="0,-186.5 0,-205.5 134,-205.5 134,-186.5 0,-186.5"/>
<text text-anchor="middle" x="67" y="-193.5" font-family="Helvetica,sans-Serif" font-size="10.00">boost/program_options.hpp</text>
</g>
<!-- Node44&#45;&gt;Node45 -->
<g id="edge54" class="edge"><title>Node44&#45;&gt;Node45</title>
<path fill="none" stroke="midnightblue" d="M751.788,-254.495C740.747,-252.038 728.413,-249.592 717,-248 466.036,-212.986 399.476,-243.126 148,-212 138.1,-210.775 127.582,-209.104 117.517,-207.32"/>
<polygon fill="midnightblue" stroke="midnightblue" points="118.11,-203.871 107.643,-205.512 116.849,-210.756 118.11,-203.871"/>
</g>
</g>
</svg>
        <g id="navigator" transform="translate(0 0)" fill="#404254">
                <rect fill="#f2f5e9" fill-opacity="0.5" stroke="#606060" stroke-width=".5" x="0" y="0" width="60" height="60"/>
                <use id="zoomplus" xlink:href="#zoomPlus" x="17" y="9" onmousedown="handleZoom(evt,'in')"/>
                <use id="zoomminus" xlink:href="#zoomMin" x="42" y="9" onmousedown="handleZoom(evt,'out')"/>
                <use id="reset" xlink:href="#resetDef" x="30" y="36" onmousedown="handleReset()"/>
                <g id="arrowUp" xlink:href="#dirArrow" transform="translate(30 24)" onmousedown="handlePan(0,-1)">
                  <use xlink:href="#rim" fill="#404040">
                        <set attributeName="fill" to="#808080" begin="arrowUp.mouseover" end="arrowUp.mouseout"/>
                  </use>
                  <path fill="none" stroke="white" stroke-width="1.5" d="M0,-3.0v7 M-2.5,-0.5L0,-3.0L2.5,-0.5"/>
                </g>
                <g id="arrowRight" xlink:href="#dirArrow" transform="rotate(90) translate(36 -43)" onmousedown="handlePan(1,0)">
                  <use xlink:href="#rim" fill="#404040">
                        <set attributeName="fill" to="#808080" begin="arrowRight.mouseover" end="arrowRight.mouseout"/>
                  </use>
                  <path fill="none" stroke="white" stroke-width="1.5" d="M0,-3.0v7 M-2.5,-0.5L0,-3.0L2.5,-0.5"/>
                </g>
                <g id="arrowDown" xlink:href="#dirArrow" transform="rotate(180) translate(-30 -48)" onmousedown="handlePan(0,1)">
                  <use xlink:href="#rim" fill="#404040">
                        <set attributeName="fill" to="#808080" begin="arrowDown.mouseover" end="arrowDown.mouseout"/>
                  </use>
                  <path fill="none" stroke="white" stroke-width="1.5" d="M0,-3.0v7 M-2.5,-0.5L0,-3.0L2.5,-0.5"/>
                </g>
                <g id="arrowLeft" xlink:href="#dirArrow" transform="rotate(270) translate(-36 17)" onmousedown="handlePan(-1,0)">
                  <use xlink:href="#rim" fill="#404040">
                        <set attributeName="fill" to="#808080" begin="arrowLeft.mouseover" end="arrowLeft.mouseout"/>
                  </use>
                  <path fill="none" stroke="white" stroke-width="1.5" d="M0,-3.0v7 M-2.5,-0.5L0,-3.0L2.5,-0.5"/>
                </g>
        </g>
        <svg viewBox="0 0 15 15" width="100%" height="30px" preserveAspectRatio="xMaxYMin meet">
         <g id="arrow_out" transform="scale(0.3 0.3)">
          <a xlink:href="O2PrimaryServerDevice_8h__incl_org.svg" target="_base">
           <rect id="button" ry="5" rx="5" y="6" x="6" height="38" width="38"
                fill="#f2f5e9" fill-opacity="0.5" stroke="#606060" stroke-width="1.0"/>
           <path id="arrow"
             d="M 11.500037,31.436501 C 11.940474,20.09759 22.043105,11.32322 32.158766,21.979434 L 37.068811,17.246167 C 37.068811,17.246167 37.088388,32 37.088388,32 L 22.160133,31.978069 C 22.160133,31.978069 26.997745,27.140456 26.997745,27.140456 C 18.528582,18.264221 13.291696,25.230495 11.500037,31.436501 z"
             style="fill:#404040;"/>
          </a>
         </g>
        </svg>
</svg>
