<?xml version="1.0" encoding="UTF-8" standalone="no"?>
<!DOCTYPE svg PUBLIC "-//W3C//DTD SVG 1.1//EN"
 "http://www.w3.org/Graphics/SVG/1.1/DTD/svg11.dtd">
<!-- Generated by graphviz version 2.36.0 (20140111.2315)
 -->
<!-- Title: /home/travis/build/AliceO2Group/AliceO2/Detectors/TPC/simulation/include/TPCSimulation/Detector.h Pages: 1 -->
<svg width="2313pt" height="378pt"
 viewBox="0.00 0.00 2313.00 378.00" xmlns="http://www.w3.org/2000/svg" xmlns:xlink="http://www.w3.org/1999/xlink">
<g id="graph0" class="graph" transform="scale(1 1) rotate(0) translate(4 374)">
<title>/home/travis/build/AliceO2Group/AliceO2/Detectors/TPC/simulation/include/TPCSimulation/Detector.h</title>
<!-- Node1 -->
<g id="node1" class="node"><title>Node1</title>
<polygon fill="#bfbfbf" stroke="black" points="1145,-317 1145,-369 1313,-369 1313,-317 1145,-317"/>
<text text-anchor="start" x="1153" y="-357" font-family="Helvetica,sans-Serif" font-size="10.00">/home/travis/build</text>
<text text-anchor="start" x="1153" y="-346" font-family="Helvetica,sans-Serif" font-size="10.00">/AliceO2Group/AliceO2</text>
<text text-anchor="start" x="1153" y="-335" font-family="Helvetica,sans-Serif" font-size="10.00">/Detectors/TPC/simulation</text>
<text text-anchor="middle" x="1229" y="-324" font-family="Helvetica,sans-Serif" font-size="10.00">/include/TPCSimulation/Detector.h</text>
</g>
<!-- Node2 -->
<g id="node2" class="node"><title>Node2</title>
<g id="a_node2"><a xlink:href="../../d1/d3a/Base_2include_2DetectorsBase_2Detector_8h.html" target="_top" xlink:title="DetectorsBase/Detector.h">
<polygon fill="none" stroke="black" points="1387.5,-260.5 1387.5,-279.5 1518.5,-279.5 1518.5,-260.5 1387.5,-260.5"/>
<text text-anchor="middle" x="1453" y="-267.5" font-family="Helvetica,sans-Serif" font-size="10.00">DetectorsBase/Detector.h</text>
</a>
</g>
</g>
<!-- Node1&#45;&gt;Node2 -->
<g id="edge1" class="edge"><title>Node1&#45;&gt;Node2</title>
<path fill="none" stroke="midnightblue" d="M1307.97,-316.968C1344.82,-305.29 1386.9,-291.951 1416.21,-282.662"/>
<polygon fill="midnightblue" stroke="midnightblue" points="1417.54,-285.912 1426.01,-279.554 1415.42,-279.239 1417.54,-285.912"/>
</g>
<!-- Node10 -->
<g id="node10" class="node"><title>Node10</title>
<polygon fill="none" stroke="#bfbfbf" points="1287,-74.5 1287,-93.5 1343,-93.5 1343,-74.5 1287,-74.5"/>
<text text-anchor="middle" x="1315" y="-81.5" font-family="Helvetica,sans-Serif" font-size="10.00">Rtypes.h</text>
</g>
<!-- Node1&#45;&gt;Node10 -->
<g id="edge22" class="edge"><title>Node1&#45;&gt;Node10</title>
<path fill="none" stroke="midnightblue" d="M1144.78,-339.104C1008.53,-331.205 762.596,-301.758 842,-192 958.082,-31.5426 1086.6,-150.883 1278,-100 1280.99,-99.2064 1284.05,-98.2346 1287.08,-97.1706"/>
<polygon fill="midnightblue" stroke="midnightblue" points="1288.4,-100.412 1296.49,-93.5635 1285.9,-93.876 1288.4,-100.412"/>
</g>
<!-- Node20 -->
<g id="node20" class="node"><title>Node20</title>
<polygon fill="none" stroke="#bfbfbf" points="1537,-260.5 1537,-279.5 1629,-279.5 1629,-260.5 1537,-260.5"/>
<text text-anchor="middle" x="1583" y="-267.5" font-family="Helvetica,sans-Serif" font-size="10.00">TLorentzVector.h</text>
</g>
<!-- Node1&#45;&gt;Node20 -->
<g id="edge23" class="edge"><title>Node1&#45;&gt;Node20</title>
<path fill="none" stroke="midnightblue" d="M1313.34,-325.084C1380.86,-311.541 1473.44,-292.974 1530.68,-281.494"/>
<polygon fill="midnightblue" stroke="midnightblue" points="1531.48,-284.904 1540.59,-279.506 1530.1,-278.04 1531.48,-284.904"/>
</g>
<!-- Node21 -->
<g id="node21" class="node"><title>Node21</title>
<polygon fill="none" stroke="#bfbfbf" points="1647,-260.5 1647,-279.5 1703,-279.5 1703,-260.5 1647,-260.5"/>
<text text-anchor="middle" x="1675" y="-267.5" font-family="Helvetica,sans-Serif" font-size="10.00">TString.h</text>
</g>
<!-- Node1&#45;&gt;Node21 -->
<g id="edge24" class="edge"><title>Node1&#45;&gt;Node21</title>
<path fill="none" stroke="midnightblue" d="M1313.19,-331.446C1393.88,-320.826 1519.23,-303.011 1636.87,-280.083"/>
<polygon fill="midnightblue" stroke="midnightblue" points="1637.64,-283.5 1646.77,-278.137 1636.29,-276.631 1637.64,-283.5"/>
</g>
<!-- Node22 -->
<g id="node22" class="node"><title>Node22</title>
<g id="a_node22"><a xlink:href="../../d4/de5/Point_8h.html" target="_top" xlink:title="Class for TPC Point. ">
<polygon fill="none" stroke="black" points="947,-260.5 947,-279.5 1063,-279.5 1063,-260.5 947,-260.5"/>
<text text-anchor="middle" x="1005" y="-267.5" font-family="Helvetica,sans-Serif" font-size="10.00">TPCSimulation/Point.h</text>
</a>
</g>
</g>
<!-- Node1&#45;&gt;Node22 -->
<g id="edge25" class="edge"><title>Node1&#45;&gt;Node22</title>
<path fill="none" stroke="midnightblue" d="M1150.03,-316.968C1113.18,-305.29 1071.1,-291.951 1041.79,-282.662"/>
<polygon fill="midnightblue" stroke="midnightblue" points="1042.58,-279.239 1031.99,-279.554 1040.46,-285.912 1042.58,-279.239"/>
</g>
<!-- Node35 -->
<g id="node35" class="node"><title>Node35</title>
<g id="a_node35"><a xlink:href="../../d3/dd6/Sector_8h.html" target="_top" xlink:title="TPCBase/Sector.h">
<polygon fill="none" stroke="black" points="668.5,-260.5 668.5,-279.5 767.5,-279.5 767.5,-260.5 668.5,-260.5"/>
<text text-anchor="middle" x="718" y="-267.5" font-family="Helvetica,sans-Serif" font-size="10.00">TPCBase/Sector.h</text>
</a>
</g>
</g>
<!-- Node1&#45;&gt;Node35 -->
<g id="edge40" class="edge"><title>Node1&#45;&gt;Node35</title>
<path fill="none" stroke="midnightblue" d="M1144.91,-330.316C1041.52,-315.95 868.629,-291.929 777.84,-279.314"/>
<polygon fill="midnightblue" stroke="midnightblue" points="778.105,-275.818 767.718,-277.908 777.141,-282.751 778.105,-275.818"/>
</g>
<!-- Node3 -->
<g id="node3" class="node"><title>Node3</title>
<polygon fill="none" stroke="#bfbfbf" points="1021.5,-136.5 1021.5,-155.5 1056.5,-155.5 1056.5,-136.5 1021.5,-136.5"/>
<text text-anchor="middle" x="1039" y="-143.5" font-family="Helvetica,sans-Serif" font-size="10.00">map</text>
</g>
<!-- Node2&#45;&gt;Node3 -->
<g id="edge2" class="edge"><title>Node2&#45;&gt;Node3</title>
<path fill="none" stroke="midnightblue" d="M1387.19,-266.667C1298.41,-262.511 1145.87,-251.508 1098,-224 1074.22,-210.337 1056.82,-182.899 1047.31,-164.74"/>
<polygon fill="midnightblue" stroke="midnightblue" points="1050.42,-163.151 1042.84,-155.752 1044.16,-166.265 1050.42,-163.151"/>
</g>
<!-- Node4 -->
<g id="node4" class="node"><title>Node4</title>
<polygon fill="none" stroke="#bfbfbf" points="983,-198.5 983,-217.5 1027,-217.5 1027,-198.5 983,-198.5"/>
<text text-anchor="middle" x="1005" y="-205.5" font-family="Helvetica,sans-Serif" font-size="10.00">vector</text>
</g>
<!-- Node2&#45;&gt;Node4 -->
<g id="edge3" class="edge"><title>Node2&#45;&gt;Node4</title>
<path fill="none" stroke="midnightblue" d="M1387.39,-267.59C1305.22,-264.52 1160.68,-254.789 1041,-224 1038.01,-223.232 1034.95,-222.263 1031.93,-221.188"/>
<polygon fill="midnightblue" stroke="midnightblue" points="1033.19,-217.919 1022.6,-217.513 1030.62,-224.432 1033.19,-217.919"/>
</g>
<!-- Node5 -->
<g id="node5" class="node"><title>Node5</title>
<polygon fill="none" stroke="#bfbfbf" points="1074.5,-136.5 1074.5,-155.5 1147.5,-155.5 1147.5,-136.5 1074.5,-136.5"/>
<text text-anchor="middle" x="1111" y="-143.5" font-family="Helvetica,sans-Serif" font-size="10.00">initializer_list</text>
</g>
<!-- Node2&#45;&gt;Node5 -->
<g id="edge4" class="edge"><title>Node2&#45;&gt;Node5</title>
<path fill="none" stroke="midnightblue" d="M1387.35,-264.905C1293.43,-258.371 1129.97,-244.23 1112,-224 1098.09,-208.339 1100.83,-183.005 1105.05,-165.705"/>
<polygon fill="midnightblue" stroke="midnightblue" points="1108.54,-166.254 1107.88,-155.679 1101.8,-164.354 1108.54,-166.254"/>
</g>
<!-- Node6 -->
<g id="node6" class="node"><title>Node6</title>
<polygon fill="none" stroke="#bfbfbf" points="1343,-198.5 1343,-217.5 1395,-217.5 1395,-198.5 1343,-198.5"/>
<text text-anchor="middle" x="1369" y="-205.5" font-family="Helvetica,sans-Serif" font-size="10.00">memory</text>
</g>
<!-- Node2&#45;&gt;Node6 -->
<g id="edge5" class="edge"><title>Node2&#45;&gt;Node6</title>
<path fill="none" stroke="midnightblue" d="M1440.96,-260.403C1427.49,-250.78 1405.43,-235.024 1389.28,-223.489"/>
<polygon fill="midnightblue" stroke="midnightblue" points="1391.18,-220.545 1381.01,-217.581 1387.12,-226.241 1391.18,-220.545"/>
</g>
<!-- Node7 -->
<g id="node7" class="node"><title>Node7</title>
<polygon fill="none" stroke="#bfbfbf" points="1413.5,-198.5 1413.5,-217.5 1492.5,-217.5 1492.5,-198.5 1413.5,-198.5"/>
<text text-anchor="middle" x="1453" y="-205.5" font-family="Helvetica,sans-Serif" font-size="10.00">FairDetector.h</text>
</g>
<!-- Node2&#45;&gt;Node7 -->
<g id="edge6" class="edge"><title>Node2&#45;&gt;Node7</title>
<path fill="none" stroke="midnightblue" d="M1453,-260.403C1453,-251.938 1453,-238.728 1453,-227.82"/>
<polygon fill="midnightblue" stroke="midnightblue" points="1456.5,-227.581 1453,-217.581 1449.5,-227.581 1456.5,-227.581"/>
</g>
<!-- Node8 -->
<g id="node8" class="node"><title>Node8</title>
<polygon fill="none" stroke="#bfbfbf" points="1511,-198.5 1511,-217.5 1611,-217.5 1611,-198.5 1511,-198.5"/>
<text text-anchor="middle" x="1561" y="-205.5" font-family="Helvetica,sans-Serif" font-size="10.00">FairRootManager.h</text>
</g>
<!-- Node2&#45;&gt;Node8 -->
<g id="edge7" class="edge"><title>Node2&#45;&gt;Node8</title>
<path fill="none" stroke="midnightblue" d="M1468.47,-260.403C1486.28,-250.512 1515.74,-234.144 1536.63,-222.538"/>
<polygon fill="midnightblue" stroke="midnightblue" points="1538.51,-225.497 1545.55,-217.581 1535.11,-219.378 1538.51,-225.497"/>
</g>
<!-- Node9 -->
<g id="node9" class="node"><title>Node9</title>
<g id="a_node9"><a xlink:href="../../d0/d9a/MaterialManager_8h.html" target="_top" xlink:title="DetectorsBase/MaterialManager.h">
<polygon fill="none" stroke="black" points="1121.5,-198.5 1121.5,-217.5 1286.5,-217.5 1286.5,-198.5 1121.5,-198.5"/>
<text text-anchor="middle" x="1204" y="-205.5" font-family="Helvetica,sans-Serif" font-size="10.00">DetectorsBase/MaterialManager.h</text>
</a>
</g>
</g>
<!-- Node2&#45;&gt;Node9 -->
<g id="edge8" class="edge"><title>Node2&#45;&gt;Node9</title>
<path fill="none" stroke="midnightblue" d="M1417.59,-260.467C1373.34,-249.805 1297.56,-231.545 1249.18,-219.886"/>
<polygon fill="midnightblue" stroke="midnightblue" points="1249.83,-216.443 1239.29,-217.503 1248.19,-223.249 1249.83,-216.443"/>
</g>
<!-- Node2&#45;&gt;Node10 -->
<g id="edge13" class="edge"><title>Node2&#45;&gt;Node10</title>
<path fill="none" stroke="midnightblue" d="M1396.11,-260.416C1373.46,-254.086 1349.21,-243.092 1334,-224 1306.14,-189.015 1308.47,-132.703 1312.02,-103.659"/>
<polygon fill="midnightblue" stroke="midnightblue" points="1315.5,-104.038 1313.42,-93.648 1308.57,-103.063 1315.5,-104.038"/>
</g>
<!-- Node12 -->
<g id="node12" class="node"><title>Node12</title>
<polygon fill="none" stroke="#bfbfbf" points="1629.5,-198.5 1629.5,-217.5 1682.5,-217.5 1682.5,-198.5 1629.5,-198.5"/>
<text text-anchor="middle" x="1656" y="-205.5" font-family="Helvetica,sans-Serif" font-size="10.00">cxxabi.h</text>
</g>
<!-- Node2&#45;&gt;Node12 -->
<g id="edge14" class="edge"><title>Node2&#45;&gt;Node12</title>
<path fill="none" stroke="midnightblue" d="M1490.23,-260.456C1524.36,-252.276 1576.1,-238.989 1620,-224 1622.41,-223.177 1624.89,-222.272 1627.37,-221.326"/>
<polygon fill="midnightblue" stroke="midnightblue" points="1628.77,-224.536 1636.75,-217.57 1626.16,-218.038 1628.77,-224.536"/>
</g>
<!-- Node13 -->
<g id="node13" class="node"><title>Node13</title>
<polygon fill="none" stroke="#bfbfbf" points="1700.5,-198.5 1700.5,-217.5 1751.5,-217.5 1751.5,-198.5 1700.5,-198.5"/>
<text text-anchor="middle" x="1726" y="-205.5" font-family="Helvetica,sans-Serif" font-size="10.00">typeinfo</text>
</g>
<!-- Node2&#45;&gt;Node13 -->
<g id="edge15" class="edge"><title>Node2&#45;&gt;Node13</title>
<path fill="none" stroke="midnightblue" d="M1518.57,-260.535C1566.9,-253.352 1633.88,-241.411 1691,-224 1693.49,-223.241 1696.04,-222.361 1698.58,-221.414"/>
<polygon fill="midnightblue" stroke="midnightblue" points="1700.16,-224.55 1708.12,-217.553 1697.53,-218.062 1700.16,-224.55"/>
</g>
<!-- Node14 -->
<g id="node14" class="node"><title>Node14</title>
<polygon fill="none" stroke="#bfbfbf" points="1770,-198.5 1770,-217.5 1832,-217.5 1832,-198.5 1770,-198.5"/>
<text text-anchor="middle" x="1801" y="-205.5" font-family="Helvetica,sans-Serif" font-size="10.00">type_traits</text>
</g>
<!-- Node2&#45;&gt;Node14 -->
<g id="edge16" class="edge"><title>Node2&#45;&gt;Node14</title>
<path fill="none" stroke="midnightblue" d="M1518.63,-260.984C1594.8,-251.4 1715.61,-235.245 1760,-224 1763.41,-223.136 1766.93,-222.093 1770.41,-220.963"/>
<polygon fill="midnightblue" stroke="midnightblue" points="1771.69,-224.224 1779.98,-217.628 1769.39,-217.613 1771.69,-224.224"/>
</g>
<!-- Node15 -->
<g id="node15" class="node"><title>Node15</title>
<polygon fill="none" stroke="#bfbfbf" points="1850.5,-198.5 1850.5,-217.5 1891.5,-217.5 1891.5,-198.5 1850.5,-198.5"/>
<text text-anchor="middle" x="1871" y="-205.5" font-family="Helvetica,sans-Serif" font-size="10.00">string</text>
</g>
<!-- Node2&#45;&gt;Node15 -->
<g id="edge17" class="edge"><title>Node2&#45;&gt;Node15</title>
<path fill="none" stroke="midnightblue" d="M1518.85,-261.081C1521.94,-260.714 1525,-260.353 1528,-260 1666.63,-243.684 1705.96,-262.947 1840,-224 1842.19,-223.363 1844.42,-222.582 1846.63,-221.715"/>
<polygon fill="midnightblue" stroke="midnightblue" points="1848.26,-224.818 1855.95,-217.534 1845.4,-218.43 1848.26,-224.818"/>
</g>
<!-- Node16 -->
<g id="node16" class="node"><title>Node16</title>
<polygon fill="none" stroke="#bfbfbf" points="1909.5,-198.5 1909.5,-217.5 2002.5,-217.5 2002.5,-198.5 1909.5,-198.5"/>
<text text-anchor="middle" x="1956" y="-205.5" font-family="Helvetica,sans-Serif" font-size="10.00">FairMQChannel.h</text>
</g>
<!-- Node2&#45;&gt;Node16 -->
<g id="edge18" class="edge"><title>Node2&#45;&gt;Node16</title>
<path fill="none" stroke="midnightblue" d="M1518.84,-261.013C1521.94,-260.664 1525,-260.325 1528,-260 1693.14,-242.103 1736.55,-253.59 1900,-224 1905.84,-222.943 1911.95,-221.578 1917.91,-220.102"/>
<polygon fill="midnightblue" stroke="midnightblue" points="1918.92,-223.457 1927.72,-217.55 1917.16,-216.683 1918.92,-223.457"/>
</g>
<!-- Node17 -->
<g id="node17" class="node"><title>Node17</title>
<polygon fill="none" stroke="#bfbfbf" points="2020.5,-198.5 2020.5,-217.5 2117.5,-217.5 2117.5,-198.5 2020.5,-198.5"/>
<text text-anchor="middle" x="2069" y="-205.5" font-family="Helvetica,sans-Serif" font-size="10.00">FairMQMessage.h</text>
</g>
<!-- Node2&#45;&gt;Node17 -->
<g id="edge19" class="edge"><title>Node2&#45;&gt;Node17</title>
<path fill="none" stroke="midnightblue" d="M1518.83,-260.93C1521.93,-260.604 1525,-260.292 1528,-260 1742.25,-239.171 1798.62,-259.089 2011,-224 2017.33,-222.954 2023.98,-221.541 2030.42,-219.999"/>
<polygon fill="midnightblue" stroke="midnightblue" points="2031.47,-223.345 2040.31,-217.503 2029.75,-216.558 2031.47,-223.345"/>
</g>
<!-- Node18 -->
<g id="node18" class="node"><title>Node18</title>
<polygon fill="none" stroke="#bfbfbf" points="2136,-198.5 2136,-217.5 2216,-217.5 2216,-198.5 2136,-198.5"/>
<text text-anchor="middle" x="2176" y="-205.5" font-family="Helvetica,sans-Serif" font-size="10.00">FairMQParts.h</text>
</g>
<!-- Node2&#45;&gt;Node18 -->
<g id="edge20" class="edge"><title>Node2&#45;&gt;Node18</title>
<path fill="none" stroke="midnightblue" d="M1518.83,-260.877C1521.93,-260.565 1525,-260.27 1528,-260 1793.19,-236.128 1863.84,-270.566 2126,-224 2131.17,-223.082 2136.55,-221.813 2141.79,-220.397"/>
<polygon fill="midnightblue" stroke="midnightblue" points="2142.98,-223.699 2151.6,-217.549 2141.03,-216.976 2142.98,-223.699"/>
</g>
<!-- Node19 -->
<g id="node19" class="node"><title>Node19</title>
<polygon fill="none" stroke="#bfbfbf" points="2234.5,-198.5 2234.5,-217.5 2305.5,-217.5 2305.5,-198.5 2234.5,-198.5"/>
<text text-anchor="middle" x="2270" y="-205.5" font-family="Helvetica,sans-Serif" font-size="10.00">TMessage.h</text>
</g>
<!-- Node2&#45;&gt;Node19 -->
<g id="edge21" class="edge"><title>Node2&#45;&gt;Node19</title>
<path fill="none" stroke="midnightblue" d="M1518.82,-260.845C1521.92,-260.542 1524.99,-260.258 1528,-260 1837.06,-233.506 1920.2,-281.57 2225,-224 2229.49,-223.152 2234.15,-221.966 2238.69,-220.63"/>
<polygon fill="midnightblue" stroke="midnightblue" points="2239.89,-223.922 2248.34,-217.534 2237.75,-217.256 2239.89,-223.922"/>
</g>
<!-- Node9&#45;&gt;Node3 -->
<g id="edge10" class="edge"><title>Node9&#45;&gt;Node3</title>
<path fill="none" stroke="midnightblue" d="M1180.36,-198.403C1150.13,-187.41 1097.89,-168.414 1066.08,-156.849"/>
<polygon fill="midnightblue" stroke="midnightblue" points="1067.12,-153.503 1056.53,-153.375 1064.73,-160.082 1067.12,-153.503"/>
</g>
<!-- Node9&#45;&gt;Node5 -->
<g id="edge12" class="edge"><title>Node9&#45;&gt;Node5</title>
<path fill="none" stroke="midnightblue" d="M1190.68,-198.403C1175.62,-188.691 1150.88,-172.732 1132.96,-161.17"/>
<polygon fill="midnightblue" stroke="midnightblue" points="1134.6,-158.061 1124.3,-155.581 1130.81,-163.943 1134.6,-158.061"/>
</g>
<!-- Node9&#45;&gt;Node10 -->
<g id="edge9" class="edge"><title>Node9&#45;&gt;Node10</title>
<path fill="none" stroke="midnightblue" d="M1213.72,-198.301C1224.61,-188.402 1242.63,-171.585 1257,-156 1273.44,-138.169 1290.86,-116.41 1302.26,-101.717"/>
<polygon fill="midnightblue" stroke="midnightblue" points="1305.2,-103.639 1308.53,-93.5799 1299.65,-99.3693 1305.2,-103.639"/>
</g>
<!-- Node11 -->
<g id="node11" class="node"><title>Node11</title>
<polygon fill="none" stroke="#bfbfbf" points="1165.5,-136.5 1165.5,-155.5 1248.5,-155.5 1248.5,-136.5 1165.5,-136.5"/>
<text text-anchor="middle" x="1207" y="-143.5" font-family="Helvetica,sans-Serif" font-size="10.00">unordered_map</text>
</g>
<!-- Node9&#45;&gt;Node11 -->
<g id="edge11" class="edge"><title>Node9&#45;&gt;Node11</title>
<path fill="none" stroke="midnightblue" d="M1204.43,-198.403C1204.85,-189.938 1205.51,-176.728 1206.06,-165.82"/>
<polygon fill="midnightblue" stroke="midnightblue" points="1209.57,-165.743 1206.57,-155.581 1202.58,-165.393 1209.57,-165.743"/>
</g>
<!-- Node22&#45;&gt;Node4 -->
<g id="edge39" class="edge"><title>Node22&#45;&gt;Node4</title>
<path fill="none" stroke="midnightblue" d="M1005,-260.403C1005,-251.938 1005,-238.728 1005,-227.82"/>
<polygon fill="midnightblue" stroke="midnightblue" points="1008.5,-227.581 1005,-217.581 1001.5,-227.581 1008.5,-227.581"/>
</g>
<!-- Node23 -->
<g id="node23" class="node"><title>Node23</title>
<g id="a_node23"><a xlink:href="../../d4/d25/BaseHits_8h.html" target="_top" xlink:title="SimulationDataFormat\l/BaseHits.h">
<polygon fill="none" stroke="black" points="851,-193 851,-223 965,-223 965,-193 851,-193"/>
<text text-anchor="start" x="859" y="-211" font-family="Helvetica,sans-Serif" font-size="10.00">SimulationDataFormat</text>
<text text-anchor="middle" x="908" y="-200" font-family="Helvetica,sans-Serif" font-size="10.00">/BaseHits.h</text>
</a>
</g>
</g>
<!-- Node22&#45;&gt;Node23 -->
<g id="edge26" class="edge"><title>Node22&#45;&gt;Node23</title>
<path fill="none" stroke="midnightblue" d="M991.102,-260.403C977.719,-252.125 957.002,-239.311 939.602,-228.547"/>
<polygon fill="midnightblue" stroke="midnightblue" points="941.207,-225.425 930.861,-223.141 937.524,-231.378 941.207,-225.425"/>
</g>
<!-- Node24 -->
<g id="node24" class="node"><title>Node24</title>
<g id="a_node24"><a xlink:href="../../dd/d76/Cartesian3D_8h.html" target="_top" xlink:title="MathUtils/Cartesian3D.h">
<polygon fill="none" stroke="black" points="600.5,-136.5 600.5,-155.5 725.5,-155.5 725.5,-136.5 600.5,-136.5"/>
<text text-anchor="middle" x="663" y="-143.5" font-family="Helvetica,sans-Serif" font-size="10.00">MathUtils/Cartesian3D.h</text>
</a>
</g>
</g>
<!-- Node23&#45;&gt;Node24 -->
<g id="edge27" class="edge"><title>Node23&#45;&gt;Node24</title>
<path fill="none" stroke="midnightblue" d="M850.868,-193.008C807.2,-182.314 747.86,-167.782 707.642,-157.933"/>
<polygon fill="midnightblue" stroke="midnightblue" points="708.395,-154.514 697.85,-155.535 706.73,-161.313 708.395,-154.514"/>
</g>
<!-- Node24&#45;&gt;Node10 -->
<g id="edge33" class="edge"><title>Node24&#45;&gt;Node10</title>
<path fill="none" stroke="midnightblue" d="M725.525,-140.952C876.668,-131.094 1251.41,-106.2 1278,-100 1281.07,-99.2833 1284.22,-98.347 1287.33,-97.292"/>
<polygon fill="midnightblue" stroke="midnightblue" points="1288.82,-100.468 1296.93,-93.6404 1286.33,-93.9251 1288.82,-100.468"/>
</g>
<!-- Node25 -->
<g id="node25" class="node"><title>Node25</title>
<polygon fill="none" stroke="#bfbfbf" points="404.5,-69 404.5,-99 555.5,-99 555.5,-69 404.5,-69"/>
<text text-anchor="start" x="412.5" y="-87" font-family="Helvetica,sans-Serif" font-size="10.00">Math/GenVector/Displacement</text>
<text text-anchor="middle" x="480" y="-76" font-family="Helvetica,sans-Serif" font-size="10.00">Vector3D.h</text>
</g>
<!-- Node24&#45;&gt;Node25 -->
<g id="edge28" class="edge"><title>Node24&#45;&gt;Node25</title>
<path fill="none" stroke="midnightblue" d="M636.781,-136.403C609.705,-127.526 566.718,-113.432 532.598,-102.245"/>
<polygon fill="midnightblue" stroke="midnightblue" points="533.37,-98.8151 522.777,-99.0253 531.189,-105.467 533.37,-98.8151"/>
</g>
<!-- Node26 -->
<g id="node26" class="node"><title>Node26</title>
<polygon fill="none" stroke="#bfbfbf" points="574,-74.5 574,-93.5 750,-93.5 750,-74.5 574,-74.5"/>
<text text-anchor="middle" x="662" y="-81.5" font-family="Helvetica,sans-Serif" font-size="10.00">Math/GenVector/PositionVector3D.h</text>
</g>
<!-- Node24&#45;&gt;Node26 -->
<g id="edge29" class="edge"><title>Node24&#45;&gt;Node26</title>
<path fill="none" stroke="midnightblue" d="M662.857,-136.403C662.716,-127.938 662.495,-114.728 662.314,-103.82"/>
<polygon fill="midnightblue" stroke="midnightblue" points="665.809,-103.521 662.143,-93.5806 658.81,-103.638 665.809,-103.521"/>
</g>
<!-- Node27 -->
<g id="node27" class="node"><title>Node27</title>
<polygon fill="none" stroke="#bfbfbf" points="767.5,-74.5 767.5,-93.5 916.5,-93.5 916.5,-74.5 767.5,-74.5"/>
<text text-anchor="middle" x="842" y="-81.5" font-family="Helvetica,sans-Serif" font-size="10.00">Math/GenVector/Rotation3D.h</text>
</g>
<!-- Node24&#45;&gt;Node27 -->
<g id="edge30" class="edge"><title>Node24&#45;&gt;Node27</title>
<path fill="none" stroke="midnightblue" d="M688.646,-136.403C719.617,-126.022 771.873,-108.506 806.651,-96.849"/>
<polygon fill="midnightblue" stroke="midnightblue" points="808.032,-100.077 816.401,-93.5806 805.807,-93.4403 808.032,-100.077"/>
</g>
<!-- Node28 -->
<g id="node28" class="node"><title>Node28</title>
<polygon fill="none" stroke="#bfbfbf" points="935,-74.5 935,-93.5 1091,-93.5 1091,-74.5 935,-74.5"/>
<text text-anchor="middle" x="1013" y="-81.5" font-family="Helvetica,sans-Serif" font-size="10.00">Math/GenVector/Transform3D.h</text>
</g>
<!-- Node24&#45;&gt;Node28 -->
<g id="edge31" class="edge"><title>Node24&#45;&gt;Node28</title>
<path fill="none" stroke="midnightblue" d="M712.775,-136.467C776.143,-125.604 885.513,-106.855 953.298,-95.2346"/>
<polygon fill="midnightblue" stroke="midnightblue" points="954.132,-98.6428 963.397,-93.5034 952.949,-91.7434 954.132,-98.6428"/>
</g>
<!-- Node29 -->
<g id="node29" class="node"><title>Node29</title>
<polygon fill="none" stroke="#bfbfbf" points="1109,-74.5 1109,-93.5 1269,-93.5 1269,-74.5 1109,-74.5"/>
<text text-anchor="middle" x="1189" y="-81.5" font-family="Helvetica,sans-Serif" font-size="10.00">Math/GenVector/Translation3D.h</text>
</g>
<!-- Node24&#45;&gt;Node29 -->
<g id="edge32" class="edge"><title>Node24&#45;&gt;Node29</title>
<path fill="none" stroke="midnightblue" d="M725.748,-139.817C810.759,-132.503 967.173,-118.013 1100,-100 1110.35,-98.5958 1121.35,-96.9052 1131.96,-95.1729"/>
<polygon fill="midnightblue" stroke="midnightblue" points="1132.68,-98.6007 1141.97,-93.5071 1131.53,-91.6956 1132.68,-98.6007"/>
</g>
<!-- Node30 -->
<g id="node30" class="node"><title>Node30</title>
<polygon fill="none" stroke="#bfbfbf" points="247,-74.5 247,-93.5 323,-93.5 323,-74.5 247,-74.5"/>
<text text-anchor="middle" x="285" y="-81.5" font-family="Helvetica,sans-Serif" font-size="10.00">TGeoMatrix.h</text>
</g>
<!-- Node24&#45;&gt;Node30 -->
<g id="edge34" class="edge"><title>Node24&#45;&gt;Node30</title>
<path fill="none" stroke="midnightblue" d="M600.273,-137.07C511.609,-125.77 357.527,-105.763 332,-100 327.77,-99.0452 323.375,-97.8814 319.046,-96.6286"/>
<polygon fill="midnightblue" stroke="midnightblue" points="319.759,-93.1863 309.172,-93.6005 317.707,-99.8787 319.759,-93.1863"/>
</g>
<!-- Node31 -->
<g id="node31" class="node"><title>Node31</title>
<polygon fill="none" stroke="#bfbfbf" points="341.5,-74.5 341.5,-93.5 386.5,-93.5 386.5,-74.5 341.5,-74.5"/>
<text text-anchor="middle" x="364" y="-81.5" font-family="Helvetica,sans-Serif" font-size="10.00">iosfwd</text>
</g>
<!-- Node24&#45;&gt;Node31 -->
<g id="edge35" class="edge"><title>Node24&#45;&gt;Node31</title>
<path fill="none" stroke="midnightblue" d="M600.451,-136.592C533.614,-127.235 432.254,-111.872 395,-100 392.871,-99.3215 390.703,-98.5214 388.552,-97.6496"/>
<polygon fill="midnightblue" stroke="midnightblue" points="389.969,-94.4489 379.414,-93.5243 387.088,-100.829 389.969,-94.4489"/>
</g>
<!-- Node32 -->
<g id="node32" class="node"><title>Node32</title>
<g id="a_node32"><a xlink:href="../../d2/dd0/Cartesian2D_8h.html" target="_top" xlink:title="MathUtils/Cartesian2D.h">
<polygon fill="none" stroke="black" points="103.5,-74.5 103.5,-93.5 228.5,-93.5 228.5,-74.5 103.5,-74.5"/>
<text text-anchor="middle" x="166" y="-81.5" font-family="Helvetica,sans-Serif" font-size="10.00">MathUtils/Cartesian2D.h</text>
</a>
</g>
</g>
<!-- Node24&#45;&gt;Node32 -->
<g id="edge36" class="edge"><title>Node24&#45;&gt;Node32</title>
<path fill="none" stroke="midnightblue" d="M600.181,-137.062C597.078,-136.697 594.004,-136.341 591,-136 434.303,-118.219 393.848,-124.115 238,-100 229.926,-98.7507 221.391,-97.1889 213.128,-95.5488"/>
<polygon fill="midnightblue" stroke="midnightblue" points="213.734,-92.1003 203.235,-93.5252 212.331,-98.9583 213.734,-92.1003"/>
</g>
<!-- Node33 -->
<g id="node33" class="node"><title>Node33</title>
<polygon fill="none" stroke="#bfbfbf" points="-0.5,-1 -0.5,-31 150.5,-31 150.5,-1 -0.5,-1"/>
<text text-anchor="start" x="7.5" y="-19" font-family="Helvetica,sans-Serif" font-size="10.00">Math/GenVector/Displacement</text>
<text text-anchor="middle" x="75" y="-8" font-family="Helvetica,sans-Serif" font-size="10.00">Vector2D.h</text>
</g>
<!-- Node32&#45;&gt;Node33 -->
<g id="edge37" class="edge"><title>Node32&#45;&gt;Node33</title>
<path fill="none" stroke="midnightblue" d="M154.103,-74.3717C141.221,-65.0286 120.22,-49.7966 103.093,-37.375"/>
<polygon fill="midnightblue" stroke="midnightblue" points="104.703,-34.2194 94.5532,-31.1815 100.593,-39.8859 104.703,-34.2194"/>
</g>
<!-- Node34 -->
<g id="node34" class="node"><title>Node34</title>
<polygon fill="none" stroke="#bfbfbf" points="169,-6.5 169,-25.5 345,-25.5 345,-6.5 169,-6.5"/>
<text text-anchor="middle" x="257" y="-13.5" font-family="Helvetica,sans-Serif" font-size="10.00">Math/GenVector/PositionVector2D.h</text>
</g>
<!-- Node32&#45;&gt;Node34 -->
<g id="edge38" class="edge"><title>Node32&#45;&gt;Node34</title>
<path fill="none" stroke="midnightblue" d="M177.897,-74.3717C192.884,-63.5015 218.862,-44.6602 236.942,-31.5474"/>
<polygon fill="midnightblue" stroke="midnightblue" points="239.06,-34.3349 245.1,-25.6305 234.95,-28.6684 239.06,-34.3349"/>
</g>
<!-- Node36 -->
<g id="node36" class="node"><title>Node36</title>
<g id="a_node36"><a xlink:href="../../d0/dda/DataFormats_2Detectors_2TPC_2include_2DataFormatsTPC_2Constants_8h.html" target="_top" xlink:title="DataFormatsTPC/Constants.h">
<polygon fill="none" stroke="black" points="643,-198.5 643,-217.5 793,-217.5 793,-198.5 643,-198.5"/>
<text text-anchor="middle" x="718" y="-205.5" font-family="Helvetica,sans-Serif" font-size="10.00">DataFormatsTPC/Constants.h</text>
</a>
</g>
</g>
<!-- Node35&#45;&gt;Node36 -->
<g id="edge41" class="edge"><title>Node35&#45;&gt;Node36</title>
<path fill="none" stroke="midnightblue" d="M718,-260.403C718,-251.938 718,-238.728 718,-227.82"/>
<polygon fill="midnightblue" stroke="midnightblue" points="721.5,-227.581 718,-217.581 714.5,-227.581 721.5,-227.581"/>
</g>
<!-- Node37 -->
<g id="node37" class="node"><title>Node37</title>
<g id="a_node37"><a xlink:href="../../d1/d73/Defs_8h.html" target="_top" xlink:title="Common definitions for 2D coordinates. ">
<polygon fill="none" stroke="black" points="498,-198.5 498,-217.5 624,-217.5 624,-198.5 498,-198.5"/>
<text text-anchor="middle" x="561" y="-205.5" font-family="Helvetica,sans-Serif" font-size="10.00">DataFormatsTPC/Defs.h</text>
</a>
</g>
</g>
<!-- Node35&#45;&gt;Node37 -->
<g id="edge42" class="edge"><title>Node35&#45;&gt;Node37</title>
<path fill="none" stroke="midnightblue" d="M695.506,-260.403C668.691,-250.156 623.685,-232.956 593.191,-221.302"/>
<polygon fill="midnightblue" stroke="midnightblue" points="594.043,-217.881 583.453,-217.581 591.544,-224.42 594.043,-217.881"/>
</g>
<!-- Node37&#45;&gt;Node24 -->
<g id="edge45" class="edge"><title>Node37&#45;&gt;Node24</title>
<path fill="none" stroke="midnightblue" d="M575.614,-198.403C592.353,-188.557 620.004,-172.291 639.719,-160.695"/>
<polygon fill="midnightblue" stroke="midnightblue" points="641.568,-163.668 648.413,-155.581 638.019,-157.634 641.568,-163.668"/>
</g>
<!-- Node37&#45;&gt;Node32 -->
<g id="edge44" class="edge"><title>Node37&#45;&gt;Node32</title>
<path fill="none" stroke="midnightblue" d="M533.224,-198.421C463.815,-176.983 282.722,-121.051 203.746,-96.6582"/>
<polygon fill="midnightblue" stroke="midnightblue" points="204.332,-93.1763 193.745,-93.5693 202.267,-99.8646 204.332,-93.1763"/>
</g>
<!-- Node38 -->
<g id="node38" class="node"><title>Node38</title>
<polygon fill="none" stroke="#bfbfbf" points="539,-136.5 539,-155.5 583,-155.5 583,-136.5 539,-136.5"/>
<text text-anchor="middle" x="561" y="-143.5" font-family="Helvetica,sans-Serif" font-size="10.00">cmath</text>
</g>
<!-- Node37&#45;&gt;Node38 -->
<g id="edge43" class="edge"><title>Node37&#45;&gt;Node38</title>
<path fill="none" stroke="midnightblue" d="M561,-198.403C561,-189.938 561,-176.728 561,-165.82"/>
<polygon fill="midnightblue" stroke="midnightblue" points="564.5,-165.581 561,-155.581 557.5,-165.581 564.5,-165.581"/>
</g>
</g>
</svg>
