<?xml version="1.0" encoding="UTF-8" standalone="no"?>
<!DOCTYPE svg PUBLIC "-//W3C//DTD SVG 1.1//EN"
 "http://www.w3.org/Graphics/SVG/1.1/DTD/svg11.dtd">
<!-- Generated by graphviz version 2.36.0 (20140111.2315)
 -->
<!-- Title: o2::framework::OutputRef Pages: 1 -->
<svg width="231pt" height="316pt"
 viewBox="0.00 0.00 231.00 316.00" xmlns="http://www.w3.org/2000/svg" xmlns:xlink="http://www.w3.org/1999/xlink">
<g id="graph0" class="graph" transform="scale(1 1) rotate(0) translate(4 312)">
<title>o2::framework::OutputRef</title>
<!-- Node1 -->
<g id="node1" class="node"><title>Node1</title>
<polygon fill="#bfbfbf" stroke="black" points="31,-0.5 31,-79.5 161,-79.5 161,-0.5 31,-0.5"/>
<text text-anchor="middle" x="96" y="-67.5" font-family="Helvetica,sans-Serif" font-size="10.00">o2::framework::OutputRef</text>
<polyline fill="none" stroke="black" points="31,-60.5 161,-60.5 "/>
<text text-anchor="middle" x="96" y="-48.5" font-family="Helvetica,sans-Serif" font-size="10.00"> </text>
<polyline fill="none" stroke="black" points="31,-41.5 161,-41.5 "/>
<text text-anchor="start" x="39" y="-29.5" font-family="Helvetica,sans-Serif" font-size="10.00">+ OutputRef()</text>
<text text-anchor="start" x="39" y="-18.5" font-family="Helvetica,sans-Serif" font-size="10.00">+ OutputRef()</text>
<text text-anchor="start" x="39" y="-7.5" font-family="Helvetica,sans-Serif" font-size="10.00">+ OutputRef()</text>
</g>
<!-- Node2 -->
<g id="node2" class="node"><title>Node2</title>
<polygon fill="none" stroke="#bfbfbf" points="-0.5,-189.5 -0.5,-246.5 50.5,-246.5 50.5,-189.5 -0.5,-189.5"/>
<text text-anchor="middle" x="25" y="-234.5" font-family="Helvetica,sans-Serif" font-size="10.00">uint64_t</text>
<polyline fill="none" stroke="#bfbfbf" points="-0.5,-227.5 50.5,-227.5 "/>
<text text-anchor="middle" x="25" y="-215.5" font-family="Helvetica,sans-Serif" font-size="10.00"> </text>
<polyline fill="none" stroke="#bfbfbf" points="-0.5,-208.5 50.5,-208.5 "/>
<text text-anchor="middle" x="25" y="-196.5" font-family="Helvetica,sans-Serif" font-size="10.00"> </text>
</g>
<!-- Node2&#45;&gt;Node1 -->
<g id="edge1" class="edge"><title>Node2&#45;&gt;Node1</title>
<path fill="none" stroke="#404040" d="M24.9856,-189.204C25.9813,-164.194 30.0165,-127.026 44,-98 45.348,-95.2018 46.8785,-92.4429 48.5472,-89.739"/>
<polygon fill="none" stroke="#404040" points="48.7315,-89.4737 48.8682,-82.2638 55.576,-79.617 55.4393,-86.8269 48.7315,-89.4737"/>
<text text-anchor="middle" x="68" y="-101.5" font-family="Helvetica,sans-Serif" font-size="10.00"> +subSpec</text>
</g>
<!-- Node3 -->
<g id="node3" class="node"><title>Node3</title>
<polygon fill="none" stroke="#bfbfbf" points="81.5,-189.5 81.5,-246.5 110.5,-246.5 110.5,-189.5 81.5,-189.5"/>
<text text-anchor="middle" x="96" y="-234.5" font-family="Helvetica,sans-Serif" font-size="10.00">int</text>
<polyline fill="none" stroke="#bfbfbf" points="81.5,-227.5 110.5,-227.5 "/>
<text text-anchor="middle" x="96" y="-215.5" font-family="Helvetica,sans-Serif" font-size="10.00"> </text>
<polyline fill="none" stroke="#bfbfbf" points="81.5,-208.5 110.5,-208.5 "/>
<text text-anchor="middle" x="96" y="-196.5" font-family="Helvetica,sans-Serif" font-size="10.00"> </text>
</g>
<!-- Node3&#45;&gt;Node1 -->
<g id="edge2" class="edge"><title>Node3&#45;&gt;Node1</title>
<path fill="none" stroke="#404040" d="M96,-189.112C96,-163.014 96,-123.403 96,-91.7093"/>
<polygon fill="none" stroke="#404040" points="96.0001,-91.5568 92,-85.5568 96,-79.5568 100,-85.5568 96.0001,-91.5568"/>
<text text-anchor="middle" x="111" y="-101.5" font-family="Helvetica,sans-Serif" font-size="10.00"> +label</text>
</g>
<!-- Node4 -->
<g id="node4" class="node"><title>Node4</title>
<g id="a_node4"><a xlink:href="../../d0/d66/structo2_1_1header_1_1Stack.html" target="_top" xlink:title="a move&#45;only header stack with serialized headers This is the flat buffer where all the headers in a m...">
<polygon fill="none" stroke="black" points="129,-129 129,-307 223,-307 223,-129 129,-129"/>
<text text-anchor="middle" x="176" y="-295" font-family="Helvetica,sans-Serif" font-size="10.00">o2::header::Stack</text>
<polyline fill="none" stroke="black" points="129,-288 223,-288 "/>
<text text-anchor="middle" x="176" y="-276" font-family="Helvetica,sans-Serif" font-size="10.00"> </text>
<polyline fill="none" stroke="black" points="129,-269 223,-269 "/>
<text text-anchor="start" x="137" y="-257" font-family="Helvetica,sans-Serif" font-size="10.00">+ Stack()</text>
<text text-anchor="start" x="137" y="-246" font-family="Helvetica,sans-Serif" font-size="10.00">+ Stack()</text>
<text text-anchor="start" x="137" y="-235" font-family="Helvetica,sans-Serif" font-size="10.00">+ Stack()</text>
<text text-anchor="start" x="137" y="-224" font-family="Helvetica,sans-Serif" font-size="10.00">+ operator=()</text>
<text text-anchor="start" x="137" y="-213" font-family="Helvetica,sans-Serif" font-size="10.00">+ operator=()</text>
<text text-anchor="start" x="137" y="-202" font-family="Helvetica,sans-Serif" font-size="10.00">+ data()</text>
<text text-anchor="start" x="137" y="-191" font-family="Helvetica,sans-Serif" font-size="10.00">+ size()</text>
<text text-anchor="start" x="137" y="-180" font-family="Helvetica,sans-Serif" font-size="10.00">+ get_allocator()</text>
<text text-anchor="start" x="137" y="-169" font-family="Helvetica,sans-Serif" font-size="10.00">+ getFreefnHint()</text>
<text text-anchor="start" x="137" y="-158" font-family="Helvetica,sans-Serif" font-size="10.00">+ Stack()</text>
<text text-anchor="start" x="137" y="-147" font-family="Helvetica,sans-Serif" font-size="10.00">+ Stack()</text>
<text text-anchor="start" x="137" y="-136" font-family="Helvetica,sans-Serif" font-size="10.00">+ getFreefn()</text>
</a>
</g>
</g>
<!-- Node4&#45;&gt;Node1 -->
<g id="edge3" class="edge"><title>Node4&#45;&gt;Node1</title>
<path fill="none" stroke="#404040" d="M143.868,-128.867C139.467,-118.35 134.802,-107.856 130,-98 128.765,-95.4654 127.456,-92.8945 126.097,-90.3175"/>
<polygon fill="none" stroke="#404040" points="126.079,-90.2842 119.685,-86.9508 120.302,-79.7662 126.697,-83.0995 126.079,-90.2842"/>
<text text-anchor="middle" x="167" y="-101.5" font-family="Helvetica,sans-Serif" font-size="10.00"> +headerStack</text>
</g>
</g>
</svg>
