<?xml version="1.0" encoding="UTF-8" standalone="no"?>
<!DOCTYPE svg PUBLIC "-//W3C//DTD SVG 1.1//EN"
 "http://www.w3.org/Graphics/SVG/1.1/DTD/svg11.dtd">
<!-- Generated by graphviz version 2.36.0 (20140111.2315)
 -->
<!-- Title: /home/travis/build/AliceO2Group/AliceO2/Detectors/MUON/MID/Base/include/MIDBase/Constants.h Pages: 1 -->
<svg width="1156pt" height="242pt"
 viewBox="0.00 0.00 1156.00 242.00" xmlns="http://www.w3.org/2000/svg" xmlns:xlink="http://www.w3.org/1999/xlink">
<g id="graph0" class="graph" transform="scale(1 1) rotate(0) translate(4 238)">
<title>/home/travis/build/AliceO2Group/AliceO2/Detectors/MUON/MID/Base/include/MIDBase/Constants.h</title>
<!-- Node1 -->
<g id="node1" class="node"><title>Node1</title>
<polygon fill="#bfbfbf" stroke="black" points="475.5,-181 475.5,-233 626.5,-233 626.5,-181 475.5,-181"/>
<text text-anchor="start" x="483.5" y="-221" font-family="Helvetica,sans-Serif" font-size="10.00">/home/travis/build</text>
<text text-anchor="start" x="483.5" y="-210" font-family="Helvetica,sans-Serif" font-size="10.00">/AliceO2Group/AliceO2</text>
<text text-anchor="start" x="483.5" y="-199" font-family="Helvetica,sans-Serif" font-size="10.00">/Detectors/MUON/MID/Base</text>
<text text-anchor="middle" x="551" y="-188" font-family="Helvetica,sans-Serif" font-size="10.00">/include/MIDBase/Constants.h</text>
</g>
<!-- Node2 -->
<g id="node2" class="node"><title>Node2</title>
<g id="a_node2"><a xlink:href="../../d7/d40/HitFinder_8h.html" target="_top" xlink:title="Hit finder for MID. ">
<polygon fill="none" stroke="black" points="150,-91 150,-143 296,-143 296,-91 150,-91"/>
<text text-anchor="start" x="158" y="-131" font-family="Helvetica,sans-Serif" font-size="10.00">/home/travis/build</text>
<text text-anchor="start" x="158" y="-120" font-family="Helvetica,sans-Serif" font-size="10.00">/AliceO2Group/AliceO2</text>
<text text-anchor="start" x="158" y="-109" font-family="Helvetica,sans-Serif" font-size="10.00">/Detectors/MUON/MID/Base</text>
<text text-anchor="middle" x="223" y="-98" font-family="Helvetica,sans-Serif" font-size="10.00">/include/MIDBase/HitFinder.h</text>
</a>
</g>
</g>
<!-- Node1&#45;&gt;Node2 -->
<g id="edge1" class="edge"><title>Node1&#45;&gt;Node2</title>
<path fill="none" stroke="midnightblue" d="M465.501,-185.603C418.297,-174.031 358.717,-158.915 306,-144 302.803,-143.096 299.543,-142.155 296.254,-141.19"/>
<polygon fill="midnightblue" stroke="midnightblue" points="464.835,-189.043 475.38,-188.017 466.497,-182.243 464.835,-189.043"/>
</g>
<!-- Node3 -->
<g id="node3" class="node"><title>Node3</title>
<g id="a_node3"><a xlink:href="../../d4/dc0/HitFinder_8cxx.html" target="_top" xlink:title="Implementation of the hit finder for MID. ">
<polygon fill="none" stroke="black" points="-0.5,-1 -0.5,-53 142.5,-53 142.5,-1 -0.5,-1"/>
<text text-anchor="start" x="7.5" y="-41" font-family="Helvetica,sans-Serif" font-size="10.00">/home/travis/build</text>
<text text-anchor="start" x="7.5" y="-30" font-family="Helvetica,sans-Serif" font-size="10.00">/AliceO2Group/AliceO2</text>
<text text-anchor="start" x="7.5" y="-19" font-family="Helvetica,sans-Serif" font-size="10.00">/Detectors/MUON/MID/Base</text>
<text text-anchor="middle" x="71" y="-8" font-family="Helvetica,sans-Serif" font-size="10.00">/src/HitFinder.cxx</text>
</a>
</g>
</g>
<!-- Node1&#45;&gt;Node3 -->
<g id="edge7" class="edge"><title>Node1&#45;&gt;Node3</title>
<path fill="none" stroke="midnightblue" d="M465.086,-201.524C360.85,-194.652 192.632,-178.493 141,-144 108.728,-122.441 88.9774,-80.4839 79.0135,-53.3794"/>
<polygon fill="midnightblue" stroke="midnightblue" points="465.075,-205.03 475.28,-202.18 465.525,-198.045 465.075,-205.03"/>
</g>
<!-- Node6 -->
<g id="node6" class="node"><title>Node6</title>
<g id="a_node6"><a xlink:href="../../d2/d2a/Constants_8cxx.html" target="_top" xlink:title="Implementation of constants for MID. ">
<polygon fill="none" stroke="black" points="314.5,-91 314.5,-143 457.5,-143 457.5,-91 314.5,-91"/>
<text text-anchor="start" x="322.5" y="-131" font-family="Helvetica,sans-Serif" font-size="10.00">/home/travis/build</text>
<text text-anchor="start" x="322.5" y="-120" font-family="Helvetica,sans-Serif" font-size="10.00">/AliceO2Group/AliceO2</text>
<text text-anchor="start" x="322.5" y="-109" font-family="Helvetica,sans-Serif" font-size="10.00">/Detectors/MUON/MID/Base</text>
<text text-anchor="middle" x="386" y="-98" font-family="Helvetica,sans-Serif" font-size="10.00">/src/Constants.cxx</text>
</a>
</g>
</g>
<!-- Node1&#45;&gt;Node6 -->
<g id="edge5" class="edge"><title>Node1&#45;&gt;Node6</title>
<path fill="none" stroke="midnightblue" d="M494.675,-175.96C474.599,-165.253 452.215,-153.315 433.004,-143.069"/>
<polygon fill="midnightblue" stroke="midnightblue" points="493.247,-179.165 503.718,-180.783 496.541,-172.989 493.247,-179.165"/>
</g>
<!-- Node7 -->
<g id="node7" class="node"><title>Node7</title>
<g id="a_node7"><a xlink:href="../../dc/d25/GeometryTransformer_8cxx.html" target="_top" xlink:title="Geometry transformer for MID. ">
<polygon fill="none" stroke="black" points="476,-91 476,-143 626,-143 626,-91 476,-91"/>
<text text-anchor="start" x="484" y="-131" font-family="Helvetica,sans-Serif" font-size="10.00">/home/travis/build</text>
<text text-anchor="start" x="484" y="-120" font-family="Helvetica,sans-Serif" font-size="10.00">/AliceO2Group/AliceO2</text>
<text text-anchor="start" x="484" y="-109" font-family="Helvetica,sans-Serif" font-size="10.00">/Detectors/MUON/MID/Base</text>
<text text-anchor="middle" x="551" y="-98" font-family="Helvetica,sans-Serif" font-size="10.00">/src/GeometryTransformer.cxx</text>
</a>
</g>
</g>
<!-- Node1&#45;&gt;Node7 -->
<g id="edge6" class="edge"><title>Node1&#45;&gt;Node7</title>
<path fill="none" stroke="midnightblue" d="M551,-170.489C551,-161.309 551,-151.616 551,-143.092"/>
<polygon fill="midnightblue" stroke="midnightblue" points="547.5,-170.547 551,-180.547 554.5,-170.547 547.5,-170.547"/>
</g>
<!-- Node8 -->
<g id="node8" class="node"><title>Node8</title>
<g id="a_node8"><a xlink:href="../../d9/d73/MID_2Base_2src_2Mapping_8cxx.html" target="_top" xlink:title="Implementation of mapping for MID. ">
<polygon fill="none" stroke="black" points="644.5,-91 644.5,-143 787.5,-143 787.5,-91 644.5,-91"/>
<text text-anchor="start" x="652.5" y="-131" font-family="Helvetica,sans-Serif" font-size="10.00">/home/travis/build</text>
<text text-anchor="start" x="652.5" y="-120" font-family="Helvetica,sans-Serif" font-size="10.00">/AliceO2Group/AliceO2</text>
<text text-anchor="start" x="652.5" y="-109" font-family="Helvetica,sans-Serif" font-size="10.00">/Detectors/MUON/MID/Base</text>
<text text-anchor="middle" x="716" y="-98" font-family="Helvetica,sans-Serif" font-size="10.00">/src/Mapping.cxx</text>
</a>
</g>
</g>
<!-- Node1&#45;&gt;Node8 -->
<g id="edge8" class="edge"><title>Node1&#45;&gt;Node8</title>
<path fill="none" stroke="midnightblue" d="M607.325,-175.96C627.401,-165.253 649.785,-153.315 668.996,-143.069"/>
<polygon fill="midnightblue" stroke="midnightblue" points="605.459,-172.989 598.282,-180.783 608.753,-179.165 605.459,-172.989"/>
</g>
<!-- Node9 -->
<g id="node9" class="node"><title>Node9</title>
<g id="a_node9"><a xlink:href="../../d7/de7/MUON_2MID_2Simulation_2src_2Geometry_8cxx.html" target="_top" xlink:title="/home/travis/build\l/AliceO2Group/AliceO2\l/Detectors/MUON/MID/Simulation\l/src/Geometry.cxx">
<polygon fill="none" stroke="black" points="805.5,-91 805.5,-143 972.5,-143 972.5,-91 805.5,-91"/>
<text text-anchor="start" x="813.5" y="-131" font-family="Helvetica,sans-Serif" font-size="10.00">/home/travis/build</text>
<text text-anchor="start" x="813.5" y="-120" font-family="Helvetica,sans-Serif" font-size="10.00">/AliceO2Group/AliceO2</text>
<text text-anchor="start" x="813.5" y="-109" font-family="Helvetica,sans-Serif" font-size="10.00">/Detectors/MUON/MID/Simulation</text>
<text text-anchor="middle" x="889" y="-98" font-family="Helvetica,sans-Serif" font-size="10.00">/src/Geometry.cxx</text>
</a>
</g>
</g>
<!-- Node1&#45;&gt;Node9 -->
<g id="edge9" class="edge"><title>Node1&#45;&gt;Node9</title>
<path fill="none" stroke="midnightblue" d="M636.586,-184.893C683.696,-173.136 743.157,-158.071 796,-144 799.078,-143.18 802.212,-142.339 805.375,-141.484"/>
<polygon fill="midnightblue" stroke="midnightblue" points="635.585,-181.535 626.728,-187.35 637.277,-188.328 635.585,-181.535"/>
</g>
<!-- Node10 -->
<g id="node10" class="node"><title>Node10</title>
<g id="a_node10"><a xlink:href="../../de/dbc/MUON_2MID_2Tracking_2src_2Tracker_8cxx.html" target="_top" xlink:title="Implementation of the tracker algorithm for the MID. ">
<polygon fill="none" stroke="black" points="990,-91 990,-143 1148,-143 1148,-91 990,-91"/>
<text text-anchor="start" x="998" y="-131" font-family="Helvetica,sans-Serif" font-size="10.00">/home/travis/build</text>
<text text-anchor="start" x="998" y="-120" font-family="Helvetica,sans-Serif" font-size="10.00">/AliceO2Group/AliceO2</text>
<text text-anchor="start" x="998" y="-109" font-family="Helvetica,sans-Serif" font-size="10.00">/Detectors/MUON/MID/Tracking</text>
<text text-anchor="middle" x="1069" y="-98" font-family="Helvetica,sans-Serif" font-size="10.00">/src/Tracker.cxx</text>
</a>
</g>
</g>
<!-- Node1&#45;&gt;Node10 -->
<g id="edge10" class="edge"><title>Node1&#45;&gt;Node10</title>
<path fill="none" stroke="midnightblue" d="M636.665,-197.329C723.919,-187.639 862.811,-169.839 981,-144 983.957,-143.354 986.96,-142.66 989.985,-141.929"/>
<polygon fill="midnightblue" stroke="midnightblue" points="636.106,-193.869 626.549,-198.442 636.871,-200.828 636.106,-193.869"/>
</g>
<!-- Node2&#45;&gt;Node3 -->
<g id="edge2" class="edge"><title>Node2&#45;&gt;Node3</title>
<path fill="none" stroke="midnightblue" d="M170.613,-85.6704C152.247,-75.0376 131.838,-63.2222 114.3,-53.0687"/>
<polygon fill="midnightblue" stroke="midnightblue" points="169.035,-88.8013 179.443,-90.7827 172.542,-82.7433 169.035,-88.8013"/>
</g>
<!-- Node4 -->
<g id="node4" class="node"><title>Node4</title>
<g id="a_node4"><a xlink:href="../../d0/db9/bench__Tracker_8cxx.html" target="_top" xlink:title="Benchmark tracker device for MID. ">
<polygon fill="none" stroke="black" points="161,-1 161,-53 319,-53 319,-1 161,-1"/>
<text text-anchor="start" x="169" y="-41" font-family="Helvetica,sans-Serif" font-size="10.00">/home/travis/build</text>
<text text-anchor="start" x="169" y="-30" font-family="Helvetica,sans-Serif" font-size="10.00">/AliceO2Group/AliceO2</text>
<text text-anchor="start" x="169" y="-19" font-family="Helvetica,sans-Serif" font-size="10.00">/Detectors/MUON/MID/Tracking</text>
<text text-anchor="middle" x="240" y="-8" font-family="Helvetica,sans-Serif" font-size="10.00">/test/bench_Tracker.cxx</text>
</a>
</g>
</g>
<!-- Node2&#45;&gt;Node4 -->
<g id="edge3" class="edge"><title>Node2&#45;&gt;Node4</title>
<path fill="none" stroke="midnightblue" d="M229.86,-80.4892C231.634,-71.3088 233.506,-61.616 235.153,-53.0921"/>
<polygon fill="midnightblue" stroke="midnightblue" points="226.377,-80.0644 227.917,-90.5468 233.25,-81.3922 226.377,-80.0644"/>
</g>
<!-- Node5 -->
<g id="node5" class="node"><title>Node5</title>
<g id="a_node5"><a xlink:href="../../da/de0/testTracker_8cxx.html" target="_top" xlink:title="Test tracking device for MID. ">
<polygon fill="none" stroke="black" points="337,-1 337,-53 495,-53 495,-1 337,-1"/>
<text text-anchor="start" x="345" y="-41" font-family="Helvetica,sans-Serif" font-size="10.00">/home/travis/build</text>
<text text-anchor="start" x="345" y="-30" font-family="Helvetica,sans-Serif" font-size="10.00">/AliceO2Group/AliceO2</text>
<text text-anchor="start" x="345" y="-19" font-family="Helvetica,sans-Serif" font-size="10.00">/Detectors/MUON/MID/Tracking</text>
<text text-anchor="middle" x="416" y="-8" font-family="Helvetica,sans-Serif" font-size="10.00">/test/testTracker.cxx</text>
</a>
</g>
</g>
<!-- Node2&#45;&gt;Node5 -->
<g id="edge4" class="edge"><title>Node2&#45;&gt;Node5</title>
<path fill="none" stroke="midnightblue" d="M287.362,-86.6536C311.183,-75.7923 337.953,-63.5862 360.879,-53.1328"/>
<polygon fill="midnightblue" stroke="midnightblue" points="285.695,-83.5672 278.048,-90.9005 288.599,-89.9363 285.695,-83.5672"/>
</g>
</g>
</svg>
