<?xml version="1.0" encoding="UTF-8" standalone="no"?>
<!DOCTYPE svg PUBLIC "-//W3C//DTD SVG 1.1//EN"
 "http://www.w3.org/Graphics/SVG/1.1/DTD/svg11.dtd">
<!-- Generated by graphviz version 2.36.0 (20140111.2315)
 -->
<!-- Title: o2::memory_resource::MessageResource Pages: 1 -->
<svg width="336pt" height="468pt"
 viewBox="0.00 0.00 336.00 468.00" xmlns="http://www.w3.org/2000/svg" xmlns:xlink="http://www.w3.org/1999/xlink">
<g id="graph0" class="graph" transform="scale(1 1) rotate(0) translate(4 464)">
<title>o2::memory_resource::MessageResource</title>
<!-- Node1 -->
<g id="node1" class="node"><title>Node1</title>
<polygon fill="#bfbfbf" stroke="black" points="69.5,-1 69.5,-201 204.5,-201 204.5,-1 69.5,-1"/>
<text text-anchor="start" x="77.5" y="-189" font-family="Helvetica,sans-Serif" font-size="10.00">o2::memory_resource</text>
<text text-anchor="middle" x="137" y="-178" font-family="Helvetica,sans-Serif" font-size="10.00">::MessageResource</text>
<polyline fill="none" stroke="black" points="69.5,-171 204.5,-171 "/>
<text text-anchor="middle" x="137" y="-159" font-family="Helvetica,sans-Serif" font-size="10.00"> </text>
<polyline fill="none" stroke="black" points="69.5,-152 204.5,-152 "/>
<text text-anchor="start" x="77.5" y="-140" font-family="Helvetica,sans-Serif" font-size="10.00">+ MessageResource()</text>
<text text-anchor="start" x="77.5" y="-129" font-family="Helvetica,sans-Serif" font-size="10.00">+ MessageResource()</text>
<text text-anchor="start" x="77.5" y="-118" font-family="Helvetica,sans-Serif" font-size="10.00">+ MessageResource()</text>
<text text-anchor="start" x="77.5" y="-107" font-family="Helvetica,sans-Serif" font-size="10.00">+ operator=()</text>
<text text-anchor="start" x="77.5" y="-96" font-family="Helvetica,sans-Serif" font-size="10.00">+ operator=()</text>
<text text-anchor="start" x="77.5" y="-85" font-family="Helvetica,sans-Serif" font-size="10.00">+ MessageResource()</text>
<text text-anchor="start" x="77.5" y="-74" font-family="Helvetica,sans-Serif" font-size="10.00">+ getMessage()</text>
<text text-anchor="start" x="77.5" y="-63" font-family="Helvetica,sans-Serif" font-size="10.00">+ setMessage()</text>
<text text-anchor="start" x="77.5" y="-52" font-family="Helvetica,sans-Serif" font-size="10.00">+ getTransportFactory()</text>
<text text-anchor="start" x="77.5" y="-41" font-family="Helvetica,sans-Serif" font-size="10.00">+ getNumberOfMessages()</text>
<text text-anchor="start" x="77.5" y="-30" font-family="Helvetica,sans-Serif" font-size="10.00"># do_allocate()</text>
<text text-anchor="start" x="77.5" y="-19" font-family="Helvetica,sans-Serif" font-size="10.00"># do_deallocate()</text>
<text text-anchor="start" x="77.5" y="-8" font-family="Helvetica,sans-Serif" font-size="10.00"># do_is_equal()</text>
</g>
<!-- Node2 -->
<g id="node2" class="node"><title>Node2</title>
<g id="a_node2"><a xlink:href="../../d6/d00/classo2_1_1memory__resource_1_1FairMQMemoryResource.html" target="_top" xlink:title="All FairMQ related memory resources need to inherit from this interface class for the getMessage() ap...">
<polygon fill="none" stroke="black" points="-0.5,-250.5 -0.5,-351.5 134.5,-351.5 134.5,-250.5 -0.5,-250.5"/>
<text text-anchor="start" x="7.5" y="-339.5" font-family="Helvetica,sans-Serif" font-size="10.00">o2::memory_resource</text>
<text text-anchor="middle" x="67" y="-328.5" font-family="Helvetica,sans-Serif" font-size="10.00">::FairMQMemoryResource</text>
<polyline fill="none" stroke="black" points="-0.5,-321.5 134.5,-321.5 "/>
<text text-anchor="middle" x="67" y="-309.5" font-family="Helvetica,sans-Serif" font-size="10.00"> </text>
<polyline fill="none" stroke="black" points="-0.5,-302.5 134.5,-302.5 "/>
<text text-anchor="start" x="7.5" y="-290.5" font-family="Helvetica,sans-Serif" font-size="10.00">+ getMessage()</text>
<text text-anchor="start" x="7.5" y="-279.5" font-family="Helvetica,sans-Serif" font-size="10.00">+ setMessage()</text>
<text text-anchor="start" x="7.5" y="-268.5" font-family="Helvetica,sans-Serif" font-size="10.00">+ getTransportFactory()</text>
<text text-anchor="start" x="7.5" y="-257.5" font-family="Helvetica,sans-Serif" font-size="10.00">+ getNumberOfMessages()</text>
</a>
</g>
</g>
<!-- Node2&#45;&gt;Node1 -->
<g id="edge1" class="edge"><title>Node2&#45;&gt;Node1</title>
<path fill="none" stroke="midnightblue" d="M72.1486,-240.265C73.4247,-233.358 75.016,-226.474 77,-220 78.9192,-213.738 81.1548,-207.407 83.6124,-201.101"/>
<polygon fill="none" stroke="midnightblue" points="68.658,-239.924 70.4954,-250.358 75.5659,-241.055 68.658,-239.924"/>
</g>
<!-- Node2&#45;&gt;Node1 -->
<g id="edge4" class="edge"><title>Node2&#45;&gt;Node1</title>
<path fill="none" stroke="#404040" d="M84.5736,-250.292C88.6769,-238.685 93.2093,-225.865 97.8402,-212.766"/>
<polygon fill="none" stroke="#404040" points="97.927,-212.521 96.1557,-205.53 101.927,-201.207 103.698,-208.197 97.927,-212.521"/>
<text text-anchor="middle" x="124" y="-223.5" font-family="Helvetica,sans-Serif" font-size="10.00"> #mUpstream</text>
</g>
<!-- Node3 -->
<g id="node3" class="node"><title>Node3</title>
<polygon fill="none" stroke="#bfbfbf" points="12.5,-391 12.5,-459 121.5,-459 121.5,-391 12.5,-391"/>
<text text-anchor="start" x="20.5" y="-447" font-family="Helvetica,sans-Serif" font-size="10.00">boost::container::pmr</text>
<text text-anchor="middle" x="67" y="-436" font-family="Helvetica,sans-Serif" font-size="10.00">::memory_resource</text>
<polyline fill="none" stroke="#bfbfbf" points="12.5,-429 121.5,-429 "/>
<text text-anchor="middle" x="67" y="-417" font-family="Helvetica,sans-Serif" font-size="10.00"> </text>
<polyline fill="none" stroke="#bfbfbf" points="12.5,-410 121.5,-410 "/>
<text text-anchor="middle" x="67" y="-398" font-family="Helvetica,sans-Serif" font-size="10.00"> </text>
</g>
<!-- Node3&#45;&gt;Node2 -->
<g id="edge2" class="edge"><title>Node3&#45;&gt;Node2</title>
<path fill="none" stroke="midnightblue" d="M67,-380.963C67,-371.45 67,-361.296 67,-351.548"/>
<polygon fill="none" stroke="midnightblue" points="63.5001,-380.985 67,-390.985 70.5001,-380.985 63.5001,-380.985"/>
</g>
<!-- Node4 -->
<g id="node4" class="node"><title>Node4</title>
<polygon fill="none" stroke="#bfbfbf" points="157.5,-272.5 157.5,-329.5 200.5,-329.5 200.5,-272.5 157.5,-272.5"/>
<text text-anchor="middle" x="179" y="-317.5" font-family="Helvetica,sans-Serif" font-size="10.00">size_t</text>
<polyline fill="none" stroke="#bfbfbf" points="157.5,-310.5 200.5,-310.5 "/>
<text text-anchor="middle" x="179" y="-298.5" font-family="Helvetica,sans-Serif" font-size="10.00"> </text>
<polyline fill="none" stroke="#bfbfbf" points="157.5,-291.5 200.5,-291.5 "/>
<text text-anchor="middle" x="179" y="-279.5" font-family="Helvetica,sans-Serif" font-size="10.00"> </text>
</g>
<!-- Node4&#45;&gt;Node1 -->
<g id="edge3" class="edge"><title>Node4&#45;&gt;Node1</title>
<path fill="none" stroke="#404040" d="M173.16,-272.469C169.778,-256.526 165.273,-235.289 160.594,-213.229"/>
<polygon fill="none" stroke="#404040" points="160.55,-213.02 155.392,-207.98 158.06,-201.281 163.218,-206.32 160.55,-213.02"/>
<text text-anchor="middle" x="202" y="-223.5" font-family="Helvetica,sans-Serif" font-size="10.00"> #mMessageSize</text>
</g>
<!-- Node5 -->
<g id="node5" class="node"><title>Node5</title>
<polygon fill="none" stroke="#bfbfbf" points="257.5,-272.5 257.5,-329.5 298.5,-329.5 298.5,-272.5 257.5,-272.5"/>
<text text-anchor="middle" x="278" y="-317.5" font-family="Helvetica,sans-Serif" font-size="10.00">void *</text>
<polyline fill="none" stroke="#bfbfbf" points="257.5,-310.5 298.5,-310.5 "/>
<text text-anchor="middle" x="278" y="-298.5" font-family="Helvetica,sans-Serif" font-size="10.00"> </text>
<polyline fill="none" stroke="#bfbfbf" points="257.5,-291.5 298.5,-291.5 "/>
<text text-anchor="middle" x="278" y="-279.5" font-family="Helvetica,sans-Serif" font-size="10.00"> </text>
</g>
<!-- Node5&#45;&gt;Node1 -->
<g id="edge5" class="edge"><title>Node5&#45;&gt;Node1</title>
<path fill="none" stroke="#404040" d="M268.808,-272.203C262.911,-256.271 254.411,-236.271 244,-220 234.796,-205.616 223.807,-191.306 212.429,-177.87"/>
<polygon fill="none" stroke="#404040" points="212.361,-177.791 205.41,-175.873 204.507,-168.718 211.459,-170.637 212.361,-177.791"/>
<text text-anchor="middle" x="289" y="-223.5" font-family="Helvetica,sans-Serif" font-size="10.00"> #mMessageData</text>
</g>
</g>
</svg>
