<?xml version="1.0" encoding="UTF-8" standalone="no"?>
<!DOCTYPE svg PUBLIC "-//W3C//DTD SVG 1.1//EN"
 "http://www.w3.org/Graphics/SVG/1.1/DTD/svg11.dtd">
<!-- Generated by graphviz version 2.36.0 (20140111.2315)
 -->
<!-- Title: o2::framework::ConfigParamSpec Pages: 1 -->
<svg width="434pt" height="400pt"
 viewBox="0.00 0.00 434.02 400.00" xmlns="http://www.w3.org/2000/svg" xmlns:xlink="http://www.w3.org/1999/xlink">
<g id="graph0" class="graph" transform="scale(1 1) rotate(0) translate(4 396)">
<title>o2::framework::ConfigParamSpec</title>
<!-- Node1 -->
<g id="node1" class="node"><title>Node1</title>
<polygon fill="#bfbfbf" stroke="black" points="145.025,-0.5 145.025,-79.5 309.025,-79.5 309.025,-0.5 145.025,-0.5"/>
<text text-anchor="middle" x="227.025" y="-67.5" font-family="Helvetica,sans-Serif" font-size="10.00">o2::framework::ConfigParamSpec</text>
<polyline fill="none" stroke="black" points="145.025,-60.5 309.025,-60.5 "/>
<text text-anchor="middle" x="227.025" y="-48.5" font-family="Helvetica,sans-Serif" font-size="10.00"> </text>
<polyline fill="none" stroke="black" points="145.025,-41.5 309.025,-41.5 "/>
<text text-anchor="start" x="153.025" y="-29.5" font-family="Helvetica,sans-Serif" font-size="10.00">+ ConfigParamSpec()</text>
<text text-anchor="start" x="153.025" y="-18.5" font-family="Helvetica,sans-Serif" font-size="10.00">+ ConfigParamSpec()</text>
<text text-anchor="start" x="153.025" y="-7.5" font-family="Helvetica,sans-Serif" font-size="10.00">+ ConfigParamSpec()</text>
</g>
<!-- Node2 -->
<g id="node2" class="node"><title>Node2</title>
<g id="a_node2"><a xlink:href="../../d9/df7/structo2_1_1framework_1_1ConfigParamSpec_1_1HelpString.html" target="_top" xlink:title="{o2::framework::ConfigParam\lSpec::HelpString\n||+ c_str()\l}">
<polygon fill="none" stroke="black" points="63.0249,-173 63.0249,-241 205.025,-241 205.025,-173 63.0249,-173"/>
<text text-anchor="start" x="71.0249" y="-229" font-family="Helvetica,sans-Serif" font-size="10.00">o2::framework::ConfigParam</text>
<text text-anchor="middle" x="134.025" y="-218" font-family="Helvetica,sans-Serif" font-size="10.00">Spec::HelpString</text>
<polyline fill="none" stroke="black" points="63.0249,-211 205.025,-211 "/>
<text text-anchor="middle" x="134.025" y="-199" font-family="Helvetica,sans-Serif" font-size="10.00"> </text>
<polyline fill="none" stroke="black" points="63.0249,-192 205.025,-192 "/>
<text text-anchor="start" x="71.0249" y="-180" font-family="Helvetica,sans-Serif" font-size="10.00">+ c_str()</text>
</a>
</g>
</g>
<!-- Node2&#45;&gt;Node1 -->
<g id="edge1" class="edge"><title>Node2&#45;&gt;Node1</title>
<path fill="none" stroke="#404040" d="M152.845,-172.61C166.186,-148.939 184.308,-116.789 199.3,-90.1898"/>
<polygon fill="none" stroke="#404040" points="199.405,-90.0023 198.867,-82.8113 205.298,-79.5485 205.836,-86.7395 199.405,-90.0023"/>
<text text-anchor="middle" x="209.025" y="-101.5" font-family="Helvetica,sans-Serif" font-size="10.00"> +help</text>
</g>
<!-- Node3 -->
<g id="node3" class="node"><title>Node3</title>
<polygon fill="none" stroke="#bfbfbf" points="35.5249,-334.5 35.5249,-391.5 64.5249,-391.5 64.5249,-334.5 35.5249,-334.5"/>
<text text-anchor="middle" x="50.0249" y="-379.5" font-family="Helvetica,sans-Serif" font-size="10.00">int</text>
<polyline fill="none" stroke="#bfbfbf" points="35.5249,-372.5 64.5249,-372.5 "/>
<text text-anchor="middle" x="50.0249" y="-360.5" font-family="Helvetica,sans-Serif" font-size="10.00"> </text>
<polyline fill="none" stroke="#bfbfbf" points="35.5249,-353.5 64.5249,-353.5 "/>
<text text-anchor="middle" x="50.0249" y="-341.5" font-family="Helvetica,sans-Serif" font-size="10.00"> </text>
</g>
<!-- Node3&#45;&gt;Node1 -->
<g id="edge3" class="edge"><title>Node3&#45;&gt;Node1</title>
<path fill="none" stroke="#404040" d="M35.6019,-334.443C13.3741,-287.758 -22.4749,-191.963 20.0249,-128 45.4139,-89.789 91.2057,-68.3239 133.276,-56.2836"/>
<polygon fill="none" stroke="#404040" points="133.433,-56.2414 138.192,-50.8231 145.023,-53.1314 140.265,-58.5497 133.433,-56.2414"/>
<text text-anchor="middle" x="37.0249" y="-204.5" font-family="Helvetica,sans-Serif" font-size="10.00"> +name</text>
</g>
<!-- Node3&#45;&gt;Node2 -->
<g id="edge2" class="edge"><title>Node3&#45;&gt;Node2</title>
<path fill="none" stroke="#404040" d="M64.6566,-335.175C77.1745,-312.226 95.4372,-278.744 110.082,-251.895"/>
<polygon fill="none" stroke="#404040" points="110.159,-251.755 109.52,-244.572 115.905,-241.22 116.543,-248.403 110.159,-251.755"/>
<text text-anchor="middle" x="90.5249" y="-307.5" font-family="Helvetica,sans-Serif" font-size="10.00"> +str</text>
</g>
<!-- Node4 -->
<g id="node4" class="node"><title>Node4</title>
<polygon fill="none" stroke="#bfbfbf" points="223.525,-178.5 223.525,-235.5 292.525,-235.5 292.525,-178.5 223.525,-178.5"/>
<text text-anchor="middle" x="258.025" y="-223.5" font-family="Helvetica,sans-Serif" font-size="10.00">VariantType</text>
<polyline fill="none" stroke="#bfbfbf" points="223.525,-216.5 292.525,-216.5 "/>
<text text-anchor="middle" x="258.025" y="-204.5" font-family="Helvetica,sans-Serif" font-size="10.00"> </text>
<polyline fill="none" stroke="#bfbfbf" points="223.525,-197.5 292.525,-197.5 "/>
<text text-anchor="middle" x="258.025" y="-185.5" font-family="Helvetica,sans-Serif" font-size="10.00"> </text>
</g>
<!-- Node4&#45;&gt;Node1 -->
<g id="edge4" class="edge"><title>Node4&#45;&gt;Node1</title>
<path fill="none" stroke="#404040" d="M252.836,-178.383C248.387,-154.702 241.864,-119.98 236.488,-91.3692"/>
<polygon fill="none" stroke="#404040" points="236.48,-91.3251 231.441,-86.1668 234.264,-79.5314 239.303,-84.6896 236.48,-91.3251"/>
<text text-anchor="middle" x="254.025" y="-101.5" font-family="Helvetica,sans-Serif" font-size="10.00"> +type</text>
</g>
<!-- Node5 -->
<g id="node5" class="node"><title>Node5</title>
<g id="a_node5"><a xlink:href="../../d8/dff/classo2_1_1framework_1_1Variant.html" target="_top" xlink:title="{o2::framework::Variant\n||+ Variant()\l+ Variant()\l+ Variant()\l+ Variant()\l+ Variant()\l+ ~Variant()\l+ operator=()\l+ get()\l+ set()\l+ type()\l}">
<polygon fill="none" stroke="black" points="311.025,-129 311.025,-285 427.025,-285 427.025,-129 311.025,-129"/>
<text text-anchor="middle" x="369.025" y="-273" font-family="Helvetica,sans-Serif" font-size="10.00">o2::framework::Variant</text>
<polyline fill="none" stroke="black" points="311.025,-266 427.025,-266 "/>
<text text-anchor="middle" x="369.025" y="-254" font-family="Helvetica,sans-Serif" font-size="10.00"> </text>
<polyline fill="none" stroke="black" points="311.025,-247 427.025,-247 "/>
<text text-anchor="start" x="319.025" y="-235" font-family="Helvetica,sans-Serif" font-size="10.00">+ Variant()</text>
<text text-anchor="start" x="319.025" y="-224" font-family="Helvetica,sans-Serif" font-size="10.00">+ Variant()</text>
<text text-anchor="start" x="319.025" y="-213" font-family="Helvetica,sans-Serif" font-size="10.00">+ Variant()</text>
<text text-anchor="start" x="319.025" y="-202" font-family="Helvetica,sans-Serif" font-size="10.00">+ Variant()</text>
<text text-anchor="start" x="319.025" y="-191" font-family="Helvetica,sans-Serif" font-size="10.00">+ Variant()</text>
<text text-anchor="start" x="319.025" y="-180" font-family="Helvetica,sans-Serif" font-size="10.00">+ ~Variant()</text>
<text text-anchor="start" x="319.025" y="-169" font-family="Helvetica,sans-Serif" font-size="10.00">+ operator=()</text>
<text text-anchor="start" x="319.025" y="-158" font-family="Helvetica,sans-Serif" font-size="10.00">+ get()</text>
<text text-anchor="start" x="319.025" y="-147" font-family="Helvetica,sans-Serif" font-size="10.00">+ set()</text>
<text text-anchor="start" x="319.025" y="-136" font-family="Helvetica,sans-Serif" font-size="10.00">+ type()</text>
</a>
</g>
</g>
<!-- Node5&#45;&gt;Node1 -->
<g id="edge5" class="edge"><title>Node5&#45;&gt;Node1</title>
<path fill="none" stroke="#404040" d="M310.858,-138.412C296.651,-121.903 281.733,-104.57 268.486,-89.1766"/>
<polygon fill="none" stroke="#404040" points="268.302,-88.9632 261.357,-87.0247 260.475,-79.8677 267.42,-81.8062 268.302,-88.9632"/>
<text text-anchor="middle" x="318.025" y="-101.5" font-family="Helvetica,sans-Serif" font-size="10.00"> +defaultValue</text>
</g>
</g>
</svg>
