<?xml version="1.0" encoding="UTF-8" standalone="no"?>
<!DOCTYPE svg PUBLIC "-//W3C//DTD SVG 1.1//EN"
 "http://www.w3.org/Graphics/SVG/1.1/DTD/svg11.dtd">
<!-- Generated by graphviz version 2.36.0 (20140111.2315)
 -->
<!-- Title: /home/travis/build/AliceO2Group/AliceO2/Detectors/MUON/MCH/PreClustering/src/PreClusterFinderDevice.cxx Pages: 1 -->
<svg width="1717pt" height="354pt"
 viewBox="0.00 0.00 1717.00 354.00" xmlns="http://www.w3.org/2000/svg" xmlns:xlink="http://www.w3.org/1999/xlink">
<g id="graph0" class="graph" transform="scale(1 1) rotate(0) translate(4 350)">
<title>/home/travis/build/AliceO2Group/AliceO2/Detectors/MUON/MCH/PreClustering/src/PreClusterFinderDevice.cxx</title>
<!-- Node1 -->
<g id="node1" class="node"><title>Node1</title>
<polygon fill="#bfbfbf" stroke="black" points="1139.5,-293 1139.5,-345 1324.5,-345 1324.5,-293 1139.5,-293"/>
<text text-anchor="start" x="1147.5" y="-333" font-family="Helvetica,sans-Serif" font-size="10.00">/home/travis/build</text>
<text text-anchor="start" x="1147.5" y="-322" font-family="Helvetica,sans-Serif" font-size="10.00">/AliceO2Group/AliceO2</text>
<text text-anchor="start" x="1147.5" y="-311" font-family="Helvetica,sans-Serif" font-size="10.00">/Detectors/MUON/MCH/PreClustering</text>
<text text-anchor="middle" x="1232" y="-300" font-family="Helvetica,sans-Serif" font-size="10.00">/src/PreClusterFinderDevice.cxx</text>
</g>
<!-- Node2 -->
<g id="node2" class="node"><title>Node2</title>
<g id="a_node2"><a xlink:href="../../dd/db2/PreClusterFinderDevice_8h.html" target="_top" xlink:title="PreClusterFinderDevice.h">
<polygon fill="none" stroke="black" points="390.5,-236.5 390.5,-255.5 519.5,-255.5 519.5,-236.5 390.5,-236.5"/>
<text text-anchor="middle" x="455" y="-243.5" font-family="Helvetica,sans-Serif" font-size="10.00">PreClusterFinderDevice.h</text>
</a>
</g>
</g>
<!-- Node1&#45;&gt;Node2 -->
<g id="edge1" class="edge"><title>Node1&#45;&gt;Node2</title>
<path fill="none" stroke="midnightblue" d="M1139.43,-309.541C983.717,-295.313 672.42,-266.867 529.661,-253.822"/>
<polygon fill="midnightblue" stroke="midnightblue" points="529.955,-250.335 519.678,-252.91 529.318,-257.306 529.955,-250.335"/>
</g>
<!-- Node5 -->
<g id="node5" class="node"><title>Node5</title>
<g id="a_node5"><a xlink:href="../../db/da1/PreClusterBlock_8h.html" target="_top" xlink:title="MCHBase/PreClusterBlock.h">
<polygon fill="none" stroke="black" points="70.5,-180.5 70.5,-199.5 215.5,-199.5 215.5,-180.5 70.5,-180.5"/>
<text text-anchor="middle" x="143" y="-187.5" font-family="Helvetica,sans-Serif" font-size="10.00">MCHBase/PreClusterBlock.h</text>
</a>
</g>
</g>
<!-- Node1&#45;&gt;Node5 -->
<g id="edge52" class="edge"><title>Node1&#45;&gt;Node5</title>
<path fill="none" stroke="midnightblue" d="M1139.36,-317.11C982.263,-314.297 654.034,-302.775 381,-256 307.408,-243.393 223.687,-217.817 177.752,-202.779"/>
<polygon fill="midnightblue" stroke="midnightblue" points="178.592,-199.371 167.999,-199.558 176.397,-206.018 178.592,-199.371"/>
</g>
<!-- Node7 -->
<g id="node7" class="node"><title>Node7</title>
<polygon fill="none" stroke="#bfbfbf" points="566,-62.5 566,-81.5 610,-81.5 610,-62.5 566,-62.5"/>
<text text-anchor="middle" x="588" y="-69.5" font-family="Helvetica,sans-Serif" font-size="10.00">vector</text>
</g>
<!-- Node1&#45;&gt;Node7 -->
<g id="edge47" class="edge"><title>Node1&#45;&gt;Node7</title>
<path fill="none" stroke="midnightblue" d="M1139.5,-308.455C997.277,-292.235 733.41,-255.55 658,-200 620.958,-172.713 601.131,-119.669 592.816,-91.5442"/>
<polygon fill="midnightblue" stroke="midnightblue" points="596.152,-90.4765 590.1,-81.7801 589.408,-92.3523 596.152,-90.4765"/>
</g>
<!-- Node8 -->
<g id="node8" class="node"><title>Node8</title>
<g id="a_node8"><a xlink:href="../../db/df0/DigitBlock_8h.html" target="_top" xlink:title="DigitBlock.h">
<polygon fill="none" stroke="black" points="45,-124.5 45,-143.5 115,-143.5 115,-124.5 45,-124.5"/>
<text text-anchor="middle" x="80" y="-131.5" font-family="Helvetica,sans-Serif" font-size="10.00">DigitBlock.h</text>
</a>
</g>
</g>
<!-- Node1&#45;&gt;Node8 -->
<g id="edge51" class="edge"><title>Node1&#45;&gt;Node8</title>
<path fill="none" stroke="midnightblue" d="M1139.26,-317.194C969.827,-314.547 599.28,-303.321 291,-256 187.009,-240.037 126.001,-282.727 61,-200 50.1553,-186.198 58.4218,-166.387 67.1969,-152.27"/>
<polygon fill="midnightblue" stroke="midnightblue" points="70.1316,-154.179 72.8412,-143.936 64.3357,-150.253 70.1316,-154.179"/>
</g>
<!-- Node13 -->
<g id="node13" class="node"><title>Node13</title>
<polygon fill="none" stroke="#bfbfbf" points="920,-0.5 920,-19.5 972,-19.5 972,-0.5 920,-0.5"/>
<text text-anchor="middle" x="946" y="-7.5" font-family="Helvetica,sans-Serif" font-size="10.00">memory</text>
</g>
<!-- Node1&#45;&gt;Node13 -->
<g id="edge45" class="edge"><title>Node1&#45;&gt;Node13</title>
<path fill="none" stroke="midnightblue" d="M1225.99,-292.865C1220.42,-267.362 1213,-226.67 1213,-191 1213,-191 1213,-191 1213,-133 1213,-95.7673 1209,-79.3521 1180,-56 1150.05,-31.879 1040.17,-19.0585 982.265,-13.8472"/>
<polygon fill="midnightblue" stroke="midnightblue" points="982.355,-10.3418 972.089,-12.9617 981.748,-17.3155 982.355,-10.3418"/>
</g>
<!-- Node22 -->
<g id="node22" class="node"><title>Node22</title>
<polygon fill="none" stroke="#bfbfbf" points="1105.5,-0.5 1105.5,-19.5 1164.5,-19.5 1164.5,-0.5 1105.5,-0.5"/>
<text text-anchor="middle" x="1135" y="-7.5" font-family="Helvetica,sans-Serif" font-size="10.00">stdexcept</text>
</g>
<!-- Node1&#45;&gt;Node22 -->
<g id="edge46" class="edge"><title>Node1&#45;&gt;Node22</title>
<path fill="none" stroke="midnightblue" d="M1238.01,-292.865C1243.58,-267.362 1251,-226.67 1251,-191 1251,-191 1251,-191 1251,-133 1251,-97.154 1250.34,-83.2073 1227,-56 1213.26,-39.9846 1192.49,-29.1475 1174.16,-22.1292"/>
<polygon fill="midnightblue" stroke="midnightblue" points="1175.16,-18.7708 1164.57,-18.7073 1172.81,-25.3638 1175.16,-18.7708"/>
</g>
<!-- Node28 -->
<g id="node28" class="node"><title>Node28</title>
<polygon fill="none" stroke="#bfbfbf" points="1279,-236.5 1279,-255.5 1325,-255.5 1325,-236.5 1279,-236.5"/>
<text text-anchor="middle" x="1302" y="-243.5" font-family="Helvetica,sans-Serif" font-size="10.00">chrono</text>
</g>
<!-- Node1&#45;&gt;Node28 -->
<g id="edge44" class="edge"><title>Node1&#45;&gt;Node28</title>
<path fill="none" stroke="midnightblue" d="M1256.88,-292.768C1266.62,-282.881 1277.52,-271.831 1286.16,-263.066"/>
<polygon fill="midnightblue" stroke="midnightblue" points="1288.84,-265.335 1293.37,-255.757 1283.85,-260.421 1288.84,-265.335"/>
</g>
<!-- Node29 -->
<g id="node29" class="node"><title>Node29</title>
<polygon fill="none" stroke="#bfbfbf" points="1343,-236.5 1343,-255.5 1429,-255.5 1429,-236.5 1343,-236.5"/>
<text text-anchor="middle" x="1386" y="-243.5" font-family="Helvetica,sans-Serif" font-size="10.00">FairMQLogger.h</text>
</g>
<!-- Node1&#45;&gt;Node29 -->
<g id="edge48" class="edge"><title>Node1&#45;&gt;Node29</title>
<path fill="none" stroke="midnightblue" d="M1286.29,-292.968C1310.56,-281.783 1338.12,-269.075 1358.11,-259.86"/>
<polygon fill="midnightblue" stroke="midnightblue" points="1359.65,-263.004 1367.26,-255.639 1356.72,-256.647 1359.65,-263.004"/>
</g>
<!-- Node30 -->
<g id="node30" class="node"><title>Node30</title>
<polygon fill="none" stroke="#bfbfbf" points="1447.5,-236.5 1447.5,-255.5 1544.5,-255.5 1544.5,-236.5 1447.5,-236.5"/>
<text text-anchor="middle" x="1496" y="-243.5" font-family="Helvetica,sans-Serif" font-size="10.00">FairMQMessage.h</text>
</g>
<!-- Node1&#45;&gt;Node30 -->
<g id="edge49" class="edge"><title>Node1&#45;&gt;Node30</title>
<path fill="none" stroke="midnightblue" d="M1324.71,-293.068C1368.92,-281.176 1419.61,-267.543 1454.31,-258.211"/>
<polygon fill="midnightblue" stroke="midnightblue" points="1455.35,-261.557 1464.1,-255.58 1453.53,-254.797 1455.35,-261.557"/>
</g>
<!-- Node31 -->
<g id="node31" class="node"><title>Node31</title>
<polygon fill="none" stroke="#bfbfbf" points="1563,-236.5 1563,-255.5 1709,-255.5 1709,-236.5 1563,-236.5"/>
<text text-anchor="middle" x="1636" y="-243.5" font-family="Helvetica,sans-Serif" font-size="10.00">options/FairMQProgOptions.h</text>
</g>
<!-- Node1&#45;&gt;Node31 -->
<g id="edge50" class="edge"><title>Node1&#45;&gt;Node31</title>
<path fill="none" stroke="midnightblue" d="M1324.69,-301.711C1402.41,-288.051 1511.04,-268.961 1577.29,-257.318"/>
<polygon fill="midnightblue" stroke="midnightblue" points="1578.3,-260.694 1587.54,-255.516 1577.09,-253.8 1578.3,-260.694"/>
</g>
<!-- Node3 -->
<g id="node3" class="node"><title>Node3</title>
<polygon fill="none" stroke="#bfbfbf" points="300,-180.5 300,-199.5 388,-199.5 388,-180.5 300,-180.5"/>
<text text-anchor="middle" x="344" y="-187.5" font-family="Helvetica,sans-Serif" font-size="10.00">FairMQDevice.h</text>
</g>
<!-- Node2&#45;&gt;Node3 -->
<g id="edge2" class="edge"><title>Node2&#45;&gt;Node3</title>
<path fill="none" stroke="midnightblue" d="M437.166,-236.324C419.284,-227.625 391.525,-214.12 370.954,-204.113"/>
<polygon fill="midnightblue" stroke="midnightblue" points="372.313,-200.882 361.79,-199.655 369.251,-207.177 372.313,-200.882"/>
</g>
<!-- Node4 -->
<g id="node4" class="node"><title>Node4</title>
<polygon fill="none" stroke="#bfbfbf" points="196,-0.5 196,-19.5 242,-19.5 242,-0.5 196,-0.5"/>
<text text-anchor="middle" x="219" y="-7.5" font-family="Helvetica,sans-Serif" font-size="10.00">cstdint</text>
</g>
<!-- Node2&#45;&gt;Node4 -->
<g id="edge3" class="edge"><title>Node2&#45;&gt;Node4</title>
<path fill="none" stroke="midnightblue" d="M390.186,-238.455C357.86,-232.555 319.655,-221.335 291,-200 244.475,-165.36 240.697,-143.549 224,-88 218.228,-68.7983 217.496,-45.7291 217.884,-29.8782"/>
<polygon fill="midnightblue" stroke="midnightblue" points="221.386,-29.9086 218.308,-19.7706 214.392,-29.615 221.386,-29.9086"/>
</g>
<!-- Node2&#45;&gt;Node5 -->
<g id="edge4" class="edge"><title>Node2&#45;&gt;Node5</title>
<path fill="none" stroke="midnightblue" d="M405.563,-236.444C350.336,-226.885 260.979,-211.419 202.105,-201.23"/>
<polygon fill="midnightblue" stroke="midnightblue" points="202.656,-197.773 192.206,-199.516 201.463,-204.671 202.656,-197.773"/>
</g>
<!-- Node9 -->
<g id="node9" class="node"><title>Node9</title>
<g id="a_node9"><a xlink:href="../../db/dad/PreClusterFinder_8h.html" target="_top" xlink:title="PreClusterFinder.h">
<polygon fill="none" stroke="black" points="406,-180.5 406,-199.5 504,-199.5 504,-180.5 406,-180.5"/>
<text text-anchor="middle" x="455" y="-187.5" font-family="Helvetica,sans-Serif" font-size="10.00">PreClusterFinder.h</text>
</a>
</g>
</g>
<!-- Node2&#45;&gt;Node9 -->
<g id="edge11" class="edge"><title>Node2&#45;&gt;Node9</title>
<path fill="none" stroke="midnightblue" d="M455,-236.083C455,-229.006 455,-218.861 455,-209.986"/>
<polygon fill="midnightblue" stroke="midnightblue" points="458.5,-209.751 455,-199.751 451.5,-209.751 458.5,-209.751"/>
</g>
<!-- Node15 -->
<g id="node15" class="node"><title>Node15</title>
<g id="a_node15"><a xlink:href="../../d6/d34/AliHLTDataTypes_8h.html" target="_top" xlink:title="Data type declaration for the HLT module. ">
<polygon fill="none" stroke="black" points="1027,-57 1027,-87 1171,-87 1171,-57 1027,-57"/>
<text text-anchor="start" x="1035" y="-75" font-family="Helvetica,sans-Serif" font-size="10.00">aliceHLTwrapper/AliHLTData</text>
<text text-anchor="middle" x="1099" y="-64" font-family="Helvetica,sans-Serif" font-size="10.00">Types.h</text>
</a>
</g>
</g>
<!-- Node2&#45;&gt;Node15 -->
<g id="edge22" class="edge"><title>Node2&#45;&gt;Node15</title>
<path fill="none" stroke="midnightblue" d="M519.741,-240.526C685.393,-228.412 1114.47,-192.59 1155,-144 1169.17,-127.016 1150.78,-107.224 1131.38,-92.8577"/>
<polygon fill="midnightblue" stroke="midnightblue" points="1133.3,-89.9259 1123.1,-87.0568 1129.28,-95.6598 1133.3,-89.9259"/>
</g>
<!-- Node16 -->
<g id="node16" class="node"><title>Node16</title>
<g id="a_node16"><a xlink:href="../../d2/dda/MessageFormat_8h.html" target="_top" xlink:title="aliceHLTwrapper/MessageFormat.h">
<polygon fill="none" stroke="black" points="667,-180.5 667,-199.5 839,-199.5 839,-180.5 667,-180.5"/>
<text text-anchor="middle" x="753" y="-187.5" font-family="Helvetica,sans-Serif" font-size="10.00">aliceHLTwrapper/MessageFormat.h</text>
</a>
</g>
</g>
<!-- Node2&#45;&gt;Node16 -->
<g id="edge23" class="edge"><title>Node2&#45;&gt;Node16</title>
<path fill="none" stroke="midnightblue" d="M502.219,-236.444C554.749,-226.925 639.61,-211.547 695.848,-201.356"/>
<polygon fill="midnightblue" stroke="midnightblue" points="696.786,-204.743 706.002,-199.516 695.538,-197.856 696.786,-204.743"/>
</g>
<!-- Node5&#45;&gt;Node4 -->
<g id="edge5" class="edge"><title>Node5&#45;&gt;Node4</title>
<path fill="none" stroke="midnightblue" d="M142.642,-180.243C142.121,-157.937 143.184,-97.7898 167,-56 173.927,-43.8445 185.409,-33.3881 195.824,-25.6223"/>
<polygon fill="midnightblue" stroke="midnightblue" points="198.017,-28.359 204.198,-19.7537 194,-22.6265 198.017,-28.359"/>
</g>
<!-- Node6 -->
<g id="node6" class="node"><title>Node6</title>
<polygon fill="none" stroke="#bfbfbf" points="0,-62.5 0,-81.5 52,-81.5 52,-62.5 0,-62.5"/>
<text text-anchor="middle" x="26" y="-69.5" font-family="Helvetica,sans-Serif" font-size="10.00">ostream</text>
</g>
<!-- Node5&#45;&gt;Node6 -->
<g id="edge6" class="edge"><title>Node5&#45;&gt;Node6</title>
<path fill="none" stroke="midnightblue" d="M96.4393,-180.455C74.7827,-174.059 50.6333,-162.999 36,-144 24.6313,-129.239 23.1379,-107.469 23.8586,-91.9312"/>
<polygon fill="midnightblue" stroke="midnightblue" points="27.3517,-92.1566 24.6652,-81.908 20.3743,-91.595 27.3517,-92.1566"/>
</g>
<!-- Node5&#45;&gt;Node7 -->
<g id="edge7" class="edge"><title>Node5&#45;&gt;Node7</title>
<path fill="none" stroke="midnightblue" d="M157.178,-180.332C180.881,-166.246 230.451,-138.505 276,-124 374.999,-92.4726 498.186,-79.6849 555.658,-75.1616"/>
<polygon fill="midnightblue" stroke="midnightblue" points="556.219,-78.6293 565.927,-74.3872 555.692,-71.6492 556.219,-78.6293"/>
</g>
<!-- Node5&#45;&gt;Node8 -->
<g id="edge8" class="edge"><title>Node5&#45;&gt;Node8</title>
<path fill="none" stroke="midnightblue" d="M132.878,-180.324C123.474,-172.263 109.256,-160.077 97.931,-150.369"/>
<polygon fill="midnightblue" stroke="midnightblue" points="100.177,-147.684 90.3062,-143.834 95.621,-152.999 100.177,-147.684"/>
</g>
<!-- Node8&#45;&gt;Node4 -->
<g id="edge9" class="edge"><title>Node8&#45;&gt;Node4</title>
<path fill="none" stroke="midnightblue" d="M83.6334,-124.306C90.4811,-108.812 106.643,-76.1632 129,-56 145.604,-41.0246 168.104,-29.7749 186.452,-22.2688"/>
<polygon fill="midnightblue" stroke="midnightblue" points="187.843,-25.4831 195.884,-18.5847 185.296,-18.9628 187.843,-25.4831"/>
</g>
<!-- Node8&#45;&gt;Node6 -->
<g id="edge10" class="edge"><title>Node8&#45;&gt;Node6</title>
<path fill="none" stroke="midnightblue" d="M72.2631,-124.403C64.0027,-115.225 50.7229,-100.47 40.5055,-89.1173"/>
<polygon fill="midnightblue" stroke="midnightblue" points="43.0137,-86.6722 33.7225,-81.5806 37.8107,-91.3549 43.0137,-86.6722"/>
</g>
<!-- Node9&#45;&gt;Node4 -->
<g id="edge13" class="edge"><title>Node9&#45;&gt;Node4</title>
<path fill="none" stroke="midnightblue" d="M405.727,-181.633C359.74,-173.885 295.384,-160.53 276,-144 240.9,-114.068 226.827,-58.6474 221.675,-29.7032"/>
<polygon fill="midnightblue" stroke="midnightblue" points="225.11,-29.0157 220.067,-19.698 218.199,-30.1268 225.11,-29.0157"/>
</g>
<!-- Node9&#45;&gt;Node7 -->
<g id="edge15" class="edge"><title>Node9&#45;&gt;Node7</title>
<path fill="none" stroke="midnightblue" d="M477.488,-180.442C495.52,-172.806 520.742,-160.315 539,-144 556.04,-128.774 570.174,-106.476 578.813,-90.9455"/>
<polygon fill="midnightblue" stroke="midnightblue" points="582.043,-92.3279 583.672,-81.859 575.87,-89.0269 582.043,-92.3279"/>
</g>
<!-- Node9&#45;&gt;Node8 -->
<g id="edge16" class="edge"><title>Node9&#45;&gt;Node8</title>
<path fill="none" stroke="midnightblue" d="M405.75,-181.45C402.451,-180.956 399.178,-180.469 396,-180 299.608,-165.785 186.558,-149.869 125.203,-141.294"/>
<polygon fill="midnightblue" stroke="midnightblue" points="125.475,-137.798 115.087,-139.881 124.507,-144.73 125.475,-137.798"/>
</g>
<!-- Node10 -->
<g id="node10" class="node"><title>Node10</title>
<polygon fill="none" stroke="#bfbfbf" points="500.5,-0.5 500.5,-19.5 549.5,-19.5 549.5,-0.5 500.5,-0.5"/>
<text text-anchor="middle" x="525" y="-7.5" font-family="Helvetica,sans-Serif" font-size="10.00">cassert</text>
</g>
<!-- Node9&#45;&gt;Node10 -->
<g id="edge12" class="edge"><title>Node9&#45;&gt;Node10</title>
<path fill="none" stroke="midnightblue" d="M468.887,-180.494C480.539,-172.565 496.589,-159.632 505,-144 524.757,-107.281 526.682,-57.0733 526.04,-30.0622"/>
<polygon fill="midnightblue" stroke="midnightblue" points="529.523,-29.5691 525.635,-19.7135 522.529,-29.8426 529.523,-29.5691"/>
</g>
<!-- Node11 -->
<g id="node11" class="node"><title>Node11</title>
<polygon fill="none" stroke="#bfbfbf" points="413.5,-124.5 413.5,-143.5 496.5,-143.5 496.5,-124.5 413.5,-124.5"/>
<text text-anchor="middle" x="455" y="-131.5" font-family="Helvetica,sans-Serif" font-size="10.00">unordered_map</text>
</g>
<!-- Node9&#45;&gt;Node11 -->
<g id="edge14" class="edge"><title>Node9&#45;&gt;Node11</title>
<path fill="none" stroke="midnightblue" d="M455,-180.083C455,-173.006 455,-162.861 455,-153.986"/>
<polygon fill="midnightblue" stroke="midnightblue" points="458.5,-153.751 455,-143.751 451.5,-153.751 458.5,-153.751"/>
</g>
<!-- Node12 -->
<g id="node12" class="node"><title>Node12</title>
<g id="a_node12"><a xlink:href="../../d9/d9d/MCH_2Base_2include_2MCHBase_2Mapping_8h.html" target="_top" xlink:title="MCHBase/Mapping.h">
<polygon fill="none" stroke="black" points="285,-124.5 285,-143.5 395,-143.5 395,-124.5 285,-124.5"/>
<text text-anchor="middle" x="340" y="-131.5" font-family="Helvetica,sans-Serif" font-size="10.00">MCHBase/Mapping.h</text>
</a>
</g>
</g>
<!-- Node9&#45;&gt;Node12 -->
<g id="edge17" class="edge"><title>Node9&#45;&gt;Node12</title>
<path fill="none" stroke="midnightblue" d="M436.778,-180.444C418.104,-171.675 388.844,-157.935 367.383,-147.858"/>
<polygon fill="midnightblue" stroke="midnightblue" points="368.676,-144.599 358.137,-143.516 365.701,-150.935 368.676,-144.599"/>
</g>
<!-- Node12&#45;&gt;Node4 -->
<g id="edge18" class="edge"><title>Node12&#45;&gt;Node4</title>
<path fill="none" stroke="midnightblue" d="M331.298,-124.226C311.066,-103.826 260.622,-52.9657 234.789,-26.9198"/>
<polygon fill="midnightblue" stroke="midnightblue" points="237.15,-24.3299 227.623,-19.6944 232.18,-29.2593 237.15,-24.3299"/>
</g>
<!-- Node12&#45;&gt;Node7 -->
<g id="edge20" class="edge"><title>Node12&#45;&gt;Node7</title>
<path fill="none" stroke="midnightblue" d="M375.269,-124.467C423.507,-112.797 509.366,-92.0243 555.893,-80.7679"/>
<polygon fill="midnightblue" stroke="midnightblue" points="556.844,-84.1387 565.741,-78.3853 555.198,-77.335 556.844,-84.1387"/>
</g>
<!-- Node12&#45;&gt;Node13 -->
<g id="edge19" class="edge"><title>Node12&#45;&gt;Node13</title>
<path fill="none" stroke="midnightblue" d="M395.133,-125.047C398.13,-124.677 401.101,-124.325 404,-124 594.586,-102.638 653.385,-152.481 834,-88 844.12,-84.3871 896.544,-46.9305 925.945,-25.6223"/>
<polygon fill="midnightblue" stroke="midnightblue" points="928.225,-28.2923 934.259,-19.5832 924.111,-22.6289 928.225,-28.2923"/>
</g>
<!-- Node14 -->
<g id="node14" class="node"><title>Node14</title>
<polygon fill="none" stroke="#bfbfbf" points="309,-62.5 309,-81.5 371,-81.5 371,-62.5 309,-62.5"/>
<text text-anchor="middle" x="340" y="-69.5" font-family="Helvetica,sans-Serif" font-size="10.00">TExMap.h</text>
</g>
<!-- Node12&#45;&gt;Node14 -->
<g id="edge21" class="edge"><title>Node12&#45;&gt;Node14</title>
<path fill="none" stroke="midnightblue" d="M340,-124.403C340,-115.938 340,-102.728 340,-91.8199"/>
<polygon fill="midnightblue" stroke="midnightblue" points="343.5,-91.5806 340,-81.5806 336.5,-91.5806 343.5,-91.5806"/>
</g>
<!-- Node16&#45;&gt;Node4 -->
<g id="edge28" class="edge"><title>Node16&#45;&gt;Node4</title>
<path fill="none" stroke="midnightblue" d="M747.295,-180.191C730.769,-155.518 680.063,-85.6072 618,-56 553.505,-25.2327 336.417,-14.8843 252.502,-11.9827"/>
<polygon fill="midnightblue" stroke="midnightblue" points="252.369,-8.47645 242.259,-11.6429 252.137,-15.4726 252.369,-8.47645"/>
</g>
<!-- Node16&#45;&gt;Node7 -->
<g id="edge27" class="edge"><title>Node16&#45;&gt;Node7</title>
<path fill="none" stroke="midnightblue" d="M731.649,-180.453C712.766,-172.409 684.895,-159.33 663,-144 639.949,-127.861 616.975,-104.827 602.645,-89.4167"/>
<polygon fill="midnightblue" stroke="midnightblue" points="604.956,-86.7567 595.628,-81.7321 599.787,-91.4768 604.956,-86.7567"/>
</g>
<!-- Node16&#45;&gt;Node15 -->
<g id="edge24" class="edge"><title>Node16&#45;&gt;Node15</title>
<path fill="none" stroke="midnightblue" d="M839.13,-183.276C888.673,-177.619 951.173,-166.369 1003,-144 1030.89,-131.961 1058.31,-110.437 1076.66,-94.234"/>
<polygon fill="midnightblue" stroke="midnightblue" points="1079.35,-96.5199 1084.42,-87.2167 1074.65,-91.3279 1079.35,-96.5199"/>
</g>
<!-- Node17 -->
<g id="node17" class="node"><title>Node17</title>
<g id="a_node17"><a xlink:href="../../d2/de6/HOMERFactory_8h.html" target="_top" xlink:title="HOMERFactory.h">
<polygon fill="none" stroke="black" points="1051.5,-124.5 1051.5,-143.5 1146.5,-143.5 1146.5,-124.5 1051.5,-124.5"/>
<text text-anchor="middle" x="1099" y="-131.5" font-family="Helvetica,sans-Serif" font-size="10.00">HOMERFactory.h</text>
</a>
</g>
</g>
<!-- Node16&#45;&gt;Node17 -->
<g id="edge25" class="edge"><title>Node16&#45;&gt;Node17</title>
<path fill="none" stroke="midnightblue" d="M807.825,-180.444C871.583,-170.493 976.363,-154.14 1041.32,-144.002"/>
<polygon fill="midnightblue" stroke="midnightblue" points="1042.05,-147.431 1051.39,-142.431 1040.97,-140.515 1042.05,-147.431"/>
</g>
<!-- Node18 -->
<g id="node18" class="node"><title>Node18</title>
<polygon fill="none" stroke="#bfbfbf" points="743,-124.5 743,-143.5 841,-143.5 841,-124.5 743,-124.5"/>
<text text-anchor="middle" x="792" y="-131.5" font-family="Helvetica,sans-Serif" font-size="10.00">boost/signals2.hpp</text>
</g>
<!-- Node16&#45;&gt;Node18 -->
<g id="edge29" class="edge"><title>Node16&#45;&gt;Node18</title>
<path fill="none" stroke="midnightblue" d="M759.44,-180.083C764.949,-172.455 773.031,-161.264 779.765,-151.941"/>
<polygon fill="midnightblue" stroke="midnightblue" points="782.662,-153.907 785.68,-143.751 776.987,-149.809 782.662,-153.907"/>
</g>
<!-- Node19 -->
<g id="node19" class="node"><title>Node19</title>
<g id="a_node19"><a xlink:href="../../dc/dcd/DataHeader_8h.html" target="_top" xlink:title="Headers/DataHeader.h">
<polygon fill="none" stroke="black" points="708.5,-62.5 708.5,-81.5 825.5,-81.5 825.5,-62.5 708.5,-62.5"/>
<text text-anchor="middle" x="767" y="-69.5" font-family="Helvetica,sans-Serif" font-size="10.00">Headers/DataHeader.h</text>
</a>
</g>
</g>
<!-- Node16&#45;&gt;Node19 -->
<g id="edge30" class="edge"><title>Node16&#45;&gt;Node19</title>
<path fill="none" stroke="midnightblue" d="M747.133,-180.164C739.574,-167.655 728.073,-144.07 734,-124 737.712,-111.43 745.598,-99.0448 752.729,-89.6276"/>
<polygon fill="midnightblue" stroke="midnightblue" points="755.644,-91.588 759.175,-81.599 750.185,-87.2056 755.644,-91.588"/>
</g>
<!-- Node25 -->
<g id="node25" class="node"><title>Node25</title>
<g id="a_node25"><a xlink:href="../../d2/d09/HeartbeatFrame_8h.html" target="_top" xlink:title="Headers/HeartbeatFrame.h">
<polygon fill="none" stroke="black" points="859.5,-124.5 859.5,-143.5 994.5,-143.5 994.5,-124.5 859.5,-124.5"/>
<text text-anchor="middle" x="927" y="-131.5" font-family="Helvetica,sans-Serif" font-size="10.00">Headers/HeartbeatFrame.h</text>
</a>
</g>
</g>
<!-- Node16&#45;&gt;Node25 -->
<g id="edge39" class="edge"><title>Node16&#45;&gt;Node25</title>
<path fill="none" stroke="midnightblue" d="M780.571,-180.444C810.097,-171.28 857.118,-156.688 889.883,-146.519"/>
<polygon fill="midnightblue" stroke="midnightblue" points="891.045,-149.823 899.558,-143.516 888.97,-143.138 891.045,-149.823"/>
</g>
<!-- Node17&#45;&gt;Node15 -->
<g id="edge26" class="edge"><title>Node17&#45;&gt;Node15</title>
<path fill="none" stroke="midnightblue" d="M1099,-124.403C1099,-117.341 1099,-106.975 1099,-97.399"/>
<polygon fill="midnightblue" stroke="midnightblue" points="1102.5,-97.1408 1099,-87.1408 1095.5,-97.1408 1102.5,-97.1408"/>
</g>
<!-- Node19&#45;&gt;Node4 -->
<g id="edge31" class="edge"><title>Node19&#45;&gt;Node4</title>
<path fill="none" stroke="midnightblue" d="M727.683,-62.4638C715.926,-60.1215 702.977,-57.7484 691,-56 527.244,-32.0947 329.591,-17.9831 252.277,-13.026"/>
<polygon fill="midnightblue" stroke="midnightblue" points="252.383,-9.52584 242.182,-12.3872 251.941,-16.5119 252.383,-9.52584"/>
</g>
<!-- Node19&#45;&gt;Node10 -->
<g id="edge33" class="edge"><title>Node19&#45;&gt;Node10</title>
<path fill="none" stroke="midnightblue" d="M730.679,-62.4503C690.97,-53.0337 625.211,-37.2389 559.898,-20.4466"/>
<polygon fill="midnightblue" stroke="midnightblue" points="560.405,-16.9626 549.847,-17.8534 558.656,-23.7407 560.405,-16.9626"/>
</g>
<!-- Node19&#45;&gt;Node13 -->
<g id="edge32" class="edge"><title>Node19&#45;&gt;Node13</title>
<path fill="none" stroke="midnightblue" d="M792.646,-62.4035C823.617,-52.0222 875.873,-34.5062 910.651,-22.849"/>
<polygon fill="midnightblue" stroke="midnightblue" points="912.032,-26.0774 920.401,-19.5806 909.807,-19.4403 912.032,-26.0774"/>
</g>
<!-- Node20 -->
<g id="node20" class="node"><title>Node20</title>
<polygon fill="none" stroke="#bfbfbf" points="782,-0.5 782,-19.5 828,-19.5 828,-0.5 782,-0.5"/>
<text text-anchor="middle" x="805" y="-7.5" font-family="Helvetica,sans-Serif" font-size="10.00">cstring</text>
</g>
<!-- Node19&#45;&gt;Node20 -->
<g id="edge34" class="edge"><title>Node19&#45;&gt;Node20</title>
<path fill="none" stroke="midnightblue" d="M772.444,-62.4035C778.088,-53.4925 787.061,-39.3247 794.159,-28.1177"/>
<polygon fill="midnightblue" stroke="midnightblue" points="797.172,-29.9015 799.566,-19.5806 791.258,-26.1561 797.172,-29.9015"/>
</g>
<!-- Node21 -->
<g id="node21" class="node"><title>Node21</title>
<polygon fill="none" stroke="#bfbfbf" points="846,-0.5 846,-19.5 902,-19.5 902,-0.5 846,-0.5"/>
<text text-anchor="middle" x="874" y="-7.5" font-family="Helvetica,sans-Serif" font-size="10.00">algorithm</text>
</g>
<!-- Node19&#45;&gt;Node21 -->
<g id="edge35" class="edge"><title>Node19&#45;&gt;Node21</title>
<path fill="none" stroke="midnightblue" d="M782.33,-62.4035C799.97,-52.5123 829.16,-36.1442 849.858,-24.5378"/>
<polygon fill="midnightblue" stroke="midnightblue" points="851.688,-27.5244 858.698,-19.5806 848.264,-21.4188 851.688,-27.5244"/>
</g>
<!-- Node19&#45;&gt;Node22 -->
<g id="edge36" class="edge"><title>Node19&#45;&gt;Node22</title>
<path fill="none" stroke="midnightblue" d="M819.335,-62.4672C893.736,-50.3366 1028.45,-28.3721 1095.24,-17.4819"/>
<polygon fill="midnightblue" stroke="midnightblue" points="1096.05,-20.8961 1105.36,-15.8324 1094.93,-13.9873 1096.05,-20.8961"/>
</g>
<!-- Node23 -->
<g id="node23" class="node"><title>Node23</title>
<polygon fill="none" stroke="#bfbfbf" points="567.5,-0.5 567.5,-19.5 608.5,-19.5 608.5,-0.5 567.5,-0.5"/>
<text text-anchor="middle" x="588" y="-7.5" font-family="Helvetica,sans-Serif" font-size="10.00">string</text>
</g>
<!-- Node19&#45;&gt;Node23 -->
<g id="edge37" class="edge"><title>Node19&#45;&gt;Node23</title>
<path fill="none" stroke="midnightblue" d="M741.354,-62.4035C708.799,-51.4914 652.727,-32.6961 618.157,-21.1083"/>
<polygon fill="midnightblue" stroke="midnightblue" points="619.185,-17.7617 608.591,-17.902 616.96,-24.3987 619.185,-17.7617"/>
</g>
<!-- Node24 -->
<g id="node24" class="node"><title>Node24</title>
<g id="a_node24"><a xlink:href="../../d7/df8/Types_8h.html" target="_top" xlink:title="MemoryResources/Types.h">
<polygon fill="none" stroke="black" points="626.5,-0.5 626.5,-19.5 763.5,-19.5 763.5,-0.5 626.5,-0.5"/>
<text text-anchor="middle" x="695" y="-7.5" font-family="Helvetica,sans-Serif" font-size="10.00">MemoryResources/Types.h</text>
</a>
</g>
</g>
<!-- Node19&#45;&gt;Node24 -->
<g id="edge38" class="edge"><title>Node19&#45;&gt;Node24</title>
<path fill="none" stroke="midnightblue" d="M756.684,-62.4035C745.349,-52.9579 726.927,-37.6056 713.161,-26.1342"/>
<polygon fill="midnightblue" stroke="midnightblue" points="715.22,-23.2937 705.297,-19.5806 710.738,-28.6713 715.22,-23.2937"/>
</g>
<!-- Node25&#45;&gt;Node7 -->
<g id="edge43" class="edge"><title>Node25&#45;&gt;Node7</title>
<path fill="none" stroke="midnightblue" d="M878.79,-124.467C808.605,-112.045 680.159,-89.3113 620.299,-78.7167"/>
<polygon fill="midnightblue" stroke="midnightblue" points="620.743,-75.2409 610.286,-76.9445 619.523,-82.1338 620.743,-75.2409"/>
</g>
<!-- Node25&#45;&gt;Node19 -->
<g id="edge40" class="edge"><title>Node25&#45;&gt;Node19</title>
<path fill="none" stroke="midnightblue" d="M904.076,-124.403C876.63,-114.111 830.484,-96.8064 799.401,-85.1504"/>
<polygon fill="midnightblue" stroke="midnightblue" points="800.474,-81.8147 789.882,-81.5806 798.016,-88.369 800.474,-81.8147"/>
</g>
<!-- Node26 -->
<g id="node26" class="node"><title>Node26</title>
<polygon fill="none" stroke="#bfbfbf" points="894.5,-62.5 894.5,-81.5 953.5,-81.5 953.5,-62.5 894.5,-62.5"/>
<text text-anchor="middle" x="924" y="-69.5" font-family="Helvetica,sans-Serif" font-size="10.00">functional</text>
</g>
<!-- Node25&#45;&gt;Node26 -->
<g id="edge41" class="edge"><title>Node25&#45;&gt;Node26</title>
<path fill="none" stroke="midnightblue" d="M926.57,-124.403C926.147,-115.938 925.486,-102.728 924.941,-91.8199"/>
<polygon fill="midnightblue" stroke="midnightblue" points="928.424,-91.3933 924.429,-81.5806 921.433,-91.7429 928.424,-91.3933"/>
</g>
<!-- Node27 -->
<g id="node27" class="node"><title>Node27</title>
<polygon fill="none" stroke="#bfbfbf" points="971.5,-62.5 971.5,-81.5 1006.5,-81.5 1006.5,-62.5 971.5,-62.5"/>
<text text-anchor="middle" x="989" y="-69.5" font-family="Helvetica,sans-Serif" font-size="10.00">map</text>
</g>
<!-- Node25&#45;&gt;Node27 -->
<g id="edge42" class="edge"><title>Node25&#45;&gt;Node27</title>
<path fill="none" stroke="midnightblue" d="M935.883,-124.403C945.459,-115.136 960.911,-100.183 972.686,-88.7876"/>
<polygon fill="midnightblue" stroke="midnightblue" points="975.381,-91.05 980.133,-81.5806 970.513,-86.0197 975.381,-91.05"/>
</g>
</g>
</svg>
