<?xml version="1.0" encoding="UTF-8" standalone="no"?>
<!DOCTYPE svg PUBLIC "-//W3C//DTD SVG 1.1//EN"
 "http://www.w3.org/Graphics/SVG/1.1/DTD/svg11.dtd">
<!-- Generated by graphviz version 2.36.0 (20140111.2315)
 -->
<!-- Title: /home/travis/build/AliceO2Group/AliceO2/Utilities/MCStepLogger/src/ROOTIOUtilities.cxx Pages: 1 -->
<svg width="444pt" height="174pt"
 viewBox="0.00 0.00 444.00 174.00" xmlns="http://www.w3.org/2000/svg" xmlns:xlink="http://www.w3.org/1999/xlink">
<g id="graph0" class="graph" transform="scale(1 1) rotate(0) translate(4 170)">
<title>/home/travis/build/AliceO2Group/AliceO2/Utilities/MCStepLogger/src/ROOTIOUtilities.cxx</title>
<!-- Node1 -->
<g id="node1" class="node"><title>Node1</title>
<polygon fill="#bfbfbf" stroke="black" points="158.5,-113 158.5,-165 285.5,-165 285.5,-113 158.5,-113"/>
<text text-anchor="start" x="166.5" y="-153" font-family="Helvetica,sans-Serif" font-size="10.00">/home/travis/build</text>
<text text-anchor="start" x="166.5" y="-142" font-family="Helvetica,sans-Serif" font-size="10.00">/AliceO2Group/AliceO2</text>
<text text-anchor="start" x="166.5" y="-131" font-family="Helvetica,sans-Serif" font-size="10.00">/Utilities/MCStepLogger</text>
<text text-anchor="middle" x="222" y="-120" font-family="Helvetica,sans-Serif" font-size="10.00">/src/ROOTIOUtilities.cxx</text>
</g>
<!-- Node2 -->
<g id="node2" class="node"><title>Node2</title>
<g id="a_node2"><a xlink:href="../../d0/da1/ROOTIOUtilities_8h.html" target="_top" xlink:title="MCStepLogger/ROOTIOUtilities.h">
<polygon fill="none" stroke="black" points="139.5,-56.5 139.5,-75.5 304.5,-75.5 304.5,-56.5 139.5,-56.5"/>
<text text-anchor="middle" x="222" y="-63.5" font-family="Helvetica,sans-Serif" font-size="10.00">MCStepLogger/ROOTIOUtilities.h</text>
</a>
</g>
</g>
<!-- Node1&#45;&gt;Node2 -->
<g id="edge1" class="edge"><title>Node1&#45;&gt;Node2</title>
<path fill="none" stroke="midnightblue" d="M222,-112.768C222,-103.89 222,-94.0737 222,-85.8165"/>
<polygon fill="midnightblue" stroke="midnightblue" points="225.5,-85.7571 222,-75.7572 218.5,-85.7572 225.5,-85.7571"/>
</g>
<!-- Node3 -->
<g id="node3" class="node"><title>Node3</title>
<polygon fill="none" stroke="#bfbfbf" points="0,-0.5 0,-19.5 62,-19.5 62,-0.5 0,-0.5"/>
<text text-anchor="middle" x="31" y="-7.5" font-family="Helvetica,sans-Serif" font-size="10.00">type_traits</text>
</g>
<!-- Node2&#45;&gt;Node3 -->
<g id="edge2" class="edge"><title>Node2&#45;&gt;Node3</title>
<path fill="none" stroke="midnightblue" d="M191.735,-56.4435C159.045,-47.2011 106.818,-32.4356 70.8171,-22.2572"/>
<polygon fill="midnightblue" stroke="midnightblue" points="71.698,-18.8691 61.1229,-19.5164 69.7935,-25.6051 71.698,-18.8691"/>
</g>
<!-- Node4 -->
<g id="node4" class="node"><title>Node4</title>
<polygon fill="none" stroke="#bfbfbf" points="80.5,-0.5 80.5,-19.5 121.5,-19.5 121.5,-0.5 80.5,-0.5"/>
<text text-anchor="middle" x="101" y="-7.5" font-family="Helvetica,sans-Serif" font-size="10.00">string</text>
</g>
<!-- Node2&#45;&gt;Node4 -->
<g id="edge3" class="edge"><title>Node2&#45;&gt;Node4</title>
<path fill="none" stroke="midnightblue" d="M202.827,-56.4435C183.091,-47.6356 152.115,-33.8116 129.507,-23.722"/>
<polygon fill="midnightblue" stroke="midnightblue" points="130.641,-20.3957 120.083,-19.5164 127.789,-26.788 130.641,-20.3957"/>
</g>
<!-- Node5 -->
<g id="node5" class="node"><title>Node5</title>
<polygon fill="none" stroke="#bfbfbf" points="139.5,-0.5 139.5,-19.5 222.5,-19.5 222.5,-0.5 139.5,-0.5"/>
<text text-anchor="middle" x="181" y="-7.5" font-family="Helvetica,sans-Serif" font-size="10.00">unordered_map</text>
</g>
<!-- Node2&#45;&gt;Node5 -->
<g id="edge4" class="edge"><title>Node2&#45;&gt;Node5</title>
<path fill="none" stroke="midnightblue" d="M215.23,-56.083C209.438,-48.4554 200.942,-37.2645 193.862,-27.9408"/>
<polygon fill="midnightblue" stroke="midnightblue" points="196.479,-25.5991 187.644,-19.7511 190.904,-29.8321 196.479,-25.5991"/>
</g>
<!-- Node6 -->
<g id="node6" class="node"><title>Node6</title>
<polygon fill="none" stroke="#bfbfbf" points="240.5,-0.5 240.5,-19.5 287.5,-19.5 287.5,-0.5 240.5,-0.5"/>
<text text-anchor="middle" x="264" y="-7.5" font-family="Helvetica,sans-Serif" font-size="10.00">TFile.h</text>
</g>
<!-- Node2&#45;&gt;Node6 -->
<g id="edge5" class="edge"><title>Node2&#45;&gt;Node6</title>
<path fill="none" stroke="midnightblue" d="M228.935,-56.083C234.929,-48.3768 243.752,-37.0333 251.048,-27.6531"/>
<polygon fill="midnightblue" stroke="midnightblue" points="253.817,-29.7934 257.194,-19.7511 248.291,-25.4958 253.817,-29.7934"/>
</g>
<!-- Node7 -->
<g id="node7" class="node"><title>Node7</title>
<polygon fill="none" stroke="#bfbfbf" points="306,-0.5 306,-19.5 356,-19.5 356,-0.5 306,-0.5"/>
<text text-anchor="middle" x="331" y="-7.5" font-family="Helvetica,sans-Serif" font-size="10.00">TTree.h</text>
</g>
<!-- Node2&#45;&gt;Node7 -->
<g id="edge6" class="edge"><title>Node2&#45;&gt;Node7</title>
<path fill="none" stroke="midnightblue" d="M239.513,-56.324C257.072,-47.6247 284.331,-34.1202 304.531,-24.113"/>
<polygon fill="midnightblue" stroke="midnightblue" points="306.124,-27.23 313.531,-19.6545 303.016,-20.9575 306.124,-27.23"/>
</g>
<!-- Node8 -->
<g id="node8" class="node"><title>Node8</title>
<polygon fill="none" stroke="#bfbfbf" points="374,-0.5 374,-19.5 436,-19.5 436,-0.5 374,-0.5"/>
<text text-anchor="middle" x="405" y="-7.5" font-family="Helvetica,sans-Serif" font-size="10.00">TBranch.h</text>
</g>
<!-- Node2&#45;&gt;Node8 -->
<g id="edge7" class="edge"><title>Node2&#45;&gt;Node8</title>
<path fill="none" stroke="midnightblue" d="M250.997,-56.4435C282.185,-47.2406 331.93,-32.5617 366.408,-22.3879"/>
<polygon fill="midnightblue" stroke="midnightblue" points="367.538,-25.7036 376.139,-19.5164 365.557,-18.9898 367.538,-25.7036"/>
</g>
</g>
</svg>
