<?xml version="1.0" encoding="UTF-8" standalone="no"?>
<!DOCTYPE svg PUBLIC "-//W3C//DTD SVG 1.1//EN"
 "http://www.w3.org/Graphics/SVG/1.1/DTD/svg11.dtd">
<!-- Generated by graphviz version 2.36.0 (20140111.2315)
 -->
<!-- Title: o2::memory_resource::OwningMessageSpectatorAllocator&lt; T &gt; Pages: 1 -->
<svg width="336pt" height="718pt"
 viewBox="0.00 0.00 336.00 718.00" xmlns="http://www.w3.org/2000/svg" xmlns:xlink="http://www.w3.org/1999/xlink">
<g id="graph0" class="graph" transform="scale(1 1) rotate(0) translate(4 714)">
<title>o2::memory_resource::OwningMessageSpectatorAllocator&lt; T &gt;</title>
<!-- Node1 -->
<g id="node1" class="node"><title>Node1</title>
<polygon fill="#bfbfbf" stroke="black" points="37,-1 37,-201 237,-201 237,-1 37,-1"/>
<text text-anchor="start" x="45" y="-189" font-family="Helvetica,sans-Serif" font-size="10.00">o2::memory_resource</text>
<text text-anchor="middle" x="137" y="-178" font-family="Helvetica,sans-Serif" font-size="10.00">::OwningMessageSpectatorAllocator&lt; T &gt;</text>
<polyline fill="none" stroke="black" points="37,-171 237,-171 "/>
<text text-anchor="middle" x="137" y="-159" font-family="Helvetica,sans-Serif" font-size="10.00"> </text>
<polyline fill="none" stroke="black" points="37,-152 237,-152 "/>
<text text-anchor="start" x="45" y="-140" font-family="Helvetica,sans-Serif" font-size="10.00">+ OwningMessageSpectatorAllocator()</text>
<text text-anchor="start" x="45" y="-129" font-family="Helvetica,sans-Serif" font-size="10.00">+ OwningMessageSpectatorAllocator()</text>
<text text-anchor="start" x="45" y="-118" font-family="Helvetica,sans-Serif" font-size="10.00">+ OwningMessageSpectatorAllocator()</text>
<text text-anchor="start" x="45" y="-107" font-family="Helvetica,sans-Serif" font-size="10.00">+ OwningMessageSpectatorAllocator()</text>
<text text-anchor="start" x="45" y="-96" font-family="Helvetica,sans-Serif" font-size="10.00">+ OwningMessageSpectatorAllocator()</text>
<text text-anchor="start" x="45" y="-85" font-family="Helvetica,sans-Serif" font-size="10.00">+ operator=()</text>
<text text-anchor="start" x="45" y="-74" font-family="Helvetica,sans-Serif" font-size="10.00">+ select_on_container</text>
<text text-anchor="start" x="45" y="-63" font-family="Helvetica,sans-Serif" font-size="10.00">_copy_construction()</text>
<text text-anchor="start" x="45" y="-52" font-family="Helvetica,sans-Serif" font-size="10.00">+ resource()</text>
<text text-anchor="start" x="45" y="-41" font-family="Helvetica,sans-Serif" font-size="10.00">+ construct()</text>
<text text-anchor="start" x="45" y="-30" font-family="Helvetica,sans-Serif" font-size="10.00">+ destroy()</text>
<text text-anchor="start" x="45" y="-19" font-family="Helvetica,sans-Serif" font-size="10.00">+ allocate()</text>
<text text-anchor="start" x="45" y="-8" font-family="Helvetica,sans-Serif" font-size="10.00">+ deallocate()</text>
</g>
<!-- Node2 -->
<g id="node2" class="node"><title>Node2</title>
<g id="a_node2"><a xlink:href="../../da/d3c/classo2_1_1memory__resource_1_1MessageResource.html" target="_top" xlink:title="{o2::memory_resource\l::MessageResource\n||+ MessageResource()\l+ MessageResource()\l+ MessageResource()\l+ operator=()\l+ operator=()\l+ MessageResource()\l+ getMessage()\l+ setMessage()\l+ getTransportFactory()\l+ getNumberOfMessages()\l# do_allocate()\l# do_deallocate()\l# do_is_equal()\l}">
<polygon fill="none" stroke="black" points="69.5,-251 69.5,-451 204.5,-451 204.5,-251 69.5,-251"/>
<text text-anchor="start" x="77.5" y="-439" font-family="Helvetica,sans-Serif" font-size="10.00">o2::memory_resource</text>
<text text-anchor="middle" x="137" y="-428" font-family="Helvetica,sans-Serif" font-size="10.00">::MessageResource</text>
<polyline fill="none" stroke="black" points="69.5,-421 204.5,-421 "/>
<text text-anchor="middle" x="137" y="-409" font-family="Helvetica,sans-Serif" font-size="10.00"> </text>
<polyline fill="none" stroke="black" points="69.5,-402 204.5,-402 "/>
<text text-anchor="start" x="77.5" y="-390" font-family="Helvetica,sans-Serif" font-size="10.00">+ MessageResource()</text>
<text text-anchor="start" x="77.5" y="-379" font-family="Helvetica,sans-Serif" font-size="10.00">+ MessageResource()</text>
<text text-anchor="start" x="77.5" y="-368" font-family="Helvetica,sans-Serif" font-size="10.00">+ MessageResource()</text>
<text text-anchor="start" x="77.5" y="-357" font-family="Helvetica,sans-Serif" font-size="10.00">+ operator=()</text>
<text text-anchor="start" x="77.5" y="-346" font-family="Helvetica,sans-Serif" font-size="10.00">+ operator=()</text>
<text text-anchor="start" x="77.5" y="-335" font-family="Helvetica,sans-Serif" font-size="10.00">+ MessageResource()</text>
<text text-anchor="start" x="77.5" y="-324" font-family="Helvetica,sans-Serif" font-size="10.00">+ getMessage()</text>
<text text-anchor="start" x="77.5" y="-313" font-family="Helvetica,sans-Serif" font-size="10.00">+ setMessage()</text>
<text text-anchor="start" x="77.5" y="-302" font-family="Helvetica,sans-Serif" font-size="10.00">+ getTransportFactory()</text>
<text text-anchor="start" x="77.5" y="-291" font-family="Helvetica,sans-Serif" font-size="10.00">+ getNumberOfMessages()</text>
<text text-anchor="start" x="77.5" y="-280" font-family="Helvetica,sans-Serif" font-size="10.00"># do_allocate()</text>
<text text-anchor="start" x="77.5" y="-269" font-family="Helvetica,sans-Serif" font-size="10.00"># do_deallocate()</text>
<text text-anchor="start" x="77.5" y="-258" font-family="Helvetica,sans-Serif" font-size="10.00"># do_is_equal()</text>
</a>
</g>
</g>
<!-- Node2&#45;&gt;Node1 -->
<g id="edge1" class="edge"><title>Node2&#45;&gt;Node1</title>
<path fill="none" stroke="#404040" d="M137,-250.915C137,-238.671 137,-226.089 137,-213.674"/>
<polygon fill="none" stroke="#404040" points="137,-213.333 133,-207.333 137,-201.333 141,-207.333 137,-213.333"/>
<text text-anchor="middle" x="167" y="-223.5" font-family="Helvetica,sans-Serif" font-size="10.00"> +mResource</text>
</g>
<!-- Node3 -->
<g id="node3" class="node"><title>Node3</title>
<g id="a_node3"><a xlink:href="../../d6/d00/classo2_1_1memory__resource_1_1FairMQMemoryResource.html" target="_top" xlink:title="All FairMQ related memory resources need to inherit from this interface class for the getMessage() ap...">
<polygon fill="none" stroke="black" points="-0.5,-500.5 -0.5,-601.5 134.5,-601.5 134.5,-500.5 -0.5,-500.5"/>
<text text-anchor="start" x="7.5" y="-589.5" font-family="Helvetica,sans-Serif" font-size="10.00">o2::memory_resource</text>
<text text-anchor="middle" x="67" y="-578.5" font-family="Helvetica,sans-Serif" font-size="10.00">::FairMQMemoryResource</text>
<polyline fill="none" stroke="black" points="-0.5,-571.5 134.5,-571.5 "/>
<text text-anchor="middle" x="67" y="-559.5" font-family="Helvetica,sans-Serif" font-size="10.00"> </text>
<polyline fill="none" stroke="black" points="-0.5,-552.5 134.5,-552.5 "/>
<text text-anchor="start" x="7.5" y="-540.5" font-family="Helvetica,sans-Serif" font-size="10.00">+ getMessage()</text>
<text text-anchor="start" x="7.5" y="-529.5" font-family="Helvetica,sans-Serif" font-size="10.00">+ setMessage()</text>
<text text-anchor="start" x="7.5" y="-518.5" font-family="Helvetica,sans-Serif" font-size="10.00">+ getTransportFactory()</text>
<text text-anchor="start" x="7.5" y="-507.5" font-family="Helvetica,sans-Serif" font-size="10.00">+ getNumberOfMessages()</text>
</a>
</g>
</g>
<!-- Node3&#45;&gt;Node2 -->
<g id="edge2" class="edge"><title>Node3&#45;&gt;Node2</title>
<path fill="none" stroke="midnightblue" d="M72.1486,-490.265C73.4247,-483.358 75.016,-476.474 77,-470 78.9192,-463.738 81.1548,-457.407 83.6124,-451.101"/>
<polygon fill="none" stroke="midnightblue" points="68.658,-489.924 70.4954,-500.358 75.5659,-491.055 68.658,-489.924"/>
</g>
<!-- Node3&#45;&gt;Node2 -->
<g id="edge5" class="edge"><title>Node3&#45;&gt;Node2</title>
<path fill="none" stroke="#404040" d="M84.5736,-500.292C88.6769,-488.685 93.2093,-475.865 97.8402,-462.766"/>
<polygon fill="none" stroke="#404040" points="97.927,-462.521 96.1557,-455.53 101.927,-451.207 103.698,-458.197 97.927,-462.521"/>
<text text-anchor="middle" x="124" y="-473.5" font-family="Helvetica,sans-Serif" font-size="10.00"> #mUpstream</text>
</g>
<!-- Node4 -->
<g id="node4" class="node"><title>Node4</title>
<polygon fill="none" stroke="#bfbfbf" points="12.5,-641 12.5,-709 121.5,-709 121.5,-641 12.5,-641"/>
<text text-anchor="start" x="20.5" y="-697" font-family="Helvetica,sans-Serif" font-size="10.00">boost::container::pmr</text>
<text text-anchor="middle" x="67" y="-686" font-family="Helvetica,sans-Serif" font-size="10.00">::memory_resource</text>
<polyline fill="none" stroke="#bfbfbf" points="12.5,-679 121.5,-679 "/>
<text text-anchor="middle" x="67" y="-667" font-family="Helvetica,sans-Serif" font-size="10.00"> </text>
<polyline fill="none" stroke="#bfbfbf" points="12.5,-660 121.5,-660 "/>
<text text-anchor="middle" x="67" y="-648" font-family="Helvetica,sans-Serif" font-size="10.00"> </text>
</g>
<!-- Node4&#45;&gt;Node3 -->
<g id="edge3" class="edge"><title>Node4&#45;&gt;Node3</title>
<path fill="none" stroke="midnightblue" d="M67,-630.963C67,-621.45 67,-611.296 67,-601.548"/>
<polygon fill="none" stroke="midnightblue" points="63.5001,-630.985 67,-640.985 70.5001,-630.985 63.5001,-630.985"/>
</g>
<!-- Node5 -->
<g id="node5" class="node"><title>Node5</title>
<polygon fill="none" stroke="#bfbfbf" points="157.5,-522.5 157.5,-579.5 200.5,-579.5 200.5,-522.5 157.5,-522.5"/>
<text text-anchor="middle" x="179" y="-567.5" font-family="Helvetica,sans-Serif" font-size="10.00">size_t</text>
<polyline fill="none" stroke="#bfbfbf" points="157.5,-560.5 200.5,-560.5 "/>
<text text-anchor="middle" x="179" y="-548.5" font-family="Helvetica,sans-Serif" font-size="10.00"> </text>
<polyline fill="none" stroke="#bfbfbf" points="157.5,-541.5 200.5,-541.5 "/>
<text text-anchor="middle" x="179" y="-529.5" font-family="Helvetica,sans-Serif" font-size="10.00"> </text>
</g>
<!-- Node5&#45;&gt;Node2 -->
<g id="edge4" class="edge"><title>Node5&#45;&gt;Node2</title>
<path fill="none" stroke="#404040" d="M173.16,-522.469C169.778,-506.526 165.273,-485.289 160.594,-463.229"/>
<polygon fill="none" stroke="#404040" points="160.55,-463.02 155.392,-457.98 158.06,-451.281 163.218,-456.32 160.55,-463.02"/>
<text text-anchor="middle" x="202" y="-473.5" font-family="Helvetica,sans-Serif" font-size="10.00"> #mMessageSize</text>
</g>
<!-- Node6 -->
<g id="node6" class="node"><title>Node6</title>
<polygon fill="none" stroke="#bfbfbf" points="257.5,-522.5 257.5,-579.5 298.5,-579.5 298.5,-522.5 257.5,-522.5"/>
<text text-anchor="middle" x="278" y="-567.5" font-family="Helvetica,sans-Serif" font-size="10.00">void *</text>
<polyline fill="none" stroke="#bfbfbf" points="257.5,-560.5 298.5,-560.5 "/>
<text text-anchor="middle" x="278" y="-548.5" font-family="Helvetica,sans-Serif" font-size="10.00"> </text>
<polyline fill="none" stroke="#bfbfbf" points="257.5,-541.5 298.5,-541.5 "/>
<text text-anchor="middle" x="278" y="-529.5" font-family="Helvetica,sans-Serif" font-size="10.00"> </text>
</g>
<!-- Node6&#45;&gt;Node2 -->
<g id="edge6" class="edge"><title>Node6&#45;&gt;Node2</title>
<path fill="none" stroke="#404040" d="M268.808,-522.203C262.911,-506.271 254.411,-486.271 244,-470 234.796,-455.616 223.807,-441.306 212.429,-427.87"/>
<polygon fill="none" stroke="#404040" points="212.361,-427.791 205.41,-425.873 204.507,-418.718 211.459,-420.637 212.361,-427.791"/>
<text text-anchor="middle" x="289" y="-473.5" font-family="Helvetica,sans-Serif" font-size="10.00"> #mMessageData</text>
</g>
</g>
</svg>
