<?xml version="1.0" encoding="UTF-8" standalone="no"?>
<!DOCTYPE svg PUBLIC "-//W3C//DTD SVG 1.1//EN"
 "http://www.w3.org/Graphics/SVG/1.1/DTD/svg11.dtd">
<!-- Generated by graphviz version 2.36.0 (20140111.2315)
 -->
<!-- Title: /home/travis/build/AliceO2Group/AliceO2/Detectors/ITSMFT/ITS/reconstruction/include/ITSReconstruction/CA/IndexTableUtils.h Pages: 1 -->
<svg width="1211pt" height="708pt"
 viewBox="0.00 0.00 1211.00 708.00" xmlns="http://www.w3.org/2000/svg" xmlns:xlink="http://www.w3.org/1999/xlink">
<g id="graph0" class="graph" transform="scale(1 1) rotate(0) translate(4 704)">
<title>/home/travis/build/AliceO2Group/AliceO2/Detectors/ITSMFT/ITS/reconstruction/include/ITSReconstruction/CA/IndexTableUtils.h</title>
<!-- Node1 -->
<g id="node1" class="node"><title>Node1</title>
<polygon fill="#bfbfbf" stroke="black" points="851,-625 851,-699 1021,-699 1021,-625 851,-625"/>
<text text-anchor="start" x="859" y="-687" font-family="Helvetica,sans-Serif" font-size="10.00">/home/travis/build</text>
<text text-anchor="start" x="859" y="-676" font-family="Helvetica,sans-Serif" font-size="10.00">/AliceO2Group/AliceO2</text>
<text text-anchor="start" x="859" y="-665" font-family="Helvetica,sans-Serif" font-size="10.00">/Detectors/ITSMFT/ITS</text>
<text text-anchor="start" x="859" y="-654" font-family="Helvetica,sans-Serif" font-size="10.00">/reconstruction/include</text>
<text text-anchor="start" x="859" y="-643" font-family="Helvetica,sans-Serif" font-size="10.00">/ITSReconstruction/CA/IndexTable</text>
<text text-anchor="middle" x="936" y="-632" font-family="Helvetica,sans-Serif" font-size="10.00">Utils.h</text>
</g>
<!-- Node2 -->
<g id="node2" class="node"><title>Node2</title>
<g id="a_node2"><a xlink:href="../../d6/d7c/Detectors_2ITSMFT_2ITS_2reconstruction_2include_2ITSReconstruction_2CA_2Cluster_8h.html" target="_top" xlink:title="/home/travis/build\l/AliceO2Group/AliceO2\l/Detectors/ITSMFT/ITS\l/reconstruction/include\l/ITSReconstruction/CA/Cluster.h">
<polygon fill="none" stroke="black" points="583.5,-524.5 583.5,-587.5 744.5,-587.5 744.5,-524.5 583.5,-524.5"/>
<text text-anchor="start" x="591.5" y="-575.5" font-family="Helvetica,sans-Serif" font-size="10.00">/home/travis/build</text>
<text text-anchor="start" x="591.5" y="-564.5" font-family="Helvetica,sans-Serif" font-size="10.00">/AliceO2Group/AliceO2</text>
<text text-anchor="start" x="591.5" y="-553.5" font-family="Helvetica,sans-Serif" font-size="10.00">/Detectors/ITSMFT/ITS</text>
<text text-anchor="start" x="591.5" y="-542.5" font-family="Helvetica,sans-Serif" font-size="10.00">/reconstruction/include</text>
<text text-anchor="middle" x="664" y="-531.5" font-family="Helvetica,sans-Serif" font-size="10.00">/ITSReconstruction/CA/Cluster.h</text>
</a>
</g>
</g>
<!-- Node1&#45;&gt;Node2 -->
<g id="edge1" class="edge"><title>Node1&#45;&gt;Node2</title>
<path fill="none" stroke="midnightblue" d="M840.965,-624.663C809.284,-612.55 774.331,-599.185 743.916,-587.556"/>
<polygon fill="midnightblue" stroke="midnightblue" points="840.093,-628.077 850.684,-628.379 842.593,-621.538 840.093,-628.077"/>
</g>
<!-- Node14 -->
<g id="node14" class="node"><title>Node14</title>
<g id="a_node14"><a xlink:href="../../df/d42/ITSMFT_2ITS_2reconstruction_2src_2CA_2Tracker_8cxx.html" target="_top" xlink:title="/home/travis/build\l/AliceO2Group/AliceO2\l/Detectors/ITSMFT/ITS\l/reconstruction/src/CA\l/Tracker.cxx">
<polygon fill="none" stroke="black" points="907,-0.5 907,-63.5 1027,-63.5 1027,-0.5 907,-0.5"/>
<text text-anchor="start" x="915" y="-51.5" font-family="Helvetica,sans-Serif" font-size="10.00">/home/travis/build</text>
<text text-anchor="start" x="915" y="-40.5" font-family="Helvetica,sans-Serif" font-size="10.00">/AliceO2Group/AliceO2</text>
<text text-anchor="start" x="915" y="-29.5" font-family="Helvetica,sans-Serif" font-size="10.00">/Detectors/ITSMFT/ITS</text>
<text text-anchor="start" x="915" y="-18.5" font-family="Helvetica,sans-Serif" font-size="10.00">/reconstruction/src/CA</text>
<text text-anchor="middle" x="967" y="-7.5" font-family="Helvetica,sans-Serif" font-size="10.00">/Tracker.cxx</text>
</a>
</g>
</g>
<!-- Node1&#45;&gt;Node14 -->
<g id="edge37" class="edge"><title>Node1&#45;&gt;Node14</title>
<path fill="none" stroke="midnightblue" d="M979.678,-617.395C1013.63,-578.713 1055,-518.887 1055,-457 1055,-457 1055,-457 1055,-237 1055,-174.37 1049.91,-156.068 1022,-100 1015.56,-87.0665 1006.22,-74.4113 997.053,-63.6443"/>
<polygon fill="midnightblue" stroke="midnightblue" points="977.069,-615.061 973,-624.844 982.281,-619.734 977.069,-615.061"/>
</g>
<!-- Node17 -->
<g id="node17" class="node"><title>Node17</title>
<g id="a_node17"><a xlink:href="../../da/d5d/Vertexer_8cxx.html" target="_top" xlink:title="/home/travis/build\l/AliceO2Group/AliceO2\l/Detectors/ITSMFT/ITS\l/reconstruction/src/CA\l/Vertexer.cxx">
<polygon fill="none" stroke="black" points="0,-206.5 0,-269.5 120,-269.5 120,-206.5 0,-206.5"/>
<text text-anchor="start" x="8" y="-257.5" font-family="Helvetica,sans-Serif" font-size="10.00">/home/travis/build</text>
<text text-anchor="start" x="8" y="-246.5" font-family="Helvetica,sans-Serif" font-size="10.00">/AliceO2Group/AliceO2</text>
<text text-anchor="start" x="8" y="-235.5" font-family="Helvetica,sans-Serif" font-size="10.00">/Detectors/ITSMFT/ITS</text>
<text text-anchor="start" x="8" y="-224.5" font-family="Helvetica,sans-Serif" font-size="10.00">/reconstruction/src/CA</text>
<text text-anchor="middle" x="60" y="-213.5" font-family="Helvetica,sans-Serif" font-size="10.00">/Vertexer.cxx</text>
</a>
</g>
</g>
<!-- Node1&#45;&gt;Node17 -->
<g id="edge38" class="edge"><title>Node1&#45;&gt;Node17</title>
<path fill="none" stroke="midnightblue" d="M840.95,-649.176C656.354,-624.789 257.503,-564.703 144,-488 99.05,-457.624 92.715,-438.921 74,-388 59.6592,-348.981 57.7757,-300.532 58.3797,-269.683"/>
<polygon fill="midnightblue" stroke="midnightblue" points="840.548,-652.653 850.919,-650.486 841.46,-645.713 840.548,-652.653"/>
</g>
<!-- Node21 -->
<g id="node21" class="node"><title>Node21</title>
<g id="a_node21"><a xlink:href="../../d6/db6/Detectors_2ITSMFT_2ITS_2reconstruction_2src_2CA_2Cluster_8cxx.html" target="_top" xlink:title="/home/travis/build\l/AliceO2Group/AliceO2\l/Detectors/ITSMFT/ITS\l/reconstruction/src/CA\l/Cluster.cxx">
<polygon fill="none" stroke="black" points="876,-424.5 876,-487.5 996,-487.5 996,-424.5 876,-424.5"/>
<text text-anchor="start" x="884" y="-475.5" font-family="Helvetica,sans-Serif" font-size="10.00">/home/travis/build</text>
<text text-anchor="start" x="884" y="-464.5" font-family="Helvetica,sans-Serif" font-size="10.00">/AliceO2Group/AliceO2</text>
<text text-anchor="start" x="884" y="-453.5" font-family="Helvetica,sans-Serif" font-size="10.00">/Detectors/ITSMFT/ITS</text>
<text text-anchor="start" x="884" y="-442.5" font-family="Helvetica,sans-Serif" font-size="10.00">/reconstruction/src/CA</text>
<text text-anchor="middle" x="936" y="-431.5" font-family="Helvetica,sans-Serif" font-size="10.00">/Cluster.cxx</text>
</a>
</g>
</g>
<!-- Node1&#45;&gt;Node21 -->
<g id="edge35" class="edge"><title>Node1&#45;&gt;Node21</title>
<path fill="none" stroke="midnightblue" d="M936,-614.97C936,-576.059 936,-521.408 936,-487.649"/>
<polygon fill="midnightblue" stroke="midnightblue" points="932.5,-614.998 936,-624.998 939.5,-614.999 932.5,-614.998"/>
</g>
<!-- Node22 -->
<g id="node22" class="node"><title>Node22</title>
<g id="a_node22"><a xlink:href="../../dc/d14/IndexTableUtils_8cxx.html" target="_top" xlink:title="/home/travis/build\l/AliceO2Group/AliceO2\l/Detectors/ITSMFT/ITS\l/reconstruction/src/CA\l/IndexTableUtils.cxx">
<polygon fill="none" stroke="black" points="1083,-524.5 1083,-587.5 1203,-587.5 1203,-524.5 1083,-524.5"/>
<text text-anchor="start" x="1091" y="-575.5" font-family="Helvetica,sans-Serif" font-size="10.00">/home/travis/build</text>
<text text-anchor="start" x="1091" y="-564.5" font-family="Helvetica,sans-Serif" font-size="10.00">/AliceO2Group/AliceO2</text>
<text text-anchor="start" x="1091" y="-553.5" font-family="Helvetica,sans-Serif" font-size="10.00">/Detectors/ITSMFT/ITS</text>
<text text-anchor="start" x="1091" y="-542.5" font-family="Helvetica,sans-Serif" font-size="10.00">/reconstruction/src/CA</text>
<text text-anchor="middle" x="1143" y="-531.5" font-family="Helvetica,sans-Serif" font-size="10.00">/IndexTableUtils.cxx</text>
</a>
</g>
</g>
<!-- Node1&#45;&gt;Node22 -->
<g id="edge36" class="edge"><title>Node1&#45;&gt;Node22</title>
<path fill="none" stroke="midnightblue" d="M1016.83,-620.39C1038.86,-609.321 1062.33,-597.529 1082.98,-587.154"/>
<polygon fill="midnightblue" stroke="midnightblue" points="1015.18,-617.301 1007.82,-624.918 1018.32,-623.556 1015.18,-617.301"/>
</g>
<!-- Node3 -->
<g id="node3" class="node"><title>Node3</title>
<g id="a_node3"><a xlink:href="../../da/d7f/gpu_2gpu_2PrimaryVertexContext_8h.html" target="_top" xlink:title="/home/travis/build\l/AliceO2Group/AliceO2\l/Detectors/ITSMFT/ITS\l/reconstruction/include\l/ITSReconstruction/CA/gpu\l/gpu/PrimaryVertexContext.h">
<polygon fill="none" stroke="black" points="514.5,-313 514.5,-387 657.5,-387 657.5,-313 514.5,-313"/>
<text text-anchor="start" x="522.5" y="-375" font-family="Helvetica,sans-Serif" font-size="10.00">/home/travis/build</text>
<text text-anchor="start" x="522.5" y="-364" font-family="Helvetica,sans-Serif" font-size="10.00">/AliceO2Group/AliceO2</text>
<text text-anchor="start" x="522.5" y="-353" font-family="Helvetica,sans-Serif" font-size="10.00">/Detectors/ITSMFT/ITS</text>
<text text-anchor="start" x="522.5" y="-342" font-family="Helvetica,sans-Serif" font-size="10.00">/reconstruction/include</text>
<text text-anchor="start" x="522.5" y="-331" font-family="Helvetica,sans-Serif" font-size="10.00">/ITSReconstruction/CA/gpu</text>
<text text-anchor="middle" x="586" y="-320" font-family="Helvetica,sans-Serif" font-size="10.00">/gpu/PrimaryVertexContext.h</text>
</a>
</g>
</g>
<!-- Node2&#45;&gt;Node3 -->
<g id="edge2" class="edge"><title>Node2&#45;&gt;Node3</title>
<path fill="none" stroke="midnightblue" d="M648.69,-514.958C634.501,-477.848 613.575,-423.12 599.867,-387.267"/>
<polygon fill="midnightblue" stroke="midnightblue" points="645.482,-516.369 652.323,-524.459 652.02,-513.869 645.482,-516.369"/>
</g>
<!-- Node4 -->
<g id="node4" class="node"><title>Node4</title>
<g id="a_node4"><a xlink:href="../../db/dbf/gpu_2PrimaryVertexContext_8h.html" target="_top" xlink:title="/home/travis/build\l/AliceO2Group/AliceO2\l/Detectors/ITSMFT/ITS\l/reconstruction/include\l/ITSReconstruction/CA/gpu\l/PrimaryVertexContext.h">
<polygon fill="none" stroke="black" points="675.5,-313 675.5,-387 812.5,-387 812.5,-313 675.5,-313"/>
<text text-anchor="start" x="683.5" y="-375" font-family="Helvetica,sans-Serif" font-size="10.00">/home/travis/build</text>
<text text-anchor="start" x="683.5" y="-364" font-family="Helvetica,sans-Serif" font-size="10.00">/AliceO2Group/AliceO2</text>
<text text-anchor="start" x="683.5" y="-353" font-family="Helvetica,sans-Serif" font-size="10.00">/Detectors/ITSMFT/ITS</text>
<text text-anchor="start" x="683.5" y="-342" font-family="Helvetica,sans-Serif" font-size="10.00">/reconstruction/include</text>
<text text-anchor="start" x="683.5" y="-331" font-family="Helvetica,sans-Serif" font-size="10.00">/ITSReconstruction/CA/gpu</text>
<text text-anchor="middle" x="744" y="-320" font-family="Helvetica,sans-Serif" font-size="10.00">/PrimaryVertexContext.h</text>
</a>
</g>
</g>
<!-- Node2&#45;&gt;Node4 -->
<g id="edge3" class="edge"><title>Node2&#45;&gt;Node4</title>
<path fill="none" stroke="midnightblue" d="M664.225,-514.156C665.721,-487.473 670.3,-452.435 683,-424 688.86,-410.88 697.782,-398.247 707.008,-387.284"/>
<polygon fill="midnightblue" stroke="midnightblue" points="660.721,-514.161 663.78,-524.305 667.715,-514.468 660.721,-514.161"/>
</g>
<!-- Node5 -->
<g id="node5" class="node"><title>Node5</title>
<g id="a_node5"><a xlink:href="../../dc/dca/Layer_8h.html" target="_top" xlink:title="/home/travis/build\l/AliceO2Group/AliceO2\l/Detectors/ITSMFT/ITS\l/reconstruction/include\l/ITSReconstruction/CA/Layer.h">
<polygon fill="none" stroke="black" points="303,-424.5 303,-487.5 457,-487.5 457,-424.5 303,-424.5"/>
<text text-anchor="start" x="311" y="-475.5" font-family="Helvetica,sans-Serif" font-size="10.00">/home/travis/build</text>
<text text-anchor="start" x="311" y="-464.5" font-family="Helvetica,sans-Serif" font-size="10.00">/AliceO2Group/AliceO2</text>
<text text-anchor="start" x="311" y="-453.5" font-family="Helvetica,sans-Serif" font-size="10.00">/Detectors/ITSMFT/ITS</text>
<text text-anchor="start" x="311" y="-442.5" font-family="Helvetica,sans-Serif" font-size="10.00">/reconstruction/include</text>
<text text-anchor="middle" x="380" y="-431.5" font-family="Helvetica,sans-Serif" font-size="10.00">/ITSReconstruction/CA/Layer.h</text>
</a>
</g>
</g>
<!-- Node2&#45;&gt;Node5 -->
<g id="edge4" class="edge"><title>Node2&#45;&gt;Node5</title>
<path fill="none" stroke="midnightblue" d="M573.501,-523.771C536.138,-510.879 493.273,-496.087 457.399,-483.708"/>
<polygon fill="midnightblue" stroke="midnightblue" points="572.782,-527.226 583.377,-527.179 575.065,-520.609 572.782,-527.226"/>
</g>
<!-- Node2&#45;&gt;Node17 -->
<g id="edge34" class="edge"><title>Node2&#45;&gt;Node17</title>
<path fill="none" stroke="midnightblue" d="M573.352,-546.845C497.124,-538.053 386.152,-520.678 294,-488 207.013,-457.153 171.604,-458.467 112,-388 82.9821,-353.694 69.8026,-302.193 64.0775,-269.607"/>
<polygon fill="midnightblue" stroke="midnightblue" points="573.075,-550.336 583.404,-547.978 573.859,-543.38 573.075,-550.336"/>
</g>
<!-- Node19 -->
<g id="node19" class="node"><title>Node19</title>
<g id="a_node19"><a xlink:href="../../da/dc0/Tracklet_8h.html" target="_top" xlink:title="/home/travis/build\l/AliceO2Group/AliceO2\l/Detectors/ITSMFT/ITS\l/reconstruction/include\l/ITSReconstruction/CA/Tracklet.h">
<polygon fill="none" stroke="black" points="692.5,-424.5 692.5,-487.5 857.5,-487.5 857.5,-424.5 692.5,-424.5"/>
<text text-anchor="start" x="700.5" y="-475.5" font-family="Helvetica,sans-Serif" font-size="10.00">/home/travis/build</text>
<text text-anchor="start" x="700.5" y="-464.5" font-family="Helvetica,sans-Serif" font-size="10.00">/AliceO2Group/AliceO2</text>
<text text-anchor="start" x="700.5" y="-453.5" font-family="Helvetica,sans-Serif" font-size="10.00">/Detectors/ITSMFT/ITS</text>
<text text-anchor="start" x="700.5" y="-442.5" font-family="Helvetica,sans-Serif" font-size="10.00">/reconstruction/include</text>
<text text-anchor="middle" x="775" y="-431.5" font-family="Helvetica,sans-Serif" font-size="10.00">/ITSReconstruction/CA/Tracklet.h</text>
</a>
</g>
</g>
<!-- Node2&#45;&gt;Node19 -->
<g id="edge27" class="edge"><title>Node2&#45;&gt;Node19</title>
<path fill="none" stroke="midnightblue" d="M706.424,-517.545C717.621,-507.659 729.571,-497.108 740.307,-487.63"/>
<polygon fill="midnightblue" stroke="midnightblue" points="703.997,-515.019 698.817,-524.261 708.629,-520.266 703.997,-515.019"/>
</g>
<!-- Node2&#45;&gt;Node21 -->
<g id="edge33" class="edge"><title>Node2&#45;&gt;Node21</title>
<path fill="none" stroke="midnightblue" d="M754.498,-527.046C789.587,-515.671 829.927,-501.933 866,-488 869.224,-486.755 872.514,-485.443 875.826,-484.091"/>
<polygon fill="midnightblue" stroke="midnightblue" points="753.192,-523.79 744.748,-530.19 755.34,-530.452 753.192,-523.79"/>
</g>
<!-- Node6 -->
<g id="node6" class="node"><title>Node6</title>
<g id="a_node6"><a xlink:href="../../d6/d8d/Event_8h.html" target="_top" xlink:title="/home/travis/build\l/AliceO2Group/AliceO2\l/Detectors/ITSMFT/ITS\l/reconstruction/include\l/ITSReconstruction/CA/Event.h">
<polygon fill="none" stroke="black" points="302.5,-318.5 302.5,-381.5 457.5,-381.5 457.5,-318.5 302.5,-318.5"/>
<text text-anchor="start" x="310.5" y="-369.5" font-family="Helvetica,sans-Serif" font-size="10.00">/home/travis/build</text>
<text text-anchor="start" x="310.5" y="-358.5" font-family="Helvetica,sans-Serif" font-size="10.00">/AliceO2Group/AliceO2</text>
<text text-anchor="start" x="310.5" y="-347.5" font-family="Helvetica,sans-Serif" font-size="10.00">/Detectors/ITSMFT/ITS</text>
<text text-anchor="start" x="310.5" y="-336.5" font-family="Helvetica,sans-Serif" font-size="10.00">/reconstruction/include</text>
<text text-anchor="middle" x="380" y="-325.5" font-family="Helvetica,sans-Serif" font-size="10.00">/ITSReconstruction/CA/Event.h</text>
</a>
</g>
</g>
<!-- Node5&#45;&gt;Node6 -->
<g id="edge5" class="edge"><title>Node5&#45;&gt;Node6</title>
<path fill="none" stroke="midnightblue" d="M380,-414.268C380,-403.458 380,-391.964 380,-381.781"/>
<polygon fill="midnightblue" stroke="midnightblue" points="376.5,-414.359 380,-424.359 383.5,-414.359 376.5,-414.359"/>
</g>
<!-- Node5&#45;&gt;Node14 -->
<g id="edge25" class="edge"><title>Node5&#45;&gt;Node14</title>
<path fill="none" stroke="midnightblue" d="M435.039,-417.928C446.105,-408.946 457.064,-398.793 466,-388 490.211,-358.756 473.737,-333.541 505,-312 625.034,-229.292 708.603,-355.169 831,-276 907.925,-226.243 945.486,-116.999 959.809,-63.6002"/>
<polygon fill="midnightblue" stroke="midnightblue" points="432.691,-415.322 426.991,-424.253 437.016,-420.826 432.691,-415.322"/>
</g>
<!-- Node5&#45;&gt;Node17 -->
<g id="edge26" class="edge"><title>Node5&#45;&gt;Node17</title>
<path fill="none" stroke="midnightblue" d="M292.864,-444.871C247.844,-435.973 194.27,-419.282 155,-388 124.645,-363.819 132.842,-344.738 112,-312 102.975,-297.824 92.3101,-282.616 82.995,-269.771"/>
<polygon fill="midnightblue" stroke="midnightblue" points="292.448,-448.354 302.922,-446.759 293.739,-441.474 292.448,-448.354"/>
</g>
<!-- Node18 -->
<g id="node18" class="node"><title>Node18</title>
<g id="a_node18"><a xlink:href="../../d3/d2f/Layer_8cxx.html" target="_top" xlink:title="/home/travis/build\l/AliceO2Group/AliceO2\l/Detectors/ITSMFT/ITS\l/reconstruction/src/CA\l/Layer.cxx">
<polygon fill="none" stroke="black" points="164,-318.5 164,-381.5 284,-381.5 284,-318.5 164,-318.5"/>
<text text-anchor="start" x="172" y="-369.5" font-family="Helvetica,sans-Serif" font-size="10.00">/home/travis/build</text>
<text text-anchor="start" x="172" y="-358.5" font-family="Helvetica,sans-Serif" font-size="10.00">/AliceO2Group/AliceO2</text>
<text text-anchor="start" x="172" y="-347.5" font-family="Helvetica,sans-Serif" font-size="10.00">/Detectors/ITSMFT/ITS</text>
<text text-anchor="start" x="172" y="-336.5" font-family="Helvetica,sans-Serif" font-size="10.00">/reconstruction/src/CA</text>
<text text-anchor="middle" x="224" y="-325.5" font-family="Helvetica,sans-Serif" font-size="10.00">/Layer.cxx</text>
</a>
</g>
</g>
<!-- Node5&#45;&gt;Node18 -->
<g id="edge24" class="edge"><title>Node5&#45;&gt;Node18</title>
<path fill="none" stroke="midnightblue" d="M325.321,-418.547C307.22,-406.48 287.275,-393.183 269.902,-381.601"/>
<polygon fill="midnightblue" stroke="midnightblue" points="323.777,-421.724 334.039,-424.359 327.66,-415.9 323.777,-421.724"/>
</g>
<!-- Node7 -->
<g id="node7" class="node"><title>Node7</title>
<g id="a_node7"><a xlink:href="../../d7/dba/IOUtils_8h.html" target="_top" xlink:title="/home/travis/build\l/AliceO2Group/AliceO2\l/Detectors/ITSMFT/ITS\l/reconstruction/include\l/ITSReconstruction/CA/IOUtils.h">
<polygon fill="none" stroke="black" points="216.5,-206.5 216.5,-269.5 377.5,-269.5 377.5,-206.5 216.5,-206.5"/>
<text text-anchor="start" x="224.5" y="-257.5" font-family="Helvetica,sans-Serif" font-size="10.00">/home/travis/build</text>
<text text-anchor="start" x="224.5" y="-246.5" font-family="Helvetica,sans-Serif" font-size="10.00">/AliceO2Group/AliceO2</text>
<text text-anchor="start" x="224.5" y="-235.5" font-family="Helvetica,sans-Serif" font-size="10.00">/Detectors/ITSMFT/ITS</text>
<text text-anchor="start" x="224.5" y="-224.5" font-family="Helvetica,sans-Serif" font-size="10.00">/reconstruction/include</text>
<text text-anchor="middle" x="297" y="-213.5" font-family="Helvetica,sans-Serif" font-size="10.00">/ITSReconstruction/CA/IOUtils.h</text>
</a>
</g>
</g>
<!-- Node6&#45;&gt;Node7 -->
<g id="edge6" class="edge"><title>Node6&#45;&gt;Node7</title>
<path fill="none" stroke="midnightblue" d="M350.811,-310.316C340.808,-297.059 329.756,-282.412 320.284,-269.858"/>
<polygon fill="midnightblue" stroke="midnightblue" points="348.063,-312.484 356.88,-318.359 353.651,-308.268 348.063,-312.484"/>
</g>
<!-- Node9 -->
<g id="node9" class="node"><title>Node9</title>
<g id="a_node9"><a xlink:href="../../dc/d97/run__rec__ca_8C.html" target="_top" xlink:title="/home/travis/build\l/AliceO2Group/AliceO2\l/macro/run_rec_ca.C">
<polygon fill="none" stroke="black" points="271,-11.5 271,-52.5 389,-52.5 389,-11.5 271,-11.5"/>
<text text-anchor="start" x="279" y="-40.5" font-family="Helvetica,sans-Serif" font-size="10.00">/home/travis/build</text>
<text text-anchor="start" x="279" y="-29.5" font-family="Helvetica,sans-Serif" font-size="10.00">/AliceO2Group/AliceO2</text>
<text text-anchor="middle" x="330" y="-18.5" font-family="Helvetica,sans-Serif" font-size="10.00">/macro/run_rec_ca.C</text>
</a>
</g>
</g>
<!-- Node6&#45;&gt;Node9 -->
<g id="edge21" class="edge"><title>Node6&#45;&gt;Node9</title>
<path fill="none" stroke="midnightblue" d="M298.715,-314.654C296.455,-313.753 294.213,-312.867 292,-312 248.407,-294.922 224.344,-310.779 193,-276 158.649,-237.885 171.269,-214.925 165,-164 161.525,-135.769 149.115,-123.595 165,-100 188.482,-65.1204 233.582,-48.3912 270.703,-40.3715"/>
<polygon fill="midnightblue" stroke="midnightblue" points="297.497,-317.936 308.081,-318.422 300.11,-311.442 297.497,-317.936"/>
</g>
<!-- Node10 -->
<g id="node10" class="node"><title>Node10</title>
<g id="a_node10"><a xlink:href="../../d6/db2/run__trac__ca__its_8C.html" target="_top" xlink:title="/home/travis/build\l/AliceO2Group/AliceO2\l/macro/run_trac_ca_its.C">
<polygon fill="none" stroke="black" points="480.5,-11.5 480.5,-52.5 607.5,-52.5 607.5,-11.5 480.5,-11.5"/>
<text text-anchor="start" x="488.5" y="-40.5" font-family="Helvetica,sans-Serif" font-size="10.00">/home/travis/build</text>
<text text-anchor="start" x="488.5" y="-29.5" font-family="Helvetica,sans-Serif" font-size="10.00">/AliceO2Group/AliceO2</text>
<text text-anchor="middle" x="544" y="-18.5" font-family="Helvetica,sans-Serif" font-size="10.00">/macro/run_trac_ca_its.C</text>
</a>
</g>
</g>
<!-- Node6&#45;&gt;Node10 -->
<g id="edge22" class="edge"><title>Node6&#45;&gt;Node10</title>
<path fill="none" stroke="midnightblue" d="M465.694,-314.072C491.984,-301.61 516.097,-287.756 524,-276 571.233,-205.74 556.871,-96.9459 548.328,-52.7105"/>
<polygon fill="midnightblue" stroke="midnightblue" points="463.927,-311.033 456.328,-318.416 466.872,-317.384 463.927,-311.033"/>
</g>
<!-- Node11 -->
<g id="node11" class="node"><title>Node11</title>
<g id="a_node11"><a xlink:href="../../d4/da9/run__vert__ca__its_8C.html" target="_top" xlink:title="/home/travis/build\l/AliceO2Group/AliceO2\l/macro/run_vert_ca_its.C">
<polygon fill="none" stroke="black" points="174.5,-111.5 174.5,-152.5 301.5,-152.5 301.5,-111.5 174.5,-111.5"/>
<text text-anchor="start" x="182.5" y="-140.5" font-family="Helvetica,sans-Serif" font-size="10.00">/home/travis/build</text>
<text text-anchor="start" x="182.5" y="-129.5" font-family="Helvetica,sans-Serif" font-size="10.00">/AliceO2Group/AliceO2</text>
<text text-anchor="middle" x="238" y="-118.5" font-family="Helvetica,sans-Serif" font-size="10.00">/macro/run_vert_ca_its.C</text>
</a>
</g>
</g>
<!-- Node6&#45;&gt;Node11 -->
<g id="edge23" class="edge"><title>Node6&#45;&gt;Node11</title>
<path fill="none" stroke="midnightblue" d="M297.96,-314.453C253.32,-295.643 207.093,-276.14 207,-276 181.581,-237.685 207.603,-182.065 225.032,-152.764"/>
<polygon fill="midnightblue" stroke="midnightblue" points="296.87,-317.791 307.444,-318.449 299.588,-311.34 296.87,-317.791"/>
</g>
<!-- Node12 -->
<g id="node12" class="node"><title>Node12</title>
<g id="a_node12"><a xlink:href="../../d3/da9/PrimaryVertexContext_8h.html" target="_top" xlink:title="/home/travis/build\l/AliceO2Group/AliceO2\l/Detectors/ITSMFT/ITS\l/reconstruction/include\l/ITSReconstruction/CA/PrimaryVertex\lContext.h">
<polygon fill="none" stroke="black" points="610,-201 610,-275 794,-275 794,-201 610,-201"/>
<text text-anchor="start" x="618" y="-263" font-family="Helvetica,sans-Serif" font-size="10.00">/home/travis/build</text>
<text text-anchor="start" x="618" y="-252" font-family="Helvetica,sans-Serif" font-size="10.00">/AliceO2Group/AliceO2</text>
<text text-anchor="start" x="618" y="-241" font-family="Helvetica,sans-Serif" font-size="10.00">/Detectors/ITSMFT/ITS</text>
<text text-anchor="start" x="618" y="-230" font-family="Helvetica,sans-Serif" font-size="10.00">/reconstruction/include</text>
<text text-anchor="start" x="618" y="-219" font-family="Helvetica,sans-Serif" font-size="10.00">/ITSReconstruction/CA/PrimaryVertex</text>
<text text-anchor="middle" x="702" y="-208" font-family="Helvetica,sans-Serif" font-size="10.00">Context.h</text>
</a>
</g>
</g>
<!-- Node6&#45;&gt;Node12 -->
<g id="edge11" class="edge"><title>Node6&#45;&gt;Node12</title>
<path fill="none" stroke="midnightblue" d="M463.666,-314.943C466.47,-313.932 469.254,-312.948 472,-312 526.244,-293.27 541.335,-293.462 596,-276 600.549,-274.547 605.198,-273.033 609.887,-271.483"/>
<polygon fill="midnightblue" stroke="midnightblue" points="462.251,-311.734 454.074,-318.471 464.668,-318.304 462.251,-311.734"/>
</g>
<!-- Node13 -->
<g id="node13" class="node"><title>Node13</title>
<g id="a_node13"><a xlink:href="../../d6/dd4/ITSMFT_2ITS_2reconstruction_2include_2ITSReconstruction_2CA_2Tracker_8h.html" target="_top" xlink:title="/home/travis/build\l/AliceO2Group/AliceO2\l/Detectors/ITSMFT/ITS\l/reconstruction/include\l/ITSReconstruction/CA/Tracker.h">
<polygon fill="none" stroke="black" points="572.5,-100.5 572.5,-163.5 735.5,-163.5 735.5,-100.5 572.5,-100.5"/>
<text text-anchor="start" x="580.5" y="-151.5" font-family="Helvetica,sans-Serif" font-size="10.00">/home/travis/build</text>
<text text-anchor="start" x="580.5" y="-140.5" font-family="Helvetica,sans-Serif" font-size="10.00">/AliceO2Group/AliceO2</text>
<text text-anchor="start" x="580.5" y="-129.5" font-family="Helvetica,sans-Serif" font-size="10.00">/Detectors/ITSMFT/ITS</text>
<text text-anchor="start" x="580.5" y="-118.5" font-family="Helvetica,sans-Serif" font-size="10.00">/reconstruction/include</text>
<text text-anchor="middle" x="654" y="-107.5" font-family="Helvetica,sans-Serif" font-size="10.00">/ITSReconstruction/CA/Tracker.h</text>
</a>
</g>
</g>
<!-- Node6&#45;&gt;Node13 -->
<g id="edge17" class="edge"><title>Node6&#45;&gt;Node13</title>
<path fill="none" stroke="midnightblue" d="M465.432,-314.661C510.093,-296.592 555.964,-277.795 558,-276 587.112,-250.335 579.341,-232.204 601,-200 609.277,-187.693 619.175,-174.778 628.164,-163.607"/>
<polygon fill="midnightblue" stroke="midnightblue" points="463.896,-311.507 455.936,-318.499 466.519,-317.996 463.896,-311.507"/>
</g>
<!-- Node15 -->
<g id="node15" class="node"><title>Node15</title>
<g id="a_node15"><a xlink:href="../../d9/d29/PrimaryVertexContext_8cxx.html" target="_top" xlink:title="/home/travis/build\l/AliceO2Group/AliceO2\l/Detectors/ITSMFT/ITS\l/reconstruction/src/CA\l/PrimaryVertexContext.cxx">
<polygon fill="none" stroke="black" points="753.5,-100.5 753.5,-163.5 888.5,-163.5 888.5,-100.5 753.5,-100.5"/>
<text text-anchor="start" x="761.5" y="-151.5" font-family="Helvetica,sans-Serif" font-size="10.00">/home/travis/build</text>
<text text-anchor="start" x="761.5" y="-140.5" font-family="Helvetica,sans-Serif" font-size="10.00">/AliceO2Group/AliceO2</text>
<text text-anchor="start" x="761.5" y="-129.5" font-family="Helvetica,sans-Serif" font-size="10.00">/Detectors/ITSMFT/ITS</text>
<text text-anchor="start" x="761.5" y="-118.5" font-family="Helvetica,sans-Serif" font-size="10.00">/reconstruction/src/CA</text>
<text text-anchor="middle" x="821" y="-107.5" font-family="Helvetica,sans-Serif" font-size="10.00">/PrimaryVertexContext.cxx</text>
</a>
</g>
</g>
<!-- Node6&#45;&gt;Node15 -->
<g id="edge19" class="edge"><title>Node6&#45;&gt;Node15</title>
<path fill="none" stroke="midnightblue" d="M460.237,-315.27C464.184,-314.072 468.119,-312.972 472,-312 543.773,-294.028 750.242,-327.875 803,-276 832.35,-247.141 831.413,-196.325 826.994,-163.686"/>
<polygon fill="midnightblue" stroke="midnightblue" points="458.871,-312.032 450.426,-318.429 461.017,-318.696 458.871,-312.032"/>
</g>
<!-- Node16 -->
<g id="node16" class="node"><title>Node16</title>
<g id="a_node16"><a xlink:href="../../d7/d14/Event_8cxx.html" target="_top" xlink:title="/home/travis/build\l/AliceO2Group/AliceO2\l/Detectors/ITSMFT/ITS\l/reconstruction/src/CA\l/Event.cxx">
<polygon fill="none" stroke="black" points="396,-206.5 396,-269.5 516,-269.5 516,-206.5 396,-206.5"/>
<text text-anchor="start" x="404" y="-257.5" font-family="Helvetica,sans-Serif" font-size="10.00">/home/travis/build</text>
<text text-anchor="start" x="404" y="-246.5" font-family="Helvetica,sans-Serif" font-size="10.00">/AliceO2Group/AliceO2</text>
<text text-anchor="start" x="404" y="-235.5" font-family="Helvetica,sans-Serif" font-size="10.00">/Detectors/ITSMFT/ITS</text>
<text text-anchor="start" x="404" y="-224.5" font-family="Helvetica,sans-Serif" font-size="10.00">/reconstruction/src/CA</text>
<text text-anchor="middle" x="456" y="-213.5" font-family="Helvetica,sans-Serif" font-size="10.00">/Event.cxx</text>
</a>
</g>
</g>
<!-- Node6&#45;&gt;Node16 -->
<g id="edge18" class="edge"><title>Node6&#45;&gt;Node16</title>
<path fill="none" stroke="midnightblue" d="M406.987,-309.94C416.077,-296.783 426.088,-282.294 434.68,-269.858"/>
<polygon fill="midnightblue" stroke="midnightblue" points="403.975,-308.142 401.17,-318.359 409.734,-312.121 403.975,-308.142"/>
</g>
<!-- Node6&#45;&gt;Node17 -->
<g id="edge20" class="edge"><title>Node6&#45;&gt;Node17</title>
<path fill="none" stroke="midnightblue" d="M300.804,-314.959C297.846,-313.924 294.904,-312.934 292,-312 223.434,-289.959 201.806,-300.279 134,-276 128.726,-274.112 123.342,-271.94 118.003,-269.615"/>
<polygon fill="midnightblue" stroke="midnightblue" points="299.691,-318.278 310.285,-318.397 302.077,-311.697 299.691,-318.278"/>
</g>
<!-- Node8 -->
<g id="node8" class="node"><title>Node8</title>
<g id="a_node8"><a xlink:href="../../d5/d1a/IOUtils_8cxx.html" target="_top" xlink:title="/home/travis/build\l/AliceO2Group/AliceO2\l/Detectors/ITSMFT/ITS\l/reconstruction/src/CA\l/IOUtils.cxx">
<polygon fill="none" stroke="black" points="358,-100.5 358,-163.5 478,-163.5 478,-100.5 358,-100.5"/>
<text text-anchor="start" x="366" y="-151.5" font-family="Helvetica,sans-Serif" font-size="10.00">/home/travis/build</text>
<text text-anchor="start" x="366" y="-140.5" font-family="Helvetica,sans-Serif" font-size="10.00">/AliceO2Group/AliceO2</text>
<text text-anchor="start" x="366" y="-129.5" font-family="Helvetica,sans-Serif" font-size="10.00">/Detectors/ITSMFT/ITS</text>
<text text-anchor="start" x="366" y="-118.5" font-family="Helvetica,sans-Serif" font-size="10.00">/reconstruction/src/CA</text>
<text text-anchor="middle" x="418" y="-107.5" font-family="Helvetica,sans-Serif" font-size="10.00">/IOUtils.cxx</text>
</a>
</g>
</g>
<!-- Node7&#45;&gt;Node8 -->
<g id="edge7" class="edge"><title>Node7&#45;&gt;Node8</title>
<path fill="none" stroke="midnightblue" d="M340.528,-199.588C354.194,-187.841 369.118,-175.014 382.187,-163.781"/>
<polygon fill="midnightblue" stroke="midnightblue" points="337.952,-197.186 332.65,-206.359 342.515,-202.495 337.952,-197.186"/>
</g>
<!-- Node7&#45;&gt;Node9 -->
<g id="edge8" class="edge"><title>Node7&#45;&gt;Node9</title>
<path fill="none" stroke="midnightblue" d="M304.374,-196.624C306.26,-186.02 308.249,-174.587 310,-164 316.531,-124.505 323.423,-78.1797 327.169,-52.5548"/>
<polygon fill="midnightblue" stroke="midnightblue" points="300.926,-196.023 302.608,-206.484 307.816,-197.257 300.926,-196.023"/>
</g>
<!-- Node7&#45;&gt;Node10 -->
<g id="edge9" class="edge"><title>Node7&#45;&gt;Node10</title>
<path fill="none" stroke="midnightblue" d="M379.887,-202.775C382.282,-201.834 384.657,-200.907 387,-200 430.66,-183.095 451.787,-195.961 486,-164 518.716,-133.438 534.099,-81.0891 540.35,-52.7009"/>
<polygon fill="midnightblue" stroke="midnightblue" points="378.583,-199.527 370.575,-206.463 381.161,-206.035 378.583,-199.527"/>
</g>
<!-- Node7&#45;&gt;Node11 -->
<g id="edge10" class="edge"><title>Node7&#45;&gt;Node11</title>
<path fill="none" stroke="midnightblue" d="M274.614,-197.54C265.901,-182.182 256.308,-165.272 249.128,-152.615"/>
<polygon fill="midnightblue" stroke="midnightblue" points="271.639,-199.388 279.617,-206.359 277.727,-195.934 271.639,-199.388"/>
</g>
<!-- Node12&#45;&gt;Node13 -->
<g id="edge12" class="edge"><title>Node12&#45;&gt;Node13</title>
<path fill="none" stroke="midnightblue" d="M681.075,-191.662C676.736,-182.262 672.261,-172.566 668.23,-163.831"/>
<polygon fill="midnightblue" stroke="midnightblue" points="677.978,-193.305 685.347,-200.918 684.334,-190.371 677.978,-193.305"/>
</g>
<!-- Node12&#45;&gt;Node15 -->
<g id="edge16" class="edge"><title>Node12&#45;&gt;Node15</title>
<path fill="none" stroke="midnightblue" d="M750.862,-194.297C762.544,-184.088 774.791,-173.385 785.723,-163.831"/>
<polygon fill="midnightblue" stroke="midnightblue" points="748.513,-191.702 743.286,-200.918 753.119,-196.973 748.513,-191.702"/>
</g>
<!-- Node13&#45;&gt;Node9 -->
<g id="edge14" class="edge"><title>Node13&#45;&gt;Node9</title>
<path fill="none" stroke="midnightblue" d="M562.394,-103.292C506.863,-86.4956 437.632,-65.5554 389.238,-50.9177"/>
<polygon fill="midnightblue" stroke="midnightblue" points="561.656,-106.725 572.241,-106.27 563.683,-100.025 561.656,-106.725"/>
</g>
<!-- Node13&#45;&gt;Node10 -->
<g id="edge15" class="edge"><title>Node13&#45;&gt;Node10</title>
<path fill="none" stroke="midnightblue" d="M611.94,-93.5281C596.252,-79.552 579.076,-64.2494 565.919,-52.5274"/>
<polygon fill="midnightblue" stroke="midnightblue" points="609.702,-96.2223 619.497,-100.261 614.359,-90.9957 609.702,-96.2223"/>
</g>
<!-- Node13&#45;&gt;Node14 -->
<g id="edge13" class="edge"><title>Node13&#45;&gt;Node14</title>
<path fill="none" stroke="midnightblue" d="M745.459,-99.5629C805.169,-80.438 863.998,-62.9023 906.698,-50.4111"/>
<polygon fill="midnightblue" stroke="midnightblue" points="744.319,-96.2527 735.87,-102.645 746.462,-102.917 744.319,-96.2527"/>
</g>
<!-- Node19&#45;&gt;Node3 -->
<g id="edge28" class="edge"><title>Node19&#45;&gt;Node3</title>
<path fill="none" stroke="midnightblue" d="M710.648,-419.589C691.546,-409.078 670.608,-397.557 651.438,-387.008"/>
<polygon fill="midnightblue" stroke="midnightblue" points="709.122,-422.745 719.571,-424.499 712.497,-416.612 709.122,-422.745"/>
</g>
<!-- Node19&#45;&gt;Node4 -->
<g id="edge29" class="edge"><title>Node19&#45;&gt;Node4</title>
<path fill="none" stroke="midnightblue" d="M762.927,-414.498C760.254,-405.529 757.437,-396.08 754.818,-387.292"/>
<polygon fill="midnightblue" stroke="midnightblue" points="759.656,-415.776 765.867,-424.359 766.364,-413.776 759.656,-415.776"/>
</g>
<!-- Node19&#45;&gt;Node12 -->
<g id="edge30" class="edge"><title>Node19&#45;&gt;Node12</title>
<path fill="none" stroke="midnightblue" d="M807.466,-415.956C813.034,-407.247 817.99,-397.703 821,-388 831.009,-355.739 837.498,-341.475 821,-312 812.713,-297.195 800.061,-285.029 786.05,-275.165"/>
<polygon fill="midnightblue" stroke="midnightblue" points="804.478,-414.124 801.742,-424.36 810.264,-418.065 804.478,-414.124"/>
</g>
<!-- Node19&#45;&gt;Node14 -->
<g id="edge31" class="edge"><title>Node19&#45;&gt;Node14</title>
<path fill="none" stroke="midnightblue" d="M867.604,-424.15C928.012,-409.198 962.546,-433.292 997,-388 1071.43,-290.161 1012.21,-130.265 981.997,-63.6424"/>
<polygon fill="midnightblue" stroke="midnightblue" points="866.384,-420.856 857.683,-426.901 868.254,-427.601 866.384,-420.856"/>
</g>
<!-- Node20 -->
<g id="node20" class="node"><title>Node20</title>
<g id="a_node20"><a xlink:href="../../d2/d07/Tracklet_8cxx.html" target="_top" xlink:title="/home/travis/build\l/AliceO2Group/AliceO2\l/Detectors/ITSMFT/ITS\l/reconstruction/src/CA\l/Tracklet.cxx">
<polygon fill="none" stroke="black" points="869,-318.5 869,-381.5 989,-381.5 989,-318.5 869,-318.5"/>
<text text-anchor="start" x="877" y="-369.5" font-family="Helvetica,sans-Serif" font-size="10.00">/home/travis/build</text>
<text text-anchor="start" x="877" y="-358.5" font-family="Helvetica,sans-Serif" font-size="10.00">/AliceO2Group/AliceO2</text>
<text text-anchor="start" x="877" y="-347.5" font-family="Helvetica,sans-Serif" font-size="10.00">/Detectors/ITSMFT/ITS</text>
<text text-anchor="start" x="877" y="-336.5" font-family="Helvetica,sans-Serif" font-size="10.00">/reconstruction/src/CA</text>
<text text-anchor="middle" x="929" y="-325.5" font-family="Helvetica,sans-Serif" font-size="10.00">/Tracklet.cxx</text>
</a>
</g>
</g>
<!-- Node19&#45;&gt;Node20 -->
<g id="edge32" class="edge"><title>Node19&#45;&gt;Node20</title>
<path fill="none" stroke="midnightblue" d="M828.978,-418.547C846.847,-406.48 866.537,-393.183 883.686,-381.601"/>
<polygon fill="midnightblue" stroke="midnightblue" points="826.701,-415.862 820.372,-424.359 830.618,-421.663 826.701,-415.862"/>
</g>
</g>
</svg>
