<?xml version="1.0" encoding="UTF-8" standalone="no"?>
<!DOCTYPE svg PUBLIC "-//W3C//DTD SVG 1.1//EN"
 "http://www.w3.org/Graphics/SVG/1.1/DTD/svg11.dtd">
<!-- Generated by graphviz version 2.36.0 (20140111.2315)
 -->
<!-- Title: o2::header::RAWDataHeaderV2 Pages: 1 -->
<svg width="387pt" height="372pt"
 viewBox="0.00 0.00 387.00 372.00" xmlns="http://www.w3.org/2000/svg" xmlns:xlink="http://www.w3.org/1999/xlink">
<g id="graph0" class="graph" transform="scale(1 1) rotate(0) translate(4 368)">
<title>o2::header::RAWDataHeaderV2</title>
<!-- Node1 -->
<g id="node1" class="node"><title>Node1</title>
<polygon fill="#bfbfbf" stroke="black" points="151.5,-0.5 151.5,-145.5 308.5,-145.5 308.5,-0.5 151.5,-0.5"/>
<text text-anchor="middle" x="230" y="-133.5" font-family="Helvetica,sans-Serif" font-size="10.00">o2::header::RAWDataHeaderV2</text>
<polyline fill="none" stroke="black" points="151.5,-126.5 308.5,-126.5 "/>
<text text-anchor="start" x="159.5" y="-114.5" font-family="Helvetica,sans-Serif" font-size="10.00">+ zero0</text>
<text text-anchor="start" x="159.5" y="-103.5" font-family="Helvetica,sans-Serif" font-size="10.00">+ word1</text>
<text text-anchor="start" x="159.5" y="-92.5" font-family="Helvetica,sans-Serif" font-size="10.00">+ word2</text>
<text text-anchor="start" x="159.5" y="-81.5" font-family="Helvetica,sans-Serif" font-size="10.00">+ zero2</text>
<text text-anchor="start" x="159.5" y="-70.5" font-family="Helvetica,sans-Serif" font-size="10.00">+ word3</text>
<text text-anchor="start" x="159.5" y="-59.5" font-family="Helvetica,sans-Serif" font-size="10.00">+ pageCnt</text>
<text text-anchor="start" x="159.5" y="-48.5" font-family="Helvetica,sans-Serif" font-size="10.00">+ stop</text>
<text text-anchor="start" x="159.5" y="-37.5" font-family="Helvetica,sans-Serif" font-size="10.00">+ detectorField</text>
<text text-anchor="start" x="159.5" y="-26.5" font-family="Helvetica,sans-Serif" font-size="10.00">+ zero3</text>
<polyline fill="none" stroke="black" points="151.5,-19.5 308.5,-19.5 "/>
<text text-anchor="middle" x="230" y="-7.5" font-family="Helvetica,sans-Serif" font-size="10.00"> </text>
</g>
<!-- Node2 -->
<g id="node2" class="node"><title>Node2</title>
<polygon fill="none" stroke="#bfbfbf" points="-0.5,-305.5 -0.5,-362.5 50.5,-362.5 50.5,-305.5 -0.5,-305.5"/>
<text text-anchor="middle" x="25" y="-350.5" font-family="Helvetica,sans-Serif" font-size="10.00">uint32_t</text>
<polyline fill="none" stroke="#bfbfbf" points="-0.5,-343.5 50.5,-343.5 "/>
<text text-anchor="middle" x="25" y="-331.5" font-family="Helvetica,sans-Serif" font-size="10.00"> </text>
<polyline fill="none" stroke="#bfbfbf" points="-0.5,-324.5 50.5,-324.5 "/>
<text text-anchor="middle" x="25" y="-312.5" font-family="Helvetica,sans-Serif" font-size="10.00"> </text>
</g>
<!-- Node2&#45;&gt;Node1 -->
<g id="edge1" class="edge"><title>Node2&#45;&gt;Node1</title>
<path fill="none" stroke="#404040" d="M18.3949,-305.415C11.4725,-269.526 5.18695,-206.409 34,-164 58.3228,-128.2 100.64,-106.38 139.743,-93.2149"/>
<polygon fill="none" stroke="#404040" points="139.774,-93.205 144.278,-87.573 151.209,-89.564 146.705,-95.1959 139.774,-93.205"/>
<text text-anchor="middle" x="69.5" y="-228" font-family="Helvetica,sans-Serif" font-size="10.00"> +heartbeatOrbit</text>
<text text-anchor="middle" x="69.5" y="-217" font-family="Helvetica,sans-Serif" font-size="10.00">+triggerOrbit</text>
</g>
<!-- Node3 -->
<g id="node3" class="node"><title>Node3</title>
<polygon fill="none" stroke="#bfbfbf" points="93.5,-305.5 93.5,-362.5 144.5,-362.5 144.5,-305.5 93.5,-305.5"/>
<text text-anchor="middle" x="119" y="-350.5" font-family="Helvetica,sans-Serif" font-size="10.00">uint64_t</text>
<polyline fill="none" stroke="#bfbfbf" points="93.5,-343.5 144.5,-343.5 "/>
<text text-anchor="middle" x="119" y="-331.5" font-family="Helvetica,sans-Serif" font-size="10.00"> </text>
<polyline fill="none" stroke="#bfbfbf" points="93.5,-324.5 144.5,-324.5 "/>
<text text-anchor="middle" x="119" y="-312.5" font-family="Helvetica,sans-Serif" font-size="10.00"> </text>
</g>
<!-- Node3&#45;&gt;Node1 -->
<g id="edge2" class="edge"><title>Node3&#45;&gt;Node1</title>
<path fill="none" stroke="#404040" d="M113.246,-305.354C107.416,-270.502 102.057,-209.633 124,-164 128.84,-153.934 135.393,-144.567 142.881,-135.975"/>
<polygon fill="none" stroke="#404040" points="143.128,-135.712 144.315,-128.599 151.337,-126.959 150.15,-134.072 143.128,-135.712"/>
<text text-anchor="middle" x="154.5" y="-277.5" font-family="Helvetica,sans-Serif" font-size="10.00"> +triggerType</text>
<text text-anchor="middle" x="154.5" y="-266.5" font-family="Helvetica,sans-Serif" font-size="10.00">+par</text>
<text text-anchor="middle" x="154.5" y="-255.5" font-family="Helvetica,sans-Serif" font-size="10.00">+feeId</text>
<text text-anchor="middle" x="154.5" y="-244.5" font-family="Helvetica,sans-Serif" font-size="10.00">+linkId</text>
<text text-anchor="middle" x="154.5" y="-233.5" font-family="Helvetica,sans-Serif" font-size="10.00">+headerSize</text>
<text text-anchor="middle" x="154.5" y="-222.5" font-family="Helvetica,sans-Serif" font-size="10.00">+version</text>
<text text-anchor="middle" x="154.5" y="-211.5" font-family="Helvetica,sans-Serif" font-size="10.00">+triggerBC</text>
<text text-anchor="middle" x="154.5" y="-200.5" font-family="Helvetica,sans-Serif" font-size="10.00">+blockLength</text>
<text text-anchor="middle" x="154.5" y="-189.5" font-family="Helvetica,sans-Serif" font-size="10.00">+heartbeatBC</text>
<text text-anchor="middle" x="154.5" y="-178.5" font-family="Helvetica,sans-Serif" font-size="10.00">+word0</text>
<text text-anchor="middle" x="154.5" y="-167.5" font-family="Helvetica,sans-Serif" font-size="10.00">...</text>
</g>
<!-- Node4 -->
<g id="node4" class="node"><title>Node4</title>
<polygon fill="none" stroke="#bfbfbf" points="269.5,-305 269.5,-363 298.5,-363 298.5,-305 269.5,-305"/>
<polyline fill="none" stroke="#bfbfbf" points="269.5,-343 298.5,-343 "/>
<text text-anchor="middle" x="284" y="-331" font-family="Helvetica,sans-Serif" font-size="10.00"> </text>
<polyline fill="none" stroke="#bfbfbf" points="269.5,-324 298.5,-324 "/>
<text text-anchor="middle" x="284" y="-312" font-family="Helvetica,sans-Serif" font-size="10.00"> </text>
</g>
<!-- Node4&#45;&gt;Node1 -->
<g id="edge3" class="edge"><title>Node4&#45;&gt;Node1</title>
<path fill="none" stroke="#404040" d="M269.247,-329.21C250.245,-323.446 218.002,-310.466 204,-286 181.908,-247.398 186.225,-198.431 197.053,-157.285"/>
<polygon fill="none" stroke="#404040" points="197.085,-157.173 194.867,-150.311 200.347,-145.625 202.566,-152.486 197.085,-157.173"/>
<text text-anchor="middle" x="219.5" y="-222.5" font-family="Helvetica,sans-Serif" font-size="10.00"> +@54</text>
</g>
<!-- Node4&#45;&gt;Node1 -->
<g id="edge4" class="edge"><title>Node4&#45;&gt;Node1</title>
<path fill="none" stroke="#404040" d="M269.238,-310.358C264.977,-302.873 260.743,-294.325 258,-286 250.288,-262.596 243.045,-206.458 237.859,-157.828"/>
<polygon fill="none" stroke="#404040" points="237.833,-157.586 233.231,-152.034 236.585,-145.651 241.188,-151.202 237.833,-157.586"/>
<text text-anchor="middle" x="273.5" y="-222.5" font-family="Helvetica,sans-Serif" font-size="10.00"> +@56</text>
</g>
<!-- Node4&#45;&gt;Node1 -->
<g id="edge5" class="edge"><title>Node4&#45;&gt;Node1</title>
<path fill="none" stroke="#404040" d="M290.147,-304.785C296.387,-270.651 303.276,-211.815 289,-164 288.28,-161.587 287.472,-159.179 286.587,-156.782"/>
<polygon fill="none" stroke="#404040" points="286.567,-156.735 280.56,-152.745 281.933,-145.666 287.94,-149.655 286.567,-156.735"/>
<text text-anchor="middle" x="312.5" y="-222.5" font-family="Helvetica,sans-Serif" font-size="10.00"> +@58</text>
</g>
<!-- Node4&#45;&gt;Node1 -->
<g id="edge6" class="edge"><title>Node4&#45;&gt;Node1</title>
<path fill="none" stroke="#404040" d="M298.849,-323.459C310.313,-315.135 325.311,-301.912 332,-286 353.013,-236.015 354.303,-213.423 332,-164 327.995,-155.124 322.633,-146.772 316.456,-139.006"/>
<polygon fill="none" stroke="#404040" points="316.384,-138.922 309.438,-136.985 308.554,-129.828 315.5,-131.765 316.384,-138.922"/>
<text text-anchor="middle" x="363.5" y="-222.5" font-family="Helvetica,sans-Serif" font-size="10.00"> +@60</text>
</g>
</g>
</svg>
