<?xml version="1.0" encoding="UTF-8" standalone="no"?>
<!DOCTYPE svg PUBLIC "-//W3C//DTD SVG 1.1//EN"
 "http://www.w3.org/Graphics/SVG/1.1/DTD/svg11.dtd">
<!-- Generated by graphviz version 2.36.0 (20140111.2315)
 -->
<!-- Title: /home/travis/build/AliceO2Group/AliceO2/Detectors/MUON/MCH/Base/include/MCHBase/Mapping.h Pages: 1 -->
<svg width="562pt" height="332pt"
 viewBox="0.00 0.00 562.00 332.00" xmlns="http://www.w3.org/2000/svg" xmlns:xlink="http://www.w3.org/1999/xlink">
<g id="graph0" class="graph" transform="scale(1 1) rotate(0) translate(4 328)">
<title>/home/travis/build/AliceO2Group/AliceO2/Detectors/MUON/MCH/Base/include/MCHBase/Mapping.h</title>
<!-- Node1 -->
<g id="node1" class="node"><title>Node1</title>
<polygon fill="#bfbfbf" stroke="black" points="92,-271 92,-323 240,-323 240,-271 92,-271"/>
<text text-anchor="start" x="100" y="-311" font-family="Helvetica,sans-Serif" font-size="10.00">/home/travis/build</text>
<text text-anchor="start" x="100" y="-300" font-family="Helvetica,sans-Serif" font-size="10.00">/AliceO2Group/AliceO2</text>
<text text-anchor="start" x="100" y="-289" font-family="Helvetica,sans-Serif" font-size="10.00">/Detectors/MUON/MCH/Base</text>
<text text-anchor="middle" x="166" y="-278" font-family="Helvetica,sans-Serif" font-size="10.00">/include/MCHBase/Mapping.h</text>
</g>
<!-- Node2 -->
<g id="node2" class="node"><title>Node2</title>
<g id="a_node2"><a xlink:href="../../dc/dbc/MCH_2Base_2src_2Mapping_8cxx.html" target="_top" xlink:title="/home/travis/build\l/AliceO2Group/AliceO2\l/Detectors/MUON/MCH/Base\l/src/Mapping.cxx">
<polygon fill="none" stroke="black" points="0,-181 0,-233 148,-233 148,-181 0,-181"/>
<text text-anchor="start" x="8" y="-221" font-family="Helvetica,sans-Serif" font-size="10.00">/home/travis/build</text>
<text text-anchor="start" x="8" y="-210" font-family="Helvetica,sans-Serif" font-size="10.00">/AliceO2Group/AliceO2</text>
<text text-anchor="start" x="8" y="-199" font-family="Helvetica,sans-Serif" font-size="10.00">/Detectors/MUON/MCH/Base</text>
<text text-anchor="middle" x="74" y="-188" font-family="Helvetica,sans-Serif" font-size="10.00">/src/Mapping.cxx</text>
</a>
</g>
</g>
<!-- Node1&#45;&gt;Node2 -->
<g id="edge1" class="edge"><title>Node1&#45;&gt;Node2</title>
<path fill="none" stroke="midnightblue" d="M131.95,-263.431C121.471,-253.407 110.102,-242.533 100.233,-233.092"/>
<polygon fill="midnightblue" stroke="midnightblue" points="129.744,-266.164 139.39,-270.547 134.583,-261.105 129.744,-266.164"/>
</g>
<!-- Node3 -->
<g id="node3" class="node"><title>Node3</title>
<g id="a_node3"><a xlink:href="../../db/dad/PreClusterFinder_8h.html" target="_top" xlink:title="/home/travis/build\l/AliceO2Group/AliceO2\l/Detectors/MUON/MCH/PreClustering\l/src/PreClusterFinder.h">
<polygon fill="none" stroke="black" points="166.5,-181 166.5,-233 351.5,-233 351.5,-181 166.5,-181"/>
<text text-anchor="start" x="174.5" y="-221" font-family="Helvetica,sans-Serif" font-size="10.00">/home/travis/build</text>
<text text-anchor="start" x="174.5" y="-210" font-family="Helvetica,sans-Serif" font-size="10.00">/AliceO2Group/AliceO2</text>
<text text-anchor="start" x="174.5" y="-199" font-family="Helvetica,sans-Serif" font-size="10.00">/Detectors/MUON/MCH/PreClustering</text>
<text text-anchor="middle" x="259" y="-188" font-family="Helvetica,sans-Serif" font-size="10.00">/src/PreClusterFinder.h</text>
</a>
</g>
</g>
<!-- Node1&#45;&gt;Node3 -->
<g id="edge2" class="edge"><title>Node1&#45;&gt;Node3</title>
<path fill="none" stroke="midnightblue" d="M200.42,-263.431C211.013,-253.407 222.505,-242.533 232.482,-233.092"/>
<polygon fill="midnightblue" stroke="midnightblue" points="197.758,-261.131 192.899,-270.547 202.569,-266.216 197.758,-261.131"/>
</g>
<!-- Node4 -->
<g id="node4" class="node"><title>Node4</title>
<g id="a_node4"><a xlink:href="../../d8/dfc/PreClusterFinder_8cxx.html" target="_top" xlink:title="/home/travis/build\l/AliceO2Group/AliceO2\l/Detectors/MUON/MCH/PreClustering\l/src/PreClusterFinder.cxx">
<polygon fill="none" stroke="black" points="65.5,-91 65.5,-143 250.5,-143 250.5,-91 65.5,-91"/>
<text text-anchor="start" x="73.5" y="-131" font-family="Helvetica,sans-Serif" font-size="10.00">/home/travis/build</text>
<text text-anchor="start" x="73.5" y="-120" font-family="Helvetica,sans-Serif" font-size="10.00">/AliceO2Group/AliceO2</text>
<text text-anchor="start" x="73.5" y="-109" font-family="Helvetica,sans-Serif" font-size="10.00">/Detectors/MUON/MCH/PreClustering</text>
<text text-anchor="middle" x="158" y="-98" font-family="Helvetica,sans-Serif" font-size="10.00">/src/PreClusterFinder.cxx</text>
</a>
</g>
</g>
<!-- Node3&#45;&gt;Node4 -->
<g id="edge3" class="edge"><title>Node3&#45;&gt;Node4</title>
<path fill="none" stroke="midnightblue" d="M222.216,-173.951C210.599,-163.829 197.935,-152.795 186.947,-143.221"/>
<polygon fill="midnightblue" stroke="midnightblue" points="220.219,-176.852 230.057,-180.783 224.817,-171.575 220.219,-176.852"/>
</g>
<!-- Node5 -->
<g id="node5" class="node"><title>Node5</title>
<g id="a_node5"><a xlink:href="../../dd/db2/PreClusterFinderDevice_8h.html" target="_top" xlink:title="/home/travis/build\l/AliceO2Group/AliceO2\l/Detectors/MUON/MCH/PreClustering\l/src/PreClusterFinderDevice.h">
<polygon fill="none" stroke="black" points="268.5,-91 268.5,-143 453.5,-143 453.5,-91 268.5,-91"/>
<text text-anchor="start" x="276.5" y="-131" font-family="Helvetica,sans-Serif" font-size="10.00">/home/travis/build</text>
<text text-anchor="start" x="276.5" y="-120" font-family="Helvetica,sans-Serif" font-size="10.00">/AliceO2Group/AliceO2</text>
<text text-anchor="start" x="276.5" y="-109" font-family="Helvetica,sans-Serif" font-size="10.00">/Detectors/MUON/MCH/PreClustering</text>
<text text-anchor="middle" x="361" y="-98" font-family="Helvetica,sans-Serif" font-size="10.00">/src/PreClusterFinderDevice.h</text>
</a>
</g>
</g>
<!-- Node3&#45;&gt;Node5 -->
<g id="edge4" class="edge"><title>Node3&#45;&gt;Node5</title>
<path fill="none" stroke="midnightblue" d="M295.81,-174.242C307.634,-164.042 320.563,-152.887 331.767,-143.221"/>
<polygon fill="midnightblue" stroke="midnightblue" points="293.514,-171.6 288.229,-180.783 298.087,-176.9 293.514,-171.6"/>
</g>
<!-- Node6 -->
<g id="node6" class="node"><title>Node6</title>
<g id="a_node6"><a xlink:href="../../dc/d75/PreClusterFinderDevice_8cxx.html" target="_top" xlink:title="/home/travis/build\l/AliceO2Group/AliceO2\l/Detectors/MUON/MCH/PreClustering\l/src/PreClusterFinderDevice.cxx">
<polygon fill="none" stroke="black" points="166.5,-1 166.5,-53 351.5,-53 351.5,-1 166.5,-1"/>
<text text-anchor="start" x="174.5" y="-41" font-family="Helvetica,sans-Serif" font-size="10.00">/home/travis/build</text>
<text text-anchor="start" x="174.5" y="-30" font-family="Helvetica,sans-Serif" font-size="10.00">/AliceO2Group/AliceO2</text>
<text text-anchor="start" x="174.5" y="-19" font-family="Helvetica,sans-Serif" font-size="10.00">/Detectors/MUON/MCH/PreClustering</text>
<text text-anchor="middle" x="259" y="-8" font-family="Helvetica,sans-Serif" font-size="10.00">/src/PreClusterFinderDevice.cxx</text>
</a>
</g>
</g>
<!-- Node5&#45;&gt;Node6 -->
<g id="edge5" class="edge"><title>Node5&#45;&gt;Node6</title>
<path fill="none" stroke="midnightblue" d="M324.19,-84.2423C312.366,-74.0416 299.437,-62.8871 288.233,-53.221"/>
<polygon fill="midnightblue" stroke="midnightblue" points="321.913,-86.9004 331.771,-90.7827 326.486,-81.6003 321.913,-86.9004"/>
</g>
<!-- Node7 -->
<g id="node7" class="node"><title>Node7</title>
<g id="a_node7"><a xlink:href="../../d2/db8/runPreClusterFinder_8cxx.html" target="_top" xlink:title="/home/travis/build\l/AliceO2Group/AliceO2\l/Detectors/MUON/MCH/PreClustering\l/src/runPreClusterFinder.cxx">
<polygon fill="none" stroke="black" points="369.5,-1 369.5,-53 554.5,-53 554.5,-1 369.5,-1"/>
<text text-anchor="start" x="377.5" y="-41" font-family="Helvetica,sans-Serif" font-size="10.00">/home/travis/build</text>
<text text-anchor="start" x="377.5" y="-30" font-family="Helvetica,sans-Serif" font-size="10.00">/AliceO2Group/AliceO2</text>
<text text-anchor="start" x="377.5" y="-19" font-family="Helvetica,sans-Serif" font-size="10.00">/Detectors/MUON/MCH/PreClustering</text>
<text text-anchor="middle" x="462" y="-8" font-family="Helvetica,sans-Serif" font-size="10.00">/src/runPreClusterFinder.cxx</text>
</a>
</g>
</g>
<!-- Node5&#45;&gt;Node7 -->
<g id="edge6" class="edge"><title>Node5&#45;&gt;Node7</title>
<path fill="none" stroke="midnightblue" d="M397.784,-83.9506C409.401,-73.8293 422.065,-62.795 433.053,-53.221"/>
<polygon fill="midnightblue" stroke="midnightblue" points="395.183,-81.5746 389.943,-90.7827 399.781,-86.8524 395.183,-81.5746"/>
</g>
</g>
</svg>
