<?xml version="1.0" encoding="UTF-8" standalone="no"?>
<!DOCTYPE svg PUBLIC "-//W3C//DTD SVG 1.1//EN"
 "http://www.w3.org/Graphics/SVG/1.1/DTD/svg11.dtd">
<!-- Generated by graphviz version 2.36.0 (20140111.2315)
 -->
<!-- Title: /home/travis/build/AliceO2Group/AliceO2/Utilities/MCStepLogger/src/StepInfo.cxx Pages: 1 -->
<svg width="1004pt" height="174pt"
 viewBox="0.00 0.00 1004.00 174.00" xmlns="http://www.w3.org/2000/svg" xmlns:xlink="http://www.w3.org/1999/xlink">
<g id="graph0" class="graph" transform="scale(1 1) rotate(0) translate(4 170)">
<title>/home/travis/build/AliceO2Group/AliceO2/Utilities/MCStepLogger/src/StepInfo.cxx</title>
<!-- Node1 -->
<g id="node1" class="node"><title>Node1</title>
<polygon fill="#bfbfbf" stroke="black" points="411.5,-113 411.5,-165 532.5,-165 532.5,-113 411.5,-113"/>
<text text-anchor="start" x="419.5" y="-153" font-family="Helvetica,sans-Serif" font-size="10.00">/home/travis/build</text>
<text text-anchor="start" x="419.5" y="-142" font-family="Helvetica,sans-Serif" font-size="10.00">/AliceO2Group/AliceO2</text>
<text text-anchor="start" x="419.5" y="-131" font-family="Helvetica,sans-Serif" font-size="10.00">/Utilities/MCStepLogger</text>
<text text-anchor="middle" x="472" y="-120" font-family="Helvetica,sans-Serif" font-size="10.00">/src/StepInfo.cxx</text>
</g>
<!-- Node2 -->
<g id="node2" class="node"><title>Node2</title>
<g id="a_node2"><a xlink:href="../../d1/d5f/StepInfo_8h.html" target="_top" xlink:title="MCStepLogger/StepInfo.h">
<polygon fill="none" stroke="black" points="91,-56.5 91,-75.5 221,-75.5 221,-56.5 91,-56.5"/>
<text text-anchor="middle" x="156" y="-63.5" font-family="Helvetica,sans-Serif" font-size="10.00">MCStepLogger/StepInfo.h</text>
</a>
</g>
</g>
<!-- Node1&#45;&gt;Node2 -->
<g id="edge1" class="edge"><title>Node1&#45;&gt;Node2</title>
<path fill="none" stroke="midnightblue" d="M411.446,-124.394C351.048,-110.824 259.481,-90.2505 203.949,-77.7734"/>
<polygon fill="midnightblue" stroke="midnightblue" points="204.539,-74.3188 194.015,-75.5414 203.005,-81.1485 204.539,-74.3188"/>
</g>
<!-- Node4 -->
<g id="node4" class="node"><title>Node4</title>
<polygon fill="none" stroke="#bfbfbf" points="0,-0.5 0,-19.5 46,-19.5 46,-0.5 0,-0.5"/>
<text text-anchor="middle" x="23" y="-7.5" font-family="Helvetica,sans-Serif" font-size="10.00">chrono</text>
</g>
<!-- Node1&#45;&gt;Node4 -->
<g id="edge10" class="edge"><title>Node1&#45;&gt;Node4</title>
<path fill="none" stroke="midnightblue" d="M411.131,-133.266C316.13,-125.059 137.708,-106.123 82,-76 61.3508,-64.8343 44.1908,-43.5735 33.7967,-28.4079"/>
<polygon fill="midnightblue" stroke="midnightblue" points="36.6324,-26.3494 28.2285,-19.8977 30.7748,-30.182 36.6324,-26.3494"/>
</g>
<!-- Node5 -->
<g id="node5" class="node"><title>Node5</title>
<polygon fill="none" stroke="#bfbfbf" points="254,-0.5 254,-19.5 308,-19.5 308,-0.5 254,-0.5"/>
<text text-anchor="middle" x="281" y="-7.5" font-family="Helvetica,sans-Serif" font-size="10.00">iostream</text>
</g>
<!-- Node1&#45;&gt;Node5 -->
<g id="edge16" class="edge"><title>Node1&#45;&gt;Node5</title>
<path fill="none" stroke="midnightblue" d="M411.42,-137.612C364.225,-133.709 301.447,-119.836 269,-76 258.892,-62.3433 264.49,-42.7406 271.008,-28.6382"/>
<polygon fill="midnightblue" stroke="midnightblue" points="274.244,-29.9988 275.705,-19.5052 268.019,-26.7972 274.244,-29.9988"/>
</g>
<!-- Node8 -->
<g id="node8" class="node"><title>Node8</title>
<polygon fill="none" stroke="#bfbfbf" points="277.5,-56.5 277.5,-75.5 334.5,-75.5 334.5,-56.5 277.5,-56.5"/>
<text text-anchor="middle" x="306" y="-63.5" font-family="Helvetica,sans-Serif" font-size="10.00">TArrayI.h</text>
</g>
<!-- Node1&#45;&gt;Node8 -->
<g id="edge7" class="edge"><title>Node1&#45;&gt;Node8</title>
<path fill="none" stroke="midnightblue" d="M413.475,-112.968C387.086,-101.681 357.072,-88.8441 335.482,-79.6097"/>
<polygon fill="midnightblue" stroke="midnightblue" points="336.769,-76.3534 326.198,-75.6389 334.016,-82.7895 336.769,-76.3534"/>
</g>
<!-- Node9 -->
<g id="node9" class="node"><title>Node9</title>
<polygon fill="none" stroke="#bfbfbf" points="353,-56.5 353,-75.5 417,-75.5 417,-56.5 353,-56.5"/>
<text text-anchor="middle" x="385" y="-63.5" font-family="Helvetica,sans-Serif" font-size="10.00">TParticle.h</text>
</g>
<!-- Node1&#45;&gt;Node9 -->
<g id="edge8" class="edge"><title>Node1&#45;&gt;Node9</title>
<path fill="none" stroke="midnightblue" d="M441.082,-112.768C428.596,-102.578 414.596,-91.1531 403.708,-82.2671"/>
<polygon fill="midnightblue" stroke="midnightblue" points="405.691,-79.3682 395.731,-75.7572 401.265,-84.7915 405.691,-79.3682"/>
</g>
<!-- Node10 -->
<g id="node10" class="node"><title>Node10</title>
<polygon fill="none" stroke="#bfbfbf" points="435,-56.5 435,-75.5 509,-75.5 509,-56.5 435,-56.5"/>
<text text-anchor="middle" x="472" y="-63.5" font-family="Helvetica,sans-Serif" font-size="10.00">TVirtualMC.h</text>
</g>
<!-- Node1&#45;&gt;Node10 -->
<g id="edge9" class="edge"><title>Node1&#45;&gt;Node10</title>
<path fill="none" stroke="midnightblue" d="M472,-112.768C472,-103.89 472,-94.0737 472,-85.8165"/>
<polygon fill="midnightblue" stroke="midnightblue" points="475.5,-85.7571 472,-75.7572 468.5,-85.7572 475.5,-85.7571"/>
</g>
<!-- Node11 -->
<g id="node11" class="node"><title>Node11</title>
<polygon fill="none" stroke="#bfbfbf" points="527.5,-56.5 527.5,-75.5 622.5,-75.5 622.5,-56.5 527.5,-56.5"/>
<text text-anchor="middle" x="575" y="-63.5" font-family="Helvetica,sans-Serif" font-size="10.00">TDatabasePDG.h</text>
</g>
<!-- Node1&#45;&gt;Node11 -->
<g id="edge11" class="edge"><title>Node1&#45;&gt;Node11</title>
<path fill="none" stroke="midnightblue" d="M508.314,-112.968C523.561,-102.458 540.758,-90.6034 553.87,-81.5655"/>
<polygon fill="midnightblue" stroke="midnightblue" points="555.973,-84.3668 562.22,-75.8095 552,-78.6033 555.973,-84.3668"/>
</g>
<!-- Node12 -->
<g id="node12" class="node"><title>Node12</title>
<polygon fill="none" stroke="#bfbfbf" points="641,-56.5 641,-75.5 727,-75.5 727,-56.5 641,-56.5"/>
<text text-anchor="middle" x="684" y="-63.5" font-family="Helvetica,sans-Serif" font-size="10.00">TGeoManager.h</text>
</g>
<!-- Node1&#45;&gt;Node12 -->
<g id="edge12" class="edge"><title>Node1&#45;&gt;Node12</title>
<path fill="none" stroke="midnightblue" d="M532.751,-117.654C570.399,-105.046 617.423,-89.2971 648.956,-78.7365"/>
<polygon fill="midnightblue" stroke="midnightblue" points="650.247,-81.9952 658.618,-75.5006 648.024,-75.3575 650.247,-81.9952"/>
</g>
<!-- Node13 -->
<g id="node13" class="node"><title>Node13</title>
<polygon fill="none" stroke="#bfbfbf" points="745.5,-56.5 745.5,-75.5 828.5,-75.5 828.5,-56.5 745.5,-56.5"/>
<text text-anchor="middle" x="787" y="-63.5" font-family="Helvetica,sans-Serif" font-size="10.00">TGeoMedium.h</text>
</g>
<!-- Node1&#45;&gt;Node13 -->
<g id="edge13" class="edge"><title>Node1&#45;&gt;Node13</title>
<path fill="none" stroke="midnightblue" d="M532.735,-124.31C592.988,-110.73 684.089,-90.1958 739.32,-77.747"/>
<polygon fill="midnightblue" stroke="midnightblue" points="740.214,-81.1334 749.199,-75.5202 738.674,-74.3047 740.214,-81.1334"/>
</g>
<!-- Node14 -->
<g id="node14" class="node"><title>Node14</title>
<polygon fill="none" stroke="#bfbfbf" points="847,-56.5 847,-75.5 929,-75.5 929,-56.5 847,-56.5"/>
<text text-anchor="middle" x="888" y="-63.5" font-family="Helvetica,sans-Serif" font-size="10.00">TGeoVolume.h</text>
</g>
<!-- Node1&#45;&gt;Node14 -->
<g id="edge14" class="edge"><title>Node1&#45;&gt;Node14</title>
<path fill="none" stroke="midnightblue" d="M532.728,-127.807C603.13,-115.963 722.941,-95.7214 836.863,-76.0141"/>
<polygon fill="midnightblue" stroke="midnightblue" points="837.552,-79.4471 846.808,-74.2925 836.358,-72.5497 837.552,-79.4471"/>
</g>
<!-- Node15 -->
<g id="node15" class="node"><title>Node15</title>
<polygon fill="none" stroke="#bfbfbf" points="947.5,-56.5 947.5,-75.5 996.5,-75.5 996.5,-56.5 947.5,-56.5"/>
<text text-anchor="middle" x="972" y="-63.5" font-family="Helvetica,sans-Serif" font-size="10.00">cassert</text>
</g>
<!-- Node1&#45;&gt;Node15 -->
<g id="edge15" class="edge"><title>Node1&#45;&gt;Node15</title>
<path fill="none" stroke="midnightblue" d="M532.724,-132.398C620.133,-123.787 786.545,-105.355 937.296,-75.9075"/>
<polygon fill="midnightblue" stroke="midnightblue" points="938.069,-79.3225 947.202,-73.9519 936.714,-72.4551 938.069,-79.3225"/>
</g>
<!-- Node3 -->
<g id="node3" class="node"><title>Node3</title>
<polygon fill="none" stroke="#bfbfbf" points="64,-0.5 64,-19.5 120,-19.5 120,-0.5 64,-0.5"/>
<text text-anchor="middle" x="92" y="-7.5" font-family="Helvetica,sans-Serif" font-size="10.00">Rtypes.h</text>
</g>
<!-- Node2&#45;&gt;Node3 -->
<g id="edge2" class="edge"><title>Node2&#45;&gt;Node3</title>
<path fill="none" stroke="midnightblue" d="M145.717,-56.324C136.164,-48.2631 121.72,-36.0765 110.216,-26.3695"/>
<polygon fill="midnightblue" stroke="midnightblue" points="112.37,-23.6076 102.47,-19.8339 107.856,-28.9577 112.37,-23.6076"/>
</g>
<!-- Node2&#45;&gt;Node4 -->
<g id="edge3" class="edge"><title>Node2&#45;&gt;Node4</title>
<path fill="none" stroke="midnightblue" d="M134.926,-56.4435C112.94,-47.5171 78.2657,-33.4387 53.3359,-23.3168"/>
<polygon fill="midnightblue" stroke="midnightblue" points="54.5578,-20.0355 43.9756,-19.5164 51.9244,-26.5213 54.5578,-20.0355"/>
</g>
<!-- Node2&#45;&gt;Node5 -->
<g id="edge4" class="edge"><title>Node2&#45;&gt;Node5</title>
<path fill="none" stroke="midnightblue" d="M175.807,-56.4435C196.287,-47.5961 228.483,-33.6875 251.865,-23.5865"/>
<polygon fill="midnightblue" stroke="midnightblue" points="253.494,-26.6953 261.286,-19.5164 250.718,-20.2692 253.494,-26.6953"/>
</g>
<!-- Node6 -->
<g id="node6" class="node"><title>Node6</title>
<polygon fill="none" stroke="#bfbfbf" points="138.5,-0.5 138.5,-19.5 173.5,-19.5 173.5,-0.5 138.5,-0.5"/>
<text text-anchor="middle" x="156" y="-7.5" font-family="Helvetica,sans-Serif" font-size="10.00">map</text>
</g>
<!-- Node2&#45;&gt;Node6 -->
<g id="edge5" class="edge"><title>Node2&#45;&gt;Node6</title>
<path fill="none" stroke="midnightblue" d="M156,-56.083C156,-49.0059 156,-38.8611 156,-29.9865"/>
<polygon fill="midnightblue" stroke="midnightblue" points="159.5,-29.751 156,-19.7511 152.5,-29.7511 159.5,-29.751"/>
</g>
<!-- Node7 -->
<g id="node7" class="node"><title>Node7</title>
<polygon fill="none" stroke="#bfbfbf" points="192,-0.5 192,-19.5 236,-19.5 236,-0.5 192,-0.5"/>
<text text-anchor="middle" x="214" y="-7.5" font-family="Helvetica,sans-Serif" font-size="10.00">vector</text>
</g>
<!-- Node2&#45;&gt;Node7 -->
<g id="edge6" class="edge"><title>Node2&#45;&gt;Node7</title>
<path fill="none" stroke="midnightblue" d="M165.319,-56.324C173.893,-48.3414 186.812,-36.3128 197.188,-26.6529"/>
<polygon fill="midnightblue" stroke="midnightblue" points="199.578,-29.2098 204.512,-19.8339 194.808,-24.0865 199.578,-29.2098"/>
</g>
</g>
</svg>
