<?xml version="1.0" encoding="UTF-8" standalone="no"?>
<!DOCTYPE svg PUBLIC "-//W3C//DTD SVG 1.1//EN"
 "http://www.w3.org/Graphics/SVG/1.1/DTD/svg11.dtd">
<!-- Generated by graphviz version 2.36.0 (20140111.2315)
 -->
<!-- Title: /home/travis/build/AliceO2Group/AliceO2/Framework/Core/include/Framework/CallbackService.h Pages: 1 -->
<svg width="2781pt" height="242pt"
 viewBox="0.00 0.00 2781.00 242.00" xmlns="http://www.w3.org/2000/svg" xmlns:xlink="http://www.w3.org/1999/xlink">
<g id="graph0" class="graph" transform="scale(1 1) rotate(0) translate(4 238)">
<title>/home/travis/build/AliceO2Group/AliceO2/Framework/Core/include/Framework/CallbackService.h</title>
<!-- Node1 -->
<g id="node1" class="node"><title>Node1</title>
<polygon fill="#bfbfbf" stroke="black" points="1399.5,-181 1399.5,-233 1550.5,-233 1550.5,-181 1399.5,-181"/>
<text text-anchor="start" x="1407.5" y="-221" font-family="Helvetica,sans-Serif" font-size="10.00">/home/travis/build</text>
<text text-anchor="start" x="1407.5" y="-210" font-family="Helvetica,sans-Serif" font-size="10.00">/AliceO2Group/AliceO2</text>
<text text-anchor="start" x="1407.5" y="-199" font-family="Helvetica,sans-Serif" font-size="10.00">/Framework/Core/include</text>
<text text-anchor="middle" x="1475" y="-188" font-family="Helvetica,sans-Serif" font-size="10.00">/Framework/CallbackService.h</text>
</g>
<!-- Node2 -->
<g id="node2" class="node"><title>Node2</title>
<g id="a_node2"><a xlink:href="../../d7/d0c/RootFileWriterSpec_8cxx.html" target="_top" xlink:title="Processor spec for a ROOT file writer. ">
<polygon fill="none" stroke="black" points="0,-91 0,-143 140,-143 140,-91 0,-91"/>
<text text-anchor="start" x="8" y="-131" font-family="Helvetica,sans-Serif" font-size="10.00">/home/travis/build</text>
<text text-anchor="start" x="8" y="-120" font-family="Helvetica,sans-Serif" font-size="10.00">/AliceO2Group/AliceO2</text>
<text text-anchor="start" x="8" y="-109" font-family="Helvetica,sans-Serif" font-size="10.00">/Detectors/TPC/workflow</text>
<text text-anchor="middle" x="70" y="-98" font-family="Helvetica,sans-Serif" font-size="10.00">/src/RootFileWriterSpec.cxx</text>
</a>
</g>
</g>
<!-- Node1&#45;&gt;Node2 -->
<g id="edge1" class="edge"><title>Node1&#45;&gt;Node2</title>
<path fill="none" stroke="midnightblue" d="M1388.92,-205.017C1134.39,-201.628 388.189,-188.102 149,-144 146.16,-143.476 143.282,-142.876 140.388,-142.214"/>
<polygon fill="midnightblue" stroke="midnightblue" points="1389.17,-208.52 1399.22,-205.152 1389.27,-201.521 1389.17,-208.52"/>
</g>
<!-- Node3 -->
<g id="node3" class="node"><title>Node3</title>
<g id="a_node3"><a xlink:href="../../db/dac/DataProcessingDevice_8cxx.html" target="_top" xlink:title="/home/travis/build\l/AliceO2Group/AliceO2\l/Framework/Core/src/DataProcessing\lDevice.cxx">
<polygon fill="none" stroke="black" points="158,-91 158,-143 340,-143 340,-91 158,-91"/>
<text text-anchor="start" x="166" y="-131" font-family="Helvetica,sans-Serif" font-size="10.00">/home/travis/build</text>
<text text-anchor="start" x="166" y="-120" font-family="Helvetica,sans-Serif" font-size="10.00">/AliceO2Group/AliceO2</text>
<text text-anchor="start" x="166" y="-109" font-family="Helvetica,sans-Serif" font-size="10.00">/Framework/Core/src/DataProcessing</text>
<text text-anchor="middle" x="249" y="-98" font-family="Helvetica,sans-Serif" font-size="10.00">Device.cxx</text>
</a>
</g>
</g>
<!-- Node1&#45;&gt;Node3 -->
<g id="edge2" class="edge"><title>Node1&#45;&gt;Node3</title>
<path fill="none" stroke="midnightblue" d="M1389.26,-203.493C1162.25,-196.502 549.28,-175.23 349,-144 346.076,-143.544 343.113,-143.039 340.128,-142.492"/>
<polygon fill="midnightblue" stroke="midnightblue" points="1389.35,-206.998 1399.45,-203.806 1389.56,-200.001 1389.35,-206.998"/>
</g>
<!-- Node4 -->
<g id="node4" class="node"><title>Node4</title>
<g id="a_node4"><a xlink:href="../../d0/d9f/DataSourceDevice_8cxx.html" target="_top" xlink:title="/home/travis/build\l/AliceO2Group/AliceO2\l/Framework/Core/src/DataSource\lDevice.cxx">
<polygon fill="none" stroke="black" points="358,-91 358,-143 522,-143 522,-91 358,-91"/>
<text text-anchor="start" x="366" y="-131" font-family="Helvetica,sans-Serif" font-size="10.00">/home/travis/build</text>
<text text-anchor="start" x="366" y="-120" font-family="Helvetica,sans-Serif" font-size="10.00">/AliceO2Group/AliceO2</text>
<text text-anchor="start" x="366" y="-109" font-family="Helvetica,sans-Serif" font-size="10.00">/Framework/Core/src/DataSource</text>
<text text-anchor="middle" x="440" y="-98" font-family="Helvetica,sans-Serif" font-size="10.00">Device.cxx</text>
</a>
</g>
</g>
<!-- Node1&#45;&gt;Node4 -->
<g id="edge3" class="edge"><title>Node1&#45;&gt;Node4</title>
<path fill="none" stroke="midnightblue" d="M1389.22,-206.44C1222.54,-205.959 843.842,-198.327 531,-144 528.086,-143.494 525.132,-142.931 522.158,-142.32"/>
<polygon fill="midnightblue" stroke="midnightblue" points="1389.4,-209.94 1399.41,-206.461 1389.41,-202.94 1389.4,-209.94"/>
</g>
<!-- Node5 -->
<g id="node5" class="node"><title>Node5</title>
<g id="a_node5"><a xlink:href="../../d7/d54/runDataProcessing_8cxx.html" target="_top" xlink:title="/home/travis/build\l/AliceO2Group/AliceO2\l/Framework/Core/src/runDataProcessing.cxx">
<polygon fill="none" stroke="black" points="540,-96.5 540,-137.5 754,-137.5 754,-96.5 540,-96.5"/>
<text text-anchor="start" x="548" y="-125.5" font-family="Helvetica,sans-Serif" font-size="10.00">/home/travis/build</text>
<text text-anchor="start" x="548" y="-114.5" font-family="Helvetica,sans-Serif" font-size="10.00">/AliceO2Group/AliceO2</text>
<text text-anchor="middle" x="647" y="-103.5" font-family="Helvetica,sans-Serif" font-size="10.00">/Framework/Core/src/runDataProcessing.cxx</text>
</a>
</g>
</g>
<!-- Node1&#45;&gt;Node5 -->
<g id="edge4" class="edge"><title>Node1&#45;&gt;Node5</title>
<path fill="none" stroke="midnightblue" d="M1389.16,-202.169C1255.08,-195.365 988.084,-178.515 764,-144 752.483,-142.226 740.407,-139.984 728.566,-137.564"/>
<polygon fill="midnightblue" stroke="midnightblue" points="1389.2,-205.676 1399.37,-202.681 1389.55,-198.685 1389.2,-205.676"/>
</g>
<!-- Node6 -->
<g id="node6" class="node"><title>Node6</title>
<g id="a_node6"><a xlink:href="../../db/d30/test__CallbackService_8cxx.html" target="_top" xlink:title="/home/travis/build\l/AliceO2Group/AliceO2\l/Framework/Core/test/test\l_CallbackService.cxx">
<polygon fill="none" stroke="black" points="772.5,-91 772.5,-143 903.5,-143 903.5,-91 772.5,-91"/>
<text text-anchor="start" x="780.5" y="-131" font-family="Helvetica,sans-Serif" font-size="10.00">/home/travis/build</text>
<text text-anchor="start" x="780.5" y="-120" font-family="Helvetica,sans-Serif" font-size="10.00">/AliceO2Group/AliceO2</text>
<text text-anchor="start" x="780.5" y="-109" font-family="Helvetica,sans-Serif" font-size="10.00">/Framework/Core/test/test</text>
<text text-anchor="middle" x="838" y="-98" font-family="Helvetica,sans-Serif" font-size="10.00">_CallbackService.cxx</text>
</a>
</g>
</g>
<!-- Node1&#45;&gt;Node6 -->
<g id="edge5" class="edge"><title>Node1&#45;&gt;Node6</title>
<path fill="none" stroke="midnightblue" d="M1388.97,-202.489C1277.85,-196.597 1078.98,-181.429 913,-144 909.908,-143.303 906.766,-142.521 903.609,-141.675"/>
<polygon fill="midnightblue" stroke="midnightblue" points="1388.95,-205.993 1399.12,-203.014 1389.31,-199.002 1388.95,-205.993"/>
</g>
<!-- Node7 -->
<g id="node7" class="node"><title>Node7</title>
<g id="a_node7"><a xlink:href="../../df/d3d/test__CustomGUI_8cxx.html" target="_top" xlink:title="/home/travis/build\l/AliceO2Group/AliceO2\l/Framework/Core/test/test\l_CustomGUI.cxx">
<polygon fill="none" stroke="black" points="921.5,-91 921.5,-143 1052.5,-143 1052.5,-91 921.5,-91"/>
<text text-anchor="start" x="929.5" y="-131" font-family="Helvetica,sans-Serif" font-size="10.00">/home/travis/build</text>
<text text-anchor="start" x="929.5" y="-120" font-family="Helvetica,sans-Serif" font-size="10.00">/AliceO2Group/AliceO2</text>
<text text-anchor="start" x="929.5" y="-109" font-family="Helvetica,sans-Serif" font-size="10.00">/Framework/Core/test/test</text>
<text text-anchor="middle" x="987" y="-98" font-family="Helvetica,sans-Serif" font-size="10.00">_CustomGUI.cxx</text>
</a>
</g>
</g>
<!-- Node1&#45;&gt;Node7 -->
<g id="edge6" class="edge"><title>Node1&#45;&gt;Node7</title>
<path fill="none" stroke="midnightblue" d="M1389.17,-197.791C1305.01,-188.649 1173.46,-171.436 1062,-144 1058.92,-143.242 1055.79,-142.411 1052.64,-141.525"/>
<polygon fill="midnightblue" stroke="midnightblue" points="1388.88,-201.28 1399.2,-198.866 1389.63,-194.32 1388.88,-201.28"/>
</g>
<!-- Node8 -->
<g id="node8" class="node"><title>Node8</title>
<g id="a_node8"><a xlink:href="../../dd/d19/test__Services_8cxx.html" target="_top" xlink:title="/home/travis/build\l/AliceO2Group/AliceO2\l/Framework/Core/test/test\l_Services.cxx">
<polygon fill="none" stroke="black" points="1070.5,-91 1070.5,-143 1201.5,-143 1201.5,-91 1070.5,-91"/>
<text text-anchor="start" x="1078.5" y="-131" font-family="Helvetica,sans-Serif" font-size="10.00">/home/travis/build</text>
<text text-anchor="start" x="1078.5" y="-120" font-family="Helvetica,sans-Serif" font-size="10.00">/AliceO2Group/AliceO2</text>
<text text-anchor="start" x="1078.5" y="-109" font-family="Helvetica,sans-Serif" font-size="10.00">/Framework/Core/test/test</text>
<text text-anchor="middle" x="1136" y="-98" font-family="Helvetica,sans-Serif" font-size="10.00">_Services.cxx</text>
</a>
</g>
</g>
<!-- Node1&#45;&gt;Node8 -->
<g id="edge7" class="edge"><title>Node1&#45;&gt;Node8</title>
<path fill="none" stroke="midnightblue" d="M1389.51,-188.265C1337.55,-176.906 1270.05,-161.119 1211,-144 1207.96,-143.117 1204.85,-142.184 1201.73,-141.215"/>
<polygon fill="midnightblue" stroke="midnightblue" points="1388.84,-191.701 1399.36,-190.405 1390.33,-184.861 1388.84,-191.701"/>
</g>
<!-- Node9 -->
<g id="node9" class="node"><title>Node9</title>
<g id="a_node9"><a xlink:href="../../da/d12/test__SimpleStatefulProcessing01_8cxx.html" target="_top" xlink:title="/home/travis/build\l/AliceO2Group/AliceO2\l/Framework/Core/test/test\l_SimpleStatefulProcessing01.cxx">
<polygon fill="none" stroke="black" points="1220,-91 1220,-143 1384,-143 1384,-91 1220,-91"/>
<text text-anchor="start" x="1228" y="-131" font-family="Helvetica,sans-Serif" font-size="10.00">/home/travis/build</text>
<text text-anchor="start" x="1228" y="-120" font-family="Helvetica,sans-Serif" font-size="10.00">/AliceO2Group/AliceO2</text>
<text text-anchor="start" x="1228" y="-109" font-family="Helvetica,sans-Serif" font-size="10.00">/Framework/Core/test/test</text>
<text text-anchor="middle" x="1302" y="-98" font-family="Helvetica,sans-Serif" font-size="10.00">_SimpleStatefulProcessing01.cxx</text>
</a>
</g>
</g>
<!-- Node1&#45;&gt;Node9 -->
<g id="edge8" class="edge"><title>Node1&#45;&gt;Node9</title>
<path fill="none" stroke="midnightblue" d="M1416.23,-176.105C1395.11,-165.36 1371.52,-153.361 1351.28,-143.069"/>
<polygon fill="midnightblue" stroke="midnightblue" points="1414.93,-179.368 1425.43,-180.783 1418.1,-173.129 1414.93,-179.368"/>
</g>
<!-- Node10 -->
<g id="node10" class="node"><title>Node10</title>
<g id="a_node10"><a xlink:href="../../d4/d92/test__SimpleStringProcessing_8cxx.html" target="_top" xlink:title="/home/travis/build\l/AliceO2Group/AliceO2\l/Framework/Core/test/test\l_SimpleStringProcessing.cxx">
<polygon fill="none" stroke="black" points="1402.5,-91 1402.5,-143 1547.5,-143 1547.5,-91 1402.5,-91"/>
<text text-anchor="start" x="1410.5" y="-131" font-family="Helvetica,sans-Serif" font-size="10.00">/home/travis/build</text>
<text text-anchor="start" x="1410.5" y="-120" font-family="Helvetica,sans-Serif" font-size="10.00">/AliceO2Group/AliceO2</text>
<text text-anchor="start" x="1410.5" y="-109" font-family="Helvetica,sans-Serif" font-size="10.00">/Framework/Core/test/test</text>
<text text-anchor="middle" x="1475" y="-98" font-family="Helvetica,sans-Serif" font-size="10.00">_SimpleStringProcessing.cxx</text>
</a>
</g>
</g>
<!-- Node1&#45;&gt;Node10 -->
<g id="edge9" class="edge"><title>Node1&#45;&gt;Node10</title>
<path fill="none" stroke="midnightblue" d="M1475,-170.489C1475,-161.309 1475,-151.616 1475,-143.092"/>
<polygon fill="midnightblue" stroke="midnightblue" points="1471.5,-170.547 1475,-180.547 1478.5,-170.547 1471.5,-170.547"/>
</g>
<!-- Node11 -->
<g id="node11" class="node"><title>Node11</title>
<g id="a_node11"><a xlink:href="../../d5/dc8/MakeRootTreeWriterSpec_8h.html" target="_top" xlink:title="Configurable generator for RootTreeWriter processor spec. ">
<polygon fill="none" stroke="black" points="1566,-91 1566,-143 1730,-143 1730,-91 1566,-91"/>
<text text-anchor="start" x="1574" y="-131" font-family="Helvetica,sans-Serif" font-size="10.00">/home/travis/build</text>
<text text-anchor="start" x="1574" y="-120" font-family="Helvetica,sans-Serif" font-size="10.00">/AliceO2Group/AliceO2</text>
<text text-anchor="start" x="1574" y="-109" font-family="Helvetica,sans-Serif" font-size="10.00">/Framework/Utils/include</text>
<text text-anchor="middle" x="1648" y="-98" font-family="Helvetica,sans-Serif" font-size="10.00">/Utils/MakeRootTreeWriterSpec.h</text>
</a>
</g>
</g>
<!-- Node1&#45;&gt;Node11 -->
<g id="edge10" class="edge"><title>Node1&#45;&gt;Node11</title>
<path fill="none" stroke="midnightblue" d="M1533.77,-176.105C1554.89,-165.36 1578.48,-153.361 1598.72,-143.069"/>
<polygon fill="midnightblue" stroke="midnightblue" points="1531.9,-173.129 1524.57,-180.783 1535.07,-179.368 1531.9,-173.129"/>
</g>
<!-- Node13 -->
<g id="node13" class="node"><title>Node13</title>
<g id="a_node13"><a xlink:href="../../d1/d02/test__RootTreeWriterWorkflow_8cxx.html" target="_top" xlink:title="/home/travis/build\l/AliceO2Group/AliceO2\l/Framework/Utils/test\l/test_RootTreeWriterWorkflow.cxx">
<polygon fill="none" stroke="black" points="1674,-1 1674,-53 1842,-53 1842,-1 1674,-1"/>
<text text-anchor="start" x="1682" y="-41" font-family="Helvetica,sans-Serif" font-size="10.00">/home/travis/build</text>
<text text-anchor="start" x="1682" y="-30" font-family="Helvetica,sans-Serif" font-size="10.00">/AliceO2Group/AliceO2</text>
<text text-anchor="start" x="1682" y="-19" font-family="Helvetica,sans-Serif" font-size="10.00">/Framework/Utils/test</text>
<text text-anchor="middle" x="1758" y="-8" font-family="Helvetica,sans-Serif" font-size="10.00">/test_RootTreeWriterWorkflow.cxx</text>
</a>
</g>
</g>
<!-- Node1&#45;&gt;Node13 -->
<g id="edge13" class="edge"><title>Node1&#45;&gt;Node13</title>
<path fill="none" stroke="midnightblue" d="M1560.84,-196.196C1628.35,-186.667 1714.89,-169.814 1739,-144 1761.7,-119.689 1763.2,-79.3092 1761.29,-53.1788"/>
<polygon fill="midnightblue" stroke="midnightblue" points="1560.04,-192.774 1550.61,-197.605 1560.99,-199.708 1560.04,-192.774"/>
</g>
<!-- Node14 -->
<g id="node14" class="node"><title>Node14</title>
<g id="a_node14"><a xlink:href="../../d9/d87/FITDigitWriterSpec_8cxx.html" target="_top" xlink:title="/home/travis/build\l/AliceO2Group/AliceO2\l/Steer/DigitizerWorkflow\l/src/FITDigitWriterSpec.cxx">
<polygon fill="none" stroke="black" points="1786.5,-91 1786.5,-143 1925.5,-143 1925.5,-91 1786.5,-91"/>
<text text-anchor="start" x="1794.5" y="-131" font-family="Helvetica,sans-Serif" font-size="10.00">/home/travis/build</text>
<text text-anchor="start" x="1794.5" y="-120" font-family="Helvetica,sans-Serif" font-size="10.00">/AliceO2Group/AliceO2</text>
<text text-anchor="start" x="1794.5" y="-109" font-family="Helvetica,sans-Serif" font-size="10.00">/Steer/DigitizerWorkflow</text>
<text text-anchor="middle" x="1856" y="-98" font-family="Helvetica,sans-Serif" font-size="10.00">/src/FITDigitWriterSpec.cxx</text>
</a>
</g>
</g>
<!-- Node1&#45;&gt;Node14 -->
<g id="edge14" class="edge"><title>Node1&#45;&gt;Node14</title>
<path fill="none" stroke="midnightblue" d="M1560.64,-190.343C1620.25,-178.906 1701.37,-162.258 1772,-144 1776.73,-142.777 1781.59,-141.454 1786.47,-140.074"/>
<polygon fill="midnightblue" stroke="midnightblue" points="1559.69,-186.962 1550.52,-192.275 1561,-193.838 1559.69,-186.962"/>
</g>
<!-- Node15 -->
<g id="node15" class="node"><title>Node15</title>
<g id="a_node15"><a xlink:href="../../d9/d59/GRPUpdaterSpec_8cxx.html" target="_top" xlink:title="/home/travis/build\l/AliceO2Group/AliceO2\l/Steer/DigitizerWorkflow\l/src/GRPUpdaterSpec.cxx">
<polygon fill="none" stroke="black" points="1944,-91 1944,-143 2078,-143 2078,-91 1944,-91"/>
<text text-anchor="start" x="1952" y="-131" font-family="Helvetica,sans-Serif" font-size="10.00">/home/travis/build</text>
<text text-anchor="start" x="1952" y="-120" font-family="Helvetica,sans-Serif" font-size="10.00">/AliceO2Group/AliceO2</text>
<text text-anchor="start" x="1952" y="-109" font-family="Helvetica,sans-Serif" font-size="10.00">/Steer/DigitizerWorkflow</text>
<text text-anchor="middle" x="2011" y="-98" font-family="Helvetica,sans-Serif" font-size="10.00">/src/GRPUpdaterSpec.cxx</text>
</a>
</g>
</g>
<!-- Node1&#45;&gt;Node15 -->
<g id="edge15" class="edge"><title>Node1&#45;&gt;Node15</title>
<path fill="none" stroke="midnightblue" d="M1560.72,-199.358C1653.6,-191.02 1805.71,-174.032 1934,-144 1937.16,-143.26 1940.37,-142.444 1943.61,-141.57"/>
<polygon fill="midnightblue" stroke="midnightblue" points="1560.19,-195.892 1550.53,-200.259 1560.8,-202.864 1560.19,-195.892"/>
</g>
<!-- Node16 -->
<g id="node16" class="node"><title>Node16</title>
<g id="a_node16"><a xlink:href="../../df/d17/ITSMFTDigitWriterSpec_8cxx.html" target="_top" xlink:title="/home/travis/build\l/AliceO2Group/AliceO2\l/Steer/DigitizerWorkflow\l/src/ITSMFTDigitWriterSpec.cxx">
<polygon fill="none" stroke="black" points="2096,-91 2096,-143 2256,-143 2256,-91 2096,-91"/>
<text text-anchor="start" x="2104" y="-131" font-family="Helvetica,sans-Serif" font-size="10.00">/home/travis/build</text>
<text text-anchor="start" x="2104" y="-120" font-family="Helvetica,sans-Serif" font-size="10.00">/AliceO2Group/AliceO2</text>
<text text-anchor="start" x="2104" y="-109" font-family="Helvetica,sans-Serif" font-size="10.00">/Steer/DigitizerWorkflow</text>
<text text-anchor="middle" x="2176" y="-98" font-family="Helvetica,sans-Serif" font-size="10.00">/src/ITSMFTDigitWriterSpec.cxx</text>
</a>
</g>
</g>
<!-- Node1&#45;&gt;Node16 -->
<g id="edge16" class="edge"><title>Node1&#45;&gt;Node16</title>
<path fill="none" stroke="midnightblue" d="M1560.69,-202.277C1679.71,-195.985 1901.38,-180.199 2087,-144 2089.84,-143.445 2092.73,-142.84 2095.63,-142.194"/>
<polygon fill="midnightblue" stroke="midnightblue" points="1560.35,-198.79 1550.55,-202.803 1560.72,-205.78 1560.35,-198.79"/>
</g>
<!-- Node17 -->
<g id="node17" class="node"><title>Node17</title>
<g id="a_node17"><a xlink:href="../../d5/d8f/TOFClusterWriterSpec_8cxx.html" target="_top" xlink:title="/home/travis/build\l/AliceO2Group/AliceO2\l/Steer/DigitizerWorkflow\l/src/TOFClusterWriterSpec.cxx">
<polygon fill="none" stroke="black" points="2274.5,-91 2274.5,-143 2429.5,-143 2429.5,-91 2274.5,-91"/>
<text text-anchor="start" x="2282.5" y="-131" font-family="Helvetica,sans-Serif" font-size="10.00">/home/travis/build</text>
<text text-anchor="start" x="2282.5" y="-120" font-family="Helvetica,sans-Serif" font-size="10.00">/AliceO2Group/AliceO2</text>
<text text-anchor="start" x="2282.5" y="-109" font-family="Helvetica,sans-Serif" font-size="10.00">/Steer/DigitizerWorkflow</text>
<text text-anchor="middle" x="2352" y="-98" font-family="Helvetica,sans-Serif" font-size="10.00">/src/TOFClusterWriterSpec.cxx</text>
</a>
</g>
</g>
<!-- Node1&#45;&gt;Node17 -->
<g id="edge17" class="edge"><title>Node1&#45;&gt;Node17</title>
<path fill="none" stroke="midnightblue" d="M1560.8,-205.2C1706.7,-202.521 2011.91,-191.195 2265,-144 2268.1,-143.422 2271.25,-142.776 2274.41,-142.075"/>
<polygon fill="midnightblue" stroke="midnightblue" points="1560.52,-201.704 1550.58,-205.378 1560.64,-208.703 1560.52,-201.704"/>
</g>
<!-- Node18 -->
<g id="node18" class="node"><title>Node18</title>
<g id="a_node18"><a xlink:href="../../d1/d80/TOFDigitWriterSpec_8cxx.html" target="_top" xlink:title="/home/travis/build\l/AliceO2Group/AliceO2\l/Steer/DigitizerWorkflow\l/src/TOFDigitWriterSpec.cxx">
<polygon fill="none" stroke="black" points="2447.5,-91 2447.5,-143 2590.5,-143 2590.5,-91 2447.5,-91"/>
<text text-anchor="start" x="2455.5" y="-131" font-family="Helvetica,sans-Serif" font-size="10.00">/home/travis/build</text>
<text text-anchor="start" x="2455.5" y="-120" font-family="Helvetica,sans-Serif" font-size="10.00">/AliceO2Group/AliceO2</text>
<text text-anchor="start" x="2455.5" y="-109" font-family="Helvetica,sans-Serif" font-size="10.00">/Steer/DigitizerWorkflow</text>
<text text-anchor="middle" x="2519" y="-98" font-family="Helvetica,sans-Serif" font-size="10.00">/src/TOFDigitWriterSpec.cxx</text>
</a>
</g>
</g>
<!-- Node1&#45;&gt;Node18 -->
<g id="edge18" class="edge"><title>Node1&#45;&gt;Node18</title>
<path fill="none" stroke="midnightblue" d="M1560.78,-203.184C1764.16,-196.071 2271.08,-175.661 2438,-144 2441.05,-143.422 2444.14,-142.764 2447.25,-142.043"/>
<polygon fill="midnightblue" stroke="midnightblue" points="1560.61,-199.688 1550.74,-203.533 1560.86,-206.684 1560.61,-199.688"/>
</g>
<!-- Node19 -->
<g id="node19" class="node"><title>Node19</title>
<g id="a_node19"><a xlink:href="../../d8/dd2/TPCDigitRootWriterSpec_8cxx.html" target="_top" xlink:title="/home/travis/build\l/AliceO2Group/AliceO2\l/Steer/DigitizerWorkflow\l/src/TPCDigitRootWriterSpec.cxx">
<polygon fill="none" stroke="black" points="2608.5,-91 2608.5,-143 2773.5,-143 2773.5,-91 2608.5,-91"/>
<text text-anchor="start" x="2616.5" y="-131" font-family="Helvetica,sans-Serif" font-size="10.00">/home/travis/build</text>
<text text-anchor="start" x="2616.5" y="-120" font-family="Helvetica,sans-Serif" font-size="10.00">/AliceO2Group/AliceO2</text>
<text text-anchor="start" x="2616.5" y="-109" font-family="Helvetica,sans-Serif" font-size="10.00">/Steer/DigitizerWorkflow</text>
<text text-anchor="middle" x="2691" y="-98" font-family="Helvetica,sans-Serif" font-size="10.00">/src/TPCDigitRootWriterSpec.cxx</text>
</a>
</g>
</g>
<!-- Node1&#45;&gt;Node19 -->
<g id="edge19" class="edge"><title>Node1&#45;&gt;Node19</title>
<path fill="none" stroke="midnightblue" d="M1561.03,-203.707C1788.05,-197.265 2399.53,-177.268 2599,-144 2602.11,-143.481 2605.27,-142.896 2608.44,-142.258"/>
<polygon fill="midnightblue" stroke="midnightblue" points="1560.73,-200.214 1550.84,-203.995 1560.93,-207.212 1560.73,-200.214"/>
</g>
<!-- Node12 -->
<g id="node12" class="node"><title>Node12</title>
<g id="a_node12"><a xlink:href="../../da/dcf/test__RootTreeWriter_8cxx.html" target="_top" xlink:title="/home/travis/build\l/AliceO2Group/AliceO2\l/Framework/Utils/test\l/test_RootTreeWriter.cxx">
<polygon fill="none" stroke="black" points="1528.5,-1 1528.5,-53 1655.5,-53 1655.5,-1 1528.5,-1"/>
<text text-anchor="start" x="1536.5" y="-41" font-family="Helvetica,sans-Serif" font-size="10.00">/home/travis/build</text>
<text text-anchor="start" x="1536.5" y="-30" font-family="Helvetica,sans-Serif" font-size="10.00">/AliceO2Group/AliceO2</text>
<text text-anchor="start" x="1536.5" y="-19" font-family="Helvetica,sans-Serif" font-size="10.00">/Framework/Utils/test</text>
<text text-anchor="middle" x="1592" y="-8" font-family="Helvetica,sans-Serif" font-size="10.00">/test_RootTreeWriter.cxx</text>
</a>
</g>
</g>
<!-- Node11&#45;&gt;Node12 -->
<g id="edge11" class="edge"><title>Node11&#45;&gt;Node12</title>
<path fill="none" stroke="midnightblue" d="M1626.34,-81.9652C1620.23,-72.3545 1613.68,-62.0742 1607.97,-53.0921"/>
<polygon fill="midnightblue" stroke="midnightblue" points="1623.48,-83.9892 1631.8,-90.5468 1629.39,-80.231 1623.48,-83.9892"/>
</g>
<!-- Node11&#45;&gt;Node13 -->
<g id="edge12" class="edge"><title>Node11&#45;&gt;Node13</title>
<path fill="none" stroke="midnightblue" d="M1687.33,-84.5335C1700.18,-74.2542 1714.28,-62.9791 1726.47,-53.221"/>
<polygon fill="midnightblue" stroke="midnightblue" points="1685.14,-81.8027 1679.52,-90.7827 1689.52,-87.2688 1685.14,-81.8027"/>
</g>
</g>
</svg>
