<?xml version="1.0" encoding="UTF-8" standalone="no"?>
<!DOCTYPE svg PUBLIC "-//W3C//DTD SVG 1.1//EN"
 "http://www.w3.org/Graphics/SVG/1.1/DTD/svg11.dtd">
<!-- Generated by graphviz version 2.36.0 (20140111.2315)
 -->
<!-- Title: /home/travis/build/AliceO2Group/AliceO2/Detectors/FIT/simulation/src/Digitizer.cxx Pages: 1 -->
<!--zoomable 446 -->
<svg id="main" version="1.1" xmlns="http://www.w3.org/2000/svg" xmlns:xlink="http://www.w3.org/1999/xlink" xml:space="preserve" onload="init(evt)">
<style type="text/css"><![CDATA[
.edge:hover path { stroke: red; }
.edge:hover polygon { stroke: red; fill: red; }
]]></style>
<script type="text/javascript"><![CDATA[
var edges = document.getElementsByTagName('g');
if (edges && edges.length) {
  for (var i=0;i<edges.length;i++) {
    if (edges[i].id.substr(0,4)=='edge') {
      edges[i].setAttribute('class','edge');
    }
  }
}
]]></script>
        <defs>
                <circle id="rim" cx="0" cy="0" r="7"/>
                <circle id="rim2" cx="0" cy="0" r="3.5"/>
                <g id="zoomPlus">
                        <use xlink:href="#rim" fill="#404040">
                                <set attributeName="fill" to="#808080" begin="zoomplus.mouseover" end="zoomplus.mouseout"/>
                        </use>
                        <path d="M-4,0h8M0,-4v8" fill="none" stroke="white" stroke-width="1.5" pointer-events="none"/>
                </g>
                <g id="zoomMin">
                        <use xlink:href="#rim" fill="#404040">
                                <set attributeName="fill" to="#808080" begin="zoomminus.mouseover" end="zoomminus.mouseout"/>
                        </use>
                        <path d="M-4,0h8" fill="none" stroke="white" stroke-width="1.5" pointer-events="none"/>
                </g>
                <g id="dirArrow">
                        <path fill="none" stroke="white" stroke-width="1.5" d="M0,-3.0v7 M-2.5,-0.5L0,-3.0L2.5,-0.5"/>
                </g>
               <g id="resetDef">
                       <use xlink:href="#rim2" fill="#404040">
                               <set attributeName="fill" to="#808080" begin="reset.mouseover" end="reset.mouseout"/>
                       </use>
               </g>
        </defs>

<script type="text/javascript">
var viewWidth = 2471;
var viewHeight = 446;
var sectionId = 'dynsection-0';
</script>
<script xlink:href="../../svgpan.js"/>
<svg id="graph" class="graph">
<g id="viewport">
<title>/home/travis/build/AliceO2Group/AliceO2/Detectors/FIT/simulation/src/Digitizer.cxx</title>
<!-- Node1 -->
<g id="node1" class="node"><title>Node1</title>
<polygon fill="#bfbfbf" stroke="black" points="1127,-385 1127,-437 1255,-437 1255,-385 1127,-385"/>
<text text-anchor="start" x="1135" y="-425" font-family="Helvetica,sans-Serif" font-size="10.00">/home/travis/build</text>
<text text-anchor="start" x="1135" y="-414" font-family="Helvetica,sans-Serif" font-size="10.00">/AliceO2Group/AliceO2</text>
<text text-anchor="start" x="1135" y="-403" font-family="Helvetica,sans-Serif" font-size="10.00">/Detectors/FIT/simulation</text>
<text text-anchor="middle" x="1191" y="-392" font-family="Helvetica,sans-Serif" font-size="10.00">/src/Digitizer.cxx</text>
</g>
<!-- Node2 -->
<g id="node2" class="node"><title>Node2</title>
<g id="a_node2"><a xlink:href="../../d3/da0/FIT_2simulation_2include_2FITSimulation_2Digitizer_8h.html" target="_top" xlink:title="FITSimulation/Digitizer.h">
<polygon fill="none" stroke="black" points="884.5,-328.5 884.5,-347.5 1009.5,-347.5 1009.5,-328.5 884.5,-328.5"/>
<text text-anchor="middle" x="947" y="-335.5" font-family="Helvetica,sans-Serif" font-size="10.00">FITSimulation/Digitizer.h</text>
</a>
</g>
</g>
<!-- Node1&#45;&gt;Node2 -->
<g id="edge1" class="edge"><title>Node1&#45;&gt;Node2</title>
<path fill="none" stroke="midnightblue" d="M1126.89,-391.346C1082.17,-378.334 1023.95,-361.391 986.036,-350.359"/>
<polygon fill="midnightblue" stroke="midnightblue" points="986.962,-346.983 976.383,-347.55 985.007,-353.705 986.962,-346.983"/>
</g>
<!-- Node38 -->
<g id="node38" class="node"><title>Node38</title>
<g id="a_node38"><a xlink:href="../../db/d14/MCTruthContainer_8h.html" target="_top" xlink:title="Definition of a container to keep Monte Carlo truth external to simulation objects. ">
<polygon fill="none" stroke="black" points="635,-261 635,-291 749,-291 749,-261 635,-261"/>
<text text-anchor="start" x="643" y="-279" font-family="Helvetica,sans-Serif" font-size="10.00">SimulationDataFormat</text>
<text text-anchor="middle" x="692" y="-268" font-family="Helvetica,sans-Serif" font-size="10.00">/MCTruthContainer.h</text>
</a>
</g>
</g>
<!-- Node1&#45;&gt;Node38 -->
<g id="edge56" class="edge"><title>Node1&#45;&gt;Node38</title>
<path fill="none" stroke="midnightblue" d="M1126.92,-405.627C1052.23,-399.076 925.91,-383.455 823,-348 786.026,-335.261 747.037,-312.808 721.307,-296.556"/>
<polygon fill="midnightblue" stroke="midnightblue" points="723.092,-293.543 712.784,-291.093 719.314,-299.436 723.092,-293.543"/>
</g>
<!-- Node40 -->
<g id="node40" class="node"><title>Node40</title>
<polygon fill="none" stroke="#bfbfbf" points="667.5,-198.5 667.5,-217.5 716.5,-217.5 716.5,-198.5 667.5,-198.5"/>
<text text-anchor="middle" x="692" y="-205.5" font-family="Helvetica,sans-Serif" font-size="10.00">cassert</text>
</g>
<!-- Node1&#45;&gt;Node40 -->
<g id="edge64" class="edge"><title>Node1&#45;&gt;Node40</title>
<path fill="none" stroke="midnightblue" d="M1126.98,-405.971C1061.26,-399.911 957.254,-384.897 875,-348 870.362,-345.919 757.062,-259.006 711.103,-223.69"/>
<polygon fill="midnightblue" stroke="midnightblue" points="713.165,-220.86 703.104,-217.541 708.899,-226.41 713.165,-220.86"/>
</g>
<!-- Node44 -->
<g id="node44" class="node"><title>Node44</title>
<g id="a_node44"><a xlink:href="../../d4/d6a/FIT_2simulation_2include_2FITSimulation_2MCLabel_8h.html" target="_top" xlink:title="FITSimulation/MCLabel.h">
<polygon fill="none" stroke="black" points="1120,-266.5 1120,-285.5 1248,-285.5 1248,-266.5 1120,-266.5"/>
<text text-anchor="middle" x="1184" y="-273.5" font-family="Helvetica,sans-Serif" font-size="10.00">FITSimulation/MCLabel.h</text>
</a>
</g>
</g>
<!-- Node1&#45;&gt;Node44 -->
<g id="edge55" class="edge"><title>Node1&#45;&gt;Node44</title>
<path fill="none" stroke="midnightblue" d="M1126.88,-396.422C1100.54,-387.346 1072.6,-372.406 1057,-348 1037.16,-316.966 1081.12,-298.251 1122.64,-287.889"/>
<polygon fill="midnightblue" stroke="midnightblue" points="1123.62,-291.256 1132.55,-285.556 1122.01,-284.442 1123.62,-291.256"/>
</g>
<!-- Node45 -->
<g id="node45" class="node"><title>Node45</title>
<polygon fill="none" stroke="#bfbfbf" points="1066.5,-328.5 1066.5,-347.5 1113.5,-347.5 1113.5,-328.5 1066.5,-328.5"/>
<text text-anchor="middle" x="1090" y="-335.5" font-family="Helvetica,sans-Serif" font-size="10.00">TFile.h</text>
</g>
<!-- Node1&#45;&gt;Node45 -->
<g id="edge57" class="edge"><title>Node1&#45;&gt;Node45</title>
<path fill="none" stroke="midnightblue" d="M1155.39,-384.968C1140.44,-374.458 1123.58,-362.603 1110.72,-353.565"/>
<polygon fill="midnightblue" stroke="midnightblue" points="1112.73,-350.697 1102.53,-347.81 1108.7,-356.424 1112.73,-350.697"/>
</g>
<!-- Node46 -->
<g id="node46" class="node"><title>Node46</title>
<polygon fill="none" stroke="#bfbfbf" points="1132,-328.5 1132,-347.5 1182,-347.5 1182,-328.5 1132,-328.5"/>
<text text-anchor="middle" x="1157" y="-335.5" font-family="Helvetica,sans-Serif" font-size="10.00">TH1F.h</text>
</g>
<!-- Node1&#45;&gt;Node46 -->
<g id="edge58" class="edge"><title>Node1&#45;&gt;Node46</title>
<path fill="none" stroke="midnightblue" d="M1178.92,-384.768C1174.52,-375.587 1169.64,-365.403 1165.61,-356.978"/>
<polygon fill="midnightblue" stroke="midnightblue" points="1168.67,-355.265 1161.19,-347.757 1162.36,-358.288 1168.67,-355.265"/>
</g>
<!-- Node47 -->
<g id="node47" class="node"><title>Node47</title>
<polygon fill="none" stroke="#bfbfbf" points="1200,-328.5 1200,-347.5 1250,-347.5 1250,-328.5 1200,-328.5"/>
<text text-anchor="middle" x="1225" y="-335.5" font-family="Helvetica,sans-Serif" font-size="10.00">TH2F.h</text>
</g>
<!-- Node1&#45;&gt;Node47 -->
<g id="edge59" class="edge"><title>Node1&#45;&gt;Node47</title>
<path fill="none" stroke="midnightblue" d="M1203.08,-384.768C1207.48,-375.587 1212.36,-365.403 1216.39,-356.978"/>
<polygon fill="midnightblue" stroke="midnightblue" points="1219.64,-358.288 1220.81,-347.757 1213.33,-355.265 1219.64,-358.288"/>
</g>
<!-- Node48 -->
<g id="node48" class="node"><title>Node48</title>
<polygon fill="none" stroke="#bfbfbf" points="1268,-328.5 1268,-347.5 1318,-347.5 1318,-328.5 1268,-328.5"/>
<text text-anchor="middle" x="1293" y="-335.5" font-family="Helvetica,sans-Serif" font-size="10.00">TLeaf.h</text>
</g>
<!-- Node1&#45;&gt;Node48 -->
<g id="edge60" class="edge"><title>Node1&#45;&gt;Node48</title>
<path fill="none" stroke="midnightblue" d="M1226.96,-384.968C1242.06,-374.458 1259.09,-362.603 1272.07,-353.565"/>
<polygon fill="midnightblue" stroke="midnightblue" points="1274.14,-356.395 1280.34,-347.81 1270.14,-350.65 1274.14,-356.395"/>
</g>
<!-- Node49 -->
<g id="node49" class="node"><title>Node49</title>
<polygon fill="none" stroke="#bfbfbf" points="1336.5,-328.5 1336.5,-347.5 1389.5,-347.5 1389.5,-328.5 1336.5,-328.5"/>
<text text-anchor="middle" x="1363" y="-335.5" font-family="Helvetica,sans-Serif" font-size="10.00">TMath.h</text>
</g>
<!-- Node1&#45;&gt;Node49 -->
<g id="edge61" class="edge"><title>Node1&#45;&gt;Node49</title>
<path fill="none" stroke="midnightblue" d="M1251.64,-384.968C1279.11,-373.63 1310.36,-360.728 1332.75,-351.485"/>
<polygon fill="midnightblue" stroke="midnightblue" points="1334.16,-354.69 1342.07,-347.639 1331.49,-348.219 1334.16,-354.69"/>
</g>
<!-- Node50 -->
<g id="node50" class="node"><title>Node50</title>
<polygon fill="none" stroke="#bfbfbf" points="1408,-328.5 1408,-347.5 1476,-347.5 1476,-328.5 1408,-328.5"/>
<text text-anchor="middle" x="1442" y="-335.5" font-family="Helvetica,sans-Serif" font-size="10.00">TRandom.h</text>
</g>
<!-- Node1&#45;&gt;Node50 -->
<g id="edge62" class="edge"><title>Node1&#45;&gt;Node50</title>
<path fill="none" stroke="midnightblue" d="M1255.31,-391.808C1301.54,-378.73 1362.44,-361.504 1401.91,-350.341"/>
<polygon fill="midnightblue" stroke="midnightblue" points="1403.03,-353.66 1411.7,-347.571 1401.13,-346.925 1403.03,-353.66"/>
</g>
<!-- Node51 -->
<g id="node51" class="node"><title>Node51</title>
<polygon fill="none" stroke="#bfbfbf" points="1494,-328.5 1494,-347.5 1550,-347.5 1550,-328.5 1494,-328.5"/>
<text text-anchor="middle" x="1522" y="-335.5" font-family="Helvetica,sans-Serif" font-size="10.00">algorithm</text>
</g>
<!-- Node1&#45;&gt;Node51 -->
<g id="edge63" class="edge"><title>Node1&#45;&gt;Node51</title>
<path fill="none" stroke="midnightblue" d="M1255.07,-397.08C1312.5,-385.365 1399.29,-367.328 1483.96,-348.187"/>
<polygon fill="midnightblue" stroke="midnightblue" points="1484.76,-351.594 1493.74,-345.969 1483.21,-344.768 1484.76,-351.594"/>
</g>
<!-- Node52 -->
<g id="node52" class="node"><title>Node52</title>
<polygon fill="none" stroke="#bfbfbf" points="1568,-328.5 1568,-347.5 1622,-347.5 1622,-328.5 1568,-328.5"/>
<text text-anchor="middle" x="1595" y="-335.5" font-family="Helvetica,sans-Serif" font-size="10.00">iostream</text>
</g>
<!-- Node1&#45;&gt;Node52 -->
<g id="edge65" class="edge"><title>Node1&#45;&gt;Node52</title>
<path fill="none" stroke="midnightblue" d="M1255.23,-400.568C1328.7,-389.451 1452.46,-369.722 1558,-348 1558.1,-347.979 1558.2,-347.958 1558.3,-347.937"/>
<polygon fill="midnightblue" stroke="midnightblue" points="1558.96,-351.377 1567.97,-345.81 1557.45,-344.541 1558.96,-351.377"/>
</g>
<!-- Node3 -->
<g id="node3" class="node"><title>Node3</title>
<g id="a_node3"><a xlink:href="../../d1/dde/FIT_2base_2include_2FITBase_2Digit_8h.html" target="_top" xlink:title="FITBase/Digit.h">
<polygon fill="none" stroke="black" points="867,-198.5 867,-217.5 953,-217.5 953,-198.5 867,-198.5"/>
<text text-anchor="middle" x="910" y="-205.5" font-family="Helvetica,sans-Serif" font-size="10.00">FITBase/Digit.h</text>
</a>
</g>
</g>
<!-- Node2&#45;&gt;Node3 -->
<g id="edge2" class="edge"><title>Node2&#45;&gt;Node3</title>
<path fill="none" stroke="midnightblue" d="M942.998,-328.183C939.042,-319.216 933.014,-304.851 929,-292 922.267,-270.447 916.805,-245.064 913.493,-228.095"/>
<polygon fill="midnightblue" stroke="midnightblue" points="916.852,-227.019 911.556,-217.843 909.974,-228.319 916.852,-227.019"/>
</g>
<!-- Node7 -->
<g id="node7" class="node"><title>Node7</title>
<g id="a_node7"><a xlink:href="../../de/d6b/FIT_2simulation_2include_2FITSimulation_2Detector_8h.html" target="_top" xlink:title="FITSimulation/Detector.h">
<polygon fill="none" stroke="black" points="938,-266.5 938,-285.5 1064,-285.5 1064,-266.5 938,-266.5"/>
<text text-anchor="middle" x="1001" y="-273.5" font-family="Helvetica,sans-Serif" font-size="10.00">FITSimulation/Detector.h</text>
</a>
</g>
</g>
<!-- Node2&#45;&gt;Node7 -->
<g id="edge7" class="edge"><title>Node2&#45;&gt;Node7</title>
<path fill="none" stroke="midnightblue" d="M954.737,-328.403C962.997,-319.225 976.277,-304.47 986.494,-293.117"/>
<polygon fill="midnightblue" stroke="midnightblue" points="989.189,-295.355 993.277,-285.581 983.986,-290.672 989.189,-295.355"/>
</g>
<!-- Node2&#45;&gt;Node38 -->
<g id="edge45" class="edge"><title>Node2&#45;&gt;Node38</title>
<path fill="none" stroke="midnightblue" d="M910.736,-328.467C871.372,-319.205 807.644,-304.21 759.103,-292.789"/>
<polygon fill="midnightblue" stroke="midnightblue" points="759.836,-289.366 749.3,-290.482 758.233,-296.18 759.836,-289.366"/>
</g>
<!-- Node43 -->
<g id="node43" class="node"><title>Node43</title>
<g id="a_node43"><a xlink:href="../../d7/dcd/MCCompLabel_8h.html" target="_top" xlink:title="SimulationDataFormat\l/MCCompLabel.h">
<polygon fill="none" stroke="black" points="1135,-193 1135,-223 1249,-223 1249,-193 1135,-193"/>
<text text-anchor="start" x="1143" y="-211" font-family="Helvetica,sans-Serif" font-size="10.00">SimulationDataFormat</text>
<text text-anchor="middle" x="1192" y="-200" font-family="Helvetica,sans-Serif" font-size="10.00">/MCCompLabel.h</text>
</a>
</g>
</g>
<!-- Node2&#45;&gt;Node43 -->
<g id="edge51" class="edge"><title>Node2&#45;&gt;Node43</title>
<path fill="none" stroke="midnightblue" d="M980.781,-328.496C1007,-321.071 1043.69,-308.836 1073,-292 1092.15,-281.001 1093.17,-273.024 1111,-260 1126.22,-248.879 1143.86,-237.598 1158.79,-228.484"/>
<polygon fill="midnightblue" stroke="midnightblue" points="1160.93,-231.277 1167.68,-223.11 1157.31,-225.285 1160.93,-231.277"/>
</g>
<!-- Node2&#45;&gt;Node44 -->
<g id="edge53" class="edge"><title>Node2&#45;&gt;Node44</title>
<path fill="none" stroke="midnightblue" d="M980.705,-328.467C1022.73,-317.827 1094.64,-299.622 1140.71,-287.959"/>
<polygon fill="midnightblue" stroke="midnightblue" points="1141.58,-291.351 1150.41,-285.503 1139.86,-284.565 1141.58,-291.351"/>
</g>
<!-- Node4 -->
<g id="node4" class="node"><title>Node4</title>
<g id="a_node4"><a xlink:href="../../df/d5d/common_2include_2CommonDataFormat_2TimeStamp_8h.html" target="_top" xlink:title="CommonDataFormat/TimeStamp.h">
<polygon fill="none" stroke="black" points="754,-136.5 754,-155.5 924,-155.5 924,-136.5 754,-136.5"/>
<text text-anchor="middle" x="839" y="-143.5" font-family="Helvetica,sans-Serif" font-size="10.00">CommonDataFormat/TimeStamp.h</text>
</a>
</g>
</g>
<!-- Node3&#45;&gt;Node4 -->
<g id="edge3" class="edge"><title>Node3&#45;&gt;Node4</title>
<path fill="none" stroke="midnightblue" d="M899.827,-198.403C888.65,-188.958 870.483,-173.606 856.909,-162.134"/>
<polygon fill="midnightblue" stroke="midnightblue" points="859.051,-159.362 849.154,-155.581 854.533,-164.709 859.051,-159.362"/>
</g>
<!-- Node5 -->
<g id="node5" class="node"><title>Node5</title>
<polygon fill="none" stroke="#bfbfbf" points="1183,-74.5 1183,-93.5 1239,-93.5 1239,-74.5 1183,-74.5"/>
<text text-anchor="middle" x="1211" y="-81.5" font-family="Helvetica,sans-Serif" font-size="10.00">Rtypes.h</text>
</g>
<!-- Node3&#45;&gt;Node5 -->
<g id="edge6" class="edge"><title>Node3&#45;&gt;Node5</title>
<path fill="none" stroke="midnightblue" d="M918.14,-198.471C933.066,-183.373 966.464,-152.025 1001,-136 1071.85,-103.127 1098.19,-122.419 1173,-100 1175.8,-99.1602 1178.69,-98.2016 1181.56,-97.1842"/>
<polygon fill="midnightblue" stroke="midnightblue" points="1182.98,-100.387 1191.11,-93.5865 1180.52,-93.8367 1182.98,-100.387"/>
</g>
<!-- Node6 -->
<g id="node6" class="node"><title>Node6</title>
<polygon fill="none" stroke="#bfbfbf" points="-0.5,-74.5 -0.5,-93.5 44.5,-93.5 44.5,-74.5 -0.5,-74.5"/>
<text text-anchor="middle" x="22" y="-81.5" font-family="Helvetica,sans-Serif" font-size="10.00">iosfwd</text>
</g>
<!-- Node3&#45;&gt;Node6 -->
<g id="edge5" class="edge"><title>Node3&#45;&gt;Node6</title>
<path fill="none" stroke="midnightblue" d="M883.49,-198.428C875.379,-196.056 866.384,-193.676 858,-192 504.881,-121.406 398.86,-200.288 53,-100 50.8071,-99.3641 48.5787,-98.5842 46.3741,-97.7173"/>
<polygon fill="midnightblue" stroke="midnightblue" points="47.6028,-94.4327 37.0459,-93.5377 44.7405,-100.821 47.6028,-94.4327"/>
</g>
<!-- Node4&#45;&gt;Node5 -->
<g id="edge4" class="edge"><title>Node4&#45;&gt;Node5</title>
<path fill="none" stroke="midnightblue" d="M919.036,-136.472C1002.18,-127.211 1126.5,-112.118 1173,-100 1176.06,-99.2029 1179.2,-98.2288 1182.31,-97.1635"/>
<polygon fill="midnightblue" stroke="midnightblue" points="1183.83,-100.334 1191.97,-93.5546 1181.38,-93.7766 1183.83,-100.334"/>
</g>
<!-- Node8 -->
<g id="node8" class="node"><title>Node8</title>
<g id="a_node8"><a xlink:href="../../d4/d25/BaseHits_8h.html" target="_top" xlink:title="SimulationDataFormat\l/BaseHits.h">
<polygon fill="none" stroke="black" points="735,-193 735,-223 849,-223 849,-193 735,-193"/>
<text text-anchor="start" x="743" y="-211" font-family="Helvetica,sans-Serif" font-size="10.00">SimulationDataFormat</text>
<text text-anchor="middle" x="792" y="-200" font-family="Helvetica,sans-Serif" font-size="10.00">/BaseHits.h</text>
</a>
</g>
</g>
<!-- Node7&#45;&gt;Node8 -->
<g id="edge8" class="edge"><title>Node7&#45;&gt;Node8</title>
<path fill="none" stroke="midnightblue" d="M973.677,-266.372C941.41,-256.182 886.961,-238.988 846.067,-226.074"/>
<polygon fill="midnightblue" stroke="midnightblue" points="847.101,-222.73 836.511,-223.056 844.993,-229.405 847.101,-222.73"/>
</g>
<!-- Node19 -->
<g id="node19" class="node"><title>Node19</title>
<g id="a_node19"><a xlink:href="../../d1/d3a/Base_2include_2DetectorsBase_2Detector_8h.html" target="_top" xlink:title="DetectorsBase/Detector.h">
<polygon fill="none" stroke="black" points="1679.5,-198.5 1679.5,-217.5 1810.5,-217.5 1810.5,-198.5 1679.5,-198.5"/>
<text text-anchor="middle" x="1745" y="-205.5" font-family="Helvetica,sans-Serif" font-size="10.00">DetectorsBase/Detector.h</text>
</a>
</g>
</g>
<!-- Node7&#45;&gt;Node19 -->
<g id="edge21" class="edge"><title>Node7&#45;&gt;Node19</title>
<path fill="none" stroke="midnightblue" d="M1058.87,-266.498C1075.66,-264.196 1094.04,-261.837 1111,-260 1312.08,-238.219 1549.97,-221.499 1669.07,-213.747"/>
<polygon fill="midnightblue" stroke="midnightblue" points="1669.42,-217.231 1679.17,-213.092 1668.97,-210.246 1669.42,-217.231"/>
</g>
<!-- Node36 -->
<g id="node36" class="node"><title>Node36</title>
<g id="a_node36"><a xlink:href="../../d1/db1/FIT_2base_2include_2FITBase_2Geometry_8h.html" target="_top" xlink:title="FITBase/Geometry.h">
<polygon fill="none" stroke="black" points="1009,-198.5 1009,-217.5 1117,-217.5 1117,-198.5 1009,-198.5"/>
<text text-anchor="middle" x="1063" y="-205.5" font-family="Helvetica,sans-Serif" font-size="10.00">FITBase/Geometry.h</text>
</a>
</g>
</g>
<!-- Node7&#45;&gt;Node36 -->
<g id="edge42" class="edge"><title>Node7&#45;&gt;Node36</title>
<path fill="none" stroke="midnightblue" d="M1009.11,-266.372C1018.89,-255.955 1035.55,-238.217 1047.77,-225.216"/>
<polygon fill="midnightblue" stroke="midnightblue" points="1050.4,-227.526 1054.69,-217.841 1045.3,-222.733 1050.4,-227.526"/>
</g>
<!-- Node9 -->
<g id="node9" class="node"><title>Node9</title>
<g id="a_node9"><a xlink:href="../../dd/d76/Cartesian3D_8h.html" target="_top" xlink:title="MathUtils/Cartesian3D.h">
<polygon fill="none" stroke="black" points="583.5,-136.5 583.5,-155.5 708.5,-155.5 708.5,-136.5 583.5,-136.5"/>
<text text-anchor="middle" x="646" y="-143.5" font-family="Helvetica,sans-Serif" font-size="10.00">MathUtils/Cartesian3D.h</text>
</a>
</g>
</g>
<!-- Node8&#45;&gt;Node9 -->
<g id="edge9" class="edge"><title>Node8&#45;&gt;Node9</title>
<path fill="none" stroke="midnightblue" d="M757.769,-192.933C733.138,-182.81 700.21,-169.278 676.482,-159.527"/>
<polygon fill="midnightblue" stroke="midnightblue" points="677.507,-156.164 666.927,-155.6 674.846,-162.639 677.507,-156.164"/>
</g>
<!-- Node9&#45;&gt;Node5 -->
<g id="edge15" class="edge"><title>Node9&#45;&gt;Node5</title>
<path fill="none" stroke="midnightblue" d="M708.576,-139.247C720.66,-138.154 733.223,-137.031 745,-136 935.167,-119.359 987.13,-143.508 1173,-100 1176.25,-99.2402 1179.58,-98.2538 1182.86,-97.1497"/>
<polygon fill="midnightblue" stroke="midnightblue" points="1184.26,-100.365 1192.41,-93.5925 1181.81,-93.8054 1184.26,-100.365"/>
</g>
<!-- Node9&#45;&gt;Node6 -->
<g id="edge17" class="edge"><title>Node9&#45;&gt;Node6</title>
<path fill="none" stroke="midnightblue" d="M583.176,-143.196C451.698,-138.938 151.57,-126.56 53,-100 50.6619,-99.37 48.2878,-98.5639 45.9475,-97.6532"/>
<polygon fill="midnightblue" stroke="midnightblue" points="47.2534,-94.4031 36.6968,-93.5039 44.3886,-100.79 47.2534,-94.4031"/>
</g>
<!-- Node10 -->
<g id="node10" class="node"><title>Node10</title>
<polygon fill="none" stroke="#bfbfbf" points="819.5,-69 819.5,-99 970.5,-99 970.5,-69 819.5,-69"/>
<text text-anchor="start" x="827.5" y="-87" font-family="Helvetica,sans-Serif" font-size="10.00">Math/GenVector/Displacement</text>
<text text-anchor="middle" x="895" y="-76" font-family="Helvetica,sans-Serif" font-size="10.00">Vector3D.h</text>
</g>
<!-- Node9&#45;&gt;Node10 -->
<g id="edge10" class="edge"><title>Node9&#45;&gt;Node10</title>
<path fill="none" stroke="midnightblue" d="M681.411,-136.467C719.142,-127.376 779.796,-112.76 826.845,-101.423"/>
<polygon fill="midnightblue" stroke="midnightblue" points="827.764,-104.802 836.665,-99.0565 826.124,-97.9966 827.764,-104.802"/>
</g>
<!-- Node11 -->
<g id="node11" class="node"><title>Node11</title>
<polygon fill="none" stroke="#bfbfbf" points="989,-74.5 989,-93.5 1165,-93.5 1165,-74.5 989,-74.5"/>
<text text-anchor="middle" x="1077" y="-81.5" font-family="Helvetica,sans-Serif" font-size="10.00">Math/GenVector/PositionVector3D.h</text>
</g>
<!-- Node9&#45;&gt;Node11 -->
<g id="edge11" class="edge"><title>Node9&#45;&gt;Node11</title>
<path fill="none" stroke="midnightblue" d="M708.647,-136.868C775.615,-128.097 884.881,-113.561 979,-100 989.826,-98.4401 1001.32,-96.7304 1012.47,-95.0413"/>
<polygon fill="midnightblue" stroke="midnightblue" points="1013.24,-98.4654 1022.6,-93.5008 1012.18,-91.545 1013.24,-98.4654"/>
</g>
<!-- Node12 -->
<g id="node12" class="node"><title>Node12</title>
<polygon fill="none" stroke="#bfbfbf" points="62.5,-74.5 62.5,-93.5 211.5,-93.5 211.5,-74.5 62.5,-74.5"/>
<text text-anchor="middle" x="137" y="-81.5" font-family="Helvetica,sans-Serif" font-size="10.00">Math/GenVector/Rotation3D.h</text>
</g>
<!-- Node9&#45;&gt;Node12 -->
<g id="edge12" class="edge"><title>Node9&#45;&gt;Node12</title>
<path fill="none" stroke="midnightblue" d="M583.178,-139.758C500.089,-132.502 349.187,-118.208 221,-100 211.421,-98.6393 201.262,-96.9966 191.442,-95.3043"/>
<polygon fill="midnightblue" stroke="midnightblue" points="191.826,-91.8182 181.371,-93.5326 190.613,-98.7123 191.826,-91.8182"/>
</g>
<!-- Node13 -->
<g id="node13" class="node"><title>Node13</title>
<polygon fill="none" stroke="#bfbfbf" points="230,-74.5 230,-93.5 386,-93.5 386,-74.5 230,-74.5"/>
<text text-anchor="middle" x="308" y="-81.5" font-family="Helvetica,sans-Serif" font-size="10.00">Math/GenVector/Transform3D.h</text>
</g>
<!-- Node9&#45;&gt;Node13 -->
<g id="edge13" class="edge"><title>Node9&#45;&gt;Node13</title>
<path fill="none" stroke="midnightblue" d="M597.932,-136.467C536.862,-125.626 431.549,-106.932 366.058,-95.3062"/>
<polygon fill="midnightblue" stroke="midnightblue" points="366.36,-91.8052 355.902,-93.5034 365.137,-98.6974 366.36,-91.8052"/>
</g>
<!-- Node14 -->
<g id="node14" class="node"><title>Node14</title>
<polygon fill="none" stroke="#bfbfbf" points="404,-74.5 404,-93.5 564,-93.5 564,-74.5 404,-74.5"/>
<text text-anchor="middle" x="484" y="-81.5" font-family="Helvetica,sans-Serif" font-size="10.00">Math/GenVector/Translation3D.h</text>
</g>
<!-- Node9&#45;&gt;Node14 -->
<g id="edge14" class="edge"><title>Node9&#45;&gt;Node14</title>
<path fill="none" stroke="midnightblue" d="M622.789,-136.403C595.001,-126.111 548.277,-108.806 516.806,-97.1504"/>
<polygon fill="midnightblue" stroke="midnightblue" points="517.761,-93.7717 507.168,-93.5806 515.329,-100.336 517.761,-93.7717"/>
</g>
<!-- Node15 -->
<g id="node15" class="node"><title>Node15</title>
<polygon fill="none" stroke="#bfbfbf" points="582,-74.5 582,-93.5 658,-93.5 658,-74.5 582,-74.5"/>
<text text-anchor="middle" x="620" y="-81.5" font-family="Helvetica,sans-Serif" font-size="10.00">TGeoMatrix.h</text>
</g>
<!-- Node9&#45;&gt;Node15 -->
<g id="edge16" class="edge"><title>Node9&#45;&gt;Node15</title>
<path fill="none" stroke="midnightblue" d="M642.275,-136.403C638.491,-127.671 632.519,-113.889 627.711,-102.794"/>
<polygon fill="midnightblue" stroke="midnightblue" points="630.906,-101.365 623.718,-93.5806 624.483,-104.148 630.906,-101.365"/>
</g>
<!-- Node16 -->
<g id="node16" class="node"><title>Node16</title>
<g id="a_node16"><a xlink:href="../../d2/dd0/Cartesian2D_8h.html" target="_top" xlink:title="MathUtils/Cartesian2D.h">
<polygon fill="none" stroke="black" points="676.5,-74.5 676.5,-93.5 801.5,-93.5 801.5,-74.5 676.5,-74.5"/>
<text text-anchor="middle" x="739" y="-81.5" font-family="Helvetica,sans-Serif" font-size="10.00">MathUtils/Cartesian2D.h</text>
</a>
</g>
</g>
<!-- Node9&#45;&gt;Node16 -->
<g id="edge18" class="edge"><title>Node9&#45;&gt;Node16</title>
<path fill="none" stroke="midnightblue" d="M659.325,-136.403C674.38,-126.691 699.116,-110.732 717.037,-99.1697"/>
<polygon fill="midnightblue" stroke="midnightblue" points="719.195,-101.943 725.7,-93.5806 715.4,-96.0609 719.195,-101.943"/>
</g>
<!-- Node17 -->
<g id="node17" class="node"><title>Node17</title>
<polygon fill="none" stroke="#bfbfbf" points="572.5,-1 572.5,-31 723.5,-31 723.5,-1 572.5,-1"/>
<text text-anchor="start" x="580.5" y="-19" font-family="Helvetica,sans-Serif" font-size="10.00">Math/GenVector/Displacement</text>
<text text-anchor="middle" x="648" y="-8" font-family="Helvetica,sans-Serif" font-size="10.00">Vector2D.h</text>
</g>
<!-- Node16&#45;&gt;Node17 -->
<g id="edge19" class="edge"><title>Node16&#45;&gt;Node17</title>
<path fill="none" stroke="midnightblue" d="M727.103,-74.3717C714.221,-65.0286 693.22,-49.7966 676.093,-37.375"/>
<polygon fill="midnightblue" stroke="midnightblue" points="677.703,-34.2194 667.553,-31.1815 673.593,-39.8859 677.703,-34.2194"/>
</g>
<!-- Node18 -->
<g id="node18" class="node"><title>Node18</title>
<polygon fill="none" stroke="#bfbfbf" points="742,-6.5 742,-25.5 918,-25.5 918,-6.5 742,-6.5"/>
<text text-anchor="middle" x="830" y="-13.5" font-family="Helvetica,sans-Serif" font-size="10.00">Math/GenVector/PositionVector2D.h</text>
</g>
<!-- Node16&#45;&gt;Node18 -->
<g id="edge20" class="edge"><title>Node16&#45;&gt;Node18</title>
<path fill="none" stroke="midnightblue" d="M750.897,-74.3717C765.884,-63.5015 791.862,-44.6602 809.942,-31.5474"/>
<polygon fill="midnightblue" stroke="midnightblue" points="812.06,-34.3349 818.1,-25.6305 807.95,-28.6684 812.06,-34.3349"/>
</g>
<!-- Node19&#45;&gt;Node5 -->
<g id="edge33" class="edge"><title>Node19&#45;&gt;Node5</title>
<path fill="none" stroke="midnightblue" d="M1679.05,-207.713C1560.6,-207.793 1317.74,-202.118 1249,-156 1230.9,-143.86 1220.76,-120.185 1215.59,-103.52"/>
<polygon fill="midnightblue" stroke="midnightblue" points="1218.93,-102.469 1212.88,-93.7732 1212.18,-104.345 1218.93,-102.469"/>
</g>
<!-- Node20 -->
<g id="node20" class="node"><title>Node20</title>
<polygon fill="none" stroke="#bfbfbf" points="1932.5,-74.5 1932.5,-93.5 1967.5,-93.5 1967.5,-74.5 1932.5,-74.5"/>
<text text-anchor="middle" x="1950" y="-81.5" font-family="Helvetica,sans-Serif" font-size="10.00">map</text>
</g>
<!-- Node19&#45;&gt;Node20 -->
<g id="edge22" class="edge"><title>Node19&#45;&gt;Node20</title>
<path fill="none" stroke="midnightblue" d="M1810.63,-198.952C1862.81,-191.076 1929.8,-177.15 1947,-156 1958.78,-141.521 1957.68,-119.36 1954.82,-103.653"/>
<polygon fill="midnightblue" stroke="midnightblue" points="1958.16,-102.562 1952.58,-93.5586 1951.33,-104.08 1958.16,-102.562"/>
</g>
<!-- Node21 -->
<g id="node21" class="node"><title>Node21</title>
<polygon fill="none" stroke="#bfbfbf" points="1673,-136.5 1673,-155.5 1717,-155.5 1717,-136.5 1673,-136.5"/>
<text text-anchor="middle" x="1695" y="-143.5" font-family="Helvetica,sans-Serif" font-size="10.00">vector</text>
</g>
<!-- Node19&#45;&gt;Node21 -->
<g id="edge23" class="edge"><title>Node19&#45;&gt;Node21</title>
<path fill="none" stroke="midnightblue" d="M1737.84,-198.403C1730.26,-189.314 1718.13,-174.756 1708.71,-163.449"/>
<polygon fill="midnightblue" stroke="midnightblue" points="1711.24,-161.022 1702.15,-155.581 1705.86,-165.503 1711.24,-161.022"/>
</g>
<!-- Node22 -->
<g id="node22" class="node"><title>Node22</title>
<polygon fill="none" stroke="#bfbfbf" points="1716.5,-74.5 1716.5,-93.5 1789.5,-93.5 1789.5,-74.5 1716.5,-74.5"/>
<text text-anchor="middle" x="1753" y="-81.5" font-family="Helvetica,sans-Serif" font-size="10.00">initializer_list</text>
</g>
<!-- Node19&#45;&gt;Node22 -->
<g id="edge24" class="edge"><title>Node19&#45;&gt;Node22</title>
<path fill="none" stroke="midnightblue" d="M1745.58,-198.226C1746.87,-178.53 1750.02,-130.437 1751.77,-103.7"/>
<polygon fill="midnightblue" stroke="midnightblue" points="1755.27,-103.902 1752.43,-93.6944 1748.28,-103.444 1755.27,-103.902"/>
</g>
<!-- Node23 -->
<g id="node23" class="node"><title>Node23</title>
<polygon fill="none" stroke="#bfbfbf" points="1995,-136.5 1995,-155.5 2047,-155.5 2047,-136.5 1995,-136.5"/>
<text text-anchor="middle" x="2021" y="-143.5" font-family="Helvetica,sans-Serif" font-size="10.00">memory</text>
</g>
<!-- Node19&#45;&gt;Node23 -->
<g id="edge25" class="edge"><title>Node19&#45;&gt;Node23</title>
<path fill="none" stroke="midnightblue" d="M1785.11,-198.441C1832.08,-188.391 1912.23,-171.167 1981,-156 1982.25,-155.724 1983.52,-155.442 1984.81,-155.157"/>
<polygon fill="midnightblue" stroke="midnightblue" points="1985.76,-158.532 1994.76,-152.938 1984.23,-151.7 1985.76,-158.532"/>
</g>
<!-- Node24 -->
<g id="node24" class="node"><title>Node24</title>
<polygon fill="none" stroke="#bfbfbf" points="2065.5,-136.5 2065.5,-155.5 2144.5,-155.5 2144.5,-136.5 2065.5,-136.5"/>
<text text-anchor="middle" x="2105" y="-143.5" font-family="Helvetica,sans-Serif" font-size="10.00">FairDetector.h</text>
</g>
<!-- Node19&#45;&gt;Node24 -->
<g id="edge26" class="edge"><title>Node19&#45;&gt;Node24</title>
<path fill="none" stroke="midnightblue" d="M1798.99,-198.467C1859,-188.911 1959.06,-172.764 2055.51,-156.058"/>
<polygon fill="midnightblue" stroke="midnightblue" points="2056.18,-159.494 2065.43,-154.335 2054.98,-152.597 2056.18,-159.494"/>
</g>
<!-- Node25 -->
<g id="node25" class="node"><title>Node25</title>
<polygon fill="none" stroke="#bfbfbf" points="2163,-136.5 2163,-155.5 2263,-155.5 2263,-136.5 2163,-136.5"/>
<text text-anchor="middle" x="2213" y="-143.5" font-family="Helvetica,sans-Serif" font-size="10.00">FairRootManager.h</text>
</g>
<!-- Node19&#45;&gt;Node25 -->
<g id="edge27" class="edge"><title>Node19&#45;&gt;Node25</title>
<path fill="none" stroke="midnightblue" d="M1810.78,-199.281C1891.48,-189.695 2032.42,-172.577 2153,-156 2153.1,-155.986 2153.2,-155.972 2153.3,-155.958"/>
<polygon fill="midnightblue" stroke="midnightblue" points="2153.51,-159.464 2162.92,-154.605 2152.53,-152.532 2153.51,-159.464"/>
</g>
<!-- Node26 -->
<g id="node26" class="node"><title>Node26</title>
<g id="a_node26"><a xlink:href="../../d0/d9a/MaterialManager_8h.html" target="_top" xlink:title="DetectorsBase/MaterialManager.h">
<polygon fill="none" stroke="black" points="1773.5,-136.5 1773.5,-155.5 1938.5,-155.5 1938.5,-136.5 1773.5,-136.5"/>
<text text-anchor="middle" x="1856" y="-143.5" font-family="Helvetica,sans-Serif" font-size="10.00">DetectorsBase/MaterialManager.h</text>
</a>
</g>
</g>
<!-- Node19&#45;&gt;Node26 -->
<g id="edge28" class="edge"><title>Node19&#45;&gt;Node26</title>
<path fill="none" stroke="midnightblue" d="M1760.9,-198.403C1779.28,-188.468 1809.76,-171.997 1831.24,-160.381"/>
<polygon fill="midnightblue" stroke="midnightblue" points="1832.99,-163.415 1840.13,-155.581 1829.66,-157.257 1832.99,-163.415"/>
</g>
<!-- Node28 -->
<g id="node28" class="node"><title>Node28</title>
<polygon fill="none" stroke="#bfbfbf" points="2281.5,-136.5 2281.5,-155.5 2334.5,-155.5 2334.5,-136.5 2281.5,-136.5"/>
<text text-anchor="middle" x="2308" y="-143.5" font-family="Helvetica,sans-Serif" font-size="10.00">cxxabi.h</text>
</g>
<!-- Node19&#45;&gt;Node28 -->
<g id="edge34" class="edge"><title>Node19&#45;&gt;Node28</title>
<path fill="none" stroke="midnightblue" d="M1810.73,-203.781C1908.96,-198.278 2099.91,-184.906 2271.39,-155.84"/>
<polygon fill="midnightblue" stroke="midnightblue" points="2272.09,-159.271 2281.36,-154.129 2270.91,-152.372 2272.09,-159.271"/>
</g>
<!-- Node29 -->
<g id="node29" class="node"><title>Node29</title>
<polygon fill="none" stroke="#bfbfbf" points="2352.5,-136.5 2352.5,-155.5 2403.5,-155.5 2403.5,-136.5 2352.5,-136.5"/>
<text text-anchor="middle" x="2378" y="-143.5" font-family="Helvetica,sans-Serif" font-size="10.00">typeinfo</text>
</g>
<!-- Node19&#45;&gt;Node29 -->
<g id="edge35" class="edge"><title>Node19&#45;&gt;Node29</title>
<path fill="none" stroke="midnightblue" d="M1810.93,-204.965C1919.76,-200.82 2143.82,-188.969 2342.45,-155.782"/>
<polygon fill="midnightblue" stroke="midnightblue" points="2343.22,-159.203 2352.49,-154.083 2342.05,-152.301 2343.22,-159.203"/>
</g>
<!-- Node30 -->
<g id="node30" class="node"><title>Node30</title>
<polygon fill="none" stroke="#bfbfbf" points="1018,-136.5 1018,-155.5 1080,-155.5 1080,-136.5 1018,-136.5"/>
<text text-anchor="middle" x="1049" y="-143.5" font-family="Helvetica,sans-Serif" font-size="10.00">type_traits</text>
</g>
<!-- Node19&#45;&gt;Node30 -->
<g id="edge36" class="edge"><title>Node19&#45;&gt;Node30</title>
<path fill="none" stroke="midnightblue" d="M1679.47,-205.022C1562.81,-200.821 1311.38,-188.691 1090.52,-156.025"/>
<polygon fill="midnightblue" stroke="midnightblue" points="1090.77,-152.523 1080.36,-154.504 1089.73,-159.446 1090.77,-152.523"/>
</g>
<!-- Node31 -->
<g id="node31" class="node"><title>Node31</title>
<polygon fill="none" stroke="#bfbfbf" points="2421.5,-136.5 2421.5,-155.5 2462.5,-155.5 2462.5,-136.5 2421.5,-136.5"/>
<text text-anchor="middle" x="2442" y="-143.5" font-family="Helvetica,sans-Serif" font-size="10.00">string</text>
</g>
<!-- Node19&#45;&gt;Node31 -->
<g id="edge37" class="edge"><title>Node19&#45;&gt;Node31</title>
<path fill="none" stroke="midnightblue" d="M1810.93,-206.637C1929.58,-204.967 2186.81,-196.701 2411.49,-155.642"/>
<polygon fill="midnightblue" stroke="midnightblue" points="2412.29,-159.052 2421.49,-153.788 2411.02,-152.17 2412.29,-159.052"/>
</g>
<!-- Node32 -->
<g id="node32" class="node"><title>Node32</title>
<polygon fill="none" stroke="#bfbfbf" points="1258.5,-136.5 1258.5,-155.5 1351.5,-155.5 1351.5,-136.5 1258.5,-136.5"/>
<text text-anchor="middle" x="1305" y="-143.5" font-family="Helvetica,sans-Serif" font-size="10.00">FairMQChannel.h</text>
</g>
<!-- Node19&#45;&gt;Node32 -->
<g id="edge38" class="edge"><title>Node19&#45;&gt;Node32</title>
<path fill="none" stroke="midnightblue" d="M1679.18,-198.901C1604.62,-189.588 1479.24,-173.504 1362.02,-156.267"/>
<polygon fill="midnightblue" stroke="midnightblue" points="1362.2,-152.755 1351.79,-154.757 1361.17,-159.68 1362.2,-152.755"/>
</g>
<!-- Node33 -->
<g id="node33" class="node"><title>Node33</title>
<polygon fill="none" stroke="#bfbfbf" points="1369.5,-136.5 1369.5,-155.5 1466.5,-155.5 1466.5,-136.5 1369.5,-136.5"/>
<text text-anchor="middle" x="1418" y="-143.5" font-family="Helvetica,sans-Serif" font-size="10.00">FairMQMessage.h</text>
</g>
<!-- Node19&#45;&gt;Node33 -->
<g id="edge39" class="edge"><title>Node19&#45;&gt;Node33</title>
<path fill="none" stroke="midnightblue" d="M1698.5,-198.467C1639.54,-187.649 1537.95,-169.009 1474.56,-157.378"/>
<polygon fill="midnightblue" stroke="midnightblue" points="1474.81,-153.866 1464.34,-155.503 1473.55,-160.751 1474.81,-153.866"/>
</g>
<!-- Node34 -->
<g id="node34" class="node"><title>Node34</title>
<polygon fill="none" stroke="#bfbfbf" points="1485,-136.5 1485,-155.5 1565,-155.5 1565,-136.5 1485,-136.5"/>
<text text-anchor="middle" x="1525" y="-143.5" font-family="Helvetica,sans-Serif" font-size="10.00">FairMQParts.h</text>
</g>
<!-- Node19&#45;&gt;Node34 -->
<g id="edge40" class="edge"><title>Node19&#45;&gt;Node34</title>
<path fill="none" stroke="midnightblue" d="M1713.48,-198.403C1674.76,-187.844 1608.98,-169.903 1566.26,-158.254"/>
<polygon fill="midnightblue" stroke="midnightblue" points="1567.03,-154.835 1556.46,-155.581 1565.19,-161.589 1567.03,-154.835"/>
</g>
<!-- Node35 -->
<g id="node35" class="node"><title>Node35</title>
<polygon fill="none" stroke="#bfbfbf" points="1583.5,-136.5 1583.5,-155.5 1654.5,-155.5 1654.5,-136.5 1583.5,-136.5"/>
<text text-anchor="middle" x="1619" y="-143.5" font-family="Helvetica,sans-Serif" font-size="10.00">TMessage.h</text>
</g>
<!-- Node19&#45;&gt;Node35 -->
<g id="edge41" class="edge"><title>Node19&#45;&gt;Node35</title>
<path fill="none" stroke="midnightblue" d="M1726.95,-198.403C1705.8,-188.334 1670.56,-171.552 1646.12,-159.915"/>
<polygon fill="midnightblue" stroke="midnightblue" points="1647.55,-156.72 1637.02,-155.581 1644.54,-163.04 1647.55,-156.72"/>
</g>
<!-- Node26&#45;&gt;Node5 -->
<g id="edge29" class="edge"><title>Node26&#45;&gt;Node5</title>
<path fill="none" stroke="midnightblue" d="M1773.33,-137.309C1632.48,-124.208 1351.33,-98.0543 1249.2,-88.5536"/>
<polygon fill="midnightblue" stroke="midnightblue" points="1249.33,-85.0502 1239.04,-87.6088 1248.68,-92.0201 1249.33,-85.0502"/>
</g>
<!-- Node26&#45;&gt;Node20 -->
<g id="edge30" class="edge"><title>Node26&#45;&gt;Node20</title>
<path fill="none" stroke="midnightblue" d="M1869.47,-136.403C1884.68,-126.691 1909.69,-110.732 1927.8,-99.1697"/>
<polygon fill="midnightblue" stroke="midnightblue" points="1930.01,-101.911 1936.56,-93.5806 1926.24,-96.0108 1930.01,-101.911"/>
</g>
<!-- Node26&#45;&gt;Node22 -->
<g id="edge32" class="edge"><title>Node26&#45;&gt;Node22</title>
<path fill="none" stroke="midnightblue" d="M1841.24,-136.403C1824.34,-126.557 1796.42,-110.291 1776.51,-98.6949"/>
<polygon fill="midnightblue" stroke="midnightblue" points="1778.13,-95.5898 1767.73,-93.5806 1774.61,-101.638 1778.13,-95.5898"/>
</g>
<!-- Node27 -->
<g id="node27" class="node"><title>Node27</title>
<polygon fill="none" stroke="#bfbfbf" points="1814.5,-74.5 1814.5,-93.5 1897.5,-93.5 1897.5,-74.5 1814.5,-74.5"/>
<text text-anchor="middle" x="1856" y="-81.5" font-family="Helvetica,sans-Serif" font-size="10.00">unordered_map</text>
</g>
<!-- Node26&#45;&gt;Node27 -->
<g id="edge31" class="edge"><title>Node26&#45;&gt;Node27</title>
<path fill="none" stroke="midnightblue" d="M1856,-136.403C1856,-127.938 1856,-114.728 1856,-103.82"/>
<polygon fill="midnightblue" stroke="midnightblue" points="1859.5,-103.581 1856,-93.5806 1852.5,-103.581 1859.5,-103.581"/>
</g>
<!-- Node36&#45;&gt;Node5 -->
<g id="edge43" class="edge"><title>Node36&#45;&gt;Node5</title>
<path fill="none" stroke="midnightblue" d="M1048,-198.36C1026.46,-184.876 991.238,-158.084 1009,-136 1055.77,-77.8503 1101.62,-121.769 1173,-100 1175.8,-99.1465 1178.68,-98.1786 1181.55,-97.1554"/>
<polygon fill="midnightblue" stroke="midnightblue" points="1182.98,-100.357 1191.1,-93.5488 1180.51,-93.8086 1182.98,-100.357"/>
</g>
<!-- Node37 -->
<g id="node37" class="node"><title>Node37</title>
<polygon fill="none" stroke="#bfbfbf" points="1098.5,-136.5 1098.5,-155.5 1163.5,-155.5 1163.5,-136.5 1098.5,-136.5"/>
<text text-anchor="middle" x="1131" y="-143.5" font-family="Helvetica,sans-Serif" font-size="10.00">TVector3.h</text>
</g>
<!-- Node36&#45;&gt;Node37 -->
<g id="edge44" class="edge"><title>Node36&#45;&gt;Node37</title>
<path fill="none" stroke="midnightblue" d="M1072.74,-198.403C1083.35,-189.047 1100.52,-173.895 1113.48,-162.46"/>
<polygon fill="midnightblue" stroke="midnightblue" points="1116.09,-164.821 1121.28,-155.581 1111.46,-159.572 1116.09,-164.821"/>
</g>
<!-- Node38&#45;&gt;Node30 -->
<g id="edge50" class="edge"><title>Node38&#45;&gt;Node30</title>
<path fill="none" stroke="midnightblue" d="M749.046,-272.994C805.677,-269.037 893.673,-257.478 962,-224 966.109,-221.987 1008.12,-184.13 1032.22,-162.262"/>
<polygon fill="midnightblue" stroke="midnightblue" points="1034.58,-164.848 1039.63,-155.534 1029.87,-159.666 1034.58,-164.848"/>
</g>
<!-- Node39 -->
<g id="node39" class="node"><title>Node39</title>
<polygon fill="none" stroke="#bfbfbf" points="510,-198.5 510,-217.5 572,-217.5 572,-198.5 510,-198.5"/>
<text text-anchor="middle" x="541" y="-205.5" font-family="Helvetica,sans-Serif" font-size="10.00">TNamed.h</text>
</g>
<!-- Node38&#45;&gt;Node39 -->
<g id="edge46" class="edge"><title>Node38&#45;&gt;Node39</title>
<path fill="none" stroke="midnightblue" d="M659.607,-260.841C633.02,-249.221 595.707,-232.912 570.07,-221.706"/>
<polygon fill="midnightblue" stroke="midnightblue" points="571.428,-218.48 560.863,-217.682 568.624,-224.894 571.428,-218.48"/>
</g>
<!-- Node38&#45;&gt;Node40 -->
<g id="edge47" class="edge"><title>Node38&#45;&gt;Node40</title>
<path fill="none" stroke="midnightblue" d="M692,-260.679C692,-251.101 692,-238.394 692,-227.977"/>
<polygon fill="midnightblue" stroke="midnightblue" points="695.5,-227.828 692,-217.828 688.5,-227.828 695.5,-227.828"/>
</g>
<!-- Node41 -->
<g id="node41" class="node"><title>Node41</title>
<polygon fill="none" stroke="#bfbfbf" points="590.5,-198.5 590.5,-217.5 649.5,-217.5 649.5,-198.5 590.5,-198.5"/>
<text text-anchor="middle" x="620" y="-205.5" font-family="Helvetica,sans-Serif" font-size="10.00">stdexcept</text>
</g>
<!-- Node38&#45;&gt;Node41 -->
<g id="edge48" class="edge"><title>Node38&#45;&gt;Node41</title>
<path fill="none" stroke="midnightblue" d="M676.377,-260.679C664.817,-250.082 649.078,-235.655 637.167,-224.736"/>
<polygon fill="midnightblue" stroke="midnightblue" points="639.367,-222.006 629.631,-217.828 634.637,-227.166 639.367,-222.006"/>
</g>
<!-- Node42 -->
<g id="node42" class="node"><title>Node42</title>
<polygon fill="none" stroke="#bfbfbf" points="446.5,-198.5 446.5,-217.5 491.5,-217.5 491.5,-198.5 446.5,-198.5"/>
<text text-anchor="middle" x="469" y="-205.5" font-family="Helvetica,sans-Serif" font-size="10.00">gsl/gsl</text>
</g>
<!-- Node38&#45;&gt;Node42 -->
<g id="edge49" class="edge"><title>Node38&#45;&gt;Node42</title>
<path fill="none" stroke="midnightblue" d="M634.771,-262.527C596.394,-253.482 545.014,-240.048 501,-224 499.098,-223.306 497.154,-222.542 495.212,-221.738"/>
<polygon fill="midnightblue" stroke="midnightblue" points="496.262,-218.374 485.702,-217.512 493.419,-224.771 496.262,-218.374"/>
</g>
<!-- Node43&#45;&gt;Node5 -->
<g id="edge52" class="edge"><title>Node43&#45;&gt;Node5</title>
<path fill="none" stroke="midnightblue" d="M1194.25,-192.526C1197.7,-170.403 1204.28,-128.181 1208.08,-103.744"/>
<polygon fill="midnightblue" stroke="midnightblue" points="1211.58,-104.042 1209.66,-93.6228 1204.66,-102.965 1211.58,-104.042"/>
</g>
<!-- Node44&#45;&gt;Node43 -->
<g id="edge54" class="edge"><title>Node44&#45;&gt;Node43</title>
<path fill="none" stroke="midnightblue" d="M1185.05,-266.372C1186.06,-257.971 1187.66,-244.811 1189.07,-233.213"/>
<polygon fill="midnightblue" stroke="midnightblue" points="1192.55,-233.53 1190.28,-223.181 1185.6,-232.688 1192.55,-233.53"/>
</g>
</g>
</svg>
        <g id="navigator" transform="translate(0 0)" fill="#404254">
                <rect fill="#f2f5e9" fill-opacity="0.5" stroke="#606060" stroke-width=".5" x="0" y="0" width="60" height="60"/>
                <use id="zoomplus" xlink:href="#zoomPlus" x="17" y="9" onmousedown="handleZoom(evt,'in')"/>
                <use id="zoomminus" xlink:href="#zoomMin" x="42" y="9" onmousedown="handleZoom(evt,'out')"/>
                <use id="reset" xlink:href="#resetDef" x="30" y="36" onmousedown="handleReset()"/>
                <g id="arrowUp" xlink:href="#dirArrow" transform="translate(30 24)" onmousedown="handlePan(0,-1)">
                  <use xlink:href="#rim" fill="#404040">
                        <set attributeName="fill" to="#808080" begin="arrowUp.mouseover" end="arrowUp.mouseout"/>
                  </use>
                  <path fill="none" stroke="white" stroke-width="1.5" d="M0,-3.0v7 M-2.5,-0.5L0,-3.0L2.5,-0.5"/>
                </g>
                <g id="arrowRight" xlink:href="#dirArrow" transform="rotate(90) translate(36 -43)" onmousedown="handlePan(1,0)">
                  <use xlink:href="#rim" fill="#404040">
                        <set attributeName="fill" to="#808080" begin="arrowRight.mouseover" end="arrowRight.mouseout"/>
                  </use>
                  <path fill="none" stroke="white" stroke-width="1.5" d="M0,-3.0v7 M-2.5,-0.5L0,-3.0L2.5,-0.5"/>
                </g>
                <g id="arrowDown" xlink:href="#dirArrow" transform="rotate(180) translate(-30 -48)" onmousedown="handlePan(0,1)">
                  <use xlink:href="#rim" fill="#404040">
                        <set attributeName="fill" to="#808080" begin="arrowDown.mouseover" end="arrowDown.mouseout"/>
                  </use>
                  <path fill="none" stroke="white" stroke-width="1.5" d="M0,-3.0v7 M-2.5,-0.5L0,-3.0L2.5,-0.5"/>
                </g>
                <g id="arrowLeft" xlink:href="#dirArrow" transform="rotate(270) translate(-36 17)" onmousedown="handlePan(-1,0)">
                  <use xlink:href="#rim" fill="#404040">
                        <set attributeName="fill" to="#808080" begin="arrowLeft.mouseover" end="arrowLeft.mouseout"/>
                  </use>
                  <path fill="none" stroke="white" stroke-width="1.5" d="M0,-3.0v7 M-2.5,-0.5L0,-3.0L2.5,-0.5"/>
                </g>
        </g>
        <svg viewBox="0 0 15 15" width="100%" height="30px" preserveAspectRatio="xMaxYMin meet">
         <g id="arrow_out" transform="scale(0.3 0.3)">
          <a xlink:href="FIT_2simulation_2src_2Digitizer_8cxx__incl_org.svg" target="_base">
           <rect id="button" ry="5" rx="5" y="6" x="6" height="38" width="38"
                fill="#f2f5e9" fill-opacity="0.5" stroke="#606060" stroke-width="1.0"/>
           <path id="arrow"
             d="M 11.500037,31.436501 C 11.940474,20.09759 22.043105,11.32322 32.158766,21.979434 L 37.068811,17.246167 C 37.068811,17.246167 37.088388,32 37.088388,32 L 22.160133,31.978069 C 22.160133,31.978069 26.997745,27.140456 26.997745,27.140456 C 18.528582,18.264221 13.291696,25.230495 11.500037,31.436501 z"
             style="fill:#404040;"/>
          </a>
         </g>
        </svg>
</svg>
