<?xml version="1.0" encoding="UTF-8" standalone="no"?>
<!DOCTYPE svg PUBLIC "-//W3C//DTD SVG 1.1//EN"
 "http://www.w3.org/Graphics/SVG/1.1/DTD/svg11.dtd">
<!-- Generated by graphviz version 2.36.0 (20140111.2315)
 -->
<!-- Title: /home/travis/build/AliceO2Group/AliceO2/Detectors/PHOS/reconstruction/src/Clusterer.cxx Pages: 1 -->
<svg width="1498pt" height="514pt"
 viewBox="0.00 0.00 1498.00 514.00" xmlns="http://www.w3.org/2000/svg" xmlns:xlink="http://www.w3.org/1999/xlink">
<g id="graph0" class="graph" transform="scale(1 1) rotate(0) translate(4 510)">
<title>/home/travis/build/AliceO2Group/AliceO2/Detectors/PHOS/reconstruction/src/Clusterer.cxx</title>
<!-- Node1 -->
<g id="node1" class="node"><title>Node1</title>
<polygon fill="#bfbfbf" stroke="black" points="1171,-453 1171,-505 1329,-505 1329,-453 1171,-453"/>
<text text-anchor="start" x="1179" y="-493" font-family="Helvetica,sans-Serif" font-size="10.00">/home/travis/build</text>
<text text-anchor="start" x="1179" y="-482" font-family="Helvetica,sans-Serif" font-size="10.00">/AliceO2Group/AliceO2</text>
<text text-anchor="start" x="1179" y="-471" font-family="Helvetica,sans-Serif" font-size="10.00">/Detectors/PHOS/reconstruction</text>
<text text-anchor="middle" x="1250" y="-460" font-family="Helvetica,sans-Serif" font-size="10.00">/src/Clusterer.cxx</text>
</g>
<!-- Node2 -->
<g id="node2" class="node"><title>Node2</title>
<g id="a_node2"><a xlink:href="../../d1/d34/PHOS_2reconstruction_2include_2PHOSReconstruction_2Clusterer_8h.html" target="_top" xlink:title="PHOSReconstruction\l/Clusterer.h">
<polygon fill="none" stroke="black" points="1207.5,-193 1207.5,-223 1318.5,-223 1318.5,-193 1207.5,-193"/>
<text text-anchor="start" x="1215.5" y="-211" font-family="Helvetica,sans-Serif" font-size="10.00">PHOSReconstruction</text>
<text text-anchor="middle" x="1263" y="-200" font-family="Helvetica,sans-Serif" font-size="10.00">/Clusterer.h</text>
</a>
</g>
</g>
<!-- Node1&#45;&gt;Node2 -->
<g id="edge1" class="edge"><title>Node1&#45;&gt;Node2</title>
<path fill="none" stroke="midnightblue" d="M1251.22,-452.693C1253.72,-401.03 1259.37,-284.03 1261.83,-233.261"/>
<polygon fill="midnightblue" stroke="midnightblue" points="1265.33,-233.365 1262.31,-223.208 1258.33,-233.027 1265.33,-233.365"/>
</g>
<!-- Node4 -->
<g id="node4" class="node"><title>Node4</title>
<g id="a_node4"><a xlink:href="../../d9/dad/Detectors_2PHOS_2reconstruction_2include_2PHOSReconstruction_2Cluster_8h.html" target="_top" xlink:title="PHOSReconstruction\l/Cluster.h">
<polygon fill="none" stroke="black" points="1110.5,-385 1110.5,-415 1221.5,-415 1221.5,-385 1110.5,-385"/>
<text text-anchor="start" x="1118.5" y="-403" font-family="Helvetica,sans-Serif" font-size="10.00">PHOSReconstruction</text>
<text text-anchor="middle" x="1166" y="-392" font-family="Helvetica,sans-Serif" font-size="10.00">/Cluster.h</text>
</a>
</g>
</g>
<!-- Node1&#45;&gt;Node4 -->
<g id="edge3" class="edge"><title>Node1&#45;&gt;Node4</title>
<path fill="none" stroke="midnightblue" d="M1222.5,-452.787C1211.67,-442.861 1199.37,-431.592 1189.03,-422.106"/>
<polygon fill="midnightblue" stroke="midnightblue" points="1191.28,-419.429 1181.55,-415.252 1186.55,-424.589 1191.28,-419.429"/>
</g>
<!-- Node5 -->
<g id="node5" class="node"><title>Node5</title>
<g id="a_node5"><a xlink:href="../../d8/de9/PHOS_2base_2include_2PHOSBase_2Digit_8h.html" target="_top" xlink:title="PHOSBase/Digit.h">
<polygon fill="none" stroke="black" points="1032.5,-328.5 1032.5,-347.5 1131.5,-347.5 1131.5,-328.5 1032.5,-328.5"/>
<text text-anchor="middle" x="1082" y="-335.5" font-family="Helvetica,sans-Serif" font-size="10.00">PHOSBase/Digit.h</text>
</a>
</g>
</g>
<!-- Node1&#45;&gt;Node5 -->
<g id="edge28" class="edge"><title>Node1&#45;&gt;Node5</title>
<path fill="none" stroke="midnightblue" d="M1171,-460.397C1145.44,-451.091 1119.06,-437.05 1101,-416 1087.16,-399.869 1083.1,-375.193 1082.06,-358.143"/>
<polygon fill="midnightblue" stroke="midnightblue" points="1085.55,-357.643 1081.74,-347.756 1078.55,-357.86 1085.55,-357.643"/>
</g>
<!-- Node21 -->
<g id="node21" class="node"><title>Node21</title>
<g id="a_node21"><a xlink:href="../../d7/d7f/PHOS_2base_2include_2PHOSBase_2Geometry_8h.html" target="_top" xlink:title="PHOSBase/Geometry.h">
<polygon fill="none" stroke="black" points="1278,-390.5 1278,-409.5 1400,-409.5 1400,-390.5 1278,-390.5"/>
<text text-anchor="middle" x="1339" y="-397.5" font-family="Helvetica,sans-Serif" font-size="10.00">PHOSBase/Geometry.h</text>
</a>
</g>
</g>
<!-- Node1&#45;&gt;Node21 -->
<g id="edge24" class="edge"><title>Node1&#45;&gt;Node21</title>
<path fill="none" stroke="midnightblue" d="M1279.14,-452.787C1293.15,-440.671 1309.46,-426.553 1321.52,-416.121"/>
<polygon fill="midnightblue" stroke="midnightblue" points="1323.84,-418.747 1329.11,-409.558 1319.26,-413.454 1323.84,-418.747"/>
</g>
<!-- Node25 -->
<g id="node25" class="node"><title>Node25</title>
<polygon fill="none" stroke="#bfbfbf" points="1418.5,-390.5 1418.5,-409.5 1489.5,-409.5 1489.5,-390.5 1418.5,-390.5"/>
<text text-anchor="middle" x="1454" y="-397.5" font-family="Helvetica,sans-Serif" font-size="10.00">FairLogger.h</text>
</g>
<!-- Node1&#45;&gt;Node25 -->
<g id="edge29" class="edge"><title>Node1&#45;&gt;Node25</title>
<path fill="none" stroke="midnightblue" d="M1316.51,-452.894C1351.88,-439.546 1393.74,-423.745 1421.9,-413.114"/>
<polygon fill="midnightblue" stroke="midnightblue" points="1423.14,-416.389 1431.26,-409.583 1420.67,-409.84 1423.14,-416.389"/>
</g>
<!-- Node3 -->
<g id="node3" class="node"><title>Node3</title>
<polygon fill="none" stroke="#bfbfbf" points="1182,-74.5 1182,-93.5 1238,-93.5 1238,-74.5 1182,-74.5"/>
<text text-anchor="middle" x="1210" y="-81.5" font-family="Helvetica,sans-Serif" font-size="10.00">Rtypes.h</text>
</g>
<!-- Node2&#45;&gt;Node3 -->
<g id="edge2" class="edge"><title>Node2&#45;&gt;Node3</title>
<path fill="none" stroke="midnightblue" d="M1256.71,-192.526C1247.01,-170.203 1228.43,-127.415 1217.86,-103.085"/>
<polygon fill="midnightblue" stroke="midnightblue" points="1220.94,-101.4 1213.75,-93.6228 1214.52,-104.189 1220.94,-101.4"/>
</g>
<!-- Node4&#45;&gt;Node5 -->
<g id="edge4" class="edge"><title>Node4&#45;&gt;Node5</title>
<path fill="none" stroke="midnightblue" d="M1146.09,-384.781C1133.01,-375.433 1115.92,-363.227 1102.68,-353.77"/>
<polygon fill="midnightblue" stroke="midnightblue" points="1104.39,-350.695 1094.22,-347.731 1100.33,-356.391 1104.39,-350.695"/>
</g>
<!-- Node7 -->
<g id="node7" class="node"><title>Node7</title>
<g id="a_node7"><a xlink:href="../../d7/dcd/MCCompLabel_8h.html" target="_top" xlink:title="SimulationDataFormat\l/MCCompLabel.h">
<polygon fill="none" stroke="black" points="1108,-261 1108,-291 1222,-291 1222,-261 1108,-261"/>
<text text-anchor="start" x="1116" y="-279" font-family="Helvetica,sans-Serif" font-size="10.00">SimulationDataFormat</text>
<text text-anchor="middle" x="1165" y="-268" font-family="Helvetica,sans-Serif" font-size="10.00">/MCCompLabel.h</text>
</a>
</g>
</g>
<!-- Node4&#45;&gt;Node7 -->
<g id="edge23" class="edge"><title>Node4&#45;&gt;Node7</title>
<path fill="none" stroke="midnightblue" d="M1165.88,-384.526C1165.71,-363.963 1165.4,-326.033 1165.2,-301.163"/>
<polygon fill="midnightblue" stroke="midnightblue" points="1168.7,-301.05 1165.12,-291.079 1161.7,-301.107 1168.7,-301.05"/>
</g>
<!-- Node6 -->
<g id="node6" class="node"><title>Node6</title>
<g id="a_node6"><a xlink:href="../../df/d5d/common_2include_2CommonDataFormat_2TimeStamp_8h.html" target="_top" xlink:title="CommonDataFormat/TimeStamp.h">
<polygon fill="none" stroke="black" points="981,-136.5 981,-155.5 1151,-155.5 1151,-136.5 981,-136.5"/>
<text text-anchor="middle" x="1066" y="-143.5" font-family="Helvetica,sans-Serif" font-size="10.00">CommonDataFormat/TimeStamp.h</text>
</a>
</g>
</g>
<!-- Node5&#45;&gt;Node6 -->
<g id="edge5" class="edge"><title>Node5&#45;&gt;Node6</title>
<path fill="none" stroke="midnightblue" d="M1081.27,-328.342C1078.84,-299.472 1070.97,-206.048 1067.58,-165.767"/>
<polygon fill="midnightblue" stroke="midnightblue" points="1071.06,-165.379 1066.73,-155.708 1064.08,-165.967 1071.06,-165.379"/>
</g>
<!-- Node5&#45;&gt;Node7 -->
<g id="edge7" class="edge"><title>Node5&#45;&gt;Node7</title>
<path fill="none" stroke="midnightblue" d="M1093.89,-328.403C1105.13,-320.277 1122.42,-307.779 1137.14,-297.142"/>
<polygon fill="midnightblue" stroke="midnightblue" points="1139.38,-299.836 1145.44,-291.141 1135.28,-294.163 1139.38,-299.836"/>
</g>
<!-- Node8 -->
<g id="node8" class="node"><title>Node8</title>
<g id="a_node8"><a xlink:href="../../d1/def/PHOS_2base_2include_2PHOSBase_2Hit_8h.html" target="_top" xlink:title="PHOSBase/Hit.h">
<polygon fill="none" stroke="black" points="876,-266.5 876,-285.5 968,-285.5 968,-266.5 876,-266.5"/>
<text text-anchor="middle" x="922" y="-273.5" font-family="Helvetica,sans-Serif" font-size="10.00">PHOSBase/Hit.h</text>
</a>
</g>
</g>
<!-- Node5&#45;&gt;Node8 -->
<g id="edge9" class="edge"><title>Node5&#45;&gt;Node8</title>
<path fill="none" stroke="midnightblue" d="M1059.08,-328.403C1031.63,-318.111 985.484,-300.806 954.401,-289.15"/>
<polygon fill="midnightblue" stroke="midnightblue" points="955.474,-285.815 944.882,-285.581 953.016,-292.369 955.474,-285.815"/>
</g>
<!-- Node6&#45;&gt;Node3 -->
<g id="edge6" class="edge"><title>Node6&#45;&gt;Node3</title>
<path fill="none" stroke="midnightblue" d="M1086.63,-136.403C1111.12,-126.2 1152.15,-109.105 1180.11,-97.4544"/>
<polygon fill="midnightblue" stroke="midnightblue" points="1181.52,-100.658 1189.41,-93.5806 1178.83,-94.196 1181.52,-100.658"/>
</g>
<!-- Node7&#45;&gt;Node3 -->
<g id="edge8" class="edge"><title>Node7&#45;&gt;Node3</title>
<path fill="none" stroke="midnightblue" d="M1168.38,-260.719C1176.38,-226.932 1196.48,-142.075 1205.5,-104.004"/>
<polygon fill="midnightblue" stroke="midnightblue" points="1209.02,-104.336 1207.92,-93.7988 1202.21,-102.723 1209.02,-104.336"/>
</g>
<!-- Node9 -->
<g id="node9" class="node"><title>Node9</title>
<g id="a_node9"><a xlink:href="../../d4/d25/BaseHits_8h.html" target="_top" xlink:title="SimulationDataFormat\l/BaseHits.h">
<polygon fill="none" stroke="black" points="823,-193 823,-223 937,-223 937,-193 823,-193"/>
<text text-anchor="start" x="831" y="-211" font-family="Helvetica,sans-Serif" font-size="10.00">SimulationDataFormat</text>
<text text-anchor="middle" x="880" y="-200" font-family="Helvetica,sans-Serif" font-size="10.00">/BaseHits.h</text>
</a>
</g>
</g>
<!-- Node8&#45;&gt;Node9 -->
<g id="edge10" class="edge"><title>Node8&#45;&gt;Node9</title>
<path fill="none" stroke="midnightblue" d="M916.509,-266.372C910.945,-257.629 902.1,-243.729 894.509,-231.801"/>
<polygon fill="midnightblue" stroke="midnightblue" points="897.346,-229.739 889.025,-223.181 891.441,-233.497 897.346,-229.739"/>
</g>
<!-- Node10 -->
<g id="node10" class="node"><title>Node10</title>
<g id="a_node10"><a xlink:href="../../dd/d76/Cartesian3D_8h.html" target="_top" xlink:title="MathUtils/Cartesian3D.h">
<polygon fill="none" stroke="black" points="763.5,-136.5 763.5,-155.5 888.5,-155.5 888.5,-136.5 763.5,-136.5"/>
<text text-anchor="middle" x="826" y="-143.5" font-family="Helvetica,sans-Serif" font-size="10.00">MathUtils/Cartesian3D.h</text>
</a>
</g>
</g>
<!-- Node9&#45;&gt;Node10 -->
<g id="edge11" class="edge"><title>Node9&#45;&gt;Node10</title>
<path fill="none" stroke="midnightblue" d="M867.203,-192.781C859.275,-183.972 849.064,-172.626 840.79,-163.433"/>
<polygon fill="midnightblue" stroke="midnightblue" points="843.149,-160.822 833.857,-155.731 837.946,-165.505 843.149,-160.822"/>
</g>
<!-- Node10&#45;&gt;Node3 -->
<g id="edge17" class="edge"><title>Node10&#45;&gt;Node3</title>
<path fill="none" stroke="midnightblue" d="M888.663,-141.71C958.875,-136.914 1075.62,-125.599 1173,-100 1175.99,-99.2147 1179.06,-98.2483 1182.09,-97.1876"/>
<polygon fill="midnightblue" stroke="midnightblue" points="1183.41,-100.43 1191.49,-93.5845 1180.9,-93.8926 1183.41,-100.43"/>
</g>
<!-- Node11 -->
<g id="node11" class="node"><title>Node11</title>
<polygon fill="none" stroke="#bfbfbf" points="-0.5,-69 -0.5,-99 150.5,-99 150.5,-69 -0.5,-69"/>
<text text-anchor="start" x="7.5" y="-87" font-family="Helvetica,sans-Serif" font-size="10.00">Math/GenVector/Displacement</text>
<text text-anchor="middle" x="75" y="-76" font-family="Helvetica,sans-Serif" font-size="10.00">Vector3D.h</text>
</g>
<!-- Node10&#45;&gt;Node11 -->
<g id="edge12" class="edge"><title>Node10&#45;&gt;Node11</title>
<path fill="none" stroke="midnightblue" d="M763.352,-143.007C646.796,-138.811 388.586,-127.219 161.066,-100.039"/>
<polygon fill="midnightblue" stroke="midnightblue" points="161.287,-96.5407 150.94,-98.8168 160.448,-103.49 161.287,-96.5407"/>
</g>
<!-- Node12 -->
<g id="node12" class="node"><title>Node12</title>
<polygon fill="none" stroke="#bfbfbf" points="169,-74.5 169,-93.5 345,-93.5 345,-74.5 169,-74.5"/>
<text text-anchor="middle" x="257" y="-81.5" font-family="Helvetica,sans-Serif" font-size="10.00">Math/GenVector/PositionVector3D.h</text>
</g>
<!-- Node10&#45;&gt;Node12 -->
<g id="edge13" class="edge"><title>Node10&#45;&gt;Node12</title>
<path fill="none" stroke="midnightblue" d="M763.129,-140.229C672.384,-133.068 499.504,-118.398 353,-100 341.608,-98.5694 329.488,-96.8392 317.832,-95.0699"/>
<polygon fill="midnightblue" stroke="midnightblue" points="318.155,-91.5784 307.738,-93.5115 317.087,-98.4964 318.155,-91.5784"/>
</g>
<!-- Node13 -->
<g id="node13" class="node"><title>Node13</title>
<polygon fill="none" stroke="#bfbfbf" points="362.5,-74.5 362.5,-93.5 511.5,-93.5 511.5,-74.5 362.5,-74.5"/>
<text text-anchor="middle" x="437" y="-81.5" font-family="Helvetica,sans-Serif" font-size="10.00">Math/GenVector/Rotation3D.h</text>
</g>
<!-- Node10&#45;&gt;Node13 -->
<g id="edge14" class="edge"><title>Node10&#45;&gt;Node13</title>
<path fill="none" stroke="midnightblue" d="M764.576,-136.493C702.921,-127.824 605.26,-113.736 521,-100 511.981,-98.5297 502.431,-96.897 493.129,-95.2655"/>
<polygon fill="midnightblue" stroke="midnightblue" points="493.628,-91.7995 483.171,-93.5035 492.408,-98.6924 493.628,-91.7995"/>
</g>
<!-- Node14 -->
<g id="node14" class="node"><title>Node14</title>
<polygon fill="none" stroke="#bfbfbf" points="530,-74.5 530,-93.5 686,-93.5 686,-74.5 530,-74.5"/>
<text text-anchor="middle" x="608" y="-81.5" font-family="Helvetica,sans-Serif" font-size="10.00">Math/GenVector/Transform3D.h</text>
</g>
<!-- Node10&#45;&gt;Node14 -->
<g id="edge15" class="edge"><title>Node10&#45;&gt;Node14</title>
<path fill="none" stroke="midnightblue" d="M794.766,-136.403C756.4,-125.844 691.213,-107.903 648.889,-96.2538"/>
<polygon fill="midnightblue" stroke="midnightblue" points="649.746,-92.8598 639.176,-93.5806 647.889,-99.6088 649.746,-92.8598"/>
</g>
<!-- Node15 -->
<g id="node15" class="node"><title>Node15</title>
<polygon fill="none" stroke="#bfbfbf" points="704,-74.5 704,-93.5 864,-93.5 864,-74.5 704,-74.5"/>
<text text-anchor="middle" x="784" y="-81.5" font-family="Helvetica,sans-Serif" font-size="10.00">Math/GenVector/Translation3D.h</text>
</g>
<!-- Node10&#45;&gt;Node15 -->
<g id="edge16" class="edge"><title>Node10&#45;&gt;Node15</title>
<path fill="none" stroke="midnightblue" d="M819.982,-136.403C813.682,-127.403 803.629,-113.041 795.748,-101.782"/>
<polygon fill="midnightblue" stroke="midnightblue" points="798.608,-99.7658 790.006,-93.5806 792.874,-103.78 798.608,-99.7658"/>
</g>
<!-- Node16 -->
<g id="node16" class="node"><title>Node16</title>
<polygon fill="none" stroke="#bfbfbf" points="882,-74.5 882,-93.5 958,-93.5 958,-74.5 882,-74.5"/>
<text text-anchor="middle" x="920" y="-81.5" font-family="Helvetica,sans-Serif" font-size="10.00">TGeoMatrix.h</text>
</g>
<!-- Node10&#45;&gt;Node16 -->
<g id="edge18" class="edge"><title>Node10&#45;&gt;Node16</title>
<path fill="none" stroke="midnightblue" d="M839.468,-136.403C854.685,-126.691 879.687,-110.732 897.801,-99.1697"/>
<polygon fill="midnightblue" stroke="midnightblue" points="900.011,-101.911 906.557,-93.5806 896.245,-96.0108 900.011,-101.911"/>
</g>
<!-- Node17 -->
<g id="node17" class="node"><title>Node17</title>
<polygon fill="none" stroke="#bfbfbf" points="976.5,-74.5 976.5,-93.5 1021.5,-93.5 1021.5,-74.5 976.5,-74.5"/>
<text text-anchor="middle" x="999" y="-81.5" font-family="Helvetica,sans-Serif" font-size="10.00">iosfwd</text>
</g>
<!-- Node10&#45;&gt;Node17 -->
<g id="edge19" class="edge"><title>Node10&#45;&gt;Node17</title>
<path fill="none" stroke="midnightblue" d="M856.653,-136.463C885.485,-128.141 929.68,-114.631 967,-100 968.842,-99.2778 970.728,-98.4994 972.617,-97.6906"/>
<polygon fill="midnightblue" stroke="midnightblue" points="974.223,-100.806 981.907,-93.511 971.351,-94.4225 974.223,-100.806"/>
</g>
<!-- Node18 -->
<g id="node18" class="node"><title>Node18</title>
<g id="a_node18"><a xlink:href="../../d2/dd0/Cartesian2D_8h.html" target="_top" xlink:title="MathUtils/Cartesian2D.h">
<polygon fill="none" stroke="black" points="1039.5,-74.5 1039.5,-93.5 1164.5,-93.5 1164.5,-74.5 1039.5,-74.5"/>
<text text-anchor="middle" x="1102" y="-81.5" font-family="Helvetica,sans-Serif" font-size="10.00">MathUtils/Cartesian2D.h</text>
</a>
</g>
</g>
<!-- Node10&#45;&gt;Node18 -->
<g id="edge20" class="edge"><title>Node10&#45;&gt;Node18</title>
<path fill="none" stroke="midnightblue" d="M865.251,-136.467C914.606,-125.738 999.348,-107.316 1052.93,-95.6673"/>
<polygon fill="midnightblue" stroke="midnightblue" points="1053.86,-99.0479 1062.88,-93.5034 1052.37,-92.2076 1053.86,-99.0479"/>
</g>
<!-- Node19 -->
<g id="node19" class="node"><title>Node19</title>
<polygon fill="none" stroke="#bfbfbf" points="935.5,-1 935.5,-31 1086.5,-31 1086.5,-1 935.5,-1"/>
<text text-anchor="start" x="943.5" y="-19" font-family="Helvetica,sans-Serif" font-size="10.00">Math/GenVector/Displacement</text>
<text text-anchor="middle" x="1011" y="-8" font-family="Helvetica,sans-Serif" font-size="10.00">Vector2D.h</text>
</g>
<!-- Node18&#45;&gt;Node19 -->
<g id="edge21" class="edge"><title>Node18&#45;&gt;Node19</title>
<path fill="none" stroke="midnightblue" d="M1090.1,-74.3717C1077.22,-65.0286 1056.22,-49.7966 1039.09,-37.375"/>
<polygon fill="midnightblue" stroke="midnightblue" points="1040.7,-34.2194 1030.55,-31.1815 1036.59,-39.8859 1040.7,-34.2194"/>
</g>
<!-- Node20 -->
<g id="node20" class="node"><title>Node20</title>
<polygon fill="none" stroke="#bfbfbf" points="1105,-6.5 1105,-25.5 1281,-25.5 1281,-6.5 1105,-6.5"/>
<text text-anchor="middle" x="1193" y="-13.5" font-family="Helvetica,sans-Serif" font-size="10.00">Math/GenVector/PositionVector2D.h</text>
</g>
<!-- Node18&#45;&gt;Node20 -->
<g id="edge22" class="edge"><title>Node18&#45;&gt;Node20</title>
<path fill="none" stroke="midnightblue" d="M1113.9,-74.3717C1128.88,-63.5015 1154.86,-44.6602 1172.94,-31.5474"/>
<polygon fill="midnightblue" stroke="midnightblue" points="1175.06,-34.3349 1181.1,-25.6305 1170.95,-28.6684 1175.06,-34.3349"/>
</g>
<!-- Node22 -->
<g id="node22" class="node"><title>Node22</title>
<polygon fill="none" stroke="#bfbfbf" points="1278.5,-328.5 1278.5,-347.5 1319.5,-347.5 1319.5,-328.5 1278.5,-328.5"/>
<text text-anchor="middle" x="1299" y="-335.5" font-family="Helvetica,sans-Serif" font-size="10.00">string</text>
</g>
<!-- Node21&#45;&gt;Node22 -->
<g id="edge25" class="edge"><title>Node21&#45;&gt;Node22</title>
<path fill="none" stroke="midnightblue" d="M1333.27,-390.403C1327.33,-381.493 1317.88,-367.325 1310.41,-356.118"/>
<polygon fill="midnightblue" stroke="midnightblue" points="1313.18,-353.96 1304.72,-347.581 1307.36,-357.843 1313.18,-353.96"/>
</g>
<!-- Node23 -->
<g id="node23" class="node"><title>Node23</title>
<polygon fill="none" stroke="#bfbfbf" points="1338,-328.5 1338,-347.5 1418,-347.5 1418,-328.5 1338,-328.5"/>
<text text-anchor="middle" x="1378" y="-335.5" font-family="Helvetica,sans-Serif" font-size="10.00">RStringView.h</text>
</g>
<!-- Node21&#45;&gt;Node23 -->
<g id="edge26" class="edge"><title>Node21&#45;&gt;Node23</title>
<path fill="none" stroke="midnightblue" d="M1344.59,-390.403C1350.38,-381.493 1359.59,-367.325 1366.87,-356.118"/>
<polygon fill="midnightblue" stroke="midnightblue" points="1369.91,-357.873 1372.42,-347.581 1364.04,-354.058 1369.91,-357.873"/>
</g>
<!-- Node24 -->
<g id="node24" class="node"><title>Node24</title>
<polygon fill="none" stroke="#bfbfbf" points="1436.5,-328.5 1436.5,-347.5 1489.5,-347.5 1489.5,-328.5 1436.5,-328.5"/>
<text text-anchor="middle" x="1463" y="-335.5" font-family="Helvetica,sans-Serif" font-size="10.00">TMath.h</text>
</g>
<!-- Node21&#45;&gt;Node24 -->
<g id="edge27" class="edge"><title>Node21&#45;&gt;Node24</title>
<path fill="none" stroke="midnightblue" d="M1356.77,-390.403C1377.48,-380.379 1411.95,-363.701 1435.99,-352.07"/>
<polygon fill="midnightblue" stroke="midnightblue" points="1437.79,-355.087 1445.27,-347.581 1434.74,-348.786 1437.79,-355.087"/>
</g>
</g>
</svg>
