<?xml version="1.0" encoding="UTF-8" standalone="no"?>
<!DOCTYPE svg PUBLIC "-//W3C//DTD SVG 1.1//EN"
 "http://www.w3.org/Graphics/SVG/1.1/DTD/svg11.dtd">
<!-- Generated by graphviz version 2.36.0 (20140111.2315)
 -->
<!-- Title: /home/travis/build/AliceO2Group/AliceO2/DataFormats/simulation/include/SimulationDataFormat/Stack.h Pages: 1 -->
<svg width="3077pt" height="552pt"
 viewBox="0.00 0.00 3077.00 552.00" xmlns="http://www.w3.org/2000/svg" xmlns:xlink="http://www.w3.org/1999/xlink">
<g id="graph0" class="graph" transform="scale(1 1) rotate(0) translate(4 548)">
<title>/home/travis/build/AliceO2Group/AliceO2/DataFormats/simulation/include/SimulationDataFormat/Stack.h</title>
<!-- Node1 -->
<g id="node1" class="node"><title>Node1</title>
<polygon fill="#bfbfbf" stroke="black" points="1413.5,-480.5 1413.5,-543.5 1564.5,-543.5 1564.5,-480.5 1413.5,-480.5"/>
<text text-anchor="start" x="1421.5" y="-531.5" font-family="Helvetica,sans-Serif" font-size="10.00">/home/travis/build</text>
<text text-anchor="start" x="1421.5" y="-520.5" font-family="Helvetica,sans-Serif" font-size="10.00">/AliceO2Group/AliceO2</text>
<text text-anchor="start" x="1421.5" y="-509.5" font-family="Helvetica,sans-Serif" font-size="10.00">/DataFormats/simulation</text>
<text text-anchor="start" x="1421.5" y="-498.5" font-family="Helvetica,sans-Serif" font-size="10.00">/include/SimulationDataFormat</text>
<text text-anchor="middle" x="1489" y="-487.5" font-family="Helvetica,sans-Serif" font-size="10.00">/Stack.h</text>
</g>
<!-- Node2 -->
<g id="node2" class="node"><title>Node2</title>
<g id="a_node2"><a xlink:href="../../dd/d20/Stack_8cxx.html" target="_top" xlink:title="Implementation of the Stack class. ">
<polygon fill="none" stroke="black" points="0,-391 0,-443 124,-443 124,-391 0,-391"/>
<text text-anchor="start" x="8" y="-431" font-family="Helvetica,sans-Serif" font-size="10.00">/home/travis/build</text>
<text text-anchor="start" x="8" y="-420" font-family="Helvetica,sans-Serif" font-size="10.00">/AliceO2Group/AliceO2</text>
<text text-anchor="start" x="8" y="-409" font-family="Helvetica,sans-Serif" font-size="10.00">/DataFormats/simulation</text>
<text text-anchor="middle" x="62" y="-398" font-family="Helvetica,sans-Serif" font-size="10.00">/src/Stack.cxx</text>
</a>
</g>
</g>
<!-- Node1&#45;&gt;Node2 -->
<g id="edge1" class="edge"><title>Node1&#45;&gt;Node2</title>
<path fill="none" stroke="midnightblue" d="M1403.1,-510.131C1144.72,-506.986 377.477,-493.609 133,-444 130.041,-443.4 127.041,-442.697 124.03,-441.916"/>
<polygon fill="midnightblue" stroke="midnightblue" points="1403.14,-513.632 1413.18,-510.252 1403.22,-506.633 1403.14,-513.632"/>
</g>
<!-- Node3 -->
<g id="node3" class="node"><title>Node3</title>
<g id="a_node3"><a xlink:href="../../d3/df5/checkStack_8C.html" target="_top" xlink:title="/home/travis/build\l/AliceO2Group/AliceO2\l/DataFormats/simulation\l/test/checkStack.C">
<polygon fill="none" stroke="black" points="142,-391 142,-443 266,-443 266,-391 142,-391"/>
<text text-anchor="start" x="150" y="-431" font-family="Helvetica,sans-Serif" font-size="10.00">/home/travis/build</text>
<text text-anchor="start" x="150" y="-420" font-family="Helvetica,sans-Serif" font-size="10.00">/AliceO2Group/AliceO2</text>
<text text-anchor="start" x="150" y="-409" font-family="Helvetica,sans-Serif" font-size="10.00">/DataFormats/simulation</text>
<text text-anchor="middle" x="204" y="-398" font-family="Helvetica,sans-Serif" font-size="10.00">/test/checkStack.C</text>
</a>
</g>
</g>
<!-- Node1&#45;&gt;Node3 -->
<g id="edge2" class="edge"><title>Node1&#45;&gt;Node3</title>
<path fill="none" stroke="midnightblue" d="M1403.11,-509.553C1163.47,-504.992 491.048,-488.489 275,-444 272.043,-443.391 269.044,-442.682 266.035,-441.895"/>
<polygon fill="midnightblue" stroke="midnightblue" points="1403.1,-513.053 1413.16,-509.742 1403.23,-506.054 1403.1,-513.053"/>
</g>
<!-- Node4 -->
<g id="node4" class="node"><title>Node4</title>
<g id="a_node4"><a xlink:href="../../d5/d9d/test_2MCTrack_8cxx.html" target="_top" xlink:title="/home/travis/build\l/AliceO2Group/AliceO2\l/DataFormats/simulation\l/test/MCTrack.cxx">
<polygon fill="none" stroke="black" points="284,-391 284,-443 408,-443 408,-391 284,-391"/>
<text text-anchor="start" x="292" y="-431" font-family="Helvetica,sans-Serif" font-size="10.00">/home/travis/build</text>
<text text-anchor="start" x="292" y="-420" font-family="Helvetica,sans-Serif" font-size="10.00">/AliceO2Group/AliceO2</text>
<text text-anchor="start" x="292" y="-409" font-family="Helvetica,sans-Serif" font-size="10.00">/DataFormats/simulation</text>
<text text-anchor="middle" x="346" y="-398" font-family="Helvetica,sans-Serif" font-size="10.00">/test/MCTrack.cxx</text>
</a>
</g>
</g>
<!-- Node1&#45;&gt;Node4 -->
<g id="edge3" class="edge"><title>Node1&#45;&gt;Node4</title>
<path fill="none" stroke="midnightblue" d="M1403.05,-508.767C1183.4,-502.556 605.649,-482.92 418,-444 414.747,-443.325 411.442,-442.534 408.127,-441.656"/>
<polygon fill="midnightblue" stroke="midnightblue" points="1403.14,-512.27 1413.23,-509.052 1403.33,-505.273 1403.14,-512.27"/>
</g>
<!-- Node5 -->
<g id="node5" class="node"><title>Node5</title>
<g id="a_node5"><a xlink:href="../../da/d98/EMCAL_2simulation_2src_2Detector_8cxx.html" target="_top" xlink:title="/home/travis/build\l/AliceO2Group/AliceO2\l/Detectors/EMCAL/simulation\l/src/Detector.cxx">
<polygon fill="none" stroke="black" points="426.5,-391 426.5,-443 573.5,-443 573.5,-391 426.5,-391"/>
<text text-anchor="start" x="434.5" y="-431" font-family="Helvetica,sans-Serif" font-size="10.00">/home/travis/build</text>
<text text-anchor="start" x="434.5" y="-420" font-family="Helvetica,sans-Serif" font-size="10.00">/AliceO2Group/AliceO2</text>
<text text-anchor="start" x="434.5" y="-409" font-family="Helvetica,sans-Serif" font-size="10.00">/Detectors/EMCAL/simulation</text>
<text text-anchor="middle" x="500" y="-398" font-family="Helvetica,sans-Serif" font-size="10.00">/src/Detector.cxx</text>
</a>
</g>
</g>
<!-- Node1&#45;&gt;Node5 -->
<g id="edge4" class="edge"><title>Node1&#45;&gt;Node5</title>
<path fill="none" stroke="midnightblue" d="M1402.99,-511.18C1241.02,-510.08 880.312,-500.776 583,-444 579.885,-443.405 576.723,-442.733 573.542,-442"/>
<polygon fill="midnightblue" stroke="midnightblue" points="1403.34,-514.682 1413.36,-511.241 1403.38,-507.682 1403.34,-514.682"/>
</g>
<!-- Node6 -->
<g id="node6" class="node"><title>Node6</title>
<g id="a_node6"><a xlink:href="../../d3/d5e/FIT_2simulation_2src_2Detector_8cxx.html" target="_top" xlink:title="/home/travis/build\l/AliceO2Group/AliceO2\l/Detectors/FIT/simulation\l/src/Detector.cxx">
<polygon fill="none" stroke="black" points="592,-391 592,-443 720,-443 720,-391 592,-391"/>
<text text-anchor="start" x="600" y="-431" font-family="Helvetica,sans-Serif" font-size="10.00">/home/travis/build</text>
<text text-anchor="start" x="600" y="-420" font-family="Helvetica,sans-Serif" font-size="10.00">/AliceO2Group/AliceO2</text>
<text text-anchor="start" x="600" y="-409" font-family="Helvetica,sans-Serif" font-size="10.00">/Detectors/FIT/simulation</text>
<text text-anchor="middle" x="656" y="-398" font-family="Helvetica,sans-Serif" font-size="10.00">/src/Detector.cxx</text>
</a>
</g>
</g>
<!-- Node1&#45;&gt;Node6 -->
<g id="edge5" class="edge"><title>Node1&#45;&gt;Node6</title>
<path fill="none" stroke="midnightblue" d="M1402.97,-510.493C1260.97,-508.085 969.341,-496.495 729,-444 726.108,-443.368 723.175,-442.653 720.227,-441.874"/>
<polygon fill="midnightblue" stroke="midnightblue" points="1403.29,-513.998 1413.34,-510.657 1403.4,-506.999 1403.29,-513.998"/>
</g>
<!-- Node7 -->
<g id="node7" class="node"><title>Node7</title>
<g id="a_node7"><a xlink:href="../../d6/db7/G3Config_8cxx.html" target="_top" xlink:title="/home/travis/build\l/AliceO2Group/AliceO2\l/Detectors/gconfig/src\l/G3Config.cxx">
<polygon fill="none" stroke="black" points="738,-391 738,-443 856,-443 856,-391 738,-391"/>
<text text-anchor="start" x="746" y="-431" font-family="Helvetica,sans-Serif" font-size="10.00">/home/travis/build</text>
<text text-anchor="start" x="746" y="-420" font-family="Helvetica,sans-Serif" font-size="10.00">/AliceO2Group/AliceO2</text>
<text text-anchor="start" x="746" y="-409" font-family="Helvetica,sans-Serif" font-size="10.00">/Detectors/gconfig/src</text>
<text text-anchor="middle" x="797" y="-398" font-family="Helvetica,sans-Serif" font-size="10.00">/G3Config.cxx</text>
</a>
</g>
</g>
<!-- Node1&#45;&gt;Node7 -->
<g id="edge6" class="edge"><title>Node1&#45;&gt;Node7</title>
<path fill="none" stroke="midnightblue" d="M1403.15,-508.769C1281.74,-504.044 1053.63,-489.377 865,-444 862.051,-443.291 859.057,-442.486 856.053,-441.609"/>
<polygon fill="midnightblue" stroke="midnightblue" points="1403.37,-512.279 1413.49,-509.157 1403.63,-505.284 1403.37,-512.279"/>
</g>
<!-- Node8 -->
<g id="node8" class="node"><title>Node8</title>
<g id="a_node8"><a xlink:href="../../d4/d6b/G4Config_8cxx.html" target="_top" xlink:title="/home/travis/build\l/AliceO2Group/AliceO2\l/Detectors/gconfig/src\l/G4Config.cxx">
<polygon fill="none" stroke="black" points="874,-391 874,-443 992,-443 992,-391 874,-391"/>
<text text-anchor="start" x="882" y="-431" font-family="Helvetica,sans-Serif" font-size="10.00">/home/travis/build</text>
<text text-anchor="start" x="882" y="-420" font-family="Helvetica,sans-Serif" font-size="10.00">/AliceO2Group/AliceO2</text>
<text text-anchor="start" x="882" y="-409" font-family="Helvetica,sans-Serif" font-size="10.00">/Detectors/gconfig/src</text>
<text text-anchor="middle" x="933" y="-398" font-family="Helvetica,sans-Serif" font-size="10.00">/G4Config.cxx</text>
</a>
</g>
</g>
<!-- Node1&#45;&gt;Node8 -->
<g id="edge7" class="edge"><title>Node1&#45;&gt;Node8</title>
<path fill="none" stroke="midnightblue" d="M1402.95,-505.167C1304.56,-497.125 1139.22,-479.413 1001,-444 998.062,-443.247 995.076,-442.407 992.079,-441.502"/>
<polygon fill="midnightblue" stroke="midnightblue" points="1402.9,-508.674 1413.15,-505.985 1403.46,-501.696 1402.9,-508.674"/>
</g>
<!-- Node9 -->
<g id="node9" class="node"><title>Node9</title>
<g id="a_node9"><a xlink:href="../../d7/d24/HMPID_2simulation_2src_2Detector_8cxx.html" target="_top" xlink:title="/home/travis/build\l/AliceO2Group/AliceO2\l/Detectors/HMPID/simulation\l/src/Detector.cxx">
<polygon fill="none" stroke="black" points="1010,-391 1010,-443 1156,-443 1156,-391 1010,-391"/>
<text text-anchor="start" x="1018" y="-431" font-family="Helvetica,sans-Serif" font-size="10.00">/home/travis/build</text>
<text text-anchor="start" x="1018" y="-420" font-family="Helvetica,sans-Serif" font-size="10.00">/AliceO2Group/AliceO2</text>
<text text-anchor="start" x="1018" y="-409" font-family="Helvetica,sans-Serif" font-size="10.00">/Detectors/HMPID/simulation</text>
<text text-anchor="middle" x="1083" y="-398" font-family="Helvetica,sans-Serif" font-size="10.00">/src/Detector.cxx</text>
</a>
</g>
</g>
<!-- Node1&#45;&gt;Node9 -->
<g id="edge8" class="edge"><title>Node1&#45;&gt;Node9</title>
<path fill="none" stroke="midnightblue" d="M1403.31,-495.777C1337.67,-483.516 1245.09,-464.918 1165,-444 1162.11,-443.245 1159.17,-442.45 1156.21,-441.624"/>
<polygon fill="midnightblue" stroke="midnightblue" points="1402.73,-499.229 1413.2,-497.615 1404.01,-492.347 1402.73,-499.229"/>
</g>
<!-- Node10 -->
<g id="node10" class="node"><title>Node10</title>
<g id="a_node10"><a xlink:href="../../d9/d0d/ITSMFT_2ITS_2simulation_2src_2Detector_8cxx.html" target="_top" xlink:title="/home/travis/build\l/AliceO2Group/AliceO2\l/Detectors/ITSMFT/ITS\l/simulation/src/Detector.cxx">
<polygon fill="none" stroke="black" points="1174,-391 1174,-443 1314,-443 1314,-391 1174,-391"/>
<text text-anchor="start" x="1182" y="-431" font-family="Helvetica,sans-Serif" font-size="10.00">/home/travis/build</text>
<text text-anchor="start" x="1182" y="-420" font-family="Helvetica,sans-Serif" font-size="10.00">/AliceO2Group/AliceO2</text>
<text text-anchor="start" x="1182" y="-409" font-family="Helvetica,sans-Serif" font-size="10.00">/Detectors/ITSMFT/ITS</text>
<text text-anchor="middle" x="1244" y="-398" font-family="Helvetica,sans-Serif" font-size="10.00">/simulation/src/Detector.cxx</text>
</a>
</g>
</g>
<!-- Node1&#45;&gt;Node10 -->
<g id="edge9" class="edge"><title>Node1&#45;&gt;Node10</title>
<path fill="none" stroke="midnightblue" d="M1404.07,-478.761C1373.31,-467.084 1339.04,-454.078 1310.14,-443.105"/>
<polygon fill="midnightblue" stroke="midnightblue" points="1402.9,-482.061 1413.49,-482.338 1405.39,-475.517 1402.9,-482.061"/>
</g>
<!-- Node11 -->
<g id="node11" class="node"><title>Node11</title>
<g id="a_node11"><a xlink:href="../../d0/d6b/ITSMFT_2MFT_2simulation_2src_2Detector_8cxx.html" target="_top" xlink:title="/home/travis/build\l/AliceO2Group/AliceO2\l/Detectors/ITSMFT/MFT\l/simulation/src/Detector.cxx">
<polygon fill="none" stroke="black" points="1332,-391 1332,-443 1472,-443 1472,-391 1332,-391"/>
<text text-anchor="start" x="1340" y="-431" font-family="Helvetica,sans-Serif" font-size="10.00">/home/travis/build</text>
<text text-anchor="start" x="1340" y="-420" font-family="Helvetica,sans-Serif" font-size="10.00">/AliceO2Group/AliceO2</text>
<text text-anchor="start" x="1340" y="-409" font-family="Helvetica,sans-Serif" font-size="10.00">/Detectors/ITSMFT/MFT</text>
<text text-anchor="middle" x="1402" y="-398" font-family="Helvetica,sans-Serif" font-size="10.00">/simulation/src/Detector.cxx</text>
</a>
</g>
</g>
<!-- Node1&#45;&gt;Node11 -->
<g id="edge10" class="edge"><title>Node1&#45;&gt;Node11</title>
<path fill="none" stroke="midnightblue" d="M1453.24,-472.773C1443.88,-462.765 1434.02,-452.229 1425.48,-443.1"/>
<polygon fill="midnightblue" stroke="midnightblue" points="1450.88,-475.379 1460.27,-480.291 1456,-470.597 1450.88,-475.379"/>
</g>
<!-- Node12 -->
<g id="node12" class="node"><title>Node12</title>
<g id="a_node12"><a xlink:href="../../db/dfd/Stepper_8cxx.html" target="_top" xlink:title="/home/travis/build\l/AliceO2Group/AliceO2\l/Detectors/MUON/MCH/Simulation\l/src/Stepper.cxx">
<polygon fill="none" stroke="black" points="1490.5,-391 1490.5,-443 1661.5,-443 1661.5,-391 1490.5,-391"/>
<text text-anchor="start" x="1498.5" y="-431" font-family="Helvetica,sans-Serif" font-size="10.00">/home/travis/build</text>
<text text-anchor="start" x="1498.5" y="-420" font-family="Helvetica,sans-Serif" font-size="10.00">/AliceO2Group/AliceO2</text>
<text text-anchor="start" x="1498.5" y="-409" font-family="Helvetica,sans-Serif" font-size="10.00">/Detectors/MUON/MCH/Simulation</text>
<text text-anchor="middle" x="1576" y="-398" font-family="Helvetica,sans-Serif" font-size="10.00">/src/Stepper.cxx</text>
</a>
</g>
</g>
<!-- Node1&#45;&gt;Node12 -->
<g id="edge11" class="edge"><title>Node1&#45;&gt;Node12</title>
<path fill="none" stroke="midnightblue" d="M1524.76,-472.773C1534.12,-462.765 1543.98,-452.229 1552.52,-443.1"/>
<polygon fill="midnightblue" stroke="midnightblue" points="1522,-470.597 1517.73,-480.291 1527.12,-475.379 1522,-470.597"/>
</g>
<!-- Node13 -->
<g id="node13" class="node"><title>Node13</title>
<g id="a_node13"><a xlink:href="../../df/d4d/PHOS_2simulation_2src_2Detector_8cxx.html" target="_top" xlink:title="/home/travis/build\l/AliceO2Group/AliceO2\l/Detectors/PHOS/simulation\l/src/Detector.cxx">
<polygon fill="none" stroke="black" points="1679.5,-391 1679.5,-443 1820.5,-443 1820.5,-391 1679.5,-391"/>
<text text-anchor="start" x="1687.5" y="-431" font-family="Helvetica,sans-Serif" font-size="10.00">/home/travis/build</text>
<text text-anchor="start" x="1687.5" y="-420" font-family="Helvetica,sans-Serif" font-size="10.00">/AliceO2Group/AliceO2</text>
<text text-anchor="start" x="1687.5" y="-409" font-family="Helvetica,sans-Serif" font-size="10.00">/Detectors/PHOS/simulation</text>
<text text-anchor="middle" x="1750" y="-398" font-family="Helvetica,sans-Serif" font-size="10.00">/src/Detector.cxx</text>
</a>
</g>
</g>
<!-- Node1&#45;&gt;Node13 -->
<g id="edge12" class="edge"><title>Node1&#45;&gt;Node13</title>
<path fill="none" stroke="midnightblue" d="M1574.34,-480.592C1608.48,-468.428 1647.32,-454.588 1679.78,-443.021"/>
<polygon fill="midnightblue" stroke="midnightblue" points="1573.09,-477.322 1564.84,-483.976 1575.44,-483.916 1573.09,-477.322"/>
</g>
<!-- Node14 -->
<g id="node14" class="node"><title>Node14</title>
<g id="a_node14"><a xlink:href="../../d4/d59/TOF_2simulation_2src_2Detector_8cxx.html" target="_top" xlink:title="/home/travis/build\l/AliceO2Group/AliceO2\l/Detectors/TOF/simulation\l/src/Detector.cxx">
<polygon fill="none" stroke="black" points="1839,-391 1839,-443 1971,-443 1971,-391 1839,-391"/>
<text text-anchor="start" x="1847" y="-431" font-family="Helvetica,sans-Serif" font-size="10.00">/home/travis/build</text>
<text text-anchor="start" x="1847" y="-420" font-family="Helvetica,sans-Serif" font-size="10.00">/AliceO2Group/AliceO2</text>
<text text-anchor="start" x="1847" y="-409" font-family="Helvetica,sans-Serif" font-size="10.00">/Detectors/TOF/simulation</text>
<text text-anchor="middle" x="1905" y="-398" font-family="Helvetica,sans-Serif" font-size="10.00">/src/Detector.cxx</text>
</a>
</g>
</g>
<!-- Node1&#45;&gt;Node14 -->
<g id="edge13" class="edge"><title>Node1&#45;&gt;Node14</title>
<path fill="none" stroke="midnightblue" d="M1574.61,-497.429C1643.8,-485.671 1743.43,-466.955 1829,-444 1832.23,-443.133 1835.53,-442.2 1838.84,-441.221"/>
<polygon fill="midnightblue" stroke="midnightblue" points="1573.9,-493.998 1564.62,-499.113 1575.07,-500.901 1573.9,-493.998"/>
</g>
<!-- Node15 -->
<g id="node15" class="node"><title>Node15</title>
<g id="a_node15"><a xlink:href="../../d2/d2c/TPC_2simulation_2src_2Detector_8cxx.html" target="_top" xlink:title="/home/travis/build\l/AliceO2Group/AliceO2\l/Detectors/TPC/simulation\l/src/Detector.cxx">
<polygon fill="none" stroke="black" points="1989.5,-391 1989.5,-443 2122.5,-443 2122.5,-391 1989.5,-391"/>
<text text-anchor="start" x="1997.5" y="-431" font-family="Helvetica,sans-Serif" font-size="10.00">/home/travis/build</text>
<text text-anchor="start" x="1997.5" y="-420" font-family="Helvetica,sans-Serif" font-size="10.00">/AliceO2Group/AliceO2</text>
<text text-anchor="start" x="1997.5" y="-409" font-family="Helvetica,sans-Serif" font-size="10.00">/Detectors/TPC/simulation</text>
<text text-anchor="middle" x="2056" y="-398" font-family="Helvetica,sans-Serif" font-size="10.00">/src/Detector.cxx</text>
</a>
</g>
</g>
<!-- Node1&#45;&gt;Node15 -->
<g id="edge14" class="edge"><title>Node1&#45;&gt;Node15</title>
<path fill="none" stroke="midnightblue" d="M1574.92,-504.36C1673.67,-495.561 1840.12,-477.139 1980,-444 1983.12,-443.261 1986.29,-442.444 1989.49,-441.571"/>
<polygon fill="midnightblue" stroke="midnightblue" points="1574.35,-500.897 1564.7,-505.258 1574.97,-507.87 1574.35,-500.897"/>
</g>
<!-- Node16 -->
<g id="node16" class="node"><title>Node16</title>
<g id="a_node16"><a xlink:href="../../da/d16/TRD_2simulation_2src_2Detector_8cxx.html" target="_top" xlink:title="/home/travis/build\l/AliceO2Group/AliceO2\l/Detectors/TRD/simulation\l/src/Detector.cxx">
<polygon fill="none" stroke="black" points="2141,-391 2141,-443 2275,-443 2275,-391 2141,-391"/>
<text text-anchor="start" x="2149" y="-431" font-family="Helvetica,sans-Serif" font-size="10.00">/home/travis/build</text>
<text text-anchor="start" x="2149" y="-420" font-family="Helvetica,sans-Serif" font-size="10.00">/AliceO2Group/AliceO2</text>
<text text-anchor="start" x="2149" y="-409" font-family="Helvetica,sans-Serif" font-size="10.00">/Detectors/TRD/simulation</text>
<text text-anchor="middle" x="2208" y="-398" font-family="Helvetica,sans-Serif" font-size="10.00">/src/Detector.cxx</text>
</a>
</g>
</g>
<!-- Node1&#45;&gt;Node16 -->
<g id="edge15" class="edge"><title>Node1&#45;&gt;Node16</title>
<path fill="none" stroke="midnightblue" d="M1575.18,-508.064C1699.31,-502.474 1935.05,-486.752 2131,-444 2134.17,-443.308 2137.39,-442.531 2140.63,-441.689"/>
<polygon fill="midnightblue" stroke="midnightblue" points="1574.81,-504.577 1564.98,-508.512 1575.12,-511.57 1574.81,-504.577"/>
</g>
<!-- Node17 -->
<g id="node17" class="node"><title>Node17</title>
<g id="a_node17"><a xlink:href="../../df/dac/ZDC_2simulation_2src_2Detector_8cxx.html" target="_top" xlink:title="/home/travis/build\l/AliceO2Group/AliceO2\l/Detectors/ZDC/simulation\l/src/Detector.cxx">
<polygon fill="none" stroke="black" points="2293,-391 2293,-443 2427,-443 2427,-391 2293,-391"/>
<text text-anchor="start" x="2301" y="-431" font-family="Helvetica,sans-Serif" font-size="10.00">/home/travis/build</text>
<text text-anchor="start" x="2301" y="-420" font-family="Helvetica,sans-Serif" font-size="10.00">/AliceO2Group/AliceO2</text>
<text text-anchor="start" x="2301" y="-409" font-family="Helvetica,sans-Serif" font-size="10.00">/Detectors/ZDC/simulation</text>
<text text-anchor="middle" x="2360" y="-398" font-family="Helvetica,sans-Serif" font-size="10.00">/src/Detector.cxx</text>
</a>
</g>
</g>
<!-- Node1&#45;&gt;Node17 -->
<g id="edge16" class="edge"><title>Node1&#45;&gt;Node17</title>
<path fill="none" stroke="midnightblue" d="M1574.99,-510.629C1721.91,-508.471 2030,-497.304 2284,-444 2286.87,-443.399 2289.77,-442.721 2292.7,-441.983"/>
<polygon fill="midnightblue" stroke="midnightblue" points="1574.65,-507.133 1564.7,-510.769 1574.74,-514.132 1574.65,-507.133"/>
</g>
<!-- Node18 -->
<g id="node18" class="node"><title>Node18</title>
<g id="a_node18"><a xlink:href="../../db/d50/O2HitMerger_8h.html" target="_top" xlink:title="/home/travis/build\l/AliceO2Group/AliceO2\l/run/O2HitMerger.h">
<polygon fill="none" stroke="black" points="2396,-78.5 2396,-119.5 2514,-119.5 2514,-78.5 2396,-78.5"/>
<text text-anchor="start" x="2404" y="-107.5" font-family="Helvetica,sans-Serif" font-size="10.00">/home/travis/build</text>
<text text-anchor="start" x="2404" y="-96.5" font-family="Helvetica,sans-Serif" font-size="10.00">/AliceO2Group/AliceO2</text>
<text text-anchor="middle" x="2455" y="-85.5" font-family="Helvetica,sans-Serif" font-size="10.00">/run/O2HitMerger.h</text>
</a>
</g>
</g>
<!-- Node1&#45;&gt;Node18 -->
<g id="edge17" class="edge"><title>Node1&#45;&gt;Node18</title>
<path fill="none" stroke="midnightblue" d="M1574.93,-510.853C1796.25,-509.653 2372.94,-501.03 2436,-444 2472.8,-410.723 2455,-383.613 2455,-334 2455,-334 2455,-334 2455,-254 2455,-205.875 2455,-149.291 2455,-119.935"/>
<polygon fill="midnightblue" stroke="midnightblue" points="1574.65,-507.354 1564.66,-510.904 1574.68,-514.354 1574.65,-507.354"/>
</g>
<!-- Node20 -->
<g id="node20" class="node"><title>Node20</title>
<g id="a_node20"><a xlink:href="../../db/d82/O2SimDevice_8h.html" target="_top" xlink:title="/home/travis/build\l/AliceO2Group/AliceO2\l/run/O2SimDevice.h">
<polygon fill="none" stroke="black" points="2524,-156.5 2524,-197.5 2642,-197.5 2642,-156.5 2524,-156.5"/>
<text text-anchor="start" x="2532" y="-185.5" font-family="Helvetica,sans-Serif" font-size="10.00">/home/travis/build</text>
<text text-anchor="start" x="2532" y="-174.5" font-family="Helvetica,sans-Serif" font-size="10.00">/AliceO2Group/AliceO2</text>
<text text-anchor="middle" x="2583" y="-163.5" font-family="Helvetica,sans-Serif" font-size="10.00">/run/O2SimDevice.h</text>
</a>
</g>
</g>
<!-- Node1&#45;&gt;Node20 -->
<g id="edge20" class="edge"><title>Node1&#45;&gt;Node20</title>
<path fill="none" stroke="midnightblue" d="M1574.69,-510.544C1800.5,-508.594 2399.33,-498.303 2469,-444 2517.66,-406.069 2487.91,-368.804 2512,-312 2529.78,-270.068 2555.95,-223.614 2571.06,-197.9"/>
<polygon fill="midnightblue" stroke="midnightblue" points="1574.52,-507.045 1564.55,-510.628 1574.58,-514.045 1574.52,-507.045"/>
</g>
<!-- Node22 -->
<g id="node22" class="node"><title>Node22</title>
<g id="a_node22"><a xlink:href="../../dc/d50/O2PrimaryServerDevice_8h.html" target="_top" xlink:title="/home/travis/build\l/AliceO2Group/AliceO2\l/run/O2PrimaryServerDevice.h">
<polygon fill="none" stroke="black" points="2531,-396.5 2531,-437.5 2681,-437.5 2681,-396.5 2531,-396.5"/>
<text text-anchor="start" x="2539" y="-425.5" font-family="Helvetica,sans-Serif" font-size="10.00">/home/travis/build</text>
<text text-anchor="start" x="2539" y="-414.5" font-family="Helvetica,sans-Serif" font-size="10.00">/AliceO2Group/AliceO2</text>
<text text-anchor="middle" x="2606" y="-403.5" font-family="Helvetica,sans-Serif" font-size="10.00">/run/O2PrimaryServerDevice.h</text>
</a>
</g>
</g>
<!-- Node1&#45;&gt;Node22 -->
<g id="edge23" class="edge"><title>Node1&#45;&gt;Node22</title>
<path fill="none" stroke="midnightblue" d="M1574.82,-510.864C1750.81,-509.377 2164.83,-499.666 2507,-444 2517.35,-442.316 2528.19,-440.028 2538.74,-437.503"/>
<polygon fill="midnightblue" stroke="midnightblue" points="1574.56,-507.366 1564.59,-510.943 1574.61,-514.366 1574.56,-507.366"/>
</g>
<!-- Node24 -->
<g id="node24" class="node"><title>Node24</title>
<g id="a_node24"><a xlink:href="../../df/d82/O2MCApplication_8h.html" target="_top" xlink:title="/home/travis/build\l/AliceO2Group/AliceO2\l/Steer/include/Steer/O2MCApplication.h">
<polygon fill="none" stroke="black" points="2716.5,-396.5 2716.5,-437.5 2907.5,-437.5 2907.5,-396.5 2716.5,-396.5"/>
<text text-anchor="start" x="2724.5" y="-425.5" font-family="Helvetica,sans-Serif" font-size="10.00">/home/travis/build</text>
<text text-anchor="start" x="2724.5" y="-414.5" font-family="Helvetica,sans-Serif" font-size="10.00">/AliceO2Group/AliceO2</text>
<text text-anchor="middle" x="2812" y="-403.5" font-family="Helvetica,sans-Serif" font-size="10.00">/Steer/include/Steer/O2MCApplication.h</text>
</a>
</g>
</g>
<!-- Node1&#45;&gt;Node24 -->
<g id="edge25" class="edge"><title>Node1&#45;&gt;Node24</title>
<path fill="none" stroke="midnightblue" d="M1574.87,-510.688C1772.41,-508.995 2274,-499.12 2689,-444 2701.66,-442.319 2714.95,-440.048 2727.93,-437.546"/>
<polygon fill="midnightblue" stroke="midnightblue" points="1574.81,-507.189 1564.84,-510.77 1574.87,-514.188 1574.81,-507.189"/>
</g>
<!-- Node18&#45;&gt;Node18 -->
<g id="edge18" class="edge"><title>Node18&#45;&gt;Node18</title>
<path fill="none" stroke="midnightblue" d="M2524.03,-109.753C2528.98,-107.318 2532,-103.733 2532,-99 2532,-91.6113 2524.63,-87.0223 2514.08,-85.2328"/>
<polygon fill="midnightblue" stroke="midnightblue" points="2522.63,-106.518 2514.08,-112.767 2524.66,-113.217 2522.63,-106.518"/>
</g>
<!-- Node19 -->
<g id="node19" class="node"><title>Node19</title>
<g id="a_node19"><a xlink:href="../../d9/d16/O2HitMergerRunner_8cxx.html" target="_top" xlink:title="/home/travis/build\l/AliceO2Group/AliceO2\l/run/O2HitMergerRunner.cxx">
<polygon fill="none" stroke="black" points="2384,-0.5 2384,-41.5 2526,-41.5 2526,-0.5 2384,-0.5"/>
<text text-anchor="start" x="2392" y="-29.5" font-family="Helvetica,sans-Serif" font-size="10.00">/home/travis/build</text>
<text text-anchor="start" x="2392" y="-18.5" font-family="Helvetica,sans-Serif" font-size="10.00">/AliceO2Group/AliceO2</text>
<text text-anchor="middle" x="2455" y="-7.5" font-family="Helvetica,sans-Serif" font-size="10.00">/run/O2HitMergerRunner.cxx</text>
</a>
</g>
</g>
<!-- Node18&#45;&gt;Node19 -->
<g id="edge19" class="edge"><title>Node18&#45;&gt;Node19</title>
<path fill="none" stroke="midnightblue" d="M2455,-68.2965C2455,-59.3009 2455,-49.6532 2455,-41.5056"/>
<polygon fill="midnightblue" stroke="midnightblue" points="2451.5,-68.4281 2455,-78.4281 2458.5,-68.4281 2451.5,-68.4281"/>
</g>
<!-- Node20&#45;&gt;Node18 -->
<g id="edge21" class="edge"><title>Node20&#45;&gt;Node18</title>
<path fill="none" stroke="midnightblue" d="M2541.24,-151.203C2523.91,-140.918 2504.11,-129.159 2487.85,-119.506"/>
<polygon fill="midnightblue" stroke="midnightblue" points="2539.65,-154.332 2550.04,-156.428 2543.23,-148.313 2539.65,-154.332"/>
</g>
<!-- Node21 -->
<g id="node21" class="node"><title>Node21</title>
<g id="a_node21"><a xlink:href="../../d6/da5/O2SimDeviceRunner_8cxx.html" target="_top" xlink:title="/home/travis/build\l/AliceO2Group/AliceO2\l/run/O2SimDeviceRunner.cxx">
<polygon fill="none" stroke="black" points="2550.5,-78.5 2550.5,-119.5 2697.5,-119.5 2697.5,-78.5 2550.5,-78.5"/>
<text text-anchor="start" x="2558.5" y="-107.5" font-family="Helvetica,sans-Serif" font-size="10.00">/home/travis/build</text>
<text text-anchor="start" x="2558.5" y="-96.5" font-family="Helvetica,sans-Serif" font-size="10.00">/AliceO2Group/AliceO2</text>
<text text-anchor="middle" x="2624" y="-85.5" font-family="Helvetica,sans-Serif" font-size="10.00">/run/O2SimDeviceRunner.cxx</text>
</a>
</g>
</g>
<!-- Node20&#45;&gt;Node21 -->
<g id="edge22" class="edge"><title>Node20&#45;&gt;Node21</title>
<path fill="none" stroke="midnightblue" d="M2598.39,-147.466C2603.42,-138.143 2608.89,-128.007 2613.48,-119.506"/>
<polygon fill="midnightblue" stroke="midnightblue" points="2595.23,-145.965 2593.56,-156.428 2601.39,-149.289 2595.23,-145.965"/>
</g>
<!-- Node23 -->
<g id="node23" class="node"><title>Node23</title>
<g id="a_node23"><a xlink:href="../../db/d8f/O2PrimaryServerDeviceRunner_8cxx.html" target="_top" xlink:title="/home/travis/build\l/AliceO2Group/AliceO2\l/run/O2PrimaryServerDeviceRunner.cxx">
<polygon fill="none" stroke="black" points="2521,-312.5 2521,-353.5 2713,-353.5 2713,-312.5 2521,-312.5"/>
<text text-anchor="start" x="2529" y="-341.5" font-family="Helvetica,sans-Serif" font-size="10.00">/home/travis/build</text>
<text text-anchor="start" x="2529" y="-330.5" font-family="Helvetica,sans-Serif" font-size="10.00">/AliceO2Group/AliceO2</text>
<text text-anchor="middle" x="2617" y="-319.5" font-family="Helvetica,sans-Serif" font-size="10.00">/run/O2PrimaryServerDeviceRunner.cxx</text>
</a>
</g>
</g>
<!-- Node22&#45;&gt;Node23 -->
<g id="edge24" class="edge"><title>Node22&#45;&gt;Node23</title>
<path fill="none" stroke="midnightblue" d="M2610,-386.217C2611.45,-375.379 2613.05,-363.409 2614.36,-353.667"/>
<polygon fill="midnightblue" stroke="midnightblue" points="2606.52,-385.773 2608.66,-396.15 2613.46,-386.704 2606.52,-385.773"/>
</g>
<!-- Node25 -->
<g id="node25" class="node"><title>Node25</title>
<g id="a_node25"><a xlink:href="../../d9/d9b/O2RunSim_8h.html" target="_top" xlink:title="/home/travis/build\l/AliceO2Group/AliceO2\l/Steer/include/Steer/O2RunSim.h">
<polygon fill="none" stroke="black" points="2731,-312.5 2731,-353.5 2893,-353.5 2893,-312.5 2731,-312.5"/>
<text text-anchor="start" x="2739" y="-341.5" font-family="Helvetica,sans-Serif" font-size="10.00">/home/travis/build</text>
<text text-anchor="start" x="2739" y="-330.5" font-family="Helvetica,sans-Serif" font-size="10.00">/AliceO2Group/AliceO2</text>
<text text-anchor="middle" x="2812" y="-319.5" font-family="Helvetica,sans-Serif" font-size="10.00">/Steer/include/Steer/O2RunSim.h</text>
</a>
</g>
</g>
<!-- Node24&#45;&gt;Node25 -->
<g id="edge26" class="edge"><title>Node24&#45;&gt;Node25</title>
<path fill="none" stroke="midnightblue" d="M2812,-385.881C2812,-375.133 2812,-363.309 2812,-353.667"/>
<polygon fill="midnightblue" stroke="midnightblue" points="2808.5,-386.15 2812,-396.15 2815.5,-386.15 2808.5,-386.15"/>
</g>
<!-- Node28 -->
<g id="node28" class="node"><title>Node28</title>
<g id="a_node28"><a xlink:href="../../df/d3b/O2MCApplication_8cxx.html" target="_top" xlink:title="/home/travis/build\l/AliceO2Group/AliceO2\l/Steer/src/O2MCApplication.cxx">
<polygon fill="none" stroke="black" points="2911,-312.5 2911,-353.5 3069,-353.5 3069,-312.5 2911,-312.5"/>
<text text-anchor="start" x="2919" y="-341.5" font-family="Helvetica,sans-Serif" font-size="10.00">/home/travis/build</text>
<text text-anchor="start" x="2919" y="-330.5" font-family="Helvetica,sans-Serif" font-size="10.00">/AliceO2Group/AliceO2</text>
<text text-anchor="middle" x="2990" y="-319.5" font-family="Helvetica,sans-Serif" font-size="10.00">/Steer/src/O2MCApplication.cxx</text>
</a>
</g>
</g>
<!-- Node24&#45;&gt;Node28 -->
<g id="edge30" class="edge"><title>Node24&#45;&gt;Node28</title>
<path fill="none" stroke="midnightblue" d="M2863.78,-392.144C2890.34,-379.909 2922.29,-365.19 2947.4,-353.623"/>
<polygon fill="midnightblue" stroke="midnightblue" points="2862.25,-388.996 2854.64,-396.359 2865.18,-395.354 2862.25,-388.996"/>
</g>
<!-- Node26 -->
<g id="node26" class="node"><title>Node26</title>
<g id="a_node26"><a xlink:href="../../dc/d6b/o2sim_8C.html" target="_top" xlink:title="/home/travis/build\l/AliceO2Group/AliceO2\l/macro/o2sim.C">
<polygon fill="none" stroke="black" points="2706,-234.5 2706,-275.5 2824,-275.5 2824,-234.5 2706,-234.5"/>
<text text-anchor="start" x="2714" y="-263.5" font-family="Helvetica,sans-Serif" font-size="10.00">/home/travis/build</text>
<text text-anchor="start" x="2714" y="-252.5" font-family="Helvetica,sans-Serif" font-size="10.00">/AliceO2Group/AliceO2</text>
<text text-anchor="middle" x="2765" y="-241.5" font-family="Helvetica,sans-Serif" font-size="10.00">/macro/o2sim.C</text>
</a>
</g>
</g>
<!-- Node25&#45;&gt;Node26 -->
<g id="edge27" class="edge"><title>Node25&#45;&gt;Node26</title>
<path fill="none" stroke="midnightblue" d="M2794.53,-303.757C2788.72,-294.354 2782.38,-284.096 2777.06,-275.506"/>
<polygon fill="midnightblue" stroke="midnightblue" points="2791.66,-305.764 2799.9,-312.428 2797.61,-302.082 2791.66,-305.764"/>
</g>
<!-- Node26&#45;&gt;Node20 -->
<g id="edge28" class="edge"><title>Node26&#45;&gt;Node20</title>
<path fill="none" stroke="midnightblue" d="M2708.65,-230.469C2683.32,-219.892 2653.78,-207.557 2629.71,-197.506"/>
<polygon fill="midnightblue" stroke="midnightblue" points="2707.55,-233.804 2718.13,-234.428 2710.25,-227.345 2707.55,-233.804"/>
</g>
<!-- Node27 -->
<g id="node27" class="node"><title>Node27</title>
<g id="a_node27"><a xlink:href="../../d8/d07/o2sim_8cxx.html" target="_top" xlink:title="/home/travis/build\l/AliceO2Group/AliceO2\l/run/o2sim.cxx">
<polygon fill="none" stroke="black" points="2706,-156.5 2706,-197.5 2824,-197.5 2824,-156.5 2706,-156.5"/>
<text text-anchor="start" x="2714" y="-185.5" font-family="Helvetica,sans-Serif" font-size="10.00">/home/travis/build</text>
<text text-anchor="start" x="2714" y="-174.5" font-family="Helvetica,sans-Serif" font-size="10.00">/AliceO2Group/AliceO2</text>
<text text-anchor="middle" x="2765" y="-163.5" font-family="Helvetica,sans-Serif" font-size="10.00">/run/o2sim.cxx</text>
</a>
</g>
</g>
<!-- Node26&#45;&gt;Node27 -->
<g id="edge29" class="edge"><title>Node26&#45;&gt;Node27</title>
<path fill="none" stroke="midnightblue" d="M2765,-224.297C2765,-215.301 2765,-205.653 2765,-197.506"/>
<polygon fill="midnightblue" stroke="midnightblue" points="2761.5,-224.428 2765,-234.428 2768.5,-224.428 2761.5,-224.428"/>
</g>
</g>
</svg>
