<?xml version="1.0" encoding="UTF-8" standalone="no"?>
<!DOCTYPE svg PUBLIC "-//W3C//DTD SVG 1.1//EN"
 "http://www.w3.org/Graphics/SVG/1.1/DTD/svg11.dtd">
<!-- Generated by graphviz version 2.36.0 (20140111.2315)
 -->
<!-- Title: /home/travis/build/AliceO2Group/AliceO2/DataFormats/Detectors/TPC/include/DataFormatsTPC/Helpers.h Pages: 1 -->
<svg width="827pt" height="252pt"
 viewBox="0.00 0.00 827.00 252.00" xmlns="http://www.w3.org/2000/svg" xmlns:xlink="http://www.w3.org/1999/xlink">
<g id="graph0" class="graph" transform="scale(1 1) rotate(0) translate(4 248)">
<title>/home/travis/build/AliceO2Group/AliceO2/DataFormats/Detectors/TPC/include/DataFormatsTPC/Helpers.h</title>
<!-- Node1 -->
<g id="node1" class="node"><title>Node1</title>
<polygon fill="#bfbfbf" stroke="black" points="81,-180.5 81,-243.5 235,-243.5 235,-180.5 81,-180.5"/>
<text text-anchor="start" x="89" y="-231.5" font-family="Helvetica,sans-Serif" font-size="10.00">/home/travis/build</text>
<text text-anchor="start" x="89" y="-220.5" font-family="Helvetica,sans-Serif" font-size="10.00">/AliceO2Group/AliceO2</text>
<text text-anchor="start" x="89" y="-209.5" font-family="Helvetica,sans-Serif" font-size="10.00">/DataFormats/Detectors</text>
<text text-anchor="start" x="89" y="-198.5" font-family="Helvetica,sans-Serif" font-size="10.00">/TPC/include/DataFormatsTPC</text>
<text text-anchor="middle" x="158" y="-187.5" font-family="Helvetica,sans-Serif" font-size="10.00">/Helpers.h</text>
</g>
<!-- Node2 -->
<g id="node2" class="node"><title>Node2</title>
<polygon fill="none" stroke="#bfbfbf" points="0,-124.5 0,-143.5 52,-143.5 52,-124.5 0,-124.5"/>
<text text-anchor="middle" x="26" y="-131.5" font-family="Helvetica,sans-Serif" font-size="10.00">memory</text>
</g>
<!-- Node1&#45;&gt;Node2 -->
<g id="edge1" class="edge"><title>Node1&#45;&gt;Node2</title>
<path fill="none" stroke="midnightblue" d="M104.691,-180.307C85.6111,-169.322 65.0607,-157.489 49.7468,-148.672"/>
<polygon fill="midnightblue" stroke="midnightblue" points="51.3611,-145.563 40.9485,-143.607 47.8683,-151.63 51.3611,-145.563"/>
</g>
<!-- Node3 -->
<g id="node3" class="node"><title>Node3</title>
<polygon fill="none" stroke="#bfbfbf" points="70,-124.5 70,-143.5 116,-143.5 116,-124.5 70,-124.5"/>
<text text-anchor="middle" x="93" y="-131.5" font-family="Helvetica,sans-Serif" font-size="10.00">cstring</text>
</g>
<!-- Node1&#45;&gt;Node3 -->
<g id="edge2" class="edge"><title>Node1&#45;&gt;Node3</title>
<path fill="none" stroke="midnightblue" d="M131.562,-180.088C123.214,-170.328 114.314,-159.921 107.169,-151.567"/>
<polygon fill="midnightblue" stroke="midnightblue" points="109.616,-149.043 100.456,-143.718 104.296,-153.593 109.616,-149.043"/>
</g>
<!-- Node4 -->
<g id="node4" class="node"><title>Node4</title>
<g id="a_node4"><a xlink:href="../../d3/dc4/ClusterHardware_8h.html" target="_top" xlink:title="Class of a TPC cluster as produced by the hardware cluster finder (needs a postprocessing step to con...">
<polygon fill="none" stroke="black" points="134.5,-124.5 134.5,-143.5 313.5,-143.5 313.5,-124.5 134.5,-124.5"/>
<text text-anchor="middle" x="224" y="-131.5" font-family="Helvetica,sans-Serif" font-size="10.00">DataFormatsTPC/ClusterHardware.h</text>
</a>
</g>
</g>
<!-- Node1&#45;&gt;Node4 -->
<g id="edge3" class="edge"><title>Node1&#45;&gt;Node4</title>
<path fill="none" stroke="midnightblue" d="M184.845,-180.088C193.41,-170.225 202.549,-159.701 209.841,-151.304"/>
<polygon fill="midnightblue" stroke="midnightblue" points="212.515,-153.563 216.429,-143.718 207.229,-148.974 212.515,-153.563"/>
</g>
<!-- Node6 -->
<g id="node6" class="node"><title>Node6</title>
<g id="a_node6"><a xlink:href="../../de/dcd/ClusterNative_8h.html" target="_top" xlink:title="Class of a TPC cluster in TPC&#45;native coordinates (row, time) ">
<polygon fill="none" stroke="black" points="331.5,-124.5 331.5,-143.5 496.5,-143.5 496.5,-124.5 331.5,-124.5"/>
<text text-anchor="middle" x="414" y="-131.5" font-family="Helvetica,sans-Serif" font-size="10.00">DataFormatsTPC/ClusterNative.h</text>
</a>
</g>
</g>
<!-- Node1&#45;&gt;Node6 -->
<g id="edge5" class="edge"><title>Node1&#45;&gt;Node6</title>
<path fill="none" stroke="midnightblue" d="M235.156,-188.094C281.448,-174.352 338.334,-157.463 375.342,-146.477"/>
<polygon fill="midnightblue" stroke="midnightblue" points="376.638,-149.743 385.228,-143.542 374.645,-143.032 376.638,-149.743"/>
</g>
<!-- Node5 -->
<g id="node5" class="node"><title>Node5</title>
<polygon fill="none" stroke="#bfbfbf" points="239,-0.5 239,-19.5 285,-19.5 285,-0.5 239,-0.5"/>
<text text-anchor="middle" x="262" y="-7.5" font-family="Helvetica,sans-Serif" font-size="10.00">cstdint</text>
</g>
<!-- Node4&#45;&gt;Node5 -->
<g id="edge4" class="edge"><title>Node4&#45;&gt;Node5</title>
<path fill="none" stroke="midnightblue" d="M226.733,-124.226C232.895,-104.442 247.981,-56.0071 256.286,-29.3436"/>
<polygon fill="midnightblue" stroke="midnightblue" points="259.66,-30.2829 259.292,-19.6944 252.976,-28.2012 259.66,-30.2829"/>
</g>
<!-- Node6&#45;&gt;Node5 -->
<g id="edge6" class="edge"><title>Node6&#45;&gt;Node5</title>
<path fill="none" stroke="midnightblue" d="M348.875,-124.441C324.536,-118.113 298.567,-107.114 281,-88 266.541,-72.2672 262.63,-47.3129 261.792,-30.0988"/>
<polygon fill="midnightblue" stroke="midnightblue" points="265.283,-29.5643 261.611,-19.6264 258.284,-29.6854 265.283,-29.5643"/>
</g>
<!-- Node7 -->
<g id="node7" class="node"><title>Node7</title>
<polygon fill="none" stroke="#bfbfbf" points="290,-62.5 290,-81.5 334,-81.5 334,-62.5 290,-62.5"/>
<text text-anchor="middle" x="312" y="-69.5" font-family="Helvetica,sans-Serif" font-size="10.00">vector</text>
</g>
<!-- Node6&#45;&gt;Node7 -->
<g id="edge7" class="edge"><title>Node6&#45;&gt;Node7</title>
<path fill="none" stroke="midnightblue" d="M399.386,-124.403C382.647,-114.557 354.996,-98.2915 335.281,-86.6949"/>
<polygon fill="midnightblue" stroke="midnightblue" points="336.981,-83.6341 326.587,-81.5806 333.432,-89.6676 336.981,-83.6341"/>
</g>
<!-- Node8 -->
<g id="node8" class="node"><title>Node8</title>
<polygon fill="none" stroke="#bfbfbf" points="352.5,-62.5 352.5,-81.5 401.5,-81.5 401.5,-62.5 352.5,-62.5"/>
<text text-anchor="middle" x="377" y="-69.5" font-family="Helvetica,sans-Serif" font-size="10.00">cstddef</text>
</g>
<!-- Node6&#45;&gt;Node8 -->
<g id="edge8" class="edge"><title>Node6&#45;&gt;Node8</title>
<path fill="none" stroke="midnightblue" d="M408.699,-124.403C403.204,-115.493 394.467,-101.325 387.556,-90.1177"/>
<polygon fill="midnightblue" stroke="midnightblue" points="390.519,-88.2552 382.291,-81.5806 384.561,-91.9294 390.519,-88.2552"/>
</g>
<!-- Node9 -->
<g id="node9" class="node"><title>Node9</title>
<polygon fill="none" stroke="#bfbfbf" points="419.5,-62.5 419.5,-81.5 478.5,-81.5 478.5,-62.5 419.5,-62.5"/>
<text text-anchor="middle" x="449" y="-69.5" font-family="Helvetica,sans-Serif" font-size="10.00">stdexcept</text>
</g>
<!-- Node6&#45;&gt;Node9 -->
<g id="edge9" class="edge"><title>Node6&#45;&gt;Node9</title>
<path fill="none" stroke="midnightblue" d="M419.015,-124.403C424.161,-115.582 432.312,-101.608 438.818,-90.4548"/>
<polygon fill="midnightblue" stroke="midnightblue" points="441.979,-91.982 443.995,-81.5806 435.933,-88.4548 441.979,-91.982"/>
</g>
<!-- Node10 -->
<g id="node10" class="node"><title>Node10</title>
<g id="a_node10"><a xlink:href="../../d0/dda/DataFormats_2Detectors_2TPC_2include_2DataFormatsTPC_2Constants_8h.html" target="_top" xlink:title="DataFormatsTPC/Constants.h">
<polygon fill="none" stroke="black" points="496,-62.5 496,-81.5 646,-81.5 646,-62.5 496,-62.5"/>
<text text-anchor="middle" x="571" y="-69.5" font-family="Helvetica,sans-Serif" font-size="10.00">DataFormatsTPC/Constants.h</text>
</a>
</g>
</g>
<!-- Node6&#45;&gt;Node10 -->
<g id="edge10" class="edge"><title>Node6&#45;&gt;Node10</title>
<path fill="none" stroke="midnightblue" d="M436.494,-124.403C463.309,-114.156 508.315,-96.9561 538.809,-85.3021"/>
<polygon fill="midnightblue" stroke="midnightblue" points="540.456,-88.4199 548.547,-81.5806 537.957,-81.8811 540.456,-88.4199"/>
</g>
<!-- Node11 -->
<g id="node11" class="node"><title>Node11</title>
<g id="a_node11"><a xlink:href="../../d8/dc8/ClusterGroupAttribute_8h.html" target="_top" xlink:title="Meta data for a group describing it by sector number and global padrow. ">
<polygon fill="none" stroke="black" points="664.5,-57 664.5,-87 819.5,-87 819.5,-57 664.5,-57"/>
<text text-anchor="start" x="672.5" y="-75" font-family="Helvetica,sans-Serif" font-size="10.00">DataFormatsTPC/ClusterGroup</text>
<text text-anchor="middle" x="742" y="-64" font-family="Helvetica,sans-Serif" font-size="10.00">Attribute.h</text>
</a>
</g>
</g>
<!-- Node6&#45;&gt;Node11 -->
<g id="edge11" class="edge"><title>Node6&#45;&gt;Node11</title>
<path fill="none" stroke="midnightblue" d="M460.646,-124.467C511.179,-115.223 592.929,-100.269 655.318,-88.8564"/>
<polygon fill="midnightblue" stroke="midnightblue" points="655.951,-92.2989 665.158,-87.0565 654.691,-85.4132 655.951,-92.2989"/>
</g>
<!-- Node11&#45;&gt;Node5 -->
<g id="edge12" class="edge"><title>Node11&#45;&gt;Node5</title>
<path fill="none" stroke="midnightblue" d="M664.299,-57.5191C660.821,-56.9902 657.375,-56.4811 654,-56 521.391,-37.1009 362.658,-20.8188 295.077,-14.182"/>
<polygon fill="midnightblue" stroke="midnightblue" points="295.325,-10.6896 285.032,-13.2008 294.644,-17.6564 295.325,-10.6896"/>
</g>
</g>
</svg>
