<?xml version="1.0" encoding="UTF-8" standalone="no"?>
<!DOCTYPE svg PUBLIC "-//W3C//DTD SVG 1.1//EN"
 "http://www.w3.org/Graphics/SVG/1.1/DTD/svg11.dtd">
<!-- Generated by graphviz version 2.36.0 (20140111.2315)
 -->
<!-- Title: /home/travis/build/AliceO2Group/AliceO2/Framework/Core/include/Framework/SerializationMethods.h Pages: 1 -->
<svg width="202pt" height="174pt"
 viewBox="0.00 0.00 202.00 174.00" xmlns="http://www.w3.org/2000/svg" xmlns:xlink="http://www.w3.org/1999/xlink">
<g id="graph0" class="graph" transform="scale(1 1) rotate(0) translate(4 170)">
<title>/home/travis/build/AliceO2Group/AliceO2/Framework/Core/include/Framework/SerializationMethods.h</title>
<!-- Node1 -->
<g id="node1" class="node"><title>Node1</title>
<polygon fill="#bfbfbf" stroke="black" points="17,-113 17,-165 187,-165 187,-113 17,-113"/>
<text text-anchor="start" x="25" y="-153" font-family="Helvetica,sans-Serif" font-size="10.00">/home/travis/build</text>
<text text-anchor="start" x="25" y="-142" font-family="Helvetica,sans-Serif" font-size="10.00">/AliceO2Group/AliceO2</text>
<text text-anchor="start" x="25" y="-131" font-family="Helvetica,sans-Serif" font-size="10.00">/Framework/Core/include</text>
<text text-anchor="middle" x="102" y="-120" font-family="Helvetica,sans-Serif" font-size="10.00">/Framework/SerializationMethods.h</text>
</g>
<!-- Node2 -->
<g id="node2" class="node"><title>Node2</title>
<g id="a_node2"><a xlink:href="../../d0/d95/TypeTraits_8h.html" target="_top" xlink:title="Framework/TypeTraits.h">
<polygon fill="none" stroke="black" points="40.5,-56.5 40.5,-75.5 163.5,-75.5 163.5,-56.5 40.5,-56.5"/>
<text text-anchor="middle" x="102" y="-63.5" font-family="Helvetica,sans-Serif" font-size="10.00">Framework/TypeTraits.h</text>
</a>
</g>
</g>
<!-- Node1&#45;&gt;Node2 -->
<g id="edge1" class="edge"><title>Node1&#45;&gt;Node2</title>
<path fill="none" stroke="midnightblue" d="M102,-112.768C102,-103.89 102,-94.0737 102,-85.8165"/>
<polygon fill="midnightblue" stroke="midnightblue" points="105.5,-85.7571 102,-75.7572 98.5001,-85.7572 105.5,-85.7571"/>
</g>
<!-- Node3 -->
<g id="node3" class="node"><title>Node3</title>
<polygon fill="none" stroke="#bfbfbf" points="0,-0.5 0,-19.5 62,-19.5 62,-0.5 0,-0.5"/>
<text text-anchor="middle" x="31" y="-7.5" font-family="Helvetica,sans-Serif" font-size="10.00">type_traits</text>
</g>
<!-- Node2&#45;&gt;Node3 -->
<g id="edge2" class="edge"><title>Node2&#45;&gt;Node3</title>
<path fill="none" stroke="midnightblue" d="M90.5926,-56.324C79.8912,-48.1849 63.6593,-35.8395 50.8372,-26.0874"/>
<polygon fill="midnightblue" stroke="midnightblue" points="52.6932,-23.1018 42.6149,-19.8339 48.4556,-28.6734 52.6932,-23.1018"/>
</g>
<!-- Node4 -->
<g id="node4" class="node"><title>Node4</title>
<polygon fill="none" stroke="#bfbfbf" points="80,-0.5 80,-19.5 124,-19.5 124,-0.5 80,-0.5"/>
<text text-anchor="middle" x="102" y="-7.5" font-family="Helvetica,sans-Serif" font-size="10.00">vector</text>
</g>
<!-- Node2&#45;&gt;Node4 -->
<g id="edge3" class="edge"><title>Node2&#45;&gt;Node4</title>
<path fill="none" stroke="midnightblue" d="M102,-56.083C102,-49.0059 102,-38.8611 102,-29.9865"/>
<polygon fill="midnightblue" stroke="midnightblue" points="105.5,-29.751 102,-19.7511 98.5001,-29.7511 105.5,-29.751"/>
</g>
<!-- Node5 -->
<g id="node5" class="node"><title>Node5</title>
<polygon fill="none" stroke="#bfbfbf" points="142,-0.5 142,-19.5 194,-19.5 194,-0.5 142,-0.5"/>
<text text-anchor="middle" x="168" y="-7.5" font-family="Helvetica,sans-Serif" font-size="10.00">memory</text>
</g>
<!-- Node2&#45;&gt;Node5 -->
<g id="edge4" class="edge"><title>Node2&#45;&gt;Node5</title>
<path fill="none" stroke="midnightblue" d="M112.604,-56.324C122.456,-48.2631 137.351,-36.0765 149.215,-26.3695"/>
<polygon fill="midnightblue" stroke="midnightblue" points="151.68,-28.8752 157.203,-19.8339 147.247,-23.4575 151.68,-28.8752"/>
</g>
</g>
</svg>
