<?xml version="1.0" encoding="UTF-8" standalone="no"?>
<!DOCTYPE svg PUBLIC "-//W3C//DTD SVG 1.1//EN"
 "http://www.w3.org/Graphics/SVG/1.1/DTD/svg11.dtd">
<!-- Generated by graphviz version 2.36.0 (20140111.2315)
 -->
<!-- Title: /home/travis/build/AliceO2Group/AliceO2/Detectors/MUON/MID/Clustering/src/ClusterizerDevice.h Pages: 1 -->
<svg width="610pt" height="298pt"
 viewBox="0.00 0.00 610.00 298.00" xmlns="http://www.w3.org/2000/svg" xmlns:xlink="http://www.w3.org/1999/xlink">
<g id="graph0" class="graph" transform="scale(1 1) rotate(0) translate(4 294)">
<title>/home/travis/build/AliceO2Group/AliceO2/Detectors/MUON/MID/Clustering/src/ClusterizerDevice.h</title>
<!-- Node1 -->
<g id="node1" class="node"><title>Node1</title>
<polygon fill="#bfbfbf" stroke="black" points="43.5,-237 43.5,-289 208.5,-289 208.5,-237 43.5,-237"/>
<text text-anchor="start" x="51.5" y="-277" font-family="Helvetica,sans-Serif" font-size="10.00">/home/travis/build</text>
<text text-anchor="start" x="51.5" y="-266" font-family="Helvetica,sans-Serif" font-size="10.00">/AliceO2Group/AliceO2</text>
<text text-anchor="start" x="51.5" y="-255" font-family="Helvetica,sans-Serif" font-size="10.00">/Detectors/MUON/MID/Clustering</text>
<text text-anchor="middle" x="126" y="-244" font-family="Helvetica,sans-Serif" font-size="10.00">/src/ClusterizerDevice.h</text>
</g>
<!-- Node2 -->
<g id="node2" class="node"><title>Node2</title>
<polygon fill="none" stroke="#bfbfbf" points="17,-180.5 17,-199.5 105,-199.5 105,-180.5 17,-180.5"/>
<text text-anchor="middle" x="61" y="-187.5" font-family="Helvetica,sans-Serif" font-size="10.00">FairMQDevice.h</text>
</g>
<!-- Node1&#45;&gt;Node2 -->
<g id="edge1" class="edge"><title>Node1&#45;&gt;Node2</title>
<path fill="none" stroke="midnightblue" d="M102.9,-236.768C93.941,-226.982 83.9387,-216.056 75.9542,-207.335"/>
<polygon fill="midnightblue" stroke="midnightblue" points="78.3512,-204.77 69.0171,-199.757 73.1881,-209.496 78.3512,-204.77"/>
</g>
<!-- Node3 -->
<g id="node3" class="node"><title>Node3</title>
<g id="a_node3"><a xlink:href="../../d5/d53/Clusterizer_8h.html" target="_top" xlink:title="MIDClustering/Clusterizer.h">
<polygon fill="none" stroke="black" points="123,-180.5 123,-199.5 261,-199.5 261,-180.5 123,-180.5"/>
<text text-anchor="middle" x="192" y="-187.5" font-family="Helvetica,sans-Serif" font-size="10.00">MIDClustering/Clusterizer.h</text>
</a>
</g>
</g>
<!-- Node1&#45;&gt;Node3 -->
<g id="edge2" class="edge"><title>Node1&#45;&gt;Node3</title>
<path fill="none" stroke="midnightblue" d="M149.455,-236.768C158.552,-226.982 168.708,-216.056 176.816,-207.335"/>
<polygon fill="midnightblue" stroke="midnightblue" points="179.615,-209.464 183.86,-199.757 174.488,-204.698 179.615,-209.464"/>
</g>
<!-- Node4 -->
<g id="node4" class="node"><title>Node4</title>
<polygon fill="none" stroke="#bfbfbf" points="-0.5,-124.5 -0.5,-143.5 82.5,-143.5 82.5,-124.5 -0.5,-124.5"/>
<text text-anchor="middle" x="41" y="-131.5" font-family="Helvetica,sans-Serif" font-size="10.00">unordered_map</text>
</g>
<!-- Node3&#45;&gt;Node4 -->
<g id="edge3" class="edge"><title>Node3&#45;&gt;Node4</title>
<path fill="none" stroke="midnightblue" d="M168.074,-180.444C142.781,-171.399 102.698,-157.064 74.3202,-146.916"/>
<polygon fill="midnightblue" stroke="midnightblue" points="75.4091,-143.588 64.8145,-143.516 73.0519,-150.179 75.4091,-143.588"/>
</g>
<!-- Node5 -->
<g id="node5" class="node"><title>Node5</title>
<polygon fill="none" stroke="#bfbfbf" points="64,-62.5 64,-81.5 108,-81.5 108,-62.5 64,-62.5"/>
<text text-anchor="middle" x="86" y="-69.5" font-family="Helvetica,sans-Serif" font-size="10.00">vector</text>
</g>
<!-- Node3&#45;&gt;Node5 -->
<g id="edge4" class="edge"><title>Node3&#45;&gt;Node5</title>
<path fill="none" stroke="midnightblue" d="M176.957,-180.406C163.549,-172.24 143.945,-159.002 130,-144 115.08,-127.948 102.442,-106.105 94.5908,-90.9024"/>
<polygon fill="midnightblue" stroke="midnightblue" points="97.5437,-88.9806 89.9513,-81.5911 91.2784,-92.1025 97.5437,-88.9806"/>
</g>
<!-- Node6 -->
<g id="node6" class="node"><title>Node6</title>
<g id="a_node6"><a xlink:href="../../d4/d73/MID_2Base_2include_2MIDBase_2Mapping_8h.html" target="_top" xlink:title="Mapping for MID. ">
<polygon fill="none" stroke="black" points="139,-124.5 139,-143.5 245,-143.5 245,-124.5 139,-124.5"/>
<text text-anchor="middle" x="192" y="-131.5" font-family="Helvetica,sans-Serif" font-size="10.00">MIDBase/Mapping.h</text>
</a>
</g>
</g>
<!-- Node3&#45;&gt;Node6 -->
<g id="edge5" class="edge"><title>Node3&#45;&gt;Node6</title>
<path fill="none" stroke="midnightblue" d="M192,-180.083C192,-173.006 192,-162.861 192,-153.986"/>
<polygon fill="midnightblue" stroke="midnightblue" points="195.5,-153.751 192,-143.751 188.5,-153.751 195.5,-153.751"/>
</g>
<!-- Node9 -->
<g id="node9" class="node"><title>Node9</title>
<g id="a_node9"><a xlink:href="../../d6/d31/Cluster2D_8h.html" target="_top" xlink:title="Reconstructed cluster per RPC. ">
<polygon fill="none" stroke="black" points="454,-124.5 454,-143.5 602,-143.5 602,-124.5 454,-124.5"/>
<text text-anchor="middle" x="528" y="-131.5" font-family="Helvetica,sans-Serif" font-size="10.00">DataFormatsMID/Cluster2D.h</text>
</a>
</g>
</g>
<!-- Node3&#45;&gt;Node9 -->
<g id="edge10" class="edge"><title>Node3&#45;&gt;Node9</title>
<path fill="none" stroke="midnightblue" d="M245.24,-180.444C304.96,-170.846 401.741,-155.292 465.132,-145.104"/>
<polygon fill="midnightblue" stroke="midnightblue" points="465.691,-148.559 475.009,-143.516 464.58,-141.648 465.691,-148.559"/>
</g>
<!-- Node12 -->
<g id="node12" class="node"><title>Node12</title>
<g id="a_node12"><a xlink:href="../../d3/d53/ColumnData_8h.html" target="_top" xlink:title="Strip pattern (aka digits) ">
<polygon fill="none" stroke="black" points="278,-124.5 278,-143.5 436,-143.5 436,-124.5 278,-124.5"/>
<text text-anchor="middle" x="357" y="-131.5" font-family="Helvetica,sans-Serif" font-size="10.00">DataFormatsMID/ColumnData.h</text>
</a>
</g>
</g>
<!-- Node3&#45;&gt;Node12 -->
<g id="edge13" class="edge"><title>Node3&#45;&gt;Node12</title>
<path fill="none" stroke="midnightblue" d="M218.145,-180.444C246.023,-171.32 290.348,-156.813 321.4,-146.651"/>
<polygon fill="midnightblue" stroke="midnightblue" points="322.562,-149.953 330.978,-143.516 320.385,-143.3 322.562,-149.953"/>
</g>
<!-- Node6&#45;&gt;Node5 -->
<g id="edge7" class="edge"><title>Node6&#45;&gt;Node5</title>
<path fill="none" stroke="midnightblue" d="M176.813,-124.403C159.338,-114.512 130.421,-98.1442 109.917,-86.5378"/>
<polygon fill="midnightblue" stroke="midnightblue" points="111.586,-83.4607 101.159,-81.5806 108.138,-89.5525 111.586,-83.4607"/>
</g>
<!-- Node7 -->
<g id="node7" class="node"><title>Node7</title>
<polygon fill="none" stroke="#bfbfbf" points="197,-0.5 197,-19.5 235,-19.5 235,-0.5 197,-0.5"/>
<text text-anchor="middle" x="216" y="-7.5" font-family="Helvetica,sans-Serif" font-size="10.00">array</text>
</g>
<!-- Node6&#45;&gt;Node7 -->
<g id="edge6" class="edge"><title>Node6&#45;&gt;Node7</title>
<path fill="none" stroke="midnightblue" d="M181.562,-124.245C172.576,-115.969 160.254,-102.663 155,-88 150.203,-74.6114 148.589,-68.6955 155,-56 162.017,-42.1041 175.573,-31.4421 188.127,-23.9923"/>
<polygon fill="midnightblue" stroke="midnightblue" points="189.899,-27.0126 196.984,-19.1351 186.533,-20.8751 189.899,-27.0126"/>
</g>
<!-- Node8 -->
<g id="node8" class="node"><title>Node8</title>
<g id="a_node8"><a xlink:href="../../d7/d0a/MpArea_8h.html" target="_top" xlink:title="Mapping area for MID. ">
<polygon fill="none" stroke="black" points="164.5,-62.5 164.5,-81.5 267.5,-81.5 267.5,-62.5 164.5,-62.5"/>
<text text-anchor="middle" x="216" y="-69.5" font-family="Helvetica,sans-Serif" font-size="10.00">MIDBase/MpArea.h</text>
</a>
</g>
</g>
<!-- Node6&#45;&gt;Node8 -->
<g id="edge8" class="edge"><title>Node6&#45;&gt;Node8</title>
<path fill="none" stroke="midnightblue" d="M195.439,-124.403C198.896,-115.76 204.332,-102.17 208.746,-91.1341"/>
<polygon fill="midnightblue" stroke="midnightblue" points="212.103,-92.1653 212.568,-81.5806 205.604,-89.5655 212.103,-92.1653"/>
</g>
<!-- Node8&#45;&gt;Node7 -->
<g id="edge9" class="edge"><title>Node8&#45;&gt;Node7</title>
<path fill="none" stroke="midnightblue" d="M216,-62.4035C216,-53.9381 216,-40.7283 216,-29.8199"/>
<polygon fill="midnightblue" stroke="midnightblue" points="219.5,-29.5806 216,-19.5806 212.5,-29.5806 219.5,-29.5806"/>
</g>
<!-- Node10 -->
<g id="node10" class="node"><title>Node10</title>
<polygon fill="none" stroke="#bfbfbf" points="502.5,-57 502.5,-87 597.5,-87 597.5,-57 502.5,-57"/>
<text text-anchor="start" x="510.5" y="-75" font-family="Helvetica,sans-Serif" font-size="10.00">boost/serialization</text>
<text text-anchor="middle" x="550" y="-64" font-family="Helvetica,sans-Serif" font-size="10.00">/access.hpp</text>
</g>
<!-- Node9&#45;&gt;Node10 -->
<g id="edge11" class="edge"><title>Node9&#45;&gt;Node10</title>
<path fill="none" stroke="midnightblue" d="M531.152,-124.403C533.797,-117.189 537.707,-106.528 541.28,-96.7823"/>
<polygon fill="midnightblue" stroke="midnightblue" points="544.658,-97.7345 544.815,-87.1408 538.086,-95.3247 544.658,-97.7345"/>
</g>
<!-- Node11 -->
<g id="node11" class="node"><title>Node11</title>
<polygon fill="none" stroke="#bfbfbf" points="438,-62.5 438,-81.5 484,-81.5 484,-62.5 438,-62.5"/>
<text text-anchor="middle" x="461" y="-69.5" font-family="Helvetica,sans-Serif" font-size="10.00">cstdint</text>
</g>
<!-- Node9&#45;&gt;Node11 -->
<g id="edge12" class="edge"><title>Node9&#45;&gt;Node11</title>
<path fill="none" stroke="midnightblue" d="M518.401,-124.403C507.952,-115.047 491.032,-99.8948 478.264,-88.4599"/>
<polygon fill="midnightblue" stroke="midnightblue" points="480.366,-85.6445 470.582,-81.5806 475.696,-90.8592 480.366,-85.6445"/>
</g>
<!-- Node12&#45;&gt;Node7 -->
<g id="edge17" class="edge"><title>Node12&#45;&gt;Node7</title>
<path fill="none" stroke="midnightblue" d="M348.325,-124.103C333.831,-109.389 303.56,-79.2985 276,-56 263.322,-45.2822 248.389,-34.0781 236.593,-25.5306"/>
<polygon fill="midnightblue" stroke="midnightblue" points="238.438,-22.5474 228.272,-19.5642 234.359,-28.236 238.438,-22.5474"/>
</g>
<!-- Node12&#45;&gt;Node10 -->
<g id="edge14" class="edge"><title>Node12&#45;&gt;Node10</title>
<path fill="none" stroke="midnightblue" d="M384.652,-124.403C413.33,-115.488 458.933,-101.311 494.99,-90.1014"/>
<polygon fill="midnightblue" stroke="midnightblue" points="496.375,-93.3363 504.885,-87.0253 494.297,-86.6518 496.375,-93.3363"/>
</g>
<!-- Node12&#45;&gt;Node11 -->
<g id="edge16" class="edge"><title>Node12&#45;&gt;Node11</title>
<path fill="none" stroke="midnightblue" d="M371.901,-124.403C388.968,-114.557 417.161,-98.2915 437.262,-86.6949"/>
<polygon fill="midnightblue" stroke="midnightblue" points="439.214,-89.6095 446.127,-81.5806 435.716,-83.5462 439.214,-89.6095"/>
</g>
<!-- Node13 -->
<g id="node13" class="node"><title>Node13</title>
<polygon fill="none" stroke="#bfbfbf" points="324.5,-57 324.5,-87 419.5,-87 419.5,-57 324.5,-57"/>
<text text-anchor="start" x="332.5" y="-75" font-family="Helvetica,sans-Serif" font-size="10.00">boost/serialization</text>
<text text-anchor="middle" x="372" y="-64" font-family="Helvetica,sans-Serif" font-size="10.00">/array.hpp</text>
</g>
<!-- Node12&#45;&gt;Node13 -->
<g id="edge15" class="edge"><title>Node12&#45;&gt;Node13</title>
<path fill="none" stroke="midnightblue" d="M359.149,-124.403C360.934,-117.265 363.562,-106.752 365.977,-97.0903"/>
<polygon fill="midnightblue" stroke="midnightblue" points="369.435,-97.6911 368.465,-87.1408 362.644,-95.9933 369.435,-97.6911"/>
</g>
</g>
</svg>
