<?xml version="1.0" encoding="UTF-8" standalone="no"?>
<!DOCTYPE svg PUBLIC "-//W3C//DTD SVG 1.1//EN"
 "http://www.w3.org/Graphics/SVG/1.1/DTD/svg11.dtd">
<!-- Generated by graphviz version 2.36.0 (20140111.2315)
 -->
<!-- Title: o2::ITSMFT::ITSMFTDPLDigitWriter Pages: 1 -->
<!--zoomable 892 -->
<svg id="main" version="1.1" xmlns="http://www.w3.org/2000/svg" xmlns:xlink="http://www.w3.org/1999/xlink" xml:space="preserve" onload="init(evt)">
<style type="text/css"><![CDATA[
.edge:hover path { stroke: red; }
.edge:hover polygon { stroke: red; fill: red; }
]]></style>
<script type="text/javascript"><![CDATA[
var edges = document.getElementsByTagName('g');
if (edges && edges.length) {
  for (var i=0;i<edges.length;i++) {
    if (edges[i].id.substr(0,4)=='edge') {
      edges[i].setAttribute('class','edge');
    }
  }
}
]]></script>
        <defs>
                <circle id="rim" cx="0" cy="0" r="7"/>
                <circle id="rim2" cx="0" cy="0" r="3.5"/>
                <g id="zoomPlus">
                        <use xlink:href="#rim" fill="#404040">
                                <set attributeName="fill" to="#808080" begin="zoomplus.mouseover" end="zoomplus.mouseout"/>
                        </use>
                        <path d="M-4,0h8M0,-4v8" fill="none" stroke="white" stroke-width="1.5" pointer-events="none"/>
                </g>
                <g id="zoomMin">
                        <use xlink:href="#rim" fill="#404040">
                                <set attributeName="fill" to="#808080" begin="zoomminus.mouseover" end="zoomminus.mouseout"/>
                        </use>
                        <path d="M-4,0h8" fill="none" stroke="white" stroke-width="1.5" pointer-events="none"/>
                </g>
                <g id="dirArrow">
                        <path fill="none" stroke="white" stroke-width="1.5" d="M0,-3.0v7 M-2.5,-0.5L0,-3.0L2.5,-0.5"/>
                </g>
               <g id="resetDef">
                       <use xlink:href="#rim2" fill="#404040">
                               <set attributeName="fill" to="#808080" begin="reset.mouseover" end="reset.mouseout"/>
                       </use>
               </g>
        </defs>

<script type="text/javascript">
var viewWidth = 752;
var viewHeight = 892;
var sectionId = 'dynsection-1';
</script>
<script xlink:href="../../svgpan.js"/>
<svg id="graph" class="graph">
<g id="viewport">
<title>o2::ITSMFT::ITSMFTDPLDigitWriter</title>
<!-- Node1 -->
<g id="node1" class="node"><title>Node1</title>
<polygon fill="#bfbfbf" stroke="black" points="383.5,-0.5 383.5,-101.5 534.5,-101.5 534.5,-0.5 383.5,-0.5"/>
<text text-anchor="start" x="391.5" y="-89.5" font-family="Helvetica,sans-Serif" font-size="10.00">o2::ITSMFT::ITSMFTDPLDigit</text>
<text text-anchor="middle" x="459" y="-78.5" font-family="Helvetica,sans-Serif" font-size="10.00">Writer</text>
<polyline fill="none" stroke="black" points="383.5,-71.5 534.5,-71.5 "/>
<text text-anchor="middle" x="459" y="-59.5" font-family="Helvetica,sans-Serif" font-size="10.00"> </text>
<polyline fill="none" stroke="black" points="383.5,-52.5 534.5,-52.5 "/>
<text text-anchor="start" x="391.5" y="-40.5" font-family="Helvetica,sans-Serif" font-size="10.00">+ init()</text>
<text text-anchor="start" x="391.5" y="-29.5" font-family="Helvetica,sans-Serif" font-size="10.00">+ run()</text>
<text text-anchor="start" x="391.5" y="-18.5" font-family="Helvetica,sans-Serif" font-size="10.00"># ITSMFTDPLDigitWriter()</text>
<text text-anchor="start" x="391.5" y="-7.5" font-family="Helvetica,sans-Serif" font-size="10.00"># getOrMakeBranch()</text>
</g>
<!-- Node2 -->
<g id="node2" class="node"><title>Node2</title>
<g id="a_node2"><a xlink:href="../../d9/db3/structo2_1_1header_1_1Descriptor.html" target="_top" xlink:title="{o2::header::Descriptor\l\&lt; gSizeDataOriginString,\l printDataOrigin \&gt;\n||+ Descriptor()\l+ Descriptor()\l+ Descriptor()\l+ Descriptor()\l+ operator=()\l+ operator ItgType()\l+ runtimeInit()\l+ operator==()\l+ operator==()\l+ operator\&lt;()\l+ operator!=()\l+ operator!=()\l+ as()\l+ print()\l}">
<polygon fill="none" stroke="black" points="97.5,-151 97.5,-373 222.5,-373 222.5,-151 97.5,-151"/>
<text text-anchor="start" x="105.5" y="-361" font-family="Helvetica,sans-Serif" font-size="10.00">o2::header::Descriptor</text>
<text text-anchor="start" x="105.5" y="-350" font-family="Helvetica,sans-Serif" font-size="10.00">&lt; gSizeDataOriginString,</text>
<text text-anchor="middle" x="160" y="-339" font-family="Helvetica,sans-Serif" font-size="10.00"> printDataOrigin &gt;</text>
<polyline fill="none" stroke="black" points="97.5,-332 222.5,-332 "/>
<text text-anchor="middle" x="160" y="-320" font-family="Helvetica,sans-Serif" font-size="10.00"> </text>
<polyline fill="none" stroke="black" points="97.5,-313 222.5,-313 "/>
<text text-anchor="start" x="105.5" y="-301" font-family="Helvetica,sans-Serif" font-size="10.00">+ Descriptor()</text>
<text text-anchor="start" x="105.5" y="-290" font-family="Helvetica,sans-Serif" font-size="10.00">+ Descriptor()</text>
<text text-anchor="start" x="105.5" y="-279" font-family="Helvetica,sans-Serif" font-size="10.00">+ Descriptor()</text>
<text text-anchor="start" x="105.5" y="-268" font-family="Helvetica,sans-Serif" font-size="10.00">+ Descriptor()</text>
<text text-anchor="start" x="105.5" y="-257" font-family="Helvetica,sans-Serif" font-size="10.00">+ operator=()</text>
<text text-anchor="start" x="105.5" y="-246" font-family="Helvetica,sans-Serif" font-size="10.00">+ operator ItgType()</text>
<text text-anchor="start" x="105.5" y="-235" font-family="Helvetica,sans-Serif" font-size="10.00">+ runtimeInit()</text>
<text text-anchor="start" x="105.5" y="-224" font-family="Helvetica,sans-Serif" font-size="10.00">+ operator==()</text>
<text text-anchor="start" x="105.5" y="-213" font-family="Helvetica,sans-Serif" font-size="10.00">+ operator==()</text>
<text text-anchor="start" x="105.5" y="-202" font-family="Helvetica,sans-Serif" font-size="10.00">+ operator&lt;()</text>
<text text-anchor="start" x="105.5" y="-191" font-family="Helvetica,sans-Serif" font-size="10.00">+ operator!=()</text>
<text text-anchor="start" x="105.5" y="-180" font-family="Helvetica,sans-Serif" font-size="10.00">+ operator!=()</text>
<text text-anchor="start" x="105.5" y="-169" font-family="Helvetica,sans-Serif" font-size="10.00">+ as()</text>
<text text-anchor="start" x="105.5" y="-158" font-family="Helvetica,sans-Serif" font-size="10.00">+ print()</text>
</a>
</g>
</g>
<!-- Node2&#45;&gt;Node1 -->
<g id="edge1" class="edge"><title>Node2&#45;&gt;Node1</title>
<path fill="none" stroke="#404040" d="M222.629,-182.724C243.73,-160.122 268.66,-136.998 295,-120 318.575,-104.786 346.12,-91.7937 371.831,-81.3669"/>
<polygon fill="none" stroke="#404040" points="371.947,-81.321 376.056,-75.3946 383.106,-76.9076 378.998,-82.8339 371.947,-81.321"/>
<text text-anchor="middle" x="316.5" y="-123.5" font-family="Helvetica,sans-Serif" font-size="10.00"> #mOrigin</text>
</g>
<!-- Node3 -->
<g id="node3" class="node"><title>Node3</title>
<polygon fill="none" stroke="#bfbfbf" points="0,-825.5 0,-882.5 38,-882.5 38,-825.5 0,-825.5"/>
<text text-anchor="middle" x="19" y="-870.5" font-family="Helvetica,sans-Serif" font-size="10.00">Type</text>
<polyline fill="none" stroke="#bfbfbf" points="0,-863.5 38,-863.5 "/>
<text text-anchor="middle" x="19" y="-851.5" font-family="Helvetica,sans-Serif" font-size="10.00"> </text>
<polyline fill="none" stroke="#bfbfbf" points="0,-844.5 38,-844.5 "/>
<text text-anchor="middle" x="19" y="-832.5" font-family="Helvetica,sans-Serif" font-size="10.00"> </text>
</g>
<!-- Node3&#45;&gt;Node2 -->
<g id="edge2" class="edge"><title>Node3&#45;&gt;Node2</title>
<path fill="none" stroke="#404040" d="M14.3749,-825.331C4.02634,-756.398 -16.3348,-572.452 34,-432 46.2042,-397.946 67.7688,-364.994 89.6458,-337.37"/>
<polygon fill="none" stroke="#404040" points="89.8246,-337.15 90.4963,-329.97 97.3821,-327.828 96.7104,-335.008 89.8246,-337.15"/>
<text text-anchor="middle" x="44" y="-546.5" font-family="Helvetica,sans-Serif" font-size="10.00"> +itg</text>
</g>
<!-- Node7 -->
<g id="node7" class="node"><title>Node7</title>
<g id="a_node7"><a xlink:href="../../d9/db3/structo2_1_1header_1_1Descriptor.html" target="_top" xlink:title="{o2::header::Descriptor\l\&lt; N, PrinterPolicy \&gt;\n||+ Descriptor()\l+ Descriptor()\l+ Descriptor()\l+ operator=()\l+ operator ItgType()\l+ Descriptor()\l+ runtimeInit()\l+ operator==()\l+ operator\&lt;()\l+ operator!=()\l+ operator==()\l+ operator!=()\l+ as()\l+ print()\l}">
<polygon fill="none" stroke="black" points="106.5,-443.5 106.5,-654.5 219.5,-654.5 219.5,-443.5 106.5,-443.5"/>
<text text-anchor="start" x="114.5" y="-642.5" font-family="Helvetica,sans-Serif" font-size="10.00">o2::header::Descriptor</text>
<text text-anchor="middle" x="163" y="-631.5" font-family="Helvetica,sans-Serif" font-size="10.00">&lt; N, PrinterPolicy &gt;</text>
<polyline fill="none" stroke="black" points="106.5,-624.5 219.5,-624.5 "/>
<text text-anchor="middle" x="163" y="-612.5" font-family="Helvetica,sans-Serif" font-size="10.00"> </text>
<polyline fill="none" stroke="black" points="106.5,-605.5 219.5,-605.5 "/>
<text text-anchor="start" x="114.5" y="-593.5" font-family="Helvetica,sans-Serif" font-size="10.00">+ Descriptor()</text>
<text text-anchor="start" x="114.5" y="-582.5" font-family="Helvetica,sans-Serif" font-size="10.00">+ Descriptor()</text>
<text text-anchor="start" x="114.5" y="-571.5" font-family="Helvetica,sans-Serif" font-size="10.00">+ Descriptor()</text>
<text text-anchor="start" x="114.5" y="-560.5" font-family="Helvetica,sans-Serif" font-size="10.00">+ operator=()</text>
<text text-anchor="start" x="114.5" y="-549.5" font-family="Helvetica,sans-Serif" font-size="10.00">+ operator ItgType()</text>
<text text-anchor="start" x="114.5" y="-538.5" font-family="Helvetica,sans-Serif" font-size="10.00">+ Descriptor()</text>
<text text-anchor="start" x="114.5" y="-527.5" font-family="Helvetica,sans-Serif" font-size="10.00">+ runtimeInit()</text>
<text text-anchor="start" x="114.5" y="-516.5" font-family="Helvetica,sans-Serif" font-size="10.00">+ operator==()</text>
<text text-anchor="start" x="114.5" y="-505.5" font-family="Helvetica,sans-Serif" font-size="10.00">+ operator&lt;()</text>
<text text-anchor="start" x="114.5" y="-494.5" font-family="Helvetica,sans-Serif" font-size="10.00">+ operator!=()</text>
<text text-anchor="start" x="114.5" y="-483.5" font-family="Helvetica,sans-Serif" font-size="10.00">+ operator==()</text>
<text text-anchor="start" x="114.5" y="-472.5" font-family="Helvetica,sans-Serif" font-size="10.00">+ operator!=()</text>
<text text-anchor="start" x="114.5" y="-461.5" font-family="Helvetica,sans-Serif" font-size="10.00">+ as()</text>
<text text-anchor="start" x="114.5" y="-450.5" font-family="Helvetica,sans-Serif" font-size="10.00">+ print()</text>
</a>
</g>
</g>
<!-- Node3&#45;&gt;Node7 -->
<g id="edge7" class="edge"><title>Node3&#45;&gt;Node7</title>
<path fill="none" stroke="#404040" d="M22.2716,-825.432C27.5335,-790.121 40.4576,-728.211 70,-684 77.0191,-673.496 83.6967,-675.522 92,-666 94.4054,-663.242 96.7798,-660.392 99.1181,-657.472"/>
<polygon fill="none" stroke="#404040" points="99.1386,-657.446 99.6278,-650.251 106.457,-647.936 105.968,-655.13 99.1386,-657.446"/>
<text text-anchor="middle" x="80" y="-742.5" font-family="Helvetica,sans-Serif" font-size="10.00"> +itg</text>
</g>
<!-- Node4 -->
<g id="node4" class="node"><title>Node4</title>
<polygon fill="none" stroke="#bfbfbf" points="62.5,-825.5 62.5,-882.5 97.5,-882.5 97.5,-825.5 62.5,-825.5"/>
<text text-anchor="middle" x="80" y="-870.5" font-family="Helvetica,sans-Serif" font-size="10.00">char</text>
<polyline fill="none" stroke="#bfbfbf" points="62.5,-863.5 97.5,-863.5 "/>
<text text-anchor="middle" x="80" y="-851.5" font-family="Helvetica,sans-Serif" font-size="10.00"> </text>
<polyline fill="none" stroke="#bfbfbf" points="62.5,-844.5 97.5,-844.5 "/>
<text text-anchor="middle" x="80" y="-832.5" font-family="Helvetica,sans-Serif" font-size="10.00"> </text>
</g>
<!-- Node4&#45;&gt;Node2 -->
<g id="edge3" class="edge"><title>Node4&#45;&gt;Node2</title>
<path fill="none" stroke="#404040" d="M75.2741,-825.415C64.581,-757.424 41.9969,-576.807 76,-432 79.9252,-415.284 85.7636,-398.33 92.5672,-381.935"/>
<polygon fill="none" stroke="#404040" points="92.6673,-381.703 91.3708,-374.609 97.42,-370.684 98.7166,-377.778 92.6673,-381.703"/>
<text text-anchor="middle" x="86.5" y="-546.5" font-family="Helvetica,sans-Serif" font-size="10.00"> +str</text>
</g>
<!-- Node4&#45;&gt;Node7 -->
<g id="edge8" class="edge"><title>Node4&#45;&gt;Node7</title>
<path fill="none" stroke="#404040" d="M87.5857,-825.308C97.4323,-789.362 115.231,-724.384 131.066,-666.58"/>
<polygon fill="none" stroke="#404040" points="131.137,-666.321 128.864,-659.477 134.307,-654.747 136.58,-661.591 131.137,-666.321"/>
<text text-anchor="middle" x="134.5" y="-742.5" font-family="Helvetica,sans-Serif" font-size="10.00"> +str</text>
</g>
<!-- Node5 -->
<g id="node5" class="node"><title>Node5</title>
<polygon fill="none" stroke="#bfbfbf" points="322.5,-825.5 322.5,-882.5 351.5,-882.5 351.5,-825.5 322.5,-825.5"/>
<text text-anchor="middle" x="337" y="-870.5" font-family="Helvetica,sans-Serif" font-size="10.00">int</text>
<polyline fill="none" stroke="#bfbfbf" points="322.5,-863.5 351.5,-863.5 "/>
<text text-anchor="middle" x="337" y="-851.5" font-family="Helvetica,sans-Serif" font-size="10.00"> </text>
<polyline fill="none" stroke="#bfbfbf" points="322.5,-844.5 351.5,-844.5 "/>
<text text-anchor="middle" x="337" y="-832.5" font-family="Helvetica,sans-Serif" font-size="10.00"> </text>
</g>
<!-- Node5&#45;&gt;Node2 -->
<g id="edge4" class="edge"><title>Node5&#45;&gt;Node2</title>
<path fill="none" stroke="#404040" d="M336.955,-825.468C336.483,-743.709 332.548,-503.595 303,-432 294.217,-410.72 262.341,-372.349 230.907,-337.542"/>
<polygon fill="none" stroke="#404040" points="230.584,-337.187 223.587,-335.441 222.507,-328.311 229.504,-330.057 230.584,-337.187"/>
<text text-anchor="middle" x="358.5" y="-557.5" font-family="Helvetica,sans-Serif" font-size="10.00"> +arraySize</text>
<text text-anchor="middle" x="358.5" y="-546.5" font-family="Helvetica,sans-Serif" font-size="10.00">+size</text>
<text text-anchor="middle" x="358.5" y="-535.5" font-family="Helvetica,sans-Serif" font-size="10.00">+bitcount</text>
</g>
<!-- Node5&#45;&gt;Node7 -->
<g id="edge9" class="edge"><title>Node5&#45;&gt;Node7</title>
<path fill="none" stroke="#404040" d="M322.362,-845.786C307.719,-837.882 285.487,-823.91 272,-806 237.326,-759.955 250.387,-737.116 228,-684 225.489,-678.043 222.849,-671.972 220.129,-665.866"/>
<polygon fill="none" stroke="#404040" points="220.095,-665.79 213.98,-661.967 215.156,-654.853 221.271,-658.675 220.095,-665.79"/>
<text text-anchor="middle" x="297.5" y="-753.5" font-family="Helvetica,sans-Serif" font-size="10.00"> +arraySize</text>
<text text-anchor="middle" x="297.5" y="-742.5" font-family="Helvetica,sans-Serif" font-size="10.00">+size</text>
<text text-anchor="middle" x="297.5" y="-731.5" font-family="Helvetica,sans-Serif" font-size="10.00">+bitcount</text>
</g>
<!-- Node9 -->
<g id="node9" class="node"><title>Node9</title>
<g id="a_node9"><a xlink:href="../../d6/dd5/classo2_1_1detectors_1_1DetID.html" target="_top" xlink:title="Static class with identifiers, bitmasks and names for ALICE detectors. ">
<polygon fill="none" stroke="black" points="406,-432.5 406,-665.5 512,-665.5 512,-432.5 406,-432.5"/>
<text text-anchor="middle" x="459" y="-653.5" font-family="Helvetica,sans-Serif" font-size="10.00">o2::detectors::DetID</text>
<polyline fill="none" stroke="black" points="406,-646.5 512,-646.5 "/>
<text text-anchor="start" x="414" y="-634.5" font-family="Helvetica,sans-Serif" font-size="10.00">+ TOF</text>
<text text-anchor="start" x="414" y="-623.5" font-family="Helvetica,sans-Serif" font-size="10.00">+ PHS</text>
<text text-anchor="start" x="414" y="-612.5" font-family="Helvetica,sans-Serif" font-size="10.00">+ EMC</text>
<text text-anchor="start" x="414" y="-601.5" font-family="Helvetica,sans-Serif" font-size="10.00">+ HMP</text>
<text text-anchor="start" x="414" y="-590.5" font-family="Helvetica,sans-Serif" font-size="10.00">+ MFT</text>
<text text-anchor="start" x="414" y="-579.5" font-family="Helvetica,sans-Serif" font-size="10.00">+ Last</text>
<polyline fill="none" stroke="black" points="406,-572.5 512,-572.5 "/>
<text text-anchor="start" x="414" y="-560.5" font-family="Helvetica,sans-Serif" font-size="10.00">+ DetID()</text>
<text text-anchor="start" x="414" y="-549.5" font-family="Helvetica,sans-Serif" font-size="10.00">+ DetID()</text>
<text text-anchor="start" x="414" y="-538.5" font-family="Helvetica,sans-Serif" font-size="10.00">+ DetID()</text>
<text text-anchor="start" x="414" y="-527.5" font-family="Helvetica,sans-Serif" font-size="10.00">+ operator=()</text>
<text text-anchor="start" x="414" y="-516.5" font-family="Helvetica,sans-Serif" font-size="10.00">+ getID()</text>
<text text-anchor="start" x="414" y="-505.5" font-family="Helvetica,sans-Serif" font-size="10.00">+ getMask()</text>
<text text-anchor="start" x="414" y="-494.5" font-family="Helvetica,sans-Serif" font-size="10.00">+ getName()</text>
<text text-anchor="start" x="414" y="-483.5" font-family="Helvetica,sans-Serif" font-size="10.00">+ operator int()</text>
<text text-anchor="start" x="414" y="-472.5" font-family="Helvetica,sans-Serif" font-size="10.00">+ DetID()</text>
<text text-anchor="start" x="414" y="-461.5" font-family="Helvetica,sans-Serif" font-size="10.00">+ getNDetectors()</text>
<text text-anchor="start" x="414" y="-450.5" font-family="Helvetica,sans-Serif" font-size="10.00">+ getName()</text>
<text text-anchor="start" x="414" y="-439.5" font-family="Helvetica,sans-Serif" font-size="10.00">+ getMask()</text>
</a>
</g>
</g>
<!-- Node5&#45;&gt;Node9 -->
<g id="edge14" class="edge"><title>Node5&#45;&gt;Node9</title>
<path fill="none" stroke="#404040" d="M345.899,-825.487C356.995,-791.797 376.953,-733.154 397,-684 398.383,-680.608 399.805,-677.178 401.257,-673.724"/>
<polygon fill="none" stroke="#404040" points="401.281,-673.668 399.954,-666.58 405.987,-662.628 407.314,-669.716 401.281,-673.668"/>
<text text-anchor="middle" x="426" y="-742.5" font-family="Helvetica,sans-Serif" font-size="10.00"> +nDetectors</text>
</g>
<!-- Node6 -->
<g id="node6" class="node"><title>Node6</title>
<polygon fill="none" stroke="#bfbfbf" points="194.5,-825 194.5,-883 223.5,-883 223.5,-825 194.5,-825"/>
<polyline fill="none" stroke="#bfbfbf" points="194.5,-863 223.5,-863 "/>
<text text-anchor="middle" x="209" y="-851" font-family="Helvetica,sans-Serif" font-size="10.00"> </text>
<polyline fill="none" stroke="#bfbfbf" points="194.5,-844 223.5,-844 "/>
<text text-anchor="middle" x="209" y="-832" font-family="Helvetica,sans-Serif" font-size="10.00"> </text>
</g>
<!-- Node6&#45;&gt;Node2 -->
<g id="edge5" class="edge"><title>Node6&#45;&gt;Node2</title>
<path fill="none" stroke="#404040" d="M219.268,-824.971C221.156,-818.798 222.881,-812.239 224,-806 256.503,-624.717 293.448,-568.842 242,-392 238.601,-380.318 233.79,-368.682 228.181,-357.451"/>
<polygon fill="none" stroke="#404040" points="228.173,-357.436 221.837,-353.992 222.578,-346.819 228.914,-350.263 228.173,-357.436"/>
<text text-anchor="middle" x="283.5" y="-546.5" font-family="Helvetica,sans-Serif" font-size="10.00"> +@14</text>
</g>
<!-- Node6&#45;&gt;Node7 -->
<g id="edge10" class="edge"><title>Node6&#45;&gt;Node7</title>
<path fill="none" stroke="#404040" d="M198.371,-824.945C196.337,-818.773 194.407,-812.221 193,-806 182.806,-760.921 175.955,-710.548 171.408,-666.49"/>
<polygon fill="none" stroke="#404040" points="171.407,-666.48 166.831,-660.907 170.215,-654.54 174.791,-660.112 171.407,-666.48"/>
<text text-anchor="middle" x="208.5" y="-742.5" font-family="Helvetica,sans-Serif" font-size="10.00"> +@14</text>
</g>
<!-- Node7&#45;&gt;Node2 -->
<g id="edge6" class="edge"><title>Node7&#45;&gt;Node2</title>
<path fill="none" stroke="orange" d="M130.104,-433.122C128.705,-419.327 128.464,-405.389 130,-392 130.708,-385.832 131.6,-379.531 132.63,-373.192"/>
<polygon fill="orange" stroke="orange" points="126.639,-433.625 131.318,-443.131 133.588,-432.782 126.639,-433.625"/>
<text text-anchor="start" x="130" y="-406" font-family="Helvetica,sans-Serif" font-size="10.00"> &lt; gSizeDataOriginString,</text>
<text text-anchor="middle" x="186" y="-395" font-family="Helvetica,sans-Serif" font-size="10.00"> printDataOrigin &gt;</text>
</g>
<!-- Node8 -->
<g id="node8" class="node"><title>Node8</title>
<polygon fill="none" stroke="#bfbfbf" points="272.5,-233.5 272.5,-290.5 373.5,-290.5 373.5,-233.5 272.5,-233.5"/>
<text text-anchor="middle" x="323" y="-278.5" font-family="Helvetica,sans-Serif" font-size="10.00">unique_ptr&lt; TFile &gt;</text>
<polyline fill="none" stroke="#bfbfbf" points="272.5,-271.5 373.5,-271.5 "/>
<text text-anchor="middle" x="323" y="-259.5" font-family="Helvetica,sans-Serif" font-size="10.00"> </text>
<polyline fill="none" stroke="#bfbfbf" points="272.5,-252.5 373.5,-252.5 "/>
<text text-anchor="middle" x="323" y="-240.5" font-family="Helvetica,sans-Serif" font-size="10.00"> </text>
</g>
<!-- Node8&#45;&gt;Node1 -->
<g id="edge11" class="edge"><title>Node8&#45;&gt;Node1</title>
<path fill="none" stroke="#404040" d="M321.218,-233.339C320.638,-202.962 323.902,-153.99 347,-120 354.073,-109.592 363.319,-100.506 373.469,-92.6583"/>
<polygon fill="none" stroke="#404040" points="373.684,-92.5038 376.229,-85.7565 383.436,-85.5101 380.891,-92.2574 373.684,-92.5038"/>
<text text-anchor="middle" x="371.5" y="-123.5" font-family="Helvetica,sans-Serif" font-size="10.00"> #mOutFile</text>
</g>
<!-- Node9&#45;&gt;Node1 -->
<g id="edge12" class="edge"><title>Node9&#45;&gt;Node1</title>
<path fill="none" stroke="#404040" d="M428.538,-432.102C424.574,-412.824 421.149,-392.941 419,-374 407.776,-275.079 399.83,-247.693 419,-150 421.413,-137.701 425.38,-125 429.901,-112.983"/>
<polygon fill="none" stroke="#404040" points="429.949,-112.862 428.442,-105.81 434.372,-101.707 435.879,-108.759 429.949,-112.862"/>
<text text-anchor="middle" x="433" y="-259.5" font-family="Helvetica,sans-Serif" font-size="10.00"> #mID</text>
</g>
<!-- Node10 -->
<g id="node10" class="node"><title>Node10</title>
<polygon fill="none" stroke="#bfbfbf" points="409,-825.5 409,-882.5 509,-882.5 509,-825.5 409,-825.5"/>
<text text-anchor="middle" x="459" y="-870.5" font-family="Helvetica,sans-Serif" font-size="10.00">static constexpr ID</text>
<polyline fill="none" stroke="#bfbfbf" points="409,-863.5 509,-863.5 "/>
<text text-anchor="middle" x="459" y="-851.5" font-family="Helvetica,sans-Serif" font-size="10.00"> </text>
<polyline fill="none" stroke="#bfbfbf" points="409,-844.5 509,-844.5 "/>
<text text-anchor="middle" x="459" y="-832.5" font-family="Helvetica,sans-Serif" font-size="10.00"> </text>
</g>
<!-- Node10&#45;&gt;Node9 -->
<g id="edge13" class="edge"><title>Node10&#45;&gt;Node9</title>
<path fill="none" stroke="#404040" d="M459,-825.308C459,-791.692 459,-732.687 459,-677.903"/>
<polygon fill="none" stroke="#404040" points="459,-677.558 455,-671.558 459,-665.558 463,-671.558 459,-677.558"/>
<text text-anchor="middle" x="474.5" y="-797.5" font-family="Helvetica,sans-Serif" font-size="10.00"> +ACO</text>
<text text-anchor="middle" x="474.5" y="-786.5" font-family="Helvetica,sans-Serif" font-size="10.00">+First</text>
<text text-anchor="middle" x="474.5" y="-775.5" font-family="Helvetica,sans-Serif" font-size="10.00">+FIT</text>
<text text-anchor="middle" x="474.5" y="-764.5" font-family="Helvetica,sans-Serif" font-size="10.00">+MCH</text>
<text text-anchor="middle" x="474.5" y="-753.5" font-family="Helvetica,sans-Serif" font-size="10.00">+TRD</text>
<text text-anchor="middle" x="474.5" y="-742.5" font-family="Helvetica,sans-Serif" font-size="10.00">+TPC</text>
<text text-anchor="middle" x="474.5" y="-731.5" font-family="Helvetica,sans-Serif" font-size="10.00">+ZDC</text>
<text text-anchor="middle" x="474.5" y="-720.5" font-family="Helvetica,sans-Serif" font-size="10.00">+MID</text>
<text text-anchor="middle" x="474.5" y="-709.5" font-family="Helvetica,sans-Serif" font-size="10.00">+ITS</text>
<text text-anchor="middle" x="474.5" y="-698.5" font-family="Helvetica,sans-Serif" font-size="10.00">+CPV</text>
<text text-anchor="middle" x="474.5" y="-687.5" font-family="Helvetica,sans-Serif" font-size="10.00">...</text>
</g>
<!-- Node11 -->
<g id="node11" class="node"><title>Node11</title>
<polygon fill="none" stroke="#bfbfbf" points="456.5,-233.5 456.5,-290.5 561.5,-290.5 561.5,-233.5 456.5,-233.5"/>
<text text-anchor="middle" x="509" y="-278.5" font-family="Helvetica,sans-Serif" font-size="10.00">unique_ptr&lt; TTree &gt;</text>
<polyline fill="none" stroke="#bfbfbf" points="456.5,-271.5 561.5,-271.5 "/>
<text text-anchor="middle" x="509" y="-259.5" font-family="Helvetica,sans-Serif" font-size="10.00"> </text>
<polyline fill="none" stroke="#bfbfbf" points="456.5,-252.5 561.5,-252.5 "/>
<text text-anchor="middle" x="509" y="-240.5" font-family="Helvetica,sans-Serif" font-size="10.00"> </text>
</g>
<!-- Node11&#45;&gt;Node1 -->
<g id="edge15" class="edge"><title>Node11&#45;&gt;Node1</title>
<path fill="none" stroke="#404040" d="M502.36,-233.246C495.074,-202.791 483.151,-152.953 473.65,-113.238"/>
<polygon fill="none" stroke="#404040" points="473.643,-113.207 468.357,-108.302 470.851,-101.536 476.137,-106.441 473.643,-113.207"/>
<text text-anchor="middle" x="505" y="-123.5" font-family="Helvetica,sans-Serif" font-size="10.00"> #mOutTree</text>
</g>
<!-- Node12 -->
<g id="node12" class="node"><title>Node12</title>
<polygon fill="none" stroke="#bfbfbf" points="580,-228 580,-296 690,-296 690,-228 580,-228"/>
<text text-anchor="start" x="588" y="-284" font-family="Helvetica,sans-Serif" font-size="10.00">vector&lt; o2::ITSMFT</text>
<text text-anchor="middle" x="635" y="-273" font-family="Helvetica,sans-Serif" font-size="10.00">::o2::ITSMFT::Digit &gt;</text>
<polyline fill="none" stroke="#bfbfbf" points="580,-266 690,-266 "/>
<text text-anchor="middle" x="635" y="-254" font-family="Helvetica,sans-Serif" font-size="10.00"> </text>
<polyline fill="none" stroke="#bfbfbf" points="580,-247 690,-247 "/>
<text text-anchor="middle" x="635" y="-235" font-family="Helvetica,sans-Serif" font-size="10.00"> </text>
</g>
<!-- Node12&#45;&gt;Node1 -->
<g id="edge16" class="edge"><title>Node12&#45;&gt;Node1</title>
<path fill="none" stroke="#404040" d="M619.04,-227.655C607.194,-204.632 589.726,-173.967 570,-150 558.475,-135.997 544.873,-122.27 531.213,-109.73"/>
<polygon fill="none" stroke="#404040" points="531.173,-109.693 524.037,-108.656 522.25,-101.669 529.386,-102.707 531.173,-109.693"/>
<text text-anchor="middle" x="575.5" y="-123.5" font-family="Helvetica,sans-Serif" font-size="10.00"> #mDigits</text>
</g>
<!-- Node13 -->
<g id="node13" class="node"><title>Node13</title>
<polygon fill="none" stroke="#bfbfbf" points="708.5,-233.5 708.5,-290.5 743.5,-290.5 743.5,-233.5 708.5,-233.5"/>
<text text-anchor="middle" x="726" y="-278.5" font-family="Helvetica,sans-Serif" font-size="10.00">bool</text>
<polyline fill="none" stroke="#bfbfbf" points="708.5,-271.5 743.5,-271.5 "/>
<text text-anchor="middle" x="726" y="-259.5" font-family="Helvetica,sans-Serif" font-size="10.00"> </text>
<polyline fill="none" stroke="#bfbfbf" points="708.5,-252.5 743.5,-252.5 "/>
<text text-anchor="middle" x="726" y="-240.5" font-family="Helvetica,sans-Serif" font-size="10.00"> </text>
</g>
<!-- Node13&#45;&gt;Node1 -->
<g id="edge17" class="edge"><title>Node13&#45;&gt;Node1</title>
<path fill="none" stroke="#404040" d="M726.048,-233.201C724.651,-208.612 718.929,-173.145 699,-150 660.313,-105.07 597.887,-80.43 546.4,-67.0959"/>
<polygon fill="none" stroke="#404040" points="546.234,-67.0551 539.451,-69.5019 534.583,-64.1814 541.366,-61.7347 546.234,-67.0551"/>
<text text-anchor="middle" x="707" y="-123.5" font-family="Helvetica,sans-Serif" font-size="10.00"> #mFinished</text>
</g>
</g>
</svg>
        <g id="navigator" transform="translate(0 0)" fill="#404254">
                <rect fill="#f2f5e9" fill-opacity="0.5" stroke="#606060" stroke-width=".5" x="0" y="0" width="60" height="60"/>
                <use id="zoomplus" xlink:href="#zoomPlus" x="17" y="9" onmousedown="handleZoom(evt,'in')"/>
                <use id="zoomminus" xlink:href="#zoomMin" x="42" y="9" onmousedown="handleZoom(evt,'out')"/>
                <use id="reset" xlink:href="#resetDef" x="30" y="36" onmousedown="handleReset()"/>
                <g id="arrowUp" xlink:href="#dirArrow" transform="translate(30 24)" onmousedown="handlePan(0,-1)">
                  <use xlink:href="#rim" fill="#404040">
                        <set attributeName="fill" to="#808080" begin="arrowUp.mouseover" end="arrowUp.mouseout"/>
                  </use>
                  <path fill="none" stroke="white" stroke-width="1.5" d="M0,-3.0v7 M-2.5,-0.5L0,-3.0L2.5,-0.5"/>
                </g>
                <g id="arrowRight" xlink:href="#dirArrow" transform="rotate(90) translate(36 -43)" onmousedown="handlePan(1,0)">
                  <use xlink:href="#rim" fill="#404040">
                        <set attributeName="fill" to="#808080" begin="arrowRight.mouseover" end="arrowRight.mouseout"/>
                  </use>
                  <path fill="none" stroke="white" stroke-width="1.5" d="M0,-3.0v7 M-2.5,-0.5L0,-3.0L2.5,-0.5"/>
                </g>
                <g id="arrowDown" xlink:href="#dirArrow" transform="rotate(180) translate(-30 -48)" onmousedown="handlePan(0,1)">
                  <use xlink:href="#rim" fill="#404040">
                        <set attributeName="fill" to="#808080" begin="arrowDown.mouseover" end="arrowDown.mouseout"/>
                  </use>
                  <path fill="none" stroke="white" stroke-width="1.5" d="M0,-3.0v7 M-2.5,-0.5L0,-3.0L2.5,-0.5"/>
                </g>
                <g id="arrowLeft" xlink:href="#dirArrow" transform="rotate(270) translate(-36 17)" onmousedown="handlePan(-1,0)">
                  <use xlink:href="#rim" fill="#404040">
                        <set attributeName="fill" to="#808080" begin="arrowLeft.mouseover" end="arrowLeft.mouseout"/>
                  </use>
                  <path fill="none" stroke="white" stroke-width="1.5" d="M0,-3.0v7 M-2.5,-0.5L0,-3.0L2.5,-0.5"/>
                </g>
        </g>
        <svg viewBox="0 0 15 15" width="100%" height="30px" preserveAspectRatio="xMaxYMin meet">
         <g id="arrow_out" transform="scale(0.3 0.3)">
          <a xlink:href="classo2_1_1ITSMFT_1_1ITSMFTDPLDigitWriter__coll__graph_org.svg" target="_base">
           <rect id="button" ry="5" rx="5" y="6" x="6" height="38" width="38"
                fill="#f2f5e9" fill-opacity="0.5" stroke="#606060" stroke-width="1.0"/>
           <path id="arrow"
             d="M 11.500037,31.436501 C 11.940474,20.09759 22.043105,11.32322 32.158766,21.979434 L 37.068811,17.246167 C 37.068811,17.246167 37.088388,32 37.088388,32 L 22.160133,31.978069 C 22.160133,31.978069 26.997745,27.140456 26.997745,27.140456 C 18.528582,18.264221 13.291696,25.230495 11.500037,31.436501 z"
             style="fill:#404040;"/>
          </a>
         </g>
        </svg>
</svg>
