<?xml version="1.0" encoding="UTF-8" standalone="no"?>
<!DOCTYPE svg PUBLIC "-//W3C//DTD SVG 1.1//EN"
 "http://www.w3.org/Graphics/SVG/1.1/DTD/svg11.dtd">
<!-- Generated by graphviz version 2.36.0 (20140111.2315)
 -->
<!-- Title: /home/travis/build/AliceO2Group/AliceO2/Detectors/TOF/reconstruction/include/TOFReconstruction/DataReader.h Pages: 1 -->
<svg width="392pt" height="252pt"
 viewBox="0.00 0.00 392.00 252.00" xmlns="http://www.w3.org/2000/svg" xmlns:xlink="http://www.w3.org/1999/xlink">
<g id="graph0" class="graph" transform="scale(1 1) rotate(0) translate(4 248)">
<title>/home/travis/build/AliceO2Group/AliceO2/Detectors/TOF/reconstruction/include/TOFReconstruction/DataReader.h</title>
<!-- Node1 -->
<g id="node1" class="node"><title>Node1</title>
<polygon fill="#bfbfbf" stroke="black" points="148.5,-180.5 148.5,-243.5 297.5,-243.5 297.5,-180.5 148.5,-180.5"/>
<text text-anchor="start" x="156.5" y="-231.5" font-family="Helvetica,sans-Serif" font-size="10.00">/home/travis/build</text>
<text text-anchor="start" x="156.5" y="-220.5" font-family="Helvetica,sans-Serif" font-size="10.00">/AliceO2Group/AliceO2</text>
<text text-anchor="start" x="156.5" y="-209.5" font-family="Helvetica,sans-Serif" font-size="10.00">/Detectors/TOF/reconstruction</text>
<text text-anchor="start" x="156.5" y="-198.5" font-family="Helvetica,sans-Serif" font-size="10.00">/include/TOFReconstruction</text>
<text text-anchor="middle" x="223" y="-187.5" font-family="Helvetica,sans-Serif" font-size="10.00">/DataReader.h</text>
</g>
<!-- Node2 -->
<g id="node2" class="node"><title>Node2</title>
<g id="a_node2"><a xlink:href="../../df/d9c/TOF_2base_2include_2TOFBase_2Digit_8h.html" target="_top" xlink:title="TOFBase/Digit.h">
<polygon fill="none" stroke="black" points="178,-124.5 178,-143.5 268,-143.5 268,-124.5 178,-124.5"/>
<text text-anchor="middle" x="223" y="-131.5" font-family="Helvetica,sans-Serif" font-size="10.00">TOFBase/Digit.h</text>
</a>
</g>
</g>
<!-- Node1&#45;&gt;Node2 -->
<g id="edge1" class="edge"><title>Node1&#45;&gt;Node2</title>
<path fill="none" stroke="midnightblue" d="M223,-180.088C223,-171.15 223,-161.669 223,-153.719"/>
<polygon fill="midnightblue" stroke="midnightblue" points="226.5,-153.718 223,-143.718 219.5,-153.718 226.5,-153.718"/>
</g>
<!-- Node3 -->
<g id="node3" class="node"><title>Node3</title>
<g id="a_node3"><a xlink:href="../../df/d5d/common_2include_2CommonDataFormat_2TimeStamp_8h.html" target="_top" xlink:title="CommonDataFormat/TimeStamp.h">
<polygon fill="none" stroke="black" points="0,-62.5 0,-81.5 170,-81.5 170,-62.5 0,-62.5"/>
<text text-anchor="middle" x="85" y="-69.5" font-family="Helvetica,sans-Serif" font-size="10.00">CommonDataFormat/TimeStamp.h</text>
</a>
</g>
</g>
<!-- Node2&#45;&gt;Node3 -->
<g id="edge2" class="edge"><title>Node2&#45;&gt;Node3</title>
<path fill="none" stroke="midnightblue" d="M203.228,-124.403C179.864,-114.245 140.786,-97.2547 113.997,-85.6074"/>
<polygon fill="midnightblue" stroke="midnightblue" points="115.302,-82.3582 104.735,-81.5806 112.511,-88.7777 115.302,-82.3582"/>
</g>
<!-- Node4 -->
<g id="node4" class="node"><title>Node4</title>
<polygon fill="none" stroke="#bfbfbf" points="113,-0.5 113,-19.5 169,-19.5 169,-0.5 113,-0.5"/>
<text text-anchor="middle" x="141" y="-7.5" font-family="Helvetica,sans-Serif" font-size="10.00">Rtypes.h</text>
</g>
<!-- Node2&#45;&gt;Node4 -->
<g id="edge5" class="edge"><title>Node2&#45;&gt;Node4</title>
<path fill="none" stroke="midnightblue" d="M218.611,-124.141C211.202,-109.483 195.41,-79.4696 179,-56 171.969,-45.944 163.18,-35.4278 155.826,-27.0924"/>
<polygon fill="midnightblue" stroke="midnightblue" points="158.359,-24.6749 149.068,-19.5818 153.155,-29.3568 158.359,-24.6749"/>
</g>
<!-- Node5 -->
<g id="node5" class="node"><title>Node5</title>
<polygon fill="none" stroke="#bfbfbf" points="226.5,-62.5 226.5,-81.5 271.5,-81.5 271.5,-62.5 226.5,-62.5"/>
<text text-anchor="middle" x="249" y="-69.5" font-family="Helvetica,sans-Serif" font-size="10.00">iosfwd</text>
</g>
<!-- Node2&#45;&gt;Node5 -->
<g id="edge4" class="edge"><title>Node2&#45;&gt;Node5</title>
<path fill="none" stroke="midnightblue" d="M226.725,-124.403C230.509,-115.671 236.481,-101.889 241.289,-90.7936"/>
<polygon fill="midnightblue" stroke="midnightblue" points="244.517,-92.1478 245.282,-81.5806 238.094,-89.3645 244.517,-92.1478"/>
</g>
<!-- Node6 -->
<g id="node6" class="node"><title>Node6</title>
<polygon fill="none" stroke="#bfbfbf" points="289.5,-57 289.5,-87 384.5,-87 384.5,-57 289.5,-57"/>
<text text-anchor="start" x="297.5" y="-75" font-family="Helvetica,sans-Serif" font-size="10.00">boost/serialization</text>
<text text-anchor="middle" x="337" y="-64" font-family="Helvetica,sans-Serif" font-size="10.00">/base_object.hpp</text>
</g>
<!-- Node2&#45;&gt;Node6 -->
<g id="edge6" class="edge"><title>Node2&#45;&gt;Node6</title>
<path fill="none" stroke="midnightblue" d="M239.333,-124.403C255.422,-115.936 280.531,-102.72 301.261,-91.8101"/>
<polygon fill="midnightblue" stroke="midnightblue" points="302.913,-94.8955 310.132,-87.1408 299.653,-88.7011 302.913,-94.8955"/>
</g>
<!-- Node3&#45;&gt;Node4 -->
<g id="edge3" class="edge"><title>Node3&#45;&gt;Node4</title>
<path fill="none" stroke="midnightblue" d="M93.0234,-62.4035C101.59,-53.2252 115.361,-38.4699 125.957,-27.1173"/>
<polygon fill="midnightblue" stroke="midnightblue" points="128.727,-29.2793 132.991,-19.5806 123.61,-24.503 128.727,-29.2793"/>
</g>
</g>
</svg>
