<?xml version="1.0" encoding="UTF-8" standalone="no"?>
<!DOCTYPE svg PUBLIC "-//W3C//DTD SVG 1.1//EN"
 "http://www.w3.org/Graphics/SVG/1.1/DTD/svg11.dtd">
<!-- Generated by graphviz version 2.36.0 (20140111.2315)
 -->
<!-- Title: /home/travis/build/AliceO2Group/AliceO2/Detectors/ITSMFT/ITS/reconstruction/include/ITSReconstruction/CA/ClusterLines.h Pages: 1 -->
<svg width="464pt" height="272pt"
 viewBox="0.00 0.00 464.00 272.00" xmlns="http://www.w3.org/2000/svg" xmlns:xlink="http://www.w3.org/1999/xlink">
<g id="graph0" class="graph" transform="scale(1 1) rotate(0) translate(4 268)">
<title>/home/travis/build/AliceO2Group/AliceO2/Detectors/ITSMFT/ITS/reconstruction/include/ITSReconstruction/CA/ClusterLines.h</title>
<!-- Node1 -->
<g id="node1" class="node"><title>Node1</title>
<polygon fill="#bfbfbf" stroke="black" points="159.5,-200.5 159.5,-263.5 344.5,-263.5 344.5,-200.5 159.5,-200.5"/>
<text text-anchor="start" x="167.5" y="-251.5" font-family="Helvetica,sans-Serif" font-size="10.00">/home/travis/build</text>
<text text-anchor="start" x="167.5" y="-240.5" font-family="Helvetica,sans-Serif" font-size="10.00">/AliceO2Group/AliceO2</text>
<text text-anchor="start" x="167.5" y="-229.5" font-family="Helvetica,sans-Serif" font-size="10.00">/Detectors/ITSMFT/ITS</text>
<text text-anchor="start" x="167.5" y="-218.5" font-family="Helvetica,sans-Serif" font-size="10.00">/reconstruction/include</text>
<text text-anchor="middle" x="252" y="-207.5" font-family="Helvetica,sans-Serif" font-size="10.00">/ITSReconstruction/CA/ClusterLines.h</text>
</g>
<!-- Node2 -->
<g id="node2" class="node"><title>Node2</title>
<g id="a_node2"><a xlink:href="../../de/d9b/Vertexer_8h.html" target="_top" xlink:title="/home/travis/build\l/AliceO2Group/AliceO2\l/Detectors/ITSMFT/ITS\l/reconstruction/include\l/ITSReconstruction/CA/Vertexer.h">
<polygon fill="none" stroke="black" points="113.5,-100.5 113.5,-163.5 280.5,-163.5 280.5,-100.5 113.5,-100.5"/>
<text text-anchor="start" x="121.5" y="-151.5" font-family="Helvetica,sans-Serif" font-size="10.00">/home/travis/build</text>
<text text-anchor="start" x="121.5" y="-140.5" font-family="Helvetica,sans-Serif" font-size="10.00">/AliceO2Group/AliceO2</text>
<text text-anchor="start" x="121.5" y="-129.5" font-family="Helvetica,sans-Serif" font-size="10.00">/Detectors/ITSMFT/ITS</text>
<text text-anchor="start" x="121.5" y="-118.5" font-family="Helvetica,sans-Serif" font-size="10.00">/reconstruction/include</text>
<text text-anchor="middle" x="197" y="-107.5" font-family="Helvetica,sans-Serif" font-size="10.00">/ITSReconstruction/CA/Vertexer.h</text>
</a>
</g>
</g>
<!-- Node1&#45;&gt;Node2 -->
<g id="edge1" class="edge"><title>Node1&#45;&gt;Node2</title>
<path fill="none" stroke="midnightblue" d="M229.854,-191.54C224.637,-182.243 219.152,-172.47 214.19,-163.63"/>
<polygon fill="midnightblue" stroke="midnightblue" points="226.802,-193.254 234.749,-200.261 232.907,-189.828 226.802,-193.254"/>
</g>
<!-- Node3 -->
<g id="node3" class="node"><title>Node3</title>
<g id="a_node3"><a xlink:href="../../da/d5d/Vertexer_8cxx.html" target="_top" xlink:title="/home/travis/build\l/AliceO2Group/AliceO2\l/Detectors/ITSMFT/ITS\l/reconstruction/src/CA\l/Vertexer.cxx">
<polygon fill="none" stroke="black" points="0,-0.5 0,-63.5 120,-63.5 120,-0.5 0,-0.5"/>
<text text-anchor="start" x="8" y="-51.5" font-family="Helvetica,sans-Serif" font-size="10.00">/home/travis/build</text>
<text text-anchor="start" x="8" y="-40.5" font-family="Helvetica,sans-Serif" font-size="10.00">/AliceO2Group/AliceO2</text>
<text text-anchor="start" x="8" y="-29.5" font-family="Helvetica,sans-Serif" font-size="10.00">/Detectors/ITSMFT/ITS</text>
<text text-anchor="start" x="8" y="-18.5" font-family="Helvetica,sans-Serif" font-size="10.00">/reconstruction/src/CA</text>
<text text-anchor="middle" x="60" y="-7.5" font-family="Helvetica,sans-Serif" font-size="10.00">/Vertexer.cxx</text>
</a>
</g>
</g>
<!-- Node1&#45;&gt;Node3 -->
<g id="edge6" class="edge"><title>Node1&#45;&gt;Node3</title>
<path fill="none" stroke="midnightblue" d="M150.356,-198.572C133.184,-189.526 116.803,-178.166 104,-164 78.5839,-135.876 67.7803,-92.5672 63.2334,-63.5301"/>
<polygon fill="midnightblue" stroke="midnightblue" points="148.884,-201.749 159.394,-203.095 152.017,-195.489 148.884,-201.749"/>
</g>
<!-- Node5 -->
<g id="node5" class="node"><title>Node5</title>
<g id="a_node5"><a xlink:href="../../d4/da9/run__vert__ca__its_8C.html" target="_top" xlink:title="/home/travis/build\l/AliceO2Group/AliceO2\l/macro/run_vert_ca_its.C">
<polygon fill="none" stroke="black" points="274.5,-11.5 274.5,-52.5 401.5,-52.5 401.5,-11.5 274.5,-11.5"/>
<text text-anchor="start" x="282.5" y="-40.5" font-family="Helvetica,sans-Serif" font-size="10.00">/home/travis/build</text>
<text text-anchor="start" x="282.5" y="-29.5" font-family="Helvetica,sans-Serif" font-size="10.00">/AliceO2Group/AliceO2</text>
<text text-anchor="middle" x="338" y="-18.5" font-family="Helvetica,sans-Serif" font-size="10.00">/macro/run_vert_ca_its.C</text>
</a>
</g>
</g>
<!-- Node1&#45;&gt;Node5 -->
<g id="edge7" class="edge"><title>Node1&#45;&gt;Node5</title>
<path fill="none" stroke="midnightblue" d="M275.094,-191.446C279.939,-182.543 284.836,-173.049 289,-164 306.661,-125.618 322.951,-78.8925 331.575,-52.8973"/>
<polygon fill="midnightblue" stroke="midnightblue" points="271.881,-190.022 270.097,-200.466 278.004,-193.414 271.881,-190.022"/>
</g>
<!-- Node6 -->
<g id="node6" class="node"><title>Node6</title>
<g id="a_node6"><a xlink:href="../../d3/d75/ClusterLines_8cxx.html" target="_top" xlink:title="/home/travis/build\l/AliceO2Group/AliceO2\l/Detectors/ITSMFT/ITS\l/reconstruction/src/CA\l/ClusterLines.cxx">
<polygon fill="none" stroke="black" points="336,-100.5 336,-163.5 456,-163.5 456,-100.5 336,-100.5"/>
<text text-anchor="start" x="344" y="-151.5" font-family="Helvetica,sans-Serif" font-size="10.00">/home/travis/build</text>
<text text-anchor="start" x="344" y="-140.5" font-family="Helvetica,sans-Serif" font-size="10.00">/AliceO2Group/AliceO2</text>
<text text-anchor="start" x="344" y="-129.5" font-family="Helvetica,sans-Serif" font-size="10.00">/Detectors/ITSMFT/ITS</text>
<text text-anchor="start" x="344" y="-118.5" font-family="Helvetica,sans-Serif" font-size="10.00">/reconstruction/src/CA</text>
<text text-anchor="middle" x="396" y="-107.5" font-family="Helvetica,sans-Serif" font-size="10.00">/ClusterLines.cxx</text>
</a>
</g>
</g>
<!-- Node1&#45;&gt;Node6 -->
<g id="edge5" class="edge"><title>Node1&#45;&gt;Node6</title>
<path fill="none" stroke="midnightblue" d="M305.782,-194.398C320.667,-184.268 336.664,-173.382 350.993,-163.63"/>
<polygon fill="midnightblue" stroke="midnightblue" points="303.465,-191.741 297.167,-200.261 307.404,-197.528 303.465,-191.741"/>
</g>
<!-- Node2&#45;&gt;Node3 -->
<g id="edge2" class="edge"><title>Node2&#45;&gt;Node3</title>
<path fill="none" stroke="midnightblue" d="M145.832,-94.3984C131.671,-84.2683 116.452,-73.3816 102.819,-63.6299"/>
<polygon fill="midnightblue" stroke="midnightblue" points="143.859,-97.2897 154.028,-100.261 147.931,-91.5964 143.859,-97.2897"/>
</g>
<!-- Node4 -->
<g id="node4" class="node"><title>Node4</title>
<g id="a_node4"><a xlink:href="../../dc/d97/run__rec__ca_8C.html" target="_top" xlink:title="/home/travis/build\l/AliceO2Group/AliceO2\l/macro/run_rec_ca.C">
<polygon fill="none" stroke="black" points="138,-11.5 138,-52.5 256,-52.5 256,-11.5 138,-11.5"/>
<text text-anchor="start" x="146" y="-40.5" font-family="Helvetica,sans-Serif" font-size="10.00">/home/travis/build</text>
<text text-anchor="start" x="146" y="-29.5" font-family="Helvetica,sans-Serif" font-size="10.00">/AliceO2Group/AliceO2</text>
<text text-anchor="middle" x="197" y="-18.5" font-family="Helvetica,sans-Serif" font-size="10.00">/macro/run_rec_ca.C</text>
</a>
</g>
</g>
<!-- Node2&#45;&gt;Node4 -->
<g id="edge3" class="edge"><title>Node2&#45;&gt;Node4</title>
<path fill="none" stroke="midnightblue" d="M197,-90.0737C197,-77.0719 197,-63.2903 197,-52.5274"/>
<polygon fill="midnightblue" stroke="midnightblue" points="193.5,-90.261 197,-100.261 200.5,-90.2611 193.5,-90.261"/>
</g>
<!-- Node2&#45;&gt;Node5 -->
<g id="edge4" class="edge"><title>Node2&#45;&gt;Node5</title>
<path fill="none" stroke="midnightblue" d="M249.546,-94.4789C270.019,-80.2495 292.656,-64.5158 309.904,-52.5274"/>
<polygon fill="midnightblue" stroke="midnightblue" points="247.44,-91.6798 241.226,-100.261 251.435,-97.4278 247.44,-91.6798"/>
</g>
</g>
</svg>
