<?xml version="1.0" encoding="UTF-8" standalone="no"?>
<!DOCTYPE svg PUBLIC "-//W3C//DTD SVG 1.1//EN"
 "http://www.w3.org/Graphics/SVG/1.1/DTD/svg11.dtd">
<!-- Generated by graphviz version 2.36.0 (20140111.2315)
 -->
<!-- Title: /home/travis/build/AliceO2Group/AliceO2/Framework/Core/include/Framework/InputRecord.h Pages: 1 -->
<!--zoomable 298 -->
<svg id="main" version="1.1" xmlns="http://www.w3.org/2000/svg" xmlns:xlink="http://www.w3.org/1999/xlink" xml:space="preserve" onload="init(evt)">
<style type="text/css"><![CDATA[
.edge:hover path { stroke: red; }
.edge:hover polygon { stroke: red; fill: red; }
]]></style>
<script type="text/javascript"><![CDATA[
var edges = document.getElementsByTagName('g');
if (edges && edges.length) {
  for (var i=0;i<edges.length;i++) {
    if (edges[i].id.substr(0,4)=='edge') {
      edges[i].setAttribute('class','edge');
    }
  }
}
]]></script>
        <defs>
                <circle id="rim" cx="0" cy="0" r="7"/>
                <circle id="rim2" cx="0" cy="0" r="3.5"/>
                <g id="zoomPlus">
                        <use xlink:href="#rim" fill="#404040">
                                <set attributeName="fill" to="#808080" begin="zoomplus.mouseover" end="zoomplus.mouseout"/>
                        </use>
                        <path d="M-4,0h8M0,-4v8" fill="none" stroke="white" stroke-width="1.5" pointer-events="none"/>
                </g>
                <g id="zoomMin">
                        <use xlink:href="#rim" fill="#404040">
                                <set attributeName="fill" to="#808080" begin="zoomminus.mouseover" end="zoomminus.mouseout"/>
                        </use>
                        <path d="M-4,0h8" fill="none" stroke="white" stroke-width="1.5" pointer-events="none"/>
                </g>
                <g id="dirArrow">
                        <path fill="none" stroke="white" stroke-width="1.5" d="M0,-3.0v7 M-2.5,-0.5L0,-3.0L2.5,-0.5"/>
                </g>
               <g id="resetDef">
                       <use xlink:href="#rim2" fill="#404040">
                               <set attributeName="fill" to="#808080" begin="reset.mouseover" end="reset.mouseout"/>
                       </use>
               </g>
        </defs>

<script type="text/javascript">
var viewWidth = 2094;
var viewHeight = 298;
var sectionId = 'dynsection-0';
</script>
<script xlink:href="../../svgpan.js"/>
<svg id="graph" class="graph">
<g id="viewport">
<title>/home/travis/build/AliceO2Group/AliceO2/Framework/Core/include/Framework/InputRecord.h</title>
<!-- Node1 -->
<g id="node1" class="node"><title>Node1</title>
<polygon fill="#bfbfbf" stroke="black" points="1238.5,-237 1238.5,-289 1371.5,-289 1371.5,-237 1238.5,-237"/>
<text text-anchor="start" x="1246.5" y="-277" font-family="Helvetica,sans-Serif" font-size="10.00">/home/travis/build</text>
<text text-anchor="start" x="1246.5" y="-266" font-family="Helvetica,sans-Serif" font-size="10.00">/AliceO2Group/AliceO2</text>
<text text-anchor="start" x="1246.5" y="-255" font-family="Helvetica,sans-Serif" font-size="10.00">/Framework/Core/include</text>
<text text-anchor="middle" x="1305" y="-244" font-family="Helvetica,sans-Serif" font-size="10.00">/Framework/InputRecord.h</text>
</g>
<!-- Node2 -->
<g id="node2" class="node"><title>Node2</title>
<g id="a_node2"><a xlink:href="../../d5/dfb/DataRef_8h.html" target="_top" xlink:title="Framework/DataRef.h">
<polygon fill="none" stroke="black" points="223.5,-124.5 223.5,-143.5 336.5,-143.5 336.5,-124.5 223.5,-124.5"/>
<text text-anchor="middle" x="280" y="-131.5" font-family="Helvetica,sans-Serif" font-size="10.00">Framework/DataRef.h</text>
</a>
</g>
</g>
<!-- Node1&#45;&gt;Node2 -->
<g id="edge1" class="edge"><title>Node1&#45;&gt;Node2</title>
<path fill="none" stroke="midnightblue" d="M1238.34,-260.051C1062.19,-254.455 587.449,-236.357 435,-200 386.849,-188.517 334.45,-163.71 304.577,-148.28"/>
<polygon fill="midnightblue" stroke="midnightblue" points="306.186,-145.171 295.704,-143.628 302.936,-151.371 306.186,-145.171"/>
</g>
<!-- Node3 -->
<g id="node3" class="node"><title>Node3</title>
<g id="a_node3"><a xlink:href="../../d5/db8/DataRefUtils_8h.html" target="_top" xlink:title="Framework/DataRefUtils.h">
<polygon fill="none" stroke="black" points="729,-180.5 729,-199.5 863,-199.5 863,-180.5 729,-180.5"/>
<text text-anchor="middle" x="796" y="-187.5" font-family="Helvetica,sans-Serif" font-size="10.00">Framework/DataRefUtils.h</text>
</a>
</g>
</g>
<!-- Node1&#45;&gt;Node3 -->
<g id="edge2" class="edge"><title>Node1&#45;&gt;Node3</title>
<path fill="none" stroke="midnightblue" d="M1238.46,-252.718C1142.42,-239.322 965.704,-214.672 867.156,-200.926"/>
<polygon fill="midnightblue" stroke="midnightblue" points="867.382,-197.423 856.994,-199.508 866.415,-204.356 867.382,-197.423"/>
</g>
<!-- Node12 -->
<g id="node12" class="node"><title>Node12</title>
<polygon fill="none" stroke="#bfbfbf" points="1144,-6.5 1144,-25.5 1196,-25.5 1196,-6.5 1144,-6.5"/>
<text text-anchor="middle" x="1170" y="-13.5" font-family="Helvetica,sans-Serif" font-size="10.00">memory</text>
</g>
<!-- Node1&#45;&gt;Node12 -->
<g id="edge69" class="edge"><title>Node1&#45;&gt;Node12</title>
<path fill="none" stroke="midnightblue" d="M1238.23,-257.765C1048.25,-245.019 515.29,-204.147 467,-144 440.151,-110.558 485.77,-82.4869 515,-68 638.457,-6.81305 999.73,-62.935 1134,-32 1137.07,-31.2931 1140.21,-30.3482 1143.3,-29.2749"/>
<polygon fill="midnightblue" stroke="midnightblue" points="1144.78,-32.4522 1152.81,-25.5438 1142.23,-25.9352 1144.78,-32.4522"/>
</g>
<!-- Node19 -->
<g id="node19" class="node"><title>Node19</title>
<polygon fill="none" stroke="#bfbfbf" points="1214,-6.5 1214,-25.5 1260,-25.5 1260,-6.5 1214,-6.5"/>
<text text-anchor="middle" x="1237" y="-13.5" font-family="Helvetica,sans-Serif" font-size="10.00">cstring</text>
</g>
<!-- Node1&#45;&gt;Node19 -->
<g id="edge66" class="edge"><title>Node1&#45;&gt;Node19</title>
<path fill="none" stroke="midnightblue" d="M1323.66,-236.704C1333.18,-220.771 1341.84,-199.582 1337,-180 1322.12,-119.833 1275.76,-60.7353 1251.75,-33.1445"/>
<polygon fill="midnightblue" stroke="midnightblue" points="1254.33,-30.7807 1245.08,-25.6271 1249.1,-35.4286 1254.33,-30.7807"/>
</g>
<!-- Node20 -->
<g id="node20" class="node"><title>Node20</title>
<polygon fill="none" stroke="#bfbfbf" points="1652.5,-6.5 1652.5,-25.5 1693.5,-25.5 1693.5,-6.5 1652.5,-6.5"/>
<text text-anchor="middle" x="1673" y="-13.5" font-family="Helvetica,sans-Serif" font-size="10.00">string</text>
</g>
<!-- Node1&#45;&gt;Node20 -->
<g id="edge64" class="edge"><title>Node1&#45;&gt;Node20</title>
<path fill="none" stroke="midnightblue" d="M1348.66,-236.942C1367.2,-225.987 1388.91,-212.747 1408,-200 1490.21,-145.118 1504.61,-122.612 1587,-68 1607.27,-54.5676 1631.1,-40.5671 1648.53,-30.6411"/>
<polygon fill="midnightblue" stroke="midnightblue" points="1650.51,-33.5431 1657.49,-25.5752 1647.06,-27.4493 1650.51,-33.5431"/>
</g>
<!-- Node21 -->
<g id="node21" class="node"><title>Node21</title>
<polygon fill="none" stroke="#bfbfbf" points="0,-6.5 0,-25.5 62,-25.5 62,-6.5 0,-6.5"/>
<text text-anchor="middle" x="31" y="-13.5" font-family="Helvetica,sans-Serif" font-size="10.00">type_traits</text>
</g>
<!-- Node1&#45;&gt;Node21 -->
<g id="edge70" class="edge"><title>Node1&#45;&gt;Node21</title>
<path fill="none" stroke="midnightblue" d="M1238.33,-260.707C1015.74,-256.049 306.887,-238.33 212,-200 129.114,-166.518 65.2425,-73.6172 41.2815,-34.6066"/>
<polygon fill="midnightblue" stroke="midnightblue" points="44.2122,-32.6885 36.0623,-25.9187 38.2117,-36.2932 44.2122,-32.6885"/>
</g>
<!-- Node23 -->
<g id="node23" class="node"><title>Node23</title>
<polygon fill="none" stroke="#bfbfbf" points="80,-6.5 80,-25.5 124,-25.5 124,-6.5 80,-6.5"/>
<text text-anchor="middle" x="102" y="-13.5" font-family="Helvetica,sans-Serif" font-size="10.00">vector</text>
</g>
<!-- Node1&#45;&gt;Node23 -->
<g id="edge65" class="edge"><title>Node1&#45;&gt;Node23</title>
<path fill="none" stroke="midnightblue" d="M1238.36,-260.423C1022.57,-254.989 351.643,-235.4 261,-200 187.742,-171.39 167.95,-153.22 124,-88 113.311,-72.1383 107.625,-50.8434 104.731,-35.7238"/>
<polygon fill="midnightblue" stroke="midnightblue" points="108.132,-34.8411 103.026,-25.5577 101.229,-35.9989 108.132,-34.8411"/>
</g>
<!-- Node28 -->
<g id="node28" class="node"><title>Node28</title>
<g id="a_node28"><a xlink:href="../../d0/d95/TypeTraits_8h.html" target="_top" xlink:title="Framework/TypeTraits.h">
<polygon fill="none" stroke="black" points="133.5,-68.5 133.5,-87.5 256.5,-87.5 256.5,-68.5 133.5,-68.5"/>
<text text-anchor="middle" x="195" y="-75.5" font-family="Helvetica,sans-Serif" font-size="10.00">Framework/TypeTraits.h</text>
</a>
</g>
</g>
<!-- Node1&#45;&gt;Node28 -->
<g id="edge59" class="edge"><title>Node1&#45;&gt;Node28</title>
<path fill="none" stroke="midnightblue" d="M1238.19,-259.983C1053.07,-254.011 536.23,-234.637 370,-200 297.884,-184.973 264.496,-197.635 214,-144 202.299,-131.572 197.759,-112.334 196.021,-98.0073"/>
<polygon fill="midnightblue" stroke="midnightblue" points="199.487,-97.459 195.144,-87.795 192.512,-98.0577 199.487,-97.459"/>
</g>
<!-- Node31 -->
<g id="node31" class="node"><title>Node31</title>
<polygon fill="none" stroke="#bfbfbf" points="1585.5,-6.5 1585.5,-25.5 1634.5,-25.5 1634.5,-6.5 1585.5,-6.5"/>
<text text-anchor="middle" x="1610" y="-13.5" font-family="Helvetica,sans-Serif" font-size="10.00">cassert</text>
</g>
<!-- Node1&#45;&gt;Node31 -->
<g id="edge67" class="edge"><title>Node1&#45;&gt;Node31</title>
<path fill="none" stroke="midnightblue" d="M1336.21,-236.932C1399.36,-186.205 1540.6,-72.7513 1591.37,-31.964"/>
<polygon fill="midnightblue" stroke="midnightblue" points="1593.64,-34.6322 1599.24,-25.641 1589.25,-29.1749 1593.64,-34.6322"/>
</g>
<!-- Node38 -->
<g id="node38" class="node"><title>Node38</title>
<g id="a_node38"><a xlink:href="../../d5/d19/InputRoute_8h.html" target="_top" xlink:title="Framework/InputRoute.h">
<polygon fill="none" stroke="black" points="1735.5,-180.5 1735.5,-199.5 1860.5,-199.5 1860.5,-180.5 1735.5,-180.5"/>
<text text-anchor="middle" x="1798" y="-187.5" font-family="Helvetica,sans-Serif" font-size="10.00">Framework/InputRoute.h</text>
</a>
</g>
</g>
<!-- Node1&#45;&gt;Node38 -->
<g id="edge47" class="edge"><title>Node1&#45;&gt;Node38</title>
<path fill="none" stroke="midnightblue" d="M1371.74,-252.388C1465.14,-238.937 1634,-214.619 1728.73,-200.976"/>
<polygon fill="midnightblue" stroke="midnightblue" points="1729.39,-204.418 1738.79,-199.528 1728.39,-197.489 1729.39,-204.418"/>
</g>
<!-- Node45 -->
<g id="node45" class="node"><title>Node45</title>
<g id="a_node45"><a xlink:href="../../da/d0f/InputSpan_8h.html" target="_top" xlink:title="Framework/InputSpan.h">
<polygon fill="none" stroke="black" points="1596.5,-180.5 1596.5,-199.5 1717.5,-199.5 1717.5,-180.5 1596.5,-180.5"/>
<text text-anchor="middle" x="1657" y="-187.5" font-family="Helvetica,sans-Serif" font-size="10.00">Framework/InputSpan.h</text>
</a>
</g>
</g>
<!-- Node1&#45;&gt;Node45 -->
<g id="edge60" class="edge"><title>Node1&#45;&gt;Node45</title>
<path fill="none" stroke="midnightblue" d="M1371.62,-248.562C1439.31,-234.909 1542.75,-214.044 1604.74,-201.541"/>
<polygon fill="midnightblue" stroke="midnightblue" points="1605.59,-204.941 1614.7,-199.533 1604.2,-198.079 1605.59,-204.941"/>
</g>
<!-- Node46 -->
<g id="node46" class="node"><title>Node46</title>
<g id="a_node46"><a xlink:href="../../dc/d03/TableConsumer_8h.html" target="_top" xlink:title="Framework/TableConsumer.h">
<polygon fill="none" stroke="black" points="1182,-180.5 1182,-199.5 1328,-199.5 1328,-180.5 1182,-180.5"/>
<text text-anchor="middle" x="1255" y="-187.5" font-family="Helvetica,sans-Serif" font-size="10.00">Framework/TableConsumer.h</text>
</a>
</g>
</g>
<!-- Node1&#45;&gt;Node46 -->
<g id="edge61" class="edge"><title>Node1&#45;&gt;Node46</title>
<path fill="none" stroke="midnightblue" d="M1287.23,-236.768C1280.55,-227.284 1273.12,-216.731 1267.08,-208.15"/>
<polygon fill="midnightblue" stroke="midnightblue" points="1269.79,-205.918 1261.17,-199.757 1264.06,-209.948 1269.79,-205.918"/>
</g>
<!-- Node47 -->
<g id="node47" class="node"><title>Node47</title>
<polygon fill="none" stroke="#bfbfbf" points="1878.5,-180.5 1878.5,-199.5 1925.5,-199.5 1925.5,-180.5 1878.5,-180.5"/>
<text text-anchor="middle" x="1902" y="-187.5" font-family="Helvetica,sans-Serif" font-size="10.00">iterator</text>
</g>
<!-- Node1&#45;&gt;Node47 -->
<g id="edge63" class="edge"><title>Node1&#45;&gt;Node47</title>
<path fill="none" stroke="midnightblue" d="M1371.92,-258.05C1476.19,-251.148 1683.72,-234.408 1868.42,-199.812"/>
<polygon fill="midnightblue" stroke="midnightblue" points="1869.14,-203.239 1878.31,-197.938 1867.83,-196.361 1869.14,-203.239"/>
</g>
<!-- Node48 -->
<g id="node48" class="node"><title>Node48</title>
<polygon fill="none" stroke="#bfbfbf" points="1943.5,-180.5 1943.5,-199.5 2002.5,-199.5 2002.5,-180.5 1943.5,-180.5"/>
<text text-anchor="middle" x="1973" y="-187.5" font-family="Helvetica,sans-Serif" font-size="10.00">exception</text>
</g>
<!-- Node1&#45;&gt;Node48 -->
<g id="edge68" class="edge"><title>Node1&#45;&gt;Node48</title>
<path fill="none" stroke="midnightblue" d="M1371.93,-258.238C1485.47,-251.234 1723.12,-233.889 1933.28,-199.907"/>
<polygon fill="midnightblue" stroke="midnightblue" points="1933.96,-203.342 1943.27,-198.276 1932.83,-196.433 1933.96,-203.342"/>
</g>
<!-- Node3&#45;&gt;Node2 -->
<g id="edge3" class="edge"><title>Node3&#45;&gt;Node2</title>
<path fill="none" stroke="midnightblue" d="M728.846,-182.743C641.675,-174.498 484.859,-159.25 351,-144 349.534,-143.833 348.051,-143.662 346.556,-143.488"/>
<polygon fill="midnightblue" stroke="midnightblue" points="346.909,-140.005 336.566,-142.301 346.083,-146.957 346.909,-140.005"/>
</g>
<!-- Node4 -->
<g id="node4" class="node"><title>Node4</title>
<g id="a_node4"><a xlink:href="../../d8/d3c/TMessageSerializer_8h.html" target="_top" xlink:title="Framework/TMessageSerializer.h">
<polygon fill="none" stroke="black" points="907.5,-124.5 907.5,-143.5 1070.5,-143.5 1070.5,-124.5 907.5,-124.5"/>
<text text-anchor="middle" x="989" y="-131.5" font-family="Helvetica,sans-Serif" font-size="10.00">Framework/TMessageSerializer.h</text>
</a>
</g>
</g>
<!-- Node3&#45;&gt;Node4 -->
<g id="edge4" class="edge"><title>Node3&#45;&gt;Node4</title>
<path fill="none" stroke="midnightblue" d="M826.581,-180.444C859.615,-171.201 912.388,-156.436 948.766,-146.257"/>
<polygon fill="midnightblue" stroke="midnightblue" points="949.875,-149.582 958.562,-143.516 947.988,-142.84 949.875,-149.582"/>
</g>
<!-- Node3&#45;&gt;Node21 -->
<g id="edge46" class="edge"><title>Node3&#45;&gt;Node21</title>
<path fill="none" stroke="midnightblue" d="M729.759,-180.465C663.266,-171.774 557.93,-157.669 467,-144 412.665,-135.832 399.227,-132.861 345,-124 246.786,-107.95 215.397,-127.373 124,-88 93.5386,-74.8776 64.1014,-49.611 46.7739,-33.0301"/>
<polygon fill="midnightblue" stroke="midnightblue" points="48.8762,-30.1891 39.2891,-25.6794 43.9714,-35.1834 48.8762,-30.1891"/>
</g>
<!-- Node27 -->
<g id="node27" class="node"><title>Node27</title>
<g id="a_node27"><a xlink:href="../../d1/d53/SerializationMethods_8h.html" target="_top" xlink:title="Type wrappers for enfording a specific serialization method. ">
<polygon fill="none" stroke="black" points="476.5,-124.5 476.5,-143.5 643.5,-143.5 643.5,-124.5 476.5,-124.5"/>
<text text-anchor="middle" x="560" y="-131.5" font-family="Helvetica,sans-Serif" font-size="10.00">Framework/SerializationMethods.h</text>
</a>
</g>
</g>
<!-- Node3&#45;&gt;Node27 -->
<g id="edge27" class="edge"><title>Node3&#45;&gt;Node27</title>
<path fill="none" stroke="midnightblue" d="M758.605,-180.444C717.608,-171.063 651.746,-155.993 607.216,-145.804"/>
<polygon fill="midnightblue" stroke="midnightblue" points="607.749,-142.335 597.22,-143.516 606.187,-149.159 607.749,-142.335"/>
</g>
<!-- Node3&#45;&gt;Node28 -->
<g id="edge32" class="edge"><title>Node3&#45;&gt;Node28</title>
<path fill="none" stroke="midnightblue" d="M774.247,-180.383C752.655,-171.684 718.72,-157.625 690,-144 672.757,-135.82 670.296,-129.432 652,-124 489.556,-75.7691 438.628,-105.821 266.958,-88.1521"/>
<polygon fill="midnightblue" stroke="midnightblue" points="267.138,-84.6514 256.822,-87.0682 266.394,-91.6117 267.138,-84.6514"/>
</g>
<!-- Node29 -->
<g id="node29" class="node"><title>Node29</title>
<g id="a_node29"><a xlink:href="../../dc/dcd/DataHeader_8h.html" target="_top" xlink:title="Headers/DataHeader.h">
<polygon fill="none" stroke="black" points="1384.5,-68.5 1384.5,-87.5 1501.5,-87.5 1501.5,-68.5 1384.5,-68.5"/>
<text text-anchor="middle" x="1443" y="-75.5" font-family="Helvetica,sans-Serif" font-size="10.00">Headers/DataHeader.h</text>
</a>
</g>
</g>
<!-- Node3&#45;&gt;Node29 -->
<g id="edge33" class="edge"><title>Node3&#45;&gt;Node29</title>
<path fill="none" stroke="midnightblue" d="M863.046,-187.404C953.304,-184.133 1118.45,-174.185 1256,-144 1313.54,-131.374 1377.85,-106.52 1414.08,-91.4705"/>
<polygon fill="midnightblue" stroke="midnightblue" points="1415.65,-94.6033 1423.52,-87.504 1412.94,-88.1495 1415.65,-94.6033"/>
</g>
<!-- Node33 -->
<g id="node33" class="node"><title>Node33</title>
<polygon fill="none" stroke="#bfbfbf" points="1278.5,-6.5 1278.5,-25.5 1337.5,-25.5 1337.5,-6.5 1278.5,-6.5"/>
<text text-anchor="middle" x="1308" y="-13.5" font-family="Helvetica,sans-Serif" font-size="10.00">stdexcept</text>
</g>
<!-- Node3&#45;&gt;Node33 -->
<g id="edge44" class="edge"><title>Node3&#45;&gt;Node33</title>
<path fill="none" stroke="midnightblue" d="M863.197,-181.236C976.107,-167.084 1197.67,-134.228 1260,-88 1278.43,-74.33 1292.07,-51.3638 1300.01,-35.2626"/>
<polygon fill="midnightblue" stroke="midnightblue" points="1303.35,-36.3831 1304.39,-25.8399 1297,-33.4302 1303.35,-36.3831"/>
</g>
<!-- Node35 -->
<g id="node35" class="node"><title>Node35</title>
<polygon fill="none" stroke="#bfbfbf" points="699,-124.5 699,-143.5 755,-143.5 755,-124.5 699,-124.5"/>
<text text-anchor="middle" x="727" y="-131.5" font-family="Helvetica,sans-Serif" font-size="10.00">TClass.h</text>
</g>
<!-- Node3&#45;&gt;Node35 -->
<g id="edge42" class="edge"><title>Node3&#45;&gt;Node35</title>
<path fill="none" stroke="midnightblue" d="M784.914,-180.324C774.514,-172.185 758.739,-159.839 746.278,-150.087"/>
<polygon fill="midnightblue" stroke="midnightblue" points="748.32,-147.241 738.288,-143.834 744.006,-152.753 748.32,-147.241"/>
</g>
<!-- Node36 -->
<g id="node36" class="node"><title>Node36</title>
<polygon fill="none" stroke="#bfbfbf" points="773.5,-124.5 773.5,-143.5 818.5,-143.5 818.5,-124.5 773.5,-124.5"/>
<text text-anchor="middle" x="796" y="-131.5" font-family="Helvetica,sans-Serif" font-size="10.00">gsl/gsl</text>
</g>
<!-- Node3&#45;&gt;Node36 -->
<g id="edge43" class="edge"><title>Node3&#45;&gt;Node36</title>
<path fill="none" stroke="midnightblue" d="M796,-180.083C796,-173.006 796,-162.861 796,-153.986"/>
<polygon fill="midnightblue" stroke="midnightblue" points="799.5,-153.751 796,-143.751 792.5,-153.751 799.5,-153.751"/>
</g>
<!-- Node37 -->
<g id="node37" class="node"><title>Node37</title>
<polygon fill="none" stroke="#bfbfbf" points="837,-124.5 837,-143.5 889,-143.5 889,-124.5 837,-124.5"/>
<text text-anchor="middle" x="863" y="-131.5" font-family="Helvetica,sans-Serif" font-size="10.00">sstream</text>
</g>
<!-- Node3&#45;&gt;Node37 -->
<g id="edge45" class="edge"><title>Node3&#45;&gt;Node37</title>
<path fill="none" stroke="midnightblue" d="M806.765,-180.324C816.766,-172.263 831.887,-160.077 843.93,-150.369"/>
<polygon fill="midnightblue" stroke="midnightblue" points="846.45,-152.834 852.039,-143.834 842.057,-147.384 846.45,-152.834"/>
</g>
<!-- Node5 -->
<g id="node5" class="node"><title>Node5</title>
<polygon fill="none" stroke="#bfbfbf" points="970.5,-68.5 970.5,-87.5 1097.5,-87.5 1097.5,-68.5 970.5,-68.5"/>
<text text-anchor="middle" x="1034" y="-75.5" font-family="Helvetica,sans-Serif" font-size="10.00">fairmq/FairMQMessage.h</text>
</g>
<!-- Node4&#45;&gt;Node5 -->
<g id="edge5" class="edge"><title>Node4&#45;&gt;Node5</title>
<path fill="none" stroke="midnightblue" d="M996.431,-124.083C1002.85,-116.377 1012.31,-105.033 1020.12,-95.6531"/>
<polygon fill="midnightblue" stroke="midnightblue" points="1022.99,-97.674 1026.71,-87.7511 1017.62,-93.1927 1022.99,-97.674"/>
</g>
<!-- Node6 -->
<g id="node6" class="node"><title>Node6</title>
<polygon fill="none" stroke="#bfbfbf" points="1115.5,-68.5 1115.5,-87.5 1162.5,-87.5 1162.5,-68.5 1115.5,-68.5"/>
<text text-anchor="middle" x="1139" y="-75.5" font-family="Helvetica,sans-Serif" font-size="10.00">TList.h</text>
</g>
<!-- Node4&#45;&gt;Node6 -->
<g id="edge6" class="edge"><title>Node4&#45;&gt;Node6</title>
<path fill="none" stroke="midnightblue" d="M1012.77,-124.444C1037.89,-115.399 1077.71,-101.064 1105.9,-90.9158"/>
<polygon fill="midnightblue" stroke="midnightblue" points="1107.12,-94.1968 1115.34,-87.5164 1104.75,-87.6106 1107.12,-94.1968"/>
</g>
<!-- Node7 -->
<g id="node7" class="node"><title>Node7</title>
<polygon fill="none" stroke="#bfbfbf" points="1180.5,-68.5 1180.5,-87.5 1251.5,-87.5 1251.5,-68.5 1180.5,-68.5"/>
<text text-anchor="middle" x="1216" y="-75.5" font-family="Helvetica,sans-Serif" font-size="10.00">TMessage.h</text>
</g>
<!-- Node4&#45;&gt;Node7 -->
<g id="edge7" class="edge"><title>Node4&#45;&gt;Node7</title>
<path fill="none" stroke="midnightblue" d="M1024.97,-124.444C1064.32,-115.083 1127.49,-100.056 1170.31,-89.868"/>
<polygon fill="midnightblue" stroke="midnightblue" points="1171.28,-93.2358 1180.2,-87.5164 1169.66,-86.4258 1171.28,-93.2358"/>
</g>
<!-- Node8 -->
<g id="node8" class="node"><title>Node8</title>
<polygon fill="none" stroke="#bfbfbf" points="524.5,-68.5 524.5,-87.5 593.5,-87.5 593.5,-68.5 524.5,-68.5"/>
<text text-anchor="middle" x="559" y="-75.5" font-family="Helvetica,sans-Serif" font-size="10.00">TObjArray.h</text>
</g>
<!-- Node4&#45;&gt;Node8 -->
<g id="edge8" class="edge"><title>Node4&#45;&gt;Node8</title>
<path fill="none" stroke="midnightblue" d="M908.218,-124.478C817.25,-114.736 673.936,-98.9137 603.877,-88.1559"/>
<polygon fill="midnightblue" stroke="midnightblue" points="604.108,-84.6489 593.683,-86.5407 603.012,-91.5627 604.108,-84.6489"/>
</g>
<!-- Node9 -->
<g id="node9" class="node"><title>Node9</title>
<polygon fill="none" stroke="#bfbfbf" points="611.5,-68.5 611.5,-87.5 698.5,-87.5 698.5,-68.5 611.5,-68.5"/>
<text text-anchor="middle" x="655" y="-75.5" font-family="Helvetica,sans-Serif" font-size="10.00">TStreamerInfo.h</text>
</g>
<!-- Node4&#45;&gt;Node9 -->
<g id="edge9" class="edge"><title>Node4&#45;&gt;Node9</title>
<path fill="none" stroke="midnightblue" d="M936.077,-124.444C873.872,-114.386 771.218,-97.7898 708.685,-87.6796"/>
<polygon fill="midnightblue" stroke="midnightblue" points="709.059,-84.1947 698.629,-86.0537 707.942,-91.105 709.059,-84.1947"/>
</g>
<!-- Node10 -->
<g id="node10" class="node"><title>Node10</title>
<polygon fill="none" stroke="#bfbfbf" points="755.5,-68.5 755.5,-87.5 818.5,-87.5 818.5,-68.5 755.5,-68.5"/>
<text text-anchor="middle" x="787" y="-75.5" font-family="Helvetica,sans-Serif" font-size="10.00">gsl/gsl_util</text>
</g>
<!-- Node4&#45;&gt;Node10 -->
<g id="edge10" class="edge"><title>Node4&#45;&gt;Node10</title>
<path fill="none" stroke="midnightblue" d="M956.992,-124.444C922.169,-115.134 866.385,-100.222 828.287,-90.0372"/>
<polygon fill="midnightblue" stroke="midnightblue" points="829.09,-86.6289 818.525,-87.4275 827.282,-93.3915 829.09,-86.6289"/>
</g>
<!-- Node11 -->
<g id="node11" class="node"><title>Node11</title>
<polygon fill="none" stroke="#bfbfbf" points="836.5,-68.5 836.5,-87.5 889.5,-87.5 889.5,-68.5 836.5,-68.5"/>
<text text-anchor="middle" x="863" y="-75.5" font-family="Helvetica,sans-Serif" font-size="10.00">gsl/span</text>
</g>
<!-- Node4&#45;&gt;Node11 -->
<g id="edge11" class="edge"><title>Node4&#45;&gt;Node11</title>
<path fill="none" stroke="midnightblue" d="M969.035,-124.444C948.391,-115.596 915.937,-101.687 892.368,-91.5865"/>
<polygon fill="midnightblue" stroke="midnightblue" points="893.442,-88.2387 882.872,-87.5164 890.684,-94.6727 893.442,-88.2387"/>
</g>
<!-- Node4&#45;&gt;Node12 -->
<g id="edge12" class="edge"><title>Node4&#45;&gt;Node12</title>
<path fill="none" stroke="midnightblue" d="M918.008,-124.493C850.309,-115.652 757.044,-101.276 746,-88 740.316,-81.1663 740.012,-74.5693 746,-68 804.333,-4.00386 1049.97,-52.8906 1134,-32 1136.99,-31.2563 1140.06,-30.3026 1143.08,-29.2372"/>
<polygon fill="midnightblue" stroke="midnightblue" points="1144.39,-32.4837 1152.42,-25.5734 1141.83,-25.9673 1144.39,-32.4837"/>
</g>
<!-- Node13 -->
<g id="node13" class="node"><title>Node13</title>
<polygon fill="none" stroke="#bfbfbf" points="908,-68.5 908,-87.5 952,-87.5 952,-68.5 908,-68.5"/>
<text text-anchor="middle" x="930" y="-75.5" font-family="Helvetica,sans-Serif" font-size="10.00">mutex</text>
</g>
<!-- Node4&#45;&gt;Node13 -->
<g id="edge13" class="edge"><title>Node4&#45;&gt;Node13</title>
<path fill="none" stroke="midnightblue" d="M979.521,-124.324C970.799,-116.341 957.657,-104.313 947.102,-94.6529"/>
<polygon fill="midnightblue" stroke="midnightblue" points="949.392,-92.0036 939.652,-87.8339 944.666,-97.1674 949.392,-92.0036"/>
</g>
<!-- Node14 -->
<g id="node14" class="node"><title>Node14</title>
<g id="a_node14"><a xlink:href="../../dc/d03/MemoryResources_8h.html" target="_top" xlink:title="MemoryResources/MemoryResources.h">
<polygon fill="none" stroke="black" points="274.5,-68.5 274.5,-87.5 467.5,-87.5 467.5,-68.5 274.5,-68.5"/>
<text text-anchor="middle" x="371" y="-75.5" font-family="Helvetica,sans-Serif" font-size="10.00">MemoryResources/MemoryResources.h</text>
</a>
</g>
</g>
<!-- Node4&#45;&gt;Node14 -->
<g id="edge14" class="edge"><title>Node4&#45;&gt;Node14</title>
<path fill="none" stroke="midnightblue" d="M907.152,-124.853C904.063,-124.562 901.004,-124.277 898,-124 752.505,-110.594 584.282,-96.4684 477.792,-87.6967"/>
<polygon fill="midnightblue" stroke="midnightblue" points="477.935,-84.1968 467.682,-86.8648 477.361,-91.1732 477.935,-84.1968"/>
</g>
<!-- Node15 -->
<g id="node15" class="node"><title>Node15</title>
<polygon fill="none" stroke="#bfbfbf" points="566,-1 566,-31 666,-31 666,-1 566,-1"/>
<text text-anchor="start" x="574" y="-19" font-family="Helvetica,sans-Serif" font-size="10.00">boost/container/flat</text>
<text text-anchor="middle" x="616" y="-8" font-family="Helvetica,sans-Serif" font-size="10.00">_map.hpp</text>
</g>
<!-- Node14&#45;&gt;Node15 -->
<g id="edge15" class="edge"><title>Node14&#45;&gt;Node15</title>
<path fill="none" stroke="midnightblue" d="M406.482,-68.4402C443.736,-59.4364 504.009,-44.8219 556,-32 556.101,-31.9751 556.202,-31.9502 556.303,-31.9252"/>
<polygon fill="midnightblue" stroke="midnightblue" points="557.049,-35.3462 565.916,-29.5464 555.368,-28.5512 557.049,-35.3462"/>
</g>
<!-- Node16 -->
<g id="node16" class="node"><title>Node16</title>
<polygon fill="none" stroke="#bfbfbf" points="684,-1 684,-31 800,-31 800,-1 684,-1"/>
<text text-anchor="start" x="692" y="-19" font-family="Helvetica,sans-Serif" font-size="10.00">boost/container/pmr</text>
<text text-anchor="middle" x="742" y="-8" font-family="Helvetica,sans-Serif" font-size="10.00">/memory_resource.hpp</text>
</g>
<!-- Node14&#45;&gt;Node16 -->
<g id="edge16" class="edge"><title>Node14&#45;&gt;Node16</title>
<path fill="none" stroke="midnightblue" d="M438.251,-68.4849C497.716,-60.6271 587.027,-48.0278 673.916,-32.1233"/>
<polygon fill="midnightblue" stroke="midnightblue" points="674.751,-35.5283 683.949,-30.2698 673.479,-28.6447 674.751,-35.5283"/>
</g>
<!-- Node17 -->
<g id="node17" class="node"><title>Node17</title>
<polygon fill="none" stroke="#bfbfbf" points="818,-1 818,-31 974,-31 974,-1 818,-1"/>
<text text-anchor="start" x="826" y="-19" font-family="Helvetica,sans-Serif" font-size="10.00">boost/container/pmr</text>
<text text-anchor="middle" x="896" y="-8" font-family="Helvetica,sans-Serif" font-size="10.00">/monotonic_buffer_resource.hpp</text>
</g>
<!-- Node14&#45;&gt;Node17 -->
<g id="edge17" class="edge"><title>Node14&#45;&gt;Node17</title>
<path fill="none" stroke="midnightblue" d="M467.555,-68.9066C553.911,-61.241 684.161,-48.6306 807.802,-31.9635"/>
<polygon fill="midnightblue" stroke="midnightblue" points="808.394,-35.4153 817.831,-30.6005 807.451,-28.4791 808.394,-35.4153"/>
</g>
<!-- Node18 -->
<g id="node18" class="node"><title>Node18</title>
<polygon fill="none" stroke="#bfbfbf" points="992.5,-1 992.5,-31 1125.5,-31 1125.5,-1 992.5,-1"/>
<text text-anchor="start" x="1000.5" y="-19" font-family="Helvetica,sans-Serif" font-size="10.00">boost/container/pmr</text>
<text text-anchor="middle" x="1059" y="-8" font-family="Helvetica,sans-Serif" font-size="10.00">/polymorphic_allocator.hpp</text>
</g>
<!-- Node14&#45;&gt;Node18 -->
<g id="edge18" class="edge"><title>Node14&#45;&gt;Node18</title>
<path fill="none" stroke="midnightblue" d="M467.558,-69.1175C472.441,-68.7356 477.277,-68.3612 482,-68 701.33,-51.2285 760.03,-61.3624 982.326,-31.974"/>
<polygon fill="midnightblue" stroke="midnightblue" points="982.9,-35.4285 992.349,-30.6369 981.974,-28.4899 982.9,-35.4285"/>
</g>
<!-- Node14&#45;&gt;Node19 -->
<g id="edge19" class="edge"><title>Node14&#45;&gt;Node19</title>
<path fill="none" stroke="midnightblue" d="M467.815,-70.8119C483.584,-69.8435 499.745,-68.8746 515,-68 668.29,-59.211 1056.05,-69.2771 1205,-32 1207.5,-31.3744 1210.04,-30.5503 1212.54,-29.6097"/>
<polygon fill="midnightblue" stroke="midnightblue" points="1214.04,-32.7732 1221.82,-25.5781 1211.25,-26.353 1214.04,-32.7732"/>
</g>
<!-- Node14&#45;&gt;Node20 -->
<g id="edge20" class="edge"><title>Node14&#45;&gt;Node20</title>
<path fill="none" stroke="midnightblue" d="M467.801,-70.5434C483.572,-69.6084 499.737,-68.7203 515,-68 640.258,-62.0883 1521.43,-62.7534 1643,-32 1645.2,-31.443 1647.43,-30.7076 1649.62,-29.8611"/>
<polygon fill="midnightblue" stroke="midnightblue" points="1651.2,-32.9872 1658.84,-25.6473 1648.29,-26.6205 1651.2,-32.9872"/>
</g>
<!-- Node14&#45;&gt;Node21 -->
<g id="edge21" class="edge"><title>Node14&#45;&gt;Node21</title>
<path fill="none" stroke="midnightblue" d="M280.746,-68.4628C220.666,-61.5622 140.331,-49.9862 71,-32 67.7694,-31.1619 64.4387,-30.155 61.1427,-29.0644"/>
<polygon fill="midnightblue" stroke="midnightblue" points="62.0891,-25.6862 51.4945,-25.6274 59.74,-32.2803 62.0891,-25.6862"/>
</g>
<!-- Node22 -->
<g id="node22" class="node"><title>Node22</title>
<polygon fill="none" stroke="#bfbfbf" points="142,-6.5 142,-25.5 182,-25.5 182,-6.5 142,-6.5"/>
<text text-anchor="middle" x="162" y="-13.5" font-family="Helvetica,sans-Serif" font-size="10.00">utility</text>
</g>
<!-- Node14&#45;&gt;Node22 -->
<g id="edge22" class="edge"><title>Node14&#45;&gt;Node22</title>
<path fill="none" stroke="midnightblue" d="M324.606,-68.4965C287.713,-61.0021 235.146,-48.6752 191,-32 189.396,-31.3941 187.766,-30.722 186.139,-30.0077"/>
<polygon fill="midnightblue" stroke="midnightblue" points="187.575,-26.8143 177.047,-25.6239 184.534,-33.1197 187.575,-26.8143"/>
</g>
<!-- Node14&#45;&gt;Node23 -->
<g id="edge23" class="edge"><title>Node14&#45;&gt;Node23</title>
<path fill="none" stroke="midnightblue" d="M299.468,-68.4973C251.554,-61.5881 187.509,-49.989 133,-32 131.084,-31.3676 129.134,-30.6413 127.193,-29.8567"/>
<polygon fill="midnightblue" stroke="midnightblue" points="128.31,-26.5215 117.754,-25.6145 125.44,-32.9063 128.31,-26.5215"/>
</g>
<!-- Node24 -->
<g id="node24" class="node"><title>Node24</title>
<polygon fill="none" stroke="#bfbfbf" points="200.5,-6.5 200.5,-25.5 283.5,-25.5 283.5,-6.5 200.5,-6.5"/>
<text text-anchor="middle" x="242" y="-13.5" font-family="Helvetica,sans-Serif" font-size="10.00">unordered_map</text>
</g>
<!-- Node14&#45;&gt;Node24 -->
<g id="edge24" class="edge"><title>Node14&#45;&gt;Node24</title>
<path fill="none" stroke="midnightblue" d="M352.517,-68.4035C330.868,-58.3341 294.787,-41.5522 269.768,-29.9151"/>
<polygon fill="midnightblue" stroke="midnightblue" points="270.992,-26.6244 260.448,-25.5806 268.039,-32.9715 270.992,-26.6244"/>
</g>
<!-- Node25 -->
<g id="node25" class="node"><title>Node25</title>
<polygon fill="none" stroke="#bfbfbf" points="301.5,-6.5 301.5,-25.5 398.5,-25.5 398.5,-6.5 301.5,-6.5"/>
<text text-anchor="middle" x="350" y="-13.5" font-family="Helvetica,sans-Serif" font-size="10.00">FairMQMessage.h</text>
</g>
<!-- Node14&#45;&gt;Node25 -->
<g id="edge25" class="edge"><title>Node14&#45;&gt;Node25</title>
<path fill="none" stroke="midnightblue" d="M367.991,-68.4035C364.966,-59.7599 360.21,-46.17 356.347,-35.1341"/>
<polygon fill="midnightblue" stroke="midnightblue" points="359.61,-33.8629 353.003,-25.5806 353.003,-36.1754 359.61,-33.8629"/>
</g>
<!-- Node26 -->
<g id="node26" class="node"><title>Node26</title>
<polygon fill="none" stroke="#bfbfbf" points="416.5,-6.5 416.5,-25.5 547.5,-25.5 547.5,-6.5 416.5,-6.5"/>
<text text-anchor="middle" x="482" y="-13.5" font-family="Helvetica,sans-Serif" font-size="10.00">FairMQTransportFactory.h</text>
</g>
<!-- Node14&#45;&gt;Node26 -->
<g id="edge26" class="edge"><title>Node14&#45;&gt;Node26</title>
<path fill="none" stroke="midnightblue" d="M386.904,-68.4035C405.285,-58.4678 435.756,-41.9966 457.245,-30.3812"/>
<polygon fill="midnightblue" stroke="midnightblue" points="458.993,-33.4148 466.126,-25.5806 455.665,-27.2568 458.993,-33.4148"/>
</g>
<!-- Node27&#45;&gt;Node28 -->
<g id="edge28" class="edge"><title>Node27&#45;&gt;Node28</title>
<path fill="none" stroke="midnightblue" d="M502.165,-124.444C437.156,-114.826 331.723,-99.2275 262.869,-89.0409"/>
<polygon fill="midnightblue" stroke="midnightblue" points="262.969,-85.5177 252.565,-87.5164 261.945,-92.4423 262.969,-85.5177"/>
</g>
<!-- Node28&#45;&gt;Node12 -->
<g id="edge31" class="edge"><title>Node28&#45;&gt;Node12</title>
<path fill="none" stroke="midnightblue" d="M256.805,-68.7592C259.573,-68.4831 262.314,-68.2279 265,-68 457.585,-51.6612 945.302,-73.8197 1134,-32 1137.07,-31.3188 1140.22,-30.3901 1143.31,-29.3264"/>
<polygon fill="midnightblue" stroke="midnightblue" points="1144.79,-32.5059 1152.83,-25.6058 1142.24,-25.9861 1144.79,-32.5059"/>
</g>
<!-- Node28&#45;&gt;Node21 -->
<g id="edge29" class="edge"><title>Node28&#45;&gt;Node21</title>
<path fill="none" stroke="midnightblue" d="M171.201,-68.4482C146.217,-59.451 105.807,-44.8417 71,-32 68.4776,-31.0694 65.8676,-30.1016 63.2453,-29.1258"/>
<polygon fill="midnightblue" stroke="midnightblue" points="64.422,-25.8292 53.8294,-25.6089 61.9727,-32.3867 64.422,-25.8292"/>
</g>
<!-- Node28&#45;&gt;Node23 -->
<g id="edge30" class="edge"><title>Node28&#45;&gt;Node23</title>
<path fill="none" stroke="midnightblue" d="M181.675,-68.4035C166.62,-58.6905 141.884,-42.7319 123.963,-31.1697"/>
<polygon fill="midnightblue" stroke="midnightblue" points="125.6,-28.0609 115.3,-25.5806 121.805,-33.9429 125.6,-28.0609"/>
</g>
<!-- Node29&#45;&gt;Node12 -->
<g id="edge35" class="edge"><title>Node29&#45;&gt;Node12</title>
<path fill="none" stroke="midnightblue" d="M1384.43,-69.5624C1335.73,-62.5165 1264.93,-50.2696 1205,-32 1202.51,-31.241 1199.96,-30.3606 1197.42,-29.4142"/>
<polygon fill="midnightblue" stroke="midnightblue" points="1198.47,-26.0616 1187.88,-25.5533 1195.84,-32.5501 1198.47,-26.0616"/>
</g>
<!-- Node29&#45;&gt;Node19 -->
<g id="edge37" class="edge"><title>Node29&#45;&gt;Node19</title>
<path fill="none" stroke="midnightblue" d="M1401.21,-68.4791C1365.55,-60.6682 1313.18,-47.9127 1269,-32 1267.1,-31.3139 1265.15,-30.5554 1263.21,-29.7546"/>
<polygon fill="midnightblue" stroke="midnightblue" points="1264.25,-26.3906 1253.69,-25.5373 1261.42,-32.7899 1264.25,-26.3906"/>
</g>
<!-- Node29&#45;&gt;Node20 -->
<g id="edge40" class="edge"><title>Node29&#45;&gt;Node20</title>
<path fill="none" stroke="midnightblue" d="M1497.48,-68.4273C1538.27,-61.1298 1595.06,-49.0915 1643,-32 1644.85,-31.34 1646.74,-30.5933 1648.61,-29.7943"/>
<polygon fill="midnightblue" stroke="midnightblue" points="1650.17,-32.9301 1657.74,-25.5217 1647.2,-26.5898 1650.17,-32.9301"/>
</g>
<!-- Node30 -->
<g id="node30" class="node"><title>Node30</title>
<polygon fill="none" stroke="#bfbfbf" points="1790,-6.5 1790,-25.5 1836,-25.5 1836,-6.5 1790,-6.5"/>
<text text-anchor="middle" x="1813" y="-13.5" font-family="Helvetica,sans-Serif" font-size="10.00">cstdint</text>
</g>
<!-- Node29&#45;&gt;Node30 -->
<g id="edge34" class="edge"><title>Node29&#45;&gt;Node30</title>
<path fill="none" stroke="midnightblue" d="M1495.62,-68.4672C1573.11,-55.9018 1715.66,-32.7851 1779.98,-22.3547"/>
<polygon fill="midnightblue" stroke="midnightblue" points="1780.66,-25.7903 1789.97,-20.7347 1779.54,-18.8806 1780.66,-25.7903"/>
</g>
<!-- Node29&#45;&gt;Node31 -->
<g id="edge36" class="edge"><title>Node29&#45;&gt;Node31</title>
<path fill="none" stroke="midnightblue" d="M1470.51,-68.4833C1497.59,-59.9164 1539.99,-46.0029 1576,-32 1577.89,-31.2634 1579.84,-30.481 1581.79,-29.6752"/>
<polygon fill="midnightblue" stroke="midnightblue" points="1583.6,-32.7058 1591.42,-25.5549 1580.85,-26.2699 1583.6,-32.7058"/>
</g>
<!-- Node32 -->
<g id="node32" class="node"><title>Node32</title>
<polygon fill="none" stroke="#bfbfbf" points="1356,-6.5 1356,-25.5 1412,-25.5 1412,-6.5 1356,-6.5"/>
<text text-anchor="middle" x="1384" y="-13.5" font-family="Helvetica,sans-Serif" font-size="10.00">algorithm</text>
</g>
<!-- Node29&#45;&gt;Node32 -->
<g id="edge38" class="edge"><title>Node29&#45;&gt;Node32</title>
<path fill="none" stroke="midnightblue" d="M1434.55,-68.4035C1425.43,-59.1361 1410.73,-44.1828 1399.52,-32.7876"/>
<polygon fill="midnightblue" stroke="midnightblue" points="1401.94,-30.2569 1392.44,-25.5806 1396.95,-35.1649 1401.94,-30.2569"/>
</g>
<!-- Node29&#45;&gt;Node33 -->
<g id="edge39" class="edge"><title>Node29&#45;&gt;Node33</title>
<path fill="none" stroke="midnightblue" d="M1423.66,-68.4035C1400.9,-58.2896 1362.91,-41.4036 1336.71,-29.761"/>
<polygon fill="midnightblue" stroke="midnightblue" points="1337.87,-26.4437 1327.31,-25.5806 1335.02,-32.8404 1337.87,-26.4437"/>
</g>
<!-- Node34 -->
<g id="node34" class="node"><title>Node34</title>
<g id="a_node34"><a xlink:href="../../d7/df8/Types_8h.html" target="_top" xlink:title="MemoryResources/Types.h">
<polygon fill="none" stroke="black" points="1430.5,-6.5 1430.5,-25.5 1567.5,-25.5 1567.5,-6.5 1430.5,-6.5"/>
<text text-anchor="middle" x="1499" y="-13.5" font-family="Helvetica,sans-Serif" font-size="10.00">MemoryResources/Types.h</text>
</a>
</g>
</g>
<!-- Node29&#45;&gt;Node34 -->
<g id="edge41" class="edge"><title>Node29&#45;&gt;Node34</title>
<path fill="none" stroke="midnightblue" d="M1451.02,-68.4035C1459.59,-59.2252 1473.36,-44.4699 1483.96,-33.1173"/>
<polygon fill="midnightblue" stroke="midnightblue" points="1486.73,-35.2793 1490.99,-25.5806 1481.61,-30.503 1486.73,-35.2793"/>
</g>
<!-- Node38&#45;&gt;Node20 -->
<g id="edge57" class="edge"><title>Node38&#45;&gt;Node20</title>
<path fill="none" stroke="midnightblue" d="M1800.5,-180.459C1806.55,-159.579 1821.68,-106.322 1824,-88 1825.12,-79.1816 1829.18,-75.2213 1824,-68 1796.73,-30.0066 1739.65,-19.9507 1704.01,-17.5036"/>
<polygon fill="midnightblue" stroke="midnightblue" points="1703.86,-13.9912 1693.69,-16.9659 1703.5,-20.9817 1703.86,-13.9912"/>
</g>
<!-- Node39 -->
<g id="node39" class="node"><title>Node39</title>
<g id="a_node39"><a xlink:href="../../d2/dd9/ExpirationHandler_8h.html" target="_top" xlink:title="Framework/ExpirationHandler.h">
<polygon fill="none" stroke="black" points="1826,-124.5 1826,-143.5 1980,-143.5 1980,-124.5 1826,-124.5"/>
<text text-anchor="middle" x="1903" y="-131.5" font-family="Helvetica,sans-Serif" font-size="10.00">Framework/ExpirationHandler.h</text>
</a>
</g>
</g>
<!-- Node38&#45;&gt;Node39 -->
<g id="edge48" class="edge"><title>Node38&#45;&gt;Node39</title>
<path fill="none" stroke="midnightblue" d="M1814.87,-180.324C1831.71,-171.664 1857.81,-158.242 1877.24,-148.249"/>
<polygon fill="midnightblue" stroke="midnightblue" points="1878.88,-151.341 1886.17,-143.655 1875.68,-145.116 1878.88,-151.341"/>
</g>
<!-- Node40 -->
<g id="node40" class="node"><title>Node40</title>
<polygon fill="none" stroke="#bfbfbf" points="1949.5,-68.5 1949.5,-87.5 2008.5,-87.5 2008.5,-68.5 1949.5,-68.5"/>
<text text-anchor="middle" x="1979" y="-75.5" font-family="Helvetica,sans-Serif" font-size="10.00">functional</text>
</g>
<!-- Node38&#45;&gt;Node40 -->
<g id="edge58" class="edge"><title>Node38&#45;&gt;Node40</title>
<path fill="none" stroke="midnightblue" d="M1848.48,-180.422C1902.05,-170.809 1980.2,-155.118 1989,-144 1999.49,-130.746 1994.5,-111.081 1988.43,-96.8532"/>
<polygon fill="midnightblue" stroke="midnightblue" points="1991.49,-95.1393 1984.02,-87.6241 1985.17,-98.1562 1991.49,-95.1393"/>
</g>
<!-- Node41 -->
<g id="node41" class="node"><title>Node41</title>
<g id="a_node41"><a xlink:href="../../d5/d3f/InputSpec_8h.html" target="_top" xlink:title="Framework/InputSpec.h">
<polygon fill="none" stroke="black" points="1615.5,-124.5 1615.5,-143.5 1736.5,-143.5 1736.5,-124.5 1615.5,-124.5"/>
<text text-anchor="middle" x="1676" y="-131.5" font-family="Helvetica,sans-Serif" font-size="10.00">Framework/InputSpec.h</text>
</a>
</g>
</g>
<!-- Node38&#45;&gt;Node41 -->
<g id="edge51" class="edge"><title>Node38&#45;&gt;Node41</title>
<path fill="none" stroke="midnightblue" d="M1778.67,-180.444C1758.68,-171.596 1727.26,-157.687 1704.44,-147.586"/>
<polygon fill="midnightblue" stroke="midnightblue" points="1705.8,-144.363 1695.24,-143.516 1702.97,-150.764 1705.8,-144.363"/>
</g>
<!-- Node44 -->
<g id="node44" class="node"><title>Node44</title>
<polygon fill="none" stroke="#bfbfbf" points="2036.5,-124.5 2036.5,-143.5 2085.5,-143.5 2085.5,-124.5 2036.5,-124.5"/>
<text text-anchor="middle" x="2061" y="-131.5" font-family="Helvetica,sans-Serif" font-size="10.00">cstddef</text>
</g>
<!-- Node38&#45;&gt;Node44 -->
<g id="edge56" class="edge"><title>Node38&#45;&gt;Node44</title>
<path fill="none" stroke="midnightblue" d="M1842.28,-180.492C1887.52,-171.707 1959.77,-157.429 2022,-144 2023.44,-143.689 2024.92,-143.367 2026.4,-143.039"/>
<polygon fill="midnightblue" stroke="midnightblue" points="2027.28,-146.429 2036.27,-140.82 2025.74,-139.6 2027.28,-146.429"/>
</g>
<!-- Node39&#45;&gt;Node30 -->
<g id="edge49" class="edge"><title>Node39&#45;&gt;Node30</title>
<path fill="none" stroke="midnightblue" d="M1897.48,-124.358C1889.29,-111.685 1873.23,-87.4523 1858,-68 1848.56,-55.9425 1837.14,-43.013 1828.16,-33.1895"/>
<polygon fill="midnightblue" stroke="midnightblue" points="1830.65,-30.727 1821.29,-25.7555 1825.51,-35.4764 1830.65,-30.727"/>
</g>
<!-- Node39&#45;&gt;Node40 -->
<g id="edge50" class="edge"><title>Node39&#45;&gt;Node40</title>
<path fill="none" stroke="midnightblue" d="M1915.21,-124.324C1926.78,-116.107 1944.38,-103.602 1958.16,-93.8069"/>
<polygon fill="midnightblue" stroke="midnightblue" points="1960.44,-96.4791 1966.57,-87.8339 1956.39,-90.7729 1960.44,-96.4791"/>
</g>
<!-- Node41&#45;&gt;Node20 -->
<g id="edge54" class="edge"><title>Node41&#45;&gt;Node20</title>
<path fill="none" stroke="midnightblue" d="M1675.77,-124.281C1675.29,-105.547 1674.14,-61.098 1673.48,-35.6822"/>
<polygon fill="midnightblue" stroke="midnightblue" points="1676.98,-35.4109 1673.22,-25.5048 1669.98,-35.592 1676.98,-35.4109"/>
</g>
<!-- Node41&#45;&gt;Node29 -->
<g id="edge53" class="edge"><title>Node41&#45;&gt;Node29</title>
<path fill="none" stroke="midnightblue" d="M1639.08,-124.444C1598.6,-115.063 1533.58,-99.9926 1489.62,-89.8036"/>
<polygon fill="midnightblue" stroke="midnightblue" points="1490.28,-86.3646 1479.75,-87.5164 1488.7,-93.1839 1490.28,-86.3646"/>
</g>
<!-- Node42 -->
<g id="node42" class="node"><title>Node42</title>
<g id="a_node42"><a xlink:href="../../dc/dca/Lifetime_8h.html" target="_top" xlink:title="Framework/Lifetime.h">
<polygon fill="none" stroke="black" points="1704.5,-68.5 1704.5,-87.5 1815.5,-87.5 1815.5,-68.5 1704.5,-68.5"/>
<text text-anchor="middle" x="1760" y="-75.5" font-family="Helvetica,sans-Serif" font-size="10.00">Framework/Lifetime.h</text>
</a>
</g>
</g>
<!-- Node41&#45;&gt;Node42 -->
<g id="edge52" class="edge"><title>Node41&#45;&gt;Node42</title>
<path fill="none" stroke="midnightblue" d="M1689.5,-124.324C1702.6,-115.9 1722.71,-102.971 1738.11,-93.0741"/>
<polygon fill="midnightblue" stroke="midnightblue" points="1740.02,-96.0063 1746.54,-87.6545 1736.23,-90.118 1740.02,-96.0063"/>
</g>
<!-- Node43 -->
<g id="node43" class="node"><title>Node43</title>
<polygon fill="none" stroke="#bfbfbf" points="1596,-68.5 1596,-87.5 1648,-87.5 1648,-68.5 1596,-68.5"/>
<text text-anchor="middle" x="1622" y="-75.5" font-family="Helvetica,sans-Serif" font-size="10.00">ostream</text>
</g>
<!-- Node41&#45;&gt;Node43 -->
<g id="edge55" class="edge"><title>Node41&#45;&gt;Node43</title>
<path fill="none" stroke="midnightblue" d="M1667.08,-124.083C1659.22,-116.22 1647.57,-104.569 1638.08,-95.0813"/>
<polygon fill="midnightblue" stroke="midnightblue" points="1640.3,-92.3473 1630.75,-87.7511 1635.35,-97.2971 1640.3,-92.3473"/>
</g>
<!-- Node46&#45;&gt;Node12 -->
<g id="edge62" class="edge"><title>Node46&#45;&gt;Node12</title>
<path fill="none" stroke="midnightblue" d="M1258.32,-180.33C1265.75,-159.354 1281.49,-104.876 1260,-68 1253.17,-56.2714 1223.02,-40.6105 1199.48,-29.7513"/>
<polygon fill="midnightblue" stroke="midnightblue" points="1200.75,-26.4878 1190.2,-25.5592 1197.87,-32.8667 1200.75,-26.4878"/>
</g>
</g>
</svg>
        <g id="navigator" transform="translate(0 0)" fill="#404254">
                <rect fill="#f2f5e9" fill-opacity="0.5" stroke="#606060" stroke-width=".5" x="0" y="0" width="60" height="60"/>
                <use id="zoomplus" xlink:href="#zoomPlus" x="17" y="9" onmousedown="handleZoom(evt,'in')"/>
                <use id="zoomminus" xlink:href="#zoomMin" x="42" y="9" onmousedown="handleZoom(evt,'out')"/>
                <use id="reset" xlink:href="#resetDef" x="30" y="36" onmousedown="handleReset()"/>
                <g id="arrowUp" xlink:href="#dirArrow" transform="translate(30 24)" onmousedown="handlePan(0,-1)">
                  <use xlink:href="#rim" fill="#404040">
                        <set attributeName="fill" to="#808080" begin="arrowUp.mouseover" end="arrowUp.mouseout"/>
                  </use>
                  <path fill="none" stroke="white" stroke-width="1.5" d="M0,-3.0v7 M-2.5,-0.5L0,-3.0L2.5,-0.5"/>
                </g>
                <g id="arrowRight" xlink:href="#dirArrow" transform="rotate(90) translate(36 -43)" onmousedown="handlePan(1,0)">
                  <use xlink:href="#rim" fill="#404040">
                        <set attributeName="fill" to="#808080" begin="arrowRight.mouseover" end="arrowRight.mouseout"/>
                  </use>
                  <path fill="none" stroke="white" stroke-width="1.5" d="M0,-3.0v7 M-2.5,-0.5L0,-3.0L2.5,-0.5"/>
                </g>
                <g id="arrowDown" xlink:href="#dirArrow" transform="rotate(180) translate(-30 -48)" onmousedown="handlePan(0,1)">
                  <use xlink:href="#rim" fill="#404040">
                        <set attributeName="fill" to="#808080" begin="arrowDown.mouseover" end="arrowDown.mouseout"/>
                  </use>
                  <path fill="none" stroke="white" stroke-width="1.5" d="M0,-3.0v7 M-2.5,-0.5L0,-3.0L2.5,-0.5"/>
                </g>
                <g id="arrowLeft" xlink:href="#dirArrow" transform="rotate(270) translate(-36 17)" onmousedown="handlePan(-1,0)">
                  <use xlink:href="#rim" fill="#404040">
                        <set attributeName="fill" to="#808080" begin="arrowLeft.mouseover" end="arrowLeft.mouseout"/>
                  </use>
                  <path fill="none" stroke="white" stroke-width="1.5" d="M0,-3.0v7 M-2.5,-0.5L0,-3.0L2.5,-0.5"/>
                </g>
        </g>
        <svg viewBox="0 0 15 15" width="100%" height="30px" preserveAspectRatio="xMaxYMin meet">
         <g id="arrow_out" transform="scale(0.3 0.3)">
          <a xlink:href="InputRecord_8h__incl_org.svg" target="_base">
           <rect id="button" ry="5" rx="5" y="6" x="6" height="38" width="38"
                fill="#f2f5e9" fill-opacity="0.5" stroke="#606060" stroke-width="1.0"/>
           <path id="arrow"
             d="M 11.500037,31.436501 C 11.940474,20.09759 22.043105,11.32322 32.158766,21.979434 L 37.068811,17.246167 C 37.068811,17.246167 37.088388,32 37.088388,32 L 22.160133,31.978069 C 22.160133,31.978069 26.997745,27.140456 26.997745,27.140456 C 18.528582,18.264221 13.291696,25.230495 11.500037,31.436501 z"
             style="fill:#404040;"/>
          </a>
         </g>
        </svg>
</svg>
