<?xml version="1.0" encoding="UTF-8" standalone="no"?>
<!DOCTYPE svg PUBLIC "-//W3C//DTD SVG 1.1//EN"
 "http://www.w3.org/Graphics/SVG/1.1/DTD/svg11.dtd">
<!-- Generated by graphviz version 2.36.0 (20140111.2315)
 -->
<!-- Title: o2::mcstepanalysis::MCAnalysisMetaInfo Pages: 1 -->
<svg width="141pt" height="238pt"
 viewBox="0.00 0.00 141.00 238.00" xmlns="http://www.w3.org/2000/svg" xmlns:xlink="http://www.w3.org/1999/xlink">
<g id="graph0" class="graph" transform="scale(1 1) rotate(0) translate(4 234)">
<title>o2::mcstepanalysis::MCAnalysisMetaInfo</title>
<!-- Node1 -->
<g id="node1" class="node"><title>Node1</title>
<polygon fill="#bfbfbf" stroke="black" points="-0.5,-0.5 -0.5,-101.5 122.5,-101.5 122.5,-0.5 -0.5,-0.5"/>
<text text-anchor="start" x="7.5" y="-89.5" font-family="Helvetica,sans-Serif" font-size="10.00">o2::mcstepanalysis</text>
<text text-anchor="middle" x="61" y="-78.5" font-family="Helvetica,sans-Serif" font-size="10.00">::MCAnalysisMetaInfo</text>
<polyline fill="none" stroke="black" points="-0.5,-71.5 122.5,-71.5 "/>
<text text-anchor="middle" x="61" y="-59.5" font-family="Helvetica,sans-Serif" font-size="10.00"> </text>
<polyline fill="none" stroke="black" points="-0.5,-52.5 122.5,-52.5 "/>
<text text-anchor="start" x="7.5" y="-40.5" font-family="Helvetica,sans-Serif" font-size="10.00">+ MCAnalysisMetaInfo()</text>
<text text-anchor="start" x="7.5" y="-29.5" font-family="Helvetica,sans-Serif" font-size="10.00">+ MCAnalysisMetaInfo()</text>
<text text-anchor="start" x="7.5" y="-18.5" font-family="Helvetica,sans-Serif" font-size="10.00">+ print()</text>
<text text-anchor="start" x="7.5" y="-7.5" font-family="Helvetica,sans-Serif" font-size="10.00">+ ClassDefNV()</text>
</g>
<!-- Node2 -->
<g id="node2" class="node"><title>Node2</title>
<polygon fill="none" stroke="#bfbfbf" points="46.5,-172.5 46.5,-229.5 75.5,-229.5 75.5,-172.5 46.5,-172.5"/>
<text text-anchor="middle" x="61" y="-217.5" font-family="Helvetica,sans-Serif" font-size="10.00">int</text>
<polyline fill="none" stroke="#bfbfbf" points="46.5,-210.5 75.5,-210.5 "/>
<text text-anchor="middle" x="61" y="-198.5" font-family="Helvetica,sans-Serif" font-size="10.00"> </text>
<polyline fill="none" stroke="#bfbfbf" points="46.5,-191.5 75.5,-191.5 "/>
<text text-anchor="middle" x="61" y="-179.5" font-family="Helvetica,sans-Serif" font-size="10.00"> </text>
</g>
<!-- Node2&#45;&gt;Node1 -->
<g id="edge1" class="edge"><title>Node2&#45;&gt;Node1</title>
<path fill="none" stroke="#404040" d="M61,-172.162C61,-155.651 61,-134.034 61,-113.693"/>
<polygon fill="none" stroke="#404040" points="61.0001,-113.583 57,-107.583 61,-101.583 65,-107.582 61.0001,-113.583"/>
<text text-anchor="middle" x="97" y="-145.5" font-family="Helvetica,sans-Serif" font-size="10.00"> +analysisName</text>
<text text-anchor="middle" x="97" y="-134.5" font-family="Helvetica,sans-Serif" font-size="10.00">+label</text>
<text text-anchor="middle" x="97" y="-123.5" font-family="Helvetica,sans-Serif" font-size="10.00">+nHistograms</text>
</g>
</g>
</svg>
