<?xml version="1.0" encoding="UTF-8" standalone="no"?>
<!DOCTYPE svg PUBLIC "-//W3C//DTD SVG 1.1//EN"
 "http://www.w3.org/Graphics/SVG/1.1/DTD/svg11.dtd">
<!-- Generated by graphviz version 2.36.0 (20140111.2315)
 -->
<!-- Title: o2::framework::data_matcher::SubSpecificationTypeValueMatcher Pages: 1 -->
<!--zoomable 520 -->
<svg id="main" version="1.1" xmlns="http://www.w3.org/2000/svg" xmlns:xlink="http://www.w3.org/1999/xlink" xml:space="preserve" onload="init(evt)">
<style type="text/css"><![CDATA[
.edge:hover path { stroke: red; }
.edge:hover polygon { stroke: red; fill: red; }
]]></style>
<script type="text/javascript"><![CDATA[
var edges = document.getElementsByTagName('g');
if (edges && edges.length) {
  for (var i=0;i<edges.length;i++) {
    if (edges[i].id.substr(0,4)=='edge') {
      edges[i].setAttribute('class','edge');
    }
  }
}
]]></script>
        <defs>
                <circle id="rim" cx="0" cy="0" r="7"/>
                <circle id="rim2" cx="0" cy="0" r="3.5"/>
                <g id="zoomPlus">
                        <use xlink:href="#rim" fill="#404040">
                                <set attributeName="fill" to="#808080" begin="zoomplus.mouseover" end="zoomplus.mouseout"/>
                        </use>
                        <path d="M-4,0h8M0,-4v8" fill="none" stroke="white" stroke-width="1.5" pointer-events="none"/>
                </g>
                <g id="zoomMin">
                        <use xlink:href="#rim" fill="#404040">
                                <set attributeName="fill" to="#808080" begin="zoomminus.mouseover" end="zoomminus.mouseout"/>
                        </use>
                        <path d="M-4,0h8" fill="none" stroke="white" stroke-width="1.5" pointer-events="none"/>
                </g>
                <g id="dirArrow">
                        <path fill="none" stroke="white" stroke-width="1.5" d="M0,-3.0v7 M-2.5,-0.5L0,-3.0L2.5,-0.5"/>
                </g>
               <g id="resetDef">
                       <use xlink:href="#rim2" fill="#404040">
                               <set attributeName="fill" to="#808080" begin="reset.mouseover" end="reset.mouseout"/>
                       </use>
               </g>
        </defs>

<script type="text/javascript">
var viewWidth = 291;
var viewHeight = 520;
var sectionId = 'dynsection-1';
</script>
<script xlink:href="../../svgpan.js"/>
<svg id="graph" class="graph">
<g id="viewport">
<title>o2::framework::data_matcher::SubSpecificationTypeValueMatcher</title>
<!-- Node1 -->
<g id="node1" class="node"><title>Node1</title>
<polygon fill="#bfbfbf" stroke="black" points="41,-1 41,-113 187,-113 187,-1 41,-1"/>
<text text-anchor="start" x="49" y="-101" font-family="Helvetica,sans-Serif" font-size="10.00">o2::framework::data</text>
<text text-anchor="start" x="49" y="-90" font-family="Helvetica,sans-Serif" font-size="10.00">_matcher::SubSpecification</text>
<text text-anchor="middle" x="114" y="-79" font-family="Helvetica,sans-Serif" font-size="10.00">TypeValueMatcher</text>
<polyline fill="none" stroke="black" points="41,-72 187,-72 "/>
<text text-anchor="middle" x="114" y="-60" font-family="Helvetica,sans-Serif" font-size="10.00"> </text>
<polyline fill="none" stroke="black" points="41,-53 187,-53 "/>
<text text-anchor="start" x="49" y="-41" font-family="Helvetica,sans-Serif" font-size="10.00">+ SubSpecificationTypeValue</text>
<text text-anchor="start" x="49" y="-30" font-family="Helvetica,sans-Serif" font-size="10.00">Matcher()</text>
<text text-anchor="start" x="49" y="-19" font-family="Helvetica,sans-Serif" font-size="10.00">+ SubSpecificationTypeValue</text>
<text text-anchor="start" x="49" y="-8" font-family="Helvetica,sans-Serif" font-size="10.00">Matcher()</text>
</g>
<!-- Node2 -->
<g id="node2" class="node"><title>Node2</title>
<g id="a_node2"><a xlink:href="../../dc/d72/classo2_1_1framework_1_1data__matcher_1_1ValueHolder.html" target="_top" xlink:title="{o2::framework::data\l_matcher::ValueHolder\l\&lt; uint64_t \&gt;\n||+ ValueHolder()\l+ ValueHolder()\l+ operator==()\l}">
<polygon fill="none" stroke="black" points="56,-152.5 56,-253.5 172,-253.5 172,-152.5 56,-152.5"/>
<text text-anchor="start" x="64" y="-241.5" font-family="Helvetica,sans-Serif" font-size="10.00">o2::framework::data</text>
<text text-anchor="start" x="64" y="-230.5" font-family="Helvetica,sans-Serif" font-size="10.00">_matcher::ValueHolder</text>
<text text-anchor="middle" x="114" y="-219.5" font-family="Helvetica,sans-Serif" font-size="10.00">&lt; uint64_t &gt;</text>
<polyline fill="none" stroke="black" points="56,-212.5 172,-212.5 "/>
<text text-anchor="middle" x="114" y="-200.5" font-family="Helvetica,sans-Serif" font-size="10.00"> </text>
<polyline fill="none" stroke="black" points="56,-193.5 172,-193.5 "/>
<text text-anchor="start" x="64" y="-181.5" font-family="Helvetica,sans-Serif" font-size="10.00">+ ValueHolder()</text>
<text text-anchor="start" x="64" y="-170.5" font-family="Helvetica,sans-Serif" font-size="10.00">+ ValueHolder()</text>
<text text-anchor="start" x="64" y="-159.5" font-family="Helvetica,sans-Serif" font-size="10.00">+ operator==()</text>
</a>
</g>
</g>
<!-- Node2&#45;&gt;Node1 -->
<g id="edge1" class="edge"><title>Node2&#45;&gt;Node1</title>
<path fill="none" stroke="midnightblue" d="M114,-142.145C114,-132.515 114,-122.587 114,-113.076"/>
<polygon fill="none" stroke="midnightblue" points="110.5,-142.443 114,-152.443 117.5,-142.443 110.5,-142.443"/>
</g>
<!-- Node3 -->
<g id="node3" class="node"><title>Node3</title>
<g id="a_node3"><a xlink:href="../../d5/d87/classstd_1_1variant_3_01uint64__t_00_01o2_1_1framework_1_1data__matcher_1_1ContextRef_01_4.html" target="_top" xlink:title="{variant\&lt; uint64_t,\l o2::framework::data\l_matcher::ContextRef \&gt;\n||}">
<polygon fill="none" stroke="black" points="0,-308.5 0,-387.5 122,-387.5 122,-308.5 0,-308.5"/>
<text text-anchor="start" x="8" y="-375.5" font-family="Helvetica,sans-Serif" font-size="10.00">variant&lt; uint64_t,</text>
<text text-anchor="start" x="8" y="-364.5" font-family="Helvetica,sans-Serif" font-size="10.00"> o2::framework::data</text>
<text text-anchor="middle" x="61" y="-353.5" font-family="Helvetica,sans-Serif" font-size="10.00">_matcher::ContextRef &gt;</text>
<polyline fill="none" stroke="black" points="0,-346.5 122,-346.5 "/>
<text text-anchor="middle" x="61" y="-334.5" font-family="Helvetica,sans-Serif" font-size="10.00"> </text>
<polyline fill="none" stroke="black" points="0,-327.5 122,-327.5 "/>
<text text-anchor="middle" x="61" y="-315.5" font-family="Helvetica,sans-Serif" font-size="10.00"> </text>
</a>
</g>
</g>
<!-- Node3&#45;&gt;Node2 -->
<g id="edge2" class="edge"><title>Node3&#45;&gt;Node2</title>
<path fill="none" stroke="#404040" d="M75.3426,-308.302C80.2773,-294.988 85.9302,-279.736 91.3618,-265.08"/>
<polygon fill="none" stroke="#404040" points="91.4821,-264.756 89.8167,-257.739 95.6525,-253.504 97.318,-260.52 91.4821,-264.756"/>
<text text-anchor="middle" x="108" y="-275.5" font-family="Helvetica,sans-Serif" font-size="10.00"> #mValue</text>
</g>
<!-- Node4 -->
<g id="node4" class="node"><title>Node4</title>
<g id="a_node4"><a xlink:href="../../dc/d72/classo2_1_1framework_1_1data__matcher_1_1ValueHolder.html" target="_top" xlink:title="{o2::framework::data\l_matcher::ValueHolder\&lt; T \&gt;\n||+ ValueHolder()\l+ ValueHolder()\l+ operator==()\l}">
<polygon fill="none" stroke="black" points="140,-303 140,-393 280,-393 280,-303 140,-303"/>
<text text-anchor="start" x="148" y="-381" font-family="Helvetica,sans-Serif" font-size="10.00">o2::framework::data</text>
<text text-anchor="middle" x="210" y="-370" font-family="Helvetica,sans-Serif" font-size="10.00">_matcher::ValueHolder&lt; T &gt;</text>
<polyline fill="none" stroke="black" points="140,-363 280,-363 "/>
<text text-anchor="middle" x="210" y="-351" font-family="Helvetica,sans-Serif" font-size="10.00"> </text>
<polyline fill="none" stroke="black" points="140,-344 280,-344 "/>
<text text-anchor="start" x="148" y="-332" font-family="Helvetica,sans-Serif" font-size="10.00">+ ValueHolder()</text>
<text text-anchor="start" x="148" y="-321" font-family="Helvetica,sans-Serif" font-size="10.00">+ ValueHolder()</text>
<text text-anchor="start" x="148" y="-310" font-family="Helvetica,sans-Serif" font-size="10.00">+ operator==()</text>
</a>
</g>
</g>
<!-- Node4&#45;&gt;Node2 -->
<g id="edge3" class="edge"><title>Node4&#45;&gt;Node2</title>
<path fill="none" stroke="orange" d="M174.652,-294.346C165.724,-281.048 156.168,-266.813 147.344,-253.668"/>
<polygon fill="orange" stroke="orange" points="171.934,-296.577 180.414,-302.928 177.746,-292.675 171.934,-296.577"/>
<text text-anchor="middle" x="192" y="-275.5" font-family="Helvetica,sans-Serif" font-size="10.00"> &lt; uint64_t &gt;</text>
</g>
<!-- Node5 -->
<g id="node5" class="node"><title>Node5</title>
<polygon fill="none" stroke="#bfbfbf" points="136.5,-443 136.5,-511 283.5,-511 283.5,-443 136.5,-443"/>
<text text-anchor="start" x="144.5" y="-499" font-family="Helvetica,sans-Serif" font-size="10.00">variant&lt; T, o2::framework</text>
<text text-anchor="middle" x="210" y="-488" font-family="Helvetica,sans-Serif" font-size="10.00">::data_matcher::ContextRef &gt;</text>
<polyline fill="none" stroke="#bfbfbf" points="136.5,-481 283.5,-481 "/>
<text text-anchor="middle" x="210" y="-469" font-family="Helvetica,sans-Serif" font-size="10.00"> </text>
<polyline fill="none" stroke="#bfbfbf" points="136.5,-462 283.5,-462 "/>
<text text-anchor="middle" x="210" y="-450" font-family="Helvetica,sans-Serif" font-size="10.00"> </text>
</g>
<!-- Node5&#45;&gt;Node4 -->
<g id="edge4" class="edge"><title>Node5&#45;&gt;Node4</title>
<path fill="none" stroke="#404040" d="M210,-442.964C210,-431.49 210,-418.278 210,-405.454"/>
<polygon fill="none" stroke="#404040" points="210,-405.347 206,-399.347 210,-393.347 214,-399.347 210,-405.347"/>
<text text-anchor="middle" x="231" y="-415.5" font-family="Helvetica,sans-Serif" font-size="10.00"> #mValue</text>
</g>
</g>
</svg>
        <g id="navigator" transform="translate(0 0)" fill="#404254">
                <rect fill="#f2f5e9" fill-opacity="0.5" stroke="#606060" stroke-width=".5" x="0" y="0" width="60" height="60"/>
                <use id="zoomplus" xlink:href="#zoomPlus" x="17" y="9" onmousedown="handleZoom(evt,'in')"/>
                <use id="zoomminus" xlink:href="#zoomMin" x="42" y="9" onmousedown="handleZoom(evt,'out')"/>
                <use id="reset" xlink:href="#resetDef" x="30" y="36" onmousedown="handleReset()"/>
                <g id="arrowUp" xlink:href="#dirArrow" transform="translate(30 24)" onmousedown="handlePan(0,-1)">
                  <use xlink:href="#rim" fill="#404040">
                        <set attributeName="fill" to="#808080" begin="arrowUp.mouseover" end="arrowUp.mouseout"/>
                  </use>
                  <path fill="none" stroke="white" stroke-width="1.5" d="M0,-3.0v7 M-2.5,-0.5L0,-3.0L2.5,-0.5"/>
                </g>
                <g id="arrowRight" xlink:href="#dirArrow" transform="rotate(90) translate(36 -43)" onmousedown="handlePan(1,0)">
                  <use xlink:href="#rim" fill="#404040">
                        <set attributeName="fill" to="#808080" begin="arrowRight.mouseover" end="arrowRight.mouseout"/>
                  </use>
                  <path fill="none" stroke="white" stroke-width="1.5" d="M0,-3.0v7 M-2.5,-0.5L0,-3.0L2.5,-0.5"/>
                </g>
                <g id="arrowDown" xlink:href="#dirArrow" transform="rotate(180) translate(-30 -48)" onmousedown="handlePan(0,1)">
                  <use xlink:href="#rim" fill="#404040">
                        <set attributeName="fill" to="#808080" begin="arrowDown.mouseover" end="arrowDown.mouseout"/>
                  </use>
                  <path fill="none" stroke="white" stroke-width="1.5" d="M0,-3.0v7 M-2.5,-0.5L0,-3.0L2.5,-0.5"/>
                </g>
                <g id="arrowLeft" xlink:href="#dirArrow" transform="rotate(270) translate(-36 17)" onmousedown="handlePan(-1,0)">
                  <use xlink:href="#rim" fill="#404040">
                        <set attributeName="fill" to="#808080" begin="arrowLeft.mouseover" end="arrowLeft.mouseout"/>
                  </use>
                  <path fill="none" stroke="white" stroke-width="1.5" d="M0,-3.0v7 M-2.5,-0.5L0,-3.0L2.5,-0.5"/>
                </g>
        </g>
        <svg viewBox="0 0 15 15" width="100%" height="30px" preserveAspectRatio="xMaxYMin meet">
         <g id="arrow_out" transform="scale(0.3 0.3)">
          <a xlink:href="classo2_1_1framework_1_1data__matcher_1_1SubSpecificationTypeValueMatcher__coll__graph_org.svg" target="_base">
           <rect id="button" ry="5" rx="5" y="6" x="6" height="38" width="38"
                fill="#f2f5e9" fill-opacity="0.5" stroke="#606060" stroke-width="1.0"/>
           <path id="arrow"
             d="M 11.500037,31.436501 C 11.940474,20.09759 22.043105,11.32322 32.158766,21.979434 L 37.068811,17.246167 C 37.068811,17.246167 37.088388,32 37.088388,32 L 22.160133,31.978069 C 22.160133,31.978069 26.997745,27.140456 26.997745,27.140456 C 18.528582,18.264221 13.291696,25.230495 11.500037,31.436501 z"
             style="fill:#404040;"/>
          </a>
         </g>
        </svg>
</svg>
