<?xml version="1.0" encoding="UTF-8" standalone="no"?>
<!DOCTYPE svg PUBLIC "-//W3C//DTD SVG 1.1//EN"
 "http://www.w3.org/Graphics/SVG/1.1/DTD/svg11.dtd">
<!-- Generated by graphviz version 2.36.0 (20140111.2315)
 -->
<!-- Title: /home/travis/build/AliceO2Group/AliceO2/Detectors/ITSMFT/ITS/reconstruction/src/TrivialClusterer.cxx Pages: 1 -->
<svg width="2009pt" height="470pt"
 viewBox="0.00 0.00 2009.00 470.00" xmlns="http://www.w3.org/2000/svg" xmlns:xlink="http://www.w3.org/1999/xlink">
<g id="graph0" class="graph" transform="scale(1 1) rotate(0) translate(4 466)">
<title>/home/travis/build/AliceO2Group/AliceO2/Detectors/ITSMFT/ITS/reconstruction/src/TrivialClusterer.cxx</title>
<!-- Node1 -->
<g id="node1" class="node"><title>Node1</title>
<polygon fill="#bfbfbf" stroke="black" points="1045.5,-409 1045.5,-461 1230.5,-461 1230.5,-409 1045.5,-409"/>
<text text-anchor="start" x="1053.5" y="-449" font-family="Helvetica,sans-Serif" font-size="10.00">/home/travis/build</text>
<text text-anchor="start" x="1053.5" y="-438" font-family="Helvetica,sans-Serif" font-size="10.00">/AliceO2Group/AliceO2</text>
<text text-anchor="start" x="1053.5" y="-427" font-family="Helvetica,sans-Serif" font-size="10.00">/Detectors/ITSMFT/ITS</text>
<text text-anchor="middle" x="1138" y="-416" font-family="Helvetica,sans-Serif" font-size="10.00">/reconstruction/src/TrivialClusterer.cxx</text>
</g>
<!-- Node2 -->
<g id="node2" class="node"><title>Node2</title>
<g id="a_node2"><a xlink:href="../../dd/d76/Cartesian3D_8h.html" target="_top" xlink:title="MathUtils/Cartesian3D.h">
<polygon fill="none" stroke="black" points="587.5,-142.5 587.5,-161.5 712.5,-161.5 712.5,-142.5 587.5,-142.5"/>
<text text-anchor="middle" x="650" y="-149.5" font-family="Helvetica,sans-Serif" font-size="10.00">MathUtils/Cartesian3D.h</text>
</a>
</g>
</g>
<!-- Node1&#45;&gt;Node2 -->
<g id="edge1" class="edge"><title>Node1&#45;&gt;Node2</title>
<path fill="none" stroke="midnightblue" d="M1045.49,-434.485C925.6,-433.017 725.972,-422.739 676,-372 622.104,-317.276 636.71,-213.838 645.555,-171.637"/>
<polygon fill="midnightblue" stroke="midnightblue" points="649.02,-172.181 647.785,-161.658 642.188,-170.654 649.02,-172.181"/>
</g>
<!-- Node14 -->
<g id="node14" class="node"><title>Node14</title>
<g id="a_node14"><a xlink:href="../../d0/d06/ITSMFT_2common_2base_2include_2ITSMFTBase_2Digit_8h.html" target="_top" xlink:title="ITSMFTBase/Digit.h">
<polygon fill="none" stroke="black" points="685.5,-346.5 685.5,-365.5 792.5,-365.5 792.5,-346.5 685.5,-346.5"/>
<text text-anchor="middle" x="739" y="-353.5" font-family="Helvetica,sans-Serif" font-size="10.00">ITSMFTBase/Digit.h</text>
</a>
</g>
</g>
<!-- Node1&#45;&gt;Node14 -->
<g id="edge13" class="edge"><title>Node1&#45;&gt;Node14</title>
<path fill="none" stroke="midnightblue" d="M1045.46,-416.141C967.228,-401.044 857.843,-379.935 793.121,-367.444"/>
<polygon fill="midnightblue" stroke="midnightblue" points="793.611,-363.974 783.129,-365.516 792.284,-370.848 793.611,-363.974"/>
</g>
<!-- Node16 -->
<g id="node16" class="node"><title>Node16</title>
<g id="a_node16"><a xlink:href="../../d3/dba/SegmentationAlpide_8h.html" target="_top" xlink:title="Definition of the SegmentationAlpide class. ">
<polygon fill="none" stroke="black" points="779.5,-278.5 779.5,-297.5 952.5,-297.5 952.5,-278.5 779.5,-278.5"/>
<text text-anchor="middle" x="866" y="-285.5" font-family="Helvetica,sans-Serif" font-size="10.00">ITSMFTBase/SegmentationAlpide.h</text>
</a>
</g>
</g>
<!-- Node1&#45;&gt;Node16 -->
<g id="edge16" class="edge"><title>Node1&#45;&gt;Node16</title>
<path fill="none" stroke="midnightblue" d="M1085.99,-408.976C1063.42,-397.917 1036.76,-384.589 1013,-372 968.792,-348.578 918.179,-319.487 889.36,-302.702"/>
<polygon fill="midnightblue" stroke="midnightblue" points="890.863,-299.527 880.462,-297.507 887.334,-305.572 890.863,-299.527"/>
</g>
<!-- Node17 -->
<g id="node17" class="node"><title>Node17</title>
<g id="a_node17"><a xlink:href="../../d1/d76/TrivialClusterer_8h.html" target="_top" xlink:title="Definition of the ITS cluster finder. ">
<polygon fill="none" stroke="black" points="1022,-341 1022,-371 1150,-371 1150,-341 1022,-341"/>
<text text-anchor="start" x="1030" y="-359" font-family="Helvetica,sans-Serif" font-size="10.00">ITSReconstruction/Trivial</text>
<text text-anchor="middle" x="1086" y="-348" font-family="Helvetica,sans-Serif" font-size="10.00">Clusterer.h</text>
</a>
</g>
</g>
<!-- Node1&#45;&gt;Node17 -->
<g id="edge18" class="edge"><title>Node1&#45;&gt;Node17</title>
<path fill="none" stroke="midnightblue" d="M1120.97,-408.787C1114.66,-399.445 1107.55,-388.913 1101.4,-379.798"/>
<polygon fill="midnightblue" stroke="midnightblue" points="1104.12,-377.58 1095.62,-371.252 1098.32,-381.498 1104.12,-377.58"/>
</g>
<!-- Node22 -->
<g id="node22" class="node"><title>Node22</title>
<polygon fill="none" stroke="#bfbfbf" points="1112.5,-142.5 1112.5,-161.5 1183.5,-161.5 1183.5,-142.5 1112.5,-142.5"/>
<text text-anchor="middle" x="1148" y="-149.5" font-family="Helvetica,sans-Serif" font-size="10.00">FairLogger.h</text>
</g>
<!-- Node1&#45;&gt;Node22 -->
<g id="edge57" class="edge"><title>Node1&#45;&gt;Node22</title>
<path fill="none" stroke="midnightblue" d="M1147.46,-408.922C1151.43,-397.739 1155.84,-384.331 1159,-372 1170.1,-328.635 1175.27,-316.559 1171,-272 1167.55,-235.999 1158.37,-194.698 1152.7,-171.443"/>
<polygon fill="midnightblue" stroke="midnightblue" points="1156.06,-170.435 1150.24,-161.578 1149.27,-172.127 1156.06,-170.435"/>
</g>
<!-- Node33 -->
<g id="node33" class="node"><title>Node33</title>
<g id="a_node33"><a xlink:href="../../d1/d62/DataFormats_2Detectors_2ITSMFT_2common_2include_2DataFormatsITSMFT_2Cluster_8h.html" target="_top" xlink:title="DataFormatsITSMFT/Cluster.h">
<polygon fill="none" stroke="black" points="1274,-346.5 1274,-365.5 1426,-365.5 1426,-346.5 1274,-346.5"/>
<text text-anchor="middle" x="1350" y="-353.5" font-family="Helvetica,sans-Serif" font-size="10.00">DataFormatsITSMFT/Cluster.h</text>
</a>
</g>
</g>
<!-- Node1&#45;&gt;Node33 -->
<g id="edge40" class="edge"><title>Node1&#45;&gt;Node33</title>
<path fill="none" stroke="midnightblue" d="M1207.12,-408.894C1243.87,-395.546 1287.38,-379.745 1316.65,-369.114"/>
<polygon fill="midnightblue" stroke="midnightblue" points="1318.17,-372.286 1326.37,-365.583 1315.78,-365.707 1318.17,-372.286"/>
</g>
<!-- Node38 -->
<g id="node38" class="node"><title>Node38</title>
<g id="a_node38"><a xlink:href="../../d7/dcd/MCCompLabel_8h.html" target="_top" xlink:title="SimulationDataFormat\l/MCCompLabel.h">
<polygon fill="none" stroke="black" points="1509,-341 1509,-371 1623,-371 1623,-341 1509,-341"/>
<text text-anchor="start" x="1517" y="-359" font-family="Helvetica,sans-Serif" font-size="10.00">SimulationDataFormat</text>
<text text-anchor="middle" x="1566" y="-348" font-family="Helvetica,sans-Serif" font-size="10.00">/MCCompLabel.h</text>
</a>
</g>
</g>
<!-- Node1&#45;&gt;Node38 -->
<g id="edge49" class="edge"><title>Node1&#45;&gt;Node38</title>
<path fill="none" stroke="midnightblue" d="M1230.61,-417.34C1311.48,-402.79 1426.92,-382.022 1499.1,-369.036"/>
<polygon fill="midnightblue" stroke="midnightblue" points="1499.76,-372.472 1508.99,-367.257 1498.53,-365.583 1499.76,-372.472"/>
</g>
<!-- Node39 -->
<g id="node39" class="node"><title>Node39</title>
<g id="a_node39"><a xlink:href="../../db/d14/MCTruthContainer_8h.html" target="_top" xlink:title="Definition of a container to keep Monte Carlo truth external to simulation objects. ">
<polygon fill="none" stroke="black" points="1733,-137 1733,-167 1847,-167 1847,-137 1733,-137"/>
<text text-anchor="start" x="1741" y="-155" font-family="Helvetica,sans-Serif" font-size="10.00">SimulationDataFormat</text>
<text text-anchor="middle" x="1790" y="-144" font-family="Helvetica,sans-Serif" font-size="10.00">/MCTruthContainer.h</text>
</a>
</g>
</g>
<!-- Node1&#45;&gt;Node39 -->
<g id="edge51" class="edge"><title>Node1&#45;&gt;Node39</title>
<path fill="none" stroke="midnightblue" d="M1230.51,-431.114C1354.34,-425.785 1566.07,-411.106 1632,-372 1710.54,-325.418 1761.03,-222.95 1780.69,-176.598"/>
<polygon fill="midnightblue" stroke="midnightblue" points="1784.03,-177.671 1784.62,-167.092 1777.56,-174.996 1784.03,-177.671"/>
</g>
<!-- Node3 -->
<g id="node3" class="node"><title>Node3</title>
<polygon fill="none" stroke="#bfbfbf" points="-0.5,-69 -0.5,-99 150.5,-99 150.5,-69 -0.5,-69"/>
<text text-anchor="start" x="7.5" y="-87" font-family="Helvetica,sans-Serif" font-size="10.00">Math/GenVector/Displacement</text>
<text text-anchor="middle" x="75" y="-76" font-family="Helvetica,sans-Serif" font-size="10.00">Vector3D.h</text>
</g>
<!-- Node2&#45;&gt;Node3 -->
<g id="edge2" class="edge"><title>Node2&#45;&gt;Node3</title>
<path fill="none" stroke="midnightblue" d="M587.174,-145.898C495.691,-138.15 320.269,-122.095 160.943,-100.071"/>
<polygon fill="midnightblue" stroke="midnightblue" points="161.345,-96.593 150.958,-98.6795 160.379,-103.526 161.345,-96.593"/>
</g>
<!-- Node4 -->
<g id="node4" class="node"><title>Node4</title>
<polygon fill="none" stroke="#bfbfbf" points="169,-74.5 169,-93.5 345,-93.5 345,-74.5 169,-74.5"/>
<text text-anchor="middle" x="257" y="-81.5" font-family="Helvetica,sans-Serif" font-size="10.00">Math/GenVector/PositionVector3D.h</text>
</g>
<!-- Node2&#45;&gt;Node4 -->
<g id="edge3" class="edge"><title>Node2&#45;&gt;Node4</title>
<path fill="none" stroke="midnightblue" d="M599.025,-142.439C526.874,-130.322 395.17,-108.204 317.946,-95.2353"/>
<polygon fill="midnightblue" stroke="midnightblue" points="318.326,-91.7501 307.885,-93.5455 317.167,-98.6535 318.326,-91.7501"/>
</g>
<!-- Node5 -->
<g id="node5" class="node"><title>Node5</title>
<polygon fill="none" stroke="#bfbfbf" points="362.5,-74.5 362.5,-93.5 511.5,-93.5 511.5,-74.5 362.5,-74.5"/>
<text text-anchor="middle" x="437" y="-81.5" font-family="Helvetica,sans-Serif" font-size="10.00">Math/GenVector/Rotation3D.h</text>
</g>
<!-- Node2&#45;&gt;Node5 -->
<g id="edge4" class="edge"><title>Node2&#45;&gt;Node5</title>
<path fill="none" stroke="midnightblue" d="M622.154,-142.372C584.258,-130.629 516.342,-109.585 474.141,-96.5083"/>
<polygon fill="midnightblue" stroke="midnightblue" points="475.103,-93.1425 464.515,-93.5259 473.031,-99.8289 475.103,-93.1425"/>
</g>
<!-- Node6 -->
<g id="node6" class="node"><title>Node6</title>
<polygon fill="none" stroke="#bfbfbf" points="530,-74.5 530,-93.5 686,-93.5 686,-74.5 530,-74.5"/>
<text text-anchor="middle" x="608" y="-81.5" font-family="Helvetica,sans-Serif" font-size="10.00">Math/GenVector/Transform3D.h</text>
</g>
<!-- Node2&#45;&gt;Node6 -->
<g id="edge5" class="edge"><title>Node2&#45;&gt;Node6</title>
<path fill="none" stroke="midnightblue" d="M644.509,-142.372C638.068,-132.25 627.228,-115.215 619.029,-102.331"/>
<polygon fill="midnightblue" stroke="midnightblue" points="621.948,-100.399 613.626,-93.8411 616.042,-104.157 621.948,-100.399"/>
</g>
<!-- Node7 -->
<g id="node7" class="node"><title>Node7</title>
<polygon fill="none" stroke="#bfbfbf" points="704,-74.5 704,-93.5 864,-93.5 864,-74.5 704,-74.5"/>
<text text-anchor="middle" x="784" y="-81.5" font-family="Helvetica,sans-Serif" font-size="10.00">Math/GenVector/Translation3D.h</text>
</g>
<!-- Node2&#45;&gt;Node7 -->
<g id="edge6" class="edge"><title>Node2&#45;&gt;Node7</title>
<path fill="none" stroke="midnightblue" d="M667.518,-142.372C690.39,-131.106 730.645,-111.279 757.321,-98.1403"/>
<polygon fill="midnightblue" stroke="midnightblue" points="759.053,-101.189 766.478,-93.6305 755.96,-94.9092 759.053,-101.189"/>
</g>
<!-- Node8 -->
<g id="node8" class="node"><title>Node8</title>
<polygon fill="none" stroke="#bfbfbf" points="1183,-74.5 1183,-93.5 1239,-93.5 1239,-74.5 1183,-74.5"/>
<text text-anchor="middle" x="1211" y="-81.5" font-family="Helvetica,sans-Serif" font-size="10.00">Rtypes.h</text>
</g>
<!-- Node2&#45;&gt;Node8 -->
<g id="edge7" class="edge"><title>Node2&#45;&gt;Node8</title>
<path fill="none" stroke="midnightblue" d="M689.426,-142.44C701.443,-140.069 714.722,-137.686 727,-136 924.018,-108.945 979.291,-144.999 1173,-100 1176.25,-99.2457 1179.58,-98.2628 1182.86,-97.1606"/>
<polygon fill="midnightblue" stroke="midnightblue" points="1184.26,-100.376 1192.41,-93.6057 1181.82,-93.8162 1184.26,-100.376"/>
</g>
<!-- Node9 -->
<g id="node9" class="node"><title>Node9</title>
<polygon fill="none" stroke="#bfbfbf" points="882,-74.5 882,-93.5 958,-93.5 958,-74.5 882,-74.5"/>
<text text-anchor="middle" x="920" y="-81.5" font-family="Helvetica,sans-Serif" font-size="10.00">TGeoMatrix.h</text>
</g>
<!-- Node2&#45;&gt;Node9 -->
<g id="edge8" class="edge"><title>Node2&#45;&gt;Node9</title>
<path fill="none" stroke="midnightblue" d="M692.185,-142.458C737.224,-133.08 810.557,-117.072 873,-100 876.795,-98.9623 880.742,-97.8141 884.663,-96.6283"/>
<polygon fill="midnightblue" stroke="midnightblue" points="885.749,-99.9563 894.259,-93.6453 883.67,-93.2719 885.749,-99.9563"/>
</g>
<!-- Node10 -->
<g id="node10" class="node"><title>Node10</title>
<polygon fill="none" stroke="#bfbfbf" points="1119.5,-74.5 1119.5,-93.5 1164.5,-93.5 1164.5,-74.5 1119.5,-74.5"/>
<text text-anchor="middle" x="1142" y="-81.5" font-family="Helvetica,sans-Serif" font-size="10.00">iosfwd</text>
</g>
<!-- Node2&#45;&gt;Node10 -->
<g id="edge9" class="edge"><title>Node2&#45;&gt;Node10</title>
<path fill="none" stroke="midnightblue" d="M689.837,-142.463C701.749,-140.12 714.868,-137.748 727,-136 896.226,-111.624 945.042,-144.949 1110,-100 1112.35,-99.3603 1114.74,-98.5589 1117.1,-97.6611"/>
<polygon fill="midnightblue" stroke="midnightblue" points="1118.68,-100.789 1126.46,-93.5964 1115.89,-94.3675 1118.68,-100.789"/>
</g>
<!-- Node11 -->
<g id="node11" class="node"><title>Node11</title>
<g id="a_node11"><a xlink:href="../../d2/dd0/Cartesian2D_8h.html" target="_top" xlink:title="MathUtils/Cartesian2D.h">
<polygon fill="none" stroke="black" points="976.5,-74.5 976.5,-93.5 1101.5,-93.5 1101.5,-74.5 976.5,-74.5"/>
<text text-anchor="middle" x="1039" y="-81.5" font-family="Helvetica,sans-Serif" font-size="10.00">MathUtils/Cartesian2D.h</text>
</a>
</g>
</g>
<!-- Node2&#45;&gt;Node11 -->
<g id="edge10" class="edge"><title>Node2&#45;&gt;Node11</title>
<path fill="none" stroke="midnightblue" d="M691.9,-142.494C703.27,-140.28 715.592,-137.966 727,-136 833.293,-117.684 860.828,-119.007 967,-100 974.428,-98.6702 982.264,-97.1549 989.924,-95.6107"/>
<polygon fill="midnightblue" stroke="midnightblue" points="990.749,-99.0144 999.842,-93.5771 989.343,-92.1571 990.749,-99.0144"/>
</g>
<!-- Node12 -->
<g id="node12" class="node"><title>Node12</title>
<polygon fill="none" stroke="#bfbfbf" points="872.5,-1 872.5,-31 1023.5,-31 1023.5,-1 872.5,-1"/>
<text text-anchor="start" x="880.5" y="-19" font-family="Helvetica,sans-Serif" font-size="10.00">Math/GenVector/Displacement</text>
<text text-anchor="middle" x="948" y="-8" font-family="Helvetica,sans-Serif" font-size="10.00">Vector2D.h</text>
</g>
<!-- Node11&#45;&gt;Node12 -->
<g id="edge11" class="edge"><title>Node11&#45;&gt;Node12</title>
<path fill="none" stroke="midnightblue" d="M1027.1,-74.3717C1014.22,-65.0286 993.22,-49.7966 976.093,-37.375"/>
<polygon fill="midnightblue" stroke="midnightblue" points="977.703,-34.2194 967.553,-31.1815 973.593,-39.8859 977.703,-34.2194"/>
</g>
<!-- Node13 -->
<g id="node13" class="node"><title>Node13</title>
<polygon fill="none" stroke="#bfbfbf" points="1042,-6.5 1042,-25.5 1218,-25.5 1218,-6.5 1042,-6.5"/>
<text text-anchor="middle" x="1130" y="-13.5" font-family="Helvetica,sans-Serif" font-size="10.00">Math/GenVector/PositionVector2D.h</text>
</g>
<!-- Node11&#45;&gt;Node13 -->
<g id="edge12" class="edge"><title>Node11&#45;&gt;Node13</title>
<path fill="none" stroke="midnightblue" d="M1050.9,-74.3717C1065.88,-63.5015 1091.86,-44.6602 1109.94,-31.5474"/>
<polygon fill="midnightblue" stroke="midnightblue" points="1112.06,-34.3349 1118.1,-25.6305 1107.95,-28.6684 1112.06,-34.3349"/>
</g>
<!-- Node14&#45;&gt;Node8 -->
<g id="edge14" class="edge"><title>Node14&#45;&gt;Node8</title>
<path fill="none" stroke="midnightblue" d="M731.003,-346.478C717.612,-331.125 693.396,-297.998 707,-272 756.158,-178.057 804.131,-174.3 903,-136 1015.89,-92.2697 1055.83,-130.45 1173,-100 1176.06,-99.205 1179.2,-98.2323 1182.31,-97.1678"/>
<polygon fill="midnightblue" stroke="midnightblue" points="1183.83,-100.338 1191.97,-93.5599 1181.38,-93.7808 1183.83,-100.338"/>
</g>
<!-- Node15 -->
<g id="node15" class="node"><title>Node15</title>
<polygon fill="none" stroke="#bfbfbf" points="716.5,-278.5 716.5,-297.5 761.5,-297.5 761.5,-278.5 716.5,-278.5"/>
<text text-anchor="middle" x="739" y="-285.5" font-family="Helvetica,sans-Serif" font-size="10.00">climits</text>
</g>
<!-- Node14&#45;&gt;Node15 -->
<g id="edge15" class="edge"><title>Node14&#45;&gt;Node15</title>
<path fill="none" stroke="midnightblue" d="M739,-346.372C739,-336.643 739,-320.528 739,-307.85"/>
<polygon fill="midnightblue" stroke="midnightblue" points="742.5,-307.841 739,-297.841 735.5,-307.841 742.5,-307.841"/>
</g>
<!-- Node16&#45;&gt;Node8 -->
<g id="edge17" class="edge"><title>Node16&#45;&gt;Node8</title>
<path fill="none" stroke="midnightblue" d="M867.15,-278.41C871.152,-252.193 887.002,-172.766 936,-136 1021.22,-72.0557 1070.13,-127.735 1173,-100 1175.99,-99.1951 1179.06,-98.2294 1182.1,-97.1809"/>
<polygon fill="midnightblue" stroke="midnightblue" points="1183.42,-100.423 1191.56,-93.6456 1180.97,-93.8656 1183.42,-100.423"/>
</g>
<!-- Node17&#45;&gt;Node8 -->
<g id="edge19" class="edge"><title>Node17&#45;&gt;Node8</title>
<path fill="none" stroke="midnightblue" d="M1052.85,-340.999C1035.6,-332.378 1015.22,-319.915 1001,-304 970.003,-269.297 945.655,-243.654 970,-204 982.08,-184.324 1119.52,-123.948 1181.27,-97.5611"/>
<polygon fill="midnightblue" stroke="midnightblue" points="1182.67,-100.768 1190.5,-93.6294 1179.93,-94.3284 1182.67,-100.768"/>
</g>
<!-- Node18 -->
<g id="node18" class="node"><title>Node18</title>
<g id="a_node18"><a xlink:href="../../d0/d2d/common_2base_2include_2ITSMFTBase_2GeometryTGeo_8h.html" target="_top" xlink:title="ITSMFTBase/GeometryTGeo.h">
<polygon fill="none" stroke="black" points="1009.5,-278.5 1009.5,-297.5 1162.5,-297.5 1162.5,-278.5 1009.5,-278.5"/>
<text text-anchor="middle" x="1086" y="-285.5" font-family="Helvetica,sans-Serif" font-size="10.00">ITSMFTBase/GeometryTGeo.h</text>
</a>
</g>
</g>
<!-- Node17&#45;&gt;Node18 -->
<g id="edge20" class="edge"><title>Node17&#45;&gt;Node18</title>
<path fill="none" stroke="midnightblue" d="M1086,-340.679C1086,-331.101 1086,-318.394 1086,-307.977"/>
<polygon fill="midnightblue" stroke="midnightblue" points="1089.5,-307.828 1086,-297.828 1082.5,-307.828 1089.5,-307.828"/>
</g>
<!-- Node19 -->
<g id="node19" class="node"><title>Node19</title>
<polygon fill="none" stroke="#bfbfbf" points="978.5,-210.5 978.5,-229.5 1047.5,-229.5 1047.5,-210.5 978.5,-210.5"/>
<text text-anchor="middle" x="1013" y="-217.5" font-family="Helvetica,sans-Serif" font-size="10.00">TObjArray.h</text>
</g>
<!-- Node18&#45;&gt;Node19 -->
<g id="edge21" class="edge"><title>Node18&#45;&gt;Node19</title>
<path fill="none" stroke="midnightblue" d="M1076.46,-278.372C1064.83,-267.856 1044.95,-249.882 1030.53,-236.85"/>
<polygon fill="midnightblue" stroke="midnightblue" points="1032.54,-233.951 1022.78,-229.841 1027.85,-239.144 1032.54,-233.951"/>
</g>
<!-- Node20 -->
<g id="node20" class="node"><title>Node20</title>
<polygon fill="none" stroke="#bfbfbf" points="1065.5,-210.5 1065.5,-229.5 1106.5,-229.5 1106.5,-210.5 1065.5,-210.5"/>
<text text-anchor="middle" x="1086" y="-217.5" font-family="Helvetica,sans-Serif" font-size="10.00">string</text>
</g>
<!-- Node18&#45;&gt;Node20 -->
<g id="edge22" class="edge"><title>Node18&#45;&gt;Node20</title>
<path fill="none" stroke="midnightblue" d="M1086,-278.372C1086,-268.643 1086,-252.528 1086,-239.85"/>
<polygon fill="midnightblue" stroke="midnightblue" points="1089.5,-239.841 1086,-229.841 1082.5,-239.841 1089.5,-239.841"/>
</g>
<!-- Node21 -->
<g id="node21" class="node"><title>Node21</title>
<g id="a_node21"><a xlink:href="../../d4/d20/DetMatrixCache_8h.html" target="_top" xlink:title="DetectorsCommonDataFormats\l/DetMatrixCache.h">
<polygon fill="none" stroke="black" points="1201,-205 1201,-235 1357,-235 1357,-205 1201,-205"/>
<text text-anchor="start" x="1209" y="-223" font-family="Helvetica,sans-Serif" font-size="10.00">DetectorsCommonDataFormats</text>
<text text-anchor="middle" x="1279" y="-212" font-family="Helvetica,sans-Serif" font-size="10.00">/DetMatrixCache.h</text>
</a>
</g>
</g>
<!-- Node18&#45;&gt;Node21 -->
<g id="edge23" class="edge"><title>Node18&#45;&gt;Node21</title>
<path fill="none" stroke="midnightblue" d="M1111.23,-278.372C1140.78,-268.268 1190.46,-251.277 1228.11,-238.402"/>
<polygon fill="midnightblue" stroke="midnightblue" points="1229.57,-241.604 1237.9,-235.056 1227.3,-234.98 1229.57,-241.604"/>
</g>
<!-- Node21&#45;&gt;Node2 -->
<g id="edge38" class="edge"><title>Node21&#45;&gt;Node2</title>
<path fill="none" stroke="midnightblue" d="M1200.76,-205.877C1196.11,-205.211 1191.49,-204.579 1187,-204 1021.38,-182.658 825.951,-166.304 722.59,-158.343"/>
<polygon fill="midnightblue" stroke="midnightblue" points="722.813,-154.85 712.575,-157.576 722.278,-161.83 722.813,-154.85"/>
</g>
<!-- Node21&#45;&gt;Node8 -->
<g id="edge39" class="edge"><title>Node21&#45;&gt;Node8</title>
<path fill="none" stroke="midnightblue" d="M1271.72,-204.66C1259.21,-179.994 1233.64,-129.606 1220.01,-102.761"/>
<polygon fill="midnightblue" stroke="midnightblue" points="1223.08,-101.061 1215.43,-93.7275 1216.83,-104.229 1223.08,-101.061"/>
</g>
<!-- Node21&#45;&gt;Node22 -->
<g id="edge24" class="edge"><title>Node21&#45;&gt;Node22</title>
<path fill="none" stroke="midnightblue" d="M1250.9,-204.841C1228.24,-193.425 1196.6,-177.485 1174.41,-166.303"/>
<polygon fill="midnightblue" stroke="midnightblue" points="1175.74,-163.056 1165.23,-161.682 1172.59,-169.307 1175.74,-163.056"/>
</g>
<!-- Node23 -->
<g id="node23" class="node"><title>Node23</title>
<polygon fill="none" stroke="#bfbfbf" points="1432,-6.5 1432,-25.5 1470,-25.5 1470,-6.5 1432,-6.5"/>
<text text-anchor="middle" x="1451" y="-13.5" font-family="Helvetica,sans-Serif" font-size="10.00">array</text>
</g>
<!-- Node21&#45;&gt;Node23 -->
<g id="edge25" class="edge"><title>Node21&#45;&gt;Node23</title>
<path fill="none" stroke="midnightblue" d="M1279.67,-204.84C1281.04,-187.519 1285.23,-157.814 1298,-136 1327.61,-85.4332 1387.72,-48.6 1423.15,-30.2128"/>
<polygon fill="midnightblue" stroke="midnightblue" points="1425.09,-33.1525 1432.44,-25.5197 1421.93,-26.9044 1425.09,-33.1525"/>
</g>
<!-- Node24 -->
<g id="node24" class="node"><title>Node24</title>
<polygon fill="none" stroke="#bfbfbf" points="1307,-142.5 1307,-161.5 1351,-161.5 1351,-142.5 1307,-142.5"/>
<text text-anchor="middle" x="1329" y="-149.5" font-family="Helvetica,sans-Serif" font-size="10.00">vector</text>
</g>
<!-- Node21&#45;&gt;Node24 -->
<g id="edge26" class="edge"><title>Node21&#45;&gt;Node24</title>
<path fill="none" stroke="midnightblue" d="M1289.85,-204.679C1297.57,-194.49 1307.97,-180.759 1316.11,-170.011"/>
<polygon fill="midnightblue" stroke="midnightblue" points="1319.06,-171.913 1322.31,-161.828 1313.48,-167.686 1319.06,-171.913"/>
</g>
<!-- Node25 -->
<g id="node25" class="node"><title>Node25</title>
<g id="a_node25"><a xlink:href="../../d6/d31/DetID_8h.html" target="_top" xlink:title="DetectorsCommonDataFormats\l/DetID.h">
<polygon fill="none" stroke="black" points="1510,-137 1510,-167 1666,-167 1666,-137 1510,-137"/>
<text text-anchor="start" x="1518" y="-155" font-family="Helvetica,sans-Serif" font-size="10.00">DetectorsCommonDataFormats</text>
<text text-anchor="middle" x="1588" y="-144" font-family="Helvetica,sans-Serif" font-size="10.00">/DetID.h</text>
</a>
</g>
</g>
<!-- Node21&#45;&gt;Node25 -->
<g id="edge27" class="edge"><title>Node21&#45;&gt;Node25</title>
<path fill="none" stroke="midnightblue" d="M1344.91,-204.922C1393.93,-194.452 1460.92,-180.144 1512.16,-169.198"/>
<polygon fill="midnightblue" stroke="midnightblue" points="1513.14,-172.568 1522.19,-167.056 1511.68,-165.722 1513.14,-172.568"/>
</g>
<!-- Node25&#45;&gt;Node8 -->
<g id="edge28" class="edge"><title>Node25&#45;&gt;Node8</title>
<path fill="none" stroke="midnightblue" d="M1509.89,-137.325C1430.17,-123.369 1309.78,-102.294 1248.99,-91.6512"/>
<polygon fill="midnightblue" stroke="midnightblue" points="1249.51,-88.1892 1239.06,-89.9123 1248.31,-95.0844 1249.51,-88.1892"/>
</g>
<!-- Node25&#45;&gt;Node23 -->
<g id="edge29" class="edge"><title>Node25&#45;&gt;Node23</title>
<path fill="none" stroke="midnightblue" d="M1527.38,-136.948C1506.46,-129.264 1484.63,-117.585 1470,-100 1454.97,-81.9316 1451.28,-54.2897 1450.64,-35.9364"/>
<polygon fill="midnightblue" stroke="midnightblue" points="1454.14,-35.8509 1450.57,-25.8778 1447.14,-35.9042 1454.14,-35.8509"/>
</g>
<!-- Node26 -->
<g id="node26" class="node"><title>Node26</title>
<polygon fill="none" stroke="#bfbfbf" points="1381.5,-74.5 1381.5,-93.5 1422.5,-93.5 1422.5,-74.5 1381.5,-74.5"/>
<text text-anchor="middle" x="1402" y="-81.5" font-family="Helvetica,sans-Serif" font-size="10.00">bitset</text>
</g>
<!-- Node25&#45;&gt;Node26 -->
<g id="edge30" class="edge"><title>Node25&#45;&gt;Node26</title>
<path fill="none" stroke="midnightblue" d="M1543.4,-136.964C1513.16,-127.196 1472.41,-113.542 1437,-100 1434.89,-99.1941 1432.73,-98.3365 1430.55,-97.4553"/>
<polygon fill="midnightblue" stroke="midnightblue" points="1431.72,-94.1506 1421.14,-93.5283 1429.02,-100.61 1431.72,-94.1506"/>
</g>
<!-- Node27 -->
<g id="node27" class="node"><title>Node27</title>
<polygon fill="none" stroke="#bfbfbf" points="1651.5,-74.5 1651.5,-93.5 1700.5,-93.5 1700.5,-74.5 1651.5,-74.5"/>
<text text-anchor="middle" x="1676" y="-81.5" font-family="Helvetica,sans-Serif" font-size="10.00">cassert</text>
</g>
<!-- Node25&#45;&gt;Node27 -->
<g id="edge31" class="edge"><title>Node25&#45;&gt;Node27</title>
<path fill="none" stroke="midnightblue" d="M1607.09,-136.679C1621.58,-125.816 1641.43,-110.926 1656.11,-99.919"/>
<polygon fill="midnightblue" stroke="midnightblue" points="1658.58,-102.438 1664.48,-93.6379 1654.38,-96.8379 1658.58,-102.438"/>
</g>
<!-- Node28 -->
<g id="node28" class="node"><title>Node28</title>
<polygon fill="none" stroke="#bfbfbf" points="1479,-74.5 1479,-93.5 1525,-93.5 1525,-74.5 1479,-74.5"/>
<text text-anchor="middle" x="1502" y="-81.5" font-family="Helvetica,sans-Serif" font-size="10.00">cstdint</text>
</g>
<!-- Node25&#45;&gt;Node28 -->
<g id="edge32" class="edge"><title>Node25&#45;&gt;Node28</title>
<path fill="none" stroke="midnightblue" d="M1569.34,-136.679C1555.27,-125.879 1536.01,-111.098 1521.69,-100.11"/>
<polygon fill="midnightblue" stroke="midnightblue" points="1523.57,-97.1399 1513.5,-93.8283 1519.31,-102.693 1523.57,-97.1399"/>
</g>
<!-- Node29 -->
<g id="node29" class="node"><title>Node29</title>
<polygon fill="none" stroke="#bfbfbf" points="1719,-74.5 1719,-93.5 1781,-93.5 1781,-74.5 1719,-74.5"/>
<text text-anchor="middle" x="1750" y="-81.5" font-family="Helvetica,sans-Serif" font-size="10.00">type_traits</text>
</g>
<!-- Node25&#45;&gt;Node29 -->
<g id="edge33" class="edge"><title>Node25&#45;&gt;Node29</title>
<path fill="none" stroke="midnightblue" d="M1622.75,-136.841C1651.4,-125.169 1691.66,-108.768 1719.17,-97.5585"/>
<polygon fill="midnightblue" stroke="midnightblue" points="1720.75,-100.696 1728.69,-93.6819 1718.11,-94.2136 1720.75,-100.696"/>
</g>
<!-- Node30 -->
<g id="node30" class="node"><title>Node30</title>
<g id="a_node30"><a xlink:href="../../d9/d52/Common_2MathUtils_2include_2MathUtils_2Utils_8h.html" target="_top" xlink:title="MathUtils/Utils.h">
<polygon fill="none" stroke="black" points="1543,-74.5 1543,-93.5 1633,-93.5 1633,-74.5 1543,-74.5"/>
<text text-anchor="middle" x="1588" y="-81.5" font-family="Helvetica,sans-Serif" font-size="10.00">MathUtils/Utils.h</text>
</a>
</g>
</g>
<!-- Node25&#45;&gt;Node30 -->
<g id="edge34" class="edge"><title>Node25&#45;&gt;Node30</title>
<path fill="none" stroke="midnightblue" d="M1588,-136.679C1588,-127.101 1588,-114.394 1588,-103.977"/>
<polygon fill="midnightblue" stroke="midnightblue" points="1591.5,-103.828 1588,-93.8283 1584.5,-103.828 1591.5,-103.828"/>
</g>
<!-- Node30&#45;&gt;Node23 -->
<g id="edge35" class="edge"><title>Node30&#45;&gt;Node23</title>
<path fill="none" stroke="midnightblue" d="M1570.09,-74.3717C1546.71,-63.1063 1505.55,-43.2794 1478.28,-30.1403"/>
<polygon fill="midnightblue" stroke="midnightblue" points="1479.44,-26.8175 1468.91,-25.6305 1476.4,-33.1238 1479.44,-26.8175"/>
</g>
<!-- Node31 -->
<g id="node31" class="node"><title>Node31</title>
<polygon fill="none" stroke="#bfbfbf" points="1527,-6.5 1527,-25.5 1571,-25.5 1571,-6.5 1527,-6.5"/>
<text text-anchor="middle" x="1549" y="-13.5" font-family="Helvetica,sans-Serif" font-size="10.00">cmath</text>
</g>
<!-- Node30&#45;&gt;Node31 -->
<g id="edge36" class="edge"><title>Node30&#45;&gt;Node31</title>
<path fill="none" stroke="midnightblue" d="M1582.9,-74.3717C1576.98,-64.3478 1567.05,-47.5455 1559.46,-34.7076"/>
<polygon fill="midnightblue" stroke="midnightblue" points="1562.32,-32.6698 1554.22,-25.8411 1556.3,-36.231 1562.32,-32.6698"/>
</g>
<!-- Node32 -->
<g id="node32" class="node"><title>Node32</title>
<g id="a_node32"><a xlink:href="../../d6/d84/MathConstants_8h.html" target="_top" xlink:title="useful math constants ">
<polygon fill="none" stroke="black" points="1589.5,-6.5 1589.5,-25.5 1768.5,-25.5 1768.5,-6.5 1589.5,-6.5"/>
<text text-anchor="middle" x="1679" y="-13.5" font-family="Helvetica,sans-Serif" font-size="10.00">CommonConstants/MathConstants.h</text>
</a>
</g>
</g>
<!-- Node30&#45;&gt;Node32 -->
<g id="edge37" class="edge"><title>Node30&#45;&gt;Node32</title>
<path fill="none" stroke="midnightblue" d="M1599.9,-74.3717C1614.88,-63.5015 1640.86,-44.6602 1658.94,-31.5474"/>
<polygon fill="midnightblue" stroke="midnightblue" points="1661.06,-34.3349 1667.1,-25.6305 1656.95,-28.6684 1661.06,-34.3349"/>
</g>
<!-- Node34 -->
<g id="node34" class="node"><title>Node34</title>
<g id="a_node34"><a xlink:href="../../d4/de2/BaseCluster_8h.html" target="_top" xlink:title="ReconstructionDataFormats\l/BaseCluster.h">
<polygon fill="none" stroke="black" points="1334,-273 1334,-303 1474,-303 1474,-273 1334,-273"/>
<text text-anchor="start" x="1342" y="-291" font-family="Helvetica,sans-Serif" font-size="10.00">ReconstructionDataFormats</text>
<text text-anchor="middle" x="1404" y="-280" font-family="Helvetica,sans-Serif" font-size="10.00">/BaseCluster.h</text>
</a>
</g>
</g>
<!-- Node33&#45;&gt;Node34 -->
<g id="edge41" class="edge"><title>Node33&#45;&gt;Node34</title>
<path fill="none" stroke="midnightblue" d="M1357.06,-346.372C1364.35,-337.457 1376.03,-323.182 1385.92,-311.101"/>
<polygon fill="midnightblue" stroke="midnightblue" points="1388.77,-313.137 1392.4,-303.181 1383.36,-308.705 1388.77,-313.137"/>
</g>
<!-- Node34&#45;&gt;Node2 -->
<g id="edge48" class="edge"><title>Node34&#45;&gt;Node2</title>
<path fill="none" stroke="midnightblue" d="M1333.52,-272.968C1291.9,-263.96 1238.43,-251.128 1192,-236 1156.76,-224.519 1150.89,-213.225 1115,-204 979.291,-169.123 815.296,-158.092 722.782,-154.607"/>
<polygon fill="midnightblue" stroke="midnightblue" points="722.804,-151.105 712.685,-154.245 722.553,-158.101 722.804,-151.105"/>
</g>
<!-- Node34&#45;&gt;Node10 -->
<g id="edge46" class="edge"><title>Node34&#45;&gt;Node10</title>
<path fill="none" stroke="midnightblue" d="M1401.7,-272.912C1395.89,-239.087 1379.62,-154.699 1359,-136 1296.96,-79.7244 1253.64,-125.973 1174,-100 1171.87,-99.3044 1169.69,-98.5015 1167.53,-97.6362"/>
<polygon fill="midnightblue" stroke="midnightblue" points="1168.86,-94.3976 1158.29,-93.5819 1166.04,-100.807 1168.86,-94.3976"/>
</g>
<!-- Node34&#45;&gt;Node21 -->
<g id="edge47" class="edge"><title>Node34&#45;&gt;Node21</title>
<path fill="none" stroke="midnightblue" d="M1377.18,-272.841C1358.98,-263.228 1334.69,-250.407 1314.83,-239.92"/>
<polygon fill="midnightblue" stroke="midnightblue" points="1316.25,-236.709 1305.77,-235.135 1312.98,-242.899 1316.25,-236.709"/>
</g>
<!-- Node34&#45;&gt;Node26 -->
<g id="edge43" class="edge"><title>Node34&#45;&gt;Node26</title>
<path fill="none" stroke="midnightblue" d="M1403.86,-272.796C1403.51,-237.159 1402.58,-143.952 1402.19,-103.823"/>
<polygon fill="midnightblue" stroke="midnightblue" points="1405.68,-103.562 1402.09,-93.5969 1398.68,-103.631 1405.68,-103.562"/>
</g>
<!-- Node35 -->
<g id="node35" class="node"><title>Node35</title>
<polygon fill="none" stroke="#bfbfbf" points="1451.5,-210.5 1451.5,-229.5 1510.5,-229.5 1510.5,-210.5 1451.5,-210.5"/>
<text text-anchor="middle" x="1481" y="-217.5" font-family="Helvetica,sans-Serif" font-size="10.00">TObject.h</text>
</g>
<!-- Node34&#45;&gt;Node35 -->
<g id="edge42" class="edge"><title>Node34&#45;&gt;Node35</title>
<path fill="none" stroke="midnightblue" d="M1420.71,-272.679C1433.19,-261.981 1450.23,-247.377 1463.01,-236.422"/>
<polygon fill="midnightblue" stroke="midnightblue" points="1465.39,-238.994 1470.7,-229.828 1460.83,-233.679 1465.39,-238.994"/>
</g>
<!-- Node36 -->
<g id="node36" class="node"><title>Node36</title>
<polygon fill="none" stroke="#bfbfbf" points="1529,-210.5 1529,-229.5 1579,-229.5 1579,-210.5 1529,-210.5"/>
<text text-anchor="middle" x="1554" y="-217.5" font-family="Helvetica,sans-Serif" font-size="10.00">iomanip</text>
</g>
<!-- Node34&#45;&gt;Node36 -->
<g id="edge44" class="edge"><title>Node34&#45;&gt;Node36</title>
<path fill="none" stroke="midnightblue" d="M1436.18,-272.841C1462.47,-261.272 1499.33,-245.055 1524.78,-233.855"/>
<polygon fill="midnightblue" stroke="midnightblue" points="1526.52,-236.913 1534.27,-229.682 1523.71,-230.506 1526.52,-236.913"/>
</g>
<!-- Node37 -->
<g id="node37" class="node"><title>Node37</title>
<polygon fill="none" stroke="#bfbfbf" points="1597.5,-210.5 1597.5,-229.5 1626.5,-229.5 1626.5,-210.5 1597.5,-210.5"/>
<text text-anchor="middle" x="1612" y="-217.5" font-family="Helvetica,sans-Serif" font-size="10.00">ios</text>
</g>
<!-- Node34&#45;&gt;Node37 -->
<g id="edge45" class="edge"><title>Node34&#45;&gt;Node37</title>
<path fill="none" stroke="midnightblue" d="M1472.47,-272.991C1507.82,-264.532 1551.13,-252.22 1588,-236 1588.87,-235.619 1589.74,-235.211 1590.61,-234.781"/>
<polygon fill="midnightblue" stroke="midnightblue" points="1592.69,-237.623 1599.67,-229.651 1589.24,-231.531 1592.69,-237.623"/>
</g>
<!-- Node38&#45;&gt;Node8 -->
<g id="edge50" class="edge"><title>Node38&#45;&gt;Node8</title>
<path fill="none" stroke="midnightblue" d="M1581.71,-340.962C1611.26,-312.868 1669.2,-248.601 1635,-204 1597.48,-155.064 1560.42,-184.485 1501,-168 1410.5,-142.894 1304.48,-112.231 1249.1,-96.1175"/>
<polygon fill="midnightblue" stroke="midnightblue" points="1249.94,-92.7177 1239.36,-93.2827 1247.98,-99.4386 1249.94,-92.7177"/>
</g>
<!-- Node39&#45;&gt;Node27 -->
<g id="edge53" class="edge"><title>Node39&#45;&gt;Node27</title>
<path fill="none" stroke="midnightblue" d="M1765.54,-136.841C1746.09,-125.579 1719.03,-109.913 1699.76,-98.7572"/>
<polygon fill="midnightblue" stroke="midnightblue" points="1701.4,-95.6633 1691,-93.6819 1697.9,-101.721 1701.4,-95.6633"/>
</g>
<!-- Node39&#45;&gt;Node29 -->
<g id="edge56" class="edge"><title>Node39&#45;&gt;Node29</title>
<path fill="none" stroke="midnightblue" d="M1781.32,-136.679C1775.27,-126.694 1767.16,-113.307 1760.7,-102.66"/>
<polygon fill="midnightblue" stroke="midnightblue" points="1763.53,-100.566 1755.35,-93.8283 1757.54,-104.194 1763.53,-100.566"/>
</g>
<!-- Node40 -->
<g id="node40" class="node"><title>Node40</title>
<polygon fill="none" stroke="#bfbfbf" points="1799,-74.5 1799,-93.5 1861,-93.5 1861,-74.5 1799,-74.5"/>
<text text-anchor="middle" x="1830" y="-81.5" font-family="Helvetica,sans-Serif" font-size="10.00">TNamed.h</text>
</g>
<!-- Node39&#45;&gt;Node40 -->
<g id="edge52" class="edge"><title>Node39&#45;&gt;Node40</title>
<path fill="none" stroke="midnightblue" d="M1798.68,-136.679C1804.73,-126.694 1812.84,-113.307 1819.3,-102.66"/>
<polygon fill="midnightblue" stroke="midnightblue" points="1822.46,-104.194 1824.65,-93.8283 1816.47,-100.566 1822.46,-104.194"/>
</g>
<!-- Node41 -->
<g id="node41" class="node"><title>Node41</title>
<polygon fill="none" stroke="#bfbfbf" points="1879.5,-74.5 1879.5,-93.5 1938.5,-93.5 1938.5,-74.5 1879.5,-74.5"/>
<text text-anchor="middle" x="1909" y="-81.5" font-family="Helvetica,sans-Serif" font-size="10.00">stdexcept</text>
</g>
<!-- Node39&#45;&gt;Node41 -->
<g id="edge54" class="edge"><title>Node39&#45;&gt;Node41</title>
<path fill="none" stroke="midnightblue" d="M1815.53,-136.841C1835.93,-125.528 1864.34,-109.771 1884.47,-98.6053"/>
<polygon fill="midnightblue" stroke="midnightblue" points="1886.3,-101.593 1893.35,-93.6819 1882.9,-95.4714 1886.3,-101.593"/>
</g>
<!-- Node42 -->
<g id="node42" class="node"><title>Node42</title>
<polygon fill="none" stroke="#bfbfbf" points="1956.5,-74.5 1956.5,-93.5 2001.5,-93.5 2001.5,-74.5 1956.5,-74.5"/>
<text text-anchor="middle" x="1979" y="-81.5" font-family="Helvetica,sans-Serif" font-size="10.00">gsl/gsl</text>
</g>
<!-- Node39&#45;&gt;Node42 -->
<g id="edge55" class="edge"><title>Node39&#45;&gt;Node42</title>
<path fill="none" stroke="midnightblue" d="M1838.65,-136.905C1869.94,-127.421 1911.28,-114.109 1947,-100 1948.65,-99.3491 1950.33,-98.6542 1952.02,-97.9335"/>
<polygon fill="midnightblue" stroke="midnightblue" points="1953.88,-100.937 1961.57,-93.6505 1951.01,-94.5508 1953.88,-100.937"/>
</g>
</g>
</svg>
