<?xml version="1.0" encoding="UTF-8" standalone="no"?>
<!DOCTYPE svg PUBLIC "-//W3C//DTD SVG 1.1//EN"
 "http://www.w3.org/Graphics/SVG/1.1/DTD/svg11.dtd">
<!-- Generated by graphviz version 2.36.0 (20140111.2315)
 -->
<!-- Title: /home/travis/build/AliceO2Group/AliceO2/macro/readITSDigits.C Pages: 1 -->
<!--zoomable 242 -->
<svg id="main" version="1.1" xmlns="http://www.w3.org/2000/svg" xmlns:xlink="http://www.w3.org/1999/xlink" xml:space="preserve" onload="init(evt)">
<style type="text/css"><![CDATA[
.edge:hover path { stroke: red; }
.edge:hover polygon { stroke: red; fill: red; }
]]></style>
<script type="text/javascript"><![CDATA[
var edges = document.getElementsByTagName('g');
if (edges && edges.length) {
  for (var i=0;i<edges.length;i++) {
    if (edges[i].id.substr(0,4)=='edge') {
      edges[i].setAttribute('class','edge');
    }
  }
}
]]></script>
        <defs>
                <circle id="rim" cx="0" cy="0" r="7"/>
                <circle id="rim2" cx="0" cy="0" r="3.5"/>
                <g id="zoomPlus">
                        <use xlink:href="#rim" fill="#404040">
                                <set attributeName="fill" to="#808080" begin="zoomplus.mouseover" end="zoomplus.mouseout"/>
                        </use>
                        <path d="M-4,0h8M0,-4v8" fill="none" stroke="white" stroke-width="1.5" pointer-events="none"/>
                </g>
                <g id="zoomMin">
                        <use xlink:href="#rim" fill="#404040">
                                <set attributeName="fill" to="#808080" begin="zoomminus.mouseover" end="zoomminus.mouseout"/>
                        </use>
                        <path d="M-4,0h8" fill="none" stroke="white" stroke-width="1.5" pointer-events="none"/>
                </g>
                <g id="dirArrow">
                        <path fill="none" stroke="white" stroke-width="1.5" d="M0,-3.0v7 M-2.5,-0.5L0,-3.0L2.5,-0.5"/>
                </g>
               <g id="resetDef">
                       <use xlink:href="#rim2" fill="#404040">
                               <set attributeName="fill" to="#808080" begin="reset.mouseover" end="reset.mouseout"/>
                       </use>
               </g>
        </defs>

<script type="text/javascript">
var viewWidth = 1622;
var viewHeight = 242;
var sectionId = 'dynsection-0';
</script>
<script xlink:href="../../svgpan.js"/>
<svg id="graph" class="graph">
<g id="viewport">
<title>/home/travis/build/AliceO2Group/AliceO2/macro/readITSDigits.C</title>
<!-- Node1 -->
<g id="node1" class="node"><title>Node1</title>
<polygon fill="#bfbfbf" stroke="black" points="328,-192.5 328,-233.5 448,-233.5 448,-192.5 328,-192.5"/>
<text text-anchor="start" x="336" y="-221.5" font-family="Helvetica,sans-Serif" font-size="10.00">/home/travis/build</text>
<text text-anchor="start" x="336" y="-210.5" font-family="Helvetica,sans-Serif" font-size="10.00">/AliceO2Group/AliceO2</text>
<text text-anchor="middle" x="388" y="-199.5" font-family="Helvetica,sans-Serif" font-size="10.00">/macro/readITSDigits.C</text>
</g>
<!-- Node2 -->
<g id="node2" class="node"><title>Node2</title>
<polygon fill="none" stroke="#bfbfbf" points="-0.5,-130.5 -0.5,-149.5 46.5,-149.5 46.5,-130.5 -0.5,-130.5"/>
<text text-anchor="middle" x="23" y="-137.5" font-family="Helvetica,sans-Serif" font-size="10.00">TFile.h</text>
</g>
<!-- Node1&#45;&gt;Node2 -->
<g id="edge1" class="edge"><title>Node1&#45;&gt;Node2</title>
<path fill="none" stroke="midnightblue" d="M327.85,-206.595C260.5,-199.458 148.648,-184.341 56,-156 53.715,-155.301 51.382,-154.479 49.0653,-153.587"/>
<polygon fill="midnightblue" stroke="midnightblue" points="50.3723,-150.339 39.7998,-149.652 47.6358,-156.782 50.3723,-150.339"/>
</g>
<!-- Node3 -->
<g id="node3" class="node"><title>Node3</title>
<polygon fill="none" stroke="#bfbfbf" points="65,-130.5 65,-149.5 115,-149.5 115,-130.5 65,-130.5"/>
<text text-anchor="middle" x="90" y="-137.5" font-family="Helvetica,sans-Serif" font-size="10.00">TTree.h</text>
</g>
<!-- Node1&#45;&gt;Node3 -->
<g id="edge2" class="edge"><title>Node1&#45;&gt;Node3</title>
<path fill="none" stroke="midnightblue" d="M327.84,-202.882C273.723,-193.826 192.442,-178.094 124,-156 121.721,-155.264 119.387,-154.426 117.064,-153.531"/>
<polygon fill="midnightblue" stroke="midnightblue" points="118.306,-150.258 107.729,-149.648 115.617,-156.721 118.306,-150.258"/>
</g>
<!-- Node4 -->
<g id="node4" class="node"><title>Node4</title>
<polygon fill="none" stroke="#bfbfbf" points="133.5,-130.5 133.5,-149.5 210.5,-149.5 210.5,-130.5 133.5,-130.5"/>
<text text-anchor="middle" x="172" y="-137.5" font-family="Helvetica,sans-Serif" font-size="10.00">TStopwatch.h</text>
</g>
<!-- Node1&#45;&gt;Node4 -->
<g id="edge3" class="edge"><title>Node1&#45;&gt;Node4</title>
<path fill="none" stroke="midnightblue" d="M328.405,-192.411C289.589,-179.652 240.256,-163.436 207.482,-152.663"/>
<polygon fill="midnightblue" stroke="midnightblue" points="208.466,-149.302 197.873,-149.504 206.28,-155.952 208.466,-149.302"/>
</g>
<!-- Node5 -->
<g id="node5" class="node"><title>Node5</title>
<polygon fill="none" stroke="#bfbfbf" points="229,-130.5 229,-149.5 281,-149.5 281,-130.5 229,-130.5"/>
<text text-anchor="middle" x="255" y="-137.5" font-family="Helvetica,sans-Serif" font-size="10.00">memory</text>
</g>
<!-- Node1&#45;&gt;Node5 -->
<g id="edge4" class="edge"><title>Node1&#45;&gt;Node5</title>
<path fill="none" stroke="midnightblue" d="M351.305,-192.411C328.604,-180.292 300.061,-165.055 279.961,-154.325"/>
<polygon fill="midnightblue" stroke="midnightblue" points="281.574,-151.219 271.104,-149.597 278.277,-157.394 281.574,-151.219"/>
</g>
<!-- Node6 -->
<g id="node6" class="node"><title>Node6</title>
<polygon fill="none" stroke="#bfbfbf" points="299.5,-130.5 299.5,-149.5 370.5,-149.5 370.5,-130.5 299.5,-130.5"/>
<text text-anchor="middle" x="335" y="-137.5" font-family="Helvetica,sans-Serif" font-size="10.00">FairLogger.h</text>
</g>
<!-- Node1&#45;&gt;Node6 -->
<g id="edge5" class="edge"><title>Node1&#45;&gt;Node6</title>
<path fill="none" stroke="midnightblue" d="M373.237,-192.223C365.182,-181.432 355.315,-168.214 347.621,-157.908"/>
<polygon fill="midnightblue" stroke="midnightblue" points="350.307,-155.655 341.52,-149.735 344.698,-159.842 350.307,-155.655"/>
</g>
<!-- Node7 -->
<g id="node7" class="node"><title>Node7</title>
<g id="a_node7"><a xlink:href="../../d5/d08/ROFRecord_8h.html" target="_top" xlink:title="Definition of the ITSMFT ROFrame (trigger) record. ">
<polygon fill="none" stroke="black" points="646.5,-130.5 646.5,-149.5 819.5,-149.5 819.5,-130.5 646.5,-130.5"/>
<text text-anchor="middle" x="733" y="-137.5" font-family="Helvetica,sans-Serif" font-size="10.00">DataFormatsITSMFT/ROFRecord.h</text>
</a>
</g>
</g>
<!-- Node1&#45;&gt;Node7 -->
<g id="edge6" class="edge"><title>Node1&#45;&gt;Node7</title>
<path fill="none" stroke="midnightblue" d="M448.094,-199.633C514.112,-186.046 619.036,-164.453 681.446,-151.61"/>
<polygon fill="midnightblue" stroke="midnightblue" points="682.371,-154.993 691.46,-149.549 680.96,-148.136 682.371,-154.993"/>
</g>
<!-- Node14 -->
<g id="node14" class="node"><title>Node14</title>
<g id="a_node14"><a xlink:href="../../d0/d06/ITSMFT_2common_2base_2include_2ITSMFTBase_2Digit_8h.html" target="_top" xlink:title="ITSMFTBase/Digit.h">
<polygon fill="none" stroke="black" points="388.5,-130.5 388.5,-149.5 495.5,-149.5 495.5,-130.5 388.5,-130.5"/>
<text text-anchor="middle" x="442" y="-137.5" font-family="Helvetica,sans-Serif" font-size="10.00">ITSMFTBase/Digit.h</text>
</a>
</g>
</g>
<!-- Node1&#45;&gt;Node14 -->
<g id="edge14" class="edge"><title>Node1&#45;&gt;Node14</title>
<path fill="none" stroke="midnightblue" d="M403.042,-192.223C411.249,-181.432 421.302,-168.214 429.141,-157.908"/>
<polygon fill="midnightblue" stroke="midnightblue" points="432.089,-159.813 435.357,-149.735 426.517,-155.576 432.089,-159.813"/>
</g>
<!-- Node16 -->
<g id="node16" class="node"><title>Node16</title>
<g id="a_node16"><a xlink:href="../../d5/d3f/RunContext_8h.html" target="_top" xlink:title="SimulationDataFormat\l/RunContext.h">
<polygon fill="none" stroke="black" points="870,-125 870,-155 984,-155 984,-125 870,-125"/>
<text text-anchor="start" x="878" y="-143" font-family="Helvetica,sans-Serif" font-size="10.00">SimulationDataFormat</text>
<text text-anchor="middle" x="927" y="-132" font-family="Helvetica,sans-Serif" font-size="10.00">/RunContext.h</text>
</a>
</g>
</g>
<!-- Node1&#45;&gt;Node16 -->
<g id="edge17" class="edge"><title>Node1&#45;&gt;Node16</title>
<path fill="none" stroke="midnightblue" d="M448.199,-204.798C533,-194.548 692.434,-174.894 828,-156 838.307,-154.563 849.208,-152.978 859.861,-151.393"/>
<polygon fill="midnightblue" stroke="midnightblue" points="860.6,-154.821 869.971,-149.878 859.563,-147.899 860.6,-154.821"/>
</g>
<!-- Node22 -->
<g id="node22" class="node"><title>Node22</title>
<g id="a_node22"><a xlink:href="../../db/d14/MCTruthContainer_8h.html" target="_top" xlink:title="Definition of a container to keep Monte Carlo truth external to simulation objects. ">
<polygon fill="none" stroke="black" points="1356,-125 1356,-155 1470,-155 1470,-125 1356,-125"/>
<text text-anchor="start" x="1364" y="-143" font-family="Helvetica,sans-Serif" font-size="10.00">SimulationDataFormat</text>
<text text-anchor="middle" x="1413" y="-132" font-family="Helvetica,sans-Serif" font-size="10.00">/MCTruthContainer.h</text>
</a>
</g>
</g>
<!-- Node1&#45;&gt;Node22 -->
<g id="edge25" class="edge"><title>Node1&#45;&gt;Node22</title>
<path fill="none" stroke="midnightblue" d="M448.292,-207.824C627.799,-195.39 1157.92,-158.669 1345.94,-145.645"/>
<polygon fill="midnightblue" stroke="midnightblue" points="1346.23,-149.134 1355.96,-144.951 1345.75,-142.15 1346.23,-149.134"/>
</g>
<!-- Node28 -->
<g id="node28" class="node"><title>Node28</title>
<g id="a_node28"><a xlink:href="../../d7/dcd/MCCompLabel_8h.html" target="_top" xlink:title="SimulationDataFormat\l/MCCompLabel.h">
<polygon fill="none" stroke="black" points="514,-125 514,-155 628,-155 628,-125 514,-125"/>
<text text-anchor="start" x="522" y="-143" font-family="Helvetica,sans-Serif" font-size="10.00">SimulationDataFormat</text>
<text text-anchor="middle" x="571" y="-132" font-family="Helvetica,sans-Serif" font-size="10.00">/MCCompLabel.h</text>
</a>
</g>
</g>
<!-- Node1&#45;&gt;Node28 -->
<g id="edge31" class="edge"><title>Node1&#45;&gt;Node28</title>
<path fill="none" stroke="midnightblue" d="M438.49,-192.411C465.721,-181.846 499.061,-168.911 525.486,-158.658"/>
<polygon fill="midnightblue" stroke="midnightblue" points="526.828,-161.892 534.885,-155.012 524.296,-155.366 526.828,-161.892"/>
</g>
<!-- Node8 -->
<g id="node8" class="node"><title>Node8</title>
<g id="a_node8"><a xlink:href="../../d6/ddf/EvIndex_8h.html" target="_top" xlink:title="Class to store event ID and index in the event for objects like track, cluster... ...">
<polygon fill="none" stroke="black" points="508.5,-62.5 508.5,-81.5 663.5,-81.5 663.5,-62.5 508.5,-62.5"/>
<text text-anchor="middle" x="586" y="-69.5" font-family="Helvetica,sans-Serif" font-size="10.00">CommonDataFormat/EvIndex.h</text>
</a>
</g>
</g>
<!-- Node7&#45;&gt;Node8 -->
<g id="edge7" class="edge"><title>Node7&#45;&gt;Node8</title>
<path fill="none" stroke="midnightblue" d="M713.782,-130.372C688.471,-119.007 643.755,-98.9309 614.5,-85.7961"/>
<polygon fill="midnightblue" stroke="midnightblue" points="615.779,-82.5335 605.222,-81.6305 612.912,-88.9194 615.779,-82.5335"/>
</g>
<!-- Node10 -->
<g id="node10" class="node"><title>Node10</title>
<g id="a_node10"><a xlink:href="../../d9/d80/InteractionRecord_8h.html" target="_top" xlink:title="CommonDataFormat/Interaction\lRecord.h">
<polygon fill="none" stroke="black" points="681.5,-57 681.5,-87 838.5,-87 838.5,-57 681.5,-57"/>
<text text-anchor="start" x="689.5" y="-75" font-family="Helvetica,sans-Serif" font-size="10.00">CommonDataFormat/Interaction</text>
<text text-anchor="middle" x="760" y="-64" font-family="Helvetica,sans-Serif" font-size="10.00">Record.h</text>
</a>
</g>
</g>
<!-- Node7&#45;&gt;Node10 -->
<g id="edge9" class="edge"><title>Node7&#45;&gt;Node10</title>
<path fill="none" stroke="midnightblue" d="M736.53,-130.372C740.036,-121.8 745.571,-108.272 750.385,-96.5045"/>
<polygon fill="midnightblue" stroke="midnightblue" points="753.652,-97.7622 754.198,-87.1815 747.173,-95.1117 753.652,-97.7622"/>
</g>
<!-- Node9 -->
<g id="node9" class="node"><title>Node9</title>
<polygon fill="none" stroke="#bfbfbf" points="505,-0.5 505,-19.5 561,-19.5 561,-0.5 505,-0.5"/>
<text text-anchor="middle" x="533" y="-7.5" font-family="Helvetica,sans-Serif" font-size="10.00">Rtypes.h</text>
</g>
<!-- Node8&#45;&gt;Node9 -->
<g id="edge8" class="edge"><title>Node8&#45;&gt;Node9</title>
<path fill="none" stroke="midnightblue" d="M578.406,-62.4035C570.299,-53.2252 557.265,-38.4699 547.237,-27.1173"/>
<polygon fill="midnightblue" stroke="midnightblue" points="549.823,-24.7582 540.58,-19.5806 544.577,-29.3925 549.823,-24.7582"/>
</g>
<!-- Node10&#45;&gt;Node9 -->
<g id="edge10" class="edge"><title>Node10&#45;&gt;Node9</title>
<path fill="none" stroke="midnightblue" d="M706.779,-56.9327C665.094,-45.9148 608.129,-30.8579 570.96,-21.0334"/>
<polygon fill="midnightblue" stroke="midnightblue" points="571.593,-17.5806 561.03,-18.4089 569.804,-24.3482 571.593,-17.5806"/>
</g>
<!-- Node11 -->
<g id="node11" class="node"><title>Node11</title>
<polygon fill="none" stroke="#bfbfbf" points="768.5,-0.5 768.5,-19.5 813.5,-19.5 813.5,-0.5 768.5,-0.5"/>
<text text-anchor="middle" x="791" y="-7.5" font-family="Helvetica,sans-Serif" font-size="10.00">iosfwd</text>
</g>
<!-- Node10&#45;&gt;Node11 -->
<g id="edge11" class="edge"><title>Node10&#45;&gt;Node11</title>
<path fill="none" stroke="midnightblue" d="M767.347,-56.7808C771.665,-48.4217 777.165,-37.7773 781.774,-28.8565"/>
<polygon fill="midnightblue" stroke="midnightblue" points="785.008,-30.2214 786.489,-19.7305 778.789,-27.0082 785.008,-30.2214"/>
</g>
<!-- Node12 -->
<g id="node12" class="node"><title>Node12</title>
<polygon fill="none" stroke="#bfbfbf" points="706,-0.5 706,-19.5 750,-19.5 750,-0.5 706,-0.5"/>
<text text-anchor="middle" x="728" y="-7.5" font-family="Helvetica,sans-Serif" font-size="10.00">cmath</text>
</g>
<!-- Node10&#45;&gt;Node12 -->
<g id="edge12" class="edge"><title>Node10&#45;&gt;Node12</title>
<path fill="none" stroke="midnightblue" d="M752.416,-56.7808C747.91,-48.3318 742.159,-37.5481 737.37,-28.5693"/>
<polygon fill="midnightblue" stroke="midnightblue" points="740.45,-26.907 732.656,-19.7305 734.274,-30.2012 740.45,-26.907"/>
</g>
<!-- Node13 -->
<g id="node13" class="node"><title>Node13</title>
<g id="a_node13"><a xlink:href="../../d4/dc6/LHCConstants_8h.html" target="_top" xlink:title="Header to collect LHC related constants. ">
<polygon fill="none" stroke="black" points="873,-0.5 873,-19.5 1051,-19.5 1051,-0.5 873,-0.5"/>
<text text-anchor="middle" x="962" y="-7.5" font-family="Helvetica,sans-Serif" font-size="10.00">CommonConstants/LHCConstants.h</text>
</a>
</g>
</g>
<!-- Node10&#45;&gt;Node13 -->
<g id="edge13" class="edge"><title>Node10&#45;&gt;Node13</title>
<path fill="none" stroke="midnightblue" d="M807.36,-56.9327C842.763,-46.4171 890.552,-32.2222 923.591,-22.4087"/>
<polygon fill="midnightblue" stroke="midnightblue" points="924.751,-25.7152 933.341,-19.5127 922.758,-19.005 924.751,-25.7152"/>
</g>
<!-- Node14&#45;&gt;Node9 -->
<g id="edge15" class="edge"><title>Node14&#45;&gt;Node9</title>
<path fill="none" stroke="midnightblue" d="M446.295,-130.371C454.191,-114.848 471.959,-81.4612 491,-56 498.663,-45.7529 508.346,-35.2473 516.482,-26.9665"/>
<polygon fill="midnightblue" stroke="midnightblue" points="519.074,-29.3249 523.693,-19.79 514.136,-24.3633 519.074,-29.3249"/>
</g>
<!-- Node15 -->
<g id="node15" class="node"><title>Node15</title>
<polygon fill="none" stroke="#bfbfbf" points="368.5,-62.5 368.5,-81.5 413.5,-81.5 413.5,-62.5 368.5,-62.5"/>
<text text-anchor="middle" x="391" y="-69.5" font-family="Helvetica,sans-Serif" font-size="10.00">climits</text>
</g>
<!-- Node14&#45;&gt;Node15 -->
<g id="edge16" class="edge"><title>Node14&#45;&gt;Node15</title>
<path fill="none" stroke="midnightblue" d="M435.333,-130.372C427.435,-120.151 414.092,-102.884 404.103,-89.9571"/>
<polygon fill="midnightblue" stroke="midnightblue" points="406.716,-87.6139 397.832,-81.8411 401.177,-91.8941 406.716,-87.6139"/>
</g>
<!-- Node16&#45;&gt;Node10 -->
<g id="edge21" class="edge"><title>Node16&#45;&gt;Node10</title>
<path fill="none" stroke="midnightblue" d="M891.174,-124.841C865.994,-114.89 832.115,-101.5 805.095,-90.8219"/>
<polygon fill="midnightblue" stroke="midnightblue" points="806.066,-87.4423 795.479,-87.0218 803.493,-93.9524 806.066,-87.4423"/>
</g>
<!-- Node17 -->
<g id="node17" class="node"><title>Node17</title>
<polygon fill="none" stroke="#bfbfbf" points="937,-62.5 937,-81.5 981,-81.5 981,-62.5 937,-62.5"/>
<text text-anchor="middle" x="959" y="-69.5" font-family="Helvetica,sans-Serif" font-size="10.00">vector</text>
</g>
<!-- Node16&#45;&gt;Node17 -->
<g id="edge18" class="edge"><title>Node16&#45;&gt;Node17</title>
<path fill="none" stroke="midnightblue" d="M933.944,-124.679C938.735,-114.796 945.143,-101.579 950.279,-90.9864"/>
<polygon fill="midnightblue" stroke="midnightblue" points="953.506,-92.3534 954.72,-81.8283 947.207,-89.2995 953.506,-92.3534"/>
</g>
<!-- Node18 -->
<g id="node18" class="node"><title>Node18</title>
<polygon fill="none" stroke="#bfbfbf" points="999,-62.5 999,-81.5 1055,-81.5 1055,-62.5 999,-62.5"/>
<text text-anchor="middle" x="1027" y="-69.5" font-family="Helvetica,sans-Serif" font-size="10.00">TChain.h</text>
</g>
<!-- Node16&#45;&gt;Node18 -->
<g id="edge19" class="edge"><title>Node16&#45;&gt;Node18</title>
<path fill="none" stroke="midnightblue" d="M948.699,-124.679C965.468,-113.611 988.571,-98.363 1005.33,-87.3002"/>
<polygon fill="midnightblue" stroke="midnightblue" points="1007.49,-90.0675 1013.91,-81.6379 1003.64,-84.2252 1007.49,-90.0675"/>
</g>
<!-- Node19 -->
<g id="node19" class="node"><title>Node19</title>
<polygon fill="none" stroke="#bfbfbf" points="857,-62.5 857,-81.5 919,-81.5 919,-62.5 857,-62.5"/>
<text text-anchor="middle" x="888" y="-69.5" font-family="Helvetica,sans-Serif" font-size="10.00">TBranch.h</text>
</g>
<!-- Node16&#45;&gt;Node19 -->
<g id="edge20" class="edge"><title>Node16&#45;&gt;Node19</title>
<path fill="none" stroke="midnightblue" d="M918.538,-124.679C912.637,-114.694 904.727,-101.307 898.435,-90.6596"/>
<polygon fill="midnightblue" stroke="midnightblue" points="901.317,-88.657 893.217,-81.8283 895.291,-92.2181 901.317,-88.657"/>
</g>
<!-- Node20 -->
<g id="node20" class="node"><title>Node20</title>
<g id="a_node20"><a xlink:href="../../d4/d5f/BunchFilling_8h.html" target="_top" xlink:title="CommonDataFormat/BunchFilling.h">
<polygon fill="none" stroke="black" points="1073.5,-62.5 1073.5,-81.5 1246.5,-81.5 1246.5,-62.5 1073.5,-62.5"/>
<text text-anchor="middle" x="1160" y="-69.5" font-family="Helvetica,sans-Serif" font-size="10.00">CommonDataFormat/BunchFilling.h</text>
</a>
</g>
</g>
<!-- Node16&#45;&gt;Node20 -->
<g id="edge22" class="edge"><title>Node16&#45;&gt;Node20</title>
<path fill="none" stroke="midnightblue" d="M976.699,-124.922C1019.48,-112.803 1080.43,-95.5398 1120.09,-84.3037"/>
<polygon fill="midnightblue" stroke="midnightblue" points="1121.28,-87.6067 1129.94,-81.5138 1119.37,-80.8717 1121.28,-87.6067"/>
</g>
<!-- Node20&#45;&gt;Node13 -->
<g id="edge23" class="edge"><title>Node20&#45;&gt;Node13</title>
<path fill="none" stroke="midnightblue" d="M1131.63,-62.4035C1097.08,-51.9331 1038.58,-34.2049 1000.12,-22.5501"/>
<polygon fill="midnightblue" stroke="midnightblue" points="1000.9,-19.1311 990.316,-19.5806 998.871,-25.8303 1000.9,-19.1311"/>
</g>
<!-- Node21 -->
<g id="node21" class="node"><title>Node21</title>
<polygon fill="none" stroke="#bfbfbf" points="1139.5,-0.5 1139.5,-19.5 1180.5,-19.5 1180.5,-0.5 1139.5,-0.5"/>
<text text-anchor="middle" x="1160" y="-7.5" font-family="Helvetica,sans-Serif" font-size="10.00">bitset</text>
</g>
<!-- Node20&#45;&gt;Node21 -->
<g id="edge24" class="edge"><title>Node20&#45;&gt;Node21</title>
<path fill="none" stroke="midnightblue" d="M1160,-62.4035C1160,-53.9381 1160,-40.7283 1160,-29.8199"/>
<polygon fill="midnightblue" stroke="midnightblue" points="1163.5,-29.5806 1160,-19.5806 1156.5,-29.5806 1163.5,-29.5806"/>
</g>
<!-- Node23 -->
<g id="node23" class="node"><title>Node23</title>
<polygon fill="none" stroke="#bfbfbf" points="1345,-62.5 1345,-81.5 1407,-81.5 1407,-62.5 1345,-62.5"/>
<text text-anchor="middle" x="1376" y="-69.5" font-family="Helvetica,sans-Serif" font-size="10.00">TNamed.h</text>
</g>
<!-- Node22&#45;&gt;Node23 -->
<g id="edge26" class="edge"><title>Node22&#45;&gt;Node23</title>
<path fill="none" stroke="midnightblue" d="M1404.97,-124.679C1399.37,-114.694 1391.87,-101.307 1385.9,-90.6596"/>
<polygon fill="midnightblue" stroke="midnightblue" points="1388.89,-88.8396 1380.95,-81.8283 1382.79,-92.2627 1388.89,-88.8396"/>
</g>
<!-- Node24 -->
<g id="node24" class="node"><title>Node24</title>
<polygon fill="none" stroke="#bfbfbf" points="1425.5,-62.5 1425.5,-81.5 1474.5,-81.5 1474.5,-62.5 1425.5,-62.5"/>
<text text-anchor="middle" x="1450" y="-69.5" font-family="Helvetica,sans-Serif" font-size="10.00">cassert</text>
</g>
<!-- Node22&#45;&gt;Node24 -->
<g id="edge27" class="edge"><title>Node22&#45;&gt;Node24</title>
<path fill="none" stroke="midnightblue" d="M1421.03,-124.679C1426.63,-114.694 1434.13,-101.307 1440.1,-90.6596"/>
<polygon fill="midnightblue" stroke="midnightblue" points="1443.21,-92.2627 1445.05,-81.8283 1437.11,-88.8396 1443.21,-92.2627"/>
</g>
<!-- Node25 -->
<g id="node25" class="node"><title>Node25</title>
<polygon fill="none" stroke="#bfbfbf" points="1492.5,-62.5 1492.5,-81.5 1551.5,-81.5 1551.5,-62.5 1492.5,-62.5"/>
<text text-anchor="middle" x="1522" y="-69.5" font-family="Helvetica,sans-Serif" font-size="10.00">stdexcept</text>
</g>
<!-- Node22&#45;&gt;Node25 -->
<g id="edge28" class="edge"><title>Node22&#45;&gt;Node25</title>
<path fill="none" stroke="midnightblue" d="M1436.38,-124.841C1454.9,-113.63 1480.62,-98.0556 1499.03,-86.9096"/>
<polygon fill="midnightblue" stroke="midnightblue" points="1500.92,-89.8554 1507.66,-81.6819 1497.29,-83.8675 1500.92,-89.8554"/>
</g>
<!-- Node26 -->
<g id="node26" class="node"><title>Node26</title>
<polygon fill="none" stroke="#bfbfbf" points="1569.5,-62.5 1569.5,-81.5 1614.5,-81.5 1614.5,-62.5 1569.5,-62.5"/>
<text text-anchor="middle" x="1592" y="-69.5" font-family="Helvetica,sans-Serif" font-size="10.00">gsl/gsl</text>
</g>
<!-- Node22&#45;&gt;Node26 -->
<g id="edge29" class="edge"><title>Node22&#45;&gt;Node26</title>
<path fill="none" stroke="midnightblue" d="M1457.51,-124.901C1486.9,-115.265 1526.09,-101.785 1560,-88 1561.64,-87.3328 1563.32,-86.6252 1565.01,-85.8949"/>
<polygon fill="midnightblue" stroke="midnightblue" points="1566.87,-88.8935 1574.54,-81.5862 1563.99,-82.5144 1566.87,-88.8935"/>
</g>
<!-- Node27 -->
<g id="node27" class="node"><title>Node27</title>
<polygon fill="none" stroke="#bfbfbf" points="1265,-62.5 1265,-81.5 1327,-81.5 1327,-62.5 1265,-62.5"/>
<text text-anchor="middle" x="1296" y="-69.5" font-family="Helvetica,sans-Serif" font-size="10.00">type_traits</text>
</g>
<!-- Node22&#45;&gt;Node27 -->
<g id="edge30" class="edge"><title>Node22&#45;&gt;Node27</title>
<path fill="none" stroke="midnightblue" d="M1387.9,-124.841C1367.84,-113.528 1339.91,-97.7707 1320.12,-86.6053"/>
<polygon fill="midnightblue" stroke="midnightblue" points="1321.82,-83.5467 1311.39,-81.6819 1318.38,-89.6436 1321.82,-83.5467"/>
</g>
<!-- Node28&#45;&gt;Node9 -->
<g id="edge32" class="edge"><title>Node28&#45;&gt;Node9</title>
<path fill="none" stroke="midnightblue" d="M538.778,-124.937C523.791,-116.554 507.443,-104.328 499,-88 492.467,-75.3669 494.479,-69.4844 499,-56 502.604,-45.2512 509.903,-35.0204 516.817,-27.0378"/>
<polygon fill="midnightblue" stroke="midnightblue" points="519.477,-29.3168 523.712,-19.6053 514.345,-24.5561 519.477,-29.3168"/>
</g>
</g>
</svg>
        <g id="navigator" transform="translate(0 0)" fill="#404254">
                <rect fill="#f2f5e9" fill-opacity="0.5" stroke="#606060" stroke-width=".5" x="0" y="0" width="60" height="60"/>
                <use id="zoomplus" xlink:href="#zoomPlus" x="17" y="9" onmousedown="handleZoom(evt,'in')"/>
                <use id="zoomminus" xlink:href="#zoomMin" x="42" y="9" onmousedown="handleZoom(evt,'out')"/>
                <use id="reset" xlink:href="#resetDef" x="30" y="36" onmousedown="handleReset()"/>
                <g id="arrowUp" xlink:href="#dirArrow" transform="translate(30 24)" onmousedown="handlePan(0,-1)">
                  <use xlink:href="#rim" fill="#404040">
                        <set attributeName="fill" to="#808080" begin="arrowUp.mouseover" end="arrowUp.mouseout"/>
                  </use>
                  <path fill="none" stroke="white" stroke-width="1.5" d="M0,-3.0v7 M-2.5,-0.5L0,-3.0L2.5,-0.5"/>
                </g>
                <g id="arrowRight" xlink:href="#dirArrow" transform="rotate(90) translate(36 -43)" onmousedown="handlePan(1,0)">
                  <use xlink:href="#rim" fill="#404040">
                        <set attributeName="fill" to="#808080" begin="arrowRight.mouseover" end="arrowRight.mouseout"/>
                  </use>
                  <path fill="none" stroke="white" stroke-width="1.5" d="M0,-3.0v7 M-2.5,-0.5L0,-3.0L2.5,-0.5"/>
                </g>
                <g id="arrowDown" xlink:href="#dirArrow" transform="rotate(180) translate(-30 -48)" onmousedown="handlePan(0,1)">
                  <use xlink:href="#rim" fill="#404040">
                        <set attributeName="fill" to="#808080" begin="arrowDown.mouseover" end="arrowDown.mouseout"/>
                  </use>
                  <path fill="none" stroke="white" stroke-width="1.5" d="M0,-3.0v7 M-2.5,-0.5L0,-3.0L2.5,-0.5"/>
                </g>
                <g id="arrowLeft" xlink:href="#dirArrow" transform="rotate(270) translate(-36 17)" onmousedown="handlePan(-1,0)">
                  <use xlink:href="#rim" fill="#404040">
                        <set attributeName="fill" to="#808080" begin="arrowLeft.mouseover" end="arrowLeft.mouseout"/>
                  </use>
                  <path fill="none" stroke="white" stroke-width="1.5" d="M0,-3.0v7 M-2.5,-0.5L0,-3.0L2.5,-0.5"/>
                </g>
        </g>
        <svg viewBox="0 0 15 15" width="100%" height="30px" preserveAspectRatio="xMaxYMin meet">
         <g id="arrow_out" transform="scale(0.3 0.3)">
          <a xlink:href="readITSDigits_8C__incl_org.svg" target="_base">
           <rect id="button" ry="5" rx="5" y="6" x="6" height="38" width="38"
                fill="#f2f5e9" fill-opacity="0.5" stroke="#606060" stroke-width="1.0"/>
           <path id="arrow"
             d="M 11.500037,31.436501 C 11.940474,20.09759 22.043105,11.32322 32.158766,21.979434 L 37.068811,17.246167 C 37.068811,17.246167 37.088388,32 37.088388,32 L 22.160133,31.978069 C 22.160133,31.978069 26.997745,27.140456 26.997745,27.140456 C 18.528582,18.264221 13.291696,25.230495 11.500037,31.436501 z"
             style="fill:#404040;"/>
          </a>
         </g>
        </svg>
</svg>
