<?xml version="1.0" encoding="UTF-8" standalone="no"?>
<!DOCTYPE svg PUBLIC "-//W3C//DTD SVG 1.1//EN"
 "http://www.w3.org/Graphics/SVG/1.1/DTD/svg11.dtd">
<!-- Generated by graphviz version 2.36.0 (20140111.2315)
 -->
<!-- Title: /home/travis/build/AliceO2Group/AliceO2/Detectors/ITSMFT/common/reconstruction/src/PixelData.cxx Pages: 1 -->
<svg width="457pt" height="242pt"
 viewBox="0.00 0.00 457.00 242.00" xmlns="http://www.w3.org/2000/svg" xmlns:xlink="http://www.w3.org/1999/xlink">
<g id="graph0" class="graph" transform="scale(1 1) rotate(0) translate(4 238)">
<title>/home/travis/build/AliceO2Group/AliceO2/Detectors/ITSMFT/common/reconstruction/src/PixelData.cxx</title>
<!-- Node1 -->
<g id="node1" class="node"><title>Node1</title>
<polygon fill="#bfbfbf" stroke="black" points="215,-181 215,-233 377,-233 377,-181 215,-181"/>
<text text-anchor="start" x="223" y="-221" font-family="Helvetica,sans-Serif" font-size="10.00">/home/travis/build</text>
<text text-anchor="start" x="223" y="-210" font-family="Helvetica,sans-Serif" font-size="10.00">/AliceO2Group/AliceO2</text>
<text text-anchor="start" x="223" y="-199" font-family="Helvetica,sans-Serif" font-size="10.00">/Detectors/ITSMFT/common</text>
<text text-anchor="middle" x="296" y="-188" font-family="Helvetica,sans-Serif" font-size="10.00">/reconstruction/src/PixelData.cxx</text>
</g>
<!-- Node2 -->
<g id="node2" class="node"><title>Node2</title>
<g id="a_node2"><a xlink:href="../../da/d8d/PixelData_8h.html" target="_top" xlink:title="Transient data classes for single pixel and set of pixels from current chip. ">
<polygon fill="none" stroke="black" points="72.5,-113 72.5,-143 191.5,-143 191.5,-113 72.5,-113"/>
<text text-anchor="start" x="80.5" y="-131" font-family="Helvetica,sans-Serif" font-size="10.00">ITSMFTReconstruction</text>
<text text-anchor="middle" x="132" y="-120" font-family="Helvetica,sans-Serif" font-size="10.00">/PixelData.h</text>
</a>
</g>
</g>
<!-- Node1&#45;&gt;Node2 -->
<g id="edge1" class="edge"><title>Node1&#45;&gt;Node2</title>
<path fill="none" stroke="midnightblue" d="M242.3,-180.787C219.027,-169.86 192.287,-157.306 170.965,-147.294"/>
<polygon fill="midnightblue" stroke="midnightblue" points="172.423,-144.113 161.883,-143.031 169.448,-150.449 172.423,-144.113"/>
</g>
<!-- Node8 -->
<g id="node8" class="node"><title>Node8</title>
<g id="a_node8"><a xlink:href="../../d3/dba/SegmentationAlpide_8h.html" target="_top" xlink:title="Definition of the SegmentationAlpide class. ">
<polygon fill="none" stroke="black" points="209.5,-118.5 209.5,-137.5 382.5,-137.5 382.5,-118.5 209.5,-118.5"/>
<text text-anchor="middle" x="296" y="-125.5" font-family="Helvetica,sans-Serif" font-size="10.00">ITSMFTBase/SegmentationAlpide.h</text>
</a>
</g>
</g>
<!-- Node1&#45;&gt;Node8 -->
<g id="edge7" class="edge"><title>Node1&#45;&gt;Node8</title>
<path fill="none" stroke="midnightblue" d="M296,-180.787C296,-170.069 296,-157.785 296,-147.871"/>
<polygon fill="midnightblue" stroke="midnightblue" points="299.5,-147.558 296,-137.558 292.5,-147.558 299.5,-147.558"/>
</g>
<!-- Node9 -->
<g id="node9" class="node"><title>Node9</title>
<polygon fill="none" stroke="#bfbfbf" points="400.5,-118.5 400.5,-137.5 449.5,-137.5 449.5,-118.5 400.5,-118.5"/>
<text text-anchor="middle" x="425" y="-125.5" font-family="Helvetica,sans-Serif" font-size="10.00">cassert</text>
</g>
<!-- Node1&#45;&gt;Node9 -->
<g id="edge9" class="edge"><title>Node1&#45;&gt;Node9</title>
<path fill="none" stroke="midnightblue" d="M338.239,-180.787C359.319,-168.205 384.014,-153.464 401.656,-142.934"/>
<polygon fill="midnightblue" stroke="midnightblue" points="403.87,-145.688 410.663,-137.558 400.282,-139.678 403.87,-145.688"/>
</g>
<!-- Node3 -->
<g id="node3" class="node"><title>Node3</title>
<g id="a_node3"><a xlink:href="../../d0/d06/ITSMFT_2common_2base_2include_2ITSMFTBase_2Digit_8h.html" target="_top" xlink:title="ITSMFTBase/Digit.h">
<polygon fill="none" stroke="black" points="-0.5,-56.5 -0.5,-75.5 106.5,-75.5 106.5,-56.5 -0.5,-56.5"/>
<text text-anchor="middle" x="53" y="-63.5" font-family="Helvetica,sans-Serif" font-size="10.00">ITSMFTBase/Digit.h</text>
</a>
</g>
</g>
<!-- Node2&#45;&gt;Node3 -->
<g id="edge2" class="edge"><title>Node2&#45;&gt;Node3</title>
<path fill="none" stroke="midnightblue" d="M113.278,-112.781C101.088,-103.523 85.208,-91.4618 72.8073,-82.0435"/>
<polygon fill="midnightblue" stroke="midnightblue" points="74.5757,-78.9916 64.4952,-75.7305 70.3419,-84.5661 74.5757,-78.9916"/>
</g>
<!-- Node6 -->
<g id="node6" class="node"><title>Node6</title>
<polygon fill="none" stroke="#bfbfbf" points="124,-56.5 124,-75.5 168,-75.5 168,-56.5 124,-56.5"/>
<text text-anchor="middle" x="146" y="-63.5" font-family="Helvetica,sans-Serif" font-size="10.00">vector</text>
</g>
<!-- Node2&#45;&gt;Node6 -->
<g id="edge5" class="edge"><title>Node2&#45;&gt;Node6</title>
<path fill="none" stroke="midnightblue" d="M135.318,-112.781C137.205,-104.691 139.592,-94.4617 141.631,-85.725"/>
<polygon fill="midnightblue" stroke="midnightblue" points="145.099,-86.2643 143.963,-75.7305 138.282,-84.6736 145.099,-86.2643"/>
</g>
<!-- Node7 -->
<g id="node7" class="node"><title>Node7</title>
<polygon fill="none" stroke="#bfbfbf" points="186,-56.5 186,-75.5 226,-75.5 226,-56.5 186,-56.5"/>
<text text-anchor="middle" x="206" y="-63.5" font-family="Helvetica,sans-Serif" font-size="10.00">utility</text>
</g>
<!-- Node2&#45;&gt;Node7 -->
<g id="edge6" class="edge"><title>Node2&#45;&gt;Node7</title>
<path fill="none" stroke="midnightblue" d="M149.537,-112.781C160.955,-103.523 175.83,-91.4618 187.446,-82.0435"/>
<polygon fill="midnightblue" stroke="midnightblue" points="189.669,-84.7472 195.232,-75.7305 185.26,-79.3099 189.669,-84.7472"/>
</g>
<!-- Node4 -->
<g id="node4" class="node"><title>Node4</title>
<polygon fill="none" stroke="#bfbfbf" points="167,-0.5 167,-19.5 223,-19.5 223,-0.5 167,-0.5"/>
<text text-anchor="middle" x="195" y="-7.5" font-family="Helvetica,sans-Serif" font-size="10.00">Rtypes.h</text>
</g>
<!-- Node3&#45;&gt;Node4 -->
<g id="edge3" class="edge"><title>Node3&#45;&gt;Node4</title>
<path fill="none" stroke="midnightblue" d="M75.5003,-56.4435C99.0774,-47.4776 136.322,-33.314 162.964,-23.1827"/>
<polygon fill="midnightblue" stroke="midnightblue" points="164.502,-26.3424 172.605,-19.5164 162.014,-19.7995 164.502,-26.3424"/>
</g>
<!-- Node5 -->
<g id="node5" class="node"><title>Node5</title>
<polygon fill="none" stroke="#bfbfbf" points="30.5,-0.5 30.5,-19.5 75.5,-19.5 75.5,-0.5 30.5,-0.5"/>
<text text-anchor="middle" x="53" y="-7.5" font-family="Helvetica,sans-Serif" font-size="10.00">climits</text>
</g>
<!-- Node3&#45;&gt;Node5 -->
<g id="edge4" class="edge"><title>Node3&#45;&gt;Node5</title>
<path fill="none" stroke="midnightblue" d="M53,-56.083C53,-49.0059 53,-38.8611 53,-29.9865"/>
<polygon fill="midnightblue" stroke="midnightblue" points="56.5001,-29.751 53,-19.7511 49.5001,-29.7511 56.5001,-29.751"/>
</g>
<!-- Node8&#45;&gt;Node4 -->
<g id="edge8" class="edge"><title>Node8&#45;&gt;Node4</title>
<path fill="none" stroke="midnightblue" d="M288.534,-118.215C277.083,-104.761 254.463,-78.2708 235,-56 226.643,-46.437 217.208,-35.815 209.601,-27.2932"/>
<polygon fill="midnightblue" stroke="midnightblue" points="211.987,-24.7097 202.712,-19.5886 206.769,-29.3759 211.987,-24.7097"/>
</g>
</g>
</svg>
