<?xml version="1.0" encoding="UTF-8" standalone="no"?>
<!DOCTYPE svg PUBLIC "-//W3C//DTD SVG 1.1//EN"
 "http://www.w3.org/Graphics/SVG/1.1/DTD/svg11.dtd">
<!-- Generated by graphviz version 2.36.0 (20140111.2315)
 -->
<!-- Title: /home/travis/build/AliceO2Group/AliceO2/Detectors/ITSMFT/MFT/base/src/HalfDiskSegmentation.cxx Pages: 1 -->
<!--zoomable 342 -->
<svg id="main" version="1.1" xmlns="http://www.w3.org/2000/svg" xmlns:xlink="http://www.w3.org/1999/xlink" xml:space="preserve" onload="init(evt)">
<style type="text/css"><![CDATA[
.edge:hover path { stroke: red; }
.edge:hover polygon { stroke: red; fill: red; }
]]></style>
<script type="text/javascript"><![CDATA[
var edges = document.getElementsByTagName('g');
if (edges && edges.length) {
  for (var i=0;i<edges.length;i++) {
    if (edges[i].id.substr(0,4)=='edge') {
      edges[i].setAttribute('class','edge');
    }
  }
}
]]></script>
        <defs>
                <circle id="rim" cx="0" cy="0" r="7"/>
                <circle id="rim2" cx="0" cy="0" r="3.5"/>
                <g id="zoomPlus">
                        <use xlink:href="#rim" fill="#404040">
                                <set attributeName="fill" to="#808080" begin="zoomplus.mouseover" end="zoomplus.mouseout"/>
                        </use>
                        <path d="M-4,0h8M0,-4v8" fill="none" stroke="white" stroke-width="1.5" pointer-events="none"/>
                </g>
                <g id="zoomMin">
                        <use xlink:href="#rim" fill="#404040">
                                <set attributeName="fill" to="#808080" begin="zoomminus.mouseover" end="zoomminus.mouseout"/>
                        </use>
                        <path d="M-4,0h8" fill="none" stroke="white" stroke-width="1.5" pointer-events="none"/>
                </g>
                <g id="dirArrow">
                        <path fill="none" stroke="white" stroke-width="1.5" d="M0,-3.0v7 M-2.5,-0.5L0,-3.0L2.5,-0.5"/>
                </g>
               <g id="resetDef">
                       <use xlink:href="#rim2" fill="#404040">
                               <set attributeName="fill" to="#808080" begin="reset.mouseover" end="reset.mouseout"/>
                       </use>
               </g>
        </defs>

<script type="text/javascript">
var viewWidth = 668;
var viewHeight = 342;
var sectionId = 'dynsection-0';
</script>
<script xlink:href="../../svgpan.js"/>
<svg id="graph" class="graph">
<g id="viewport">
<title>/home/travis/build/AliceO2Group/AliceO2/Detectors/ITSMFT/MFT/base/src/HalfDiskSegmentation.cxx</title>
<!-- Node1 -->
<g id="node1" class="node"><title>Node1</title>
<polygon fill="#bfbfbf" stroke="black" points="199.109,-281 199.109,-333 376.109,-333 376.109,-281 199.109,-281"/>
<text text-anchor="start" x="207.109" y="-321" font-family="Helvetica,sans-Serif" font-size="10.00">/home/travis/build</text>
<text text-anchor="start" x="207.109" y="-310" font-family="Helvetica,sans-Serif" font-size="10.00">/AliceO2Group/AliceO2</text>
<text text-anchor="start" x="207.109" y="-299" font-family="Helvetica,sans-Serif" font-size="10.00">/Detectors/ITSMFT/MFT</text>
<text text-anchor="middle" x="287.609" y="-288" font-family="Helvetica,sans-Serif" font-size="10.00">/base/src/HalfDiskSegmentation.cxx</text>
</g>
<!-- Node2 -->
<g id="node2" class="node"><title>Node2</title>
<polygon fill="none" stroke="#bfbfbf" points="41.1087,-112.5 41.1087,-131.5 126.109,-131.5 126.109,-112.5 41.1087,-112.5"/>
<text text-anchor="middle" x="83.6087" y="-119.5" font-family="Helvetica,sans-Serif" font-size="10.00">TClonesArray.h</text>
</g>
<!-- Node1&#45;&gt;Node2 -->
<g id="edge1" class="edge"><title>Node1&#45;&gt;Node2</title>
<path fill="none" stroke="midnightblue" d="M198.924,-298.222C126.448,-289.811 32.244,-273.464 8.6087,-244 -19.9458,-208.404 31.7051,-161.21 62.7189,-137.666"/>
<polygon fill="midnightblue" stroke="midnightblue" points="64.8636,-140.433 70.8353,-131.682 60.7095,-134.799 64.8636,-140.433"/>
</g>
<!-- Node3 -->
<g id="node3" class="node"><title>Node3</title>
<polygon fill="none" stroke="#bfbfbf" points="18.1087,-224.5 18.1087,-243.5 89.1087,-243.5 89.1087,-224.5 18.1087,-224.5"/>
<text text-anchor="middle" x="53.6087" y="-231.5" font-family="Helvetica,sans-Serif" font-size="10.00">FairLogger.h</text>
</g>
<!-- Node1&#45;&gt;Node3 -->
<g id="edge2" class="edge"><title>Node1&#45;&gt;Node3</title>
<path fill="none" stroke="midnightblue" d="M205.109,-280.968C166.452,-269.239 122.276,-255.835 91.6428,-246.54"/>
<polygon fill="midnightblue" stroke="midnightblue" points="92.3864,-243.108 81.8009,-243.554 90.3539,-249.807 92.3864,-243.108"/>
</g>
<!-- Node4 -->
<g id="node4" class="node"><title>Node4</title>
<g id="a_node4"><a xlink:href="../../d3/dba/SegmentationAlpide_8h.html" target="_top" xlink:title="Definition of the SegmentationAlpide class. ">
<polygon fill="none" stroke="black" points="107.109,-224.5 107.109,-243.5 280.109,-243.5 280.109,-224.5 107.109,-224.5"/>
<text text-anchor="middle" x="193.609" y="-231.5" font-family="Helvetica,sans-Serif" font-size="10.00">ITSMFTBase/SegmentationAlpide.h</text>
</a>
</g>
</g>
<!-- Node1&#45;&gt;Node4 -->
<g id="edge3" class="edge"><title>Node1&#45;&gt;Node4</title>
<path fill="none" stroke="midnightblue" d="M254.468,-280.968C240.821,-270.66 225.461,-259.059 213.587,-250.09"/>
<polygon fill="midnightblue" stroke="midnightblue" points="215.361,-247.044 205.272,-243.81 211.142,-252.63 215.361,-247.044"/>
</g>
<!-- Node6 -->
<g id="node6" class="node"><title>Node6</title>
<g id="a_node6"><a xlink:href="../../dc/d53/HalfDiskSegmentation_8h.html" target="_top" xlink:title="Class for the description of the structure of a half&#45;disk. ">
<polygon fill="none" stroke="black" points="298.109,-224.5 298.109,-243.5 467.109,-243.5 467.109,-224.5 298.109,-224.5"/>
<text text-anchor="middle" x="382.609" y="-231.5" font-family="Helvetica,sans-Serif" font-size="10.00">MFTBase/HalfDiskSegmentation.h</text>
</a>
</g>
</g>
<!-- Node1&#45;&gt;Node6 -->
<g id="edge5" class="edge"><title>Node1&#45;&gt;Node6</title>
<path fill="none" stroke="midnightblue" d="M321.102,-280.968C335.03,-270.559 350.722,-258.831 362.77,-249.827"/>
<polygon fill="midnightblue" stroke="midnightblue" points="364.906,-252.6 370.821,-243.81 360.716,-246.993 364.906,-252.6"/>
</g>
<!-- Node13 -->
<g id="node13" class="node"><title>Node13</title>
<g id="a_node13"><a xlink:href="../../d6/d2e/ITSMFT_2MFT_2base_2include_2MFTBase_2Geometry_8h.html" target="_top" xlink:title="MFTBase/Geometry.h">
<polygon fill="none" stroke="black" points="438.109,-56.5 438.109,-75.5 551.109,-75.5 551.109,-56.5 438.109,-56.5"/>
<text text-anchor="middle" x="494.609" y="-63.5" font-family="Helvetica,sans-Serif" font-size="10.00">MFTBase/Geometry.h</text>
</a>
</g>
</g>
<!-- Node1&#45;&gt;Node13 -->
<g id="edge15" class="edge"><title>Node1&#45;&gt;Node13</title>
<path fill="none" stroke="midnightblue" d="M376.179,-297.638C412.409,-289.55 451.417,-273.94 475.609,-244 513.116,-197.579 504.85,-120.481 498.524,-85.3976"/>
<polygon fill="midnightblue" stroke="midnightblue" points="501.957,-84.7153 496.599,-75.5753 495.088,-86.0618 501.957,-84.7153"/>
</g>
<!-- Node14 -->
<g id="node14" class="node"><title>Node14</title>
<polygon fill="none" stroke="#bfbfbf" points="523.109,-224.5 523.109,-243.5 660.109,-243.5 660.109,-224.5 523.109,-224.5"/>
<text text-anchor="middle" x="591.609" y="-231.5" font-family="Helvetica,sans-Serif" font-size="10.00">MFTBase/GeometryTGeo.h</text>
</g>
<!-- Node1&#45;&gt;Node14 -->
<g id="edge17" class="edge"><title>Node1&#45;&gt;Node14</title>
<path fill="none" stroke="midnightblue" d="M376.355,-285.273C431.473,-272.4 500.096,-256.373 544.836,-245.924"/>
<polygon fill="midnightblue" stroke="midnightblue" points="545.897,-249.27 554.839,-243.588 544.305,-242.454 545.897,-249.27"/>
</g>
<!-- Node5 -->
<g id="node5" class="node"><title>Node5</title>
<polygon fill="none" stroke="#bfbfbf" points="94.6087,-168.5 94.6087,-187.5 150.609,-187.5 150.609,-168.5 94.6087,-168.5"/>
<text text-anchor="middle" x="122.609" y="-175.5" font-family="Helvetica,sans-Serif" font-size="10.00">Rtypes.h</text>
</g>
<!-- Node4&#45;&gt;Node5 -->
<g id="edge4" class="edge"><title>Node4&#45;&gt;Node5</title>
<path fill="none" stroke="midnightblue" d="M182.201,-224.324C171.5,-216.185 155.268,-203.839 142.446,-194.087"/>
<polygon fill="midnightblue" stroke="midnightblue" points="144.302,-191.102 134.224,-187.834 140.064,-196.673 144.302,-191.102"/>
</g>
<!-- Node7 -->
<g id="node7" class="node"><title>Node7</title>
<polygon fill="none" stroke="#bfbfbf" points="169.109,-168.5 169.109,-187.5 250.109,-187.5 250.109,-168.5 169.109,-168.5"/>
<text text-anchor="middle" x="209.609" y="-175.5" font-family="Helvetica,sans-Serif" font-size="10.00">TXMLEngine.h</text>
</g>
<!-- Node6&#45;&gt;Node7 -->
<g id="edge6" class="edge"><title>Node6&#45;&gt;Node7</title>
<path fill="none" stroke="midnightblue" d="M355.196,-224.444C325.839,-215.28 279.089,-200.688 246.513,-190.519"/>
<polygon fill="midnightblue" stroke="midnightblue" points="247.481,-187.155 236.893,-187.516 245.396,-193.837 247.481,-187.155"/>
</g>
<!-- Node8 -->
<g id="node8" class="node"><title>Node8</title>
<g id="a_node8"><a xlink:href="../../d9/de7/LadderSegmentation_8h.html" target="_top" xlink:title="Description of the virtual segmentation of a ladder. ">
<polygon fill="none" stroke="black" points="268.609,-168.5 268.609,-187.5 428.609,-187.5 428.609,-168.5 268.609,-168.5"/>
<text text-anchor="middle" x="348.609" y="-175.5" font-family="Helvetica,sans-Serif" font-size="10.00">MFTBase/LadderSegmentation.h</text>
</a>
</g>
</g>
<!-- Node6&#45;&gt;Node8 -->
<g id="edge7" class="edge"><title>Node6&#45;&gt;Node8</title>
<path fill="none" stroke="midnightblue" d="M376.994,-224.083C372.241,-216.534 365.291,-205.495 359.457,-196.23"/>
<polygon fill="midnightblue" stroke="midnightblue" points="362.409,-194.349 354.119,-187.751 356.485,-198.078 362.409,-194.349"/>
</g>
<!-- Node9 -->
<g id="node9" class="node"><title>Node9</title>
<g id="a_node9"><a xlink:href="../../d3/de7/VSegmentation_8h.html" target="_top" xlink:title="Abstract base class for MFT Segmentation description. ">
<polygon fill="none" stroke="black" points="283.109,-56.5 283.109,-75.5 420.109,-75.5 420.109,-56.5 283.109,-56.5"/>
<text text-anchor="middle" x="351.609" y="-63.5" font-family="Helvetica,sans-Serif" font-size="10.00">MFTBase/VSegmentation.h</text>
</a>
</g>
</g>
<!-- Node6&#45;&gt;Node9 -->
<g id="edge14" class="edge"><title>Node6&#45;&gt;Node9</title>
<path fill="none" stroke="midnightblue" d="M399.807,-224.386C412.86,-216.794 429.842,-204.389 437.609,-188 443.652,-175.247 452.041,-137.121 436.609,-112 427.111,-96.539 410.36,-86.0953 394.225,-79.1954"/>
<polygon fill="midnightblue" stroke="midnightblue" points="395.443,-75.9139 384.855,-75.5312 392.894,-82.4331 395.443,-75.9139"/>
</g>
<!-- Node8&#45;&gt;Node2 -->
<g id="edge8" class="edge"><title>Node8&#45;&gt;Node2</title>
<path fill="none" stroke="midnightblue" d="M306.619,-168.444C260.196,-158.984 185.381,-143.738 135.368,-133.547"/>
<polygon fill="midnightblue" stroke="midnightblue" points="135.9,-130.084 125.402,-131.516 134.502,-136.943 135.9,-130.084"/>
</g>
<!-- Node8&#45;&gt;Node9 -->
<g id="edge9" class="edge"><title>Node8&#45;&gt;Node9</title>
<path fill="none" stroke="midnightblue" d="M320.959,-168.451C291.795,-157.861 252.048,-137.989 267.609,-112 276.758,-96.7189 293.067,-86.332 308.897,-79.4255"/>
<polygon fill="midnightblue" stroke="midnightblue" points="310.621,-82.5068 318.622,-75.5623 308.037,-76.0012 310.621,-82.5068"/>
</g>
<!-- Node12 -->
<g id="node12" class="node"><title>Node12</title>
<g id="a_node12"><a xlink:href="../../d3/dbd/ChipSegmentation_8h.html" target="_top" xlink:title="Chip (sensor) segmentation description. ">
<polygon fill="none" stroke="black" points="277.109,-112.5 277.109,-131.5 428.109,-131.5 428.109,-112.5 277.109,-112.5"/>
<text text-anchor="middle" x="352.609" y="-119.5" font-family="Helvetica,sans-Serif" font-size="10.00">MFTBase/ChipSegmentation.h</text>
</a>
</g>
</g>
<!-- Node8&#45;&gt;Node12 -->
<g id="edge12" class="edge"><title>Node8&#45;&gt;Node12</title>
<path fill="none" stroke="midnightblue" d="M349.269,-168.083C349.793,-161.006 350.545,-150.861 351.202,-141.986"/>
<polygon fill="midnightblue" stroke="midnightblue" points="354.712,-141.982 351.96,-131.751 347.731,-141.465 354.712,-141.982"/>
</g>
<!-- Node10 -->
<g id="node10" class="node"><title>Node10</title>
<polygon fill="none" stroke="#bfbfbf" points="435.609,-0.5 435.609,-19.5 497.609,-19.5 497.609,-0.5 435.609,-0.5"/>
<text text-anchor="middle" x="466.609" y="-7.5" font-family="Helvetica,sans-Serif" font-size="10.00">TNamed.h</text>
</g>
<!-- Node9&#45;&gt;Node10 -->
<g id="edge10" class="edge"><title>Node9&#45;&gt;Node10</title>
<path fill="none" stroke="midnightblue" d="M369.831,-56.4435C388.504,-47.6751 417.765,-33.9355 439.226,-23.8579"/>
<polygon fill="midnightblue" stroke="midnightblue" points="440.908,-26.935 448.472,-19.5164 437.932,-20.5988 440.908,-26.935"/>
</g>
<!-- Node11 -->
<g id="node11" class="node"><title>Node11</title>
<polygon fill="none" stroke="#bfbfbf" points="313.609,-0.5 313.609,-19.5 389.609,-19.5 389.609,-0.5 313.609,-0.5"/>
<text text-anchor="middle" x="351.609" y="-7.5" font-family="Helvetica,sans-Serif" font-size="10.00">TGeoMatrix.h</text>
</g>
<!-- Node9&#45;&gt;Node11 -->
<g id="edge11" class="edge"><title>Node9&#45;&gt;Node11</title>
<path fill="none" stroke="midnightblue" d="M351.609,-56.083C351.609,-49.0059 351.609,-38.8611 351.609,-29.9865"/>
<polygon fill="midnightblue" stroke="midnightblue" points="355.109,-29.751 351.609,-19.7511 348.109,-29.7511 355.109,-29.751"/>
</g>
<!-- Node12&#45;&gt;Node9 -->
<g id="edge13" class="edge"><title>Node12&#45;&gt;Node9</title>
<path fill="none" stroke="midnightblue" d="M352.444,-112.083C352.313,-105.006 352.125,-94.8611 351.96,-85.9865"/>
<polygon fill="midnightblue" stroke="midnightblue" points="355.455,-85.6845 351.771,-75.7511 348.457,-85.8142 355.455,-85.6845"/>
</g>
<!-- Node13&#45;&gt;Node10 -->
<g id="edge16" class="edge"><title>Node13&#45;&gt;Node10</title>
<path fill="none" stroke="midnightblue" d="M489.985,-56.083C486.152,-48.6913 480.584,-37.9533 475.844,-28.8111"/>
<polygon fill="midnightblue" stroke="midnightblue" points="478.857,-27.0175 471.146,-19.7511 472.642,-30.2398 478.857,-27.0175"/>
</g>
</g>
</svg>
        <g id="navigator" transform="translate(0 0)" fill="#404254">
                <rect fill="#f2f5e9" fill-opacity="0.5" stroke="#606060" stroke-width=".5" x="0" y="0" width="60" height="60"/>
                <use id="zoomplus" xlink:href="#zoomPlus" x="17" y="9" onmousedown="handleZoom(evt,'in')"/>
                <use id="zoomminus" xlink:href="#zoomMin" x="42" y="9" onmousedown="handleZoom(evt,'out')"/>
                <use id="reset" xlink:href="#resetDef" x="30" y="36" onmousedown="handleReset()"/>
                <g id="arrowUp" xlink:href="#dirArrow" transform="translate(30 24)" onmousedown="handlePan(0,-1)">
                  <use xlink:href="#rim" fill="#404040">
                        <set attributeName="fill" to="#808080" begin="arrowUp.mouseover" end="arrowUp.mouseout"/>
                  </use>
                  <path fill="none" stroke="white" stroke-width="1.5" d="M0,-3.0v7 M-2.5,-0.5L0,-3.0L2.5,-0.5"/>
                </g>
                <g id="arrowRight" xlink:href="#dirArrow" transform="rotate(90) translate(36 -43)" onmousedown="handlePan(1,0)">
                  <use xlink:href="#rim" fill="#404040">
                        <set attributeName="fill" to="#808080" begin="arrowRight.mouseover" end="arrowRight.mouseout"/>
                  </use>
                  <path fill="none" stroke="white" stroke-width="1.5" d="M0,-3.0v7 M-2.5,-0.5L0,-3.0L2.5,-0.5"/>
                </g>
                <g id="arrowDown" xlink:href="#dirArrow" transform="rotate(180) translate(-30 -48)" onmousedown="handlePan(0,1)">
                  <use xlink:href="#rim" fill="#404040">
                        <set attributeName="fill" to="#808080" begin="arrowDown.mouseover" end="arrowDown.mouseout"/>
                  </use>
                  <path fill="none" stroke="white" stroke-width="1.5" d="M0,-3.0v7 M-2.5,-0.5L0,-3.0L2.5,-0.5"/>
                </g>
                <g id="arrowLeft" xlink:href="#dirArrow" transform="rotate(270) translate(-36 17)" onmousedown="handlePan(-1,0)">
                  <use xlink:href="#rim" fill="#404040">
                        <set attributeName="fill" to="#808080" begin="arrowLeft.mouseover" end="arrowLeft.mouseout"/>
                  </use>
                  <path fill="none" stroke="white" stroke-width="1.5" d="M0,-3.0v7 M-2.5,-0.5L0,-3.0L2.5,-0.5"/>
                </g>
        </g>
        <svg viewBox="0 0 15 15" width="100%" height="30px" preserveAspectRatio="xMaxYMin meet">
         <g id="arrow_out" transform="scale(0.3 0.3)">
          <a xlink:href="HalfDiskSegmentation_8cxx__incl_org.svg" target="_base">
           <rect id="button" ry="5" rx="5" y="6" x="6" height="38" width="38"
                fill="#f2f5e9" fill-opacity="0.5" stroke="#606060" stroke-width="1.0"/>
           <path id="arrow"
             d="M 11.500037,31.436501 C 11.940474,20.09759 22.043105,11.32322 32.158766,21.979434 L 37.068811,17.246167 C 37.068811,17.246167 37.088388,32 37.088388,32 L 22.160133,31.978069 C 22.160133,31.978069 26.997745,27.140456 26.997745,27.140456 C 18.528582,18.264221 13.291696,25.230495 11.500037,31.436501 z"
             style="fill:#404040;"/>
          </a>
         </g>
        </svg>
</svg>
