<?xml version="1.0" encoding="UTF-8" standalone="no"?>
<!DOCTYPE svg PUBLIC "-//W3C//DTD SVG 1.1//EN"
 "http://www.w3.org/Graphics/SVG/1.1/DTD/svg11.dtd">
<!-- Generated by graphviz version 2.36.0 (20140111.2315)
 -->
<!-- Title: /home/travis/build/AliceO2Group/AliceO2/DataFormats/simulation/include/SimulationDataFormat/TrackReference.h Pages: 1 -->
<!--zoomable 652 -->
<svg id="main" version="1.1" xmlns="http://www.w3.org/2000/svg" xmlns:xlink="http://www.w3.org/1999/xlink" xml:space="preserve" onload="init(evt)">
<style type="text/css"><![CDATA[
.edge:hover path { stroke: red; }
.edge:hover polygon { stroke: red; fill: red; }
]]></style>
<script type="text/javascript"><![CDATA[
var edges = document.getElementsByTagName('g');
if (edges && edges.length) {
  for (var i=0;i<edges.length;i++) {
    if (edges[i].id.substr(0,4)=='edge') {
      edges[i].setAttribute('class','edge');
    }
  }
}
]]></script>
        <defs>
                <circle id="rim" cx="0" cy="0" r="7"/>
                <circle id="rim2" cx="0" cy="0" r="3.5"/>
                <g id="zoomPlus">
                        <use xlink:href="#rim" fill="#404040">
                                <set attributeName="fill" to="#808080" begin="zoomplus.mouseover" end="zoomplus.mouseout"/>
                        </use>
                        <path d="M-4,0h8M0,-4v8" fill="none" stroke="white" stroke-width="1.5" pointer-events="none"/>
                </g>
                <g id="zoomMin">
                        <use xlink:href="#rim" fill="#404040">
                                <set attributeName="fill" to="#808080" begin="zoomminus.mouseover" end="zoomminus.mouseout"/>
                        </use>
                        <path d="M-4,0h8" fill="none" stroke="white" stroke-width="1.5" pointer-events="none"/>
                </g>
                <g id="dirArrow">
                        <path fill="none" stroke="white" stroke-width="1.5" d="M0,-3.0v7 M-2.5,-0.5L0,-3.0L2.5,-0.5"/>
                </g>
               <g id="resetDef">
                       <use xlink:href="#rim2" fill="#404040">
                               <set attributeName="fill" to="#808080" begin="reset.mouseover" end="reset.mouseout"/>
                       </use>
               </g>
        </defs>

<script type="text/javascript">
var viewWidth = 2888;
var viewHeight = 652;
var sectionId = 'dynsection-1';
</script>
<script xlink:href="../../svgpan.js"/>
<svg id="graph" class="graph">
<g id="viewport">
<title>/home/travis/build/AliceO2Group/AliceO2/DataFormats/simulation/include/SimulationDataFormat/TrackReference.h</title>
<!-- Node1 -->
<g id="node1" class="node"><title>Node1</title>
<polygon fill="#bfbfbf" stroke="black" points="1326.5,-580.5 1326.5,-643.5 1477.5,-643.5 1477.5,-580.5 1326.5,-580.5"/>
<text text-anchor="start" x="1334.5" y="-631.5" font-family="Helvetica,sans-Serif" font-size="10.00">/home/travis/build</text>
<text text-anchor="start" x="1334.5" y="-620.5" font-family="Helvetica,sans-Serif" font-size="10.00">/AliceO2Group/AliceO2</text>
<text text-anchor="start" x="1334.5" y="-609.5" font-family="Helvetica,sans-Serif" font-size="10.00">/DataFormats/simulation</text>
<text text-anchor="start" x="1334.5" y="-598.5" font-family="Helvetica,sans-Serif" font-size="10.00">/include/SimulationDataFormat</text>
<text text-anchor="middle" x="1402" y="-587.5" font-family="Helvetica,sans-Serif" font-size="10.00">/TrackReference.h</text>
</g>
<!-- Node2 -->
<g id="node2" class="node"><title>Node2</title>
<g id="a_node2"><a xlink:href="../../d4/d03/simulation_2include_2SimulationDataFormat_2Stack_8h.html" target="_top" xlink:title="/home/travis/build\l/AliceO2Group/AliceO2\l/DataFormats/simulation\l/include/SimulationDataFormat\l/Stack.h">
<polygon fill="none" stroke="black" points="1326.5,-480.5 1326.5,-543.5 1477.5,-543.5 1477.5,-480.5 1326.5,-480.5"/>
<text text-anchor="start" x="1334.5" y="-531.5" font-family="Helvetica,sans-Serif" font-size="10.00">/home/travis/build</text>
<text text-anchor="start" x="1334.5" y="-520.5" font-family="Helvetica,sans-Serif" font-size="10.00">/AliceO2Group/AliceO2</text>
<text text-anchor="start" x="1334.5" y="-509.5" font-family="Helvetica,sans-Serif" font-size="10.00">/DataFormats/simulation</text>
<text text-anchor="start" x="1334.5" y="-498.5" font-family="Helvetica,sans-Serif" font-size="10.00">/include/SimulationDataFormat</text>
<text text-anchor="middle" x="1402" y="-487.5" font-family="Helvetica,sans-Serif" font-size="10.00">/Stack.h</text>
</a>
</g>
</g>
<!-- Node1&#45;&gt;Node2 -->
<g id="edge1" class="edge"><title>Node1&#45;&gt;Node2</title>
<path fill="none" stroke="midnightblue" d="M1402,-570.099C1402,-561.238 1402,-552.015 1402,-543.63"/>
<polygon fill="midnightblue" stroke="midnightblue" points="1398.5,-570.261 1402,-580.261 1405.5,-570.261 1398.5,-570.261"/>
</g>
<!-- Node4 -->
<g id="node4" class="node"><title>Node4</title>
<g id="a_node4"><a xlink:href="../../d3/df5/checkStack_8C.html" target="_top" xlink:title="/home/travis/build\l/AliceO2Group/AliceO2\l/DataFormats/simulation\l/test/checkStack.C">
<polygon fill="none" stroke="black" points="0,-391 0,-443 124,-443 124,-391 0,-391"/>
<text text-anchor="start" x="8" y="-431" font-family="Helvetica,sans-Serif" font-size="10.00">/home/travis/build</text>
<text text-anchor="start" x="8" y="-420" font-family="Helvetica,sans-Serif" font-size="10.00">/AliceO2Group/AliceO2</text>
<text text-anchor="start" x="8" y="-409" font-family="Helvetica,sans-Serif" font-size="10.00">/DataFormats/simulation</text>
<text text-anchor="middle" x="62" y="-398" font-family="Helvetica,sans-Serif" font-size="10.00">/test/checkStack.C</text>
</a>
</g>
</g>
<!-- Node1&#45;&gt;Node4 -->
<g id="edge32" class="edge"><title>Node1&#45;&gt;Node4</title>
<path fill="none" stroke="midnightblue" d="M1316.41,-610.982C1151.46,-609.598 778.654,-599.903 471,-544 345.08,-521.119 203.445,-471.985 124.25,-442.286"/>
<polygon fill="midnightblue" stroke="midnightblue" points="1316.47,-614.483 1326.49,-611.059 1316.52,-607.483 1316.47,-614.483"/>
</g>
<!-- Node10 -->
<g id="node10" class="node"><title>Node10</title>
<g id="a_node10"><a xlink:href="../../d7/d24/HMPID_2simulation_2src_2Detector_8cxx.html" target="_top" xlink:title="/home/travis/build\l/AliceO2Group/AliceO2\l/Detectors/HMPID/simulation\l/src/Detector.cxx">
<polygon fill="none" stroke="black" points="142,-391 142,-443 288,-443 288,-391 142,-391"/>
<text text-anchor="start" x="150" y="-431" font-family="Helvetica,sans-Serif" font-size="10.00">/home/travis/build</text>
<text text-anchor="start" x="150" y="-420" font-family="Helvetica,sans-Serif" font-size="10.00">/AliceO2Group/AliceO2</text>
<text text-anchor="start" x="150" y="-409" font-family="Helvetica,sans-Serif" font-size="10.00">/Detectors/HMPID/simulation</text>
<text text-anchor="middle" x="215" y="-398" font-family="Helvetica,sans-Serif" font-size="10.00">/src/Detector.cxx</text>
</a>
</g>
</g>
<!-- Node1&#45;&gt;Node10 -->
<g id="edge33" class="edge"><title>Node1&#45;&gt;Node10</title>
<path fill="none" stroke="midnightblue" d="M1316.28,-603.627C1129.09,-586.314 670.6,-537.308 297,-444 294.102,-443.276 291.157,-442.507 288.188,-441.703"/>
<polygon fill="midnightblue" stroke="midnightblue" points="1316.05,-607.121 1326.33,-604.55 1316.7,-600.15 1316.05,-607.121"/>
</g>
<!-- Node11 -->
<g id="node11" class="node"><title>Node11</title>
<g id="a_node11"><a xlink:href="../../d9/d0d/ITSMFT_2ITS_2simulation_2src_2Detector_8cxx.html" target="_top" xlink:title="/home/travis/build\l/AliceO2Group/AliceO2\l/Detectors/ITSMFT/ITS\l/simulation/src/Detector.cxx">
<polygon fill="none" stroke="black" points="306,-391 306,-443 446,-443 446,-391 306,-391"/>
<text text-anchor="start" x="314" y="-431" font-family="Helvetica,sans-Serif" font-size="10.00">/home/travis/build</text>
<text text-anchor="start" x="314" y="-420" font-family="Helvetica,sans-Serif" font-size="10.00">/AliceO2Group/AliceO2</text>
<text text-anchor="start" x="314" y="-409" font-family="Helvetica,sans-Serif" font-size="10.00">/Detectors/ITSMFT/ITS</text>
<text text-anchor="middle" x="376" y="-398" font-family="Helvetica,sans-Serif" font-size="10.00">/simulation/src/Detector.cxx</text>
</a>
</g>
</g>
<!-- Node1&#45;&gt;Node11 -->
<g id="edge35" class="edge"><title>Node1&#45;&gt;Node11</title>
<path fill="none" stroke="midnightblue" d="M1316.46,-587.287C1206.74,-557.753 1010.15,-507.804 839,-480 669.803,-452.514 622.801,-479.014 455,-444 452.173,-443.41 449.306,-442.754 446.421,-442.045"/>
<polygon fill="midnightblue" stroke="midnightblue" points="1315.59,-590.677 1326.16,-589.904 1317.42,-583.919 1315.59,-590.677"/>
</g>
<!-- Node13 -->
<g id="node13" class="node"><title>Node13</title>
<g id="a_node13"><a xlink:href="../../db/dfd/Stepper_8cxx.html" target="_top" xlink:title="/home/travis/build\l/AliceO2Group/AliceO2\l/Detectors/MUON/MCH/Simulation\l/src/Stepper.cxx">
<polygon fill="none" stroke="black" points="2558.5,-391 2558.5,-443 2729.5,-443 2729.5,-391 2558.5,-391"/>
<text text-anchor="start" x="2566.5" y="-431" font-family="Helvetica,sans-Serif" font-size="10.00">/home/travis/build</text>
<text text-anchor="start" x="2566.5" y="-420" font-family="Helvetica,sans-Serif" font-size="10.00">/AliceO2Group/AliceO2</text>
<text text-anchor="start" x="2566.5" y="-409" font-family="Helvetica,sans-Serif" font-size="10.00">/Detectors/MUON/MCH/Simulation</text>
<text text-anchor="middle" x="2644" y="-398" font-family="Helvetica,sans-Serif" font-size="10.00">/src/Stepper.cxx</text>
</a>
</g>
</g>
<!-- Node1&#45;&gt;Node13 -->
<g id="edge36" class="edge"><title>Node1&#45;&gt;Node13</title>
<path fill="none" stroke="midnightblue" d="M1453.66,-573.755C1464.88,-564.612 1476.28,-554.435 1486,-544 1509.53,-518.741 1499.74,-496.607 1530,-480 1629.22,-425.546 2436.09,-460.905 2548,-444 2551.41,-443.484 2554.88,-442.89 2558.37,-442.234"/>
<polygon fill="midnightblue" stroke="midnightblue" points="1451.19,-571.249 1445.55,-580.219 1455.55,-576.722 1451.19,-571.249"/>
</g>
<!-- Node16 -->
<g id="node16" class="node"><title>Node16</title>
<g id="a_node16"><a xlink:href="../../d2/d2c/TPC_2simulation_2src_2Detector_8cxx.html" target="_top" xlink:title="/home/travis/build\l/AliceO2Group/AliceO2\l/Detectors/TPC/simulation\l/src/Detector.cxx">
<polygon fill="none" stroke="black" points="2747.5,-391 2747.5,-443 2880.5,-443 2880.5,-391 2747.5,-391"/>
<text text-anchor="start" x="2755.5" y="-431" font-family="Helvetica,sans-Serif" font-size="10.00">/home/travis/build</text>
<text text-anchor="start" x="2755.5" y="-420" font-family="Helvetica,sans-Serif" font-size="10.00">/AliceO2Group/AliceO2</text>
<text text-anchor="start" x="2755.5" y="-409" font-family="Helvetica,sans-Serif" font-size="10.00">/Detectors/TPC/simulation</text>
<text text-anchor="middle" x="2814" y="-398" font-family="Helvetica,sans-Serif" font-size="10.00">/src/Detector.cxx</text>
</a>
</g>
</g>
<!-- Node1&#45;&gt;Node16 -->
<g id="edge37" class="edge"><title>Node1&#45;&gt;Node16</title>
<path fill="none" stroke="midnightblue" d="M1478.92,-575.33C1494.13,-566.337 1509.3,-555.824 1522,-544 1546.9,-520.818 1534.31,-496.619 1564,-480 1677.88,-416.25 2609.61,-467.382 2738,-444 2741.02,-443.45 2744.08,-442.803 2747.15,-442.079"/>
<polygon fill="midnightblue" stroke="midnightblue" points="1476.92,-572.442 1469.98,-580.447 1480.39,-578.518 1476.92,-572.442"/>
</g>
<!-- Node30 -->
<g id="node30" class="node"><title>Node30</title>
<g id="a_node30"><a xlink:href="../../dc/df8/CheckTracks_8C.html" target="_top" xlink:title="Simple macro to check ITSU tracks. ">
<polygon fill="none" stroke="black" points="1572.5,-486 1572.5,-538 1715.5,-538 1715.5,-486 1572.5,-486"/>
<text text-anchor="start" x="1580.5" y="-526" font-family="Helvetica,sans-Serif" font-size="10.00">/home/travis/build</text>
<text text-anchor="start" x="1580.5" y="-515" font-family="Helvetica,sans-Serif" font-size="10.00">/AliceO2Group/AliceO2</text>
<text text-anchor="start" x="1580.5" y="-504" font-family="Helvetica,sans-Serif" font-size="10.00">/Detectors/ITSMFT/ITS</text>
<text text-anchor="middle" x="1644" y="-493" font-family="Helvetica,sans-Serif" font-size="10.00">/macros/test/CheckTracks.C</text>
</a>
</g>
</g>
<!-- Node1&#45;&gt;Node30 -->
<g id="edge34" class="edge"><title>Node1&#45;&gt;Node30</title>
<path fill="none" stroke="midnightblue" d="M1487.15,-576.519C1518.39,-563.868 1553.13,-549.797 1581.97,-538.121"/>
<polygon fill="midnightblue" stroke="midnightblue" points="1485.53,-573.398 1477.57,-580.395 1488.16,-579.886 1485.53,-573.398"/>
</g>
<!-- Node3 -->
<g id="node3" class="node"><title>Node3</title>
<g id="a_node3"><a xlink:href="../../dd/d20/Stack_8cxx.html" target="_top" xlink:title="Implementation of the Stack class. ">
<polygon fill="none" stroke="black" points="464,-391 464,-443 588,-443 588,-391 464,-391"/>
<text text-anchor="start" x="472" y="-431" font-family="Helvetica,sans-Serif" font-size="10.00">/home/travis/build</text>
<text text-anchor="start" x="472" y="-420" font-family="Helvetica,sans-Serif" font-size="10.00">/AliceO2Group/AliceO2</text>
<text text-anchor="start" x="472" y="-409" font-family="Helvetica,sans-Serif" font-size="10.00">/DataFormats/simulation</text>
<text text-anchor="middle" x="526" y="-398" font-family="Helvetica,sans-Serif" font-size="10.00">/src/Stack.cxx</text>
</a>
</g>
</g>
<!-- Node2&#45;&gt;Node3 -->
<g id="edge2" class="edge"><title>Node2&#45;&gt;Node3</title>
<path fill="none" stroke="midnightblue" d="M1316.57,-498.308C1272.07,-492.056 1216.69,-484.841 1167,-480 914.358,-455.387 845.416,-496.183 597,-444 594.045,-443.379 591.048,-442.66 588.041,-441.866"/>
<polygon fill="midnightblue" stroke="midnightblue" points="1316.09,-501.774 1326.48,-499.708 1317.07,-494.843 1316.09,-501.774"/>
</g>
<!-- Node2&#45;&gt;Node4 -->
<g id="edge3" class="edge"><title>Node2&#45;&gt;Node4</title>
<path fill="none" stroke="midnightblue" d="M1316.1,-509.792C1069.08,-505.791 360.04,-490.47 133,-444 130.042,-443.395 127.043,-442.688 124.033,-441.904"/>
<polygon fill="midnightblue" stroke="midnightblue" points="1316.05,-513.292 1326.1,-509.952 1316.16,-506.292 1316.05,-513.292"/>
</g>
<!-- Node5 -->
<g id="node5" class="node"><title>Node5</title>
<g id="a_node5"><a xlink:href="../../d5/d9d/test_2MCTrack_8cxx.html" target="_top" xlink:title="/home/travis/build\l/AliceO2Group/AliceO2\l/DataFormats/simulation\l/test/MCTrack.cxx">
<polygon fill="none" stroke="black" points="606,-391 606,-443 730,-443 730,-391 606,-391"/>
<text text-anchor="start" x="614" y="-431" font-family="Helvetica,sans-Serif" font-size="10.00">/home/travis/build</text>
<text text-anchor="start" x="614" y="-420" font-family="Helvetica,sans-Serif" font-size="10.00">/AliceO2Group/AliceO2</text>
<text text-anchor="start" x="614" y="-409" font-family="Helvetica,sans-Serif" font-size="10.00">/DataFormats/simulation</text>
<text text-anchor="middle" x="668" y="-398" font-family="Helvetica,sans-Serif" font-size="10.00">/test/MCTrack.cxx</text>
</a>
</g>
</g>
<!-- Node2&#45;&gt;Node5 -->
<g id="edge4" class="edge"><title>Node2&#45;&gt;Node5</title>
<path fill="none" stroke="midnightblue" d="M1316.53,-498.742C1272.01,-492.606 1216.64,-485.364 1167,-480 977.651,-459.541 926.053,-484.693 740,-444 736.754,-443.29 733.456,-442.471 730.146,-441.571"/>
<polygon fill="midnightblue" stroke="midnightblue" points="1316.05,-502.209 1326.44,-500.114 1317.01,-495.275 1316.05,-502.209"/>
</g>
<!-- Node6 -->
<g id="node6" class="node"><title>Node6</title>
<g id="a_node6"><a xlink:href="../../da/d98/EMCAL_2simulation_2src_2Detector_8cxx.html" target="_top" xlink:title="/home/travis/build\l/AliceO2Group/AliceO2\l/Detectors/EMCAL/simulation\l/src/Detector.cxx">
<polygon fill="none" stroke="black" points="748.5,-391 748.5,-443 895.5,-443 895.5,-391 748.5,-391"/>
<text text-anchor="start" x="756.5" y="-431" font-family="Helvetica,sans-Serif" font-size="10.00">/home/travis/build</text>
<text text-anchor="start" x="756.5" y="-420" font-family="Helvetica,sans-Serif" font-size="10.00">/AliceO2Group/AliceO2</text>
<text text-anchor="start" x="756.5" y="-409" font-family="Helvetica,sans-Serif" font-size="10.00">/Detectors/EMCAL/simulation</text>
<text text-anchor="middle" x="822" y="-398" font-family="Helvetica,sans-Serif" font-size="10.00">/src/Detector.cxx</text>
</a>
</g>
</g>
<!-- Node2&#45;&gt;Node6 -->
<g id="edge5" class="edge"><title>Node2&#45;&gt;Node6</title>
<path fill="none" stroke="midnightblue" d="M1316.01,-499.596C1176.42,-481.057 914.95,-446.212 905,-444 901.905,-443.312 898.758,-442.561 895.591,-441.764"/>
<polygon fill="midnightblue" stroke="midnightblue" points="1315.88,-503.11 1326.26,-500.956 1316.8,-496.17 1315.88,-503.11"/>
</g>
<!-- Node7 -->
<g id="node7" class="node"><title>Node7</title>
<g id="a_node7"><a xlink:href="../../d3/d5e/FIT_2simulation_2src_2Detector_8cxx.html" target="_top" xlink:title="/home/travis/build\l/AliceO2Group/AliceO2\l/Detectors/FIT/simulation\l/src/Detector.cxx">
<polygon fill="none" stroke="black" points="914,-391 914,-443 1042,-443 1042,-391 914,-391"/>
<text text-anchor="start" x="922" y="-431" font-family="Helvetica,sans-Serif" font-size="10.00">/home/travis/build</text>
<text text-anchor="start" x="922" y="-420" font-family="Helvetica,sans-Serif" font-size="10.00">/AliceO2Group/AliceO2</text>
<text text-anchor="start" x="922" y="-409" font-family="Helvetica,sans-Serif" font-size="10.00">/Detectors/FIT/simulation</text>
<text text-anchor="middle" x="978" y="-398" font-family="Helvetica,sans-Serif" font-size="10.00">/src/Detector.cxx</text>
</a>
</g>
</g>
<!-- Node2&#45;&gt;Node7 -->
<g id="edge6" class="edge"><title>Node2&#45;&gt;Node7</title>
<path fill="none" stroke="midnightblue" d="M1316.38,-498.429C1244.79,-487.022 1140.34,-468.282 1051,-444 1048.14,-443.224 1045.24,-442.389 1042.32,-441.511"/>
<polygon fill="midnightblue" stroke="midnightblue" points="1315.84,-501.887 1326.26,-499.99 1316.93,-494.972 1315.84,-501.887"/>
</g>
<!-- Node8 -->
<g id="node8" class="node"><title>Node8</title>
<g id="a_node8"><a xlink:href="../../d6/db7/G3Config_8cxx.html" target="_top" xlink:title="/home/travis/build\l/AliceO2Group/AliceO2\l/Detectors/gconfig/src\l/G3Config.cxx">
<polygon fill="none" stroke="black" points="1060,-391 1060,-443 1178,-443 1178,-391 1060,-391"/>
<text text-anchor="start" x="1068" y="-431" font-family="Helvetica,sans-Serif" font-size="10.00">/home/travis/build</text>
<text text-anchor="start" x="1068" y="-420" font-family="Helvetica,sans-Serif" font-size="10.00">/AliceO2Group/AliceO2</text>
<text text-anchor="start" x="1068" y="-409" font-family="Helvetica,sans-Serif" font-size="10.00">/Detectors/gconfig/src</text>
<text text-anchor="middle" x="1119" y="-398" font-family="Helvetica,sans-Serif" font-size="10.00">/G3Config.cxx</text>
</a>
</g>
</g>
<!-- Node2&#45;&gt;Node8 -->
<g id="edge7" class="edge"><title>Node2&#45;&gt;Node8</title>
<path fill="none" stroke="midnightblue" d="M1316.86,-485.82C1277.2,-473.745 1229.49,-458.727 1187,-444 1184.13,-443.007 1181.21,-441.971 1178.26,-440.91"/>
<polygon fill="midnightblue" stroke="midnightblue" points="1315.91,-489.19 1326.5,-488.745 1317.94,-482.492 1315.91,-489.19"/>
</g>
<!-- Node9 -->
<g id="node9" class="node"><title>Node9</title>
<g id="a_node9"><a xlink:href="../../d4/d6b/G4Config_8cxx.html" target="_top" xlink:title="/home/travis/build\l/AliceO2Group/AliceO2\l/Detectors/gconfig/src\l/G4Config.cxx">
<polygon fill="none" stroke="black" points="1196,-391 1196,-443 1314,-443 1314,-391 1196,-391"/>
<text text-anchor="start" x="1204" y="-431" font-family="Helvetica,sans-Serif" font-size="10.00">/home/travis/build</text>
<text text-anchor="start" x="1204" y="-420" font-family="Helvetica,sans-Serif" font-size="10.00">/AliceO2Group/AliceO2</text>
<text text-anchor="start" x="1204" y="-409" font-family="Helvetica,sans-Serif" font-size="10.00">/Detectors/gconfig/src</text>
<text text-anchor="middle" x="1255" y="-398" font-family="Helvetica,sans-Serif" font-size="10.00">/G4Config.cxx</text>
</a>
</g>
</g>
<!-- Node2&#45;&gt;Node9 -->
<g id="edge8" class="edge"><title>Node2&#45;&gt;Node9</title>
<path fill="none" stroke="midnightblue" d="M1344.82,-474.825C1328.05,-464.218 1310.09,-452.855 1294.67,-443.1"/>
<polygon fill="midnightblue" stroke="midnightblue" points="1343.14,-477.902 1353.46,-480.291 1346.88,-471.986 1343.14,-477.902"/>
</g>
<!-- Node2&#45;&gt;Node10 -->
<g id="edge9" class="edge"><title>Node2&#45;&gt;Node10</title>
<path fill="none" stroke="midnightblue" d="M1316.02,-506.366C1064.85,-492.754 346.825,-453.263 297,-444 294.063,-443.454 291.085,-442.835 288.09,-442.157"/>
<polygon fill="midnightblue" stroke="midnightblue" points="1316.02,-509.871 1326.19,-506.917 1316.39,-502.882 1316.02,-509.871"/>
</g>
<!-- Node2&#45;&gt;Node11 -->
<g id="edge10" class="edge"><title>Node2&#45;&gt;Node11</title>
<path fill="none" stroke="midnightblue" d="M1316.06,-497.973C1271.65,-491.67 1216.52,-484.511 1167,-480 851.458,-451.258 766.487,-502.044 455,-444 452.161,-443.471 449.284,-442.866 446.391,-442.2"/>
<polygon fill="midnightblue" stroke="midnightblue" points="1315.84,-501.477 1326.24,-499.428 1316.83,-494.547 1315.84,-501.477"/>
</g>
<!-- Node12 -->
<g id="node12" class="node"><title>Node12</title>
<g id="a_node12"><a xlink:href="../../d0/d6b/ITSMFT_2MFT_2simulation_2src_2Detector_8cxx.html" target="_top" xlink:title="/home/travis/build\l/AliceO2Group/AliceO2\l/Detectors/ITSMFT/MFT\l/simulation/src/Detector.cxx">
<polygon fill="none" stroke="black" points="1332,-391 1332,-443 1472,-443 1472,-391 1332,-391"/>
<text text-anchor="start" x="1340" y="-431" font-family="Helvetica,sans-Serif" font-size="10.00">/home/travis/build</text>
<text text-anchor="start" x="1340" y="-420" font-family="Helvetica,sans-Serif" font-size="10.00">/AliceO2Group/AliceO2</text>
<text text-anchor="start" x="1340" y="-409" font-family="Helvetica,sans-Serif" font-size="10.00">/Detectors/ITSMFT/MFT</text>
<text text-anchor="middle" x="1402" y="-398" font-family="Helvetica,sans-Serif" font-size="10.00">/simulation/src/Detector.cxx</text>
</a>
</g>
</g>
<!-- Node2&#45;&gt;Node12 -->
<g id="edge11" class="edge"><title>Node2&#45;&gt;Node12</title>
<path fill="none" stroke="midnightblue" d="M1402,-470.112C1402,-460.917 1402,-451.423 1402,-443.1"/>
<polygon fill="midnightblue" stroke="midnightblue" points="1398.5,-470.291 1402,-480.291 1405.5,-470.291 1398.5,-470.291"/>
</g>
<!-- Node2&#45;&gt;Node13 -->
<g id="edge12" class="edge"><title>Node2&#45;&gt;Node13</title>
<path fill="none" stroke="midnightblue" d="M1487.56,-480.874C1489.05,-480.564 1490.53,-480.272 1492,-480 1953.77,-394.588 2083.62,-513.844 2548,-444 2551.42,-443.486 2554.88,-442.894 2558.37,-442.239"/>
<polygon fill="midnightblue" stroke="midnightblue" points="1486.63,-477.495 1477.68,-483.159 1488.21,-484.315 1486.63,-477.495"/>
</g>
<!-- Node14 -->
<g id="node14" class="node"><title>Node14</title>
<g id="a_node14"><a xlink:href="../../df/d4d/PHOS_2simulation_2src_2Detector_8cxx.html" target="_top" xlink:title="/home/travis/build\l/AliceO2Group/AliceO2\l/Detectors/PHOS/simulation\l/src/Detector.cxx">
<polygon fill="none" stroke="black" points="1490.5,-391 1490.5,-443 1631.5,-443 1631.5,-391 1490.5,-391"/>
<text text-anchor="start" x="1498.5" y="-431" font-family="Helvetica,sans-Serif" font-size="10.00">/home/travis/build</text>
<text text-anchor="start" x="1498.5" y="-420" font-family="Helvetica,sans-Serif" font-size="10.00">/AliceO2Group/AliceO2</text>
<text text-anchor="start" x="1498.5" y="-409" font-family="Helvetica,sans-Serif" font-size="10.00">/Detectors/PHOS/simulation</text>
<text text-anchor="middle" x="1561" y="-398" font-family="Helvetica,sans-Serif" font-size="10.00">/src/Detector.cxx</text>
</a>
</g>
</g>
<!-- Node2&#45;&gt;Node14 -->
<g id="edge13" class="edge"><title>Node2&#45;&gt;Node14</title>
<path fill="none" stroke="midnightblue" d="M1463.35,-475.117C1481.63,-464.426 1501.26,-452.945 1518.09,-443.1"/>
<polygon fill="midnightblue" stroke="midnightblue" points="1461.37,-472.221 1454.5,-480.291 1464.9,-478.263 1461.37,-472.221"/>
</g>
<!-- Node15 -->
<g id="node15" class="node"><title>Node15</title>
<g id="a_node15"><a xlink:href="../../d4/d59/TOF_2simulation_2src_2Detector_8cxx.html" target="_top" xlink:title="/home/travis/build\l/AliceO2Group/AliceO2\l/Detectors/TOF/simulation\l/src/Detector.cxx">
<polygon fill="none" stroke="black" points="1650,-391 1650,-443 1782,-443 1782,-391 1650,-391"/>
<text text-anchor="start" x="1658" y="-431" font-family="Helvetica,sans-Serif" font-size="10.00">/home/travis/build</text>
<text text-anchor="start" x="1658" y="-420" font-family="Helvetica,sans-Serif" font-size="10.00">/AliceO2Group/AliceO2</text>
<text text-anchor="start" x="1658" y="-409" font-family="Helvetica,sans-Serif" font-size="10.00">/Detectors/TOF/simulation</text>
<text text-anchor="middle" x="1716" y="-398" font-family="Helvetica,sans-Serif" font-size="10.00">/src/Detector.cxx</text>
</a>
</g>
</g>
<!-- Node2&#45;&gt;Node15 -->
<g id="edge14" class="edge"><title>Node2&#45;&gt;Node15</title>
<path fill="none" stroke="midnightblue" d="M1487.66,-481.29C1489.11,-480.852 1490.56,-480.421 1492,-480 1556.96,-460.956 1575.02,-462.976 1640,-444 1643.21,-443.062 1646.49,-442.071 1649.79,-441.046"/>
<polygon fill="midnightblue" stroke="midnightblue" points="1486.47,-477.992 1477.95,-484.283 1488.54,-484.682 1486.47,-477.992"/>
</g>
<!-- Node2&#45;&gt;Node16 -->
<g id="edge15" class="edge"><title>Node2&#45;&gt;Node16</title>
<path fill="none" stroke="midnightblue" d="M1487.77,-487.641C1501.79,-484.571 1516.23,-481.852 1530,-480 1796.17,-444.199 2473.76,-492.004 2738,-444 2741.02,-443.452 2744.08,-442.805 2747.15,-442.082"/>
<polygon fill="midnightblue" stroke="midnightblue" points="1486.63,-484.31 1477.65,-489.931 1488.18,-491.137 1486.63,-484.31"/>
</g>
<!-- Node17 -->
<g id="node17" class="node"><title>Node17</title>
<g id="a_node17"><a xlink:href="../../da/d16/TRD_2simulation_2src_2Detector_8cxx.html" target="_top" xlink:title="/home/travis/build\l/AliceO2Group/AliceO2\l/Detectors/TRD/simulation\l/src/Detector.cxx">
<polygon fill="none" stroke="black" points="1800,-391 1800,-443 1934,-443 1934,-391 1800,-391"/>
<text text-anchor="start" x="1808" y="-431" font-family="Helvetica,sans-Serif" font-size="10.00">/home/travis/build</text>
<text text-anchor="start" x="1808" y="-420" font-family="Helvetica,sans-Serif" font-size="10.00">/AliceO2Group/AliceO2</text>
<text text-anchor="start" x="1808" y="-409" font-family="Helvetica,sans-Serif" font-size="10.00">/Detectors/TRD/simulation</text>
<text text-anchor="middle" x="1867" y="-398" font-family="Helvetica,sans-Serif" font-size="10.00">/src/Detector.cxx</text>
</a>
</g>
</g>
<!-- Node2&#45;&gt;Node17 -->
<g id="edge16" class="edge"><title>Node2&#45;&gt;Node17</title>
<path fill="none" stroke="midnightblue" d="M1487.6,-481.05C1489.07,-480.686 1490.54,-480.335 1492,-480 1622.45,-450.037 1660.52,-473.827 1791,-444 1793.85,-443.347 1796.75,-442.627 1799.67,-441.854"/>
<polygon fill="midnightblue" stroke="midnightblue" points="1486.56,-477.703 1477.78,-483.634 1488.34,-484.473 1486.56,-477.703"/>
</g>
<!-- Node18 -->
<g id="node18" class="node"><title>Node18</title>
<g id="a_node18"><a xlink:href="../../df/dac/ZDC_2simulation_2src_2Detector_8cxx.html" target="_top" xlink:title="/home/travis/build\l/AliceO2Group/AliceO2\l/Detectors/ZDC/simulation\l/src/Detector.cxx">
<polygon fill="none" stroke="black" points="1952,-391 1952,-443 2086,-443 2086,-391 1952,-391"/>
<text text-anchor="start" x="1960" y="-431" font-family="Helvetica,sans-Serif" font-size="10.00">/home/travis/build</text>
<text text-anchor="start" x="1960" y="-420" font-family="Helvetica,sans-Serif" font-size="10.00">/AliceO2Group/AliceO2</text>
<text text-anchor="start" x="1960" y="-409" font-family="Helvetica,sans-Serif" font-size="10.00">/Detectors/ZDC/simulation</text>
<text text-anchor="middle" x="2019" y="-398" font-family="Helvetica,sans-Serif" font-size="10.00">/src/Detector.cxx</text>
</a>
</g>
</g>
<!-- Node2&#45;&gt;Node18 -->
<g id="edge17" class="edge"><title>Node2&#45;&gt;Node18</title>
<path fill="none" stroke="midnightblue" d="M1487.58,-480.968C1489.06,-480.629 1490.53,-480.306 1492,-480 1688.84,-438.931 1746.11,-484.863 1943,-444 1945.87,-443.405 1948.78,-442.732 1951.7,-441.999"/>
<polygon fill="midnightblue" stroke="midnightblue" points="1486.59,-477.606 1477.73,-483.412 1488.28,-484.4 1486.59,-477.606"/>
</g>
<!-- Node19 -->
<g id="node19" class="node"><title>Node19</title>
<g id="a_node19"><a xlink:href="../../db/d50/O2HitMerger_8h.html" target="_top" xlink:title="/home/travis/build\l/AliceO2Group/AliceO2\l/run/O2HitMerger.h">
<polygon fill="none" stroke="black" points="2055,-78.5 2055,-119.5 2173,-119.5 2173,-78.5 2055,-78.5"/>
<text text-anchor="start" x="2063" y="-107.5" font-family="Helvetica,sans-Serif" font-size="10.00">/home/travis/build</text>
<text text-anchor="start" x="2063" y="-96.5" font-family="Helvetica,sans-Serif" font-size="10.00">/AliceO2Group/AliceO2</text>
<text text-anchor="middle" x="2114" y="-85.5" font-family="Helvetica,sans-Serif" font-size="10.00">/run/O2HitMerger.h</text>
</a>
</g>
</g>
<!-- Node2&#45;&gt;Node19 -->
<g id="edge18" class="edge"><title>Node2&#45;&gt;Node19</title>
<path fill="none" stroke="midnightblue" d="M1487.53,-479.408C1585.76,-467.223 2046.06,-487.728 2095,-444 2132,-410.944 2114,-383.613 2114,-334 2114,-334 2114,-334 2114,-254 2114,-205.875 2114,-149.291 2114,-119.935"/>
<polygon fill="midnightblue" stroke="midnightblue" points="1486.92,-475.961 1477.61,-481.015 1488.04,-482.87 1486.92,-475.961"/>
</g>
<!-- Node21 -->
<g id="node21" class="node"><title>Node21</title>
<g id="a_node21"><a xlink:href="../../db/d82/O2SimDevice_8h.html" target="_top" xlink:title="/home/travis/build\l/AliceO2Group/AliceO2\l/run/O2SimDevice.h">
<polygon fill="none" stroke="black" points="2183,-156.5 2183,-197.5 2301,-197.5 2301,-156.5 2183,-156.5"/>
<text text-anchor="start" x="2191" y="-185.5" font-family="Helvetica,sans-Serif" font-size="10.00">/home/travis/build</text>
<text text-anchor="start" x="2191" y="-174.5" font-family="Helvetica,sans-Serif" font-size="10.00">/AliceO2Group/AliceO2</text>
<text text-anchor="middle" x="2242" y="-163.5" font-family="Helvetica,sans-Serif" font-size="10.00">/run/O2SimDevice.h</text>
</a>
</g>
</g>
<!-- Node2&#45;&gt;Node21 -->
<g id="edge21" class="edge"><title>Node2&#45;&gt;Node21</title>
<path fill="none" stroke="midnightblue" d="M1487.71,-479.364C1590.13,-466.442 2073.14,-486.209 2128,-444 2176.9,-406.376 2146.91,-368.804 2171,-312 2188.78,-270.068 2214.95,-223.614 2230.06,-197.9"/>
<polygon fill="midnightblue" stroke="midnightblue" points="1486.92,-475.947 1477.61,-481.009 1488.04,-482.856 1486.92,-475.947"/>
</g>
<!-- Node23 -->
<g id="node23" class="node"><title>Node23</title>
<g id="a_node23"><a xlink:href="../../dc/d50/O2PrimaryServerDevice_8h.html" target="_top" xlink:title="/home/travis/build\l/AliceO2Group/AliceO2\l/run/O2PrimaryServerDevice.h">
<polygon fill="none" stroke="black" points="2390,-396.5 2390,-437.5 2540,-437.5 2540,-396.5 2390,-396.5"/>
<text text-anchor="start" x="2398" y="-425.5" font-family="Helvetica,sans-Serif" font-size="10.00">/home/travis/build</text>
<text text-anchor="start" x="2398" y="-414.5" font-family="Helvetica,sans-Serif" font-size="10.00">/AliceO2Group/AliceO2</text>
<text text-anchor="middle" x="2465" y="-403.5" font-family="Helvetica,sans-Serif" font-size="10.00">/run/O2PrimaryServerDevice.h</text>
</a>
</g>
</g>
<!-- Node2&#45;&gt;Node23 -->
<g id="edge24" class="edge"><title>Node2&#45;&gt;Node23</title>
<path fill="none" stroke="midnightblue" d="M1487.56,-480.887C1489.05,-480.573 1490.53,-480.277 1492,-480 1880.17,-406.909 1990.62,-510.312 2380,-444 2389.28,-442.42 2398.96,-440.116 2408.33,-437.524"/>
<polygon fill="midnightblue" stroke="midnightblue" points="1486.63,-477.511 1477.69,-483.195 1488.22,-484.327 1486.63,-477.511"/>
</g>
<!-- Node25 -->
<g id="node25" class="node"><title>Node25</title>
<g id="a_node25"><a xlink:href="../../df/d82/O2MCApplication_8h.html" target="_top" xlink:title="/home/travis/build\l/AliceO2Group/AliceO2\l/Steer/include/Steer/O2MCApplication.h">
<polygon fill="none" stroke="black" points="2180.5,-396.5 2180.5,-437.5 2371.5,-437.5 2371.5,-396.5 2180.5,-396.5"/>
<text text-anchor="start" x="2188.5" y="-425.5" font-family="Helvetica,sans-Serif" font-size="10.00">/home/travis/build</text>
<text text-anchor="start" x="2188.5" y="-414.5" font-family="Helvetica,sans-Serif" font-size="10.00">/AliceO2Group/AliceO2</text>
<text text-anchor="middle" x="2276" y="-403.5" font-family="Helvetica,sans-Serif" font-size="10.00">/Steer/include/Steer/O2MCApplication.h</text>
</a>
</g>
</g>
<!-- Node2&#45;&gt;Node25 -->
<g id="edge26" class="edge"><title>Node2&#45;&gt;Node25</title>
<path fill="none" stroke="midnightblue" d="M1487.57,-480.914C1489.05,-480.592 1490.53,-480.287 1492,-480 1786.44,-422.598 1869.07,-486.672 2166,-444 2177.56,-442.339 2189.68,-440.046 2201.49,-437.504"/>
<polygon fill="midnightblue" stroke="midnightblue" points="1486.62,-477.542 1477.7,-483.266 1488.24,-484.351 1486.62,-477.542"/>
</g>
<!-- Node19&#45;&gt;Node19 -->
<g id="edge19" class="edge"><title>Node19&#45;&gt;Node19</title>
<path fill="none" stroke="midnightblue" d="M2183.03,-109.753C2187.98,-107.318 2191,-103.733 2191,-99 2191,-91.6113 2183.63,-87.0223 2173.08,-85.2328"/>
<polygon fill="midnightblue" stroke="midnightblue" points="2181.63,-106.518 2173.08,-112.767 2183.66,-113.217 2181.63,-106.518"/>
</g>
<!-- Node20 -->
<g id="node20" class="node"><title>Node20</title>
<g id="a_node20"><a xlink:href="../../d9/d16/O2HitMergerRunner_8cxx.html" target="_top" xlink:title="/home/travis/build\l/AliceO2Group/AliceO2\l/run/O2HitMergerRunner.cxx">
<polygon fill="none" stroke="black" points="2043,-0.5 2043,-41.5 2185,-41.5 2185,-0.5 2043,-0.5"/>
<text text-anchor="start" x="2051" y="-29.5" font-family="Helvetica,sans-Serif" font-size="10.00">/home/travis/build</text>
<text text-anchor="start" x="2051" y="-18.5" font-family="Helvetica,sans-Serif" font-size="10.00">/AliceO2Group/AliceO2</text>
<text text-anchor="middle" x="2114" y="-7.5" font-family="Helvetica,sans-Serif" font-size="10.00">/run/O2HitMergerRunner.cxx</text>
</a>
</g>
</g>
<!-- Node19&#45;&gt;Node20 -->
<g id="edge20" class="edge"><title>Node19&#45;&gt;Node20</title>
<path fill="none" stroke="midnightblue" d="M2114,-68.2965C2114,-59.3009 2114,-49.6532 2114,-41.5056"/>
<polygon fill="midnightblue" stroke="midnightblue" points="2110.5,-68.4281 2114,-78.4281 2117.5,-68.4281 2110.5,-68.4281"/>
</g>
<!-- Node21&#45;&gt;Node19 -->
<g id="edge22" class="edge"><title>Node21&#45;&gt;Node19</title>
<path fill="none" stroke="midnightblue" d="M2200.24,-151.203C2182.91,-140.918 2163.11,-129.159 2146.85,-119.506"/>
<polygon fill="midnightblue" stroke="midnightblue" points="2198.65,-154.332 2209.04,-156.428 2202.23,-148.313 2198.65,-154.332"/>
</g>
<!-- Node22 -->
<g id="node22" class="node"><title>Node22</title>
<g id="a_node22"><a xlink:href="../../d6/da5/O2SimDeviceRunner_8cxx.html" target="_top" xlink:title="/home/travis/build\l/AliceO2Group/AliceO2\l/run/O2SimDeviceRunner.cxx">
<polygon fill="none" stroke="black" points="2209.5,-78.5 2209.5,-119.5 2356.5,-119.5 2356.5,-78.5 2209.5,-78.5"/>
<text text-anchor="start" x="2217.5" y="-107.5" font-family="Helvetica,sans-Serif" font-size="10.00">/home/travis/build</text>
<text text-anchor="start" x="2217.5" y="-96.5" font-family="Helvetica,sans-Serif" font-size="10.00">/AliceO2Group/AliceO2</text>
<text text-anchor="middle" x="2283" y="-85.5" font-family="Helvetica,sans-Serif" font-size="10.00">/run/O2SimDeviceRunner.cxx</text>
</a>
</g>
</g>
<!-- Node21&#45;&gt;Node22 -->
<g id="edge23" class="edge"><title>Node21&#45;&gt;Node22</title>
<path fill="none" stroke="midnightblue" d="M2257.39,-147.466C2262.42,-138.143 2267.89,-128.007 2272.48,-119.506"/>
<polygon fill="midnightblue" stroke="midnightblue" points="2254.23,-145.965 2252.56,-156.428 2260.39,-149.289 2254.23,-145.965"/>
</g>
<!-- Node24 -->
<g id="node24" class="node"><title>Node24</title>
<g id="a_node24"><a xlink:href="../../db/d8f/O2PrimaryServerDeviceRunner_8cxx.html" target="_top" xlink:title="/home/travis/build\l/AliceO2Group/AliceO2\l/run/O2PrimaryServerDeviceRunner.cxx">
<polygon fill="none" stroke="black" points="2536,-312.5 2536,-353.5 2728,-353.5 2728,-312.5 2536,-312.5"/>
<text text-anchor="start" x="2544" y="-341.5" font-family="Helvetica,sans-Serif" font-size="10.00">/home/travis/build</text>
<text text-anchor="start" x="2544" y="-330.5" font-family="Helvetica,sans-Serif" font-size="10.00">/AliceO2Group/AliceO2</text>
<text text-anchor="middle" x="2632" y="-319.5" font-family="Helvetica,sans-Serif" font-size="10.00">/run/O2PrimaryServerDeviceRunner.cxx</text>
</a>
</g>
</g>
<!-- Node23&#45;&gt;Node24 -->
<g id="edge25" class="edge"><title>Node23&#45;&gt;Node24</title>
<path fill="none" stroke="midnightblue" d="M2514.24,-391.823C2539.02,-379.652 2568.68,-365.089 2592.04,-353.623"/>
<polygon fill="midnightblue" stroke="midnightblue" points="2512.43,-388.81 2505,-396.359 2515.52,-395.093 2512.43,-388.81"/>
</g>
<!-- Node26 -->
<g id="node26" class="node"><title>Node26</title>
<g id="a_node26"><a xlink:href="../../d9/d9b/O2RunSim_8h.html" target="_top" xlink:title="/home/travis/build\l/AliceO2Group/AliceO2\l/Steer/include/Steer/O2RunSim.h">
<polygon fill="none" stroke="black" points="2356,-312.5 2356,-353.5 2518,-353.5 2518,-312.5 2356,-312.5"/>
<text text-anchor="start" x="2364" y="-341.5" font-family="Helvetica,sans-Serif" font-size="10.00">/home/travis/build</text>
<text text-anchor="start" x="2364" y="-330.5" font-family="Helvetica,sans-Serif" font-size="10.00">/AliceO2Group/AliceO2</text>
<text text-anchor="middle" x="2437" y="-319.5" font-family="Helvetica,sans-Serif" font-size="10.00">/Steer/include/Steer/O2RunSim.h</text>
</a>
</g>
</g>
<!-- Node25&#45;&gt;Node26 -->
<g id="edge27" class="edge"><title>Node25&#45;&gt;Node26</title>
<path fill="none" stroke="midnightblue" d="M2323.79,-391.662C2347.62,-379.524 2376.06,-365.039 2398.47,-353.623"/>
<polygon fill="midnightblue" stroke="midnightblue" points="2321.89,-388.702 2314.56,-396.359 2325.06,-394.939 2321.89,-388.702"/>
</g>
<!-- Node29 -->
<g id="node29" class="node"><title>Node29</title>
<g id="a_node29"><a xlink:href="../../df/d3b/O2MCApplication_8cxx.html" target="_top" xlink:title="/home/travis/build\l/AliceO2Group/AliceO2\l/Steer/src/O2MCApplication.cxx">
<polygon fill="none" stroke="black" points="2180,-312.5 2180,-353.5 2338,-353.5 2338,-312.5 2180,-312.5"/>
<text text-anchor="start" x="2188" y="-341.5" font-family="Helvetica,sans-Serif" font-size="10.00">/home/travis/build</text>
<text text-anchor="start" x="2188" y="-330.5" font-family="Helvetica,sans-Serif" font-size="10.00">/AliceO2Group/AliceO2</text>
<text text-anchor="middle" x="2259" y="-319.5" font-family="Helvetica,sans-Serif" font-size="10.00">/Steer/src/O2MCApplication.cxx</text>
</a>
</g>
</g>
<!-- Node25&#45;&gt;Node29 -->
<g id="edge31" class="edge"><title>Node25&#45;&gt;Node29</title>
<path fill="none" stroke="midnightblue" d="M2269.83,-386.217C2267.58,-375.379 2265.1,-363.409 2263.08,-353.667"/>
<polygon fill="midnightblue" stroke="midnightblue" points="2266.43,-387.069 2271.88,-396.15 2273.28,-385.648 2266.43,-387.069"/>
</g>
<!-- Node27 -->
<g id="node27" class="node"><title>Node27</title>
<g id="a_node27"><a xlink:href="../../dc/d6b/o2sim_8C.html" target="_top" xlink:title="/home/travis/build\l/AliceO2Group/AliceO2\l/macro/o2sim.C">
<polygon fill="none" stroke="black" points="2348,-234.5 2348,-275.5 2466,-275.5 2466,-234.5 2348,-234.5"/>
<text text-anchor="start" x="2356" y="-263.5" font-family="Helvetica,sans-Serif" font-size="10.00">/home/travis/build</text>
<text text-anchor="start" x="2356" y="-252.5" font-family="Helvetica,sans-Serif" font-size="10.00">/AliceO2Group/AliceO2</text>
<text text-anchor="middle" x="2407" y="-241.5" font-family="Helvetica,sans-Serif" font-size="10.00">/macro/o2sim.C</text>
</a>
</g>
</g>
<!-- Node26&#45;&gt;Node27 -->
<g id="edge28" class="edge"><title>Node26&#45;&gt;Node27</title>
<path fill="none" stroke="midnightblue" d="M2425.51,-302.882C2421.89,-293.721 2417.99,-283.83 2414.7,-275.506"/>
<polygon fill="midnightblue" stroke="midnightblue" points="2422.35,-304.412 2429.27,-312.428 2428.86,-301.841 2422.35,-304.412"/>
</g>
<!-- Node27&#45;&gt;Node21 -->
<g id="edge29" class="edge"><title>Node27&#45;&gt;Node21</title>
<path fill="none" stroke="midnightblue" d="M2355.31,-230.189C2332.48,-219.675 2305.98,-207.469 2284.35,-197.506"/>
<polygon fill="midnightblue" stroke="midnightblue" points="2353.96,-233.423 2364.51,-234.428 2356.89,-227.065 2353.96,-233.423"/>
</g>
<!-- Node28 -->
<g id="node28" class="node"><title>Node28</title>
<g id="a_node28"><a xlink:href="../../d8/d07/o2sim_8cxx.html" target="_top" xlink:title="/home/travis/build\l/AliceO2Group/AliceO2\l/run/o2sim.cxx">
<polygon fill="none" stroke="black" points="2348,-156.5 2348,-197.5 2466,-197.5 2466,-156.5 2348,-156.5"/>
<text text-anchor="start" x="2356" y="-185.5" font-family="Helvetica,sans-Serif" font-size="10.00">/home/travis/build</text>
<text text-anchor="start" x="2356" y="-174.5" font-family="Helvetica,sans-Serif" font-size="10.00">/AliceO2Group/AliceO2</text>
<text text-anchor="middle" x="2407" y="-163.5" font-family="Helvetica,sans-Serif" font-size="10.00">/run/o2sim.cxx</text>
</a>
</g>
</g>
<!-- Node27&#45;&gt;Node28 -->
<g id="edge30" class="edge"><title>Node27&#45;&gt;Node28</title>
<path fill="none" stroke="midnightblue" d="M2407,-224.297C2407,-215.301 2407,-205.653 2407,-197.506"/>
<polygon fill="midnightblue" stroke="midnightblue" points="2403.5,-224.428 2407,-234.428 2410.5,-224.428 2403.5,-224.428"/>
</g>
</g>
</svg>
        <g id="navigator" transform="translate(0 0)" fill="#404254">
                <rect fill="#f2f5e9" fill-opacity="0.5" stroke="#606060" stroke-width=".5" x="0" y="0" width="60" height="60"/>
                <use id="zoomplus" xlink:href="#zoomPlus" x="17" y="9" onmousedown="handleZoom(evt,'in')"/>
                <use id="zoomminus" xlink:href="#zoomMin" x="42" y="9" onmousedown="handleZoom(evt,'out')"/>
                <use id="reset" xlink:href="#resetDef" x="30" y="36" onmousedown="handleReset()"/>
                <g id="arrowUp" xlink:href="#dirArrow" transform="translate(30 24)" onmousedown="handlePan(0,-1)">
                  <use xlink:href="#rim" fill="#404040">
                        <set attributeName="fill" to="#808080" begin="arrowUp.mouseover" end="arrowUp.mouseout"/>
                  </use>
                  <path fill="none" stroke="white" stroke-width="1.5" d="M0,-3.0v7 M-2.5,-0.5L0,-3.0L2.5,-0.5"/>
                </g>
                <g id="arrowRight" xlink:href="#dirArrow" transform="rotate(90) translate(36 -43)" onmousedown="handlePan(1,0)">
                  <use xlink:href="#rim" fill="#404040">
                        <set attributeName="fill" to="#808080" begin="arrowRight.mouseover" end="arrowRight.mouseout"/>
                  </use>
                  <path fill="none" stroke="white" stroke-width="1.5" d="M0,-3.0v7 M-2.5,-0.5L0,-3.0L2.5,-0.5"/>
                </g>
                <g id="arrowDown" xlink:href="#dirArrow" transform="rotate(180) translate(-30 -48)" onmousedown="handlePan(0,1)">
                  <use xlink:href="#rim" fill="#404040">
                        <set attributeName="fill" to="#808080" begin="arrowDown.mouseover" end="arrowDown.mouseout"/>
                  </use>
                  <path fill="none" stroke="white" stroke-width="1.5" d="M0,-3.0v7 M-2.5,-0.5L0,-3.0L2.5,-0.5"/>
                </g>
                <g id="arrowLeft" xlink:href="#dirArrow" transform="rotate(270) translate(-36 17)" onmousedown="handlePan(-1,0)">
                  <use xlink:href="#rim" fill="#404040">
                        <set attributeName="fill" to="#808080" begin="arrowLeft.mouseover" end="arrowLeft.mouseout"/>
                  </use>
                  <path fill="none" stroke="white" stroke-width="1.5" d="M0,-3.0v7 M-2.5,-0.5L0,-3.0L2.5,-0.5"/>
                </g>
        </g>
        <svg viewBox="0 0 15 15" width="100%" height="30px" preserveAspectRatio="xMaxYMin meet">
         <g id="arrow_out" transform="scale(0.3 0.3)">
          <a xlink:href="TrackReference_8h__dep__incl_org.svg" target="_base">
           <rect id="button" ry="5" rx="5" y="6" x="6" height="38" width="38"
                fill="#f2f5e9" fill-opacity="0.5" stroke="#606060" stroke-width="1.0"/>
           <path id="arrow"
             d="M 11.500037,31.436501 C 11.940474,20.09759 22.043105,11.32322 32.158766,21.979434 L 37.068811,17.246167 C 37.068811,17.246167 37.088388,32 37.088388,32 L 22.160133,31.978069 C 22.160133,31.978069 26.997745,27.140456 26.997745,27.140456 C 18.528582,18.264221 13.291696,25.230495 11.500037,31.436501 z"
             style="fill:#404040;"/>
          </a>
         </g>
        </svg>
</svg>
