<?xml version="1.0" encoding="UTF-8" standalone="no"?>
<!DOCTYPE svg PUBLIC "-//W3C//DTD SVG 1.1//EN"
 "http://www.w3.org/Graphics/SVG/1.1/DTD/svg11.dtd">
<!-- Generated by graphviz version 2.36.0 (20140111.2315)
 -->
<!-- Title: /home/travis/build/AliceO2Group/AliceO2/Generators/src/PrimaryGenerator.cxx Pages: 1 -->
<svg width="546pt" height="310pt"
 viewBox="0.00 0.00 546.00 310.00" xmlns="http://www.w3.org/2000/svg" xmlns:xlink="http://www.w3.org/1999/xlink">
<g id="graph0" class="graph" transform="scale(1 1) rotate(0) translate(4 306)">
<title>/home/travis/build/AliceO2Group/AliceO2/Generators/src/PrimaryGenerator.cxx</title>
<!-- Node1 -->
<g id="node1" class="node"><title>Node1</title>
<polygon fill="#bfbfbf" stroke="black" points="155,-260.5 155,-301.5 337,-301.5 337,-260.5 155,-260.5"/>
<text text-anchor="start" x="163" y="-289.5" font-family="Helvetica,sans-Serif" font-size="10.00">/home/travis/build</text>
<text text-anchor="start" x="163" y="-278.5" font-family="Helvetica,sans-Serif" font-size="10.00">/AliceO2Group/AliceO2</text>
<text text-anchor="middle" x="246" y="-267.5" font-family="Helvetica,sans-Serif" font-size="10.00">/Generators/src/PrimaryGenerator.cxx</text>
</g>
<!-- Node2 -->
<g id="node2" class="node"><title>Node2</title>
<g id="a_node2"><a xlink:href="../../d4/dd2/PrimaryGenerator_8h.html" target="_top" xlink:title="Generators/PrimaryGenerator.h">
<polygon fill="none" stroke="black" points="0,-198.5 0,-217.5 152,-217.5 152,-198.5 0,-198.5"/>
<text text-anchor="middle" x="76" y="-205.5" font-family="Helvetica,sans-Serif" font-size="10.00">Generators/PrimaryGenerator.h</text>
</a>
</g>
</g>
<!-- Node1&#45;&gt;Node2 -->
<g id="edge1" class="edge"><title>Node1&#45;&gt;Node2</title>
<path fill="none" stroke="midnightblue" d="M199.097,-260.411C169.293,-247.963 131.61,-232.225 105.837,-221.461"/>
<polygon fill="midnightblue" stroke="midnightblue" points="107.16,-218.221 96.584,-217.597 104.463,-224.68 107.16,-218.221"/>
</g>
<!-- Node4 -->
<g id="node4" class="node"><title>Node4</title>
<g id="a_node4"><a xlink:href="../../d8/d6a/InteractionDiamondParam_8h.html" target="_top" xlink:title="Generators/InteractionDiamond\lParam.h">
<polygon fill="none" stroke="black" points="170,-193 170,-223 322,-223 322,-193 170,-193"/>
<text text-anchor="start" x="178" y="-211" font-family="Helvetica,sans-Serif" font-size="10.00">Generators/InteractionDiamond</text>
<text text-anchor="middle" x="246" y="-200" font-family="Helvetica,sans-Serif" font-size="10.00">Param.h</text>
</a>
</g>
</g>
<!-- Node1&#45;&gt;Node4 -->
<g id="edge3" class="edge"><title>Node1&#45;&gt;Node4</title>
<path fill="none" stroke="midnightblue" d="M246,-260.223C246,-251.821 246,-241.948 246,-233.123"/>
<polygon fill="midnightblue" stroke="midnightblue" points="249.5,-233.048 246,-223.049 242.5,-233.049 249.5,-233.048"/>
</g>
<!-- Node14 -->
<g id="node14" class="node"><title>Node14</title>
<polygon fill="none" stroke="#bfbfbf" points="340.5,-198.5 340.5,-217.5 411.5,-217.5 411.5,-198.5 340.5,-198.5"/>
<text text-anchor="middle" x="376" y="-205.5" font-family="Helvetica,sans-Serif" font-size="10.00">FairLogger.h</text>
</g>
<!-- Node1&#45;&gt;Node14 -->
<g id="edge15" class="edge"><title>Node1&#45;&gt;Node14</title>
<path fill="none" stroke="midnightblue" d="M281.867,-260.411C303.956,-248.347 331.703,-233.193 351.335,-222.471"/>
<polygon fill="midnightblue" stroke="midnightblue" points="353.161,-225.462 360.259,-217.597 349.805,-219.318 353.161,-225.462"/>
</g>
<!-- Node3 -->
<g id="node3" class="node"><title>Node3</title>
<polygon fill="none" stroke="#bfbfbf" points="17,-130.5 17,-149.5 135,-149.5 135,-130.5 17,-130.5"/>
<text text-anchor="middle" x="76" y="-137.5" font-family="Helvetica,sans-Serif" font-size="10.00">FairPrimaryGenerator.h</text>
</g>
<!-- Node2&#45;&gt;Node3 -->
<g id="edge2" class="edge"><title>Node2&#45;&gt;Node3</title>
<path fill="none" stroke="midnightblue" d="M76,-198.372C76,-188.643 76,-172.528 76,-159.85"/>
<polygon fill="midnightblue" stroke="midnightblue" points="79.5001,-159.841 76,-149.841 72.5001,-159.841 79.5001,-159.841"/>
</g>
<!-- Node5 -->
<g id="node5" class="node"><title>Node5</title>
<g id="a_node5"><a xlink:href="../../db/d2c/ConfigurableParam_8h.html" target="_top" xlink:title="SimConfig/ConfigurableParam.h">
<polygon fill="none" stroke="black" points="123.5,-68.5 123.5,-87.5 280.5,-87.5 280.5,-68.5 123.5,-68.5"/>
<text text-anchor="middle" x="202" y="-75.5" font-family="Helvetica,sans-Serif" font-size="10.00">SimConfig/ConfigurableParam.h</text>
</a>
</g>
</g>
<!-- Node4&#45;&gt;Node5 -->
<g id="edge4" class="edge"><title>Node4&#45;&gt;Node5</title>
<path fill="none" stroke="midnightblue" d="M241.123,-192.813C233.096,-169.461 217.11,-122.957 208.259,-97.2094"/>
<polygon fill="midnightblue" stroke="midnightblue" points="211.508,-95.8929 204.947,-87.5738 204.888,-98.1685 211.508,-95.8929"/>
</g>
<!-- Node10 -->
<g id="node10" class="node"><title>Node10</title>
<g id="a_node10"><a xlink:href="../../da/d6b/ConfigurableParamHelper_8h.html" target="_top" xlink:title="SimConfig/ConfigurableParam\lHelper.h">
<polygon fill="none" stroke="black" points="262.5,-125 262.5,-155 411.5,-155 411.5,-125 262.5,-125"/>
<text text-anchor="start" x="270.5" y="-143" font-family="Helvetica,sans-Serif" font-size="10.00">SimConfig/ConfigurableParam</text>
<text text-anchor="middle" x="337" y="-132" font-family="Helvetica,sans-Serif" font-size="10.00">Helper.h</text>
</a>
</g>
</g>
<!-- Node4&#45;&gt;Node10 -->
<g id="edge9" class="edge"><title>Node4&#45;&gt;Node10</title>
<path fill="none" stroke="midnightblue" d="M265.746,-192.679C278.473,-183.449 295.208,-171.311 309.261,-161.118"/>
<polygon fill="midnightblue" stroke="midnightblue" points="311.565,-163.771 317.606,-155.066 307.456,-158.104 311.565,-163.771"/>
</g>
<!-- Node6 -->
<g id="node6" class="node"><title>Node6</title>
<polygon fill="none" stroke="#bfbfbf" points="49,-6.5 49,-25.5 93,-25.5 93,-6.5 49,-6.5"/>
<text text-anchor="middle" x="71" y="-13.5" font-family="Helvetica,sans-Serif" font-size="10.00">vector</text>
</g>
<!-- Node5&#45;&gt;Node6 -->
<g id="edge5" class="edge"><title>Node5&#45;&gt;Node6</title>
<path fill="none" stroke="midnightblue" d="M182.382,-68.3649C162.166,-59.4214 129.774,-44.9655 102,-32 100.646,-31.3677 99.2601,-30.7159 97.8625,-30.0544"/>
<polygon fill="midnightblue" stroke="midnightblue" points="99.1956,-26.8122 88.6644,-25.6521 96.1735,-33.1263 99.1956,-26.8122"/>
</g>
<!-- Node7 -->
<g id="node7" class="node"><title>Node7</title>
<polygon fill="none" stroke="#bfbfbf" points="111.5,-6.5 111.5,-25.5 146.5,-25.5 146.5,-6.5 111.5,-6.5"/>
<text text-anchor="middle" x="129" y="-13.5" font-family="Helvetica,sans-Serif" font-size="10.00">map</text>
</g>
<!-- Node5&#45;&gt;Node7 -->
<g id="edge6" class="edge"><title>Node5&#45;&gt;Node7</title>
<path fill="none" stroke="midnightblue" d="M191.541,-68.4035C180.049,-58.9579 161.37,-43.6056 147.413,-32.1342"/>
<polygon fill="midnightblue" stroke="midnightblue" points="149.388,-29.2264 139.44,-25.5806 144.943,-34.6342 149.388,-29.2264"/>
</g>
<!-- Node8 -->
<g id="node8" class="node"><title>Node8</title>
<polygon fill="none" stroke="#bfbfbf" points="164.5,-1 164.5,-31 265.5,-31 265.5,-1 164.5,-1"/>
<text text-anchor="start" x="172.5" y="-19" font-family="Helvetica,sans-Serif" font-size="10.00">boost/property_tree</text>
<text text-anchor="middle" x="215" y="-8" font-family="Helvetica,sans-Serif" font-size="10.00">/ptree.hpp</text>
</g>
<!-- Node5&#45;&gt;Node8 -->
<g id="edge7" class="edge"><title>Node5&#45;&gt;Node8</title>
<path fill="none" stroke="midnightblue" d="M203.863,-68.4035C205.409,-61.2646 207.687,-50.7517 209.78,-41.0903"/>
<polygon fill="midnightblue" stroke="midnightblue" points="213.239,-41.6552 211.936,-31.1408 206.398,-40.1729 213.239,-41.6552"/>
</g>
<!-- Node9 -->
<g id="node9" class="node"><title>Node9</title>
<polygon fill="none" stroke="#bfbfbf" points="283.5,-6.5 283.5,-25.5 334.5,-25.5 334.5,-6.5 283.5,-6.5"/>
<text text-anchor="middle" x="309" y="-13.5" font-family="Helvetica,sans-Serif" font-size="10.00">typeinfo</text>
</g>
<!-- Node5&#45;&gt;Node9 -->
<g id="edge8" class="edge"><title>Node5&#45;&gt;Node9</title>
<path fill="none" stroke="midnightblue" d="M217.33,-68.4035C234.97,-58.5123 264.16,-42.1442 284.858,-30.5378"/>
<polygon fill="midnightblue" stroke="midnightblue" points="286.688,-33.5244 293.698,-25.5806 283.264,-27.4188 286.688,-33.5244"/>
</g>
<!-- Node10&#45;&gt;Node5 -->
<g id="edge10" class="edge"><title>Node10&#45;&gt;Node5</title>
<path fill="none" stroke="midnightblue" d="M305.348,-124.933C282.776,-114.9 252.668,-101.519 230.775,-91.7888"/>
<polygon fill="midnightblue" stroke="midnightblue" points="231.91,-88.4631 221.35,-87.6 229.067,-94.8598 231.91,-88.4631"/>
</g>
<!-- Node10&#45;&gt;Node9 -->
<g id="edge13" class="edge"><title>Node10&#45;&gt;Node9</title>
<path fill="none" stroke="midnightblue" d="M333.678,-124.526C328.578,-102.303 318.823,-59.7982 313.226,-35.4136"/>
<polygon fill="midnightblue" stroke="midnightblue" points="316.627,-34.5865 310.979,-25.6228 309.805,-36.1524 316.627,-34.5865"/>
</g>
<!-- Node11 -->
<g id="node11" class="node"><title>Node11</title>
<polygon fill="none" stroke="#bfbfbf" points="337,-68.5 337,-87.5 393,-87.5 393,-68.5 337,-68.5"/>
<text text-anchor="middle" x="365" y="-75.5" font-family="Helvetica,sans-Serif" font-size="10.00">TClass.h</text>
</g>
<!-- Node10&#45;&gt;Node11 -->
<g id="edge11" class="edge"><title>Node10&#45;&gt;Node11</title>
<path fill="none" stroke="midnightblue" d="M343.636,-124.781C347.537,-116.422 352.504,-105.777 356.667,-96.8565"/>
<polygon fill="midnightblue" stroke="midnightblue" points="359.868,-98.2725 360.926,-87.7305 353.525,-95.3123 359.868,-98.2725"/>
</g>
<!-- Node12 -->
<g id="node12" class="node"><title>Node12</title>
<polygon fill="none" stroke="#bfbfbf" points="411,-68.5 411,-87.5 473,-87.5 473,-68.5 411,-68.5"/>
<text text-anchor="middle" x="442" y="-75.5" font-family="Helvetica,sans-Serif" font-size="10.00">type_traits</text>
</g>
<!-- Node10&#45;&gt;Node12 -->
<g id="edge12" class="edge"><title>Node10&#45;&gt;Node12</title>
<path fill="none" stroke="midnightblue" d="M361.618,-124.933C378.7,-115.171 401.33,-102.24 418.225,-92.5856"/>
<polygon fill="midnightblue" stroke="midnightblue" points="420.004,-95.6003 426.95,-87.6 416.531,-89.5226 420.004,-95.6003"/>
</g>
<!-- Node13 -->
<g id="node13" class="node"><title>Node13</title>
<polygon fill="none" stroke="#bfbfbf" points="491.5,-68.5 491.5,-87.5 538.5,-87.5 538.5,-68.5 491.5,-68.5"/>
<text text-anchor="middle" x="515" y="-75.5" font-family="Helvetica,sans-Serif" font-size="10.00">TFile.h</text>
</g>
<!-- Node10&#45;&gt;Node13 -->
<g id="edge14" class="edge"><title>Node10&#45;&gt;Node13</title>
<path fill="none" stroke="midnightblue" d="M378.733,-124.933C410.078,-114.367 452.441,-100.087 481.568,-90.2692"/>
<polygon fill="midnightblue" stroke="midnightblue" points="482.921,-93.5068 491.279,-86.9959 480.685,-86.8735 482.921,-93.5068"/>
</g>
</g>
</svg>
