<?xml version="1.0" encoding="UTF-8" standalone="no"?>
<!DOCTYPE svg PUBLIC "-//W3C//DTD SVG 1.1//EN"
 "http://www.w3.org/Graphics/SVG/1.1/DTD/svg11.dtd">
<!-- Generated by graphviz version 2.36.0 (20140111.2315)
 -->
<!-- Title: /home/travis/build/AliceO2Group/AliceO2/Detectors/EMCAL/simulation/include/EMCALSimulation/DigitizerTask.h Pages: 1 -->
<svg width="1861pt" height="446pt"
 viewBox="0.00 0.00 1861.24 446.00" xmlns="http://www.w3.org/2000/svg" xmlns:xlink="http://www.w3.org/1999/xlink">
<g id="graph0" class="graph" transform="scale(1 1) rotate(0) translate(4 442)">
<title>/home/travis/build/AliceO2Group/AliceO2/Detectors/EMCAL/simulation/include/EMCALSimulation/DigitizerTask.h</title>
<!-- Node1 -->
<g id="node1" class="node"><title>Node1</title>
<polygon fill="#bfbfbf" stroke="black" points="887.5,-385 887.5,-437 1090.5,-437 1090.5,-385 887.5,-385"/>
<text text-anchor="start" x="895.5" y="-425" font-family="Helvetica,sans-Serif" font-size="10.00">/home/travis/build</text>
<text text-anchor="start" x="895.5" y="-414" font-family="Helvetica,sans-Serif" font-size="10.00">/AliceO2Group/AliceO2</text>
<text text-anchor="start" x="895.5" y="-403" font-family="Helvetica,sans-Serif" font-size="10.00">/Detectors/EMCAL/simulation</text>
<text text-anchor="middle" x="989" y="-392" font-family="Helvetica,sans-Serif" font-size="10.00">/include/EMCALSimulation/DigitizerTask.h</text>
</g>
<!-- Node2 -->
<g id="node2" class="node"><title>Node2</title>
<polygon fill="none" stroke="#bfbfbf" points="836.5,-328.5 836.5,-347.5 879.5,-347.5 879.5,-328.5 836.5,-328.5"/>
<text text-anchor="middle" x="858" y="-335.5" font-family="Helvetica,sans-Serif" font-size="10.00">cstdio</text>
</g>
<!-- Node1&#45;&gt;Node2 -->
<g id="edge1" class="edge"><title>Node1&#45;&gt;Node2</title>
<path fill="none" stroke="midnightblue" d="M942.814,-384.968C922.74,-374.088 900.007,-361.767 883.133,-352.622"/>
<polygon fill="midnightblue" stroke="midnightblue" points="884.399,-349.327 873.939,-347.639 881.063,-355.481 884.399,-349.327"/>
</g>
<!-- Node3 -->
<g id="node3" class="node"><title>Node3</title>
<polygon fill="none" stroke="#bfbfbf" points="897.5,-328.5 897.5,-347.5 960.5,-347.5 960.5,-328.5 897.5,-328.5"/>
<text text-anchor="middle" x="929" y="-335.5" font-family="Helvetica,sans-Serif" font-size="10.00">FairTask.h</text>
</g>
<!-- Node1&#45;&gt;Node3 -->
<g id="edge2" class="edge"><title>Node1&#45;&gt;Node3</title>
<path fill="none" stroke="midnightblue" d="M967.677,-384.768C959.492,-375.083 950.364,-364.281 943.032,-355.605"/>
<polygon fill="midnightblue" stroke="midnightblue" points="945.528,-353.136 936.4,-347.757 940.182,-357.654 945.528,-353.136"/>
</g>
<!-- Node4 -->
<g id="node4" class="node"><title>Node4</title>
<polygon fill="none" stroke="#bfbfbf" points="1421,-74.5 1421,-93.5 1477,-93.5 1477,-74.5 1421,-74.5"/>
<text text-anchor="middle" x="1449" y="-81.5" font-family="Helvetica,sans-Serif" font-size="10.00">Rtypes.h</text>
</g>
<!-- Node1&#45;&gt;Node4 -->
<g id="edge3" class="edge"><title>Node1&#45;&gt;Node4</title>
<path fill="none" stroke="midnightblue" d="M1090.84,-405.48C1318.94,-393.997 1851,-359.06 1851,-283 1851,-283 1851,-283 1851,-219 1851,-181.157 1859.97,-161.491 1832,-136 1782.15,-90.5637 1574.25,-85.0413 1487.39,-84.7619"/>
<polygon fill="midnightblue" stroke="midnightblue" points="1487.18,-81.2618 1477.18,-84.7518 1487.17,-88.2618 1487.18,-81.2618"/>
</g>
<!-- Node5 -->
<g id="node5" class="node"><title>Node5</title>
<g id="a_node5"><a xlink:href="../../d5/d8b/EMCAL_2base_2include_2EMCALBase_2Hit_8h.html" target="_top" xlink:title="EMCALBase/Hit.h">
<polygon fill="none" stroke="black" points="659,-272.5 659,-291.5 757,-291.5 757,-272.5 659,-272.5"/>
<text text-anchor="middle" x="708" y="-279.5" font-family="Helvetica,sans-Serif" font-size="10.00">EMCALBase/Hit.h</text>
</a>
</g>
</g>
<!-- Node1&#45;&gt;Node5 -->
<g id="edge4" class="edge"><title>Node1&#45;&gt;Node5</title>
<path fill="none" stroke="midnightblue" d="M989.721,-384.917C988.823,-366.546 984.423,-342.401 969,-328 961.638,-321.125 842.032,-302.573 767.317,-291.554"/>
<polygon fill="midnightblue" stroke="midnightblue" points="767.491,-288.042 757.088,-290.051 766.473,-294.968 767.491,-288.042"/>
</g>
<!-- Node18 -->
<g id="node18" class="node"><title>Node18</title>
<g id="a_node18"><a xlink:href="../../d8/d19/EMCAL_2simulation_2include_2EMCALSimulation_2Digitizer_8h.html" target="_top" xlink:title="EMCALSimulation/Digitizer.h">
<polygon fill="none" stroke="black" points="1017,-328.5 1017,-347.5 1161,-347.5 1161,-328.5 1017,-328.5"/>
<text text-anchor="middle" x="1089" y="-335.5" font-family="Helvetica,sans-Serif" font-size="10.00">EMCALSimulation/Digitizer.h</text>
</a>
</g>
</g>
<!-- Node1&#45;&gt;Node18 -->
<g id="edge18" class="edge"><title>Node1&#45;&gt;Node18</title>
<path fill="none" stroke="midnightblue" d="M1024.26,-384.968C1038.92,-374.559 1055.43,-362.831 1068.12,-353.827"/>
<polygon fill="midnightblue" stroke="midnightblue" points="1070.46,-356.453 1076.59,-347.81 1066.41,-350.745 1070.46,-356.453"/>
</g>
<!-- Node6 -->
<g id="node6" class="node"><title>Node6</title>
<g id="a_node6"><a xlink:href="../../d4/d25/BaseHits_8h.html" target="_top" xlink:title="SimulationDataFormat\l/BaseHits.h">
<polygon fill="none" stroke="black" points="274,-205 274,-235 388,-235 388,-205 274,-205"/>
<text text-anchor="start" x="282" y="-223" font-family="Helvetica,sans-Serif" font-size="10.00">SimulationDataFormat</text>
<text text-anchor="middle" x="331" y="-212" font-family="Helvetica,sans-Serif" font-size="10.00">/BaseHits.h</text>
</a>
</g>
</g>
<!-- Node5&#45;&gt;Node6 -->
<g id="edge5" class="edge"><title>Node5&#45;&gt;Node6</title>
<path fill="none" stroke="midnightblue" d="M658.784,-275.111C599.345,-267.725 496.131,-254.029 398.244,-236.146"/>
<polygon fill="midnightblue" stroke="midnightblue" points="398.649,-232.662 388.18,-234.289 397.378,-239.545 398.649,-232.662"/>
</g>
<!-- Node7 -->
<g id="node7" class="node"><title>Node7</title>
<g id="a_node7"><a xlink:href="../../dd/d76/Cartesian3D_8h.html" target="_top" xlink:title="MathUtils/Cartesian3D.h">
<polygon fill="none" stroke="black" points="519.5,-142.5 519.5,-161.5 644.5,-161.5 644.5,-142.5 519.5,-142.5"/>
<text text-anchor="middle" x="582" y="-149.5" font-family="Helvetica,sans-Serif" font-size="10.00">MathUtils/Cartesian3D.h</text>
</a>
</g>
</g>
<!-- Node6&#45;&gt;Node7 -->
<g id="edge6" class="edge"><title>Node6&#45;&gt;Node7</title>
<path fill="none" stroke="midnightblue" d="M384.538,-204.922C430.923,-192.725 497.117,-175.32 539.826,-164.09"/>
<polygon fill="midnightblue" stroke="midnightblue" points="540.841,-167.442 549.622,-161.514 539.061,-160.672 540.841,-167.442"/>
</g>
<!-- Node7&#45;&gt;Node4 -->
<g id="edge12" class="edge"><title>Node7&#45;&gt;Node4</title>
<path fill="none" stroke="midnightblue" d="M644.784,-147.374C770.814,-139.923 1063.55,-121.751 1309,-100 1343.44,-96.9482 1382.55,-92.6902 1410.67,-89.4902"/>
<polygon fill="midnightblue" stroke="midnightblue" points="1411.34,-92.9366 1420.87,-88.3202 1410.54,-85.9822 1411.34,-92.9366"/>
</g>
<!-- Node8 -->
<g id="node8" class="node"><title>Node8</title>
<polygon fill="none" stroke="#bfbfbf" points="662.5,-69 662.5,-99 813.5,-99 813.5,-69 662.5,-69"/>
<text text-anchor="start" x="670.5" y="-87" font-family="Helvetica,sans-Serif" font-size="10.00">Math/GenVector/Displacement</text>
<text text-anchor="middle" x="738" y="-76" font-family="Helvetica,sans-Serif" font-size="10.00">Vector3D.h</text>
</g>
<!-- Node7&#45;&gt;Node8 -->
<g id="edge7" class="edge"><title>Node7&#45;&gt;Node8</title>
<path fill="none" stroke="midnightblue" d="M602.394,-142.372C625.869,-132.44 665.073,-115.854 695.307,-103.063"/>
<polygon fill="midnightblue" stroke="midnightblue" points="696.93,-106.176 704.776,-99.0562 694.203,-99.7293 696.93,-106.176"/>
</g>
<!-- Node9 -->
<g id="node9" class="node"><title>Node9</title>
<polygon fill="none" stroke="#bfbfbf" points="832,-74.5 832,-93.5 1008,-93.5 1008,-74.5 832,-74.5"/>
<text text-anchor="middle" x="920" y="-81.5" font-family="Helvetica,sans-Serif" font-size="10.00">Math/GenVector/PositionVector3D.h</text>
</g>
<!-- Node7&#45;&gt;Node9 -->
<g id="edge8" class="edge"><title>Node7&#45;&gt;Node9</title>
<path fill="none" stroke="midnightblue" d="M625.841,-142.439C687.515,-130.396 799.782,-108.475 866.358,-95.4745"/>
<polygon fill="midnightblue" stroke="midnightblue" points="867.093,-98.8972 876.237,-93.5455 865.751,-92.0269 867.093,-98.8972"/>
</g>
<!-- Node10 -->
<g id="node10" class="node"><title>Node10</title>
<polygon fill="none" stroke="#bfbfbf" points="-0.5,-74.5 -0.5,-93.5 148.5,-93.5 148.5,-74.5 -0.5,-74.5"/>
<text text-anchor="middle" x="74" y="-81.5" font-family="Helvetica,sans-Serif" font-size="10.00">Math/GenVector/Rotation3D.h</text>
</g>
<!-- Node7&#45;&gt;Node10 -->
<g id="edge9" class="edge"><title>Node7&#45;&gt;Node10</title>
<path fill="none" stroke="midnightblue" d="M519.348,-144.593C436.479,-135.861 285.959,-119.105 158,-100 148.648,-98.6037 138.738,-96.9713 129.129,-95.3072"/>
<polygon fill="midnightblue" stroke="midnightblue" points="129.716,-91.8567 119.26,-93.5701 128.502,-98.7508 129.716,-91.8567"/>
</g>
<!-- Node11 -->
<g id="node11" class="node"><title>Node11</title>
<polygon fill="none" stroke="#bfbfbf" points="167,-74.5 167,-93.5 323,-93.5 323,-74.5 167,-74.5"/>
<text text-anchor="middle" x="245" y="-81.5" font-family="Helvetica,sans-Serif" font-size="10.00">Math/GenVector/Transform3D.h</text>
</g>
<!-- Node7&#45;&gt;Node11 -->
<g id="edge10" class="edge"><title>Node7&#45;&gt;Node11</title>
<path fill="none" stroke="midnightblue" d="M538.289,-142.439C476.797,-130.396 364.863,-108.475 298.483,-95.4745"/>
<polygon fill="midnightblue" stroke="midnightblue" points="299.12,-92.0328 288.634,-93.5455 297.775,-98.9023 299.12,-92.0328"/>
</g>
<!-- Node12 -->
<g id="node12" class="node"><title>Node12</title>
<polygon fill="none" stroke="#bfbfbf" points="341,-74.5 341,-93.5 501,-93.5 501,-74.5 341,-74.5"/>
<text text-anchor="middle" x="421" y="-81.5" font-family="Helvetica,sans-Serif" font-size="10.00">Math/GenVector/Translation3D.h</text>
</g>
<!-- Node7&#45;&gt;Node12 -->
<g id="edge11" class="edge"><title>Node7&#45;&gt;Node12</title>
<path fill="none" stroke="midnightblue" d="M560.952,-142.372C532.912,-130.877 483.128,-110.469 451.118,-97.3465"/>
<polygon fill="midnightblue" stroke="midnightblue" points="452.378,-94.0805 441.798,-93.5259 449.723,-100.557 452.378,-94.0805"/>
</g>
<!-- Node13 -->
<g id="node13" class="node"><title>Node13</title>
<polygon fill="none" stroke="#bfbfbf" points="1026,-74.5 1026,-93.5 1102,-93.5 1102,-74.5 1026,-74.5"/>
<text text-anchor="middle" x="1064" y="-81.5" font-family="Helvetica,sans-Serif" font-size="10.00">TGeoMatrix.h</text>
</g>
<!-- Node7&#45;&gt;Node13 -->
<g id="edge13" class="edge"><title>Node7&#45;&gt;Node13</title>
<path fill="none" stroke="midnightblue" d="M644.762,-147.298C729.691,-141.457 885.593,-127.786 1016,-100 1020.54,-99.0323 1025.27,-97.8192 1029.91,-96.5045"/>
<polygon fill="midnightblue" stroke="midnightblue" points="1031.25,-99.7556 1039.81,-93.5198 1029.23,-93.0531 1031.25,-99.7556"/>
</g>
<!-- Node14 -->
<g id="node14" class="node"><title>Node14</title>
<polygon fill="none" stroke="#bfbfbf" points="1255.5,-74.5 1255.5,-93.5 1300.5,-93.5 1300.5,-74.5 1255.5,-74.5"/>
<text text-anchor="middle" x="1278" y="-81.5" font-family="Helvetica,sans-Serif" font-size="10.00">iosfwd</text>
</g>
<!-- Node7&#45;&gt;Node14 -->
<g id="edge14" class="edge"><title>Node7&#45;&gt;Node14</title>
<path fill="none" stroke="midnightblue" d="M644.685,-145.056C788.263,-131.441 1136.91,-98.3794 1245.29,-88.1015"/>
<polygon fill="midnightblue" stroke="midnightblue" points="1245.68,-91.5806 1255.3,-87.1521 1245.02,-84.6119 1245.68,-91.5806"/>
</g>
<!-- Node15 -->
<g id="node15" class="node"><title>Node15</title>
<g id="a_node15"><a xlink:href="../../d2/dd0/Cartesian2D_8h.html" target="_top" xlink:title="MathUtils/Cartesian2D.h">
<polygon fill="none" stroke="black" points="519.5,-74.5 519.5,-93.5 644.5,-93.5 644.5,-74.5 519.5,-74.5"/>
<text text-anchor="middle" x="582" y="-81.5" font-family="Helvetica,sans-Serif" font-size="10.00">MathUtils/Cartesian2D.h</text>
</a>
</g>
</g>
<!-- Node7&#45;&gt;Node15 -->
<g id="edge15" class="edge"><title>Node7&#45;&gt;Node15</title>
<path fill="none" stroke="midnightblue" d="M582,-142.372C582,-132.643 582,-116.528 582,-103.85"/>
<polygon fill="midnightblue" stroke="midnightblue" points="585.5,-103.841 582,-93.8411 578.5,-103.841 585.5,-103.841"/>
</g>
<!-- Node16 -->
<g id="node16" class="node"><title>Node16</title>
<polygon fill="none" stroke="#bfbfbf" points="415.5,-1 415.5,-31 566.5,-31 566.5,-1 415.5,-1"/>
<text text-anchor="start" x="423.5" y="-19" font-family="Helvetica,sans-Serif" font-size="10.00">Math/GenVector/Displacement</text>
<text text-anchor="middle" x="491" y="-8" font-family="Helvetica,sans-Serif" font-size="10.00">Vector2D.h</text>
</g>
<!-- Node15&#45;&gt;Node16 -->
<g id="edge16" class="edge"><title>Node15&#45;&gt;Node16</title>
<path fill="none" stroke="midnightblue" d="M570.103,-74.3717C557.221,-65.0286 536.22,-49.7966 519.093,-37.375"/>
<polygon fill="midnightblue" stroke="midnightblue" points="520.703,-34.2194 510.553,-31.1815 516.593,-39.8859 520.703,-34.2194"/>
</g>
<!-- Node17 -->
<g id="node17" class="node"><title>Node17</title>
<polygon fill="none" stroke="#bfbfbf" points="585,-6.5 585,-25.5 761,-25.5 761,-6.5 585,-6.5"/>
<text text-anchor="middle" x="673" y="-13.5" font-family="Helvetica,sans-Serif" font-size="10.00">Math/GenVector/PositionVector2D.h</text>
</g>
<!-- Node15&#45;&gt;Node17 -->
<g id="edge17" class="edge"><title>Node15&#45;&gt;Node17</title>
<path fill="none" stroke="midnightblue" d="M593.897,-74.3717C608.884,-63.5015 634.862,-44.6602 652.942,-31.5474"/>
<polygon fill="midnightblue" stroke="midnightblue" points="655.06,-34.3349 661.1,-25.6305 650.95,-28.6684 655.06,-34.3349"/>
</g>
<!-- Node18&#45;&gt;Node4 -->
<g id="edge23" class="edge"><title>Node18&#45;&gt;Node4</title>
<path fill="none" stroke="midnightblue" d="M1161.01,-335.643C1209.06,-331.823 1271.99,-320.982 1320,-292 1392.88,-248.004 1430.85,-145.453 1443.79,-103.445"/>
<polygon fill="midnightblue" stroke="midnightblue" points="1447.19,-104.301 1446.67,-93.7188 1440.48,-102.315 1447.19,-104.301"/>
</g>
<!-- Node18&#45;&gt;Node5 -->
<g id="edge48" class="edge"><title>Node18&#45;&gt;Node5</title>
<path fill="none" stroke="midnightblue" d="M1028.63,-328.481C964.658,-319.449 860.705,-304.755 771,-292 769.739,-291.821 768.463,-291.639 767.177,-291.456"/>
<polygon fill="midnightblue" stroke="midnightblue" points="767.574,-287.977 757.18,-290.032 766.586,-294.907 767.574,-287.977"/>
</g>
<!-- Node19 -->
<g id="node19" class="node"><title>Node19</title>
<polygon fill="none" stroke="#bfbfbf" points="1020,-272.5 1020,-291.5 1072,-291.5 1072,-272.5 1020,-272.5"/>
<text text-anchor="middle" x="1046" y="-279.5" font-family="Helvetica,sans-Serif" font-size="10.00">memory</text>
</g>
<!-- Node18&#45;&gt;Node19 -->
<g id="edge19" class="edge"><title>Node18&#45;&gt;Node19</title>
<path fill="none" stroke="midnightblue" d="M1081.9,-328.083C1075.76,-320.377 1066.73,-309.033 1059.26,-299.653"/>
<polygon fill="midnightblue" stroke="midnightblue" points="1061.94,-297.394 1052.97,-291.751 1056.46,-301.754 1061.94,-297.394"/>
</g>
<!-- Node20 -->
<g id="node20" class="node"><title>Node20</title>
<polygon fill="none" stroke="#bfbfbf" points="1090.5,-272.5 1090.5,-291.5 1173.5,-291.5 1173.5,-272.5 1090.5,-272.5"/>
<text text-anchor="middle" x="1132" y="-279.5" font-family="Helvetica,sans-Serif" font-size="10.00">unordered_map</text>
</g>
<!-- Node18&#45;&gt;Node20 -->
<g id="edge20" class="edge"><title>Node18&#45;&gt;Node20</title>
<path fill="none" stroke="midnightblue" d="M1096.1,-328.083C1102.24,-320.377 1111.27,-309.033 1118.74,-299.653"/>
<polygon fill="midnightblue" stroke="midnightblue" points="1121.54,-301.754 1125.03,-291.751 1116.06,-297.394 1121.54,-301.754"/>
</g>
<!-- Node21 -->
<g id="node21" class="node"><title>Node21</title>
<polygon fill="none" stroke="#bfbfbf" points="406,-210.5 406,-229.5 450,-229.5 450,-210.5 406,-210.5"/>
<text text-anchor="middle" x="428" y="-217.5" font-family="Helvetica,sans-Serif" font-size="10.00">vector</text>
</g>
<!-- Node18&#45;&gt;Node21 -->
<g id="edge21" class="edge"><title>Node18&#45;&gt;Node21</title>
<path fill="none" stroke="midnightblue" d="M1018.53,-328.468C947.421,-319.394 842.754,-304.638 804,-292 785.48,-285.961 783.603,-277.777 765,-272 645.596,-234.922 608.761,-259.699 486,-236 477.506,-234.36 468.408,-232.202 459.996,-230.036"/>
<polygon fill="midnightblue" stroke="midnightblue" points="460.725,-226.609 450.161,-227.424 458.928,-233.374 460.725,-226.609"/>
</g>
<!-- Node22 -->
<g id="node22" class="node"><title>Node22</title>
<polygon fill="none" stroke="#bfbfbf" points="1191.5,-272.5 1191.5,-291.5 1234.5,-291.5 1234.5,-272.5 1191.5,-272.5"/>
<text text-anchor="middle" x="1213" y="-279.5" font-family="Helvetica,sans-Serif" font-size="10.00">deque</text>
</g>
<!-- Node18&#45;&gt;Node22 -->
<g id="edge22" class="edge"><title>Node18&#45;&gt;Node22</title>
<path fill="none" stroke="midnightblue" d="M1108.65,-328.444C1128.96,-319.596 1160.9,-305.687 1184.1,-295.586"/>
<polygon fill="midnightblue" stroke="midnightblue" points="1185.67,-298.718 1193.44,-291.516 1182.88,-292.3 1185.67,-298.718"/>
</g>
<!-- Node23 -->
<g id="node23" class="node"><title>Node23</title>
<polygon fill="none" stroke="#bfbfbf" points="1252.5,-272.5 1252.5,-291.5 1311.5,-291.5 1311.5,-272.5 1252.5,-272.5"/>
<text text-anchor="middle" x="1282" y="-279.5" font-family="Helvetica,sans-Serif" font-size="10.00">TObject.h</text>
</g>
<!-- Node18&#45;&gt;Node23 -->
<g id="edge24" class="edge"><title>Node18&#45;&gt;Node23</title>
<path fill="none" stroke="midnightblue" d="M1119.58,-328.444C1152.81,-319.147 1206.01,-304.262 1242.41,-294.078"/>
<polygon fill="midnightblue" stroke="midnightblue" points="1243.51,-297.404 1252.2,-291.339 1241.62,-290.663 1243.51,-297.404"/>
</g>
<!-- Node24 -->
<g id="node24" class="node"><title>Node24</title>
<g id="a_node24"><a xlink:href="../../dd/dc7/EMCAL_2base_2include_2EMCALBase_2Digit_8h.html" target="_top" xlink:title="EMCALBase/Digit.h">
<polygon fill="none" stroke="black" points="1424.5,-210.5 1424.5,-229.5 1529.5,-229.5 1529.5,-210.5 1424.5,-210.5"/>
<text text-anchor="middle" x="1477" y="-217.5" font-family="Helvetica,sans-Serif" font-size="10.00">EMCALBase/Digit.h</text>
</a>
</g>
</g>
<!-- Node18&#45;&gt;Node24 -->
<g id="edge25" class="edge"><title>Node18&#45;&gt;Node24</title>
<path fill="none" stroke="midnightblue" d="M1161.17,-331.436C1239.24,-324.556 1358.06,-311.337 1399,-292 1425.79,-279.345 1449.87,-254.326 1463.97,-237.626"/>
<polygon fill="midnightblue" stroke="midnightblue" points="1466.78,-239.72 1470.39,-229.761 1461.36,-235.293 1466.78,-239.72"/>
</g>
<!-- Node28 -->
<g id="node28" class="node"><title>Node28</title>
<g id="a_node28"><a xlink:href="../../dd/da8/EMCAL_2base_2include_2EMCALBase_2Geometry_8h.html" target="_top" xlink:title="EMCALBase/Geometry.h">
<polygon fill="none" stroke="black" points="813,-272.5 813,-291.5 941,-291.5 941,-272.5 813,-272.5"/>
<text text-anchor="middle" x="877" y="-279.5" font-family="Helvetica,sans-Serif" font-size="10.00">EMCALBase/Geometry.h</text>
</a>
</g>
</g>
<!-- Node18&#45;&gt;Node28 -->
<g id="edge32" class="edge"><title>Node18&#45;&gt;Node28</title>
<path fill="none" stroke="midnightblue" d="M1055.41,-328.444C1018.81,-319.122 960.162,-304.183 920.174,-293.997"/>
<polygon fill="midnightblue" stroke="midnightblue" points="920.989,-290.593 910.435,-291.516 919.261,-297.377 920.989,-290.593"/>
</g>
<!-- Node37 -->
<g id="node37" class="node"><title>Node37</title>
<g id="a_node37"><a xlink:href="../../d5/d5e/GeometryBase_8h.html" target="_top" xlink:title="EMCALBase/GeometryBase.h">
<polygon fill="none" stroke="black" points="1207,-210.5 1207,-229.5 1357,-229.5 1357,-210.5 1207,-210.5"/>
<text text-anchor="middle" x="1282" y="-217.5" font-family="Helvetica,sans-Serif" font-size="10.00">EMCALBase/GeometryBase.h</text>
</a>
</g>
</g>
<!-- Node18&#45;&gt;Node37 -->
<g id="edge47" class="edge"><title>Node18&#45;&gt;Node37</title>
<path fill="none" stroke="midnightblue" d="M1063.84,-328.434C1034.24,-317.029 991.476,-295.541 1011,-272 1012.71,-269.934 1145.18,-245.706 1224.25,-231.401"/>
<polygon fill="midnightblue" stroke="midnightblue" points="1225.34,-234.76 1234.56,-229.537 1224.1,-227.871 1225.34,-234.76"/>
</g>
<!-- Node24&#45;&gt;Node4 -->
<g id="edge28" class="edge"><title>Node24&#45;&gt;Node4</title>
<path fill="none" stroke="midnightblue" d="M1475.16,-210.208C1470.67,-188.722 1459.06,-133.167 1452.93,-103.814"/>
<polygon fill="midnightblue" stroke="midnightblue" points="1456.28,-102.723 1450.81,-93.6503 1449.43,-104.155 1456.28,-102.723"/>
</g>
<!-- Node24&#45;&gt;Node14 -->
<g id="edge26" class="edge"><title>Node24&#45;&gt;Node14</title>
<path fill="none" stroke="midnightblue" d="M1464.25,-210.414C1430.83,-187.912 1340.45,-127.055 1299.13,-99.2301"/>
<polygon fill="midnightblue" stroke="midnightblue" points="1300.89,-96.1969 1290.64,-93.5146 1296.98,-102.003 1300.89,-96.1969"/>
</g>
<!-- Node25 -->
<g id="node25" class="node"><title>Node25</title>
<polygon fill="none" stroke="#bfbfbf" points="1477,-142.5 1477,-161.5 1521,-161.5 1521,-142.5 1477,-142.5"/>
<text text-anchor="middle" x="1499" y="-149.5" font-family="Helvetica,sans-Serif" font-size="10.00">cmath</text>
</g>
<!-- Node24&#45;&gt;Node25 -->
<g id="edge27" class="edge"><title>Node24&#45;&gt;Node25</title>
<path fill="none" stroke="midnightblue" d="M1479.88,-210.372C1483.15,-200.544 1488.6,-184.202 1492.84,-171.467"/>
<polygon fill="midnightblue" stroke="midnightblue" points="1496.21,-172.435 1496.05,-161.841 1489.57,-170.221 1496.21,-172.435"/>
</g>
<!-- Node26 -->
<g id="node26" class="node"><title>Node26</title>
<g id="a_node26"><a xlink:href="../../df/d5d/common_2include_2CommonDataFormat_2TimeStamp_8h.html" target="_top" xlink:title="CommonDataFormat/TimeStamp.h">
<polygon fill="none" stroke="black" points="1653,-142.5 1653,-161.5 1823,-161.5 1823,-142.5 1653,-142.5"/>
<text text-anchor="middle" x="1738" y="-149.5" font-family="Helvetica,sans-Serif" font-size="10.00">CommonDataFormat/TimeStamp.h</text>
</a>
</g>
</g>
<!-- Node24&#45;&gt;Node26 -->
<g id="edge29" class="edge"><title>Node24&#45;&gt;Node26</title>
<path fill="none" stroke="midnightblue" d="M1510.85,-210.439C1557.79,-198.57 1642.68,-177.103 1694.34,-164.041"/>
<polygon fill="midnightblue" stroke="midnightblue" points="1695.37,-167.39 1704.21,-161.546 1693.65,-160.604 1695.37,-167.39"/>
</g>
<!-- Node27 -->
<g id="node27" class="node"><title>Node27</title>
<polygon fill="none" stroke="#bfbfbf" points="1539.5,-137 1539.5,-167 1634.5,-167 1634.5,-137 1539.5,-137"/>
<text text-anchor="start" x="1547.5" y="-155" font-family="Helvetica,sans-Serif" font-size="10.00">boost/serialization</text>
<text text-anchor="middle" x="1587" y="-144" font-family="Helvetica,sans-Serif" font-size="10.00">/base_object.hpp</text>
</g>
<!-- Node24&#45;&gt;Node27 -->
<g id="edge31" class="edge"><title>Node24&#45;&gt;Node27</title>
<path fill="none" stroke="midnightblue" d="M1491.38,-210.372C1507.38,-200.771 1533.74,-184.954 1554.74,-172.356"/>
<polygon fill="midnightblue" stroke="midnightblue" points="1556.59,-175.328 1563.36,-167.181 1552.99,-169.325 1556.59,-175.328"/>
</g>
<!-- Node26&#45;&gt;Node4 -->
<g id="edge30" class="edge"><title>Node26&#45;&gt;Node4</title>
<path fill="none" stroke="midnightblue" d="M1700.51,-142.439C1645.3,-129.831 1542.67,-106.393 1487.11,-93.7029"/>
<polygon fill="midnightblue" stroke="midnightblue" points="1487.83,-90.278 1477.3,-91.4636 1486.27,-97.1023 1487.83,-90.278"/>
</g>
<!-- Node28&#45;&gt;Node7 -->
<g id="edge46" class="edge"><title>Node28&#45;&gt;Node7</title>
<path fill="none" stroke="midnightblue" d="M812.672,-273.517C704.464,-260.911 497.652,-236.733 497,-236 487.553,-225.368 489.993,-216.376 497,-204 507.231,-185.931 526.699,-173.565 544.425,-165.541"/>
<polygon fill="midnightblue" stroke="midnightblue" points="546.152,-168.612 554.024,-161.521 543.448,-162.155 546.152,-168.612"/>
</g>
<!-- Node28&#45;&gt;Node13 -->
<g id="edge38" class="edge"><title>Node28&#45;&gt;Node13</title>
<path fill="none" stroke="midnightblue" d="M934.937,-272.494C977.547,-264.998 1030.46,-252.67 1045,-236 1077.48,-198.754 1072.64,-135.333 1067.68,-103.864"/>
<polygon fill="midnightblue" stroke="midnightblue" points="1071.09,-103.066 1065.91,-93.8234 1064.2,-104.278 1071.09,-103.066"/>
</g>
<!-- Node28&#45;&gt;Node21 -->
<g id="edge36" class="edge"><title>Node28&#45;&gt;Node21</title>
<path fill="none" stroke="midnightblue" d="M812.731,-273.544C808.085,-273.017 803.471,-272.498 799,-272 650.175,-255.418 609.057,-273.181 464,-236 461.014,-235.235 457.951,-234.267 454.933,-233.193"/>
<polygon fill="midnightblue" stroke="midnightblue" points="456.184,-229.924 445.597,-229.519 453.621,-236.438 456.184,-229.924"/>
</g>
<!-- Node29 -->
<g id="node29" class="node"><title>Node29</title>
<polygon fill="none" stroke="#bfbfbf" points="1130.5,-210.5 1130.5,-229.5 1189.5,-229.5 1189.5,-210.5 1130.5,-210.5"/>
<text text-anchor="middle" x="1160" y="-217.5" font-family="Helvetica,sans-Serif" font-size="10.00">exception</text>
</g>
<!-- Node28&#45;&gt;Node29 -->
<g id="edge33" class="edge"><title>Node28&#45;&gt;Node29</title>
<path fill="none" stroke="midnightblue" d="M934.98,-272.456C983.702,-264.713 1054.96,-252.064 1116,-236 1119.65,-235.04 1123.43,-233.93 1127.18,-232.757"/>
<polygon fill="midnightblue" stroke="midnightblue" points="1128.49,-236.012 1136.9,-229.566 1126.3,-229.361 1128.49,-236.012"/>
</g>
<!-- Node30 -->
<g id="node30" class="node"><title>Node30</title>
<polygon fill="none" stroke="#bfbfbf" points="1144.5,-142.5 1144.5,-161.5 1185.5,-161.5 1185.5,-142.5 1144.5,-142.5"/>
<text text-anchor="middle" x="1165" y="-149.5" font-family="Helvetica,sans-Serif" font-size="10.00">string</text>
</g>
<!-- Node28&#45;&gt;Node30 -->
<g id="edge34" class="edge"><title>Node28&#45;&gt;Node30</title>
<path fill="none" stroke="midnightblue" d="M941.19,-275.539C982.257,-269.95 1035.59,-258.681 1078,-236 1108.99,-219.429 1136.84,-188.761 1152.28,-169.702"/>
<polygon fill="midnightblue" stroke="midnightblue" points="1155.21,-171.643 1158.65,-161.622 1149.71,-167.311 1155.21,-171.643"/>
</g>
<!-- Node31 -->
<g id="node31" class="node"><title>Node31</title>
<polygon fill="none" stroke="#bfbfbf" points="506,-210.5 506,-229.5 544,-229.5 544,-210.5 506,-210.5"/>
<text text-anchor="middle" x="525" y="-217.5" font-family="Helvetica,sans-Serif" font-size="10.00">tuple</text>
</g>
<!-- Node28&#45;&gt;Node31 -->
<g id="edge35" class="edge"><title>Node28&#45;&gt;Node31</title>
<path fill="none" stroke="midnightblue" d="M812.889,-273.327C725.527,-262.683 577.13,-243.86 553,-236 551.342,-235.46 549.666,-234.824 548.002,-234.125"/>
<polygon fill="midnightblue" stroke="midnightblue" points="549.334,-230.88 538.811,-229.646 546.267,-237.173 549.334,-230.88"/>
</g>
<!-- Node32 -->
<g id="node32" class="node"><title>Node32</title>
<polygon fill="none" stroke="#bfbfbf" points="562,-210.5 562,-229.5 642,-229.5 642,-210.5 562,-210.5"/>
<text text-anchor="middle" x="602" y="-217.5" font-family="Helvetica,sans-Serif" font-size="10.00">RStringView.h</text>
</g>
<!-- Node28&#45;&gt;Node32 -->
<g id="edge37" class="edge"><title>Node28&#45;&gt;Node32</title>
<path fill="none" stroke="midnightblue" d="M826.409,-272.43C780.392,-264.279 710.743,-251.052 651,-236 646.661,-234.907 642.135,-233.664 637.664,-232.373"/>
<polygon fill="midnightblue" stroke="midnightblue" points="638.639,-229.012 628.056,-229.508 636.639,-235.72 638.639,-229.012"/>
</g>
<!-- Node33 -->
<g id="node33" class="node"><title>Node33</title>
<polygon fill="none" stroke="#bfbfbf" points="660,-210.5 660,-229.5 722,-229.5 722,-210.5 660,-210.5"/>
<text text-anchor="middle" x="691" y="-217.5" font-family="Helvetica,sans-Serif" font-size="10.00">TNamed.h</text>
</g>
<!-- Node28&#45;&gt;Node33 -->
<g id="edge39" class="edge"><title>Node28&#45;&gt;Node33</title>
<path fill="none" stroke="midnightblue" d="M847.471,-272.463C817.86,-263.77 771.038,-249.664 731,-236 728.392,-235.11 725.698,-234.162 722.999,-233.192"/>
<polygon fill="midnightblue" stroke="midnightblue" points="723.934,-229.807 713.34,-229.647 721.521,-236.378 723.934,-229.807"/>
</g>
<!-- Node34 -->
<g id="node34" class="node"><title>Node34</title>
<polygon fill="none" stroke="#bfbfbf" points="740,-210.5 740,-229.5 804,-229.5 804,-210.5 740,-210.5"/>
<text text-anchor="middle" x="772" y="-217.5" font-family="Helvetica,sans-Serif" font-size="10.00">TParticle.h</text>
</g>
<!-- Node28&#45;&gt;Node34 -->
<g id="edge40" class="edge"><title>Node28&#45;&gt;Node34</title>
<path fill="none" stroke="midnightblue" d="M861.956,-272.403C844.725,-262.557 816.26,-246.291 795.966,-234.695"/>
<polygon fill="midnightblue" stroke="midnightblue" points="797.435,-231.503 787.016,-229.581 793.962,-237.581 797.435,-231.503"/>
</g>
<!-- Node35 -->
<g id="node35" class="node"><title>Node35</title>
<polygon fill="none" stroke="#bfbfbf" points="822.5,-210.5 822.5,-229.5 887.5,-229.5 887.5,-210.5 822.5,-210.5"/>
<text text-anchor="middle" x="855" y="-217.5" font-family="Helvetica,sans-Serif" font-size="10.00">TVector3.h</text>
</g>
<!-- Node28&#45;&gt;Node35 -->
<g id="edge41" class="edge"><title>Node28&#45;&gt;Node35</title>
<path fill="none" stroke="midnightblue" d="M873.848,-272.403C870.679,-263.76 865.696,-250.17 861.649,-239.134"/>
<polygon fill="midnightblue" stroke="midnightblue" points="864.875,-237.764 858.146,-229.581 858.303,-240.174 864.875,-237.764"/>
</g>
<!-- Node36 -->
<g id="node36" class="node"><title>Node36</title>
<g id="a_node36"><a xlink:href="../../d4/d82/Detectors_2EMCAL_2base_2include_2EMCALBase_2Constants_8h.html" target="_top" xlink:title="EMCALBase/Constants.h">
<polygon fill="none" stroke="black" points="906,-210.5 906,-229.5 1036,-229.5 1036,-210.5 906,-210.5"/>
<text text-anchor="middle" x="971" y="-217.5" font-family="Helvetica,sans-Serif" font-size="10.00">EMCALBase/Constants.h</text>
</a>
</g>
</g>
<!-- Node28&#45;&gt;Node36 -->
<g id="edge42" class="edge"><title>Node28&#45;&gt;Node36</title>
<path fill="none" stroke="midnightblue" d="M890.468,-272.403C905.685,-262.691 930.687,-246.732 948.801,-235.17"/>
<polygon fill="midnightblue" stroke="midnightblue" points="951.011,-237.911 957.557,-229.581 947.245,-232.011 951.011,-237.911"/>
</g>
<!-- Node28&#45;&gt;Node37 -->
<g id="edge43" class="edge"><title>Node28&#45;&gt;Node37</title>
<path fill="none" stroke="midnightblue" d="M941.054,-272.738C1005.92,-264.203 1109.08,-250.166 1198,-236 1207.02,-234.562 1216.58,-232.946 1225.88,-231.322"/>
<polygon fill="midnightblue" stroke="midnightblue" points="1226.6,-234.749 1235.84,-229.563 1225.38,-227.855 1226.6,-234.749"/>
</g>
<!-- Node37&#45;&gt;Node30 -->
<g id="edge45" class="edge"><title>Node37&#45;&gt;Node30</title>
<path fill="none" stroke="midnightblue" d="M1266.7,-210.372C1247,-199.254 1212.51,-179.8 1189.22,-166.662"/>
<polygon fill="midnightblue" stroke="midnightblue" points="1190.73,-163.495 1180.3,-161.63 1187.29,-169.592 1190.73,-163.495"/>
</g>
<!-- Node38 -->
<g id="node38" class="node"><title>Node38</title>
<polygon fill="none" stroke="#bfbfbf" points="1256,-142.5 1256,-161.5 1308,-161.5 1308,-142.5 1256,-142.5"/>
<text text-anchor="middle" x="1282" y="-149.5" font-family="Helvetica,sans-Serif" font-size="10.00">sstream</text>
</g>
<!-- Node37&#45;&gt;Node38 -->
<g id="edge44" class="edge"><title>Node37&#45;&gt;Node38</title>
<path fill="none" stroke="midnightblue" d="M1282,-210.372C1282,-200.643 1282,-184.528 1282,-171.85"/>
<polygon fill="midnightblue" stroke="midnightblue" points="1285.5,-171.841 1282,-161.841 1278.5,-171.841 1285.5,-171.841"/>
</g>
</g>
</svg>
