<?xml version="1.0" encoding="UTF-8" standalone="no"?>
<!DOCTYPE svg PUBLIC "-//W3C//DTD SVG 1.1//EN"
 "http://www.w3.org/Graphics/SVG/1.1/DTD/svg11.dtd">
<!-- Generated by graphviz version 2.36.0 (20140111.2315)
 -->
<!-- Title: /home/travis/build/AliceO2Group/AliceO2/Detectors/ITSMFT/ITS/base/include/ITSBase/GeometryTGeo.h Pages: 1 -->
<svg width="3813pt" height="396pt"
 viewBox="0.00 0.00 3813.00 396.00" xmlns="http://www.w3.org/2000/svg" xmlns:xlink="http://www.w3.org/1999/xlink">
<g id="graph0" class="graph" transform="scale(1 1) rotate(0) translate(4 392)">
<title>/home/travis/build/AliceO2Group/AliceO2/Detectors/ITSMFT/ITS/base/include/ITSBase/GeometryTGeo.h</title>
<!-- Node1 -->
<g id="node1" class="node"><title>Node1</title>
<polygon fill="#bfbfbf" stroke="black" points="1871.5,-324.5 1871.5,-387.5 2032.5,-387.5 2032.5,-324.5 1871.5,-324.5"/>
<text text-anchor="start" x="1879.5" y="-375.5" font-family="Helvetica,sans-Serif" font-size="10.00">/home/travis/build</text>
<text text-anchor="start" x="1879.5" y="-364.5" font-family="Helvetica,sans-Serif" font-size="10.00">/AliceO2Group/AliceO2</text>
<text text-anchor="start" x="1879.5" y="-353.5" font-family="Helvetica,sans-Serif" font-size="10.00">/Detectors/ITSMFT/ITS</text>
<text text-anchor="start" x="1879.5" y="-342.5" font-family="Helvetica,sans-Serif" font-size="10.00">/base/include/ITSBase/Geometry</text>
<text text-anchor="middle" x="1952" y="-331.5" font-family="Helvetica,sans-Serif" font-size="10.00">TGeo.h</text>
</g>
<!-- Node2 -->
<g id="node2" class="node"><title>Node2</title>
<g id="a_node2"><a xlink:href="../../dc/d59/MatchTPCITS_8cxx.html" target="_top" xlink:title="/home/travis/build\l/AliceO2Group/AliceO2\l/Detectors/GlobalTracking\l/src/MatchTPCITS.cxx">
<polygon fill="none" stroke="black" points="-0.5,-224 -0.5,-276 130.5,-276 130.5,-224 -0.5,-224"/>
<text text-anchor="start" x="7.5" y="-264" font-family="Helvetica,sans-Serif" font-size="10.00">/home/travis/build</text>
<text text-anchor="start" x="7.5" y="-253" font-family="Helvetica,sans-Serif" font-size="10.00">/AliceO2Group/AliceO2</text>
<text text-anchor="start" x="7.5" y="-242" font-family="Helvetica,sans-Serif" font-size="10.00">/Detectors/GlobalTracking</text>
<text text-anchor="middle" x="65" y="-231" font-family="Helvetica,sans-Serif" font-size="10.00">/src/MatchTPCITS.cxx</text>
</a>
</g>
</g>
<!-- Node1&#45;&gt;Node2 -->
<g id="edge1" class="edge"><title>Node1&#45;&gt;Node2</title>
<path fill="none" stroke="midnightblue" d="M1861.19,-353.871C1517.49,-349.293 307.31,-330.299 140,-288 129.302,-285.295 118.346,-280.936 108.228,-276.142"/>
<polygon fill="midnightblue" stroke="midnightblue" points="1861.31,-357.373 1871.35,-354.005 1861.4,-350.373 1861.31,-357.373"/>
</g>
<!-- Node3 -->
<g id="node3" class="node"><title>Node3</title>
<g id="a_node3"><a xlink:href="../../db/df2/ITS_2base_2src_2GeometryTGeo_8cxx.html" target="_top" xlink:title="/home/travis/build\l/AliceO2Group/AliceO2\l/Detectors/ITSMFT/ITS\l/base/src/GeometryTGeo.cxx">
<polygon fill="none" stroke="black" points="149,-224 149,-276 295,-276 295,-224 149,-224"/>
<text text-anchor="start" x="157" y="-264" font-family="Helvetica,sans-Serif" font-size="10.00">/home/travis/build</text>
<text text-anchor="start" x="157" y="-253" font-family="Helvetica,sans-Serif" font-size="10.00">/AliceO2Group/AliceO2</text>
<text text-anchor="start" x="157" y="-242" font-family="Helvetica,sans-Serif" font-size="10.00">/Detectors/ITSMFT/ITS</text>
<text text-anchor="middle" x="222" y="-231" font-family="Helvetica,sans-Serif" font-size="10.00">/base/src/GeometryTGeo.cxx</text>
</a>
</g>
</g>
<!-- Node1&#45;&gt;Node3 -->
<g id="edge2" class="edge"><title>Node1&#45;&gt;Node3</title>
<path fill="none" stroke="midnightblue" d="M1861.18,-353.332C1538.06,-347.119 455.444,-323.819 304,-288 292.449,-285.268 280.529,-280.897 269.478,-276.101"/>
<polygon fill="midnightblue" stroke="midnightblue" points="1861.37,-356.836 1871.43,-353.528 1861.5,-349.837 1861.37,-356.836"/>
</g>
<!-- Node4 -->
<g id="node4" class="node"><title>Node4</title>
<g id="a_node4"><a xlink:href="../../d5/de8/CheckClusters_8C.html" target="_top" xlink:title="/home/travis/build\l/AliceO2Group/AliceO2\l/Detectors/ITSMFT/ITS\l/macros/test/CheckClusters.C">
<polygon fill="none" stroke="black" points="313,-224 313,-276 463,-276 463,-224 313,-224"/>
<text text-anchor="start" x="321" y="-264" font-family="Helvetica,sans-Serif" font-size="10.00">/home/travis/build</text>
<text text-anchor="start" x="321" y="-253" font-family="Helvetica,sans-Serif" font-size="10.00">/AliceO2Group/AliceO2</text>
<text text-anchor="start" x="321" y="-242" font-family="Helvetica,sans-Serif" font-size="10.00">/Detectors/ITSMFT/ITS</text>
<text text-anchor="middle" x="388" y="-231" font-family="Helvetica,sans-Serif" font-size="10.00">/macros/test/CheckClusters.C</text>
</a>
</g>
</g>
<!-- Node1&#45;&gt;Node4 -->
<g id="edge3" class="edge"><title>Node1&#45;&gt;Node4</title>
<path fill="none" stroke="midnightblue" d="M1860.95,-355.199C1581.5,-355.129 738.881,-349.669 473,-288 461.085,-285.236 448.752,-280.853 437.301,-276.054"/>
<polygon fill="midnightblue" stroke="midnightblue" points="1861.05,-358.699 1871.05,-355.199 1861.05,-351.699 1861.05,-358.699"/>
</g>
<!-- Node5 -->
<g id="node5" class="node"><title>Node5</title>
<g id="a_node5"><a xlink:href="../../de/d5b/CheckClusterShape_8C.html" target="_top" xlink:title="/home/travis/build\l/AliceO2Group/AliceO2\l/Detectors/ITSMFT/ITS\l/macros/test/CheckClusterShape.C">
<polygon fill="none" stroke="black" points="481.5,-224 481.5,-276 654.5,-276 654.5,-224 481.5,-224"/>
<text text-anchor="start" x="489.5" y="-264" font-family="Helvetica,sans-Serif" font-size="10.00">/home/travis/build</text>
<text text-anchor="start" x="489.5" y="-253" font-family="Helvetica,sans-Serif" font-size="10.00">/AliceO2Group/AliceO2</text>
<text text-anchor="start" x="489.5" y="-242" font-family="Helvetica,sans-Serif" font-size="10.00">/Detectors/ITSMFT/ITS</text>
<text text-anchor="middle" x="568" y="-231" font-family="Helvetica,sans-Serif" font-size="10.00">/macros/test/CheckClusterShape.C</text>
</a>
</g>
</g>
<!-- Node1&#45;&gt;Node5 -->
<g id="edge4" class="edge"><title>Node1&#45;&gt;Node5</title>
<path fill="none" stroke="midnightblue" d="M1860.76,-353.984C1606.36,-350.558 892.829,-336.754 664,-288 650.81,-285.19 637.051,-280.819 624.204,-276.052"/>
<polygon fill="midnightblue" stroke="midnightblue" points="1861.03,-357.487 1871.07,-354.12 1861.12,-350.488 1861.03,-357.487"/>
</g>
<!-- Node6 -->
<g id="node6" class="node"><title>Node6</title>
<g id="a_node6"><a xlink:href="../../d9/dd0/CheckDigits_8C.html" target="_top" xlink:title="Simple macro to check ITSU clusters. ">
<polygon fill="none" stroke="black" points="672.5,-224 672.5,-276 811.5,-276 811.5,-224 672.5,-224"/>
<text text-anchor="start" x="680.5" y="-264" font-family="Helvetica,sans-Serif" font-size="10.00">/home/travis/build</text>
<text text-anchor="start" x="680.5" y="-253" font-family="Helvetica,sans-Serif" font-size="10.00">/AliceO2Group/AliceO2</text>
<text text-anchor="start" x="680.5" y="-242" font-family="Helvetica,sans-Serif" font-size="10.00">/Detectors/ITSMFT/ITS</text>
<text text-anchor="middle" x="742" y="-231" font-family="Helvetica,sans-Serif" font-size="10.00">/macros/test/CheckDigits.C</text>
</a>
</g>
</g>
<!-- Node1&#45;&gt;Node6 -->
<g id="edge5" class="edge"><title>Node1&#45;&gt;Node6</title>
<path fill="none" stroke="midnightblue" d="M1861.27,-354.027C1628.96,-350.832 1017.2,-337.803 821,-288 809.99,-285.205 798.651,-280.872 788.12,-276.142"/>
<polygon fill="midnightblue" stroke="midnightblue" points="1861.33,-357.528 1871.38,-354.163 1861.42,-350.528 1861.33,-357.528"/>
</g>
<!-- Node7 -->
<g id="node7" class="node"><title>Node7</title>
<g id="a_node7"><a xlink:href="../../d9/db4/CheckTopologies_8C.html" target="_top" xlink:title="/home/travis/build\l/AliceO2Group/AliceO2\l/Detectors/ITSMFT/ITS\l/macros/test/CheckTopologies.C">
<polygon fill="none" stroke="black" points="829.5,-224 829.5,-276 990.5,-276 990.5,-224 829.5,-224"/>
<text text-anchor="start" x="837.5" y="-264" font-family="Helvetica,sans-Serif" font-size="10.00">/home/travis/build</text>
<text text-anchor="start" x="837.5" y="-253" font-family="Helvetica,sans-Serif" font-size="10.00">/AliceO2Group/AliceO2</text>
<text text-anchor="start" x="837.5" y="-242" font-family="Helvetica,sans-Serif" font-size="10.00">/Detectors/ITSMFT/ITS</text>
<text text-anchor="middle" x="910" y="-231" font-family="Helvetica,sans-Serif" font-size="10.00">/macros/test/CheckTopologies.C</text>
</a>
</g>
</g>
<!-- Node1&#45;&gt;Node7 -->
<g id="edge6" class="edge"><title>Node1&#45;&gt;Node7</title>
<path fill="none" stroke="midnightblue" d="M1861.07,-352.297C1655.85,-345.598 1162.01,-325.96 1000,-288 987.828,-285.148 975.173,-280.853 963.331,-276.188"/>
<polygon fill="midnightblue" stroke="midnightblue" points="1861.11,-355.8 1871.22,-352.625 1861.34,-348.804 1861.11,-355.8"/>
</g>
<!-- Node8 -->
<g id="node8" class="node"><title>Node8</title>
<g id="a_node8"><a xlink:href="../../d5/df6/DisplayTrack_8C.html" target="_top" xlink:title="Simple macro to display ITSU tracks. ">
<polygon fill="none" stroke="black" points="1008.5,-224 1008.5,-276 1151.5,-276 1151.5,-224 1008.5,-224"/>
<text text-anchor="start" x="1016.5" y="-264" font-family="Helvetica,sans-Serif" font-size="10.00">/home/travis/build</text>
<text text-anchor="start" x="1016.5" y="-253" font-family="Helvetica,sans-Serif" font-size="10.00">/AliceO2Group/AliceO2</text>
<text text-anchor="start" x="1016.5" y="-242" font-family="Helvetica,sans-Serif" font-size="10.00">/Detectors/ITSMFT/ITS</text>
<text text-anchor="middle" x="1080" y="-231" font-family="Helvetica,sans-Serif" font-size="10.00">/macros/test/DisplayTrack.C</text>
</a>
</g>
</g>
<!-- Node1&#45;&gt;Node8 -->
<g id="edge7" class="edge"><title>Node1&#45;&gt;Node8</title>
<path fill="none" stroke="midnightblue" d="M1861.05,-351.218C1682.24,-343.139 1291.04,-322.104 1161,-288 1149.93,-285.098 1138.5,-280.782 1127.83,-276.112"/>
<polygon fill="midnightblue" stroke="midnightblue" points="1861.07,-354.722 1871.22,-351.674 1861.39,-347.729 1861.07,-354.722"/>
</g>
<!-- Node9 -->
<g id="node9" class="node"><title>Node9</title>
<g id="a_node9"><a xlink:href="../../d7/d20/exctracITSMapping_8C.html" target="_top" xlink:title="/home/travis/build\l/AliceO2Group/AliceO2\l/Detectors/ITSMFT/ITS\l/macros/test/exctracITSMapping.C">
<polygon fill="none" stroke="black" points="1170,-224 1170,-276 1340,-276 1340,-224 1170,-224"/>
<text text-anchor="start" x="1178" y="-264" font-family="Helvetica,sans-Serif" font-size="10.00">/home/travis/build</text>
<text text-anchor="start" x="1178" y="-253" font-family="Helvetica,sans-Serif" font-size="10.00">/AliceO2Group/AliceO2</text>
<text text-anchor="start" x="1178" y="-242" font-family="Helvetica,sans-Serif" font-size="10.00">/Detectors/ITSMFT/ITS</text>
<text text-anchor="middle" x="1255" y="-231" font-family="Helvetica,sans-Serif" font-size="10.00">/macros/test/exctracITSMapping.C</text>
</a>
</g>
</g>
<!-- Node1&#45;&gt;Node9 -->
<g id="edge8" class="edge"><title>Node1&#45;&gt;Node9</title>
<path fill="none" stroke="midnightblue" d="M1861.14,-352.361C1741.97,-347.214 1527.08,-332.112 1349,-288 1336.66,-284.943 1323.77,-280.65 1311.63,-276.066"/>
<polygon fill="midnightblue" stroke="midnightblue" points="1861.18,-355.865 1871.32,-352.786 1861.47,-348.871 1861.18,-355.865"/>
</g>
<!-- Node10 -->
<g id="node10" class="node"><title>Node10</title>
<g id="a_node10"><a xlink:href="../../d6/d67/ITSMFT_2ITS_2reconstruction_2include_2ITSReconstruction_2ClustererTask_8h.html" target="_top" xlink:title="/home/travis/build\l/AliceO2Group/AliceO2\l/Detectors/ITSMFT/ITS\l/reconstruction/include\l/ITSReconstruction/ClustererTask.h">
<polygon fill="none" stroke="black" points="1358,-218.5 1358,-281.5 1532,-281.5 1532,-218.5 1358,-218.5"/>
<text text-anchor="start" x="1366" y="-269.5" font-family="Helvetica,sans-Serif" font-size="10.00">/home/travis/build</text>
<text text-anchor="start" x="1366" y="-258.5" font-family="Helvetica,sans-Serif" font-size="10.00">/AliceO2Group/AliceO2</text>
<text text-anchor="start" x="1366" y="-247.5" font-family="Helvetica,sans-Serif" font-size="10.00">/Detectors/ITSMFT/ITS</text>
<text text-anchor="start" x="1366" y="-236.5" font-family="Helvetica,sans-Serif" font-size="10.00">/reconstruction/include</text>
<text text-anchor="middle" x="1445" y="-225.5" font-family="Helvetica,sans-Serif" font-size="10.00">/ITSReconstruction/ClustererTask.h</text>
</a>
</g>
</g>
<!-- Node1&#45;&gt;Node10 -->
<g id="edge9" class="edge"><title>Node1&#45;&gt;Node10</title>
<path fill="none" stroke="midnightblue" d="M1861.18,-344.966C1778.22,-334.635 1652.61,-316.059 1546,-288 1538.78,-286.099 1531.34,-283.888 1523.95,-281.512"/>
<polygon fill="midnightblue" stroke="midnightblue" points="1860.98,-348.468 1871.33,-346.215 1861.83,-341.52 1860.98,-348.468"/>
</g>
<!-- Node14 -->
<g id="node14" class="node"><title>Node14</title>
<g id="a_node14"><a xlink:href="../../d6/d0c/CookedTracker_8h.html" target="_top" xlink:title="Definition of the &quot;Cooked Matrix&quot; ITS tracker. ">
<polygon fill="none" stroke="black" points="1588.5,-218.5 1588.5,-281.5 1767.5,-281.5 1767.5,-218.5 1588.5,-218.5"/>
<text text-anchor="start" x="1596.5" y="-269.5" font-family="Helvetica,sans-Serif" font-size="10.00">/home/travis/build</text>
<text text-anchor="start" x="1596.5" y="-258.5" font-family="Helvetica,sans-Serif" font-size="10.00">/AliceO2Group/AliceO2</text>
<text text-anchor="start" x="1596.5" y="-247.5" font-family="Helvetica,sans-Serif" font-size="10.00">/Detectors/ITSMFT/ITS</text>
<text text-anchor="start" x="1596.5" y="-236.5" font-family="Helvetica,sans-Serif" font-size="10.00">/reconstruction/include</text>
<text text-anchor="middle" x="1678" y="-225.5" font-family="Helvetica,sans-Serif" font-size="10.00">/ITSReconstruction/CookedTracker.h</text>
</a>
</g>
</g>
<!-- Node1&#45;&gt;Node14 -->
<g id="edge13" class="edge"><title>Node1&#45;&gt;Node14</title>
<path fill="none" stroke="midnightblue" d="M1861.88,-320.795C1828.47,-308.114 1790.84,-293.829 1758.36,-281.5"/>
<polygon fill="midnightblue" stroke="midnightblue" points="1861.05,-324.223 1871.64,-324.499 1863.54,-317.678 1861.05,-324.223"/>
</g>
<!-- Node15 -->
<g id="node15" class="node"><title>Node15</title>
<g id="a_node15"><a xlink:href="../../d3/d9f/CookedTrackerTask_8h.html" target="_top" xlink:title="Definition of the ITS &quot;Cooked Matrix&quot; tracker task. ">
<polygon fill="none" stroke="black" points="1526.5,-101 1526.5,-175 1697.5,-175 1697.5,-101 1526.5,-101"/>
<text text-anchor="start" x="1534.5" y="-163" font-family="Helvetica,sans-Serif" font-size="10.00">/home/travis/build</text>
<text text-anchor="start" x="1534.5" y="-152" font-family="Helvetica,sans-Serif" font-size="10.00">/AliceO2Group/AliceO2</text>
<text text-anchor="start" x="1534.5" y="-141" font-family="Helvetica,sans-Serif" font-size="10.00">/Detectors/ITSMFT/ITS</text>
<text text-anchor="start" x="1534.5" y="-130" font-family="Helvetica,sans-Serif" font-size="10.00">/reconstruction/include</text>
<text text-anchor="start" x="1534.5" y="-119" font-family="Helvetica,sans-Serif" font-size="10.00">/ITSReconstruction/CookedTracker</text>
<text text-anchor="middle" x="1612" y="-108" font-family="Helvetica,sans-Serif" font-size="10.00">Task.h</text>
</a>
</g>
</g>
<!-- Node1&#45;&gt;Node15 -->
<g id="edge18" class="edge"><title>Node1&#45;&gt;Node15</title>
<path fill="none" stroke="midnightblue" d="M1860.85,-351.564C1762.47,-345.714 1615.11,-330.001 1580,-288 1553.61,-256.435 1571.09,-208.241 1588.88,-175.266"/>
<polygon fill="midnightblue" stroke="midnightblue" points="1860.92,-355.074 1871.1,-352.149 1861.32,-348.085 1860.92,-355.074"/>
</g>
<!-- Node19 -->
<g id="node19" class="node"><title>Node19</title>
<g id="a_node19"><a xlink:href="../../d6/d49/TrivialClustererTask_8h.html" target="_top" xlink:title="Definition of the ITS cluster finder task. ">
<polygon fill="none" stroke="black" points="1786,-213 1786,-287 1956,-287 1956,-213 1786,-213"/>
<text text-anchor="start" x="1794" y="-275" font-family="Helvetica,sans-Serif" font-size="10.00">/home/travis/build</text>
<text text-anchor="start" x="1794" y="-264" font-family="Helvetica,sans-Serif" font-size="10.00">/AliceO2Group/AliceO2</text>
<text text-anchor="start" x="1794" y="-253" font-family="Helvetica,sans-Serif" font-size="10.00">/Detectors/ITSMFT/ITS</text>
<text text-anchor="start" x="1794" y="-242" font-family="Helvetica,sans-Serif" font-size="10.00">/reconstruction/include</text>
<text text-anchor="start" x="1794" y="-231" font-family="Helvetica,sans-Serif" font-size="10.00">/ITSReconstruction/TrivialClusterer</text>
<text text-anchor="middle" x="1871" y="-220" font-family="Helvetica,sans-Serif" font-size="10.00">Task.h</text>
</a>
</g>
</g>
<!-- Node1&#45;&gt;Node19 -->
<g id="edge19" class="edge"><title>Node1&#45;&gt;Node19</title>
<path fill="none" stroke="midnightblue" d="M1921.8,-316.228C1914.42,-306.751 1906.55,-296.647 1899.27,-287.292"/>
<polygon fill="midnightblue" stroke="midnightblue" points="1919.23,-318.62 1928.14,-324.359 1924.75,-314.319 1919.23,-318.62"/>
</g>
<!-- Node21 -->
<g id="node21" class="node"><title>Node21</title>
<g id="a_node21"><a xlink:href="../../d5/d1a/IOUtils_8cxx.html" target="_top" xlink:title="/home/travis/build\l/AliceO2Group/AliceO2\l/Detectors/ITSMFT/ITS\l/reconstruction/src/CA\l/IOUtils.cxx">
<polygon fill="none" stroke="black" points="1974,-218.5 1974,-281.5 2094,-281.5 2094,-218.5 1974,-218.5"/>
<text text-anchor="start" x="1982" y="-269.5" font-family="Helvetica,sans-Serif" font-size="10.00">/home/travis/build</text>
<text text-anchor="start" x="1982" y="-258.5" font-family="Helvetica,sans-Serif" font-size="10.00">/AliceO2Group/AliceO2</text>
<text text-anchor="start" x="1982" y="-247.5" font-family="Helvetica,sans-Serif" font-size="10.00">/Detectors/ITSMFT/ITS</text>
<text text-anchor="start" x="1982" y="-236.5" font-family="Helvetica,sans-Serif" font-size="10.00">/reconstruction/src/CA</text>
<text text-anchor="middle" x="2034" y="-225.5" font-family="Helvetica,sans-Serif" font-size="10.00">/IOUtils.cxx</text>
</a>
</g>
</g>
<!-- Node1&#45;&gt;Node21 -->
<g id="edge21" class="edge"><title>Node1&#45;&gt;Node21</title>
<path fill="none" stroke="midnightblue" d="M1982.54,-316.266C1991.51,-304.884 2001.2,-292.594 2009.73,-281.781"/>
<polygon fill="midnightblue" stroke="midnightblue" points="1979.6,-314.339 1976.16,-324.359 1985.1,-318.673 1979.6,-314.339"/>
</g>
<!-- Node22 -->
<g id="node22" class="node"><title>Node22</title>
<g id="a_node22"><a xlink:href="../../d9/d0d/ITSMFT_2ITS_2simulation_2src_2Detector_8cxx.html" target="_top" xlink:title="/home/travis/build\l/AliceO2Group/AliceO2\l/Detectors/ITSMFT/ITS\l/simulation/src/Detector.cxx">
<polygon fill="none" stroke="black" points="2112,-224 2112,-276 2252,-276 2252,-224 2112,-224"/>
<text text-anchor="start" x="2120" y="-264" font-family="Helvetica,sans-Serif" font-size="10.00">/home/travis/build</text>
<text text-anchor="start" x="2120" y="-253" font-family="Helvetica,sans-Serif" font-size="10.00">/AliceO2Group/AliceO2</text>
<text text-anchor="start" x="2120" y="-242" font-family="Helvetica,sans-Serif" font-size="10.00">/Detectors/ITSMFT/ITS</text>
<text text-anchor="middle" x="2182" y="-231" font-family="Helvetica,sans-Serif" font-size="10.00">/simulation/src/Detector.cxx</text>
</a>
</g>
</g>
<!-- Node1&#45;&gt;Node22 -->
<g id="edge22" class="edge"><title>Node1&#45;&gt;Node22</title>
<path fill="none" stroke="midnightblue" d="M2030.55,-320.146C2053.6,-309.856 2078.84,-298.529 2102,-288 2110.36,-284.201 2119.19,-280.15 2127.82,-276.174"/>
<polygon fill="midnightblue" stroke="midnightblue" points="2028.87,-317.065 2021.16,-324.335 2031.72,-323.458 2028.87,-317.065"/>
</g>
<!-- Node23 -->
<g id="node23" class="node"><title>Node23</title>
<g id="a_node23"><a xlink:href="../../da/d29/ITSMFT_2ITS_2simulation_2src_2DigitizerTask_8cxx.html" target="_top" xlink:title="/home/travis/build\l/AliceO2Group/AliceO2\l/Detectors/ITSMFT/ITS\l/simulation/src/DigitizerTask.cxx">
<polygon fill="none" stroke="black" points="2270,-224 2270,-276 2430,-276 2430,-224 2270,-224"/>
<text text-anchor="start" x="2278" y="-264" font-family="Helvetica,sans-Serif" font-size="10.00">/home/travis/build</text>
<text text-anchor="start" x="2278" y="-253" font-family="Helvetica,sans-Serif" font-size="10.00">/AliceO2Group/AliceO2</text>
<text text-anchor="start" x="2278" y="-242" font-family="Helvetica,sans-Serif" font-size="10.00">/Detectors/ITSMFT/ITS</text>
<text text-anchor="middle" x="2350" y="-231" font-family="Helvetica,sans-Serif" font-size="10.00">/simulation/src/DigitizerTask.cxx</text>
</a>
</g>
</g>
<!-- Node1&#45;&gt;Node23 -->
<g id="edge23" class="edge"><title>Node1&#45;&gt;Node23</title>
<path fill="none" stroke="midnightblue" d="M2042.91,-339.757C2105.07,-328.252 2188.93,-310.591 2261,-288 2271.86,-284.597 2283.23,-280.391 2294.07,-276.049"/>
<polygon fill="midnightblue" stroke="midnightblue" points="2041.95,-336.376 2032.74,-341.621 2043.21,-343.262 2041.95,-336.376"/>
</g>
<!-- Node24 -->
<g id="node24" class="node"><title>Node24</title>
<g id="a_node24"><a xlink:href="../../d5/dda/V1Layer_8cxx.html" target="_top" xlink:title="Implementation of the V1Layer class. ">
<polygon fill="none" stroke="black" points="2448,-224 2448,-276 2586,-276 2586,-224 2448,-224"/>
<text text-anchor="start" x="2456" y="-264" font-family="Helvetica,sans-Serif" font-size="10.00">/home/travis/build</text>
<text text-anchor="start" x="2456" y="-253" font-family="Helvetica,sans-Serif" font-size="10.00">/AliceO2Group/AliceO2</text>
<text text-anchor="start" x="2456" y="-242" font-family="Helvetica,sans-Serif" font-size="10.00">/Detectors/ITSMFT/ITS</text>
<text text-anchor="middle" x="2517" y="-231" font-family="Helvetica,sans-Serif" font-size="10.00">/simulation/src/V1Layer.cxx</text>
</a>
</g>
</g>
<!-- Node1&#45;&gt;Node24 -->
<g id="edge24" class="edge"><title>Node1&#45;&gt;Node24</title>
<path fill="none" stroke="midnightblue" d="M2042.87,-350.8C2142.03,-344.317 2304.58,-328.086 2439,-288 2449.34,-284.916 2460.04,-280.64 2470.07,-276.086"/>
<polygon fill="midnightblue" stroke="midnightblue" points="2042.64,-347.308 2032.88,-351.434 2043.08,-354.294 2042.64,-347.308"/>
</g>
<!-- Node25 -->
<g id="node25" class="node"><title>Node25</title>
<g id="a_node25"><a xlink:href="../../d9/d7c/V3Layer_8cxx.html" target="_top" xlink:title="Implementation of the V3Layer class. ">
<polygon fill="none" stroke="black" points="2604,-224 2604,-276 2742,-276 2742,-224 2604,-224"/>
<text text-anchor="start" x="2612" y="-264" font-family="Helvetica,sans-Serif" font-size="10.00">/home/travis/build</text>
<text text-anchor="start" x="2612" y="-253" font-family="Helvetica,sans-Serif" font-size="10.00">/AliceO2Group/AliceO2</text>
<text text-anchor="start" x="2612" y="-242" font-family="Helvetica,sans-Serif" font-size="10.00">/Detectors/ITSMFT/ITS</text>
<text text-anchor="middle" x="2673" y="-231" font-family="Helvetica,sans-Serif" font-size="10.00">/simulation/src/V3Layer.cxx</text>
</a>
</g>
</g>
<!-- Node1&#45;&gt;Node25 -->
<g id="edge25" class="edge"><title>Node1&#45;&gt;Node25</title>
<path fill="none" stroke="midnightblue" d="M2042.57,-355.13C2168.71,-353.173 2403.37,-341.732 2595,-288 2605.53,-285.046 2616.4,-280.768 2626.56,-276.162"/>
<polygon fill="midnightblue" stroke="midnightblue" points="2042.51,-351.631 2032.56,-355.269 2042.61,-358.63 2042.51,-351.631"/>
</g>
<!-- Node26 -->
<g id="node26" class="node"><title>Node26</title>
<g id="a_node26"><a xlink:href="../../d7/d4c/HitAnalysis_8cxx.html" target="_top" xlink:title="/home/travis/build\l/AliceO2Group/AliceO2\l/Detectors/ITSMFT/test\l/HitAnalysis/src/HitAnalysis.cxx">
<polygon fill="none" stroke="black" points="2760,-224 2760,-276 2918,-276 2918,-224 2760,-224"/>
<text text-anchor="start" x="2768" y="-264" font-family="Helvetica,sans-Serif" font-size="10.00">/home/travis/build</text>
<text text-anchor="start" x="2768" y="-253" font-family="Helvetica,sans-Serif" font-size="10.00">/AliceO2Group/AliceO2</text>
<text text-anchor="start" x="2768" y="-242" font-family="Helvetica,sans-Serif" font-size="10.00">/Detectors/ITSMFT/test</text>
<text text-anchor="middle" x="2839" y="-231" font-family="Helvetica,sans-Serif" font-size="10.00">/HitAnalysis/src/HitAnalysis.cxx</text>
</a>
</g>
</g>
<!-- Node1&#45;&gt;Node26 -->
<g id="edge26" class="edge"><title>Node1&#45;&gt;Node26</title>
<path fill="none" stroke="midnightblue" d="M2042.76,-350.975C2222.75,-342.404 2618.89,-320.447 2751,-288 2762.91,-285.075 2775.29,-280.749 2786.87,-276.077"/>
<polygon fill="midnightblue" stroke="midnightblue" points="2042.35,-347.49 2032.53,-351.459 2042.68,-354.482 2042.35,-347.49"/>
</g>
<!-- Node27 -->
<g id="node27" class="node"><title>Node27</title>
<g id="a_node27"><a xlink:href="../../dc/d97/run__rec__ca_8C.html" target="_top" xlink:title="/home/travis/build\l/AliceO2Group/AliceO2\l/macro/run_rec_ca.C">
<polygon fill="none" stroke="black" points="2936,-229.5 2936,-270.5 3054,-270.5 3054,-229.5 2936,-229.5"/>
<text text-anchor="start" x="2944" y="-258.5" font-family="Helvetica,sans-Serif" font-size="10.00">/home/travis/build</text>
<text text-anchor="start" x="2944" y="-247.5" font-family="Helvetica,sans-Serif" font-size="10.00">/AliceO2Group/AliceO2</text>
<text text-anchor="middle" x="2995" y="-236.5" font-family="Helvetica,sans-Serif" font-size="10.00">/macro/run_rec_ca.C</text>
</a>
</g>
</g>
<!-- Node1&#45;&gt;Node27 -->
<g id="edge27" class="edge"><title>Node1&#45;&gt;Node27</title>
<path fill="none" stroke="midnightblue" d="M2042.71,-353.621C2251.7,-349.662 2761.74,-335.312 2926,-288 2939.58,-284.087 2953.52,-277.247 2965.28,-270.504"/>
<polygon fill="midnightblue" stroke="midnightblue" points="2042.62,-350.122 2032.69,-353.808 2042.75,-357.121 2042.62,-350.122"/>
</g>
<!-- Node28 -->
<g id="node28" class="node"><title>Node28</title>
<g id="a_node28"><a xlink:href="../../d9/d71/run__sim_8C.html" target="_top" xlink:title="/home/travis/build\l/AliceO2Group/AliceO2\l/macro/run_sim.C">
<polygon fill="none" stroke="black" points="3072,-229.5 3072,-270.5 3190,-270.5 3190,-229.5 3072,-229.5"/>
<text text-anchor="start" x="3080" y="-258.5" font-family="Helvetica,sans-Serif" font-size="10.00">/home/travis/build</text>
<text text-anchor="start" x="3080" y="-247.5" font-family="Helvetica,sans-Serif" font-size="10.00">/AliceO2Group/AliceO2</text>
<text text-anchor="middle" x="3131" y="-236.5" font-family="Helvetica,sans-Serif" font-size="10.00">/macro/run_sim.C</text>
</a>
</g>
</g>
<!-- Node1&#45;&gt;Node28 -->
<g id="edge28" class="edge"><title>Node1&#45;&gt;Node28</title>
<path fill="none" stroke="midnightblue" d="M2042.89,-354.592C2272.7,-352.751 2872.29,-342.689 3063,-288 3076.44,-284.147 3090.18,-277.318 3101.76,-270.567"/>
<polygon fill="midnightblue" stroke="midnightblue" points="2042.53,-351.095 2032.55,-354.671 2042.58,-358.094 2042.53,-351.095"/>
</g>
<!-- Node29 -->
<g id="node29" class="node"><title>Node29</title>
<g id="a_node29"><a xlink:href="../../d5/dd2/run__sim__its__ALP3_8C.html" target="_top" xlink:title="/home/travis/build\l/AliceO2Group/AliceO2\l/macro/run_sim_its_ALP3.C">
<polygon fill="none" stroke="black" points="3208,-229.5 3208,-270.5 3348,-270.5 3348,-229.5 3208,-229.5"/>
<text text-anchor="start" x="3216" y="-258.5" font-family="Helvetica,sans-Serif" font-size="10.00">/home/travis/build</text>
<text text-anchor="start" x="3216" y="-247.5" font-family="Helvetica,sans-Serif" font-size="10.00">/AliceO2Group/AliceO2</text>
<text text-anchor="middle" x="3278" y="-236.5" font-family="Helvetica,sans-Serif" font-size="10.00">/macro/run_sim_its_ALP3.C</text>
</a>
</g>
</g>
<!-- Node1&#45;&gt;Node29 -->
<g id="edge29" class="edge"><title>Node1&#45;&gt;Node29</title>
<path fill="none" stroke="midnightblue" d="M2042.71,-354.614C2291.38,-352.843 2979.92,-342.971 3199,-288 3214.28,-284.167 3230.18,-277.341 3243.68,-270.588"/>
<polygon fill="midnightblue" stroke="midnightblue" points="2042.61,-351.114 2032.63,-354.683 2042.65,-358.114 2042.61,-351.114"/>
</g>
<!-- Node30 -->
<g id="node30" class="node"><title>Node30</title>
<g id="a_node30"><a xlink:href="../../d6/db2/run__trac__ca__its_8C.html" target="_top" xlink:title="/home/travis/build\l/AliceO2Group/AliceO2\l/macro/run_trac_ca_its.C">
<polygon fill="none" stroke="black" points="3366.5,-229.5 3366.5,-270.5 3493.5,-270.5 3493.5,-229.5 3366.5,-229.5"/>
<text text-anchor="start" x="3374.5" y="-258.5" font-family="Helvetica,sans-Serif" font-size="10.00">/home/travis/build</text>
<text text-anchor="start" x="3374.5" y="-247.5" font-family="Helvetica,sans-Serif" font-size="10.00">/AliceO2Group/AliceO2</text>
<text text-anchor="middle" x="3430" y="-236.5" font-family="Helvetica,sans-Serif" font-size="10.00">/macro/run_trac_ca_its.C</text>
</a>
</g>
</g>
<!-- Node1&#45;&gt;Node30 -->
<g id="edge30" class="edge"><title>Node1&#45;&gt;Node30</title>
<path fill="none" stroke="midnightblue" d="M2042.8,-355.615C2312.84,-356.666 3107.59,-353.917 3357,-288 3371.29,-284.224 3386.01,-277.41 3398.46,-270.649"/>
<polygon fill="midnightblue" stroke="midnightblue" points="2042.66,-352.115 2032.65,-355.573 2042.63,-359.114 2042.66,-352.115"/>
</g>
<!-- Node31 -->
<g id="node31" class="node"><title>Node31</title>
<g id="a_node31"><a xlink:href="../../d4/da9/run__vert__ca__its_8C.html" target="_top" xlink:title="/home/travis/build\l/AliceO2Group/AliceO2\l/macro/run_vert_ca_its.C">
<polygon fill="none" stroke="black" points="3511.5,-229.5 3511.5,-270.5 3638.5,-270.5 3638.5,-229.5 3511.5,-229.5"/>
<text text-anchor="start" x="3519.5" y="-258.5" font-family="Helvetica,sans-Serif" font-size="10.00">/home/travis/build</text>
<text text-anchor="start" x="3519.5" y="-247.5" font-family="Helvetica,sans-Serif" font-size="10.00">/AliceO2Group/AliceO2</text>
<text text-anchor="middle" x="3575" y="-236.5" font-family="Helvetica,sans-Serif" font-size="10.00">/macro/run_vert_ca_its.C</text>
</a>
</g>
</g>
<!-- Node1&#45;&gt;Node31 -->
<g id="edge31" class="edge"><title>Node1&#45;&gt;Node31</title>
<path fill="none" stroke="midnightblue" d="M2042.93,-353.312C2353.56,-347.237 3361.23,-324.87 3502,-288 3516.29,-284.256 3531.02,-277.448 3543.47,-270.683"/>
<polygon fill="midnightblue" stroke="midnightblue" points="2042.55,-349.819 2032.62,-353.513 2042.68,-356.817 2042.55,-349.819"/>
</g>
<!-- Node32 -->
<g id="node32" class="node"><title>Node32</title>
<g id="a_node32"><a xlink:href="../../d3/d43/ITSMFTDigitizerSpec_8cxx.html" target="_top" xlink:title="/home/travis/build\l/AliceO2Group/AliceO2\l/Steer/DigitizerWorkflow\l/src/ITSMFTDigitizerSpec.cxx">
<polygon fill="none" stroke="black" points="3656.5,-224 3656.5,-276 3805.5,-276 3805.5,-224 3656.5,-224"/>
<text text-anchor="start" x="3664.5" y="-264" font-family="Helvetica,sans-Serif" font-size="10.00">/home/travis/build</text>
<text text-anchor="start" x="3664.5" y="-253" font-family="Helvetica,sans-Serif" font-size="10.00">/AliceO2Group/AliceO2</text>
<text text-anchor="start" x="3664.5" y="-242" font-family="Helvetica,sans-Serif" font-size="10.00">/Steer/DigitizerWorkflow</text>
<text text-anchor="middle" x="3731" y="-231" font-family="Helvetica,sans-Serif" font-size="10.00">/src/ITSMFTDigitizerSpec.cxx</text>
</a>
</g>
</g>
<!-- Node1&#45;&gt;Node32 -->
<g id="edge32" class="edge"><title>Node1&#45;&gt;Node32</title>
<path fill="none" stroke="midnightblue" d="M2043.14,-353.39C2372.62,-347.294 3490.71,-324.135 3647,-288 3658.8,-285.272 3671,-280.903 3682.31,-276.107"/>
<polygon fill="midnightblue" stroke="midnightblue" points="2042.62,-349.898 2032.69,-353.582 2042.75,-356.897 2042.62,-349.898"/>
</g>
<!-- Node11 -->
<g id="node11" class="node"><title>Node11</title>
<g id="a_node11"><a xlink:href="../../d8/d95/ITSMFT_2ITS_2reconstruction_2src_2ClustererTask_8cxx.html" target="_top" xlink:title="/home/travis/build\l/AliceO2Group/AliceO2\l/Detectors/ITSMFT/ITS\l/reconstruction/src/ClustererTask.cxx">
<polygon fill="none" stroke="black" points="1046.5,-112 1046.5,-164 1227.5,-164 1227.5,-112 1046.5,-112"/>
<text text-anchor="start" x="1054.5" y="-152" font-family="Helvetica,sans-Serif" font-size="10.00">/home/travis/build</text>
<text text-anchor="start" x="1054.5" y="-141" font-family="Helvetica,sans-Serif" font-size="10.00">/AliceO2Group/AliceO2</text>
<text text-anchor="start" x="1054.5" y="-130" font-family="Helvetica,sans-Serif" font-size="10.00">/Detectors/ITSMFT/ITS</text>
<text text-anchor="middle" x="1137" y="-119" font-family="Helvetica,sans-Serif" font-size="10.00">/reconstruction/src/ClustererTask.cxx</text>
</a>
</g>
</g>
<!-- Node10&#45;&gt;Node11 -->
<g id="edge10" class="edge"><title>Node10&#45;&gt;Node11</title>
<path fill="none" stroke="midnightblue" d="M1357.27,-214.957C1354.49,-213.95 1351.72,-212.962 1349,-212 1299.7,-194.591 1286.42,-193.076 1237,-176 1226.15,-172.252 1214.69,-168.149 1203.56,-164.083"/>
<polygon fill="midnightblue" stroke="midnightblue" points="1356.22,-218.297 1366.81,-218.443 1358.62,-211.723 1356.22,-218.297"/>
</g>
<!-- Node12 -->
<g id="node12" class="node"><title>Node12</title>
<g id="a_node12"><a xlink:href="../../d6/da1/run__clus__its_8C.html" target="_top" xlink:title="/home/travis/build\l/AliceO2Group/AliceO2\l/macro/run_clus_its.C">
<polygon fill="none" stroke="black" points="1246,-117.5 1246,-158.5 1364,-158.5 1364,-117.5 1246,-117.5"/>
<text text-anchor="start" x="1254" y="-146.5" font-family="Helvetica,sans-Serif" font-size="10.00">/home/travis/build</text>
<text text-anchor="start" x="1254" y="-135.5" font-family="Helvetica,sans-Serif" font-size="10.00">/AliceO2Group/AliceO2</text>
<text text-anchor="middle" x="1305" y="-124.5" font-family="Helvetica,sans-Serif" font-size="10.00">/macro/run_clus_its.C</text>
</a>
</g>
</g>
<!-- Node10&#45;&gt;Node12 -->
<g id="edge11" class="edge"><title>Node10&#45;&gt;Node12</title>
<path fill="none" stroke="midnightblue" d="M1398.13,-212.176C1375.4,-194.314 1349,-173.571 1330.13,-158.741"/>
<polygon fill="midnightblue" stroke="midnightblue" points="1395.98,-214.933 1406,-218.359 1400.3,-209.428 1395.98,-214.933"/>
</g>
<!-- Node13 -->
<g id="node13" class="node"><title>Node13</title>
<g id="a_node13"><a xlink:href="../../d7/d59/run__clus__itsSA_8C.html" target="_top" xlink:title="/home/travis/build\l/AliceO2Group/AliceO2\l/macro/run_clus_itsSA.C">
<polygon fill="none" stroke="black" points="1382,-117.5 1382,-158.5 1508,-158.5 1508,-117.5 1382,-117.5"/>
<text text-anchor="start" x="1390" y="-146.5" font-family="Helvetica,sans-Serif" font-size="10.00">/home/travis/build</text>
<text text-anchor="start" x="1390" y="-135.5" font-family="Helvetica,sans-Serif" font-size="10.00">/AliceO2Group/AliceO2</text>
<text text-anchor="middle" x="1445" y="-124.5" font-family="Helvetica,sans-Serif" font-size="10.00">/macro/run_clus_itsSA.C</text>
</a>
</g>
</g>
<!-- Node10&#45;&gt;Node13 -->
<g id="edge12" class="edge"><title>Node10&#45;&gt;Node13</title>
<path fill="none" stroke="midnightblue" d="M1445,-208.154C1445,-191.267 1445,-172.47 1445,-158.741"/>
<polygon fill="midnightblue" stroke="midnightblue" points="1441.5,-208.359 1445,-218.359 1448.5,-208.359 1441.5,-208.359"/>
</g>
<!-- Node14&#45;&gt;Node15 -->
<g id="edge14" class="edge"><title>Node14&#45;&gt;Node15</title>
<path fill="none" stroke="midnightblue" d="M1654.38,-209.63C1647.67,-198.446 1640.39,-186.321 1633.8,-175.325"/>
<polygon fill="midnightblue" stroke="midnightblue" points="1651.47,-211.585 1659.62,-218.359 1657.47,-207.983 1651.47,-211.585"/>
</g>
<!-- Node18 -->
<g id="node18" class="node"><title>Node18</title>
<g id="a_node18"><a xlink:href="../../d7/dca/CookedTracker_8cxx.html" target="_top" xlink:title="Implementation of the &quot;Cooked Matrix&quot; ITS tracker. ">
<polygon fill="none" stroke="black" points="1716,-112 1716,-164 1902,-164 1902,-112 1716,-112"/>
<text text-anchor="start" x="1724" y="-152" font-family="Helvetica,sans-Serif" font-size="10.00">/home/travis/build</text>
<text text-anchor="start" x="1724" y="-141" font-family="Helvetica,sans-Serif" font-size="10.00">/AliceO2Group/AliceO2</text>
<text text-anchor="start" x="1724" y="-130" font-family="Helvetica,sans-Serif" font-size="10.00">/Detectors/ITSMFT/ITS</text>
<text text-anchor="middle" x="1809" y="-119" font-family="Helvetica,sans-Serif" font-size="10.00">/reconstruction/src/CookedTracker.cxx</text>
</a>
</g>
</g>
<!-- Node14&#45;&gt;Node18 -->
<g id="edge17" class="edge"><title>Node14&#45;&gt;Node18</title>
<path fill="none" stroke="midnightblue" d="M1722.3,-211.804C1740.93,-196.162 1762.12,-178.366 1778.89,-164.284"/>
<polygon fill="midnightblue" stroke="midnightblue" points="1719.9,-209.248 1714.49,-218.359 1724.4,-214.609 1719.9,-209.248"/>
</g>
<!-- Node16 -->
<g id="node16" class="node"><title>Node16</title>
<g id="a_node16"><a xlink:href="../../d5/da2/CookedTrackerTask_8cxx.html" target="_top" xlink:title="Implementation of the ITS &quot;Cooked Matrix&quot; tracker task. ">
<polygon fill="none" stroke="black" points="1447.5,-0.5 1447.5,-63.5 1614.5,-63.5 1614.5,-0.5 1447.5,-0.5"/>
<text text-anchor="start" x="1455.5" y="-51.5" font-family="Helvetica,sans-Serif" font-size="10.00">/home/travis/build</text>
<text text-anchor="start" x="1455.5" y="-40.5" font-family="Helvetica,sans-Serif" font-size="10.00">/AliceO2Group/AliceO2</text>
<text text-anchor="start" x="1455.5" y="-29.5" font-family="Helvetica,sans-Serif" font-size="10.00">/Detectors/ITSMFT/ITS</text>
<text text-anchor="start" x="1455.5" y="-18.5" font-family="Helvetica,sans-Serif" font-size="10.00">/reconstruction/src/CookedTracker</text>
<text text-anchor="middle" x="1531" y="-7.5" font-family="Helvetica,sans-Serif" font-size="10.00">Task.cxx</text>
</a>
</g>
</g>
<!-- Node15&#45;&gt;Node16 -->
<g id="edge15" class="edge"><title>Node15&#45;&gt;Node16</title>
<path fill="none" stroke="midnightblue" d="M1577.6,-92.8356C1570,-83.0712 1562.1,-72.9296 1555.01,-63.8307"/>
<polygon fill="midnightblue" stroke="midnightblue" points="1574.99,-95.1789 1583.9,-100.918 1580.51,-90.8776 1574.99,-95.1789"/>
</g>
<!-- Node17 -->
<g id="node17" class="node"><title>Node17</title>
<g id="a_node17"><a xlink:href="../../dd/d4e/run__trac__its_8C.html" target="_top" xlink:title="/home/travis/build\l/AliceO2Group/AliceO2\l/macro/run_trac_its.C">
<polygon fill="none" stroke="black" points="1633,-11.5 1633,-52.5 1751,-52.5 1751,-11.5 1633,-11.5"/>
<text text-anchor="start" x="1641" y="-40.5" font-family="Helvetica,sans-Serif" font-size="10.00">/home/travis/build</text>
<text text-anchor="start" x="1641" y="-29.5" font-family="Helvetica,sans-Serif" font-size="10.00">/AliceO2Group/AliceO2</text>
<text text-anchor="middle" x="1692" y="-18.5" font-family="Helvetica,sans-Serif" font-size="10.00">/macro/run_trac_its.C</text>
</a>
</g>
</g>
<!-- Node15&#45;&gt;Node17 -->
<g id="edge16" class="edge"><title>Node15&#45;&gt;Node17</title>
<path fill="none" stroke="midnightblue" d="M1646,-92.7957C1656.77,-78.7961 1668.13,-64.0252 1676.87,-52.6667"/>
<polygon fill="midnightblue" stroke="midnightblue" points="1643.08,-90.8575 1639.76,-100.918 1648.63,-95.1255 1643.08,-90.8575"/>
</g>
<!-- Node20 -->
<g id="node20" class="node"><title>Node20</title>
<g id="a_node20"><a xlink:href="../../dd/d81/TrivialClustererTask_8cxx.html" target="_top" xlink:title="Implementation of the ITS cluster finder task. ">
<polygon fill="none" stroke="black" points="1919.5,-106.5 1919.5,-169.5 2086.5,-169.5 2086.5,-106.5 1919.5,-106.5"/>
<text text-anchor="start" x="1927.5" y="-157.5" font-family="Helvetica,sans-Serif" font-size="10.00">/home/travis/build</text>
<text text-anchor="start" x="1927.5" y="-146.5" font-family="Helvetica,sans-Serif" font-size="10.00">/AliceO2Group/AliceO2</text>
<text text-anchor="start" x="1927.5" y="-135.5" font-family="Helvetica,sans-Serif" font-size="10.00">/Detectors/ITSMFT/ITS</text>
<text text-anchor="start" x="1927.5" y="-124.5" font-family="Helvetica,sans-Serif" font-size="10.00">/reconstruction/src/TrivialClusterer</text>
<text text-anchor="middle" x="2003" y="-113.5" font-family="Helvetica,sans-Serif" font-size="10.00">Task.cxx</text>
</a>
</g>
</g>
<!-- Node19&#45;&gt;Node20 -->
<g id="edge20" class="edge"><title>Node19&#45;&gt;Node20</title>
<path fill="none" stroke="midnightblue" d="M1922.26,-206.282C1936.96,-194.033 1952.69,-180.928 1966.32,-169.568"/>
<polygon fill="midnightblue" stroke="midnightblue" points="1919.66,-203.891 1914.22,-212.982 1924.14,-209.269 1919.66,-203.891"/>
</g>
</g>
</svg>
