<?xml version="1.0" encoding="UTF-8" standalone="no"?>
<!DOCTYPE svg PUBLIC "-//W3C//DTD SVG 1.1//EN"
 "http://www.w3.org/Graphics/SVG/1.1/DTD/svg11.dtd">
<!-- Generated by graphviz version 2.36.0 (20140111.2315)
 -->
<!-- Title: o2::ITSMFT::ITSModuleMappingData Pages: 1 -->
<svg width="188pt" height="182pt"
 viewBox="0.00 0.00 188.00 182.00" xmlns="http://www.w3.org/2000/svg" xmlns:xlink="http://www.w3.org/1999/xlink">
<g id="graph0" class="graph" transform="scale(1 1) rotate(0) translate(4 178)">
<title>o2::ITSMFT::ITSModuleMappingData</title>
<!-- Node1 -->
<g id="node1" class="node"><title>Node1</title>
<polygon fill="#bfbfbf" stroke="black" points="0,-0.5 0,-57.5 180,-57.5 180,-0.5 0,-0.5"/>
<text text-anchor="middle" x="90" y="-45.5" font-family="Helvetica,sans-Serif" font-size="10.00">o2::ITSMFT::ITSModuleMappingData</text>
<polyline fill="none" stroke="black" points="0,-38.5 180,-38.5 "/>
<text text-anchor="middle" x="90" y="-26.5" font-family="Helvetica,sans-Serif" font-size="10.00"> </text>
<polyline fill="none" stroke="black" points="0,-19.5 180,-19.5 "/>
<text text-anchor="start" x="8" y="-7.5" font-family="Helvetica,sans-Serif" font-size="10.00">+ ClassDefNV()</text>
</g>
<!-- Node2 -->
<g id="node2" class="node"><title>Node2</title>
<polygon fill="none" stroke="#bfbfbf" points="22,-116.5 22,-173.5 78,-173.5 78,-116.5 22,-116.5"/>
<text text-anchor="middle" x="50" y="-161.5" font-family="Helvetica,sans-Serif" font-size="10.00">UShort_t</text>
<polyline fill="none" stroke="#bfbfbf" points="22,-154.5 78,-154.5 "/>
<text text-anchor="middle" x="50" y="-142.5" font-family="Helvetica,sans-Serif" font-size="10.00"> </text>
<polyline fill="none" stroke="#bfbfbf" points="22,-135.5 78,-135.5 "/>
<text text-anchor="middle" x="50" y="-123.5" font-family="Helvetica,sans-Serif" font-size="10.00"> </text>
</g>
<!-- Node2&#45;&gt;Node1 -->
<g id="edge1" class="edge"><title>Node2&#45;&gt;Node1</title>
<path fill="none" stroke="#404040" d="M46.2348,-116.407C45.5437,-103.726 46.23,-88.7124 51,-76 52.0242,-73.2706 53.2869,-70.5907 54.7242,-67.9819"/>
<polygon fill="none" stroke="#404040" points="54.8758,-67.7504 54.8179,-60.5395 61.4518,-57.7125 61.5097,-64.9234 54.8758,-67.7504"/>
<text text-anchor="middle" x="79.5" y="-84.5" font-family="Helvetica,sans-Serif" font-size="10.00"> +firstChipID</text>
</g>
<!-- Node3 -->
<g id="node3" class="node"><title>Node3</title>
<polygon fill="none" stroke="#bfbfbf" points="103.5,-116.5 103.5,-173.5 156.5,-173.5 156.5,-116.5 103.5,-116.5"/>
<text text-anchor="middle" x="130" y="-161.5" font-family="Helvetica,sans-Serif" font-size="10.00">UChar_t</text>
<polyline fill="none" stroke="#bfbfbf" points="103.5,-154.5 156.5,-154.5 "/>
<text text-anchor="middle" x="130" y="-142.5" font-family="Helvetica,sans-Serif" font-size="10.00"> </text>
<polyline fill="none" stroke="#bfbfbf" points="103.5,-135.5 156.5,-135.5 "/>
<text text-anchor="middle" x="130" y="-123.5" font-family="Helvetica,sans-Serif" font-size="10.00"> </text>
</g>
<!-- Node3&#45;&gt;Node1 -->
<g id="edge2" class="edge"><title>Node3&#45;&gt;Node1</title>
<path fill="none" stroke="#404040" d="M121.489,-116.411C117.554,-104.001 112.715,-89.2046 108,-76 107.166,-73.6654 106.292,-71.2716 105.395,-68.8616"/>
<polygon fill="none" stroke="#404040" points="105.389,-68.8447 99.5169,-64.6593 101.122,-57.629 106.994,-61.8144 105.389,-68.8447"/>
<text text-anchor="middle" x="134.5" y="-90" font-family="Helvetica,sans-Serif" font-size="10.00"> +layer</text>
<text text-anchor="middle" x="134.5" y="-79" font-family="Helvetica,sans-Serif" font-size="10.00">+nChips</text>
</g>
</g>
</svg>
