<?xml version="1.0" encoding="UTF-8" standalone="no"?>
<!DOCTYPE svg PUBLIC "-//W3C//DTD SVG 1.1//EN"
 "http://www.w3.org/Graphics/SVG/1.1/DTD/svg11.dtd">
<!-- Generated by graphviz version 2.36.0 (20140111.2315)
 -->
<!-- Title: /home/travis/build/AliceO2Group/AliceO2/Detectors/ITSMFT/ITS/reconstruction/include/ITSReconstruction/CA/Layer.h Pages: 1 -->
<!--zoomable 484 -->
<svg id="main" version="1.1" xmlns="http://www.w3.org/2000/svg" xmlns:xlink="http://www.w3.org/1999/xlink" xml:space="preserve" onload="init(evt)">
<style type="text/css"><![CDATA[
.edge:hover path { stroke: red; }
.edge:hover polygon { stroke: red; fill: red; }
]]></style>
<script type="text/javascript"><![CDATA[
var edges = document.getElementsByTagName('g');
if (edges && edges.length) {
  for (var i=0;i<edges.length;i++) {
    if (edges[i].id.substr(0,4)=='edge') {
      edges[i].setAttribute('class','edge');
    }
  }
}
]]></script>
        <defs>
                <circle id="rim" cx="0" cy="0" r="7"/>
                <circle id="rim2" cx="0" cy="0" r="3.5"/>
                <g id="zoomPlus">
                        <use xlink:href="#rim" fill="#404040">
                                <set attributeName="fill" to="#808080" begin="zoomplus.mouseover" end="zoomplus.mouseout"/>
                        </use>
                        <path d="M-4,0h8M0,-4v8" fill="none" stroke="white" stroke-width="1.5" pointer-events="none"/>
                </g>
                <g id="zoomMin">
                        <use xlink:href="#rim" fill="#404040">
                                <set attributeName="fill" to="#808080" begin="zoomminus.mouseover" end="zoomminus.mouseout"/>
                        </use>
                        <path d="M-4,0h8" fill="none" stroke="white" stroke-width="1.5" pointer-events="none"/>
                </g>
                <g id="dirArrow">
                        <path fill="none" stroke="white" stroke-width="1.5" d="M0,-3.0v7 M-2.5,-0.5L0,-3.0L2.5,-0.5"/>
                </g>
               <g id="resetDef">
                       <use xlink:href="#rim2" fill="#404040">
                               <set attributeName="fill" to="#808080" begin="reset.mouseover" end="reset.mouseout"/>
                       </use>
               </g>
        </defs>

<script type="text/javascript">
var viewWidth = 1156;
var viewHeight = 484;
var sectionId = 'dynsection-1';
</script>
<script xlink:href="../../svgpan.js"/>
<svg id="graph" class="graph">
<g id="viewport">
<title>/home/travis/build/AliceO2Group/AliceO2/Detectors/ITSMFT/ITS/reconstruction/include/ITSReconstruction/CA/Layer.h</title>
<!-- Node1 -->
<g id="node1" class="node"><title>Node1</title>
<polygon fill="#bfbfbf" stroke="black" points="891,-412.5 891,-475.5 1045,-475.5 1045,-412.5 891,-412.5"/>
<text text-anchor="start" x="899" y="-463.5" font-family="Helvetica,sans-Serif" font-size="10.00">/home/travis/build</text>
<text text-anchor="start" x="899" y="-452.5" font-family="Helvetica,sans-Serif" font-size="10.00">/AliceO2Group/AliceO2</text>
<text text-anchor="start" x="899" y="-441.5" font-family="Helvetica,sans-Serif" font-size="10.00">/Detectors/ITSMFT/ITS</text>
<text text-anchor="start" x="899" y="-430.5" font-family="Helvetica,sans-Serif" font-size="10.00">/reconstruction/include</text>
<text text-anchor="middle" x="968" y="-419.5" font-family="Helvetica,sans-Serif" font-size="10.00">/ITSReconstruction/CA/Layer.h</text>
</g>
<!-- Node2 -->
<g id="node2" class="node"><title>Node2</title>
<g id="a_node2"><a xlink:href="../../d6/d8d/Event_8h.html" target="_top" xlink:title="/home/travis/build\l/AliceO2Group/AliceO2\l/Detectors/ITSMFT/ITS\l/reconstruction/include\l/ITSReconstruction/CA/Event.h">
<polygon fill="none" stroke="black" points="428.5,-312.5 428.5,-375.5 583.5,-375.5 583.5,-312.5 428.5,-312.5"/>
<text text-anchor="start" x="436.5" y="-363.5" font-family="Helvetica,sans-Serif" font-size="10.00">/home/travis/build</text>
<text text-anchor="start" x="436.5" y="-352.5" font-family="Helvetica,sans-Serif" font-size="10.00">/AliceO2Group/AliceO2</text>
<text text-anchor="start" x="436.5" y="-341.5" font-family="Helvetica,sans-Serif" font-size="10.00">/Detectors/ITSMFT/ITS</text>
<text text-anchor="start" x="436.5" y="-330.5" font-family="Helvetica,sans-Serif" font-size="10.00">/reconstruction/include</text>
<text text-anchor="middle" x="506" y="-319.5" font-family="Helvetica,sans-Serif" font-size="10.00">/ITSReconstruction/CA/Event.h</text>
</a>
</g>
</g>
<!-- Node1&#45;&gt;Node2 -->
<g id="edge1" class="edge"><title>Node1&#45;&gt;Node2</title>
<path fill="none" stroke="midnightblue" d="M880.975,-424.54C795.37,-406.382 665.893,-378.917 583.672,-361.476"/>
<polygon fill="midnightblue" stroke="midnightblue" points="880.423,-428.001 890.932,-426.652 881.876,-421.153 880.423,-428.001"/>
</g>
<!-- Node10 -->
<g id="node10" class="node"><title>Node10</title>
<g id="a_node10"><a xlink:href="../../df/d42/ITSMFT_2ITS_2reconstruction_2src_2CA_2Tracker_8cxx.html" target="_top" xlink:title="/home/travis/build\l/AliceO2Group/AliceO2\l/Detectors/ITSMFT/ITS\l/reconstruction/src/CA\l/Tracker.cxx">
<polygon fill="none" stroke="black" points="766,-0.5 766,-63.5 886,-63.5 886,-0.5 766,-0.5"/>
<text text-anchor="start" x="774" y="-51.5" font-family="Helvetica,sans-Serif" font-size="10.00">/home/travis/build</text>
<text text-anchor="start" x="774" y="-40.5" font-family="Helvetica,sans-Serif" font-size="10.00">/AliceO2Group/AliceO2</text>
<text text-anchor="start" x="774" y="-29.5" font-family="Helvetica,sans-Serif" font-size="10.00">/Detectors/ITSMFT/ITS</text>
<text text-anchor="start" x="774" y="-18.5" font-family="Helvetica,sans-Serif" font-size="10.00">/reconstruction/src/CA</text>
<text text-anchor="middle" x="826" y="-7.5" font-family="Helvetica,sans-Serif" font-size="10.00">/Tracker.cxx</text>
</a>
</g>
</g>
<!-- Node1&#45;&gt;Node10 -->
<g id="edge21" class="edge"><title>Node1&#45;&gt;Node10</title>
<path fill="none" stroke="midnightblue" d="M979.84,-402.443C992.144,-352.834 1006.24,-267.173 980,-200 957.682,-142.878 905.657,-93.5335 868.249,-63.5942"/>
<polygon fill="midnightblue" stroke="midnightblue" points="976.441,-401.608 977.337,-412.165 983.22,-403.354 976.441,-401.608"/>
</g>
<!-- Node13 -->
<g id="node13" class="node"><title>Node13</title>
<g id="a_node13"><a xlink:href="../../da/d5d/Vertexer_8cxx.html" target="_top" xlink:title="/home/travis/build\l/AliceO2Group/AliceO2\l/Detectors/ITSMFT/ITS\l/reconstruction/src/CA\l/Vertexer.cxx">
<polygon fill="none" stroke="black" points="852,-206.5 852,-269.5 972,-269.5 972,-206.5 852,-206.5"/>
<text text-anchor="start" x="860" y="-257.5" font-family="Helvetica,sans-Serif" font-size="10.00">/home/travis/build</text>
<text text-anchor="start" x="860" y="-246.5" font-family="Helvetica,sans-Serif" font-size="10.00">/AliceO2Group/AliceO2</text>
<text text-anchor="start" x="860" y="-235.5" font-family="Helvetica,sans-Serif" font-size="10.00">/Detectors/ITSMFT/ITS</text>
<text text-anchor="start" x="860" y="-224.5" font-family="Helvetica,sans-Serif" font-size="10.00">/reconstruction/src/CA</text>
<text text-anchor="middle" x="912" y="-213.5" font-family="Helvetica,sans-Serif" font-size="10.00">/Vertexer.cxx</text>
</a>
</g>
</g>
<!-- Node1&#45;&gt;Node13 -->
<g id="edge22" class="edge"><title>Node1&#45;&gt;Node13</title>
<path fill="none" stroke="midnightblue" d="M956.875,-402.475C946.151,-363.406 930.157,-305.143 920.441,-269.75"/>
<polygon fill="midnightblue" stroke="midnightblue" points="953.594,-403.742 959.616,-412.459 960.344,-401.889 953.594,-403.742"/>
</g>
<!-- Node14 -->
<g id="node14" class="node"><title>Node14</title>
<g id="a_node14"><a xlink:href="../../d3/d2f/Layer_8cxx.html" target="_top" xlink:title="/home/travis/build\l/AliceO2Group/AliceO2\l/Detectors/ITSMFT/ITS\l/reconstruction/src/CA\l/Layer.cxx">
<polygon fill="none" stroke="black" points="1028,-312.5 1028,-375.5 1148,-375.5 1148,-312.5 1028,-312.5"/>
<text text-anchor="start" x="1036" y="-363.5" font-family="Helvetica,sans-Serif" font-size="10.00">/home/travis/build</text>
<text text-anchor="start" x="1036" y="-352.5" font-family="Helvetica,sans-Serif" font-size="10.00">/AliceO2Group/AliceO2</text>
<text text-anchor="start" x="1036" y="-341.5" font-family="Helvetica,sans-Serif" font-size="10.00">/Detectors/ITSMFT/ITS</text>
<text text-anchor="start" x="1036" y="-330.5" font-family="Helvetica,sans-Serif" font-size="10.00">/reconstruction/src/CA</text>
<text text-anchor="middle" x="1088" y="-319.5" font-family="Helvetica,sans-Serif" font-size="10.00">/Layer.cxx</text>
</a>
</g>
</g>
<!-- Node1&#45;&gt;Node14 -->
<g id="edge20" class="edge"><title>Node1&#45;&gt;Node14</title>
<path fill="none" stroke="midnightblue" d="M1013.51,-405.83C1025.72,-395.862 1038.78,-385.199 1050.49,-375.63"/>
<polygon fill="midnightblue" stroke="midnightblue" points="1011.17,-403.225 1005.64,-412.261 1015.6,-408.647 1011.17,-403.225"/>
</g>
<!-- Node3 -->
<g id="node3" class="node"><title>Node3</title>
<g id="a_node3"><a xlink:href="../../d7/dba/IOUtils_8h.html" target="_top" xlink:title="/home/travis/build\l/AliceO2Group/AliceO2\l/Detectors/ITSMFT/ITS\l/reconstruction/include\l/ITSReconstruction/CA/IOUtils.h">
<polygon fill="none" stroke="black" points="105.5,-206.5 105.5,-269.5 266.5,-269.5 266.5,-206.5 105.5,-206.5"/>
<text text-anchor="start" x="113.5" y="-257.5" font-family="Helvetica,sans-Serif" font-size="10.00">/home/travis/build</text>
<text text-anchor="start" x="113.5" y="-246.5" font-family="Helvetica,sans-Serif" font-size="10.00">/AliceO2Group/AliceO2</text>
<text text-anchor="start" x="113.5" y="-235.5" font-family="Helvetica,sans-Serif" font-size="10.00">/Detectors/ITSMFT/ITS</text>
<text text-anchor="start" x="113.5" y="-224.5" font-family="Helvetica,sans-Serif" font-size="10.00">/reconstruction/include</text>
<text text-anchor="middle" x="186" y="-213.5" font-family="Helvetica,sans-Serif" font-size="10.00">/ITSReconstruction/CA/IOUtils.h</text>
</a>
</g>
</g>
<!-- Node2&#45;&gt;Node3 -->
<g id="edge2" class="edge"><title>Node2&#45;&gt;Node3</title>
<path fill="none" stroke="midnightblue" d="M418.499,-314.562C371.131,-299.168 313.013,-280.279 266.734,-265.238"/>
<polygon fill="midnightblue" stroke="midnightblue" points="417.536,-317.929 428.128,-317.692 419.7,-311.272 417.536,-317.929"/>
</g>
<!-- Node5 -->
<g id="node5" class="node"><title>Node5</title>
<g id="a_node5"><a xlink:href="../../dc/d97/run__rec__ca_8C.html" target="_top" xlink:title="/home/travis/build\l/AliceO2Group/AliceO2\l/macro/run_rec_ca.C">
<polygon fill="none" stroke="black" points="259,-11.5 259,-52.5 377,-52.5 377,-11.5 259,-11.5"/>
<text text-anchor="start" x="267" y="-40.5" font-family="Helvetica,sans-Serif" font-size="10.00">/home/travis/build</text>
<text text-anchor="start" x="267" y="-29.5" font-family="Helvetica,sans-Serif" font-size="10.00">/AliceO2Group/AliceO2</text>
<text text-anchor="middle" x="318" y="-18.5" font-family="Helvetica,sans-Serif" font-size="10.00">/macro/run_rec_ca.C</text>
</a>
</g>
</g>
<!-- Node2&#45;&gt;Node5 -->
<g id="edge17" class="edge"><title>Node2&#45;&gt;Node5</title>
<path fill="none" stroke="midnightblue" d="M455.777,-305.675C445.751,-296.704 435.892,-286.618 428,-276 376.963,-207.329 385.774,-177.722 350,-100 342.616,-83.9577 333.971,-65.8974 327.529,-52.5734"/>
<polygon fill="midnightblue" stroke="midnightblue" points="453.594,-308.414 463.447,-312.308 458.173,-303.119 453.594,-308.414"/>
</g>
<!-- Node6 -->
<g id="node6" class="node"><title>Node6</title>
<g id="a_node6"><a xlink:href="../../d6/db2/run__trac__ca__its_8C.html" target="_top" xlink:title="/home/travis/build\l/AliceO2Group/AliceO2\l/macro/run_trac_ca_its.C">
<polygon fill="none" stroke="black" points="395.5,-11.5 395.5,-52.5 522.5,-52.5 522.5,-11.5 395.5,-11.5"/>
<text text-anchor="start" x="403.5" y="-40.5" font-family="Helvetica,sans-Serif" font-size="10.00">/home/travis/build</text>
<text text-anchor="start" x="403.5" y="-29.5" font-family="Helvetica,sans-Serif" font-size="10.00">/AliceO2Group/AliceO2</text>
<text text-anchor="middle" x="459" y="-18.5" font-family="Helvetica,sans-Serif" font-size="10.00">/macro/run_trac_ca_its.C</text>
</a>
</g>
</g>
<!-- Node2&#45;&gt;Node6 -->
<g id="edge18" class="edge"><title>Node2&#45;&gt;Node6</title>
<path fill="none" stroke="midnightblue" d="M471.755,-304.543C465.105,-295.63 458.739,-285.855 454,-276 431.807,-229.856 433.042,-214.846 427,-164 423.643,-135.754 420.715,-127.741 427,-100 430.817,-83.1536 439.405,-65.5861 446.725,-52.6682"/>
<polygon fill="midnightblue" stroke="midnightblue" points="469.007,-306.71 477.903,-312.464 474.536,-302.418 469.007,-306.71"/>
</g>
<!-- Node7 -->
<g id="node7" class="node"><title>Node7</title>
<g id="a_node7"><a xlink:href="../../d4/da9/run__vert__ca__its_8C.html" target="_top" xlink:title="/home/travis/build\l/AliceO2Group/AliceO2\l/macro/run_vert_ca_its.C">
<polygon fill="none" stroke="black" points="214.5,-111.5 214.5,-152.5 341.5,-152.5 341.5,-111.5 214.5,-111.5"/>
<text text-anchor="start" x="222.5" y="-140.5" font-family="Helvetica,sans-Serif" font-size="10.00">/home/travis/build</text>
<text text-anchor="start" x="222.5" y="-129.5" font-family="Helvetica,sans-Serif" font-size="10.00">/AliceO2Group/AliceO2</text>
<text text-anchor="middle" x="278" y="-118.5" font-family="Helvetica,sans-Serif" font-size="10.00">/macro/run_vert_ca_its.C</text>
</a>
</g>
</g>
<!-- Node2&#45;&gt;Node7 -->
<g id="edge19" class="edge"><title>Node2&#45;&gt;Node7</title>
<path fill="none" stroke="midnightblue" d="M418.71,-315.382C396.493,-305.457 373.874,-292.51 356,-276 317.985,-240.885 294.461,-182.9 284.137,-152.686"/>
<polygon fill="midnightblue" stroke="midnightblue" points="417.622,-318.724 428.192,-319.452 420.383,-312.292 417.622,-318.724"/>
</g>
<!-- Node8 -->
<g id="node8" class="node"><title>Node8</title>
<g id="a_node8"><a xlink:href="../../d3/da9/PrimaryVertexContext_8h.html" target="_top" xlink:title="/home/travis/build\l/AliceO2Group/AliceO2\l/Detectors/ITSMFT/ITS\l/reconstruction/include\l/ITSReconstruction/CA/PrimaryVertex\lContext.h">
<polygon fill="none" stroke="black" points="474,-201 474,-275 658,-275 658,-201 474,-201"/>
<text text-anchor="start" x="482" y="-263" font-family="Helvetica,sans-Serif" font-size="10.00">/home/travis/build</text>
<text text-anchor="start" x="482" y="-252" font-family="Helvetica,sans-Serif" font-size="10.00">/AliceO2Group/AliceO2</text>
<text text-anchor="start" x="482" y="-241" font-family="Helvetica,sans-Serif" font-size="10.00">/Detectors/ITSMFT/ITS</text>
<text text-anchor="start" x="482" y="-230" font-family="Helvetica,sans-Serif" font-size="10.00">/reconstruction/include</text>
<text text-anchor="start" x="482" y="-219" font-family="Helvetica,sans-Serif" font-size="10.00">/ITSReconstruction/CA/PrimaryVertex</text>
<text text-anchor="middle" x="566" y="-208" font-family="Helvetica,sans-Serif" font-size="10.00">Context.h</text>
</a>
</g>
</g>
<!-- Node2&#45;&gt;Node8 -->
<g id="edge7" class="edge"><title>Node2&#45;&gt;Node8</title>
<path fill="none" stroke="midnightblue" d="M528.7,-303.653C534.071,-294.343 539.774,-284.458 545.062,-275.292"/>
<polygon fill="midnightblue" stroke="midnightblue" points="525.643,-301.948 523.677,-312.359 531.706,-305.446 525.643,-301.948"/>
</g>
<!-- Node9 -->
<g id="node9" class="node"><title>Node9</title>
<g id="a_node9"><a xlink:href="../../d6/dd4/ITSMFT_2ITS_2reconstruction_2include_2ITSReconstruction_2CA_2Tracker_8h.html" target="_top" xlink:title="/home/travis/build\l/AliceO2Group/AliceO2\l/Detectors/ITSMFT/ITS\l/reconstruction/include\l/ITSReconstruction/CA/Tracker.h">
<polygon fill="none" stroke="black" points="436.5,-100.5 436.5,-163.5 599.5,-163.5 599.5,-100.5 436.5,-100.5"/>
<text text-anchor="start" x="444.5" y="-151.5" font-family="Helvetica,sans-Serif" font-size="10.00">/home/travis/build</text>
<text text-anchor="start" x="444.5" y="-140.5" font-family="Helvetica,sans-Serif" font-size="10.00">/AliceO2Group/AliceO2</text>
<text text-anchor="start" x="444.5" y="-129.5" font-family="Helvetica,sans-Serif" font-size="10.00">/Detectors/ITSMFT/ITS</text>
<text text-anchor="start" x="444.5" y="-118.5" font-family="Helvetica,sans-Serif" font-size="10.00">/reconstruction/include</text>
<text text-anchor="middle" x="518" y="-107.5" font-family="Helvetica,sans-Serif" font-size="10.00">/ITSReconstruction/CA/Tracker.h</text>
</a>
</g>
</g>
<!-- Node2&#45;&gt;Node9 -->
<g id="edge13" class="edge"><title>Node2&#45;&gt;Node9</title>
<path fill="none" stroke="midnightblue" d="M477.03,-303.562C472.069,-294.883 467.662,-285.45 465,-276 455.842,-243.488 453.907,-231.904 465,-200 469.579,-186.832 477.941,-174.301 486.69,-163.714"/>
<polygon fill="midnightblue" stroke="midnightblue" points="474.16,-305.58 482.349,-312.303 480.14,-301.941 474.16,-305.58"/>
</g>
<!-- Node11 -->
<g id="node11" class="node"><title>Node11</title>
<g id="a_node11"><a xlink:href="../../d9/d29/PrimaryVertexContext_8cxx.html" target="_top" xlink:title="/home/travis/build\l/AliceO2Group/AliceO2\l/Detectors/ITSMFT/ITS\l/reconstruction/src/CA\l/PrimaryVertexContext.cxx">
<polygon fill="none" stroke="black" points="618.5,-100.5 618.5,-163.5 753.5,-163.5 753.5,-100.5 618.5,-100.5"/>
<text text-anchor="start" x="626.5" y="-151.5" font-family="Helvetica,sans-Serif" font-size="10.00">/home/travis/build</text>
<text text-anchor="start" x="626.5" y="-140.5" font-family="Helvetica,sans-Serif" font-size="10.00">/AliceO2Group/AliceO2</text>
<text text-anchor="start" x="626.5" y="-129.5" font-family="Helvetica,sans-Serif" font-size="10.00">/Detectors/ITSMFT/ITS</text>
<text text-anchor="start" x="626.5" y="-118.5" font-family="Helvetica,sans-Serif" font-size="10.00">/reconstruction/src/CA</text>
<text text-anchor="middle" x="686" y="-107.5" font-family="Helvetica,sans-Serif" font-size="10.00">/PrimaryVertexContext.cxx</text>
</a>
</g>
</g>
<!-- Node2&#45;&gt;Node11 -->
<g id="edge15" class="edge"><title>Node2&#45;&gt;Node11</title>
<path fill="none" stroke="midnightblue" d="M593.313,-324.963C620.891,-315.004 648.87,-299.638 667,-276 691.691,-243.806 692.741,-195.093 690.183,-163.66"/>
<polygon fill="midnightblue" stroke="midnightblue" points="591.935,-321.735 583.592,-328.265 594.187,-328.363 591.935,-321.735"/>
</g>
<!-- Node12 -->
<g id="node12" class="node"><title>Node12</title>
<g id="a_node12"><a xlink:href="../../d7/d14/Event_8cxx.html" target="_top" xlink:title="/home/travis/build\l/AliceO2Group/AliceO2\l/Detectors/ITSMFT/ITS\l/reconstruction/src/CA\l/Event.cxx">
<polygon fill="none" stroke="black" points="714,-206.5 714,-269.5 834,-269.5 834,-206.5 714,-206.5"/>
<text text-anchor="start" x="722" y="-257.5" font-family="Helvetica,sans-Serif" font-size="10.00">/home/travis/build</text>
<text text-anchor="start" x="722" y="-246.5" font-family="Helvetica,sans-Serif" font-size="10.00">/AliceO2Group/AliceO2</text>
<text text-anchor="start" x="722" y="-235.5" font-family="Helvetica,sans-Serif" font-size="10.00">/Detectors/ITSMFT/ITS</text>
<text text-anchor="start" x="722" y="-224.5" font-family="Helvetica,sans-Serif" font-size="10.00">/reconstruction/src/CA</text>
<text text-anchor="middle" x="774" y="-213.5" font-family="Helvetica,sans-Serif" font-size="10.00">/Event.cxx</text>
</a>
</g>
</g>
<!-- Node2&#45;&gt;Node12 -->
<g id="edge14" class="edge"><title>Node2&#45;&gt;Node12</title>
<path fill="none" stroke="midnightblue" d="M593.627,-315.451C627.26,-304.173 665.77,-290.395 700,-276 704.767,-273.995 709.656,-271.823 714.539,-269.569"/>
<polygon fill="midnightblue" stroke="midnightblue" points="592.201,-312.237 583.819,-318.716 594.412,-318.879 592.201,-312.237"/>
</g>
<!-- Node2&#45;&gt;Node13 -->
<g id="edge16" class="edge"><title>Node2&#45;&gt;Node13</title>
<path fill="none" stroke="midnightblue" d="M593.716,-332.596C662.624,-322.747 760.269,-305.052 842,-276 847.181,-274.158 852.452,-271.989 857.658,-269.639"/>
<polygon fill="midnightblue" stroke="midnightblue" points="593.18,-329.137 583.763,-333.993 594.152,-336.069 593.18,-329.137"/>
</g>
<!-- Node4 -->
<g id="node4" class="node"><title>Node4</title>
<g id="a_node4"><a xlink:href="../../d5/d1a/IOUtils_8cxx.html" target="_top" xlink:title="/home/travis/build\l/AliceO2Group/AliceO2\l/Detectors/ITSMFT/ITS\l/reconstruction/src/CA\l/IOUtils.cxx">
<polygon fill="none" stroke="black" points="0,-100.5 0,-163.5 120,-163.5 120,-100.5 0,-100.5"/>
<text text-anchor="start" x="8" y="-151.5" font-family="Helvetica,sans-Serif" font-size="10.00">/home/travis/build</text>
<text text-anchor="start" x="8" y="-140.5" font-family="Helvetica,sans-Serif" font-size="10.00">/AliceO2Group/AliceO2</text>
<text text-anchor="start" x="8" y="-129.5" font-family="Helvetica,sans-Serif" font-size="10.00">/Detectors/ITSMFT/ITS</text>
<text text-anchor="start" x="8" y="-118.5" font-family="Helvetica,sans-Serif" font-size="10.00">/reconstruction/src/CA</text>
<text text-anchor="middle" x="60" y="-107.5" font-family="Helvetica,sans-Serif" font-size="10.00">/IOUtils.cxx</text>
</a>
</g>
</g>
<!-- Node3&#45;&gt;Node4 -->
<g id="edge3" class="edge"><title>Node3&#45;&gt;Node4</title>
<path fill="none" stroke="midnightblue" d="M141.072,-199.917C126.733,-188.081 111.029,-175.119 97.2927,-163.781"/>
<polygon fill="midnightblue" stroke="midnightblue" points="138.937,-202.693 148.877,-206.359 143.393,-197.294 138.937,-202.693"/>
</g>
<!-- Node3&#45;&gt;Node5 -->
<g id="edge4" class="edge"><title>Node3&#45;&gt;Node5</title>
<path fill="none" stroke="midnightblue" d="M169.198,-196.561C159.964,-167.485 153.699,-128.534 172,-100 191.121,-70.1863 227.203,-53.4641 258.711,-44.1816"/>
<polygon fill="midnightblue" stroke="midnightblue" points="166.012,-198.065 172.552,-206.401 172.638,-195.806 166.012,-198.065"/>
</g>
<!-- Node3&#45;&gt;Node6 -->
<g id="edge5" class="edge"><title>Node3&#45;&gt;Node6</title>
<path fill="none" stroke="midnightblue" d="M180.123,-196.016C178.21,-165.619 181.199,-125.237 205,-100 261.275,-40.3309 307.618,-88.1569 386,-64 396.263,-60.8369 407.05,-56.7234 417.087,-52.5324"/>
<polygon fill="midnightblue" stroke="midnightblue" points="176.663,-196.635 180.979,-206.311 183.639,-196.055 176.663,-196.635"/>
</g>
<!-- Node3&#45;&gt;Node7 -->
<g id="edge6" class="edge"><title>Node3&#45;&gt;Node7</title>
<path fill="none" stroke="midnightblue" d="M219.768,-198.828C233.651,-183.133 249.138,-165.627 260.648,-152.615"/>
<polygon fill="midnightblue" stroke="midnightblue" points="217.11,-196.55 213.105,-206.359 222.353,-201.188 217.11,-196.55"/>
</g>
<!-- Node8&#45;&gt;Node9 -->
<g id="edge8" class="edge"><title>Node8&#45;&gt;Node9</title>
<path fill="none" stroke="midnightblue" d="M545.075,-191.662C540.736,-182.262 536.261,-172.566 532.23,-163.831"/>
<polygon fill="midnightblue" stroke="midnightblue" points="541.978,-193.305 549.347,-200.918 548.334,-190.371 541.978,-193.305"/>
</g>
<!-- Node8&#45;&gt;Node11 -->
<g id="edge12" class="edge"><title>Node8&#45;&gt;Node11</title>
<path fill="none" stroke="midnightblue" d="M615.272,-194.297C627.052,-184.088 639.402,-173.385 650.426,-163.831"/>
<polygon fill="midnightblue" stroke="midnightblue" points="612.898,-191.723 607.633,-200.918 617.483,-197.013 612.898,-191.723"/>
</g>
<!-- Node9&#45;&gt;Node5 -->
<g id="edge10" class="edge"><title>Node9&#45;&gt;Node5</title>
<path fill="none" stroke="midnightblue" d="M446.436,-95.9338C416.676,-81.3514 383.251,-64.9732 357.961,-52.5811"/>
<polygon fill="midnightblue" stroke="midnightblue" points="445.021,-99.1381 455.541,-100.395 448.102,-92.8521 445.021,-99.1381"/>
</g>
<!-- Node9&#45;&gt;Node6 -->
<g id="edge11" class="edge"><title>Node9&#45;&gt;Node6</title>
<path fill="none" stroke="midnightblue" d="M494.288,-91.6145C486.193,-78.1683 477.493,-63.7166 470.756,-52.5274"/>
<polygon fill="midnightblue" stroke="midnightblue" points="491.338,-93.4991 499.494,-100.261 497.335,-89.8886 491.338,-93.4991"/>
</g>
<!-- Node9&#45;&gt;Node10 -->
<g id="edge9" class="edge"><title>Node9&#45;&gt;Node10</title>
<path fill="none" stroke="midnightblue" d="M609.618,-99.8273C668.207,-80.8893 724.638,-63.5548 765.984,-51.022"/>
<polygon fill="midnightblue" stroke="midnightblue" points="608.249,-96.5918 599.815,-103.005 610.407,-103.251 608.249,-96.5918"/>
</g>
</g>
</svg>
        <g id="navigator" transform="translate(0 0)" fill="#404254">
                <rect fill="#f2f5e9" fill-opacity="0.5" stroke="#606060" stroke-width=".5" x="0" y="0" width="60" height="60"/>
                <use id="zoomplus" xlink:href="#zoomPlus" x="17" y="9" onmousedown="handleZoom(evt,'in')"/>
                <use id="zoomminus" xlink:href="#zoomMin" x="42" y="9" onmousedown="handleZoom(evt,'out')"/>
                <use id="reset" xlink:href="#resetDef" x="30" y="36" onmousedown="handleReset()"/>
                <g id="arrowUp" xlink:href="#dirArrow" transform="translate(30 24)" onmousedown="handlePan(0,-1)">
                  <use xlink:href="#rim" fill="#404040">
                        <set attributeName="fill" to="#808080" begin="arrowUp.mouseover" end="arrowUp.mouseout"/>
                  </use>
                  <path fill="none" stroke="white" stroke-width="1.5" d="M0,-3.0v7 M-2.5,-0.5L0,-3.0L2.5,-0.5"/>
                </g>
                <g id="arrowRight" xlink:href="#dirArrow" transform="rotate(90) translate(36 -43)" onmousedown="handlePan(1,0)">
                  <use xlink:href="#rim" fill="#404040">
                        <set attributeName="fill" to="#808080" begin="arrowRight.mouseover" end="arrowRight.mouseout"/>
                  </use>
                  <path fill="none" stroke="white" stroke-width="1.5" d="M0,-3.0v7 M-2.5,-0.5L0,-3.0L2.5,-0.5"/>
                </g>
                <g id="arrowDown" xlink:href="#dirArrow" transform="rotate(180) translate(-30 -48)" onmousedown="handlePan(0,1)">
                  <use xlink:href="#rim" fill="#404040">
                        <set attributeName="fill" to="#808080" begin="arrowDown.mouseover" end="arrowDown.mouseout"/>
                  </use>
                  <path fill="none" stroke="white" stroke-width="1.5" d="M0,-3.0v7 M-2.5,-0.5L0,-3.0L2.5,-0.5"/>
                </g>
                <g id="arrowLeft" xlink:href="#dirArrow" transform="rotate(270) translate(-36 17)" onmousedown="handlePan(-1,0)">
                  <use xlink:href="#rim" fill="#404040">
                        <set attributeName="fill" to="#808080" begin="arrowLeft.mouseover" end="arrowLeft.mouseout"/>
                  </use>
                  <path fill="none" stroke="white" stroke-width="1.5" d="M0,-3.0v7 M-2.5,-0.5L0,-3.0L2.5,-0.5"/>
                </g>
        </g>
        <svg viewBox="0 0 15 15" width="100%" height="30px" preserveAspectRatio="xMaxYMin meet">
         <g id="arrow_out" transform="scale(0.3 0.3)">
          <a xlink:href="Layer_8h__dep__incl_org.svg" target="_base">
           <rect id="button" ry="5" rx="5" y="6" x="6" height="38" width="38"
                fill="#f2f5e9" fill-opacity="0.5" stroke="#606060" stroke-width="1.0"/>
           <path id="arrow"
             d="M 11.500037,31.436501 C 11.940474,20.09759 22.043105,11.32322 32.158766,21.979434 L 37.068811,17.246167 C 37.068811,17.246167 37.088388,32 37.088388,32 L 22.160133,31.978069 C 22.160133,31.978069 26.997745,27.140456 26.997745,27.140456 C 18.528582,18.264221 13.291696,25.230495 11.500037,31.436501 z"
             style="fill:#404040;"/>
          </a>
         </g>
        </svg>
</svg>
