<?xml version="1.0" encoding="UTF-8" standalone="no"?>
<!DOCTYPE svg PUBLIC "-//W3C//DTD SVG 1.1//EN"
 "http://www.w3.org/Graphics/SVG/1.1/DTD/svg11.dtd">
<!-- Generated by graphviz version 2.36.0 (20140111.2315)
 -->
<!-- Title: /home/travis/build/AliceO2Group/AliceO2/Common/Utils/test/testBoostSerializer.cxx Pages: 1 -->
<!--zoomable 198 -->
<svg id="main" version="1.1" xmlns="http://www.w3.org/2000/svg" xmlns:xlink="http://www.w3.org/1999/xlink" xml:space="preserve" onload="init(evt)">
<style type="text/css"><![CDATA[
.edge:hover path { stroke: red; }
.edge:hover polygon { stroke: red; fill: red; }
]]></style>
<script type="text/javascript"><![CDATA[
var edges = document.getElementsByTagName('g');
if (edges && edges.length) {
  for (var i=0;i<edges.length;i++) {
    if (edges[i].id.substr(0,4)=='edge') {
      edges[i].setAttribute('class','edge');
    }
  }
}
]]></script>
        <defs>
                <circle id="rim" cx="0" cy="0" r="7"/>
                <circle id="rim2" cx="0" cy="0" r="3.5"/>
                <g id="zoomPlus">
                        <use xlink:href="#rim" fill="#404040">
                                <set attributeName="fill" to="#808080" begin="zoomplus.mouseover" end="zoomplus.mouseout"/>
                        </use>
                        <path d="M-4,0h8M0,-4v8" fill="none" stroke="white" stroke-width="1.5" pointer-events="none"/>
                </g>
                <g id="zoomMin">
                        <use xlink:href="#rim" fill="#404040">
                                <set attributeName="fill" to="#808080" begin="zoomminus.mouseover" end="zoomminus.mouseout"/>
                        </use>
                        <path d="M-4,0h8" fill="none" stroke="white" stroke-width="1.5" pointer-events="none"/>
                </g>
                <g id="dirArrow">
                        <path fill="none" stroke="white" stroke-width="1.5" d="M0,-3.0v7 M-2.5,-0.5L0,-3.0L2.5,-0.5"/>
                </g>
               <g id="resetDef">
                       <use xlink:href="#rim2" fill="#404040">
                               <set attributeName="fill" to="#808080" begin="reset.mouseover" end="reset.mouseout"/>
                       </use>
               </g>
        </defs>

<script type="text/javascript">
var viewWidth = 1371;
var viewHeight = 198;
var sectionId = 'dynsection-0';
</script>
<script xlink:href="../../svgpan.js"/>
<svg id="graph" class="graph">
<g id="viewport">
<title>/home/travis/build/AliceO2Group/AliceO2/Common/Utils/test/testBoostSerializer.cxx</title>
<!-- Node1 -->
<g id="node1" class="node"><title>Node1</title>
<polygon fill="#bfbfbf" stroke="black" points="447.5,-137 447.5,-189 594.5,-189 594.5,-137 447.5,-137"/>
<text text-anchor="start" x="455.5" y="-177" font-family="Helvetica,sans-Serif" font-size="10.00">/home/travis/build</text>
<text text-anchor="start" x="455.5" y="-166" font-family="Helvetica,sans-Serif" font-size="10.00">/AliceO2Group/AliceO2</text>
<text text-anchor="start" x="455.5" y="-155" font-family="Helvetica,sans-Serif" font-size="10.00">/Common/Utils/test/testBoost</text>
<text text-anchor="middle" x="521" y="-144" font-family="Helvetica,sans-Serif" font-size="10.00">Serializer.cxx</text>
</g>
<!-- Node2 -->
<g id="node2" class="node"><title>Node2</title>
<polygon fill="none" stroke="#bfbfbf" points="204.5,-74.5 204.5,-93.5 323.5,-93.5 323.5,-74.5 204.5,-74.5"/>
<text text-anchor="middle" x="264" y="-81.5" font-family="Helvetica,sans-Serif" font-size="10.00">boost/test/unit_test.hpp</text>
</g>
<!-- Node1&#45;&gt;Node2 -->
<g id="edge1" class="edge"><title>Node1&#45;&gt;Node2</title>
<path fill="none" stroke="midnightblue" d="M447.354,-139.935C399.971,-125.738 340.337,-107.871 302.186,-96.441"/>
<polygon fill="midnightblue" stroke="midnightblue" points="303.081,-93.0554 292.497,-93.538 301.072,-99.7609 303.081,-93.0554"/>
</g>
<!-- Node3 -->
<g id="node3" class="node"><title>Node3</title>
<polygon fill="none" stroke="#bfbfbf" points="341.5,-69 341.5,-99 442.5,-99 442.5,-69 341.5,-69"/>
<text text-anchor="start" x="349.5" y="-87" font-family="Helvetica,sans-Serif" font-size="10.00">boost/test/data/test</text>
<text text-anchor="middle" x="392" y="-76" font-family="Helvetica,sans-Serif" font-size="10.00">_case.hpp</text>
</g>
<!-- Node1&#45;&gt;Node3 -->
<g id="edge2" class="edge"><title>Node1&#45;&gt;Node3</title>
<path fill="none" stroke="midnightblue" d="M478.761,-136.787C461.029,-126.203 440.739,-114.092 424.241,-104.245"/>
<polygon fill="midnightblue" stroke="midnightblue" points="425.886,-101.151 415.506,-99.0307 422.299,-107.161 425.886,-101.151"/>
</g>
<!-- Node4 -->
<g id="node4" class="node"><title>Node4</title>
<polygon fill="none" stroke="#bfbfbf" points="461,-74.5 461,-93.5 515,-93.5 515,-74.5 461,-74.5"/>
<text text-anchor="middle" x="488" y="-81.5" font-family="Helvetica,sans-Serif" font-size="10.00">iostream</text>
</g>
<!-- Node1&#45;&gt;Node4 -->
<g id="edge3" class="edge"><title>Node1&#45;&gt;Node4</title>
<path fill="none" stroke="midnightblue" d="M510.195,-136.787C505.451,-125.719 499.992,-112.982 495.675,-102.909"/>
<polygon fill="midnightblue" stroke="midnightblue" points="498.824,-101.37 491.668,-93.5577 492.39,-104.128 498.824,-101.37"/>
</g>
<!-- Node5 -->
<g id="node5" class="node"><title>Node5</title>
<polygon fill="none" stroke="#bfbfbf" points="533,-74.5 533,-93.5 577,-93.5 577,-74.5 533,-74.5"/>
<text text-anchor="middle" x="555" y="-81.5" font-family="Helvetica,sans-Serif" font-size="10.00">vector</text>
</g>
<!-- Node1&#45;&gt;Node5 -->
<g id="edge4" class="edge"><title>Node1&#45;&gt;Node5</title>
<path fill="none" stroke="midnightblue" d="M532.133,-136.787C537.02,-125.719 542.644,-112.982 547.092,-102.909"/>
<polygon fill="midnightblue" stroke="midnightblue" points="550.384,-104.119 551.221,-93.5577 543.98,-101.292 550.384,-104.119"/>
</g>
<!-- Node6 -->
<g id="node6" class="node"><title>Node6</title>
<g id="a_node6"><a xlink:href="../../d7/d91/BoostSerializer_8h.html" target="_top" xlink:title="Templatised boost serializer/deserializer for containers and base types. ">
<polygon fill="none" stroke="black" points="595,-74.5 595,-93.5 749,-93.5 749,-74.5 595,-74.5"/>
<text text-anchor="middle" x="672" y="-81.5" font-family="Helvetica,sans-Serif" font-size="10.00">CommonUtils/BoostSerializer.h</text>
</a>
</g>
</g>
<!-- Node1&#45;&gt;Node6 -->
<g id="edge5" class="edge"><title>Node1&#45;&gt;Node6</title>
<path fill="none" stroke="midnightblue" d="M570.443,-136.787C595.689,-123.914 625.365,-108.781 646.095,-98.2098"/>
<polygon fill="midnightblue" stroke="midnightblue" points="647.899,-101.219 655.218,-93.5577 644.719,-94.9825 647.899,-101.219"/>
</g>
<!-- Node17 -->
<g id="node17" class="node"><title>Node17</title>
<g id="a_node17"><a xlink:href="../../d6/d31/Cluster2D_8h.html" target="_top" xlink:title="Reconstructed cluster per RPC. ">
<polygon fill="none" stroke="black" points="1177,-74.5 1177,-93.5 1325,-93.5 1325,-74.5 1177,-74.5"/>
<text text-anchor="middle" x="1251" y="-81.5" font-family="Helvetica,sans-Serif" font-size="10.00">DataFormatsMID/Cluster2D.h</text>
</a>
</g>
</g>
<!-- Node1&#45;&gt;Node17 -->
<g id="edge16" class="edge"><title>Node1&#45;&gt;Node17</title>
<path fill="none" stroke="midnightblue" d="M594.675,-154.229C731.227,-139.825 1022.8,-109.071 1166.87,-93.8745"/>
<polygon fill="midnightblue" stroke="midnightblue" points="1167.4,-97.3374 1176.98,-92.8077 1166.67,-90.376 1167.4,-97.3374"/>
</g>
<!-- Node7 -->
<g id="node7" class="node"><title>Node7</title>
<polygon fill="none" stroke="#bfbfbf" points="0,-1 0,-31 104,-31 104,-1 0,-1"/>
<text text-anchor="start" x="8" y="-19" font-family="Helvetica,sans-Serif" font-size="10.00">boost/archive/binary</text>
<text text-anchor="middle" x="52" y="-8" font-family="Helvetica,sans-Serif" font-size="10.00">_iarchive.hpp</text>
</g>
<!-- Node6&#45;&gt;Node7 -->
<g id="edge6" class="edge"><title>Node6&#45;&gt;Node7</title>
<path fill="none" stroke="midnightblue" d="M627.414,-74.4787C613.836,-72.1089 598.841,-69.7172 585,-68 379.476,-42.5026 322.517,-64.521 114.165,-32.008"/>
<polygon fill="midnightblue" stroke="midnightblue" points="114.552,-28.5258 104.128,-30.4181 113.457,-35.4396 114.552,-28.5258"/>
</g>
<!-- Node8 -->
<g id="node8" class="node"><title>Node8</title>
<polygon fill="none" stroke="#bfbfbf" points="122,-1 122,-31 226,-31 226,-1 122,-1"/>
<text text-anchor="start" x="130" y="-19" font-family="Helvetica,sans-Serif" font-size="10.00">boost/archive/binary</text>
<text text-anchor="middle" x="174" y="-8" font-family="Helvetica,sans-Serif" font-size="10.00">_oarchive.hpp</text>
</g>
<!-- Node6&#45;&gt;Node8 -->
<g id="edge7" class="edge"><title>Node6&#45;&gt;Node8</title>
<path fill="none" stroke="midnightblue" d="M626.037,-74.4721C612.818,-72.1834 598.362,-69.8369 585,-68 433.258,-47.1397 390.804,-58.2551 236.015,-32.0236"/>
<polygon fill="midnightblue" stroke="midnightblue" points="236.591,-28.5714 226.143,-30.3262 235.405,-35.4701 236.591,-28.5714"/>
</g>
<!-- Node9 -->
<g id="node9" class="node"><title>Node9</title>
<polygon fill="none" stroke="#bfbfbf" points="244,-1 244,-31 380,-31 380,-1 244,-1"/>
<text text-anchor="start" x="252" y="-19" font-family="Helvetica,sans-Serif" font-size="10.00">boost/serialization</text>
<text text-anchor="middle" x="312" y="-8" font-family="Helvetica,sans-Serif" font-size="10.00">/is_bitwise_serializable.hpp</text>
</g>
<!-- Node6&#45;&gt;Node9 -->
<g id="edge8" class="edge"><title>Node6&#45;&gt;Node9</title>
<path fill="none" stroke="midnightblue" d="M623.64,-74.4987C569.303,-64.899 478.195,-48.6603 389.923,-32.1592"/>
<polygon fill="midnightblue" stroke="midnightblue" points="390.484,-28.7033 380.01,-30.3027 389.195,-35.5837 390.484,-28.7033"/>
</g>
<!-- Node10 -->
<g id="node10" class="node"><title>Node10</title>
<polygon fill="none" stroke="#bfbfbf" points="398.5,-1 398.5,-31 493.5,-31 493.5,-1 398.5,-1"/>
<text text-anchor="start" x="406.5" y="-19" font-family="Helvetica,sans-Serif" font-size="10.00">boost/serialization</text>
<text text-anchor="middle" x="446" y="-8" font-family="Helvetica,sans-Serif" font-size="10.00">/serialization.hpp</text>
</g>
<!-- Node6&#45;&gt;Node10 -->
<g id="edge9" class="edge"><title>Node6&#45;&gt;Node10</title>
<path fill="none" stroke="midnightblue" d="M642.454,-74.3717C607.304,-64.1065 547.812,-46.7326 503.484,-33.7875"/>
<polygon fill="midnightblue" stroke="midnightblue" points="504.285,-30.375 493.704,-30.9314 502.322,-37.0944 504.285,-30.375"/>
</g>
<!-- Node11 -->
<g id="node11" class="node"><title>Node11</title>
<polygon fill="none" stroke="#bfbfbf" points="511.5,-1 511.5,-31 606.5,-31 606.5,-1 511.5,-1"/>
<text text-anchor="start" x="519.5" y="-19" font-family="Helvetica,sans-Serif" font-size="10.00">boost/serialization</text>
<text text-anchor="middle" x="559" y="-8" font-family="Helvetica,sans-Serif" font-size="10.00">/array.hpp</text>
</g>
<!-- Node6&#45;&gt;Node11 -->
<g id="edge10" class="edge"><title>Node6&#45;&gt;Node11</title>
<path fill="none" stroke="midnightblue" d="M657.227,-74.3717C640.791,-64.7715 613.709,-48.9537 592.14,-36.3559"/>
<polygon fill="midnightblue" stroke="midnightblue" points="593.681,-33.2027 583.28,-31.1815 590.15,-39.2472 593.681,-33.2027"/>
</g>
<!-- Node12 -->
<g id="node12" class="node"><title>Node12</title>
<polygon fill="none" stroke="#bfbfbf" points="624.5,-1 624.5,-31 719.5,-31 719.5,-1 624.5,-1"/>
<text text-anchor="start" x="632.5" y="-19" font-family="Helvetica,sans-Serif" font-size="10.00">boost/serialization</text>
<text text-anchor="middle" x="672" y="-8" font-family="Helvetica,sans-Serif" font-size="10.00">/vector.hpp</text>
</g>
<!-- Node6&#45;&gt;Node12 -->
<g id="edge11" class="edge"><title>Node6&#45;&gt;Node12</title>
<path fill="none" stroke="midnightblue" d="M672,-74.3717C672,-65.9715 672,-52.811 672,-41.2126"/>
<polygon fill="midnightblue" stroke="midnightblue" points="675.5,-41.1814 672,-31.1815 668.5,-41.1815 675.5,-41.1814"/>
</g>
<!-- Node13 -->
<g id="node13" class="node"><title>Node13</title>
<polygon fill="none" stroke="#bfbfbf" points="737.5,-1 737.5,-31 832.5,-31 832.5,-1 737.5,-1"/>
<text text-anchor="start" x="745.5" y="-19" font-family="Helvetica,sans-Serif" font-size="10.00">boost/serialization</text>
<text text-anchor="middle" x="785" y="-8" font-family="Helvetica,sans-Serif" font-size="10.00">/list.hpp</text>
</g>
<!-- Node6&#45;&gt;Node13 -->
<g id="edge12" class="edge"><title>Node6&#45;&gt;Node13</title>
<path fill="none" stroke="midnightblue" d="M686.773,-74.3717C703.209,-64.7715 730.291,-48.9537 751.86,-36.3559"/>
<polygon fill="midnightblue" stroke="midnightblue" points="753.85,-39.2472 760.72,-31.1815 750.319,-33.2027 753.85,-39.2472"/>
</g>
<!-- Node14 -->
<g id="node14" class="node"><title>Node14</title>
<polygon fill="none" stroke="#bfbfbf" points="850.5,-1 850.5,-31 945.5,-31 945.5,-1 850.5,-1"/>
<text text-anchor="start" x="858.5" y="-19" font-family="Helvetica,sans-Serif" font-size="10.00">boost/serialization</text>
<text text-anchor="middle" x="898" y="-8" font-family="Helvetica,sans-Serif" font-size="10.00">/map.hpp</text>
</g>
<!-- Node6&#45;&gt;Node14 -->
<g id="edge13" class="edge"><title>Node6&#45;&gt;Node14</title>
<path fill="none" stroke="midnightblue" d="M701.546,-74.3717C736.696,-64.1065 796.188,-46.7326 840.516,-33.7875"/>
<polygon fill="midnightblue" stroke="midnightblue" points="841.678,-37.0944 850.296,-30.9314 839.715,-30.375 841.678,-37.0944"/>
</g>
<!-- Node15 -->
<g id="node15" class="node"><title>Node15</title>
<polygon fill="none" stroke="#bfbfbf" points="963.5,-1 963.5,-31 1058.5,-31 1058.5,-1 963.5,-1"/>
<text text-anchor="start" x="971.5" y="-19" font-family="Helvetica,sans-Serif" font-size="10.00">boost/serialization</text>
<text text-anchor="middle" x="1011" y="-8" font-family="Helvetica,sans-Serif" font-size="10.00">/set.hpp</text>
</g>
<!-- Node6&#45;&gt;Node15 -->
<g id="edge14" class="edge"><title>Node6&#45;&gt;Node15</title>
<path fill="none" stroke="midnightblue" d="M726.313,-74.4758C781.171,-65.5745 868.529,-50.6042 953.652,-31.9729"/>
<polygon fill="midnightblue" stroke="midnightblue" points="954.472,-35.3763 963.482,-29.8026 952.963,-28.5409 954.472,-35.3763"/>
</g>
<!-- Node16 -->
<g id="node16" class="node"><title>Node16</title>
<polygon fill="none" stroke="#bfbfbf" points="1077,-6.5 1077,-25.5 1185,-25.5 1185,-6.5 1077,-6.5"/>
<text text-anchor="middle" x="1131" y="-13.5" font-family="Helvetica,sans-Serif" font-size="10.00">boost/type_traits.hpp</text>
</g>
<!-- Node6&#45;&gt;Node16 -->
<g id="edge15" class="edge"><title>Node6&#45;&gt;Node16</title>
<path fill="none" stroke="midnightblue" d="M749.189,-75.3848C829.072,-66.9545 957.29,-51.8858 1067,-32 1073.71,-30.7829 1080.78,-29.316 1087.68,-27.7823"/>
<polygon fill="midnightblue" stroke="midnightblue" points="1088.62,-31.1565 1097.59,-25.509 1087.06,-24.3337 1088.62,-31.1565"/>
</g>
<!-- Node18 -->
<g id="node18" class="node"><title>Node18</title>
<polygon fill="none" stroke="#bfbfbf" points="1203.5,-1 1203.5,-31 1298.5,-31 1298.5,-1 1203.5,-1"/>
<text text-anchor="start" x="1211.5" y="-19" font-family="Helvetica,sans-Serif" font-size="10.00">boost/serialization</text>
<text text-anchor="middle" x="1251" y="-8" font-family="Helvetica,sans-Serif" font-size="10.00">/access.hpp</text>
</g>
<!-- Node17&#45;&gt;Node18 -->
<g id="edge17" class="edge"><title>Node17&#45;&gt;Node18</title>
<path fill="none" stroke="midnightblue" d="M1251,-74.3717C1251,-65.9715 1251,-52.811 1251,-41.2126"/>
<polygon fill="midnightblue" stroke="midnightblue" points="1254.5,-41.1814 1251,-31.1815 1247.5,-41.1815 1254.5,-41.1814"/>
</g>
<!-- Node19 -->
<g id="node19" class="node"><title>Node19</title>
<polygon fill="none" stroke="#bfbfbf" points="1317,-6.5 1317,-25.5 1363,-25.5 1363,-6.5 1317,-6.5"/>
<text text-anchor="middle" x="1340" y="-13.5" font-family="Helvetica,sans-Serif" font-size="10.00">cstdint</text>
</g>
<!-- Node17&#45;&gt;Node19 -->
<g id="edge18" class="edge"><title>Node17&#45;&gt;Node19</title>
<path fill="none" stroke="midnightblue" d="M1262.64,-74.3717C1277.16,-63.6004 1302.24,-45.0021 1319.9,-31.9065"/>
<polygon fill="midnightblue" stroke="midnightblue" points="1322.41,-34.3984 1328.36,-25.6305 1318.24,-28.7758 1322.41,-34.3984"/>
</g>
</g>
</svg>
        <g id="navigator" transform="translate(0 0)" fill="#404254">
                <rect fill="#f2f5e9" fill-opacity="0.5" stroke="#606060" stroke-width=".5" x="0" y="0" width="60" height="60"/>
                <use id="zoomplus" xlink:href="#zoomPlus" x="17" y="9" onmousedown="handleZoom(evt,'in')"/>
                <use id="zoomminus" xlink:href="#zoomMin" x="42" y="9" onmousedown="handleZoom(evt,'out')"/>
                <use id="reset" xlink:href="#resetDef" x="30" y="36" onmousedown="handleReset()"/>
                <g id="arrowUp" xlink:href="#dirArrow" transform="translate(30 24)" onmousedown="handlePan(0,-1)">
                  <use xlink:href="#rim" fill="#404040">
                        <set attributeName="fill" to="#808080" begin="arrowUp.mouseover" end="arrowUp.mouseout"/>
                  </use>
                  <path fill="none" stroke="white" stroke-width="1.5" d="M0,-3.0v7 M-2.5,-0.5L0,-3.0L2.5,-0.5"/>
                </g>
                <g id="arrowRight" xlink:href="#dirArrow" transform="rotate(90) translate(36 -43)" onmousedown="handlePan(1,0)">
                  <use xlink:href="#rim" fill="#404040">
                        <set attributeName="fill" to="#808080" begin="arrowRight.mouseover" end="arrowRight.mouseout"/>
                  </use>
                  <path fill="none" stroke="white" stroke-width="1.5" d="M0,-3.0v7 M-2.5,-0.5L0,-3.0L2.5,-0.5"/>
                </g>
                <g id="arrowDown" xlink:href="#dirArrow" transform="rotate(180) translate(-30 -48)" onmousedown="handlePan(0,1)">
                  <use xlink:href="#rim" fill="#404040">
                        <set attributeName="fill" to="#808080" begin="arrowDown.mouseover" end="arrowDown.mouseout"/>
                  </use>
                  <path fill="none" stroke="white" stroke-width="1.5" d="M0,-3.0v7 M-2.5,-0.5L0,-3.0L2.5,-0.5"/>
                </g>
                <g id="arrowLeft" xlink:href="#dirArrow" transform="rotate(270) translate(-36 17)" onmousedown="handlePan(-1,0)">
                  <use xlink:href="#rim" fill="#404040">
                        <set attributeName="fill" to="#808080" begin="arrowLeft.mouseover" end="arrowLeft.mouseout"/>
                  </use>
                  <path fill="none" stroke="white" stroke-width="1.5" d="M0,-3.0v7 M-2.5,-0.5L0,-3.0L2.5,-0.5"/>
                </g>
        </g>
        <svg viewBox="0 0 15 15" width="100%" height="30px" preserveAspectRatio="xMaxYMin meet">
         <g id="arrow_out" transform="scale(0.3 0.3)">
          <a xlink:href="testBoostSerializer_8cxx__incl_org.svg" target="_base">
           <rect id="button" ry="5" rx="5" y="6" x="6" height="38" width="38"
                fill="#f2f5e9" fill-opacity="0.5" stroke="#606060" stroke-width="1.0"/>
           <path id="arrow"
             d="M 11.500037,31.436501 C 11.940474,20.09759 22.043105,11.32322 32.158766,21.979434 L 37.068811,17.246167 C 37.068811,17.246167 37.088388,32 37.088388,32 L 22.160133,31.978069 C 22.160133,31.978069 26.997745,27.140456 26.997745,27.140456 C 18.528582,18.264221 13.291696,25.230495 11.500037,31.436501 z"
             style="fill:#404040;"/>
          </a>
         </g>
        </svg>
</svg>
