<?xml version="1.0" encoding="UTF-8" standalone="no"?>
<!DOCTYPE svg PUBLIC "-//W3C//DTD SVG 1.1//EN"
 "http://www.w3.org/Graphics/SVG/1.1/DTD/svg11.dtd">
<!-- Generated by graphviz version 2.36.0 (20140111.2315)
 -->
<!-- Title: /home/travis/build/AliceO2Group/AliceO2/Detectors/FIT/macros/readHitsDigits.C Pages: 1 -->
<!--zoomable 378 -->
<svg id="main" version="1.1" xmlns="http://www.w3.org/2000/svg" xmlns:xlink="http://www.w3.org/1999/xlink" xml:space="preserve" onload="init(evt)">
<style type="text/css"><![CDATA[
.edge:hover path { stroke: red; }
.edge:hover polygon { stroke: red; fill: red; }
]]></style>
<script type="text/javascript"><![CDATA[
var edges = document.getElementsByTagName('g');
if (edges && edges.length) {
  for (var i=0;i<edges.length;i++) {
    if (edges[i].id.substr(0,4)=='edge') {
      edges[i].setAttribute('class','edge');
    }
  }
}
]]></script>
        <defs>
                <circle id="rim" cx="0" cy="0" r="7"/>
                <circle id="rim2" cx="0" cy="0" r="3.5"/>
                <g id="zoomPlus">
                        <use xlink:href="#rim" fill="#404040">
                                <set attributeName="fill" to="#808080" begin="zoomplus.mouseover" end="zoomplus.mouseout"/>
                        </use>
                        <path d="M-4,0h8M0,-4v8" fill="none" stroke="white" stroke-width="1.5" pointer-events="none"/>
                </g>
                <g id="zoomMin">
                        <use xlink:href="#rim" fill="#404040">
                                <set attributeName="fill" to="#808080" begin="zoomminus.mouseover" end="zoomminus.mouseout"/>
                        </use>
                        <path d="M-4,0h8" fill="none" stroke="white" stroke-width="1.5" pointer-events="none"/>
                </g>
                <g id="dirArrow">
                        <path fill="none" stroke="white" stroke-width="1.5" d="M0,-3.0v7 M-2.5,-0.5L0,-3.0L2.5,-0.5"/>
                </g>
               <g id="resetDef">
                       <use xlink:href="#rim2" fill="#404040">
                               <set attributeName="fill" to="#808080" begin="reset.mouseover" end="reset.mouseout"/>
                       </use>
               </g>
        </defs>

<script type="text/javascript">
var viewWidth = 2513;
var viewHeight = 378;
var sectionId = 'dynsection-0';
</script>
<script xlink:href="../../svgpan.js"/>
<svg id="graph" class="graph">
<g id="viewport">
<title>/home/travis/build/AliceO2Group/AliceO2/Detectors/FIT/macros/readHitsDigits.C</title>
<!-- Node1 -->
<g id="node1" class="node"><title>Node1</title>
<polygon fill="#bfbfbf" stroke="black" points="1503.57,-317 1503.57,-369 1621.57,-369 1621.57,-317 1503.57,-317"/>
<text text-anchor="start" x="1511.57" y="-357" font-family="Helvetica,sans-Serif" font-size="10.00">/home/travis/build</text>
<text text-anchor="start" x="1511.57" y="-346" font-family="Helvetica,sans-Serif" font-size="10.00">/AliceO2Group/AliceO2</text>
<text text-anchor="start" x="1511.57" y="-335" font-family="Helvetica,sans-Serif" font-size="10.00">/Detectors/FIT/macros</text>
<text text-anchor="middle" x="1562.57" y="-324" font-family="Helvetica,sans-Serif" font-size="10.00">/readHitsDigits.C</text>
</g>
<!-- Node2 -->
<g id="node2" class="node"><title>Node2</title>
<g id="a_node2"><a xlink:href="../../de/d6b/FIT_2simulation_2include_2FITSimulation_2Detector_8h.html" target="_top" xlink:title="FITSimulation/Detector.h">
<polygon fill="none" stroke="black" points="1330.57,-260.5 1330.57,-279.5 1456.57,-279.5 1456.57,-260.5 1330.57,-260.5"/>
<text text-anchor="middle" x="1393.57" y="-267.5" font-family="Helvetica,sans-Serif" font-size="10.00">FITSimulation/Detector.h</text>
</a>
</g>
</g>
<!-- Node1&#45;&gt;Node2 -->
<g id="edge1" class="edge"><title>Node1&#45;&gt;Node2</title>
<path fill="none" stroke="midnightblue" d="M1503.46,-317.168C1476.39,-305.793 1445.48,-292.808 1423.35,-283.513"/>
<polygon fill="midnightblue" stroke="midnightblue" points="1424.43,-280.167 1413.85,-279.52 1421.71,-286.62 1424.43,-280.167"/>
</g>
<!-- Node35 -->
<g id="node35" class="node"><title>Node35</title>
<g id="a_node35"><a xlink:href="../../d1/dde/FIT_2base_2include_2FITBase_2Digit_8h.html" target="_top" xlink:title="FITBase/Digit.h">
<polygon fill="none" stroke="black" points="1558.57,-198.5 1558.57,-217.5 1644.57,-217.5 1644.57,-198.5 1558.57,-198.5"/>
<text text-anchor="middle" x="1601.57" y="-205.5" font-family="Helvetica,sans-Serif" font-size="10.00">FITBase/Digit.h</text>
</a>
</g>
</g>
<!-- Node1&#45;&gt;Node35 -->
<g id="edge39" class="edge"><title>Node1&#45;&gt;Node35</title>
<path fill="none" stroke="midnightblue" d="M1567.38,-316.989C1570.76,-300.616 1575.73,-278.843 1581.57,-260 1585.05,-248.793 1589.82,-236.543 1593.83,-226.858"/>
<polygon fill="midnightblue" stroke="midnightblue" points="1597.1,-228.099 1597.78,-217.526 1590.66,-225.367 1597.1,-228.099"/>
</g>
<!-- Node37 -->
<g id="node37" class="node"><title>Node37</title>
<polygon fill="none" stroke="#bfbfbf" points="1590.57,-260.5 1590.57,-279.5 1640.57,-279.5 1640.57,-260.5 1590.57,-260.5"/>
<text text-anchor="middle" x="1615.57" y="-267.5" font-family="Helvetica,sans-Serif" font-size="10.00">TH2F.h</text>
</g>
<!-- Node1&#45;&gt;Node37 -->
<g id="edge44" class="edge"><title>Node1&#45;&gt;Node37</title>
<path fill="none" stroke="midnightblue" d="M1581.41,-316.768C1588.56,-307.183 1596.53,-296.506 1602.97,-287.877"/>
<polygon fill="midnightblue" stroke="midnightblue" points="1605.86,-289.864 1609.03,-279.757 1600.25,-285.677 1605.86,-289.864"/>
</g>
<!-- Node3 -->
<g id="node3" class="node"><title>Node3</title>
<g id="a_node3"><a xlink:href="../../d4/d25/BaseHits_8h.html" target="_top" xlink:title="SimulationDataFormat\l/BaseHits.h">
<polygon fill="none" stroke="black" points="1426.57,-193 1426.57,-223 1540.57,-223 1540.57,-193 1426.57,-193"/>
<text text-anchor="start" x="1434.57" y="-211" font-family="Helvetica,sans-Serif" font-size="10.00">SimulationDataFormat</text>
<text text-anchor="middle" x="1483.57" y="-200" font-family="Helvetica,sans-Serif" font-size="10.00">/BaseHits.h</text>
</a>
</g>
</g>
<!-- Node2&#45;&gt;Node3 -->
<g id="edge2" class="edge"><title>Node2&#45;&gt;Node3</title>
<path fill="none" stroke="midnightblue" d="M1406.47,-260.403C1418.77,-252.201 1437.75,-239.545 1453.8,-228.844"/>
<polygon fill="midnightblue" stroke="midnightblue" points="1455.98,-231.6 1462.36,-223.141 1452.1,-225.776 1455.98,-231.6"/>
</g>
<!-- Node16 -->
<g id="node16" class="node"><title>Node16</title>
<g id="a_node16"><a xlink:href="../../d1/d3a/Base_2include_2DetectorsBase_2Detector_8h.html" target="_top" xlink:title="DetectorsBase/Detector.h">
<polygon fill="none" stroke="black" points="719.071,-198.5 719.071,-217.5 850.071,-217.5 850.071,-198.5 719.071,-198.5"/>
<text text-anchor="middle" x="784.571" y="-205.5" font-family="Helvetica,sans-Serif" font-size="10.00">DetectorsBase/Detector.h</text>
</a>
</g>
</g>
<!-- Node2&#45;&gt;Node16 -->
<g id="edge15" class="edge"><title>Node2&#45;&gt;Node16</title>
<path fill="none" stroke="midnightblue" d="M1330.41,-262.777C1217.5,-251.653 981.548,-228.407 860.208,-216.452"/>
<polygon fill="midnightblue" stroke="midnightblue" points="860.546,-212.968 850.251,-215.471 859.86,-219.935 860.546,-212.968"/>
</g>
<!-- Node33 -->
<g id="node33" class="node"><title>Node33</title>
<g id="a_node33"><a xlink:href="../../d1/db1/FIT_2base_2include_2FITBase_2Geometry_8h.html" target="_top" xlink:title="FITBase/Geometry.h">
<polygon fill="none" stroke="black" points="1300.57,-198.5 1300.57,-217.5 1408.57,-217.5 1408.57,-198.5 1300.57,-198.5"/>
<text text-anchor="middle" x="1354.57" y="-205.5" font-family="Helvetica,sans-Serif" font-size="10.00">FITBase/Geometry.h</text>
</a>
</g>
</g>
<!-- Node2&#45;&gt;Node33 -->
<g id="edge36" class="edge"><title>Node2&#45;&gt;Node33</title>
<path fill="none" stroke="midnightblue" d="M1387.98,-260.403C1382.19,-251.493 1372.98,-237.325 1365.7,-226.118"/>
<polygon fill="midnightblue" stroke="midnightblue" points="1368.53,-224.058 1360.15,-217.581 1362.66,-227.873 1368.53,-224.058"/>
</g>
<!-- Node4 -->
<g id="node4" class="node"><title>Node4</title>
<g id="a_node4"><a xlink:href="../../dd/d76/Cartesian3D_8h.html" target="_top" xlink:title="MathUtils/Cartesian3D.h">
<polygon fill="none" stroke="black" points="1727.07,-136.5 1727.07,-155.5 1852.07,-155.5 1852.07,-136.5 1727.07,-136.5"/>
<text text-anchor="middle" x="1789.57" y="-143.5" font-family="Helvetica,sans-Serif" font-size="10.00">MathUtils/Cartesian3D.h</text>
</a>
</g>
</g>
<!-- Node3&#45;&gt;Node4 -->
<g id="edge3" class="edge"><title>Node3&#45;&gt;Node4</title>
<path fill="none" stroke="midnightblue" d="M1540.78,-193.858C1543.75,-193.219 1546.69,-192.596 1549.57,-192 1611.38,-179.186 1682.49,-166.054 1731.16,-157.309"/>
<polygon fill="midnightblue" stroke="midnightblue" points="1731.97,-160.72 1741.2,-155.511 1730.74,-153.829 1731.97,-160.72"/>
</g>
<!-- Node5 -->
<g id="node5" class="node"><title>Node5</title>
<polygon fill="none" stroke="#bfbfbf" points="1755.07,-69 1755.07,-99 1906.07,-99 1906.07,-69 1755.07,-69"/>
<text text-anchor="start" x="1763.07" y="-87" font-family="Helvetica,sans-Serif" font-size="10.00">Math/GenVector/Displacement</text>
<text text-anchor="middle" x="1830.57" y="-76" font-family="Helvetica,sans-Serif" font-size="10.00">Vector3D.h</text>
</g>
<!-- Node4&#45;&gt;Node5 -->
<g id="edge4" class="edge"><title>Node4&#45;&gt;Node5</title>
<path fill="none" stroke="midnightblue" d="M1795.44,-136.403C1800.58,-128.885 1808.28,-117.624 1815.16,-107.556"/>
<polygon fill="midnightblue" stroke="midnightblue" points="1818.16,-109.372 1820.91,-99.1408 1812.38,-105.423 1818.16,-109.372"/>
</g>
<!-- Node6 -->
<g id="node6" class="node"><title>Node6</title>
<polygon fill="none" stroke="#bfbfbf" points="1924.57,-74.5 1924.57,-93.5 2100.57,-93.5 2100.57,-74.5 1924.57,-74.5"/>
<text text-anchor="middle" x="2012.57" y="-81.5" font-family="Helvetica,sans-Serif" font-size="10.00">Math/GenVector/PositionVector3D.h</text>
</g>
<!-- Node4&#45;&gt;Node6 -->
<g id="edge5" class="edge"><title>Node4&#45;&gt;Node6</title>
<path fill="none" stroke="midnightblue" d="M1821.52,-136.403C1860.85,-125.822 1927.73,-107.827 1971.02,-96.1802"/>
<polygon fill="midnightblue" stroke="midnightblue" points="1971.93,-99.5586 1980.68,-93.5806 1970.11,-92.799 1971.93,-99.5586"/>
</g>
<!-- Node7 -->
<g id="node7" class="node"><title>Node7</title>
<polygon fill="none" stroke="#bfbfbf" points="2118.07,-74.5 2118.07,-93.5 2267.07,-93.5 2267.07,-74.5 2118.07,-74.5"/>
<text text-anchor="middle" x="2192.57" y="-81.5" font-family="Helvetica,sans-Serif" font-size="10.00">Math/GenVector/Rotation3D.h</text>
</g>
<!-- Node4&#45;&gt;Node7 -->
<g id="edge6" class="edge"><title>Node4&#45;&gt;Node7</title>
<path fill="none" stroke="midnightblue" d="M1852.32,-136.838C1916.72,-128.298 2019.79,-114.184 2108.57,-100 2117.59,-98.5583 2127.15,-96.9404 2136.45,-95.315"/>
<polygon fill="midnightblue" stroke="midnightblue" points="2137.17,-98.7421 2146.41,-93.5562 2135.95,-91.8488 2137.17,-98.7421"/>
</g>
<!-- Node8 -->
<g id="node8" class="node"><title>Node8</title>
<polygon fill="none" stroke="#bfbfbf" points="2285.57,-74.5 2285.57,-93.5 2441.57,-93.5 2441.57,-74.5 2285.57,-74.5"/>
<text text-anchor="middle" x="2363.57" y="-81.5" font-family="Helvetica,sans-Serif" font-size="10.00">Math/GenVector/Transform3D.h</text>
</g>
<!-- Node4&#45;&gt;Node8 -->
<g id="edge7" class="edge"><title>Node4&#45;&gt;Node8</title>
<path fill="none" stroke="midnightblue" d="M1852.27,-140.736C1945.01,-134.079 2124.13,-119.888 2275.57,-100 2285.93,-98.6389 2296.95,-96.9539 2307.54,-95.2101"/>
<polygon fill="midnightblue" stroke="midnightblue" points="2308.26,-98.6385 2317.54,-93.5288 2307.1,-91.7354 2308.26,-98.6385"/>
</g>
<!-- Node9 -->
<g id="node9" class="node"><title>Node9</title>
<polygon fill="none" stroke="#bfbfbf" points="1339.57,-74.5 1339.57,-93.5 1499.57,-93.5 1499.57,-74.5 1339.57,-74.5"/>
<text text-anchor="middle" x="1419.57" y="-81.5" font-family="Helvetica,sans-Serif" font-size="10.00">Math/GenVector/Translation3D.h</text>
</g>
<!-- Node4&#45;&gt;Node9 -->
<g id="edge8" class="edge"><title>Node4&#45;&gt;Node9</title>
<path fill="none" stroke="midnightblue" d="M1735.42,-136.462C1678.82,-127.507 1587.43,-112.959 1508.57,-100 1499.28,-98.4724 1489.44,-96.8351 1479.83,-95.2238"/>
<polygon fill="midnightblue" stroke="midnightblue" points="1480.36,-91.7652 1469.92,-93.5598 1479.2,-98.6685 1480.36,-91.7652"/>
</g>
<!-- Node10 -->
<g id="node10" class="node"><title>Node10</title>
<polygon fill="none" stroke="#bfbfbf" points="1265.57,-74.5 1265.57,-93.5 1321.57,-93.5 1321.57,-74.5 1265.57,-74.5"/>
<text text-anchor="middle" x="1293.57" y="-81.5" font-family="Helvetica,sans-Serif" font-size="10.00">Rtypes.h</text>
</g>
<!-- Node4&#45;&gt;Node10 -->
<g id="edge9" class="edge"><title>Node4&#45;&gt;Node10</title>
<path fill="none" stroke="midnightblue" d="M1727.04,-139.347C1605.92,-128.334 1349.52,-104.667 1330.57,-100 1327.51,-99.2454 1324.36,-98.2847 1321.26,-97.2152"/>
<polygon fill="midnightblue" stroke="midnightblue" points="1322.26,-93.8491 1311.67,-93.5464 1319.76,-100.387 1322.26,-93.8491"/>
</g>
<!-- Node11 -->
<g id="node11" class="node"><title>Node11</title>
<polygon fill="none" stroke="#bfbfbf" points="1517.57,-74.5 1517.57,-93.5 1593.57,-93.5 1593.57,-74.5 1517.57,-74.5"/>
<text text-anchor="middle" x="1555.57" y="-81.5" font-family="Helvetica,sans-Serif" font-size="10.00">TGeoMatrix.h</text>
</g>
<!-- Node4&#45;&gt;Node11 -->
<g id="edge10" class="edge"><title>Node4&#45;&gt;Node11</title>
<path fill="none" stroke="midnightblue" d="M1750.32,-136.428C1712.33,-127.927 1653.22,-114.157 1602.57,-100 1598.78,-98.9409 1594.84,-97.7789 1590.92,-96.585"/>
<polygon fill="midnightblue" stroke="midnightblue" points="1591.92,-93.2294 1581.33,-93.5921 1589.83,-99.9117 1591.92,-93.2294"/>
</g>
<!-- Node12 -->
<g id="node12" class="node"><title>Node12</title>
<polygon fill="none" stroke="#bfbfbf" points="2460.07,-74.5 2460.07,-93.5 2505.07,-93.5 2505.07,-74.5 2460.07,-74.5"/>
<text text-anchor="middle" x="2482.57" y="-81.5" font-family="Helvetica,sans-Serif" font-size="10.00">iosfwd</text>
</g>
<!-- Node4&#45;&gt;Node12 -->
<g id="edge11" class="edge"><title>Node4&#45;&gt;Node12</title>
<path fill="none" stroke="midnightblue" d="M1852.23,-143.677C1994.57,-140.196 2338.59,-128.971 2450.57,-100 2453.07,-99.3546 2455.6,-98.5172 2458.1,-97.5682"/>
<polygon fill="midnightblue" stroke="midnightblue" points="2459.61,-100.729 2467.38,-93.5251 2456.81,-94.3122 2459.61,-100.729"/>
</g>
<!-- Node13 -->
<g id="node13" class="node"><title>Node13</title>
<g id="a_node13"><a xlink:href="../../d2/dd0/Cartesian2D_8h.html" target="_top" xlink:title="MathUtils/Cartesian2D.h">
<polygon fill="none" stroke="black" points="1612.07,-74.5 1612.07,-93.5 1737.07,-93.5 1737.07,-74.5 1612.07,-74.5"/>
<text text-anchor="middle" x="1674.57" y="-81.5" font-family="Helvetica,sans-Serif" font-size="10.00">MathUtils/Cartesian2D.h</text>
</a>
</g>
</g>
<!-- Node4&#45;&gt;Node13 -->
<g id="edge12" class="edge"><title>Node4&#45;&gt;Node13</title>
<path fill="none" stroke="midnightblue" d="M1773.09,-136.403C1753.97,-126.423 1722.2,-109.849 1699.92,-98.2253"/>
<polygon fill="midnightblue" stroke="midnightblue" points="1701.5,-95.1033 1691.02,-93.5806 1698.26,-101.309 1701.5,-95.1033"/>
</g>
<!-- Node14 -->
<g id="node14" class="node"><title>Node14</title>
<polygon fill="none" stroke="#bfbfbf" points="1508.07,-1 1508.07,-31 1659.07,-31 1659.07,-1 1508.07,-1"/>
<text text-anchor="start" x="1516.07" y="-19" font-family="Helvetica,sans-Serif" font-size="10.00">Math/GenVector/Displacement</text>
<text text-anchor="middle" x="1583.57" y="-8" font-family="Helvetica,sans-Serif" font-size="10.00">Vector2D.h</text>
</g>
<!-- Node13&#45;&gt;Node14 -->
<g id="edge13" class="edge"><title>Node13&#45;&gt;Node14</title>
<path fill="none" stroke="midnightblue" d="M1662.67,-74.3717C1649.79,-65.0286 1628.79,-49.7966 1611.66,-37.375"/>
<polygon fill="midnightblue" stroke="midnightblue" points="1613.27,-34.2194 1603.12,-31.1815 1609.16,-39.8859 1613.27,-34.2194"/>
</g>
<!-- Node15 -->
<g id="node15" class="node"><title>Node15</title>
<polygon fill="none" stroke="#bfbfbf" points="1677.57,-6.5 1677.57,-25.5 1853.57,-25.5 1853.57,-6.5 1677.57,-6.5"/>
<text text-anchor="middle" x="1765.57" y="-13.5" font-family="Helvetica,sans-Serif" font-size="10.00">Math/GenVector/PositionVector2D.h</text>
</g>
<!-- Node13&#45;&gt;Node15 -->
<g id="edge14" class="edge"><title>Node13&#45;&gt;Node15</title>
<path fill="none" stroke="midnightblue" d="M1686.47,-74.3717C1701.45,-63.5015 1727.43,-44.6602 1745.51,-31.5474"/>
<polygon fill="midnightblue" stroke="midnightblue" points="1747.63,-34.3349 1753.67,-25.6305 1743.52,-28.6684 1747.63,-34.3349"/>
</g>
<!-- Node16&#45;&gt;Node10 -->
<g id="edge27" class="edge"><title>Node16&#45;&gt;Node10</title>
<path fill="none" stroke="midnightblue" d="M850.18,-204.214C976.047,-198.287 1241.83,-182.74 1273.57,-156 1288.69,-143.263 1292.85,-120.069 1293.77,-103.661"/>
<polygon fill="midnightblue" stroke="midnightblue" points="1297.27,-103.67 1293.98,-93.5984 1290.27,-103.522 1297.27,-103.67"/>
</g>
<!-- Node17 -->
<g id="node17" class="node"><title>Node17</title>
<polygon fill="none" stroke="#bfbfbf" points="140.071,-74.5 140.071,-93.5 175.071,-93.5 175.071,-74.5 140.071,-74.5"/>
<text text-anchor="middle" x="157.571" y="-81.5" font-family="Helvetica,sans-Serif" font-size="10.00">map</text>
</g>
<!-- Node16&#45;&gt;Node17 -->
<g id="edge16" class="edge"><title>Node16&#45;&gt;Node17</title>
<path fill="none" stroke="midnightblue" d="M718.985,-207.692C540.588,-208.891 56.6454,-207.338 8.57067,-156 -29.6347,-115.201 76.8884,-95.3552 129.767,-88.2186"/>
<polygon fill="midnightblue" stroke="midnightblue" points="130.394,-91.6669 139.867,-86.9219 129.503,-84.7239 130.394,-91.6669"/>
</g>
<!-- Node18 -->
<g id="node18" class="node"><title>Node18</title>
<polygon fill="none" stroke="#bfbfbf" points="504.571,-136.5 504.571,-155.5 548.571,-155.5 548.571,-136.5 504.571,-136.5"/>
<text text-anchor="middle" x="526.571" y="-143.5" font-family="Helvetica,sans-Serif" font-size="10.00">vector</text>
</g>
<!-- Node16&#45;&gt;Node18 -->
<g id="edge17" class="edge"><title>Node16&#45;&gt;Node18</title>
<path fill="none" stroke="midnightblue" d="M742.965,-198.456C699.352,-189.321 628.633,-174.007 558.732,-156.185"/>
<polygon fill="midnightblue" stroke="midnightblue" points="559.433,-152.751 548.877,-153.654 557.692,-159.531 559.433,-152.751"/>
</g>
<!-- Node19 -->
<g id="node19" class="node"><title>Node19</title>
<polygon fill="none" stroke="#bfbfbf" points="680.071,-74.5 680.071,-93.5 753.071,-93.5 753.071,-74.5 680.071,-74.5"/>
<text text-anchor="middle" x="716.571" y="-81.5" font-family="Helvetica,sans-Serif" font-size="10.00">initializer_list</text>
</g>
<!-- Node16&#45;&gt;Node19 -->
<g id="edge18" class="edge"><title>Node16&#45;&gt;Node19</title>
<path fill="none" stroke="midnightblue" d="M835.469,-198.444C881.977,-188.37 939.934,-168.725 914.571,-136 896.223,-112.327 816.03,-97.7033 763.498,-90.4848"/>
<polygon fill="midnightblue" stroke="midnightblue" points="763.761,-86.9891 753.387,-89.1394 762.838,-93.9279 763.761,-86.9891"/>
</g>
<!-- Node20 -->
<g id="node20" class="node"><title>Node20</title>
<polygon fill="none" stroke="#bfbfbf" points="566.571,-136.5 566.571,-155.5 618.571,-155.5 618.571,-136.5 566.571,-136.5"/>
<text text-anchor="middle" x="592.571" y="-143.5" font-family="Helvetica,sans-Serif" font-size="10.00">memory</text>
</g>
<!-- Node16&#45;&gt;Node20 -->
<g id="edge19" class="edge"><title>Node16&#45;&gt;Node20</title>
<path fill="none" stroke="midnightblue" d="M757.062,-198.403C723.32,-187.859 666.024,-169.954 628.744,-158.304"/>
<polygon fill="midnightblue" stroke="midnightblue" points="629.385,-154.838 618.796,-155.195 627.297,-161.519 629.385,-154.838"/>
</g>
<!-- Node21 -->
<g id="node21" class="node"><title>Node21</title>
<polygon fill="none" stroke="#bfbfbf" points="637.071,-136.5 637.071,-155.5 716.071,-155.5 716.071,-136.5 637.071,-136.5"/>
<text text-anchor="middle" x="676.571" y="-143.5" font-family="Helvetica,sans-Serif" font-size="10.00">FairDetector.h</text>
</g>
<!-- Node16&#45;&gt;Node21 -->
<g id="edge20" class="edge"><title>Node16&#45;&gt;Node21</title>
<path fill="none" stroke="midnightblue" d="M769.097,-198.403C751.293,-188.512 721.83,-172.144 700.939,-160.538"/>
<polygon fill="midnightblue" stroke="midnightblue" points="702.457,-157.378 692.016,-155.581 699.058,-163.497 702.457,-157.378"/>
</g>
<!-- Node22 -->
<g id="node22" class="node"><title>Node22</title>
<polygon fill="none" stroke="#bfbfbf" points="734.571,-136.5 734.571,-155.5 834.571,-155.5 834.571,-136.5 734.571,-136.5"/>
<text text-anchor="middle" x="784.571" y="-143.5" font-family="Helvetica,sans-Serif" font-size="10.00">FairRootManager.h</text>
</g>
<!-- Node16&#45;&gt;Node22 -->
<g id="edge21" class="edge"><title>Node16&#45;&gt;Node22</title>
<path fill="none" stroke="midnightblue" d="M784.571,-198.403C784.571,-189.938 784.571,-176.728 784.571,-165.82"/>
<polygon fill="midnightblue" stroke="midnightblue" points="788.071,-165.581 784.571,-155.581 781.071,-165.581 788.071,-165.581"/>
</g>
<!-- Node23 -->
<g id="node23" class="node"><title>Node23</title>
<g id="a_node23"><a xlink:href="../../d0/d9a/MaterialManager_8h.html" target="_top" xlink:title="DetectorsBase/MaterialManager.h">
<polygon fill="none" stroke="black" points="321.071,-136.5 321.071,-155.5 486.071,-155.5 486.071,-136.5 321.071,-136.5"/>
<text text-anchor="middle" x="403.571" y="-143.5" font-family="Helvetica,sans-Serif" font-size="10.00">DetectorsBase/MaterialManager.h</text>
</a>
</g>
</g>
<!-- Node16&#45;&gt;Node23 -->
<g id="edge22" class="edge"><title>Node16&#45;&gt;Node23</title>
<path fill="none" stroke="midnightblue" d="M730.387,-198.467C661.123,-187.559 541.37,-168.701 467.653,-157.092"/>
<polygon fill="midnightblue" stroke="midnightblue" points="467.99,-153.602 457.567,-155.503 466.901,-160.516 467.99,-153.602"/>
</g>
<!-- Node25 -->
<g id="node25" class="node"><title>Node25</title>
<polygon fill="none" stroke="#bfbfbf" points="853.071,-136.5 853.071,-155.5 906.071,-155.5 906.071,-136.5 853.071,-136.5"/>
<text text-anchor="middle" x="879.571" y="-143.5" font-family="Helvetica,sans-Serif" font-size="10.00">cxxabi.h</text>
</g>
<!-- Node16&#45;&gt;Node25 -->
<g id="edge28" class="edge"><title>Node16&#45;&gt;Node25</title>
<path fill="none" stroke="midnightblue" d="M798.182,-198.403C813.631,-188.646 839.061,-172.585 857.387,-161.011"/>
<polygon fill="midnightblue" stroke="midnightblue" points="859.399,-163.88 865.985,-155.581 855.661,-157.961 859.399,-163.88"/>
</g>
<!-- Node26 -->
<g id="node26" class="node"><title>Node26</title>
<polygon fill="none" stroke="#bfbfbf" points="963.071,-136.5 963.071,-155.5 1014.07,-155.5 1014.07,-136.5 963.071,-136.5"/>
<text text-anchor="middle" x="988.571" y="-143.5" font-family="Helvetica,sans-Serif" font-size="10.00">typeinfo</text>
</g>
<!-- Node16&#45;&gt;Node26 -->
<g id="edge29" class="edge"><title>Node16&#45;&gt;Node26</title>
<path fill="none" stroke="midnightblue" d="M813.799,-198.403C850.589,-187.583 913.733,-169.011 953.205,-157.402"/>
<polygon fill="midnightblue" stroke="midnightblue" points="954.336,-160.717 962.942,-154.538 952.361,-154.002 954.336,-160.717"/>
</g>
<!-- Node27 -->
<g id="node27" class="node"><title>Node27</title>
<polygon fill="none" stroke="#bfbfbf" points="1032.57,-136.5 1032.57,-155.5 1094.57,-155.5 1094.57,-136.5 1032.57,-136.5"/>
<text text-anchor="middle" x="1063.57" y="-143.5" font-family="Helvetica,sans-Serif" font-size="10.00">type_traits</text>
</g>
<!-- Node16&#45;&gt;Node27 -->
<g id="edge30" class="edge"><title>Node16&#45;&gt;Node27</title>
<path fill="none" stroke="midnightblue" d="M824.589,-198.488C869.861,-188.845 946.078,-172.568 1022.01,-156.112"/>
<polygon fill="midnightblue" stroke="midnightblue" points="1023.2,-159.435 1032.23,-153.895 1021.72,-152.594 1023.2,-159.435"/>
</g>
<!-- Node28 -->
<g id="node28" class="node"><title>Node28</title>
<polygon fill="none" stroke="#bfbfbf" points="1113.07,-136.5 1113.07,-155.5 1154.07,-155.5 1154.07,-136.5 1113.07,-136.5"/>
<text text-anchor="middle" x="1133.57" y="-143.5" font-family="Helvetica,sans-Serif" font-size="10.00">string</text>
</g>
<!-- Node16&#45;&gt;Node28 -->
<g id="edge31" class="edge"><title>Node16&#45;&gt;Node28</title>
<path fill="none" stroke="midnightblue" d="M850.187,-198.888C914.803,-190.334 1016.1,-175.408 1102.57,-156 1102.78,-155.952 1103,-155.904 1103.21,-155.855"/>
<polygon fill="midnightblue" stroke="midnightblue" points="1104.16,-159.225 1112.99,-153.361 1102.43,-152.442 1104.16,-159.225"/>
</g>
<!-- Node29 -->
<g id="node29" class="node"><title>Node29</title>
<polygon fill="none" stroke="#bfbfbf" points="1172.07,-136.5 1172.07,-155.5 1265.07,-155.5 1265.07,-136.5 1172.07,-136.5"/>
<text text-anchor="middle" x="1218.57" y="-143.5" font-family="Helvetica,sans-Serif" font-size="10.00">FairMQChannel.h</text>
</g>
<!-- Node16&#45;&gt;Node29 -->
<g id="edge32" class="edge"><title>Node16&#45;&gt;Node29</title>
<path fill="none" stroke="midnightblue" d="M850.197,-198.656C923.509,-189.22 1045.99,-173.113 1161.73,-156.092"/>
<polygon fill="midnightblue" stroke="midnightblue" points="1162.45,-159.524 1171.83,-154.602 1161.43,-152.599 1162.45,-159.524"/>
</g>
<!-- Node30 -->
<g id="node30" class="node"><title>Node30</title>
<polygon fill="none" stroke="#bfbfbf" points="18.0707,-136.5 18.0707,-155.5 115.071,-155.5 115.071,-136.5 18.0707,-136.5"/>
<text text-anchor="middle" x="66.5707" y="-143.5" font-family="Helvetica,sans-Serif" font-size="10.00">FairMQMessage.h</text>
</g>
<!-- Node16&#45;&gt;Node30 -->
<g id="edge33" class="edge"><title>Node16&#45;&gt;Node30</title>
<path fill="none" stroke="midnightblue" d="M718.836,-203.598C601.708,-197.167 349.015,-181.635 125.229,-155.985"/>
<polygon fill="midnightblue" stroke="midnightblue" points="125.604,-152.505 115.268,-154.834 124.8,-159.459 125.604,-152.505"/>
</g>
<!-- Node31 -->
<g id="node31" class="node"><title>Node31</title>
<polygon fill="none" stroke="#bfbfbf" points="133.571,-136.5 133.571,-155.5 213.571,-155.5 213.571,-136.5 133.571,-136.5"/>
<text text-anchor="middle" x="173.571" y="-143.5" font-family="Helvetica,sans-Serif" font-size="10.00">FairMQParts.h</text>
</g>
<!-- Node16&#45;&gt;Node31 -->
<g id="edge34" class="edge"><title>Node16&#45;&gt;Node31</title>
<path fill="none" stroke="midnightblue" d="M719.022,-202.998C615.787,-196.265 408.851,-181.035 223.559,-156.018"/>
<polygon fill="midnightblue" stroke="midnightblue" points="224.015,-152.548 213.634,-154.666 223.07,-159.484 224.015,-152.548"/>
</g>
<!-- Node32 -->
<g id="node32" class="node"><title>Node32</title>
<polygon fill="none" stroke="#bfbfbf" points="232.071,-136.5 232.071,-155.5 303.071,-155.5 303.071,-136.5 232.071,-136.5"/>
<text text-anchor="middle" x="267.571" y="-143.5" font-family="Helvetica,sans-Serif" font-size="10.00">TMessage.h</text>
</g>
<!-- Node16&#45;&gt;Node32 -->
<g id="edge35" class="edge"><title>Node16&#45;&gt;Node32</title>
<path fill="none" stroke="midnightblue" d="M718.895,-201.89C629.376,-194.487 463.869,-179.245 313.854,-156.243"/>
<polygon fill="midnightblue" stroke="midnightblue" points="313.957,-152.717 303.539,-154.645 312.885,-159.635 313.957,-152.717"/>
</g>
<!-- Node23&#45;&gt;Node10 -->
<g id="edge23" class="edge"><title>Node23&#45;&gt;Node10</title>
<path fill="none" stroke="midnightblue" d="M486.311,-136.773C489.436,-136.505 492.531,-136.246 495.571,-136 787.421,-112.405 1140.04,-93.071 1255.19,-86.9928"/>
<polygon fill="midnightblue" stroke="midnightblue" points="1255.47,-90.4831 1265.27,-86.4626 1255.1,-83.4928 1255.47,-90.4831"/>
</g>
<!-- Node23&#45;&gt;Node17 -->
<g id="edge24" class="edge"><title>Node23&#45;&gt;Node17</title>
<path fill="none" stroke="midnightblue" d="M368.586,-136.467C319.219,-124.426 230.128,-102.697 185.146,-91.7258"/>
<polygon fill="midnightblue" stroke="midnightblue" points="185.766,-88.2744 175.221,-89.3051 184.107,-95.075 185.766,-88.2744"/>
</g>
<!-- Node23&#45;&gt;Node19 -->
<g id="edge26" class="edge"><title>Node23&#45;&gt;Node19</title>
<path fill="none" stroke="midnightblue" d="M448.084,-136.467C506.956,-125.182 610.23,-105.385 670.079,-93.9122"/>
<polygon fill="midnightblue" stroke="midnightblue" points="670.851,-97.328 680.013,-92.0079 669.533,-90.4532 670.851,-97.328"/>
</g>
<!-- Node24 -->
<g id="node24" class="node"><title>Node24</title>
<polygon fill="none" stroke="#bfbfbf" points="362.071,-74.5 362.071,-93.5 445.071,-93.5 445.071,-74.5 362.071,-74.5"/>
<text text-anchor="middle" x="403.571" y="-81.5" font-family="Helvetica,sans-Serif" font-size="10.00">unordered_map</text>
</g>
<!-- Node23&#45;&gt;Node24 -->
<g id="edge25" class="edge"><title>Node23&#45;&gt;Node24</title>
<path fill="none" stroke="midnightblue" d="M403.571,-136.403C403.571,-127.938 403.571,-114.728 403.571,-103.82"/>
<polygon fill="midnightblue" stroke="midnightblue" points="407.071,-103.581 403.571,-93.5806 400.071,-103.581 407.071,-103.581"/>
</g>
<!-- Node33&#45;&gt;Node10 -->
<g id="edge37" class="edge"><title>Node33&#45;&gt;Node10</title>
<path fill="none" stroke="midnightblue" d="M1366.01,-198.378C1382.43,-184.918 1409.27,-158.158 1395.57,-136 1391.34,-129.153 1351.33,-110.426 1322.7,-97.6745"/>
<polygon fill="midnightblue" stroke="midnightblue" points="1324.05,-94.4476 1313.49,-93.6049 1321.22,-100.85 1324.05,-94.4476"/>
</g>
<!-- Node34 -->
<g id="node34" class="node"><title>Node34</title>
<polygon fill="none" stroke="#bfbfbf" points="1322.07,-136.5 1322.07,-155.5 1387.07,-155.5 1387.07,-136.5 1322.07,-136.5"/>
<text text-anchor="middle" x="1354.57" y="-143.5" font-family="Helvetica,sans-Serif" font-size="10.00">TVector3.h</text>
</g>
<!-- Node33&#45;&gt;Node34 -->
<g id="edge38" class="edge"><title>Node33&#45;&gt;Node34</title>
<path fill="none" stroke="midnightblue" d="M1354.57,-198.403C1354.57,-189.938 1354.57,-176.728 1354.57,-165.82"/>
<polygon fill="midnightblue" stroke="midnightblue" points="1358.07,-165.581 1354.57,-155.581 1351.07,-165.581 1358.07,-165.581"/>
</g>
<!-- Node35&#45;&gt;Node10 -->
<g id="edge43" class="edge"><title>Node35&#45;&gt;Node10</title>
<path fill="none" stroke="midnightblue" d="M1579.76,-198.468C1533.7,-180.426 1423.09,-137.017 1330.57,-100 1328.48,-99.1632 1326.32,-98.2971 1324.15,-97.4226"/>
<polygon fill="midnightblue" stroke="midnightblue" points="1325.27,-94.1008 1314.69,-93.6001 1322.65,-100.591 1325.27,-94.1008"/>
</g>
<!-- Node35&#45;&gt;Node12 -->
<g id="edge42" class="edge"><title>Node35&#45;&gt;Node12</title>
<path fill="none" stroke="midnightblue" d="M1644.93,-206.282C1771.57,-203.186 2150.9,-186.773 2450.57,-100 2452.86,-99.3376 2455.19,-98.5313 2457.49,-97.64"/>
<polygon fill="midnightblue" stroke="midnightblue" points="2458.9,-100.845 2466.67,-93.6476 2456.11,-94.4259 2458.9,-100.845"/>
</g>
<!-- Node36 -->
<g id="node36" class="node"><title>Node36</title>
<g id="a_node36"><a xlink:href="../../df/d5d/common_2include_2CommonDataFormat_2TimeStamp_8h.html" target="_top" xlink:title="CommonDataFormat/TimeStamp.h">
<polygon fill="none" stroke="black" points="1507.57,-136.5 1507.57,-155.5 1677.57,-155.5 1677.57,-136.5 1507.57,-136.5"/>
<text text-anchor="middle" x="1592.57" y="-143.5" font-family="Helvetica,sans-Serif" font-size="10.00">CommonDataFormat/TimeStamp.h</text>
</a>
</g>
</g>
<!-- Node35&#45;&gt;Node36 -->
<g id="edge40" class="edge"><title>Node35&#45;&gt;Node36</title>
<path fill="none" stroke="midnightblue" d="M1600.28,-198.403C1599,-189.849 1596.99,-176.45 1595.34,-165.476"/>
<polygon fill="midnightblue" stroke="midnightblue" points="1598.8,-164.951 1593.86,-155.581 1591.88,-165.989 1598.8,-164.951"/>
</g>
<!-- Node36&#45;&gt;Node10 -->
<g id="edge41" class="edge"><title>Node36&#45;&gt;Node10</title>
<path fill="none" stroke="midnightblue" d="M1517.65,-136.487C1464.72,-129.422 1392.49,-117.646 1330.57,-100 1327.76,-99.1986 1324.87,-98.2539 1322,-97.235"/>
<polygon fill="midnightblue" stroke="midnightblue" points="1323.09,-93.9033 1312.5,-93.585 1320.58,-100.438 1323.09,-93.9033"/>
</g>
</g>
</svg>
        <g id="navigator" transform="translate(0 0)" fill="#404254">
                <rect fill="#f2f5e9" fill-opacity="0.5" stroke="#606060" stroke-width=".5" x="0" y="0" width="60" height="60"/>
                <use id="zoomplus" xlink:href="#zoomPlus" x="17" y="9" onmousedown="handleZoom(evt,'in')"/>
                <use id="zoomminus" xlink:href="#zoomMin" x="42" y="9" onmousedown="handleZoom(evt,'out')"/>
                <use id="reset" xlink:href="#resetDef" x="30" y="36" onmousedown="handleReset()"/>
                <g id="arrowUp" xlink:href="#dirArrow" transform="translate(30 24)" onmousedown="handlePan(0,-1)">
                  <use xlink:href="#rim" fill="#404040">
                        <set attributeName="fill" to="#808080" begin="arrowUp.mouseover" end="arrowUp.mouseout"/>
                  </use>
                  <path fill="none" stroke="white" stroke-width="1.5" d="M0,-3.0v7 M-2.5,-0.5L0,-3.0L2.5,-0.5"/>
                </g>
                <g id="arrowRight" xlink:href="#dirArrow" transform="rotate(90) translate(36 -43)" onmousedown="handlePan(1,0)">
                  <use xlink:href="#rim" fill="#404040">
                        <set attributeName="fill" to="#808080" begin="arrowRight.mouseover" end="arrowRight.mouseout"/>
                  </use>
                  <path fill="none" stroke="white" stroke-width="1.5" d="M0,-3.0v7 M-2.5,-0.5L0,-3.0L2.5,-0.5"/>
                </g>
                <g id="arrowDown" xlink:href="#dirArrow" transform="rotate(180) translate(-30 -48)" onmousedown="handlePan(0,1)">
                  <use xlink:href="#rim" fill="#404040">
                        <set attributeName="fill" to="#808080" begin="arrowDown.mouseover" end="arrowDown.mouseout"/>
                  </use>
                  <path fill="none" stroke="white" stroke-width="1.5" d="M0,-3.0v7 M-2.5,-0.5L0,-3.0L2.5,-0.5"/>
                </g>
                <g id="arrowLeft" xlink:href="#dirArrow" transform="rotate(270) translate(-36 17)" onmousedown="handlePan(-1,0)">
                  <use xlink:href="#rim" fill="#404040">
                        <set attributeName="fill" to="#808080" begin="arrowLeft.mouseover" end="arrowLeft.mouseout"/>
                  </use>
                  <path fill="none" stroke="white" stroke-width="1.5" d="M0,-3.0v7 M-2.5,-0.5L0,-3.0L2.5,-0.5"/>
                </g>
        </g>
        <svg viewBox="0 0 15 15" width="100%" height="30px" preserveAspectRatio="xMaxYMin meet">
         <g id="arrow_out" transform="scale(0.3 0.3)">
          <a xlink:href="readHitsDigits_8C__incl_org.svg" target="_base">
           <rect id="button" ry="5" rx="5" y="6" x="6" height="38" width="38"
                fill="#f2f5e9" fill-opacity="0.5" stroke="#606060" stroke-width="1.0"/>
           <path id="arrow"
             d="M 11.500037,31.436501 C 11.940474,20.09759 22.043105,11.32322 32.158766,21.979434 L 37.068811,17.246167 C 37.068811,17.246167 37.088388,32 37.088388,32 L 22.160133,31.978069 C 22.160133,31.978069 26.997745,27.140456 26.997745,27.140456 C 18.528582,18.264221 13.291696,25.230495 11.500037,31.436501 z"
             style="fill:#404040;"/>
          </a>
         </g>
        </svg>
</svg>
