<?xml version="1.0" encoding="UTF-8" standalone="no"?>
<!DOCTYPE svg PUBLIC "-//W3C//DTD SVG 1.1//EN"
 "http://www.w3.org/Graphics/SVG/1.1/DTD/svg11.dtd">
<!-- Generated by graphviz version 2.36.0 (20140111.2315)
 -->
<!-- Title: /home/travis/build/AliceO2Group/AliceO2/Detectors/TOF/simulation/include/TOFSimulation/Digitizer.h Pages: 1 -->
<svg width="2185pt" height="458pt"
 viewBox="0.00 0.00 2185.29 458.00" xmlns="http://www.w3.org/2000/svg" xmlns:xlink="http://www.w3.org/1999/xlink">
<g id="graph0" class="graph" transform="scale(1 1) rotate(0) translate(4 454)">
<title>/home/travis/build/AliceO2Group/AliceO2/Detectors/TOF/simulation/include/TOFSimulation/Digitizer.h</title>
<!-- Node1 -->
<g id="node1" class="node"><title>Node1</title>
<polygon fill="#bfbfbf" stroke="black" points="431.291,-397 431.291,-449 597.291,-449 597.291,-397 431.291,-397"/>
<text text-anchor="start" x="439.291" y="-437" font-family="Helvetica,sans-Serif" font-size="10.00">/home/travis/build</text>
<text text-anchor="start" x="439.291" y="-426" font-family="Helvetica,sans-Serif" font-size="10.00">/AliceO2Group/AliceO2</text>
<text text-anchor="start" x="439.291" y="-415" font-family="Helvetica,sans-Serif" font-size="10.00">/Detectors/TOF/simulation</text>
<text text-anchor="middle" x="514.291" y="-404" font-family="Helvetica,sans-Serif" font-size="10.00">/include/TOFSimulation/Digitizer.h</text>
</g>
<!-- Node2 -->
<g id="node2" class="node"><title>Node2</title>
<g id="a_node2"><a xlink:href="../../d4/d54/Geo_8h.html" target="_top" xlink:title="TOFBase/Geo.h">
<polygon fill="none" stroke="black" points="350.291,-210.5 350.291,-229.5 438.291,-229.5 438.291,-210.5 350.291,-210.5"/>
<text text-anchor="middle" x="394.291" y="-217.5" font-family="Helvetica,sans-Serif" font-size="10.00">TOFBase/Geo.h</text>
</a>
</g>
</g>
<!-- Node1&#45;&gt;Node2 -->
<g id="edge1" class="edge"><title>Node1&#45;&gt;Node2</title>
<path fill="none" stroke="midnightblue" d="M499.335,-396.95C474.641,-355.586 425.956,-274.04 404.667,-238.381"/>
<polygon fill="midnightblue" stroke="midnightblue" points="407.563,-236.404 399.432,-229.612 401.553,-239.992 407.563,-236.404"/>
</g>
<!-- Node4 -->
<g id="node4" class="node"><title>Node4</title>
<g id="a_node4"><a xlink:href="../../df/d9c/TOF_2base_2include_2TOFBase_2Digit_8h.html" target="_top" xlink:title="TOFBase/Digit.h">
<polygon fill="none" stroke="black" points="240.291,-210.5 240.291,-229.5 330.291,-229.5 330.291,-210.5 240.291,-210.5"/>
<text text-anchor="middle" x="285.291" y="-217.5" font-family="Helvetica,sans-Serif" font-size="10.00">TOFBase/Digit.h</text>
</a>
</g>
</g>
<!-- Node1&#45;&gt;Node4 -->
<g id="edge3" class="edge"><title>Node1&#45;&gt;Node4</title>
<path fill="none" stroke="midnightblue" d="M485.751,-396.95C437.82,-354.879 342.529,-271.24 303.056,-236.593"/>
<polygon fill="midnightblue" stroke="midnightblue" points="304.926,-233.578 295.102,-229.612 300.309,-238.839 304.926,-233.578"/>
</g>
<!-- Node8 -->
<g id="node8" class="node"><title>Node8</title>
<g id="a_node8"><a xlink:href="../../d5/d3c/TOF_2simulation_2include_2TOFSimulation_2Detector_8h.html" target="_top" xlink:title="TOFSimulation/Detector.h">
<polygon fill="none" stroke="black" points="749.791,-272.5 749.791,-291.5 880.791,-291.5 880.791,-272.5 749.791,-272.5"/>
<text text-anchor="middle" x="815.291" y="-279.5" font-family="Helvetica,sans-Serif" font-size="10.00">TOFSimulation/Detector.h</text>
</a>
</g>
</g>
<!-- Node1&#45;&gt;Node8 -->
<g id="edge9" class="edge"><title>Node1&#45;&gt;Node8</title>
<path fill="none" stroke="midnightblue" d="M574.486,-396.867C600.403,-385.843 630.968,-372.573 658.291,-360 704.827,-338.586 758.226,-311.948 789.222,-296.276"/>
<polygon fill="midnightblue" stroke="midnightblue" points="791.124,-299.236 798.462,-291.594 787.96,-292.992 791.124,-299.236"/>
</g>
<!-- Node37 -->
<g id="node37" class="node"><title>Node37</title>
<g id="a_node37"><a xlink:href="../../dd/d77/Strip_8h.html" target="_top" xlink:title="TOFSimulation/Strip.h">
<polygon fill="none" stroke="black" points="536.791,-334.5 536.791,-353.5 649.791,-353.5 649.791,-334.5 536.791,-334.5"/>
<text text-anchor="middle" x="593.291" y="-341.5" font-family="Helvetica,sans-Serif" font-size="10.00">TOFSimulation/Strip.h</text>
</a>
</g>
</g>
<!-- Node1&#45;&gt;Node37 -->
<g id="edge45" class="edge"><title>Node1&#45;&gt;Node37</title>
<path fill="none" stroke="midnightblue" d="M540.158,-396.787C552.35,-384.904 566.517,-371.096 577.155,-360.727"/>
<polygon fill="midnightblue" stroke="midnightblue" points="579.792,-363.044 584.511,-353.558 574.907,-358.031 579.792,-363.044"/>
</g>
<!-- Node41 -->
<g id="node41" class="node"><title>Node41</title>
<g id="a_node41"><a xlink:href="../../db/d14/MCTruthContainer_8h.html" target="_top" xlink:title="Definition of a container to keep Monte Carlo truth external to simulation objects. ">
<polygon fill="none" stroke="black" points="1919.29,-329 1919.29,-359 2033.29,-359 2033.29,-329 1919.29,-329"/>
<text text-anchor="start" x="1927.29" y="-347" font-family="Helvetica,sans-Serif" font-size="10.00">SimulationDataFormat</text>
<text text-anchor="middle" x="1976.29" y="-336" font-family="Helvetica,sans-Serif" font-size="10.00">/MCTruthContainer.h</text>
</a>
</g>
</g>
<!-- Node1&#45;&gt;Node41 -->
<g id="edge54" class="edge"><title>Node1&#45;&gt;Node41</title>
<path fill="none" stroke="midnightblue" d="M597.348,-417.626C859.979,-403.793 1669.21,-361.173 1908.79,-348.555"/>
<polygon fill="midnightblue" stroke="midnightblue" points="1909.29,-352.034 1919.1,-348.012 1908.93,-345.043 1909.29,-352.034"/>
</g>
<!-- Node46 -->
<g id="node46" class="node"><title>Node46</title>
<g id="a_node46"><a xlink:href="../../d9/dad/TOF_2simulation_2include_2TOFSimulation_2MCLabel_8h.html" target="_top" xlink:title="TOFSimulation/MCLabel.h">
<polygon fill="none" stroke="black" points="119.291,-334.5 119.291,-353.5 251.291,-353.5 251.291,-334.5 119.291,-334.5"/>
<text text-anchor="middle" x="185.291" y="-341.5" font-family="Helvetica,sans-Serif" font-size="10.00">TOFSimulation/MCLabel.h</text>
</a>
</g>
</g>
<!-- Node1&#45;&gt;Node46 -->
<g id="edge60" class="edge"><title>Node1&#45;&gt;Node46</title>
<path fill="none" stroke="midnightblue" d="M431.27,-402.57C368.095,-387.784 283.47,-367.978 231.745,-355.872"/>
<polygon fill="midnightblue" stroke="midnightblue" points="232.39,-352.429 221.855,-353.558 230.795,-359.245 232.39,-352.429"/>
</g>
<!-- Node3 -->
<g id="node3" class="node"><title>Node3</title>
<polygon fill="none" stroke="#bfbfbf" points="75.2906,-74.5 75.2906,-93.5 131.291,-93.5 131.291,-74.5 75.2906,-74.5"/>
<text text-anchor="middle" x="103.291" y="-81.5" font-family="Helvetica,sans-Serif" font-size="10.00">Rtypes.h</text>
</g>
<!-- Node2&#45;&gt;Node3 -->
<g id="edge2" class="edge"><title>Node2&#45;&gt;Node3</title>
<path fill="none" stroke="midnightblue" d="M391.206,-210.266C384.619,-192.992 367.444,-154.537 339.291,-136 264.222,-86.5728 226.619,-125.017 140.291,-100 137.482,-99.1861 134.594,-98.2331 131.73,-97.2089"/>
<polygon fill="midnightblue" stroke="midnightblue" points="132.819,-93.8778 122.229,-93.5515 130.304,-100.41 132.819,-93.8778"/>
</g>
<!-- Node4&#45;&gt;Node3 -->
<g id="edge7" class="edge"><title>Node4&#45;&gt;Node3</title>
<path fill="none" stroke="midnightblue" d="M240.133,-212.793C172.384,-203.025 50.9772,-183.574 38.2906,-168 18.7473,-144.009 53.3671,-115.506 79.1335,-98.9138"/>
<polygon fill="midnightblue" stroke="midnightblue" points="81.1114,-101.806 87.7748,-93.5687 77.4291,-95.8526 81.1114,-101.806"/>
</g>
<!-- Node5 -->
<g id="node5" class="node"><title>Node5</title>
<g id="a_node5"><a xlink:href="../../df/d5d/common_2include_2CommonDataFormat_2TimeStamp_8h.html" target="_top" xlink:title="CommonDataFormat/TimeStamp.h">
<polygon fill="none" stroke="black" points="47.2906,-142.5 47.2906,-161.5 217.291,-161.5 217.291,-142.5 47.2906,-142.5"/>
<text text-anchor="middle" x="132.291" y="-149.5" font-family="Helvetica,sans-Serif" font-size="10.00">CommonDataFormat/TimeStamp.h</text>
</a>
</g>
</g>
<!-- Node4&#45;&gt;Node5 -->
<g id="edge4" class="edge"><title>Node4&#45;&gt;Node5</title>
<path fill="none" stroke="midnightblue" d="M265.289,-210.372C238.83,-198.958 191.998,-178.756 161.558,-165.625"/>
<polygon fill="midnightblue" stroke="midnightblue" points="162.866,-162.378 152.298,-161.63 160.093,-168.805 162.866,-162.378"/>
</g>
<!-- Node6 -->
<g id="node6" class="node"><title>Node6</title>
<polygon fill="none" stroke="#bfbfbf" points="149.791,-74.5 149.791,-93.5 194.791,-93.5 194.791,-74.5 149.791,-74.5"/>
<text text-anchor="middle" x="172.291" y="-81.5" font-family="Helvetica,sans-Serif" font-size="10.00">iosfwd</text>
</g>
<!-- Node4&#45;&gt;Node6 -->
<g id="edge6" class="edge"><title>Node4&#45;&gt;Node6</title>
<path fill="none" stroke="midnightblue" d="M298.176,-210.459C319.806,-195.075 359.19,-161.901 339.291,-136 301.459,-86.758 262.634,-121.262 204.291,-100 202.388,-99.3067 200.445,-98.5429 198.502,-97.7383"/>
<polygon fill="midnightblue" stroke="midnightblue" points="199.552,-94.375 188.992,-93.5126 196.709,-100.772 199.552,-94.375"/>
</g>
<!-- Node7 -->
<g id="node7" class="node"><title>Node7</title>
<polygon fill="none" stroke="#bfbfbf" points="235.791,-137 235.791,-167 330.791,-167 330.791,-137 235.791,-137"/>
<text text-anchor="start" x="243.791" y="-155" font-family="Helvetica,sans-Serif" font-size="10.00">boost/serialization</text>
<text text-anchor="middle" x="283.291" y="-144" font-family="Helvetica,sans-Serif" font-size="10.00">/base_object.hpp</text>
</g>
<!-- Node4&#45;&gt;Node7 -->
<g id="edge8" class="edge"><title>Node4&#45;&gt;Node7</title>
<path fill="none" stroke="midnightblue" d="M285.029,-210.372C284.775,-201.971 284.376,-188.811 284.024,-177.213"/>
<polygon fill="midnightblue" stroke="midnightblue" points="287.522,-177.071 283.72,-167.181 280.525,-177.283 287.522,-177.071"/>
</g>
<!-- Node5&#45;&gt;Node3 -->
<g id="edge5" class="edge"><title>Node5&#45;&gt;Node3</title>
<path fill="none" stroke="midnightblue" d="M128.499,-142.372C124.138,-132.446 116.857,-115.874 111.238,-103.086"/>
<polygon fill="midnightblue" stroke="midnightblue" points="114.402,-101.588 107.175,-93.8411 107.994,-104.404 114.402,-101.588"/>
</g>
<!-- Node8&#45;&gt;Node2 -->
<g id="edge31" class="edge"><title>Node8&#45;&gt;Node2</title>
<path fill="none" stroke="midnightblue" d="M755.419,-272.467C673.512,-260.794 527.712,-240.015 448.741,-228.76"/>
<polygon fill="midnightblue" stroke="midnightblue" points="448.914,-225.25 438.521,-227.304 447.927,-232.18 448.914,-225.25"/>
</g>
<!-- Node9 -->
<g id="node9" class="node"><title>Node9</title>
<g id="a_node9"><a xlink:href="../../d1/d3a/Base_2include_2DetectorsBase_2Detector_8h.html" target="_top" xlink:title="DetectorsBase/Detector.h">
<polygon fill="none" stroke="black" points="1137.79,-210.5 1137.79,-229.5 1268.79,-229.5 1268.79,-210.5 1137.79,-210.5"/>
<text text-anchor="middle" x="1203.29" y="-217.5" font-family="Helvetica,sans-Serif" font-size="10.00">DetectorsBase/Detector.h</text>
</a>
</g>
</g>
<!-- Node8&#45;&gt;Node9 -->
<g id="edge10" class="edge"><title>Node8&#45;&gt;Node9</title>
<path fill="none" stroke="midnightblue" d="M870.47,-272.467C941.006,-261.559 1062.96,-242.701 1138.03,-231.092"/>
<polygon fill="midnightblue" stroke="midnightblue" points="1138.95,-234.491 1148.3,-229.503 1137.88,-227.573 1138.95,-234.491"/>
</g>
<!-- Node26 -->
<g id="node26" class="node"><title>Node26</title>
<g id="a_node26"><a xlink:href="../../d4/d25/BaseHits_8h.html" target="_top" xlink:title="SimulationDataFormat\l/BaseHits.h">
<polygon fill="none" stroke="black" points="533.291,-205 533.291,-235 647.291,-235 647.291,-205 533.291,-205"/>
<text text-anchor="start" x="541.291" y="-223" font-family="Helvetica,sans-Serif" font-size="10.00">SimulationDataFormat</text>
<text text-anchor="middle" x="590.291" y="-212" font-family="Helvetica,sans-Serif" font-size="10.00">/BaseHits.h</text>
</a>
</g>
</g>
<!-- Node8&#45;&gt;Node26 -->
<g id="edge32" class="edge"><title>Node8&#45;&gt;Node26</title>
<path fill="none" stroke="midnightblue" d="M783.054,-272.403C749.193,-263.374 695.09,-248.947 652.81,-237.672"/>
<polygon fill="midnightblue" stroke="midnightblue" points="653.45,-234.22 642.886,-235.025 651.646,-240.984 653.45,-234.22"/>
</g>
<!-- Node9&#45;&gt;Node3 -->
<g id="edge22" class="edge"><title>Node9&#45;&gt;Node3</title>
<path fill="none" stroke="midnightblue" d="M1137.78,-216.958C980.272,-211.658 583.856,-195.901 454.291,-168 414.422,-159.415 407.74,-146.343 368.291,-136 269.056,-109.982 239.139,-127.451 140.291,-100 137.473,-99.2175 134.579,-98.2856 131.711,-97.2747"/>
<polygon fill="midnightblue" stroke="midnightblue" points="132.795,-93.9421 122.205,-93.6361 130.293,-100.48 132.795,-93.9421"/>
</g>
<!-- Node10 -->
<g id="node10" class="node"><title>Node10</title>
<polygon fill="none" stroke="#bfbfbf" points="1782.79,-74.5 1782.79,-93.5 1817.79,-93.5 1817.79,-74.5 1782.79,-74.5"/>
<text text-anchor="middle" x="1800.29" y="-81.5" font-family="Helvetica,sans-Serif" font-size="10.00">map</text>
</g>
<!-- Node9&#45;&gt;Node10 -->
<g id="edge11" class="edge"><title>Node9&#45;&gt;Node10</title>
<path fill="none" stroke="midnightblue" d="M1268.84,-217.451C1411.87,-213.472 1742.22,-200.803 1780.29,-168 1798.51,-152.302 1801.67,-123.163 1801.54,-103.926"/>
<polygon fill="midnightblue" stroke="midnightblue" points="1805.03,-103.54 1801.15,-93.6781 1798.03,-103.802 1805.03,-103.54"/>
</g>
<!-- Node11 -->
<g id="node11" class="node"><title>Node11</title>
<polygon fill="none" stroke="#bfbfbf" points="606.291,-142.5 606.291,-161.5 650.291,-161.5 650.291,-142.5 606.291,-142.5"/>
<text text-anchor="middle" x="628.291" y="-149.5" font-family="Helvetica,sans-Serif" font-size="10.00">vector</text>
</g>
<!-- Node9&#45;&gt;Node11 -->
<g id="edge12" class="edge"><title>Node9&#45;&gt;Node11</title>
<path fill="none" stroke="midnightblue" d="M1137.51,-219.084C1034.9,-217.814 831.182,-209.649 664.291,-168 661.3,-167.254 658.234,-166.298 655.214,-165.232"/>
<polygon fill="midnightblue" stroke="midnightblue" points="656.463,-161.962 645.875,-161.567 653.905,-168.478 656.463,-161.962"/>
</g>
<!-- Node12 -->
<g id="node12" class="node"><title>Node12</title>
<polygon fill="none" stroke="#bfbfbf" points="1333.79,-74.5 1333.79,-93.5 1406.79,-93.5 1406.79,-74.5 1333.79,-74.5"/>
<text text-anchor="middle" x="1370.29" y="-81.5" font-family="Helvetica,sans-Serif" font-size="10.00">initializer_list</text>
</g>
<!-- Node9&#45;&gt;Node12 -->
<g id="edge13" class="edge"><title>Node9&#45;&gt;Node12</title>
<path fill="none" stroke="midnightblue" d="M1137.72,-217.197C1007.5,-212.937 726.308,-200.089 697.291,-168 687.752,-157.451 687.526,-146.341 697.291,-136 745.198,-85.2626 1255.72,-112.924 1324.29,-100 1328.87,-99.1366 1333.63,-97.9425 1338.27,-96.6017"/>
<polygon fill="midnightblue" stroke="midnightblue" points="1339.64,-99.8399 1348.13,-93.5037 1337.54,-93.1617 1339.64,-99.8399"/>
</g>
<!-- Node13 -->
<g id="node13" class="node"><title>Node13</title>
<polygon fill="none" stroke="#bfbfbf" points="890.291,-142.5 890.291,-161.5 942.291,-161.5 942.291,-142.5 890.291,-142.5"/>
<text text-anchor="middle" x="916.291" y="-149.5" font-family="Helvetica,sans-Serif" font-size="10.00">memory</text>
</g>
<!-- Node9&#45;&gt;Node13 -->
<g id="edge14" class="edge"><title>Node9&#45;&gt;Node13</title>
<path fill="none" stroke="midnightblue" d="M1143.62,-210.467C1092,-202.251 1015.74,-188.099 951.291,-168 948.806,-167.225 946.257,-166.334 943.723,-165.38"/>
<polygon fill="midnightblue" stroke="midnightblue" points="944.772,-162.028 934.19,-161.507 942.137,-168.514 944.772,-162.028"/>
</g>
<!-- Node14 -->
<g id="node14" class="node"><title>Node14</title>
<polygon fill="none" stroke="#bfbfbf" points="960.791,-142.5 960.791,-161.5 1039.79,-161.5 1039.79,-142.5 960.791,-142.5"/>
<text text-anchor="middle" x="1000.29" y="-149.5" font-family="Helvetica,sans-Serif" font-size="10.00">FairDetector.h</text>
</g>
<!-- Node9&#45;&gt;Node14 -->
<g id="edge15" class="edge"><title>Node9&#45;&gt;Node14</title>
<path fill="none" stroke="midnightblue" d="M1176.75,-210.372C1140.79,-198.679 1076.45,-177.762 1036.2,-164.674"/>
<polygon fill="midnightblue" stroke="midnightblue" points="1037.11,-161.289 1026.51,-161.526 1034.94,-167.946 1037.11,-161.289"/>
</g>
<!-- Node15 -->
<g id="node15" class="node"><title>Node15</title>
<polygon fill="none" stroke="#bfbfbf" points="1058.29,-142.5 1058.29,-161.5 1158.29,-161.5 1158.29,-142.5 1058.29,-142.5"/>
<text text-anchor="middle" x="1108.29" y="-149.5" font-family="Helvetica,sans-Serif" font-size="10.00">FairRootManager.h</text>
</g>
<!-- Node9&#45;&gt;Node15 -->
<g id="edge16" class="edge"><title>Node9&#45;&gt;Node15</title>
<path fill="none" stroke="midnightblue" d="M1190.87,-210.372C1175.15,-199.452 1147.86,-180.489 1128.97,-167.369"/>
<polygon fill="midnightblue" stroke="midnightblue" points="1130.92,-164.462 1120.71,-161.63 1126.93,-170.21 1130.92,-164.462"/>
</g>
<!-- Node16 -->
<g id="node16" class="node"><title>Node16</title>
<g id="a_node16"><a xlink:href="../../d0/d9a/MaterialManager_8h.html" target="_top" xlink:title="DetectorsBase/MaterialManager.h">
<polygon fill="none" stroke="black" points="706.791,-142.5 706.791,-161.5 871.791,-161.5 871.791,-142.5 706.791,-142.5"/>
<text text-anchor="middle" x="789.291" y="-149.5" font-family="Helvetica,sans-Serif" font-size="10.00">DetectorsBase/MaterialManager.h</text>
</a>
</g>
</g>
<!-- Node9&#45;&gt;Node16 -->
<g id="edge17" class="edge"><title>Node9&#45;&gt;Node16</title>
<path fill="none" stroke="midnightblue" d="M1148.87,-210.458C1084.83,-200.388 975.313,-183.111 881.291,-168 871.584,-166.44 861.303,-164.776 851.268,-163.144"/>
<polygon fill="midnightblue" stroke="midnightblue" points="851.777,-159.681 841.344,-161.529 850.652,-166.59 851.777,-159.681"/>
</g>
<!-- Node18 -->
<g id="node18" class="node"><title>Node18</title>
<polygon fill="none" stroke="#bfbfbf" points="1176.79,-142.5 1176.79,-161.5 1229.79,-161.5 1229.79,-142.5 1176.79,-142.5"/>
<text text-anchor="middle" x="1203.29" y="-149.5" font-family="Helvetica,sans-Serif" font-size="10.00">cxxabi.h</text>
</g>
<!-- Node9&#45;&gt;Node18 -->
<g id="edge23" class="edge"><title>Node9&#45;&gt;Node18</title>
<path fill="none" stroke="midnightblue" d="M1203.29,-210.372C1203.29,-200.643 1203.29,-184.528 1203.29,-171.85"/>
<polygon fill="midnightblue" stroke="midnightblue" points="1206.79,-171.841 1203.29,-161.841 1199.79,-171.841 1206.79,-171.841"/>
</g>
<!-- Node19 -->
<g id="node19" class="node"><title>Node19</title>
<polygon fill="none" stroke="#bfbfbf" points="1247.79,-142.5 1247.79,-161.5 1298.79,-161.5 1298.79,-142.5 1247.79,-142.5"/>
<text text-anchor="middle" x="1273.29" y="-149.5" font-family="Helvetica,sans-Serif" font-size="10.00">typeinfo</text>
</g>
<!-- Node9&#45;&gt;Node19 -->
<g id="edge24" class="edge"><title>Node9&#45;&gt;Node19</title>
<path fill="none" stroke="midnightblue" d="M1212.44,-210.372C1223.59,-199.856 1242.66,-181.882 1256.48,-168.85"/>
<polygon fill="midnightblue" stroke="midnightblue" points="1259.04,-171.248 1263.91,-161.841 1254.24,-166.155 1259.04,-171.248"/>
</g>
<!-- Node20 -->
<g id="node20" class="node"><title>Node20</title>
<polygon fill="none" stroke="#bfbfbf" points="1828.29,-142.5 1828.29,-161.5 1890.29,-161.5 1890.29,-142.5 1828.29,-142.5"/>
<text text-anchor="middle" x="1859.29" y="-149.5" font-family="Helvetica,sans-Serif" font-size="10.00">type_traits</text>
</g>
<!-- Node9&#45;&gt;Node20 -->
<g id="edge25" class="edge"><title>Node9&#45;&gt;Node20</title>
<path fill="none" stroke="midnightblue" d="M1269.13,-218.622C1381.9,-216.841 1618.78,-208.143 1814.29,-168 1818.56,-167.124 1822.98,-165.97 1827.31,-164.691"/>
<polygon fill="midnightblue" stroke="midnightblue" points="1828.69,-167.926 1837.15,-161.548 1826.56,-161.258 1828.69,-167.926"/>
</g>
<!-- Node21 -->
<g id="node21" class="node"><title>Node21</title>
<polygon fill="none" stroke="#bfbfbf" points="1316.79,-142.5 1316.79,-161.5 1357.79,-161.5 1357.79,-142.5 1316.79,-142.5"/>
<text text-anchor="middle" x="1337.29" y="-149.5" font-family="Helvetica,sans-Serif" font-size="10.00">string</text>
</g>
<!-- Node9&#45;&gt;Node21 -->
<g id="edge26" class="edge"><title>Node9&#45;&gt;Node21</title>
<path fill="none" stroke="midnightblue" d="M1220.98,-210.379C1241.69,-200.271 1277.01,-182.992 1307.29,-168 1308.46,-167.419 1309.66,-166.824 1310.88,-166.222"/>
<polygon fill="midnightblue" stroke="midnightblue" points="1312.78,-169.183 1320.17,-161.59 1309.66,-162.918 1312.78,-169.183"/>
</g>
<!-- Node22 -->
<g id="node22" class="node"><title>Node22</title>
<polygon fill="none" stroke="#bfbfbf" points="1375.79,-142.5 1375.79,-161.5 1468.79,-161.5 1468.79,-142.5 1375.79,-142.5"/>
<text text-anchor="middle" x="1422.29" y="-149.5" font-family="Helvetica,sans-Serif" font-size="10.00">FairMQChannel.h</text>
</g>
<!-- Node9&#45;&gt;Node22 -->
<g id="edge27" class="edge"><title>Node9&#45;&gt;Node22</title>
<path fill="none" stroke="midnightblue" d="M1231.92,-210.372C1270.97,-198.604 1341.01,-177.496 1384.38,-164.426"/>
<polygon fill="midnightblue" stroke="midnightblue" points="1385.44,-167.763 1394,-161.526 1383.42,-161.06 1385.44,-167.763"/>
</g>
<!-- Node23 -->
<g id="node23" class="node"><title>Node23</title>
<polygon fill="none" stroke="#bfbfbf" points="1486.79,-142.5 1486.79,-161.5 1583.79,-161.5 1583.79,-142.5 1486.79,-142.5"/>
<text text-anchor="middle" x="1535.29" y="-149.5" font-family="Helvetica,sans-Serif" font-size="10.00">FairMQMessage.h</text>
</g>
<!-- Node9&#45;&gt;Node23 -->
<g id="edge28" class="edge"><title>Node9&#45;&gt;Node23</title>
<path fill="none" stroke="midnightblue" d="M1255.02,-210.469C1310.27,-201.1 1400.3,-185.1 1477.29,-168 1482.68,-166.802 1488.34,-165.455 1493.91,-164.073"/>
<polygon fill="midnightblue" stroke="midnightblue" points="1494.95,-167.421 1503.78,-161.571 1493.23,-160.636 1494.95,-167.421"/>
</g>
<!-- Node24 -->
<g id="node24" class="node"><title>Node24</title>
<polygon fill="none" stroke="#bfbfbf" points="1602.29,-142.5 1602.29,-161.5 1682.29,-161.5 1682.29,-142.5 1602.29,-142.5"/>
<text text-anchor="middle" x="1642.29" y="-149.5" font-family="Helvetica,sans-Serif" font-size="10.00">FairMQParts.h</text>
</g>
<!-- Node9&#45;&gt;Node24 -->
<g id="edge29" class="edge"><title>Node9&#45;&gt;Node24</title>
<path fill="none" stroke="midnightblue" d="M1268.88,-213.651C1346.65,-206.562 1479.9,-192.063 1592.29,-168 1597.08,-166.975 1602.07,-165.714 1606.97,-164.363"/>
<polygon fill="midnightblue" stroke="midnightblue" points="1608.18,-167.659 1616.8,-161.51 1606.22,-160.936 1608.18,-167.659"/>
</g>
<!-- Node25 -->
<g id="node25" class="node"><title>Node25</title>
<polygon fill="none" stroke="#bfbfbf" points="1700.79,-142.5 1700.79,-161.5 1771.79,-161.5 1771.79,-142.5 1700.79,-142.5"/>
<text text-anchor="middle" x="1736.29" y="-149.5" font-family="Helvetica,sans-Serif" font-size="10.00">TMessage.h</text>
</g>
<!-- Node9&#45;&gt;Node25 -->
<g id="edge30" class="edge"><title>Node9&#45;&gt;Node25</title>
<path fill="none" stroke="midnightblue" d="M1269.13,-216.661C1363.55,-212.285 1542.46,-200.179 1691.29,-168 1695.46,-167.099 1699.78,-165.95 1704.02,-164.689"/>
<polygon fill="midnightblue" stroke="midnightblue" points="1705.2,-167.985 1713.67,-161.609 1703.08,-161.316 1705.2,-167.985"/>
</g>
<!-- Node16&#45;&gt;Node3 -->
<g id="edge18" class="edge"><title>Node16&#45;&gt;Node3</title>
<path fill="none" stroke="midnightblue" d="M720.004,-142.482C700.099,-140.194 678.351,-137.845 658.291,-136 428.483,-114.868 365.134,-151.999 140.291,-100 137.216,-99.2889 134.064,-98.3563 130.961,-97.3034"/>
<polygon fill="midnightblue" stroke="midnightblue" points="131.953,-93.9363 121.362,-93.6543 129.466,-100.479 131.953,-93.9363"/>
</g>
<!-- Node16&#45;&gt;Node10 -->
<g id="edge19" class="edge"><title>Node16&#45;&gt;Node10</title>
<path fill="none" stroke="midnightblue" d="M835.491,-142.483C850.096,-140.056 866.329,-137.63 881.291,-136 926.669,-131.056 1623.39,-94.2964 1772.39,-86.4648"/>
<polygon fill="midnightblue" stroke="midnightblue" points="1772.72,-89.9521 1782.52,-85.9321 1772.35,-82.9617 1772.72,-89.9521"/>
</g>
<!-- Node16&#45;&gt;Node12 -->
<g id="edge21" class="edge"><title>Node16&#45;&gt;Node12</title>
<path fill="none" stroke="midnightblue" d="M836.936,-142.482C851.17,-140.141 866.833,-137.763 881.291,-136 1077.38,-112.087 1130.62,-138.887 1324.29,-100 1328.77,-99.1014 1333.41,-97.9083 1337.96,-96.5864"/>
<polygon fill="midnightblue" stroke="midnightblue" points="1339.15,-99.8822 1347.64,-93.5506 1337.05,-93.2029 1339.15,-99.8822"/>
</g>
<!-- Node17 -->
<g id="node17" class="node"><title>Node17</title>
<polygon fill="none" stroke="#bfbfbf" points="1424.79,-74.5 1424.79,-93.5 1507.79,-93.5 1507.79,-74.5 1424.79,-74.5"/>
<text text-anchor="middle" x="1466.29" y="-81.5" font-family="Helvetica,sans-Serif" font-size="10.00">unordered_map</text>
</g>
<!-- Node16&#45;&gt;Node17 -->
<g id="edge20" class="edge"><title>Node16&#45;&gt;Node17</title>
<path fill="none" stroke="midnightblue" d="M836.447,-142.435C850.806,-140.064 866.66,-137.682 881.291,-136 1117.61,-108.831 1181.12,-141.81 1415.29,-100 1420.55,-99.0609 1426.04,-97.7795 1431.38,-96.3586"/>
<polygon fill="midnightblue" stroke="midnightblue" points="1432.73,-99.6142 1441.39,-93.5076 1430.81,-92.8822 1432.73,-99.6142"/>
</g>
<!-- Node27 -->
<g id="node27" class="node"><title>Node27</title>
<g id="a_node27"><a xlink:href="../../dd/d76/Cartesian3D_8h.html" target="_top" xlink:title="MathUtils/Cartesian3D.h">
<polygon fill="none" stroke="black" points="463.791,-142.5 463.791,-161.5 588.791,-161.5 588.791,-142.5 463.791,-142.5"/>
<text text-anchor="middle" x="526.291" y="-149.5" font-family="Helvetica,sans-Serif" font-size="10.00">MathUtils/Cartesian3D.h</text>
</a>
</g>
</g>
<!-- Node26&#45;&gt;Node27 -->
<g id="edge33" class="edge"><title>Node26&#45;&gt;Node27</title>
<path fill="none" stroke="midnightblue" d="M576.404,-204.679C566.227,-194.184 552.406,-179.932 541.856,-169.052"/>
<polygon fill="midnightblue" stroke="midnightblue" points="544.326,-166.571 534.851,-161.828 539.3,-171.444 544.326,-166.571"/>
</g>
<!-- Node27&#45;&gt;Node3 -->
<g id="edge39" class="edge"><title>Node27&#45;&gt;Node3</title>
<path fill="none" stroke="midnightblue" d="M485.632,-142.477C473.933,-140.188 461.133,-137.841 449.291,-136 312.669,-114.766 274.235,-134.283 140.291,-100 137.298,-99.2341 134.227,-98.2803 131.194,-97.2273"/>
<polygon fill="midnightblue" stroke="midnightblue" points="132.374,-93.9316 121.783,-93.6339 129.877,-100.471 132.374,-93.9316"/>
</g>
<!-- Node27&#45;&gt;Node6 -->
<g id="edge41" class="edge"><title>Node27&#45;&gt;Node6</title>
<path fill="none" stroke="midnightblue" d="M484.395,-142.471C473.024,-140.257 460.702,-137.949 449.291,-136 340.803,-117.473 309.686,-131.694 204.291,-100 202.01,-99.3142 199.686,-98.4916 197.383,-97.5894"/>
<polygon fill="midnightblue" stroke="midnightblue" points="198.772,-94.3769 188.207,-93.5792 195.969,-100.791 198.772,-94.3769"/>
</g>
<!-- Node28 -->
<g id="node28" class="node"><title>Node28</title>
<polygon fill="none" stroke="#bfbfbf" points="450.791,-69 450.791,-99 601.791,-99 601.791,-69 450.791,-69"/>
<text text-anchor="start" x="458.791" y="-87" font-family="Helvetica,sans-Serif" font-size="10.00">Math/GenVector/Displacement</text>
<text text-anchor="middle" x="526.291" y="-76" font-family="Helvetica,sans-Serif" font-size="10.00">Vector3D.h</text>
</g>
<!-- Node27&#45;&gt;Node28 -->
<g id="edge34" class="edge"><title>Node27&#45;&gt;Node28</title>
<path fill="none" stroke="midnightblue" d="M526.291,-142.372C526.291,-133.971 526.291,-120.811 526.291,-109.213"/>
<polygon fill="midnightblue" stroke="midnightblue" points="529.791,-109.181 526.291,-99.1815 522.791,-109.181 529.791,-109.181"/>
</g>
<!-- Node29 -->
<g id="node29" class="node"><title>Node29</title>
<polygon fill="none" stroke="#bfbfbf" points="620.291,-74.5 620.291,-93.5 796.291,-93.5 796.291,-74.5 620.291,-74.5"/>
<text text-anchor="middle" x="708.291" y="-81.5" font-family="Helvetica,sans-Serif" font-size="10.00">Math/GenVector/PositionVector3D.h</text>
</g>
<!-- Node27&#45;&gt;Node29 -->
<g id="edge35" class="edge"><title>Node27&#45;&gt;Node29</title>
<path fill="none" stroke="midnightblue" d="M550.084,-142.372C582.055,-130.778 639.031,-110.116 675.176,-97.0087"/>
<polygon fill="midnightblue" stroke="midnightblue" points="676.572,-100.225 684.78,-93.5259 674.186,-93.6447 676.572,-100.225"/>
</g>
<!-- Node30 -->
<g id="node30" class="node"><title>Node30</title>
<polygon fill="none" stroke="#bfbfbf" points="813.791,-74.5 813.791,-93.5 962.791,-93.5 962.791,-74.5 813.791,-74.5"/>
<text text-anchor="middle" x="888.291" y="-81.5" font-family="Helvetica,sans-Serif" font-size="10.00">Math/GenVector/Rotation3D.h</text>
</g>
<!-- Node27&#45;&gt;Node30 -->
<g id="edge36" class="edge"><title>Node27&#45;&gt;Node30</title>
<path fill="none" stroke="midnightblue" d="M565.301,-142.495C575.682,-140.303 586.899,-138.001 597.291,-136 688.988,-118.346 712.327,-116.208 804.291,-100 812.877,-98.4868 821.954,-96.8766 830.844,-95.294"/>
<polygon fill="midnightblue" stroke="midnightblue" points="831.534,-98.7263 840.764,-93.5255 830.305,-91.8349 831.534,-98.7263"/>
</g>
<!-- Node31 -->
<g id="node31" class="node"><title>Node31</title>
<polygon fill="none" stroke="#bfbfbf" points="981.291,-74.5 981.291,-93.5 1137.29,-93.5 1137.29,-74.5 981.291,-74.5"/>
<text text-anchor="middle" x="1059.29" y="-81.5" font-family="Helvetica,sans-Serif" font-size="10.00">Math/GenVector/Transform3D.h</text>
</g>
<!-- Node27&#45;&gt;Node31 -->
<g id="edge37" class="edge"><title>Node27&#45;&gt;Node31</title>
<path fill="none" stroke="midnightblue" d="M562.997,-142.425C573.98,-140.082 586.083,-137.718 597.291,-136 762.354,-110.701 805.762,-122.044 971.291,-100 981.536,-98.6356 992.414,-96.9642 1002.9,-95.2383"/>
<polygon fill="midnightblue" stroke="midnightblue" points="1003.52,-98.6833 1012.8,-93.5751 1002.36,-91.7801 1003.52,-98.6833"/>
</g>
<!-- Node32 -->
<g id="node32" class="node"><title>Node32</title>
<polygon fill="none" stroke="#bfbfbf" points="1155.29,-74.5 1155.29,-93.5 1315.29,-93.5 1315.29,-74.5 1155.29,-74.5"/>
<text text-anchor="middle" x="1235.29" y="-81.5" font-family="Helvetica,sans-Serif" font-size="10.00">Math/GenVector/Translation3D.h</text>
</g>
<!-- Node27&#45;&gt;Node32 -->
<g id="edge38" class="edge"><title>Node27&#45;&gt;Node32</title>
<path fill="none" stroke="midnightblue" d="M561.871,-142.444C573.14,-140.015 585.684,-137.598 597.291,-136 839.529,-102.643 903.416,-128.356 1146.29,-100 1157.25,-98.7201 1168.92,-97.0089 1180.08,-95.2007"/>
<polygon fill="midnightblue" stroke="midnightblue" points="1180.85,-98.6196 1190.14,-93.5224 1179.7,-91.7149 1180.85,-98.6196"/>
</g>
<!-- Node33 -->
<g id="node33" class="node"><title>Node33</title>
<polygon fill="none" stroke="#bfbfbf" points="213.291,-74.5 213.291,-93.5 289.291,-93.5 289.291,-74.5 213.291,-74.5"/>
<text text-anchor="middle" x="251.291" y="-81.5" font-family="Helvetica,sans-Serif" font-size="10.00">TGeoMatrix.h</text>
</g>
<!-- Node27&#45;&gt;Node33 -->
<g id="edge40" class="edge"><title>Node27&#45;&gt;Node33</title>
<path fill="none" stroke="midnightblue" d="M482.724,-142.456C436.631,-133.136 361.911,-117.231 298.291,-100 294.402,-98.9469 290.357,-97.7745 286.342,-96.5621"/>
<polygon fill="midnightblue" stroke="midnightblue" points="287.124,-93.14 276.536,-93.5114 285.045,-99.8241 287.124,-93.14"/>
</g>
<!-- Node34 -->
<g id="node34" class="node"><title>Node34</title>
<g id="a_node34"><a xlink:href="../../d2/dd0/Cartesian2D_8h.html" target="_top" xlink:title="MathUtils/Cartesian2D.h">
<polygon fill="none" stroke="black" points="307.791,-74.5 307.791,-93.5 432.791,-93.5 432.791,-74.5 307.791,-74.5"/>
<text text-anchor="middle" x="370.291" y="-81.5" font-family="Helvetica,sans-Serif" font-size="10.00">MathUtils/Cartesian2D.h</text>
</a>
</g>
</g>
<!-- Node27&#45;&gt;Node34 -->
<g id="edge42" class="edge"><title>Node27&#45;&gt;Node34</title>
<path fill="none" stroke="midnightblue" d="M505.896,-142.372C478.919,-130.958 431.169,-110.756 400.132,-97.6252"/>
<polygon fill="midnightblue" stroke="midnightblue" points="401.263,-94.3035 390.69,-93.6305 398.536,-100.75 401.263,-94.3035"/>
</g>
<!-- Node35 -->
<g id="node35" class="node"><title>Node35</title>
<polygon fill="none" stroke="#bfbfbf" points="203.791,-1 203.791,-31 354.791,-31 354.791,-1 203.791,-1"/>
<text text-anchor="start" x="211.791" y="-19" font-family="Helvetica,sans-Serif" font-size="10.00">Math/GenVector/Displacement</text>
<text text-anchor="middle" x="279.291" y="-8" font-family="Helvetica,sans-Serif" font-size="10.00">Vector2D.h</text>
</g>
<!-- Node34&#45;&gt;Node35 -->
<g id="edge43" class="edge"><title>Node34&#45;&gt;Node35</title>
<path fill="none" stroke="midnightblue" d="M358.394,-74.3717C345.512,-65.0286 324.51,-49.7966 307.383,-37.375"/>
<polygon fill="midnightblue" stroke="midnightblue" points="308.994,-34.2194 298.844,-31.1815 304.884,-39.8859 308.994,-34.2194"/>
</g>
<!-- Node36 -->
<g id="node36" class="node"><title>Node36</title>
<polygon fill="none" stroke="#bfbfbf" points="373.291,-6.5 373.291,-25.5 549.291,-25.5 549.291,-6.5 373.291,-6.5"/>
<text text-anchor="middle" x="461.291" y="-13.5" font-family="Helvetica,sans-Serif" font-size="10.00">Math/GenVector/PositionVector2D.h</text>
</g>
<!-- Node34&#45;&gt;Node36 -->
<g id="edge44" class="edge"><title>Node34&#45;&gt;Node36</title>
<path fill="none" stroke="midnightblue" d="M382.187,-74.3717C397.175,-63.5015 423.153,-44.6602 441.233,-31.5474"/>
<polygon fill="midnightblue" stroke="midnightblue" points="443.351,-34.3349 449.391,-25.6305 439.241,-28.6684 443.351,-34.3349"/>
</g>
<!-- Node37&#45;&gt;Node4 -->
<g id="edge46" class="edge"><title>Node37&#45;&gt;Node4</title>
<path fill="none" stroke="midnightblue" d="M565.833,-334.423C535.732,-324.831 486.144,-308.469 444.291,-292 397.329,-273.521 344.004,-248.952 312.584,-234.092"/>
<polygon fill="midnightblue" stroke="midnightblue" points="313.722,-230.758 303.188,-229.629 310.719,-237.081 313.722,-230.758"/>
</g>
<!-- Node37&#45;&gt;Node8 -->
<g id="edge53" class="edge"><title>Node37&#45;&gt;Node8</title>
<path fill="none" stroke="midnightblue" d="M625.098,-334.403C664.168,-323.844 730.551,-305.903 773.651,-294.254"/>
<polygon fill="midnightblue" stroke="midnightblue" points="774.802,-297.569 783.542,-291.581 772.976,-290.811 774.802,-297.569"/>
</g>
<!-- Node37&#45;&gt;Node10 -->
<g id="edge49" class="edge"><title>Node37&#45;&gt;Node10</title>
<path fill="none" stroke="midnightblue" d="M650.182,-339.71C890.575,-325.242 1814.57,-263.7 1898.29,-168 1907.66,-157.296 1905.67,-148.158 1898.29,-136 1883.03,-110.862 1850.9,-97.5419 1827.58,-90.9005"/>
<polygon fill="midnightblue" stroke="midnightblue" points="1828.45,-87.5097 1817.89,-88.3742 1826.68,-94.2834 1828.45,-87.5097"/>
</g>
<!-- Node37&#45;&gt;Node11 -->
<g id="edge51" class="edge"><title>Node37&#45;&gt;Node11</title>
<path fill="none" stroke="midnightblue" d="M619.217,-334.494C648.347,-324.35 692.815,-306.896 702.291,-292 729.787,-248.777 677.384,-194.357 647.316,-168.289"/>
<polygon fill="midnightblue" stroke="midnightblue" points="649.418,-165.483 639.513,-161.722 644.91,-170.839 649.418,-165.483"/>
</g>
<!-- Node37&#45;&gt;Node27 -->
<g id="edge52" class="edge"><title>Node37&#45;&gt;Node27</title>
<path fill="none" stroke="midnightblue" d="M544.168,-334.44C519.66,-327.421 492.141,-314.751 477.291,-292 451.293,-252.171 488.884,-196.897 511.426,-169.607"/>
<polygon fill="midnightblue" stroke="midnightblue" points="514.276,-171.659 518.116,-161.785 508.956,-167.109 514.276,-171.659"/>
</g>
<!-- Node38 -->
<g id="node38" class="node"><title>Node38</title>
<polygon fill="none" stroke="#bfbfbf" points="486.791,-272.5 486.791,-291.5 545.791,-291.5 545.791,-272.5 486.791,-272.5"/>
<text text-anchor="middle" x="516.291" y="-279.5" font-family="Helvetica,sans-Serif" font-size="10.00">TObject.h</text>
</g>
<!-- Node37&#45;&gt;Node38 -->
<g id="edge47" class="edge"><title>Node37&#45;&gt;Node38</title>
<path fill="none" stroke="midnightblue" d="M582.258,-334.403C570.022,-324.869 550.062,-309.315 535.298,-297.811"/>
<polygon fill="midnightblue" stroke="midnightblue" points="537.342,-294.966 527.302,-291.581 533.039,-300.488 537.342,-294.966"/>
</g>
<!-- Node39 -->
<g id="node39" class="node"><title>Node39</title>
<polygon fill="none" stroke="#bfbfbf" points="563.791,-272.5 563.791,-291.5 622.791,-291.5 622.791,-272.5 563.791,-272.5"/>
<text text-anchor="middle" x="593.291" y="-279.5" font-family="Helvetica,sans-Serif" font-size="10.00">exception</text>
</g>
<!-- Node37&#45;&gt;Node39 -->
<g id="edge48" class="edge"><title>Node37&#45;&gt;Node39</title>
<path fill="none" stroke="midnightblue" d="M593.291,-334.403C593.291,-325.938 593.291,-312.728 593.291,-301.82"/>
<polygon fill="midnightblue" stroke="midnightblue" points="596.791,-301.581 593.291,-291.581 589.791,-301.581 596.791,-301.581"/>
</g>
<!-- Node40 -->
<g id="node40" class="node"><title>Node40</title>
<polygon fill="none" stroke="#bfbfbf" points="641.291,-272.5 641.291,-291.5 693.291,-291.5 693.291,-272.5 641.291,-272.5"/>
<text text-anchor="middle" x="667.291" y="-279.5" font-family="Helvetica,sans-Serif" font-size="10.00">sstream</text>
</g>
<!-- Node37&#45;&gt;Node40 -->
<g id="edge50" class="edge"><title>Node37&#45;&gt;Node40</title>
<path fill="none" stroke="midnightblue" d="M603.893,-334.403C615.543,-324.958 634.477,-309.606 648.625,-298.134"/>
<polygon fill="midnightblue" stroke="midnightblue" points="651.145,-300.597 656.708,-291.581 646.736,-295.16 651.145,-300.597"/>
</g>
<!-- Node41&#45;&gt;Node20 -->
<g id="edge59" class="edge"><title>Node41&#45;&gt;Node20</title>
<path fill="none" stroke="midnightblue" d="M1944.98,-328.882C1929.19,-320.296 1910.96,-307.901 1899.29,-292 1872.26,-255.165 1863.45,-200.482 1860.61,-171.923"/>
<polygon fill="midnightblue" stroke="midnightblue" points="1864.08,-171.39 1859.75,-161.722 1857.1,-171.982 1864.08,-171.39"/>
</g>
<!-- Node42 -->
<g id="node42" class="node"><title>Node42</title>
<polygon fill="none" stroke="#bfbfbf" points="1908.29,-272.5 1908.29,-291.5 1970.29,-291.5 1970.29,-272.5 1908.29,-272.5"/>
<text text-anchor="middle" x="1939.29" y="-279.5" font-family="Helvetica,sans-Serif" font-size="10.00">TNamed.h</text>
</g>
<!-- Node41&#45;&gt;Node42 -->
<g id="edge55" class="edge"><title>Node41&#45;&gt;Node42</title>
<path fill="none" stroke="midnightblue" d="M1967.52,-328.781C1962.26,-320.242 1955.52,-309.318 1949.95,-300.283"/>
<polygon fill="midnightblue" stroke="midnightblue" points="1952.9,-298.405 1944.67,-291.731 1946.94,-302.079 1952.9,-298.405"/>
</g>
<!-- Node43 -->
<g id="node43" class="node"><title>Node43</title>
<polygon fill="none" stroke="#bfbfbf" points="1988.79,-272.5 1988.79,-291.5 2037.79,-291.5 2037.79,-272.5 1988.79,-272.5"/>
<text text-anchor="middle" x="2013.29" y="-279.5" font-family="Helvetica,sans-Serif" font-size="10.00">cassert</text>
</g>
<!-- Node41&#45;&gt;Node43 -->
<g id="edge56" class="edge"><title>Node41&#45;&gt;Node43</title>
<path fill="none" stroke="midnightblue" d="M1985.06,-328.781C1990.32,-320.242 1997.06,-309.318 2002.63,-300.283"/>
<polygon fill="midnightblue" stroke="midnightblue" points="2005.64,-302.079 2007.91,-291.731 1999.68,-298.405 2005.64,-302.079"/>
</g>
<!-- Node44 -->
<g id="node44" class="node"><title>Node44</title>
<polygon fill="none" stroke="#bfbfbf" points="2055.79,-272.5 2055.79,-291.5 2114.79,-291.5 2114.79,-272.5 2055.79,-272.5"/>
<text text-anchor="middle" x="2085.29" y="-279.5" font-family="Helvetica,sans-Serif" font-size="10.00">stdexcept</text>
</g>
<!-- Node41&#45;&gt;Node44 -->
<g id="edge57" class="edge"><title>Node41&#45;&gt;Node44</title>
<path fill="none" stroke="midnightblue" d="M2001.85,-328.933C2019.58,-319.171 2043.07,-306.24 2060.61,-296.586"/>
<polygon fill="midnightblue" stroke="midnightblue" points="2062.59,-299.489 2069.67,-291.6 2059.22,-293.356 2062.59,-299.489"/>
</g>
<!-- Node45 -->
<g id="node45" class="node"><title>Node45</title>
<polygon fill="none" stroke="#bfbfbf" points="2132.79,-272.5 2132.79,-291.5 2177.79,-291.5 2177.79,-272.5 2132.79,-272.5"/>
<text text-anchor="middle" x="2155.29" y="-279.5" font-family="Helvetica,sans-Serif" font-size="10.00">gsl/gsl</text>
</g>
<!-- Node41&#45;&gt;Node45 -->
<g id="edge58" class="edge"><title>Node41&#45;&gt;Node45</title>
<path fill="none" stroke="midnightblue" d="M2018.26,-328.933C2050.24,-318.212 2093.63,-303.668 2122.95,-293.84"/>
<polygon fill="midnightblue" stroke="midnightblue" points="2124.32,-297.072 2132.69,-290.575 2122.1,-290.435 2124.32,-297.072"/>
</g>
<!-- Node47 -->
<g id="node47" class="node"><title>Node47</title>
<g id="a_node47"><a xlink:href="../../d7/dcd/MCCompLabel_8h.html" target="_top" xlink:title="SimulationDataFormat\l/MCCompLabel.h">
<polygon fill="none" stroke="black" points="17.2906,-205 17.2906,-235 131.291,-235 131.291,-205 17.2906,-205"/>
<text text-anchor="start" x="25.2906" y="-223" font-family="Helvetica,sans-Serif" font-size="10.00">SimulationDataFormat</text>
<text text-anchor="middle" x="74.2906" y="-212" font-family="Helvetica,sans-Serif" font-size="10.00">/MCCompLabel.h</text>
</a>
</g>
</g>
<!-- Node46&#45;&gt;Node47 -->
<g id="edge61" class="edge"><title>Node46&#45;&gt;Node47</title>
<path fill="none" stroke="midnightblue" d="M177.308,-334.226C160.025,-315.23 118.71,-269.822 93.9719,-242.632"/>
<polygon fill="midnightblue" stroke="midnightblue" points="96.4882,-240.196 87.1695,-235.155 91.3105,-244.907 96.4882,-240.196"/>
</g>
<!-- Node47&#45;&gt;Node3 -->
<g id="edge62" class="edge"><title>Node47&#45;&gt;Node3</title>
<path fill="none" stroke="midnightblue" d="M43.7352,-204.836C29.2665,-196.367 13.4077,-184.093 5.29064,-168 -1.11417,-155.302 -2.08823,-148.158 5.29064,-136 18.3211,-114.53 43.6617,-101.68 65.3098,-94.2497"/>
<polygon fill="midnightblue" stroke="midnightblue" points="66.4591,-97.5572 74.939,-91.2056 64.349,-90.8828 66.4591,-97.5572"/>
</g>
</g>
</svg>
