<?xml version="1.0" encoding="UTF-8" standalone="no"?>
<!DOCTYPE svg PUBLIC "-//W3C//DTD SVG 1.1//EN"
 "http://www.w3.org/Graphics/SVG/1.1/DTD/svg11.dtd">
<!-- Generated by graphviz version 2.36.0 (20140111.2315)
 -->
<!-- Title: /home/travis/build/AliceO2Group/AliceO2/Detectors/MUON/MCH/Mapping/SegContour/src/SegmentationContours.cxx Pages: 1 -->
<svg width="1157pt" height="478pt"
 viewBox="0.00 0.00 1157.00 478.00" xmlns="http://www.w3.org/2000/svg" xmlns:xlink="http://www.w3.org/1999/xlink">
<g id="graph0" class="graph" transform="scale(1 1) rotate(0) translate(4 474)">
<title>/home/travis/build/AliceO2Group/AliceO2/Detectors/MUON/MCH/Mapping/SegContour/src/SegmentationContours.cxx</title>
<!-- Node1 -->
<g id="node1" class="node"><title>Node1</title>
<polygon fill="#bfbfbf" stroke="black" points="487.5,-417 487.5,-469 696.5,-469 696.5,-417 487.5,-417"/>
<text text-anchor="start" x="495.5" y="-457" font-family="Helvetica,sans-Serif" font-size="10.00">/home/travis/build</text>
<text text-anchor="start" x="495.5" y="-446" font-family="Helvetica,sans-Serif" font-size="10.00">/AliceO2Group/AliceO2</text>
<text text-anchor="start" x="495.5" y="-435" font-family="Helvetica,sans-Serif" font-size="10.00">/Detectors/MUON/MCH/Mapping</text>
<text text-anchor="middle" x="592" y="-424" font-family="Helvetica,sans-Serif" font-size="10.00">/SegContour/src/SegmentationContours.cxx</text>
</g>
<!-- Node2 -->
<g id="node2" class="node"><title>Node2</title>
<g id="a_node2"><a xlink:href="../../dd/d1c/SegmentationContours_8h.html" target="_top" xlink:title="MCHMappingSegContour\l/SegmentationContours.h">
<polygon fill="none" stroke="black" points="324,-293 324,-323 452,-323 452,-293 324,-293"/>
<text text-anchor="start" x="332" y="-311" font-family="Helvetica,sans-Serif" font-size="10.00">MCHMappingSegContour</text>
<text text-anchor="middle" x="388" y="-300" font-family="Helvetica,sans-Serif" font-size="10.00">/SegmentationContours.h</text>
</a>
</g>
</g>
<!-- Node1&#45;&gt;Node2 -->
<g id="edge1" class="edge"><title>Node1&#45;&gt;Node2</title>
<path fill="none" stroke="midnightblue" d="M553.629,-416.984C514.367,-391.387 454.164,-352.136 418.177,-328.674"/>
<polygon fill="midnightblue" stroke="midnightblue" points="419.865,-325.597 409.577,-323.067 416.042,-331.461 419.865,-325.597"/>
</g>
<!-- Node25 -->
<g id="node25" class="node"><title>Node25</title>
<g id="a_node25"><a xlink:href="../../d4/d84/ContourCreator_8h.html" target="_top" xlink:title="MCHContour/ContourCreator.h">
<polygon fill="none" stroke="black" points="599,-360.5 599,-379.5 751,-379.5 751,-360.5 599,-360.5"/>
<text text-anchor="middle" x="675" y="-367.5" font-family="Helvetica,sans-Serif" font-size="10.00">MCHContour/ContourCreator.h</text>
</a>
</g>
</g>
<!-- Node1&#45;&gt;Node25 -->
<g id="edge34" class="edge"><title>Node1&#45;&gt;Node25</title>
<path fill="none" stroke="midnightblue" d="M621.496,-416.768C633.409,-406.578 646.765,-395.153 657.153,-386.267"/>
<polygon fill="midnightblue" stroke="midnightblue" points="659.439,-388.917 664.763,-379.757 654.889,-383.598 659.439,-388.917"/>
</g>
<!-- Node3 -->
<g id="node3" class="node"><title>Node3</title>
<polygon fill="none" stroke="#bfbfbf" points="582,-56.5 582,-75.5 626,-75.5 626,-56.5 582,-56.5"/>
<text text-anchor="middle" x="604" y="-63.5" font-family="Helvetica,sans-Serif" font-size="10.00">vector</text>
</g>
<!-- Node2&#45;&gt;Node3 -->
<g id="edge2" class="edge"><title>Node2&#45;&gt;Node3</title>
<path fill="none" stroke="midnightblue" d="M373.527,-292.852C339.872,-258.276 262.764,-168.21 311,-112 344.324,-73.1669 502.678,-67.5111 571.707,-66.9209"/>
<polygon fill="midnightblue" stroke="midnightblue" points="572.005,-70.4195 581.986,-66.8654 571.967,-63.4196 572.005,-70.4195"/>
</g>
<!-- Node4 -->
<g id="node4" class="node"><title>Node4</title>
<g id="a_node4"><a xlink:href="../../db/d08/Contour_8h.html" target="_top" xlink:title="MCHContour/Contour.h">
<polygon fill="none" stroke="black" points="391,-236.5 391,-255.5 511,-255.5 511,-236.5 391,-236.5"/>
<text text-anchor="middle" x="451" y="-243.5" font-family="Helvetica,sans-Serif" font-size="10.00">MCHContour/Contour.h</text>
</a>
</g>
</g>
<!-- Node2&#45;&gt;Node4 -->
<g id="edge3" class="edge"><title>Node2&#45;&gt;Node4</title>
<path fill="none" stroke="midnightblue" d="M402.93,-292.781C412.368,-283.792 424.58,-272.162 434.333,-262.873"/>
<polygon fill="midnightblue" stroke="midnightblue" points="437.005,-265.162 441.833,-255.731 432.178,-260.093 437.005,-265.162"/>
</g>
<!-- Node5 -->
<g id="node5" class="node"><title>Node5</title>
<g id="a_node5"><a xlink:href="../../dc/ddd/Polygon_8h.html" target="_top" xlink:title="Polygon.h">
<polygon fill="none" stroke="black" points="526,-180.5 526,-199.5 586,-199.5 586,-180.5 526,-180.5"/>
<text text-anchor="middle" x="556" y="-187.5" font-family="Helvetica,sans-Serif" font-size="10.00">Polygon.h</text>
</a>
</g>
</g>
<!-- Node2&#45;&gt;Node5 -->
<g id="edge25" class="edge"><title>Node2&#45;&gt;Node5</title>
<path fill="none" stroke="midnightblue" d="M448.392,-292.954C472.373,-285.104 498.958,-273.307 519,-256 533.551,-243.435 543.648,-223.661 549.574,-209.22"/>
<polygon fill="midnightblue" stroke="midnightblue" points="552.864,-210.418 553.157,-199.827 546.323,-207.923 552.864,-210.418"/>
</g>
<!-- Node11 -->
<g id="node11" class="node"><title>Node11</title>
<g id="a_node11"><a xlink:href="../../d0/ddc/BBox_8h.html" target="_top" xlink:title="BBox.h">
<polygon fill="none" stroke="black" points="333.5,-118.5 333.5,-137.5 382.5,-137.5 382.5,-118.5 333.5,-118.5"/>
<text text-anchor="middle" x="358" y="-125.5" font-family="Helvetica,sans-Serif" font-size="10.00">BBox.h</text>
</a>
</g>
</g>
<!-- Node2&#45;&gt;Node11 -->
<g id="edge26" class="edge"><title>Node2&#45;&gt;Node11</title>
<path fill="none" stroke="midnightblue" d="M385.596,-292.734C380.201,-260.725 367.134,-183.198 361.122,-147.525"/>
<polygon fill="midnightblue" stroke="midnightblue" points="364.55,-146.804 359.437,-137.524 357.647,-147.967 364.55,-146.804"/>
</g>
<!-- Node21 -->
<g id="node21" class="node"><title>Node21</title>
<g id="a_node21"><a xlink:href="../../d6/d1f/MUON_2MCH_2Mapping_2Interface_2include_2MCHMappingInterface_2Segmentation_8h.html" target="_top" xlink:title="MCHMappingInterface\l/Segmentation.h">
<polygon fill="none" stroke="black" points="123.5,-113 123.5,-143 238.5,-143 238.5,-113 123.5,-113"/>
<text text-anchor="start" x="131.5" y="-131" font-family="Helvetica,sans-Serif" font-size="10.00">MCHMappingInterface</text>
<text text-anchor="middle" x="181" y="-120" font-family="Helvetica,sans-Serif" font-size="10.00">/Segmentation.h</text>
</a>
</g>
</g>
<!-- Node2&#45;&gt;Node21 -->
<g id="edge27" class="edge"><title>Node2&#45;&gt;Node21</title>
<path fill="none" stroke="midnightblue" d="M324.389,-292.891C300.036,-285.096 273.268,-273.355 253,-256 220.251,-227.958 199.233,-181.107 188.816,-152.825"/>
<polygon fill="midnightblue" stroke="midnightblue" points="192.088,-151.578 185.456,-143.315 185.488,-153.91 192.088,-151.578"/>
</g>
<!-- Node4&#45;&gt;Node3 -->
<g id="edge22" class="edge"><title>Node4&#45;&gt;Node3</title>
<path fill="none" stroke="midnightblue" d="M431.184,-236.449C385.938,-215.787 282.068,-161.209 324,-112 355.459,-75.0815 504.355,-68.3354 571.282,-67.1864"/>
<polygon fill="midnightblue" stroke="midnightblue" points="571.712,-70.6809 581.663,-67.0423 571.615,-63.6815 571.712,-70.6809"/>
</g>
<!-- Node4&#45;&gt;Node5 -->
<g id="edge4" class="edge"><title>Node4&#45;&gt;Node5</title>
<path fill="none" stroke="midnightblue" d="M467.87,-236.324C484.709,-227.664 510.807,-214.242 530.238,-204.249"/>
<polygon fill="midnightblue" stroke="midnightblue" points="531.88,-207.341 539.172,-199.655 528.678,-201.116 531.88,-207.341"/>
</g>
<!-- Node8 -->
<g id="node8" class="node"><title>Node8</title>
<polygon fill="none" stroke="#bfbfbf" points="400.5,-118.5 400.5,-137.5 473.5,-137.5 473.5,-118.5 400.5,-118.5"/>
<text text-anchor="middle" x="437" y="-125.5" font-family="Helvetica,sans-Serif" font-size="10.00">initializer_list</text>
</g>
<!-- Node4&#45;&gt;Node8 -->
<g id="edge24" class="edge"><title>Node4&#45;&gt;Node8</title>
<path fill="none" stroke="midnightblue" d="M450.13,-236.159C448.881,-223.645 446.455,-200.053 444,-180 442.688,-169.288 441.057,-157.335 439.699,-147.695"/>
<polygon fill="midnightblue" stroke="midnightblue" points="443.143,-147.058 438.266,-137.653 436.214,-148.047 443.143,-147.058"/>
</g>
<!-- Node20 -->
<g id="node20" class="node"><title>Node20</title>
<polygon fill="none" stroke="#bfbfbf" points="386.5,-180.5 386.5,-199.5 435.5,-199.5 435.5,-180.5 386.5,-180.5"/>
<text text-anchor="middle" x="411" y="-187.5" font-family="Helvetica,sans-Serif" font-size="10.00">cassert</text>
</g>
<!-- Node4&#45;&gt;Node20 -->
<g id="edge23" class="edge"><title>Node4&#45;&gt;Node20</title>
<path fill="none" stroke="midnightblue" d="M444.395,-236.083C438.745,-228.455 430.455,-217.264 423.549,-207.941"/>
<polygon fill="midnightblue" stroke="midnightblue" points="426.247,-205.703 417.482,-199.751 420.622,-209.87 426.247,-205.703"/>
</g>
<!-- Node5&#45;&gt;Node3 -->
<g id="edge7" class="edge"><title>Node5&#45;&gt;Node3</title>
<path fill="none" stroke="midnightblue" d="M546.446,-180.141C531.835,-165.482 507.028,-135.468 521,-112 532.088,-93.3758 553.867,-81.9852 572.333,-75.3246"/>
<polygon fill="midnightblue" stroke="midnightblue" points="573.485,-78.6304 581.888,-72.1772 571.295,-71.9818 573.485,-78.6304"/>
</g>
<!-- Node6 -->
<g id="node6" class="node"><title>Node6</title>
<polygon fill="none" stroke="#bfbfbf" points="997,-56.5 997,-75.5 1051,-75.5 1051,-56.5 997,-56.5"/>
<text text-anchor="middle" x="1024" y="-63.5" font-family="Helvetica,sans-Serif" font-size="10.00">iostream</text>
</g>
<!-- Node5&#45;&gt;Node6 -->
<g id="edge5" class="edge"><title>Node5&#45;&gt;Node6</title>
<path fill="none" stroke="midnightblue" d="M562.798,-180.449C577.562,-162.125 612.546,-120.076 629,-112 772.157,-41.7351 828.735,-102.434 986,-76 986.217,-75.9635 986.435,-75.9264 986.654,-75.8889"/>
<polygon fill="midnightblue" stroke="midnightblue" points="987.549,-79.2801 996.69,-73.9236 986.204,-72.4106 987.549,-79.2801"/>
</g>
<!-- Node7 -->
<g id="node7" class="node"><title>Node7</title>
<polygon fill="none" stroke="#bfbfbf" points="638,-118.5 638,-137.5 678,-137.5 678,-118.5 638,-118.5"/>
<text text-anchor="middle" x="658" y="-125.5" font-family="Helvetica,sans-Serif" font-size="10.00">utility</text>
</g>
<!-- Node5&#45;&gt;Node7 -->
<g id="edge6" class="edge"><title>Node5&#45;&gt;Node7</title>
<path fill="none" stroke="midnightblue" d="M570.614,-180.403C587.353,-170.557 615.004,-154.291 634.719,-142.695"/>
<polygon fill="midnightblue" stroke="midnightblue" points="636.568,-145.668 643.413,-137.581 633.019,-139.634 636.568,-145.668"/>
</g>
<!-- Node5&#45;&gt;Node8 -->
<g id="edge8" class="edge"><title>Node5&#45;&gt;Node8</title>
<path fill="none" stroke="midnightblue" d="M538.95,-180.403C519.156,-170.423 486.283,-153.849 463.23,-142.225"/>
<polygon fill="midnightblue" stroke="midnightblue" points="464.523,-138.958 454.018,-137.581 461.372,-145.208 464.523,-138.958"/>
</g>
<!-- Node9 -->
<g id="node9" class="node"><title>Node9</title>
<polygon fill="none" stroke="#bfbfbf" points="530,-118.5 530,-137.5 582,-137.5 582,-118.5 530,-118.5"/>
<text text-anchor="middle" x="556" y="-125.5" font-family="Helvetica,sans-Serif" font-size="10.00">sstream</text>
</g>
<!-- Node5&#45;&gt;Node9 -->
<g id="edge9" class="edge"><title>Node5&#45;&gt;Node9</title>
<path fill="none" stroke="midnightblue" d="M556,-180.403C556,-171.938 556,-158.728 556,-147.82"/>
<polygon fill="midnightblue" stroke="midnightblue" points="559.5,-147.581 556,-137.581 552.5,-147.581 559.5,-147.581"/>
</g>
<!-- Node10 -->
<g id="node10" class="node"><title>Node10</title>
<polygon fill="none" stroke="#bfbfbf" points="734,-118.5 734,-137.5 790,-137.5 790,-118.5 734,-118.5"/>
<text text-anchor="middle" x="762" y="-125.5" font-family="Helvetica,sans-Serif" font-size="10.00">algorithm</text>
</g>
<!-- Node5&#45;&gt;Node10 -->
<g id="edge10" class="edge"><title>Node5&#45;&gt;Node10</title>
<path fill="none" stroke="midnightblue" d="M585.515,-180.403C622.026,-169.769 684.243,-151.648 724.21,-140.007"/>
<polygon fill="midnightblue" stroke="midnightblue" points="725.24,-143.352 733.862,-137.195 723.283,-136.632 725.24,-143.352"/>
</g>
<!-- Node5&#45;&gt;Node11 -->
<g id="edge11" class="edge"><title>Node5&#45;&gt;Node11</title>
<path fill="none" stroke="midnightblue" d="M525.743,-182.29C492.305,-174.521 437.081,-160.635 391,-144 389.091,-143.311 387.139,-142.557 385.186,-141.766"/>
<polygon fill="midnightblue" stroke="midnightblue" points="386.163,-138.376 375.595,-137.628 383.39,-144.803 386.163,-138.376"/>
</g>
<!-- Node18 -->
<g id="node18" class="node"><title>Node18</title>
<g id="a_node18"><a xlink:href="../../dd/dbc/Detectors_2MUON_2MCH_2Contour_2include_2MCHContour_2Vertex_8h.html" target="_top" xlink:title="Vertex.h">
<polygon fill="none" stroke="black" points="997.5,-118.5 997.5,-137.5 1050.5,-137.5 1050.5,-118.5 997.5,-118.5"/>
<text text-anchor="middle" x="1024" y="-125.5" font-family="Helvetica,sans-Serif" font-size="10.00">Vertex.h</text>
</a>
</g>
</g>
<!-- Node5&#45;&gt;Node18 -->
<g id="edge18" class="edge"><title>Node5&#45;&gt;Node18</title>
<path fill="none" stroke="midnightblue" d="M586.116,-188.851C657.209,-187.856 840.572,-181.533 988,-144 990.988,-143.239 994.051,-142.275 997.069,-141.203"/>
<polygon fill="midnightblue" stroke="midnightblue" points="998.381,-144.448 1006.41,-137.532 995.819,-137.934 998.381,-144.448"/>
</g>
<!-- Node12 -->
<g id="node12" class="node"><title>Node12</title>
<g id="a_node12"><a xlink:href="../../d2/dc4/Helper_8h.html" target="_top" xlink:title="Helper.h">
<polygon fill="none" stroke="black" points="924.5,-56.5 924.5,-75.5 977.5,-75.5 977.5,-56.5 924.5,-56.5"/>
<text text-anchor="middle" x="951" y="-63.5" font-family="Helvetica,sans-Serif" font-size="10.00">Helper.h</text>
</a>
</g>
</g>
<!-- Node11&#45;&gt;Node12 -->
<g id="edge12" class="edge"><title>Node11&#45;&gt;Node12</title>
<path fill="none" stroke="midnightblue" d="M373.697,-118.493C379.041,-115.972 385.145,-113.49 391,-112 606.912,-57.0406 669.558,-100.543 891,-76 898.643,-75.1529 906.807,-74.0569 914.572,-72.923"/>
<polygon fill="midnightblue" stroke="midnightblue" points="915.109,-76.3818 924.475,-71.4282 914.064,-69.4602 915.109,-76.3818"/>
</g>
<!-- Node16 -->
<g id="node16" class="node"><title>Node16</title>
<polygon fill="none" stroke="#bfbfbf" points="328.5,-56.5 328.5,-75.5 387.5,-75.5 387.5,-56.5 328.5,-56.5"/>
<text text-anchor="middle" x="358" y="-63.5" font-family="Helvetica,sans-Serif" font-size="10.00">stdexcept</text>
</g>
<!-- Node11&#45;&gt;Node16 -->
<g id="edge16" class="edge"><title>Node11&#45;&gt;Node16</title>
<path fill="none" stroke="midnightblue" d="M358,-118.403C358,-109.938 358,-96.7283 358,-85.8199"/>
<polygon fill="midnightblue" stroke="midnightblue" points="361.5,-85.5806 358,-75.5806 354.5,-85.5806 361.5,-85.5806"/>
</g>
<!-- Node17 -->
<g id="node17" class="node"><title>Node17</title>
<polygon fill="none" stroke="#bfbfbf" points="830,-56.5 830,-75.5 882,-75.5 882,-56.5 830,-56.5"/>
<text text-anchor="middle" x="856" y="-63.5" font-family="Helvetica,sans-Serif" font-size="10.00">ostream</text>
</g>
<!-- Node11&#45;&gt;Node17 -->
<g id="edge17" class="edge"><title>Node11&#45;&gt;Node17</title>
<path fill="none" stroke="midnightblue" d="M374.054,-118.42C379.318,-115.958 385.286,-113.53 391,-112 471.91,-90.3418 724.943,-74.3397 819.696,-68.9648"/>
<polygon fill="midnightblue" stroke="midnightblue" points="820.138,-72.4456 829.927,-68.391 819.746,-65.4566 820.138,-72.4456"/>
</g>
<!-- Node13 -->
<g id="node13" class="node"><title>Node13</title>
<polygon fill="none" stroke="#bfbfbf" points="869,-0.5 869,-19.5 913,-19.5 913,-0.5 869,-0.5"/>
<text text-anchor="middle" x="891" y="-7.5" font-family="Helvetica,sans-Serif" font-size="10.00">cmath</text>
</g>
<!-- Node12&#45;&gt;Node13 -->
<g id="edge13" class="edge"><title>Node12&#45;&gt;Node13</title>
<path fill="none" stroke="midnightblue" d="M941.36,-56.324C932.49,-48.3414 919.125,-36.3128 908.392,-26.6529"/>
<polygon fill="midnightblue" stroke="midnightblue" points="910.59,-23.922 900.815,-19.8339 905.907,-29.1251 910.59,-23.922"/>
</g>
<!-- Node14 -->
<g id="node14" class="node"><title>Node14</title>
<polygon fill="none" stroke="#bfbfbf" points="931,-0.5 931,-19.5 971,-19.5 971,-0.5 931,-0.5"/>
<text text-anchor="middle" x="951" y="-7.5" font-family="Helvetica,sans-Serif" font-size="10.00">limits</text>
</g>
<!-- Node12&#45;&gt;Node14 -->
<g id="edge14" class="edge"><title>Node12&#45;&gt;Node14</title>
<path fill="none" stroke="midnightblue" d="M951,-56.083C951,-49.0059 951,-38.8611 951,-29.9865"/>
<polygon fill="midnightblue" stroke="midnightblue" points="954.5,-29.751 951,-19.7511 947.5,-29.7511 954.5,-29.751"/>
</g>
<!-- Node15 -->
<g id="node15" class="node"><title>Node15</title>
<polygon fill="none" stroke="#bfbfbf" points="989,-0.5 989,-19.5 1035,-19.5 1035,-0.5 989,-0.5"/>
<text text-anchor="middle" x="1012" y="-7.5" font-family="Helvetica,sans-Serif" font-size="10.00">cstdint</text>
</g>
<!-- Node12&#45;&gt;Node15 -->
<g id="edge15" class="edge"><title>Node12&#45;&gt;Node15</title>
<path fill="none" stroke="midnightblue" d="M960.801,-56.324C969.818,-48.3414 983.406,-36.3128 994.318,-26.6529"/>
<polygon fill="midnightblue" stroke="midnightblue" points="996.853,-29.083 1002.02,-19.8339 992.213,-23.8416 996.853,-29.083"/>
</g>
<!-- Node18&#45;&gt;Node6 -->
<g id="edge19" class="edge"><title>Node18&#45;&gt;Node6</title>
<path fill="none" stroke="midnightblue" d="M1024,-118.403C1024,-109.938 1024,-96.7283 1024,-85.8199"/>
<polygon fill="midnightblue" stroke="midnightblue" points="1027.5,-85.5806 1024,-75.5806 1020.5,-85.5806 1027.5,-85.5806"/>
</g>
<!-- Node18&#45;&gt;Node12 -->
<g id="edge21" class="edge"><title>Node18&#45;&gt;Node12</title>
<path fill="none" stroke="midnightblue" d="M1013.54,-118.403C1002.05,-108.958 983.37,-93.6056 969.413,-82.1342"/>
<polygon fill="midnightblue" stroke="midnightblue" points="971.388,-79.2264 961.44,-75.5806 966.943,-84.6342 971.388,-79.2264"/>
</g>
<!-- Node19 -->
<g id="node19" class="node"><title>Node19</title>
<polygon fill="none" stroke="#bfbfbf" points="1099,-56.5 1099,-75.5 1149,-75.5 1149,-56.5 1099,-56.5"/>
<text text-anchor="middle" x="1124" y="-63.5" font-family="Helvetica,sans-Serif" font-size="10.00">iomanip</text>
</g>
<!-- Node18&#45;&gt;Node19 -->
<g id="edge20" class="edge"><title>Node18&#45;&gt;Node19</title>
<path fill="none" stroke="midnightblue" d="M1038.33,-118.403C1054.66,-108.601 1081.6,-92.4385 1100.91,-80.8526"/>
<polygon fill="midnightblue" stroke="midnightblue" points="1102.92,-83.7268 1109.7,-75.5806 1099.32,-77.7244 1102.92,-83.7268"/>
</g>
<!-- Node21&#45;&gt;Node3 -->
<g id="edge32" class="edge"><title>Node21&#45;&gt;Node3</title>
<path fill="none" stroke="midnightblue" d="M238.694,-114.568C243.525,-113.653 248.341,-112.783 253,-112 369.839,-92.3703 509.826,-76.7791 571.785,-70.281"/>
<polygon fill="midnightblue" stroke="midnightblue" points="572.152,-73.7618 581.736,-69.2455 571.427,-66.7994 572.152,-73.7618"/>
</g>
<!-- Node21&#45;&gt;Node6 -->
<g id="edge31" class="edge"><title>Node21&#45;&gt;Node6</title>
<path fill="none" stroke="midnightblue" d="M238.689,-120.283C264.724,-117.423 295.881,-114.238 324,-112 617.728,-88.6229 694.369,-118.121 986,-76 986.218,-75.9685 986.437,-75.9364 986.656,-75.9036"/>
<polygon fill="midnightblue" stroke="midnightblue" points="987.5,-79.3076 996.714,-74.0768 986.249,-72.4203 987.5,-79.3076"/>
</g>
<!-- Node21&#45;&gt;Node16 -->
<g id="edge29" class="edge"><title>Node21&#45;&gt;Node16</title>
<path fill="none" stroke="midnightblue" d="M222.499,-112.933C253.119,-102.553 294.313,-88.5887 323.215,-78.7916"/>
<polygon fill="midnightblue" stroke="midnightblue" points="324.541,-82.0379 332.888,-75.5127 322.293,-75.4084 324.541,-82.0379"/>
</g>
<!-- Node22 -->
<g id="node22" class="node"><title>Node22</title>
<g id="a_node22"><a xlink:href="../../d0/d85/SegmentationCInterface_8h.html" target="_top" xlink:title="SegmentationCInterface.h">
<polygon fill="none" stroke="black" points="108.5,-56.5 108.5,-75.5 239.5,-75.5 239.5,-56.5 108.5,-56.5"/>
<text text-anchor="middle" x="174" y="-63.5" font-family="Helvetica,sans-Serif" font-size="10.00">SegmentationCInterface.h</text>
</a>
</g>
</g>
<!-- Node21&#45;&gt;Node22 -->
<g id="edge28" class="edge"><title>Node21&#45;&gt;Node22</title>
<path fill="none" stroke="midnightblue" d="M179.341,-112.781C178.397,-104.691 177.204,-94.4617 176.185,-85.725"/>
<polygon fill="midnightblue" stroke="midnightblue" points="179.654,-85.2576 175.019,-75.7305 172.701,-86.0688 179.654,-85.2576"/>
</g>
<!-- Node23 -->
<g id="node23" class="node"><title>Node23</title>
<polygon fill="none" stroke="#bfbfbf" points="258,-56.5 258,-75.5 310,-75.5 310,-56.5 258,-56.5"/>
<text text-anchor="middle" x="284" y="-63.5" font-family="Helvetica,sans-Serif" font-size="10.00">memory</text>
</g>
<!-- Node21&#45;&gt;Node23 -->
<g id="edge30" class="edge"><title>Node21&#45;&gt;Node23</title>
<path fill="none" stroke="midnightblue" d="M205.149,-112.933C221.75,-103.262 243.694,-90.4793 260.216,-80.8546"/>
<polygon fill="midnightblue" stroke="midnightblue" points="262.358,-83.6579 269.237,-75.6 258.834,-77.6093 262.358,-83.6579"/>
</g>
<!-- Node24 -->
<g id="node24" class="node"><title>Node24</title>
<polygon fill="none" stroke="#bfbfbf" points="0,-56.5 0,-75.5 90,-75.5 90,-56.5 0,-56.5"/>
<text text-anchor="middle" x="45" y="-63.5" font-family="Helvetica,sans-Serif" font-size="10.00">boost/format.hpp</text>
</g>
<!-- Node21&#45;&gt;Node24 -->
<g id="edge33" class="edge"><title>Node21&#45;&gt;Node24</title>
<path fill="none" stroke="midnightblue" d="M149.114,-112.933C126.272,-102.855 95.7702,-89.3986 73.6903,-79.6575"/>
<polygon fill="midnightblue" stroke="midnightblue" points="75.0553,-76.4343 64.4934,-75.6 72.2298,-82.8387 75.0553,-76.4343"/>
</g>
<!-- Node26 -->
<g id="node26" class="node"><title>Node26</title>
<g id="a_node26"><a xlink:href="../../dc/d15/ContourCreator_8inl.html" target="_top" xlink:title="ContourCreator.inl">
<polygon fill="none" stroke="black" points="658,-298.5 658,-317.5 754,-317.5 754,-298.5 658,-298.5"/>
<text text-anchor="middle" x="706" y="-305.5" font-family="Helvetica,sans-Serif" font-size="10.00">ContourCreator.inl</text>
</a>
</g>
</g>
<!-- Node25&#45;&gt;Node26 -->
<g id="edge35" class="edge"><title>Node25&#45;&gt;Node26</title>
<path fill="none" stroke="midnightblue" d="M679.442,-360.403C683.953,-351.671 691.074,-337.889 696.807,-326.794"/>
<polygon fill="midnightblue" stroke="midnightblue" points="700.086,-328.071 701.567,-317.581 693.867,-324.858 700.086,-328.071"/>
</g>
<!-- Node26&#45;&gt;Node3 -->
<g id="edge37" class="edge"><title>Node26&#45;&gt;Node3</title>
<path fill="none" stroke="midnightblue" d="M707.804,-298.287C713.347,-269.063 727.417,-172.948 687,-112 675.153,-94.1345 653.749,-82.7785 635.644,-75.9436"/>
<polygon fill="midnightblue" stroke="midnightblue" points="636.602,-72.5713 626.007,-72.599 634.307,-79.1844 636.602,-72.5713"/>
</g>
<!-- Node26&#45;&gt;Node4 -->
<g id="edge50" class="edge"><title>Node26&#45;&gt;Node4</title>
<path fill="none" stroke="midnightblue" d="M669.736,-298.467C624.326,-287.783 546.492,-269.469 496.955,-257.813"/>
<polygon fill="midnightblue" stroke="midnightblue" points="497.675,-254.387 487.139,-255.503 496.072,-261.201 497.675,-254.387"/>
</g>
<!-- Node26&#45;&gt;Node5 -->
<g id="edge49" class="edge"><title>Node26&#45;&gt;Node5</title>
<path fill="none" stroke="midnightblue" d="M694.726,-298.281C669.192,-278.535 606.712,-230.218 575.053,-205.735"/>
<polygon fill="midnightblue" stroke="midnightblue" points="577.049,-202.854 566.998,-199.505 572.767,-208.391 577.049,-202.854"/>
</g>
<!-- Node26&#45;&gt;Node6 -->
<g id="edge38" class="edge"><title>Node26&#45;&gt;Node6</title>
<path fill="none" stroke="midnightblue" d="M754.266,-303.177C838.576,-293.512 1009.89,-259.849 1075,-144 1081.97,-131.602 1080.85,-124.963 1075,-112 1069.38,-99.5553 1058.44,-89.1723 1048.12,-81.5273"/>
<polygon fill="midnightblue" stroke="midnightblue" points="1049.96,-78.5431 1039.73,-75.7643 1045.99,-84.3123 1049.96,-78.5431"/>
</g>
<!-- Node26&#45;&gt;Node7 -->
<g id="edge36" class="edge"><title>Node26&#45;&gt;Node7</title>
<path fill="none" stroke="midnightblue" d="M703.605,-298.342C700.804,-288.199 696.036,-270.888 692,-256 681.538,-217.41 669.474,-172.168 662.899,-147.446"/>
<polygon fill="midnightblue" stroke="midnightblue" points="666.241,-146.394 660.29,-137.628 659.476,-148.192 666.241,-146.394"/>
</g>
<!-- Node26&#45;&gt;Node10 -->
<g id="edge56" class="edge"><title>Node26&#45;&gt;Node10</title>
<path fill="none" stroke="midnightblue" d="M708.701,-298.415C717.291,-271.11 744.12,-185.832 756.109,-147.724"/>
<polygon fill="midnightblue" stroke="midnightblue" points="759.532,-148.508 759.194,-137.918 752.854,-146.407 759.532,-148.508"/>
</g>
<!-- Node27 -->
<g id="node27" class="node"><title>Node27</title>
<g id="a_node27"><a xlink:href="../../d5/de0/Edge_8h.html" target="_top" xlink:title="Edge.h">
<polygon fill="none" stroke="black" points="927.5,-180.5 927.5,-199.5 974.5,-199.5 974.5,-180.5 927.5,-180.5"/>
<text text-anchor="middle" x="951" y="-187.5" font-family="Helvetica,sans-Serif" font-size="10.00">Edge.h</text>
</a>
</g>
</g>
<!-- Node26&#45;&gt;Node27 -->
<g id="edge39" class="edge"><title>Node26&#45;&gt;Node27</title>
<path fill="none" stroke="midnightblue" d="M724.015,-298.47C766.492,-278.359 873.12,-227.874 923.638,-203.955"/>
<polygon fill="midnightblue" stroke="midnightblue" points="925.418,-206.985 932.958,-199.542 922.422,-200.658 925.418,-206.985"/>
</g>
<!-- Node29 -->
<g id="node29" class="node"><title>Node29</title>
<g id="a_node29"><a xlink:href="../../dc/ded/SegmentTree_8h.html" target="_top" xlink:title="SegmentTree.h">
<polygon fill="none" stroke="black" points="776.5,-180.5 776.5,-199.5 859.5,-199.5 859.5,-180.5 776.5,-180.5"/>
<text text-anchor="middle" x="818" y="-187.5" font-family="Helvetica,sans-Serif" font-size="10.00">SegmentTree.h</text>
</a>
</g>
</g>
<!-- Node26&#45;&gt;Node29 -->
<g id="edge51" class="edge"><title>Node26&#45;&gt;Node29</title>
<path fill="none" stroke="midnightblue" d="M715.797,-298.213C726.803,-288.236 745.079,-271.349 760,-256 775.566,-239.987 792.471,-220.822 803.992,-207.468"/>
<polygon fill="midnightblue" stroke="midnightblue" points="806.866,-209.494 810.717,-199.624 801.551,-204.938 806.866,-209.494"/>
</g>
<!-- Node27&#45;&gt;Node3 -->
<g id="edge41" class="edge"><title>Node27&#45;&gt;Node3</title>
<path fill="none" stroke="midnightblue" d="M939.493,-180.38C917.607,-164.41 867.963,-130.194 821,-112 758.026,-87.6031 679.393,-75.5064 636.179,-70.312"/>
<polygon fill="midnightblue" stroke="midnightblue" points="636.576,-66.8347 626.241,-69.1649 635.773,-73.7886 636.576,-66.8347"/>
</g>
<!-- Node27&#45;&gt;Node6 -->
<g id="edge42" class="edge"><title>Node27&#45;&gt;Node6</title>
<path fill="none" stroke="midnightblue" d="M974.724,-186.628C1000.44,-182.648 1040.3,-172.056 1059,-144 1072.04,-124.44 1055.08,-99.2307 1040.55,-83.0877"/>
<polygon fill="midnightblue" stroke="midnightblue" points="1042.78,-80.358 1033.34,-75.5503 1037.72,-85.1963 1042.78,-80.358"/>
</g>
<!-- Node27&#45;&gt;Node7 -->
<g id="edge40" class="edge"><title>Node27&#45;&gt;Node7</title>
<path fill="none" stroke="midnightblue" d="M927.209,-184.455C885.975,-176.535 798.585,-159.561 725,-144 712.946,-141.451 699.704,-138.515 688.198,-135.92"/>
<polygon fill="midnightblue" stroke="midnightblue" points="688.73,-132.452 678.203,-133.654 687.182,-139.279 688.73,-132.452"/>
</g>
<!-- Node27&#45;&gt;Node18 -->
<g id="edge48" class="edge"><title>Node27&#45;&gt;Node18</title>
<path fill="none" stroke="midnightblue" d="M961.459,-180.403C972.951,-170.958 991.63,-155.606 1005.59,-144.134"/>
<polygon fill="midnightblue" stroke="midnightblue" points="1008.06,-146.634 1013.56,-137.581 1003.61,-141.226 1008.06,-146.634"/>
</g>
<!-- Node27&#45;&gt;Node19 -->
<g id="edge43" class="edge"><title>Node27&#45;&gt;Node19</title>
<path fill="none" stroke="midnightblue" d="M974.724,-185.143C1001.49,-179.79 1045.17,-167.932 1075,-144 1094.55,-128.317 1108.65,-102.619 1116.57,-85.2687"/>
<polygon fill="midnightblue" stroke="midnightblue" points="1119.94,-86.277 1120.69,-75.7087 1113.52,-83.503 1119.94,-86.277"/>
</g>
<!-- Node28 -->
<g id="node28" class="node"><title>Node28</title>
<g id="a_node28"><a xlink:href="../../d1/d55/Interval_8h.html" target="_top" xlink:title="Interval.h">
<polygon fill="none" stroke="black" points="922.5,-118.5 922.5,-137.5 979.5,-137.5 979.5,-118.5 922.5,-118.5"/>
<text text-anchor="middle" x="951" y="-125.5" font-family="Helvetica,sans-Serif" font-size="10.00">Interval.h</text>
</a>
</g>
</g>
<!-- Node27&#45;&gt;Node28 -->
<g id="edge44" class="edge"><title>Node27&#45;&gt;Node28</title>
<path fill="none" stroke="midnightblue" d="M951,-180.403C951,-171.938 951,-158.728 951,-147.82"/>
<polygon fill="midnightblue" stroke="midnightblue" points="954.5,-147.581 951,-137.581 947.5,-147.581 954.5,-147.581"/>
</g>
<!-- Node28&#45;&gt;Node3 -->
<g id="edge45" class="edge"><title>Node28&#45;&gt;Node3</title>
<path fill="none" stroke="midnightblue" d="M928.923,-118.403C922.276,-116.059 914.91,-113.7 908,-112 810.416,-87.9852 691.855,-74.9478 636.015,-69.7349"/>
<polygon fill="midnightblue" stroke="midnightblue" points="636.3,-66.2464 626.023,-68.8237 635.664,-73.2175 636.3,-66.2464"/>
</g>
<!-- Node28&#45;&gt;Node12 -->
<g id="edge47" class="edge"><title>Node28&#45;&gt;Node12</title>
<path fill="none" stroke="midnightblue" d="M951,-118.403C951,-109.938 951,-96.7283 951,-85.8199"/>
<polygon fill="midnightblue" stroke="midnightblue" points="954.5,-85.5806 951,-75.5806 947.5,-85.5806 954.5,-85.5806"/>
</g>
<!-- Node28&#45;&gt;Node17 -->
<g id="edge46" class="edge"><title>Node28&#45;&gt;Node17</title>
<path fill="none" stroke="midnightblue" d="M937.389,-118.403C921.939,-108.646 896.51,-92.5854 878.184,-81.0109"/>
<polygon fill="midnightblue" stroke="midnightblue" points="879.91,-77.9613 869.586,-75.5806 876.172,-83.8798 879.91,-77.9613"/>
</g>
<!-- Node29&#45;&gt;Node3 -->
<g id="edge52" class="edge"><title>Node29&#45;&gt;Node3</title>
<path fill="none" stroke="midnightblue" d="M818.437,-180.438C818.748,-164.565 816.995,-130.504 798,-112 775.273,-89.8606 685.42,-76.3366 636.372,-70.4541"/>
<polygon fill="midnightblue" stroke="midnightblue" points="636.613,-66.9587 626.276,-69.2822 635.806,-73.912 636.613,-66.9587"/>
</g>
<!-- Node29&#45;&gt;Node10 -->
<g id="edge54" class="edge"><title>Node29&#45;&gt;Node10</title>
<path fill="none" stroke="midnightblue" d="M809.977,-180.403C801.41,-171.225 787.639,-156.47 777.043,-145.117"/>
<polygon fill="midnightblue" stroke="midnightblue" points="779.39,-142.503 770.009,-137.581 774.273,-147.279 779.39,-142.503"/>
</g>
<!-- Node29&#45;&gt;Node17 -->
<g id="edge53" class="edge"><title>Node29&#45;&gt;Node17</title>
<path fill="none" stroke="midnightblue" d="M820.733,-180.226C826.895,-160.442 841.981,-112.007 850.286,-85.3436"/>
<polygon fill="midnightblue" stroke="midnightblue" points="853.66,-86.2829 853.292,-75.6944 846.976,-84.2012 853.66,-86.2829"/>
</g>
<!-- Node29&#45;&gt;Node28 -->
<g id="edge55" class="edge"><title>Node29&#45;&gt;Node28</title>
<path fill="none" stroke="midnightblue" d="M837.056,-180.403C859.475,-170.29 896.905,-153.404 922.713,-141.761"/>
<polygon fill="midnightblue" stroke="midnightblue" points="924.304,-144.883 931.98,-137.581 921.425,-138.502 924.304,-144.883"/>
</g>
</g>
</svg>
