<?xml version="1.0" encoding="UTF-8" standalone="no"?>
<!DOCTYPE svg PUBLIC "-//W3C//DTD SVG 1.1//EN"
 "http://www.w3.org/Graphics/SVG/1.1/DTD/svg11.dtd">
<!-- Generated by graphviz version 2.36.0 (20140111.2315)
 -->
<!-- Title: /home/travis/build/AliceO2Group/AliceO2/Detectors/TPC/workflow/src/RootFileWriterSpec.h Pages: 1 -->
<svg width="294pt" height="152pt"
 viewBox="0.00 0.00 294.00 152.00" xmlns="http://www.w3.org/2000/svg" xmlns:xlink="http://www.w3.org/1999/xlink">
<g id="graph0" class="graph" transform="scale(1 1) rotate(0) translate(4 148)">
<title>/home/travis/build/AliceO2Group/AliceO2/Detectors/TPC/workflow/src/RootFileWriterSpec.h</title>
<!-- Node1 -->
<g id="node1" class="node"><title>Node1</title>
<polygon fill="#bfbfbf" stroke="black" points="75,-91 75,-143 205,-143 205,-91 75,-91"/>
<text text-anchor="start" x="83" y="-131" font-family="Helvetica,sans-Serif" font-size="10.00">/home/travis/build</text>
<text text-anchor="start" x="83" y="-120" font-family="Helvetica,sans-Serif" font-size="10.00">/AliceO2Group/AliceO2</text>
<text text-anchor="start" x="83" y="-109" font-family="Helvetica,sans-Serif" font-size="10.00">/Detectors/TPC/workflow</text>
<text text-anchor="middle" x="140" y="-98" font-family="Helvetica,sans-Serif" font-size="10.00">/src/RootFileWriterSpec.h</text>
</g>
<!-- Node2 -->
<g id="node2" class="node"><title>Node2</title>
<g id="a_node2"><a xlink:href="../../d5/d53/RecoWorkflow_8cxx.html" target="_top" xlink:title="Workflow definition for the TPC reconstruction. ">
<polygon fill="none" stroke="black" points="0,-1 0,-53 128,-53 128,-1 0,-1"/>
<text text-anchor="start" x="8" y="-41" font-family="Helvetica,sans-Serif" font-size="10.00">/home/travis/build</text>
<text text-anchor="start" x="8" y="-30" font-family="Helvetica,sans-Serif" font-size="10.00">/AliceO2Group/AliceO2</text>
<text text-anchor="start" x="8" y="-19" font-family="Helvetica,sans-Serif" font-size="10.00">/Detectors/TPC/workflow</text>
<text text-anchor="middle" x="64" y="-8" font-family="Helvetica,sans-Serif" font-size="10.00">/src/RecoWorkflow.cxx</text>
</a>
</g>
</g>
<!-- Node1&#45;&gt;Node2 -->
<g id="edge1" class="edge"><title>Node1&#45;&gt;Node2</title>
<path fill="none" stroke="midnightblue" d="M111.367,-82.8459C102.851,-72.9851 93.6652,-62.3492 85.6705,-53.0921"/>
<polygon fill="midnightblue" stroke="midnightblue" points="108.833,-85.2662 118.018,-90.5468 114.13,-80.6908 108.833,-85.2662"/>
</g>
<!-- Node3 -->
<g id="node3" class="node"><title>Node3</title>
<g id="a_node3"><a xlink:href="../../d7/d0c/RootFileWriterSpec_8cxx.html" target="_top" xlink:title="Processor spec for a ROOT file writer. ">
<polygon fill="none" stroke="black" points="146,-1 146,-53 286,-53 286,-1 146,-1"/>
<text text-anchor="start" x="154" y="-41" font-family="Helvetica,sans-Serif" font-size="10.00">/home/travis/build</text>
<text text-anchor="start" x="154" y="-30" font-family="Helvetica,sans-Serif" font-size="10.00">/AliceO2Group/AliceO2</text>
<text text-anchor="start" x="154" y="-19" font-family="Helvetica,sans-Serif" font-size="10.00">/Detectors/TPC/workflow</text>
<text text-anchor="middle" x="216" y="-8" font-family="Helvetica,sans-Serif" font-size="10.00">/src/RootFileWriterSpec.cxx</text>
</a>
</g>
</g>
<!-- Node1&#45;&gt;Node3 -->
<g id="edge2" class="edge"><title>Node1&#45;&gt;Node3</title>
<path fill="none" stroke="midnightblue" d="M168.633,-82.8459C177.149,-72.9851 186.335,-62.3492 194.33,-53.0921"/>
<polygon fill="midnightblue" stroke="midnightblue" points="165.87,-80.6908 161.982,-90.5468 171.167,-85.2662 165.87,-80.6908"/>
</g>
</g>
</svg>
