<?xml version="1.0" encoding="UTF-8" standalone="no"?>
<!DOCTYPE svg PUBLIC "-//W3C//DTD SVG 1.1//EN"
 "http://www.w3.org/Graphics/SVG/1.1/DTD/svg11.dtd">
<!-- Generated by graphviz version 2.36.0 (20140111.2315)
 -->
<!-- Title: /home/travis/build/AliceO2Group/AliceO2/Detectors/ITSMFT/common/reconstruction/src/BuildTopologyDictionary.cxx Pages: 1 -->
<!--zoomable 672 -->
<svg id="main" version="1.1" xmlns="http://www.w3.org/2000/svg" xmlns:xlink="http://www.w3.org/1999/xlink" xml:space="preserve" onload="init(evt)">
<style type="text/css"><![CDATA[
.edge:hover path { stroke: red; }
.edge:hover polygon { stroke: red; fill: red; }
]]></style>
<script type="text/javascript"><![CDATA[
var edges = document.getElementsByTagName('g');
if (edges && edges.length) {
  for (var i=0;i<edges.length;i++) {
    if (edges[i].id.substr(0,4)=='edge') {
      edges[i].setAttribute('class','edge');
    }
  }
}
]]></script>
        <defs>
                <circle id="rim" cx="0" cy="0" r="7"/>
                <circle id="rim2" cx="0" cy="0" r="3.5"/>
                <g id="zoomPlus">
                        <use xlink:href="#rim" fill="#404040">
                                <set attributeName="fill" to="#808080" begin="zoomplus.mouseover" end="zoomplus.mouseout"/>
                        </use>
                        <path d="M-4,0h8M0,-4v8" fill="none" stroke="white" stroke-width="1.5" pointer-events="none"/>
                </g>
                <g id="zoomMin">
                        <use xlink:href="#rim" fill="#404040">
                                <set attributeName="fill" to="#808080" begin="zoomminus.mouseover" end="zoomminus.mouseout"/>
                        </use>
                        <path d="M-4,0h8" fill="none" stroke="white" stroke-width="1.5" pointer-events="none"/>
                </g>
                <g id="dirArrow">
                        <path fill="none" stroke="white" stroke-width="1.5" d="M0,-3.0v7 M-2.5,-0.5L0,-3.0L2.5,-0.5"/>
                </g>
               <g id="resetDef">
                       <use xlink:href="#rim2" fill="#404040">
                               <set attributeName="fill" to="#808080" begin="reset.mouseover" end="reset.mouseout"/>
                       </use>
               </g>
        </defs>

<script type="text/javascript">
var viewWidth = 2038;
var viewHeight = 672;
var sectionId = 'dynsection-0';
</script>
<script xlink:href="../../svgpan.js"/>
<svg id="graph" class="graph">
<g id="viewport">
<title>/home/travis/build/AliceO2Group/AliceO2/Detectors/ITSMFT/common/reconstruction/src/BuildTopologyDictionary.cxx</title>
<!-- Node1 -->
<g id="node1" class="node"><title>Node1</title>
<polygon fill="#bfbfbf" stroke="black" points="1495,-600.5 1495,-663.5 1657,-663.5 1657,-600.5 1495,-600.5"/>
<text text-anchor="start" x="1503" y="-651.5" font-family="Helvetica,sans-Serif" font-size="10.00">/home/travis/build</text>
<text text-anchor="start" x="1503" y="-640.5" font-family="Helvetica,sans-Serif" font-size="10.00">/AliceO2Group/AliceO2</text>
<text text-anchor="start" x="1503" y="-629.5" font-family="Helvetica,sans-Serif" font-size="10.00">/Detectors/ITSMFT/common</text>
<text text-anchor="start" x="1503" y="-618.5" font-family="Helvetica,sans-Serif" font-size="10.00">/reconstruction/src/BuildTopology</text>
<text text-anchor="middle" x="1576" y="-607.5" font-family="Helvetica,sans-Serif" font-size="10.00">Dictionary.cxx</text>
</g>
<!-- Node2 -->
<g id="node2" class="node"><title>Node2</title>
<g id="a_node2"><a xlink:href="../../d9/d1d/BuildTopologyDictionary_8h.html" target="_top" xlink:title="Definition of the BuildTopologyDictionary class. ">
<polygon fill="none" stroke="black" points="138,-533 138,-563 272,-563 272,-533 138,-533"/>
<text text-anchor="start" x="146" y="-551" font-family="Helvetica,sans-Serif" font-size="10.00">ITSMFTReconstruction</text>
<text text-anchor="middle" x="205" y="-540" font-family="Helvetica,sans-Serif" font-size="10.00">/BuildTopologyDictionary.h</text>
</a>
</g>
</g>
<!-- Node1&#45;&gt;Node2 -->
<g id="edge1" class="edge"><title>Node1&#45;&gt;Node2</title>
<path fill="none" stroke="midnightblue" d="M1494.85,-626.146C1250.15,-611.511 521.688,-567.941 282.235,-553.619"/>
<polygon fill="midnightblue" stroke="midnightblue" points="282.413,-550.124 272.222,-553.021 281.995,-557.111 282.413,-550.124"/>
</g>
<!-- Node25 -->
<g id="node25" class="node"><title>Node25</title>
<polygon fill="none" stroke="#bfbfbf" points="1914,-6.5 1914,-25.5 1958,-25.5 1958,-6.5 1914,-6.5"/>
<text text-anchor="middle" x="1936" y="-13.5" font-family="Helvetica,sans-Serif" font-size="10.00">cmath</text>
</g>
<!-- Node1&#45;&gt;Node25 -->
<g id="edge58" class="edge"><title>Node1&#45;&gt;Node25</title>
<path fill="none" stroke="midnightblue" d="M1657.31,-615.836C1768.67,-592.704 1955,-544.511 1955,-481 1955,-481 1955,-481 1955,-151 1955,-109.451 1945.93,-61.3655 1940.33,-35.5985"/>
<polygon fill="midnightblue" stroke="midnightblue" points="1943.71,-34.7076 1938.11,-25.719 1936.89,-36.2433 1943.71,-34.7076"/>
</g>
<!-- Node42 -->
<g id="node42" class="node"><title>Node42</title>
<g id="a_node42"><a xlink:href="../../df/ddf/LookUp_8h.html" target="_top" xlink:title="Definition of the LookUp class. ">
<polygon fill="none" stroke="black" points="824.5,-533 824.5,-563 943.5,-563 943.5,-533 824.5,-533"/>
<text text-anchor="start" x="832.5" y="-551" font-family="Helvetica,sans-Serif" font-size="10.00">ITSMFTReconstruction</text>
<text text-anchor="middle" x="884" y="-540" font-family="Helvetica,sans-Serif" font-size="10.00">/LookUp.h</text>
</a>
</g>
</g>
<!-- Node1&#45;&gt;Node42 -->
<g id="edge54" class="edge"><title>Node1&#45;&gt;Node42</title>
<path fill="none" stroke="midnightblue" d="M1494.92,-621.393C1357.84,-605.149 1082.61,-572.535 953.661,-557.255"/>
<polygon fill="midnightblue" stroke="midnightblue" points="953.854,-553.753 943.512,-556.052 953.031,-560.705 953.854,-553.753"/>
</g>
<!-- Node43 -->
<g id="node43" class="node"><title>Node43</title>
<polygon fill="none" stroke="#bfbfbf" points="1983.5,-538.5 1983.5,-557.5 2030.5,-557.5 2030.5,-538.5 1983.5,-538.5"/>
<text text-anchor="middle" x="2007" y="-545.5" font-family="Helvetica,sans-Serif" font-size="10.00">TFile.h</text>
</g>
<!-- Node1&#45;&gt;Node43 -->
<g id="edge59" class="edge"><title>Node1&#45;&gt;Node43</title>
<path fill="none" stroke="midnightblue" d="M1657.24,-622.138C1737.47,-612.225 1863.18,-593.563 1969,-564 1971.98,-563.168 1975.04,-562.185 1978.08,-561.125"/>
<polygon fill="midnightblue" stroke="midnightblue" points="1979.41,-564.365 1987.54,-557.575 1976.95,-557.811 1979.41,-564.365"/>
</g>
<!-- Node3 -->
<g id="node3" class="node"><title>Node3</title>
<polygon fill="none" stroke="#bfbfbf" points="0,-470.5 0,-489.5 56,-489.5 56,-470.5 0,-470.5"/>
<text text-anchor="middle" x="28" y="-477.5" font-family="Helvetica,sans-Serif" font-size="10.00">algorithm</text>
</g>
<!-- Node2&#45;&gt;Node3 -->
<g id="edge2" class="edge"><title>Node2&#45;&gt;Node3</title>
<path fill="none" stroke="midnightblue" d="M165.333,-532.977C137.225,-522.937 98.6797,-508.957 65,-496 62.7621,-495.139 60.4533,-494.237 58.1338,-493.32"/>
<polygon fill="midnightblue" stroke="midnightblue" points="59.2759,-490.008 48.6913,-489.541 56.6744,-496.506 59.2759,-490.008"/>
</g>
<!-- Node4 -->
<g id="node4" class="node"><title>Node4</title>
<polygon fill="none" stroke="#bfbfbf" points="74.5,-470.5 74.5,-489.5 109.5,-489.5 109.5,-470.5 74.5,-470.5"/>
<text text-anchor="middle" x="92" y="-477.5" font-family="Helvetica,sans-Serif" font-size="10.00">map</text>
</g>
<!-- Node2&#45;&gt;Node4 -->
<g id="edge3" class="edge"><title>Node2&#45;&gt;Node4</title>
<path fill="none" stroke="midnightblue" d="M180.759,-532.841C161.476,-521.579 134.654,-505.913 115.554,-494.757"/>
<polygon fill="midnightblue" stroke="midnightblue" points="117.265,-491.703 106.864,-489.682 113.734,-497.748 117.265,-491.703"/>
</g>
<!-- Node5 -->
<g id="node5" class="node"><title>Node5</title>
<g id="a_node5"><a xlink:href="../../d3/dba/SegmentationAlpide_8h.html" target="_top" xlink:title="Definition of the SegmentationAlpide class. ">
<polygon fill="none" stroke="black" points="87.5,-340.5 87.5,-359.5 260.5,-359.5 260.5,-340.5 87.5,-340.5"/>
<text text-anchor="middle" x="174" y="-347.5" font-family="Helvetica,sans-Serif" font-size="10.00">ITSMFTBase/SegmentationAlpide.h</text>
</a>
</g>
</g>
<!-- Node2&#45;&gt;Node5 -->
<g id="edge4" class="edge"><title>Node2&#45;&gt;Node5</title>
<path fill="none" stroke="midnightblue" d="M193.267,-532.691C185.823,-522.914 176.576,-509.355 171,-496 159.111,-467.526 160.127,-458.697 157,-428 155.559,-413.851 154.445,-409.991 157,-396 158.688,-386.757 162.175,-376.948 165.554,-368.855"/>
<polygon fill="midnightblue" stroke="midnightblue" points="168.763,-370.252 169.634,-359.693 162.369,-367.405 168.763,-370.252"/>
</g>
<!-- Node7 -->
<g id="node7" class="node"><title>Node7</title>
<g id="a_node7"><a xlink:href="../../d8/ddb/ClusterTopology_8h.html" target="_top" xlink:title="Definition of the ClusterTopology class. ">
<polygon fill="none" stroke="black" points="433,-465 433,-495 577,-495 577,-465 433,-465"/>
<text text-anchor="start" x="441" y="-483" font-family="Helvetica,sans-Serif" font-size="10.00">DataFormatsITSMFT/Cluster</text>
<text text-anchor="middle" x="505" y="-472" font-family="Helvetica,sans-Serif" font-size="10.00">Topology.h</text>
</a>
</g>
</g>
<!-- Node2&#45;&gt;Node7 -->
<g id="edge6" class="edge"><title>Node2&#45;&gt;Node7</title>
<path fill="none" stroke="midnightblue" d="M268.99,-532.922C316.482,-522.474 381.349,-508.203 431.061,-497.267"/>
<polygon fill="midnightblue" stroke="midnightblue" points="432.094,-500.623 441.109,-495.056 430.59,-493.787 432.094,-500.623"/>
</g>
<!-- Node37 -->
<g id="node37" class="node"><title>Node37</title>
<g id="a_node37"><a xlink:href="../../d1/d08/TopologyDictionary_8h.html" target="_top" xlink:title="Definition of the ClusterTopology class. ">
<polygon fill="none" stroke="black" points="261,-465 261,-495 413,-495 413,-465 261,-465"/>
<text text-anchor="start" x="269" y="-483" font-family="Helvetica,sans-Serif" font-size="10.00">DataFormatsITSMFT/Topology</text>
<text text-anchor="middle" x="337" y="-472" font-family="Helvetica,sans-Serif" font-size="10.00">Dictionary.h</text>
</a>
</g>
</g>
<!-- Node2&#45;&gt;Node37 -->
<g id="edge47" class="edge"><title>Node2&#45;&gt;Node37</title>
<path fill="none" stroke="midnightblue" d="M233.317,-532.841C252.718,-523.141 278.652,-510.174 299.728,-499.636"/>
<polygon fill="midnightblue" stroke="midnightblue" points="301.351,-502.738 308.73,-495.135 298.22,-496.477 301.351,-502.738"/>
</g>
<!-- Node41 -->
<g id="node41" class="node"><title>Node41</title>
<polygon fill="none" stroke="#bfbfbf" points="180,-470.5 180,-489.5 230,-489.5 230,-470.5 180,-470.5"/>
<text text-anchor="middle" x="205" y="-477.5" font-family="Helvetica,sans-Serif" font-size="10.00">TH1F.h</text>
</g>
<!-- Node2&#45;&gt;Node41 -->
<g id="edge53" class="edge"><title>Node2&#45;&gt;Node41</title>
<path fill="none" stroke="midnightblue" d="M205,-532.679C205,-523.101 205,-510.394 205,-499.977"/>
<polygon fill="midnightblue" stroke="midnightblue" points="208.5,-499.828 205,-489.828 201.5,-499.828 208.5,-499.828"/>
</g>
<!-- Node6 -->
<g id="node6" class="node"><title>Node6</title>
<polygon fill="none" stroke="#bfbfbf" points="232,-74.5 232,-93.5 288,-93.5 288,-74.5 232,-74.5"/>
<text text-anchor="middle" x="260" y="-81.5" font-family="Helvetica,sans-Serif" font-size="10.00">Rtypes.h</text>
</g>
<!-- Node5&#45;&gt;Node6 -->
<g id="edge5" class="edge"><title>Node5&#45;&gt;Node6</title>
<path fill="none" stroke="midnightblue" d="M175.514,-340.219C180.791,-310.627 199.766,-212.146 231,-136 235.812,-124.268 242.803,-111.885 248.715,-102.259"/>
<polygon fill="midnightblue" stroke="midnightblue" points="251.755,-103.999 254.147,-93.6779 245.841,-100.255 251.755,-103.999"/>
</g>
<!-- Node8 -->
<g id="node8" class="node"><title>Node8</title>
<g id="a_node8"><a xlink:href="../../de/dc1/ClusterPattern_8h.html" target="_top" xlink:title="DataFormatsITSMFT/Cluster\lPattern.h">
<polygon fill="none" stroke="black" points="433,-397 433,-427 577,-427 577,-397 433,-397"/>
<text text-anchor="start" x="441" y="-415" font-family="Helvetica,sans-Serif" font-size="10.00">DataFormatsITSMFT/Cluster</text>
<text text-anchor="middle" x="505" y="-404" font-family="Helvetica,sans-Serif" font-size="10.00">Pattern.h</text>
</a>
</g>
</g>
<!-- Node7&#45;&gt;Node8 -->
<g id="edge7" class="edge"><title>Node7&#45;&gt;Node8</title>
<path fill="none" stroke="midnightblue" d="M505,-464.679C505,-456.722 505,-446.605 505,-437.436"/>
<polygon fill="midnightblue" stroke="midnightblue" points="508.5,-437.293 505,-427.293 501.5,-437.293 508.5,-437.293"/>
</g>
<!-- Node8&#45;&gt;Node6 -->
<g id="edge8" class="edge"><title>Node8&#45;&gt;Node6</title>
<path fill="none" stroke="midnightblue" d="M489.709,-396.878C478.807,-386.732 463.863,-372.667 451,-360 429.781,-339.105 275.875,-195.309 264,-168 255.034,-147.38 255.502,-121.103 257.241,-103.7"/>
<polygon fill="midnightblue" stroke="midnightblue" points="260.725,-104.048 258.481,-93.6935 253.778,-103.187 260.725,-104.048"/>
</g>
<!-- Node9 -->
<g id="node9" class="node"><title>Node9</title>
<polygon fill="none" stroke="#bfbfbf" points="297,-6.5 297,-25.5 335,-25.5 335,-6.5 297,-6.5"/>
<text text-anchor="middle" x="316" y="-13.5" font-family="Helvetica,sans-Serif" font-size="10.00">array</text>
</g>
<!-- Node8&#45;&gt;Node9 -->
<g id="edge9" class="edge"><title>Node8&#45;&gt;Node9</title>
<path fill="none" stroke="midnightblue" d="M480.475,-396.9C417.587,-358.917 252.804,-247.298 214,-100 210.377,-86.247 206.523,-80.0981 214,-68 229.847,-42.3586 262.922,-29.1778 287.128,-22.7056"/>
<polygon fill="midnightblue" stroke="midnightblue" points="287.998,-26.0962 296.883,-20.3258 286.339,-19.2957 287.998,-26.0962"/>
</g>
<!-- Node10 -->
<g id="node10" class="node"><title>Node10</title>
<polygon fill="none" stroke="#bfbfbf" points="1843.5,-74.5 1843.5,-93.5 1888.5,-93.5 1888.5,-74.5 1843.5,-74.5"/>
<text text-anchor="middle" x="1866" y="-81.5" font-family="Helvetica,sans-Serif" font-size="10.00">iosfwd</text>
</g>
<!-- Node8&#45;&gt;Node10 -->
<g id="edge10" class="edge"><title>Node8&#45;&gt;Node10</title>
<path fill="none" stroke="midnightblue" d="M577.246,-411.359C838.383,-411.714 1718,-404.351 1718,-289 1718,-289 1718,-289 1718,-219 1718,-185.487 1802.45,-126.145 1843.76,-99.117"/>
<polygon fill="midnightblue" stroke="midnightblue" points="1845.85,-101.936 1852.34,-93.5643 1842.05,-96.0597 1845.85,-101.936"/>
</g>
<!-- Node11 -->
<g id="node11" class="node"><title>Node11</title>
<g id="a_node11"><a xlink:href="../../d1/d62/DataFormats_2Detectors_2ITSMFT_2common_2include_2DataFormatsITSMFT_2Cluster_8h.html" target="_top" xlink:title="DataFormatsITSMFT/Cluster.h">
<polygon fill="none" stroke="black" points="460,-340.5 460,-359.5 612,-359.5 612,-340.5 460,-340.5"/>
<text text-anchor="middle" x="536" y="-347.5" font-family="Helvetica,sans-Serif" font-size="10.00">DataFormatsITSMFT/Cluster.h</text>
</a>
</g>
</g>
<!-- Node8&#45;&gt;Node11 -->
<g id="edge11" class="edge"><title>Node8&#45;&gt;Node11</title>
<path fill="none" stroke="midnightblue" d="M512.347,-396.781C516.665,-388.422 522.165,-377.777 526.774,-368.856"/>
<polygon fill="midnightblue" stroke="midnightblue" points="530.008,-370.221 531.489,-359.731 523.789,-367.008 530.008,-370.221"/>
</g>
<!-- Node12 -->
<g id="node12" class="node"><title>Node12</title>
<g id="a_node12"><a xlink:href="../../d4/de2/BaseCluster_8h.html" target="_top" xlink:title="ReconstructionDataFormats\l/BaseCluster.h">
<polygon fill="none" stroke="black" points="562,-273 562,-303 702,-303 702,-273 562,-273"/>
<text text-anchor="start" x="570" y="-291" font-family="Helvetica,sans-Serif" font-size="10.00">ReconstructionDataFormats</text>
<text text-anchor="middle" x="632" y="-280" font-family="Helvetica,sans-Serif" font-size="10.00">/BaseCluster.h</text>
</a>
</g>
</g>
<!-- Node11&#45;&gt;Node12 -->
<g id="edge12" class="edge"><title>Node11&#45;&gt;Node12</title>
<path fill="none" stroke="midnightblue" d="M549.754,-340.403C562.999,-332.125 583.503,-319.311 600.724,-308.547"/>
<polygon fill="midnightblue" stroke="midnightblue" points="602.75,-311.409 609.375,-303.141 599.04,-305.473 602.75,-311.409"/>
</g>
<!-- Node12&#45;&gt;Node10 -->
<g id="edge17" class="edge"><title>Node12&#45;&gt;Node10</title>
<path fill="none" stroke="midnightblue" d="M702.165,-278.74C925.57,-252.024 1618.25,-165.873 1834,-100 1836.28,-99.3046 1838.6,-98.4753 1840.9,-97.5686"/>
<polygon fill="midnightblue" stroke="midnightblue" points="1842.32,-100.769 1850.07,-93.5511 1839.51,-94.3568 1842.32,-100.769"/>
</g>
<!-- Node13 -->
<g id="node13" class="node"><title>Node13</title>
<polygon fill="none" stroke="#bfbfbf" points="751.5,-210.5 751.5,-229.5 810.5,-229.5 810.5,-210.5 751.5,-210.5"/>
<text text-anchor="middle" x="781" y="-217.5" font-family="Helvetica,sans-Serif" font-size="10.00">TObject.h</text>
</g>
<!-- Node12&#45;&gt;Node13 -->
<g id="edge13" class="edge"><title>Node12&#45;&gt;Node13</title>
<path fill="none" stroke="midnightblue" d="M663.964,-272.841C690.084,-261.272 726.693,-245.055 751.98,-233.855"/>
<polygon fill="midnightblue" stroke="midnightblue" points="753.674,-236.932 761.4,-229.682 750.839,-230.532 753.674,-236.932"/>
</g>
<!-- Node14 -->
<g id="node14" class="node"><title>Node14</title>
<polygon fill="none" stroke="#bfbfbf" points="664.5,-74.5 664.5,-93.5 705.5,-93.5 705.5,-74.5 664.5,-74.5"/>
<text text-anchor="middle" x="685" y="-81.5" font-family="Helvetica,sans-Serif" font-size="10.00">bitset</text>
</g>
<!-- Node12&#45;&gt;Node14 -->
<g id="edge14" class="edge"><title>Node12&#45;&gt;Node14</title>
<path fill="none" stroke="midnightblue" d="M644.078,-272.827C651.668,-263.108 660.948,-249.562 666,-236 682.861,-190.736 685.33,-133.116 685.364,-103.869"/>
<polygon fill="midnightblue" stroke="midnightblue" points="688.86,-103.471 685.27,-93.5034 681.86,-103.535 688.86,-103.471"/>
</g>
<!-- Node15 -->
<g id="node15" class="node"><title>Node15</title>
<polygon fill="none" stroke="#bfbfbf" points="385,-210.5 385,-229.5 435,-229.5 435,-210.5 385,-210.5"/>
<text text-anchor="middle" x="410" y="-217.5" font-family="Helvetica,sans-Serif" font-size="10.00">iomanip</text>
</g>
<!-- Node12&#45;&gt;Node15 -->
<g id="edge15" class="edge"><title>Node12&#45;&gt;Node15</title>
<path fill="none" stroke="midnightblue" d="M571.176,-272.97C534.013,-263.791 485.763,-250.782 444,-236 441.875,-235.248 439.697,-234.422 437.52,-233.556"/>
<polygon fill="midnightblue" stroke="midnightblue" points="438.722,-230.264 428.147,-229.61 436.006,-236.716 438.722,-230.264"/>
</g>
<!-- Node16 -->
<g id="node16" class="node"><title>Node16</title>
<polygon fill="none" stroke="#bfbfbf" points="453.5,-210.5 453.5,-229.5 482.5,-229.5 482.5,-210.5 453.5,-210.5"/>
<text text-anchor="middle" x="468" y="-217.5" font-family="Helvetica,sans-Serif" font-size="10.00">ios</text>
</g>
<!-- Node12&#45;&gt;Node16 -->
<g id="edge16" class="edge"><title>Node12&#45;&gt;Node16</title>
<path fill="none" stroke="midnightblue" d="M585.924,-272.921C558.127,-263.768 522.339,-250.804 492,-236 491.305,-235.661 490.604,-235.306 489.901,-234.94"/>
<polygon fill="midnightblue" stroke="midnightblue" points="491.332,-231.725 480.92,-229.764 487.836,-237.79 491.332,-231.725"/>
</g>
<!-- Node17 -->
<g id="node17" class="node"><title>Node17</title>
<g id="a_node17"><a xlink:href="../../d4/d20/DetMatrixCache_8h.html" target="_top" xlink:title="DetectorsCommonDataFormats\l/DetMatrixCache.h">
<polygon fill="none" stroke="black" points="501,-205 501,-235 657,-235 657,-205 501,-205"/>
<text text-anchor="start" x="509" y="-223" font-family="Helvetica,sans-Serif" font-size="10.00">DetectorsCommonDataFormats</text>
<text text-anchor="middle" x="579" y="-212" font-family="Helvetica,sans-Serif" font-size="10.00">/DetMatrixCache.h</text>
</a>
</g>
</g>
<!-- Node12&#45;&gt;Node17 -->
<g id="edge18" class="edge"><title>Node12&#45;&gt;Node17</title>
<path fill="none" stroke="midnightblue" d="M620.5,-272.679C613.624,-264.117 604.739,-253.053 596.956,-243.36"/>
<polygon fill="midnightblue" stroke="midnightblue" points="599.468,-240.899 590.478,-235.293 594.01,-245.282 599.468,-240.899"/>
</g>
<!-- Node27 -->
<g id="node27" class="node"><title>Node27</title>
<g id="a_node27"><a xlink:href="../../dd/d76/Cartesian3D_8h.html" target="_top" xlink:title="MathUtils/Cartesian3D.h">
<polygon fill="none" stroke="black" points="1082.5,-142.5 1082.5,-161.5 1207.5,-161.5 1207.5,-142.5 1082.5,-142.5"/>
<text text-anchor="middle" x="1145" y="-149.5" font-family="Helvetica,sans-Serif" font-size="10.00">MathUtils/Cartesian3D.h</text>
</a>
</g>
</g>
<!-- Node12&#45;&gt;Node27 -->
<g id="edge46" class="edge"><title>Node12&#45;&gt;Node27</title>
<path fill="none" stroke="midnightblue" d="M650.885,-272.655C681.985,-249.044 740.698,-204.529 742,-204 800.208,-180.336 972.641,-164.905 1072.08,-157.712"/>
<polygon fill="midnightblue" stroke="midnightblue" points="1072.63,-161.181 1082.35,-156.979 1072.13,-154.199 1072.63,-161.181"/>
</g>
<!-- Node17&#45;&gt;Node6 -->
<g id="edge45" class="edge"><title>Node17&#45;&gt;Node6</title>
<path fill="none" stroke="midnightblue" d="M508.77,-204.917C475.376,-196.697 435.524,-184.616 402,-168 380.656,-157.421 379.212,-148.608 359,-136 335.88,-121.578 308.211,-107.578 288.009,-97.9067"/>
<polygon fill="midnightblue" stroke="midnightblue" points="289.281,-94.6363 278.744,-93.5237 286.287,-100.964 289.281,-94.6363"/>
</g>
<!-- Node17&#45;&gt;Node9 -->
<g id="edge20" class="edge"><title>Node17&#45;&gt;Node9</title>
<path fill="none" stroke="midnightblue" d="M500.734,-205.322C447.862,-195.241 383.413,-181.067 359,-168 340.705,-158.207 342.721,-146.797 325,-136 283.945,-110.987 250.766,-139.245 223,-100 214.786,-88.3898 215.754,-80.2379 223,-68 236.769,-44.7463 265.315,-31.3933 287.17,-24.2315"/>
<polygon fill="midnightblue" stroke="midnightblue" points="288.4,-27.5163 296.965,-21.28 286.381,-20.814 288.4,-27.5163"/>
</g>
<!-- Node18 -->
<g id="node18" class="node"><title>Node18</title>
<polygon fill="none" stroke="#bfbfbf" points="411.5,-142.5 411.5,-161.5 482.5,-161.5 482.5,-142.5 411.5,-142.5"/>
<text text-anchor="middle" x="447" y="-149.5" font-family="Helvetica,sans-Serif" font-size="10.00">FairLogger.h</text>
</g>
<!-- Node17&#45;&gt;Node18 -->
<g id="edge19" class="edge"><title>Node17&#45;&gt;Node18</title>
<path fill="none" stroke="midnightblue" d="M550.683,-204.841C527.851,-193.425 495.97,-177.485 473.607,-166.303"/>
<polygon fill="midnightblue" stroke="midnightblue" points="474.873,-163.024 464.364,-161.682 471.743,-169.285 474.873,-163.024"/>
</g>
<!-- Node19 -->
<g id="node19" class="node"><title>Node19</title>
<polygon fill="none" stroke="#bfbfbf" points="273,-142.5 273,-161.5 317,-161.5 317,-142.5 273,-142.5"/>
<text text-anchor="middle" x="295" y="-149.5" font-family="Helvetica,sans-Serif" font-size="10.00">vector</text>
</g>
<!-- Node17&#45;&gt;Node19 -->
<g id="edge21" class="edge"><title>Node17&#45;&gt;Node19</title>
<path fill="none" stroke="midnightblue" d="M502.556,-204.944C441.97,-193.494 362.454,-177.689 331,-168 328.42,-167.205 325.77,-166.294 323.135,-165.322"/>
<polygon fill="midnightblue" stroke="midnightblue" points="324.392,-162.056 313.806,-161.635 321.819,-168.566 324.392,-162.056"/>
</g>
<!-- Node20 -->
<g id="node20" class="node"><title>Node20</title>
<g id="a_node20"><a xlink:href="../../d6/d31/DetID_8h.html" target="_top" xlink:title="DetectorsCommonDataFormats\l/DetID.h">
<polygon fill="none" stroke="black" points="501,-137 501,-167 657,-167 657,-137 501,-137"/>
<text text-anchor="start" x="509" y="-155" font-family="Helvetica,sans-Serif" font-size="10.00">DetectorsCommonDataFormats</text>
<text text-anchor="middle" x="579" y="-144" font-family="Helvetica,sans-Serif" font-size="10.00">/DetID.h</text>
</a>
</g>
</g>
<!-- Node17&#45;&gt;Node20 -->
<g id="edge22" class="edge"><title>Node17&#45;&gt;Node20</title>
<path fill="none" stroke="midnightblue" d="M579,-204.679C579,-196.722 579,-186.605 579,-177.436"/>
<polygon fill="midnightblue" stroke="midnightblue" points="582.5,-177.293 579,-167.293 575.5,-177.293 582.5,-177.293"/>
</g>
<!-- Node17&#45;&gt;Node27 -->
<g id="edge33" class="edge"><title>Node17&#45;&gt;Node27</title>
<path fill="none" stroke="midnightblue" d="M657.106,-209.892C766.98,-197.08 965.667,-173.912 1072.45,-161.46"/>
<polygon fill="midnightblue" stroke="midnightblue" points="1072.97,-164.924 1082.49,-160.289 1072.15,-157.971 1072.97,-164.924"/>
</g>
<!-- Node20&#45;&gt;Node6 -->
<g id="edge23" class="edge"><title>Node20&#45;&gt;Node6</title>
<path fill="none" stroke="midnightblue" d="M500.726,-137.253C425.667,-123.963 321.007,-105.108 302,-100 298.607,-99.0882 295.098,-98.0283 291.619,-96.9016"/>
<polygon fill="midnightblue" stroke="midnightblue" points="292.616,-93.5436 282.022,-93.6164 290.349,-100.166 292.616,-93.5436"/>
</g>
<!-- Node20&#45;&gt;Node9 -->
<g id="edge24" class="edge"><title>Node20&#45;&gt;Node9</title>
<path fill="none" stroke="midnightblue" d="M502.116,-136.994C432.905,-124.067 341.11,-105.996 335,-100 317.968,-83.2887 314.861,-54.6537 314.889,-35.775"/>
<polygon fill="midnightblue" stroke="midnightblue" points="318.39,-35.8164 315.202,-25.7127 311.393,-35.5994 318.39,-35.8164"/>
</g>
<!-- Node20&#45;&gt;Node14 -->
<g id="edge25" class="edge"><title>Node20&#45;&gt;Node14</title>
<path fill="none" stroke="midnightblue" d="M601.74,-136.841C619.663,-125.681 644.531,-110.198 662.415,-99.0625"/>
<polygon fill="midnightblue" stroke="midnightblue" points="664.417,-101.939 671.056,-93.6819 660.717,-95.9964 664.417,-101.939"/>
</g>
<!-- Node21 -->
<g id="node21" class="node"><title>Node21</title>
<polygon fill="none" stroke="#bfbfbf" points="344.5,-74.5 344.5,-93.5 393.5,-93.5 393.5,-74.5 344.5,-74.5"/>
<text text-anchor="middle" x="369" y="-81.5" font-family="Helvetica,sans-Serif" font-size="10.00">cassert</text>
</g>
<!-- Node20&#45;&gt;Node21 -->
<g id="edge26" class="edge"><title>Node20&#45;&gt;Node21</title>
<path fill="none" stroke="midnightblue" d="M523.297,-136.902C488.369,-127.561 442.614,-114.405 403,-100 400.882,-99.2297 398.708,-98.3903 396.534,-97.5149"/>
<polygon fill="midnightblue" stroke="midnightblue" points="397.742,-94.2255 387.169,-93.5504 395.013,-100.672 397.742,-94.2255"/>
</g>
<!-- Node22 -->
<g id="node22" class="node"><title>Node22</title>
<polygon fill="none" stroke="#bfbfbf" points="412,-74.5 412,-93.5 458,-93.5 458,-74.5 412,-74.5"/>
<text text-anchor="middle" x="435" y="-81.5" font-family="Helvetica,sans-Serif" font-size="10.00">cstdint</text>
</g>
<!-- Node20&#45;&gt;Node22 -->
<g id="edge27" class="edge"><title>Node20&#45;&gt;Node22</title>
<path fill="none" stroke="midnightblue" d="M547.578,-136.803C525.104,-126.622 494.153,-112.546 467,-100 465.608,-99.3566 464.182,-98.6959 462.743,-98.0272"/>
<polygon fill="midnightblue" stroke="midnightblue" points="463.802,-94.6591 453.26,-93.6017 460.841,-101.002 463.802,-94.6591"/>
</g>
<!-- Node23 -->
<g id="node23" class="node"><title>Node23</title>
<polygon fill="none" stroke="#bfbfbf" points="476,-74.5 476,-93.5 538,-93.5 538,-74.5 476,-74.5"/>
<text text-anchor="middle" x="507" y="-81.5" font-family="Helvetica,sans-Serif" font-size="10.00">type_traits</text>
</g>
<!-- Node20&#45;&gt;Node23 -->
<g id="edge28" class="edge"><title>Node20&#45;&gt;Node23</title>
<path fill="none" stroke="midnightblue" d="M563.377,-136.679C551.817,-126.082 536.078,-111.655 524.167,-100.736"/>
<polygon fill="midnightblue" stroke="midnightblue" points="526.367,-98.0055 516.631,-93.8283 521.637,-103.166 526.367,-98.0055"/>
</g>
<!-- Node24 -->
<g id="node24" class="node"><title>Node24</title>
<g id="a_node24"><a xlink:href="../../d9/d52/Common_2MathUtils_2include_2MathUtils_2Utils_8h.html" target="_top" xlink:title="MathUtils/Utils.h">
<polygon fill="none" stroke="black" points="556,-74.5 556,-93.5 646,-93.5 646,-74.5 556,-74.5"/>
<text text-anchor="middle" x="601" y="-81.5" font-family="Helvetica,sans-Serif" font-size="10.00">MathUtils/Utils.h</text>
</a>
</g>
</g>
<!-- Node20&#45;&gt;Node24 -->
<g id="edge29" class="edge"><title>Node20&#45;&gt;Node24</title>
<path fill="none" stroke="midnightblue" d="M583.774,-136.679C587,-126.999 591.292,-114.123 594.785,-103.645"/>
<polygon fill="midnightblue" stroke="midnightblue" points="598.215,-104.422 598.057,-93.8283 591.574,-102.208 598.215,-104.422"/>
</g>
<!-- Node24&#45;&gt;Node9 -->
<g id="edge30" class="edge"><title>Node24&#45;&gt;Node9</title>
<path fill="none" stroke="midnightblue" d="M570.809,-74.4858C562.767,-72.2947 554.071,-69.9942 546,-68 474.104,-50.2357 388.848,-32.0866 345.1,-22.9842"/>
<polygon fill="midnightblue" stroke="midnightblue" points="345.658,-19.5256 335.155,-20.9225 344.237,-26.3798 345.658,-19.5256"/>
</g>
<!-- Node24&#45;&gt;Node25 -->
<g id="edge31" class="edge"><title>Node24&#45;&gt;Node25</title>
<path fill="none" stroke="midnightblue" d="M626.818,-74.4645C635.656,-71.9094 645.668,-69.4135 655,-68 1187.39,12.6436 1331.44,-96.6773 1866,-32 1878.5,-30.4874 1892.07,-27.8225 1903.91,-25.1543"/>
<polygon fill="midnightblue" stroke="midnightblue" points="1904.85,-28.5274 1913.79,-22.8376 1903.26,-21.7122 1904.85,-28.5274"/>
</g>
<!-- Node26 -->
<g id="node26" class="node"><title>Node26</title>
<g id="a_node26"><a xlink:href="../../d6/d84/MathConstants_8h.html" target="_top" xlink:title="useful math constants ">
<polygon fill="none" stroke="black" points="511.5,-6.5 511.5,-25.5 690.5,-25.5 690.5,-6.5 511.5,-6.5"/>
<text text-anchor="middle" x="601" y="-13.5" font-family="Helvetica,sans-Serif" font-size="10.00">CommonConstants/MathConstants.h</text>
</a>
</g>
</g>
<!-- Node24&#45;&gt;Node26 -->
<g id="edge32" class="edge"><title>Node24&#45;&gt;Node26</title>
<path fill="none" stroke="midnightblue" d="M601,-74.3717C601,-64.6426 601,-48.528 601,-35.8504"/>
<polygon fill="midnightblue" stroke="midnightblue" points="604.5,-35.8411 601,-25.8411 597.5,-35.8412 604.5,-35.8411"/>
</g>
<!-- Node27&#45;&gt;Node6 -->
<g id="edge39" class="edge"><title>Node27&#45;&gt;Node6</title>
<path fill="none" stroke="midnightblue" d="M1082.48,-149.925C946.157,-146.954 612.154,-136.273 335,-100 322.984,-98.4273 310.003,-96.0695 298.272,-93.6863"/>
<polygon fill="midnightblue" stroke="midnightblue" points="298.847,-90.2307 288.342,-91.6045 297.411,-97.0818 298.847,-90.2307"/>
</g>
<!-- Node27&#45;&gt;Node10 -->
<g id="edge41" class="edge"><title>Node27&#45;&gt;Node10</title>
<path fill="none" stroke="midnightblue" d="M1207.58,-149.271C1354.23,-144.752 1716.59,-130.745 1834,-100 1836.49,-99.3472 1839.03,-98.5049 1841.53,-97.5527"/>
<polygon fill="midnightblue" stroke="midnightblue" points="1843.04,-100.713 1850.8,-93.5053 1840.24,-94.2971 1843.04,-100.713"/>
</g>
<!-- Node28 -->
<g id="node28" class="node"><title>Node28</title>
<polygon fill="none" stroke="#bfbfbf" points="1337.5,-69 1337.5,-99 1488.5,-99 1488.5,-69 1337.5,-69"/>
<text text-anchor="start" x="1345.5" y="-87" font-family="Helvetica,sans-Serif" font-size="10.00">Math/GenVector/Displacement</text>
<text text-anchor="middle" x="1413" y="-76" font-family="Helvetica,sans-Serif" font-size="10.00">Vector3D.h</text>
</g>
<!-- Node27&#45;&gt;Node28 -->
<g id="edge34" class="edge"><title>Node27&#45;&gt;Node28</title>
<path fill="none" stroke="midnightblue" d="M1179.76,-142.439C1221.74,-132.101 1293.28,-114.483 1346.09,-101.478"/>
<polygon fill="midnightblue" stroke="midnightblue" points="1347.18,-104.815 1356.05,-99.0247 1345.5,-98.0176 1347.18,-104.815"/>
</g>
<!-- Node29 -->
<g id="node29" class="node"><title>Node29</title>
<polygon fill="none" stroke="#bfbfbf" points="1507,-74.5 1507,-93.5 1683,-93.5 1683,-74.5 1507,-74.5"/>
<text text-anchor="middle" x="1595" y="-81.5" font-family="Helvetica,sans-Serif" font-size="10.00">Math/GenVector/PositionVector3D.h</text>
</g>
<!-- Node27&#45;&gt;Node29 -->
<g id="edge35" class="edge"><title>Node27&#45;&gt;Node29</title>
<path fill="none" stroke="midnightblue" d="M1204.81,-142.483C1274.86,-132.473 1394.39,-115.285 1497,-100 1507.62,-98.4175 1518.89,-96.7153 1529.85,-95.0457"/>
<polygon fill="midnightblue" stroke="midnightblue" points="1530.46,-98.4946 1539.81,-93.526 1529.4,-91.5747 1530.46,-98.4946"/>
</g>
<!-- Node30 -->
<g id="node30" class="node"><title>Node30</title>
<polygon fill="none" stroke="#bfbfbf" points="723.5,-74.5 723.5,-93.5 872.5,-93.5 872.5,-74.5 723.5,-74.5"/>
<text text-anchor="middle" x="798" y="-81.5" font-family="Helvetica,sans-Serif" font-size="10.00">Math/GenVector/Rotation3D.h</text>
</g>
<!-- Node27&#45;&gt;Node30 -->
<g id="edge36" class="edge"><title>Node27&#45;&gt;Node30</title>
<path fill="none" stroke="midnightblue" d="M1099.99,-142.439C1036.68,-130.396 921.419,-108.475 853.07,-95.4745"/>
<polygon fill="midnightblue" stroke="midnightblue" points="853.407,-91.9758 842.929,-93.5455 852.099,-98.8525 853.407,-91.9758"/>
</g>
<!-- Node31 -->
<g id="node31" class="node"><title>Node31</title>
<polygon fill="none" stroke="#bfbfbf" points="891,-74.5 891,-93.5 1047,-93.5 1047,-74.5 891,-74.5"/>
<text text-anchor="middle" x="969" y="-81.5" font-family="Helvetica,sans-Serif" font-size="10.00">Math/GenVector/Transform3D.h</text>
</g>
<!-- Node27&#45;&gt;Node31 -->
<g id="edge37" class="edge"><title>Node27&#45;&gt;Node31</title>
<path fill="none" stroke="midnightblue" d="M1121.99,-142.372C1091.21,-130.827 1036.45,-110.293 1001.47,-97.1772"/>
<polygon fill="midnightblue" stroke="midnightblue" points="1002.33,-93.76 991.736,-93.5259 999.87,-100.314 1002.33,-93.76"/>
</g>
<!-- Node32 -->
<g id="node32" class="node"><title>Node32</title>
<polygon fill="none" stroke="#bfbfbf" points="1065,-74.5 1065,-93.5 1225,-93.5 1225,-74.5 1065,-74.5"/>
<text text-anchor="middle" x="1145" y="-81.5" font-family="Helvetica,sans-Serif" font-size="10.00">Math/GenVector/Translation3D.h</text>
</g>
<!-- Node27&#45;&gt;Node32 -->
<g id="edge38" class="edge"><title>Node27&#45;&gt;Node32</title>
<path fill="none" stroke="midnightblue" d="M1145,-142.372C1145,-132.643 1145,-116.528 1145,-103.85"/>
<polygon fill="midnightblue" stroke="midnightblue" points="1148.5,-103.841 1145,-93.8411 1141.5,-103.841 1148.5,-103.841"/>
</g>
<!-- Node33 -->
<g id="node33" class="node"><title>Node33</title>
<polygon fill="none" stroke="#bfbfbf" points="1243,-74.5 1243,-93.5 1319,-93.5 1319,-74.5 1243,-74.5"/>
<text text-anchor="middle" x="1281" y="-81.5" font-family="Helvetica,sans-Serif" font-size="10.00">TGeoMatrix.h</text>
</g>
<!-- Node27&#45;&gt;Node33 -->
<g id="edge40" class="edge"><title>Node27&#45;&gt;Node33</title>
<path fill="none" stroke="midnightblue" d="M1162.78,-142.372C1185.99,-131.106 1226.85,-111.279 1253.92,-98.1403"/>
<polygon fill="midnightblue" stroke="midnightblue" points="1255.75,-101.145 1263.22,-93.6305 1252.69,-94.8477 1255.75,-101.145"/>
</g>
<!-- Node34 -->
<g id="node34" class="node"><title>Node34</title>
<g id="a_node34"><a xlink:href="../../d2/dd0/Cartesian2D_8h.html" target="_top" xlink:title="MathUtils/Cartesian2D.h">
<polygon fill="none" stroke="black" points="1700.5,-74.5 1700.5,-93.5 1825.5,-93.5 1825.5,-74.5 1700.5,-74.5"/>
<text text-anchor="middle" x="1763" y="-81.5" font-family="Helvetica,sans-Serif" font-size="10.00">MathUtils/Cartesian2D.h</text>
</a>
</g>
</g>
<!-- Node27&#45;&gt;Node34 -->
<g id="edge42" class="edge"><title>Node27&#45;&gt;Node34</title>
<path fill="none" stroke="midnightblue" d="M1207.51,-147.451C1309.25,-141.162 1516.83,-126.192 1691,-100 1699.17,-98.7716 1707.81,-97.206 1716.16,-95.5522"/>
<polygon fill="midnightblue" stroke="midnightblue" points="1717.05,-98.9419 1726.14,-93.5079 1715.65,-92.084 1717.05,-98.9419"/>
</g>
<!-- Node35 -->
<g id="node35" class="node"><title>Node35</title>
<polygon fill="none" stroke="#bfbfbf" points="1706.5,-1 1706.5,-31 1857.5,-31 1857.5,-1 1706.5,-1"/>
<text text-anchor="start" x="1714.5" y="-19" font-family="Helvetica,sans-Serif" font-size="10.00">Math/GenVector/Displacement</text>
<text text-anchor="middle" x="1782" y="-8" font-family="Helvetica,sans-Serif" font-size="10.00">Vector2D.h</text>
</g>
<!-- Node34&#45;&gt;Node35 -->
<g id="edge43" class="edge"><title>Node34&#45;&gt;Node35</title>
<path fill="none" stroke="midnightblue" d="M1765.48,-74.3717C1767.93,-65.8858 1771.77,-52.5419 1775.13,-40.858"/>
<polygon fill="midnightblue" stroke="midnightblue" points="1778.51,-41.7595 1777.92,-31.1815 1771.79,-39.8229 1778.51,-41.7595"/>
</g>
<!-- Node36 -->
<g id="node36" class="node"><title>Node36</title>
<polygon fill="none" stroke="#bfbfbf" points="1512,-6.5 1512,-25.5 1688,-25.5 1688,-6.5 1512,-6.5"/>
<text text-anchor="middle" x="1600" y="-13.5" font-family="Helvetica,sans-Serif" font-size="10.00">Math/GenVector/PositionVector2D.h</text>
</g>
<!-- Node34&#45;&gt;Node36 -->
<g id="edge44" class="edge"><title>Node34&#45;&gt;Node36</title>
<path fill="none" stroke="midnightblue" d="M1741.69,-74.3717C1713.3,-62.877 1662.9,-42.4687 1630.49,-29.3465"/>
<polygon fill="midnightblue" stroke="midnightblue" points="1631.64,-26.0349 1621.06,-25.5259 1629.01,-32.5232 1631.64,-26.0349"/>
</g>
<!-- Node37&#45;&gt;Node8 -->
<g id="edge48" class="edge"><title>Node37&#45;&gt;Node8</title>
<path fill="none" stroke="midnightblue" d="M373.04,-464.841C398.483,-454.846 432.753,-441.383 459.992,-430.682"/>
<polygon fill="midnightblue" stroke="midnightblue" points="461.28,-433.936 469.308,-427.022 458.721,-427.421 461.28,-433.936"/>
</g>
<!-- Node37&#45;&gt;Node19 -->
<g id="edge52" class="edge"><title>Node37&#45;&gt;Node19</title>
<path fill="none" stroke="midnightblue" d="M335.195,-464.992C328.498,-413.006 305.06,-231.087 297.425,-171.821"/>
<polygon fill="midnightblue" stroke="midnightblue" points="300.867,-171.148 296.118,-161.678 293.925,-172.043 300.867,-171.148"/>
</g>
<!-- Node38 -->
<g id="node38" class="node"><title>Node38</title>
<polygon fill="none" stroke="#bfbfbf" points="365,-402.5 365,-421.5 415,-421.5 415,-402.5 365,-402.5"/>
<text text-anchor="middle" x="390" y="-409.5" font-family="Helvetica,sans-Serif" font-size="10.00">fstream</text>
</g>
<!-- Node37&#45;&gt;Node38 -->
<g id="edge49" class="edge"><title>Node37&#45;&gt;Node38</title>
<path fill="none" stroke="midnightblue" d="M348.5,-464.679C356.764,-454.388 367.93,-440.484 376.598,-429.69"/>
<polygon fill="midnightblue" stroke="midnightblue" points="379.378,-431.817 382.911,-421.828 373.92,-427.434 379.378,-431.817"/>
</g>
<!-- Node39 -->
<g id="node39" class="node"><title>Node39</title>
<polygon fill="none" stroke="#bfbfbf" points="166.5,-402.5 166.5,-421.5 207.5,-421.5 207.5,-402.5 166.5,-402.5"/>
<text text-anchor="middle" x="187" y="-409.5" font-family="Helvetica,sans-Serif" font-size="10.00">string</text>
</g>
<!-- Node37&#45;&gt;Node39 -->
<g id="edge50" class="edge"><title>Node37&#45;&gt;Node39</title>
<path fill="none" stroke="midnightblue" d="M301.733,-464.989C277.424,-455.124 244.488,-441.346 216,-428 214.816,-427.445 213.61,-426.869 212.396,-426.279"/>
<polygon fill="midnightblue" stroke="midnightblue" points="213.654,-422.994 203.146,-421.636 210.513,-429.25 213.654,-422.994"/>
</g>
<!-- Node40 -->
<g id="node40" class="node"><title>Node40</title>
<polygon fill="none" stroke="#bfbfbf" points="225.5,-402.5 225.5,-421.5 308.5,-421.5 308.5,-402.5 225.5,-402.5"/>
<text text-anchor="middle" x="267" y="-409.5" font-family="Helvetica,sans-Serif" font-size="10.00">unordered_map</text>
</g>
<!-- Node37&#45;&gt;Node40 -->
<g id="edge51" class="edge"><title>Node37&#45;&gt;Node40</title>
<path fill="none" stroke="midnightblue" d="M321.811,-464.679C310.572,-454.082 295.27,-439.655 283.69,-428.736"/>
<polygon fill="midnightblue" stroke="midnightblue" points="286.04,-426.142 276.363,-421.828 281.238,-431.235 286.04,-426.142"/>
</g>
<!-- Node42&#45;&gt;Node7 -->
<g id="edge56" class="edge"><title>Node42&#45;&gt;Node7</title>
<path fill="none" stroke="midnightblue" d="M824.364,-536.615C760.455,-525.485 658.574,-507.744 587.111,-495.299"/>
<polygon fill="midnightblue" stroke="midnightblue" points="587.688,-491.847 577.236,-493.579 586.487,-498.743 587.688,-491.847"/>
</g>
<!-- Node42&#45;&gt;Node9 -->
<g id="edge55" class="edge"><title>Node42&#45;&gt;Node9</title>
<path fill="none" stroke="midnightblue" d="M943.626,-545.586C1163.61,-539.59 1917,-511.842 1917,-413 1917,-413 1917,-413 1917,-151 1917,-113.055 1926.5,-91.8615 1897,-68 1836.72,-19.2481 579.416,-36.1175 502,-32 446.498,-29.0481 381.849,-23.3157 345.241,-19.8555"/>
<polygon fill="midnightblue" stroke="midnightblue" points="345.543,-16.3686 335.256,-18.9021 344.878,-23.3369 345.543,-16.3686"/>
</g>
<!-- Node42&#45;&gt;Node37 -->
<g id="edge57" class="edge"><title>Node42&#45;&gt;Node37</title>
<path fill="none" stroke="midnightblue" d="M824.31,-541.542C736.444,-533.246 567.204,-516.265 424,-496 423.782,-495.969 423.563,-495.938 423.345,-495.907"/>
<polygon fill="midnightblue" stroke="midnightblue" points="423.749,-492.429 413.345,-494.431 422.727,-499.354 423.749,-492.429"/>
</g>
</g>
</svg>
        <g id="navigator" transform="translate(0 0)" fill="#404254">
                <rect fill="#f2f5e9" fill-opacity="0.5" stroke="#606060" stroke-width=".5" x="0" y="0" width="60" height="60"/>
                <use id="zoomplus" xlink:href="#zoomPlus" x="17" y="9" onmousedown="handleZoom(evt,'in')"/>
                <use id="zoomminus" xlink:href="#zoomMin" x="42" y="9" onmousedown="handleZoom(evt,'out')"/>
                <use id="reset" xlink:href="#resetDef" x="30" y="36" onmousedown="handleReset()"/>
                <g id="arrowUp" xlink:href="#dirArrow" transform="translate(30 24)" onmousedown="handlePan(0,-1)">
                  <use xlink:href="#rim" fill="#404040">
                        <set attributeName="fill" to="#808080" begin="arrowUp.mouseover" end="arrowUp.mouseout"/>
                  </use>
                  <path fill="none" stroke="white" stroke-width="1.5" d="M0,-3.0v7 M-2.5,-0.5L0,-3.0L2.5,-0.5"/>
                </g>
                <g id="arrowRight" xlink:href="#dirArrow" transform="rotate(90) translate(36 -43)" onmousedown="handlePan(1,0)">
                  <use xlink:href="#rim" fill="#404040">
                        <set attributeName="fill" to="#808080" begin="arrowRight.mouseover" end="arrowRight.mouseout"/>
                  </use>
                  <path fill="none" stroke="white" stroke-width="1.5" d="M0,-3.0v7 M-2.5,-0.5L0,-3.0L2.5,-0.5"/>
                </g>
                <g id="arrowDown" xlink:href="#dirArrow" transform="rotate(180) translate(-30 -48)" onmousedown="handlePan(0,1)">
                  <use xlink:href="#rim" fill="#404040">
                        <set attributeName="fill" to="#808080" begin="arrowDown.mouseover" end="arrowDown.mouseout"/>
                  </use>
                  <path fill="none" stroke="white" stroke-width="1.5" d="M0,-3.0v7 M-2.5,-0.5L0,-3.0L2.5,-0.5"/>
                </g>
                <g id="arrowLeft" xlink:href="#dirArrow" transform="rotate(270) translate(-36 17)" onmousedown="handlePan(-1,0)">
                  <use xlink:href="#rim" fill="#404040">
                        <set attributeName="fill" to="#808080" begin="arrowLeft.mouseover" end="arrowLeft.mouseout"/>
                  </use>
                  <path fill="none" stroke="white" stroke-width="1.5" d="M0,-3.0v7 M-2.5,-0.5L0,-3.0L2.5,-0.5"/>
                </g>
        </g>
        <svg viewBox="0 0 15 15" width="100%" height="30px" preserveAspectRatio="xMaxYMin meet">
         <g id="arrow_out" transform="scale(0.3 0.3)">
          <a xlink:href="BuildTopologyDictionary_8cxx__incl_org.svg" target="_base">
           <rect id="button" ry="5" rx="5" y="6" x="6" height="38" width="38"
                fill="#f2f5e9" fill-opacity="0.5" stroke="#606060" stroke-width="1.0"/>
           <path id="arrow"
             d="M 11.500037,31.436501 C 11.940474,20.09759 22.043105,11.32322 32.158766,21.979434 L 37.068811,17.246167 C 37.068811,17.246167 37.088388,32 37.088388,32 L 22.160133,31.978069 C 22.160133,31.978069 26.997745,27.140456 26.997745,27.140456 C 18.528582,18.264221 13.291696,25.230495 11.500037,31.436501 z"
             style="fill:#404040;"/>
          </a>
         </g>
        </svg>
</svg>
