<?xml version="1.0" encoding="UTF-8" standalone="no"?>
<!DOCTYPE svg PUBLIC "-//W3C//DTD SVG 1.1//EN"
 "http://www.w3.org/Graphics/SVG/1.1/DTD/svg11.dtd">
<!-- Generated by graphviz version 2.36.0 (20140111.2315)
 -->
<!-- Title: /home/travis/build/AliceO2Group/AliceO2/Detectors/ITSMFT/common/simulation/src/ChipDigitsContainer.cxx Pages: 1 -->
<!--zoomable 310 -->
<svg id="main" version="1.1" xmlns="http://www.w3.org/2000/svg" xmlns:xlink="http://www.w3.org/1999/xlink" xml:space="preserve" onload="init(evt)">
<style type="text/css"><![CDATA[
.edge:hover path { stroke: red; }
.edge:hover polygon { stroke: red; fill: red; }
]]></style>
<script type="text/javascript"><![CDATA[
var edges = document.getElementsByTagName('g');
if (edges && edges.length) {
  for (var i=0;i<edges.length;i++) {
    if (edges[i].id.substr(0,4)=='edge') {
      edges[i].setAttribute('class','edge');
    }
  }
}
]]></script>
        <defs>
                <circle id="rim" cx="0" cy="0" r="7"/>
                <circle id="rim2" cx="0" cy="0" r="3.5"/>
                <g id="zoomPlus">
                        <use xlink:href="#rim" fill="#404040">
                                <set attributeName="fill" to="#808080" begin="zoomplus.mouseover" end="zoomplus.mouseout"/>
                        </use>
                        <path d="M-4,0h8M0,-4v8" fill="none" stroke="white" stroke-width="1.5" pointer-events="none"/>
                </g>
                <g id="zoomMin">
                        <use xlink:href="#rim" fill="#404040">
                                <set attributeName="fill" to="#808080" begin="zoomminus.mouseover" end="zoomminus.mouseout"/>
                        </use>
                        <path d="M-4,0h8" fill="none" stroke="white" stroke-width="1.5" pointer-events="none"/>
                </g>
                <g id="dirArrow">
                        <path fill="none" stroke="white" stroke-width="1.5" d="M0,-3.0v7 M-2.5,-0.5L0,-3.0L2.5,-0.5"/>
                </g>
               <g id="resetDef">
                       <use xlink:href="#rim2" fill="#404040">
                               <set attributeName="fill" to="#808080" begin="reset.mouseover" end="reset.mouseout"/>
                       </use>
               </g>
        </defs>

<script type="text/javascript">
var viewWidth = 613;
var viewHeight = 310;
var sectionId = 'dynsection-0';
</script>
<script xlink:href="../../svgpan.js"/>
<svg id="graph" class="graph">
<g id="viewport">
<title>/home/travis/build/AliceO2Group/AliceO2/Detectors/ITSMFT/common/simulation/src/ChipDigitsContainer.cxx</title>
<!-- Node1 -->
<g id="node1" class="node"><title>Node1</title>
<polygon fill="#bfbfbf" stroke="black" points="351.08,-249 351.08,-301 541.08,-301 541.08,-249 351.08,-249"/>
<text text-anchor="start" x="359.08" y="-289" font-family="Helvetica,sans-Serif" font-size="10.00">/home/travis/build</text>
<text text-anchor="start" x="359.08" y="-278" font-family="Helvetica,sans-Serif" font-size="10.00">/AliceO2Group/AliceO2</text>
<text text-anchor="start" x="359.08" y="-267" font-family="Helvetica,sans-Serif" font-size="10.00">/Detectors/ITSMFT/common</text>
<text text-anchor="middle" x="446.08" y="-256" font-family="Helvetica,sans-Serif" font-size="10.00">/simulation/src/ChipDigitsContainer.cxx</text>
</g>
<!-- Node2 -->
<g id="node2" class="node"><title>Node2</title>
<g id="a_node2"><a xlink:href="../../da/d93/ChipDigitsContainer_8h.html" target="_top" xlink:title="transient container for single chip digits accumulation ">
<polygon fill="none" stroke="black" points="121.58,-181 121.58,-211 268.58,-211 268.58,-181 121.58,-181"/>
<text text-anchor="start" x="129.58" y="-199" font-family="Helvetica,sans-Serif" font-size="10.00">ITSMFTSimulation/ChipDigits</text>
<text text-anchor="middle" x="195.08" y="-188" font-family="Helvetica,sans-Serif" font-size="10.00">Container.h</text>
</a>
</g>
</g>
<!-- Node1&#45;&gt;Node2 -->
<g id="edge1" class="edge"><title>Node1&#45;&gt;Node2</title>
<path fill="none" stroke="midnightblue" d="M364.241,-248.894C327.001,-237.47 283.903,-224.249 250.529,-214.01"/>
<polygon fill="midnightblue" stroke="midnightblue" points="251.532,-210.657 240.945,-211.07 249.479,-217.349 251.532,-210.657"/>
</g>
<!-- Node8 -->
<g id="node8" class="node"><title>Node8</title>
<g id="a_node8"><a xlink:href="../../df/d29/DigiParams_8h.html" target="_top" xlink:title="Simulation parameters for the ALIPIDE chip. ">
<polygon fill="none" stroke="black" points="293.58,-124.5 293.58,-143.5 454.58,-143.5 454.58,-124.5 293.58,-124.5"/>
<text text-anchor="middle" x="374.08" y="-131.5" font-family="Helvetica,sans-Serif" font-size="10.00">ITSMFTSimulation/DigiParams.h</text>
</a>
</g>
</g>
<!-- Node1&#45;&gt;Node8 -->
<g id="edge8" class="edge"><title>Node1&#45;&gt;Node8</title>
<path fill="none" stroke="midnightblue" d="M433.041,-248.828C418.645,-221.035 395.841,-177.011 383.227,-152.659"/>
<polygon fill="midnightblue" stroke="midnightblue" points="386.207,-150.802 378.5,-143.532 379.991,-154.022 386.207,-150.802"/>
</g>
<!-- Node10 -->
<g id="node10" class="node"><title>Node10</title>
<g id="a_node10"><a xlink:href="../../d3/dba/SegmentationAlpide_8h.html" target="_top" xlink:title="Definition of the SegmentationAlpide class. ">
<polygon fill="none" stroke="black" points="432.58,-62.5 432.58,-81.5 605.58,-81.5 605.58,-62.5 432.58,-62.5"/>
<text text-anchor="middle" x="519.08" y="-69.5" font-family="Helvetica,sans-Serif" font-size="10.00">ITSMFTBase/SegmentationAlpide.h</text>
</a>
</g>
</g>
<!-- Node1&#45;&gt;Node10 -->
<g id="edge12" class="edge"><title>Node1&#45;&gt;Node10</title>
<path fill="none" stroke="midnightblue" d="M455.178,-248.95C470.072,-207.94 499.312,-127.431 512.432,-91.3052"/>
<polygon fill="midnightblue" stroke="midnightblue" points="515.828,-92.2057 515.952,-81.6116 509.249,-89.8161 515.828,-92.2057"/>
</g>
<!-- Node11 -->
<g id="node11" class="node"><title>Node11</title>
<polygon fill="none" stroke="#bfbfbf" points="511.08,-186.5 511.08,-205.5 579.08,-205.5 579.08,-186.5 511.08,-186.5"/>
<text text-anchor="middle" x="545.08" y="-193.5" font-family="Helvetica,sans-Serif" font-size="10.00">TRandom.h</text>
</g>
<!-- Node1&#45;&gt;Node11 -->
<g id="edge14" class="edge"><title>Node1&#45;&gt;Node11</title>
<path fill="none" stroke="midnightblue" d="M478.496,-248.787C494.224,-236.554 512.575,-222.282 526.024,-211.821"/>
<polygon fill="midnightblue" stroke="midnightblue" points="528.332,-214.46 534.077,-205.558 524.035,-208.934 528.332,-214.46"/>
</g>
<!-- Node3 -->
<g id="node3" class="node"><title>Node3</title>
<g id="a_node3"><a xlink:href="../../d7/dcd/MCCompLabel_8h.html" target="_top" xlink:title="SimulationDataFormat\l/MCCompLabel.h">
<polygon fill="none" stroke="black" points="30.08,-57 30.08,-87 144.08,-87 144.08,-57 30.08,-57"/>
<text text-anchor="start" x="38.08" y="-75" font-family="Helvetica,sans-Serif" font-size="10.00">SimulationDataFormat</text>
<text text-anchor="middle" x="87.08" y="-64" font-family="Helvetica,sans-Serif" font-size="10.00">/MCCompLabel.h</text>
</a>
</g>
</g>
<!-- Node2&#45;&gt;Node3 -->
<g id="edge2" class="edge"><title>Node2&#45;&gt;Node3</title>
<path fill="none" stroke="midnightblue" d="M121.348,-184.582C74.2994,-176.252 19.5259,-162.835 5.07999,-144 -10.6562,-123.483 14.0792,-104.549 40.3979,-91.4028"/>
<polygon fill="midnightblue" stroke="midnightblue" points="42.1645,-94.4391 49.7094,-87.001 39.1728,-88.1106 42.1645,-94.4391"/>
</g>
<!-- Node5 -->
<g id="node5" class="node"><title>Node5</title>
<g id="a_node5"><a xlink:href="../../d2/d53/PreDigit_8h.html" target="_top" xlink:title="Definition of the digit contribution from single hit. ">
<polygon fill="none" stroke="black" points="14.58,-124.5 14.58,-143.5 159.58,-143.5 159.58,-124.5 14.58,-124.5"/>
<text text-anchor="middle" x="87.08" y="-131.5" font-family="Helvetica,sans-Serif" font-size="10.00">ITSMFTSimulation/PreDigit.h</text>
</a>
</g>
</g>
<!-- Node2&#45;&gt;Node5 -->
<g id="edge4" class="edge"><title>Node2&#45;&gt;Node5</title>
<path fill="none" stroke="midnightblue" d="M169.759,-180.933C152.189,-171.171 128.912,-158.24 111.534,-148.586"/>
<polygon fill="midnightblue" stroke="midnightblue" points="113.001,-145.397 102.56,-143.6 109.602,-151.516 113.001,-145.397"/>
</g>
<!-- Node6 -->
<g id="node6" class="node"><title>Node6</title>
<polygon fill="none" stroke="#bfbfbf" points="177.58,-124.5 177.58,-143.5 212.58,-143.5 212.58,-124.5 177.58,-124.5"/>
<text text-anchor="middle" x="195.08" y="-131.5" font-family="Helvetica,sans-Serif" font-size="10.00">map</text>
</g>
<!-- Node2&#45;&gt;Node6 -->
<g id="edge6" class="edge"><title>Node2&#45;&gt;Node6</title>
<path fill="none" stroke="midnightblue" d="M195.08,-180.781C195.08,-172.781 195.08,-162.689 195.08,-154.017"/>
<polygon fill="midnightblue" stroke="midnightblue" points="198.58,-153.73 195.08,-143.731 191.58,-153.731 198.58,-153.73"/>
</g>
<!-- Node7 -->
<g id="node7" class="node"><title>Node7</title>
<polygon fill="none" stroke="#bfbfbf" points="231.08,-124.5 231.08,-143.5 275.08,-143.5 275.08,-124.5 231.08,-124.5"/>
<text text-anchor="middle" x="253.08" y="-131.5" font-family="Helvetica,sans-Serif" font-size="10.00">vector</text>
</g>
<!-- Node2&#45;&gt;Node7 -->
<g id="edge7" class="edge"><title>Node2&#45;&gt;Node7</title>
<path fill="none" stroke="midnightblue" d="M208.825,-180.781C217.427,-171.882 228.532,-160.394 237.466,-151.152"/>
<polygon fill="midnightblue" stroke="midnightblue" points="240.207,-153.353 244.64,-143.731 235.174,-148.488 240.207,-153.353"/>
</g>
<!-- Node4 -->
<g id="node4" class="node"><title>Node4</title>
<polygon fill="none" stroke="#bfbfbf" points="256.08,-0.5 256.08,-19.5 312.08,-19.5 312.08,-0.5 256.08,-0.5"/>
<text text-anchor="middle" x="284.08" y="-7.5" font-family="Helvetica,sans-Serif" font-size="10.00">Rtypes.h</text>
</g>
<!-- Node3&#45;&gt;Node4 -->
<g id="edge3" class="edge"><title>Node3&#45;&gt;Node4</title>
<path fill="none" stroke="midnightblue" d="M133.268,-56.9327C167.645,-46.4624 213.999,-32.3445 246.204,-22.5358"/>
<polygon fill="midnightblue" stroke="midnightblue" points="247.584,-25.7745 256.13,-19.5127 245.544,-19.0782 247.584,-25.7745"/>
</g>
<!-- Node5&#45;&gt;Node3 -->
<g id="edge5" class="edge"><title>Node5&#45;&gt;Node3</title>
<path fill="none" stroke="midnightblue" d="M87.08,-124.403C87.08,-117.341 87.08,-106.975 87.08,-97.399"/>
<polygon fill="midnightblue" stroke="midnightblue" points="90.5801,-97.1408 87.08,-87.1408 83.5801,-97.1408 90.5801,-97.1408"/>
</g>
<!-- Node8&#45;&gt;Node4 -->
<g id="edge9" class="edge"><title>Node8&#45;&gt;Node4</title>
<path fill="none" stroke="midnightblue" d="M307.68,-124.412C285.677,-118.05 263.422,-107.035 250.08,-88 236.652,-68.8423 253.316,-43.5324 267.686,-27.2573"/>
<polygon fill="midnightblue" stroke="midnightblue" points="270.532,-29.3388 274.82,-19.6504 265.426,-24.5503 270.532,-29.3388"/>
</g>
<!-- Node9 -->
<g id="node9" class="node"><title>Node9</title>
<g id="a_node9"><a xlink:href="../../d1/d47/AlpideSignalTrapezoid_8h.html" target="_top" xlink:title="Simple class describing ALPIDE signal time shape. ">
<polygon fill="none" stroke="black" points="259.58,-57 259.58,-87 414.58,-87 414.58,-57 259.58,-57"/>
<text text-anchor="start" x="267.58" y="-75" font-family="Helvetica,sans-Serif" font-size="10.00">ITSMFTSimulation/AlpideSignal</text>
<text text-anchor="middle" x="337.08" y="-64" font-family="Helvetica,sans-Serif" font-size="10.00">Trapezoid.h</text>
</a>
</g>
</g>
<!-- Node8&#45;&gt;Node9 -->
<g id="edge10" class="edge"><title>Node8&#45;&gt;Node9</title>
<path fill="none" stroke="midnightblue" d="M368.779,-124.403C364.189,-116.961 357.338,-105.851 351.178,-95.8619"/>
<polygon fill="midnightblue" stroke="midnightblue" points="354.028,-93.8154 345.8,-87.1408 348.07,-97.4897 354.028,-93.8154"/>
</g>
<!-- Node9&#45;&gt;Node4 -->
<g id="edge11" class="edge"><title>Node9&#45;&gt;Node4</title>
<path fill="none" stroke="midnightblue" d="M324.52,-56.7808C316.739,-47.9722 306.716,-36.6262 298.596,-27.4332"/>
<polygon fill="midnightblue" stroke="midnightblue" points="301.036,-24.9082 291.792,-19.7305 295.789,-29.5424 301.036,-24.9082"/>
</g>
<!-- Node10&#45;&gt;Node4 -->
<g id="edge13" class="edge"><title>Node10&#45;&gt;Node4</title>
<path fill="none" stroke="midnightblue" d="M485.41,-62.4035C442.108,-51.3476 367.111,-32.1994 321.892,-20.654"/>
<polygon fill="midnightblue" stroke="midnightblue" points="322.724,-17.2545 312.169,-18.1718 320.993,-24.0369 322.724,-17.2545"/>
</g>
</g>
</svg>
        <g id="navigator" transform="translate(0 0)" fill="#404254">
                <rect fill="#f2f5e9" fill-opacity="0.5" stroke="#606060" stroke-width=".5" x="0" y="0" width="60" height="60"/>
                <use id="zoomplus" xlink:href="#zoomPlus" x="17" y="9" onmousedown="handleZoom(evt,'in')"/>
                <use id="zoomminus" xlink:href="#zoomMin" x="42" y="9" onmousedown="handleZoom(evt,'out')"/>
                <use id="reset" xlink:href="#resetDef" x="30" y="36" onmousedown="handleReset()"/>
                <g id="arrowUp" xlink:href="#dirArrow" transform="translate(30 24)" onmousedown="handlePan(0,-1)">
                  <use xlink:href="#rim" fill="#404040">
                        <set attributeName="fill" to="#808080" begin="arrowUp.mouseover" end="arrowUp.mouseout"/>
                  </use>
                  <path fill="none" stroke="white" stroke-width="1.5" d="M0,-3.0v7 M-2.5,-0.5L0,-3.0L2.5,-0.5"/>
                </g>
                <g id="arrowRight" xlink:href="#dirArrow" transform="rotate(90) translate(36 -43)" onmousedown="handlePan(1,0)">
                  <use xlink:href="#rim" fill="#404040">
                        <set attributeName="fill" to="#808080" begin="arrowRight.mouseover" end="arrowRight.mouseout"/>
                  </use>
                  <path fill="none" stroke="white" stroke-width="1.5" d="M0,-3.0v7 M-2.5,-0.5L0,-3.0L2.5,-0.5"/>
                </g>
                <g id="arrowDown" xlink:href="#dirArrow" transform="rotate(180) translate(-30 -48)" onmousedown="handlePan(0,1)">
                  <use xlink:href="#rim" fill="#404040">
                        <set attributeName="fill" to="#808080" begin="arrowDown.mouseover" end="arrowDown.mouseout"/>
                  </use>
                  <path fill="none" stroke="white" stroke-width="1.5" d="M0,-3.0v7 M-2.5,-0.5L0,-3.0L2.5,-0.5"/>
                </g>
                <g id="arrowLeft" xlink:href="#dirArrow" transform="rotate(270) translate(-36 17)" onmousedown="handlePan(-1,0)">
                  <use xlink:href="#rim" fill="#404040">
                        <set attributeName="fill" to="#808080" begin="arrowLeft.mouseover" end="arrowLeft.mouseout"/>
                  </use>
                  <path fill="none" stroke="white" stroke-width="1.5" d="M0,-3.0v7 M-2.5,-0.5L0,-3.0L2.5,-0.5"/>
                </g>
        </g>
        <svg viewBox="0 0 15 15" width="100%" height="30px" preserveAspectRatio="xMaxYMin meet">
         <g id="arrow_out" transform="scale(0.3 0.3)">
          <a xlink:href="ChipDigitsContainer_8cxx__incl_org.svg" target="_base">
           <rect id="button" ry="5" rx="5" y="6" x="6" height="38" width="38"
                fill="#f2f5e9" fill-opacity="0.5" stroke="#606060" stroke-width="1.0"/>
           <path id="arrow"
             d="M 11.500037,31.436501 C 11.940474,20.09759 22.043105,11.32322 32.158766,21.979434 L 37.068811,17.246167 C 37.068811,17.246167 37.088388,32 37.088388,32 L 22.160133,31.978069 C 22.160133,31.978069 26.997745,27.140456 26.997745,27.140456 C 18.528582,18.264221 13.291696,25.230495 11.500037,31.436501 z"
             style="fill:#404040;"/>
          </a>
         </g>
        </svg>
</svg>
