<?xml version="1.0" encoding="UTF-8" standalone="no"?>
<!DOCTYPE svg PUBLIC "-//W3C//DTD SVG 1.1//EN"
 "http://www.w3.org/Graphics/SVG/1.1/DTD/svg11.dtd">
<!-- Generated by graphviz version 2.36.0 (20140111.2315)
 -->
<!-- Title: o2::qc::impl::NeverCalled Pages: 1 -->
<svg width="136pt" height="184pt"
 viewBox="0.00 0.00 136.00 184.00" xmlns="http://www.w3.org/2000/svg" xmlns:xlink="http://www.w3.org/1999/xlink">
<g id="graph0" class="graph" transform="scale(1 1) rotate(0) translate(4 180)">
<title>o2::qc::impl::NeverCalled</title>
<!-- Node1 -->
<g id="node1" class="node"><title>Node1</title>
<polygon fill="#bfbfbf" stroke="black" points="0,-1 0,-69 128,-69 128,-1 0,-1"/>
<text text-anchor="middle" x="64" y="-57" font-family="Helvetica,sans-Serif" font-size="10.00">o2::qc::impl::NeverCalled</text>
<polyline fill="none" stroke="black" points="0,-50 128,-50 "/>
<text text-anchor="middle" x="64" y="-38" font-family="Helvetica,sans-Serif" font-size="10.00"> </text>
<polyline fill="none" stroke="black" points="0,-31 128,-31 "/>
<text text-anchor="start" x="8" y="-19" font-family="Helvetica,sans-Serif" font-size="10.00">+ NeverCalled()</text>
<text text-anchor="start" x="8" y="-8" font-family="Helvetica,sans-Serif" font-size="10.00">+ produceData()</text>
</g>
<!-- Node2 -->
<g id="node2" class="node"><title>Node2</title>
<g id="a_node2"><a xlink:href="../../d7/d27/classo2_1_1qc_1_1Producer.html" target="_top" xlink:title="{o2::qc::Producer\n||+ produceData()\l+ ~Producer()\l}">
<polygon fill="none" stroke="black" points="19.5,-107 19.5,-175 108.5,-175 108.5,-107 19.5,-107"/>
<text text-anchor="middle" x="64" y="-163" font-family="Helvetica,sans-Serif" font-size="10.00">o2::qc::Producer</text>
<polyline fill="none" stroke="black" points="19.5,-156 108.5,-156 "/>
<text text-anchor="middle" x="64" y="-144" font-family="Helvetica,sans-Serif" font-size="10.00"> </text>
<polyline fill="none" stroke="black" points="19.5,-137 108.5,-137 "/>
<text text-anchor="start" x="27.5" y="-125" font-family="Helvetica,sans-Serif" font-size="10.00">+ produceData()</text>
<text text-anchor="start" x="27.5" y="-114" font-family="Helvetica,sans-Serif" font-size="10.00">+ ~Producer()</text>
</a>
</g>
</g>
<!-- Node2&#45;&gt;Node1 -->
<g id="edge1" class="edge"><title>Node2&#45;&gt;Node1</title>
<path fill="none" stroke="midnightblue" d="M64,-96.6737C64,-87.5025 64,-77.9608 64,-69.2336"/>
<polygon fill="none" stroke="midnightblue" points="60.5001,-96.8078 64,-106.808 67.5001,-96.8078 60.5001,-96.8078"/>
</g>
</g>
</svg>
