<?xml version="1.0" encoding="UTF-8" standalone="no"?>
<!DOCTYPE svg PUBLIC "-//W3C//DTD SVG 1.1//EN"
 "http://www.w3.org/Graphics/SVG/1.1/DTD/svg11.dtd">
<!-- Generated by graphviz version 2.36.0 (20140111.2315)
 -->
<!-- Title: /home/travis/build/AliceO2Group/AliceO2/Detectors/ITSMFT/ITS/simulation/include/ITSSimulation/Detector.h Pages: 1 -->
<svg width="2919pt" height="388pt"
 viewBox="0.00 0.00 2919.00 388.00" xmlns="http://www.w3.org/2000/svg" xmlns:xlink="http://www.w3.org/1999/xlink">
<g id="graph0" class="graph" transform="scale(1 1) rotate(0) translate(4 384)">
<title>/home/travis/build/AliceO2Group/AliceO2/Detectors/ITSMFT/ITS/simulation/include/ITSSimulation/Detector.h</title>
<!-- Node1 -->
<g id="node1" class="node"><title>Node1</title>
<polygon fill="#bfbfbf" stroke="black" points="1343,-316.5 1343,-379.5 1505,-379.5 1505,-316.5 1343,-316.5"/>
<text text-anchor="start" x="1351" y="-367.5" font-family="Helvetica,sans-Serif" font-size="10.00">/home/travis/build</text>
<text text-anchor="start" x="1351" y="-356.5" font-family="Helvetica,sans-Serif" font-size="10.00">/AliceO2Group/AliceO2</text>
<text text-anchor="start" x="1351" y="-345.5" font-family="Helvetica,sans-Serif" font-size="10.00">/Detectors/ITSMFT/ITS</text>
<text text-anchor="start" x="1351" y="-334.5" font-family="Helvetica,sans-Serif" font-size="10.00">/simulation/include/ITSSimulation</text>
<text text-anchor="middle" x="1424" y="-323.5" font-family="Helvetica,sans-Serif" font-size="10.00">/Detector.h</text>
</g>
<!-- Node2 -->
<g id="node2" class="node"><title>Node2</title>
<polygon fill="none" stroke="#bfbfbf" points="1463,-198.5 1463,-217.5 1507,-217.5 1507,-198.5 1463,-198.5"/>
<text text-anchor="middle" x="1485" y="-205.5" font-family="Helvetica,sans-Serif" font-size="10.00">vector</text>
</g>
<!-- Node1&#45;&gt;Node2 -->
<g id="edge1" class="edge"><title>Node1&#45;&gt;Node2</title>
<path fill="none" stroke="midnightblue" d="M1437.54,-316.373C1449.66,-288.953 1467.02,-249.679 1477.04,-227.013"/>
<polygon fill="midnightblue" stroke="midnightblue" points="1480.35,-228.168 1481.2,-217.606 1473.95,-225.338 1480.35,-228.168"/>
</g>
<!-- Node3 -->
<g id="node3" class="node"><title>Node3</title>
<g id="a_node3"><a xlink:href="../../db/dcc/Detectors_2Base_2include_2DetectorsBase_2GeometryManager_8h.html" target="_top" xlink:title="DetectorsBase/GeometryManager.h">
<polygon fill="none" stroke="black" points="664.5,-260.5 664.5,-279.5 837.5,-279.5 837.5,-260.5 664.5,-260.5"/>
<text text-anchor="middle" x="751" y="-267.5" font-family="Helvetica,sans-Serif" font-size="10.00">DetectorsBase/GeometryManager.h</text>
</a>
</g>
</g>
<!-- Node1&#45;&gt;Node3 -->
<g id="edge2" class="edge"><title>Node1&#45;&gt;Node3</title>
<path fill="none" stroke="midnightblue" d="M1342.82,-337.833C1214.79,-323.375 967.142,-295.408 836.487,-280.654"/>
<polygon fill="midnightblue" stroke="midnightblue" points="836.847,-277.172 826.518,-279.528 836.062,-284.128 836.847,-277.172"/>
</g>
<!-- Node4 -->
<g id="node4" class="node"><title>Node4</title>
<polygon fill="none" stroke="#bfbfbf" points="233,-198.5 233,-217.5 319,-217.5 319,-198.5 233,-198.5"/>
<text text-anchor="middle" x="276" y="-205.5" font-family="Helvetica,sans-Serif" font-size="10.00">TGeoManager.h</text>
</g>
<!-- Node1&#45;&gt;Node4 -->
<g id="edge64" class="edge"><title>Node1&#45;&gt;Node4</title>
<path fill="none" stroke="midnightblue" d="M1342.94,-342.151C1202.47,-333.253 904.874,-312.225 655,-280 508.762,-261.14 471.725,-256.929 328,-224 323.215,-222.904 318.216,-221.63 313.292,-220.297"/>
<polygon fill="midnightblue" stroke="midnightblue" points="313.952,-216.847 303.378,-217.515 312.061,-223.587 313.952,-216.847"/>
</g>
<!-- Node11 -->
<g id="node11" class="node"><title>Node11</title>
<g id="a_node11"><a xlink:href="../../d6/d31/DetID_8h.html" target="_top" xlink:title="DetectorsCommonDataFormats\l/DetID.h">
<polygon fill="none" stroke="black" points="1108,-193 1108,-223 1264,-223 1264,-193 1108,-193"/>
<text text-anchor="start" x="1116" y="-211" font-family="Helvetica,sans-Serif" font-size="10.00">DetectorsCommonDataFormats</text>
<text text-anchor="middle" x="1186" y="-200" font-family="Helvetica,sans-Serif" font-size="10.00">/DetID.h</text>
</a>
</g>
</g>
<!-- Node1&#45;&gt;Node11 -->
<g id="edge55" class="edge"><title>Node1&#45;&gt;Node11</title>
<path fill="none" stroke="midnightblue" d="M1342.99,-335.092C1302.86,-325.736 1255.88,-309.172 1222,-280 1207.7,-267.69 1198.42,-248.322 1192.86,-232.922"/>
<polygon fill="midnightblue" stroke="midnightblue" points="1196.06,-231.43 1189.6,-223.03 1189.41,-233.624 1196.06,-231.43"/>
</g>
<!-- Node12 -->
<g id="node12" class="node"><title>Node12</title>
<polygon fill="none" stroke="#bfbfbf" points="1814,-74.5 1814,-93.5 1870,-93.5 1870,-74.5 1814,-74.5"/>
<text text-anchor="middle" x="1842" y="-81.5" font-family="Helvetica,sans-Serif" font-size="10.00">Rtypes.h</text>
</g>
<!-- Node1&#45;&gt;Node12 -->
<g id="edge62" class="edge"><title>Node1&#45;&gt;Node12</title>
<path fill="none" stroke="midnightblue" d="M1505.14,-344.519C1766.65,-335.768 2575.3,-302.534 2660,-224 2688.94,-197.161 2699.04,-164.755 2672,-136 2644.57,-106.829 2041.07,-89.9103 1880.79,-85.9208"/>
<polygon fill="midnightblue" stroke="midnightblue" points="1880.54,-82.4137 1870.46,-85.6663 1880.37,-89.4115 1880.54,-82.4137"/>
</g>
<!-- Node33 -->
<g id="node33" class="node"><title>Node33</title>
<g id="a_node33"><a xlink:href="../../d1/d3a/Base_2include_2DetectorsBase_2Detector_8h.html" target="_top" xlink:title="DetectorsBase/Detector.h">
<polygon fill="none" stroke="black" points="1848.5,-260.5 1848.5,-279.5 1979.5,-279.5 1979.5,-260.5 1848.5,-260.5"/>
<text text-anchor="middle" x="1914" y="-267.5" font-family="Helvetica,sans-Serif" font-size="10.00">DetectorsBase/Detector.h</text>
</a>
</g>
</g>
<!-- Node1&#45;&gt;Node33 -->
<g id="edge34" class="edge"><title>Node1&#45;&gt;Node33</title>
<path fill="none" stroke="midnightblue" d="M1505.19,-334.408C1601.56,-319.46 1760.35,-294.832 1849,-281.082"/>
<polygon fill="midnightblue" stroke="midnightblue" points="1849.58,-284.533 1858.93,-279.542 1848.51,-277.616 1849.58,-284.533"/>
</g>
<!-- Node47 -->
<g id="node47" class="node"><title>Node47</title>
<g id="a_node47"><a xlink:href="../../d0/dae/ITSMFT_2common_2simulation_2include_2ITSMFTSimulation_2Hit_8h.html" target="_top" xlink:title="ITSMFTSimulation/Hit.h">
<polygon fill="none" stroke="black" points="1231,-260.5 1231,-279.5 1353,-279.5 1353,-260.5 1231,-260.5"/>
<text text-anchor="middle" x="1292" y="-267.5" font-family="Helvetica,sans-Serif" font-size="10.00">ITSMFTSimulation/Hit.h</text>
</a>
</g>
</g>
<!-- Node1&#45;&gt;Node47 -->
<g id="edge56" class="edge"><title>Node1&#45;&gt;Node47</title>
<path fill="none" stroke="midnightblue" d="M1370.69,-316.307C1351.61,-305.322 1331.06,-293.489 1315.75,-284.672"/>
<polygon fill="midnightblue" stroke="midnightblue" points="1317.36,-281.563 1306.95,-279.607 1313.87,-287.63 1317.36,-281.563"/>
</g>
<!-- Node49 -->
<g id="node49" class="node"><title>Node49</title>
<polygon fill="none" stroke="#bfbfbf" points="1320.5,-198.5 1320.5,-217.5 1385.5,-217.5 1385.5,-198.5 1320.5,-198.5"/>
<text text-anchor="middle" x="1353" y="-205.5" font-family="Helvetica,sans-Serif" font-size="10.00">TVector3.h</text>
</g>
<!-- Node1&#45;&gt;Node49 -->
<g id="edge66" class="edge"><title>Node1&#45;&gt;Node49</title>
<path fill="none" stroke="midnightblue" d="M1408.24,-316.373C1394.07,-288.829 1373.75,-249.323 1362.11,-226.706"/>
<polygon fill="midnightblue" stroke="midnightblue" points="1365.12,-224.897 1357.43,-217.606 1358.89,-228.1 1365.12,-224.897"/>
</g>
<!-- Node50 -->
<g id="node50" class="node"><title>Node50</title>
<polygon fill="none" stroke="#bfbfbf" points="2739,-260.5 2739,-279.5 2801,-279.5 2801,-260.5 2739,-260.5"/>
<text text-anchor="middle" x="2770" y="-267.5" font-family="Helvetica,sans-Serif" font-size="10.00">TArrayD.h</text>
</g>
<!-- Node1&#45;&gt;Node50 -->
<g id="edge63" class="edge"><title>Node1&#45;&gt;Node50</title>
<path fill="none" stroke="midnightblue" d="M1505.05,-346.925C1710.15,-345.849 2266.06,-337.399 2725,-280 2726.11,-279.862 2727.23,-279.711 2728.36,-279.551"/>
<polygon fill="midnightblue" stroke="midnightblue" points="2729.32,-282.941 2738.62,-277.883 2728.19,-276.032 2729.32,-282.941"/>
</g>
<!-- Node51 -->
<g id="node51" class="node"><title>Node51</title>
<polygon fill="none" stroke="#bfbfbf" points="2819,-260.5 2819,-279.5 2911,-279.5 2911,-260.5 2819,-260.5"/>
<text text-anchor="middle" x="2865" y="-267.5" font-family="Helvetica,sans-Serif" font-size="10.00">TLorentzVector.h</text>
</g>
<!-- Node1&#45;&gt;Node51 -->
<g id="edge65" class="edge"><title>Node1&#45;&gt;Node51</title>
<path fill="none" stroke="midnightblue" d="M1505.03,-346.219C1717.38,-343.497 2307.61,-331.595 2808.94,-279.858"/>
<polygon fill="midnightblue" stroke="midnightblue" points="2809.32,-283.337 2818.91,-278.823 2808.6,-276.375 2809.32,-283.337"/>
</g>
<!-- Node3&#45;&gt;Node4 -->
<g id="edge3" class="edge"><title>Node3&#45;&gt;Node4</title>
<path fill="none" stroke="midnightblue" d="M664.465,-264.235C578.502,-258.463 443.235,-246.57 328,-224 322.831,-222.988 317.432,-221.699 312.151,-220.304"/>
<polygon fill="midnightblue" stroke="midnightblue" points="312.808,-216.854 302.235,-217.535 310.925,-223.596 312.808,-216.854"/>
</g>
<!-- Node5 -->
<g id="node5" class="node"><title>Node5</title>
<polygon fill="none" stroke="#bfbfbf" points="485.5,-198.5 485.5,-217.5 568.5,-217.5 568.5,-198.5 485.5,-198.5"/>
<text text-anchor="middle" x="527" y="-205.5" font-family="Helvetica,sans-Serif" font-size="10.00">TGeoMaterial.h</text>
</g>
<!-- Node3&#45;&gt;Node5 -->
<g id="edge4" class="edge"><title>Node3&#45;&gt;Node5</title>
<path fill="none" stroke="midnightblue" d="M716.777,-260.437C681.815,-251.61 626.002,-237.299 578,-224 573.898,-222.863 569.618,-221.65 565.358,-220.423"/>
<polygon fill="midnightblue" stroke="midnightblue" points="566.126,-217.001 555.546,-217.569 564.171,-223.723 566.126,-217.001"/>
</g>
<!-- Node6 -->
<g id="node6" class="node"><title>Node6</title>
<polygon fill="none" stroke="#bfbfbf" points="587,-198.5 587,-217.5 697,-217.5 697,-198.5 587,-198.5"/>
<text text-anchor="middle" x="642" y="-205.5" font-family="Helvetica,sans-Serif" font-size="10.00">TGeoPhysicalNode.h</text>
</g>
<!-- Node3&#45;&gt;Node6 -->
<g id="edge5" class="edge"><title>Node3&#45;&gt;Node6</title>
<path fill="none" stroke="midnightblue" d="M735.383,-260.403C717.414,-250.512 687.679,-234.144 666.594,-222.538"/>
<polygon fill="midnightblue" stroke="midnightblue" points="668.036,-219.337 657.588,-217.581 664.661,-225.469 668.036,-219.337"/>
</g>
<!-- Node7 -->
<g id="node7" class="node"><title>Node7</title>
<polygon fill="none" stroke="#bfbfbf" points="804.5,-198.5 804.5,-217.5 881.5,-217.5 881.5,-198.5 804.5,-198.5"/>
<text text-anchor="middle" x="843" y="-205.5" font-family="Helvetica,sans-Serif" font-size="10.00">TGeoShape.h</text>
</g>
<!-- Node3&#45;&gt;Node7 -->
<g id="edge6" class="edge"><title>Node3&#45;&gt;Node7</title>
<path fill="none" stroke="midnightblue" d="M764.181,-260.403C779.074,-250.691 803.544,-234.732 821.273,-223.17"/>
<polygon fill="midnightblue" stroke="midnightblue" points="823.379,-225.975 829.843,-217.581 819.555,-220.112 823.379,-225.975"/>
</g>
<!-- Node8 -->
<g id="node8" class="node"><title>Node8</title>
<polygon fill="none" stroke="#bfbfbf" points="337.5,-198.5 337.5,-217.5 390.5,-217.5 390.5,-198.5 337.5,-198.5"/>
<text text-anchor="middle" x="364" y="-205.5" font-family="Helvetica,sans-Serif" font-size="10.00">TMath.h</text>
</g>
<!-- Node3&#45;&gt;Node8 -->
<g id="edge7" class="edge"><title>Node3&#45;&gt;Node8</title>
<path fill="none" stroke="midnightblue" d="M664.342,-264.635C592.281,-259.418 487.568,-248.133 399,-224 396.341,-223.275 393.62,-222.389 390.927,-221.413"/>
<polygon fill="midnightblue" stroke="midnightblue" points="392.047,-218.091 381.463,-217.612 389.439,-224.587 392.047,-218.091"/>
</g>
<!-- Node9 -->
<g id="node9" class="node"><title>Node9</title>
<polygon fill="none" stroke="#bfbfbf" points="408.5,-198.5 408.5,-217.5 467.5,-217.5 467.5,-198.5 408.5,-198.5"/>
<text text-anchor="middle" x="438" y="-205.5" font-family="Helvetica,sans-Serif" font-size="10.00">TObject.h</text>
</g>
<!-- Node3&#45;&gt;Node9 -->
<g id="edge8" class="edge"><title>Node3&#45;&gt;Node9</title>
<path fill="none" stroke="midnightblue" d="M670.903,-260.482C615.514,-253.48 540.476,-241.78 476,-224 473.019,-223.178 469.952,-222.201 466.914,-221.146"/>
<polygon fill="midnightblue" stroke="midnightblue" points="468.042,-217.831 457.45,-217.601 465.587,-224.386 468.042,-217.831"/>
</g>
<!-- Node10 -->
<g id="node10" class="node"><title>Node10</title>
<polygon fill="none" stroke="#bfbfbf" points="1403.5,-198.5 1403.5,-217.5 1444.5,-217.5 1444.5,-198.5 1403.5,-198.5"/>
<text text-anchor="middle" x="1424" y="-205.5" font-family="Helvetica,sans-Serif" font-size="10.00">string</text>
</g>
<!-- Node3&#45;&gt;Node10 -->
<g id="edge9" class="edge"><title>Node3&#45;&gt;Node10</title>
<path fill="none" stroke="midnightblue" d="M837.621,-267.134C988.133,-263.193 1291.65,-251.969 1394,-224 1396.19,-223.401 1398.41,-222.637 1400.6,-221.771"/>
<polygon fill="midnightblue" stroke="midnightblue" points="1402.19,-224.89 1409.81,-217.527 1399.26,-218.532 1402.19,-224.89"/>
</g>
<!-- Node3&#45;&gt;Node11 -->
<g id="edge10" class="edge"><title>Node3&#45;&gt;Node11</title>
<path fill="none" stroke="midnightblue" d="M812.863,-260.467C887.357,-250.192 1013,-232.861 1097.68,-221.182"/>
<polygon fill="midnightblue" stroke="midnightblue" points="1098.37,-224.62 1107.8,-219.786 1097.42,-217.686 1098.37,-224.62"/>
</g>
<!-- Node21 -->
<g id="node21" class="node"><title>Node21</title>
<polygon fill="none" stroke="#bfbfbf" points="715.5,-198.5 715.5,-217.5 786.5,-217.5 786.5,-198.5 715.5,-198.5"/>
<text text-anchor="middle" x="751" y="-205.5" font-family="Helvetica,sans-Serif" font-size="10.00">FairLogger.h</text>
</g>
<!-- Node3&#45;&gt;Node21 -->
<g id="edge21" class="edge"><title>Node3&#45;&gt;Node21</title>
<path fill="none" stroke="midnightblue" d="M751,-260.403C751,-251.938 751,-238.728 751,-227.82"/>
<polygon fill="midnightblue" stroke="midnightblue" points="754.5,-227.581 751,-217.581 747.5,-227.581 754.5,-227.581"/>
</g>
<!-- Node22 -->
<g id="node22" class="node"><title>Node22</title>
<g id="a_node22"><a xlink:href="../../dd/d76/Cartesian3D_8h.html" target="_top" xlink:title="MathUtils/Cartesian3D.h">
<polygon fill="none" stroke="black" points="847.5,-136.5 847.5,-155.5 972.5,-155.5 972.5,-136.5 847.5,-136.5"/>
<text text-anchor="middle" x="910" y="-143.5" font-family="Helvetica,sans-Serif" font-size="10.00">MathUtils/Cartesian3D.h</text>
</a>
</g>
</g>
<!-- Node3&#45;&gt;Node22 -->
<g id="edge22" class="edge"><title>Node3&#45;&gt;Node22</title>
<path fill="none" stroke="midnightblue" d="M821.039,-260.455C845.824,-254.115 871.992,-243.103 890,-224 904.844,-208.254 909.01,-182.939 910.008,-165.667"/>
<polygon fill="midnightblue" stroke="midnightblue" points="913.507,-165.752 910.286,-155.659 906.509,-165.558 913.507,-165.752"/>
</g>
<!-- Node11&#45;&gt;Node12 -->
<g id="edge11" class="edge"><title>Node11&#45;&gt;Node12</title>
<path fill="none" stroke="midnightblue" d="M1264.2,-193.319C1324.45,-182.319 1402.45,-166.948 1433,-156 1450.97,-149.563 1452.83,-141.832 1471,-136 1588.23,-98.3776 1735.03,-88.5088 1803.51,-85.9203"/>
<polygon fill="midnightblue" stroke="midnightblue" points="1803.94,-89.4077 1813.81,-85.5642 1803.7,-82.4119 1803.94,-89.4077"/>
</g>
<!-- Node13 -->
<g id="node13" class="node"><title>Node13</title>
<polygon fill="none" stroke="#bfbfbf" points="1287,-74.5 1287,-93.5 1325,-93.5 1325,-74.5 1287,-74.5"/>
<text text-anchor="middle" x="1306" y="-81.5" font-family="Helvetica,sans-Serif" font-size="10.00">array</text>
</g>
<!-- Node11&#45;&gt;Node13 -->
<g id="edge12" class="edge"><title>Node11&#45;&gt;Node13</title>
<path fill="none" stroke="midnightblue" d="M1232.75,-192.951C1252.06,-184.971 1273.13,-173.075 1287,-156 1299.04,-141.178 1303.5,-119.418 1305.12,-103.899"/>
<polygon fill="midnightblue" stroke="midnightblue" points="1308.62,-104.124 1305.87,-93.8908 1301.63,-103.601 1308.62,-104.124"/>
</g>
<!-- Node14 -->
<g id="node14" class="node"><title>Node14</title>
<polygon fill="none" stroke="#bfbfbf" points="1105.5,-136.5 1105.5,-155.5 1146.5,-155.5 1146.5,-136.5 1105.5,-136.5"/>
<text text-anchor="middle" x="1126" y="-143.5" font-family="Helvetica,sans-Serif" font-size="10.00">bitset</text>
</g>
<!-- Node11&#45;&gt;Node14 -->
<g id="edge13" class="edge"><title>Node11&#45;&gt;Node14</title>
<path fill="none" stroke="midnightblue" d="M1171.78,-192.781C1162.79,-183.792 1151.16,-172.162 1141.87,-162.873"/>
<polygon fill="midnightblue" stroke="midnightblue" points="1144.28,-160.327 1134.73,-155.731 1139.33,-165.277 1144.28,-160.327"/>
</g>
<!-- Node15 -->
<g id="node15" class="node"><title>Node15</title>
<polygon fill="none" stroke="#bfbfbf" points="1164.5,-136.5 1164.5,-155.5 1213.5,-155.5 1213.5,-136.5 1164.5,-136.5"/>
<text text-anchor="middle" x="1189" y="-143.5" font-family="Helvetica,sans-Serif" font-size="10.00">cassert</text>
</g>
<!-- Node11&#45;&gt;Node15 -->
<g id="edge14" class="edge"><title>Node11&#45;&gt;Node15</title>
<path fill="none" stroke="midnightblue" d="M1186.71,-192.781C1187.12,-184.691 1187.63,-174.462 1188.06,-165.725"/>
<polygon fill="midnightblue" stroke="midnightblue" points="1191.56,-165.893 1188.56,-155.731 1184.57,-165.543 1191.56,-165.893"/>
</g>
<!-- Node16 -->
<g id="node16" class="node"><title>Node16</title>
<polygon fill="none" stroke="#bfbfbf" points="1232,-136.5 1232,-155.5 1278,-155.5 1278,-136.5 1232,-136.5"/>
<text text-anchor="middle" x="1255" y="-143.5" font-family="Helvetica,sans-Serif" font-size="10.00">cstdint</text>
</g>
<!-- Node11&#45;&gt;Node16 -->
<g id="edge15" class="edge"><title>Node11&#45;&gt;Node16</title>
<path fill="none" stroke="midnightblue" d="M1202.35,-192.781C1212.9,-183.613 1226.6,-171.696 1237.38,-162.319"/>
<polygon fill="midnightblue" stroke="midnightblue" points="1239.71,-164.933 1244.96,-155.731 1235.12,-159.651 1239.71,-164.933"/>
</g>
<!-- Node17 -->
<g id="node17" class="node"><title>Node17</title>
<polygon fill="none" stroke="#bfbfbf" points="1480,-136.5 1480,-155.5 1542,-155.5 1542,-136.5 1480,-136.5"/>
<text text-anchor="middle" x="1511" y="-143.5" font-family="Helvetica,sans-Serif" font-size="10.00">type_traits</text>
</g>
<!-- Node11&#45;&gt;Node17 -->
<g id="edge16" class="edge"><title>Node11&#45;&gt;Node17</title>
<path fill="none" stroke="midnightblue" d="M1264.22,-193.125C1320.41,-183.067 1397.93,-169.005 1466,-156 1467.1,-155.791 1468.21,-155.577 1469.33,-155.361"/>
<polygon fill="midnightblue" stroke="midnightblue" points="1470.4,-158.717 1479.54,-153.363 1469.06,-151.848 1470.4,-158.717"/>
</g>
<!-- Node18 -->
<g id="node18" class="node"><title>Node18</title>
<g id="a_node18"><a xlink:href="../../d9/d52/Common_2MathUtils_2include_2MathUtils_2Utils_8h.html" target="_top" xlink:title="MathUtils/Utils.h">
<polygon fill="none" stroke="black" points="1334,-136.5 1334,-155.5 1424,-155.5 1424,-136.5 1334,-136.5"/>
<text text-anchor="middle" x="1379" y="-143.5" font-family="Helvetica,sans-Serif" font-size="10.00">MathUtils/Utils.h</text>
</a>
</g>
</g>
<!-- Node11&#45;&gt;Node18 -->
<g id="edge17" class="edge"><title>Node11&#45;&gt;Node18</title>
<path fill="none" stroke="midnightblue" d="M1231.25,-192.933C1264.93,-182.462 1310.34,-168.345 1341.89,-158.536"/>
<polygon fill="midnightblue" stroke="midnightblue" points="1343.11,-161.824 1351.62,-155.513 1341.03,-155.139 1343.11,-161.824"/>
</g>
<!-- Node18&#45;&gt;Node13 -->
<g id="edge18" class="edge"><title>Node18&#45;&gt;Node13</title>
<path fill="none" stroke="midnightblue" d="M1368.54,-136.403C1357.05,-126.958 1338.37,-111.606 1324.41,-100.134"/>
<polygon fill="midnightblue" stroke="midnightblue" points="1326.39,-97.2264 1316.44,-93.5806 1321.94,-102.634 1326.39,-97.2264"/>
</g>
<!-- Node19 -->
<g id="node19" class="node"><title>Node19</title>
<polygon fill="none" stroke="#bfbfbf" points="1541,-74.5 1541,-93.5 1585,-93.5 1585,-74.5 1541,-74.5"/>
<text text-anchor="middle" x="1563" y="-81.5" font-family="Helvetica,sans-Serif" font-size="10.00">cmath</text>
</g>
<!-- Node18&#45;&gt;Node19 -->
<g id="edge19" class="edge"><title>Node18&#45;&gt;Node19</title>
<path fill="none" stroke="midnightblue" d="M1413.29,-136.43C1444.42,-128.279 1491.38,-115.052 1531,-100 1532.85,-99.2972 1534.74,-98.5335 1536.63,-97.7353"/>
<polygon fill="midnightblue" stroke="midnightblue" points="1538.23,-100.855 1545.93,-93.5797 1535.38,-94.4645 1538.23,-100.855"/>
</g>
<!-- Node20 -->
<g id="node20" class="node"><title>Node20</title>
<g id="a_node20"><a xlink:href="../../d6/d84/MathConstants_8h.html" target="_top" xlink:title="useful math constants ">
<polygon fill="none" stroke="black" points="1343.5,-74.5 1343.5,-93.5 1522.5,-93.5 1522.5,-74.5 1343.5,-74.5"/>
<text text-anchor="middle" x="1433" y="-81.5" font-family="Helvetica,sans-Serif" font-size="10.00">CommonConstants/MathConstants.h</text>
</a>
</g>
</g>
<!-- Node18&#45;&gt;Node20 -->
<g id="edge20" class="edge"><title>Node18&#45;&gt;Node20</title>
<path fill="none" stroke="midnightblue" d="M1386.74,-136.403C1395,-127.225 1408.28,-112.47 1418.49,-101.117"/>
<polygon fill="midnightblue" stroke="midnightblue" points="1421.19,-103.355 1425.28,-93.5806 1415.99,-98.6722 1421.19,-103.355"/>
</g>
<!-- Node22&#45;&gt;Node12 -->
<g id="edge28" class="edge"><title>Node22&#45;&gt;Node12</title>
<path fill="none" stroke="midnightblue" d="M972.598,-140.97C1151.18,-129.473 1659.48,-96.7503 1803.53,-87.4769"/>
<polygon fill="midnightblue" stroke="midnightblue" points="1803.89,-90.9607 1813.65,-86.8254 1803.44,-83.9752 1803.89,-90.9607"/>
</g>
<!-- Node23 -->
<g id="node23" class="node"><title>Node23</title>
<polygon fill="none" stroke="#bfbfbf" points="246.5,-69 246.5,-99 397.5,-99 397.5,-69 246.5,-69"/>
<text text-anchor="start" x="254.5" y="-87" font-family="Helvetica,sans-Serif" font-size="10.00">Math/GenVector/Displacement</text>
<text text-anchor="middle" x="322" y="-76" font-family="Helvetica,sans-Serif" font-size="10.00">Vector3D.h</text>
</g>
<!-- Node22&#45;&gt;Node23 -->
<g id="edge23" class="edge"><title>Node22&#45;&gt;Node23</title>
<path fill="none" stroke="midnightblue" d="M847.469,-141.13C754.121,-134.972 572.604,-121.531 408.25,-100.092"/>
<polygon fill="midnightblue" stroke="midnightblue" points="408.322,-96.5708 397.95,-98.7343 407.407,-103.511 408.322,-96.5708"/>
</g>
<!-- Node24 -->
<g id="node24" class="node"><title>Node24</title>
<polygon fill="none" stroke="#bfbfbf" points="416,-74.5 416,-93.5 592,-93.5 592,-74.5 416,-74.5"/>
<text text-anchor="middle" x="504" y="-81.5" font-family="Helvetica,sans-Serif" font-size="10.00">Math/GenVector/PositionVector3D.h</text>
</g>
<!-- Node22&#45;&gt;Node24 -->
<g id="edge24" class="edge"><title>Node22&#45;&gt;Node24</title>
<path fill="none" stroke="midnightblue" d="M849.964,-136.482C787.494,-127.572 686.849,-113.088 600,-100 589.635,-98.4379 578.645,-96.7504 567.945,-95.0903"/>
<polygon fill="midnightblue" stroke="midnightblue" points="568.224,-91.5917 557.804,-93.5121 567.147,-98.5084 568.224,-91.5917"/>
</g>
<!-- Node25 -->
<g id="node25" class="node"><title>Node25</title>
<polygon fill="none" stroke="#bfbfbf" points="609.5,-74.5 609.5,-93.5 758.5,-93.5 758.5,-74.5 609.5,-74.5"/>
<text text-anchor="middle" x="684" y="-81.5" font-family="Helvetica,sans-Serif" font-size="10.00">Math/GenVector/Rotation3D.h</text>
</g>
<!-- Node22&#45;&gt;Node25 -->
<g id="edge25" class="edge"><title>Node22&#45;&gt;Node25</title>
<path fill="none" stroke="midnightblue" d="M877.62,-136.403C837.762,-125.822 769.981,-107.827 726.112,-96.1802"/>
<polygon fill="midnightblue" stroke="midnightblue" points="726.884,-92.7638 716.32,-93.5806 725.087,-99.5295 726.884,-92.7638"/>
</g>
<!-- Node26 -->
<g id="node26" class="node"><title>Node26</title>
<polygon fill="none" stroke="#bfbfbf" points="777,-74.5 777,-93.5 933,-93.5 933,-74.5 777,-74.5"/>
<text text-anchor="middle" x="855" y="-81.5" font-family="Helvetica,sans-Serif" font-size="10.00">Math/GenVector/Transform3D.h</text>
</g>
<!-- Node22&#45;&gt;Node26 -->
<g id="edge26" class="edge"><title>Node22&#45;&gt;Node26</title>
<path fill="none" stroke="midnightblue" d="M902.12,-136.403C893.706,-127.225 880.181,-112.47 869.774,-101.117"/>
<polygon fill="midnightblue" stroke="midnightblue" points="872.203,-98.5871 862.866,-93.5806 867.043,-103.317 872.203,-98.5871"/>
</g>
<!-- Node27 -->
<g id="node27" class="node"><title>Node27</title>
<polygon fill="none" stroke="#bfbfbf" points="951,-74.5 951,-93.5 1111,-93.5 1111,-74.5 951,-74.5"/>
<text text-anchor="middle" x="1031" y="-81.5" font-family="Helvetica,sans-Serif" font-size="10.00">Math/GenVector/Translation3D.h</text>
</g>
<!-- Node22&#45;&gt;Node27 -->
<g id="edge27" class="edge"><title>Node22&#45;&gt;Node27</title>
<path fill="none" stroke="midnightblue" d="M927.336,-136.403C947.553,-126.379 981.187,-109.701 1004.64,-98.0699"/>
<polygon fill="midnightblue" stroke="midnightblue" points="1006.29,-101.159 1013.7,-93.5806 1003.18,-94.8875 1006.29,-101.159"/>
</g>
<!-- Node28 -->
<g id="node28" class="node"><title>Node28</title>
<polygon fill="none" stroke="#bfbfbf" points="1129,-74.5 1129,-93.5 1205,-93.5 1205,-74.5 1129,-74.5"/>
<text text-anchor="middle" x="1167" y="-81.5" font-family="Helvetica,sans-Serif" font-size="10.00">TGeoMatrix.h</text>
</g>
<!-- Node22&#45;&gt;Node28 -->
<g id="edge29" class="edge"><title>Node22&#45;&gt;Node28</title>
<path fill="none" stroke="midnightblue" d="M956.19,-136.452C998.946,-128.221 1064.15,-114.858 1120,-100 1123.89,-98.9643 1127.94,-97.803 1131.96,-96.597"/>
<polygon fill="midnightblue" stroke="midnightblue" points="1133.25,-99.86 1141.77,-93.5536 1131.18,-93.1744 1133.25,-99.86"/>
</g>
<!-- Node29 -->
<g id="node29" class="node"><title>Node29</title>
<polygon fill="none" stroke="#bfbfbf" points="1223.5,-74.5 1223.5,-93.5 1268.5,-93.5 1268.5,-74.5 1223.5,-74.5"/>
<text text-anchor="middle" x="1246" y="-81.5" font-family="Helvetica,sans-Serif" font-size="10.00">iosfwd</text>
</g>
<!-- Node22&#45;&gt;Node29 -->
<g id="edge30" class="edge"><title>Node22&#45;&gt;Node29</title>
<path fill="none" stroke="midnightblue" d="M972.583,-141.079C1034.87,-135.941 1132.65,-124.511 1214,-100 1216.28,-99.313 1218.6,-98.4895 1220.91,-97.5867"/>
<polygon fill="midnightblue" stroke="midnightblue" points="1222.32,-100.788 1230.08,-93.5757 1219.52,-94.3744 1222.32,-100.788"/>
</g>
<!-- Node30 -->
<g id="node30" class="node"><title>Node30</title>
<g id="a_node30"><a xlink:href="../../d2/dd0/Cartesian2D_8h.html" target="_top" xlink:title="MathUtils/Cartesian2D.h">
<polygon fill="none" stroke="black" points="103.5,-74.5 103.5,-93.5 228.5,-93.5 228.5,-74.5 103.5,-74.5"/>
<text text-anchor="middle" x="166" y="-81.5" font-family="Helvetica,sans-Serif" font-size="10.00">MathUtils/Cartesian2D.h</text>
</a>
</g>
</g>
<!-- Node22&#45;&gt;Node30 -->
<g id="edge31" class="edge"><title>Node22&#45;&gt;Node30</title>
<path fill="none" stroke="midnightblue" d="M847.069,-143.758C727.615,-140.745 460.003,-130.854 237,-100 228.749,-98.8584 220.024,-97.3059 211.62,-95.6309"/>
<polygon fill="midnightblue" stroke="midnightblue" points="212.085,-92.1529 201.582,-93.5465 210.662,-99.0067 212.085,-92.1529"/>
</g>
<!-- Node31 -->
<g id="node31" class="node"><title>Node31</title>
<polygon fill="none" stroke="#bfbfbf" points="-0.5,-1 -0.5,-31 150.5,-31 150.5,-1 -0.5,-1"/>
<text text-anchor="start" x="7.5" y="-19" font-family="Helvetica,sans-Serif" font-size="10.00">Math/GenVector/Displacement</text>
<text text-anchor="middle" x="75" y="-8" font-family="Helvetica,sans-Serif" font-size="10.00">Vector2D.h</text>
</g>
<!-- Node30&#45;&gt;Node31 -->
<g id="edge32" class="edge"><title>Node30&#45;&gt;Node31</title>
<path fill="none" stroke="midnightblue" d="M154.103,-74.3717C141.221,-65.0286 120.22,-49.7966 103.093,-37.375"/>
<polygon fill="midnightblue" stroke="midnightblue" points="104.703,-34.2194 94.5532,-31.1815 100.593,-39.8859 104.703,-34.2194"/>
</g>
<!-- Node32 -->
<g id="node32" class="node"><title>Node32</title>
<polygon fill="none" stroke="#bfbfbf" points="169,-6.5 169,-25.5 345,-25.5 345,-6.5 169,-6.5"/>
<text text-anchor="middle" x="257" y="-13.5" font-family="Helvetica,sans-Serif" font-size="10.00">Math/GenVector/PositionVector2D.h</text>
</g>
<!-- Node30&#45;&gt;Node32 -->
<g id="edge33" class="edge"><title>Node30&#45;&gt;Node32</title>
<path fill="none" stroke="midnightblue" d="M177.897,-74.3717C192.884,-63.5015 218.862,-44.6602 236.942,-31.5474"/>
<polygon fill="midnightblue" stroke="midnightblue" points="239.06,-34.3349 245.1,-25.6305 234.95,-28.6684 239.06,-34.3349"/>
</g>
<!-- Node33&#45;&gt;Node2 -->
<g id="edge36" class="edge"><title>Node33&#45;&gt;Node2</title>
<path fill="none" stroke="midnightblue" d="M1848.3,-267.093C1769.42,-263.524 1633.66,-253.295 1521,-224 1518.17,-223.265 1515.28,-222.352 1512.42,-221.342"/>
<polygon fill="midnightblue" stroke="midnightblue" points="1513.56,-218.031 1502.97,-217.651 1511.01,-224.55 1513.56,-218.031"/>
</g>
<!-- Node33&#45;&gt;Node10 -->
<g id="edge50" class="edge"><title>Node33&#45;&gt;Node10</title>
<path fill="none" stroke="midnightblue" d="M1848.35,-265.533C1739.45,-259.288 1526.29,-244.832 1454,-224 1452.03,-223.432 1450.03,-222.735 1448.05,-221.957"/>
<polygon fill="midnightblue" stroke="midnightblue" points="1449.07,-218.573 1438.52,-217.597 1446.16,-224.939 1449.07,-218.573"/>
</g>
<!-- Node33&#45;&gt;Node12 -->
<g id="edge46" class="edge"><title>Node33&#45;&gt;Node12</title>
<path fill="none" stroke="midnightblue" d="M1979.5,-269.12C2147.24,-268.84 2582.63,-264.206 2633,-224 2664.35,-198.979 2680.46,-165.237 2653,-136 2626.24,-107.506 2037.82,-90.1207 1880.43,-85.9689"/>
<polygon fill="midnightblue" stroke="midnightblue" points="1880.36,-82.466 1870.27,-85.7037 1880.18,-89.4636 1880.36,-82.466"/>
</g>
<!-- Node33&#45;&gt;Node17 -->
<g id="edge49" class="edge"><title>Node33&#45;&gt;Node17</title>
<path fill="none" stroke="midnightblue" d="M1848.35,-265.69C1764.11,-260.513 1623.41,-248.449 1578,-224 1552.59,-210.319 1532.4,-182.887 1521.07,-164.733"/>
<polygon fill="midnightblue" stroke="midnightblue" points="1523.83,-162.543 1515.7,-155.749 1517.82,-166.13 1523.83,-162.543"/>
</g>
<!-- Node34 -->
<g id="node34" class="node"><title>Node34</title>
<polygon fill="none" stroke="#bfbfbf" points="1792.5,-136.5 1792.5,-155.5 1827.5,-155.5 1827.5,-136.5 1792.5,-136.5"/>
<text text-anchor="middle" x="1810" y="-143.5" font-family="Helvetica,sans-Serif" font-size="10.00">map</text>
</g>
<!-- Node33&#45;&gt;Node34 -->
<g id="edge35" class="edge"><title>Node33&#45;&gt;Node34</title>
<path fill="none" stroke="midnightblue" d="M1848.15,-269.535C1763.78,-268.651 1624.51,-261.369 1592,-224 1537.73,-161.623 1711.93,-149.775 1782.07,-147.526"/>
<polygon fill="midnightblue" stroke="midnightblue" points="1782.48,-151.016 1792.38,-147.241 1782.29,-144.019 1782.48,-151.016"/>
</g>
<!-- Node35 -->
<g id="node35" class="node"><title>Node35</title>
<polygon fill="none" stroke="#bfbfbf" points="2571.5,-136.5 2571.5,-155.5 2644.5,-155.5 2644.5,-136.5 2571.5,-136.5"/>
<text text-anchor="middle" x="2608" y="-143.5" font-family="Helvetica,sans-Serif" font-size="10.00">initializer_list</text>
</g>
<!-- Node33&#45;&gt;Node35 -->
<g id="edge37" class="edge"><title>Node33&#45;&gt;Node35</title>
<path fill="none" stroke="midnightblue" d="M1979.77,-267.188C2150.02,-262.178 2593.45,-246.975 2615,-224 2629.6,-208.432 2623.36,-182.499 2616.54,-165.082"/>
<polygon fill="midnightblue" stroke="midnightblue" points="2619.58,-163.295 2612.4,-155.507 2613.16,-166.074 2619.58,-163.295"/>
</g>
<!-- Node36 -->
<g id="node36" class="node"><title>Node36</title>
<polygon fill="none" stroke="#bfbfbf" points="1601,-198.5 1601,-217.5 1653,-217.5 1653,-198.5 1601,-198.5"/>
<text text-anchor="middle" x="1627" y="-205.5" font-family="Helvetica,sans-Serif" font-size="10.00">memory</text>
</g>
<!-- Node33&#45;&gt;Node36 -->
<g id="edge38" class="edge"><title>Node33&#45;&gt;Node36</title>
<path fill="none" stroke="midnightblue" d="M1848.35,-261.21C1797.18,-254.188 1724.69,-242.147 1663,-224 1660.35,-223.221 1657.63,-222.309 1654.93,-221.327"/>
<polygon fill="midnightblue" stroke="midnightblue" points="1655.99,-217.983 1645.41,-217.572 1653.43,-224.495 1655.99,-217.983"/>
</g>
<!-- Node37 -->
<g id="node37" class="node"><title>Node37</title>
<polygon fill="none" stroke="#bfbfbf" points="1671.5,-198.5 1671.5,-217.5 1750.5,-217.5 1750.5,-198.5 1671.5,-198.5"/>
<text text-anchor="middle" x="1711" y="-205.5" font-family="Helvetica,sans-Serif" font-size="10.00">FairDetector.h</text>
</g>
<!-- Node33&#45;&gt;Node37 -->
<g id="edge39" class="edge"><title>Node33&#45;&gt;Node37</title>
<path fill="none" stroke="midnightblue" d="M1884.44,-260.485C1853.42,-251.518 1803.23,-236.933 1760,-224 1756.22,-222.871 1752.29,-221.683 1748.36,-220.491"/>
<polygon fill="midnightblue" stroke="midnightblue" points="1749.3,-217.117 1738.71,-217.55 1747.25,-223.813 1749.3,-217.117"/>
</g>
<!-- Node38 -->
<g id="node38" class="node"><title>Node38</title>
<polygon fill="none" stroke="#bfbfbf" points="1769,-198.5 1769,-217.5 1869,-217.5 1869,-198.5 1769,-198.5"/>
<text text-anchor="middle" x="1819" y="-205.5" font-family="Helvetica,sans-Serif" font-size="10.00">FairRootManager.h</text>
</g>
<!-- Node33&#45;&gt;Node38 -->
<g id="edge40" class="edge"><title>Node33&#45;&gt;Node38</title>
<path fill="none" stroke="midnightblue" d="M1900.39,-260.403C1884.94,-250.646 1859.51,-234.585 1841.18,-223.011"/>
<polygon fill="midnightblue" stroke="midnightblue" points="1842.91,-219.961 1832.59,-217.581 1839.17,-225.88 1842.91,-219.961"/>
</g>
<!-- Node39 -->
<g id="node39" class="node"><title>Node39</title>
<g id="a_node39"><a xlink:href="../../d0/d9a/MaterialManager_8h.html" target="_top" xlink:title="DetectorsBase/MaterialManager.h">
<polygon fill="none" stroke="black" points="2441.5,-198.5 2441.5,-217.5 2606.5,-217.5 2606.5,-198.5 2441.5,-198.5"/>
<text text-anchor="middle" x="2524" y="-205.5" font-family="Helvetica,sans-Serif" font-size="10.00">DetectorsBase/MaterialManager.h</text>
</a>
</g>
</g>
<!-- Node33&#45;&gt;Node39 -->
<g id="edge41" class="edge"><title>Node33&#45;&gt;Node39</title>
<path fill="none" stroke="midnightblue" d="M1979.58,-264.885C2078.06,-258.349 2269.87,-244.231 2432,-224 2442.94,-222.635 2454.58,-220.933 2465.76,-219.172"/>
<polygon fill="midnightblue" stroke="midnightblue" points="2466.56,-222.589 2475.87,-217.545 2465.44,-215.678 2466.56,-222.589"/>
</g>
<!-- Node41 -->
<g id="node41" class="node"><title>Node41</title>
<polygon fill="none" stroke="#bfbfbf" points="1887.5,-198.5 1887.5,-217.5 1940.5,-217.5 1940.5,-198.5 1887.5,-198.5"/>
<text text-anchor="middle" x="1914" y="-205.5" font-family="Helvetica,sans-Serif" font-size="10.00">cxxabi.h</text>
</g>
<!-- Node33&#45;&gt;Node41 -->
<g id="edge47" class="edge"><title>Node33&#45;&gt;Node41</title>
<path fill="none" stroke="midnightblue" d="M1914,-260.403C1914,-251.938 1914,-238.728 1914,-227.82"/>
<polygon fill="midnightblue" stroke="midnightblue" points="1917.5,-227.581 1914,-217.581 1910.5,-227.581 1917.5,-227.581"/>
</g>
<!-- Node42 -->
<g id="node42" class="node"><title>Node42</title>
<polygon fill="none" stroke="#bfbfbf" points="1958.5,-198.5 1958.5,-217.5 2009.5,-217.5 2009.5,-198.5 1958.5,-198.5"/>
<text text-anchor="middle" x="1984" y="-205.5" font-family="Helvetica,sans-Serif" font-size="10.00">typeinfo</text>
</g>
<!-- Node33&#45;&gt;Node42 -->
<g id="edge48" class="edge"><title>Node33&#45;&gt;Node42</title>
<path fill="none" stroke="midnightblue" d="M1924.03,-260.403C1935.05,-250.958 1952.96,-235.606 1966.34,-224.134"/>
<polygon fill="midnightblue" stroke="midnightblue" points="1968.67,-226.746 1973.99,-217.581 1964.12,-221.431 1968.67,-226.746"/>
</g>
<!-- Node43 -->
<g id="node43" class="node"><title>Node43</title>
<polygon fill="none" stroke="#bfbfbf" points="2027.5,-198.5 2027.5,-217.5 2120.5,-217.5 2120.5,-198.5 2027.5,-198.5"/>
<text text-anchor="middle" x="2074" y="-205.5" font-family="Helvetica,sans-Serif" font-size="10.00">FairMQChannel.h</text>
</g>
<!-- Node33&#45;&gt;Node43 -->
<g id="edge51" class="edge"><title>Node33&#45;&gt;Node43</title>
<path fill="none" stroke="midnightblue" d="M1936.92,-260.403C1964.37,-250.111 2010.52,-232.806 2041.6,-221.15"/>
<polygon fill="midnightblue" stroke="midnightblue" points="2042.98,-224.369 2051.12,-217.581 2040.53,-217.815 2042.98,-224.369"/>
</g>
<!-- Node44 -->
<g id="node44" class="node"><title>Node44</title>
<polygon fill="none" stroke="#bfbfbf" points="2138.5,-198.5 2138.5,-217.5 2235.5,-217.5 2235.5,-198.5 2138.5,-198.5"/>
<text text-anchor="middle" x="2187" y="-205.5" font-family="Helvetica,sans-Serif" font-size="10.00">FairMQMessage.h</text>
</g>
<!-- Node33&#45;&gt;Node44 -->
<g id="edge52" class="edge"><title>Node33&#45;&gt;Node44</title>
<path fill="none" stroke="midnightblue" d="M1957.78,-260.46C2001.32,-251.821 2069.96,-237.806 2129,-224 2134.32,-222.757 2139.89,-221.393 2145.4,-220.009"/>
<polygon fill="midnightblue" stroke="midnightblue" points="2146.33,-223.383 2155.16,-217.521 2144.6,-216.6 2146.33,-223.383"/>
</g>
<!-- Node45 -->
<g id="node45" class="node"><title>Node45</title>
<polygon fill="none" stroke="#bfbfbf" points="2254,-198.5 2254,-217.5 2334,-217.5 2334,-198.5 2254,-198.5"/>
<text text-anchor="middle" x="2294" y="-205.5" font-family="Helvetica,sans-Serif" font-size="10.00">FairMQParts.h</text>
</g>
<!-- Node33&#45;&gt;Node45 -->
<g id="edge53" class="edge"><title>Node33&#45;&gt;Node45</title>
<path fill="none" stroke="midnightblue" d="M1979.64,-263.094C2046.62,-256.358 2153.3,-243.663 2244,-224 2248.73,-222.974 2253.67,-221.723 2258.52,-220.385"/>
<polygon fill="midnightblue" stroke="midnightblue" points="2259.62,-223.709 2268.25,-217.562 2257.67,-216.986 2259.62,-223.709"/>
</g>
<!-- Node46 -->
<g id="node46" class="node"><title>Node46</title>
<polygon fill="none" stroke="#bfbfbf" points="2352.5,-198.5 2352.5,-217.5 2423.5,-217.5 2423.5,-198.5 2352.5,-198.5"/>
<text text-anchor="middle" x="2388" y="-205.5" font-family="Helvetica,sans-Serif" font-size="10.00">TMessage.h</text>
</g>
<!-- Node33&#45;&gt;Node46 -->
<g id="edge54" class="edge"><title>Node33&#45;&gt;Node46</title>
<path fill="none" stroke="midnightblue" d="M1979.75,-266.536C2064.54,-262.352 2216.19,-251.443 2343,-224 2347.17,-223.099 2351.49,-221.949 2355.73,-220.687"/>
<polygon fill="midnightblue" stroke="midnightblue" points="2356.91,-223.983 2365.37,-217.608 2354.78,-217.315 2356.91,-223.983"/>
</g>
<!-- Node39&#45;&gt;Node12 -->
<g id="edge42" class="edge"><title>Node39&#45;&gt;Node12</title>
<path fill="none" stroke="midnightblue" d="M2476.31,-198.47C2347.94,-175.505 1996.87,-112.704 1880.24,-91.8404"/>
<polygon fill="midnightblue" stroke="midnightblue" points="1880.79,-88.3838 1870.33,-90.0681 1879.56,-95.2744 1880.79,-88.3838"/>
</g>
<!-- Node39&#45;&gt;Node34 -->
<g id="edge43" class="edge"><title>Node39&#45;&gt;Node34</title>
<path fill="none" stroke="midnightblue" d="M2476.84,-198.48C2462.48,-196.11 2446.63,-193.718 2432,-192 2203.33,-165.142 1925.36,-151.853 1837.79,-148.123"/>
<polygon fill="midnightblue" stroke="midnightblue" points="1837.76,-144.619 1827.62,-147.697 1837.46,-151.613 1837.76,-144.619"/>
</g>
<!-- Node39&#45;&gt;Node35 -->
<g id="edge45" class="edge"><title>Node39&#45;&gt;Node35</title>
<path fill="none" stroke="midnightblue" d="M2536.04,-198.403C2549.51,-188.78 2571.57,-173.024 2587.72,-161.489"/>
<polygon fill="midnightblue" stroke="midnightblue" points="2589.88,-164.241 2595.99,-155.581 2585.82,-158.545 2589.88,-164.241"/>
</g>
<!-- Node40 -->
<g id="node40" class="node"><title>Node40</title>
<polygon fill="none" stroke="#bfbfbf" points="2470.5,-136.5 2470.5,-155.5 2553.5,-155.5 2553.5,-136.5 2470.5,-136.5"/>
<text text-anchor="middle" x="2512" y="-143.5" font-family="Helvetica,sans-Serif" font-size="10.00">unordered_map</text>
</g>
<!-- Node39&#45;&gt;Node40 -->
<g id="edge44" class="edge"><title>Node39&#45;&gt;Node40</title>
<path fill="none" stroke="midnightblue" d="M2522.28,-198.403C2520.57,-189.849 2517.89,-176.45 2515.7,-165.476"/>
<polygon fill="midnightblue" stroke="midnightblue" points="2519.11,-164.7 2513.72,-155.581 2512.25,-166.073 2519.11,-164.7"/>
</g>
<!-- Node47&#45;&gt;Node12 -->
<g id="edge59" class="edge"><title>Node47&#45;&gt;Node12</title>
<path fill="none" stroke="midnightblue" d="M1291.31,-260.308C1290.54,-244.217 1291.46,-209.81 1311,-192 1350.69,-155.816 1497.3,-166.355 1550,-156 1642.05,-137.914 1748.85,-110.208 1804.26,-95.3176"/>
<polygon fill="midnightblue" stroke="midnightblue" points="1805.25,-98.6755 1814,-92.6917 1803.43,-91.917 1805.25,-98.6755"/>
</g>
<!-- Node47&#45;&gt;Node29 -->
<g id="edge61" class="edge"><title>Node47&#45;&gt;Node29</title>
<path fill="none" stroke="midnightblue" d="M1230.59,-262.715C1180.61,-256.21 1115.7,-244.118 1099,-224 1074,-193.891 1072.71,-167.451 1096,-136 1128.63,-91.9335 1162.82,-119.686 1214,-100 1215.85,-99.2896 1217.74,-98.5201 1219.63,-97.7177"/>
<polygon fill="midnightblue" stroke="midnightblue" points="1221.23,-100.836 1228.92,-93.5527 1218.37,-94.448 1221.23,-100.836"/>
</g>
<!-- Node48 -->
<g id="node48" class="node"><title>Node48</title>
<g id="a_node48"><a xlink:href="../../d4/d25/BaseHits_8h.html" target="_top" xlink:title="SimulationDataFormat\l/BaseHits.h">
<polygon fill="none" stroke="black" points="938,-193 938,-223 1052,-223 1052,-193 938,-193"/>
<text text-anchor="start" x="946" y="-211" font-family="Helvetica,sans-Serif" font-size="10.00">SimulationDataFormat</text>
<text text-anchor="middle" x="995" y="-200" font-family="Helvetica,sans-Serif" font-size="10.00">/BaseHits.h</text>
</a>
</g>
</g>
<!-- Node47&#45;&gt;Node48 -->
<g id="edge57" class="edge"><title>Node47&#45;&gt;Node48</title>
<path fill="none" stroke="midnightblue" d="M1248.22,-260.44C1202.67,-251.497 1129.29,-236.986 1066,-224 1064.75,-223.744 1063.49,-223.484 1062.22,-223.222"/>
<polygon fill="midnightblue" stroke="midnightblue" points="1062.84,-219.777 1052.34,-221.174 1061.42,-226.631 1062.84,-219.777"/>
</g>
<!-- Node47&#45;&gt;Node49 -->
<g id="edge60" class="edge"><title>Node47&#45;&gt;Node49</title>
<path fill="none" stroke="midnightblue" d="M1300.74,-260.403C1310.16,-251.136 1325.36,-236.183 1336.95,-224.788"/>
<polygon fill="midnightblue" stroke="midnightblue" points="1339.6,-227.088 1344.28,-217.581 1334.69,-222.098 1339.6,-227.088"/>
</g>
<!-- Node48&#45;&gt;Node22 -->
<g id="edge58" class="edge"><title>Node48&#45;&gt;Node22</title>
<path fill="none" stroke="midnightblue" d="M974.856,-192.781C961.405,-183.286 943.778,-170.843 930.296,-161.327"/>
<polygon fill="midnightblue" stroke="midnightblue" points="932.309,-158.463 922.121,-155.556 928.272,-164.182 932.309,-158.463"/>
</g>
</g>
</svg>
