<?xml version="1.0" encoding="UTF-8" standalone="no"?>
<!DOCTYPE svg PUBLIC "-//W3C//DTD SVG 1.1//EN"
 "http://www.w3.org/Graphics/SVG/1.1/DTD/svg11.dtd">
<!-- Generated by graphviz version 2.36.0 (20140111.2315)
 -->
<!-- Title: o2::ITS::CA::TrackingParameters Pages: 1 -->
<svg width="786pt" height="228pt"
 viewBox="0.00 0.00 786.00 228.00" xmlns="http://www.w3.org/2000/svg" xmlns:xlink="http://www.w3.org/1999/xlink">
<g id="graph0" class="graph" transform="scale(1 1) rotate(0) translate(4 224)">
<title>o2::ITS::CA::TrackingParameters</title>
<!-- Node1 -->
<g id="node1" class="node"><title>Node1</title>
<polygon fill="#bfbfbf" stroke="black" points="269.5,-1 269.5,-69 432.5,-69 432.5,-1 269.5,-1"/>
<text text-anchor="middle" x="351" y="-57" font-family="Helvetica,sans-Serif" font-size="10.00">o2::ITS::CA::TrackingParameters</text>
<polyline fill="none" stroke="black" points="269.5,-50 432.5,-50 "/>
<text text-anchor="middle" x="351" y="-38" font-family="Helvetica,sans-Serif" font-size="10.00"> </text>
<polyline fill="none" stroke="black" points="269.5,-31 432.5,-31 "/>
<text text-anchor="start" x="277.5" y="-19" font-family="Helvetica,sans-Serif" font-size="10.00">+ CellMinimumLevel()</text>
<text text-anchor="start" x="277.5" y="-8" font-family="Helvetica,sans-Serif" font-size="10.00">+ NumberOfIterations()</text>
</g>
<!-- Node2 -->
<g id="node2" class="node"><title>Node2</title>
<polygon fill="none" stroke="#bfbfbf" points="-0.5,-140.5 -0.5,-219.5 116.5,-219.5 116.5,-140.5 -0.5,-140.5"/>
<text text-anchor="start" x="7.5" y="-207.5" font-family="Helvetica,sans-Serif" font-size="10.00">vector&lt; std::array</text>
<text text-anchor="start" x="7.5" y="-196.5" font-family="Helvetica,sans-Serif" font-size="10.00">&lt; float, Constants::</text>
<text text-anchor="middle" x="58" y="-185.5" font-family="Helvetica,sans-Serif" font-size="10.00">ITS::CellsPerRoad &gt; &gt;</text>
<polyline fill="none" stroke="#bfbfbf" points="-0.5,-178.5 116.5,-178.5 "/>
<text text-anchor="middle" x="58" y="-166.5" font-family="Helvetica,sans-Serif" font-size="10.00"> </text>
<polyline fill="none" stroke="#bfbfbf" points="-0.5,-159.5 116.5,-159.5 "/>
<text text-anchor="middle" x="58" y="-147.5" font-family="Helvetica,sans-Serif" font-size="10.00"> </text>
</g>
<!-- Node2&#45;&gt;Node1 -->
<g id="edge1" class="edge"><title>Node2&#45;&gt;Node1</title>
<path fill="none" stroke="#404040" d="M70.6459,-140.172C78.5731,-121.713 90.6442,-100.911 108,-88 131.631,-70.4204 199.18,-56.8009 257.077,-47.918"/>
<polygon fill="none" stroke="#404040" points="257.397,-47.8701 262.74,-43.0264 269.265,-46.0946 263.923,-50.9383 257.397,-47.8701"/>
<text text-anchor="middle" x="144" y="-108" font-family="Helvetica,sans-Serif" font-size="10.00"> +CellMaxDCA</text>
<text text-anchor="middle" x="144" y="-97" font-family="Helvetica,sans-Serif" font-size="10.00">+CellMaxDeltaZ</text>
</g>
<!-- Node3 -->
<g id="node3" class="node"><title>Node3</title>
<polygon fill="none" stroke="#bfbfbf" points="135,-151.5 135,-208.5 207,-208.5 207,-151.5 135,-151.5"/>
<text text-anchor="middle" x="171" y="-196.5" font-family="Helvetica,sans-Serif" font-size="10.00">vector&lt; int &gt;</text>
<polyline fill="none" stroke="#bfbfbf" points="135,-189.5 207,-189.5 "/>
<text text-anchor="middle" x="171" y="-177.5" font-family="Helvetica,sans-Serif" font-size="10.00"> </text>
<polyline fill="none" stroke="#bfbfbf" points="135,-170.5 207,-170.5 "/>
<text text-anchor="middle" x="171" y="-158.5" font-family="Helvetica,sans-Serif" font-size="10.00"> </text>
</g>
<!-- Node3&#45;&gt;Node1 -->
<g id="edge2" class="edge"><title>Node3&#45;&gt;Node1</title>
<path fill="none" stroke="#404040" d="M174.641,-151.355C178.643,-131.337 186.94,-104.926 204,-88 218.929,-73.1884 238.334,-62.5776 258.124,-54.9822"/>
<polygon fill="none" stroke="#404040" points="258.151,-54.9727 262.467,-49.1957 269.459,-50.9576 265.143,-56.7346 258.151,-54.9727"/>
<text text-anchor="middle" x="243.5" y="-102.5" font-family="Helvetica,sans-Serif" font-size="10.00"> +MinTrackLength</text>
</g>
<!-- Node4 -->
<g id="node4" class="node"><title>Node4</title>
<polygon fill="none" stroke="#bfbfbf" points="225.5,-140.5 225.5,-219.5 360.5,-219.5 360.5,-140.5 225.5,-140.5"/>
<text text-anchor="start" x="233.5" y="-207.5" font-family="Helvetica,sans-Serif" font-size="10.00">vector&lt; std::array</text>
<text text-anchor="start" x="233.5" y="-196.5" font-family="Helvetica,sans-Serif" font-size="10.00">&lt; float, Constants::</text>
<text text-anchor="middle" x="293" y="-185.5" font-family="Helvetica,sans-Serif" font-size="10.00">ITS::TrackletsPerRoad &gt; &gt;</text>
<polyline fill="none" stroke="#bfbfbf" points="225.5,-178.5 360.5,-178.5 "/>
<text text-anchor="middle" x="293" y="-166.5" font-family="Helvetica,sans-Serif" font-size="10.00"> </text>
<polyline fill="none" stroke="#bfbfbf" points="225.5,-159.5 360.5,-159.5 "/>
<text text-anchor="middle" x="293" y="-147.5" font-family="Helvetica,sans-Serif" font-size="10.00"> </text>
</g>
<!-- Node4&#45;&gt;Node1 -->
<g id="edge3" class="edge"><title>Node4&#45;&gt;Node1</title>
<path fill="none" stroke="#404040" d="M286.727,-140.343C285.671,-123.586 286.766,-104.15 294,-88 295.437,-84.791 297.179,-81.6933 299.148,-78.7179"/>
<polygon fill="none" stroke="#404040" points="299.257,-78.5769 299.768,-71.3838 306.604,-69.0886 306.093,-76.2816 299.257,-78.5769"/>
<text text-anchor="middle" x="340.5" y="-102.5" font-family="Helvetica,sans-Serif" font-size="10.00"> +TrackletMaxDeltaZ</text>
</g>
<!-- Node5 -->
<g id="node5" class="node"><title>Node5</title>
<polygon fill="none" stroke="#bfbfbf" points="378.5,-140.5 378.5,-219.5 503.5,-219.5 503.5,-140.5 378.5,-140.5"/>
<text text-anchor="start" x="386.5" y="-207.5" font-family="Helvetica,sans-Serif" font-size="10.00">vector&lt; std::array</text>
<text text-anchor="start" x="386.5" y="-196.5" font-family="Helvetica,sans-Serif" font-size="10.00">&lt; float, Constants::</text>
<text text-anchor="middle" x="441" y="-185.5" font-family="Helvetica,sans-Serif" font-size="10.00">ITS::CellsPerRoad&#45;1 &gt; &gt;</text>
<polyline fill="none" stroke="#bfbfbf" points="378.5,-178.5 503.5,-178.5 "/>
<text text-anchor="middle" x="441" y="-166.5" font-family="Helvetica,sans-Serif" font-size="10.00"> </text>
<polyline fill="none" stroke="#bfbfbf" points="378.5,-159.5 503.5,-159.5 "/>
<text text-anchor="middle" x="441" y="-147.5" font-family="Helvetica,sans-Serif" font-size="10.00"> </text>
</g>
<!-- Node5&#45;&gt;Node1 -->
<g id="edge4" class="edge"><title>Node5&#45;&gt;Node1</title>
<path fill="none" stroke="#404040" d="M418.73,-140.114C409.21,-123.851 397.815,-104.852 387,-88 385.138,-85.0978 383.19,-82.125 381.207,-79.1427"/>
<polygon fill="none" stroke="#404040" points="381.111,-79.0003 374.438,-76.2658 374.396,-69.0548 381.069,-71.7893 381.111,-79.0003"/>
<text text-anchor="middle" x="475" y="-108" font-family="Helvetica,sans-Serif" font-size="10.00"> +NeighbourMaxDeltaN</text>
<text text-anchor="middle" x="475" y="-97" font-family="Helvetica,sans-Serif" font-size="10.00">+NeighbourMaxDeltaCurvature</text>
</g>
<!-- Node6 -->
<g id="node6" class="node"><title>Node6</title>
<polygon fill="none" stroke="#bfbfbf" points="553.5,-151.5 553.5,-208.5 582.5,-208.5 582.5,-151.5 553.5,-151.5"/>
<text text-anchor="middle" x="568" y="-196.5" font-family="Helvetica,sans-Serif" font-size="10.00">int</text>
<polyline fill="none" stroke="#bfbfbf" points="553.5,-189.5 582.5,-189.5 "/>
<text text-anchor="middle" x="568" y="-177.5" font-family="Helvetica,sans-Serif" font-size="10.00"> </text>
<polyline fill="none" stroke="#bfbfbf" points="553.5,-170.5 582.5,-170.5 "/>
<text text-anchor="middle" x="568" y="-158.5" font-family="Helvetica,sans-Serif" font-size="10.00"> </text>
</g>
<!-- Node6&#45;&gt;Node1 -->
<g id="edge5" class="edge"><title>Node6&#45;&gt;Node1</title>
<path fill="none" stroke="#404040" d="M568.418,-151.18C567.203,-131.072 562.242,-104.626 546,-88 519.604,-60.9788 480.855,-47.4944 444.84,-40.9374"/>
<polygon fill="none" stroke="#404040" points="444.597,-40.8979 438.032,-43.8819 432.753,-38.9698 439.318,-35.9858 444.597,-40.8979"/>
<text text-anchor="middle" x="601" y="-102.5" font-family="Helvetica,sans-Serif" font-size="10.00"> +ClusterSharing</text>
</g>
<!-- Node7 -->
<g id="node7" class="node"><title>Node7</title>
<polygon fill="none" stroke="#bfbfbf" points="625,-151.5 625,-208.5 705,-208.5 705,-151.5 625,-151.5"/>
<text text-anchor="middle" x="665" y="-196.5" font-family="Helvetica,sans-Serif" font-size="10.00">vector&lt; float &gt;</text>
<polyline fill="none" stroke="#bfbfbf" points="625,-189.5 705,-189.5 "/>
<text text-anchor="middle" x="665" y="-177.5" font-family="Helvetica,sans-Serif" font-size="10.00"> </text>
<polyline fill="none" stroke="#bfbfbf" points="625,-170.5 705,-170.5 "/>
<text text-anchor="middle" x="665" y="-158.5" font-family="Helvetica,sans-Serif" font-size="10.00"> </text>
</g>
<!-- Node7&#45;&gt;Node1 -->
<g id="edge6" class="edge"><title>Node7&#45;&gt;Node1</title>
<path fill="none" stroke="#404040" d="M665.504,-151.172C664.3,-130.789 659.169,-103.995 642,-88 613.811,-61.7375 518.591,-48.3939 444.663,-41.8492"/>
<polygon fill="none" stroke="#404040" points="444.487,-41.8342 438.169,-45.3119 432.53,-40.8183 438.847,-37.3406 444.487,-41.8342"/>
<text text-anchor="middle" x="719.5" y="-113.5" font-family="Helvetica,sans-Serif" font-size="10.00"> +CellMaxDeltaPhi</text>
<text text-anchor="middle" x="719.5" y="-102.5" font-family="Helvetica,sans-Serif" font-size="10.00">+CellMaxDeltaTanLambda</text>
<text text-anchor="middle" x="719.5" y="-91.5" font-family="Helvetica,sans-Serif" font-size="10.00">+TrackletMaxDeltaPhi</text>
</g>
</g>
</svg>
