<?xml version="1.0" encoding="UTF-8" standalone="no"?>
<!DOCTYPE svg PUBLIC "-//W3C//DTD SVG 1.1//EN"
 "http://www.w3.org/Graphics/SVG/1.1/DTD/svg11.dtd">
<!-- Generated by graphviz version 2.36.0 (20140111.2315)
 -->
<!-- Title: /home/travis/build/AliceO2Group/AliceO2/Detectors/ITSMFT/ITS/reconstruction/include/ITSReconstruction/TrivialClusterer.h Pages: 1 -->
<svg width="1764pt" height="400pt"
 viewBox="0.00 0.00 1764.00 400.00" xmlns="http://www.w3.org/2000/svg" xmlns:xlink="http://www.w3.org/1999/xlink">
<g id="graph0" class="graph" transform="scale(1 1) rotate(0) translate(4 396)">
<title>/home/travis/build/AliceO2Group/AliceO2/Detectors/ITSMFT/ITS/reconstruction/include/ITSReconstruction/TrivialClusterer.h</title>
<!-- Node1 -->
<g id="node1" class="node"><title>Node1</title>
<polygon fill="#bfbfbf" stroke="black" points="1067.5,-328.5 1067.5,-391.5 1246.5,-391.5 1246.5,-328.5 1067.5,-328.5"/>
<text text-anchor="start" x="1075.5" y="-379.5" font-family="Helvetica,sans-Serif" font-size="10.00">/home/travis/build</text>
<text text-anchor="start" x="1075.5" y="-368.5" font-family="Helvetica,sans-Serif" font-size="10.00">/AliceO2Group/AliceO2</text>
<text text-anchor="start" x="1075.5" y="-357.5" font-family="Helvetica,sans-Serif" font-size="10.00">/Detectors/ITSMFT/ITS</text>
<text text-anchor="start" x="1075.5" y="-346.5" font-family="Helvetica,sans-Serif" font-size="10.00">/reconstruction/include</text>
<text text-anchor="middle" x="1157" y="-335.5" font-family="Helvetica,sans-Serif" font-size="10.00">/ITSReconstruction/TrivialClusterer.h</text>
</g>
<!-- Node2 -->
<g id="node2" class="node"><title>Node2</title>
<polygon fill="none" stroke="#bfbfbf" points="1183,-74.5 1183,-93.5 1239,-93.5 1239,-74.5 1183,-74.5"/>
<text text-anchor="middle" x="1211" y="-81.5" font-family="Helvetica,sans-Serif" font-size="10.00">Rtypes.h</text>
</g>
<!-- Node1&#45;&gt;Node2 -->
<g id="edge1" class="edge"><title>Node1&#45;&gt;Node2</title>
<path fill="none" stroke="midnightblue" d="M1129.95,-328.165C1093.63,-282.833 1038.21,-196.986 1080,-136 1105.05,-99.4377 1131.72,-116.137 1173,-100 1175.23,-99.1285 1177.53,-98.226 1179.85,-97.316"/>
<polygon fill="midnightblue" stroke="midnightblue" points="1181.28,-100.512 1189.31,-93.5917 1178.72,-93.9988 1181.28,-100.512"/>
</g>
<!-- Node3 -->
<g id="node3" class="node"><title>Node3</title>
<g id="a_node3"><a xlink:href="../../d0/d2d/common_2base_2include_2ITSMFTBase_2GeometryTGeo_8h.html" target="_top" xlink:title="ITSMFTBase/GeometryTGeo.h">
<polygon fill="none" stroke="black" points="1177.5,-272.5 1177.5,-291.5 1330.5,-291.5 1330.5,-272.5 1177.5,-272.5"/>
<text text-anchor="middle" x="1254" y="-279.5" font-family="Helvetica,sans-Serif" font-size="10.00">ITSMFTBase/GeometryTGeo.h</text>
</a>
</g>
</g>
<!-- Node1&#45;&gt;Node3 -->
<g id="edge2" class="edge"><title>Node1&#45;&gt;Node3</title>
<path fill="none" stroke="midnightblue" d="M1196.17,-328.307C1209.45,-317.905 1223.7,-306.743 1234.73,-298.102"/>
<polygon fill="midnightblue" stroke="midnightblue" points="1237.09,-300.696 1242.8,-291.774 1232.77,-295.186 1237.09,-300.696"/>
</g>
<!-- Node4 -->
<g id="node4" class="node"><title>Node4</title>
<polygon fill="none" stroke="#bfbfbf" points="1285.5,-210.5 1285.5,-229.5 1354.5,-229.5 1354.5,-210.5 1285.5,-210.5"/>
<text text-anchor="middle" x="1320" y="-217.5" font-family="Helvetica,sans-Serif" font-size="10.00">TObjArray.h</text>
</g>
<!-- Node3&#45;&gt;Node4 -->
<g id="edge3" class="edge"><title>Node3&#45;&gt;Node4</title>
<path fill="none" stroke="midnightblue" d="M1263.46,-272.403C1273.75,-263.047 1290.42,-247.895 1302.99,-236.46"/>
<polygon fill="midnightblue" stroke="midnightblue" points="1305.52,-238.897 1310.56,-229.581 1300.81,-233.718 1305.52,-238.897"/>
</g>
<!-- Node5 -->
<g id="node5" class="node"><title>Node5</title>
<polygon fill="none" stroke="#bfbfbf" points="1372.5,-210.5 1372.5,-229.5 1413.5,-229.5 1413.5,-210.5 1372.5,-210.5"/>
<text text-anchor="middle" x="1393" y="-217.5" font-family="Helvetica,sans-Serif" font-size="10.00">string</text>
</g>
<!-- Node3&#45;&gt;Node5 -->
<g id="edge4" class="edge"><title>Node3&#45;&gt;Node5</title>
<path fill="none" stroke="midnightblue" d="M1275.91,-272.492C1298.07,-263.766 1333.19,-249.583 1363,-236 1364.36,-235.381 1365.74,-234.736 1367.14,-234.076"/>
<polygon fill="midnightblue" stroke="midnightblue" points="1368.82,-237.149 1376.28,-229.625 1365.76,-230.855 1368.82,-237.149"/>
</g>
<!-- Node6 -->
<g id="node6" class="node"><title>Node6</title>
<g id="a_node6"><a xlink:href="../../d4/d20/DetMatrixCache_8h.html" target="_top" xlink:title="DetectorsCommonDataFormats\l/DetMatrixCache.h">
<polygon fill="none" stroke="black" points="1111,-205 1111,-235 1267,-235 1267,-205 1111,-205"/>
<text text-anchor="start" x="1119" y="-223" font-family="Helvetica,sans-Serif" font-size="10.00">DetectorsCommonDataFormats</text>
<text text-anchor="middle" x="1189" y="-212" font-family="Helvetica,sans-Serif" font-size="10.00">/DetMatrixCache.h</text>
</a>
</g>
</g>
<!-- Node3&#45;&gt;Node6 -->
<g id="edge5" class="edge"><title>Node3&#45;&gt;Node6</title>
<path fill="none" stroke="midnightblue" d="M1244.69,-272.403C1236.13,-264.505 1223.1,-252.477 1211.79,-242.041"/>
<polygon fill="midnightblue" stroke="midnightblue" points="1214.04,-239.352 1204.32,-235.141 1209.29,-244.495 1214.04,-239.352"/>
</g>
<!-- Node6&#45;&gt;Node2 -->
<g id="edge32" class="edge"><title>Node6&#45;&gt;Node2</title>
<path fill="none" stroke="midnightblue" d="M1191.35,-204.66C1195.35,-180.32 1203.46,-130.933 1207.91,-103.837"/>
<polygon fill="midnightblue" stroke="midnightblue" points="1211.4,-104.162 1209.57,-93.7275 1204.49,-103.028 1211.4,-104.162"/>
</g>
<!-- Node7 -->
<g id="node7" class="node"><title>Node7</title>
<polygon fill="none" stroke="#bfbfbf" points="1089.5,-142.5 1089.5,-161.5 1160.5,-161.5 1160.5,-142.5 1089.5,-142.5"/>
<text text-anchor="middle" x="1125" y="-149.5" font-family="Helvetica,sans-Serif" font-size="10.00">FairLogger.h</text>
</g>
<!-- Node6&#45;&gt;Node7 -->
<g id="edge6" class="edge"><title>Node6&#45;&gt;Node7</title>
<path fill="none" stroke="midnightblue" d="M1175.11,-204.679C1164.94,-194.184 1151.12,-179.932 1140.57,-169.052"/>
<polygon fill="midnightblue" stroke="midnightblue" points="1143.03,-166.571 1133.56,-161.828 1138.01,-171.444 1143.03,-166.571"/>
</g>
<!-- Node8 -->
<g id="node8" class="node"><title>Node8</title>
<polygon fill="none" stroke="#bfbfbf" points="1452,-6.5 1452,-25.5 1490,-25.5 1490,-6.5 1452,-6.5"/>
<text text-anchor="middle" x="1471" y="-13.5" font-family="Helvetica,sans-Serif" font-size="10.00">array</text>
</g>
<!-- Node6&#45;&gt;Node8 -->
<g id="edge7" class="edge"><title>Node6&#45;&gt;Node8</title>
<path fill="none" stroke="midnightblue" d="M1220.54,-204.894C1236.86,-196.243 1256.04,-183.784 1269,-168 1299.28,-131.134 1273.13,-100.555 1308,-68 1345.12,-33.341 1405.54,-22.2302 1441.46,-18.6721"/>
<polygon fill="midnightblue" stroke="midnightblue" points="1442.1,-22.1301 1451.77,-17.7926 1441.51,-15.1554 1442.1,-22.1301"/>
</g>
<!-- Node9 -->
<g id="node9" class="node"><title>Node9</title>
<polygon fill="none" stroke="#bfbfbf" points="1217,-142.5 1217,-161.5 1261,-161.5 1261,-142.5 1217,-142.5"/>
<text text-anchor="middle" x="1239" y="-149.5" font-family="Helvetica,sans-Serif" font-size="10.00">vector</text>
</g>
<!-- Node6&#45;&gt;Node9 -->
<g id="edge8" class="edge"><title>Node6&#45;&gt;Node9</title>
<path fill="none" stroke="midnightblue" d="M1199.85,-204.679C1207.57,-194.49 1217.97,-180.759 1226.11,-170.011"/>
<polygon fill="midnightblue" stroke="midnightblue" points="1229.06,-171.913 1232.31,-161.828 1223.48,-167.686 1229.06,-171.913"/>
</g>
<!-- Node10 -->
<g id="node10" class="node"><title>Node10</title>
<g id="a_node10"><a xlink:href="../../d6/d31/DetID_8h.html" target="_top" xlink:title="DetectorsCommonDataFormats\l/DetID.h">
<polygon fill="none" stroke="black" points="1363,-137 1363,-167 1519,-167 1519,-137 1363,-137"/>
<text text-anchor="start" x="1371" y="-155" font-family="Helvetica,sans-Serif" font-size="10.00">DetectorsCommonDataFormats</text>
<text text-anchor="middle" x="1441" y="-144" font-family="Helvetica,sans-Serif" font-size="10.00">/DetID.h</text>
</a>
</g>
</g>
<!-- Node6&#45;&gt;Node10 -->
<g id="edge9" class="edge"><title>Node6&#45;&gt;Node10</title>
<path fill="none" stroke="midnightblue" d="M1242.75,-204.922C1282.23,-194.583 1336,-180.501 1377.58,-169.61"/>
<polygon fill="midnightblue" stroke="midnightblue" points="1378.54,-172.976 1387.33,-167.056 1376.77,-166.204 1378.54,-172.976"/>
</g>
<!-- Node18 -->
<g id="node18" class="node"><title>Node18</title>
<g id="a_node18"><a xlink:href="../../dd/d76/Cartesian3D_8h.html" target="_top" xlink:title="MathUtils/Cartesian3D.h">
<polygon fill="none" stroke="black" points="763.5,-142.5 763.5,-161.5 888.5,-161.5 888.5,-142.5 763.5,-142.5"/>
<text text-anchor="middle" x="826" y="-149.5" font-family="Helvetica,sans-Serif" font-size="10.00">MathUtils/Cartesian3D.h</text>
</a>
</g>
</g>
<!-- Node6&#45;&gt;Node18 -->
<g id="edge20" class="edge"><title>Node6&#45;&gt;Node18</title>
<path fill="none" stroke="midnightblue" d="M1111.57,-204.922C1042.93,-192.442 944.3,-174.509 882.749,-163.318"/>
<polygon fill="midnightblue" stroke="midnightblue" points="883.291,-159.859 872.826,-161.514 882.038,-166.746 883.291,-159.859"/>
</g>
<!-- Node10&#45;&gt;Node2 -->
<g id="edge10" class="edge"><title>Node10&#45;&gt;Node2</title>
<path fill="none" stroke="midnightblue" d="M1391.94,-136.922C1349.1,-124.628 1287.82,-107.043 1248.72,-95.8231"/>
<polygon fill="midnightblue" stroke="midnightblue" points="1249.62,-92.4397 1239.04,-93.0456 1247.68,-99.1681 1249.62,-92.4397"/>
</g>
<!-- Node10&#45;&gt;Node8 -->
<g id="edge11" class="edge"><title>Node10&#45;&gt;Node8</title>
<path fill="none" stroke="midnightblue" d="M1444.21,-136.66C1449.66,-112.32 1460.72,-62.9332 1466.78,-35.8373"/>
<polygon fill="midnightblue" stroke="midnightblue" points="1470.28,-36.2506 1469.05,-25.7275 1463.45,-34.7213 1470.28,-36.2506"/>
</g>
<!-- Node11 -->
<g id="node11" class="node"><title>Node11</title>
<polygon fill="none" stroke="#bfbfbf" points="1607.5,-74.5 1607.5,-93.5 1648.5,-93.5 1648.5,-74.5 1607.5,-74.5"/>
<text text-anchor="middle" x="1628" y="-81.5" font-family="Helvetica,sans-Serif" font-size="10.00">bitset</text>
</g>
<!-- Node10&#45;&gt;Node11 -->
<g id="edge12" class="edge"><title>Node10&#45;&gt;Node11</title>
<path fill="none" stroke="midnightblue" d="M1490.83,-136.896C1522.04,-127.553 1562.86,-114.397 1598,-100 1599.59,-99.3473 1601.22,-98.6454 1602.85,-97.9142"/>
<polygon fill="midnightblue" stroke="midnightblue" points="1604.49,-101.008 1612.01,-93.5471 1601.48,-94.6887 1604.49,-101.008"/>
</g>
<!-- Node12 -->
<g id="node12" class="node"><title>Node12</title>
<polygon fill="none" stroke="#bfbfbf" points="1666.5,-74.5 1666.5,-93.5 1715.5,-93.5 1715.5,-74.5 1666.5,-74.5"/>
<text text-anchor="middle" x="1691" y="-81.5" font-family="Helvetica,sans-Serif" font-size="10.00">cassert</text>
</g>
<!-- Node10&#45;&gt;Node12 -->
<g id="edge13" class="edge"><title>Node10&#45;&gt;Node12</title>
<path fill="none" stroke="midnightblue" d="M1515.42,-136.953C1557.51,-128.137 1610.79,-115.503 1657,-100 1659.27,-99.2382 1661.6,-98.3819 1663.92,-97.4745"/>
<polygon fill="midnightblue" stroke="midnightblue" points="1665.37,-100.659 1673.25,-93.5682 1662.67,-94.2028 1665.37,-100.659"/>
</g>
<!-- Node13 -->
<g id="node13" class="node"><title>Node13</title>
<polygon fill="none" stroke="#bfbfbf" points="1317,-74.5 1317,-93.5 1363,-93.5 1363,-74.5 1317,-74.5"/>
<text text-anchor="middle" x="1340" y="-81.5" font-family="Helvetica,sans-Serif" font-size="10.00">cstdint</text>
</g>
<!-- Node10&#45;&gt;Node13 -->
<g id="edge14" class="edge"><title>Node10&#45;&gt;Node13</title>
<path fill="none" stroke="midnightblue" d="M1419.08,-136.679C1402.15,-125.611 1378.81,-110.363 1361.88,-99.3002"/>
<polygon fill="midnightblue" stroke="midnightblue" points="1363.5,-96.1783 1353.22,-93.6379 1359.68,-102.038 1363.5,-96.1783"/>
</g>
<!-- Node14 -->
<g id="node14" class="node"><title>Node14</title>
<polygon fill="none" stroke="#bfbfbf" points="1381,-74.5 1381,-93.5 1443,-93.5 1443,-74.5 1381,-74.5"/>
<text text-anchor="middle" x="1412" y="-81.5" font-family="Helvetica,sans-Serif" font-size="10.00">type_traits</text>
</g>
<!-- Node10&#45;&gt;Node14 -->
<g id="edge15" class="edge"><title>Node10&#45;&gt;Node14</title>
<path fill="none" stroke="midnightblue" d="M1434.71,-136.679C1430.36,-126.796 1424.56,-113.579 1419.9,-102.986"/>
<polygon fill="midnightblue" stroke="midnightblue" points="1423.11,-101.576 1415.88,-93.8283 1416.7,-104.391 1423.11,-101.576"/>
</g>
<!-- Node15 -->
<g id="node15" class="node"><title>Node15</title>
<g id="a_node15"><a xlink:href="../../d9/d52/Common_2MathUtils_2include_2MathUtils_2Utils_8h.html" target="_top" xlink:title="MathUtils/Utils.h">
<polygon fill="none" stroke="black" points="1499,-74.5 1499,-93.5 1589,-93.5 1589,-74.5 1499,-74.5"/>
<text text-anchor="middle" x="1544" y="-81.5" font-family="Helvetica,sans-Serif" font-size="10.00">MathUtils/Utils.h</text>
</a>
</g>
</g>
<!-- Node10&#45;&gt;Node15 -->
<g id="edge16" class="edge"><title>Node10&#45;&gt;Node15</title>
<path fill="none" stroke="midnightblue" d="M1463.1,-136.841C1480.35,-125.784 1504.23,-110.481 1521.57,-99.3701"/>
<polygon fill="midnightblue" stroke="midnightblue" points="1523.92,-102.024 1530.45,-93.6819 1520.14,-96.1302 1523.92,-102.024"/>
</g>
<!-- Node15&#45;&gt;Node8 -->
<g id="edge17" class="edge"><title>Node15&#45;&gt;Node8</title>
<path fill="none" stroke="midnightblue" d="M1534.46,-74.3717C1522.83,-63.8564 1502.95,-45.8819 1488.53,-32.8496"/>
<polygon fill="midnightblue" stroke="midnightblue" points="1490.54,-29.9514 1480.78,-25.8411 1485.85,-35.1438 1490.54,-29.9514"/>
</g>
<!-- Node16 -->
<g id="node16" class="node"><title>Node16</title>
<polygon fill="none" stroke="#bfbfbf" points="1515,-6.5 1515,-25.5 1559,-25.5 1559,-6.5 1515,-6.5"/>
<text text-anchor="middle" x="1537" y="-13.5" font-family="Helvetica,sans-Serif" font-size="10.00">cmath</text>
</g>
<!-- Node15&#45;&gt;Node16 -->
<g id="edge18" class="edge"><title>Node15&#45;&gt;Node16</title>
<path fill="none" stroke="midnightblue" d="M1543.08,-74.3717C1542.05,-64.6426 1540.34,-48.528 1539,-35.8504"/>
<polygon fill="midnightblue" stroke="midnightblue" points="1542.47,-35.4162 1537.94,-25.8411 1535.51,-36.1545 1542.47,-35.4162"/>
</g>
<!-- Node17 -->
<g id="node17" class="node"><title>Node17</title>
<g id="a_node17"><a xlink:href="../../d6/d84/MathConstants_8h.html" target="_top" xlink:title="useful math constants ">
<polygon fill="none" stroke="black" points="1577.5,-6.5 1577.5,-25.5 1756.5,-25.5 1756.5,-6.5 1577.5,-6.5"/>
<text text-anchor="middle" x="1667" y="-13.5" font-family="Helvetica,sans-Serif" font-size="10.00">CommonConstants/MathConstants.h</text>
</a>
</g>
</g>
<!-- Node15&#45;&gt;Node17 -->
<g id="edge19" class="edge"><title>Node15&#45;&gt;Node17</title>
<path fill="none" stroke="midnightblue" d="M1560.08,-74.3717C1580.89,-63.2051 1617.38,-43.6266 1641.86,-30.4876"/>
<polygon fill="midnightblue" stroke="midnightblue" points="1643.76,-33.4428 1650.92,-25.6305 1640.45,-27.2746 1643.76,-33.4428"/>
</g>
<!-- Node18&#45;&gt;Node2 -->
<g id="edge26" class="edge"><title>Node18&#45;&gt;Node2</title>
<path fill="none" stroke="midnightblue" d="M888.616,-146.162C958.784,-139.738 1075.49,-126.038 1173,-100 1176.05,-99.1846 1179.2,-98.1985 1182.3,-97.1259"/>
<polygon fill="midnightblue" stroke="midnightblue" points="1183.82,-100.294 1191.96,-93.508 1181.37,-93.7396 1183.82,-100.294"/>
</g>
<!-- Node19 -->
<g id="node19" class="node"><title>Node19</title>
<polygon fill="none" stroke="#bfbfbf" points="1013.5,-69 1013.5,-99 1164.5,-99 1164.5,-69 1013.5,-69"/>
<text text-anchor="start" x="1021.5" y="-87" font-family="Helvetica,sans-Serif" font-size="10.00">Math/GenVector/Displacement</text>
<text text-anchor="middle" x="1089" y="-76" font-family="Helvetica,sans-Serif" font-size="10.00">Vector3D.h</text>
</g>
<!-- Node18&#45;&gt;Node19 -->
<g id="edge21" class="edge"><title>Node18&#45;&gt;Node19</title>
<path fill="none" stroke="midnightblue" d="M860.113,-142.439C901.243,-132.118 971.291,-114.539 1023.09,-101.54"/>
<polygon fill="midnightblue" stroke="midnightblue" points="1024.02,-104.916 1032.86,-99.0873 1022.31,-98.1267 1024.02,-104.916"/>
</g>
<!-- Node20 -->
<g id="node20" class="node"><title>Node20</title>
<polygon fill="none" stroke="#bfbfbf" points="0,-74.5 0,-93.5 176,-93.5 176,-74.5 0,-74.5"/>
<text text-anchor="middle" x="88" y="-81.5" font-family="Helvetica,sans-Serif" font-size="10.00">Math/GenVector/PositionVector3D.h</text>
</g>
<!-- Node18&#45;&gt;Node20 -->
<g id="edge22" class="edge"><title>Node18&#45;&gt;Node20</title>
<path fill="none" stroke="midnightblue" d="M763.42,-147.607C648.414,-141.021 395.815,-124.925 184,-100 172.22,-98.6138 159.669,-96.8576 147.66,-95.0391"/>
<polygon fill="midnightblue" stroke="midnightblue" points="148.145,-91.5726 137.727,-93.5036 147.075,-98.4904 148.145,-91.5726"/>
</g>
<!-- Node21 -->
<g id="node21" class="node"><title>Node21</title>
<polygon fill="none" stroke="#bfbfbf" points="336.5,-74.5 336.5,-93.5 485.5,-93.5 485.5,-74.5 336.5,-74.5"/>
<text text-anchor="middle" x="411" y="-81.5" font-family="Helvetica,sans-Serif" font-size="10.00">Math/GenVector/Rotation3D.h</text>
</g>
<!-- Node18&#45;&gt;Node21 -->
<g id="edge23" class="edge"><title>Node18&#45;&gt;Node21</title>
<path fill="none" stroke="midnightblue" d="M767.934,-142.481C701.789,-132.678 590.497,-115.881 495,-100 486.093,-98.5187 476.665,-96.8924 467.47,-95.2742"/>
<polygon fill="midnightblue" stroke="midnightblue" points="468.076,-91.8272 457.619,-93.5287 466.855,-98.7198 468.076,-91.8272"/>
</g>
<!-- Node22 -->
<g id="node22" class="node"><title>Node22</title>
<polygon fill="none" stroke="#bfbfbf" points="504,-74.5 504,-93.5 660,-93.5 660,-74.5 504,-74.5"/>
<text text-anchor="middle" x="582" y="-81.5" font-family="Helvetica,sans-Serif" font-size="10.00">Math/GenVector/Transform3D.h</text>
</g>
<!-- Node18&#45;&gt;Node22 -->
<g id="edge24" class="edge"><title>Node18&#45;&gt;Node22</title>
<path fill="none" stroke="midnightblue" d="M794.101,-142.372C750.324,-130.53 671.574,-109.229 623.328,-96.179"/>
<polygon fill="midnightblue" stroke="midnightblue" points="624.087,-92.7584 613.52,-93.5259 622.259,-99.5156 624.087,-92.7584"/>
</g>
<!-- Node23 -->
<g id="node23" class="node"><title>Node23</title>
<polygon fill="none" stroke="#bfbfbf" points="678,-74.5 678,-93.5 838,-93.5 838,-74.5 678,-74.5"/>
<text text-anchor="middle" x="758" y="-81.5" font-family="Helvetica,sans-Serif" font-size="10.00">Math/GenVector/Translation3D.h</text>
</g>
<!-- Node18&#45;&gt;Node23 -->
<g id="edge25" class="edge"><title>Node18&#45;&gt;Node23</title>
<path fill="none" stroke="midnightblue" d="M817.11,-142.372C806.276,-131.856 787.757,-113.882 774.33,-100.85"/>
<polygon fill="midnightblue" stroke="midnightblue" points="776.723,-98.2944 767.109,-93.8411 771.847,-103.317 776.723,-98.2944"/>
</g>
<!-- Node24 -->
<g id="node24" class="node"><title>Node24</title>
<polygon fill="none" stroke="#bfbfbf" points="856,-74.5 856,-93.5 932,-93.5 932,-74.5 856,-74.5"/>
<text text-anchor="middle" x="894" y="-81.5" font-family="Helvetica,sans-Serif" font-size="10.00">TGeoMatrix.h</text>
</g>
<!-- Node18&#45;&gt;Node24 -->
<g id="edge27" class="edge"><title>Node18&#45;&gt;Node24</title>
<path fill="none" stroke="midnightblue" d="M834.89,-142.372C845.724,-131.856 864.243,-113.882 877.67,-100.85"/>
<polygon fill="midnightblue" stroke="midnightblue" points="880.153,-103.317 884.891,-93.8411 875.277,-98.2944 880.153,-103.317"/>
</g>
<!-- Node25 -->
<g id="node25" class="node"><title>Node25</title>
<polygon fill="none" stroke="#bfbfbf" points="950.5,-74.5 950.5,-93.5 995.5,-93.5 995.5,-74.5 950.5,-74.5"/>
<text text-anchor="middle" x="973" y="-81.5" font-family="Helvetica,sans-Serif" font-size="10.00">iosfwd</text>
</g>
<!-- Node18&#45;&gt;Node25 -->
<g id="edge28" class="edge"><title>Node18&#45;&gt;Node25</title>
<path fill="none" stroke="midnightblue" d="M845.59,-142.461C868.522,-132.431 907.616,-115.225 941,-100 942.396,-99.3635 943.824,-98.7083 945.265,-98.0441"/>
<polygon fill="midnightblue" stroke="midnightblue" points="947.162,-101.022 954.755,-93.633 944.211,-94.6744 947.162,-101.022"/>
</g>
<!-- Node26 -->
<g id="node26" class="node"><title>Node26</title>
<g id="a_node26"><a xlink:href="../../d2/dd0/Cartesian2D_8h.html" target="_top" xlink:title="MathUtils/Cartesian2D.h">
<polygon fill="none" stroke="black" points="193.5,-74.5 193.5,-93.5 318.5,-93.5 318.5,-74.5 193.5,-74.5"/>
<text text-anchor="middle" x="256" y="-81.5" font-family="Helvetica,sans-Serif" font-size="10.00">MathUtils/Cartesian2D.h</text>
</a>
</g>
</g>
<!-- Node18&#45;&gt;Node26 -->
<g id="edge29" class="edge"><title>Node18&#45;&gt;Node26</title>
<path fill="none" stroke="midnightblue" d="M763.492,-146.757C668.717,-139.84 483.161,-124.405 327,-100 319.123,-98.769 310.802,-97.23 302.738,-95.6105"/>
<polygon fill="midnightblue" stroke="midnightblue" points="303.215,-92.1352 292.713,-93.5333 301.795,-98.9896 303.215,-92.1352"/>
</g>
<!-- Node27 -->
<g id="node27" class="node"><title>Node27</title>
<polygon fill="none" stroke="#bfbfbf" points="89.5,-1 89.5,-31 240.5,-31 240.5,-1 89.5,-1"/>
<text text-anchor="start" x="97.5" y="-19" font-family="Helvetica,sans-Serif" font-size="10.00">Math/GenVector/Displacement</text>
<text text-anchor="middle" x="165" y="-8" font-family="Helvetica,sans-Serif" font-size="10.00">Vector2D.h</text>
</g>
<!-- Node26&#45;&gt;Node27 -->
<g id="edge30" class="edge"><title>Node26&#45;&gt;Node27</title>
<path fill="none" stroke="midnightblue" d="M244.103,-74.3717C231.221,-65.0286 210.22,-49.7966 193.093,-37.375"/>
<polygon fill="midnightblue" stroke="midnightblue" points="194.703,-34.2194 184.553,-31.1815 190.593,-39.8859 194.703,-34.2194"/>
</g>
<!-- Node28 -->
<g id="node28" class="node"><title>Node28</title>
<polygon fill="none" stroke="#bfbfbf" points="259,-6.5 259,-25.5 435,-25.5 435,-6.5 259,-6.5"/>
<text text-anchor="middle" x="347" y="-13.5" font-family="Helvetica,sans-Serif" font-size="10.00">Math/GenVector/PositionVector2D.h</text>
</g>
<!-- Node26&#45;&gt;Node28 -->
<g id="edge31" class="edge"><title>Node26&#45;&gt;Node28</title>
<path fill="none" stroke="midnightblue" d="M267.897,-74.3717C282.884,-63.5015 308.862,-44.6602 326.942,-31.5474"/>
<polygon fill="midnightblue" stroke="midnightblue" points="329.06,-34.3349 335.1,-25.6305 324.95,-28.6684 329.06,-34.3349"/>
</g>
</g>
</svg>
