<?xml version="1.0" encoding="UTF-8" standalone="no"?>
<!DOCTYPE svg PUBLIC "-//W3C//DTD SVG 1.1//EN"
 "http://www.w3.org/Graphics/SVG/1.1/DTD/svg11.dtd">
<!-- Generated by graphviz version 2.36.0 (20140111.2315)
 -->
<!-- Title: /home/travis/build/AliceO2Group/AliceO2/Detectors/MUON/MID/Tracking/src/TrackerDevice.cxx Pages: 1 -->
<!--zoomable 446 -->
<svg id="main" version="1.1" xmlns="http://www.w3.org/2000/svg" xmlns:xlink="http://www.w3.org/1999/xlink" xml:space="preserve" onload="init(evt)">
<style type="text/css"><![CDATA[
.edge:hover path { stroke: red; }
.edge:hover polygon { stroke: red; fill: red; }
]]></style>
<script type="text/javascript"><![CDATA[
var edges = document.getElementsByTagName('g');
if (edges && edges.length) {
  for (var i=0;i<edges.length;i++) {
    if (edges[i].id.substr(0,4)=='edge') {
      edges[i].setAttribute('class','edge');
    }
  }
}
]]></script>
        <defs>
                <circle id="rim" cx="0" cy="0" r="7"/>
                <circle id="rim2" cx="0" cy="0" r="3.5"/>
                <g id="zoomPlus">
                        <use xlink:href="#rim" fill="#404040">
                                <set attributeName="fill" to="#808080" begin="zoomplus.mouseover" end="zoomplus.mouseout"/>
                        </use>
                        <path d="M-4,0h8M0,-4v8" fill="none" stroke="white" stroke-width="1.5" pointer-events="none"/>
                </g>
                <g id="zoomMin">
                        <use xlink:href="#rim" fill="#404040">
                                <set attributeName="fill" to="#808080" begin="zoomminus.mouseover" end="zoomminus.mouseout"/>
                        </use>
                        <path d="M-4,0h8" fill="none" stroke="white" stroke-width="1.5" pointer-events="none"/>
                </g>
                <g id="dirArrow">
                        <path fill="none" stroke="white" stroke-width="1.5" d="M0,-3.0v7 M-2.5,-0.5L0,-3.0L2.5,-0.5"/>
                </g>
               <g id="resetDef">
                       <use xlink:href="#rim2" fill="#404040">
                               <set attributeName="fill" to="#808080" begin="reset.mouseover" end="reset.mouseout"/>
                       </use>
               </g>
        </defs>

<script type="text/javascript">
var viewWidth = 1363;
var viewHeight = 446;
var sectionId = 'dynsection-0';
</script>
<script xlink:href="../../svgpan.js"/>
<svg id="graph" class="graph">
<g id="viewport">
<title>/home/travis/build/AliceO2Group/AliceO2/Detectors/MUON/MID/Tracking/src/TrackerDevice.cxx</title>
<!-- Node1 -->
<g id="node1" class="node"><title>Node1</title>
<polygon fill="#bfbfbf" stroke="black" points="681,-385 681,-437 839,-437 839,-385 681,-385"/>
<text text-anchor="start" x="689" y="-425" font-family="Helvetica,sans-Serif" font-size="10.00">/home/travis/build</text>
<text text-anchor="start" x="689" y="-414" font-family="Helvetica,sans-Serif" font-size="10.00">/AliceO2Group/AliceO2</text>
<text text-anchor="start" x="689" y="-403" font-family="Helvetica,sans-Serif" font-size="10.00">/Detectors/MUON/MID/Tracking</text>
<text text-anchor="middle" x="760" y="-392" font-family="Helvetica,sans-Serif" font-size="10.00">/src/TrackerDevice.cxx</text>
</g>
<!-- Node2 -->
<g id="node2" class="node"><title>Node2</title>
<g id="a_node2"><a xlink:href="../../d8/da3/TrackerDevice_8h.html" target="_top" xlink:title="Track reconstruction device for MID. ">
<polygon fill="none" stroke="black" points="542.5,-328.5 542.5,-347.5 631.5,-347.5 631.5,-328.5 542.5,-328.5"/>
<text text-anchor="middle" x="587" y="-335.5" font-family="Helvetica,sans-Serif" font-size="10.00">TrackerDevice.h</text>
</a>
</g>
</g>
<!-- Node1&#45;&gt;Node2 -->
<g id="edge1" class="edge"><title>Node1&#45;&gt;Node2</title>
<path fill="none" stroke="midnightblue" d="M699.007,-384.968C671.381,-373.63 639.944,-360.728 617.421,-351.485"/>
<polygon fill="midnightblue" stroke="midnightblue" points="618.63,-348.198 608.05,-347.639 615.972,-354.674 618.63,-348.198"/>
</g>
<!-- Node28 -->
<g id="node28" class="node"><title>Node28</title>
<polygon fill="none" stroke="#bfbfbf" points="650,-328.5 650,-347.5 736,-347.5 736,-328.5 650,-328.5"/>
<text text-anchor="middle" x="693" y="-335.5" font-family="Helvetica,sans-Serif" font-size="10.00">FairMQLogger.h</text>
</g>
<!-- Node1&#45;&gt;Node28 -->
<g id="edge31" class="edge"><title>Node1&#45;&gt;Node28</title>
<path fill="none" stroke="midnightblue" d="M736.19,-384.768C726.859,-374.881 716.432,-363.831 708.16,-355.066"/>
<polygon fill="midnightblue" stroke="midnightblue" points="710.673,-352.628 701.264,-347.757 705.582,-357.432 710.673,-352.628"/>
</g>
<!-- Node29 -->
<g id="node29" class="node"><title>Node29</title>
<polygon fill="none" stroke="#bfbfbf" points="754,-328.5 754,-347.5 900,-347.5 900,-328.5 754,-328.5"/>
<text text-anchor="middle" x="827" y="-335.5" font-family="Helvetica,sans-Serif" font-size="10.00">options/FairMQProgOptions.h</text>
</g>
<!-- Node1&#45;&gt;Node29 -->
<g id="edge32" class="edge"><title>Node1&#45;&gt;Node29</title>
<path fill="none" stroke="midnightblue" d="M783.81,-384.768C793.141,-374.881 803.568,-363.831 811.84,-355.066"/>
<polygon fill="midnightblue" stroke="midnightblue" points="814.418,-357.432 818.736,-347.757 809.327,-352.628 814.418,-357.432"/>
</g>
<!-- Node30 -->
<g id="node30" class="node"><title>Node30</title>
<g id="a_node30"><a xlink:href="../../dd/d26/Serializer_8h.html" target="_top" xlink:title="Templated boost serializer/deserializer for MID vectors. ">
<polygon fill="none" stroke="black" points="918,-328.5 918,-347.5 1028,-347.5 1028,-328.5 918,-328.5"/>
<text text-anchor="middle" x="973" y="-335.5" font-family="Helvetica,sans-Serif" font-size="10.00">MIDBase/Serializer.h</text>
</a>
</g>
</g>
<!-- Node1&#45;&gt;Node30 -->
<g id="edge33" class="edge"><title>Node1&#45;&gt;Node30</title>
<path fill="none" stroke="midnightblue" d="M835.096,-384.968C869.978,-373.341 909.796,-360.068 937.649,-350.784"/>
<polygon fill="midnightblue" stroke="midnightblue" points="938.958,-354.037 947.338,-347.554 936.744,-347.396 938.958,-354.037"/>
</g>
<!-- Node3 -->
<g id="node3" class="node"><title>Node3</title>
<polygon fill="none" stroke="#bfbfbf" points="491,-266.5 491,-285.5 579,-285.5 579,-266.5 491,-266.5"/>
<text text-anchor="middle" x="535" y="-273.5" font-family="Helvetica,sans-Serif" font-size="10.00">FairMQDevice.h</text>
</g>
<!-- Node2&#45;&gt;Node3 -->
<g id="edge2" class="edge"><title>Node2&#45;&gt;Node3</title>
<path fill="none" stroke="midnightblue" d="M579.55,-328.403C571.672,-319.314 559.055,-304.756 549.256,-293.449"/>
<polygon fill="midnightblue" stroke="midnightblue" points="551.631,-290.845 542.437,-285.581 546.341,-295.43 551.631,-290.845"/>
</g>
<!-- Node4 -->
<g id="node4" class="node"><title>Node4</title>
<g id="a_node4"><a xlink:href="../../db/d8e/MUON_2MID_2Tracking_2include_2MIDTracking_2Tracker_8h.html" target="_top" xlink:title="MIDTracking/Tracker.h">
<polygon fill="none" stroke="black" points="597.5,-266.5 597.5,-285.5 714.5,-285.5 714.5,-266.5 597.5,-266.5"/>
<text text-anchor="middle" x="656" y="-273.5" font-family="Helvetica,sans-Serif" font-size="10.00">MIDTracking/Tracker.h</text>
</a>
</g>
</g>
<!-- Node2&#45;&gt;Node4 -->
<g id="edge3" class="edge"><title>Node2&#45;&gt;Node4</title>
<path fill="none" stroke="midnightblue" d="M596.886,-328.403C607.646,-319.047 625.071,-303.895 638.221,-292.46"/>
<polygon fill="midnightblue" stroke="midnightblue" points="640.883,-294.784 646.132,-285.581 636.29,-289.501 640.883,-294.784"/>
</g>
<!-- Node5 -->
<g id="node5" class="node"><title>Node5</title>
<polygon fill="none" stroke="#bfbfbf" points="354,-204.5 354,-223.5 398,-223.5 398,-204.5 354,-204.5"/>
<text text-anchor="middle" x="376" y="-211.5" font-family="Helvetica,sans-Serif" font-size="10.00">vector</text>
</g>
<!-- Node4&#45;&gt;Node5 -->
<g id="edge4" class="edge"><title>Node4&#45;&gt;Node5</title>
<path fill="none" stroke="midnightblue" d="M617.341,-266.477C607.456,-264.33 596.84,-262.053 587,-260 510.256,-243.985 487.968,-243.412 408.298,-224.16"/>
<polygon fill="midnightblue" stroke="midnightblue" points="408.835,-220.688 398.29,-221.717 407.175,-227.489 408.835,-220.688"/>
</g>
<!-- Node6 -->
<g id="node6" class="node"><title>Node6</title>
<g id="a_node6"><a xlink:href="../../d6/d31/Cluster2D_8h.html" target="_top" xlink:title="Reconstructed cluster per RPC. ">
<polygon fill="none" stroke="black" points="416,-204.5 416,-223.5 564,-223.5 564,-204.5 416,-204.5"/>
<text text-anchor="middle" x="490" y="-211.5" font-family="Helvetica,sans-Serif" font-size="10.00">DataFormatsMID/Cluster2D.h</text>
</a>
</g>
</g>
<!-- Node4&#45;&gt;Node6 -->
<g id="edge5" class="edge"><title>Node4&#45;&gt;Node6</title>
<path fill="none" stroke="midnightblue" d="M632.216,-266.403C603.618,-256.067 555.449,-238.656 523.198,-226.999"/>
<polygon fill="midnightblue" stroke="midnightblue" points="524.334,-223.688 513.74,-223.581 521.954,-230.271 524.334,-223.688"/>
</g>
<!-- Node9 -->
<g id="node9" class="node"><title>Node9</title>
<g id="a_node9"><a xlink:href="../../d0/daa/Cluster3D_8h.html" target="_top" xlink:title="Reconstructed MID cluster (global coordinates) ">
<polygon fill="none" stroke="black" points="582,-204.5 582,-223.5 730,-223.5 730,-204.5 582,-204.5"/>
<text text-anchor="middle" x="656" y="-211.5" font-family="Helvetica,sans-Serif" font-size="10.00">DataFormatsMID/Cluster3D.h</text>
</a>
</g>
</g>
<!-- Node4&#45;&gt;Node9 -->
<g id="edge8" class="edge"><title>Node4&#45;&gt;Node9</title>
<path fill="none" stroke="midnightblue" d="M656,-266.403C656,-257.938 656,-244.728 656,-233.82"/>
<polygon fill="midnightblue" stroke="midnightblue" points="659.5,-233.581 656,-223.581 652.5,-233.581 659.5,-233.581"/>
</g>
<!-- Node22 -->
<g id="node22" class="node"><title>Node22</title>
<g id="a_node22"><a xlink:href="../../d4/d54/DataFormats_2Detectors_2MUON_2MID_2include_2DataFormatsMID_2Track_8h.html" target="_top" xlink:title="Reconstructed MID track. ">
<polygon fill="none" stroke="black" points="930,-204.5 930,-223.5 1058,-223.5 1058,-204.5 930,-204.5"/>
<text text-anchor="middle" x="994" y="-211.5" font-family="Helvetica,sans-Serif" font-size="10.00">DataFormatsMID/Track.h</text>
</a>
</g>
</g>
<!-- Node4&#45;&gt;Node22 -->
<g id="edge22" class="edge"><title>Node4&#45;&gt;Node22</title>
<path fill="none" stroke="midnightblue" d="M699.137,-266.426C710.168,-264.28 722.016,-262.017 733,-260 801.192,-247.481 879.599,-234.098 932.531,-225.212"/>
<polygon fill="midnightblue" stroke="midnightblue" points="933.155,-228.656 942.438,-223.551 931.997,-221.753 933.155,-228.656"/>
</g>
<!-- Node27 -->
<g id="node27" class="node"><title>Node27</title>
<g id="a_node27"><a xlink:href="../../de/d0c/GeometryTransformer_8h.html" target="_top" xlink:title="Geometry transformer for MID. ">
<polygon fill="none" stroke="black" points="748,-204.5 748,-223.5 912,-223.5 912,-204.5 748,-204.5"/>
<text text-anchor="middle" x="830" y="-211.5" font-family="Helvetica,sans-Serif" font-size="10.00">MIDBase/GeometryTransformer.h</text>
</a>
</g>
</g>
<!-- Node4&#45;&gt;Node27 -->
<g id="edge28" class="edge"><title>Node4&#45;&gt;Node27</title>
<path fill="none" stroke="midnightblue" d="M680.93,-266.403C711.036,-256.022 761.832,-238.506 795.638,-226.849"/>
<polygon fill="midnightblue" stroke="midnightblue" points="796.804,-230.149 805.116,-223.581 794.522,-223.532 796.804,-230.149"/>
</g>
<!-- Node7 -->
<g id="node7" class="node"><title>Node7</title>
<polygon fill="none" stroke="#bfbfbf" points="442.5,-137 442.5,-167 537.5,-167 537.5,-137 442.5,-137"/>
<text text-anchor="start" x="450.5" y="-155" font-family="Helvetica,sans-Serif" font-size="10.00">boost/serialization</text>
<text text-anchor="middle" x="490" y="-144" font-family="Helvetica,sans-Serif" font-size="10.00">/access.hpp</text>
</g>
<!-- Node6&#45;&gt;Node7 -->
<g id="edge6" class="edge"><title>Node6&#45;&gt;Node7</title>
<path fill="none" stroke="midnightblue" d="M490,-204.403C490,-197.341 490,-186.975 490,-177.399"/>
<polygon fill="midnightblue" stroke="midnightblue" points="493.5,-177.141 490,-167.141 486.5,-177.141 493.5,-177.141"/>
</g>
<!-- Node8 -->
<g id="node8" class="node"><title>Node8</title>
<polygon fill="none" stroke="#bfbfbf" points="594,-142.5 594,-161.5 640,-161.5 640,-142.5 594,-142.5"/>
<text text-anchor="middle" x="617" y="-149.5" font-family="Helvetica,sans-Serif" font-size="10.00">cstdint</text>
</g>
<!-- Node6&#45;&gt;Node8 -->
<g id="edge7" class="edge"><title>Node6&#45;&gt;Node8</title>
<path fill="none" stroke="midnightblue" d="M508.196,-204.403C529.509,-194.334 565.031,-177.552 589.663,-165.915"/>
<polygon fill="midnightblue" stroke="midnightblue" points="591.291,-169.017 598.838,-161.581 588.301,-162.688 591.291,-169.017"/>
</g>
<!-- Node9&#45;&gt;Node8 -->
<g id="edge9" class="edge"><title>Node9&#45;&gt;Node8</title>
<path fill="none" stroke="midnightblue" d="M650.412,-204.403C644.62,-195.493 635.411,-181.325 628.126,-170.118"/>
<polygon fill="midnightblue" stroke="midnightblue" points="630.962,-168.058 622.577,-161.581 625.093,-171.873 630.962,-168.058"/>
</g>
<!-- Node10 -->
<g id="node10" class="node"><title>Node10</title>
<g id="a_node10"><a xlink:href="../../dd/d76/Cartesian3D_8h.html" target="_top" xlink:title="MathUtils/Cartesian3D.h">
<polygon fill="none" stroke="black" points="721.5,-142.5 721.5,-161.5 846.5,-161.5 846.5,-142.5 721.5,-142.5"/>
<text text-anchor="middle" x="784" y="-149.5" font-family="Helvetica,sans-Serif" font-size="10.00">MathUtils/Cartesian3D.h</text>
</a>
</g>
</g>
<!-- Node9&#45;&gt;Node10 -->
<g id="edge10" class="edge"><title>Node9&#45;&gt;Node10</title>
<path fill="none" stroke="midnightblue" d="M674.339,-204.403C695.821,-194.334 731.622,-177.552 756.448,-165.915"/>
<polygon fill="midnightblue" stroke="midnightblue" points="758.126,-168.994 765.695,-161.581 755.155,-162.656 758.126,-168.994"/>
</g>
<!-- Node11 -->
<g id="node11" class="node"><title>Node11</title>
<polygon fill="none" stroke="#bfbfbf" points="-0.5,-69 -0.5,-99 150.5,-99 150.5,-69 -0.5,-69"/>
<text text-anchor="start" x="7.5" y="-87" font-family="Helvetica,sans-Serif" font-size="10.00">Math/GenVector/Displacement</text>
<text text-anchor="middle" x="75" y="-76" font-family="Helvetica,sans-Serif" font-size="10.00">Vector3D.h</text>
</g>
<!-- Node10&#45;&gt;Node11 -->
<g id="edge11" class="edge"><title>Node10&#45;&gt;Node11</title>
<path fill="none" stroke="midnightblue" d="M721.203,-143.532C698.475,-140.959 672.599,-138.179 649,-136 435.286,-116.267 377.971,-126.644 161.058,-100.047"/>
<polygon fill="midnightblue" stroke="midnightblue" points="161.297,-96.5497 150.942,-98.794 160.436,-103.497 161.297,-96.5497"/>
</g>
<!-- Node12 -->
<g id="node12" class="node"><title>Node12</title>
<polygon fill="none" stroke="#bfbfbf" points="169,-74.5 169,-93.5 345,-93.5 345,-74.5 169,-74.5"/>
<text text-anchor="middle" x="257" y="-81.5" font-family="Helvetica,sans-Serif" font-size="10.00">Math/GenVector/PositionVector3D.h</text>
</g>
<!-- Node10&#45;&gt;Node12 -->
<g id="edge12" class="edge"><title>Node10&#45;&gt;Node12</title>
<path fill="none" stroke="midnightblue" d="M721.341,-143.877C619.543,-132.255 422.61,-109.553 353,-100 342.124,-98.5074 330.574,-96.8043 319.395,-95.0942"/>
<polygon fill="midnightblue" stroke="midnightblue" points="319.68,-91.5968 309.263,-93.5275 318.611,-98.5146 319.68,-91.5968"/>
</g>
<!-- Node13 -->
<g id="node13" class="node"><title>Node13</title>
<polygon fill="none" stroke="#bfbfbf" points="362.5,-74.5 362.5,-93.5 511.5,-93.5 511.5,-74.5 362.5,-74.5"/>
<text text-anchor="middle" x="437" y="-81.5" font-family="Helvetica,sans-Serif" font-size="10.00">Math/GenVector/Rotation3D.h</text>
</g>
<!-- Node10&#45;&gt;Node13 -->
<g id="edge13" class="edge"><title>Node10&#45;&gt;Node13</title>
<path fill="none" stroke="midnightblue" d="M738.992,-142.439C675.676,-130.396 560.419,-108.475 492.07,-95.4745"/>
<polygon fill="midnightblue" stroke="midnightblue" points="492.407,-91.9758 481.929,-93.5455 491.099,-98.8525 492.407,-91.9758"/>
</g>
<!-- Node14 -->
<g id="node14" class="node"><title>Node14</title>
<polygon fill="none" stroke="#bfbfbf" points="530,-74.5 530,-93.5 686,-93.5 686,-74.5 530,-74.5"/>
<text text-anchor="middle" x="608" y="-81.5" font-family="Helvetica,sans-Serif" font-size="10.00">Math/GenVector/Transform3D.h</text>
</g>
<!-- Node10&#45;&gt;Node14 -->
<g id="edge14" class="edge"><title>Node10&#45;&gt;Node14</title>
<path fill="none" stroke="midnightblue" d="M760.991,-142.372C730.206,-130.827 675.447,-110.293 640.472,-97.1772"/>
<polygon fill="midnightblue" stroke="midnightblue" points="641.328,-93.76 630.736,-93.5259 638.87,-100.314 641.328,-93.76"/>
</g>
<!-- Node15 -->
<g id="node15" class="node"><title>Node15</title>
<polygon fill="none" stroke="#bfbfbf" points="704,-74.5 704,-93.5 864,-93.5 864,-74.5 704,-74.5"/>
<text text-anchor="middle" x="784" y="-81.5" font-family="Helvetica,sans-Serif" font-size="10.00">Math/GenVector/Translation3D.h</text>
</g>
<!-- Node10&#45;&gt;Node15 -->
<g id="edge15" class="edge"><title>Node10&#45;&gt;Node15</title>
<path fill="none" stroke="midnightblue" d="M784,-142.372C784,-132.643 784,-116.528 784,-103.85"/>
<polygon fill="midnightblue" stroke="midnightblue" points="787.5,-103.841 784,-93.8411 780.5,-103.841 787.5,-103.841"/>
</g>
<!-- Node16 -->
<g id="node16" class="node"><title>Node16</title>
<polygon fill="none" stroke="#bfbfbf" points="882,-74.5 882,-93.5 938,-93.5 938,-74.5 882,-74.5"/>
<text text-anchor="middle" x="910" y="-81.5" font-family="Helvetica,sans-Serif" font-size="10.00">Rtypes.h</text>
</g>
<!-- Node10&#45;&gt;Node16 -->
<g id="edge16" class="edge"><title>Node10&#45;&gt;Node16</title>
<path fill="none" stroke="midnightblue" d="M800.472,-142.372C821.885,-131.156 859.499,-111.453 884.583,-98.3136"/>
<polygon fill="midnightblue" stroke="midnightblue" points="886.289,-101.371 893.524,-93.6305 883.041,-95.1702 886.289,-101.371"/>
</g>
<!-- Node17 -->
<g id="node17" class="node"><title>Node17</title>
<polygon fill="none" stroke="#bfbfbf" points="956,-74.5 956,-93.5 1032,-93.5 1032,-74.5 956,-74.5"/>
<text text-anchor="middle" x="994" y="-81.5" font-family="Helvetica,sans-Serif" font-size="10.00">TGeoMatrix.h</text>
</g>
<!-- Node10&#45;&gt;Node17 -->
<g id="edge17" class="edge"><title>Node10&#45;&gt;Node17</title>
<path fill="none" stroke="midnightblue" d="M811.454,-142.372C848.737,-130.654 915.493,-109.674 957.119,-96.5912"/>
<polygon fill="midnightblue" stroke="midnightblue" points="958.382,-99.8632 966.872,-93.5259 956.283,-93.1852 958.382,-99.8632"/>
</g>
<!-- Node18 -->
<g id="node18" class="node"><title>Node18</title>
<polygon fill="none" stroke="#bfbfbf" points="1050.5,-74.5 1050.5,-93.5 1095.5,-93.5 1095.5,-74.5 1050.5,-74.5"/>
<text text-anchor="middle" x="1073" y="-81.5" font-family="Helvetica,sans-Serif" font-size="10.00">iosfwd</text>
</g>
<!-- Node10&#45;&gt;Node18 -->
<g id="edge18" class="edge"><title>Node10&#45;&gt;Node18</title>
<path fill="none" stroke="midnightblue" d="M824.346,-142.497C834.66,-140.35 845.736,-138.068 856,-136 938.115,-119.458 961.364,-125.973 1041,-100 1043.13,-99.3044 1045.31,-98.5015 1047.47,-97.6362"/>
<polygon fill="midnightblue" stroke="midnightblue" points="1048.96,-100.807 1056.71,-93.5819 1046.14,-94.3976 1048.96,-100.807"/>
</g>
<!-- Node19 -->
<g id="node19" class="node"><title>Node19</title>
<g id="a_node19"><a xlink:href="../../d2/dd0/Cartesian2D_8h.html" target="_top" xlink:title="MathUtils/Cartesian2D.h">
<polygon fill="none" stroke="black" points="1113.5,-74.5 1113.5,-93.5 1238.5,-93.5 1238.5,-74.5 1113.5,-74.5"/>
<text text-anchor="middle" x="1176" y="-81.5" font-family="Helvetica,sans-Serif" font-size="10.00">MathUtils/Cartesian2D.h</text>
</a>
</g>
</g>
<!-- Node10&#45;&gt;Node19 -->
<g id="edge19" class="edge"><title>Node10&#45;&gt;Node19</title>
<path fill="none" stroke="midnightblue" d="M822.777,-142.467C833.513,-140.229 845.186,-137.909 856,-136 965.681,-116.633 994.319,-119.367 1104,-100 1111.52,-98.6724 1119.45,-97.1465 1127.2,-95.5876"/>
<polygon fill="midnightblue" stroke="midnightblue" points="1128.13,-98.9698 1137.22,-93.5329 1126.72,-92.1124 1128.13,-98.9698"/>
</g>
<!-- Node20 -->
<g id="node20" class="node"><title>Node20</title>
<polygon fill="none" stroke="#bfbfbf" points="1009.5,-1 1009.5,-31 1160.5,-31 1160.5,-1 1009.5,-1"/>
<text text-anchor="start" x="1017.5" y="-19" font-family="Helvetica,sans-Serif" font-size="10.00">Math/GenVector/Displacement</text>
<text text-anchor="middle" x="1085" y="-8" font-family="Helvetica,sans-Serif" font-size="10.00">Vector2D.h</text>
</g>
<!-- Node19&#45;&gt;Node20 -->
<g id="edge20" class="edge"><title>Node19&#45;&gt;Node20</title>
<path fill="none" stroke="midnightblue" d="M1164.1,-74.3717C1151.22,-65.0286 1130.22,-49.7966 1113.09,-37.375"/>
<polygon fill="midnightblue" stroke="midnightblue" points="1114.7,-34.2194 1104.55,-31.1815 1110.59,-39.8859 1114.7,-34.2194"/>
</g>
<!-- Node21 -->
<g id="node21" class="node"><title>Node21</title>
<polygon fill="none" stroke="#bfbfbf" points="1179,-6.5 1179,-25.5 1355,-25.5 1355,-6.5 1179,-6.5"/>
<text text-anchor="middle" x="1267" y="-13.5" font-family="Helvetica,sans-Serif" font-size="10.00">Math/GenVector/PositionVector2D.h</text>
</g>
<!-- Node19&#45;&gt;Node21 -->
<g id="edge21" class="edge"><title>Node19&#45;&gt;Node21</title>
<path fill="none" stroke="midnightblue" d="M1187.9,-74.3717C1202.88,-63.5015 1228.86,-44.6602 1246.94,-31.5474"/>
<polygon fill="midnightblue" stroke="midnightblue" points="1249.06,-34.3349 1255.1,-25.6305 1244.95,-28.6684 1249.06,-34.3349"/>
</g>
<!-- Node22&#45;&gt;Node10 -->
<g id="edge27" class="edge"><title>Node22&#45;&gt;Node10</title>
<path fill="none" stroke="midnightblue" d="M963.912,-204.403C927.11,-193.889 864.689,-176.054 823.906,-164.402"/>
<polygon fill="midnightblue" stroke="midnightblue" points="824.609,-160.963 814.032,-161.581 822.686,-167.693 824.609,-160.963"/>
</g>
<!-- Node23 -->
<g id="node23" class="node"><title>Node23</title>
<polygon fill="none" stroke="#bfbfbf" points="865,-142.5 865,-161.5 903,-161.5 903,-142.5 865,-142.5"/>
<text text-anchor="middle" x="884" y="-149.5" font-family="Helvetica,sans-Serif" font-size="10.00">array</text>
</g>
<!-- Node22&#45;&gt;Node23 -->
<g id="edge23" class="edge"><title>Node22&#45;&gt;Node23</title>
<path fill="none" stroke="midnightblue" d="M978.24,-204.403C960.024,-194.468 929.827,-177.997 908.532,-166.381"/>
<polygon fill="midnightblue" stroke="midnightblue" points="910.186,-163.297 899.731,-161.581 906.834,-169.442 910.186,-163.297"/>
</g>
<!-- Node24 -->
<g id="node24" class="node"><title>Node24</title>
<polygon fill="none" stroke="#bfbfbf" points="921,-142.5 921,-161.5 973,-161.5 973,-142.5 921,-142.5"/>
<text text-anchor="middle" x="947" y="-149.5" font-family="Helvetica,sans-Serif" font-size="10.00">ostream</text>
</g>
<!-- Node22&#45;&gt;Node24 -->
<g id="edge24" class="edge"><title>Node22&#45;&gt;Node24</title>
<path fill="none" stroke="midnightblue" d="M987.266,-204.403C980.216,-195.403 968.965,-181.041 960.146,-169.782"/>
<polygon fill="midnightblue" stroke="midnightblue" points="962.643,-167.295 953.721,-161.581 957.133,-171.611 962.643,-167.295"/>
</g>
<!-- Node25 -->
<g id="node25" class="node"><title>Node25</title>
<polygon fill="none" stroke="#bfbfbf" points="991.5,-137 991.5,-167 1088.5,-167 1088.5,-137 991.5,-137"/>
<text text-anchor="start" x="999.5" y="-155" font-family="Helvetica,sans-Serif" font-size="10.00">boost/serialization</text>
<text text-anchor="middle" x="1040" y="-144" font-family="Helvetica,sans-Serif" font-size="10.00">/split_member.hpp</text>
</g>
<!-- Node22&#45;&gt;Node25 -->
<g id="edge25" class="edge"><title>Node22&#45;&gt;Node25</title>
<path fill="none" stroke="midnightblue" d="M1000.59,-204.403C1006.41,-196.809 1015.16,-185.396 1022.94,-175.252"/>
<polygon fill="midnightblue" stroke="midnightblue" points="1025.85,-177.206 1029.16,-167.141 1020.3,-172.947 1025.85,-177.206"/>
</g>
<!-- Node26 -->
<g id="node26" class="node"><title>Node26</title>
<polygon fill="none" stroke="#bfbfbf" points="1106.5,-137 1106.5,-167 1201.5,-167 1201.5,-137 1106.5,-137"/>
<text text-anchor="start" x="1114.5" y="-155" font-family="Helvetica,sans-Serif" font-size="10.00">boost/serialization</text>
<text text-anchor="middle" x="1154" y="-144" font-family="Helvetica,sans-Serif" font-size="10.00">/array.hpp</text>
</g>
<!-- Node22&#45;&gt;Node26 -->
<g id="edge26" class="edge"><title>Node22&#45;&gt;Node26</title>
<path fill="none" stroke="midnightblue" d="M1016.92,-204.403C1040.29,-195.641 1077.22,-181.794 1106.86,-170.679"/>
<polygon fill="midnightblue" stroke="midnightblue" points="1108.46,-173.814 1116.6,-167.025 1106.01,-167.259 1108.46,-173.814"/>
</g>
<!-- Node27&#45;&gt;Node10 -->
<g id="edge30" class="edge"><title>Node27&#45;&gt;Node10</title>
<path fill="none" stroke="midnightblue" d="M823.409,-204.403C816.509,-195.403 805.498,-181.041 796.866,-169.782"/>
<polygon fill="midnightblue" stroke="midnightblue" points="799.44,-167.387 790.578,-161.581 793.885,-171.646 799.44,-167.387"/>
</g>
<!-- Node27&#45;&gt;Node23 -->
<g id="edge29" class="edge"><title>Node27&#45;&gt;Node23</title>
<path fill="none" stroke="midnightblue" d="M837.737,-204.403C845.997,-195.225 859.277,-180.47 869.494,-169.117"/>
<polygon fill="midnightblue" stroke="midnightblue" points="872.189,-171.355 876.277,-161.581 866.986,-166.672 872.189,-171.355"/>
</g>
<!-- Node31 -->
<g id="node31" class="node"><title>Node31</title>
<polygon fill="none" stroke="#bfbfbf" points="977.5,-266.5 977.5,-285.5 1074.5,-285.5 1074.5,-266.5 977.5,-266.5"/>
<text text-anchor="middle" x="1026" y="-273.5" font-family="Helvetica,sans-Serif" font-size="10.00">FairMQMessage.h</text>
</g>
<!-- Node30&#45;&gt;Node31 -->
<g id="edge34" class="edge"><title>Node30&#45;&gt;Node31</title>
<path fill="none" stroke="midnightblue" d="M980.594,-328.403C988.701,-319.225 1001.73,-304.47 1011.76,-293.117"/>
<polygon fill="midnightblue" stroke="midnightblue" points="1014.42,-295.392 1018.42,-285.581 1009.18,-290.758 1014.42,-295.392"/>
</g>
<!-- Node32 -->
<g id="node32" class="node"><title>Node32</title>
<polygon fill="none" stroke="#bfbfbf" points="1093,-261 1093,-291 1197,-291 1197,-261 1093,-261"/>
<text text-anchor="start" x="1101" y="-279" font-family="Helvetica,sans-Serif" font-size="10.00">boost/archive/binary</text>
<text text-anchor="middle" x="1145" y="-268" font-family="Helvetica,sans-Serif" font-size="10.00">_iarchive.hpp</text>
</g>
<!-- Node30&#45;&gt;Node32 -->
<g id="edge35" class="edge"><title>Node30&#45;&gt;Node32</title>
<path fill="none" stroke="midnightblue" d="M997.643,-328.403C1022.98,-319.564 1063.15,-305.553 1095.15,-294.39"/>
<polygon fill="midnightblue" stroke="midnightblue" points="1096.5,-297.624 1104.79,-291.025 1094.2,-291.014 1096.5,-297.624"/>
</g>
<!-- Node33 -->
<g id="node33" class="node"><title>Node33</title>
<polygon fill="none" stroke="#bfbfbf" points="742,-261 742,-291 846,-291 846,-261 742,-261"/>
<text text-anchor="start" x="750" y="-279" font-family="Helvetica,sans-Serif" font-size="10.00">boost/archive/binary</text>
<text text-anchor="middle" x="794" y="-268" font-family="Helvetica,sans-Serif" font-size="10.00">_oarchive.hpp</text>
</g>
<!-- Node30&#45;&gt;Node33 -->
<g id="edge36" class="edge"><title>Node30&#45;&gt;Node33</title>
<path fill="none" stroke="midnightblue" d="M947.354,-328.403C920.87,-319.526 878.822,-305.432 845.449,-294.245"/>
<polygon fill="midnightblue" stroke="midnightblue" points="846.436,-290.885 835.842,-291.025 844.211,-297.522 846.436,-290.885"/>
</g>
<!-- Node34 -->
<g id="node34" class="node"><title>Node34</title>
<polygon fill="none" stroke="#bfbfbf" points="864.5,-261 864.5,-291 959.5,-291 959.5,-261 864.5,-261"/>
<text text-anchor="start" x="872.5" y="-279" font-family="Helvetica,sans-Serif" font-size="10.00">boost/serialization</text>
<text text-anchor="middle" x="912" y="-268" font-family="Helvetica,sans-Serif" font-size="10.00">/vector.hpp</text>
</g>
<!-- Node30&#45;&gt;Node34 -->
<g id="edge37" class="edge"><title>Node30&#45;&gt;Node34</title>
<path fill="none" stroke="midnightblue" d="M964.26,-328.403C956.307,-320.581 944.236,-308.708 933.698,-298.342"/>
<polygon fill="midnightblue" stroke="midnightblue" points="935.96,-295.658 926.376,-291.141 931.051,-300.648 935.96,-295.658"/>
</g>
</g>
</svg>
        <g id="navigator" transform="translate(0 0)" fill="#404254">
                <rect fill="#f2f5e9" fill-opacity="0.5" stroke="#606060" stroke-width=".5" x="0" y="0" width="60" height="60"/>
                <use id="zoomplus" xlink:href="#zoomPlus" x="17" y="9" onmousedown="handleZoom(evt,'in')"/>
                <use id="zoomminus" xlink:href="#zoomMin" x="42" y="9" onmousedown="handleZoom(evt,'out')"/>
                <use id="reset" xlink:href="#resetDef" x="30" y="36" onmousedown="handleReset()"/>
                <g id="arrowUp" xlink:href="#dirArrow" transform="translate(30 24)" onmousedown="handlePan(0,-1)">
                  <use xlink:href="#rim" fill="#404040">
                        <set attributeName="fill" to="#808080" begin="arrowUp.mouseover" end="arrowUp.mouseout"/>
                  </use>
                  <path fill="none" stroke="white" stroke-width="1.5" d="M0,-3.0v7 M-2.5,-0.5L0,-3.0L2.5,-0.5"/>
                </g>
                <g id="arrowRight" xlink:href="#dirArrow" transform="rotate(90) translate(36 -43)" onmousedown="handlePan(1,0)">
                  <use xlink:href="#rim" fill="#404040">
                        <set attributeName="fill" to="#808080" begin="arrowRight.mouseover" end="arrowRight.mouseout"/>
                  </use>
                  <path fill="none" stroke="white" stroke-width="1.5" d="M0,-3.0v7 M-2.5,-0.5L0,-3.0L2.5,-0.5"/>
                </g>
                <g id="arrowDown" xlink:href="#dirArrow" transform="rotate(180) translate(-30 -48)" onmousedown="handlePan(0,1)">
                  <use xlink:href="#rim" fill="#404040">
                        <set attributeName="fill" to="#808080" begin="arrowDown.mouseover" end="arrowDown.mouseout"/>
                  </use>
                  <path fill="none" stroke="white" stroke-width="1.5" d="M0,-3.0v7 M-2.5,-0.5L0,-3.0L2.5,-0.5"/>
                </g>
                <g id="arrowLeft" xlink:href="#dirArrow" transform="rotate(270) translate(-36 17)" onmousedown="handlePan(-1,0)">
                  <use xlink:href="#rim" fill="#404040">
                        <set attributeName="fill" to="#808080" begin="arrowLeft.mouseover" end="arrowLeft.mouseout"/>
                  </use>
                  <path fill="none" stroke="white" stroke-width="1.5" d="M0,-3.0v7 M-2.5,-0.5L0,-3.0L2.5,-0.5"/>
                </g>
        </g>
        <svg viewBox="0 0 15 15" width="100%" height="30px" preserveAspectRatio="xMaxYMin meet">
         <g id="arrow_out" transform="scale(0.3 0.3)">
          <a xlink:href="TrackerDevice_8cxx__incl_org.svg" target="_base">
           <rect id="button" ry="5" rx="5" y="6" x="6" height="38" width="38"
                fill="#f2f5e9" fill-opacity="0.5" stroke="#606060" stroke-width="1.0"/>
           <path id="arrow"
             d="M 11.500037,31.436501 C 11.940474,20.09759 22.043105,11.32322 32.158766,21.979434 L 37.068811,17.246167 C 37.068811,17.246167 37.088388,32 37.088388,32 L 22.160133,31.978069 C 22.160133,31.978069 26.997745,27.140456 26.997745,27.140456 C 18.528582,18.264221 13.291696,25.230495 11.500037,31.436501 z"
             style="fill:#404040;"/>
          </a>
         </g>
        </svg>
</svg>
