<?xml version="1.0" encoding="UTF-8" standalone="no"?>
<!DOCTYPE svg PUBLIC "-//W3C//DTD SVG 1.1//EN"
 "http://www.w3.org/Graphics/SVG/1.1/DTD/svg11.dtd">
<!-- Generated by graphviz version 2.36.0 (20140111.2315)
 -->
<!-- Title: /home/travis/build/AliceO2Group/AliceO2/Detectors/PHOS/testsimulation/run_digi_phos.C Pages: 1 -->
<!--zoomable 570 -->
<svg id="main" version="1.1" xmlns="http://www.w3.org/2000/svg" xmlns:xlink="http://www.w3.org/1999/xlink" xml:space="preserve" onload="init(evt)">
<style type="text/css"><![CDATA[
.edge:hover path { stroke: red; }
.edge:hover polygon { stroke: red; fill: red; }
]]></style>
<script type="text/javascript"><![CDATA[
var edges = document.getElementsByTagName('g');
if (edges && edges.length) {
  for (var i=0;i<edges.length;i++) {
    if (edges[i].id.substr(0,4)=='edge') {
      edges[i].setAttribute('class','edge');
    }
  }
}
]]></script>
        <defs>
                <circle id="rim" cx="0" cy="0" r="7"/>
                <circle id="rim2" cx="0" cy="0" r="3.5"/>
                <g id="zoomPlus">
                        <use xlink:href="#rim" fill="#404040">
                                <set attributeName="fill" to="#808080" begin="zoomplus.mouseover" end="zoomplus.mouseout"/>
                        </use>
                        <path d="M-4,0h8M0,-4v8" fill="none" stroke="white" stroke-width="1.5" pointer-events="none"/>
                </g>
                <g id="zoomMin">
                        <use xlink:href="#rim" fill="#404040">
                                <set attributeName="fill" to="#808080" begin="zoomminus.mouseover" end="zoomminus.mouseout"/>
                        </use>
                        <path d="M-4,0h8" fill="none" stroke="white" stroke-width="1.5" pointer-events="none"/>
                </g>
                <g id="dirArrow">
                        <path fill="none" stroke="white" stroke-width="1.5" d="M0,-3.0v7 M-2.5,-0.5L0,-3.0L2.5,-0.5"/>
                </g>
               <g id="resetDef">
                       <use xlink:href="#rim2" fill="#404040">
                               <set attributeName="fill" to="#808080" begin="reset.mouseover" end="reset.mouseout"/>
                       </use>
               </g>
        </defs>

<script type="text/javascript">
var viewWidth = 1962;
var viewHeight = 570;
var sectionId = 'dynsection-0';
</script>
<script xlink:href="../../svgpan.js"/>
<svg id="graph" class="graph">
<g id="viewport">
<title>/home/travis/build/AliceO2Group/AliceO2/Detectors/PHOS/testsimulation/run_digi_phos.C</title>
<!-- Node1 -->
<g id="node1" class="node"><title>Node1</title>
<polygon fill="#bfbfbf" stroke="black" points="275,-509 275,-561 433,-561 433,-509 275,-509"/>
<text text-anchor="start" x="283" y="-549" font-family="Helvetica,sans-Serif" font-size="10.00">/home/travis/build</text>
<text text-anchor="start" x="283" y="-538" font-family="Helvetica,sans-Serif" font-size="10.00">/AliceO2Group/AliceO2</text>
<text text-anchor="start" x="283" y="-527" font-family="Helvetica,sans-Serif" font-size="10.00">/Detectors/PHOS/testsimulation</text>
<text text-anchor="middle" x="354" y="-516" font-family="Helvetica,sans-Serif" font-size="10.00">/run_digi_phos.C</text>
</g>
<!-- Node2 -->
<g id="node2" class="node"><title>Node2</title>
<polygon fill="none" stroke="#bfbfbf" points="0,-446.5 0,-465.5 52,-465.5 52,-446.5 0,-446.5"/>
<text text-anchor="middle" x="26" y="-453.5" font-family="Helvetica,sans-Serif" font-size="10.00">sstream</text>
</g>
<!-- Node1&#45;&gt;Node2 -->
<g id="edge1" class="edge"><title>Node1&#45;&gt;Node2</title>
<path fill="none" stroke="midnightblue" d="M274.878,-521.6C215.29,-511.222 132.006,-494.488 61,-472 58.5736,-471.232 56.0854,-470.355 53.6088,-469.42"/>
<polygon fill="midnightblue" stroke="midnightblue" points="54.8528,-466.148 44.2706,-465.632 52.2213,-472.634 54.8528,-466.148"/>
</g>
<!-- Node3 -->
<g id="node3" class="node"><title>Node3</title>
<polygon fill="none" stroke="#bfbfbf" points="70.5,-446.5 70.5,-465.5 147.5,-465.5 147.5,-446.5 70.5,-446.5"/>
<text text-anchor="middle" x="109" y="-453.5" font-family="Helvetica,sans-Serif" font-size="10.00">TStopwatch.h</text>
</g>
<!-- Node1&#45;&gt;Node3 -->
<g id="edge2" class="edge"><title>Node1&#45;&gt;Node3</title>
<path fill="none" stroke="midnightblue" d="M274.794,-509.107C231.59,-495.528 180.14,-479.358 146.138,-468.672"/>
<polygon fill="midnightblue" stroke="midnightblue" points="146.764,-465.2 136.174,-465.54 144.665,-471.878 146.764,-465.2"/>
</g>
<!-- Node4 -->
<g id="node4" class="node"><title>Node4</title>
<polygon fill="none" stroke="#bfbfbf" points="166,-446.5 166,-465.5 254,-465.5 254,-446.5 166,-446.5"/>
<text text-anchor="middle" x="210" y="-453.5" font-family="Helvetica,sans-Serif" font-size="10.00">FairFileSource.h</text>
</g>
<!-- Node1&#45;&gt;Node4 -->
<g id="edge3" class="edge"><title>Node1&#45;&gt;Node4</title>
<path fill="none" stroke="midnightblue" d="M306.849,-508.787C282.883,-495.972 254.729,-480.918 234.973,-470.354"/>
<polygon fill="midnightblue" stroke="midnightblue" points="236.473,-467.187 226.004,-465.558 233.172,-473.36 236.473,-467.187"/>
</g>
<!-- Node5 -->
<g id="node5" class="node"><title>Node5</title>
<polygon fill="none" stroke="#bfbfbf" points="272.5,-446.5 272.5,-465.5 343.5,-465.5 343.5,-446.5 272.5,-446.5"/>
<text text-anchor="middle" x="308" y="-453.5" font-family="Helvetica,sans-Serif" font-size="10.00">FairLogger.h</text>
</g>
<!-- Node1&#45;&gt;Node5 -->
<g id="edge4" class="edge"><title>Node1&#45;&gt;Node5</title>
<path fill="none" stroke="midnightblue" d="M338.938,-508.787C332.187,-497.486 324.396,-484.445 318.321,-474.276"/>
<polygon fill="midnightblue" stroke="midnightblue" points="321.246,-472.347 313.112,-465.558 315.236,-475.937 321.246,-472.347"/>
</g>
<!-- Node6 -->
<g id="node6" class="node"><title>Node6</title>
<polygon fill="none" stroke="#bfbfbf" points="361.5,-446.5 361.5,-465.5 438.5,-465.5 438.5,-446.5 361.5,-446.5"/>
<text text-anchor="middle" x="400" y="-453.5" font-family="Helvetica,sans-Serif" font-size="10.00">FairRunAna.h</text>
</g>
<!-- Node1&#45;&gt;Node6 -->
<g id="edge5" class="edge"><title>Node1&#45;&gt;Node6</title>
<path fill="none" stroke="midnightblue" d="M369.062,-508.787C375.813,-497.486 383.604,-484.445 389.679,-474.276"/>
<polygon fill="midnightblue" stroke="midnightblue" points="392.764,-475.937 394.888,-465.558 386.754,-472.347 392.764,-475.937"/>
</g>
<!-- Node7 -->
<g id="node7" class="node"><title>Node7</title>
<polygon fill="none" stroke="#bfbfbf" points="456.5,-446.5 456.5,-465.5 557.5,-465.5 557.5,-446.5 456.5,-446.5"/>
<text text-anchor="middle" x="507" y="-453.5" font-family="Helvetica,sans-Serif" font-size="10.00">FairParRootFileIo.h</text>
</g>
<!-- Node1&#45;&gt;Node7 -->
<g id="edge6" class="edge"><title>Node1&#45;&gt;Node7</title>
<path fill="none" stroke="midnightblue" d="M404.098,-508.787C429.794,-495.855 460.02,-480.644 481.037,-470.067"/>
<polygon fill="midnightblue" stroke="midnightblue" points="482.637,-473.18 489.996,-465.558 479.49,-466.927 482.637,-473.18"/>
</g>
<!-- Node8 -->
<g id="node8" class="node"><title>Node8</title>
<polygon fill="none" stroke="#bfbfbf" points="576,-446.5 576,-465.5 668,-465.5 668,-446.5 576,-446.5"/>
<text text-anchor="middle" x="622" y="-453.5" font-family="Helvetica,sans-Serif" font-size="10.00">FairSystemInfo.h</text>
</g>
<!-- Node1&#45;&gt;Node8 -->
<g id="edge7" class="edge"><title>Node1&#45;&gt;Node8</title>
<path fill="none" stroke="midnightblue" d="M433.321,-511.21C482.449,-497.095 543.413,-479.579 582.511,-468.346"/>
<polygon fill="midnightblue" stroke="midnightblue" points="583.557,-471.687 592.202,-465.561 581.624,-464.959 583.557,-471.687"/>
</g>
<!-- Node9 -->
<g id="node9" class="node"><title>Node9</title>
<g id="a_node9"><a xlink:href="../../d2/d43/PHOS_2simulation_2include_2PHOSSimulation_2DigitizerTask_8h.html" target="_top" xlink:title="PHOSSimulation/Digitizer\lTask.h">
<polygon fill="none" stroke="black" points="686,-441 686,-471 816,-471 816,-441 686,-441"/>
<text text-anchor="start" x="694" y="-459" font-family="Helvetica,sans-Serif" font-size="10.00">PHOSSimulation/Digitizer</text>
<text text-anchor="middle" x="751" y="-448" font-family="Helvetica,sans-Serif" font-size="10.00">Task.h</text>
</a>
</g>
</g>
<!-- Node1&#45;&gt;Node9 -->
<g id="edge8" class="edge"><title>Node1&#45;&gt;Node9</title>
<path fill="none" stroke="midnightblue" d="M433.026,-519.067C496.083,-507.097 586.958,-489.725 675.671,-472.252"/>
<polygon fill="midnightblue" stroke="midnightblue" points="676.503,-475.656 685.637,-470.287 675.149,-468.788 676.503,-475.656"/>
</g>
<!-- Node10 -->
<g id="node10" class="node"><title>Node10</title>
<polygon fill="none" stroke="#bfbfbf" points="610.5,-384.5 610.5,-403.5 673.5,-403.5 673.5,-384.5 610.5,-384.5"/>
<text text-anchor="middle" x="642" y="-391.5" font-family="Helvetica,sans-Serif" font-size="10.00">FairTask.h</text>
</g>
<!-- Node9&#45;&gt;Node10 -->
<g id="edge9" class="edge"><title>Node9&#45;&gt;Node10</title>
<path fill="none" stroke="midnightblue" d="M725.444,-440.933C707.712,-431.171 684.22,-418.24 666.68,-408.586"/>
<polygon fill="midnightblue" stroke="midnightblue" points="668.072,-405.356 657.623,-403.6 664.696,-411.489 668.072,-405.356"/>
</g>
<!-- Node11 -->
<g id="node11" class="node"><title>Node11</title>
<polygon fill="none" stroke="#bfbfbf" points="716,-74.5 716,-93.5 772,-93.5 772,-74.5 716,-74.5"/>
<text text-anchor="middle" x="744" y="-81.5" font-family="Helvetica,sans-Serif" font-size="10.00">Rtypes.h</text>
</g>
<!-- Node9&#45;&gt;Node11 -->
<g id="edge10" class="edge"><title>Node9&#45;&gt;Node11</title>
<path fill="none" stroke="midnightblue" d="M740.608,-440.804C726.225,-419.714 702,-378.351 702,-339 702,-339 702,-339 702,-219 702,-175.716 722.2,-128.02 734.583,-102.849"/>
<polygon fill="midnightblue" stroke="midnightblue" points="737.772,-104.298 739.182,-93.7978 731.531,-101.127 737.772,-104.298"/>
</g>
<!-- Node12 -->
<g id="node12" class="node"><title>Node12</title>
<g id="a_node12"><a xlink:href="../../d1/def/PHOS_2base_2include_2PHOSBase_2Hit_8h.html" target="_top" xlink:title="PHOSBase/Hit.h">
<polygon fill="none" stroke="black" points="825,-272.5 825,-291.5 917,-291.5 917,-272.5 825,-272.5"/>
<text text-anchor="middle" x="871" y="-279.5" font-family="Helvetica,sans-Serif" font-size="10.00">PHOSBase/Hit.h</text>
</a>
</g>
</g>
<!-- Node9&#45;&gt;Node12 -->
<g id="edge11" class="edge"><title>Node9&#45;&gt;Node12</title>
<path fill="none" stroke="midnightblue" d="M816.319,-445.263C840.807,-438.09 866.249,-425.633 881,-404 902.197,-372.914 888.972,-326.351 879.023,-301.007"/>
<polygon fill="midnightblue" stroke="midnightblue" points="882.156,-299.427 875.069,-291.552 875.698,-302.128 882.156,-299.427"/>
</g>
<!-- Node25 -->
<g id="node25" class="node"><title>Node25</title>
<g id="a_node25"><a xlink:href="../../d6/d4b/PHOS_2simulation_2include_2PHOSSimulation_2Digitizer_8h.html" target="_top" xlink:title="PHOSSimulation/Digitizer.h">
<polygon fill="none" stroke="black" points="734,-384.5 734,-403.5 872,-403.5 872,-384.5 734,-384.5"/>
<text text-anchor="middle" x="803" y="-391.5" font-family="Helvetica,sans-Serif" font-size="10.00">PHOSSimulation/Digitizer.h</text>
</a>
</g>
</g>
<!-- Node9&#45;&gt;Node25 -->
<g id="edge25" class="edge"><title>Node9&#45;&gt;Node25</title>
<path fill="none" stroke="midnightblue" d="M763.323,-440.781C770.957,-431.972 780.791,-420.626 788.758,-411.433"/>
<polygon fill="midnightblue" stroke="midnightblue" points="791.529,-413.58 795.434,-403.731 786.239,-408.995 791.529,-413.58"/>
</g>
<!-- Node13 -->
<g id="node13" class="node"><title>Node13</title>
<g id="a_node13"><a xlink:href="../../d4/d25/BaseHits_8h.html" target="_top" xlink:title="SimulationDataFormat\l/BaseHits.h">
<polygon fill="none" stroke="black" points="1139,-205 1139,-235 1253,-235 1253,-205 1139,-205"/>
<text text-anchor="start" x="1147" y="-223" font-family="Helvetica,sans-Serif" font-size="10.00">SimulationDataFormat</text>
<text text-anchor="middle" x="1196" y="-212" font-family="Helvetica,sans-Serif" font-size="10.00">/BaseHits.h</text>
</a>
</g>
</g>
<!-- Node12&#45;&gt;Node13 -->
<g id="edge12" class="edge"><title>Node12&#45;&gt;Node13</title>
<path fill="none" stroke="midnightblue" d="M917.219,-272.467C972.53,-262.256 1065.58,-245.077 1128.83,-233.4"/>
<polygon fill="midnightblue" stroke="midnightblue" points="1129.52,-236.833 1138.72,-231.575 1128.25,-229.949 1129.52,-236.833"/>
</g>
<!-- Node14 -->
<g id="node14" class="node"><title>Node14</title>
<g id="a_node14"><a xlink:href="../../dd/d76/Cartesian3D_8h.html" target="_top" xlink:title="MathUtils/Cartesian3D.h">
<polygon fill="none" stroke="black" points="1254.5,-142.5 1254.5,-161.5 1379.5,-161.5 1379.5,-142.5 1254.5,-142.5"/>
<text text-anchor="middle" x="1317" y="-149.5" font-family="Helvetica,sans-Serif" font-size="10.00">MathUtils/Cartesian3D.h</text>
</a>
</g>
</g>
<!-- Node13&#45;&gt;Node14 -->
<g id="edge13" class="edge"><title>Node13&#45;&gt;Node14</title>
<path fill="none" stroke="midnightblue" d="M1221.96,-204.841C1242.7,-193.528 1271.59,-177.771 1292.06,-166.605"/>
<polygon fill="midnightblue" stroke="midnightblue" points="1293.98,-169.543 1301.08,-161.682 1290.63,-163.398 1293.98,-169.543"/>
</g>
<!-- Node14&#45;&gt;Node11 -->
<g id="edge19" class="edge"><title>Node14&#45;&gt;Node11</title>
<path fill="none" stroke="midnightblue" d="M1254.12,-150.881C1152.98,-149.391 948.519,-140.997 781,-100 777.935,-99.2498 774.789,-98.2919 771.689,-97.2241"/>
<polygon fill="midnightblue" stroke="midnightblue" points="772.685,-93.8579 762.095,-93.5573 770.186,-100.397 772.685,-93.8579"/>
</g>
<!-- Node15 -->
<g id="node15" class="node"><title>Node15</title>
<polygon fill="none" stroke="#bfbfbf" points="1803.5,-69 1803.5,-99 1954.5,-99 1954.5,-69 1803.5,-69"/>
<text text-anchor="start" x="1811.5" y="-87" font-family="Helvetica,sans-Serif" font-size="10.00">Math/GenVector/Displacement</text>
<text text-anchor="middle" x="1879" y="-76" font-family="Helvetica,sans-Serif" font-size="10.00">Vector3D.h</text>
</g>
<!-- Node14&#45;&gt;Node15 -->
<g id="edge14" class="edge"><title>Node14&#45;&gt;Node15</title>
<path fill="none" stroke="midnightblue" d="M1379.67,-145.671C1469.06,-137.767 1638.5,-121.66 1793.32,-100.032"/>
<polygon fill="midnightblue" stroke="midnightblue" points="1794.08,-103.459 1803.5,-98.599 1793.11,-96.5273 1794.08,-103.459"/>
</g>
<!-- Node16 -->
<g id="node16" class="node"><title>Node16</title>
<polygon fill="none" stroke="#bfbfbf" points="790,-74.5 790,-93.5 966,-93.5 966,-74.5 790,-74.5"/>
<text text-anchor="middle" x="878" y="-81.5" font-family="Helvetica,sans-Serif" font-size="10.00">Math/GenVector/PositionVector3D.h</text>
</g>
<!-- Node14&#45;&gt;Node16 -->
<g id="edge15" class="edge"><title>Node14&#45;&gt;Node16</title>
<path fill="none" stroke="midnightblue" d="M1259.2,-142.477C1191.18,-132.427 1074.86,-115.166 975,-100 964.595,-98.4197 953.564,-96.7288 942.816,-95.0727"/>
<polygon fill="midnightblue" stroke="midnightblue" points="943.044,-91.5665 932.627,-93.5003 941.976,-98.4846 943.044,-91.5665"/>
</g>
<!-- Node17 -->
<g id="node17" class="node"><title>Node17</title>
<polygon fill="none" stroke="#bfbfbf" points="983.5,-74.5 983.5,-93.5 1132.5,-93.5 1132.5,-74.5 983.5,-74.5"/>
<text text-anchor="middle" x="1058" y="-81.5" font-family="Helvetica,sans-Serif" font-size="10.00">Math/GenVector/Rotation3D.h</text>
</g>
<!-- Node14&#45;&gt;Node17 -->
<g id="edge16" class="edge"><title>Node14&#45;&gt;Node17</title>
<path fill="none" stroke="midnightblue" d="M1283.41,-142.439C1236.83,-130.57 1152.58,-109.103 1101.33,-96.0406"/>
<polygon fill="midnightblue" stroke="midnightblue" points="1102.09,-92.6233 1091.53,-93.5455 1100.36,-99.4066 1102.09,-92.6233"/>
</g>
<!-- Node18 -->
<g id="node18" class="node"><title>Node18</title>
<polygon fill="none" stroke="#bfbfbf" points="1151,-74.5 1151,-93.5 1307,-93.5 1307,-74.5 1151,-74.5"/>
<text text-anchor="middle" x="1229" y="-81.5" font-family="Helvetica,sans-Serif" font-size="10.00">Math/GenVector/Transform3D.h</text>
</g>
<!-- Node14&#45;&gt;Node18 -->
<g id="edge17" class="edge"><title>Node14&#45;&gt;Node18</title>
<path fill="none" stroke="midnightblue" d="M1305.5,-142.372C1291.13,-131.6 1266.34,-113.002 1248.88,-99.9065"/>
<polygon fill="midnightblue" stroke="midnightblue" points="1250.61,-96.8305 1240.51,-93.6305 1246.41,-102.431 1250.61,-96.8305"/>
</g>
<!-- Node19 -->
<g id="node19" class="node"><title>Node19</title>
<polygon fill="none" stroke="#bfbfbf" points="1325,-74.5 1325,-93.5 1485,-93.5 1485,-74.5 1325,-74.5"/>
<text text-anchor="middle" x="1405" y="-81.5" font-family="Helvetica,sans-Serif" font-size="10.00">Math/GenVector/Translation3D.h</text>
</g>
<!-- Node14&#45;&gt;Node19 -->
<g id="edge18" class="edge"><title>Node14&#45;&gt;Node19</title>
<path fill="none" stroke="midnightblue" d="M1328.5,-142.372C1342.87,-131.6 1367.66,-113.002 1385.12,-99.9065"/>
<polygon fill="midnightblue" stroke="midnightblue" points="1387.59,-102.431 1393.49,-93.6305 1383.39,-96.8305 1387.59,-102.431"/>
</g>
<!-- Node20 -->
<g id="node20" class="node"><title>Node20</title>
<polygon fill="none" stroke="#bfbfbf" points="1503,-74.5 1503,-93.5 1579,-93.5 1579,-74.5 1503,-74.5"/>
<text text-anchor="middle" x="1541" y="-81.5" font-family="Helvetica,sans-Serif" font-size="10.00">TGeoMatrix.h</text>
</g>
<!-- Node14&#45;&gt;Node20 -->
<g id="edge20" class="edge"><title>Node14&#45;&gt;Node20</title>
<path fill="none" stroke="midnightblue" d="M1347.77,-142.419C1383.14,-132.49 1442.9,-115.514 1494,-100 1497.57,-98.9161 1501.29,-97.7668 1505,-96.6057"/>
<polygon fill="midnightblue" stroke="midnightblue" points="1506.21,-99.8922 1514.69,-93.5413 1504.1,-93.2175 1506.21,-99.8922"/>
</g>
<!-- Node21 -->
<g id="node21" class="node"><title>Node21</title>
<polygon fill="none" stroke="#bfbfbf" points="1597.5,-74.5 1597.5,-93.5 1642.5,-93.5 1642.5,-74.5 1597.5,-74.5"/>
<text text-anchor="middle" x="1620" y="-81.5" font-family="Helvetica,sans-Serif" font-size="10.00">iosfwd</text>
</g>
<!-- Node14&#45;&gt;Node21 -->
<g id="edge21" class="edge"><title>Node14&#45;&gt;Node21</title>
<path fill="none" stroke="midnightblue" d="M1379.73,-143.764C1435.38,-136.274 1518.41,-122.46 1588,-100 1590.13,-99.311 1592.31,-98.5128 1594.48,-97.6508"/>
<polygon fill="midnightblue" stroke="midnightblue" points="1595.96,-100.823 1603.71,-93.6024 1593.15,-94.4116 1595.96,-100.823"/>
</g>
<!-- Node22 -->
<g id="node22" class="node"><title>Node22</title>
<g id="a_node22"><a xlink:href="../../d2/dd0/Cartesian2D_8h.html" target="_top" xlink:title="MathUtils/Cartesian2D.h">
<polygon fill="none" stroke="black" points="1660.5,-74.5 1660.5,-93.5 1785.5,-93.5 1785.5,-74.5 1660.5,-74.5"/>
<text text-anchor="middle" x="1723" y="-81.5" font-family="Helvetica,sans-Serif" font-size="10.00">MathUtils/Cartesian2D.h</text>
</a>
</g>
</g>
<!-- Node14&#45;&gt;Node22 -->
<g id="edge22" class="edge"><title>Node14&#45;&gt;Node22</title>
<path fill="none" stroke="midnightblue" d="M1379.65,-142.461C1446.89,-133.057 1556.76,-116.999 1651,-100 1658.43,-98.6604 1666.26,-97.1399 1673.92,-95.5933"/>
<polygon fill="midnightblue" stroke="midnightblue" points="1674.75,-98.9969 1683.84,-93.5583 1673.34,-92.1398 1674.75,-98.9969"/>
</g>
<!-- Node23 -->
<g id="node23" class="node"><title>Node23</title>
<polygon fill="none" stroke="#bfbfbf" points="1556.5,-1 1556.5,-31 1707.5,-31 1707.5,-1 1556.5,-1"/>
<text text-anchor="start" x="1564.5" y="-19" font-family="Helvetica,sans-Serif" font-size="10.00">Math/GenVector/Displacement</text>
<text text-anchor="middle" x="1632" y="-8" font-family="Helvetica,sans-Serif" font-size="10.00">Vector2D.h</text>
</g>
<!-- Node22&#45;&gt;Node23 -->
<g id="edge23" class="edge"><title>Node22&#45;&gt;Node23</title>
<path fill="none" stroke="midnightblue" d="M1711.1,-74.3717C1698.22,-65.0286 1677.22,-49.7966 1660.09,-37.375"/>
<polygon fill="midnightblue" stroke="midnightblue" points="1661.7,-34.2194 1651.55,-31.1815 1657.59,-39.8859 1661.7,-34.2194"/>
</g>
<!-- Node24 -->
<g id="node24" class="node"><title>Node24</title>
<polygon fill="none" stroke="#bfbfbf" points="1726,-6.5 1726,-25.5 1902,-25.5 1902,-6.5 1726,-6.5"/>
<text text-anchor="middle" x="1814" y="-13.5" font-family="Helvetica,sans-Serif" font-size="10.00">Math/GenVector/PositionVector2D.h</text>
</g>
<!-- Node22&#45;&gt;Node24 -->
<g id="edge24" class="edge"><title>Node22&#45;&gt;Node24</title>
<path fill="none" stroke="midnightblue" d="M1734.9,-74.3717C1749.88,-63.5015 1775.86,-44.6602 1793.94,-31.5474"/>
<polygon fill="midnightblue" stroke="midnightblue" points="1796.06,-34.3349 1802.1,-25.6305 1791.95,-28.6684 1796.06,-34.3349"/>
</g>
<!-- Node25&#45;&gt;Node12 -->
<g id="edge36" class="edge"><title>Node25&#45;&gt;Node12</title>
<path fill="none" stroke="midnightblue" d="M814.026,-384.438C824.106,-376.099 838.805,-362.578 848,-348 857.081,-333.604 863.169,-315.148 866.789,-301.583"/>
<polygon fill="midnightblue" stroke="midnightblue" points="870.27,-302.081 869.259,-291.535 863.473,-300.41 870.27,-302.081"/>
</g>
<!-- Node26 -->
<g id="node26" class="node"><title>Node26</title>
<g id="a_node26"><a xlink:href="../../d8/de9/PHOS_2base_2include_2PHOSBase_2Digit_8h.html" target="_top" xlink:title="PHOSBase/Digit.h">
<polygon fill="none" stroke="black" points="740.5,-328.5 740.5,-347.5 839.5,-347.5 839.5,-328.5 740.5,-328.5"/>
<text text-anchor="middle" x="790" y="-335.5" font-family="Helvetica,sans-Serif" font-size="10.00">PHOSBase/Digit.h</text>
</a>
</g>
</g>
<!-- Node25&#45;&gt;Node26 -->
<g id="edge26" class="edge"><title>Node25&#45;&gt;Node26</title>
<path fill="none" stroke="midnightblue" d="M800.853,-384.083C799.131,-376.927 796.653,-366.635 794.5,-357.691"/>
<polygon fill="midnightblue" stroke="midnightblue" points="797.85,-356.654 792.107,-347.751 791.045,-358.293 797.85,-356.654"/>
</g>
<!-- Node29 -->
<g id="node29" class="node"><title>Node29</title>
<g id="a_node29"><a xlink:href="../../d7/d7f/PHOS_2base_2include_2PHOSBase_2Geometry_8h.html" target="_top" xlink:title="PHOSBase/Geometry.h">
<polygon fill="none" stroke="black" points="948,-328.5 948,-347.5 1070,-347.5 1070,-328.5 948,-328.5"/>
<text text-anchor="middle" x="1009" y="-335.5" font-family="Helvetica,sans-Serif" font-size="10.00">PHOSBase/Geometry.h</text>
</a>
</g>
</g>
<!-- Node25&#45;&gt;Node29 -->
<g id="edge32" class="edge"><title>Node25&#45;&gt;Node29</title>
<path fill="none" stroke="midnightblue" d="M835.641,-384.444C871.05,-375.162 927.709,-360.309 966.553,-350.127"/>
<polygon fill="midnightblue" stroke="midnightblue" points="967.726,-353.438 976.511,-347.516 965.951,-346.667 967.726,-353.438"/>
</g>
<!-- Node26&#45;&gt;Node12 -->
<g id="edge31" class="edge"><title>Node26&#45;&gt;Node12</title>
<path fill="none" stroke="midnightblue" d="M803.014,-328.324C815.532,-319.979 834.682,-307.212 849.471,-297.352"/>
<polygon fill="midnightblue" stroke="midnightblue" points="851.639,-300.114 858.018,-291.655 847.756,-294.289 851.639,-300.114"/>
</g>
<!-- Node27 -->
<g id="node27" class="node"><title>Node27</title>
<g id="a_node27"><a xlink:href="../../df/d5d/common_2include_2CommonDataFormat_2TimeStamp_8h.html" target="_top" xlink:title="CommonDataFormat/TimeStamp.h">
<polygon fill="none" stroke="black" points="787,-210.5 787,-229.5 957,-229.5 957,-210.5 787,-210.5"/>
<text text-anchor="middle" x="872" y="-217.5" font-family="Helvetica,sans-Serif" font-size="10.00">CommonDataFormat/TimeStamp.h</text>
</a>
</g>
</g>
<!-- Node26&#45;&gt;Node27 -->
<g id="edge27" class="edge"><title>Node26&#45;&gt;Node27</title>
<path fill="none" stroke="midnightblue" d="M792.102,-328.403C795.572,-315.362 803.395,-290.178 816,-272 825.647,-258.087 839.755,-245.269 851.397,-235.963"/>
<polygon fill="midnightblue" stroke="midnightblue" points="853.555,-238.719 859.339,-229.843 849.282,-233.175 853.555,-238.719"/>
</g>
<!-- Node28 -->
<g id="node28" class="node"><title>Node28</title>
<g id="a_node28"><a xlink:href="../../d7/dcd/MCCompLabel_8h.html" target="_top" xlink:title="SimulationDataFormat\l/MCCompLabel.h">
<polygon fill="none" stroke="black" points="730,-137 730,-167 844,-167 844,-137 730,-137"/>
<text text-anchor="start" x="738" y="-155" font-family="Helvetica,sans-Serif" font-size="10.00">SimulationDataFormat</text>
<text text-anchor="middle" x="787" y="-144" font-family="Helvetica,sans-Serif" font-size="10.00">/MCCompLabel.h</text>
</a>
</g>
</g>
<!-- Node26&#45;&gt;Node28 -->
<g id="edge29" class="edge"><title>Node26&#45;&gt;Node28</title>
<path fill="none" stroke="midnightblue" d="M788.142,-328.287C783.846,-307.043 773.895,-250.884 778,-204 778.772,-195.183 780.281,-185.606 781.846,-177.157"/>
<polygon fill="midnightblue" stroke="midnightblue" points="785.309,-177.689 783.807,-167.201 778.441,-176.336 785.309,-177.689"/>
</g>
<!-- Node27&#45;&gt;Node11 -->
<g id="edge28" class="edge"><title>Node27&#45;&gt;Node11</title>
<path fill="none" stroke="midnightblue" d="M872.374,-210.172C872.601,-193.73 870.827,-158.085 853,-136 847.642,-129.362 804.755,-110.436 774.406,-97.6023"/>
<polygon fill="midnightblue" stroke="midnightblue" points="775.631,-94.3208 765.056,-93.673 772.919,-100.774 775.631,-94.3208"/>
</g>
<!-- Node28&#45;&gt;Node11 -->
<g id="edge30" class="edge"><title>Node28&#45;&gt;Node11</title>
<path fill="none" stroke="midnightblue" d="M777.67,-136.679C771.098,-126.592 762.264,-113.033 755.294,-102.335"/>
<polygon fill="midnightblue" stroke="midnightblue" points="758.143,-100.296 749.752,-93.8283 752.278,-104.118 758.143,-100.296"/>
</g>
<!-- Node30 -->
<g id="node30" class="node"><title>Node30</title>
<polygon fill="none" stroke="#bfbfbf" points="1006.5,-272.5 1006.5,-291.5 1047.5,-291.5 1047.5,-272.5 1006.5,-272.5"/>
<text text-anchor="middle" x="1027" y="-279.5" font-family="Helvetica,sans-Serif" font-size="10.00">string</text>
</g>
<!-- Node29&#45;&gt;Node30 -->
<g id="edge33" class="edge"><title>Node29&#45;&gt;Node30</title>
<path fill="none" stroke="midnightblue" d="M1011.97,-328.083C1014.38,-320.849 1017.86,-310.409 1020.87,-301.397"/>
<polygon fill="midnightblue" stroke="midnightblue" points="1024.24,-302.345 1024.08,-291.751 1017.6,-300.131 1024.24,-302.345"/>
</g>
<!-- Node31 -->
<g id="node31" class="node"><title>Node31</title>
<polygon fill="none" stroke="#bfbfbf" points="1066,-272.5 1066,-291.5 1146,-291.5 1146,-272.5 1066,-272.5"/>
<text text-anchor="middle" x="1106" y="-279.5" font-family="Helvetica,sans-Serif" font-size="10.00">RStringView.h</text>
</g>
<!-- Node29&#45;&gt;Node31 -->
<g id="edge34" class="edge"><title>Node29&#45;&gt;Node31</title>
<path fill="none" stroke="midnightblue" d="M1024.58,-328.324C1040,-319.743 1063.81,-306.486 1081.71,-296.522"/>
<polygon fill="midnightblue" stroke="midnightblue" points="1083.42,-299.577 1090.45,-291.655 1080.01,-293.461 1083.42,-299.577"/>
</g>
<!-- Node32 -->
<g id="node32" class="node"><title>Node32</title>
<polygon fill="none" stroke="#bfbfbf" points="935.5,-272.5 935.5,-291.5 988.5,-291.5 988.5,-272.5 935.5,-272.5"/>
<text text-anchor="middle" x="962" y="-279.5" font-family="Helvetica,sans-Serif" font-size="10.00">TMath.h</text>
</g>
<!-- Node29&#45;&gt;Node32 -->
<g id="edge35" class="edge"><title>Node29&#45;&gt;Node32</title>
<path fill="none" stroke="midnightblue" d="M1001.24,-328.083C994.463,-320.298 984.457,-308.801 976.245,-299.367"/>
<polygon fill="midnightblue" stroke="midnightblue" points="978.822,-296.996 969.617,-291.751 973.542,-301.592 978.822,-296.996"/>
</g>
</g>
</svg>
        <g id="navigator" transform="translate(0 0)" fill="#404254">
                <rect fill="#f2f5e9" fill-opacity="0.5" stroke="#606060" stroke-width=".5" x="0" y="0" width="60" height="60"/>
                <use id="zoomplus" xlink:href="#zoomPlus" x="17" y="9" onmousedown="handleZoom(evt,'in')"/>
                <use id="zoomminus" xlink:href="#zoomMin" x="42" y="9" onmousedown="handleZoom(evt,'out')"/>
                <use id="reset" xlink:href="#resetDef" x="30" y="36" onmousedown="handleReset()"/>
                <g id="arrowUp" xlink:href="#dirArrow" transform="translate(30 24)" onmousedown="handlePan(0,-1)">
                  <use xlink:href="#rim" fill="#404040">
                        <set attributeName="fill" to="#808080" begin="arrowUp.mouseover" end="arrowUp.mouseout"/>
                  </use>
                  <path fill="none" stroke="white" stroke-width="1.5" d="M0,-3.0v7 M-2.5,-0.5L0,-3.0L2.5,-0.5"/>
                </g>
                <g id="arrowRight" xlink:href="#dirArrow" transform="rotate(90) translate(36 -43)" onmousedown="handlePan(1,0)">
                  <use xlink:href="#rim" fill="#404040">
                        <set attributeName="fill" to="#808080" begin="arrowRight.mouseover" end="arrowRight.mouseout"/>
                  </use>
                  <path fill="none" stroke="white" stroke-width="1.5" d="M0,-3.0v7 M-2.5,-0.5L0,-3.0L2.5,-0.5"/>
                </g>
                <g id="arrowDown" xlink:href="#dirArrow" transform="rotate(180) translate(-30 -48)" onmousedown="handlePan(0,1)">
                  <use xlink:href="#rim" fill="#404040">
                        <set attributeName="fill" to="#808080" begin="arrowDown.mouseover" end="arrowDown.mouseout"/>
                  </use>
                  <path fill="none" stroke="white" stroke-width="1.5" d="M0,-3.0v7 M-2.5,-0.5L0,-3.0L2.5,-0.5"/>
                </g>
                <g id="arrowLeft" xlink:href="#dirArrow" transform="rotate(270) translate(-36 17)" onmousedown="handlePan(-1,0)">
                  <use xlink:href="#rim" fill="#404040">
                        <set attributeName="fill" to="#808080" begin="arrowLeft.mouseover" end="arrowLeft.mouseout"/>
                  </use>
                  <path fill="none" stroke="white" stroke-width="1.5" d="M0,-3.0v7 M-2.5,-0.5L0,-3.0L2.5,-0.5"/>
                </g>
        </g>
        <svg viewBox="0 0 15 15" width="100%" height="30px" preserveAspectRatio="xMaxYMin meet">
         <g id="arrow_out" transform="scale(0.3 0.3)">
          <a xlink:href="run__digi__phos_8C__incl_org.svg" target="_base">
           <rect id="button" ry="5" rx="5" y="6" x="6" height="38" width="38"
                fill="#f2f5e9" fill-opacity="0.5" stroke="#606060" stroke-width="1.0"/>
           <path id="arrow"
             d="M 11.500037,31.436501 C 11.940474,20.09759 22.043105,11.32322 32.158766,21.979434 L 37.068811,17.246167 C 37.068811,17.246167 37.088388,32 37.088388,32 L 22.160133,31.978069 C 22.160133,31.978069 26.997745,27.140456 26.997745,27.140456 C 18.528582,18.264221 13.291696,25.230495 11.500037,31.436501 z"
             style="fill:#404040;"/>
          </a>
         </g>
        </svg>
</svg>
