<?xml version="1.0" encoding="UTF-8" standalone="no"?>
<!DOCTYPE svg PUBLIC "-//W3C//DTD SVG 1.1//EN"
 "http://www.w3.org/Graphics/SVG/1.1/DTD/svg11.dtd">
<!-- Generated by graphviz version 2.36.0 (20140111.2315)
 -->
<!-- Title: /home/travis/build/AliceO2Group/AliceO2/Detectors/MUON/MCH/Mapping/SegContour/include/MCHMappingSegContour/SegmentationContours.h Pages: 1 -->
<svg width="964pt" height="364pt"
 viewBox="0.00 0.00 964.00 364.00" xmlns="http://www.w3.org/2000/svg" xmlns:xlink="http://www.w3.org/1999/xlink">
<g id="graph0" class="graph" transform="scale(1 1) rotate(0) translate(4 360)">
<title>/home/travis/build/AliceO2Group/AliceO2/Detectors/MUON/MCH/Mapping/SegContour/include/MCHMappingSegContour/SegmentationContours.h</title>
<!-- Node1 -->
<g id="node1" class="node"><title>Node1</title>
<polygon fill="#bfbfbf" stroke="black" points="407,-292.5 407,-355.5 627,-355.5 627,-292.5 407,-292.5"/>
<text text-anchor="start" x="415" y="-343.5" font-family="Helvetica,sans-Serif" font-size="10.00">/home/travis/build</text>
<text text-anchor="start" x="415" y="-332.5" font-family="Helvetica,sans-Serif" font-size="10.00">/AliceO2Group/AliceO2</text>
<text text-anchor="start" x="415" y="-321.5" font-family="Helvetica,sans-Serif" font-size="10.00">/Detectors/MUON/MCH/Mapping</text>
<text text-anchor="start" x="415" y="-310.5" font-family="Helvetica,sans-Serif" font-size="10.00">/SegContour/include/MCHMappingSegContour</text>
<text text-anchor="middle" x="517" y="-299.5" font-family="Helvetica,sans-Serif" font-size="10.00">/SegmentationContours.h</text>
</g>
<!-- Node2 -->
<g id="node2" class="node"><title>Node2</title>
<polygon fill="none" stroke="#bfbfbf" points="404,-112.5 404,-131.5 448,-131.5 448,-112.5 404,-112.5"/>
<text text-anchor="middle" x="426" y="-119.5" font-family="Helvetica,sans-Serif" font-size="10.00">vector</text>
</g>
<!-- Node1&#45;&gt;Node2 -->
<g id="edge1" class="edge"><title>Node1&#45;&gt;Node2</title>
<path fill="none" stroke="midnightblue" d="M477.097,-292.498C466.035,-282.093 455.121,-269.611 448,-256 428.626,-218.968 425.576,-168.884 425.503,-141.976"/>
<polygon fill="midnightblue" stroke="midnightblue" points="429.007,-141.711 425.623,-131.671 422.007,-141.629 429.007,-141.711"/>
</g>
<!-- Node3 -->
<g id="node3" class="node"><title>Node3</title>
<g id="a_node3"><a xlink:href="../../db/d08/Contour_8h.html" target="_top" xlink:title="MCHContour/Contour.h">
<polygon fill="none" stroke="black" points="457,-236.5 457,-255.5 577,-255.5 577,-236.5 457,-236.5"/>
<text text-anchor="middle" x="517" y="-243.5" font-family="Helvetica,sans-Serif" font-size="10.00">MCHContour/Contour.h</text>
</a>
</g>
</g>
<!-- Node1&#45;&gt;Node3 -->
<g id="edge2" class="edge"><title>Node1&#45;&gt;Node3</title>
<path fill="none" stroke="midnightblue" d="M517,-292.088C517,-283.15 517,-273.669 517,-265.719"/>
<polygon fill="midnightblue" stroke="midnightblue" points="520.5,-265.718 517,-255.718 513.5,-265.718 520.5,-265.718"/>
</g>
<!-- Node4 -->
<g id="node4" class="node"><title>Node4</title>
<g id="a_node4"><a xlink:href="../../dc/ddd/Polygon_8h.html" target="_top" xlink:title="Polygon.h">
<polygon fill="none" stroke="black" points="592,-174.5 592,-193.5 652,-193.5 652,-174.5 592,-174.5"/>
<text text-anchor="middle" x="622" y="-181.5" font-family="Helvetica,sans-Serif" font-size="10.00">Polygon.h</text>
</a>
</g>
</g>
<!-- Node1&#45;&gt;Node4 -->
<g id="edge24" class="edge"><title>Node1&#45;&gt;Node4</title>
<path fill="none" stroke="midnightblue" d="M552.401,-292.192C563.615,-281.414 575.542,-268.794 585,-256 597.234,-239.451 607.694,-218.295 614.339,-203.396"/>
<polygon fill="midnightblue" stroke="midnightblue" points="617.727,-204.378 618.474,-193.809 611.299,-201.605 617.727,-204.378"/>
</g>
<!-- Node10 -->
<g id="node10" class="node"><title>Node10</title>
<g id="a_node10"><a xlink:href="../../d0/ddc/BBox_8h.html" target="_top" xlink:title="BBox.h">
<polygon fill="none" stroke="black" points="870.5,-112.5 870.5,-131.5 919.5,-131.5 919.5,-112.5 870.5,-112.5"/>
<text text-anchor="middle" x="895" y="-119.5" font-family="Helvetica,sans-Serif" font-size="10.00">BBox.h</text>
</a>
</g>
</g>
<!-- Node1&#45;&gt;Node10 -->
<g id="edge25" class="edge"><title>Node1&#45;&gt;Node10</title>
<path fill="none" stroke="midnightblue" d="M574.822,-292.407C658.474,-248.146 809.781,-168.09 869.639,-136.419"/>
<polygon fill="midnightblue" stroke="midnightblue" points="871.556,-139.364 878.758,-131.593 868.282,-133.177 871.556,-139.364"/>
</g>
<!-- Node20 -->
<g id="node20" class="node"><title>Node20</title>
<g id="a_node20"><a xlink:href="../../d6/d1f/MUON_2MCH_2Mapping_2Interface_2include_2MCHMappingInterface_2Segmentation_8h.html" target="_top" xlink:title="MCHMappingInterface\l/Segmentation.h">
<polygon fill="none" stroke="black" points="224.5,-169 224.5,-199 339.5,-199 339.5,-169 224.5,-169"/>
<text text-anchor="start" x="232.5" y="-187" font-family="Helvetica,sans-Serif" font-size="10.00">MCHMappingInterface</text>
<text text-anchor="middle" x="282" y="-176" font-family="Helvetica,sans-Serif" font-size="10.00">/Segmentation.h</text>
</a>
</g>
</g>
<!-- Node1&#45;&gt;Node20 -->
<g id="edge26" class="edge"><title>Node1&#45;&gt;Node20</title>
<path fill="none" stroke="midnightblue" d="M464.846,-292.373C419.028,-265.468 353.774,-227.148 314.875,-204.305"/>
<polygon fill="midnightblue" stroke="midnightblue" points="316.447,-201.17 306.052,-199.124 312.902,-207.206 316.447,-201.17"/>
</g>
<!-- Node3&#45;&gt;Node2 -->
<g id="edge21" class="edge"><title>Node3&#45;&gt;Node2</title>
<path fill="none" stroke="midnightblue" d="M508.646,-236.354C500.274,-227.519 487.199,-213.255 477,-200 461.939,-180.426 446.539,-156.531 436.66,-140.601"/>
<polygon fill="midnightblue" stroke="midnightblue" points="439.487,-138.515 431.275,-131.821 433.52,-142.175 439.487,-138.515"/>
</g>
<!-- Node3&#45;&gt;Node4 -->
<g id="edge3" class="edge"><title>Node3&#45;&gt;Node4</title>
<path fill="none" stroke="midnightblue" d="M532.044,-236.403C549.275,-226.557 577.74,-210.291 598.034,-198.695"/>
<polygon fill="midnightblue" stroke="midnightblue" points="600.038,-201.581 606.984,-193.581 596.565,-195.503 600.038,-201.581"/>
</g>
<!-- Node7 -->
<g id="node7" class="node"><title>Node7</title>
<polygon fill="none" stroke="#bfbfbf" points="466.5,-112.5 466.5,-131.5 539.5,-131.5 539.5,-112.5 466.5,-112.5"/>
<text text-anchor="middle" x="503" y="-119.5" font-family="Helvetica,sans-Serif" font-size="10.00">initializer_list</text>
</g>
<!-- Node3&#45;&gt;Node7 -->
<g id="edge23" class="edge"><title>Node3&#45;&gt;Node7</title>
<path fill="none" stroke="midnightblue" d="M524.151,-236.364C530.773,-227.763 540.157,-213.873 544,-200 547.796,-186.294 549.136,-181.263 544,-168 539.546,-156.498 530.632,-146.131 522.251,-138.255"/>
<polygon fill="midnightblue" stroke="midnightblue" points="524.372,-135.46 514.541,-131.51 519.763,-140.729 524.372,-135.46"/>
</g>
<!-- Node19 -->
<g id="node19" class="node"><title>Node19</title>
<polygon fill="none" stroke="#bfbfbf" points="486.5,-174.5 486.5,-193.5 535.5,-193.5 535.5,-174.5 486.5,-174.5"/>
<text text-anchor="middle" x="511" y="-181.5" font-family="Helvetica,sans-Serif" font-size="10.00">cassert</text>
</g>
<!-- Node3&#45;&gt;Node19 -->
<g id="edge22" class="edge"><title>Node3&#45;&gt;Node19</title>
<path fill="none" stroke="midnightblue" d="M516.14,-236.403C515.294,-227.938 513.973,-214.728 512.882,-203.82"/>
<polygon fill="midnightblue" stroke="midnightblue" points="516.336,-203.183 511.858,-193.581 509.371,-203.879 516.336,-203.183"/>
</g>
<!-- Node4&#45;&gt;Node2 -->
<g id="edge6" class="edge"><title>Node4&#45;&gt;Node2</title>
<path fill="none" stroke="midnightblue" d="M593.918,-174.403C558.022,-163.415 496.012,-144.432 458.228,-132.866"/>
<polygon fill="midnightblue" stroke="midnightblue" points="458.842,-129.393 448.256,-129.813 456.793,-136.087 458.842,-129.393"/>
</g>
<!-- Node5 -->
<g id="node5" class="node"><title>Node5</title>
<polygon fill="none" stroke="#bfbfbf" points="541,-56.5 541,-75.5 595,-75.5 595,-56.5 541,-56.5"/>
<text text-anchor="middle" x="568" y="-63.5" font-family="Helvetica,sans-Serif" font-size="10.00">iostream</text>
</g>
<!-- Node4&#45;&gt;Node5 -->
<g id="edge4" class="edge"><title>Node4&#45;&gt;Node5</title>
<path fill="none" stroke="midnightblue" d="M614.897,-174.494C607.088,-164.769 594.64,-148.106 587,-132 579.914,-117.062 574.88,-98.9219 571.781,-85.6049"/>
<polygon fill="midnightblue" stroke="midnightblue" points="575.179,-84.7559 569.631,-75.7293 568.339,-86.245 575.179,-84.7559"/>
</g>
<!-- Node6 -->
<g id="node6" class="node"><title>Node6</title>
<polygon fill="none" stroke="#bfbfbf" points="812,-112.5 812,-131.5 852,-131.5 852,-112.5 812,-112.5"/>
<text text-anchor="middle" x="832" y="-119.5" font-family="Helvetica,sans-Serif" font-size="10.00">utility</text>
</g>
<!-- Node4&#45;&gt;Node6 -->
<g id="edge5" class="edge"><title>Node4&#45;&gt;Node6</title>
<path fill="none" stroke="midnightblue" d="M652.297,-174.569C688.102,-164.57 749.46,-147.323 802,-132 802.098,-131.971 802.196,-131.943 802.294,-131.914"/>
<polygon fill="midnightblue" stroke="midnightblue" points="803.08,-135.332 811.679,-129.142 801.097,-128.618 803.08,-135.332"/>
</g>
<!-- Node4&#45;&gt;Node7 -->
<g id="edge7" class="edge"><title>Node4&#45;&gt;Node7</title>
<path fill="none" stroke="midnightblue" d="M604.95,-174.403C585.156,-164.423 552.283,-147.849 529.23,-136.225"/>
<polygon fill="midnightblue" stroke="midnightblue" points="530.523,-132.958 520.018,-131.581 527.372,-139.208 530.523,-132.958"/>
</g>
<!-- Node8 -->
<g id="node8" class="node"><title>Node8</title>
<polygon fill="none" stroke="#bfbfbf" points="596,-112.5 596,-131.5 648,-131.5 648,-112.5 596,-112.5"/>
<text text-anchor="middle" x="622" y="-119.5" font-family="Helvetica,sans-Serif" font-size="10.00">sstream</text>
</g>
<!-- Node4&#45;&gt;Node8 -->
<g id="edge8" class="edge"><title>Node4&#45;&gt;Node8</title>
<path fill="none" stroke="midnightblue" d="M622,-174.403C622,-165.938 622,-152.728 622,-141.82"/>
<polygon fill="midnightblue" stroke="midnightblue" points="625.5,-141.581 622,-131.581 618.5,-141.581 625.5,-141.581"/>
</g>
<!-- Node9 -->
<g id="node9" class="node"><title>Node9</title>
<polygon fill="none" stroke="#bfbfbf" points="666,-112.5 666,-131.5 722,-131.5 722,-112.5 666,-112.5"/>
<text text-anchor="middle" x="694" y="-119.5" font-family="Helvetica,sans-Serif" font-size="10.00">algorithm</text>
</g>
<!-- Node4&#45;&gt;Node9 -->
<g id="edge9" class="edge"><title>Node4&#45;&gt;Node9</title>
<path fill="none" stroke="midnightblue" d="M632.316,-174.403C643.651,-164.958 662.073,-149.606 675.839,-138.134"/>
<polygon fill="midnightblue" stroke="midnightblue" points="678.262,-140.671 683.703,-131.581 673.78,-135.294 678.262,-140.671"/>
</g>
<!-- Node4&#45;&gt;Node10 -->
<g id="edge10" class="edge"><title>Node4&#45;&gt;Node10</title>
<path fill="none" stroke="midnightblue" d="M652.289,-177.027C695.985,-168.304 779.457,-151.244 860.309,-132.074"/>
<polygon fill="midnightblue" stroke="midnightblue" points="861.238,-135.451 870.153,-129.726 859.614,-128.642 861.238,-135.451"/>
</g>
<!-- Node17 -->
<g id="node17" class="node"><title>Node17</title>
<g id="a_node17"><a xlink:href="../../dd/dbc/Detectors_2MUON_2MCH_2Contour_2include_2MCHContour_2Vertex_8h.html" target="_top" xlink:title="Vertex.h">
<polygon fill="none" stroke="black" points="740.5,-112.5 740.5,-131.5 793.5,-131.5 793.5,-112.5 740.5,-112.5"/>
<text text-anchor="middle" x="767" y="-119.5" font-family="Helvetica,sans-Serif" font-size="10.00">Vertex.h</text>
</a>
</g>
</g>
<!-- Node4&#45;&gt;Node17 -->
<g id="edge17" class="edge"><title>Node4&#45;&gt;Node17</title>
<path fill="none" stroke="midnightblue" d="M642.775,-174.403C667.432,-164.2 708.745,-147.105 736.902,-135.454"/>
<polygon fill="midnightblue" stroke="midnightblue" points="738.362,-138.638 746.264,-131.581 735.685,-132.17 738.362,-138.638"/>
</g>
<!-- Node11 -->
<g id="node11" class="node"><title>Node11</title>
<g id="a_node11"><a xlink:href="../../d2/dc4/Helper_8h.html" target="_top" xlink:title="Helper.h">
<polygon fill="none" stroke="black" points="832.5,-56.5 832.5,-75.5 885.5,-75.5 885.5,-56.5 832.5,-56.5"/>
<text text-anchor="middle" x="859" y="-63.5" font-family="Helvetica,sans-Serif" font-size="10.00">Helper.h</text>
</a>
</g>
</g>
<!-- Node10&#45;&gt;Node11 -->
<g id="edge11" class="edge"><title>Node10&#45;&gt;Node11</title>
<path fill="none" stroke="midnightblue" d="M889.055,-112.083C884.023,-104.534 876.663,-93.4948 870.487,-84.2298"/>
<polygon fill="midnightblue" stroke="midnightblue" points="873.293,-82.1301 864.834,-75.7511 867.469,-86.0131 873.293,-82.1301"/>
</g>
<!-- Node15 -->
<g id="node15" class="node"><title>Node15</title>
<polygon fill="none" stroke="#bfbfbf" points="755.5,-56.5 755.5,-75.5 814.5,-75.5 814.5,-56.5 755.5,-56.5"/>
<text text-anchor="middle" x="785" y="-63.5" font-family="Helvetica,sans-Serif" font-size="10.00">stdexcept</text>
</g>
<!-- Node10&#45;&gt;Node15 -->
<g id="edge15" class="edge"><title>Node10&#45;&gt;Node15</title>
<path fill="none" stroke="midnightblue" d="M877.327,-112.324C859.606,-103.625 832.097,-90.1202 811.712,-80.113"/>
<polygon fill="midnightblue" stroke="midnightblue" points="813.149,-76.9195 802.63,-75.6545 810.064,-83.2031 813.149,-76.9195"/>
</g>
<!-- Node16 -->
<g id="node16" class="node"><title>Node16</title>
<polygon fill="none" stroke="#bfbfbf" points="904,-56.5 904,-75.5 956,-75.5 956,-56.5 904,-56.5"/>
<text text-anchor="middle" x="930" y="-63.5" font-family="Helvetica,sans-Serif" font-size="10.00">ostream</text>
</g>
<!-- Node10&#45;&gt;Node16 -->
<g id="edge16" class="edge"><title>Node10&#45;&gt;Node16</title>
<path fill="none" stroke="midnightblue" d="M900.78,-112.083C905.672,-104.534 912.827,-93.4948 918.833,-84.2298"/>
<polygon fill="midnightblue" stroke="midnightblue" points="921.826,-86.0463 924.328,-75.7511 915.952,-82.239 921.826,-86.0463"/>
</g>
<!-- Node12 -->
<g id="node12" class="node"><title>Node12</title>
<polygon fill="none" stroke="#bfbfbf" points="777,-0.5 777,-19.5 821,-19.5 821,-0.5 777,-0.5"/>
<text text-anchor="middle" x="799" y="-7.5" font-family="Helvetica,sans-Serif" font-size="10.00">cmath</text>
</g>
<!-- Node11&#45;&gt;Node12 -->
<g id="edge12" class="edge"><title>Node11&#45;&gt;Node12</title>
<path fill="none" stroke="midnightblue" d="M849.36,-56.324C840.49,-48.3414 827.125,-36.3128 816.392,-26.6529"/>
<polygon fill="midnightblue" stroke="midnightblue" points="818.59,-23.922 808.815,-19.8339 813.907,-29.1251 818.59,-23.922"/>
</g>
<!-- Node13 -->
<g id="node13" class="node"><title>Node13</title>
<polygon fill="none" stroke="#bfbfbf" points="839,-0.5 839,-19.5 879,-19.5 879,-0.5 839,-0.5"/>
<text text-anchor="middle" x="859" y="-7.5" font-family="Helvetica,sans-Serif" font-size="10.00">limits</text>
</g>
<!-- Node11&#45;&gt;Node13 -->
<g id="edge13" class="edge"><title>Node11&#45;&gt;Node13</title>
<path fill="none" stroke="midnightblue" d="M859,-56.083C859,-49.0059 859,-38.8611 859,-29.9865"/>
<polygon fill="midnightblue" stroke="midnightblue" points="862.5,-29.751 859,-19.7511 855.5,-29.7511 862.5,-29.751"/>
</g>
<!-- Node14 -->
<g id="node14" class="node"><title>Node14</title>
<polygon fill="none" stroke="#bfbfbf" points="897,-0.5 897,-19.5 943,-19.5 943,-0.5 897,-0.5"/>
<text text-anchor="middle" x="920" y="-7.5" font-family="Helvetica,sans-Serif" font-size="10.00">cstdint</text>
</g>
<!-- Node11&#45;&gt;Node14 -->
<g id="edge14" class="edge"><title>Node11&#45;&gt;Node14</title>
<path fill="none" stroke="midnightblue" d="M868.801,-56.324C877.818,-48.3414 891.406,-36.3128 902.318,-26.6529"/>
<polygon fill="midnightblue" stroke="midnightblue" points="904.853,-29.083 910.021,-19.8339 900.213,-23.8416 904.853,-29.083"/>
</g>
<!-- Node17&#45;&gt;Node5 -->
<g id="edge18" class="edge"><title>Node17&#45;&gt;Node5</title>
<path fill="none" stroke="midnightblue" d="M740.162,-113.717C705.223,-104.236 644.001,-87.6234 604.763,-76.976"/>
<polygon fill="midnightblue" stroke="midnightblue" points="605.616,-73.5808 595.048,-74.3398 603.783,-80.3365 605.616,-73.5808"/>
</g>
<!-- Node17&#45;&gt;Node11 -->
<g id="edge20" class="edge"><title>Node17&#45;&gt;Node11</title>
<path fill="none" stroke="midnightblue" d="M781.781,-112.324C796.267,-103.822 818.573,-90.7288 835.493,-80.7975"/>
<polygon fill="midnightblue" stroke="midnightblue" points="837.403,-83.735 844.255,-75.6545 833.859,-77.6981 837.403,-83.735"/>
</g>
<!-- Node18 -->
<g id="node18" class="node"><title>Node18</title>
<polygon fill="none" stroke="#bfbfbf" points="687,-56.5 687,-75.5 737,-75.5 737,-56.5 687,-56.5"/>
<text text-anchor="middle" x="712" y="-63.5" font-family="Helvetica,sans-Serif" font-size="10.00">iomanip</text>
</g>
<!-- Node17&#45;&gt;Node18 -->
<g id="edge19" class="edge"><title>Node17&#45;&gt;Node18</title>
<path fill="none" stroke="midnightblue" d="M757.918,-112.083C749.829,-104.141 737.805,-92.3354 728.09,-82.7973"/>
<polygon fill="midnightblue" stroke="midnightblue" points="730.501,-80.2595 720.913,-75.7511 725.597,-85.2545 730.501,-80.2595"/>
</g>
<!-- Node20&#45;&gt;Node2 -->
<g id="edge31" class="edge"><title>Node20&#45;&gt;Node2</title>
<path fill="none" stroke="midnightblue" d="M315.762,-168.933C340.056,-158.81 372.533,-145.278 395.936,-135.527"/>
<polygon fill="midnightblue" stroke="midnightblue" points="397.475,-138.677 405.36,-131.6 394.783,-132.215 397.475,-138.677"/>
</g>
<!-- Node20&#45;&gt;Node5 -->
<g id="edge30" class="edge"><title>Node20&#45;&gt;Node5</title>
<path fill="none" stroke="midnightblue" d="M300.597,-168.786C322.215,-152.882 359.479,-127.343 395,-112 439.86,-92.6236 494.983,-80.0589 530.774,-73.2569"/>
<polygon fill="midnightblue" stroke="midnightblue" points="531.581,-76.6672 540.779,-71.41 530.31,-69.7835 531.581,-76.6672"/>
</g>
<!-- Node20&#45;&gt;Node15 -->
<g id="edge28" class="edge"><title>Node20&#45;&gt;Node15</title>
<path fill="none" stroke="midnightblue" d="M249.201,-168.98C220.962,-155.026 187.586,-132.754 207,-112 246.362,-69.9215 652.136,-83.5432 745.306,-75.4992"/>
<polygon fill="midnightblue" stroke="midnightblue" points="745.738,-78.9727 755.283,-74.374 744.954,-72.0168 745.738,-78.9727"/>
</g>
<!-- Node21 -->
<g id="node21" class="node"><title>Node21</title>
<g id="a_node21"><a xlink:href="../../d0/d85/SegmentationCInterface_8h.html" target="_top" xlink:title="SegmentationCInterface.h">
<polygon fill="none" stroke="black" points="216.5,-112.5 216.5,-131.5 347.5,-131.5 347.5,-112.5 216.5,-112.5"/>
<text text-anchor="middle" x="282" y="-119.5" font-family="Helvetica,sans-Serif" font-size="10.00">SegmentationCInterface.h</text>
</a>
</g>
</g>
<!-- Node20&#45;&gt;Node21 -->
<g id="edge27" class="edge"><title>Node20&#45;&gt;Node21</title>
<path fill="none" stroke="midnightblue" d="M282,-168.781C282,-160.781 282,-150.689 282,-142.017"/>
<polygon fill="midnightblue" stroke="midnightblue" points="285.5,-141.73 282,-131.731 278.5,-141.731 285.5,-141.73"/>
</g>
<!-- Node22 -->
<g id="node22" class="node"><title>Node22</title>
<polygon fill="none" stroke="#bfbfbf" points="0,-112.5 0,-131.5 52,-131.5 52,-112.5 0,-112.5"/>
<text text-anchor="middle" x="26" y="-119.5" font-family="Helvetica,sans-Serif" font-size="10.00">memory</text>
</g>
<!-- Node20&#45;&gt;Node22 -->
<g id="edge29" class="edge"><title>Node20&#45;&gt;Node22</title>
<path fill="none" stroke="midnightblue" d="M224.207,-170.077C181.832,-160.506 122.658,-146.946 62.0866,-132.224"/>
<polygon fill="midnightblue" stroke="midnightblue" points="62.9001,-128.82 52.3556,-129.852 61.2421,-135.621 62.9001,-128.82"/>
</g>
<!-- Node23 -->
<g id="node23" class="node"><title>Node23</title>
<polygon fill="none" stroke="#bfbfbf" points="70,-112.5 70,-131.5 160,-131.5 160,-112.5 70,-112.5"/>
<text text-anchor="middle" x="115" y="-119.5" font-family="Helvetica,sans-Serif" font-size="10.00">boost/format.hpp</text>
</g>
<!-- Node20&#45;&gt;Node23 -->
<g id="edge32" class="edge"><title>Node20&#45;&gt;Node23</title>
<path fill="none" stroke="midnightblue" d="M242.846,-168.933C214.168,-158.629 175.659,-144.794 148.422,-135.008"/>
<polygon fill="midnightblue" stroke="midnightblue" points="149.531,-131.687 138.937,-131.6 147.164,-138.275 149.531,-131.687"/>
</g>
</g>
</svg>
