<?xml version="1.0" encoding="UTF-8" standalone="no"?>
<!DOCTYPE svg PUBLIC "-//W3C//DTD SVG 1.1//EN"
 "http://www.w3.org/Graphics/SVG/1.1/DTD/svg11.dtd">
<!-- Generated by graphviz version 2.36.0 (20140111.2315)
 -->
<!-- Title: /home/travis/build/AliceO2Group/AliceO2/Detectors/TPC/workflow/src/DigitReaderSpec.h Pages: 1 -->
<svg width="283pt" height="152pt"
 viewBox="0.00 0.00 283.00 152.00" xmlns="http://www.w3.org/2000/svg" xmlns:xlink="http://www.w3.org/1999/xlink">
<g id="graph0" class="graph" transform="scale(1 1) rotate(0) translate(4 148)">
<title>/home/travis/build/AliceO2Group/AliceO2/Detectors/TPC/workflow/src/DigitReaderSpec.h</title>
<!-- Node1 -->
<g id="node1" class="node"><title>Node1</title>
<polygon fill="#bfbfbf" stroke="black" points="73,-91 73,-143 201,-143 201,-91 73,-91"/>
<text text-anchor="start" x="81" y="-131" font-family="Helvetica,sans-Serif" font-size="10.00">/home/travis/build</text>
<text text-anchor="start" x="81" y="-120" font-family="Helvetica,sans-Serif" font-size="10.00">/AliceO2Group/AliceO2</text>
<text text-anchor="start" x="81" y="-109" font-family="Helvetica,sans-Serif" font-size="10.00">/Detectors/TPC/workflow</text>
<text text-anchor="middle" x="137" y="-98" font-family="Helvetica,sans-Serif" font-size="10.00">/src/DigitReaderSpec.h</text>
</g>
<!-- Node2 -->
<g id="node2" class="node"><title>Node2</title>
<g id="a_node2"><a xlink:href="../../d5/dce/DigitReaderSpec_8cxx.html" target="_top" xlink:title="Processor spec for a reader of TPC data from ROOT file. ">
<polygon fill="none" stroke="black" points="-0.5,-1 -0.5,-53 128.5,-53 128.5,-1 -0.5,-1"/>
<text text-anchor="start" x="7.5" y="-41" font-family="Helvetica,sans-Serif" font-size="10.00">/home/travis/build</text>
<text text-anchor="start" x="7.5" y="-30" font-family="Helvetica,sans-Serif" font-size="10.00">/AliceO2Group/AliceO2</text>
<text text-anchor="start" x="7.5" y="-19" font-family="Helvetica,sans-Serif" font-size="10.00">/Detectors/TPC/workflow</text>
<text text-anchor="middle" x="64" y="-8" font-family="Helvetica,sans-Serif" font-size="10.00">/src/DigitReaderSpec.cxx</text>
</a>
</g>
</g>
<!-- Node1&#45;&gt;Node2 -->
<g id="edge1" class="edge"><title>Node1&#45;&gt;Node2</title>
<path fill="none" stroke="midnightblue" d="M109.497,-82.8459C101.317,-72.9851 92.4942,-62.3492 84.8151,-53.0921"/>
<polygon fill="midnightblue" stroke="midnightblue" points="106.807,-85.0848 115.885,-90.5468 112.195,-80.6156 106.807,-85.0848"/>
</g>
<!-- Node3 -->
<g id="node3" class="node"><title>Node3</title>
<g id="a_node3"><a xlink:href="../../d5/d53/RecoWorkflow_8cxx.html" target="_top" xlink:title="Workflow definition for the TPC reconstruction. ">
<polygon fill="none" stroke="black" points="147,-1 147,-53 275,-53 275,-1 147,-1"/>
<text text-anchor="start" x="155" y="-41" font-family="Helvetica,sans-Serif" font-size="10.00">/home/travis/build</text>
<text text-anchor="start" x="155" y="-30" font-family="Helvetica,sans-Serif" font-size="10.00">/AliceO2Group/AliceO2</text>
<text text-anchor="start" x="155" y="-19" font-family="Helvetica,sans-Serif" font-size="10.00">/Detectors/TPC/workflow</text>
<text text-anchor="middle" x="211" y="-8" font-family="Helvetica,sans-Serif" font-size="10.00">/src/RecoWorkflow.cxx</text>
</a>
</g>
</g>
<!-- Node1&#45;&gt;Node3 -->
<g id="edge2" class="edge"><title>Node1&#45;&gt;Node3</title>
<path fill="none" stroke="midnightblue" d="M164.88,-82.8459C173.172,-72.9851 182.115,-62.3492 189.9,-53.0921"/>
<polygon fill="midnightblue" stroke="midnightblue" points="162.161,-80.6405 158.404,-90.5468 167.519,-85.1457 162.161,-80.6405"/>
</g>
</g>
</svg>
