<?xml version="1.0" encoding="UTF-8" standalone="no"?>
<!DOCTYPE svg PUBLIC "-//W3C//DTD SVG 1.1//EN"
 "http://www.w3.org/Graphics/SVG/1.1/DTD/svg11.dtd">
<!-- Generated by graphviz version 2.36.0 (20140111.2315)
 -->
<!-- Title: /home/travis/build/AliceO2Group/AliceO2/Detectors/ITSMFT/MFT/reconstruction/include/MFTReconstruction/Tracker.h Pages: 1 -->
<svg width="1958pt" height="536pt"
 viewBox="0.00 0.00 1958.00 536.00" xmlns="http://www.w3.org/2000/svg" xmlns:xlink="http://www.w3.org/1999/xlink">
<g id="graph0" class="graph" transform="scale(1 1) rotate(0) translate(4 532)">
<title>/home/travis/build/AliceO2Group/AliceO2/Detectors/ITSMFT/MFT/reconstruction/include/MFTReconstruction/Tracker.h</title>
<!-- Node1 -->
<g id="node1" class="node"><title>Node1</title>
<polygon fill="#bfbfbf" stroke="black" points="804,-464.5 804,-527.5 954,-527.5 954,-464.5 804,-464.5"/>
<text text-anchor="start" x="812" y="-515.5" font-family="Helvetica,sans-Serif" font-size="10.00">/home/travis/build</text>
<text text-anchor="start" x="812" y="-504.5" font-family="Helvetica,sans-Serif" font-size="10.00">/AliceO2Group/AliceO2</text>
<text text-anchor="start" x="812" y="-493.5" font-family="Helvetica,sans-Serif" font-size="10.00">/Detectors/ITSMFT/MFT</text>
<text text-anchor="start" x="812" y="-482.5" font-family="Helvetica,sans-Serif" font-size="10.00">/reconstruction/include</text>
<text text-anchor="middle" x="879" y="-471.5" font-family="Helvetica,sans-Serif" font-size="10.00">/MFTReconstruction/Tracker.h</text>
</g>
<!-- Node2 -->
<g id="node2" class="node"><title>Node2</title>
<polygon fill="none" stroke="#bfbfbf" points="553,-142.5 553,-161.5 597,-161.5 597,-142.5 553,-142.5"/>
<text text-anchor="middle" x="575" y="-149.5" font-family="Helvetica,sans-Serif" font-size="10.00">vector</text>
</g>
<!-- Node1&#45;&gt;Node2 -->
<g id="edge1" class="edge"><title>Node1&#45;&gt;Node2</title>
<path fill="none" stroke="midnightblue" d="M803.947,-480.427C703.273,-458.691 537,-414.144 537,-357 537,-357 537,-357 537,-287 537,-244.048 555.294,-196.189 566.496,-170.911"/>
<polygon fill="midnightblue" stroke="midnightblue" points="569.806,-172.09 570.788,-161.54 563.442,-169.174 569.806,-172.09"/>
</g>
<!-- Node3 -->
<g id="node3" class="node"><title>Node3</title>
<g id="a_node3"><a xlink:href="../../db/dd0/TrackMFT_8h.html" target="_top" xlink:title="DataFormatsMFT/TrackMFT.h">
<polygon fill="none" stroke="black" points="753,-408.5 753,-427.5 903,-427.5 903,-408.5 753,-408.5"/>
<text text-anchor="middle" x="828" y="-415.5" font-family="Helvetica,sans-Serif" font-size="10.00">DataFormatsMFT/TrackMFT.h</text>
</a>
</g>
</g>
<!-- Node1&#45;&gt;Node3 -->
<g id="edge2" class="edge"><title>Node1&#45;&gt;Node3</title>
<path fill="none" stroke="midnightblue" d="M858.256,-464.088C851.845,-454.533 845.017,-444.359 839.473,-436.097"/>
<polygon fill="midnightblue" stroke="midnightblue" points="842.329,-434.072 833.85,-427.718 836.516,-437.972 842.329,-434.072"/>
</g>
<!-- Node37 -->
<g id="node37" class="node"><title>Node37</title>
<g id="a_node37"><a xlink:href="../../dc/de5/Detectors_2ITSMFT_2MFT_2base_2include_2MFTBase_2Constants_8h.html" target="_top" xlink:title="MFTBase/Constants.h">
<polygon fill="none" stroke="black" points="1478,-346.5 1478,-365.5 1594,-365.5 1594,-346.5 1478,-346.5"/>
<text text-anchor="middle" x="1536" y="-353.5" font-family="Helvetica,sans-Serif" font-size="10.00">MFTBase/Constants.h</text>
</a>
</g>
</g>
<!-- Node1&#45;&gt;Node37 -->
<g id="edge52" class="edge"><title>Node1&#45;&gt;Node37</title>
<path fill="none" stroke="midnightblue" d="M895.458,-464.176C907.717,-444.527 926.391,-420.489 950,-408 994.848,-384.276 1323.21,-366.651 1467.87,-359.953"/>
<polygon fill="midnightblue" stroke="midnightblue" points="1468.14,-363.445 1477.97,-359.49 1467.82,-356.452 1468.14,-363.445"/>
</g>
<!-- Node38 -->
<g id="node38" class="node"><title>Node38</title>
<polygon fill="none" stroke="#bfbfbf" points="959.5,-408.5 959.5,-427.5 1096.5,-427.5 1096.5,-408.5 959.5,-408.5"/>
<text text-anchor="middle" x="1028" y="-415.5" font-family="Helvetica,sans-Serif" font-size="10.00">MFTBase/GeometryTGeo.h</text>
</g>
<!-- Node1&#45;&gt;Node38 -->
<g id="edge54" class="edge"><title>Node1&#45;&gt;Node38</title>
<path fill="none" stroke="midnightblue" d="M939.175,-464.307C961.118,-453.114 984.785,-441.043 1002.17,-432.177"/>
<polygon fill="midnightblue" stroke="midnightblue" points="1003.81,-435.268 1011.13,-427.607 1000.63,-429.033 1003.81,-435.268"/>
</g>
<!-- Node3&#45;&gt;Node2 -->
<g id="edge3" class="edge"><title>Node3&#45;&gt;Node2</title>
<path fill="none" stroke="midnightblue" d="M781.67,-408.397C727.256,-395.677 638.751,-366.283 594,-304 565.291,-264.044 568.294,-202.322 572.065,-171.639"/>
<polygon fill="midnightblue" stroke="midnightblue" points="575.563,-171.898 573.484,-161.509 568.631,-170.927 575.563,-171.898"/>
</g>
<!-- Node4 -->
<g id="node4" class="node"><title>Node4</title>
<g id="a_node4"><a xlink:href="../../d7/d8b/DataFormats_2Reconstruction_2include_2ReconstructionDataFormats_2Track_8h.html" target="_top" xlink:title="ReconstructionDataFormats\l/Track.h">
<polygon fill="none" stroke="black" points="965,-341 965,-371 1105,-371 1105,-341 965,-341"/>
<text text-anchor="start" x="973" y="-359" font-family="Helvetica,sans-Serif" font-size="10.00">ReconstructionDataFormats</text>
<text text-anchor="middle" x="1035" y="-348" font-family="Helvetica,sans-Serif" font-size="10.00">/Track.h</text>
</a>
</g>
</g>
<!-- Node3&#45;&gt;Node4 -->
<g id="edge4" class="edge"><title>Node3&#45;&gt;Node4</title>
<path fill="none" stroke="midnightblue" d="M857.658,-408.403C888.679,-399.412 938.164,-385.068 976.989,-373.815"/>
<polygon fill="midnightblue" stroke="midnightblue" points="977.982,-377.171 986.613,-371.025 976.034,-370.448 977.982,-377.171"/>
</g>
<!-- Node5 -->
<g id="node5" class="node"><title>Node5</title>
<polygon fill="none" stroke="#bfbfbf" points="1584,-74.5 1584,-93.5 1640,-93.5 1640,-74.5 1584,-74.5"/>
<text text-anchor="middle" x="1612" y="-81.5" font-family="Helvetica,sans-Serif" font-size="10.00">Rtypes.h</text>
</g>
<!-- Node4&#45;&gt;Node5 -->
<g id="edge5" class="edge"><title>Node4&#45;&gt;Node5</title>
<path fill="none" stroke="midnightblue" d="M1105.13,-354.752C1206.77,-350.948 1396.43,-330.511 1521,-236 1567.02,-201.081 1594.65,-135.57 1605.99,-103.559"/>
<polygon fill="midnightblue" stroke="midnightblue" points="1609.42,-104.333 1609.32,-93.7384 1602.79,-102.082 1609.42,-104.333"/>
</g>
<!-- Node6 -->
<g id="node6" class="node"><title>Node6</title>
<polygon fill="none" stroke="#bfbfbf" points="603,-278.5 603,-297.5 659,-297.5 659,-278.5 603,-278.5"/>
<text text-anchor="middle" x="631" y="-285.5" font-family="Helvetica,sans-Serif" font-size="10.00">algorithm</text>
</g>
<!-- Node4&#45;&gt;Node6 -->
<g id="edge6" class="edge"><title>Node4&#45;&gt;Node6</title>
<path fill="none" stroke="midnightblue" d="M964.989,-350.436C890.376,-344.38 769.286,-331.12 668,-304 665.016,-303.201 661.95,-302.226 658.921,-301.16"/>
<polygon fill="midnightblue" stroke="midnightblue" points="660.105,-297.865 649.515,-297.55 657.597,-304.401 660.105,-297.865"/>
</g>
<!-- Node7 -->
<g id="node7" class="node"><title>Node7</title>
<polygon fill="none" stroke="#bfbfbf" points="1563,-6.5 1563,-25.5 1601,-25.5 1601,-6.5 1563,-6.5"/>
<text text-anchor="middle" x="1582" y="-13.5" font-family="Helvetica,sans-Serif" font-size="10.00">array</text>
</g>
<!-- Node4&#45;&gt;Node7 -->
<g id="edge7" class="edge"><title>Node4&#45;&gt;Node7</title>
<path fill="none" stroke="midnightblue" d="M1105.16,-354.809C1269.97,-352.469 1668,-335.016 1668,-221 1668,-221 1668,-221 1668,-151 1668,-113.055 1668.63,-99.8495 1648,-68 1637.93,-52.446 1621.43,-39.6984 1607.45,-30.8381"/>
<polygon fill="midnightblue" stroke="midnightblue" points="1609.1,-27.7421 1598.72,-25.5866 1605.49,-33.7404 1609.1,-27.7421"/>
</g>
<!-- Node8 -->
<g id="node8" class="node"><title>Node8</title>
<polygon fill="none" stroke="#bfbfbf" points="677.5,-278.5 677.5,-297.5 718.5,-297.5 718.5,-278.5 677.5,-278.5"/>
<text text-anchor="middle" x="698" y="-285.5" font-family="Helvetica,sans-Serif" font-size="10.00">cfloat</text>
</g>
<!-- Node4&#45;&gt;Node8 -->
<g id="edge8" class="edge"><title>Node4&#45;&gt;Node8</title>
<path fill="none" stroke="midnightblue" d="M964.698,-349.344C901.539,-342.857 806.876,-329.626 728,-304 726.089,-303.379 724.149,-302.653 722.221,-301.862"/>
<polygon fill="midnightblue" stroke="midnightblue" points="723.433,-298.566 712.888,-297.543 720.493,-304.919 723.433,-298.566"/>
</g>
<!-- Node9 -->
<g id="node9" class="node"><title>Node9</title>
<polygon fill="none" stroke="#bfbfbf" points="1709,-6.5 1709,-25.5 1753,-25.5 1753,-6.5 1709,-6.5"/>
<text text-anchor="middle" x="1731" y="-13.5" font-family="Helvetica,sans-Serif" font-size="10.00">cmath</text>
</g>
<!-- Node4&#45;&gt;Node9 -->
<g id="edge9" class="edge"><title>Node4&#45;&gt;Node9</title>
<path fill="none" stroke="midnightblue" d="M1105.25,-352.013C1266.55,-344.822 1653.83,-325.539 1709,-304 1764.41,-282.366 1814,-280.486 1814,-221 1814,-221 1814,-221 1814,-151 1814,-113.157 1815.15,-100.033 1795,-68 1785.26,-52.5118 1769.12,-39.6996 1755.49,-30.7908"/>
<polygon fill="midnightblue" stroke="midnightblue" points="1757.32,-27.812 1746.98,-25.5113 1753.63,-33.7592 1757.32,-27.812"/>
</g>
<!-- Node10 -->
<g id="node10" class="node"><title>Node10</title>
<polygon fill="none" stroke="#bfbfbf" points="737,-278.5 737,-297.5 783,-297.5 783,-278.5 737,-278.5"/>
<text text-anchor="middle" x="760" y="-285.5" font-family="Helvetica,sans-Serif" font-size="10.00">cstring</text>
</g>
<!-- Node4&#45;&gt;Node10 -->
<g id="edge10" class="edge"><title>Node4&#45;&gt;Node10</title>
<path fill="none" stroke="midnightblue" d="M964.998,-344.727C915.824,-336.448 848.929,-323.031 792,-304 789.872,-303.289 787.7,-302.475 785.538,-301.602"/>
<polygon fill="midnightblue" stroke="midnightblue" points="786.872,-298.365 776.309,-297.533 784.048,-304.77 786.872,-298.365"/>
</g>
<!-- Node11 -->
<g id="node11" class="node"><title>Node11</title>
<polygon fill="none" stroke="#bfbfbf" points="53.5,-74.5 53.5,-93.5 98.5,-93.5 98.5,-74.5 53.5,-74.5"/>
<text text-anchor="middle" x="76" y="-81.5" font-family="Helvetica,sans-Serif" font-size="10.00">iosfwd</text>
</g>
<!-- Node4&#45;&gt;Node11 -->
<g id="edge11" class="edge"><title>Node4&#45;&gt;Node11</title>
<path fill="none" stroke="midnightblue" d="M1031.98,-340.93C1027.33,-322.585 1016.7,-290.645 996,-272 859.281,-148.874 785.195,-173.175 605,-136 387.666,-91.163 321.372,-157.352 107,-100 104.661,-99.3742 102.286,-98.571 99.9451,-97.6621"/>
<polygon fill="midnightblue" stroke="midnightblue" points="101.251,-94.4118 90.6937,-93.5155 98.3875,-100.8 101.251,-94.4118"/>
</g>
<!-- Node12 -->
<g id="node12" class="node"><title>Node12</title>
<polygon fill="none" stroke="#bfbfbf" points="801.5,-278.5 801.5,-297.5 884.5,-297.5 884.5,-278.5 801.5,-278.5"/>
<text text-anchor="middle" x="843" y="-285.5" font-family="Helvetica,sans-Serif" font-size="10.00">Math/SMatrix.h</text>
</g>
<!-- Node4&#45;&gt;Node12 -->
<g id="edge12" class="edge"><title>Node4&#45;&gt;Node12</title>
<path fill="none" stroke="midnightblue" d="M993.811,-340.841C959.161,-328.93 910.183,-312.094 877.549,-300.876"/>
<polygon fill="midnightblue" stroke="midnightblue" points="878.575,-297.528 867.98,-297.587 876.299,-304.148 878.575,-297.528"/>
</g>
<!-- Node13 -->
<g id="node13" class="node"><title>Node13</title>
<polygon fill="none" stroke="#bfbfbf" points="902.5,-278.5 902.5,-297.5 987.5,-297.5 987.5,-278.5 902.5,-278.5"/>
<text text-anchor="middle" x="945" y="-285.5" font-family="Helvetica,sans-Serif" font-size="10.00">Math/SVector.h</text>
</g>
<!-- Node4&#45;&gt;Node13 -->
<g id="edge13" class="edge"><title>Node4&#45;&gt;Node13</title>
<path fill="none" stroke="midnightblue" d="M1015.47,-340.679C1000.52,-329.713 979.97,-314.645 964.921,-303.609"/>
<polygon fill="midnightblue" stroke="midnightblue" points="966.913,-300.729 956.779,-297.638 962.773,-306.374 966.913,-300.729"/>
</g>
<!-- Node14 -->
<g id="node14" class="node"><title>Node14</title>
<g id="a_node14"><a xlink:href="../../d6/d84/MathConstants_8h.html" target="_top" xlink:title="useful math constants ">
<polygon fill="none" stroke="black" points="1771.5,-6.5 1771.5,-25.5 1950.5,-25.5 1950.5,-6.5 1771.5,-6.5"/>
<text text-anchor="middle" x="1861" y="-13.5" font-family="Helvetica,sans-Serif" font-size="10.00">CommonConstants/MathConstants.h</text>
</a>
</g>
</g>
<!-- Node4&#45;&gt;Node14 -->
<g id="edge14" class="edge"><title>Node4&#45;&gt;Node14</title>
<path fill="none" stroke="midnightblue" d="M1105.15,-352.718C1275.76,-346.796 1702.72,-329.589 1762,-304 1811.96,-282.435 1852,-275.413 1852,-221 1852,-221 1852,-221 1852,-151 1852,-109.954 1856.26,-61.9948 1858.91,-36.0394"/>
<polygon fill="midnightblue" stroke="midnightblue" points="1862.43,-36.0791 1860,-25.7661 1855.47,-35.3418 1862.43,-36.0791"/>
</g>
<!-- Node15 -->
<g id="node15" class="node"><title>Node15</title>
<g id="a_node15"><a xlink:href="../../dd/d76/Cartesian3D_8h.html" target="_top" xlink:title="MathUtils/Cartesian3D.h">
<polygon fill="none" stroke="black" points="1048.5,-142.5 1048.5,-161.5 1173.5,-161.5 1173.5,-142.5 1048.5,-142.5"/>
<text text-anchor="middle" x="1111" y="-149.5" font-family="Helvetica,sans-Serif" font-size="10.00">MathUtils/Cartesian3D.h</text>
</a>
</g>
</g>
<!-- Node4&#45;&gt;Node15 -->
<g id="edge15" class="edge"><title>Node4&#45;&gt;Node15</title>
<path fill="none" stroke="midnightblue" d="M1040.34,-340.796C1053.84,-304.93 1089.27,-210.75 1104.21,-171.054"/>
<polygon fill="midnightblue" stroke="midnightblue" points="1107.52,-172.189 1107.77,-161.597 1100.97,-169.724 1107.52,-172.189"/>
</g>
<!-- Node25 -->
<g id="node25" class="node"><title>Node25</title>
<g id="a_node25"><a xlink:href="../../d9/d52/Common_2MathUtils_2include_2MathUtils_2Utils_8h.html" target="_top" xlink:title="MathUtils/Utils.h">
<polygon fill="none" stroke="black" points="1696,-74.5 1696,-93.5 1786,-93.5 1786,-74.5 1696,-74.5"/>
<text text-anchor="middle" x="1741" y="-81.5" font-family="Helvetica,sans-Serif" font-size="10.00">MathUtils/Utils.h</text>
</a>
</g>
</g>
<!-- Node4&#45;&gt;Node25 -->
<g id="edge27" class="edge"><title>Node4&#45;&gt;Node25</title>
<path fill="none" stroke="midnightblue" d="M1105.14,-353.97C1263.5,-351.012 1638.39,-340.223 1682,-304 1742.89,-253.419 1744.53,-147.226 1742.43,-103.957"/>
<polygon fill="midnightblue" stroke="midnightblue" points="1745.92,-103.716 1741.82,-93.9488 1738.93,-104.144 1745.92,-103.716"/>
</g>
<!-- Node26 -->
<g id="node26" class="node"><title>Node26</title>
<g id="a_node26"><a xlink:href="../../d4/de2/BaseCluster_8h.html" target="_top" xlink:title="ReconstructionDataFormats\l/BaseCluster.h">
<polygon fill="none" stroke="black" points="1126,-273 1126,-303 1266,-303 1266,-273 1126,-273"/>
<text text-anchor="start" x="1134" y="-291" font-family="Helvetica,sans-Serif" font-size="10.00">ReconstructionDataFormats</text>
<text text-anchor="middle" x="1196" y="-280" font-family="Helvetica,sans-Serif" font-size="10.00">/BaseCluster.h</text>
</a>
</g>
</g>
<!-- Node4&#45;&gt;Node26 -->
<g id="edge31" class="edge"><title>Node4&#45;&gt;Node26</title>
<path fill="none" stroke="midnightblue" d="M1069.54,-340.841C1093.81,-330.89 1126.48,-317.5 1152.53,-306.822"/>
<polygon fill="midnightblue" stroke="midnightblue" points="1153.87,-310.053 1161.8,-303.022 1151.21,-303.576 1153.87,-310.053"/>
</g>
<!-- Node15&#45;&gt;Node5 -->
<g id="edge21" class="edge"><title>Node15&#45;&gt;Node5</title>
<path fill="none" stroke="midnightblue" d="M1173.53,-145.047C1290.94,-133.731 1536.03,-109.407 1574,-100 1577.07,-99.24 1580.22,-98.2901 1583.33,-97.2394"/>
<polygon fill="midnightblue" stroke="midnightblue" points="1584.84,-100.413 1592.99,-93.6489 1582.4,-93.8515 1584.84,-100.413"/>
</g>
<!-- Node15&#45;&gt;Node11 -->
<g id="edge23" class="edge"><title>Node15&#45;&gt;Node11</title>
<path fill="none" stroke="midnightblue" d="M1073.19,-142.435C1060.77,-139.943 1046.85,-137.492 1034,-136 829.221,-112.22 307.012,-149.952 107,-100 104.651,-99.4133 102.269,-98.6368 99.9236,-97.7452"/>
<polygon fill="midnightblue" stroke="midnightblue" points="101.225,-94.4934 90.6656,-93.6241 98.378,-100.888 101.225,-94.4934"/>
</g>
<!-- Node16 -->
<g id="node16" class="node"><title>Node16</title>
<polygon fill="none" stroke="#bfbfbf" points="259.5,-69 259.5,-99 410.5,-99 410.5,-69 259.5,-69"/>
<text text-anchor="start" x="267.5" y="-87" font-family="Helvetica,sans-Serif" font-size="10.00">Math/GenVector/Displacement</text>
<text text-anchor="middle" x="335" y="-76" font-family="Helvetica,sans-Serif" font-size="10.00">Vector3D.h</text>
</g>
<!-- Node15&#45;&gt;Node16 -->
<g id="edge16" class="edge"><title>Node15&#45;&gt;Node16</title>
<path fill="none" stroke="midnightblue" d="M1072.39,-142.428C1060.16,-139.998 1046.57,-137.585 1034,-136 766.102,-102.207 693.271,-131.083 421.117,-100.03"/>
<polygon fill="midnightblue" stroke="midnightblue" points="421.272,-96.5241 410.936,-98.8506 420.467,-103.478 421.272,-96.5241"/>
</g>
<!-- Node17 -->
<g id="node17" class="node"><title>Node17</title>
<polygon fill="none" stroke="#bfbfbf" points="429,-74.5 429,-93.5 605,-93.5 605,-74.5 429,-74.5"/>
<text text-anchor="middle" x="517" y="-81.5" font-family="Helvetica,sans-Serif" font-size="10.00">Math/GenVector/PositionVector3D.h</text>
</g>
<!-- Node15&#45;&gt;Node17 -->
<g id="edge17" class="edge"><title>Node15&#45;&gt;Node17</title>
<path fill="none" stroke="midnightblue" d="M1071.57,-142.476C1059.55,-140.107 1046.27,-137.715 1034,-136 848.013,-110.009 799.44,-122.509 613,-100 601.472,-98.6082 589.202,-96.8803 577.424,-95.0978"/>
<polygon fill="midnightblue" stroke="midnightblue" points="577.647,-91.5909 567.23,-93.5243 576.579,-98.5089 577.647,-91.5909"/>
</g>
<!-- Node18 -->
<g id="node18" class="node"><title>Node18</title>
<polygon fill="none" stroke="#bfbfbf" points="622.5,-74.5 622.5,-93.5 771.5,-93.5 771.5,-74.5 622.5,-74.5"/>
<text text-anchor="middle" x="697" y="-81.5" font-family="Helvetica,sans-Serif" font-size="10.00">Math/GenVector/Rotation3D.h</text>
</g>
<!-- Node15&#45;&gt;Node18 -->
<g id="edge18" class="edge"><title>Node15&#45;&gt;Node18</title>
<path fill="none" stroke="midnightblue" d="M1069.11,-142.437C1057.74,-140.222 1045.42,-137.923 1034,-136 922.001,-117.135 893.144,-117.986 781,-100 771.977,-98.5529 762.425,-96.9322 753.123,-95.3056"/>
<polygon fill="midnightblue" stroke="midnightblue" points="753.62,-91.8394 743.164,-93.5462 752.403,-98.7327 753.62,-91.8394"/>
</g>
<!-- Node19 -->
<g id="node19" class="node"><title>Node19</title>
<polygon fill="none" stroke="#bfbfbf" points="790,-74.5 790,-93.5 946,-93.5 946,-74.5 790,-74.5"/>
<text text-anchor="middle" x="868" y="-81.5" font-family="Helvetica,sans-Serif" font-size="10.00">Math/GenVector/Transform3D.h</text>
</g>
<!-- Node15&#45;&gt;Node19 -->
<g id="edge19" class="edge"><title>Node15&#45;&gt;Node19</title>
<path fill="none" stroke="midnightblue" d="M1079.23,-142.372C1035.63,-130.53 957.207,-109.229 909.159,-96.179"/>
<polygon fill="midnightblue" stroke="midnightblue" points="909.959,-92.7694 899.391,-93.5259 908.124,-99.5247 909.959,-92.7694"/>
</g>
<!-- Node20 -->
<g id="node20" class="node"><title>Node20</title>
<polygon fill="none" stroke="#bfbfbf" points="964,-74.5 964,-93.5 1124,-93.5 1124,-74.5 964,-74.5"/>
<text text-anchor="middle" x="1044" y="-81.5" font-family="Helvetica,sans-Serif" font-size="10.00">Math/GenVector/Translation3D.h</text>
</g>
<!-- Node15&#45;&gt;Node20 -->
<g id="edge20" class="edge"><title>Node15&#45;&gt;Node20</title>
<path fill="none" stroke="midnightblue" d="M1102.24,-142.372C1091.67,-131.955 1073.66,-114.217 1060.46,-101.216"/>
<polygon fill="midnightblue" stroke="midnightblue" points="1062.56,-98.3654 1052.98,-93.8411 1057.64,-103.352 1062.56,-98.3654"/>
</g>
<!-- Node21 -->
<g id="node21" class="node"><title>Node21</title>
<polygon fill="none" stroke="#bfbfbf" points="1142,-74.5 1142,-93.5 1218,-93.5 1218,-74.5 1142,-74.5"/>
<text text-anchor="middle" x="1180" y="-81.5" font-family="Helvetica,sans-Serif" font-size="10.00">TGeoMatrix.h</text>
</g>
<!-- Node15&#45;&gt;Node21 -->
<g id="edge22" class="edge"><title>Node15&#45;&gt;Node21</title>
<path fill="none" stroke="midnightblue" d="M1120.02,-142.372C1131.01,-131.856 1149.81,-113.882 1163.43,-100.85"/>
<polygon fill="midnightblue" stroke="midnightblue" points="1165.95,-103.283 1170.76,-93.8411 1161.11,-98.2241 1165.95,-103.283"/>
</g>
<!-- Node22 -->
<g id="node22" class="node"><title>Node22</title>
<g id="a_node22"><a xlink:href="../../d2/dd0/Cartesian2D_8h.html" target="_top" xlink:title="MathUtils/Cartesian2D.h">
<polygon fill="none" stroke="black" points="116.5,-74.5 116.5,-93.5 241.5,-93.5 241.5,-74.5 116.5,-74.5"/>
<text text-anchor="middle" x="179" y="-81.5" font-family="Helvetica,sans-Serif" font-size="10.00">MathUtils/Cartesian2D.h</text>
</a>
</g>
</g>
<!-- Node15&#45;&gt;Node22 -->
<g id="edge24" class="edge"><title>Node15&#45;&gt;Node22</title>
<path fill="none" stroke="midnightblue" d="M1073.18,-142.489C1060.76,-140 1046.85,-137.538 1034,-136 687.661,-94.5405 596,-144.196 250,-100 241.467,-98.91 232.435,-97.3344 223.777,-95.6097"/>
<polygon fill="midnightblue" stroke="midnightblue" points="224.341,-92.1522 213.837,-93.5367 222.912,-99.0047 224.341,-92.1522"/>
</g>
<!-- Node23 -->
<g id="node23" class="node"><title>Node23</title>
<polygon fill="none" stroke="#bfbfbf" points="194.5,-1 194.5,-31 345.5,-31 345.5,-1 194.5,-1"/>
<text text-anchor="start" x="202.5" y="-19" font-family="Helvetica,sans-Serif" font-size="10.00">Math/GenVector/Displacement</text>
<text text-anchor="middle" x="270" y="-8" font-family="Helvetica,sans-Serif" font-size="10.00">Vector2D.h</text>
</g>
<!-- Node22&#45;&gt;Node23 -->
<g id="edge25" class="edge"><title>Node22&#45;&gt;Node23</title>
<path fill="none" stroke="midnightblue" d="M190.897,-74.3717C203.779,-65.0286 224.78,-49.7966 241.907,-37.375"/>
<polygon fill="midnightblue" stroke="midnightblue" points="244.407,-39.8859 250.447,-31.1815 240.297,-34.2194 244.407,-39.8859"/>
</g>
<!-- Node24 -->
<g id="node24" class="node"><title>Node24</title>
<polygon fill="none" stroke="#bfbfbf" points="0,-6.5 0,-25.5 176,-25.5 176,-6.5 0,-6.5"/>
<text text-anchor="middle" x="88" y="-13.5" font-family="Helvetica,sans-Serif" font-size="10.00">Math/GenVector/PositionVector2D.h</text>
</g>
<!-- Node22&#45;&gt;Node24 -->
<g id="edge26" class="edge"><title>Node22&#45;&gt;Node24</title>
<path fill="none" stroke="midnightblue" d="M167.103,-74.3717C152.116,-63.5015 126.138,-44.6602 108.058,-31.5474"/>
<polygon fill="midnightblue" stroke="midnightblue" points="110.05,-28.6684 99.8996,-25.6305 105.94,-34.3349 110.05,-28.6684"/>
</g>
<!-- Node25&#45;&gt;Node7 -->
<g id="edge28" class="edge"><title>Node25&#45;&gt;Node7</title>
<path fill="none" stroke="midnightblue" d="M1720.21,-74.3717C1692.26,-62.7689 1642.43,-42.0841 1610.86,-28.9782"/>
<polygon fill="midnightblue" stroke="midnightblue" points="1611.88,-25.6117 1601.3,-25.0104 1609.19,-32.0769 1611.88,-25.6117"/>
</g>
<!-- Node25&#45;&gt;Node9 -->
<g id="edge29" class="edge"><title>Node25&#45;&gt;Node9</title>
<path fill="none" stroke="midnightblue" d="M1739.69,-74.3717C1738.22,-64.6426 1735.78,-48.528 1733.86,-35.8504"/>
<polygon fill="midnightblue" stroke="midnightblue" points="1737.3,-35.2039 1732.34,-25.8411 1730.38,-36.2526 1737.3,-35.2039"/>
</g>
<!-- Node25&#45;&gt;Node14 -->
<g id="edge30" class="edge"><title>Node25&#45;&gt;Node14</title>
<path fill="none" stroke="midnightblue" d="M1756.69,-74.3717C1776.99,-63.2051 1812.59,-43.6266 1836.48,-30.4876"/>
<polygon fill="midnightblue" stroke="midnightblue" points="1838.23,-33.5165 1845.31,-25.6305 1834.86,-27.3829 1838.23,-33.5165"/>
</g>
<!-- Node26&#45;&gt;Node11 -->
<g id="edge36" class="edge"><title>Node26&#45;&gt;Node11</title>
<path fill="none" stroke="midnightblue" d="M1169.24,-272.813C1151.85,-263.192 1128.97,-249.762 1110,-236 1082.72,-216.21 1027.29,-148.508 996,-136 812.407,-62.6126 298.786,-148.066 107,-100 104.651,-99.4113 102.27,-98.6335 99.9246,-97.7411"/>
<polygon fill="midnightblue" stroke="midnightblue" points="101.226,-94.4893 90.667,-93.6187 98.3784,-100.884 101.226,-94.4893"/>
</g>
<!-- Node26&#45;&gt;Node15 -->
<g id="edge51" class="edge"><title>Node26&#45;&gt;Node15</title>
<path fill="none" stroke="midnightblue" d="M1167.26,-272.905C1152.64,-264.256 1135.9,-251.797 1126,-236 1113.75,-216.459 1110.9,-189.546 1110.51,-171.729"/>
<polygon fill="midnightblue" stroke="midnightblue" points="1114.01,-171.513 1110.54,-161.502 1107.01,-171.492 1114.01,-171.513"/>
</g>
<!-- Node27 -->
<g id="node27" class="node"><title>Node27</title>
<polygon fill="none" stroke="#bfbfbf" points="1250.5,-210.5 1250.5,-229.5 1309.5,-229.5 1309.5,-210.5 1250.5,-210.5"/>
<text text-anchor="middle" x="1280" y="-217.5" font-family="Helvetica,sans-Serif" font-size="10.00">TObject.h</text>
</g>
<!-- Node26&#45;&gt;Node27 -->
<g id="edge32" class="edge"><title>Node26&#45;&gt;Node27</title>
<path fill="none" stroke="midnightblue" d="M1214.23,-272.679C1227.97,-261.879 1246.78,-247.098 1260.77,-236.11"/>
<polygon fill="midnightblue" stroke="midnightblue" points="1263.06,-238.759 1268.76,-229.828 1258.74,-233.254 1263.06,-238.759"/>
</g>
<!-- Node28 -->
<g id="node28" class="node"><title>Node28</title>
<polygon fill="none" stroke="#bfbfbf" points="1524.5,-74.5 1524.5,-93.5 1565.5,-93.5 1565.5,-74.5 1524.5,-74.5"/>
<text text-anchor="middle" x="1545" y="-81.5" font-family="Helvetica,sans-Serif" font-size="10.00">bitset</text>
</g>
<!-- Node26&#45;&gt;Node28 -->
<g id="edge33" class="edge"><title>Node26&#45;&gt;Node28</title>
<path fill="none" stroke="midnightblue" d="M1266.33,-281.664C1342.22,-274.747 1457.03,-260.561 1493,-236 1536.63,-206.209 1544.12,-137.117 1545.1,-103.729"/>
<polygon fill="midnightblue" stroke="midnightblue" points="1548.6,-103.572 1545.22,-93.5307 1541.6,-103.488 1548.6,-103.572"/>
</g>
<!-- Node29 -->
<g id="node29" class="node"><title>Node29</title>
<polygon fill="none" stroke="#bfbfbf" points="1135,-210.5 1135,-229.5 1185,-229.5 1185,-210.5 1135,-210.5"/>
<text text-anchor="middle" x="1160" y="-217.5" font-family="Helvetica,sans-Serif" font-size="10.00">iomanip</text>
</g>
<!-- Node26&#45;&gt;Node29 -->
<g id="edge34" class="edge"><title>Node26&#45;&gt;Node29</title>
<path fill="none" stroke="midnightblue" d="M1188.19,-272.679C1182.74,-262.694 1175.44,-249.307 1169.63,-238.66"/>
<polygon fill="midnightblue" stroke="midnightblue" points="1172.68,-236.931 1164.82,-229.828 1166.53,-240.283 1172.68,-236.931"/>
</g>
<!-- Node30 -->
<g id="node30" class="node"><title>Node30</title>
<polygon fill="none" stroke="#bfbfbf" points="1203.5,-210.5 1203.5,-229.5 1232.5,-229.5 1232.5,-210.5 1203.5,-210.5"/>
<text text-anchor="middle" x="1218" y="-217.5" font-family="Helvetica,sans-Serif" font-size="10.00">ios</text>
</g>
<!-- Node26&#45;&gt;Node30 -->
<g id="edge35" class="edge"><title>Node26&#45;&gt;Node30</title>
<path fill="none" stroke="midnightblue" d="M1200.77,-272.679C1204,-262.999 1208.29,-250.123 1211.79,-239.645"/>
<polygon fill="midnightblue" stroke="midnightblue" points="1215.22,-240.422 1215.06,-229.828 1208.57,-238.208 1215.22,-240.422"/>
</g>
<!-- Node31 -->
<g id="node31" class="node"><title>Node31</title>
<g id="a_node31"><a xlink:href="../../d4/d20/DetMatrixCache_8h.html" target="_top" xlink:title="DetectorsCommonDataFormats\l/DetMatrixCache.h">
<polygon fill="none" stroke="black" points="1328,-205 1328,-235 1484,-235 1484,-205 1328,-205"/>
<text text-anchor="start" x="1336" y="-223" font-family="Helvetica,sans-Serif" font-size="10.00">DetectorsCommonDataFormats</text>
<text text-anchor="middle" x="1406" y="-212" font-family="Helvetica,sans-Serif" font-size="10.00">/DetMatrixCache.h</text>
</a>
</g>
</g>
<!-- Node26&#45;&gt;Node31 -->
<g id="edge37" class="edge"><title>Node26&#45;&gt;Node31</title>
<path fill="none" stroke="midnightblue" d="M1240.79,-272.922C1273.14,-262.757 1316.99,-248.975 1351.39,-238.164"/>
<polygon fill="midnightblue" stroke="midnightblue" points="1352.79,-241.393 1361.28,-235.056 1350.69,-234.715 1352.79,-241.393"/>
</g>
<!-- Node31&#45;&gt;Node2 -->
<g id="edge40" class="edge"><title>Node31&#45;&gt;Node2</title>
<path fill="none" stroke="midnightblue" d="M1327.85,-205.26C1324.53,-204.808 1321.23,-204.385 1318,-204 1044.27,-171.36 711.132,-157.713 607.4,-154.063"/>
<polygon fill="midnightblue" stroke="midnightblue" points="607.377,-150.56 597.262,-153.712 607.135,-157.556 607.377,-150.56"/>
</g>
<!-- Node31&#45;&gt;Node5 -->
<g id="edge50" class="edge"><title>Node31&#45;&gt;Node5</title>
<path fill="none" stroke="midnightblue" d="M1455.59,-204.897C1480.42,-196.474 1510.17,-184.223 1534,-168 1561.11,-149.541 1585.83,-120.161 1599.88,-101.759"/>
<polygon fill="midnightblue" stroke="midnightblue" points="1602.72,-103.813 1605.88,-93.7033 1597.1,-99.6303 1602.72,-103.813"/>
</g>
<!-- Node31&#45;&gt;Node7 -->
<g id="edge39" class="edge"><title>Node31&#45;&gt;Node7</title>
<path fill="none" stroke="midnightblue" d="M1327.92,-205.639C1306.28,-198.119 1284.93,-186.366 1271,-168 1244.1,-132.523 1236.13,-101.892 1265,-68 1301.88,-24.7148 1481.32,-18.0305 1552.67,-17.1004"/>
<polygon fill="midnightblue" stroke="midnightblue" points="1552.8,-20.5993 1562.77,-16.9985 1552.73,-13.5997 1552.8,-20.5993"/>
</g>
<!-- Node31&#45;&gt;Node15 -->
<g id="edge49" class="edge"><title>Node31&#45;&gt;Node15</title>
<path fill="none" stroke="midnightblue" d="M1343.08,-204.922C1287.99,-192.597 1209.12,-174.952 1158.99,-163.736"/>
<polygon fill="midnightblue" stroke="midnightblue" points="1159.58,-160.282 1149.05,-161.514 1158.05,-167.113 1159.58,-160.282"/>
</g>
<!-- Node32 -->
<g id="node32" class="node"><title>Node32</title>
<polygon fill="none" stroke="#bfbfbf" points="1454.5,-142.5 1454.5,-161.5 1525.5,-161.5 1525.5,-142.5 1454.5,-142.5"/>
<text text-anchor="middle" x="1490" y="-149.5" font-family="Helvetica,sans-Serif" font-size="10.00">FairLogger.h</text>
</g>
<!-- Node31&#45;&gt;Node32 -->
<g id="edge38" class="edge"><title>Node31&#45;&gt;Node32</title>
<path fill="none" stroke="midnightblue" d="M1424.23,-204.679C1437.97,-193.879 1456.78,-179.098 1470.77,-168.11"/>
<polygon fill="midnightblue" stroke="midnightblue" points="1473.06,-170.759 1478.76,-161.828 1468.74,-165.254 1473.06,-170.759"/>
</g>
<!-- Node33 -->
<g id="node33" class="node"><title>Node33</title>
<g id="a_node33"><a xlink:href="../../d6/d31/DetID_8h.html" target="_top" xlink:title="DetectorsCommonDataFormats\l/DetID.h">
<polygon fill="none" stroke="black" points="1280,-137 1280,-167 1436,-167 1436,-137 1280,-137"/>
<text text-anchor="start" x="1288" y="-155" font-family="Helvetica,sans-Serif" font-size="10.00">DetectorsCommonDataFormats</text>
<text text-anchor="middle" x="1358" y="-144" font-family="Helvetica,sans-Serif" font-size="10.00">/DetID.h</text>
</a>
</g>
</g>
<!-- Node31&#45;&gt;Node33 -->
<g id="edge41" class="edge"><title>Node31&#45;&gt;Node33</title>
<path fill="none" stroke="midnightblue" d="M1395.58,-204.679C1389.42,-196.203 1381.47,-185.276 1374.48,-175.655"/>
<polygon fill="midnightblue" stroke="midnightblue" points="1377.11,-173.322 1368.39,-167.293 1371.45,-177.439 1377.11,-173.322"/>
</g>
<!-- Node33&#45;&gt;Node5 -->
<g id="edge42" class="edge"><title>Node33&#45;&gt;Node5</title>
<path fill="none" stroke="midnightblue" d="M1428.73,-136.991C1471.25,-127.907 1526.21,-114.99 1574,-100 1576.64,-99.1729 1579.35,-98.25 1582.06,-97.2797"/>
<polygon fill="midnightblue" stroke="midnightblue" points="1583.57,-100.452 1591.68,-93.6441 1581.09,-93.9039 1583.57,-100.452"/>
</g>
<!-- Node33&#45;&gt;Node7 -->
<g id="edge43" class="edge"><title>Node33&#45;&gt;Node7</title>
<path fill="none" stroke="midnightblue" d="M1397.89,-136.97C1421.42,-127.92 1451.32,-115.046 1476,-100 1495.14,-88.3277 1497.41,-81.9036 1515,-68 1530.8,-55.5074 1549.01,-41.6853 1562.45,-31.5855"/>
<polygon fill="midnightblue" stroke="midnightblue" points="1564.62,-34.3349 1570.52,-25.5374 1560.42,-28.7331 1564.62,-34.3349"/>
</g>
<!-- Node33&#45;&gt;Node25 -->
<g id="edge48" class="edge"><title>Node33&#45;&gt;Node25</title>
<path fill="none" stroke="midnightblue" d="M1436.25,-137.507C1439.21,-136.998 1442.13,-136.495 1445,-136 1529.04,-121.515 1626.5,-104.724 1685.94,-94.4843"/>
<polygon fill="midnightblue" stroke="midnightblue" points="1686.61,-97.9216 1695.87,-92.7747 1685.42,-91.0232 1686.61,-97.9216"/>
</g>
<!-- Node33&#45;&gt;Node28 -->
<g id="edge44" class="edge"><title>Node33&#45;&gt;Node28</title>
<path fill="none" stroke="midnightblue" d="M1402.9,-136.993C1433.34,-127.238 1474.37,-113.587 1510,-100 1512.11,-99.1962 1514.28,-98.3401 1516.45,-97.4601"/>
<polygon fill="midnightblue" stroke="midnightblue" points="1517.98,-100.616 1525.86,-93.5353 1515.28,-94.1551 1517.98,-100.616"/>
</g>
<!-- Node34 -->
<g id="node34" class="node"><title>Node34</title>
<polygon fill="none" stroke="#bfbfbf" points="1274.5,-74.5 1274.5,-93.5 1323.5,-93.5 1323.5,-74.5 1274.5,-74.5"/>
<text text-anchor="middle" x="1299" y="-81.5" font-family="Helvetica,sans-Serif" font-size="10.00">cassert</text>
</g>
<!-- Node33&#45;&gt;Node34 -->
<g id="edge45" class="edge"><title>Node33&#45;&gt;Node34</title>
<path fill="none" stroke="midnightblue" d="M1345.2,-136.679C1335.91,-126.286 1323.32,-112.208 1313.63,-101.37"/>
<polygon fill="midnightblue" stroke="midnightblue" points="1316.17,-98.9511 1306.89,-93.8283 1310.95,-103.616 1316.17,-98.9511"/>
</g>
<!-- Node35 -->
<g id="node35" class="node"><title>Node35</title>
<polygon fill="none" stroke="#bfbfbf" points="1342,-74.5 1342,-93.5 1388,-93.5 1388,-74.5 1342,-74.5"/>
<text text-anchor="middle" x="1365" y="-81.5" font-family="Helvetica,sans-Serif" font-size="10.00">cstdint</text>
</g>
<!-- Node33&#45;&gt;Node35 -->
<g id="edge46" class="edge"><title>Node33&#45;&gt;Node35</title>
<path fill="none" stroke="midnightblue" d="M1359.52,-136.679C1360.53,-127.101 1361.88,-114.394 1362.99,-103.977"/>
<polygon fill="midnightblue" stroke="midnightblue" points="1366.49,-104.142 1364.06,-93.8283 1359.53,-103.403 1366.49,-104.142"/>
</g>
<!-- Node36 -->
<g id="node36" class="node"><title>Node36</title>
<polygon fill="none" stroke="#bfbfbf" points="1406,-74.5 1406,-93.5 1468,-93.5 1468,-74.5 1406,-74.5"/>
<text text-anchor="middle" x="1437" y="-81.5" font-family="Helvetica,sans-Serif" font-size="10.00">type_traits</text>
</g>
<!-- Node33&#45;&gt;Node36 -->
<g id="edge47" class="edge"><title>Node33&#45;&gt;Node36</title>
<path fill="none" stroke="midnightblue" d="M1375.14,-136.679C1387.95,-125.981 1405.43,-111.377 1418.54,-100.422"/>
<polygon fill="midnightblue" stroke="midnightblue" points="1421,-102.926 1426.43,-93.8283 1416.51,-97.5537 1421,-102.926"/>
</g>
<!-- Node37&#45;&gt;Node5 -->
<g id="edge53" class="edge"><title>Node37&#45;&gt;Node5</title>
<path fill="none" stroke="midnightblue" d="M1594.17,-354.719C1679.36,-352.931 1831.66,-344.05 1866,-304 1943.63,-213.447 1734.37,-127.582 1647.66,-96.8878"/>
<polygon fill="midnightblue" stroke="midnightblue" points="1648.8,-93.5782 1638.2,-93.5876 1646.49,-100.187 1648.8,-93.5782"/>
</g>
</g>
</svg>
