<?xml version="1.0" encoding="UTF-8" standalone="no"?>
<!DOCTYPE svg PUBLIC "-//W3C//DTD SVG 1.1//EN"
 "http://www.w3.org/Graphics/SVG/1.1/DTD/svg11.dtd">
<!-- Generated by graphviz version 2.36.0 (20140111.2315)
 -->
<!-- Title: o2::qc::Producer Pages: 1 -->
<svg width="763pt" height="184pt"
 viewBox="0.00 0.00 763.00 184.00" xmlns="http://www.w3.org/2000/svg" xmlns:xlink="http://www.w3.org/1999/xlink">
<g id="graph0" class="graph" transform="scale(1 1) rotate(0) translate(4 180)">
<title>o2::qc::Producer</title>
<!-- Node1 -->
<g id="node1" class="node"><title>Node1</title>
<polygon fill="#bfbfbf" stroke="black" points="342.5,-107 342.5,-175 431.5,-175 431.5,-107 342.5,-107"/>
<text text-anchor="middle" x="387" y="-163" font-family="Helvetica,sans-Serif" font-size="10.00">o2::qc::Producer</text>
<polyline fill="none" stroke="black" points="342.5,-156 431.5,-156 "/>
<text text-anchor="middle" x="387" y="-144" font-family="Helvetica,sans-Serif" font-size="10.00"> </text>
<polyline fill="none" stroke="black" points="342.5,-137 431.5,-137 "/>
<text text-anchor="start" x="350.5" y="-125" font-family="Helvetica,sans-Serif" font-size="10.00">+ produceData()</text>
<text text-anchor="start" x="350.5" y="-114" font-family="Helvetica,sans-Serif" font-size="10.00">+ ~Producer()</text>
</g>
<!-- Node2 -->
<g id="node2" class="node"><title>Node2</title>
<g id="a_node2"><a xlink:href="../../d6/deb/classo2_1_1qc_1_1impl_1_1NeverCalled.html" target="_top" xlink:title="{o2::qc::impl::NeverCalled\n||+ NeverCalled()\l+ produceData()\l}">
<polygon fill="none" stroke="black" points="0,-1 0,-69 128,-69 128,-1 0,-1"/>
<text text-anchor="middle" x="64" y="-57" font-family="Helvetica,sans-Serif" font-size="10.00">o2::qc::impl::NeverCalled</text>
<polyline fill="none" stroke="black" points="0,-50 128,-50 "/>
<text text-anchor="middle" x="64" y="-38" font-family="Helvetica,sans-Serif" font-size="10.00"> </text>
<polyline fill="none" stroke="black" points="0,-31 128,-31 "/>
<text text-anchor="start" x="8" y="-19" font-family="Helvetica,sans-Serif" font-size="10.00">+ NeverCalled()</text>
<text text-anchor="start" x="8" y="-8" font-family="Helvetica,sans-Serif" font-size="10.00">+ produceData()</text>
</a>
</g>
</g>
<!-- Node1&#45;&gt;Node2 -->
<g id="edge1" class="edge"><title>Node1&#45;&gt;Node2</title>
<path fill="none" stroke="midnightblue" d="M332.177,-127.382C280.975,-114.959 202.783,-94.3445 137,-70 134.115,-68.9325 131.187,-67.7974 128.245,-66.6141"/>
<polygon fill="none" stroke="midnightblue" points="331.505,-130.82 342.047,-129.756 333.143,-124.015 331.505,-130.82"/>
</g>
<!-- Node3 -->
<g id="node3" class="node"><title>Node3</title>
<g id="a_node3"><a xlink:href="../../d8/d87/classo2_1_1qc_1_1TH1Producer.html" target="_top" xlink:title="{o2::qc::TH1Producer\n||+ TH1Producer()\l+ produceData()\l}">
<polygon fill="none" stroke="black" points="146.5,-1 146.5,-69 253.5,-69 253.5,-1 146.5,-1"/>
<text text-anchor="middle" x="200" y="-57" font-family="Helvetica,sans-Serif" font-size="10.00">o2::qc::TH1Producer</text>
<polyline fill="none" stroke="black" points="146.5,-50 253.5,-50 "/>
<text text-anchor="middle" x="200" y="-38" font-family="Helvetica,sans-Serif" font-size="10.00"> </text>
<polyline fill="none" stroke="black" points="146.5,-31 253.5,-31 "/>
<text text-anchor="start" x="154.5" y="-19" font-family="Helvetica,sans-Serif" font-size="10.00">+ TH1Producer()</text>
<text text-anchor="start" x="154.5" y="-8" font-family="Helvetica,sans-Serif" font-size="10.00">+ produceData()</text>
</a>
</g>
</g>
<!-- Node1&#45;&gt;Node3 -->
<g id="edge2" class="edge"><title>Node1&#45;&gt;Node3</title>
<path fill="none" stroke="midnightblue" d="M333.243,-110.103C308.29,-96.2253 278.697,-79.7672 253.745,-65.8904"/>
<polygon fill="none" stroke="midnightblue" points="331.768,-113.288 342.209,-115.089 335.171,-107.17 331.768,-113.288"/>
</g>
<!-- Node4 -->
<g id="node4" class="node"><title>Node4</title>
<g id="a_node4"><a xlink:href="../../d0/d0f/classo2_1_1qc_1_1TH2Producer.html" target="_top" xlink:title="{o2::qc::TH2Producer\n||+ TH2Producer()\l+ produceData()\l}">
<polygon fill="none" stroke="black" points="271.5,-1 271.5,-69 378.5,-69 378.5,-1 271.5,-1"/>
<text text-anchor="middle" x="325" y="-57" font-family="Helvetica,sans-Serif" font-size="10.00">o2::qc::TH2Producer</text>
<polyline fill="none" stroke="black" points="271.5,-50 378.5,-50 "/>
<text text-anchor="middle" x="325" y="-38" font-family="Helvetica,sans-Serif" font-size="10.00"> </text>
<polyline fill="none" stroke="black" points="271.5,-31 378.5,-31 "/>
<text text-anchor="start" x="279.5" y="-19" font-family="Helvetica,sans-Serif" font-size="10.00">+ TH2Producer()</text>
<text text-anchor="start" x="279.5" y="-8" font-family="Helvetica,sans-Serif" font-size="10.00">+ produceData()</text>
</a>
</g>
</g>
<!-- Node1&#45;&gt;Node4 -->
<g id="edge3" class="edge"><title>Node1&#45;&gt;Node4</title>
<path fill="none" stroke="midnightblue" d="M362.051,-98.1496C356.316,-88.5308 350.295,-78.43 344.812,-69.2336"/>
<polygon fill="none" stroke="midnightblue" points="359.085,-100.011 367.212,-106.808 365.098,-96.4261 359.085,-100.011"/>
</g>
<!-- Node5 -->
<g id="node5" class="node"><title>Node5</title>
<g id="a_node5"><a xlink:href="../../d5/d21/classo2_1_1qc_1_1TH3Producer.html" target="_top" xlink:title="{o2::qc::TH3Producer\n||+ TH3Producer()\l+ produceData()\l}">
<polygon fill="none" stroke="black" points="396.5,-1 396.5,-69 503.5,-69 503.5,-1 396.5,-1"/>
<text text-anchor="middle" x="450" y="-57" font-family="Helvetica,sans-Serif" font-size="10.00">o2::qc::TH3Producer</text>
<polyline fill="none" stroke="black" points="396.5,-50 503.5,-50 "/>
<text text-anchor="middle" x="450" y="-38" font-family="Helvetica,sans-Serif" font-size="10.00"> </text>
<polyline fill="none" stroke="black" points="396.5,-31 503.5,-31 "/>
<text text-anchor="start" x="404.5" y="-19" font-family="Helvetica,sans-Serif" font-size="10.00">+ TH3Producer()</text>
<text text-anchor="start" x="404.5" y="-8" font-family="Helvetica,sans-Serif" font-size="10.00">+ produceData()</text>
</a>
</g>
</g>
<!-- Node1&#45;&gt;Node5 -->
<g id="edge4" class="edge"><title>Node1&#45;&gt;Node5</title>
<path fill="none" stroke="midnightblue" d="M412.352,-98.1496C418.178,-88.5308 424.297,-78.43 429.868,-69.2336"/>
<polygon fill="none" stroke="midnightblue" points="409.294,-96.4413 407.107,-106.808 415.282,-100.068 409.294,-96.4413"/>
</g>
<!-- Node6 -->
<g id="node6" class="node"><title>Node6</title>
<g id="a_node6"><a xlink:href="../../d9/d17/classo2_1_1qc_1_1THnProducer.html" target="_top" xlink:title="{o2::qc::THnProducer\n||+ THnProducer()\l+ produceData()\l}">
<polygon fill="none" stroke="black" points="521.5,-1 521.5,-69 628.5,-69 628.5,-1 521.5,-1"/>
<text text-anchor="middle" x="575" y="-57" font-family="Helvetica,sans-Serif" font-size="10.00">o2::qc::THnProducer</text>
<polyline fill="none" stroke="black" points="521.5,-50 628.5,-50 "/>
<text text-anchor="middle" x="575" y="-38" font-family="Helvetica,sans-Serif" font-size="10.00"> </text>
<polyline fill="none" stroke="black" points="521.5,-31 628.5,-31 "/>
<text text-anchor="start" x="529.5" y="-19" font-family="Helvetica,sans-Serif" font-size="10.00">+ THnProducer()</text>
<text text-anchor="start" x="529.5" y="-8" font-family="Helvetica,sans-Serif" font-size="10.00">+ produceData()</text>
</a>
</g>
</g>
<!-- Node1&#45;&gt;Node6 -->
<g id="edge5" class="edge"><title>Node1&#45;&gt;Node6</title>
<path fill="none" stroke="midnightblue" d="M440.31,-110.509C465.691,-96.4689 495.976,-79.7156 521.394,-65.6544"/>
<polygon fill="none" stroke="midnightblue" points="438.609,-107.45 431.553,-115.353 441.998,-113.575 438.609,-107.45"/>
</g>
<!-- Node7 -->
<g id="node7" class="node"><title>Node7</title>
<g id="a_node7"><a xlink:href="../../da/d34/classo2_1_1qc_1_1TreeProducer.html" target="_top" xlink:title="{o2::qc::TreeProducer\n||+ TreeProducer()\l+ produceData()\l}">
<polygon fill="none" stroke="black" points="647,-1 647,-69 755,-69 755,-1 647,-1"/>
<text text-anchor="middle" x="701" y="-57" font-family="Helvetica,sans-Serif" font-size="10.00">o2::qc::TreeProducer</text>
<polyline fill="none" stroke="black" points="647,-50 755,-50 "/>
<text text-anchor="middle" x="701" y="-38" font-family="Helvetica,sans-Serif" font-size="10.00"> </text>
<polyline fill="none" stroke="black" points="647,-31 755,-31 "/>
<text text-anchor="start" x="655" y="-19" font-family="Helvetica,sans-Serif" font-size="10.00">+ TreeProducer()</text>
<text text-anchor="start" x="655" y="-8" font-family="Helvetica,sans-Serif" font-size="10.00">+ produceData()</text>
</a>
</g>
</g>
<!-- Node1&#45;&gt;Node7 -->
<g id="edge6" class="edge"><title>Node1&#45;&gt;Node7</title>
<path fill="none" stroke="midnightblue" d="M441.664,-128.281C493.072,-116.428 571.682,-96.1398 637,-70 640.271,-68.6911 643.592,-67.2618 646.912,-65.754"/>
<polygon fill="none" stroke="midnightblue" points="440.729,-124.904 431.757,-130.539 442.284,-131.729 440.729,-124.904"/>
</g>
</g>
</svg>
