<?xml version="1.0" encoding="UTF-8" standalone="no"?>
<!DOCTYPE svg PUBLIC "-//W3C//DTD SVG 1.1//EN"
 "http://www.w3.org/Graphics/SVG/1.1/DTD/svg11.dtd">
<!-- Generated by graphviz version 2.36.0 (20140111.2315)
 -->
<!-- Title: /home/travis/build/AliceO2Group/AliceO2/Detectors/MUON/MCH/Base/include/MCHBase/PreClusterBlock.h Pages: 1 -->
<svg width="479pt" height="242pt"
 viewBox="0.00 0.00 479.00 242.00" xmlns="http://www.w3.org/2000/svg" xmlns:xlink="http://www.w3.org/1999/xlink">
<g id="graph0" class="graph" transform="scale(1 1) rotate(0) translate(4 238)">
<title>/home/travis/build/AliceO2Group/AliceO2/Detectors/MUON/MCH/Base/include/MCHBase/PreClusterBlock.h</title>
<!-- Node1 -->
<g id="node1" class="node"><title>Node1</title>
<polygon fill="#bfbfbf" stroke="black" points="85,-181 85,-233 267,-233 267,-181 85,-181"/>
<text text-anchor="start" x="93" y="-221" font-family="Helvetica,sans-Serif" font-size="10.00">/home/travis/build</text>
<text text-anchor="start" x="93" y="-210" font-family="Helvetica,sans-Serif" font-size="10.00">/AliceO2Group/AliceO2</text>
<text text-anchor="start" x="93" y="-199" font-family="Helvetica,sans-Serif" font-size="10.00">/Detectors/MUON/MCH/Base</text>
<text text-anchor="middle" x="176" y="-188" font-family="Helvetica,sans-Serif" font-size="10.00">/include/MCHBase/PreClusterBlock.h</text>
</g>
<!-- Node2 -->
<g id="node2" class="node"><title>Node2</title>
<g id="a_node2"><a xlink:href="../../d0/db5/PreClusterBlock_8cxx.html" target="_top" xlink:title="/home/travis/build\l/AliceO2Group/AliceO2\l/Detectors/MUON/MCH/Base\l/src/PreClusterBlock.cxx">
<polygon fill="none" stroke="black" points="0,-91 0,-143 148,-143 148,-91 0,-91"/>
<text text-anchor="start" x="8" y="-131" font-family="Helvetica,sans-Serif" font-size="10.00">/home/travis/build</text>
<text text-anchor="start" x="8" y="-120" font-family="Helvetica,sans-Serif" font-size="10.00">/AliceO2Group/AliceO2</text>
<text text-anchor="start" x="8" y="-109" font-family="Helvetica,sans-Serif" font-size="10.00">/Detectors/MUON/MCH/Base</text>
<text text-anchor="middle" x="74" y="-98" font-family="Helvetica,sans-Serif" font-size="10.00">/src/PreClusterBlock.cxx</text>
</a>
</g>
</g>
<!-- Node1&#45;&gt;Node2 -->
<g id="edge1" class="edge"><title>Node1&#45;&gt;Node2</title>
<path fill="none" stroke="midnightblue" d="M139.19,-174.242C127.366,-164.042 114.437,-152.887 103.233,-143.221"/>
<polygon fill="midnightblue" stroke="midnightblue" points="136.913,-176.9 146.771,-180.783 141.486,-171.6 136.913,-176.9"/>
</g>
<!-- Node3 -->
<g id="node3" class="node"><title>Node3</title>
<g id="a_node3"><a xlink:href="../../dd/db2/PreClusterFinderDevice_8h.html" target="_top" xlink:title="/home/travis/build\l/AliceO2Group/AliceO2\l/Detectors/MUON/MCH/PreClustering\l/src/PreClusterFinderDevice.h">
<polygon fill="none" stroke="black" points="203.5,-91 203.5,-143 388.5,-143 388.5,-91 203.5,-91"/>
<text text-anchor="start" x="211.5" y="-131" font-family="Helvetica,sans-Serif" font-size="10.00">/home/travis/build</text>
<text text-anchor="start" x="211.5" y="-120" font-family="Helvetica,sans-Serif" font-size="10.00">/AliceO2Group/AliceO2</text>
<text text-anchor="start" x="211.5" y="-109" font-family="Helvetica,sans-Serif" font-size="10.00">/Detectors/MUON/MCH/PreClustering</text>
<text text-anchor="middle" x="296" y="-98" font-family="Helvetica,sans-Serif" font-size="10.00">/src/PreClusterFinderDevice.h</text>
</a>
</g>
</g>
<!-- Node1&#45;&gt;Node3 -->
<g id="edge2" class="edge"><title>Node1&#45;&gt;Node3</title>
<path fill="none" stroke="midnightblue" d="M218.512,-174.824C232.636,-164.467 248.176,-153.071 261.608,-143.221"/>
<polygon fill="midnightblue" stroke="midnightblue" points="216.381,-172.047 210.387,-180.783 220.521,-177.691 216.381,-172.047"/>
</g>
<!-- Node4 -->
<g id="node4" class="node"><title>Node4</title>
<g id="a_node4"><a xlink:href="../../dc/d75/PreClusterFinderDevice_8cxx.html" target="_top" xlink:title="/home/travis/build\l/AliceO2Group/AliceO2\l/Detectors/MUON/MCH/PreClustering\l/src/PreClusterFinderDevice.cxx">
<polygon fill="none" stroke="black" points="83.5,-1 83.5,-53 268.5,-53 268.5,-1 83.5,-1"/>
<text text-anchor="start" x="91.5" y="-41" font-family="Helvetica,sans-Serif" font-size="10.00">/home/travis/build</text>
<text text-anchor="start" x="91.5" y="-30" font-family="Helvetica,sans-Serif" font-size="10.00">/AliceO2Group/AliceO2</text>
<text text-anchor="start" x="91.5" y="-19" font-family="Helvetica,sans-Serif" font-size="10.00">/Detectors/MUON/MCH/PreClustering</text>
<text text-anchor="middle" x="176" y="-8" font-family="Helvetica,sans-Serif" font-size="10.00">/src/PreClusterFinderDevice.cxx</text>
</a>
</g>
</g>
<!-- Node1&#45;&gt;Node4 -->
<g id="edge5" class="edge"><title>Node1&#45;&gt;Node4</title>
<path fill="none" stroke="midnightblue" d="M176,-170.717C176,-136.052 176,-84.0165 176,-53.2853"/>
<polygon fill="midnightblue" stroke="midnightblue" points="172.5,-170.874 176,-180.874 179.5,-170.875 172.5,-170.874"/>
</g>
<!-- Node3&#45;&gt;Node4 -->
<g id="edge3" class="edge"><title>Node3&#45;&gt;Node4</title>
<path fill="none" stroke="midnightblue" d="M253.488,-84.8242C239.364,-74.4671 223.824,-63.0712 210.392,-53.221"/>
<polygon fill="midnightblue" stroke="midnightblue" points="251.479,-87.6915 261.613,-90.7827 255.619,-82.0466 251.479,-87.6915"/>
</g>
<!-- Node5 -->
<g id="node5" class="node"><title>Node5</title>
<g id="a_node5"><a xlink:href="../../d2/db8/runPreClusterFinder_8cxx.html" target="_top" xlink:title="/home/travis/build\l/AliceO2Group/AliceO2\l/Detectors/MUON/MCH/PreClustering\l/src/runPreClusterFinder.cxx">
<polygon fill="none" stroke="black" points="286.5,-1 286.5,-53 471.5,-53 471.5,-1 286.5,-1"/>
<text text-anchor="start" x="294.5" y="-41" font-family="Helvetica,sans-Serif" font-size="10.00">/home/travis/build</text>
<text text-anchor="start" x="294.5" y="-30" font-family="Helvetica,sans-Serif" font-size="10.00">/AliceO2Group/AliceO2</text>
<text text-anchor="start" x="294.5" y="-19" font-family="Helvetica,sans-Serif" font-size="10.00">/Detectors/MUON/MCH/PreClustering</text>
<text text-anchor="middle" x="379" y="-8" font-family="Helvetica,sans-Serif" font-size="10.00">/src/runPreClusterFinder.cxx</text>
</a>
</g>
</g>
<!-- Node3&#45;&gt;Node5 -->
<g id="edge4" class="edge"><title>Node3&#45;&gt;Node5</title>
<path fill="none" stroke="midnightblue" d="M326.994,-83.1386C336.372,-73.1958 346.516,-62.4408 355.334,-53.0921"/>
<polygon fill="midnightblue" stroke="midnightblue" points="324.322,-80.8705 320.007,-90.5468 329.415,-85.6735 324.322,-80.8705"/>
</g>
</g>
</svg>
