<?xml version="1.0" encoding="UTF-8" standalone="no"?>
<!DOCTYPE svg PUBLIC "-//W3C//DTD SVG 1.1//EN"
 "http://www.w3.org/Graphics/SVG/1.1/DTD/svg11.dtd">
<!-- Generated by graphviz version 2.36.0 (20140111.2315)
 -->
<!-- Title: /home/travis/build/AliceO2Group/AliceO2/Detectors/MUON/MID/Clustering/test/testClusterizer.cxx Pages: 1 -->
<!--zoomable 310 -->
<svg id="main" version="1.1" xmlns="http://www.w3.org/2000/svg" xmlns:xlink="http://www.w3.org/1999/xlink" xml:space="preserve" onload="init(evt)">
<style type="text/css"><![CDATA[
.edge:hover path { stroke: red; }
.edge:hover polygon { stroke: red; fill: red; }
]]></style>
<script type="text/javascript"><![CDATA[
var edges = document.getElementsByTagName('g');
if (edges && edges.length) {
  for (var i=0;i<edges.length;i++) {
    if (edges[i].id.substr(0,4)=='edge') {
      edges[i].setAttribute('class','edge');
    }
  }
}
]]></script>
        <defs>
                <circle id="rim" cx="0" cy="0" r="7"/>
                <circle id="rim2" cx="0" cy="0" r="3.5"/>
                <g id="zoomPlus">
                        <use xlink:href="#rim" fill="#404040">
                                <set attributeName="fill" to="#808080" begin="zoomplus.mouseover" end="zoomplus.mouseout"/>
                        </use>
                        <path d="M-4,0h8M0,-4v8" fill="none" stroke="white" stroke-width="1.5" pointer-events="none"/>
                </g>
                <g id="zoomMin">
                        <use xlink:href="#rim" fill="#404040">
                                <set attributeName="fill" to="#808080" begin="zoomminus.mouseover" end="zoomminus.mouseout"/>
                        </use>
                        <path d="M-4,0h8" fill="none" stroke="white" stroke-width="1.5" pointer-events="none"/>
                </g>
                <g id="dirArrow">
                        <path fill="none" stroke="white" stroke-width="1.5" d="M0,-3.0v7 M-2.5,-0.5L0,-3.0L2.5,-0.5"/>
                </g>
               <g id="resetDef">
                       <use xlink:href="#rim2" fill="#404040">
                               <set attributeName="fill" to="#808080" begin="reset.mouseover" end="reset.mouseout"/>
                       </use>
               </g>
        </defs>

<script type="text/javascript">
var viewWidth = 1110;
var viewHeight = 310;
var sectionId = 'dynsection-0';
</script>
<script xlink:href="../../svgpan.js"/>
<svg id="graph" class="graph">
<g id="viewport">
<title>/home/travis/build/AliceO2Group/AliceO2/Detectors/MUON/MID/Clustering/test/testClusterizer.cxx</title>
<!-- Node1 -->
<g id="node1" class="node"><title>Node1</title>
<polygon fill="#bfbfbf" stroke="black" points="573.5,-249 573.5,-301 738.5,-301 738.5,-249 573.5,-249"/>
<text text-anchor="start" x="581.5" y="-289" font-family="Helvetica,sans-Serif" font-size="10.00">/home/travis/build</text>
<text text-anchor="start" x="581.5" y="-278" font-family="Helvetica,sans-Serif" font-size="10.00">/AliceO2Group/AliceO2</text>
<text text-anchor="start" x="581.5" y="-267" font-family="Helvetica,sans-Serif" font-size="10.00">/Detectors/MUON/MID/Clustering</text>
<text text-anchor="middle" x="656" y="-256" font-family="Helvetica,sans-Serif" font-size="10.00">/test/testClusterizer.cxx</text>
</g>
<!-- Node2 -->
<g id="node2" class="node"><title>Node2</title>
<polygon fill="none" stroke="#bfbfbf" points="-0.5,-186.5 -0.5,-205.5 118.5,-205.5 118.5,-186.5 -0.5,-186.5"/>
<text text-anchor="middle" x="59" y="-193.5" font-family="Helvetica,sans-Serif" font-size="10.00">boost/test/unit_test.hpp</text>
</g>
<!-- Node1&#45;&gt;Node2 -->
<g id="edge1" class="edge"><title>Node1&#45;&gt;Node2</title>
<path fill="none" stroke="midnightblue" d="M573.339,-266.801C469.104,-257.148 284.581,-238.149 128,-212 120.517,-210.75 112.62,-209.228 104.947,-207.639"/>
<polygon fill="midnightblue" stroke="midnightblue" points="105.551,-204.189 95.041,-205.527 104.092,-211.035 105.551,-204.189"/>
</g>
<!-- Node3 -->
<g id="node3" class="node"><title>Node3</title>
<polygon fill="none" stroke="#bfbfbf" points="137,-186.5 137,-205.5 299,-205.5 299,-186.5 137,-186.5"/>
<text text-anchor="middle" x="218" y="-193.5" font-family="Helvetica,sans-Serif" font-size="10.00">boost/test/data/monomorphic.hpp</text>
</g>
<!-- Node1&#45;&gt;Node3 -->
<g id="edge2" class="edge"><title>Node1&#45;&gt;Node3</title>
<path fill="none" stroke="midnightblue" d="M573.358,-259.472C486.641,-244.227 352.548,-220.653 276.289,-207.247"/>
<polygon fill="midnightblue" stroke="midnightblue" points="276.832,-203.789 266.377,-205.505 275.62,-210.683 276.832,-203.789"/>
</g>
<!-- Node4 -->
<g id="node4" class="node"><title>Node4</title>
<polygon fill="none" stroke="#bfbfbf" points="317.5,-181 317.5,-211 460.5,-211 460.5,-181 317.5,-181"/>
<text text-anchor="start" x="325.5" y="-199" font-family="Helvetica,sans-Serif" font-size="10.00">boost/test/data/monomorphic</text>
<text text-anchor="middle" x="389" y="-188" font-family="Helvetica,sans-Serif" font-size="10.00">/generators/xrange.hpp</text>
</g>
<!-- Node1&#45;&gt;Node4 -->
<g id="edge3" class="edge"><title>Node1&#45;&gt;Node4</title>
<path fill="none" stroke="midnightblue" d="M573.348,-250.164C532.75,-238.456 484.776,-224.621 447.946,-213.999"/>
<polygon fill="midnightblue" stroke="midnightblue" points="448.447,-210.501 437.869,-211.093 446.507,-217.227 448.447,-210.501"/>
</g>
<!-- Node5 -->
<g id="node5" class="node"><title>Node5</title>
<polygon fill="none" stroke="#bfbfbf" points="478.5,-181 478.5,-211 579.5,-211 579.5,-181 478.5,-181"/>
<text text-anchor="start" x="486.5" y="-199" font-family="Helvetica,sans-Serif" font-size="10.00">boost/test/data/test</text>
<text text-anchor="middle" x="529" y="-188" font-family="Helvetica,sans-Serif" font-size="10.00">_case.hpp</text>
</g>
<!-- Node1&#45;&gt;Node5 -->
<g id="edge4" class="edge"><title>Node1&#45;&gt;Node5</title>
<path fill="none" stroke="midnightblue" d="M614.415,-248.787C596.959,-238.203 576.983,-226.092 560.741,-216.245"/>
<polygon fill="midnightblue" stroke="midnightblue" points="562.507,-213.222 552.141,-211.031 558.878,-219.208 562.507,-213.222"/>
</g>
<!-- Node6 -->
<g id="node6" class="node"><title>Node6</title>
<polygon fill="none" stroke="#bfbfbf" points="326,-62.5 326,-81.5 372,-81.5 372,-62.5 326,-62.5"/>
<text text-anchor="middle" x="349" y="-69.5" font-family="Helvetica,sans-Serif" font-size="10.00">cstdint</text>
</g>
<!-- Node1&#45;&gt;Node6 -->
<g id="edge5" class="edge"><title>Node1&#45;&gt;Node6</title>
<path fill="none" stroke="midnightblue" d="M644.928,-248.651C633.876,-226.611 614.69,-195.805 588,-180 532.693,-147.247 343.529,-192.197 301,-144 285.135,-126.021 308.265,-102.542 327.582,-87.6126"/>
<polygon fill="midnightblue" stroke="midnightblue" points="329.787,-90.3361 335.769,-81.5918 325.639,-84.697 329.787,-90.3361"/>
</g>
<!-- Node7 -->
<g id="node7" class="node"><title>Node7</title>
<polygon fill="none" stroke="#bfbfbf" points="892,-186.5 892,-205.5 946,-205.5 946,-186.5 892,-186.5"/>
<text text-anchor="middle" x="919" y="-193.5" font-family="Helvetica,sans-Serif" font-size="10.00">iostream</text>
</g>
<!-- Node1&#45;&gt;Node7 -->
<g id="edge6" class="edge"><title>Node1&#45;&gt;Node7</title>
<path fill="none" stroke="midnightblue" d="M738.692,-252.56C780.656,-241.262 832.292,-226.719 878,-212 880.935,-211.055 883.973,-210.031 887.007,-208.978"/>
<polygon fill="midnightblue" stroke="midnightblue" points="888.311,-212.229 896.553,-205.572 885.959,-205.636 888.311,-212.229"/>
</g>
<!-- Node8 -->
<g id="node8" class="node"><title>Node8</title>
<polygon fill="none" stroke="#bfbfbf" points="816,-62.5 816,-81.5 860,-81.5 860,-62.5 816,-62.5"/>
<text text-anchor="middle" x="838" y="-69.5" font-family="Helvetica,sans-Serif" font-size="10.00">vector</text>
</g>
<!-- Node1&#45;&gt;Node8 -->
<g id="edge7" class="edge"><title>Node1&#45;&gt;Node8</title>
<path fill="none" stroke="midnightblue" d="M738.66,-255.501C796.877,-237.641 870.523,-204.151 906,-144 919.609,-120.926 890.972,-99.4581 866.774,-86.2993"/>
<polygon fill="midnightblue" stroke="midnightblue" points="868.307,-83.1516 857.815,-81.677 865.097,-89.3725 868.307,-83.1516"/>
</g>
<!-- Node9 -->
<g id="node9" class="node"><title>Node9</title>
<polygon fill="none" stroke="#bfbfbf" points="964.5,-186.5 964.5,-205.5 1013.5,-205.5 1013.5,-186.5 964.5,-186.5"/>
<text text-anchor="middle" x="989" y="-193.5" font-family="Helvetica,sans-Serif" font-size="10.00">random</text>
</g>
<!-- Node1&#45;&gt;Node9 -->
<g id="edge8" class="edge"><title>Node1&#45;&gt;Node9</title>
<path fill="none" stroke="midnightblue" d="M738.741,-261.673C799.45,-251.469 883.434,-234.923 955,-212 957.419,-211.225 959.899,-210.334 962.363,-209.38"/>
<polygon fill="midnightblue" stroke="midnightblue" points="963.751,-212.593 971.627,-205.508 961.051,-206.135 963.751,-212.593"/>
</g>
<!-- Node10 -->
<g id="node10" class="node"><title>Node10</title>
<g id="a_node10"><a xlink:href="../../d5/d53/Clusterizer_8h.html" target="_top" xlink:title="MIDClustering/Clusterizer.h">
<polygon fill="none" stroke="black" points="636,-186.5 636,-205.5 774,-205.5 774,-186.5 636,-186.5"/>
<text text-anchor="middle" x="705" y="-193.5" font-family="Helvetica,sans-Serif" font-size="10.00">MIDClustering/Clusterizer.h</text>
</a>
</g>
</g>
<!-- Node1&#45;&gt;Node10 -->
<g id="edge9" class="edge"><title>Node1&#45;&gt;Node10</title>
<path fill="none" stroke="midnightblue" d="M672.044,-248.787C679.236,-237.486 687.535,-224.445 694.006,-214.276"/>
<polygon fill="midnightblue" stroke="midnightblue" points="697.138,-215.873 699.554,-205.558 691.233,-212.115 697.138,-215.873"/>
</g>
<!-- Node19 -->
<g id="node19" class="node"><title>Node19</title>
<polygon fill="none" stroke="#bfbfbf" points="1031.5,-186.5 1031.5,-205.5 1102.5,-205.5 1102.5,-186.5 1031.5,-186.5"/>
<text text-anchor="middle" x="1067" y="-193.5" font-family="Helvetica,sans-Serif" font-size="10.00">FairLogger.h</text>
</g>
<!-- Node1&#45;&gt;Node19 -->
<g id="edge25" class="edge"><title>Node1&#45;&gt;Node19</title>
<path fill="none" stroke="midnightblue" d="M738.514,-263.721C813.188,-253.546 925.867,-236.013 1022,-212 1025.85,-211.04 1029.83,-209.91 1033.78,-208.709"/>
<polygon fill="midnightblue" stroke="midnightblue" points="1034.93,-212.017 1043.38,-205.632 1032.79,-205.351 1034.93,-212.017"/>
</g>
<!-- Node10&#45;&gt;Node8 -->
<g id="edge11" class="edge"><title>Node10&#45;&gt;Node8</title>
<path fill="none" stroke="midnightblue" d="M716.028,-186.234C728.425,-176.277 749.038,-159.407 766,-144 786.175,-125.675 808.36,-103.464 822.697,-88.8202"/>
<polygon fill="midnightblue" stroke="midnightblue" points="825.322,-91.1414 829.792,-81.5357 820.307,-86.2573 825.322,-91.1414"/>
</g>
<!-- Node11 -->
<g id="node11" class="node"><title>Node11</title>
<polygon fill="none" stroke="#bfbfbf" points="814.5,-124.5 814.5,-143.5 897.5,-143.5 897.5,-124.5 814.5,-124.5"/>
<text text-anchor="middle" x="856" y="-131.5" font-family="Helvetica,sans-Serif" font-size="10.00">unordered_map</text>
</g>
<!-- Node10&#45;&gt;Node11 -->
<g id="edge10" class="edge"><title>Node10&#45;&gt;Node11</title>
<path fill="none" stroke="midnightblue" d="M726.635,-186.403C752.424,-176.156 795.711,-158.956 825.04,-147.302"/>
<polygon fill="midnightblue" stroke="midnightblue" points="826.405,-150.526 834.406,-143.581 823.82,-144.021 826.405,-150.526"/>
</g>
<!-- Node12 -->
<g id="node12" class="node"><title>Node12</title>
<g id="a_node12"><a xlink:href="../../d4/d73/MID_2Base_2include_2MIDBase_2Mapping_8h.html" target="_top" xlink:title="Mapping for MID. ">
<polygon fill="none" stroke="black" points="652,-124.5 652,-143.5 758,-143.5 758,-124.5 652,-124.5"/>
<text text-anchor="middle" x="705" y="-131.5" font-family="Helvetica,sans-Serif" font-size="10.00">MIDBase/Mapping.h</text>
</a>
</g>
</g>
<!-- Node10&#45;&gt;Node12 -->
<g id="edge12" class="edge"><title>Node10&#45;&gt;Node12</title>
<path fill="none" stroke="midnightblue" d="M705,-186.403C705,-177.938 705,-164.728 705,-153.82"/>
<polygon fill="midnightblue" stroke="midnightblue" points="708.5,-153.581 705,-143.581 701.5,-153.581 708.5,-153.581"/>
</g>
<!-- Node15 -->
<g id="node15" class="node"><title>Node15</title>
<g id="a_node15"><a xlink:href="../../d6/d31/Cluster2D_8h.html" target="_top" xlink:title="Reconstructed cluster per RPC. ">
<polygon fill="none" stroke="black" points="310,-124.5 310,-143.5 458,-143.5 458,-124.5 310,-124.5"/>
<text text-anchor="middle" x="384" y="-131.5" font-family="Helvetica,sans-Serif" font-size="10.00">DataFormatsMID/Cluster2D.h</text>
</a>
</g>
</g>
<!-- Node10&#45;&gt;Node15 -->
<g id="edge17" class="edge"><title>Node10&#45;&gt;Node15</title>
<path fill="none" stroke="midnightblue" d="M659.349,-186.467C601.471,-175.649 501.747,-157.009 439.523,-145.378"/>
<polygon fill="midnightblue" stroke="midnightblue" points="439.966,-141.9 429.493,-143.503 438.68,-148.781 439.966,-141.9"/>
</g>
<!-- Node17 -->
<g id="node17" class="node"><title>Node17</title>
<g id="a_node17"><a xlink:href="../../d3/d53/ColumnData_8h.html" target="_top" xlink:title="Strip pattern (aka digits) ">
<polygon fill="none" stroke="black" points="476,-124.5 476,-143.5 634,-143.5 634,-124.5 476,-124.5"/>
<text text-anchor="middle" x="555" y="-131.5" font-family="Helvetica,sans-Serif" font-size="10.00">DataFormatsMID/ColumnData.h</text>
</a>
</g>
</g>
<!-- Node10&#45;&gt;Node17 -->
<g id="edge20" class="edge"><title>Node10&#45;&gt;Node17</title>
<path fill="none" stroke="midnightblue" d="M683.509,-186.403C657.89,-176.156 614.89,-158.956 585.755,-147.302"/>
<polygon fill="midnightblue" stroke="midnightblue" points="587.036,-144.045 576.451,-143.581 584.436,-150.544 587.036,-144.045"/>
</g>
<!-- Node12&#45;&gt;Node8 -->
<g id="edge14" class="edge"><title>Node12&#45;&gt;Node8</title>
<path fill="none" stroke="midnightblue" d="M724.412,-124.483C744.784,-115.515 777.717,-100.928 806,-88 807.395,-87.3623 808.823,-86.7061 810.264,-86.0411"/>
<polygon fill="midnightblue" stroke="midnightblue" points="812.161,-89.0187 819.752,-81.6275 809.209,-82.6717 812.161,-89.0187"/>
</g>
<!-- Node13 -->
<g id="node13" class="node"><title>Node13</title>
<polygon fill="none" stroke="#bfbfbf" points="647,-0.5 647,-19.5 685,-19.5 685,-0.5 647,-0.5"/>
<text text-anchor="middle" x="666" y="-7.5" font-family="Helvetica,sans-Serif" font-size="10.00">array</text>
</g>
<!-- Node12&#45;&gt;Node13 -->
<g id="edge13" class="edge"><title>Node12&#45;&gt;Node13</title>
<path fill="none" stroke="midnightblue" d="M700.826,-124.183C696.689,-115.216 690.356,-100.85 686,-88 679.364,-68.4221 673.651,-45.4165 670.05,-29.6835"/>
<polygon fill="midnightblue" stroke="midnightblue" points="673.409,-28.6654 667.818,-19.6657 666.577,-30.1875 673.409,-28.6654"/>
</g>
<!-- Node14 -->
<g id="node14" class="node"><title>Node14</title>
<g id="a_node14"><a xlink:href="../../d7/d0a/MpArea_8h.html" target="_top" xlink:title="Mapping area for MID. ">
<polygon fill="none" stroke="black" points="694.5,-62.5 694.5,-81.5 797.5,-81.5 797.5,-62.5 694.5,-62.5"/>
<text text-anchor="middle" x="746" y="-69.5" font-family="Helvetica,sans-Serif" font-size="10.00">MIDBase/MpArea.h</text>
</a>
</g>
</g>
<!-- Node12&#45;&gt;Node14 -->
<g id="edge15" class="edge"><title>Node12&#45;&gt;Node14</title>
<path fill="none" stroke="midnightblue" d="M710.874,-124.403C716.963,-115.493 726.645,-101.325 734.303,-90.1177"/>
<polygon fill="midnightblue" stroke="midnightblue" points="737.384,-91.8117 740.137,-81.5806 731.605,-87.8624 737.384,-91.8117"/>
</g>
<!-- Node14&#45;&gt;Node13 -->
<g id="edge16" class="edge"><title>Node14&#45;&gt;Node13</title>
<path fill="none" stroke="midnightblue" d="M734.538,-62.4035C721.825,-52.8688 701.087,-37.3154 685.747,-25.8106"/>
<polygon fill="midnightblue" stroke="midnightblue" points="687.541,-22.7806 677.441,-19.5806 683.341,-28.3806 687.541,-22.7806"/>
</g>
<!-- Node15&#45;&gt;Node6 -->
<g id="edge19" class="edge"><title>Node15&#45;&gt;Node6</title>
<path fill="none" stroke="midnightblue" d="M378.985,-124.403C373.839,-115.582 365.688,-101.608 359.182,-90.4548"/>
<polygon fill="midnightblue" stroke="midnightblue" points="362.067,-88.4548 354.005,-81.5806 356.021,-91.982 362.067,-88.4548"/>
</g>
<!-- Node16 -->
<g id="node16" class="node"><title>Node16</title>
<polygon fill="none" stroke="#bfbfbf" points="390.5,-57 390.5,-87 485.5,-87 485.5,-57 390.5,-57"/>
<text text-anchor="start" x="398.5" y="-75" font-family="Helvetica,sans-Serif" font-size="10.00">boost/serialization</text>
<text text-anchor="middle" x="438" y="-64" font-family="Helvetica,sans-Serif" font-size="10.00">/access.hpp</text>
</g>
<!-- Node15&#45;&gt;Node16 -->
<g id="edge18" class="edge"><title>Node15&#45;&gt;Node16</title>
<path fill="none" stroke="midnightblue" d="M391.737,-124.403C398.709,-116.657 409.256,-104.938 418.52,-94.6447"/>
<polygon fill="midnightblue" stroke="midnightblue" points="421.185,-96.9152 425.273,-87.1408 415.982,-92.2324 421.185,-96.9152"/>
</g>
<!-- Node17&#45;&gt;Node6 -->
<g id="edge23" class="edge"><title>Node17&#45;&gt;Node6</title>
<path fill="none" stroke="midnightblue" d="M513.214,-124.479C477.552,-116.668 425.181,-103.913 381,-88 379.095,-87.3139 377.149,-86.5554 375.205,-85.7546"/>
<polygon fill="midnightblue" stroke="midnightblue" points="376.253,-82.3906 365.693,-81.5373 373.416,-88.7899 376.253,-82.3906"/>
</g>
<!-- Node17&#45;&gt;Node13 -->
<g id="edge24" class="edge"><title>Node17&#45;&gt;Node13</title>
<path fill="none" stroke="midnightblue" d="M548.133,-124.072C537.272,-108.781 518.84,-77.1844 534,-56 557.191,-23.5921 605.127,-14.2552 636.402,-11.7192"/>
<polygon fill="midnightblue" stroke="midnightblue" points="636.938,-15.1927 646.701,-11.0792 636.503,-8.20622 636.938,-15.1927"/>
</g>
<!-- Node17&#45;&gt;Node16 -->
<g id="edge21" class="edge"><title>Node17&#45;&gt;Node16</title>
<path fill="none" stroke="midnightblue" d="M538.237,-124.403C521.724,-115.936 495.955,-102.72 474.68,-91.8101"/>
<polygon fill="midnightblue" stroke="midnightblue" points="476.07,-88.5897 465.575,-87.1408 472.876,-94.8184 476.07,-88.5897"/>
</g>
<!-- Node18 -->
<g id="node18" class="node"><title>Node18</title>
<polygon fill="none" stroke="#bfbfbf" points="542.5,-57 542.5,-87 637.5,-87 637.5,-57 542.5,-57"/>
<text text-anchor="start" x="550.5" y="-75" font-family="Helvetica,sans-Serif" font-size="10.00">boost/serialization</text>
<text text-anchor="middle" x="590" y="-64" font-family="Helvetica,sans-Serif" font-size="10.00">/array.hpp</text>
</g>
<!-- Node17&#45;&gt;Node18 -->
<g id="edge22" class="edge"><title>Node17&#45;&gt;Node18</title>
<path fill="none" stroke="midnightblue" d="M560.015,-124.403C564.356,-116.961 570.837,-105.851 576.664,-95.8619"/>
<polygon fill="midnightblue" stroke="midnightblue" points="579.736,-97.5422 581.751,-87.1408 573.689,-94.015 579.736,-97.5422"/>
</g>
</g>
</svg>
        <g id="navigator" transform="translate(0 0)" fill="#404254">
                <rect fill="#f2f5e9" fill-opacity="0.5" stroke="#606060" stroke-width=".5" x="0" y="0" width="60" height="60"/>
                <use id="zoomplus" xlink:href="#zoomPlus" x="17" y="9" onmousedown="handleZoom(evt,'in')"/>
                <use id="zoomminus" xlink:href="#zoomMin" x="42" y="9" onmousedown="handleZoom(evt,'out')"/>
                <use id="reset" xlink:href="#resetDef" x="30" y="36" onmousedown="handleReset()"/>
                <g id="arrowUp" xlink:href="#dirArrow" transform="translate(30 24)" onmousedown="handlePan(0,-1)">
                  <use xlink:href="#rim" fill="#404040">
                        <set attributeName="fill" to="#808080" begin="arrowUp.mouseover" end="arrowUp.mouseout"/>
                  </use>
                  <path fill="none" stroke="white" stroke-width="1.5" d="M0,-3.0v7 M-2.5,-0.5L0,-3.0L2.5,-0.5"/>
                </g>
                <g id="arrowRight" xlink:href="#dirArrow" transform="rotate(90) translate(36 -43)" onmousedown="handlePan(1,0)">
                  <use xlink:href="#rim" fill="#404040">
                        <set attributeName="fill" to="#808080" begin="arrowRight.mouseover" end="arrowRight.mouseout"/>
                  </use>
                  <path fill="none" stroke="white" stroke-width="1.5" d="M0,-3.0v7 M-2.5,-0.5L0,-3.0L2.5,-0.5"/>
                </g>
                <g id="arrowDown" xlink:href="#dirArrow" transform="rotate(180) translate(-30 -48)" onmousedown="handlePan(0,1)">
                  <use xlink:href="#rim" fill="#404040">
                        <set attributeName="fill" to="#808080" begin="arrowDown.mouseover" end="arrowDown.mouseout"/>
                  </use>
                  <path fill="none" stroke="white" stroke-width="1.5" d="M0,-3.0v7 M-2.5,-0.5L0,-3.0L2.5,-0.5"/>
                </g>
                <g id="arrowLeft" xlink:href="#dirArrow" transform="rotate(270) translate(-36 17)" onmousedown="handlePan(-1,0)">
                  <use xlink:href="#rim" fill="#404040">
                        <set attributeName="fill" to="#808080" begin="arrowLeft.mouseover" end="arrowLeft.mouseout"/>
                  </use>
                  <path fill="none" stroke="white" stroke-width="1.5" d="M0,-3.0v7 M-2.5,-0.5L0,-3.0L2.5,-0.5"/>
                </g>
        </g>
        <svg viewBox="0 0 15 15" width="100%" height="30px" preserveAspectRatio="xMaxYMin meet">
         <g id="arrow_out" transform="scale(0.3 0.3)">
          <a xlink:href="testClusterizer_8cxx__incl_org.svg" target="_base">
           <rect id="button" ry="5" rx="5" y="6" x="6" height="38" width="38"
                fill="#f2f5e9" fill-opacity="0.5" stroke="#606060" stroke-width="1.0"/>
           <path id="arrow"
             d="M 11.500037,31.436501 C 11.940474,20.09759 22.043105,11.32322 32.158766,21.979434 L 37.068811,17.246167 C 37.068811,17.246167 37.088388,32 37.088388,32 L 22.160133,31.978069 C 22.160133,31.978069 26.997745,27.140456 26.997745,27.140456 C 18.528582,18.264221 13.291696,25.230495 11.500037,31.436501 z"
             style="fill:#404040;"/>
          </a>
         </g>
        </svg>
</svg>
