<?xml version="1.0" encoding="UTF-8" standalone="no"?>
<!DOCTYPE svg PUBLIC "-//W3C//DTD SVG 1.1//EN"
 "http://www.w3.org/Graphics/SVG/1.1/DTD/svg11.dtd">
<!-- Generated by graphviz version 2.36.0 (20140111.2315)
 -->
<!-- Title: /home/travis/build/AliceO2Group/AliceO2/Utilities/DataFlow/src/runTimeframeReaderDevice.cxx Pages: 1 -->
<!--zoomable 422 -->
<svg id="main" version="1.1" xmlns="http://www.w3.org/2000/svg" xmlns:xlink="http://www.w3.org/1999/xlink" xml:space="preserve" onload="init(evt)">
<style type="text/css"><![CDATA[
.edge:hover path { stroke: red; }
.edge:hover polygon { stroke: red; fill: red; }
]]></style>
<script type="text/javascript"><![CDATA[
var edges = document.getElementsByTagName('g');
if (edges && edges.length) {
  for (var i=0;i<edges.length;i++) {
    if (edges[i].id.substr(0,4)=='edge') {
      edges[i].setAttribute('class','edge');
    }
  }
}
]]></script>
        <defs>
                <circle id="rim" cx="0" cy="0" r="7"/>
                <circle id="rim2" cx="0" cy="0" r="3.5"/>
                <g id="zoomPlus">
                        <use xlink:href="#rim" fill="#404040">
                                <set attributeName="fill" to="#808080" begin="zoomplus.mouseover" end="zoomplus.mouseout"/>
                        </use>
                        <path d="M-4,0h8M0,-4v8" fill="none" stroke="white" stroke-width="1.5" pointer-events="none"/>
                </g>
                <g id="zoomMin">
                        <use xlink:href="#rim" fill="#404040">
                                <set attributeName="fill" to="#808080" begin="zoomminus.mouseover" end="zoomminus.mouseout"/>
                        </use>
                        <path d="M-4,0h8" fill="none" stroke="white" stroke-width="1.5" pointer-events="none"/>
                </g>
                <g id="dirArrow">
                        <path fill="none" stroke="white" stroke-width="1.5" d="M0,-3.0v7 M-2.5,-0.5L0,-3.0L2.5,-0.5"/>
                </g>
               <g id="resetDef">
                       <use xlink:href="#rim2" fill="#404040">
                               <set attributeName="fill" to="#808080" begin="reset.mouseover" end="reset.mouseout"/>
                       </use>
               </g>
        </defs>

<script type="text/javascript">
var viewWidth = 1766;
var viewHeight = 422;
var sectionId = 'dynsection-0';
</script>
<script xlink:href="../../svgpan.js"/>
<svg id="graph" class="graph">
<g id="viewport">
<title>/home/travis/build/AliceO2Group/AliceO2/Utilities/DataFlow/src/runTimeframeReaderDevice.cxx</title>
<!-- Node1 -->
<g id="node1" class="node"><title>Node1</title>
<polygon fill="#bfbfbf" stroke="black" points="1216.5,-361 1216.5,-413 1377.5,-413 1377.5,-361 1216.5,-361"/>
<text text-anchor="start" x="1224.5" y="-401" font-family="Helvetica,sans-Serif" font-size="10.00">/home/travis/build</text>
<text text-anchor="start" x="1224.5" y="-390" font-family="Helvetica,sans-Serif" font-size="10.00">/AliceO2Group/AliceO2</text>
<text text-anchor="start" x="1224.5" y="-379" font-family="Helvetica,sans-Serif" font-size="10.00">/Utilities/DataFlow/src</text>
<text text-anchor="middle" x="1297" y="-368" font-family="Helvetica,sans-Serif" font-size="10.00">/runTimeframeReaderDevice.cxx</text>
</g>
<!-- Node2 -->
<g id="node2" class="node"><title>Node2</title>
<polygon fill="none" stroke="#bfbfbf" points="1177.5,-298.5 1177.5,-317.5 1278.5,-317.5 1278.5,-298.5 1177.5,-298.5"/>
<text text-anchor="middle" x="1228" y="-305.5" font-family="Helvetica,sans-Serif" font-size="10.00">runFairMQDevice.h</text>
</g>
<!-- Node1&#45;&gt;Node2 -->
<g id="edge1" class="edge"><title>Node1&#45;&gt;Node2</title>
<path fill="none" stroke="midnightblue" d="M1274.41,-360.787C1263.86,-349.02 1251.63,-335.366 1242.37,-325.033"/>
<polygon fill="midnightblue" stroke="midnightblue" points="1244.95,-322.669 1235.67,-317.558 1239.74,-327.341 1244.95,-322.669"/>
</g>
<!-- Node3 -->
<g id="node3" class="node"><title>Node3</title>
<g id="a_node3"><a xlink:href="../../da/d74/TimeframeReaderDevice_8h.html" target="_top" xlink:title="DataFlow/TimeframeReader\lDevice.h">
<polygon fill="none" stroke="black" points="1297,-293 1297,-323 1437,-323 1437,-293 1297,-293"/>
<text text-anchor="start" x="1305" y="-311" font-family="Helvetica,sans-Serif" font-size="10.00">DataFlow/TimeframeReader</text>
<text text-anchor="middle" x="1367" y="-300" font-family="Helvetica,sans-Serif" font-size="10.00">Device.h</text>
</a>
</g>
</g>
<!-- Node1&#45;&gt;Node3 -->
<g id="edge2" class="edge"><title>Node1&#45;&gt;Node3</title>
<path fill="none" stroke="midnightblue" d="M1319.92,-360.787C1328.77,-351.056 1338.79,-340.033 1347.3,-330.666"/>
<polygon fill="midnightblue" stroke="midnightblue" points="1349.91,-333.006 1354.04,-323.252 1344.73,-328.297 1349.91,-333.006"/>
</g>
<!-- Node4 -->
<g id="node4" class="node"><title>Node4</title>
<g id="a_node4"><a xlink:href="../../d2/dee/O2Device_8h.html" target="_top" xlink:title="O2Device/O2Device.h">
<polygon fill="none" stroke="black" points="1258.5,-236.5 1258.5,-255.5 1373.5,-255.5 1373.5,-236.5 1258.5,-236.5"/>
<text text-anchor="middle" x="1316" y="-243.5" font-family="Helvetica,sans-Serif" font-size="10.00">O2Device/O2Device.h</text>
</a>
</g>
</g>
<!-- Node3&#45;&gt;Node4 -->
<g id="edge3" class="edge"><title>Node3&#45;&gt;Node4</title>
<path fill="none" stroke="midnightblue" d="M1354.91,-292.781C1347.43,-283.972 1337.78,-272.626 1329.97,-263.433"/>
<polygon fill="midnightblue" stroke="midnightblue" points="1332.56,-261.083 1323.42,-255.731 1327.23,-265.617 1332.56,-261.083"/>
</g>
<!-- Node31 -->
<g id="node31" class="node"><title>Node31</title>
<polygon fill="none" stroke="#bfbfbf" points="1392,-236.5 1392,-255.5 1442,-255.5 1442,-236.5 1392,-236.5"/>
<text text-anchor="middle" x="1417" y="-243.5" font-family="Helvetica,sans-Serif" font-size="10.00">fstream</text>
</g>
<!-- Node3&#45;&gt;Node31 -->
<g id="edge36" class="edge"><title>Node3&#45;&gt;Node31</title>
<path fill="none" stroke="midnightblue" d="M1378.85,-292.781C1386.19,-283.972 1395.64,-272.626 1403.31,-263.433"/>
<polygon fill="midnightblue" stroke="midnightblue" points="1406.01,-265.653 1409.72,-255.731 1400.63,-261.172 1406.01,-265.653"/>
</g>
<!-- Node5 -->
<g id="node5" class="node"><title>Node5</title>
<polygon fill="none" stroke="#bfbfbf" points="994,-180.5 994,-199.5 1082,-199.5 1082,-180.5 994,-180.5"/>
<text text-anchor="middle" x="1038" y="-187.5" font-family="Helvetica,sans-Serif" font-size="10.00">FairMQDevice.h</text>
</g>
<!-- Node4&#45;&gt;Node5 -->
<g id="edge4" class="edge"><title>Node4&#45;&gt;Node5</title>
<path fill="none" stroke="midnightblue" d="M1271.95,-236.444C1223.15,-226.964 1144.44,-211.675 1091.97,-201.483"/>
<polygon fill="midnightblue" stroke="midnightblue" points="1092.33,-197.988 1081.84,-199.516 1090.99,-204.859 1092.33,-197.988"/>
</g>
<!-- Node6 -->
<g id="node6" class="node"><title>Node6</title>
<polygon fill="none" stroke="#bfbfbf" points="1100,-180.5 1100,-199.5 1246,-199.5 1246,-180.5 1100,-180.5"/>
<text text-anchor="middle" x="1173" y="-187.5" font-family="Helvetica,sans-Serif" font-size="10.00">options/FairMQProgOptions.h</text>
</g>
<!-- Node4&#45;&gt;Node6 -->
<g id="edge5" class="edge"><title>Node4&#45;&gt;Node6</title>
<path fill="none" stroke="midnightblue" d="M1293.34,-236.444C1269.6,-227.478 1232.09,-213.314 1205.26,-203.183"/>
<polygon fill="midnightblue" stroke="midnightblue" points="1206.14,-199.775 1195.55,-199.516 1203.67,-206.324 1206.14,-199.775"/>
</g>
<!-- Node7 -->
<g id="node7" class="node"><title>Node7</title>
<g id="a_node7"><a xlink:href="../../d7/db2/Utilities_8h.html" target="_top" xlink:title="O2Device/Utilities.h">
<polygon fill="none" stroke="black" points="1264,-180.5 1264,-199.5 1368,-199.5 1368,-180.5 1264,-180.5"/>
<text text-anchor="middle" x="1316" y="-187.5" font-family="Helvetica,sans-Serif" font-size="10.00">O2Device/Utilities.h</text>
</a>
</g>
</g>
<!-- Node4&#45;&gt;Node7 -->
<g id="edge6" class="edge"><title>Node4&#45;&gt;Node7</title>
<path fill="none" stroke="midnightblue" d="M1316,-236.083C1316,-229.006 1316,-218.861 1316,-209.986"/>
<polygon fill="midnightblue" stroke="midnightblue" points="1319.5,-209.751 1316,-199.751 1312.5,-209.751 1319.5,-209.751"/>
</g>
<!-- Node26 -->
<g id="node26" class="node"><title>Node26</title>
<polygon fill="none" stroke="#bfbfbf" points="1699.5,-6.5 1699.5,-25.5 1758.5,-25.5 1758.5,-6.5 1699.5,-6.5"/>
<text text-anchor="middle" x="1729" y="-13.5" font-family="Helvetica,sans-Serif" font-size="10.00">stdexcept</text>
</g>
<!-- Node4&#45;&gt;Node26 -->
<g id="edge35" class="edge"><title>Node4&#45;&gt;Node26</title>
<path fill="none" stroke="midnightblue" d="M1331.69,-236.341C1394.42,-201.706 1627.59,-72.9832 1704.34,-30.6162"/>
<polygon fill="midnightblue" stroke="midnightblue" points="1706.24,-33.5653 1713.3,-25.6681 1702.85,-27.4371 1706.24,-33.5653"/>
</g>
<!-- Node30 -->
<g id="node30" class="node"><title>Node30</title>
<polygon fill="none" stroke="#bfbfbf" points="1446.5,-180.5 1446.5,-199.5 1597.5,-199.5 1597.5,-180.5 1446.5,-180.5"/>
<text text-anchor="middle" x="1522" y="-187.5" font-family="Helvetica,sans-Serif" font-size="10.00">Monitoring/MonitoringFactory.h</text>
</g>
<!-- Node4&#45;&gt;Node30 -->
<g id="edge34" class="edge"><title>Node4&#45;&gt;Node30</title>
<path fill="none" stroke="midnightblue" d="M1348.64,-236.444C1384.05,-227.162 1440.71,-212.309 1479.55,-202.127"/>
<polygon fill="midnightblue" stroke="midnightblue" points="1480.73,-205.438 1489.51,-199.516 1478.95,-198.667 1480.73,-205.438"/>
</g>
<!-- Node8 -->
<g id="node8" class="node"><title>Node8</title>
<g id="a_node8"><a xlink:href="../../dc/d03/MemoryResources_8h.html" target="_top" xlink:title="MemoryResources/MemoryResources.h">
<polygon fill="none" stroke="black" points="682.5,-68.5 682.5,-87.5 875.5,-87.5 875.5,-68.5 682.5,-68.5"/>
<text text-anchor="middle" x="779" y="-75.5" font-family="Helvetica,sans-Serif" font-size="10.00">MemoryResources/MemoryResources.h</text>
</a>
</g>
</g>
<!-- Node7&#45;&gt;Node8 -->
<g id="edge7" class="edge"><title>Node7&#45;&gt;Node8</title>
<path fill="none" stroke="midnightblue" d="M1274.31,-180.46C1177.27,-160.582 936.493,-111.261 830.492,-89.5477"/>
<polygon fill="midnightblue" stroke="midnightblue" points="831.163,-86.1126 820.664,-87.5345 829.758,-92.9702 831.163,-86.1126"/>
</g>
<!-- Node16 -->
<g id="node16" class="node"><title>Node16</title>
<polygon fill="none" stroke="#bfbfbf" points="0,-6.5 0,-25.5 40,-25.5 40,-6.5 0,-6.5"/>
<text text-anchor="middle" x="20" y="-13.5" font-family="Helvetica,sans-Serif" font-size="10.00">utility</text>
</g>
<!-- Node7&#45;&gt;Node16 -->
<g id="edge32" class="edge"><title>Node7&#45;&gt;Node16</title>
<path fill="none" stroke="midnightblue" d="M1263.77,-181.208C1260.8,-180.792 1257.86,-180.387 1255,-180 719.841,-107.695 564.945,-191.446 49,-32 47.091,-31.41 45.1579,-30.6982 43.2435,-29.9091"/>
<polygon fill="midnightblue" stroke="midnightblue" points="44.56,-26.6597 34.0257,-25.528 41.555,-32.9819 44.56,-26.6597"/>
</g>
<!-- Node21 -->
<g id="node21" class="node"><title>Node21</title>
<g id="a_node21"><a xlink:href="../../dc/dcd/DataHeader_8h.html" target="_top" xlink:title="Headers/DataHeader.h">
<polygon fill="none" stroke="black" points="1265.5,-68.5 1265.5,-87.5 1382.5,-87.5 1382.5,-68.5 1265.5,-68.5"/>
<text text-anchor="middle" x="1324" y="-75.5" font-family="Helvetica,sans-Serif" font-size="10.00">Headers/DataHeader.h</text>
</a>
</g>
</g>
<!-- Node7&#45;&gt;Node21 -->
<g id="edge20" class="edge"><title>Node7&#45;&gt;Node21</title>
<path fill="none" stroke="midnightblue" d="M1316.63,-180.368C1317.92,-162.617 1320.9,-121.666 1322.65,-97.5974"/>
<polygon fill="midnightblue" stroke="midnightblue" points="1326.14,-97.819 1323.38,-87.5914 1319.16,-97.3112 1326.14,-97.819"/>
</g>
<!-- Node28 -->
<g id="node28" class="node"><title>Node28</title>
<g id="a_node28"><a xlink:href="../../d4/d00/Headers_2include_2Headers_2Stack_8h.html" target="_top" xlink:title="Headers/Stack.h">
<polygon fill="none" stroke="black" points="1198,-124.5 1198,-143.5 1288,-143.5 1288,-124.5 1198,-124.5"/>
<text text-anchor="middle" x="1243" y="-131.5" font-family="Helvetica,sans-Serif" font-size="10.00">Headers/Stack.h</text>
</a>
</g>
</g>
<!-- Node7&#45;&gt;Node28 -->
<g id="edge29" class="edge"><title>Node7&#45;&gt;Node28</title>
<path fill="none" stroke="midnightblue" d="M1304.27,-180.324C1293.16,-172.107 1276.26,-159.602 1263.02,-149.807"/>
<polygon fill="midnightblue" stroke="midnightblue" points="1265.06,-146.967 1254.94,-143.834 1260.9,-152.595 1265.06,-146.967"/>
</g>
<!-- Node29 -->
<g id="node29" class="node"><title>Node29</title>
<polygon fill="none" stroke="#bfbfbf" points="1344.5,-124.5 1344.5,-143.5 1389.5,-143.5 1389.5,-124.5 1344.5,-124.5"/>
<text text-anchor="middle" x="1367" y="-131.5" font-family="Helvetica,sans-Serif" font-size="10.00">gsl/gsl</text>
</g>
<!-- Node7&#45;&gt;Node29 -->
<g id="edge33" class="edge"><title>Node7&#45;&gt;Node29</title>
<path fill="none" stroke="midnightblue" d="M1324.42,-180.083C1331.85,-172.22 1342.85,-160.569 1351.81,-151.081"/>
<polygon fill="midnightblue" stroke="midnightblue" points="1354.41,-153.424 1358.74,-143.751 1349.32,-148.618 1354.41,-153.424"/>
</g>
<!-- Node9 -->
<g id="node9" class="node"><title>Node9</title>
<polygon fill="none" stroke="#bfbfbf" points="58,-1 58,-31 158,-31 158,-1 58,-1"/>
<text text-anchor="start" x="66" y="-19" font-family="Helvetica,sans-Serif" font-size="10.00">boost/container/flat</text>
<text text-anchor="middle" x="108" y="-8" font-family="Helvetica,sans-Serif" font-size="10.00">_map.hpp</text>
</g>
<!-- Node8&#45;&gt;Node9 -->
<g id="edge8" class="edge"><title>Node8&#45;&gt;Node9</title>
<path fill="none" stroke="midnightblue" d="M682.458,-75.1277C563.468,-71.645 355.091,-61.7219 168.102,-31.9861"/>
<polygon fill="midnightblue" stroke="midnightblue" points="168.516,-28.5076 158.086,-30.3708 167.401,-35.4183 168.516,-28.5076"/>
</g>
<!-- Node10 -->
<g id="node10" class="node"><title>Node10</title>
<polygon fill="none" stroke="#bfbfbf" points="176,-1 176,-31 292,-31 292,-1 176,-1"/>
<text text-anchor="start" x="184" y="-19" font-family="Helvetica,sans-Serif" font-size="10.00">boost/container/pmr</text>
<text text-anchor="middle" x="234" y="-8" font-family="Helvetica,sans-Serif" font-size="10.00">/memory_resource.hpp</text>
</g>
<!-- Node8&#45;&gt;Node10 -->
<g id="edge9" class="edge"><title>Node8&#45;&gt;Node10</title>
<path fill="none" stroke="midnightblue" d="M682.419,-71.5024C587.821,-65.2947 439.464,-53.3704 301.903,-32.0142"/>
<polygon fill="midnightblue" stroke="midnightblue" points="302.441,-28.5558 292.018,-30.4602 301.353,-35.4709 302.441,-28.5558"/>
</g>
<!-- Node11 -->
<g id="node11" class="node"><title>Node11</title>
<polygon fill="none" stroke="#bfbfbf" points="310,-1 310,-31 466,-31 466,-1 310,-1"/>
<text text-anchor="start" x="318" y="-19" font-family="Helvetica,sans-Serif" font-size="10.00">boost/container/pmr</text>
<text text-anchor="middle" x="388" y="-8" font-family="Helvetica,sans-Serif" font-size="10.00">/monotonic_buffer_resource.hpp</text>
</g>
<!-- Node8&#45;&gt;Node11 -->
<g id="edge10" class="edge"><title>Node8&#45;&gt;Node11</title>
<path fill="none" stroke="midnightblue" d="M719.151,-68.4969C660.139,-60.0255 567.115,-46.4384 476.131,-31.9996"/>
<polygon fill="midnightblue" stroke="midnightblue" points="476.622,-28.5337 466.196,-30.4181 475.521,-35.4466 476.622,-28.5337"/>
</g>
<!-- Node12 -->
<g id="node12" class="node"><title>Node12</title>
<polygon fill="none" stroke="#bfbfbf" points="484.5,-1 484.5,-31 617.5,-31 617.5,-1 484.5,-1"/>
<text text-anchor="start" x="492.5" y="-19" font-family="Helvetica,sans-Serif" font-size="10.00">boost/container/pmr</text>
<text text-anchor="middle" x="551" y="-8" font-family="Helvetica,sans-Serif" font-size="10.00">/polymorphic_allocator.hpp</text>
</g>
<!-- Node8&#45;&gt;Node12 -->
<g id="edge11" class="edge"><title>Node8&#45;&gt;Node12</title>
<path fill="none" stroke="midnightblue" d="M746.333,-68.4035C711.949,-59.3549 656.966,-44.8857 614.082,-33.6005"/>
<polygon fill="midnightblue" stroke="midnightblue" points="614.858,-30.1856 604.296,-31.0253 613.076,-36.9551 614.858,-30.1856"/>
</g>
<!-- Node13 -->
<g id="node13" class="node"><title>Node13</title>
<polygon fill="none" stroke="#bfbfbf" points="1144,-6.5 1144,-25.5 1190,-25.5 1190,-6.5 1144,-6.5"/>
<text text-anchor="middle" x="1167" y="-13.5" font-family="Helvetica,sans-Serif" font-size="10.00">cstring</text>
</g>
<!-- Node8&#45;&gt;Node13 -->
<g id="edge12" class="edge"><title>Node8&#45;&gt;Node13</title>
<path fill="none" stroke="midnightblue" d="M875.863,-72.5786C948.13,-67.4014 1048.68,-56.1976 1134,-32 1136.35,-31.3335 1138.75,-30.5244 1141.12,-29.6311"/>
<polygon fill="midnightblue" stroke="midnightblue" points="1142.73,-32.7504 1150.58,-25.6356 1140.01,-26.3019 1142.73,-32.7504"/>
</g>
<!-- Node14 -->
<g id="node14" class="node"><title>Node14</title>
<polygon fill="none" stroke="#bfbfbf" points="1208.5,-6.5 1208.5,-25.5 1249.5,-25.5 1249.5,-6.5 1208.5,-6.5"/>
<text text-anchor="middle" x="1229" y="-13.5" font-family="Helvetica,sans-Serif" font-size="10.00">string</text>
</g>
<!-- Node8&#45;&gt;Node14 -->
<g id="edge13" class="edge"><title>Node8&#45;&gt;Node14</title>
<path fill="none" stroke="midnightblue" d="M875.547,-76.3521C961.917,-73.5074 1091.16,-63.6184 1199,-32 1200.97,-31.4225 1202.97,-30.7197 1204.94,-29.9369"/>
<polygon fill="midnightblue" stroke="midnightblue" points="1206.84,-32.9168 1214.47,-25.5679 1203.93,-26.5535 1206.84,-32.9168"/>
</g>
<!-- Node15 -->
<g id="node15" class="node"><title>Node15</title>
<polygon fill="none" stroke="#bfbfbf" points="636,-6.5 636,-25.5 698,-25.5 698,-6.5 636,-6.5"/>
<text text-anchor="middle" x="667" y="-13.5" font-family="Helvetica,sans-Serif" font-size="10.00">type_traits</text>
</g>
<!-- Node8&#45;&gt;Node15 -->
<g id="edge14" class="edge"><title>Node8&#45;&gt;Node15</title>
<path fill="none" stroke="midnightblue" d="M762.953,-68.4035C744.407,-58.4678 713.66,-41.9966 691.978,-30.3812"/>
<polygon fill="midnightblue" stroke="midnightblue" points="693.485,-27.2177 683.017,-25.5806 690.179,-33.388 693.485,-27.2177"/>
</g>
<!-- Node8&#45;&gt;Node16 -->
<g id="edge15" class="edge"><title>Node8&#45;&gt;Node16</title>
<path fill="none" stroke="midnightblue" d="M682.313,-75.9827C511.98,-73.3699 165.428,-64.1542 49,-32 47.033,-31.4568 45.0458,-30.7697 43.0829,-29.99"/>
<polygon fill="midnightblue" stroke="midnightblue" points="44.2152,-26.6544 33.6774,-25.5563 41.2304,-32.9862 44.2152,-26.6544"/>
</g>
<!-- Node17 -->
<g id="node17" class="node"><title>Node17</title>
<polygon fill="none" stroke="#bfbfbf" points="716,-6.5 716,-25.5 760,-25.5 760,-6.5 716,-6.5"/>
<text text-anchor="middle" x="738" y="-13.5" font-family="Helvetica,sans-Serif" font-size="10.00">vector</text>
</g>
<!-- Node8&#45;&gt;Node17 -->
<g id="edge16" class="edge"><title>Node8&#45;&gt;Node17</title>
<path fill="none" stroke="midnightblue" d="M773.126,-68.4035C767.037,-59.4925 757.355,-45.3247 749.697,-34.1177"/>
<polygon fill="midnightblue" stroke="midnightblue" points="752.395,-31.8624 743.863,-25.5806 746.616,-35.8117 752.395,-31.8624"/>
</g>
<!-- Node18 -->
<g id="node18" class="node"><title>Node18</title>
<polygon fill="none" stroke="#bfbfbf" points="778.5,-6.5 778.5,-25.5 861.5,-25.5 861.5,-6.5 778.5,-6.5"/>
<text text-anchor="middle" x="820" y="-13.5" font-family="Helvetica,sans-Serif" font-size="10.00">unordered_map</text>
</g>
<!-- Node8&#45;&gt;Node18 -->
<g id="edge17" class="edge"><title>Node8&#45;&gt;Node18</title>
<path fill="none" stroke="midnightblue" d="M784.874,-68.4035C790.963,-59.4925 800.645,-45.3247 808.303,-34.1177"/>
<polygon fill="midnightblue" stroke="midnightblue" points="811.384,-35.8117 814.137,-25.5806 805.605,-31.8624 811.384,-35.8117"/>
</g>
<!-- Node19 -->
<g id="node19" class="node"><title>Node19</title>
<polygon fill="none" stroke="#bfbfbf" points="879.5,-6.5 879.5,-25.5 976.5,-25.5 976.5,-6.5 879.5,-6.5"/>
<text text-anchor="middle" x="928" y="-13.5" font-family="Helvetica,sans-Serif" font-size="10.00">FairMQMessage.h</text>
</g>
<!-- Node8&#45;&gt;Node19 -->
<g id="edge18" class="edge"><title>Node8&#45;&gt;Node19</title>
<path fill="none" stroke="midnightblue" d="M800.348,-68.4035C825.686,-58.2004 868.138,-41.1055 897.071,-29.4544"/>
<polygon fill="midnightblue" stroke="midnightblue" points="898.723,-32.5627 906.692,-25.5806 896.108,-26.0694 898.723,-32.5627"/>
</g>
<!-- Node20 -->
<g id="node20" class="node"><title>Node20</title>
<polygon fill="none" stroke="#bfbfbf" points="994.5,-6.5 994.5,-25.5 1125.5,-25.5 1125.5,-6.5 994.5,-6.5"/>
<text text-anchor="middle" x="1060" y="-13.5" font-family="Helvetica,sans-Serif" font-size="10.00">FairMQTransportFactory.h</text>
</g>
<!-- Node8&#45;&gt;Node20 -->
<g id="edge19" class="edge"><title>Node8&#45;&gt;Node20</title>
<path fill="none" stroke="midnightblue" d="M818.962,-68.4672C869.315,-57.7156 955.847,-39.239 1010.38,-27.5947"/>
<polygon fill="midnightblue" stroke="midnightblue" points="1011.13,-31.0145 1020.18,-25.5034 1009.67,-24.1688 1011.13,-31.0145"/>
</g>
<!-- Node21&#45;&gt;Node13 -->
<g id="edge24" class="edge"><title>Node21&#45;&gt;Node13</title>
<path fill="none" stroke="midnightblue" d="M1298.6,-68.4387C1273.38,-59.7832 1233.72,-45.7555 1200,-32 1198.16,-31.2511 1196.28,-30.4595 1194.39,-29.6468"/>
<polygon fill="midnightblue" stroke="midnightblue" points="1195.61,-26.3575 1185.04,-25.5105 1192.77,-32.7585 1195.61,-26.3575"/>
</g>
<!-- Node21&#45;&gt;Node14 -->
<g id="edge27" class="edge"><title>Node21&#45;&gt;Node14</title>
<path fill="none" stroke="midnightblue" d="M1310.39,-68.4035C1294.94,-58.646 1269.51,-42.5854 1251.18,-31.0109"/>
<polygon fill="midnightblue" stroke="midnightblue" points="1252.91,-27.9613 1242.59,-25.5806 1249.17,-33.8798 1252.91,-27.9613"/>
</g>
<!-- Node22 -->
<g id="node22" class="node"><title>Node22</title>
<polygon fill="none" stroke="#bfbfbf" points="1268,-6.5 1268,-25.5 1314,-25.5 1314,-6.5 1268,-6.5"/>
<text text-anchor="middle" x="1291" y="-13.5" font-family="Helvetica,sans-Serif" font-size="10.00">cstdint</text>
</g>
<!-- Node21&#45;&gt;Node22 -->
<g id="edge21" class="edge"><title>Node21&#45;&gt;Node22</title>
<path fill="none" stroke="midnightblue" d="M1319.27,-68.4035C1314.42,-59.5816 1306.73,-45.6075 1300.6,-34.4548"/>
<polygon fill="midnightblue" stroke="midnightblue" points="1303.61,-32.656 1295.72,-25.5806 1297.47,-36.0295 1303.61,-32.656"/>
</g>
<!-- Node23 -->
<g id="node23" class="node"><title>Node23</title>
<polygon fill="none" stroke="#bfbfbf" points="1332,-6.5 1332,-25.5 1384,-25.5 1384,-6.5 1332,-6.5"/>
<text text-anchor="middle" x="1358" y="-13.5" font-family="Helvetica,sans-Serif" font-size="10.00">memory</text>
</g>
<!-- Node21&#45;&gt;Node23 -->
<g id="edge22" class="edge"><title>Node21&#45;&gt;Node23</title>
<path fill="none" stroke="midnightblue" d="M1328.87,-68.4035C1333.87,-59.5816 1341.79,-45.6075 1348.11,-34.4548"/>
<polygon fill="midnightblue" stroke="midnightblue" points="1351.25,-36.0064 1353.14,-25.5806 1345.16,-32.5553 1351.25,-36.0064"/>
</g>
<!-- Node24 -->
<g id="node24" class="node"><title>Node24</title>
<polygon fill="none" stroke="#bfbfbf" points="1402.5,-6.5 1402.5,-25.5 1451.5,-25.5 1451.5,-6.5 1402.5,-6.5"/>
<text text-anchor="middle" x="1427" y="-13.5" font-family="Helvetica,sans-Serif" font-size="10.00">cassert</text>
</g>
<!-- Node21&#45;&gt;Node24 -->
<g id="edge23" class="edge"><title>Node21&#45;&gt;Node24</title>
<path fill="none" stroke="midnightblue" d="M1338.76,-68.4035C1355.66,-58.5569 1383.58,-42.2915 1403.49,-30.6949"/>
<polygon fill="midnightblue" stroke="midnightblue" points="1405.39,-33.6384 1412.27,-25.5806 1401.87,-27.5898 1405.39,-33.6384"/>
</g>
<!-- Node25 -->
<g id="node25" class="node"><title>Node25</title>
<polygon fill="none" stroke="#bfbfbf" points="1470,-6.5 1470,-25.5 1526,-25.5 1526,-6.5 1470,-6.5"/>
<text text-anchor="middle" x="1498" y="-13.5" font-family="Helvetica,sans-Serif" font-size="10.00">algorithm</text>
</g>
<!-- Node21&#45;&gt;Node25 -->
<g id="edge25" class="edge"><title>Node21&#45;&gt;Node25</title>
<path fill="none" stroke="midnightblue" d="M1351.25,-68.4826C1378.82,-59.7485 1422.59,-45.5606 1460,-32 1462.39,-31.1329 1464.86,-30.2142 1467.34,-29.2755"/>
<polygon fill="midnightblue" stroke="midnightblue" points="1468.71,-32.4952 1476.78,-25.622 1466.19,-25.9669 1468.71,-32.4952"/>
</g>
<!-- Node21&#45;&gt;Node26 -->
<g id="edge26" class="edge"><title>Node21&#45;&gt;Node26</title>
<path fill="none" stroke="midnightblue" d="M1382.68,-70.1658C1482.32,-58.5064 1675.31,-35.6699 1690,-32 1693.24,-31.1914 1696.57,-30.189 1699.86,-29.0887"/>
<polygon fill="midnightblue" stroke="midnightblue" points="1701.27,-32.3021 1709.46,-25.5895 1698.87,-25.7252 1701.27,-32.3021"/>
</g>
<!-- Node27 -->
<g id="node27" class="node"><title>Node27</title>
<g id="a_node27"><a xlink:href="../../d7/df8/Types_8h.html" target="_top" xlink:title="MemoryResources/Types.h">
<polygon fill="none" stroke="black" points="1544.5,-6.5 1544.5,-25.5 1681.5,-25.5 1681.5,-6.5 1544.5,-6.5"/>
<text text-anchor="middle" x="1613" y="-13.5" font-family="Helvetica,sans-Serif" font-size="10.00">MemoryResources/Types.h</text>
</a>
</g>
</g>
<!-- Node21&#45;&gt;Node27 -->
<g id="edge28" class="edge"><title>Node21&#45;&gt;Node27</title>
<path fill="none" stroke="midnightblue" d="M1365.1,-68.4672C1416.89,-57.7156 1505.88,-39.239 1561.97,-27.5947"/>
<polygon fill="midnightblue" stroke="midnightblue" points="1562.96,-30.9632 1572.04,-25.5034 1561.54,-24.1093 1562.96,-30.9632"/>
</g>
<!-- Node28&#45;&gt;Node8 -->
<g id="edge30" class="edge"><title>Node28&#45;&gt;Node8</title>
<path fill="none" stroke="midnightblue" d="M1197.66,-127.724C1120.03,-118.689 960.527,-100.126 862.359,-88.7012"/>
<polygon fill="midnightblue" stroke="midnightblue" points="862.511,-85.1954 852.173,-87.5158 861.702,-92.1485 862.511,-85.1954"/>
</g>
<!-- Node28&#45;&gt;Node21 -->
<g id="edge31" class="edge"><title>Node28&#45;&gt;Node21</title>
<path fill="none" stroke="midnightblue" d="M1256.01,-124.324C1268.53,-115.979 1287.68,-103.212 1302.47,-93.3524"/>
<polygon fill="midnightblue" stroke="midnightblue" points="1304.64,-96.1137 1311.02,-87.6545 1300.76,-90.2894 1304.64,-96.1137"/>
</g>
</g>
</svg>
        <g id="navigator" transform="translate(0 0)" fill="#404254">
                <rect fill="#f2f5e9" fill-opacity="0.5" stroke="#606060" stroke-width=".5" x="0" y="0" width="60" height="60"/>
                <use id="zoomplus" xlink:href="#zoomPlus" x="17" y="9" onmousedown="handleZoom(evt,'in')"/>
                <use id="zoomminus" xlink:href="#zoomMin" x="42" y="9" onmousedown="handleZoom(evt,'out')"/>
                <use id="reset" xlink:href="#resetDef" x="30" y="36" onmousedown="handleReset()"/>
                <g id="arrowUp" xlink:href="#dirArrow" transform="translate(30 24)" onmousedown="handlePan(0,-1)">
                  <use xlink:href="#rim" fill="#404040">
                        <set attributeName="fill" to="#808080" begin="arrowUp.mouseover" end="arrowUp.mouseout"/>
                  </use>
                  <path fill="none" stroke="white" stroke-width="1.5" d="M0,-3.0v7 M-2.5,-0.5L0,-3.0L2.5,-0.5"/>
                </g>
                <g id="arrowRight" xlink:href="#dirArrow" transform="rotate(90) translate(36 -43)" onmousedown="handlePan(1,0)">
                  <use xlink:href="#rim" fill="#404040">
                        <set attributeName="fill" to="#808080" begin="arrowRight.mouseover" end="arrowRight.mouseout"/>
                  </use>
                  <path fill="none" stroke="white" stroke-width="1.5" d="M0,-3.0v7 M-2.5,-0.5L0,-3.0L2.5,-0.5"/>
                </g>
                <g id="arrowDown" xlink:href="#dirArrow" transform="rotate(180) translate(-30 -48)" onmousedown="handlePan(0,1)">
                  <use xlink:href="#rim" fill="#404040">
                        <set attributeName="fill" to="#808080" begin="arrowDown.mouseover" end="arrowDown.mouseout"/>
                  </use>
                  <path fill="none" stroke="white" stroke-width="1.5" d="M0,-3.0v7 M-2.5,-0.5L0,-3.0L2.5,-0.5"/>
                </g>
                <g id="arrowLeft" xlink:href="#dirArrow" transform="rotate(270) translate(-36 17)" onmousedown="handlePan(-1,0)">
                  <use xlink:href="#rim" fill="#404040">
                        <set attributeName="fill" to="#808080" begin="arrowLeft.mouseover" end="arrowLeft.mouseout"/>
                  </use>
                  <path fill="none" stroke="white" stroke-width="1.5" d="M0,-3.0v7 M-2.5,-0.5L0,-3.0L2.5,-0.5"/>
                </g>
        </g>
        <svg viewBox="0 0 15 15" width="100%" height="30px" preserveAspectRatio="xMaxYMin meet">
         <g id="arrow_out" transform="scale(0.3 0.3)">
          <a xlink:href="runTimeframeReaderDevice_8cxx__incl_org.svg" target="_base">
           <rect id="button" ry="5" rx="5" y="6" x="6" height="38" width="38"
                fill="#f2f5e9" fill-opacity="0.5" stroke="#606060" stroke-width="1.0"/>
           <path id="arrow"
             d="M 11.500037,31.436501 C 11.940474,20.09759 22.043105,11.32322 32.158766,21.979434 L 37.068811,17.246167 C 37.068811,17.246167 37.088388,32 37.088388,32 L 22.160133,31.978069 C 22.160133,31.978069 26.997745,27.140456 26.997745,27.140456 C 18.528582,18.264221 13.291696,25.230495 11.500037,31.436501 z"
             style="fill:#404040;"/>
          </a>
         </g>
        </svg>
</svg>
