<?xml version="1.0" encoding="UTF-8" standalone="no"?>
<!DOCTYPE svg PUBLIC "-//W3C//DTD SVG 1.1//EN"
 "http://www.w3.org/Graphics/SVG/1.1/DTD/svg11.dtd">
<!-- Generated by graphviz version 2.36.0 (20140111.2315)
 -->
<!-- Title: /home/travis/build/AliceO2Group/AliceO2/Steer/src/HitProcessingManager.cxx Pages: 1 -->
<!--zoomable 298 -->
<svg id="main" version="1.1" xmlns="http://www.w3.org/2000/svg" xmlns:xlink="http://www.w3.org/1999/xlink" xml:space="preserve" onload="init(evt)">
<style type="text/css"><![CDATA[
.edge:hover path { stroke: red; }
.edge:hover polygon { stroke: red; fill: red; }
]]></style>
<script type="text/javascript"><![CDATA[
var edges = document.getElementsByTagName('g');
if (edges && edges.length) {
  for (var i=0;i<edges.length;i++) {
    if (edges[i].id.substr(0,4)=='edge') {
      edges[i].setAttribute('class','edge');
    }
  }
}
]]></script>
        <defs>
                <circle id="rim" cx="0" cy="0" r="7"/>
                <circle id="rim2" cx="0" cy="0" r="3.5"/>
                <g id="zoomPlus">
                        <use xlink:href="#rim" fill="#404040">
                                <set attributeName="fill" to="#808080" begin="zoomplus.mouseover" end="zoomplus.mouseout"/>
                        </use>
                        <path d="M-4,0h8M0,-4v8" fill="none" stroke="white" stroke-width="1.5" pointer-events="none"/>
                </g>
                <g id="zoomMin">
                        <use xlink:href="#rim" fill="#404040">
                                <set attributeName="fill" to="#808080" begin="zoomminus.mouseover" end="zoomminus.mouseout"/>
                        </use>
                        <path d="M-4,0h8" fill="none" stroke="white" stroke-width="1.5" pointer-events="none"/>
                </g>
                <g id="dirArrow">
                        <path fill="none" stroke="white" stroke-width="1.5" d="M0,-3.0v7 M-2.5,-0.5L0,-3.0L2.5,-0.5"/>
                </g>
               <g id="resetDef">
                       <use xlink:href="#rim2" fill="#404040">
                               <set attributeName="fill" to="#808080" begin="reset.mouseover" end="reset.mouseout"/>
                       </use>
               </g>
        </defs>

<script type="text/javascript">
var viewWidth = 785;
var viewHeight = 298;
var sectionId = 'dynsection-0';
</script>
<script xlink:href="../../svgpan.js"/>
<svg id="graph" class="graph">
<g id="viewport">
<title>/home/travis/build/AliceO2Group/AliceO2/Steer/src/HitProcessingManager.cxx</title>
<!-- Node1 -->
<g id="node1" class="node"><title>Node1</title>
<polygon fill="#bfbfbf" stroke="black" points="433,-248.5 433,-289.5 613,-289.5 613,-248.5 433,-248.5"/>
<text text-anchor="start" x="441" y="-277.5" font-family="Helvetica,sans-Serif" font-size="10.00">/home/travis/build</text>
<text text-anchor="start" x="441" y="-266.5" font-family="Helvetica,sans-Serif" font-size="10.00">/AliceO2Group/AliceO2</text>
<text text-anchor="middle" x="523" y="-255.5" font-family="Helvetica,sans-Serif" font-size="10.00">/Steer/src/HitProcessingManager.cxx</text>
</g>
<!-- Node2 -->
<g id="node2" class="node"><title>Node2</title>
<g id="a_node2"><a xlink:href="../../dd/d40/HitProcessingManager_8h.html" target="_top" xlink:title="Steer/HitProcessingManager.h">
<polygon fill="none" stroke="black" points="281,-192.5 281,-211.5 431,-211.5 431,-192.5 281,-192.5"/>
<text text-anchor="middle" x="356" y="-199.5" font-family="Helvetica,sans-Serif" font-size="10.00">Steer/HitProcessingManager.h</text>
</a>
</g>
</g>
<!-- Node1&#45;&gt;Node2 -->
<g id="edge1" class="edge"><title>Node1&#45;&gt;Node2</title>
<path fill="none" stroke="midnightblue" d="M472.894,-248.498C445.198,-237.718 411.632,-224.653 387.586,-215.294"/>
<polygon fill="midnightblue" stroke="midnightblue" points="388.819,-212.018 378.23,-211.652 386.28,-218.541 388.819,-212.018"/>
</g>
<!-- Node9 -->
<g id="node9" class="node"><title>Node9</title>
<polygon fill="none" stroke="#bfbfbf" points="0,-62.5 0,-81.5 44,-81.5 44,-62.5 0,-62.5"/>
<text text-anchor="middle" x="22" y="-69.5" font-family="Helvetica,sans-Serif" font-size="10.00">vector</text>
</g>
<!-- Node1&#45;&gt;Node9 -->
<g id="edge30" class="edge"><title>Node1&#45;&gt;Node9</title>
<path fill="none" stroke="midnightblue" d="M432.828,-258.242C309.491,-243.066 97.2567,-209.826 43,-156 25.9674,-139.103 22.0649,-110.516 21.5064,-91.6988"/>
<polygon fill="midnightblue" stroke="midnightblue" points="25.0065,-91.6699 21.4964,-81.6734 18.0065,-91.6769 25.0065,-91.6699"/>
</g>
<!-- Node19 -->
<g id="node19" class="node"><title>Node19</title>
<polygon fill="none" stroke="#bfbfbf" points="661.5,-130.5 661.5,-149.5 696.5,-149.5 696.5,-130.5 661.5,-130.5"/>
<text text-anchor="middle" x="679" y="-137.5" font-family="Helvetica,sans-Serif" font-size="10.00">map</text>
</g>
<!-- Node1&#45;&gt;Node19 -->
<g id="edge31" class="edge"><title>Node1&#45;&gt;Node19</title>
<path fill="none" stroke="midnightblue" d="M498.107,-248.252C480.993,-232.285 463.722,-209.64 478,-192 526.316,-132.307 574.202,-180.457 647,-156 649.127,-155.286 651.298,-154.469 653.459,-153.595"/>
<polygon fill="midnightblue" stroke="midnightblue" points="654.951,-156.762 662.687,-149.523 652.125,-150.358 654.951,-156.762"/>
</g>
<!-- Node21 -->
<g id="node21" class="node"><title>Node21</title>
<polygon fill="none" stroke="#bfbfbf" points="487.5,-192.5 487.5,-211.5 558.5,-211.5 558.5,-192.5 487.5,-192.5"/>
<text text-anchor="middle" x="523" y="-199.5" font-family="Helvetica,sans-Serif" font-size="10.00">FairLogger.h</text>
</g>
<!-- Node1&#45;&gt;Node21 -->
<g id="edge29" class="edge"><title>Node1&#45;&gt;Node21</title>
<path fill="none" stroke="midnightblue" d="M523,-248.498C523,-240.065 523,-230.235 523,-221.874"/>
<polygon fill="midnightblue" stroke="midnightblue" points="526.5,-221.652 523,-211.652 519.5,-221.653 526.5,-221.652"/>
</g>
<!-- Node22 -->
<g id="node22" class="node"><title>Node22</title>
<polygon fill="none" stroke="#bfbfbf" points="577,-192.5 577,-211.5 631,-211.5 631,-192.5 577,-192.5"/>
<text text-anchor="middle" x="604" y="-199.5" font-family="Helvetica,sans-Serif" font-size="10.00">iostream</text>
</g>
<!-- Node1&#45;&gt;Node22 -->
<g id="edge32" class="edge"><title>Node1&#45;&gt;Node22</title>
<path fill="none" stroke="midnightblue" d="M547.303,-248.498C559.483,-238.724 574.003,-227.072 585.299,-218.007"/>
<polygon fill="midnightblue" stroke="midnightblue" points="587.609,-220.641 593.218,-211.652 583.228,-215.181 587.609,-220.641"/>
</g>
<!-- Node23 -->
<g id="node23" class="node"><title>Node23</title>
<polygon fill="none" stroke="#bfbfbf" points="649.5,-192.5 649.5,-211.5 696.5,-211.5 696.5,-192.5 649.5,-192.5"/>
<text text-anchor="middle" x="673" y="-199.5" font-family="Helvetica,sans-Serif" font-size="10.00">TFile.h</text>
</g>
<!-- Node1&#45;&gt;Node23 -->
<g id="edge33" class="edge"><title>Node1&#45;&gt;Node23</title>
<path fill="none" stroke="midnightblue" d="M568.005,-248.498C592.551,-237.861 622.228,-225.001 643.76,-215.67"/>
<polygon fill="midnightblue" stroke="midnightblue" points="645.249,-218.84 653.033,-211.652 642.466,-212.417 645.249,-218.84"/>
</g>
<!-- Node24 -->
<g id="node24" class="node"><title>Node24</title>
<polygon fill="none" stroke="#bfbfbf" points="715,-192.5 715,-211.5 771,-211.5 771,-192.5 715,-192.5"/>
<text text-anchor="middle" x="743" y="-199.5" font-family="Helvetica,sans-Serif" font-size="10.00">TClass.h</text>
</g>
<!-- Node1&#45;&gt;Node24 -->
<g id="edge34" class="edge"><title>Node1&#45;&gt;Node24</title>
<path fill="none" stroke="midnightblue" d="M589.007,-248.498C626.924,-237.295 673.19,-223.626 705.054,-214.211"/>
<polygon fill="midnightblue" stroke="midnightblue" points="706.266,-217.503 714.864,-211.313 704.282,-210.79 706.266,-217.503"/>
</g>
<!-- Node3 -->
<g id="node3" class="node"><title>Node3</title>
<g id="a_node3"><a xlink:href="../../d9/d80/InteractionRecord_8h.html" target="_top" xlink:title="CommonDataFormat/Interaction\lRecord.h">
<polygon fill="none" stroke="black" points="517.5,-57 517.5,-87 674.5,-87 674.5,-57 517.5,-57"/>
<text text-anchor="start" x="525.5" y="-75" font-family="Helvetica,sans-Serif" font-size="10.00">CommonDataFormat/Interaction</text>
<text text-anchor="middle" x="596" y="-64" font-family="Helvetica,sans-Serif" font-size="10.00">Record.h</text>
</a>
</g>
</g>
<!-- Node2&#45;&gt;Node3 -->
<g id="edge2" class="edge"><title>Node2&#45;&gt;Node3</title>
<path fill="none" stroke="midnightblue" d="M431.063,-192.776C502.646,-184.159 601.272,-169.96 613,-156 627.019,-139.313 619.115,-114.137 609.969,-95.8896"/>
<polygon fill="midnightblue" stroke="midnightblue" points="613.025,-94.1836 605.182,-87.0604 606.871,-97.5197 613.025,-94.1836"/>
</g>
<!-- Node8 -->
<g id="node8" class="node"><title>Node8</title>
<g id="a_node8"><a xlink:href="../../d5/d3f/RunContext_8h.html" target="_top" xlink:title="SimulationDataFormat\l/RunContext.h">
<polygon fill="none" stroke="black" points="99,-125 99,-155 213,-155 213,-125 99,-125"/>
<text text-anchor="start" x="107" y="-143" font-family="Helvetica,sans-Serif" font-size="10.00">SimulationDataFormat</text>
<text text-anchor="middle" x="156" y="-132" font-family="Helvetica,sans-Serif" font-size="10.00">/RunContext.h</text>
</a>
</g>
</g>
<!-- Node2&#45;&gt;Node8 -->
<g id="edge7" class="edge"><title>Node2&#45;&gt;Node8</title>
<path fill="none" stroke="midnightblue" d="M327.345,-192.403C297.5,-183.45 249.966,-169.19 212.526,-157.958"/>
<polygon fill="midnightblue" stroke="midnightblue" points="213.335,-154.546 202.751,-155.025 211.324,-161.251 213.335,-154.546"/>
</g>
<!-- Node2&#45;&gt;Node9 -->
<g id="edge25" class="edge"><title>Node2&#45;&gt;Node9</title>
<path fill="none" stroke="midnightblue" d="M280.667,-195.764C209.507,-189.609 108.915,-177.409 76,-156 52.168,-140.499 36.592,-110.388 28.5506,-91.0124"/>
<polygon fill="midnightblue" stroke="midnightblue" points="31.7423,-89.563 24.8538,-81.5133 25.2189,-92.1018 31.7423,-89.563"/>
</g>
<!-- Node10 -->
<g id="node10" class="node"><title>Node10</title>
<polygon fill="none" stroke="#bfbfbf" points="62,-62.5 62,-81.5 118,-81.5 118,-62.5 62,-62.5"/>
<text text-anchor="middle" x="90" y="-69.5" font-family="Helvetica,sans-Serif" font-size="10.00">TChain.h</text>
</g>
<!-- Node2&#45;&gt;Node10 -->
<g id="edge28" class="edge"><title>Node2&#45;&gt;Node10</title>
<path fill="none" stroke="midnightblue" d="M280.723,-198.764C210.824,-194.912 114.033,-184.441 90,-156 74.9947,-138.243 78.9026,-109.902 83.8446,-91.3701"/>
<polygon fill="midnightblue" stroke="midnightblue" points="87.2105,-92.3308 86.7387,-81.7465 80.507,-90.3149 87.2105,-92.3308"/>
</g>
<!-- Node14 -->
<g id="node14" class="node"><title>Node14</title>
<g id="a_node14"><a xlink:href="../../df/dff/InteractionSampler_8h.html" target="_top" xlink:title="Steer/InteractionSampler.h">
<polygon fill="none" stroke="black" points="471.5,-130.5 471.5,-149.5 604.5,-149.5 604.5,-130.5 471.5,-130.5"/>
<text text-anchor="middle" x="538" y="-137.5" font-family="Helvetica,sans-Serif" font-size="10.00">Steer/InteractionSampler.h</text>
</a>
</g>
</g>
<!-- Node2&#45;&gt;Node14 -->
<g id="edge15" class="edge"><title>Node2&#45;&gt;Node14</title>
<path fill="none" stroke="midnightblue" d="M382.076,-192.403C413.566,-182.022 466.698,-164.506 502.058,-152.849"/>
<polygon fill="midnightblue" stroke="midnightblue" points="503.571,-156.036 511.972,-149.581 501.379,-149.388 503.571,-156.036"/>
</g>
<!-- Node17 -->
<g id="node17" class="node"><title>Node17</title>
<polygon fill="none" stroke="#bfbfbf" points="231,-130.5 231,-149.5 317,-149.5 317,-130.5 231,-130.5"/>
<text text-anchor="middle" x="274" y="-137.5" font-family="Helvetica,sans-Serif" font-size="10.00">TGeoManager.h</text>
</g>
<!-- Node2&#45;&gt;Node17 -->
<g id="edge23" class="edge"><title>Node2&#45;&gt;Node17</title>
<path fill="none" stroke="midnightblue" d="M344.251,-192.403C331.099,-182.78 309.566,-167.024 293.802,-155.489"/>
<polygon fill="midnightblue" stroke="midnightblue" points="295.864,-152.661 285.727,-149.581 291.73,-158.31 295.864,-152.661"/>
</g>
<!-- Node18 -->
<g id="node18" class="node"><title>Node18</title>
<polygon fill="none" stroke="#bfbfbf" points="335.5,-130.5 335.5,-149.5 376.5,-149.5 376.5,-130.5 335.5,-130.5"/>
<text text-anchor="middle" x="356" y="-137.5" font-family="Helvetica,sans-Serif" font-size="10.00">string</text>
</g>
<!-- Node2&#45;&gt;Node18 -->
<g id="edge24" class="edge"><title>Node2&#45;&gt;Node18</title>
<path fill="none" stroke="midnightblue" d="M356,-192.403C356,-183.938 356,-170.728 356,-159.82"/>
<polygon fill="midnightblue" stroke="midnightblue" points="359.5,-159.581 356,-149.581 352.5,-159.581 359.5,-159.581"/>
</g>
<!-- Node2&#45;&gt;Node19 -->
<g id="edge26" class="edge"><title>Node2&#45;&gt;Node19</title>
<path fill="none" stroke="midnightblue" d="M426.2,-192.478C498.753,-183.253 606.902,-168.223 647,-156 649.278,-155.306 651.601,-154.477 653.902,-153.571"/>
<polygon fill="midnightblue" stroke="midnightblue" points="655.319,-156.771 663.076,-149.554 652.512,-150.359 655.319,-156.771"/>
</g>
<!-- Node20 -->
<g id="node20" class="node"><title>Node20</title>
<polygon fill="none" stroke="#bfbfbf" points="394.5,-130.5 394.5,-149.5 453.5,-149.5 453.5,-130.5 394.5,-130.5"/>
<text text-anchor="middle" x="424" y="-137.5" font-family="Helvetica,sans-Serif" font-size="10.00">functional</text>
</g>
<!-- Node2&#45;&gt;Node20 -->
<g id="edge27" class="edge"><title>Node2&#45;&gt;Node20</title>
<path fill="none" stroke="midnightblue" d="M365.743,-192.403C376.347,-183.047 393.519,-167.895 406.479,-156.46"/>
<polygon fill="midnightblue" stroke="midnightblue" points="409.093,-158.821 414.275,-149.581 404.461,-153.572 409.093,-158.821"/>
</g>
<!-- Node4 -->
<g id="node4" class="node"><title>Node4</title>
<polygon fill="none" stroke="#bfbfbf" points="719,-0.5 719,-19.5 775,-19.5 775,-0.5 719,-0.5"/>
<text text-anchor="middle" x="747" y="-7.5" font-family="Helvetica,sans-Serif" font-size="10.00">Rtypes.h</text>
</g>
<!-- Node3&#45;&gt;Node4 -->
<g id="edge3" class="edge"><title>Node3&#45;&gt;Node4</title>
<path fill="none" stroke="midnightblue" d="M631.403,-56.9327C656.992,-46.7648 691.238,-33.157 715.803,-23.3963"/>
<polygon fill="midnightblue" stroke="midnightblue" points="717.356,-26.5454 725.357,-19.6 714.771,-20.0401 717.356,-26.5454"/>
</g>
<!-- Node5 -->
<g id="node5" class="node"><title>Node5</title>
<polygon fill="none" stroke="#bfbfbf" points="614.5,-0.5 614.5,-19.5 659.5,-19.5 659.5,-0.5 614.5,-0.5"/>
<text text-anchor="middle" x="637" y="-7.5" font-family="Helvetica,sans-Serif" font-size="10.00">iosfwd</text>
</g>
<!-- Node3&#45;&gt;Node5 -->
<g id="edge4" class="edge"><title>Node3&#45;&gt;Node5</title>
<path fill="none" stroke="midnightblue" d="M605.716,-56.7808C611.613,-48.152 619.173,-37.0882 625.384,-27.9987"/>
<polygon fill="midnightblue" stroke="midnightblue" points="628.282,-29.9617 631.034,-19.7305 622.502,-26.0123 628.282,-29.9617"/>
</g>
<!-- Node6 -->
<g id="node6" class="node"><title>Node6</title>
<polygon fill="none" stroke="#bfbfbf" points="552,-0.5 552,-19.5 596,-19.5 596,-0.5 552,-0.5"/>
<text text-anchor="middle" x="574" y="-7.5" font-family="Helvetica,sans-Serif" font-size="10.00">cmath</text>
</g>
<!-- Node3&#45;&gt;Node6 -->
<g id="edge5" class="edge"><title>Node3&#45;&gt;Node6</title>
<path fill="none" stroke="midnightblue" d="M590.786,-56.7808C587.754,-48.5115 583.902,-38.006 580.653,-29.1448"/>
<polygon fill="midnightblue" stroke="midnightblue" points="583.93,-27.9144 577.201,-19.7305 577.358,-30.3242 583.93,-27.9144"/>
</g>
<!-- Node7 -->
<g id="node7" class="node"><title>Node7</title>
<g id="a_node7"><a xlink:href="../../d4/dc6/LHCConstants_8h.html" target="_top" xlink:title="Header to collect LHC related constants. ">
<polygon fill="none" stroke="black" points="335,-0.5 335,-19.5 513,-19.5 513,-0.5 335,-0.5"/>
<text text-anchor="middle" x="424" y="-7.5" font-family="Helvetica,sans-Serif" font-size="10.00">CommonConstants/LHCConstants.h</text>
</a>
</g>
</g>
<!-- Node3&#45;&gt;Node7 -->
<g id="edge6" class="edge"><title>Node3&#45;&gt;Node7</title>
<path fill="none" stroke="midnightblue" d="M555.674,-56.9327C526.049,-46.5984 486.237,-32.7106 458.171,-22.9202"/>
<polygon fill="midnightblue" stroke="midnightblue" points="458.998,-19.5018 448.403,-19.5127 456.692,-26.1112 458.998,-19.5018"/>
</g>
<!-- Node8&#45;&gt;Node3 -->
<g id="edge11" class="edge"><title>Node8&#45;&gt;Node3</title>
<path fill="none" stroke="midnightblue" d="M213.168,-125.646C216.149,-125.063 219.107,-124.51 222,-124 344.968,-102.341 379.527,-106.532 507.176,-88.0717"/>
<polygon fill="midnightblue" stroke="midnightblue" points="507.958,-91.4946 517.345,-86.5819 506.943,-84.5685 507.958,-91.4946"/>
</g>
<!-- Node8&#45;&gt;Node9 -->
<g id="edge8" class="edge"><title>Node8&#45;&gt;Node9</title>
<path fill="none" stroke="midnightblue" d="M127.254,-124.841C103.972,-113.374 71.4219,-97.3421 48.705,-86.1532"/>
<polygon fill="midnightblue" stroke="midnightblue" points="50.1442,-82.9606 39.6269,-81.6819 47.0513,-89.2403 50.1442,-82.9606"/>
</g>
<!-- Node8&#45;&gt;Node10 -->
<g id="edge9" class="edge"><title>Node8&#45;&gt;Node10</title>
<path fill="none" stroke="midnightblue" d="M141.679,-124.679C131.184,-114.184 116.932,-99.9317 106.052,-89.0522"/>
<polygon fill="midnightblue" stroke="midnightblue" points="108.374,-86.4245 98.8283,-81.8283 103.425,-91.3743 108.374,-86.4245"/>
</g>
<!-- Node11 -->
<g id="node11" class="node"><title>Node11</title>
<polygon fill="none" stroke="#bfbfbf" points="136,-62.5 136,-81.5 198,-81.5 198,-62.5 136,-62.5"/>
<text text-anchor="middle" x="167" y="-69.5" font-family="Helvetica,sans-Serif" font-size="10.00">TBranch.h</text>
</g>
<!-- Node8&#45;&gt;Node11 -->
<g id="edge10" class="edge"><title>Node8&#45;&gt;Node11</title>
<path fill="none" stroke="midnightblue" d="M158.387,-124.679C159.983,-115.101 162.101,-102.394 163.837,-91.9766"/>
<polygon fill="midnightblue" stroke="midnightblue" points="167.337,-92.2677 165.529,-81.8283 160.432,-91.1168 167.337,-92.2677"/>
</g>
<!-- Node12 -->
<g id="node12" class="node"><title>Node12</title>
<g id="a_node12"><a xlink:href="../../d4/d5f/BunchFilling_8h.html" target="_top" xlink:title="CommonDataFormat/BunchFilling.h">
<polygon fill="none" stroke="black" points="216.5,-62.5 216.5,-81.5 389.5,-81.5 389.5,-62.5 216.5,-62.5"/>
<text text-anchor="middle" x="303" y="-69.5" font-family="Helvetica,sans-Serif" font-size="10.00">CommonDataFormat/BunchFilling.h</text>
</a>
</g>
</g>
<!-- Node8&#45;&gt;Node12 -->
<g id="edge12" class="edge"><title>Node8&#45;&gt;Node12</title>
<path fill="none" stroke="midnightblue" d="M187.535,-124.841C213.304,-113.272 249.422,-97.0555 274.369,-85.8547"/>
<polygon fill="midnightblue" stroke="midnightblue" points="275.974,-88.9708 283.663,-81.6819 273.107,-82.5849 275.974,-88.9708"/>
</g>
<!-- Node12&#45;&gt;Node7 -->
<g id="edge13" class="edge"><title>Node12&#45;&gt;Node7</title>
<path fill="none" stroke="midnightblue" d="M320.336,-62.4035C340.553,-52.3787 374.187,-35.7006 397.642,-24.0699"/>
<polygon fill="midnightblue" stroke="midnightblue" points="399.292,-27.1588 406.696,-19.5806 396.182,-20.8875 399.292,-27.1588"/>
</g>
<!-- Node13 -->
<g id="node13" class="node"><title>Node13</title>
<polygon fill="none" stroke="#bfbfbf" points="276.5,-0.5 276.5,-19.5 317.5,-19.5 317.5,-0.5 276.5,-0.5"/>
<text text-anchor="middle" x="297" y="-7.5" font-family="Helvetica,sans-Serif" font-size="10.00">bitset</text>
</g>
<!-- Node12&#45;&gt;Node13 -->
<g id="edge14" class="edge"><title>Node12&#45;&gt;Node13</title>
<path fill="none" stroke="midnightblue" d="M302.14,-62.4035C301.294,-53.9381 299.973,-40.7283 298.882,-29.8199"/>
<polygon fill="midnightblue" stroke="midnightblue" points="302.336,-29.1827 297.858,-19.5806 295.371,-29.8793 302.336,-29.1827"/>
</g>
<!-- Node14&#45;&gt;Node3 -->
<g id="edge20" class="edge"><title>Node14&#45;&gt;Node3</title>
<path fill="none" stroke="midnightblue" d="M545.582,-130.372C553.492,-121.371 566.203,-106.907 576.883,-94.7534"/>
<polygon fill="midnightblue" stroke="midnightblue" points="579.565,-97.0035 583.538,-87.1815 574.307,-92.3827 579.565,-97.0035"/>
</g>
<!-- Node14&#45;&gt;Node4 -->
<g id="edge16" class="edge"><title>Node14&#45;&gt;Node4</title>
<path fill="none" stroke="midnightblue" d="M593.807,-130.456C658.858,-119.932 758.937,-101.76 770,-88 784.015,-70.5693 771.458,-44.7738 760.112,-27.9254"/>
<polygon fill="midnightblue" stroke="midnightblue" points="762.796,-25.6628 754.11,-19.5956 757.116,-29.755 762.796,-25.6628"/>
</g>
<!-- Node14&#45;&gt;Node7 -->
<g id="edge22" class="edge"><title>Node14&#45;&gt;Node7</title>
<path fill="none" stroke="midnightblue" d="M503.658,-130.39C481.178,-122.935 453.085,-109.82 437,-88 424.582,-71.1535 422.413,-46.6243 422.648,-29.8044"/>
<polygon fill="midnightblue" stroke="midnightblue" points="426.155,-29.725 423.099,-19.5805 419.162,-29.4167 426.155,-29.725"/>
</g>
<!-- Node14&#45;&gt;Node9 -->
<g id="edge19" class="edge"><title>Node14&#45;&gt;Node9</title>
<path fill="none" stroke="midnightblue" d="M499.083,-130.487C487.222,-128.118 474.117,-125.724 462,-124 281.339,-98.296 228.907,-136.537 53,-88 50.7991,-87.3927 48.565,-86.6328 46.3565,-85.7794"/>
<polygon fill="midnightblue" stroke="midnightblue" points="47.5809,-82.4933 37.022,-81.6221 44.733,-88.8878 47.5809,-82.4933"/>
</g>
<!-- Node14&#45;&gt;Node12 -->
<g id="edge21" class="edge"><title>Node14&#45;&gt;Node12</title>
<path fill="none" stroke="midnightblue" d="M507.278,-130.372C465.203,-118.555 389.587,-97.3181 343.096,-84.261"/>
<polygon fill="midnightblue" stroke="midnightblue" points="343.931,-80.8602 333.357,-81.5259 342.038,-87.5995 343.931,-80.8602"/>
</g>
<!-- Node15 -->
<g id="node15" class="node"><title>Node15</title>
<polygon fill="none" stroke="#bfbfbf" points="446.5,-62.5 446.5,-81.5 499.5,-81.5 499.5,-62.5 446.5,-62.5"/>
<text text-anchor="middle" x="473" y="-69.5" font-family="Helvetica,sans-Serif" font-size="10.00">TMath.h</text>
</g>
<!-- Node14&#45;&gt;Node15 -->
<g id="edge17" class="edge"><title>Node14&#45;&gt;Node15</title>
<path fill="none" stroke="midnightblue" d="M529.502,-130.372C519.243,-119.955 501.775,-102.217 488.971,-89.2162"/>
<polygon fill="midnightblue" stroke="midnightblue" points="491.218,-86.5101 481.707,-81.8411 486.23,-91.4219 491.218,-86.5101"/>
</g>
<!-- Node16 -->
<g id="node16" class="node"><title>Node16</title>
<polygon fill="none" stroke="#bfbfbf" points="693,-62.5 693,-81.5 761,-81.5 761,-62.5 693,-62.5"/>
<text text-anchor="middle" x="727" y="-69.5" font-family="Helvetica,sans-Serif" font-size="10.00">TRandom.h</text>
</g>
<!-- Node14&#45;&gt;Node16 -->
<g id="edge18" class="edge"><title>Node14&#45;&gt;Node16</title>
<path fill="none" stroke="midnightblue" d="M562.708,-130.372C596.051,-118.728 655.583,-97.9394 693.091,-84.8411"/>
<polygon fill="midnightblue" stroke="midnightblue" points="694.298,-88.1271 702.585,-81.5259 691.99,-81.5184 694.298,-88.1271"/>
</g>
</g>
</svg>
        <g id="navigator" transform="translate(0 0)" fill="#404254">
                <rect fill="#f2f5e9" fill-opacity="0.5" stroke="#606060" stroke-width=".5" x="0" y="0" width="60" height="60"/>
                <use id="zoomplus" xlink:href="#zoomPlus" x="17" y="9" onmousedown="handleZoom(evt,'in')"/>
                <use id="zoomminus" xlink:href="#zoomMin" x="42" y="9" onmousedown="handleZoom(evt,'out')"/>
                <use id="reset" xlink:href="#resetDef" x="30" y="36" onmousedown="handleReset()"/>
                <g id="arrowUp" xlink:href="#dirArrow" transform="translate(30 24)" onmousedown="handlePan(0,-1)">
                  <use xlink:href="#rim" fill="#404040">
                        <set attributeName="fill" to="#808080" begin="arrowUp.mouseover" end="arrowUp.mouseout"/>
                  </use>
                  <path fill="none" stroke="white" stroke-width="1.5" d="M0,-3.0v7 M-2.5,-0.5L0,-3.0L2.5,-0.5"/>
                </g>
                <g id="arrowRight" xlink:href="#dirArrow" transform="rotate(90) translate(36 -43)" onmousedown="handlePan(1,0)">
                  <use xlink:href="#rim" fill="#404040">
                        <set attributeName="fill" to="#808080" begin="arrowRight.mouseover" end="arrowRight.mouseout"/>
                  </use>
                  <path fill="none" stroke="white" stroke-width="1.5" d="M0,-3.0v7 M-2.5,-0.5L0,-3.0L2.5,-0.5"/>
                </g>
                <g id="arrowDown" xlink:href="#dirArrow" transform="rotate(180) translate(-30 -48)" onmousedown="handlePan(0,1)">
                  <use xlink:href="#rim" fill="#404040">
                        <set attributeName="fill" to="#808080" begin="arrowDown.mouseover" end="arrowDown.mouseout"/>
                  </use>
                  <path fill="none" stroke="white" stroke-width="1.5" d="M0,-3.0v7 M-2.5,-0.5L0,-3.0L2.5,-0.5"/>
                </g>
                <g id="arrowLeft" xlink:href="#dirArrow" transform="rotate(270) translate(-36 17)" onmousedown="handlePan(-1,0)">
                  <use xlink:href="#rim" fill="#404040">
                        <set attributeName="fill" to="#808080" begin="arrowLeft.mouseover" end="arrowLeft.mouseout"/>
                  </use>
                  <path fill="none" stroke="white" stroke-width="1.5" d="M0,-3.0v7 M-2.5,-0.5L0,-3.0L2.5,-0.5"/>
                </g>
        </g>
        <svg viewBox="0 0 15 15" width="100%" height="30px" preserveAspectRatio="xMaxYMin meet">
         <g id="arrow_out" transform="scale(0.3 0.3)">
          <a xlink:href="HitProcessingManager_8cxx__incl_org.svg" target="_base">
           <rect id="button" ry="5" rx="5" y="6" x="6" height="38" width="38"
                fill="#f2f5e9" fill-opacity="0.5" stroke="#606060" stroke-width="1.0"/>
           <path id="arrow"
             d="M 11.500037,31.436501 C 11.940474,20.09759 22.043105,11.32322 32.158766,21.979434 L 37.068811,17.246167 C 37.068811,17.246167 37.088388,32 37.088388,32 L 22.160133,31.978069 C 22.160133,31.978069 26.997745,27.140456 26.997745,27.140456 C 18.528582,18.264221 13.291696,25.230495 11.500037,31.436501 z"
             style="fill:#404040;"/>
          </a>
         </g>
        </svg>
</svg>
