<?xml version="1.0" encoding="UTF-8" standalone="no"?>
<!DOCTYPE svg PUBLIC "-//W3C//DTD SVG 1.1//EN"
 "http://www.w3.org/Graphics/SVG/1.1/DTD/svg11.dtd">
<!-- Generated by graphviz version 2.36.0 (20140111.2315)
 -->
<!-- Title: /home/travis/build/AliceO2Group/AliceO2/Detectors/TPC/base/include/TPCBase/ParameterDetector.h Pages: 1 -->
<svg width="2036pt" height="242pt"
 viewBox="0.00 0.00 2036.00 242.00" xmlns="http://www.w3.org/2000/svg" xmlns:xlink="http://www.w3.org/1999/xlink">
<g id="graph0" class="graph" transform="scale(1 1) rotate(0) translate(4 238)">
<title>/home/travis/build/AliceO2Group/AliceO2/Detectors/TPC/base/include/TPCBase/ParameterDetector.h</title>
<!-- Node1 -->
<g id="node1" class="node"><title>Node1</title>
<polygon fill="#bfbfbf" stroke="black" points="742,-181 742,-233 898,-233 898,-181 742,-181"/>
<text text-anchor="start" x="750" y="-221" font-family="Helvetica,sans-Serif" font-size="10.00">/home/travis/build</text>
<text text-anchor="start" x="750" y="-210" font-family="Helvetica,sans-Serif" font-size="10.00">/AliceO2Group/AliceO2</text>
<text text-anchor="start" x="750" y="-199" font-family="Helvetica,sans-Serif" font-size="10.00">/Detectors/TPC/base/include</text>
<text text-anchor="middle" x="820" y="-188" font-family="Helvetica,sans-Serif" font-size="10.00">/TPCBase/ParameterDetector.h</text>
</g>
<!-- Node2 -->
<g id="node2" class="node"><title>Node2</title>
<g id="a_node2"><a xlink:href="../../dc/d59/MatchTPCITS_8cxx.html" target="_top" xlink:title="/home/travis/build\l/AliceO2Group/AliceO2\l/Detectors/GlobalTracking\l/src/MatchTPCITS.cxx">
<polygon fill="none" stroke="black" points="-0.5,-91 -0.5,-143 130.5,-143 130.5,-91 -0.5,-91"/>
<text text-anchor="start" x="7.5" y="-131" font-family="Helvetica,sans-Serif" font-size="10.00">/home/travis/build</text>
<text text-anchor="start" x="7.5" y="-120" font-family="Helvetica,sans-Serif" font-size="10.00">/AliceO2Group/AliceO2</text>
<text text-anchor="start" x="7.5" y="-109" font-family="Helvetica,sans-Serif" font-size="10.00">/Detectors/GlobalTracking</text>
<text text-anchor="middle" x="65" y="-98" font-family="Helvetica,sans-Serif" font-size="10.00">/src/MatchTPCITS.cxx</text>
</a>
</g>
</g>
<!-- Node1&#45;&gt;Node2 -->
<g id="edge1" class="edge"><title>Node1&#45;&gt;Node2</title>
<path fill="none" stroke="midnightblue" d="M731.473,-204.754C600.713,-201.383 348.873,-189.025 140,-144 136.902,-143.332 133.754,-142.574 130.592,-141.748"/>
<polygon fill="midnightblue" stroke="midnightblue" points="731.744,-208.261 741.827,-205.008 731.916,-201.264 731.744,-208.261"/>
</g>
<!-- Node3 -->
<g id="node3" class="node"><title>Node3</title>
<g id="a_node3"><a xlink:href="../../dc/d71/CDBInterface_8cxx.html" target="_top" xlink:title="/home/travis/build\l/AliceO2Group/AliceO2\l/Detectors/TPC/base/src\l/CDBInterface.cxx">
<polygon fill="none" stroke="black" points="149,-91 149,-143 275,-143 275,-91 149,-91"/>
<text text-anchor="start" x="157" y="-131" font-family="Helvetica,sans-Serif" font-size="10.00">/home/travis/build</text>
<text text-anchor="start" x="157" y="-120" font-family="Helvetica,sans-Serif" font-size="10.00">/AliceO2Group/AliceO2</text>
<text text-anchor="start" x="157" y="-109" font-family="Helvetica,sans-Serif" font-size="10.00">/Detectors/TPC/base/src</text>
<text text-anchor="middle" x="212" y="-98" font-family="Helvetica,sans-Serif" font-size="10.00">/CDBInterface.cxx</text>
</a>
</g>
</g>
<!-- Node1&#45;&gt;Node3 -->
<g id="edge2" class="edge"><title>Node1&#45;&gt;Node3</title>
<path fill="none" stroke="midnightblue" d="M731.687,-202.048C624.556,-195.825 439.039,-180.44 284,-144 281.154,-143.331 278.265,-142.585 275.362,-141.78"/>
<polygon fill="midnightblue" stroke="midnightblue" points="731.624,-205.55 741.807,-202.622 732.021,-198.561 731.624,-205.55"/>
</g>
<!-- Node4 -->
<g id="node4" class="node"><title>Node4</title>
<g id="a_node4"><a xlink:href="../../d2/d2a/ParameterDetector_8cxx.html" target="_top" xlink:title="Implementation of the parameter class for the detector. ">
<polygon fill="none" stroke="black" points="293,-91 293,-143 419,-143 419,-91 293,-91"/>
<text text-anchor="start" x="301" y="-131" font-family="Helvetica,sans-Serif" font-size="10.00">/home/travis/build</text>
<text text-anchor="start" x="301" y="-120" font-family="Helvetica,sans-Serif" font-size="10.00">/AliceO2Group/AliceO2</text>
<text text-anchor="start" x="301" y="-109" font-family="Helvetica,sans-Serif" font-size="10.00">/Detectors/TPC/base/src</text>
<text text-anchor="middle" x="356" y="-98" font-family="Helvetica,sans-Serif" font-size="10.00">/ParameterDetector.cxx</text>
</a>
</g>
</g>
<!-- Node1&#45;&gt;Node4 -->
<g id="edge3" class="edge"><title>Node1&#45;&gt;Node4</title>
<path fill="none" stroke="midnightblue" d="M731.964,-196.757C652.093,-187.261 531.506,-170.142 429,-144 425.741,-143.169 422.422,-142.252 419.087,-141.274"/>
<polygon fill="midnightblue" stroke="midnightblue" points="731.644,-200.244 741.984,-197.934 732.46,-193.291 731.644,-200.244"/>
</g>
<!-- Node5 -->
<g id="node5" class="node"><title>Node5</title>
<g id="a_node5"><a xlink:href="../../d1/d8a/testTPCCDBInterface_8cxx.html" target="_top" xlink:title="/home/travis/build\l/AliceO2Group/AliceO2\l/Detectors/TPC/base/test\l/testTPCCDBInterface.cxx">
<polygon fill="none" stroke="black" points="437.5,-91 437.5,-143 572.5,-143 572.5,-91 437.5,-91"/>
<text text-anchor="start" x="445.5" y="-131" font-family="Helvetica,sans-Serif" font-size="10.00">/home/travis/build</text>
<text text-anchor="start" x="445.5" y="-120" font-family="Helvetica,sans-Serif" font-size="10.00">/AliceO2Group/AliceO2</text>
<text text-anchor="start" x="445.5" y="-109" font-family="Helvetica,sans-Serif" font-size="10.00">/Detectors/TPC/base/test</text>
<text text-anchor="middle" x="505" y="-98" font-family="Helvetica,sans-Serif" font-size="10.00">/testTPCCDBInterface.cxx</text>
</a>
</g>
</g>
<!-- Node1&#45;&gt;Node5 -->
<g id="edge4" class="edge"><title>Node1&#45;&gt;Node5</title>
<path fill="none" stroke="midnightblue" d="M732.153,-184.696C687.056,-173.36 631.36,-158.743 582,-144 578.891,-143.071 575.718,-142.1 572.52,-141.1"/>
<polygon fill="midnightblue" stroke="midnightblue" points="731.352,-188.103 741.902,-187.137 733.052,-181.312 731.352,-188.103"/>
</g>
<!-- Node6 -->
<g id="node6" class="node"><title>Node6</title>
<g id="a_node6"><a xlink:href="../../da/d69/testTPCParameters_8cxx.html" target="_top" xlink:title="This task tests the Parameter handling. ">
<polygon fill="none" stroke="black" points="590.5,-91 590.5,-143 719.5,-143 719.5,-91 590.5,-91"/>
<text text-anchor="start" x="598.5" y="-131" font-family="Helvetica,sans-Serif" font-size="10.00">/home/travis/build</text>
<text text-anchor="start" x="598.5" y="-120" font-family="Helvetica,sans-Serif" font-size="10.00">/AliceO2Group/AliceO2</text>
<text text-anchor="start" x="598.5" y="-109" font-family="Helvetica,sans-Serif" font-size="10.00">/Detectors/TPC/base/test</text>
<text text-anchor="middle" x="655" y="-98" font-family="Helvetica,sans-Serif" font-size="10.00">/testTPCParameters.cxx</text>
</a>
</g>
</g>
<!-- Node1&#45;&gt;Node6 -->
<g id="edge5" class="edge"><title>Node1&#45;&gt;Node6</title>
<path fill="none" stroke="midnightblue" d="M763.675,-175.96C743.599,-165.253 721.215,-153.315 702.004,-143.069"/>
<polygon fill="midnightblue" stroke="midnightblue" points="762.247,-179.165 772.718,-180.783 765.541,-172.989 762.247,-179.165"/>
</g>
<!-- Node7 -->
<g id="node7" class="node"><title>Node7</title>
<g id="a_node7"><a xlink:href="../../d4/d7c/HardwareClusterDecoder_8cxx.html" target="_top" xlink:title="/home/travis/build\l/AliceO2Group/AliceO2\l/Detectors/TPC/reconstruction\l/src/HardwareClusterDecoder.cxx">
<polygon fill="none" stroke="black" points="737.5,-91 737.5,-143 902.5,-143 902.5,-91 737.5,-91"/>
<text text-anchor="start" x="745.5" y="-131" font-family="Helvetica,sans-Serif" font-size="10.00">/home/travis/build</text>
<text text-anchor="start" x="745.5" y="-120" font-family="Helvetica,sans-Serif" font-size="10.00">/AliceO2Group/AliceO2</text>
<text text-anchor="start" x="745.5" y="-109" font-family="Helvetica,sans-Serif" font-size="10.00">/Detectors/TPC/reconstruction</text>
<text text-anchor="middle" x="820" y="-98" font-family="Helvetica,sans-Serif" font-size="10.00">/src/HardwareClusterDecoder.cxx</text>
</a>
</g>
</g>
<!-- Node1&#45;&gt;Node7 -->
<g id="edge6" class="edge"><title>Node1&#45;&gt;Node7</title>
<path fill="none" stroke="midnightblue" d="M820,-170.489C820,-161.309 820,-151.616 820,-143.092"/>
<polygon fill="midnightblue" stroke="midnightblue" points="816.5,-170.547 820,-180.547 823.5,-170.547 816.5,-170.547"/>
</g>
<!-- Node8 -->
<g id="node8" class="node"><title>Node8</title>
<g id="a_node8"><a xlink:href="../../d8/ded/TPCCATracking_8cxx.html" target="_top" xlink:title="/home/travis/build\l/AliceO2Group/AliceO2\l/Detectors/TPC/reconstruction\l/src/TPCCATracking.cxx">
<polygon fill="none" stroke="black" points="921,-91 921,-143 1071,-143 1071,-91 921,-91"/>
<text text-anchor="start" x="929" y="-131" font-family="Helvetica,sans-Serif" font-size="10.00">/home/travis/build</text>
<text text-anchor="start" x="929" y="-120" font-family="Helvetica,sans-Serif" font-size="10.00">/AliceO2Group/AliceO2</text>
<text text-anchor="start" x="929" y="-109" font-family="Helvetica,sans-Serif" font-size="10.00">/Detectors/TPC/reconstruction</text>
<text text-anchor="middle" x="996" y="-98" font-family="Helvetica,sans-Serif" font-size="10.00">/src/TPCCATracking.cxx</text>
</a>
</g>
</g>
<!-- Node1&#45;&gt;Node8 -->
<g id="edge7" class="edge"><title>Node1&#45;&gt;Node8</title>
<path fill="none" stroke="midnightblue" d="M879.502,-176.249C901.064,-165.468 925.186,-153.407 945.863,-143.069"/>
<polygon fill="midnightblue" stroke="midnightblue" points="877.814,-173.18 870.435,-180.783 880.944,-179.441 877.814,-173.18"/>
</g>
<!-- Node9 -->
<g id="node9" class="node"><title>Node9</title>
<g id="a_node9"><a xlink:href="../../d2/da8/ElectronTransport_8h.html" target="_top" xlink:title="Definition of the electron transport. ">
<polygon fill="none" stroke="black" points="1475,-91 1475,-143 1683,-143 1683,-91 1475,-91"/>
<text text-anchor="start" x="1483" y="-131" font-family="Helvetica,sans-Serif" font-size="10.00">/home/travis/build</text>
<text text-anchor="start" x="1483" y="-120" font-family="Helvetica,sans-Serif" font-size="10.00">/AliceO2Group/AliceO2</text>
<text text-anchor="start" x="1483" y="-109" font-family="Helvetica,sans-Serif" font-size="10.00">/Detectors/TPC/simulation</text>
<text text-anchor="middle" x="1579" y="-98" font-family="Helvetica,sans-Serif" font-size="10.00">/include/TPCSimulation/ElectronTransport.h</text>
</a>
</g>
</g>
<!-- Node1&#45;&gt;Node9 -->
<g id="edge8" class="edge"><title>Node1&#45;&gt;Node9</title>
<path fill="none" stroke="midnightblue" d="M908.042,-197.374C1020.78,-186.126 1222.13,-165.353 1394,-144 1420.23,-140.741 1448.51,-136.922 1474.88,-133.229"/>
<polygon fill="midnightblue" stroke="midnightblue" points="907.683,-193.893 898.08,-198.367 908.377,-200.858 907.683,-193.893"/>
</g>
<!-- Node10 -->
<g id="node10" class="node"><title>Node10</title>
<g id="a_node10"><a xlink:href="../../d7/d0a/TPC_2simulation_2src_2Digitizer_8cxx.html" target="_top" xlink:title="/home/travis/build\l/AliceO2Group/AliceO2\l/Detectors/TPC/simulation\l/src/Digitizer.cxx">
<polygon fill="none" stroke="black" points="1361.5,-1 1361.5,-53 1494.5,-53 1494.5,-1 1361.5,-1"/>
<text text-anchor="start" x="1369.5" y="-41" font-family="Helvetica,sans-Serif" font-size="10.00">/home/travis/build</text>
<text text-anchor="start" x="1369.5" y="-30" font-family="Helvetica,sans-Serif" font-size="10.00">/AliceO2Group/AliceO2</text>
<text text-anchor="start" x="1369.5" y="-19" font-family="Helvetica,sans-Serif" font-size="10.00">/Detectors/TPC/simulation</text>
<text text-anchor="middle" x="1428" y="-8" font-family="Helvetica,sans-Serif" font-size="10.00">/src/Digitizer.cxx</text>
</a>
</g>
</g>
<!-- Node1&#45;&gt;Node10 -->
<g id="edge21" class="edge"><title>Node1&#45;&gt;Node10</title>
<path fill="none" stroke="midnightblue" d="M908.237,-201.797C1030.37,-194.818 1243.74,-178.091 1313,-144 1355.24,-123.21 1391.05,-80.6077 1411.01,-53.2221"/>
<polygon fill="midnightblue" stroke="midnightblue" points="907.946,-198.308 898.158,-202.363 908.339,-205.297 907.946,-198.308"/>
</g>
<!-- Node12 -->
<g id="node12" class="node"><title>Node12</title>
<g id="a_node12"><a xlink:href="../../d4/d82/testTPCElectronTransport_8cxx.html" target="_top" xlink:title="This task tests the ElectronTransport module of the TPC digitization. ">
<polygon fill="none" stroke="black" points="1856,-1 1856,-53 2028,-53 2028,-1 1856,-1"/>
<text text-anchor="start" x="1864" y="-41" font-family="Helvetica,sans-Serif" font-size="10.00">/home/travis/build</text>
<text text-anchor="start" x="1864" y="-30" font-family="Helvetica,sans-Serif" font-size="10.00">/AliceO2Group/AliceO2</text>
<text text-anchor="start" x="1864" y="-19" font-family="Helvetica,sans-Serif" font-size="10.00">/Detectors/TPC/simulation</text>
<text text-anchor="middle" x="1942" y="-8" font-family="Helvetica,sans-Serif" font-size="10.00">/test/testTPCElectronTransport.cxx</text>
</a>
</g>
</g>
<!-- Node1&#45;&gt;Node12 -->
<g id="edge22" class="edge"><title>Node1&#45;&gt;Node12</title>
<path fill="none" stroke="midnightblue" d="M908.157,-203.779C1099.14,-198.309 1545.65,-181.792 1692,-144 1769.37,-124.022 1852.18,-80.7446 1900.41,-53.0684"/>
<polygon fill="midnightblue" stroke="midnightblue" points="908.051,-200.28 898.155,-204.062 908.25,-207.277 908.051,-200.28"/>
</g>
<!-- Node14 -->
<g id="node14" class="node"><title>Node14</title>
<g id="a_node14"><a xlink:href="../../d0/d45/SAMPAProcessing_8h.html" target="_top" xlink:title="Definition of the SAMPA response. ">
<polygon fill="none" stroke="black" points="1089.5,-91 1089.5,-143 1304.5,-143 1304.5,-91 1089.5,-91"/>
<text text-anchor="start" x="1097.5" y="-131" font-family="Helvetica,sans-Serif" font-size="10.00">/home/travis/build</text>
<text text-anchor="start" x="1097.5" y="-120" font-family="Helvetica,sans-Serif" font-size="10.00">/AliceO2Group/AliceO2</text>
<text text-anchor="start" x="1097.5" y="-109" font-family="Helvetica,sans-Serif" font-size="10.00">/Detectors/TPC/simulation</text>
<text text-anchor="middle" x="1197" y="-98" font-family="Helvetica,sans-Serif" font-size="10.00">/include/TPCSimulation/SAMPAProcessing.h</text>
</a>
</g>
</g>
<!-- Node1&#45;&gt;Node14 -->
<g id="edge13" class="edge"><title>Node1&#45;&gt;Node14</title>
<path fill="none" stroke="midnightblue" d="M908.054,-185.446C962.294,-172.785 1032.21,-156.466 1089.68,-143.051"/>
<polygon fill="midnightblue" stroke="midnightblue" points="907.057,-182.085 898.115,-187.766 908.648,-188.902 907.057,-182.085"/>
</g>
<!-- Node9&#45;&gt;Node10 -->
<g id="edge9" class="edge"><title>Node9&#45;&gt;Node10</title>
<path fill="none" stroke="midnightblue" d="M1526.96,-85.6704C1508.71,-75.0376 1488.44,-63.2222 1471.02,-53.0687"/>
<polygon fill="midnightblue" stroke="midnightblue" points="1525.33,-88.7715 1535.73,-90.7827 1528.85,-82.7236 1525.33,-88.7715"/>
</g>
<!-- Node11 -->
<g id="node11" class="node"><title>Node11</title>
<g id="a_node11"><a xlink:href="../../d1/d98/ElectronTransport_8cxx.html" target="_top" xlink:title="Implementation of the electron transport. ">
<polygon fill="none" stroke="black" points="1512.5,-1 1512.5,-53 1645.5,-53 1645.5,-1 1512.5,-1"/>
<text text-anchor="start" x="1520.5" y="-41" font-family="Helvetica,sans-Serif" font-size="10.00">/home/travis/build</text>
<text text-anchor="start" x="1520.5" y="-30" font-family="Helvetica,sans-Serif" font-size="10.00">/AliceO2Group/AliceO2</text>
<text text-anchor="start" x="1520.5" y="-19" font-family="Helvetica,sans-Serif" font-size="10.00">/Detectors/TPC/simulation</text>
<text text-anchor="middle" x="1579" y="-8" font-family="Helvetica,sans-Serif" font-size="10.00">/src/ElectronTransport.cxx</text>
</a>
</g>
</g>
<!-- Node9&#45;&gt;Node11 -->
<g id="edge10" class="edge"><title>Node9&#45;&gt;Node11</title>
<path fill="none" stroke="midnightblue" d="M1579,-80.4892C1579,-71.3088 1579,-61.616 1579,-53.0921"/>
<polygon fill="midnightblue" stroke="midnightblue" points="1575.5,-80.5467 1579,-90.5468 1582.5,-80.5468 1575.5,-80.5467"/>
</g>
<!-- Node9&#45;&gt;Node12 -->
<g id="edge11" class="edge"><title>Node9&#45;&gt;Node12</title>
<path fill="none" stroke="midnightblue" d="M1693.31,-90.6092C1740.93,-79.7573 1796.75,-66.6846 1847,-54 1849.9,-53.2677 1852.85,-52.5139 1855.83,-51.7452"/>
<polygon fill="midnightblue" stroke="midnightblue" points="1692.25,-87.2604 1683.28,-92.8902 1693.8,-94.0862 1692.25,-87.2604"/>
</g>
<!-- Node13 -->
<g id="node13" class="node"><title>Node13</title>
<g id="a_node13"><a xlink:href="../../db/df6/TPCDriftTimeDigitizerSpec_8cxx.html" target="_top" xlink:title="/home/travis/build\l/AliceO2Group/AliceO2\l/Steer/DigitizerWorkflow\l/src/TPCDriftTimeDigitizerSpec.cxx">
<polygon fill="none" stroke="black" points="1664,-1 1664,-53 1838,-53 1838,-1 1664,-1"/>
<text text-anchor="start" x="1672" y="-41" font-family="Helvetica,sans-Serif" font-size="10.00">/home/travis/build</text>
<text text-anchor="start" x="1672" y="-30" font-family="Helvetica,sans-Serif" font-size="10.00">/AliceO2Group/AliceO2</text>
<text text-anchor="start" x="1672" y="-19" font-family="Helvetica,sans-Serif" font-size="10.00">/Steer/DigitizerWorkflow</text>
<text text-anchor="middle" x="1751" y="-8" font-family="Helvetica,sans-Serif" font-size="10.00">/src/TPCDriftTimeDigitizerSpec.cxx</text>
</a>
</g>
</g>
<!-- Node9&#45;&gt;Node13 -->
<g id="edge12" class="edge"><title>Node9&#45;&gt;Node13</title>
<path fill="none" stroke="midnightblue" d="M1637.43,-86.1047C1658.43,-75.3602 1681.89,-63.3607 1702,-53.0687"/>
<polygon fill="midnightblue" stroke="midnightblue" points="1635.6,-83.112 1628.29,-90.7827 1638.78,-89.3438 1635.6,-83.112"/>
</g>
<!-- Node14&#45;&gt;Node10 -->
<g id="edge16" class="edge"><title>Node14&#45;&gt;Node10</title>
<path fill="none" stroke="midnightblue" d="M1272.52,-87.229C1301.41,-76.2249 1334.1,-63.7712 1362.03,-53.1328"/>
<polygon fill="midnightblue" stroke="midnightblue" points="1270.99,-84.0698 1262.89,-90.9005 1273.48,-90.6112 1270.99,-84.0698"/>
</g>
<!-- Node15 -->
<g id="node15" class="node"><title>Node15</title>
<g id="a_node15"><a xlink:href="../../db/d60/testTracks_8C.html" target="_top" xlink:title="/home/travis/build\l/AliceO2Group/AliceO2\l/Detectors/TPC/reconstruction\l/macro/testTracks.C">
<polygon fill="none" stroke="black" points="1042,-1 1042,-53 1192,-53 1192,-1 1042,-1"/>
<text text-anchor="start" x="1050" y="-41" font-family="Helvetica,sans-Serif" font-size="10.00">/home/travis/build</text>
<text text-anchor="start" x="1050" y="-30" font-family="Helvetica,sans-Serif" font-size="10.00">/AliceO2Group/AliceO2</text>
<text text-anchor="start" x="1050" y="-19" font-family="Helvetica,sans-Serif" font-size="10.00">/Detectors/TPC/reconstruction</text>
<text text-anchor="middle" x="1117" y="-8" font-family="Helvetica,sans-Serif" font-size="10.00">/macro/testTracks.C</text>
</a>
</g>
</g>
<!-- Node14&#45;&gt;Node15 -->
<g id="edge14" class="edge"><title>Node14&#45;&gt;Node15</title>
<path fill="none" stroke="midnightblue" d="M1167.13,-83.1386C1158.09,-73.1958 1148.31,-62.4408 1139.81,-53.0921"/>
<polygon fill="midnightblue" stroke="midnightblue" points="1164.54,-85.5017 1173.86,-90.5468 1169.72,-80.793 1164.54,-85.5017"/>
</g>
<!-- Node16 -->
<g id="node16" class="node"><title>Node16</title>
<g id="a_node16"><a xlink:href="../../d1/ddd/DigitGlobalPad_8cxx.html" target="_top" xlink:title="Implementation of the Pad container. ">
<polygon fill="none" stroke="black" points="1210.5,-1 1210.5,-53 1343.5,-53 1343.5,-1 1210.5,-1"/>
<text text-anchor="start" x="1218.5" y="-41" font-family="Helvetica,sans-Serif" font-size="10.00">/home/travis/build</text>
<text text-anchor="start" x="1218.5" y="-30" font-family="Helvetica,sans-Serif" font-size="10.00">/AliceO2Group/AliceO2</text>
<text text-anchor="start" x="1218.5" y="-19" font-family="Helvetica,sans-Serif" font-size="10.00">/Detectors/TPC/simulation</text>
<text text-anchor="middle" x="1277" y="-8" font-family="Helvetica,sans-Serif" font-size="10.00">/src/DigitGlobalPad.cxx</text>
</a>
</g>
</g>
<!-- Node14&#45;&gt;Node16 -->
<g id="edge15" class="edge"><title>Node14&#45;&gt;Node16</title>
<path fill="none" stroke="midnightblue" d="M1226.87,-83.1386C1235.91,-73.1958 1245.69,-62.4408 1254.19,-53.0921"/>
<polygon fill="midnightblue" stroke="midnightblue" points="1224.28,-80.793 1220.14,-90.5468 1229.46,-85.5017 1224.28,-80.793"/>
</g>
<!-- Node17 -->
<g id="node17" class="node"><title>Node17</title>
<g id="a_node17"><a xlink:href="../../df/d46/TPC_2simulation_2src_2DigitizerTask_8cxx.html" target="_top" xlink:title="/home/travis/build\l/AliceO2Group/AliceO2\l/Detectors/TPC/simulation\l/src/DigitizerTask.cxx">
<polygon fill="none" stroke="black" points="361.5,-1 361.5,-53 494.5,-53 494.5,-1 361.5,-1"/>
<text text-anchor="start" x="369.5" y="-41" font-family="Helvetica,sans-Serif" font-size="10.00">/home/travis/build</text>
<text text-anchor="start" x="369.5" y="-30" font-family="Helvetica,sans-Serif" font-size="10.00">/AliceO2Group/AliceO2</text>
<text text-anchor="start" x="369.5" y="-19" font-family="Helvetica,sans-Serif" font-size="10.00">/Detectors/TPC/simulation</text>
<text text-anchor="middle" x="428" y="-8" font-family="Helvetica,sans-Serif" font-size="10.00">/src/DigitizerTask.cxx</text>
</a>
</g>
</g>
<!-- Node14&#45;&gt;Node17 -->
<g id="edge17" class="edge"><title>Node14&#45;&gt;Node17</title>
<path fill="none" stroke="midnightblue" d="M1079.32,-90.0453C1079.21,-90.0302 1079.11,-90.0151 1079,-90 825.439,-54.3451 755.15,-103.885 504,-54 500.991,-53.4023 497.938,-52.7153 494.87,-51.9588"/>
<polygon fill="midnightblue" stroke="midnightblue" points="1079,-93.5358 1089.41,-91.5756 1080.05,-86.615 1079,-93.5358"/>
</g>
<!-- Node18 -->
<g id="node18" class="node"><title>Node18</title>
<g id="a_node18"><a xlink:href="../../d1/dd8/SAMPAProcessing_8cxx.html" target="_top" xlink:title="Implementation of the SAMPA response. ">
<polygon fill="none" stroke="black" points="512.5,-1 512.5,-53 651.5,-53 651.5,-1 512.5,-1"/>
<text text-anchor="start" x="520.5" y="-41" font-family="Helvetica,sans-Serif" font-size="10.00">/home/travis/build</text>
<text text-anchor="start" x="520.5" y="-30" font-family="Helvetica,sans-Serif" font-size="10.00">/AliceO2Group/AliceO2</text>
<text text-anchor="start" x="520.5" y="-19" font-family="Helvetica,sans-Serif" font-size="10.00">/Detectors/TPC/simulation</text>
<text text-anchor="middle" x="582" y="-8" font-family="Helvetica,sans-Serif" font-size="10.00">/src/SAMPAProcessing.cxx</text>
</a>
</g>
</g>
<!-- Node14&#45;&gt;Node18 -->
<g id="edge18" class="edge"><title>Node14&#45;&gt;Node18</title>
<path fill="none" stroke="midnightblue" d="M1079.32,-90.0491C1079.21,-90.0327 1079.11,-90.0163 1079,-90 894.667,-61.8781 843.677,-91.3977 661,-54 657.888,-53.3629 654.727,-52.6433 651.55,-51.8601"/>
<polygon fill="midnightblue" stroke="midnightblue" points="1078.96,-93.5363 1089.39,-91.6808 1080.08,-86.6264 1078.96,-93.5363"/>
</g>
<!-- Node19 -->
<g id="node19" class="node"><title>Node19</title>
<g id="a_node19"><a xlink:href="../../dd/d5e/testTPCDigitContainer_8cxx.html" target="_top" xlink:title="This task tests the DigitContainer of the TPC digitization. ">
<polygon fill="none" stroke="black" points="669.5,-1 669.5,-53 826.5,-53 826.5,-1 669.5,-1"/>
<text text-anchor="start" x="677.5" y="-41" font-family="Helvetica,sans-Serif" font-size="10.00">/home/travis/build</text>
<text text-anchor="start" x="677.5" y="-30" font-family="Helvetica,sans-Serif" font-size="10.00">/AliceO2Group/AliceO2</text>
<text text-anchor="start" x="677.5" y="-19" font-family="Helvetica,sans-Serif" font-size="10.00">/Detectors/TPC/simulation</text>
<text text-anchor="middle" x="748" y="-8" font-family="Helvetica,sans-Serif" font-size="10.00">/test/testTPCDigitContainer.cxx</text>
</a>
</g>
</g>
<!-- Node14&#45;&gt;Node19 -->
<g id="edge19" class="edge"><title>Node14&#45;&gt;Node19</title>
<path fill="none" stroke="midnightblue" d="M1079.32,-90.0588C1079.21,-90.0392 1079.11,-90.0196 1079,-90 971.624,-70.2416 942.614,-77.5255 836,-54 832.889,-53.3135 829.726,-52.5755 826.54,-51.7984"/>
<polygon fill="midnightblue" stroke="midnightblue" points="1078.87,-93.5357 1089.35,-91.9549 1080.17,-86.6576 1078.87,-93.5357"/>
</g>
<!-- Node20 -->
<g id="node20" class="node"><title>Node20</title>
<g id="a_node20"><a xlink:href="../../d0/d5c/testTPCSAMPAProcessing_8cxx.html" target="_top" xlink:title="/home/travis/build\l/AliceO2Group/AliceO2\l/Detectors/TPC/simulation\l/test/testTPCSAMPAProcessing.cxx">
<polygon fill="none" stroke="black" points="844.5,-1 844.5,-53 1023.5,-53 1023.5,-1 844.5,-1"/>
<text text-anchor="start" x="852.5" y="-41" font-family="Helvetica,sans-Serif" font-size="10.00">/home/travis/build</text>
<text text-anchor="start" x="852.5" y="-30" font-family="Helvetica,sans-Serif" font-size="10.00">/AliceO2Group/AliceO2</text>
<text text-anchor="start" x="852.5" y="-19" font-family="Helvetica,sans-Serif" font-size="10.00">/Detectors/TPC/simulation</text>
<text text-anchor="middle" x="934" y="-8" font-family="Helvetica,sans-Serif" font-size="10.00">/test/testTPCSAMPAProcessing.cxx</text>
</a>
</g>
</g>
<!-- Node14&#45;&gt;Node20 -->
<g id="edge20" class="edge"><title>Node14&#45;&gt;Node20</title>
<path fill="none" stroke="midnightblue" d="M1112.3,-87.6588C1079.1,-76.5501 1041.32,-63.91 1009.11,-53.1328"/>
<polygon fill="midnightblue" stroke="midnightblue" points="1111.39,-91.0465 1121.99,-90.9005 1113.61,-84.4082 1111.39,-91.0465"/>
</g>
</g>
</svg>
