<?xml version="1.0" encoding="UTF-8" standalone="no"?>
<!DOCTYPE svg PUBLIC "-//W3C//DTD SVG 1.1//EN"
 "http://www.w3.org/Graphics/SVG/1.1/DTD/svg11.dtd">
<!-- Generated by graphviz version 2.36.0 (20140111.2315)
 -->
<!-- Title: /home/travis/build/AliceO2Group/AliceO2/Detectors/ITSMFT/MFT/reconstruction/include/MFTReconstruction/TrackerTask.h Pages: 1 -->
<!--zoomable 592 -->
<svg id="main" version="1.1" xmlns="http://www.w3.org/2000/svg" xmlns:xlink="http://www.w3.org/1999/xlink" xml:space="preserve" onload="init(evt)">
<style type="text/css"><![CDATA[
.edge:hover path { stroke: red; }
.edge:hover polygon { stroke: red; fill: red; }
]]></style>
<script type="text/javascript"><![CDATA[
var edges = document.getElementsByTagName('g');
if (edges && edges.length) {
  for (var i=0;i<edges.length;i++) {
    if (edges[i].id.substr(0,4)=='edge') {
      edges[i].setAttribute('class','edge');
    }
  }
}
]]></script>
        <defs>
                <circle id="rim" cx="0" cy="0" r="7"/>
                <circle id="rim2" cx="0" cy="0" r="3.5"/>
                <g id="zoomPlus">
                        <use xlink:href="#rim" fill="#404040">
                                <set attributeName="fill" to="#808080" begin="zoomplus.mouseover" end="zoomplus.mouseout"/>
                        </use>
                        <path d="M-4,0h8M0,-4v8" fill="none" stroke="white" stroke-width="1.5" pointer-events="none"/>
                </g>
                <g id="zoomMin">
                        <use xlink:href="#rim" fill="#404040">
                                <set attributeName="fill" to="#808080" begin="zoomminus.mouseover" end="zoomminus.mouseout"/>
                        </use>
                        <path d="M-4,0h8" fill="none" stroke="white" stroke-width="1.5" pointer-events="none"/>
                </g>
                <g id="dirArrow">
                        <path fill="none" stroke="white" stroke-width="1.5" d="M0,-3.0v7 M-2.5,-0.5L0,-3.0L2.5,-0.5"/>
                </g>
               <g id="resetDef">
                       <use xlink:href="#rim2" fill="#404040">
                               <set attributeName="fill" to="#808080" begin="reset.mouseover" end="reset.mouseout"/>
                       </use>
               </g>
        </defs>

<script type="text/javascript">
var viewWidth = 2026;
var viewHeight = 592;
var sectionId = 'dynsection-0';
</script>
<script xlink:href="../../svgpan.js"/>
<svg id="graph" class="graph">
<g id="viewport">
<title>/home/travis/build/AliceO2Group/AliceO2/Detectors/ITSMFT/MFT/reconstruction/include/MFTReconstruction/TrackerTask.h</title>
<!-- Node1 -->
<g id="node1" class="node"><title>Node1</title>
<polygon fill="#bfbfbf" stroke="black" points="1619.46,-520.5 1619.46,-583.5 1791.46,-583.5 1791.46,-520.5 1619.46,-520.5"/>
<text text-anchor="start" x="1627.46" y="-571.5" font-family="Helvetica,sans-Serif" font-size="10.00">/home/travis/build</text>
<text text-anchor="start" x="1627.46" y="-560.5" font-family="Helvetica,sans-Serif" font-size="10.00">/AliceO2Group/AliceO2</text>
<text text-anchor="start" x="1627.46" y="-549.5" font-family="Helvetica,sans-Serif" font-size="10.00">/Detectors/ITSMFT/MFT</text>
<text text-anchor="start" x="1627.46" y="-538.5" font-family="Helvetica,sans-Serif" font-size="10.00">/reconstruction/include</text>
<text text-anchor="middle" x="1705.46" y="-527.5" font-family="Helvetica,sans-Serif" font-size="10.00">/MFTReconstruction/TrackerTask.h</text>
</g>
<!-- Node2 -->
<g id="node2" class="node"><title>Node2</title>
<polygon fill="none" stroke="#bfbfbf" points="1594.96,-464.5 1594.96,-483.5 1657.96,-483.5 1657.96,-464.5 1594.96,-464.5"/>
<text text-anchor="middle" x="1626.46" y="-471.5" font-family="Helvetica,sans-Serif" font-size="10.00">FairTask.h</text>
</g>
<!-- Node1&#45;&gt;Node2 -->
<g id="edge1" class="edge"><title>Node1&#45;&gt;Node2</title>
<path fill="none" stroke="midnightblue" d="M1673.32,-520.088C1662.86,-510.019 1651.68,-499.263 1642.86,-490.782"/>
<polygon fill="midnightblue" stroke="midnightblue" points="1645.15,-488.129 1635.52,-483.718 1640.3,-493.173 1645.15,-488.129"/>
</g>
<!-- Node3 -->
<g id="node3" class="node"><title>Node3</title>
<g id="a_node3"><a xlink:href="../../db/dd0/TrackMFT_8h.html" target="_top" xlink:title="DataFormatsMFT/TrackMFT.h">
<polygon fill="none" stroke="black" points="1540.46,-408.5 1540.46,-427.5 1690.46,-427.5 1690.46,-408.5 1540.46,-408.5"/>
<text text-anchor="middle" x="1615.46" y="-415.5" font-family="Helvetica,sans-Serif" font-size="10.00">DataFormatsMFT/TrackMFT.h</text>
</a>
</g>
</g>
<!-- Node1&#45;&gt;Node3 -->
<g id="edge2" class="edge"><title>Node1&#45;&gt;Node3</title>
<path fill="none" stroke="midnightblue" d="M1695.38,-520.296C1688.77,-502.812 1679.02,-481.062 1666.46,-464 1658.03,-452.559 1646.26,-441.933 1636.15,-433.883"/>
<polygon fill="midnightblue" stroke="midnightblue" points="1638.23,-431.063 1628.16,-427.765 1633.97,-436.622 1638.23,-431.063"/>
</g>
<!-- Node38 -->
<g id="node38" class="node"><title>Node38</title>
<polygon fill="none" stroke="#bfbfbf" points="1708.96,-408.5 1708.96,-427.5 1845.96,-427.5 1845.96,-408.5 1708.96,-408.5"/>
<text text-anchor="middle" x="1777.46" y="-415.5" font-family="Helvetica,sans-Serif" font-size="10.00">MFTBase/GeometryTGeo.h</text>
</g>
<!-- Node1&#45;&gt;Node38 -->
<g id="edge52" class="edge"><title>Node1&#45;&gt;Node38</title>
<path fill="none" stroke="midnightblue" d="M1717.3,-520.425C1724.35,-503.383 1733.96,-482.025 1744.46,-464 1750.18,-454.162 1757.6,-443.874 1763.96,-435.623"/>
<polygon fill="midnightblue" stroke="midnightblue" points="1766.85,-437.604 1770.3,-427.586 1761.36,-433.266 1766.85,-437.604"/>
</g>
<!-- Node39 -->
<g id="node39" class="node"><title>Node39</title>
<g id="a_node39"><a xlink:href="../../d6/d36/ITSMFT_2MFT_2reconstruction_2include_2MFTReconstruction_2Tracker_8h.html" target="_top" xlink:title="MFTReconstruction/Tracker.h">
<polygon fill="none" stroke="black" points="1752.96,-464.5 1752.96,-483.5 1899.96,-483.5 1899.96,-464.5 1752.96,-464.5"/>
<text text-anchor="middle" x="1826.46" y="-471.5" font-family="Helvetica,sans-Serif" font-size="10.00">MFTReconstruction/Tracker.h</text>
</a>
</g>
</g>
<!-- Node1&#45;&gt;Node39 -->
<g id="edge53" class="edge"><title>Node1&#45;&gt;Node39</title>
<path fill="none" stroke="midnightblue" d="M1754.32,-520.307C1771.48,-509.529 1789.94,-497.936 1803.89,-489.175"/>
<polygon fill="midnightblue" stroke="midnightblue" points="1806.15,-491.889 1812.75,-483.607 1802.42,-485.962 1806.15,-491.889"/>
</g>
<!-- Node4 -->
<g id="node4" class="node"><title>Node4</title>
<polygon fill="none" stroke="#bfbfbf" points="1826.46,-142.5 1826.46,-161.5 1870.46,-161.5 1870.46,-142.5 1826.46,-142.5"/>
<text text-anchor="middle" x="1848.46" y="-149.5" font-family="Helvetica,sans-Serif" font-size="10.00">vector</text>
</g>
<!-- Node3&#45;&gt;Node4 -->
<g id="edge3" class="edge"><title>Node3&#45;&gt;Node4</title>
<path fill="none" stroke="midnightblue" d="M1644.91,-408.422C1688.49,-394.159 1769.6,-361.313 1812.46,-304 1842.36,-264 1847.84,-202.78 1848.58,-172.026"/>
<polygon fill="midnightblue" stroke="midnightblue" points="1852.08,-171.871 1848.67,-161.839 1845.08,-171.806 1852.08,-171.871"/>
</g>
<!-- Node5 -->
<g id="node5" class="node"><title>Node5</title>
<g id="a_node5"><a xlink:href="../../d7/d8b/DataFormats_2Reconstruction_2include_2ReconstructionDataFormats_2Track_8h.html" target="_top" xlink:title="ReconstructionDataFormats\l/Track.h">
<polygon fill="none" stroke="black" points="745.456,-341 745.456,-371 885.456,-371 885.456,-341 745.456,-341"/>
<text text-anchor="start" x="753.456" y="-359" font-family="Helvetica,sans-Serif" font-size="10.00">ReconstructionDataFormats</text>
<text text-anchor="middle" x="815.456" y="-348" font-family="Helvetica,sans-Serif" font-size="10.00">/Track.h</text>
</a>
</g>
</g>
<!-- Node3&#45;&gt;Node5 -->
<g id="edge4" class="edge"><title>Node3&#45;&gt;Node5</title>
<path fill="none" stroke="midnightblue" d="M1540.19,-411.355C1389.34,-400.041 1051.17,-374.679 896.031,-363.043"/>
<polygon fill="midnightblue" stroke="midnightblue" points="895.865,-359.521 885.631,-362.263 895.341,-366.501 895.865,-359.521"/>
</g>
<!-- Node6 -->
<g id="node6" class="node"><title>Node6</title>
<polygon fill="none" stroke="#bfbfbf" points="1722.46,-74.5 1722.46,-93.5 1778.46,-93.5 1778.46,-74.5 1722.46,-74.5"/>
<text text-anchor="middle" x="1750.46" y="-81.5" font-family="Helvetica,sans-Serif" font-size="10.00">Rtypes.h</text>
</g>
<!-- Node5&#45;&gt;Node6 -->
<g id="edge5" class="edge"><title>Node5&#45;&gt;Node6</title>
<path fill="none" stroke="midnightblue" d="M885.62,-350.021C1015.66,-339.338 1301.78,-308.99 1531.46,-236 1601.22,-213.831 1623.25,-212.381 1681.46,-168 1705.82,-149.423 1727.21,-120.72 1739.48,-102.402"/>
<polygon fill="midnightblue" stroke="midnightblue" points="1742.51,-104.167 1745.04,-93.8785 1736.65,-100.345 1742.51,-104.167"/>
</g>
<!-- Node7 -->
<g id="node7" class="node"><title>Node7</title>
<polygon fill="none" stroke="#bfbfbf" points="1113.46,-278.5 1113.46,-297.5 1169.46,-297.5 1169.46,-278.5 1113.46,-278.5"/>
<text text-anchor="middle" x="1141.46" y="-285.5" font-family="Helvetica,sans-Serif" font-size="10.00">algorithm</text>
</g>
<!-- Node5&#45;&gt;Node7 -->
<g id="edge6" class="edge"><title>Node5&#45;&gt;Node7</title>
<path fill="none" stroke="midnightblue" d="M885.587,-346.83C944.699,-338.948 1031.13,-325.079 1104.46,-304 1107.27,-303.192 1110.16,-302.243 1113.02,-301.222"/>
<polygon fill="midnightblue" stroke="midnightblue" points="1114.44,-304.424 1122.52,-297.568 1111.93,-297.89 1114.44,-304.424"/>
</g>
<!-- Node8 -->
<g id="node8" class="node"><title>Node8</title>
<polygon fill="none" stroke="#bfbfbf" points="1550.46,-6.5 1550.46,-25.5 1588.46,-25.5 1588.46,-6.5 1550.46,-6.5"/>
<text text-anchor="middle" x="1569.46" y="-13.5" font-family="Helvetica,sans-Serif" font-size="10.00">array</text>
</g>
<!-- Node5&#45;&gt;Node8 -->
<g id="edge7" class="edge"><title>Node5&#45;&gt;Node8</title>
<path fill="none" stroke="midnightblue" d="M885.661,-355.167C1025.56,-353.184 1346.79,-336.948 1592.46,-236 1689.85,-195.979 1743.79,-196.269 1786.46,-100 1819.43,-25.5954 1665.63,-16.9169 1598.98,-16.579"/>
<polygon fill="midnightblue" stroke="midnightblue" points="1598.71,-13.0792 1588.71,-16.5903 1598.72,-20.0792 1598.71,-13.0792"/>
</g>
<!-- Node9 -->
<g id="node9" class="node"><title>Node9</title>
<polygon fill="none" stroke="#bfbfbf" points="30.9557,-278.5 30.9557,-297.5 71.9557,-297.5 71.9557,-278.5 30.9557,-278.5"/>
<text text-anchor="middle" x="51.4557" y="-285.5" font-family="Helvetica,sans-Serif" font-size="10.00">cfloat</text>
</g>
<!-- Node5&#45;&gt;Node9 -->
<g id="edge8" class="edge"><title>Node5&#45;&gt;Node9</title>
<path fill="none" stroke="midnightblue" d="M745.247,-353.074C587.702,-348.27 210.155,-333.927 86.4557,-304 83.5642,-303.3 80.6078,-302.383 77.6986,-301.347"/>
<polygon fill="midnightblue" stroke="midnightblue" points="78.7364,-297.992 68.1528,-297.505 76.1229,-304.486 78.7364,-297.992"/>
</g>
<!-- Node10 -->
<g id="node10" class="node"><title>Node10</title>
<polygon fill="none" stroke="#bfbfbf" points="192.456,-6.5 192.456,-25.5 236.456,-25.5 236.456,-6.5 192.456,-6.5"/>
<text text-anchor="middle" x="214.456" y="-13.5" font-family="Helvetica,sans-Serif" font-size="10.00">cmath</text>
</g>
<!-- Node5&#45;&gt;Node10 -->
<g id="edge9" class="edge"><title>Node5&#45;&gt;Node10</title>
<path fill="none" stroke="midnightblue" d="M745.308,-355.201C561.434,-355.077 75.9002,-350.321 21.4557,-304 -7.3672,-279.478 2.45573,-258.843 2.45573,-221 2.45573,-221 2.45573,-221 2.45573,-151 2.45573,-67.0012 122.848,-33.5056 182.181,-22.0984"/>
<polygon fill="midnightblue" stroke="midnightblue" points="182.959,-25.5143 192.169,-20.2764 181.703,-18.6279 182.959,-25.5143"/>
</g>
<!-- Node11 -->
<g id="node11" class="node"><title>Node11</title>
<polygon fill="none" stroke="#bfbfbf" points="534.456,-278.5 534.456,-297.5 580.456,-297.5 580.456,-278.5 534.456,-278.5"/>
<text text-anchor="middle" x="557.456" y="-285.5" font-family="Helvetica,sans-Serif" font-size="10.00">cstring</text>
</g>
<!-- Node5&#45;&gt;Node11 -->
<g id="edge10" class="edge"><title>Node5&#45;&gt;Node11</title>
<path fill="none" stroke="midnightblue" d="M745.019,-341.715C701.227,-332.727 644.018,-319.657 594.456,-304 591.82,-303.167 589.108,-302.23 586.407,-301.241"/>
<polygon fill="midnightblue" stroke="midnightblue" points="587.42,-297.88 576.831,-297.527 584.888,-304.407 587.42,-297.88"/>
</g>
<!-- Node12 -->
<g id="node12" class="node"><title>Node12</title>
<polygon fill="none" stroke="#bfbfbf" points="83.9557,-74.5 83.9557,-93.5 128.956,-93.5 128.956,-74.5 83.9557,-74.5"/>
<text text-anchor="middle" x="106.456" y="-81.5" font-family="Helvetica,sans-Serif" font-size="10.00">iosfwd</text>
</g>
<!-- Node5&#45;&gt;Node12 -->
<g id="edge11" class="edge"><title>Node5&#45;&gt;Node12</title>
<path fill="none" stroke="midnightblue" d="M745.342,-343.537C708.781,-335.722 664.156,-323.218 627.456,-304 607.896,-293.757 608.487,-283.195 589.456,-272 404.193,-163.015 334.828,-185.113 137.456,-100 135.87,-99.3164 134.248,-98.5961 132.618,-97.8562"/>
<polygon fill="midnightblue" stroke="midnightblue" points="133.927,-94.6043 123.388,-93.5216 130.952,-100.94 133.927,-94.6043"/>
</g>
<!-- Node13 -->
<g id="node13" class="node"><title>Node13</title>
<polygon fill="none" stroke="#bfbfbf" points="636.956,-278.5 636.956,-297.5 719.956,-297.5 719.956,-278.5 636.956,-278.5"/>
<text text-anchor="middle" x="678.456" y="-285.5" font-family="Helvetica,sans-Serif" font-size="10.00">Math/SMatrix.h</text>
</g>
<!-- Node5&#45;&gt;Node13 -->
<g id="edge12" class="edge"><title>Node5&#45;&gt;Node13</title>
<path fill="none" stroke="midnightblue" d="M786.066,-340.841C762.263,-329.374 728.984,-313.342 705.759,-302.153"/>
<polygon fill="midnightblue" stroke="midnightblue" points="707.005,-298.869 696.477,-297.682 703.967,-305.175 707.005,-298.869"/>
</g>
<!-- Node14 -->
<g id="node14" class="node"><title>Node14</title>
<polygon fill="none" stroke="#bfbfbf" points="737.956,-278.5 737.956,-297.5 822.956,-297.5 822.956,-278.5 737.956,-278.5"/>
<text text-anchor="middle" x="780.456" y="-285.5" font-family="Helvetica,sans-Serif" font-size="10.00">Math/SVector.h</text>
</g>
<!-- Node5&#45;&gt;Node14 -->
<g id="edge13" class="edge"><title>Node5&#45;&gt;Node14</title>
<path fill="none" stroke="midnightblue" d="M807.861,-340.679C802.62,-330.796 795.612,-317.579 789.994,-306.986"/>
<polygon fill="midnightblue" stroke="midnightblue" points="792.915,-305.023 785.137,-297.828 786.73,-308.303 792.915,-305.023"/>
</g>
<!-- Node15 -->
<g id="node15" class="node"><title>Node15</title>
<g id="a_node15"><a xlink:href="../../d6/d84/MathConstants_8h.html" target="_top" xlink:title="useful math constants ">
<polygon fill="none" stroke="black" points="495.956,-6.5 495.956,-25.5 674.956,-25.5 674.956,-6.5 495.956,-6.5"/>
<text text-anchor="middle" x="585.456" y="-13.5" font-family="Helvetica,sans-Serif" font-size="10.00">CommonConstants/MathConstants.h</text>
</a>
</g>
</g>
<!-- Node5&#45;&gt;Node15 -->
<g id="edge14" class="edge"><title>Node5&#45;&gt;Node15</title>
<path fill="none" stroke="midnightblue" d="M745.452,-347.68C685.984,-340.286 598.846,-326.657 525.456,-304 315.248,-239.105 193.729,-284.858 74.4557,-100 66.745,-88.0494 64.9115,-78.5442 74.4557,-68 101.452,-38.1755 344.372,-25.0551 485.339,-19.9097"/>
<polygon fill="midnightblue" stroke="midnightblue" points="485.858,-23.3935 495.726,-19.5382 485.607,-16.3979 485.858,-23.3935"/>
</g>
<!-- Node16 -->
<g id="node16" class="node"><title>Node16</title>
<g id="a_node16"><a xlink:href="../../dd/d76/Cartesian3D_8h.html" target="_top" xlink:title="MathUtils/Cartesian3D.h">
<polygon fill="none" stroke="black" points="773.956,-142.5 773.956,-161.5 898.956,-161.5 898.956,-142.5 773.956,-142.5"/>
<text text-anchor="middle" x="836.456" y="-149.5" font-family="Helvetica,sans-Serif" font-size="10.00">MathUtils/Cartesian3D.h</text>
</a>
</g>
</g>
<!-- Node5&#45;&gt;Node16 -->
<g id="edge15" class="edge"><title>Node5&#45;&gt;Node16</title>
<path fill="none" stroke="midnightblue" d="M820.992,-340.964C824.696,-330.859 829.276,-316.807 831.456,-304 839.461,-256.956 838.613,-200.514 837.453,-171.792"/>
<polygon fill="midnightblue" stroke="midnightblue" points="840.939,-171.422 836.977,-161.596 833.947,-171.748 840.939,-171.422"/>
</g>
<!-- Node26 -->
<g id="node26" class="node"><title>Node26</title>
<g id="a_node26"><a xlink:href="../../d9/d52/Common_2MathUtils_2include_2MathUtils_2Utils_8h.html" target="_top" xlink:title="MathUtils/Utils.h">
<polygon fill="none" stroke="black" points="1266.46,-74.5 1266.46,-93.5 1356.46,-93.5 1356.46,-74.5 1266.46,-74.5"/>
<text text-anchor="middle" x="1311.46" y="-81.5" font-family="Helvetica,sans-Serif" font-size="10.00">MathUtils/Utils.h</text>
</a>
</g>
</g>
<!-- Node5&#45;&gt;Node26 -->
<g id="edge27" class="edge"><title>Node5&#45;&gt;Node26</title>
<path fill="none" stroke="midnightblue" d="M824.577,-340.56C843.801,-311.16 891.277,-243.78 946.456,-204 1064.34,-119.015 1115.79,-136.517 1256.46,-100 1261.12,-98.7891 1266,-97.4963 1270.84,-96.1965"/>
<polygon fill="midnightblue" stroke="midnightblue" points="1271.92,-99.5319 1280.66,-93.5425 1270.09,-92.7746 1271.92,-99.5319"/>
</g>
<!-- Node27 -->
<g id="node27" class="node"><title>Node27</title>
<g id="a_node27"><a xlink:href="../../d4/de2/BaseCluster_8h.html" target="_top" xlink:title="ReconstructionDataFormats\l/BaseCluster.h">
<polygon fill="none" stroke="black" points="955.456,-273 955.456,-303 1095.46,-303 1095.46,-273 955.456,-273"/>
<text text-anchor="start" x="963.456" y="-291" font-family="Helvetica,sans-Serif" font-size="10.00">ReconstructionDataFormats</text>
<text text-anchor="middle" x="1025.46" y="-280" font-family="Helvetica,sans-Serif" font-size="10.00">/BaseCluster.h</text>
</a>
</g>
</g>
<!-- Node5&#45;&gt;Node27 -->
<g id="edge31" class="edge"><title>Node5&#45;&gt;Node27</title>
<path fill="none" stroke="midnightblue" d="M860.248,-340.922C892.591,-330.757 936.445,-316.975 970.842,-306.164"/>
<polygon fill="midnightblue" stroke="midnightblue" points="972.241,-309.393 980.732,-303.056 970.143,-302.715 972.241,-309.393"/>
</g>
<!-- Node16&#45;&gt;Node6 -->
<g id="edge21" class="edge"><title>Node16&#45;&gt;Node6</title>
<path fill="none" stroke="midnightblue" d="M899.012,-150.055C1038.67,-147.322 1386.23,-137.045 1674.46,-100 1686.96,-98.3927 1700.5,-95.951 1712.64,-93.5015"/>
<polygon fill="midnightblue" stroke="midnightblue" points="1713.37,-96.9236 1722.45,-91.4603 1711.95,-90.0703 1713.37,-96.9236"/>
</g>
<!-- Node16&#45;&gt;Node12 -->
<g id="edge23" class="edge"><title>Node16&#45;&gt;Node12</title>
<path fill="none" stroke="midnightblue" d="M773.868,-142.918C753.367,-140.456 730.462,-137.9 709.456,-136 455.766,-113.052 383.831,-164.686 137.456,-100 135.114,-99.3851 132.737,-98.5893 130.395,-97.6853"/>
<polygon fill="midnightblue" stroke="midnightblue" points="131.699,-94.4345 121.141,-93.5458 128.84,-100.824 131.699,-94.4345"/>
</g>
<!-- Node17 -->
<g id="node17" class="node"><title>Node17</title>
<polygon fill="none" stroke="#bfbfbf" points="760.956,-69 760.956,-99 911.956,-99 911.956,-69 760.956,-69"/>
<text text-anchor="start" x="768.956" y="-87" font-family="Helvetica,sans-Serif" font-size="10.00">Math/GenVector/Displacement</text>
<text text-anchor="middle" x="836.456" y="-76" font-family="Helvetica,sans-Serif" font-size="10.00">Vector3D.h</text>
</g>
<!-- Node16&#45;&gt;Node17 -->
<g id="edge16" class="edge"><title>Node16&#45;&gt;Node17</title>
<path fill="none" stroke="midnightblue" d="M836.456,-142.372C836.456,-133.971 836.456,-120.811 836.456,-109.213"/>
<polygon fill="midnightblue" stroke="midnightblue" points="839.956,-109.181 836.456,-99.1815 832.956,-109.181 839.956,-109.181"/>
</g>
<!-- Node18 -->
<g id="node18" class="node"><title>Node18</title>
<polygon fill="none" stroke="#bfbfbf" points="1072.46,-74.5 1072.46,-93.5 1248.46,-93.5 1248.46,-74.5 1072.46,-74.5"/>
<text text-anchor="middle" x="1160.46" y="-81.5" font-family="Helvetica,sans-Serif" font-size="10.00">Math/GenVector/PositionVector3D.h</text>
</g>
<!-- Node16&#45;&gt;Node18 -->
<g id="edge17" class="edge"><title>Node16&#45;&gt;Node18</title>
<path fill="none" stroke="midnightblue" d="M878.481,-142.439C937.479,-130.421 1044.78,-108.565 1108.64,-95.5547"/>
<polygon fill="midnightblue" stroke="midnightblue" points="1109.4,-98.9712 1118.51,-93.5455 1108.01,-92.1121 1109.4,-98.9712"/>
</g>
<!-- Node19 -->
<g id="node19" class="node"><title>Node19</title>
<polygon fill="none" stroke="#bfbfbf" points="146.956,-74.5 146.956,-93.5 295.956,-93.5 295.956,-74.5 146.956,-74.5"/>
<text text-anchor="middle" x="221.456" y="-81.5" font-family="Helvetica,sans-Serif" font-size="10.00">Math/GenVector/Rotation3D.h</text>
</g>
<!-- Node16&#45;&gt;Node19 -->
<g id="edge18" class="edge"><title>Node16&#45;&gt;Node19</title>
<path fill="none" stroke="midnightblue" d="M773.837,-143.243C753.333,-140.799 730.435,-138.173 709.456,-136 530.148,-117.426 484.136,-123.868 305.456,-100 295.544,-98.6761 285.02,-97.0074 274.894,-95.268"/>
<polygon fill="midnightblue" stroke="midnightblue" points="275.395,-91.8024 264.94,-93.515 274.181,-98.6963 275.395,-91.8024"/>
</g>
<!-- Node20 -->
<g id="node20" class="node"><title>Node20</title>
<polygon fill="none" stroke="#bfbfbf" points="314.456,-74.5 314.456,-93.5 470.456,-93.5 470.456,-74.5 314.456,-74.5"/>
<text text-anchor="middle" x="392.456" y="-81.5" font-family="Helvetica,sans-Serif" font-size="10.00">Math/GenVector/Transform3D.h</text>
</g>
<!-- Node16&#45;&gt;Node20 -->
<g id="edge19" class="edge"><title>Node16&#45;&gt;Node20</title>
<path fill="none" stroke="midnightblue" d="M773.819,-142.609C702.47,-132.921 582.428,-116.229 479.456,-100 470.017,-98.5124 460.015,-96.8598 450.286,-95.2107"/>
<polygon fill="midnightblue" stroke="midnightblue" points="450.726,-91.7352 440.279,-93.5005 449.546,-98.6352 450.726,-91.7352"/>
</g>
<!-- Node21 -->
<g id="node21" class="node"><title>Node21</title>
<polygon fill="none" stroke="#bfbfbf" points="488.456,-74.5 488.456,-93.5 648.456,-93.5 648.456,-74.5 488.456,-74.5"/>
<text text-anchor="middle" x="568.456" y="-81.5" font-family="Helvetica,sans-Serif" font-size="10.00">Math/GenVector/Translation3D.h</text>
</g>
<!-- Node16&#45;&gt;Node21 -->
<g id="edge20" class="edge"><title>Node16&#45;&gt;Node21</title>
<path fill="none" stroke="midnightblue" d="M801.694,-142.439C753.396,-130.545 665.964,-109.013 612.956,-95.959"/>
<polygon fill="midnightblue" stroke="midnightblue" points="613.703,-92.5384 603.156,-93.5455 612.029,-99.3353 613.703,-92.5384"/>
</g>
<!-- Node22 -->
<g id="node22" class="node"><title>Node22</title>
<polygon fill="none" stroke="#bfbfbf" points="666.456,-74.5 666.456,-93.5 742.456,-93.5 742.456,-74.5 666.456,-74.5"/>
<text text-anchor="middle" x="704.456" y="-81.5" font-family="Helvetica,sans-Serif" font-size="10.00">TGeoMatrix.h</text>
</g>
<!-- Node16&#45;&gt;Node22 -->
<g id="edge22" class="edge"><title>Node16&#45;&gt;Node22</title>
<path fill="none" stroke="midnightblue" d="M819.199,-142.372C796.668,-131.106 757.015,-111.279 730.736,-98.1403"/>
<polygon fill="midnightblue" stroke="midnightblue" points="732.226,-94.9722 721.717,-93.6305 729.096,-101.233 732.226,-94.9722"/>
</g>
<!-- Node23 -->
<g id="node23" class="node"><title>Node23</title>
<g id="a_node23"><a xlink:href="../../d2/dd0/Cartesian2D_8h.html" target="_top" xlink:title="MathUtils/Cartesian2D.h">
<polygon fill="none" stroke="black" points="929.956,-74.5 929.956,-93.5 1054.96,-93.5 1054.96,-74.5 929.956,-74.5"/>
<text text-anchor="middle" x="992.456" y="-81.5" font-family="Helvetica,sans-Serif" font-size="10.00">MathUtils/Cartesian2D.h</text>
</a>
</g>
</g>
<!-- Node16&#45;&gt;Node23 -->
<g id="edge24" class="edge"><title>Node16&#45;&gt;Node23</title>
<path fill="none" stroke="midnightblue" d="M856.85,-142.372C883.828,-130.958 931.578,-110.756 962.614,-97.6252"/>
<polygon fill="midnightblue" stroke="midnightblue" points="964.211,-100.75 972.056,-93.6305 961.483,-94.3035 964.211,-100.75"/>
</g>
<!-- Node24 -->
<g id="node24" class="node"><title>Node24</title>
<polygon fill="none" stroke="#bfbfbf" points="1007.96,-1 1007.96,-31 1158.96,-31 1158.96,-1 1007.96,-1"/>
<text text-anchor="start" x="1015.96" y="-19" font-family="Helvetica,sans-Serif" font-size="10.00">Math/GenVector/Displacement</text>
<text text-anchor="middle" x="1083.46" y="-8" font-family="Helvetica,sans-Serif" font-size="10.00">Vector2D.h</text>
</g>
<!-- Node23&#45;&gt;Node24 -->
<g id="edge25" class="edge"><title>Node23&#45;&gt;Node24</title>
<path fill="none" stroke="midnightblue" d="M1004.35,-74.3717C1017.23,-65.0286 1038.24,-49.7966 1055.36,-37.375"/>
<polygon fill="midnightblue" stroke="midnightblue" points="1057.86,-39.8859 1063.9,-31.1815 1053.75,-34.2194 1057.86,-39.8859"/>
</g>
<!-- Node25 -->
<g id="node25" class="node"><title>Node25</title>
<polygon fill="none" stroke="#bfbfbf" points="813.456,-6.5 813.456,-25.5 989.456,-25.5 989.456,-6.5 813.456,-6.5"/>
<text text-anchor="middle" x="901.456" y="-13.5" font-family="Helvetica,sans-Serif" font-size="10.00">Math/GenVector/PositionVector2D.h</text>
</g>
<!-- Node23&#45;&gt;Node25 -->
<g id="edge26" class="edge"><title>Node23&#45;&gt;Node25</title>
<path fill="none" stroke="midnightblue" d="M980.559,-74.3717C965.572,-63.5015 939.593,-44.6602 921.514,-31.5474"/>
<polygon fill="midnightblue" stroke="midnightblue" points="923.505,-28.6684 913.355,-25.6305 919.395,-34.3349 923.505,-28.6684"/>
</g>
<!-- Node26&#45;&gt;Node8 -->
<g id="edge28" class="edge"><title>Node26&#45;&gt;Node8</title>
<path fill="none" stroke="midnightblue" d="M1341.69,-74.452C1349.43,-72.3059 1357.74,-70.0354 1365.46,-68 1427.67,-51.5854 1500.91,-33.5989 1540.51,-23.9855"/>
<polygon fill="midnightblue" stroke="midnightblue" points="1541.39,-27.3729 1550.29,-21.616 1539.75,-20.5698 1541.39,-27.3729"/>
</g>
<!-- Node26&#45;&gt;Node10 -->
<g id="edge29" class="edge"><title>Node26&#45;&gt;Node10</title>
<path fill="none" stroke="midnightblue" d="M1284.86,-74.4814C1275.92,-71.9604 1265.84,-69.4808 1256.46,-68 918.046,-14.6072 828.608,-49.4324 486.456,-32 399.807,-27.5853 297.666,-21.7949 246.732,-18.8676"/>
<polygon fill="midnightblue" stroke="midnightblue" points="246.849,-15.3686 236.665,-18.2879 246.447,-22.3571 246.849,-15.3686"/>
</g>
<!-- Node26&#45;&gt;Node15 -->
<g id="edge30" class="edge"><title>Node26&#45;&gt;Node15</title>
<path fill="none" stroke="midnightblue" d="M1284.27,-74.4846C1275.47,-72.0267 1265.62,-69.5837 1256.46,-68 1228.83,-63.2272 865.221,-36.9274 685.132,-24.0748"/>
<polygon fill="midnightblue" stroke="midnightblue" points="685.342,-20.581 675.119,-23.3605 684.844,-27.5632 685.342,-20.581"/>
</g>
<!-- Node27&#45;&gt;Node12 -->
<g id="edge36" class="edge"><title>Node27&#45;&gt;Node12</title>
<path fill="none" stroke="midnightblue" d="M989.642,-272.915C898.087,-237.002 660.038,-144.258 622.456,-136 411.344,-89.6119 346.207,-156.064 137.456,-100 135.117,-99.3719 132.743,-98.5672 130.402,-97.6573"/>
<polygon fill="midnightblue" stroke="midnightblue" points="131.708,-94.4071 121.151,-93.5093 128.844,-100.794 131.708,-94.4071"/>
</g>
<!-- Node27&#45;&gt;Node16 -->
<g id="edge51" class="edge"><title>Node27&#45;&gt;Node16</title>
<path fill="none" stroke="midnightblue" d="M1002.69,-272.923C986.749,-262.915 965.057,-248.996 946.456,-236 913.706,-213.119 876.876,-184.772 855.225,-167.826"/>
<polygon fill="midnightblue" stroke="midnightblue" points="857.216,-164.939 847.19,-161.515 852.892,-170.444 857.216,-164.939"/>
</g>
<!-- Node28 -->
<g id="node28" class="node"><title>Node28</title>
<polygon fill="none" stroke="#bfbfbf" points="955.956,-210.5 955.956,-229.5 1014.96,-229.5 1014.96,-210.5 955.956,-210.5"/>
<text text-anchor="middle" x="985.456" y="-217.5" font-family="Helvetica,sans-Serif" font-size="10.00">TObject.h</text>
</g>
<!-- Node27&#45;&gt;Node28 -->
<g id="edge32" class="edge"><title>Node27&#45;&gt;Node28</title>
<path fill="none" stroke="midnightblue" d="M1016.78,-272.679C1010.72,-262.694 1002.61,-249.307 996.159,-238.66"/>
<polygon fill="midnightblue" stroke="midnightblue" points="998.982,-236.566 990.806,-229.828 992.996,-240.194 998.982,-236.566"/>
</g>
<!-- Node29 -->
<g id="node29" class="node"><title>Node29</title>
<polygon fill="none" stroke="#bfbfbf" points="1374.96,-74.5 1374.96,-93.5 1415.96,-93.5 1415.96,-74.5 1374.96,-74.5"/>
<text text-anchor="middle" x="1395.46" y="-81.5" font-family="Helvetica,sans-Serif" font-size="10.00">bitset</text>
</g>
<!-- Node27&#45;&gt;Node29 -->
<g id="edge33" class="edge"><title>Node27&#45;&gt;Node29</title>
<path fill="none" stroke="midnightblue" d="M1028.11,-272.928C1032.28,-254.58 1042.09,-222.638 1062.46,-204 1167.5,-107.886 1234.16,-155.07 1365.46,-100 1366.87,-99.4088 1368.3,-98.7811 1369.74,-98.1306"/>
<polygon fill="midnightblue" stroke="midnightblue" points="1371.61,-101.116 1379.13,-93.6527 1368.6,-94.7975 1371.61,-101.116"/>
</g>
<!-- Node30 -->
<g id="node30" class="node"><title>Node30</title>
<polygon fill="none" stroke="#bfbfbf" points="1071.46,-210.5 1071.46,-229.5 1121.46,-229.5 1121.46,-210.5 1071.46,-210.5"/>
<text text-anchor="middle" x="1096.46" y="-217.5" font-family="Helvetica,sans-Serif" font-size="10.00">iomanip</text>
</g>
<!-- Node27&#45;&gt;Node30 -->
<g id="edge34" class="edge"><title>Node27&#45;&gt;Node30</title>
<path fill="none" stroke="midnightblue" d="M1040.86,-272.679C1052.26,-262.082 1067.78,-247.655 1079.53,-236.736"/>
<polygon fill="midnightblue" stroke="midnightblue" points="1082.02,-239.2 1086.96,-229.828 1077.25,-234.073 1082.02,-239.2"/>
</g>
<!-- Node31 -->
<g id="node31" class="node"><title>Node31</title>
<polygon fill="none" stroke="#bfbfbf" points="1139.96,-210.5 1139.96,-229.5 1168.96,-229.5 1168.96,-210.5 1139.96,-210.5"/>
<text text-anchor="middle" x="1154.46" y="-217.5" font-family="Helvetica,sans-Serif" font-size="10.00">ios</text>
</g>
<!-- Node27&#45;&gt;Node31 -->
<g id="edge35" class="edge"><title>Node27&#45;&gt;Node31</title>
<path fill="none" stroke="midnightblue" d="M1056.68,-272.898C1077.8,-263.102 1106.16,-249.442 1130.46,-236 1131.13,-235.625 1131.82,-235.24 1132.51,-234.847"/>
<polygon fill="midnightblue" stroke="midnightblue" points="1134.63,-237.655 1141.4,-229.509 1131.03,-231.653 1134.63,-237.655"/>
</g>
<!-- Node32 -->
<g id="node32" class="node"><title>Node32</title>
<g id="a_node32"><a xlink:href="../../d4/d20/DetMatrixCache_8h.html" target="_top" xlink:title="DetectorsCommonDataFormats\l/DetMatrixCache.h">
<polygon fill="none" stroke="black" points="1366.46,-205 1366.46,-235 1522.46,-235 1522.46,-205 1366.46,-205"/>
<text text-anchor="start" x="1374.46" y="-223" font-family="Helvetica,sans-Serif" font-size="10.00">DetectorsCommonDataFormats</text>
<text text-anchor="middle" x="1444.46" y="-212" font-family="Helvetica,sans-Serif" font-size="10.00">/DetMatrixCache.h</text>
</a>
</g>
</g>
<!-- Node27&#45;&gt;Node32 -->
<g id="edge37" class="edge"><title>Node27&#45;&gt;Node32</title>
<path fill="none" stroke="midnightblue" d="M1095.64,-273.527C1098.62,-273.002 1101.57,-272.491 1104.46,-272 1189.85,-257.494 1287.68,-243.047 1356.41,-233.252"/>
<polygon fill="midnightblue" stroke="midnightblue" points="1356.93,-236.714 1366.33,-231.841 1355.94,-229.783 1356.93,-236.714"/>
</g>
<!-- Node32&#45;&gt;Node4 -->
<g id="edge40" class="edge"><title>Node32&#45;&gt;Node4</title>
<path fill="none" stroke="midnightblue" d="M1522.83,-206.196C1611.98,-191.632 1753.34,-168.539 1816.33,-158.248"/>
<polygon fill="midnightblue" stroke="midnightblue" points="1817.15,-161.661 1826.45,-156.595 1816.02,-154.753 1817.15,-161.661"/>
</g>
<!-- Node32&#45;&gt;Node6 -->
<g id="edge50" class="edge"><title>Node32&#45;&gt;Node6</title>
<path fill="none" stroke="midnightblue" d="M1522.64,-206.651C1560.43,-198.788 1605.66,-186.507 1643.46,-168 1679.46,-150.372 1714.97,-119.406 1734.67,-100.689"/>
<polygon fill="midnightblue" stroke="midnightblue" points="1737.12,-103.187 1741.88,-93.7177 1732.26,-98.1572 1737.12,-103.187"/>
</g>
<!-- Node32&#45;&gt;Node8 -->
<g id="edge39" class="edge"><title>Node32&#45;&gt;Node8</title>
<path fill="none" stroke="midnightblue" d="M1442.11,-204.931C1438.14,-176.217 1433.21,-110.035 1463.46,-68 1481.62,-42.7626 1515.67,-29.5053 1540.29,-22.9047"/>
<polygon fill="midnightblue" stroke="midnightblue" points="1541.31,-26.2568 1550.18,-20.4679 1539.64,-19.4597 1541.31,-26.2568"/>
</g>
<!-- Node32&#45;&gt;Node16 -->
<g id="edge49" class="edge"><title>Node32&#45;&gt;Node16</title>
<path fill="none" stroke="midnightblue" d="M1366.22,-210.507C1247.75,-197.648 1024.52,-173.415 909.321,-160.91"/>
<polygon fill="midnightblue" stroke="midnightblue" points="909.511,-157.41 899.191,-159.81 908.755,-164.369 909.511,-157.41"/>
</g>
<!-- Node33 -->
<g id="node33" class="node"><title>Node33</title>
<polygon fill="none" stroke="#bfbfbf" points="1344.96,-142.5 1344.96,-161.5 1415.96,-161.5 1415.96,-142.5 1344.96,-142.5"/>
<text text-anchor="middle" x="1380.46" y="-149.5" font-family="Helvetica,sans-Serif" font-size="10.00">FairLogger.h</text>
</g>
<!-- Node32&#45;&gt;Node33 -->
<g id="edge38" class="edge"><title>Node32&#45;&gt;Node33</title>
<path fill="none" stroke="midnightblue" d="M1430.57,-204.679C1420.39,-194.184 1406.57,-179.932 1396.02,-169.052"/>
<polygon fill="midnightblue" stroke="midnightblue" points="1398.49,-166.571 1389.02,-161.828 1393.47,-171.444 1398.49,-166.571"/>
</g>
<!-- Node34 -->
<g id="node34" class="node"><title>Node34</title>
<g id="a_node34"><a xlink:href="../../d6/d31/DetID_8h.html" target="_top" xlink:title="DetectorsCommonDataFormats\l/DetID.h">
<polygon fill="none" stroke="black" points="1478.46,-137 1478.46,-167 1634.46,-167 1634.46,-137 1478.46,-137"/>
<text text-anchor="start" x="1486.46" y="-155" font-family="Helvetica,sans-Serif" font-size="10.00">DetectorsCommonDataFormats</text>
<text text-anchor="middle" x="1556.46" y="-144" font-family="Helvetica,sans-Serif" font-size="10.00">/DetID.h</text>
</a>
</g>
</g>
<!-- Node32&#45;&gt;Node34 -->
<g id="edge41" class="edge"><title>Node32&#45;&gt;Node34</title>
<path fill="none" stroke="midnightblue" d="M1468.48,-204.841C1484.57,-195.359 1505.96,-182.754 1523.62,-172.348"/>
<polygon fill="midnightblue" stroke="midnightblue" points="1525.63,-175.228 1532.47,-167.135 1522.08,-169.197 1525.63,-175.228"/>
</g>
<!-- Node34&#45;&gt;Node6 -->
<g id="edge42" class="edge"><title>Node34&#45;&gt;Node6</title>
<path fill="none" stroke="midnightblue" d="M1599.12,-136.93C1629.63,-126.809 1671.63,-112.752 1708.46,-100 1711.2,-99.0499 1714.04,-98.0562 1716.89,-97.0522"/>
<polygon fill="midnightblue" stroke="midnightblue" points="1718.24,-100.287 1726.5,-93.6469 1715.9,-93.6897 1718.24,-100.287"/>
</g>
<!-- Node34&#45;&gt;Node8 -->
<g id="edge43" class="edge"><title>Node34&#45;&gt;Node8</title>
<path fill="none" stroke="midnightblue" d="M1623.64,-137C1643.36,-129.431 1662.75,-117.811 1674.46,-100 1682.27,-88.1147 1682,-80.055 1674.46,-68 1657.99,-41.6969 1623.66,-28.6133 1598.72,-22.3455"/>
<polygon fill="midnightblue" stroke="midnightblue" points="1599.22,-18.8688 1588.69,-20.0579 1597.66,-25.6936 1599.22,-18.8688"/>
</g>
<!-- Node34&#45;&gt;Node26 -->
<g id="edge48" class="edge"><title>Node34&#45;&gt;Node26</title>
<path fill="none" stroke="midnightblue" d="M1503.31,-136.963C1464.97,-126.798 1411.98,-112.673 1365.46,-100 1361.06,-98.8025 1356.46,-97.5412 1351.89,-96.2795"/>
<polygon fill="midnightblue" stroke="midnightblue" points="1352.57,-92.8357 1342,-93.5414 1350.7,-99.5821 1352.57,-92.8357"/>
</g>
<!-- Node34&#45;&gt;Node29 -->
<g id="edge44" class="edge"><title>Node34&#45;&gt;Node29</title>
<path fill="none" stroke="midnightblue" d="M1521.92,-136.841C1493.28,-125.102 1452.97,-108.578 1425.62,-97.3646"/>
<polygon fill="midnightblue" stroke="midnightblue" points="1426.75,-94.0468 1416.17,-93.4922 1424.1,-100.524 1426.75,-94.0468"/>
</g>
<!-- Node35 -->
<g id="node35" class="node"><title>Node35</title>
<polygon fill="none" stroke="#bfbfbf" points="1472.96,-74.5 1472.96,-93.5 1521.96,-93.5 1521.96,-74.5 1472.96,-74.5"/>
<text text-anchor="middle" x="1497.46" y="-81.5" font-family="Helvetica,sans-Serif" font-size="10.00">cassert</text>
</g>
<!-- Node34&#45;&gt;Node35 -->
<g id="edge45" class="edge"><title>Node34&#45;&gt;Node35</title>
<path fill="none" stroke="midnightblue" d="M1543.65,-136.679C1534.36,-126.286 1521.78,-112.208 1512.09,-101.37"/>
<polygon fill="midnightblue" stroke="midnightblue" points="1514.62,-98.9511 1505.35,-93.8283 1509.4,-103.616 1514.62,-98.9511"/>
</g>
<!-- Node36 -->
<g id="node36" class="node"><title>Node36</title>
<polygon fill="none" stroke="#bfbfbf" points="1540.46,-74.5 1540.46,-93.5 1586.46,-93.5 1586.46,-74.5 1540.46,-74.5"/>
<text text-anchor="middle" x="1563.46" y="-81.5" font-family="Helvetica,sans-Serif" font-size="10.00">cstdint</text>
</g>
<!-- Node34&#45;&gt;Node36 -->
<g id="edge46" class="edge"><title>Node34&#45;&gt;Node36</title>
<path fill="none" stroke="midnightblue" d="M1557.97,-136.679C1558.99,-127.101 1560.34,-114.394 1561.44,-103.977"/>
<polygon fill="midnightblue" stroke="midnightblue" points="1564.95,-104.142 1562.52,-93.8283 1557.98,-103.403 1564.95,-104.142"/>
</g>
<!-- Node37 -->
<g id="node37" class="node"><title>Node37</title>
<polygon fill="none" stroke="#bfbfbf" points="1604.46,-74.5 1604.46,-93.5 1666.46,-93.5 1666.46,-74.5 1604.46,-74.5"/>
<text text-anchor="middle" x="1635.46" y="-81.5" font-family="Helvetica,sans-Serif" font-size="10.00">type_traits</text>
</g>
<!-- Node34&#45;&gt;Node37 -->
<g id="edge47" class="edge"><title>Node34&#45;&gt;Node37</title>
<path fill="none" stroke="midnightblue" d="M1573.6,-136.679C1586.4,-125.981 1603.88,-111.377 1617,-100.422"/>
<polygon fill="midnightblue" stroke="midnightblue" points="1619.46,-102.926 1624.89,-93.8283 1614.97,-97.5537 1619.46,-102.926"/>
</g>
<!-- Node39&#45;&gt;Node3 -->
<g id="edge55" class="edge"><title>Node39&#45;&gt;Node3</title>
<path fill="none" stroke="midnightblue" d="M1793.02,-464.444C1756.6,-455.122 1698.23,-440.183 1658.43,-429.997"/>
<polygon fill="midnightblue" stroke="midnightblue" points="1659.29,-426.605 1648.73,-427.516 1657.55,-433.387 1659.29,-426.605"/>
</g>
<!-- Node39&#45;&gt;Node4 -->
<g id="edge54" class="edge"><title>Node39&#45;&gt;Node4</title>
<path fill="none" stroke="midnightblue" d="M1832.73,-464.48C1845.74,-445.946 1874.46,-400.154 1874.46,-357 1874.46,-357 1874.46,-357 1874.46,-287 1874.46,-245.095 1862.05,-197.145 1854.38,-171.496"/>
<polygon fill="midnightblue" stroke="midnightblue" points="1857.64,-170.186 1851.34,-161.667 1850.95,-172.254 1857.64,-170.186"/>
</g>
<!-- Node39&#45;&gt;Node38 -->
<g id="edge58" class="edge"><title>Node39&#45;&gt;Node38</title>
<path fill="none" stroke="midnightblue" d="M1818.36,-464.083C1811.3,-456.298 1800.87,-444.801 1792.31,-435.367"/>
<polygon fill="midnightblue" stroke="midnightblue" points="1794.71,-432.805 1785.4,-427.751 1789.52,-437.509 1794.71,-432.805"/>
</g>
<!-- Node40 -->
<g id="node40" class="node"><title>Node40</title>
<g id="a_node40"><a xlink:href="../../dc/de5/Detectors_2ITSMFT_2MFT_2base_2include_2MFTBase_2Constants_8h.html" target="_top" xlink:title="MFTBase/Constants.h">
<polygon fill="none" stroke="black" points="1902.46,-346.5 1902.46,-365.5 2018.46,-365.5 2018.46,-346.5 1902.46,-346.5"/>
<text text-anchor="middle" x="1960.46" y="-353.5" font-family="Helvetica,sans-Serif" font-size="10.00">MFTBase/Constants.h</text>
</a>
</g>
</g>
<!-- Node39&#45;&gt;Node40 -->
<g id="edge56" class="edge"><title>Node39&#45;&gt;Node40</title>
<path fill="none" stroke="midnightblue" d="M1839.71,-464.239C1852.57,-455.545 1872.43,-441.588 1888.46,-428 1909.25,-410.377 1931.3,-388.017 1945.44,-373.146"/>
<polygon fill="midnightblue" stroke="midnightblue" points="1948.11,-375.412 1952.42,-365.733 1943.02,-370.613 1948.11,-375.412"/>
</g>
<!-- Node40&#45;&gt;Node6 -->
<g id="edge57" class="edge"><title>Node40&#45;&gt;Node6</title>
<path fill="none" stroke="midnightblue" d="M1959.67,-346.136C1956.3,-313.582 1940.38,-199.233 1878.46,-136 1854.31,-111.342 1816.72,-98.2782 1788.51,-91.5726"/>
<polygon fill="midnightblue" stroke="midnightblue" points="1789.11,-88.1196 1778.59,-89.3801 1787.6,-94.9548 1789.11,-88.1196"/>
</g>
</g>
</svg>
        <g id="navigator" transform="translate(0 0)" fill="#404254">
                <rect fill="#f2f5e9" fill-opacity="0.5" stroke="#606060" stroke-width=".5" x="0" y="0" width="60" height="60"/>
                <use id="zoomplus" xlink:href="#zoomPlus" x="17" y="9" onmousedown="handleZoom(evt,'in')"/>
                <use id="zoomminus" xlink:href="#zoomMin" x="42" y="9" onmousedown="handleZoom(evt,'out')"/>
                <use id="reset" xlink:href="#resetDef" x="30" y="36" onmousedown="handleReset()"/>
                <g id="arrowUp" xlink:href="#dirArrow" transform="translate(30 24)" onmousedown="handlePan(0,-1)">
                  <use xlink:href="#rim" fill="#404040">
                        <set attributeName="fill" to="#808080" begin="arrowUp.mouseover" end="arrowUp.mouseout"/>
                  </use>
                  <path fill="none" stroke="white" stroke-width="1.5" d="M0,-3.0v7 M-2.5,-0.5L0,-3.0L2.5,-0.5"/>
                </g>
                <g id="arrowRight" xlink:href="#dirArrow" transform="rotate(90) translate(36 -43)" onmousedown="handlePan(1,0)">
                  <use xlink:href="#rim" fill="#404040">
                        <set attributeName="fill" to="#808080" begin="arrowRight.mouseover" end="arrowRight.mouseout"/>
                  </use>
                  <path fill="none" stroke="white" stroke-width="1.5" d="M0,-3.0v7 M-2.5,-0.5L0,-3.0L2.5,-0.5"/>
                </g>
                <g id="arrowDown" xlink:href="#dirArrow" transform="rotate(180) translate(-30 -48)" onmousedown="handlePan(0,1)">
                  <use xlink:href="#rim" fill="#404040">
                        <set attributeName="fill" to="#808080" begin="arrowDown.mouseover" end="arrowDown.mouseout"/>
                  </use>
                  <path fill="none" stroke="white" stroke-width="1.5" d="M0,-3.0v7 M-2.5,-0.5L0,-3.0L2.5,-0.5"/>
                </g>
                <g id="arrowLeft" xlink:href="#dirArrow" transform="rotate(270) translate(-36 17)" onmousedown="handlePan(-1,0)">
                  <use xlink:href="#rim" fill="#404040">
                        <set attributeName="fill" to="#808080" begin="arrowLeft.mouseover" end="arrowLeft.mouseout"/>
                  </use>
                  <path fill="none" stroke="white" stroke-width="1.5" d="M0,-3.0v7 M-2.5,-0.5L0,-3.0L2.5,-0.5"/>
                </g>
        </g>
        <svg viewBox="0 0 15 15" width="100%" height="30px" preserveAspectRatio="xMaxYMin meet">
         <g id="arrow_out" transform="scale(0.3 0.3)">
          <a xlink:href="TrackerTask_8h__incl_org.svg" target="_base">
           <rect id="button" ry="5" rx="5" y="6" x="6" height="38" width="38"
                fill="#f2f5e9" fill-opacity="0.5" stroke="#606060" stroke-width="1.0"/>
           <path id="arrow"
             d="M 11.500037,31.436501 C 11.940474,20.09759 22.043105,11.32322 32.158766,21.979434 L 37.068811,17.246167 C 37.068811,17.246167 37.088388,32 37.088388,32 L 22.160133,31.978069 C 22.160133,31.978069 26.997745,27.140456 26.997745,27.140456 C 18.528582,18.264221 13.291696,25.230495 11.500037,31.436501 z"
             style="fill:#404040;"/>
          </a>
         </g>
        </svg>
</svg>
