<?xml version="1.0" encoding="UTF-8" standalone="no"?>
<!DOCTYPE svg PUBLIC "-//W3C//DTD SVG 1.1//EN"
 "http://www.w3.org/Graphics/SVG/1.1/DTD/svg11.dtd">
<!-- Generated by graphviz version 2.36.0 (20140111.2315)
 -->
<!-- Title: /home/travis/build/AliceO2Group/AliceO2/DataFormats/Detectors/MUON/MID/include/DataFormatsMID/ColumnData.h Pages: 1 -->
<svg width="336pt" height="140pt"
 viewBox="0.00 0.00 336.00 140.00" xmlns="http://www.w3.org/2000/svg" xmlns:xlink="http://www.w3.org/1999/xlink">
<g id="graph0" class="graph" transform="scale(1 1) rotate(0) translate(4 136)">
<title>/home/travis/build/AliceO2Group/AliceO2/DataFormats/Detectors/MUON/MID/include/DataFormatsMID/ColumnData.h</title>
<!-- Node1 -->
<g id="node1" class="node"><title>Node1</title>
<polygon fill="#bfbfbf" stroke="black" points="111.5,-68.5 111.5,-131.5 296.5,-131.5 296.5,-68.5 111.5,-68.5"/>
<text text-anchor="start" x="119.5" y="-119.5" font-family="Helvetica,sans-Serif" font-size="10.00">/home/travis/build</text>
<text text-anchor="start" x="119.5" y="-108.5" font-family="Helvetica,sans-Serif" font-size="10.00">/AliceO2Group/AliceO2</text>
<text text-anchor="start" x="119.5" y="-97.5" font-family="Helvetica,sans-Serif" font-size="10.00">/DataFormats/Detectors</text>
<text text-anchor="start" x="119.5" y="-86.5" font-family="Helvetica,sans-Serif" font-size="10.00">/MUON/MID/include/DataFormatsMID</text>
<text text-anchor="middle" x="204" y="-75.5" font-family="Helvetica,sans-Serif" font-size="10.00">/ColumnData.h</text>
</g>
<!-- Node2 -->
<g id="node2" class="node"><title>Node2</title>
<polygon fill="none" stroke="#bfbfbf" points="-0.5,-1 -0.5,-31 94.5,-31 94.5,-1 -0.5,-1"/>
<text text-anchor="start" x="7.5" y="-19" font-family="Helvetica,sans-Serif" font-size="10.00">boost/serialization</text>
<text text-anchor="middle" x="47" y="-8" font-family="Helvetica,sans-Serif" font-size="10.00">/access.hpp</text>
</g>
<!-- Node1&#45;&gt;Node2 -->
<g id="edge1" class="edge"><title>Node1&#45;&gt;Node2</title>
<path fill="none" stroke="midnightblue" d="M145.539,-68.4662C124.507,-57.4813 101.418,-45.4222 82.8801,-35.7399"/>
<polygon fill="midnightblue" stroke="midnightblue" points="84.3898,-32.5798 73.9056,-31.0526 81.1491,-38.7845 84.3898,-32.5798"/>
</g>
<!-- Node3 -->
<g id="node3" class="node"><title>Node3</title>
<polygon fill="none" stroke="#bfbfbf" points="112.5,-1 112.5,-31 207.5,-31 207.5,-1 112.5,-1"/>
<text text-anchor="start" x="120.5" y="-19" font-family="Helvetica,sans-Serif" font-size="10.00">boost/serialization</text>
<text text-anchor="middle" x="160" y="-8" font-family="Helvetica,sans-Serif" font-size="10.00">/array.hpp</text>
</g>
<!-- Node1&#45;&gt;Node3 -->
<g id="edge2" class="edge"><title>Node1&#45;&gt;Node3</title>
<path fill="none" stroke="midnightblue" d="M187.616,-68.4662C182.592,-59.1032 177.149,-48.9596 172.434,-40.1727"/>
<polygon fill="midnightblue" stroke="midnightblue" points="175.47,-38.4283 167.658,-31.2716 169.302,-41.7381 175.47,-38.4283"/>
</g>
<!-- Node4 -->
<g id="node4" class="node"><title>Node4</title>
<polygon fill="none" stroke="#bfbfbf" points="226,-6.5 226,-25.5 272,-25.5 272,-6.5 226,-6.5"/>
<text text-anchor="middle" x="249" y="-13.5" font-family="Helvetica,sans-Serif" font-size="10.00">cstdint</text>
</g>
<!-- Node1&#45;&gt;Node4 -->
<g id="edge3" class="edge"><title>Node1&#45;&gt;Node4</title>
<path fill="none" stroke="midnightblue" d="M220.756,-68.4662C227.053,-56.9915 233.994,-44.3446 239.419,-34.4591"/>
<polygon fill="midnightblue" stroke="midnightblue" points="242.516,-36.0903 244.259,-25.6398 236.379,-32.7226 242.516,-36.0903"/>
</g>
<!-- Node5 -->
<g id="node5" class="node"><title>Node5</title>
<polygon fill="none" stroke="#bfbfbf" points="290,-6.5 290,-25.5 328,-25.5 328,-6.5 290,-6.5"/>
<text text-anchor="middle" x="309" y="-13.5" font-family="Helvetica,sans-Serif" font-size="10.00">array</text>
</g>
<!-- Node1&#45;&gt;Node5 -->
<g id="edge4" class="edge"><title>Node1&#45;&gt;Node5</title>
<path fill="none" stroke="midnightblue" d="M243.098,-68.4662C259.016,-56.0353 276.695,-42.2286 289.732,-32.0475"/>
<polygon fill="midnightblue" stroke="midnightblue" points="292.21,-34.5533 297.937,-25.6398 287.901,-29.0363 292.21,-34.5533"/>
</g>
</g>
</svg>
