<?xml version="1.0" encoding="UTF-8" standalone="no"?>
<!DOCTYPE svg PUBLIC "-//W3C//DTD SVG 1.1//EN"
 "http://www.w3.org/Graphics/SVG/1.1/DTD/svg11.dtd">
<!-- Generated by graphviz version 2.36.0 (20140111.2315)
 -->
<!-- Title: o2::ITS::CA::Vertexer Pages: 1 -->
<svg width="1583pt" height="524pt"
 viewBox="0.00 0.00 1583.00 524.00" xmlns="http://www.w3.org/2000/svg" xmlns:xlink="http://www.w3.org/1999/xlink">
<g id="graph0" class="graph" transform="scale(1 1) rotate(0) translate(4 520)">
<title>o2::ITS::CA::Vertexer</title>
<!-- Node1 -->
<g id="node1" class="node"><title>Node1</title>
<polygon fill="#bfbfbf" stroke="black" points="788,-1 788,-201 900,-201 900,-1 788,-1"/>
<text text-anchor="middle" x="844" y="-189" font-family="Helvetica,sans-Serif" font-size="10.00">o2::ITS::CA::Vertexer</text>
<polyline fill="none" stroke="black" points="788,-182 900,-182 "/>
<text text-anchor="middle" x="844" y="-170" font-family="Helvetica,sans-Serif" font-size="10.00"> </text>
<polyline fill="none" stroke="black" points="788,-163 900,-163 "/>
<text text-anchor="start" x="796" y="-151" font-family="Helvetica,sans-Serif" font-size="10.00">+ Vertexer()</text>
<text text-anchor="start" x="796" y="-140" font-family="Helvetica,sans-Serif" font-size="10.00">+ ~Vertexer()</text>
<text text-anchor="start" x="796" y="-129" font-family="Helvetica,sans-Serif" font-size="10.00">+ Vertexer()</text>
<text text-anchor="start" x="796" y="-118" font-family="Helvetica,sans-Serif" font-size="10.00">+ operator=()</text>
<text text-anchor="start" x="796" y="-107" font-family="Helvetica,sans-Serif" font-size="10.00">+ initialise()</text>
<text text-anchor="start" x="796" y="-96" font-family="Helvetica,sans-Serif" font-size="10.00">+ initialise()</text>
<text text-anchor="start" x="796" y="-85" font-family="Helvetica,sans-Serif" font-size="10.00">+ findTracklets()</text>
<text text-anchor="start" x="796" y="-74" font-family="Helvetica,sans-Serif" font-size="10.00">+ findVertices()</text>
<text text-anchor="start" x="796" y="-63" font-family="Helvetica,sans-Serif" font-size="10.00">+ setROFrame()</text>
<text text-anchor="start" x="796" y="-52" font-family="Helvetica,sans-Serif" font-size="10.00">+ getROFrame()</text>
<text text-anchor="start" x="796" y="-41" font-family="Helvetica,sans-Serif" font-size="10.00">+ getTracklets()</text>
<text text-anchor="start" x="796" y="-30" font-family="Helvetica,sans-Serif" font-size="10.00">+ getClusters()</text>
<text text-anchor="start" x="796" y="-19" font-family="Helvetica,sans-Serif" font-size="10.00">+ getVertices()</text>
<text text-anchor="start" x="796" y="-8" font-family="Helvetica,sans-Serif" font-size="10.00">+ selectClusters()</text>
</g>
<!-- Node2 -->
<g id="node2" class="node"><title>Node2</title>
<polygon fill="none" stroke="#bfbfbf" points="-0.5,-387 -0.5,-455 120.5,-455 120.5,-387 -0.5,-387"/>
<text text-anchor="start" x="7.5" y="-443" font-family="Helvetica,sans-Serif" font-size="10.00">vector&lt; o2::dataformats</text>
<text text-anchor="middle" x="60" y="-432" font-family="Helvetica,sans-Serif" font-size="10.00">::Vertex &gt;</text>
<polyline fill="none" stroke="#bfbfbf" points="-0.5,-425 120.5,-425 "/>
<text text-anchor="middle" x="60" y="-413" font-family="Helvetica,sans-Serif" font-size="10.00"> </text>
<polyline fill="none" stroke="#bfbfbf" points="-0.5,-406 120.5,-406 "/>
<text text-anchor="middle" x="60" y="-394" font-family="Helvetica,sans-Serif" font-size="10.00"> </text>
</g>
<!-- Node2&#45;&gt;Node1 -->
<g id="edge1" class="edge"><title>Node2&#45;&gt;Node1</title>
<path fill="none" stroke="#404040" d="M73.3885,-386.963C93.6268,-341.525 136.51,-260.753 200,-220 294.981,-159.034 630.135,-121.647 775.687,-107.944"/>
<polygon fill="none" stroke="#404040" points="775.971,-107.917 781.575,-103.379 787.92,-106.806 782.316,-111.344 775.971,-107.917"/>
<text text-anchor="middle" x="226.5" y="-261.5" font-family="Helvetica,sans-Serif" font-size="10.00"> #mVertices</text>
</g>
<!-- Node3 -->
<g id="node3" class="node"><title>Node3</title>
<polygon fill="none" stroke="#bfbfbf" points="138,-376 138,-466 306,-466 306,-376 138,-376"/>
<text text-anchor="start" x="146" y="-454" font-family="Helvetica,sans-Serif" font-size="10.00">array&lt; std::vector</text>
<text text-anchor="start" x="146" y="-443" font-family="Helvetica,sans-Serif" font-size="10.00">&lt; o2::ITS::CA::Cluster</text>
<text text-anchor="start" x="146" y="-432" font-family="Helvetica,sans-Serif" font-size="10.00"> &gt;, Constants::ITS::LayersNumber</text>
<text text-anchor="middle" x="222" y="-421" font-family="Helvetica,sans-Serif" font-size="10.00">Vertexer &gt;</text>
<polyline fill="none" stroke="#bfbfbf" points="138,-414 306,-414 "/>
<text text-anchor="middle" x="222" y="-402" font-family="Helvetica,sans-Serif" font-size="10.00"> </text>
<polyline fill="none" stroke="#bfbfbf" points="138,-395 306,-395 "/>
<text text-anchor="middle" x="222" y="-383" font-family="Helvetica,sans-Serif" font-size="10.00"> </text>
</g>
<!-- Node3&#45;&gt;Node1 -->
<g id="edge2" class="edge"><title>Node3&#45;&gt;Node1</title>
<path fill="none" stroke="#404040" d="M231.472,-375.884C243.698,-329.901 269.55,-259.189 319,-220 389.413,-164.197 650.391,-125.635 775.824,-109.908"/>
<polygon fill="none" stroke="#404040" points="775.982,-109.889 781.445,-105.182 787.891,-108.413 782.429,-113.121 775.982,-109.889"/>
<text text-anchor="middle" x="346.5" y="-261.5" font-family="Helvetica,sans-Serif" font-size="10.00"> +mClusters</text>
</g>
<!-- Node4 -->
<g id="node4" class="node"><title>Node4</title>
<polygon fill="none" stroke="#bfbfbf" points="323.5,-392.5 323.5,-449.5 374.5,-449.5 374.5,-392.5 323.5,-392.5"/>
<text text-anchor="middle" x="349" y="-437.5" font-family="Helvetica,sans-Serif" font-size="10.00">uint32_t</text>
<polyline fill="none" stroke="#bfbfbf" points="323.5,-430.5 374.5,-430.5 "/>
<text text-anchor="middle" x="349" y="-418.5" font-family="Helvetica,sans-Serif" font-size="10.00"> </text>
<polyline fill="none" stroke="#bfbfbf" points="323.5,-411.5 374.5,-411.5 "/>
<text text-anchor="middle" x="349" y="-399.5" font-family="Helvetica,sans-Serif" font-size="10.00"> </text>
</g>
<!-- Node4&#45;&gt;Node1 -->
<g id="edge3" class="edge"><title>Node4&#45;&gt;Node1</title>
<path fill="none" stroke="#404040" d="M353.045,-392.42C360.917,-348.967 382.483,-264.906 436,-220 534.455,-137.387 687.981,-112.568 775.944,-105.141"/>
<polygon fill="none" stroke="#404040" points="775.945,-105.141 781.614,-100.685 787.908,-104.205 782.239,-108.661 775.945,-105.141"/>
<text text-anchor="middle" x="466" y="-261.5" font-family="Helvetica,sans-Serif" font-size="10.00"> #mROFrame</text>
</g>
<!-- Node5 -->
<g id="node5" class="node"><title>Node5</title>
<polygon fill="none" stroke="#bfbfbf" points="393,-370.5 393,-471.5 547,-471.5 547,-370.5 393,-370.5"/>
<text text-anchor="start" x="401" y="-459.5" font-family="Helvetica,sans-Serif" font-size="10.00">array&lt; std::array&lt;</text>
<text text-anchor="start" x="401" y="-448.5" font-family="Helvetica,sans-Serif" font-size="10.00"> int, Constants::IndexTable</text>
<text text-anchor="start" x="401" y="-437.5" font-family="Helvetica,sans-Serif" font-size="10.00">::ZBins *Constants::IndexTable</text>
<text text-anchor="start" x="401" y="-426.5" font-family="Helvetica,sans-Serif" font-size="10.00">::PhiBins+1 &gt;, Constants::ITS</text>
<text text-anchor="middle" x="470" y="-415.5" font-family="Helvetica,sans-Serif" font-size="10.00">::LayersNumberVertexer &gt;</text>
<polyline fill="none" stroke="#bfbfbf" points="393,-408.5 547,-408.5 "/>
<text text-anchor="middle" x="470" y="-396.5" font-family="Helvetica,sans-Serif" font-size="10.00"> </text>
<polyline fill="none" stroke="#bfbfbf" points="393,-389.5 547,-389.5 "/>
<text text-anchor="middle" x="470" y="-377.5" font-family="Helvetica,sans-Serif" font-size="10.00"> </text>
</g>
<!-- Node5&#45;&gt;Node1 -->
<g id="edge4" class="edge"><title>Node5&#45;&gt;Node1</title>
<path fill="none" stroke="#404040" d="M478.965,-370.329C489.403,-325.691 510.766,-261.026 552,-220 613.484,-158.826 710.886,-128.157 776.087,-113.677"/>
<polygon fill="none" stroke="#404040" points="776.136,-113.667 781.167,-108.501 787.87,-111.158 782.839,-116.324 776.136,-113.667"/>
<text text-anchor="middle" x="587" y="-261.5" font-family="Helvetica,sans-Serif" font-size="10.00"> #mIndexTables</text>
</g>
<!-- Node6 -->
<g id="node6" class="node"><title>Node6</title>
<polygon fill="none" stroke="#bfbfbf" points="565.5,-387 565.5,-455 682.5,-455 682.5,-387 565.5,-387"/>
<text text-anchor="start" x="573.5" y="-443" font-family="Helvetica,sans-Serif" font-size="10.00">array&lt; float, Constants</text>
<text text-anchor="middle" x="624" y="-432" font-family="Helvetica,sans-Serif" font-size="10.00">::ITS::LayersNumber &gt;</text>
<polyline fill="none" stroke="#bfbfbf" points="565.5,-425 682.5,-425 "/>
<text text-anchor="middle" x="624" y="-413" font-family="Helvetica,sans-Serif" font-size="10.00"> </text>
<polyline fill="none" stroke="#bfbfbf" points="565.5,-406 682.5,-406 "/>
<text text-anchor="middle" x="624" y="-394" font-family="Helvetica,sans-Serif" font-size="10.00"> </text>
</g>
<!-- Node6&#45;&gt;Node1 -->
<g id="edge5" class="edge"><title>Node6&#45;&gt;Node1</title>
<path fill="none" stroke="#404040" d="M621.34,-386.928C619.605,-344.66 622.338,-270.882 656,-220 684.631,-176.724 735.156,-146.327 776.622,-127.233"/>
<polygon fill="none" stroke="#404040" points="776.813,-127.148 780.666,-121.053 787.775,-122.265 783.922,-128.361 776.813,-127.148"/>
<text text-anchor="middle" x="683.5" y="-261.5" font-family="Helvetica,sans-Serif" font-size="10.00"> #mITSRadii</text>
</g>
<!-- Node7 -->
<g id="node7" class="node"><title>Node7</title>
<g id="a_node7"><a xlink:href="../../d4/dc3/classfloat.html" target="_top" xlink:title="{float\n||}">
<polygon fill="none" stroke="black" points="700.5,-392.5 700.5,-449.5 735.5,-449.5 735.5,-392.5 700.5,-392.5"/>
<text text-anchor="middle" x="718" y="-437.5" font-family="Helvetica,sans-Serif" font-size="10.00">float</text>
<polyline fill="none" stroke="black" points="700.5,-430.5 735.5,-430.5 "/>
<text text-anchor="middle" x="718" y="-418.5" font-family="Helvetica,sans-Serif" font-size="10.00"> </text>
<polyline fill="none" stroke="black" points="700.5,-411.5 735.5,-411.5 "/>
<text text-anchor="middle" x="718" y="-399.5" font-family="Helvetica,sans-Serif" font-size="10.00"> </text>
</a>
</g>
</g>
<!-- Node7&#45;&gt;Node1 -->
<g id="edge6" class="edge"><title>Node7&#45;&gt;Node1</title>
<path fill="none" stroke="#404040" d="M714.886,-392.428C711.559,-352.535 709.764,-277.234 735,-220 745.25,-196.754 762.006,-175.111 779.341,-156.873"/>
<polygon fill="none" stroke="#404040" points="779.457,-156.756 780.813,-149.673 787.872,-148.201 786.516,-155.284 779.457,-156.756"/>
<text text-anchor="middle" x="786.5" y="-300" font-family="Helvetica,sans-Serif" font-size="10.00"> #mZBinSize</text>
<text text-anchor="middle" x="786.5" y="-289" font-family="Helvetica,sans-Serif" font-size="10.00">#mPairCut</text>
<text text-anchor="middle" x="786.5" y="-278" font-family="Helvetica,sans-Serif" font-size="10.00">#mMaxDirectorCosine3</text>
<text text-anchor="middle" x="786.5" y="-267" font-family="Helvetica,sans-Serif" font-size="10.00">#mPhiCut</text>
<text text-anchor="middle" x="786.5" y="-256" font-family="Helvetica,sans-Serif" font-size="10.00">#mDeltaRadii21</text>
<text text-anchor="middle" x="786.5" y="-245" font-family="Helvetica,sans-Serif" font-size="10.00">#mDeltaRadii10</text>
<text text-anchor="middle" x="786.5" y="-234" font-family="Helvetica,sans-Serif" font-size="10.00">#mClusterCut</text>
<text text-anchor="middle" x="786.5" y="-223" font-family="Helvetica,sans-Serif" font-size="10.00">#mZCut</text>
</g>
<!-- Node8 -->
<g id="node8" class="node"><title>Node8</title>
<g id="a_node8"><a xlink:href="../../d3/dc2/classo2_1_1ITS_1_1CA_1_1Event.html" target="_top" xlink:title="{o2::ITS::CA::Event\n||+ Event()\l+ getEventId()\l+ getPrimaryVertex()\l+ getLayer()\l+ getPrimaryVerticesNum()\l+ addPrimaryVertex()\l+ addPrimaryReconstructedVertex()\l+ printPrimaryVertices()\l+ getTotalClusters()\l+ addClusterToLayer()\l+ addTrackingFrameInfoToLayer()\l+ addClusterLabelToLayer()\l+ clear()\l}">
<polygon fill="none" stroke="black" points="753.5,-326.5 753.5,-515.5 926.5,-515.5 926.5,-326.5 753.5,-326.5"/>
<text text-anchor="middle" x="840" y="-503.5" font-family="Helvetica,sans-Serif" font-size="10.00">o2::ITS::CA::Event</text>
<polyline fill="none" stroke="black" points="753.5,-496.5 926.5,-496.5 "/>
<text text-anchor="middle" x="840" y="-484.5" font-family="Helvetica,sans-Serif" font-size="10.00"> </text>
<polyline fill="none" stroke="black" points="753.5,-477.5 926.5,-477.5 "/>
<text text-anchor="start" x="761.5" y="-465.5" font-family="Helvetica,sans-Serif" font-size="10.00">+ Event()</text>
<text text-anchor="start" x="761.5" y="-454.5" font-family="Helvetica,sans-Serif" font-size="10.00">+ getEventId()</text>
<text text-anchor="start" x="761.5" y="-443.5" font-family="Helvetica,sans-Serif" font-size="10.00">+ getPrimaryVertex()</text>
<text text-anchor="start" x="761.5" y="-432.5" font-family="Helvetica,sans-Serif" font-size="10.00">+ getLayer()</text>
<text text-anchor="start" x="761.5" y="-421.5" font-family="Helvetica,sans-Serif" font-size="10.00">+ getPrimaryVerticesNum()</text>
<text text-anchor="start" x="761.5" y="-410.5" font-family="Helvetica,sans-Serif" font-size="10.00">+ addPrimaryVertex()</text>
<text text-anchor="start" x="761.5" y="-399.5" font-family="Helvetica,sans-Serif" font-size="10.00">+ addPrimaryReconstructedVertex()</text>
<text text-anchor="start" x="761.5" y="-388.5" font-family="Helvetica,sans-Serif" font-size="10.00">+ printPrimaryVertices()</text>
<text text-anchor="start" x="761.5" y="-377.5" font-family="Helvetica,sans-Serif" font-size="10.00">+ getTotalClusters()</text>
<text text-anchor="start" x="761.5" y="-366.5" font-family="Helvetica,sans-Serif" font-size="10.00">+ addClusterToLayer()</text>
<text text-anchor="start" x="761.5" y="-355.5" font-family="Helvetica,sans-Serif" font-size="10.00">+ addTrackingFrameInfoToLayer()</text>
<text text-anchor="start" x="761.5" y="-344.5" font-family="Helvetica,sans-Serif" font-size="10.00">+ addClusterLabelToLayer()</text>
<text text-anchor="start" x="761.5" y="-333.5" font-family="Helvetica,sans-Serif" font-size="10.00">+ clear()</text>
</a>
</g>
</g>
<!-- Node8&#45;&gt;Node1 -->
<g id="edge7" class="edge"><title>Node8&#45;&gt;Node1</title>
<path fill="none" stroke="#404040" d="M841.178,-326.309C841.624,-290.92 842.135,-250.307 842.598,-213.448"/>
<polygon fill="none" stroke="#404040" points="842.602,-213.104 838.678,-207.054 842.753,-201.105 846.678,-207.155 842.602,-213.104"/>
<text text-anchor="middle" x="864.5" y="-261.5" font-family="Helvetica,sans-Serif" font-size="10.00"> #mEvent</text>
</g>
<!-- Node9 -->
<g id="node9" class="node"><title>Node9</title>
<polygon fill="none" stroke="#bfbfbf" points="944.5,-392.5 944.5,-449.5 973.5,-449.5 973.5,-392.5 944.5,-392.5"/>
<text text-anchor="middle" x="959" y="-437.5" font-family="Helvetica,sans-Serif" font-size="10.00">int</text>
<polyline fill="none" stroke="#bfbfbf" points="944.5,-430.5 973.5,-430.5 "/>
<text text-anchor="middle" x="959" y="-418.5" font-family="Helvetica,sans-Serif" font-size="10.00"> </text>
<polyline fill="none" stroke="#bfbfbf" points="944.5,-411.5 973.5,-411.5 "/>
<text text-anchor="middle" x="959" y="-399.5" font-family="Helvetica,sans-Serif" font-size="10.00"> </text>
</g>
<!-- Node9&#45;&gt;Node1 -->
<g id="edge8" class="edge"><title>Node9&#45;&gt;Node1</title>
<path fill="none" stroke="#404040" d="M955.87,-392.211C952.753,-372.682 946.669,-346.49 935,-326 929.401,-316.169 922.832,-317.695 917,-308 895.912,-272.943 903.439,-258.64 890,-220 889.168,-217.607 888.317,-215.19 887.452,-212.757"/>
<polygon fill="none" stroke="#404040" points="887.38,-212.559 881.58,-208.275 883.304,-201.273 889.105,-205.558 887.38,-212.559"/>
<text text-anchor="middle" x="966.5" y="-278" font-family="Helvetica,sans-Serif" font-size="10.00"> #mPhiSpan</text>
<text text-anchor="start" x="917" y="-267" font-family="Helvetica,sans-Serif" font-size="10.00">#mClusterContributors</text>
<text text-anchor="middle" x="966.5" y="-256" font-family="Helvetica,sans-Serif" font-size="10.00">Cut</text>
<text text-anchor="middle" x="966.5" y="-245" font-family="Helvetica,sans-Serif" font-size="10.00">#mZSpan</text>
</g>
<!-- Node10 -->
<g id="node10" class="node"><title>Node10</title>
<polygon fill="none" stroke="#bfbfbf" points="991.5,-387 991.5,-455 1096.5,-455 1096.5,-387 991.5,-387"/>
<text text-anchor="start" x="999.5" y="-443" font-family="Helvetica,sans-Serif" font-size="10.00">vector&lt; o2::ITS::CA</text>
<text text-anchor="middle" x="1044" y="-432" font-family="Helvetica,sans-Serif" font-size="10.00">::Line &gt;</text>
<polyline fill="none" stroke="#bfbfbf" points="991.5,-425 1096.5,-425 "/>
<text text-anchor="middle" x="1044" y="-413" font-family="Helvetica,sans-Serif" font-size="10.00"> </text>
<polyline fill="none" stroke="#bfbfbf" points="991.5,-406 1096.5,-406 "/>
<text text-anchor="middle" x="1044" y="-394" font-family="Helvetica,sans-Serif" font-size="10.00"> </text>
</g>
<!-- Node10&#45;&gt;Node1 -->
<g id="edge9" class="edge"><title>Node10&#45;&gt;Node1</title>
<path fill="none" stroke="#404040" d="M1042.57,-386.735C1039.9,-337.263 1032.84,-247.203 1016,-220 991.453,-180.346 948.073,-150.725 911.022,-131.08"/>
<polygon fill="none" stroke="#404040" points="910.934,-131.034 903.769,-131.852 900.259,-125.553 907.424,-124.736 910.934,-131.034"/>
<text text-anchor="middle" x="1066" y="-261.5" font-family="Helvetica,sans-Serif" font-size="10.00"> #mTracklets</text>
</g>
<!-- Node11 -->
<g id="node11" class="node"><title>Node11</title>
<polygon fill="none" stroke="#bfbfbf" points="1114.5,-392.5 1114.5,-449.5 1149.5,-449.5 1149.5,-392.5 1114.5,-392.5"/>
<text text-anchor="middle" x="1132" y="-437.5" font-family="Helvetica,sans-Serif" font-size="10.00">bool</text>
<polyline fill="none" stroke="#bfbfbf" points="1114.5,-430.5 1149.5,-430.5 "/>
<text text-anchor="middle" x="1132" y="-418.5" font-family="Helvetica,sans-Serif" font-size="10.00"> </text>
<polyline fill="none" stroke="#bfbfbf" points="1114.5,-411.5 1149.5,-411.5 "/>
<text text-anchor="middle" x="1132" y="-399.5" font-family="Helvetica,sans-Serif" font-size="10.00"> </text>
</g>
<!-- Node11&#45;&gt;Node1 -->
<g id="edge10" class="edge"><title>Node11&#45;&gt;Node1</title>
<path fill="none" stroke="#404040" d="M1128.61,-392.478C1122.06,-340.874 1107.37,-233.535 1097,-220 1051.84,-161.064 970.129,-130.409 911.784,-115.292"/>
<polygon fill="none" stroke="#404040" points="911.724,-115.277 904.936,-117.712 900.077,-112.384 906.865,-109.948 911.724,-115.277"/>
<text text-anchor="middle" x="1164.5" y="-267" font-family="Helvetica,sans-Serif" font-size="10.00"> #mVertexerInitialised</text>
<text text-anchor="middle" x="1164.5" y="-256" font-family="Helvetica,sans-Serif" font-size="10.00">#mTrackletsFound</text>
</g>
<!-- Node12 -->
<g id="node12" class="node"><title>Node12</title>
<polygon fill="none" stroke="#bfbfbf" points="1194,-392.5 1194,-449.5 1280,-449.5 1280,-392.5 1194,-392.5"/>
<text text-anchor="middle" x="1237" y="-437.5" font-family="Helvetica,sans-Serif" font-size="10.00">array&lt; float, 3 &gt;</text>
<polyline fill="none" stroke="#bfbfbf" points="1194,-430.5 1280,-430.5 "/>
<text text-anchor="middle" x="1237" y="-418.5" font-family="Helvetica,sans-Serif" font-size="10.00"> </text>
<polyline fill="none" stroke="#bfbfbf" points="1194,-411.5 1280,-411.5 "/>
<text text-anchor="middle" x="1237" y="-399.5" font-family="Helvetica,sans-Serif" font-size="10.00"> </text>
</g>
<!-- Node12&#45;&gt;Node1 -->
<g id="edge11" class="edge"><title>Node12&#45;&gt;Node1</title>
<path fill="none" stroke="#404040" d="M1237.56,-392.477C1237.97,-343.921 1236.08,-245.741 1215,-220 1140.92,-129.541 997.544,-107.454 912.356,-102.641"/>
<polygon fill="none" stroke="#404040" points="912.21,-102.634 906.023,-106.338 900.224,-102.051 906.412,-98.3473 912.21,-102.634"/>
<text text-anchor="middle" x="1291" y="-261.5" font-family="Helvetica,sans-Serif" font-size="10.00"> #mAverageClustersRadii</text>
</g>
<!-- Node13 -->
<g id="node13" class="node"><title>Node13</title>
<polygon fill="none" stroke="#bfbfbf" points="1319.5,-387 1319.5,-455 1424.5,-455 1424.5,-387 1319.5,-387"/>
<text text-anchor="start" x="1327.5" y="-443" font-family="Helvetica,sans-Serif" font-size="10.00">vector&lt; o2::ITS::CA</text>
<text text-anchor="middle" x="1372" y="-432" font-family="Helvetica,sans-Serif" font-size="10.00">::ClusterLines &gt;</text>
<polyline fill="none" stroke="#bfbfbf" points="1319.5,-425 1424.5,-425 "/>
<text text-anchor="middle" x="1372" y="-413" font-family="Helvetica,sans-Serif" font-size="10.00"> </text>
<polyline fill="none" stroke="#bfbfbf" points="1319.5,-406 1424.5,-406 "/>
<text text-anchor="middle" x="1372" y="-394" font-family="Helvetica,sans-Serif" font-size="10.00"> </text>
</g>
<!-- Node13&#45;&gt;Node1 -->
<g id="edge12" class="edge"><title>Node13&#45;&gt;Node1</title>
<path fill="none" stroke="#404040" d="M1372.82,-386.732C1373.35,-336.34 1371.27,-243.976 1350,-220 1292.5,-155.184 1036.37,-121.198 912.088,-108.27"/>
<polygon fill="none" stroke="#404040" points="912.061,-108.268 905.686,-111.637 900.123,-107.048 906.498,-103.679 912.061,-108.268"/>
<text text-anchor="middle" x="1415.5" y="-261.5" font-family="Helvetica,sans-Serif" font-size="10.00"> #mTrackletClusters</text>
</g>
<!-- Node14 -->
<g id="node14" class="node"><title>Node14</title>
<polygon fill="none" stroke="#bfbfbf" points="1444,-392.5 1444,-449.5 1524,-449.5 1524,-392.5 1444,-392.5"/>
<text text-anchor="middle" x="1484" y="-437.5" font-family="Helvetica,sans-Serif" font-size="10.00">vector&lt; bool &gt;</text>
<polyline fill="none" stroke="#bfbfbf" points="1444,-430.5 1524,-430.5 "/>
<text text-anchor="middle" x="1484" y="-418.5" font-family="Helvetica,sans-Serif" font-size="10.00"> </text>
<polyline fill="none" stroke="#bfbfbf" points="1444,-411.5 1524,-411.5 "/>
<text text-anchor="middle" x="1484" y="-399.5" font-family="Helvetica,sans-Serif" font-size="10.00"> </text>
</g>
<!-- Node14&#45;&gt;Node1 -->
<g id="edge13" class="edge"><title>Node14&#45;&gt;Node1</title>
<path fill="none" stroke="#404040" d="M1490.17,-392.292C1497.94,-349.427 1505.5,-267.082 1462,-220 1388.4,-140.336 1057.1,-113.26 912.203,-105.122"/>
<polygon fill="none" stroke="#404040" points="912.001,-105.112 905.793,-108.779 900.019,-104.458 906.228,-100.791 912.001,-105.112"/>
<text text-anchor="middle" x="1534.5" y="-261.5" font-family="Helvetica,sans-Serif" font-size="10.00"> #mUsedTracklets</text>
</g>
</g>
</svg>
