<?xml version="1.0" encoding="UTF-8" standalone="no"?>
<!DOCTYPE svg PUBLIC "-//W3C//DTD SVG 1.1//EN"
 "http://www.w3.org/Graphics/SVG/1.1/DTD/svg11.dtd">
<!-- Generated by graphviz version 2.36.0 (20140111.2315)
 -->
<!-- Title: o2::framework::DeviceMetricsInfo Pages: 1 -->
<!--zoomable 194 -->
<svg id="main" version="1.1" xmlns="http://www.w3.org/2000/svg" xmlns:xlink="http://www.w3.org/1999/xlink" xml:space="preserve" onload="init(evt)">
<style type="text/css"><![CDATA[
.edge:hover path { stroke: red; }
.edge:hover polygon { stroke: red; fill: red; }
]]></style>
<script type="text/javascript"><![CDATA[
var edges = document.getElementsByTagName('g');
if (edges && edges.length) {
  for (var i=0;i<edges.length;i++) {
    if (edges[i].id.substr(0,4)=='edge') {
      edges[i].setAttribute('class','edge');
    }
  }
}
]]></script>
        <defs>
                <circle id="rim" cx="0" cy="0" r="7"/>
                <circle id="rim2" cx="0" cy="0" r="3.5"/>
                <g id="zoomPlus">
                        <use xlink:href="#rim" fill="#404040">
                                <set attributeName="fill" to="#808080" begin="zoomplus.mouseover" end="zoomplus.mouseout"/>
                        </use>
                        <path d="M-4,0h8M0,-4v8" fill="none" stroke="white" stroke-width="1.5" pointer-events="none"/>
                </g>
                <g id="zoomMin">
                        <use xlink:href="#rim" fill="#404040">
                                <set attributeName="fill" to="#808080" begin="zoomminus.mouseover" end="zoomminus.mouseout"/>
                        </use>
                        <path d="M-4,0h8" fill="none" stroke="white" stroke-width="1.5" pointer-events="none"/>
                </g>
                <g id="dirArrow">
                        <path fill="none" stroke="white" stroke-width="1.5" d="M0,-3.0v7 M-2.5,-0.5L0,-3.0L2.5,-0.5"/>
                </g>
               <g id="resetDef">
                       <use xlink:href="#rim2" fill="#404040">
                               <set attributeName="fill" to="#808080" begin="reset.mouseover" end="reset.mouseout"/>
                       </use>
               </g>
        </defs>

<script type="text/javascript">
var viewWidth = 692;
var viewHeight = 194;
var sectionId = 'dynsection-0';
</script>
<script xlink:href="../../svgpan.js"/>
<svg id="graph" class="graph">
<g id="viewport">
<title>o2::framework::DeviceMetricsInfo</title>
<!-- Node1 -->
<g id="node1" class="node"><title>Node1</title>
<polygon fill="#bfbfbf" stroke="black" points="253,-0.5 253,-57.5 417,-57.5 417,-0.5 253,-0.5"/>
<text text-anchor="middle" x="335" y="-45.5" font-family="Helvetica,sans-Serif" font-size="10.00">o2::framework::DeviceMetricsInfo</text>
<polyline fill="none" stroke="black" points="253,-38.5 417,-38.5 "/>
<text text-anchor="middle" x="335" y="-26.5" font-family="Helvetica,sans-Serif" font-size="10.00"> </text>
<polyline fill="none" stroke="black" points="253,-19.5 417,-19.5 "/>
<text text-anchor="middle" x="335" y="-7.5" font-family="Helvetica,sans-Serif" font-size="10.00"> </text>
</g>
<!-- Node2 -->
<g id="node2" class="node"><title>Node2</title>
<polygon fill="none" stroke="#bfbfbf" points="-0.5,-117 -0.5,-185 96.5,-185 96.5,-117 -0.5,-117"/>
<text text-anchor="start" x="7.5" y="-173" font-family="Helvetica,sans-Serif" font-size="10.00">vector&lt; std::array</text>
<text text-anchor="middle" x="48" y="-162" font-family="Helvetica,sans-Serif" font-size="10.00">&lt; size_t, 1024 &gt; &gt;</text>
<polyline fill="none" stroke="#bfbfbf" points="-0.5,-155 96.5,-155 "/>
<text text-anchor="middle" x="48" y="-143" font-family="Helvetica,sans-Serif" font-size="10.00"> </text>
<polyline fill="none" stroke="#bfbfbf" points="-0.5,-136 96.5,-136 "/>
<text text-anchor="middle" x="48" y="-124" font-family="Helvetica,sans-Serif" font-size="10.00"> </text>
</g>
<!-- Node2&#45;&gt;Node1 -->
<g id="edge1" class="edge"><title>Node2&#45;&gt;Node1</title>
<path fill="none" stroke="#404040" d="M88.1859,-116.781C107.17,-102.485 130.735,-86.6465 154,-76 181.208,-63.5494 212.321,-54.0976 240.987,-47.1005"/>
<polygon fill="none" stroke="#404040" points="241,-47.0976 245.923,-41.8287 252.681,-44.3468 247.757,-49.6157 241,-47.0976"/>
<text text-anchor="middle" x="184.5" y="-84.5" font-family="Helvetica,sans-Serif" font-size="10.00"> +timestamps</text>
</g>
<!-- Node3 -->
<g id="node3" class="node"><title>Node3</title>
<polygon fill="none" stroke="#bfbfbf" points="115,-117 115,-185 209,-185 209,-117 115,-117"/>
<text text-anchor="start" x="123" y="-173" font-family="Helvetica,sans-Serif" font-size="10.00">vector&lt; std::array</text>
<text text-anchor="middle" x="162" y="-162" font-family="Helvetica,sans-Serif" font-size="10.00">&lt; int, 1024 &gt; &gt;</text>
<polyline fill="none" stroke="#bfbfbf" points="115,-155 209,-155 "/>
<text text-anchor="middle" x="162" y="-143" font-family="Helvetica,sans-Serif" font-size="10.00"> </text>
<polyline fill="none" stroke="#bfbfbf" points="115,-136 209,-136 "/>
<text text-anchor="middle" x="162" y="-124" font-family="Helvetica,sans-Serif" font-size="10.00"> </text>
</g>
<!-- Node3&#45;&gt;Node1 -->
<g id="edge2" class="edge"><title>Node3&#45;&gt;Node1</title>
<path fill="none" stroke="#404040" d="M195.098,-116.952C209.689,-103.346 227.477,-87.9961 245,-76 251.271,-71.7066 257.997,-67.5492 264.844,-63.6047"/>
<polygon fill="none" stroke="#404040" points="265.167,-63.425 268.466,-57.013 275.654,-57.5926 272.355,-64.0046 265.167,-63.425"/>
<text text-anchor="middle" x="271" y="-84.5" font-family="Helvetica,sans-Serif" font-size="10.00"> +intMetrics</text>
</g>
<!-- Node4 -->
<g id="node4" class="node"><title>Node4</title>
<polygon fill="none" stroke="#bfbfbf" points="227,-117 227,-185 321,-185 321,-117 227,-117"/>
<text text-anchor="start" x="235" y="-173" font-family="Helvetica,sans-Serif" font-size="10.00">vector&lt; std::array</text>
<text text-anchor="middle" x="274" y="-162" font-family="Helvetica,sans-Serif" font-size="10.00">&lt; float, 1024 &gt; &gt;</text>
<polyline fill="none" stroke="#bfbfbf" points="227,-155 321,-155 "/>
<text text-anchor="middle" x="274" y="-143" font-family="Helvetica,sans-Serif" font-size="10.00"> </text>
<polyline fill="none" stroke="#bfbfbf" points="227,-136 321,-136 "/>
<text text-anchor="middle" x="274" y="-124" font-family="Helvetica,sans-Serif" font-size="10.00"> </text>
</g>
<!-- Node4&#45;&gt;Node1 -->
<g id="edge3" class="edge"><title>Node4&#45;&gt;Node1</title>
<path fill="none" stroke="#404040" d="M290.83,-116.892C298.435,-101.931 307.47,-84.1575 315.381,-68.5951"/>
<polygon fill="none" stroke="#404040" points="315.468,-68.4231 314.621,-61.2619 320.906,-57.7259 321.753,-64.8871 315.468,-68.4231"/>
<text text-anchor="middle" x="340.5" y="-84.5" font-family="Helvetica,sans-Serif" font-size="10.00"> +floatMetrics</text>
</g>
<!-- Node5 -->
<g id="node5" class="node"><title>Node5</title>
<polygon fill="none" stroke="#bfbfbf" points="339.5,-117 339.5,-185 454.5,-185 454.5,-117 339.5,-117"/>
<text text-anchor="start" x="347.5" y="-173" font-family="Helvetica,sans-Serif" font-size="10.00">vector&lt; o2::framework</text>
<text text-anchor="middle" x="397" y="-162" font-family="Helvetica,sans-Serif" font-size="10.00">::MetricInfo &gt;</text>
<polyline fill="none" stroke="#bfbfbf" points="339.5,-155 454.5,-155 "/>
<text text-anchor="middle" x="397" y="-143" font-family="Helvetica,sans-Serif" font-size="10.00"> </text>
<polyline fill="none" stroke="#bfbfbf" points="339.5,-136 454.5,-136 "/>
<text text-anchor="middle" x="397" y="-124" font-family="Helvetica,sans-Serif" font-size="10.00"> </text>
</g>
<!-- Node5&#45;&gt;Node1 -->
<g id="edge4" class="edge"><title>Node5&#45;&gt;Node1</title>
<path fill="none" stroke="#404040" d="M390.335,-116.75C386.881,-103.559 381.905,-88.5693 375,-76 373.352,-72.9999 371.482,-70.0236 369.472,-67.113"/>
<polygon fill="none" stroke="#404040" points="369.462,-67.0999 362.652,-64.7293 362.22,-57.531 369.031,-59.9016 369.462,-67.0999"/>
<text text-anchor="middle" x="406" y="-84.5" font-family="Helvetica,sans-Serif" font-size="10.00"> +metrics</text>
</g>
<!-- Node6 -->
<g id="node6" class="node"><title>Node6</title>
<polygon fill="none" stroke="#bfbfbf" points="472.5,-117 472.5,-185 585.5,-185 585.5,-117 472.5,-117"/>
<text text-anchor="start" x="480.5" y="-173" font-family="Helvetica,sans-Serif" font-size="10.00">vector&lt; std::pair&lt;</text>
<text text-anchor="middle" x="529" y="-162" font-family="Helvetica,sans-Serif" font-size="10.00"> std::string, size_t &gt; &gt;</text>
<polyline fill="none" stroke="#bfbfbf" points="472.5,-155 585.5,-155 "/>
<text text-anchor="middle" x="529" y="-143" font-family="Helvetica,sans-Serif" font-size="10.00"> </text>
<polyline fill="none" stroke="#bfbfbf" points="472.5,-136 585.5,-136 "/>
<text text-anchor="middle" x="529" y="-124" font-family="Helvetica,sans-Serif" font-size="10.00"> </text>
</g>
<!-- Node6&#45;&gt;Node1 -->
<g id="edge5" class="edge"><title>Node6&#45;&gt;Node1</title>
<path fill="none" stroke="#404040" d="M488.805,-116.774C471.563,-103.292 450.85,-88.0829 431,-76 423.674,-71.5406 415.85,-67.1864 407.948,-63.0458"/>
<polygon fill="none" stroke="#404040" points="407.853,-62.9974 400.69,-63.8325 397.165,-57.542 404.327,-56.7069 407.853,-62.9974"/>
<text text-anchor="middle" x="501.5" y="-84.5" font-family="Helvetica,sans-Serif" font-size="10.00"> +metricLabelsIdx</text>
</g>
<!-- Node7 -->
<g id="node7" class="node"><title>Node7</title>
<polygon fill="none" stroke="#bfbfbf" points="604,-122.5 604,-179.5 684,-179.5 684,-122.5 604,-122.5"/>
<text text-anchor="middle" x="644" y="-167.5" font-family="Helvetica,sans-Serif" font-size="10.00">vector&lt; float &gt;</text>
<polyline fill="none" stroke="#bfbfbf" points="604,-160.5 684,-160.5 "/>
<text text-anchor="middle" x="644" y="-148.5" font-family="Helvetica,sans-Serif" font-size="10.00"> </text>
<polyline fill="none" stroke="#bfbfbf" points="604,-141.5 684,-141.5 "/>
<text text-anchor="middle" x="644" y="-129.5" font-family="Helvetica,sans-Serif" font-size="10.00"> </text>
</g>
<!-- Node7&#45;&gt;Node1 -->
<g id="edge6" class="edge"><title>Node7&#45;&gt;Node1</title>
<path fill="none" stroke="#404040" d="M614.098,-122.296C595.504,-106.499 570.371,-87.5976 545,-76 508.781,-59.4433 466.272,-48.697 429.008,-41.7938"/>
<polygon fill="none" stroke="#404040" points="428.925,-41.7791 422.319,-44.6707 417.109,-39.6851 423.715,-36.7935 428.925,-41.7791"/>
<text text-anchor="middle" x="593.5" y="-90" font-family="Helvetica,sans-Serif" font-size="10.00"> +min</text>
<text text-anchor="middle" x="593.5" y="-79" font-family="Helvetica,sans-Serif" font-size="10.00">+max</text>
</g>
</g>
</svg>
        <g id="navigator" transform="translate(0 0)" fill="#404254">
                <rect fill="#f2f5e9" fill-opacity="0.5" stroke="#606060" stroke-width=".5" x="0" y="0" width="60" height="60"/>
                <use id="zoomplus" xlink:href="#zoomPlus" x="17" y="9" onmousedown="handleZoom(evt,'in')"/>
                <use id="zoomminus" xlink:href="#zoomMin" x="42" y="9" onmousedown="handleZoom(evt,'out')"/>
                <use id="reset" xlink:href="#resetDef" x="30" y="36" onmousedown="handleReset()"/>
                <g id="arrowUp" xlink:href="#dirArrow" transform="translate(30 24)" onmousedown="handlePan(0,-1)">
                  <use xlink:href="#rim" fill="#404040">
                        <set attributeName="fill" to="#808080" begin="arrowUp.mouseover" end="arrowUp.mouseout"/>
                  </use>
                  <path fill="none" stroke="white" stroke-width="1.5" d="M0,-3.0v7 M-2.5,-0.5L0,-3.0L2.5,-0.5"/>
                </g>
                <g id="arrowRight" xlink:href="#dirArrow" transform="rotate(90) translate(36 -43)" onmousedown="handlePan(1,0)">
                  <use xlink:href="#rim" fill="#404040">
                        <set attributeName="fill" to="#808080" begin="arrowRight.mouseover" end="arrowRight.mouseout"/>
                  </use>
                  <path fill="none" stroke="white" stroke-width="1.5" d="M0,-3.0v7 M-2.5,-0.5L0,-3.0L2.5,-0.5"/>
                </g>
                <g id="arrowDown" xlink:href="#dirArrow" transform="rotate(180) translate(-30 -48)" onmousedown="handlePan(0,1)">
                  <use xlink:href="#rim" fill="#404040">
                        <set attributeName="fill" to="#808080" begin="arrowDown.mouseover" end="arrowDown.mouseout"/>
                  </use>
                  <path fill="none" stroke="white" stroke-width="1.5" d="M0,-3.0v7 M-2.5,-0.5L0,-3.0L2.5,-0.5"/>
                </g>
                <g id="arrowLeft" xlink:href="#dirArrow" transform="rotate(270) translate(-36 17)" onmousedown="handlePan(-1,0)">
                  <use xlink:href="#rim" fill="#404040">
                        <set attributeName="fill" to="#808080" begin="arrowLeft.mouseover" end="arrowLeft.mouseout"/>
                  </use>
                  <path fill="none" stroke="white" stroke-width="1.5" d="M0,-3.0v7 M-2.5,-0.5L0,-3.0L2.5,-0.5"/>
                </g>
        </g>
        <svg viewBox="0 0 15 15" width="100%" height="30px" preserveAspectRatio="xMaxYMin meet">
         <g id="arrow_out" transform="scale(0.3 0.3)">
          <a xlink:href="structo2_1_1framework_1_1DeviceMetricsInfo__coll__graph_org.svg" target="_base">
           <rect id="button" ry="5" rx="5" y="6" x="6" height="38" width="38"
                fill="#f2f5e9" fill-opacity="0.5" stroke="#606060" stroke-width="1.0"/>
           <path id="arrow"
             d="M 11.500037,31.436501 C 11.940474,20.09759 22.043105,11.32322 32.158766,21.979434 L 37.068811,17.246167 C 37.068811,17.246167 37.088388,32 37.088388,32 L 22.160133,31.978069 C 22.160133,31.978069 26.997745,27.140456 26.997745,27.140456 C 18.528582,18.264221 13.291696,25.230495 11.500037,31.436501 z"
             style="fill:#404040;"/>
          </a>
         </g>
        </svg>
</svg>
