<?xml version="1.0" encoding="UTF-8" standalone="no"?>
<!DOCTYPE svg PUBLIC "-//W3C//DTD SVG 1.1//EN"
 "http://www.w3.org/Graphics/SVG/1.1/DTD/svg11.dtd">
<!-- Generated by graphviz version 2.36.0 (20140111.2315)
 -->
<!-- Title: /home/travis/build/AliceO2Group/AliceO2/Detectors/ITSMFT/MFT/base/src/Geometry.cxx Pages: 1 -->
<svg width="809pt" height="342pt"
 viewBox="0.00 0.00 809.00 342.00" xmlns="http://www.w3.org/2000/svg" xmlns:xlink="http://www.w3.org/1999/xlink">
<g id="graph0" class="graph" transform="scale(1 1) rotate(0) translate(4 338)">
<title>/home/travis/build/AliceO2Group/AliceO2/Detectors/ITSMFT/MFT/base/src/Geometry.cxx</title>
<!-- Node1 -->
<g id="node1" class="node"><title>Node1</title>
<polygon fill="#bfbfbf" stroke="black" points="240.5,-281 240.5,-333 365.5,-333 365.5,-281 240.5,-281"/>
<text text-anchor="start" x="248.5" y="-321" font-family="Helvetica,sans-Serif" font-size="10.00">/home/travis/build</text>
<text text-anchor="start" x="248.5" y="-310" font-family="Helvetica,sans-Serif" font-size="10.00">/AliceO2Group/AliceO2</text>
<text text-anchor="start" x="248.5" y="-299" font-family="Helvetica,sans-Serif" font-size="10.00">/Detectors/ITSMFT/MFT</text>
<text text-anchor="middle" x="303" y="-288" font-family="Helvetica,sans-Serif" font-size="10.00">/base/src/Geometry.cxx</text>
</g>
<!-- Node2 -->
<g id="node2" class="node"><title>Node2</title>
<polygon fill="none" stroke="#bfbfbf" points="-0.5,-224.5 -0.5,-243.5 64.5,-243.5 64.5,-224.5 -0.5,-224.5"/>
<text text-anchor="middle" x="32" y="-231.5" font-family="Helvetica,sans-Serif" font-size="10.00">TSystem.h</text>
</g>
<!-- Node1&#45;&gt;Node2 -->
<g id="edge1" class="edge"><title>Node1&#45;&gt;Node2</title>
<path fill="none" stroke="midnightblue" d="M240.487,-289.622C189.586,-276.286 119.098,-257.819 74.5274,-246.142"/>
<polygon fill="midnightblue" stroke="midnightblue" points="75.1658,-242.691 64.6052,-243.542 73.3917,-249.463 75.1658,-242.691"/>
</g>
<!-- Node3 -->
<g id="node3" class="node"><title>Node3</title>
<polygon fill="none" stroke="#bfbfbf" points="82.5,-224.5 82.5,-243.5 153.5,-243.5 153.5,-224.5 82.5,-224.5"/>
<text text-anchor="middle" x="118" y="-231.5" font-family="Helvetica,sans-Serif" font-size="10.00">FairLogger.h</text>
</g>
<!-- Node1&#45;&gt;Node3 -->
<g id="edge2" class="edge"><title>Node1&#45;&gt;Node3</title>
<path fill="none" stroke="midnightblue" d="M240.367,-281.963C209.964,-270.294 174.739,-256.775 149.911,-247.247"/>
<polygon fill="midnightblue" stroke="midnightblue" points="150.871,-243.866 140.281,-243.551 148.363,-250.402 150.871,-243.866"/>
</g>
<!-- Node4 -->
<g id="node4" class="node"><title>Node4</title>
<g id="a_node4"><a xlink:href="../../d6/d2e/ITSMFT_2MFT_2base_2include_2MFTBase_2Geometry_8h.html" target="_top" xlink:title="MFTBase/Geometry.h">
<polygon fill="none" stroke="black" points="167.5,-56.5 167.5,-75.5 280.5,-75.5 280.5,-56.5 167.5,-56.5"/>
<text text-anchor="middle" x="224" y="-63.5" font-family="Helvetica,sans-Serif" font-size="10.00">MFTBase/Geometry.h</text>
</a>
</g>
</g>
<!-- Node1&#45;&gt;Node4 -->
<g id="edge3" class="edge"><title>Node1&#45;&gt;Node4</title>
<path fill="none" stroke="midnightblue" d="M286.177,-280.945C271.517,-257.834 250.942,-222.049 240,-188 228.802,-153.153 225.431,-110.243 224.423,-86.0158"/>
<polygon fill="midnightblue" stroke="midnightblue" points="227.912,-85.6233 224.094,-75.7405 220.916,-85.8474 227.912,-85.6233"/>
</g>
<!-- Node6 -->
<g id="node6" class="node"><title>Node6</title>
<g id="a_node6"><a xlink:href="../../d1/d81/GeometryBuilder_8h.html" target="_top" xlink:title="Class describing MFT Geometry Builder. ">
<polygon fill="none" stroke="black" points="48.5,-112.5 48.5,-131.5 191.5,-131.5 191.5,-112.5 48.5,-112.5"/>
<text text-anchor="middle" x="120" y="-119.5" font-family="Helvetica,sans-Serif" font-size="10.00">MFTBase/GeometryBuilder.h</text>
</a>
</g>
</g>
<!-- Node1&#45;&gt;Node6 -->
<g id="edge5" class="edge"><title>Node1&#45;&gt;Node6</title>
<path fill="none" stroke="midnightblue" d="M255.955,-280.945C239.163,-270.754 220.765,-258.056 206,-244 172.548,-212.154 143.786,-165.598 129.542,-140.533"/>
<polygon fill="midnightblue" stroke="midnightblue" points="132.585,-138.804 124.66,-131.773 126.47,-142.212 132.585,-138.804"/>
</g>
<!-- Node7 -->
<g id="node7" class="node"><title>Node7</title>
<g id="a_node7"><a xlink:href="../../dd/d83/ITSMFT_2MFT_2base_2include_2MFTBase_2Segmentation_8h.html" target="_top" xlink:title="MFTBase/Segmentation.h">
<polygon fill="none" stroke="black" points="248.5,-168.5 248.5,-187.5 379.5,-187.5 379.5,-168.5 248.5,-168.5"/>
<text text-anchor="middle" x="314" y="-175.5" font-family="Helvetica,sans-Serif" font-size="10.00">MFTBase/Segmentation.h</text>
</a>
</g>
</g>
<!-- Node1&#45;&gt;Node7 -->
<g id="edge7" class="edge"><title>Node1&#45;&gt;Node7</title>
<path fill="none" stroke="midnightblue" d="M305.173,-280.909C307.295,-256.409 310.476,-219.69 312.383,-197.664"/>
<polygon fill="midnightblue" stroke="midnightblue" points="315.877,-197.893 313.253,-187.628 308.903,-197.288 315.877,-197.893"/>
</g>
<!-- Node9 -->
<g id="node9" class="node"><title>Node9</title>
<g id="a_node9"><a xlink:href="../../d2/d77/HalfSegmentation_8h.html" target="_top" xlink:title="Segmentation class for each half of the ALICE Muon Forward Tracker. ">
<polygon fill="none" stroke="black" points="330.5,-224.5 330.5,-243.5 479.5,-243.5 479.5,-224.5 330.5,-224.5"/>
<text text-anchor="middle" x="405" y="-231.5" font-family="Helvetica,sans-Serif" font-size="10.00">MFTBase/HalfSegmentation.h</text>
</a>
</g>
</g>
<!-- Node1&#45;&gt;Node9 -->
<g id="edge10" class="edge"><title>Node1&#45;&gt;Node9</title>
<path fill="none" stroke="midnightblue" d="M338.961,-280.968C354.06,-270.458 371.091,-258.603 384.075,-249.565"/>
<polygon fill="midnightblue" stroke="midnightblue" points="386.136,-252.395 392.344,-243.81 382.137,-246.65 386.136,-252.395"/>
</g>
<!-- Node13 -->
<g id="node13" class="node"><title>Node13</title>
<g id="a_node13"><a xlink:href="../../dc/d53/HalfDiskSegmentation_8h.html" target="_top" xlink:title="Class for the description of the structure of a half&#45;disk. ">
<polygon fill="none" stroke="black" points="497.5,-224.5 497.5,-243.5 666.5,-243.5 666.5,-224.5 497.5,-224.5"/>
<text text-anchor="middle" x="582" y="-231.5" font-family="Helvetica,sans-Serif" font-size="10.00">MFTBase/HalfDiskSegmentation.h</text>
</a>
</g>
</g>
<!-- Node1&#45;&gt;Node13 -->
<g id="edge17" class="edge"><title>Node1&#45;&gt;Node13</title>
<path fill="none" stroke="midnightblue" d="M365.613,-290.066C418.3,-276.658 492.266,-257.836 538.638,-246.035"/>
<polygon fill="midnightblue" stroke="midnightblue" points="539.553,-249.414 548.381,-243.555 537.826,-242.63 539.553,-249.414"/>
</g>
<!-- Node14 -->
<g id="node14" class="node"><title>Node14</title>
<g id="a_node14"><a xlink:href="../../d9/de7/LadderSegmentation_8h.html" target="_top" xlink:title="Description of the virtual segmentation of a ladder. ">
<polygon fill="none" stroke="black" points="612,-168.5 612,-187.5 772,-187.5 772,-168.5 612,-168.5"/>
<text text-anchor="middle" x="692" y="-175.5" font-family="Helvetica,sans-Serif" font-size="10.00">MFTBase/LadderSegmentation.h</text>
</a>
</g>
</g>
<!-- Node1&#45;&gt;Node14 -->
<g id="edge25" class="edge"><title>Node1&#45;&gt;Node14</title>
<path fill="none" stroke="midnightblue" d="M365.704,-303.606C459.678,-298.722 630.762,-284.399 675,-244 687.766,-232.342 691.448,-212.394 692.286,-197.664"/>
<polygon fill="midnightblue" stroke="midnightblue" points="695.786,-197.705 692.475,-187.64 688.787,-197.572 695.786,-197.705"/>
</g>
<!-- Node15 -->
<g id="node15" class="node"><title>Node15</title>
<g id="a_node15"><a xlink:href="../../d3/dbd/ChipSegmentation_8h.html" target="_top" xlink:title="Chip (sensor) segmentation description. ">
<polygon fill="none" stroke="black" points="650.5,-112.5 650.5,-131.5 801.5,-131.5 801.5,-112.5 650.5,-112.5"/>
<text text-anchor="middle" x="726" y="-119.5" font-family="Helvetica,sans-Serif" font-size="10.00">MFTBase/ChipSegmentation.h</text>
</a>
</g>
</g>
<!-- Node1&#45;&gt;Node15 -->
<g id="edge26" class="edge"><title>Node1&#45;&gt;Node15</title>
<path fill="none" stroke="midnightblue" d="M365.844,-304.109C445.048,-299.935 584.222,-286.589 695,-244 737.574,-227.633 759.261,-228.097 781,-188 791.644,-168.367 770.571,-149.27 751.509,-136.913"/>
<polygon fill="midnightblue" stroke="midnightblue" points="753.099,-133.784 742.737,-131.574 749.46,-139.763 753.099,-133.784"/>
</g>
<!-- Node5 -->
<g id="node5" class="node"><title>Node5</title>
<polygon fill="none" stroke="#bfbfbf" points="283,-0.5 283,-19.5 345,-19.5 345,-0.5 283,-0.5"/>
<text text-anchor="middle" x="314" y="-7.5" font-family="Helvetica,sans-Serif" font-size="10.00">TNamed.h</text>
</g>
<!-- Node4&#45;&gt;Node5 -->
<g id="edge4" class="edge"><title>Node4&#45;&gt;Node5</title>
<path fill="none" stroke="midnightblue" d="M238.46,-56.324C252.5,-47.9002 274.048,-34.9709 290.543,-25.0741"/>
<polygon fill="midnightblue" stroke="midnightblue" points="292.802,-27.8007 299.576,-19.6545 289.2,-21.7983 292.802,-27.8007"/>
</g>
<!-- Node6&#45;&gt;Node5 -->
<g id="edge6" class="edge"><title>Node6&#45;&gt;Node5</title>
<path fill="none" stroke="midnightblue" d="M122.666,-112.427C127.447,-98.4789 138.812,-70.9319 158,-56 191.264,-30.1142 238.893,-19.1154 272.756,-14.4442"/>
<polygon fill="midnightblue" stroke="midnightblue" points="273.304,-17.9029 282.792,-13.1881 272.435,-10.9571 273.304,-17.9029"/>
</g>
<!-- Node7&#45;&gt;Node5 -->
<g id="edge8" class="edge"><title>Node7&#45;&gt;Node5</title>
<path fill="none" stroke="midnightblue" d="M314,-168.075C314,-141.945 314,-65.2106 314,-29.577"/>
<polygon fill="midnightblue" stroke="midnightblue" points="317.5,-29.5681 314,-19.5681 310.5,-29.5681 317.5,-29.5681"/>
</g>
<!-- Node8 -->
<g id="node8" class="node"><title>Node8</title>
<polygon fill="none" stroke="#bfbfbf" points="406.5,-112.5 406.5,-131.5 491.5,-131.5 491.5,-112.5 406.5,-112.5"/>
<text text-anchor="middle" x="449" y="-119.5" font-family="Helvetica,sans-Serif" font-size="10.00">TClonesArray.h</text>
</g>
<!-- Node7&#45;&gt;Node8 -->
<g id="edge9" class="edge"><title>Node7&#45;&gt;Node8</title>
<path fill="none" stroke="midnightblue" d="M335.391,-168.444C357.707,-159.517 392.903,-145.439 418.208,-135.317"/>
<polygon fill="midnightblue" stroke="midnightblue" points="419.724,-138.48 427.709,-131.516 417.124,-131.981 419.724,-138.48"/>
</g>
<!-- Node9&#45;&gt;Node5 -->
<g id="edge11" class="edge"><title>Node9&#45;&gt;Node5</title>
<path fill="none" stroke="midnightblue" d="M403.289,-224.434C400.657,-211.853 395.163,-187.736 388,-168 369.049,-115.78 339.015,-57.3491 323.69,-28.7355"/>
<polygon fill="midnightblue" stroke="midnightblue" points="326.591,-26.7423 318.757,-19.6095 320.433,-30.0709 326.591,-26.7423"/>
</g>
<!-- Node9&#45;&gt;Node7 -->
<g id="edge13" class="edge"><title>Node9&#45;&gt;Node7</title>
<path fill="none" stroke="midnightblue" d="M390.379,-224.324C376.051,-215.822 353.987,-202.729 337.251,-192.797"/>
<polygon fill="midnightblue" stroke="midnightblue" points="338.97,-189.748 328.584,-187.655 335.398,-195.768 338.97,-189.748"/>
</g>
<!-- Node10 -->
<g id="node10" class="node"><title>Node10</title>
<polygon fill="none" stroke="#bfbfbf" points="474.5,-168.5 474.5,-187.5 555.5,-187.5 555.5,-168.5 474.5,-168.5"/>
<text text-anchor="middle" x="515" y="-175.5" font-family="Helvetica,sans-Serif" font-size="10.00">TXMLEngine.h</text>
</g>
<!-- Node9&#45;&gt;Node10 -->
<g id="edge12" class="edge"><title>Node9&#45;&gt;Node10</title>
<path fill="none" stroke="midnightblue" d="M422.673,-224.324C440.394,-215.625 467.903,-202.12 488.288,-192.113"/>
<polygon fill="midnightblue" stroke="midnightblue" points="489.936,-195.203 497.37,-187.655 486.851,-188.919 489.936,-195.203"/>
</g>
<!-- Node11 -->
<g id="node11" class="node"><title>Node11</title>
<g id="a_node11"><a xlink:href="../../d3/de7/VSegmentation_8h.html" target="_top" xlink:title="Abstract base class for MFT Segmentation description. ">
<polygon fill="none" stroke="black" points="515.5,-56.5 515.5,-75.5 652.5,-75.5 652.5,-56.5 515.5,-56.5"/>
<text text-anchor="middle" x="584" y="-63.5" font-family="Helvetica,sans-Serif" font-size="10.00">MFTBase/VSegmentation.h</text>
</a>
</g>
</g>
<!-- Node9&#45;&gt;Node11 -->
<g id="edge14" class="edge"><title>Node9&#45;&gt;Node11</title>
<path fill="none" stroke="midnightblue" d="M412.611,-224.303C423.883,-211.56 445.857,-187.242 466,-168 499.69,-135.817 541.655,-101.068 565.379,-81.8771"/>
<polygon fill="midnightblue" stroke="midnightblue" points="567.651,-84.5418 573.245,-75.5443 563.261,-79.0893 567.651,-84.5418"/>
</g>
<!-- Node11&#45;&gt;Node5 -->
<g id="edge15" class="edge"><title>Node11&#45;&gt;Node5</title>
<path fill="none" stroke="midnightblue" d="M541.218,-56.4435C490.163,-46.2327 405.403,-29.2806 355.102,-19.2204"/>
<polygon fill="midnightblue" stroke="midnightblue" points="355.711,-15.7729 345.219,-17.2437 354.338,-22.637 355.711,-15.7729"/>
</g>
<!-- Node12 -->
<g id="node12" class="node"><title>Node12</title>
<polygon fill="none" stroke="#bfbfbf" points="546,-0.5 546,-19.5 622,-19.5 622,-0.5 546,-0.5"/>
<text text-anchor="middle" x="584" y="-7.5" font-family="Helvetica,sans-Serif" font-size="10.00">TGeoMatrix.h</text>
</g>
<!-- Node11&#45;&gt;Node12 -->
<g id="edge16" class="edge"><title>Node11&#45;&gt;Node12</title>
<path fill="none" stroke="midnightblue" d="M584,-56.083C584,-49.0059 584,-38.8611 584,-29.9865"/>
<polygon fill="midnightblue" stroke="midnightblue" points="587.5,-29.751 584,-19.7511 580.5,-29.7511 587.5,-29.751"/>
</g>
<!-- Node13&#45;&gt;Node10 -->
<g id="edge18" class="edge"><title>Node13&#45;&gt;Node10</title>
<path fill="none" stroke="midnightblue" d="M571.235,-224.324C561.234,-216.263 546.113,-204.077 534.07,-194.369"/>
<polygon fill="midnightblue" stroke="midnightblue" points="535.943,-191.384 525.961,-187.834 531.55,-196.834 535.943,-191.384"/>
</g>
<!-- Node13&#45;&gt;Node11 -->
<g id="edge24" class="edge"><title>Node13&#45;&gt;Node11</title>
<path fill="none" stroke="midnightblue" d="M582.108,-224.075C582.422,-197.945 583.347,-121.211 583.776,-85.577"/>
<polygon fill="midnightblue" stroke="midnightblue" points="587.276,-85.6096 583.897,-75.5681 580.276,-85.5252 587.276,-85.6096"/>
</g>
<!-- Node13&#45;&gt;Node14 -->
<g id="edge19" class="edge"><title>Node13&#45;&gt;Node14</title>
<path fill="none" stroke="midnightblue" d="M599.673,-224.324C617.394,-215.625 644.903,-202.12 665.288,-192.113"/>
<polygon fill="midnightblue" stroke="midnightblue" points="666.936,-195.203 674.37,-187.655 663.851,-188.919 666.936,-195.203"/>
</g>
<!-- Node14&#45;&gt;Node8 -->
<g id="edge20" class="edge"><title>Node14&#45;&gt;Node8</title>
<path fill="none" stroke="midnightblue" d="M653.496,-168.444C611.194,-159.043 543.181,-143.929 497.327,-133.739"/>
<polygon fill="midnightblue" stroke="midnightblue" points="497.845,-130.269 487.324,-131.516 496.327,-137.102 497.845,-130.269"/>
</g>
<!-- Node14&#45;&gt;Node11 -->
<g id="edge21" class="edge"><title>Node14&#45;&gt;Node11</title>
<path fill="none" stroke="midnightblue" d="M681.742,-168.348C671.42,-159.509 655.184,-145.241 642,-132 626.243,-116.175 609.367,-96.9815 597.905,-83.5694"/>
<polygon fill="midnightblue" stroke="midnightblue" points="600.358,-81.0492 591.221,-75.6842 595.018,-85.5756 600.358,-81.0492"/>
</g>
<!-- Node14&#45;&gt;Node15 -->
<g id="edge22" class="edge"><title>Node14&#45;&gt;Node15</title>
<path fill="none" stroke="midnightblue" d="M697.614,-168.083C702.367,-160.534 709.318,-149.495 715.152,-140.23"/>
<polygon fill="midnightblue" stroke="midnightblue" points="718.124,-142.078 720.49,-131.751 712.2,-138.349 718.124,-142.078"/>
</g>
<!-- Node15&#45;&gt;Node11 -->
<g id="edge23" class="edge"><title>Node15&#45;&gt;Node11</title>
<path fill="none" stroke="midnightblue" d="M703.5,-112.444C679.923,-103.478 642.678,-89.314 616.036,-79.1827"/>
<polygon fill="midnightblue" stroke="midnightblue" points="616.986,-75.7995 606.395,-75.5164 614.498,-82.3424 616.986,-75.7995"/>
</g>
</g>
</svg>
