<?xml version="1.0" encoding="UTF-8" standalone="no"?>
<!DOCTYPE svg PUBLIC "-//W3C//DTD SVG 1.1//EN"
 "http://www.w3.org/Graphics/SVG/1.1/DTD/svg11.dtd">
<!-- Generated by graphviz version 2.36.0 (20140111.2315)
 -->
<!-- Title: o2::framework::has_root_dictionary&lt; T, typename std::enable_if&lt; is_container&lt; T &gt;::value &gt;::type &gt; Pages: 1 -->
<svg width="227pt" height="442pt"
 viewBox="0.00 0.00 227.00 442.00" xmlns="http://www.w3.org/2000/svg" xmlns:xlink="http://www.w3.org/1999/xlink">
<g id="graph0" class="graph" transform="scale(1 1) rotate(0) translate(4 438)">
<title>o2::framework::has_root_dictionary&lt; T, typename std::enable_if&lt; is_container&lt; T &gt;::value &gt;::type &gt;</title>
<!-- Node1 -->
<g id="node1" class="node"><title>Node1</title>
<polygon fill="#bfbfbf" stroke="black" points="21.5,-0.5 21.5,-101.5 134.5,-101.5 134.5,-0.5 21.5,-0.5"/>
<text text-anchor="start" x="29.5" y="-89.5" font-family="Helvetica,sans-Serif" font-size="10.00">o2::framework::has</text>
<text text-anchor="start" x="29.5" y="-78.5" font-family="Helvetica,sans-Serif" font-size="10.00">_root_dictionary&lt; T,</text>
<text text-anchor="start" x="29.5" y="-67.5" font-family="Helvetica,sans-Serif" font-size="10.00"> typename std::enable</text>
<text text-anchor="start" x="29.5" y="-56.5" font-family="Helvetica,sans-Serif" font-size="10.00">_if&lt; is_container&lt; T &gt;</text>
<text text-anchor="middle" x="78" y="-45.5" font-family="Helvetica,sans-Serif" font-size="10.00">::value &gt;::type &gt;</text>
<polyline fill="none" stroke="black" points="21.5,-38.5 134.5,-38.5 "/>
<text text-anchor="middle" x="78" y="-26.5" font-family="Helvetica,sans-Serif" font-size="10.00"> </text>
<polyline fill="none" stroke="black" points="21.5,-19.5 134.5,-19.5 "/>
<text text-anchor="middle" x="78" y="-7.5" font-family="Helvetica,sans-Serif" font-size="10.00"> </text>
</g>
<!-- Node2 -->
<g id="node2" class="node"><title>Node2</title>
<g id="a_node2"><a xlink:href="../../d3/de1/structo2_1_1framework_1_1has__root__dictionary.html" target="_top" xlink:title="{o2::framework::has\l_root_dictionary\&lt; T\l::value_type \&gt;\n||}">
<polygon fill="none" stroke="black" points="27.5,-140.5 27.5,-219.5 128.5,-219.5 128.5,-140.5 27.5,-140.5"/>
<text text-anchor="start" x="35.5" y="-207.5" font-family="Helvetica,sans-Serif" font-size="10.00">o2::framework::has</text>
<text text-anchor="start" x="35.5" y="-196.5" font-family="Helvetica,sans-Serif" font-size="10.00">_root_dictionary&lt; T</text>
<text text-anchor="middle" x="78" y="-185.5" font-family="Helvetica,sans-Serif" font-size="10.00">::value_type &gt;</text>
<polyline fill="none" stroke="black" points="27.5,-178.5 128.5,-178.5 "/>
<text text-anchor="middle" x="78" y="-166.5" font-family="Helvetica,sans-Serif" font-size="10.00"> </text>
<polyline fill="none" stroke="black" points="27.5,-159.5 128.5,-159.5 "/>
<text text-anchor="middle" x="78" y="-147.5" font-family="Helvetica,sans-Serif" font-size="10.00"> </text>
</a>
</g>
</g>
<!-- Node2&#45;&gt;Node1 -->
<g id="edge1" class="edge"><title>Node2&#45;&gt;Node1</title>
<path fill="none" stroke="midnightblue" d="M78,-129.999C78,-120.756 78,-111.08 78,-101.812"/>
<polygon fill="none" stroke="midnightblue" points="74.5001,-130.206 78,-140.206 81.5001,-130.206 74.5001,-130.206"/>
</g>
<!-- Node3 -->
<g id="node3" class="node"><title>Node3</title>
<polygon fill="none" stroke="#bfbfbf" points="-0.5,-274.5 -0.5,-331.5 80.5,-331.5 80.5,-274.5 -0.5,-274.5"/>
<text text-anchor="middle" x="40" y="-319.5" font-family="Helvetica,sans-Serif" font-size="10.00">std::false_type</text>
<polyline fill="none" stroke="#bfbfbf" points="-0.5,-312.5 80.5,-312.5 "/>
<text text-anchor="middle" x="40" y="-300.5" font-family="Helvetica,sans-Serif" font-size="10.00"> </text>
<polyline fill="none" stroke="#bfbfbf" points="-0.5,-293.5 80.5,-293.5 "/>
<text text-anchor="middle" x="40" y="-281.5" font-family="Helvetica,sans-Serif" font-size="10.00"> </text>
</g>
<!-- Node3&#45;&gt;Node2 -->
<g id="edge2" class="edge"><title>Node3&#45;&gt;Node2</title>
<path fill="none" stroke="midnightblue" d="M51.8402,-264.298C56.3014,-250.093 61.3796,-233.923 65.8672,-219.633"/>
<polygon fill="none" stroke="midnightblue" points="48.375,-263.651 48.718,-274.24 55.0535,-265.748 48.375,-263.651"/>
</g>
<!-- Node4 -->
<g id="node4" class="node"><title>Node4</title>
<g id="a_node4"><a xlink:href="../../d3/de1/structo2_1_1framework_1_1has__root__dictionary.html" target="_top" xlink:title="{o2::framework::has\l_root_dictionary\&lt; T, _ \&gt;\n||}">
<polygon fill="none" stroke="black" points="98.5,-269 98.5,-337 219.5,-337 219.5,-269 98.5,-269"/>
<text text-anchor="start" x="106.5" y="-325" font-family="Helvetica,sans-Serif" font-size="10.00">o2::framework::has</text>
<text text-anchor="middle" x="159" y="-314" font-family="Helvetica,sans-Serif" font-size="10.00">_root_dictionary&lt; T, _ &gt;</text>
<polyline fill="none" stroke="black" points="98.5,-307 219.5,-307 "/>
<text text-anchor="middle" x="159" y="-295" font-family="Helvetica,sans-Serif" font-size="10.00"> </text>
<polyline fill="none" stroke="black" points="98.5,-288 219.5,-288 "/>
<text text-anchor="middle" x="159" y="-276" font-family="Helvetica,sans-Serif" font-size="10.00"> </text>
</a>
</g>
</g>
<!-- Node4&#45;&gt;Node2 -->
<g id="edge3" class="edge"><title>Node4&#45;&gt;Node2</title>
<path fill="none" stroke="orange" d="M131.191,-260.458C122.325,-247.215 112.557,-232.623 103.838,-219.597"/>
<polygon fill="orange" stroke="orange" points="128.395,-262.573 136.866,-268.936 134.212,-258.679 128.395,-262.573"/>
<text text-anchor="middle" x="163.5" y="-241.5" font-family="Helvetica,sans-Serif" font-size="10.00"> &lt; T::value_type &gt;</text>
</g>
<!-- Node5 -->
<g id="node5" class="node"><title>Node5</title>
<polygon fill="none" stroke="#bfbfbf" points="128,-376.5 128,-433.5 190,-433.5 190,-376.5 128,-376.5"/>
<text text-anchor="middle" x="159" y="-421.5" font-family="Helvetica,sans-Serif" font-size="10.00">false_type</text>
<polyline fill="none" stroke="#bfbfbf" points="128,-414.5 190,-414.5 "/>
<text text-anchor="middle" x="159" y="-402.5" font-family="Helvetica,sans-Serif" font-size="10.00"> </text>
<polyline fill="none" stroke="#bfbfbf" points="128,-395.5 190,-395.5 "/>
<text text-anchor="middle" x="159" y="-383.5" font-family="Helvetica,sans-Serif" font-size="10.00"> </text>
</g>
<!-- Node5&#45;&gt;Node4 -->
<g id="edge4" class="edge"><title>Node5&#45;&gt;Node4</title>
<path fill="none" stroke="midnightblue" d="M159,-366.337C159,-356.755 159,-346.528 159,-337.187"/>
<polygon fill="none" stroke="midnightblue" points="155.5,-366.41 159,-376.41 162.5,-366.41 155.5,-366.41"/>
</g>
</g>
</svg>
