<?xml version="1.0" encoding="UTF-8" standalone="no"?>
<!DOCTYPE svg PUBLIC "-//W3C//DTD SVG 1.1//EN"
 "http://www.w3.org/Graphics/SVG/1.1/DTD/svg11.dtd">
<!-- Generated by graphviz version 2.36.0 (20140111.2315)
 -->
<!-- Title: /home/travis/build/AliceO2Group/AliceO2/Detectors/MUON/MID/Tracking/src/runMIDTracking.cxx Pages: 1 -->
<svg width="1363pt" height="434pt"
 viewBox="0.00 0.00 1363.00 434.00" xmlns="http://www.w3.org/2000/svg" xmlns:xlink="http://www.w3.org/1999/xlink">
<g id="graph0" class="graph" transform="scale(1 1) rotate(0) translate(4 430)">
<title>/home/travis/build/AliceO2Group/AliceO2/Detectors/MUON/MID/Tracking/src/runMIDTracking.cxx</title>
<!-- Node1 -->
<g id="node1" class="node"><title>Node1</title>
<polygon fill="#bfbfbf" stroke="black" points="459,-373 459,-425 617,-425 617,-373 459,-373"/>
<text text-anchor="start" x="467" y="-413" font-family="Helvetica,sans-Serif" font-size="10.00">/home/travis/build</text>
<text text-anchor="start" x="467" y="-402" font-family="Helvetica,sans-Serif" font-size="10.00">/AliceO2Group/AliceO2</text>
<text text-anchor="start" x="467" y="-391" font-family="Helvetica,sans-Serif" font-size="10.00">/Detectors/MUON/MID/Tracking</text>
<text text-anchor="middle" x="538" y="-380" font-family="Helvetica,sans-Serif" font-size="10.00">/src/runMIDTracking.cxx</text>
</g>
<!-- Node2 -->
<g id="node2" class="node"><title>Node2</title>
<polygon fill="none" stroke="#bfbfbf" points="431.5,-316.5 431.5,-335.5 532.5,-335.5 532.5,-316.5 431.5,-316.5"/>
<text text-anchor="middle" x="482" y="-323.5" font-family="Helvetica,sans-Serif" font-size="10.00">runFairMQDevice.h</text>
</g>
<!-- Node1&#45;&gt;Node2 -->
<g id="edge1" class="edge"><title>Node1&#45;&gt;Node2</title>
<path fill="none" stroke="midnightblue" d="M518.099,-372.768C510.539,-363.183 502.118,-352.506 495.311,-343.877"/>
<polygon fill="midnightblue" stroke="midnightblue" points="497.848,-341.441 488.907,-335.757 492.352,-345.776 497.848,-341.441"/>
</g>
<!-- Node3 -->
<g id="node3" class="node"><title>Node3</title>
<g id="a_node3"><a xlink:href="../../d8/da3/TrackerDevice_8h.html" target="_top" xlink:title="Track reconstruction device for MID. ">
<polygon fill="none" stroke="black" points="550.5,-316.5 550.5,-335.5 639.5,-335.5 639.5,-316.5 550.5,-316.5"/>
<text text-anchor="middle" x="595" y="-323.5" font-family="Helvetica,sans-Serif" font-size="10.00">TrackerDevice.h</text>
</a>
</g>
</g>
<!-- Node1&#45;&gt;Node3 -->
<g id="edge2" class="edge"><title>Node1&#45;&gt;Node3</title>
<path fill="none" stroke="midnightblue" d="M558.257,-372.768C566.032,-363.083 574.704,-352.281 581.669,-343.605"/>
<polygon fill="midnightblue" stroke="midnightblue" points="584.439,-345.746 587.97,-335.757 578.98,-341.364 584.439,-345.746"/>
</g>
<!-- Node4 -->
<g id="node4" class="node"><title>Node4</title>
<polygon fill="none" stroke="#bfbfbf" points="491,-260.5 491,-279.5 579,-279.5 579,-260.5 491,-260.5"/>
<text text-anchor="middle" x="535" y="-267.5" font-family="Helvetica,sans-Serif" font-size="10.00">FairMQDevice.h</text>
</g>
<!-- Node3&#45;&gt;Node4 -->
<g id="edge3" class="edge"><title>Node3&#45;&gt;Node4</title>
<path fill="none" stroke="midnightblue" d="M585.36,-316.324C576.49,-308.341 563.125,-296.313 552.392,-286.653"/>
<polygon fill="midnightblue" stroke="midnightblue" points="554.59,-283.922 544.815,-279.834 549.907,-289.125 554.59,-283.922"/>
</g>
<!-- Node5 -->
<g id="node5" class="node"><title>Node5</title>
<g id="a_node5"><a xlink:href="../../db/d8e/MUON_2MID_2Tracking_2include_2MIDTracking_2Tracker_8h.html" target="_top" xlink:title="MIDTracking/Tracker.h">
<polygon fill="none" stroke="black" points="597.5,-260.5 597.5,-279.5 714.5,-279.5 714.5,-260.5 597.5,-260.5"/>
<text text-anchor="middle" x="656" y="-267.5" font-family="Helvetica,sans-Serif" font-size="10.00">MIDTracking/Tracker.h</text>
</a>
</g>
</g>
<!-- Node3&#45;&gt;Node5 -->
<g id="edge4" class="edge"><title>Node3&#45;&gt;Node5</title>
<path fill="none" stroke="midnightblue" d="M604.801,-316.324C613.818,-308.341 627.406,-296.313 638.318,-286.653"/>
<polygon fill="midnightblue" stroke="midnightblue" points="640.853,-289.083 646.021,-279.834 636.213,-283.842 640.853,-289.083"/>
</g>
<!-- Node6 -->
<g id="node6" class="node"><title>Node6</title>
<polygon fill="none" stroke="#bfbfbf" points="354,-204.5 354,-223.5 398,-223.5 398,-204.5 354,-204.5"/>
<text text-anchor="middle" x="376" y="-211.5" font-family="Helvetica,sans-Serif" font-size="10.00">vector</text>
</g>
<!-- Node5&#45;&gt;Node6 -->
<g id="edge5" class="edge"><title>Node5&#45;&gt;Node6</title>
<path fill="none" stroke="midnightblue" d="M599.287,-260.471C550.87,-252.8 479.223,-240.531 408.281,-224.112"/>
<polygon fill="midnightblue" stroke="midnightblue" points="408.813,-220.642 398.278,-221.768 407.215,-227.457 408.813,-220.642"/>
</g>
<!-- Node7 -->
<g id="node7" class="node"><title>Node7</title>
<g id="a_node7"><a xlink:href="../../d6/d31/Cluster2D_8h.html" target="_top" xlink:title="Reconstructed cluster per RPC. ">
<polygon fill="none" stroke="black" points="416,-204.5 416,-223.5 564,-223.5 564,-204.5 416,-204.5"/>
<text text-anchor="middle" x="490" y="-211.5" font-family="Helvetica,sans-Serif" font-size="10.00">DataFormatsMID/Cluster2D.h</text>
</a>
</g>
</g>
<!-- Node5&#45;&gt;Node7 -->
<g id="edge6" class="edge"><title>Node5&#45;&gt;Node7</title>
<path fill="none" stroke="midnightblue" d="M629.697,-260.444C601.649,-251.32 557.056,-236.813 525.816,-226.651"/>
<polygon fill="midnightblue" stroke="midnightblue" points="526.772,-223.282 516.18,-223.516 524.607,-229.938 526.772,-223.282"/>
</g>
<!-- Node10 -->
<g id="node10" class="node"><title>Node10</title>
<g id="a_node10"><a xlink:href="../../d0/daa/Cluster3D_8h.html" target="_top" xlink:title="Reconstructed MID cluster (global coordinates) ">
<polygon fill="none" stroke="black" points="582,-204.5 582,-223.5 730,-223.5 730,-204.5 582,-204.5"/>
<text text-anchor="middle" x="656" y="-211.5" font-family="Helvetica,sans-Serif" font-size="10.00">DataFormatsMID/Cluster3D.h</text>
</a>
</g>
</g>
<!-- Node5&#45;&gt;Node10 -->
<g id="edge9" class="edge"><title>Node5&#45;&gt;Node10</title>
<path fill="none" stroke="midnightblue" d="M656,-260.083C656,-253.006 656,-242.861 656,-233.986"/>
<polygon fill="midnightblue" stroke="midnightblue" points="659.5,-233.751 656,-223.751 652.5,-233.751 659.5,-233.751"/>
</g>
<!-- Node23 -->
<g id="node23" class="node"><title>Node23</title>
<g id="a_node23"><a xlink:href="../../d4/d54/DataFormats_2Detectors_2MUON_2MID_2include_2DataFormatsMID_2Track_8h.html" target="_top" xlink:title="Reconstructed MID track. ">
<polygon fill="none" stroke="black" points="930,-204.5 930,-223.5 1058,-223.5 1058,-204.5 930,-204.5"/>
<text text-anchor="middle" x="994" y="-211.5" font-family="Helvetica,sans-Serif" font-size="10.00">DataFormatsMID/Track.h</text>
</a>
</g>
</g>
<!-- Node5&#45;&gt;Node23 -->
<g id="edge23" class="edge"><title>Node5&#45;&gt;Node23</title>
<path fill="none" stroke="midnightblue" d="M709.557,-260.444C769.633,-250.846 866.99,-235.292 930.758,-225.104"/>
<polygon fill="midnightblue" stroke="midnightblue" points="931.371,-228.55 940.693,-223.516 930.266,-221.638 931.371,-228.55"/>
</g>
<!-- Node28 -->
<g id="node28" class="node"><title>Node28</title>
<g id="a_node28"><a xlink:href="../../de/d0c/GeometryTransformer_8h.html" target="_top" xlink:title="Geometry transformer for MID. ">
<polygon fill="none" stroke="black" points="748,-204.5 748,-223.5 912,-223.5 912,-204.5 748,-204.5"/>
<text text-anchor="middle" x="830" y="-211.5" font-family="Helvetica,sans-Serif" font-size="10.00">MIDBase/GeometryTransformer.h</text>
</a>
</g>
</g>
<!-- Node5&#45;&gt;Node28 -->
<g id="edge29" class="edge"><title>Node5&#45;&gt;Node28</title>
<path fill="none" stroke="midnightblue" d="M683.571,-260.444C713.097,-251.28 760.118,-236.688 792.883,-226.519"/>
<polygon fill="midnightblue" stroke="midnightblue" points="794.045,-229.823 802.558,-223.516 791.97,-223.138 794.045,-229.823"/>
</g>
<!-- Node8 -->
<g id="node8" class="node"><title>Node8</title>
<polygon fill="none" stroke="#bfbfbf" points="442.5,-137 442.5,-167 537.5,-167 537.5,-137 442.5,-137"/>
<text text-anchor="start" x="450.5" y="-155" font-family="Helvetica,sans-Serif" font-size="10.00">boost/serialization</text>
<text text-anchor="middle" x="490" y="-144" font-family="Helvetica,sans-Serif" font-size="10.00">/access.hpp</text>
</g>
<!-- Node7&#45;&gt;Node8 -->
<g id="edge7" class="edge"><title>Node7&#45;&gt;Node8</title>
<path fill="none" stroke="midnightblue" d="M490,-204.403C490,-197.341 490,-186.975 490,-177.399"/>
<polygon fill="midnightblue" stroke="midnightblue" points="493.5,-177.141 490,-167.141 486.5,-177.141 493.5,-177.141"/>
</g>
<!-- Node9 -->
<g id="node9" class="node"><title>Node9</title>
<polygon fill="none" stroke="#bfbfbf" points="594,-142.5 594,-161.5 640,-161.5 640,-142.5 594,-142.5"/>
<text text-anchor="middle" x="617" y="-149.5" font-family="Helvetica,sans-Serif" font-size="10.00">cstdint</text>
</g>
<!-- Node7&#45;&gt;Node9 -->
<g id="edge8" class="edge"><title>Node7&#45;&gt;Node9</title>
<path fill="none" stroke="midnightblue" d="M508.196,-204.403C529.509,-194.334 565.031,-177.552 589.663,-165.915"/>
<polygon fill="midnightblue" stroke="midnightblue" points="591.291,-169.017 598.838,-161.581 588.301,-162.688 591.291,-169.017"/>
</g>
<!-- Node10&#45;&gt;Node9 -->
<g id="edge10" class="edge"><title>Node10&#45;&gt;Node9</title>
<path fill="none" stroke="midnightblue" d="M650.412,-204.403C644.62,-195.493 635.411,-181.325 628.126,-170.118"/>
<polygon fill="midnightblue" stroke="midnightblue" points="630.962,-168.058 622.577,-161.581 625.093,-171.873 630.962,-168.058"/>
</g>
<!-- Node11 -->
<g id="node11" class="node"><title>Node11</title>
<g id="a_node11"><a xlink:href="../../dd/d76/Cartesian3D_8h.html" target="_top" xlink:title="MathUtils/Cartesian3D.h">
<polygon fill="none" stroke="black" points="721.5,-142.5 721.5,-161.5 846.5,-161.5 846.5,-142.5 721.5,-142.5"/>
<text text-anchor="middle" x="784" y="-149.5" font-family="Helvetica,sans-Serif" font-size="10.00">MathUtils/Cartesian3D.h</text>
</a>
</g>
</g>
<!-- Node10&#45;&gt;Node11 -->
<g id="edge11" class="edge"><title>Node10&#45;&gt;Node11</title>
<path fill="none" stroke="midnightblue" d="M674.339,-204.403C695.821,-194.334 731.622,-177.552 756.448,-165.915"/>
<polygon fill="midnightblue" stroke="midnightblue" points="758.126,-168.994 765.695,-161.581 755.155,-162.656 758.126,-168.994"/>
</g>
<!-- Node12 -->
<g id="node12" class="node"><title>Node12</title>
<polygon fill="none" stroke="#bfbfbf" points="-0.5,-69 -0.5,-99 150.5,-99 150.5,-69 -0.5,-69"/>
<text text-anchor="start" x="7.5" y="-87" font-family="Helvetica,sans-Serif" font-size="10.00">Math/GenVector/Displacement</text>
<text text-anchor="middle" x="75" y="-76" font-family="Helvetica,sans-Serif" font-size="10.00">Vector3D.h</text>
</g>
<!-- Node11&#45;&gt;Node12 -->
<g id="edge12" class="edge"><title>Node11&#45;&gt;Node12</title>
<path fill="none" stroke="midnightblue" d="M721.203,-143.532C698.475,-140.959 672.599,-138.179 649,-136 435.286,-116.267 377.971,-126.644 161.058,-100.047"/>
<polygon fill="midnightblue" stroke="midnightblue" points="161.297,-96.5497 150.942,-98.794 160.436,-103.497 161.297,-96.5497"/>
</g>
<!-- Node13 -->
<g id="node13" class="node"><title>Node13</title>
<polygon fill="none" stroke="#bfbfbf" points="169,-74.5 169,-93.5 345,-93.5 345,-74.5 169,-74.5"/>
<text text-anchor="middle" x="257" y="-81.5" font-family="Helvetica,sans-Serif" font-size="10.00">Math/GenVector/PositionVector3D.h</text>
</g>
<!-- Node11&#45;&gt;Node13 -->
<g id="edge13" class="edge"><title>Node11&#45;&gt;Node13</title>
<path fill="none" stroke="midnightblue" d="M721.341,-143.877C619.543,-132.255 422.61,-109.553 353,-100 342.124,-98.5074 330.574,-96.8043 319.395,-95.0942"/>
<polygon fill="midnightblue" stroke="midnightblue" points="319.68,-91.5968 309.263,-93.5275 318.611,-98.5146 319.68,-91.5968"/>
</g>
<!-- Node14 -->
<g id="node14" class="node"><title>Node14</title>
<polygon fill="none" stroke="#bfbfbf" points="362.5,-74.5 362.5,-93.5 511.5,-93.5 511.5,-74.5 362.5,-74.5"/>
<text text-anchor="middle" x="437" y="-81.5" font-family="Helvetica,sans-Serif" font-size="10.00">Math/GenVector/Rotation3D.h</text>
</g>
<!-- Node11&#45;&gt;Node14 -->
<g id="edge14" class="edge"><title>Node11&#45;&gt;Node14</title>
<path fill="none" stroke="midnightblue" d="M738.992,-142.439C675.676,-130.396 560.419,-108.475 492.07,-95.4745"/>
<polygon fill="midnightblue" stroke="midnightblue" points="492.407,-91.9758 481.929,-93.5455 491.099,-98.8525 492.407,-91.9758"/>
</g>
<!-- Node15 -->
<g id="node15" class="node"><title>Node15</title>
<polygon fill="none" stroke="#bfbfbf" points="530,-74.5 530,-93.5 686,-93.5 686,-74.5 530,-74.5"/>
<text text-anchor="middle" x="608" y="-81.5" font-family="Helvetica,sans-Serif" font-size="10.00">Math/GenVector/Transform3D.h</text>
</g>
<!-- Node11&#45;&gt;Node15 -->
<g id="edge15" class="edge"><title>Node11&#45;&gt;Node15</title>
<path fill="none" stroke="midnightblue" d="M760.991,-142.372C730.206,-130.827 675.447,-110.293 640.472,-97.1772"/>
<polygon fill="midnightblue" stroke="midnightblue" points="641.328,-93.76 630.736,-93.5259 638.87,-100.314 641.328,-93.76"/>
</g>
<!-- Node16 -->
<g id="node16" class="node"><title>Node16</title>
<polygon fill="none" stroke="#bfbfbf" points="704,-74.5 704,-93.5 864,-93.5 864,-74.5 704,-74.5"/>
<text text-anchor="middle" x="784" y="-81.5" font-family="Helvetica,sans-Serif" font-size="10.00">Math/GenVector/Translation3D.h</text>
</g>
<!-- Node11&#45;&gt;Node16 -->
<g id="edge16" class="edge"><title>Node11&#45;&gt;Node16</title>
<path fill="none" stroke="midnightblue" d="M784,-142.372C784,-132.643 784,-116.528 784,-103.85"/>
<polygon fill="midnightblue" stroke="midnightblue" points="787.5,-103.841 784,-93.8411 780.5,-103.841 787.5,-103.841"/>
</g>
<!-- Node17 -->
<g id="node17" class="node"><title>Node17</title>
<polygon fill="none" stroke="#bfbfbf" points="882,-74.5 882,-93.5 938,-93.5 938,-74.5 882,-74.5"/>
<text text-anchor="middle" x="910" y="-81.5" font-family="Helvetica,sans-Serif" font-size="10.00">Rtypes.h</text>
</g>
<!-- Node11&#45;&gt;Node17 -->
<g id="edge17" class="edge"><title>Node11&#45;&gt;Node17</title>
<path fill="none" stroke="midnightblue" d="M800.472,-142.372C821.885,-131.156 859.499,-111.453 884.583,-98.3136"/>
<polygon fill="midnightblue" stroke="midnightblue" points="886.289,-101.371 893.524,-93.6305 883.041,-95.1702 886.289,-101.371"/>
</g>
<!-- Node18 -->
<g id="node18" class="node"><title>Node18</title>
<polygon fill="none" stroke="#bfbfbf" points="956,-74.5 956,-93.5 1032,-93.5 1032,-74.5 956,-74.5"/>
<text text-anchor="middle" x="994" y="-81.5" font-family="Helvetica,sans-Serif" font-size="10.00">TGeoMatrix.h</text>
</g>
<!-- Node11&#45;&gt;Node18 -->
<g id="edge18" class="edge"><title>Node11&#45;&gt;Node18</title>
<path fill="none" stroke="midnightblue" d="M811.454,-142.372C848.737,-130.654 915.493,-109.674 957.119,-96.5912"/>
<polygon fill="midnightblue" stroke="midnightblue" points="958.382,-99.8632 966.872,-93.5259 956.283,-93.1852 958.382,-99.8632"/>
</g>
<!-- Node19 -->
<g id="node19" class="node"><title>Node19</title>
<polygon fill="none" stroke="#bfbfbf" points="1050.5,-74.5 1050.5,-93.5 1095.5,-93.5 1095.5,-74.5 1050.5,-74.5"/>
<text text-anchor="middle" x="1073" y="-81.5" font-family="Helvetica,sans-Serif" font-size="10.00">iosfwd</text>
</g>
<!-- Node11&#45;&gt;Node19 -->
<g id="edge19" class="edge"><title>Node11&#45;&gt;Node19</title>
<path fill="none" stroke="midnightblue" d="M824.346,-142.497C834.66,-140.35 845.736,-138.068 856,-136 938.115,-119.458 961.364,-125.973 1041,-100 1043.13,-99.3044 1045.31,-98.5015 1047.47,-97.6362"/>
<polygon fill="midnightblue" stroke="midnightblue" points="1048.96,-100.807 1056.71,-93.5819 1046.14,-94.3976 1048.96,-100.807"/>
</g>
<!-- Node20 -->
<g id="node20" class="node"><title>Node20</title>
<g id="a_node20"><a xlink:href="../../d2/dd0/Cartesian2D_8h.html" target="_top" xlink:title="MathUtils/Cartesian2D.h">
<polygon fill="none" stroke="black" points="1113.5,-74.5 1113.5,-93.5 1238.5,-93.5 1238.5,-74.5 1113.5,-74.5"/>
<text text-anchor="middle" x="1176" y="-81.5" font-family="Helvetica,sans-Serif" font-size="10.00">MathUtils/Cartesian2D.h</text>
</a>
</g>
</g>
<!-- Node11&#45;&gt;Node20 -->
<g id="edge20" class="edge"><title>Node11&#45;&gt;Node20</title>
<path fill="none" stroke="midnightblue" d="M822.777,-142.467C833.513,-140.229 845.186,-137.909 856,-136 965.681,-116.633 994.319,-119.367 1104,-100 1111.52,-98.6724 1119.45,-97.1465 1127.2,-95.5876"/>
<polygon fill="midnightblue" stroke="midnightblue" points="1128.13,-98.9698 1137.22,-93.5329 1126.72,-92.1124 1128.13,-98.9698"/>
</g>
<!-- Node21 -->
<g id="node21" class="node"><title>Node21</title>
<polygon fill="none" stroke="#bfbfbf" points="1009.5,-1 1009.5,-31 1160.5,-31 1160.5,-1 1009.5,-1"/>
<text text-anchor="start" x="1017.5" y="-19" font-family="Helvetica,sans-Serif" font-size="10.00">Math/GenVector/Displacement</text>
<text text-anchor="middle" x="1085" y="-8" font-family="Helvetica,sans-Serif" font-size="10.00">Vector2D.h</text>
</g>
<!-- Node20&#45;&gt;Node21 -->
<g id="edge21" class="edge"><title>Node20&#45;&gt;Node21</title>
<path fill="none" stroke="midnightblue" d="M1164.1,-74.3717C1151.22,-65.0286 1130.22,-49.7966 1113.09,-37.375"/>
<polygon fill="midnightblue" stroke="midnightblue" points="1114.7,-34.2194 1104.55,-31.1815 1110.59,-39.8859 1114.7,-34.2194"/>
</g>
<!-- Node22 -->
<g id="node22" class="node"><title>Node22</title>
<polygon fill="none" stroke="#bfbfbf" points="1179,-6.5 1179,-25.5 1355,-25.5 1355,-6.5 1179,-6.5"/>
<text text-anchor="middle" x="1267" y="-13.5" font-family="Helvetica,sans-Serif" font-size="10.00">Math/GenVector/PositionVector2D.h</text>
</g>
<!-- Node20&#45;&gt;Node22 -->
<g id="edge22" class="edge"><title>Node20&#45;&gt;Node22</title>
<path fill="none" stroke="midnightblue" d="M1187.9,-74.3717C1202.88,-63.5015 1228.86,-44.6602 1246.94,-31.5474"/>
<polygon fill="midnightblue" stroke="midnightblue" points="1249.06,-34.3349 1255.1,-25.6305 1244.95,-28.6684 1249.06,-34.3349"/>
</g>
<!-- Node23&#45;&gt;Node11 -->
<g id="edge28" class="edge"><title>Node23&#45;&gt;Node11</title>
<path fill="none" stroke="midnightblue" d="M963.912,-204.403C927.11,-193.889 864.689,-176.054 823.906,-164.402"/>
<polygon fill="midnightblue" stroke="midnightblue" points="824.609,-160.963 814.032,-161.581 822.686,-167.693 824.609,-160.963"/>
</g>
<!-- Node24 -->
<g id="node24" class="node"><title>Node24</title>
<polygon fill="none" stroke="#bfbfbf" points="865,-142.5 865,-161.5 903,-161.5 903,-142.5 865,-142.5"/>
<text text-anchor="middle" x="884" y="-149.5" font-family="Helvetica,sans-Serif" font-size="10.00">array</text>
</g>
<!-- Node23&#45;&gt;Node24 -->
<g id="edge24" class="edge"><title>Node23&#45;&gt;Node24</title>
<path fill="none" stroke="midnightblue" d="M978.24,-204.403C960.024,-194.468 929.827,-177.997 908.532,-166.381"/>
<polygon fill="midnightblue" stroke="midnightblue" points="910.186,-163.297 899.731,-161.581 906.834,-169.442 910.186,-163.297"/>
</g>
<!-- Node25 -->
<g id="node25" class="node"><title>Node25</title>
<polygon fill="none" stroke="#bfbfbf" points="921,-142.5 921,-161.5 973,-161.5 973,-142.5 921,-142.5"/>
<text text-anchor="middle" x="947" y="-149.5" font-family="Helvetica,sans-Serif" font-size="10.00">ostream</text>
</g>
<!-- Node23&#45;&gt;Node25 -->
<g id="edge25" class="edge"><title>Node23&#45;&gt;Node25</title>
<path fill="none" stroke="midnightblue" d="M987.266,-204.403C980.216,-195.403 968.965,-181.041 960.146,-169.782"/>
<polygon fill="midnightblue" stroke="midnightblue" points="962.643,-167.295 953.721,-161.581 957.133,-171.611 962.643,-167.295"/>
</g>
<!-- Node26 -->
<g id="node26" class="node"><title>Node26</title>
<polygon fill="none" stroke="#bfbfbf" points="991.5,-137 991.5,-167 1088.5,-167 1088.5,-137 991.5,-137"/>
<text text-anchor="start" x="999.5" y="-155" font-family="Helvetica,sans-Serif" font-size="10.00">boost/serialization</text>
<text text-anchor="middle" x="1040" y="-144" font-family="Helvetica,sans-Serif" font-size="10.00">/split_member.hpp</text>
</g>
<!-- Node23&#45;&gt;Node26 -->
<g id="edge26" class="edge"><title>Node23&#45;&gt;Node26</title>
<path fill="none" stroke="midnightblue" d="M1000.59,-204.403C1006.41,-196.809 1015.16,-185.396 1022.94,-175.252"/>
<polygon fill="midnightblue" stroke="midnightblue" points="1025.85,-177.206 1029.16,-167.141 1020.3,-172.947 1025.85,-177.206"/>
</g>
<!-- Node27 -->
<g id="node27" class="node"><title>Node27</title>
<polygon fill="none" stroke="#bfbfbf" points="1106.5,-137 1106.5,-167 1201.5,-167 1201.5,-137 1106.5,-137"/>
<text text-anchor="start" x="1114.5" y="-155" font-family="Helvetica,sans-Serif" font-size="10.00">boost/serialization</text>
<text text-anchor="middle" x="1154" y="-144" font-family="Helvetica,sans-Serif" font-size="10.00">/array.hpp</text>
</g>
<!-- Node23&#45;&gt;Node27 -->
<g id="edge27" class="edge"><title>Node23&#45;&gt;Node27</title>
<path fill="none" stroke="midnightblue" d="M1016.92,-204.403C1040.29,-195.641 1077.22,-181.794 1106.86,-170.679"/>
<polygon fill="midnightblue" stroke="midnightblue" points="1108.46,-173.814 1116.6,-167.025 1106.01,-167.259 1108.46,-173.814"/>
</g>
<!-- Node28&#45;&gt;Node11 -->
<g id="edge31" class="edge"><title>Node28&#45;&gt;Node11</title>
<path fill="none" stroke="midnightblue" d="M823.409,-204.403C816.509,-195.403 805.498,-181.041 796.866,-169.782"/>
<polygon fill="midnightblue" stroke="midnightblue" points="799.44,-167.387 790.578,-161.581 793.885,-171.646 799.44,-167.387"/>
</g>
<!-- Node28&#45;&gt;Node24 -->
<g id="edge30" class="edge"><title>Node28&#45;&gt;Node24</title>
<path fill="none" stroke="midnightblue" d="M837.737,-204.403C845.997,-195.225 859.277,-180.47 869.494,-169.117"/>
<polygon fill="midnightblue" stroke="midnightblue" points="872.189,-171.355 876.277,-161.581 866.986,-166.672 872.189,-171.355"/>
</g>
</g>
</svg>
