<?xml version="1.0" encoding="UTF-8" standalone="no"?>
<!DOCTYPE svg PUBLIC "-//W3C//DTD SVG 1.1//EN"
 "http://www.w3.org/Graphics/SVG/1.1/DTD/svg11.dtd">
<!-- Generated by graphviz version 2.36.0 (20140111.2315)
 -->
<!-- Title: SEG Pages: 1 -->
<svg width="192pt" height="488pt"
 viewBox="0.00 0.00 192.00 488.00" xmlns="http://www.w3.org/2000/svg" xmlns:xlink="http://www.w3.org/1999/xlink">
<g id="graph0" class="graph" transform="scale(1 1) rotate(0) translate(4 484)">
<title>SEG</title>
<!-- Node1 -->
<g id="node1" class="node"><title>Node1</title>
<polygon fill="#bfbfbf" stroke="black" points="62,-0.5 62,-57.5 100,-57.5 100,-0.5 62,-0.5"/>
<text text-anchor="middle" x="81" y="-45.5" font-family="Helvetica,sans-Serif" font-size="10.00">SEG</text>
<polyline fill="none" stroke="black" points="62,-38.5 100,-38.5 "/>
<text text-anchor="middle" x="81" y="-26.5" font-family="Helvetica,sans-Serif" font-size="10.00"> </text>
<polyline fill="none" stroke="black" points="62,-19.5 100,-19.5 "/>
<text text-anchor="middle" x="81" y="-7.5" font-family="Helvetica,sans-Serif" font-size="10.00"> </text>
</g>
<!-- Node2 -->
<g id="node2" class="node"><title>Node2</title>
<g id="a_node2"><a xlink:href="../../d0/dca/classo2_1_1ITSMFT_1_1SegmentationAlpide.html" target="_top" xlink:title="{o2::ITSMFT::Segmentation\lAlpide\n|+ SensLayerThickness\l|+ SegmentationAlpide()\l+ ~SegmentationAlpide()\l+ localToDetector()\l+ localToDetectorUnchecked()\l+ detectorToLocal()\l+ detectorToLocalUnchecked()\l+ getFirstRowCoordinate()\l+ getFirstColCoordinate()\l+ print()\l}">
<polygon fill="none" stroke="black" points="5.5,-107 5.5,-263 156.5,-263 156.5,-107 5.5,-107"/>
<text text-anchor="start" x="13.5" y="-251" font-family="Helvetica,sans-Serif" font-size="10.00">o2::ITSMFT::Segmentation</text>
<text text-anchor="middle" x="81" y="-240" font-family="Helvetica,sans-Serif" font-size="10.00">Alpide</text>
<polyline fill="none" stroke="black" points="5.5,-233 156.5,-233 "/>
<text text-anchor="start" x="13.5" y="-221" font-family="Helvetica,sans-Serif" font-size="10.00">+ SensLayerThickness</text>
<polyline fill="none" stroke="black" points="5.5,-214 156.5,-214 "/>
<text text-anchor="start" x="13.5" y="-202" font-family="Helvetica,sans-Serif" font-size="10.00">+ SegmentationAlpide()</text>
<text text-anchor="start" x="13.5" y="-191" font-family="Helvetica,sans-Serif" font-size="10.00">+ ~SegmentationAlpide()</text>
<text text-anchor="start" x="13.5" y="-180" font-family="Helvetica,sans-Serif" font-size="10.00">+ localToDetector()</text>
<text text-anchor="start" x="13.5" y="-169" font-family="Helvetica,sans-Serif" font-size="10.00">+ localToDetectorUnchecked()</text>
<text text-anchor="start" x="13.5" y="-158" font-family="Helvetica,sans-Serif" font-size="10.00">+ detectorToLocal()</text>
<text text-anchor="start" x="13.5" y="-147" font-family="Helvetica,sans-Serif" font-size="10.00">+ detectorToLocalUnchecked()</text>
<text text-anchor="start" x="13.5" y="-136" font-family="Helvetica,sans-Serif" font-size="10.00">+ getFirstRowCoordinate()</text>
<text text-anchor="start" x="13.5" y="-125" font-family="Helvetica,sans-Serif" font-size="10.00">+ getFirstColCoordinate()</text>
<text text-anchor="start" x="13.5" y="-114" font-family="Helvetica,sans-Serif" font-size="10.00">+ print()</text>
</a>
</g>
</g>
<!-- Node2&#45;&gt;Node1 -->
<g id="edge1" class="edge"><title>Node2&#45;&gt;Node1</title>
<path fill="none" stroke="#404040" d="M81,-106.549C81,-93.8146 81,-81.0968 81,-69.7887"/>
<polygon fill="none" stroke="#404040" points="81.0001,-69.6947 77,-63.6947 81,-57.6947 85,-63.6946 81.0001,-69.6947"/>
<text text-anchor="middle" x="93.5" y="-79.5" font-family="Helvetica,sans-Serif" font-size="10.00"> +seg</text>
</g>
<!-- Node3 -->
<g id="node3" class="node"><title>Node3</title>
<g id="a_node3"><a xlink:href="../../d4/dc3/classfloat.html" target="_top" xlink:title="{float\n||}">
<polygon fill="none" stroke="black" points="-0.5,-422.5 -0.5,-479.5 34.5,-479.5 34.5,-422.5 -0.5,-422.5"/>
<text text-anchor="middle" x="17" y="-467.5" font-family="Helvetica,sans-Serif" font-size="10.00">float</text>
<polyline fill="none" stroke="black" points="-0.5,-460.5 34.5,-460.5 "/>
<text text-anchor="middle" x="17" y="-448.5" font-family="Helvetica,sans-Serif" font-size="10.00"> </text>
<polyline fill="none" stroke="black" points="-0.5,-441.5 34.5,-441.5 "/>
<text text-anchor="middle" x="17" y="-429.5" font-family="Helvetica,sans-Serif" font-size="10.00"> </text>
</a>
</g>
</g>
<!-- Node3&#45;&gt;Node2 -->
<g id="edge2" class="edge"><title>Node3&#45;&gt;Node2</title>
<path fill="none" stroke="#404040" d="M12.448,-422.229C7.95091,-388.32 3.61982,-329.606 18,-282 18.7845,-279.403 19.6637,-276.811 20.6252,-274.23"/>
<polygon fill="none" stroke="#404040" points="20.6893,-274.077 19.3211,-266.997 25.3304,-263.011 26.6986,-270.091 20.6893,-274.077"/>
<text text-anchor="middle" x="71" y="-395.5" font-family="Helvetica,sans-Serif" font-size="10.00"> +SensorSizeRows</text>
<text text-anchor="middle" x="71" y="-384.5" font-family="Helvetica,sans-Serif" font-size="10.00">+PitchRow</text>
<text text-anchor="middle" x="71" y="-373.5" font-family="Helvetica,sans-Serif" font-size="10.00">+SensorThickness</text>
<text text-anchor="middle" x="71" y="-362.5" font-family="Helvetica,sans-Serif" font-size="10.00">+ActiveMatrixSizeCols</text>
<text text-anchor="middle" x="71" y="-351.5" font-family="Helvetica,sans-Serif" font-size="10.00">+SensorSizeCols</text>
<text text-anchor="middle" x="71" y="-340.5" font-family="Helvetica,sans-Serif" font-size="10.00">+PitchCol</text>
<text text-anchor="middle" x="71" y="-329.5" font-family="Helvetica,sans-Serif" font-size="10.00">+PassiveEdgeSide</text>
<text text-anchor="middle" x="71" y="-318.5" font-family="Helvetica,sans-Serif" font-size="10.00">+PassiveEdgeReadOut</text>
<text text-anchor="middle" x="71" y="-307.5" font-family="Helvetica,sans-Serif" font-size="10.00">+ActiveMatrixSizeRows</text>
<text text-anchor="middle" x="71" y="-296.5" font-family="Helvetica,sans-Serif" font-size="10.00">+PassiveEdgeTop</text>
<text text-anchor="middle" x="71" y="-285.5" font-family="Helvetica,sans-Serif" font-size="10.00">...</text>
</g>
<!-- Node4 -->
<g id="node4" class="node"><title>Node4</title>
<polygon fill="none" stroke="#bfbfbf" points="131.5,-422.5 131.5,-479.5 160.5,-479.5 160.5,-422.5 131.5,-422.5"/>
<text text-anchor="middle" x="146" y="-467.5" font-family="Helvetica,sans-Serif" font-size="10.00">int</text>
<polyline fill="none" stroke="#bfbfbf" points="131.5,-460.5 160.5,-460.5 "/>
<text text-anchor="middle" x="146" y="-448.5" font-family="Helvetica,sans-Serif" font-size="10.00"> </text>
<polyline fill="none" stroke="#bfbfbf" points="131.5,-441.5 160.5,-441.5 "/>
<text text-anchor="middle" x="146" y="-429.5" font-family="Helvetica,sans-Serif" font-size="10.00"> </text>
</g>
<!-- Node4&#45;&gt;Node2 -->
<g id="edge3" class="edge"><title>Node4&#45;&gt;Node2</title>
<path fill="none" stroke="#404040" d="M144.845,-422.448C142.877,-388.757 137.651,-330.26 124,-282 123.311,-279.563 122.57,-277.109 121.785,-274.645"/>
<polygon fill="none" stroke="#404040" points="121.715,-274.44 115.984,-270.063 117.821,-263.089 123.552,-267.467 121.715,-274.44"/>
<text text-anchor="middle" x="163.5" y="-351.5" font-family="Helvetica,sans-Serif" font-size="10.00"> +NCols</text>
<text text-anchor="middle" x="163.5" y="-340.5" font-family="Helvetica,sans-Serif" font-size="10.00">+NPixels</text>
<text text-anchor="middle" x="163.5" y="-329.5" font-family="Helvetica,sans-Serif" font-size="10.00">+NRows</text>
</g>
</g>
</svg>
