<?xml version="1.0" encoding="UTF-8" standalone="no"?>
<!DOCTYPE svg PUBLIC "-//W3C//DTD SVG 1.1//EN"
 "http://www.w3.org/Graphics/SVG/1.1/DTD/svg11.dtd">
<!-- Generated by graphviz version 2.36.0 (20140111.2315)
 -->
<!-- Title: /home/travis/build/AliceO2Group/AliceO2/Detectors/TPC/base/include/TPCBase/ParameterElectronics.h Pages: 1 -->
<svg width="2086pt" height="242pt"
 viewBox="0.00 0.00 2086.00 242.00" xmlns="http://www.w3.org/2000/svg" xmlns:xlink="http://www.w3.org/1999/xlink">
<g id="graph0" class="graph" transform="scale(1 1) rotate(0) translate(4 238)">
<title>/home/travis/build/AliceO2Group/AliceO2/Detectors/TPC/base/include/TPCBase/ParameterElectronics.h</title>
<!-- Node1 -->
<g id="node1" class="node"><title>Node1</title>
<polygon fill="#bfbfbf" stroke="black" points="577.5,-181 577.5,-233 744.5,-233 744.5,-181 577.5,-181"/>
<text text-anchor="start" x="585.5" y="-221" font-family="Helvetica,sans-Serif" font-size="10.00">/home/travis/build</text>
<text text-anchor="start" x="585.5" y="-210" font-family="Helvetica,sans-Serif" font-size="10.00">/AliceO2Group/AliceO2</text>
<text text-anchor="start" x="585.5" y="-199" font-family="Helvetica,sans-Serif" font-size="10.00">/Detectors/TPC/base/include</text>
<text text-anchor="middle" x="661" y="-188" font-family="Helvetica,sans-Serif" font-size="10.00">/TPCBase/ParameterElectronics.h</text>
</g>
<!-- Node2 -->
<g id="node2" class="node"><title>Node2</title>
<g id="a_node2"><a xlink:href="../../dc/d59/MatchTPCITS_8cxx.html" target="_top" xlink:title="/home/travis/build\l/AliceO2Group/AliceO2\l/Detectors/GlobalTracking\l/src/MatchTPCITS.cxx">
<polygon fill="none" stroke="black" points="-0.5,-91 -0.5,-143 130.5,-143 130.5,-91 -0.5,-91"/>
<text text-anchor="start" x="7.5" y="-131" font-family="Helvetica,sans-Serif" font-size="10.00">/home/travis/build</text>
<text text-anchor="start" x="7.5" y="-120" font-family="Helvetica,sans-Serif" font-size="10.00">/AliceO2Group/AliceO2</text>
<text text-anchor="start" x="7.5" y="-109" font-family="Helvetica,sans-Serif" font-size="10.00">/Detectors/GlobalTracking</text>
<text text-anchor="middle" x="65" y="-98" font-family="Helvetica,sans-Serif" font-size="10.00">/src/MatchTPCITS.cxx</text>
</a>
</g>
</g>
<!-- Node1&#45;&gt;Node2 -->
<g id="edge1" class="edge"><title>Node1&#45;&gt;Node2</title>
<path fill="none" stroke="midnightblue" d="M567.225,-200.932C462.111,-193.849 287.122,-177.839 140,-144 136.911,-143.29 133.772,-142.497 130.616,-141.642"/>
<polygon fill="midnightblue" stroke="midnightblue" points="567.281,-204.443 577.49,-201.61 567.742,-197.459 567.281,-204.443"/>
</g>
<!-- Node3 -->
<g id="node3" class="node"><title>Node3</title>
<g id="a_node3"><a xlink:href="../../dc/d71/CDBInterface_8cxx.html" target="_top" xlink:title="/home/travis/build\l/AliceO2Group/AliceO2\l/Detectors/TPC/base/src\l/CDBInterface.cxx">
<polygon fill="none" stroke="black" points="149,-91 149,-143 275,-143 275,-91 149,-91"/>
<text text-anchor="start" x="157" y="-131" font-family="Helvetica,sans-Serif" font-size="10.00">/home/travis/build</text>
<text text-anchor="start" x="157" y="-120" font-family="Helvetica,sans-Serif" font-size="10.00">/AliceO2Group/AliceO2</text>
<text text-anchor="start" x="157" y="-109" font-family="Helvetica,sans-Serif" font-size="10.00">/Detectors/TPC/base/src</text>
<text text-anchor="middle" x="212" y="-98" font-family="Helvetica,sans-Serif" font-size="10.00">/CDBInterface.cxx</text>
</a>
</g>
</g>
<!-- Node1&#45;&gt;Node3 -->
<g id="edge2" class="edge"><title>Node1&#45;&gt;Node3</title>
<path fill="none" stroke="midnightblue" d="M567.201,-195.436C490.312,-185.62 379.065,-168.758 284,-144 281.042,-143.23 278.034,-142.388 275.01,-141.494"/>
<polygon fill="midnightblue" stroke="midnightblue" points="566.986,-198.937 577.345,-196.716 567.862,-191.992 566.986,-198.937"/>
</g>
<!-- Node4 -->
<g id="node4" class="node"><title>Node4</title>
<g id="a_node4"><a xlink:href="../../d0/d64/ParameterElectronics_8cxx.html" target="_top" xlink:title="Implementation of the parameter class for the detector electronics. ">
<polygon fill="none" stroke="black" points="293,-91 293,-143 425,-143 425,-91 293,-91"/>
<text text-anchor="start" x="301" y="-131" font-family="Helvetica,sans-Serif" font-size="10.00">/home/travis/build</text>
<text text-anchor="start" x="301" y="-120" font-family="Helvetica,sans-Serif" font-size="10.00">/AliceO2Group/AliceO2</text>
<text text-anchor="start" x="301" y="-109" font-family="Helvetica,sans-Serif" font-size="10.00">/Detectors/TPC/base/src</text>
<text text-anchor="middle" x="359" y="-98" font-family="Helvetica,sans-Serif" font-size="10.00">/ParameterElectronics.cxx</text>
</a>
</g>
</g>
<!-- Node1&#45;&gt;Node4 -->
<g id="edge3" class="edge"><title>Node1&#45;&gt;Node4</title>
<path fill="none" stroke="midnightblue" d="M567.586,-181.997C526.438,-171.036 477.627,-157.503 434,-144 431.104,-143.104 428.151,-142.169 425.174,-141.21"/>
<polygon fill="midnightblue" stroke="midnightblue" points="566.765,-185.4 577.328,-184.583 568.56,-178.635 566.765,-185.4"/>
</g>
<!-- Node5 -->
<g id="node5" class="node"><title>Node5</title>
<g id="a_node5"><a xlink:href="../../d1/d8a/testTPCCDBInterface_8cxx.html" target="_top" xlink:title="/home/travis/build\l/AliceO2Group/AliceO2\l/Detectors/TPC/base/test\l/testTPCCDBInterface.cxx">
<polygon fill="none" stroke="black" points="443.5,-91 443.5,-143 578.5,-143 578.5,-91 443.5,-91"/>
<text text-anchor="start" x="451.5" y="-131" font-family="Helvetica,sans-Serif" font-size="10.00">/home/travis/build</text>
<text text-anchor="start" x="451.5" y="-120" font-family="Helvetica,sans-Serif" font-size="10.00">/AliceO2Group/AliceO2</text>
<text text-anchor="start" x="451.5" y="-109" font-family="Helvetica,sans-Serif" font-size="10.00">/Detectors/TPC/base/test</text>
<text text-anchor="middle" x="511" y="-98" font-family="Helvetica,sans-Serif" font-size="10.00">/testTPCCDBInterface.cxx</text>
</a>
</g>
</g>
<!-- Node1&#45;&gt;Node5 -->
<g id="edge4" class="edge"><title>Node1&#45;&gt;Node5</title>
<path fill="none" stroke="midnightblue" d="M609.302,-175.67C591.178,-165.038 571.038,-153.222 553.731,-143.069"/>
<polygon fill="midnightblue" stroke="midnightblue" points="607.62,-178.741 618.016,-180.783 611.162,-172.704 607.62,-178.741"/>
</g>
<!-- Node6 -->
<g id="node6" class="node"><title>Node6</title>
<g id="a_node6"><a xlink:href="../../da/d69/testTPCParameters_8cxx.html" target="_top" xlink:title="This task tests the Parameter handling. ">
<polygon fill="none" stroke="black" points="596.5,-91 596.5,-143 725.5,-143 725.5,-91 596.5,-91"/>
<text text-anchor="start" x="604.5" y="-131" font-family="Helvetica,sans-Serif" font-size="10.00">/home/travis/build</text>
<text text-anchor="start" x="604.5" y="-120" font-family="Helvetica,sans-Serif" font-size="10.00">/AliceO2Group/AliceO2</text>
<text text-anchor="start" x="604.5" y="-109" font-family="Helvetica,sans-Serif" font-size="10.00">/Detectors/TPC/base/test</text>
<text text-anchor="middle" x="661" y="-98" font-family="Helvetica,sans-Serif" font-size="10.00">/testTPCParameters.cxx</text>
</a>
</g>
</g>
<!-- Node1&#45;&gt;Node6 -->
<g id="edge5" class="edge"><title>Node1&#45;&gt;Node6</title>
<path fill="none" stroke="midnightblue" d="M661,-170.489C661,-161.309 661,-151.616 661,-143.092"/>
<polygon fill="midnightblue" stroke="midnightblue" points="657.5,-170.547 661,-180.547 664.5,-170.547 657.5,-170.547"/>
</g>
<!-- Node7 -->
<g id="node7" class="node"><title>Node7</title>
<g id="a_node7"><a xlink:href="../../d4/d7c/HardwareClusterDecoder_8cxx.html" target="_top" xlink:title="/home/travis/build\l/AliceO2Group/AliceO2\l/Detectors/TPC/reconstruction\l/src/HardwareClusterDecoder.cxx">
<polygon fill="none" stroke="black" points="743.5,-91 743.5,-143 908.5,-143 908.5,-91 743.5,-91"/>
<text text-anchor="start" x="751.5" y="-131" font-family="Helvetica,sans-Serif" font-size="10.00">/home/travis/build</text>
<text text-anchor="start" x="751.5" y="-120" font-family="Helvetica,sans-Serif" font-size="10.00">/AliceO2Group/AliceO2</text>
<text text-anchor="start" x="751.5" y="-109" font-family="Helvetica,sans-Serif" font-size="10.00">/Detectors/TPC/reconstruction</text>
<text text-anchor="middle" x="826" y="-98" font-family="Helvetica,sans-Serif" font-size="10.00">/src/HardwareClusterDecoder.cxx</text>
</a>
</g>
</g>
<!-- Node1&#45;&gt;Node7 -->
<g id="edge6" class="edge"><title>Node1&#45;&gt;Node7</title>
<path fill="none" stroke="midnightblue" d="M717.325,-175.96C737.401,-165.253 759.785,-153.315 778.996,-143.069"/>
<polygon fill="midnightblue" stroke="midnightblue" points="715.459,-172.989 708.282,-180.783 718.753,-179.165 715.459,-172.989"/>
</g>
<!-- Node8 -->
<g id="node8" class="node"><title>Node8</title>
<g id="a_node8"><a xlink:href="../../d8/ded/TPCCATracking_8cxx.html" target="_top" xlink:title="/home/travis/build\l/AliceO2Group/AliceO2\l/Detectors/TPC/reconstruction\l/src/TPCCATracking.cxx">
<polygon fill="none" stroke="black" points="927,-91 927,-143 1077,-143 1077,-91 927,-91"/>
<text text-anchor="start" x="935" y="-131" font-family="Helvetica,sans-Serif" font-size="10.00">/home/travis/build</text>
<text text-anchor="start" x="935" y="-120" font-family="Helvetica,sans-Serif" font-size="10.00">/AliceO2Group/AliceO2</text>
<text text-anchor="start" x="935" y="-109" font-family="Helvetica,sans-Serif" font-size="10.00">/Detectors/TPC/reconstruction</text>
<text text-anchor="middle" x="1002" y="-98" font-family="Helvetica,sans-Serif" font-size="10.00">/src/TPCCATracking.cxx</text>
</a>
</g>
</g>
<!-- Node1&#45;&gt;Node8 -->
<g id="edge7" class="edge"><title>Node1&#45;&gt;Node8</title>
<path fill="none" stroke="midnightblue" d="M754.5,-184.758C803.137,-173.355 863.461,-158.658 917,-144 920.275,-143.104 923.614,-142.169 926.983,-141.21"/>
<polygon fill="midnightblue" stroke="midnightblue" points="753.561,-181.383 744.62,-187.067 755.154,-188.2 753.561,-181.383"/>
</g>
<!-- Node9 -->
<g id="node9" class="node"><title>Node9</title>
<g id="a_node9"><a xlink:href="../../d0/d45/SAMPAProcessing_8h.html" target="_top" xlink:title="Definition of the SAMPA response. ">
<polygon fill="none" stroke="black" points="1300.5,-91 1300.5,-143 1515.5,-143 1515.5,-91 1300.5,-91"/>
<text text-anchor="start" x="1308.5" y="-131" font-family="Helvetica,sans-Serif" font-size="10.00">/home/travis/build</text>
<text text-anchor="start" x="1308.5" y="-120" font-family="Helvetica,sans-Serif" font-size="10.00">/AliceO2Group/AliceO2</text>
<text text-anchor="start" x="1308.5" y="-109" font-family="Helvetica,sans-Serif" font-size="10.00">/Detectors/TPC/simulation</text>
<text text-anchor="middle" x="1408" y="-98" font-family="Helvetica,sans-Serif" font-size="10.00">/include/TPCSimulation/SAMPAProcessing.h</text>
</a>
</g>
</g>
<!-- Node1&#45;&gt;Node9 -->
<g id="edge8" class="edge"><title>Node1&#45;&gt;Node9</title>
<path fill="none" stroke="midnightblue" d="M754.72,-194.959C893.711,-178.586 1153.8,-147.946 1300.4,-130.676"/>
<polygon fill="midnightblue" stroke="midnightblue" points="754.038,-191.515 744.516,-196.161 754.857,-198.467 754.038,-191.515"/>
</g>
<!-- Node12 -->
<g id="node12" class="node"><title>Node12</title>
<g id="a_node12"><a xlink:href="../../d7/d0a/TPC_2simulation_2src_2Digitizer_8cxx.html" target="_top" xlink:title="/home/travis/build\l/AliceO2Group/AliceO2\l/Detectors/TPC/simulation\l/src/Digitizer.cxx">
<polygon fill="none" stroke="black" points="945.5,-1 945.5,-53 1078.5,-53 1078.5,-1 945.5,-1"/>
<text text-anchor="start" x="953.5" y="-41" font-family="Helvetica,sans-Serif" font-size="10.00">/home/travis/build</text>
<text text-anchor="start" x="953.5" y="-30" font-family="Helvetica,sans-Serif" font-size="10.00">/AliceO2Group/AliceO2</text>
<text text-anchor="start" x="953.5" y="-19" font-family="Helvetica,sans-Serif" font-size="10.00">/Detectors/TPC/simulation</text>
<text text-anchor="middle" x="1012" y="-8" font-family="Helvetica,sans-Serif" font-size="10.00">/src/Digitizer.cxx</text>
</a>
</g>
</g>
<!-- Node1&#45;&gt;Node12 -->
<g id="edge16" class="edge"><title>Node1&#45;&gt;Node12</title>
<path fill="none" stroke="midnightblue" d="M755.178,-205.974C866.88,-203.704 1043.25,-192.301 1085,-144 1100.69,-125.843 1095.08,-111.782 1085,-90 1078.23,-75.362 1066.11,-62.9155 1053.66,-53.1014"/>
<polygon fill="midnightblue" stroke="midnightblue" points="754.846,-202.48 744.912,-206.161 754.974,-209.479 754.846,-202.48"/>
</g>
<!-- Node10 -->
<g id="node10" class="node"><title>Node10</title>
<g id="a_node10"><a xlink:href="../../db/d60/testTracks_8C.html" target="_top" xlink:title="/home/travis/build\l/AliceO2Group/AliceO2\l/Detectors/TPC/reconstruction\l/macro/testTracks.C">
<polygon fill="none" stroke="black" points="1097,-1 1097,-53 1247,-53 1247,-1 1097,-1"/>
<text text-anchor="start" x="1105" y="-41" font-family="Helvetica,sans-Serif" font-size="10.00">/home/travis/build</text>
<text text-anchor="start" x="1105" y="-30" font-family="Helvetica,sans-Serif" font-size="10.00">/AliceO2Group/AliceO2</text>
<text text-anchor="start" x="1105" y="-19" font-family="Helvetica,sans-Serif" font-size="10.00">/Detectors/TPC/reconstruction</text>
<text text-anchor="middle" x="1172" y="-8" font-family="Helvetica,sans-Serif" font-size="10.00">/macro/testTracks.C</text>
</a>
</g>
</g>
<!-- Node9&#45;&gt;Node10 -->
<g id="edge9" class="edge"><title>Node9&#45;&gt;Node10</title>
<path fill="none" stroke="midnightblue" d="M1331.23,-87.3724C1301.62,-76.3332 1268.06,-63.8175 1239.4,-53.1328"/>
<polygon fill="midnightblue" stroke="midnightblue" points="1330.1,-90.686 1340.69,-90.9005 1332.54,-84.1272 1330.1,-90.686"/>
</g>
<!-- Node11 -->
<g id="node11" class="node"><title>Node11</title>
<g id="a_node11"><a xlink:href="../../d1/ddd/DigitGlobalPad_8cxx.html" target="_top" xlink:title="Implementation of the Pad container. ">
<polygon fill="none" stroke="black" points="1265.5,-1 1265.5,-53 1398.5,-53 1398.5,-1 1265.5,-1"/>
<text text-anchor="start" x="1273.5" y="-41" font-family="Helvetica,sans-Serif" font-size="10.00">/home/travis/build</text>
<text text-anchor="start" x="1273.5" y="-30" font-family="Helvetica,sans-Serif" font-size="10.00">/AliceO2Group/AliceO2</text>
<text text-anchor="start" x="1273.5" y="-19" font-family="Helvetica,sans-Serif" font-size="10.00">/Detectors/TPC/simulation</text>
<text text-anchor="middle" x="1332" y="-8" font-family="Helvetica,sans-Serif" font-size="10.00">/src/DigitGlobalPad.cxx</text>
</a>
</g>
</g>
<!-- Node9&#45;&gt;Node11 -->
<g id="edge10" class="edge"><title>Node9&#45;&gt;Node11</title>
<path fill="none" stroke="midnightblue" d="M1379.37,-82.8459C1370.85,-72.9851 1361.67,-62.3492 1353.67,-53.0921"/>
<polygon fill="midnightblue" stroke="midnightblue" points="1376.83,-85.2662 1386.02,-90.5468 1382.13,-80.6908 1376.83,-85.2662"/>
</g>
<!-- Node9&#45;&gt;Node12 -->
<g id="edge11" class="edge"><title>Node9&#45;&gt;Node12</title>
<path fill="none" stroke="midnightblue" d="M1290.46,-97.2393C1229.58,-86.5128 1154.3,-71.6725 1088,-54 1084.9,-53.1739 1081.75,-52.2863 1078.57,-51.3551"/>
<polygon fill="midnightblue" stroke="midnightblue" points="1290.04,-100.718 1300.49,-98.9923 1291.24,-93.8228 1290.04,-100.718"/>
</g>
<!-- Node13 -->
<g id="node13" class="node"><title>Node13</title>
<g id="a_node13"><a xlink:href="../../df/d46/TPC_2simulation_2src_2DigitizerTask_8cxx.html" target="_top" xlink:title="/home/travis/build\l/AliceO2Group/AliceO2\l/Detectors/TPC/simulation\l/src/DigitizerTask.cxx">
<polygon fill="none" stroke="black" points="1416.5,-1 1416.5,-53 1549.5,-53 1549.5,-1 1416.5,-1"/>
<text text-anchor="start" x="1424.5" y="-41" font-family="Helvetica,sans-Serif" font-size="10.00">/home/travis/build</text>
<text text-anchor="start" x="1424.5" y="-30" font-family="Helvetica,sans-Serif" font-size="10.00">/AliceO2Group/AliceO2</text>
<text text-anchor="start" x="1424.5" y="-19" font-family="Helvetica,sans-Serif" font-size="10.00">/Detectors/TPC/simulation</text>
<text text-anchor="middle" x="1483" y="-8" font-family="Helvetica,sans-Serif" font-size="10.00">/src/DigitizerTask.cxx</text>
</a>
</g>
</g>
<!-- Node9&#45;&gt;Node13 -->
<g id="edge12" class="edge"><title>Node9&#45;&gt;Node13</title>
<path fill="none" stroke="midnightblue" d="M1436.26,-82.8459C1444.66,-72.9851 1453.73,-62.3492 1461.61,-53.0921"/>
<polygon fill="midnightblue" stroke="midnightblue" points="1433.52,-80.6656 1429.69,-90.5468 1438.84,-85.2062 1433.52,-80.6656"/>
</g>
<!-- Node14 -->
<g id="node14" class="node"><title>Node14</title>
<g id="a_node14"><a xlink:href="../../d1/dd8/SAMPAProcessing_8cxx.html" target="_top" xlink:title="Implementation of the SAMPA response. ">
<polygon fill="none" stroke="black" points="1567.5,-1 1567.5,-53 1706.5,-53 1706.5,-1 1567.5,-1"/>
<text text-anchor="start" x="1575.5" y="-41" font-family="Helvetica,sans-Serif" font-size="10.00">/home/travis/build</text>
<text text-anchor="start" x="1575.5" y="-30" font-family="Helvetica,sans-Serif" font-size="10.00">/AliceO2Group/AliceO2</text>
<text text-anchor="start" x="1575.5" y="-19" font-family="Helvetica,sans-Serif" font-size="10.00">/Detectors/TPC/simulation</text>
<text text-anchor="middle" x="1637" y="-8" font-family="Helvetica,sans-Serif" font-size="10.00">/src/SAMPAProcessing.cxx</text>
</a>
</g>
</g>
<!-- Node9&#45;&gt;Node14 -->
<g id="edge13" class="edge"><title>Node9&#45;&gt;Node14</title>
<path fill="none" stroke="midnightblue" d="M1482.87,-87.229C1511.51,-76.2249 1543.91,-63.7712 1571.6,-53.1328"/>
<polygon fill="midnightblue" stroke="midnightblue" points="1481.39,-84.0463 1473.32,-90.9005 1483.91,-90.5805 1481.39,-84.0463"/>
</g>
<!-- Node15 -->
<g id="node15" class="node"><title>Node15</title>
<g id="a_node15"><a xlink:href="../../dd/d5e/testTPCDigitContainer_8cxx.html" target="_top" xlink:title="This task tests the DigitContainer of the TPC digitization. ">
<polygon fill="none" stroke="black" points="1724.5,-1 1724.5,-53 1881.5,-53 1881.5,-1 1724.5,-1"/>
<text text-anchor="start" x="1732.5" y="-41" font-family="Helvetica,sans-Serif" font-size="10.00">/home/travis/build</text>
<text text-anchor="start" x="1732.5" y="-30" font-family="Helvetica,sans-Serif" font-size="10.00">/AliceO2Group/AliceO2</text>
<text text-anchor="start" x="1732.5" y="-19" font-family="Helvetica,sans-Serif" font-size="10.00">/Detectors/TPC/simulation</text>
<text text-anchor="middle" x="1803" y="-8" font-family="Helvetica,sans-Serif" font-size="10.00">/test/testTPCDigitContainer.cxx</text>
</a>
</g>
</g>
<!-- Node9&#45;&gt;Node15 -->
<g id="edge14" class="edge"><title>Node9&#45;&gt;Node15</title>
<path fill="none" stroke="midnightblue" d="M1525.62,-94.7618C1583,-83.7607 1652.89,-69.4153 1715,-54 1718.09,-53.2325 1721.24,-52.4262 1724.41,-51.592"/>
<polygon fill="midnightblue" stroke="midnightblue" points="1524.95,-91.3252 1515.79,-96.6371 1526.26,-98.2012 1524.95,-91.3252"/>
</g>
<!-- Node16 -->
<g id="node16" class="node"><title>Node16</title>
<g id="a_node16"><a xlink:href="../../d0/d5c/testTPCSAMPAProcessing_8cxx.html" target="_top" xlink:title="/home/travis/build\l/AliceO2Group/AliceO2\l/Detectors/TPC/simulation\l/test/testTPCSAMPAProcessing.cxx">
<polygon fill="none" stroke="black" points="1899.5,-1 1899.5,-53 2078.5,-53 2078.5,-1 1899.5,-1"/>
<text text-anchor="start" x="1907.5" y="-41" font-family="Helvetica,sans-Serif" font-size="10.00">/home/travis/build</text>
<text text-anchor="start" x="1907.5" y="-30" font-family="Helvetica,sans-Serif" font-size="10.00">/AliceO2Group/AliceO2</text>
<text text-anchor="start" x="1907.5" y="-19" font-family="Helvetica,sans-Serif" font-size="10.00">/Detectors/TPC/simulation</text>
<text text-anchor="middle" x="1989" y="-8" font-family="Helvetica,sans-Serif" font-size="10.00">/test/testTPCSAMPAProcessing.cxx</text>
</a>
</g>
</g>
<!-- Node9&#45;&gt;Node16 -->
<g id="edge15" class="edge"><title>Node9&#45;&gt;Node16</title>
<path fill="none" stroke="midnightblue" d="M1526.08,-105.104C1624.08,-95.0346 1766.83,-77.9926 1890,-54 1893.05,-53.4054 1896.15,-52.7706 1899.27,-52.1039"/>
<polygon fill="midnightblue" stroke="midnightblue" points="1525.44,-101.651 1515.84,-106.146 1526.15,-108.615 1525.44,-101.651"/>
</g>
</g>
</svg>
