<?xml version="1.0" encoding="UTF-8" standalone="no"?>
<!DOCTYPE svg PUBLIC "-//W3C//DTD SVG 1.1//EN"
 "http://www.w3.org/Graphics/SVG/1.1/DTD/svg11.dtd">
<!-- Generated by graphviz version 2.36.0 (20140111.2315)
 -->
<!-- Title: /home/travis/build/AliceO2Group/AliceO2/DataFormats/Detectors/TOF/include/DataFormatsTOF/Cluster.h Pages: 1 -->
<svg width="545pt" height="362pt"
 viewBox="0.00 0.00 545.00 362.00" xmlns="http://www.w3.org/2000/svg" xmlns:xlink="http://www.w3.org/1999/xlink">
<g id="graph0" class="graph" transform="scale(1 1) rotate(0) translate(4 358)">
<title>/home/travis/build/AliceO2Group/AliceO2/DataFormats/Detectors/TOF/include/DataFormatsTOF/Cluster.h</title>
<!-- Node1 -->
<g id="node1" class="node"><title>Node1</title>
<polygon fill="#bfbfbf" stroke="black" points="176,-290.5 176,-353.5 328,-353.5 328,-290.5 176,-290.5"/>
<text text-anchor="start" x="184" y="-341.5" font-family="Helvetica,sans-Serif" font-size="10.00">/home/travis/build</text>
<text text-anchor="start" x="184" y="-330.5" font-family="Helvetica,sans-Serif" font-size="10.00">/AliceO2Group/AliceO2</text>
<text text-anchor="start" x="184" y="-319.5" font-family="Helvetica,sans-Serif" font-size="10.00">/DataFormats/Detectors</text>
<text text-anchor="start" x="184" y="-308.5" font-family="Helvetica,sans-Serif" font-size="10.00">/TOF/include/DataFormatsTOF</text>
<text text-anchor="middle" x="252" y="-297.5" font-family="Helvetica,sans-Serif" font-size="10.00">/Cluster.h</text>
</g>
<!-- Node2 -->
<g id="node2" class="node"><title>Node2</title>
<g id="a_node2"><a xlink:href="../../db/d6b/DataFormats_2Detectors_2TOF_2src_2Cluster_8cxx.html" target="_top" xlink:title="/home/travis/build\l/AliceO2Group/AliceO2\l/DataFormats/Detectors\l/TOF/src/Cluster.cxx">
<polygon fill="none" stroke="black" points="0,-196 0,-248 122,-248 122,-196 0,-196"/>
<text text-anchor="start" x="8" y="-236" font-family="Helvetica,sans-Serif" font-size="10.00">/home/travis/build</text>
<text text-anchor="start" x="8" y="-225" font-family="Helvetica,sans-Serif" font-size="10.00">/AliceO2Group/AliceO2</text>
<text text-anchor="start" x="8" y="-214" font-family="Helvetica,sans-Serif" font-size="10.00">/DataFormats/Detectors</text>
<text text-anchor="middle" x="61" y="-203" font-family="Helvetica,sans-Serif" font-size="10.00">/TOF/src/Cluster.cxx</text>
</a>
</g>
</g>
<!-- Node1&#45;&gt;Node2 -->
<g id="edge1" class="edge"><title>Node1&#45;&gt;Node2</title>
<path fill="none" stroke="midnightblue" d="M183.199,-285.699C158.96,-273.262 132.226,-259.545 109.96,-248.121"/>
<polygon fill="midnightblue" stroke="midnightblue" points="181.857,-288.944 192.352,-290.395 185.053,-282.716 181.857,-288.944"/>
</g>
<!-- Node3 -->
<g id="node3" class="node"><title>Node3</title>
<g id="a_node3"><a xlink:href="../../dc/d24/TOF_2reconstruction_2include_2TOFReconstruction_2Clusterer_8h.html" target="_top" xlink:title="/home/travis/build\l/AliceO2Group/AliceO2\l/Detectors/TOF/reconstruction\l/include/TOFReconstruction\l/Clusterer.h">
<polygon fill="none" stroke="black" points="177.5,-190.5 177.5,-253.5 326.5,-253.5 326.5,-190.5 177.5,-190.5"/>
<text text-anchor="start" x="185.5" y="-241.5" font-family="Helvetica,sans-Serif" font-size="10.00">/home/travis/build</text>
<text text-anchor="start" x="185.5" y="-230.5" font-family="Helvetica,sans-Serif" font-size="10.00">/AliceO2Group/AliceO2</text>
<text text-anchor="start" x="185.5" y="-219.5" font-family="Helvetica,sans-Serif" font-size="10.00">/Detectors/TOF/reconstruction</text>
<text text-anchor="start" x="185.5" y="-208.5" font-family="Helvetica,sans-Serif" font-size="10.00">/include/TOFReconstruction</text>
<text text-anchor="middle" x="252" y="-197.5" font-family="Helvetica,sans-Serif" font-size="10.00">/Clusterer.h</text>
</a>
</g>
</g>
<!-- Node1&#45;&gt;Node3 -->
<g id="edge2" class="edge"><title>Node1&#45;&gt;Node3</title>
<path fill="none" stroke="midnightblue" d="M252,-280.099C252,-271.238 252,-262.015 252,-253.63"/>
<polygon fill="midnightblue" stroke="midnightblue" points="248.5,-280.261 252,-290.261 255.5,-280.261 248.5,-280.261"/>
</g>
<!-- Node7 -->
<g id="node7" class="node"><title>Node7</title>
<g id="a_node7"><a xlink:href="../../d5/d8a/TOF_2reconstruction_2src_2Clusterer_8cxx.html" target="_top" xlink:title="/home/travis/build\l/AliceO2Group/AliceO2\l/Detectors/TOF/reconstruction\l/src/Clusterer.cxx">
<polygon fill="none" stroke="black" points="10.5,-96 10.5,-148 159.5,-148 159.5,-96 10.5,-96"/>
<text text-anchor="start" x="18.5" y="-136" font-family="Helvetica,sans-Serif" font-size="10.00">/home/travis/build</text>
<text text-anchor="start" x="18.5" y="-125" font-family="Helvetica,sans-Serif" font-size="10.00">/AliceO2Group/AliceO2</text>
<text text-anchor="start" x="18.5" y="-114" font-family="Helvetica,sans-Serif" font-size="10.00">/Detectors/TOF/reconstruction</text>
<text text-anchor="middle" x="85" y="-103" font-family="Helvetica,sans-Serif" font-size="10.00">/src/Clusterer.cxx</text>
</a>
</g>
</g>
<!-- Node1&#45;&gt;Node7 -->
<g id="edge8" class="edge"><title>Node1&#45;&gt;Node7</title>
<path fill="none" stroke="midnightblue" d="M199.376,-284.014C188.306,-274.916 177.206,-264.693 168,-254 146.562,-229.101 148.534,-217.786 131,-190 122.115,-175.92 111.648,-160.585 102.944,-148.143"/>
<polygon fill="midnightblue" stroke="midnightblue" points="197.407,-286.921 207.404,-290.43 201.777,-281.453 197.407,-286.921"/>
</g>
<!-- Node8 -->
<g id="node8" class="node"><title>Node8</title>
<g id="a_node8"><a xlink:href="../../da/df1/TOFClusterizerSpec_8cxx.html" target="_top" xlink:title="/home/travis/build\l/AliceO2Group/AliceO2\l/Steer/DigitizerWorkflow\l/src/TOFClusterizerSpec.cxx">
<polygon fill="none" stroke="black" points="345,-96 345,-148 489,-148 489,-96 345,-96"/>
<text text-anchor="start" x="353" y="-136" font-family="Helvetica,sans-Serif" font-size="10.00">/home/travis/build</text>
<text text-anchor="start" x="353" y="-125" font-family="Helvetica,sans-Serif" font-size="10.00">/AliceO2Group/AliceO2</text>
<text text-anchor="start" x="353" y="-114" font-family="Helvetica,sans-Serif" font-size="10.00">/Steer/DigitizerWorkflow</text>
<text text-anchor="middle" x="417" y="-103" font-family="Helvetica,sans-Serif" font-size="10.00">/src/TOFClusterizerSpec.cxx</text>
</a>
</g>
</g>
<!-- Node1&#45;&gt;Node8 -->
<g id="edge9" class="edge"><title>Node1&#45;&gt;Node8</title>
<path fill="none" stroke="midnightblue" d="M303.798,-283.78C314.747,-274.695 325.769,-264.536 335,-254 356.951,-228.946 356.336,-218.241 374,-190 382.722,-176.055 392.627,-160.598 400.73,-148.047"/>
<polygon fill="midnightblue" stroke="midnightblue" points="301.44,-281.186 295.865,-290.196 305.841,-286.629 301.44,-281.186"/>
</g>
<!-- Node9 -->
<g id="node9" class="node"><title>Node9</title>
<g id="a_node9"><a xlink:href="../../d5/d8f/TOFClusterWriterSpec_8cxx.html" target="_top" xlink:title="/home/travis/build\l/AliceO2Group/AliceO2\l/Steer/DigitizerWorkflow\l/src/TOFClusterWriterSpec.cxx">
<polygon fill="none" stroke="black" points="382.5,-196 382.5,-248 537.5,-248 537.5,-196 382.5,-196"/>
<text text-anchor="start" x="390.5" y="-236" font-family="Helvetica,sans-Serif" font-size="10.00">/home/travis/build</text>
<text text-anchor="start" x="390.5" y="-225" font-family="Helvetica,sans-Serif" font-size="10.00">/AliceO2Group/AliceO2</text>
<text text-anchor="start" x="390.5" y="-214" font-family="Helvetica,sans-Serif" font-size="10.00">/Steer/DigitizerWorkflow</text>
<text text-anchor="middle" x="460" y="-203" font-family="Helvetica,sans-Serif" font-size="10.00">/src/TOFClusterWriterSpec.cxx</text>
</a>
</g>
</g>
<!-- Node1&#45;&gt;Node9 -->
<g id="edge10" class="edge"><title>Node1&#45;&gt;Node9</title>
<path fill="none" stroke="midnightblue" d="M326.228,-286.027C352.808,-273.504 382.221,-259.646 406.683,-248.121"/>
<polygon fill="midnightblue" stroke="midnightblue" points="324.511,-282.967 316.957,-290.395 327.495,-289.299 324.511,-282.967"/>
</g>
<!-- Node4 -->
<g id="node4" class="node"><title>Node4</title>
<g id="a_node4"><a xlink:href="../../d4/d74/TOF_2reconstruction_2include_2TOFReconstruction_2ClustererTask_8h.html" target="_top" xlink:title="/home/travis/build\l/AliceO2Group/AliceO2\l/Detectors/TOF/reconstruction\l/include/TOFReconstruction\l/ClustererTask.h">
<polygon fill="none" stroke="black" points="177.5,-90.5 177.5,-153.5 326.5,-153.5 326.5,-90.5 177.5,-90.5"/>
<text text-anchor="start" x="185.5" y="-141.5" font-family="Helvetica,sans-Serif" font-size="10.00">/home/travis/build</text>
<text text-anchor="start" x="185.5" y="-130.5" font-family="Helvetica,sans-Serif" font-size="10.00">/AliceO2Group/AliceO2</text>
<text text-anchor="start" x="185.5" y="-119.5" font-family="Helvetica,sans-Serif" font-size="10.00">/Detectors/TOF/reconstruction</text>
<text text-anchor="start" x="185.5" y="-108.5" font-family="Helvetica,sans-Serif" font-size="10.00">/include/TOFReconstruction</text>
<text text-anchor="middle" x="252" y="-97.5" font-family="Helvetica,sans-Serif" font-size="10.00">/ClustererTask.h</text>
</a>
</g>
</g>
<!-- Node3&#45;&gt;Node4 -->
<g id="edge3" class="edge"><title>Node3&#45;&gt;Node4</title>
<path fill="none" stroke="midnightblue" d="M252,-180.099C252,-171.238 252,-162.015 252,-153.63"/>
<polygon fill="midnightblue" stroke="midnightblue" points="248.5,-180.261 252,-190.261 255.5,-180.261 248.5,-180.261"/>
</g>
<!-- Node3&#45;&gt;Node7 -->
<g id="edge6" class="edge"><title>Node3&#45;&gt;Node7</title>
<path fill="none" stroke="midnightblue" d="M190.78,-185.075C169.829,-172.78 146.86,-159.301 127.693,-148.054"/>
<polygon fill="midnightblue" stroke="midnightblue" points="189.222,-188.218 199.618,-190.261 192.765,-182.181 189.222,-188.218"/>
</g>
<!-- Node3&#45;&gt;Node8 -->
<g id="edge7" class="edge"><title>Node3&#45;&gt;Node8</title>
<path fill="none" stroke="midnightblue" d="M312.487,-185.075C333.187,-172.78 355.881,-159.301 374.818,-148.054"/>
<polygon fill="midnightblue" stroke="midnightblue" points="310.565,-182.145 303.754,-190.261 314.139,-188.164 310.565,-182.145"/>
</g>
<!-- Node5 -->
<g id="node5" class="node"><title>Node5</title>
<g id="a_node5"><a xlink:href="../../d5/d10/TOF_2reconstruction_2src_2ClustererTask_8cxx.html" target="_top" xlink:title="/home/travis/build\l/AliceO2Group/AliceO2\l/Detectors/TOF/reconstruction\l/src/ClustererTask.cxx">
<polygon fill="none" stroke="black" points="101.5,-1 101.5,-53 250.5,-53 250.5,-1 101.5,-1"/>
<text text-anchor="start" x="109.5" y="-41" font-family="Helvetica,sans-Serif" font-size="10.00">/home/travis/build</text>
<text text-anchor="start" x="109.5" y="-30" font-family="Helvetica,sans-Serif" font-size="10.00">/AliceO2Group/AliceO2</text>
<text text-anchor="start" x="109.5" y="-19" font-family="Helvetica,sans-Serif" font-size="10.00">/Detectors/TOF/reconstruction</text>
<text text-anchor="middle" x="176" y="-8" font-family="Helvetica,sans-Serif" font-size="10.00">/src/ClustererTask.cxx</text>
</a>
</g>
</g>
<!-- Node4&#45;&gt;Node5 -->
<g id="edge4" class="edge"><title>Node4&#45;&gt;Node5</title>
<path fill="none" stroke="midnightblue" d="M220.52,-82.4781C212.413,-72.5584 203.899,-62.1393 196.512,-53.1001"/>
<polygon fill="midnightblue" stroke="midnightblue" points="217.866,-84.762 226.904,-90.2906 223.286,-80.3325 217.866,-84.762"/>
</g>
<!-- Node6 -->
<g id="node6" class="node"><title>Node6</title>
<g id="a_node6"><a xlink:href="../../d9/d4b/run__clus__tof_8C.html" target="_top" xlink:title="/home/travis/build\l/AliceO2Group/AliceO2\l/macro/run_clus_tof.C">
<polygon fill="none" stroke="black" points="269,-6.5 269,-47.5 387,-47.5 387,-6.5 269,-6.5"/>
<text text-anchor="start" x="277" y="-35.5" font-family="Helvetica,sans-Serif" font-size="10.00">/home/travis/build</text>
<text text-anchor="start" x="277" y="-24.5" font-family="Helvetica,sans-Serif" font-size="10.00">/AliceO2Group/AliceO2</text>
<text text-anchor="middle" x="328" y="-13.5" font-family="Helvetica,sans-Serif" font-size="10.00">/macro/run_clus_tof.C</text>
</a>
</g>
</g>
<!-- Node4&#45;&gt;Node6 -->
<g id="edge5" class="edge"><title>Node4&#45;&gt;Node6</title>
<path fill="none" stroke="midnightblue" d="M283.44,-82.5272C293.271,-70.4979 303.705,-57.7294 312.003,-47.5747"/>
<polygon fill="midnightblue" stroke="midnightblue" points="280.714,-80.3325 277.096,-90.2906 286.134,-84.762 280.714,-80.3325"/>
</g>
</g>
</svg>
