<?xml version="1.0" encoding="UTF-8" standalone="no"?>
<!DOCTYPE svg PUBLIC "-//W3C//DTD SVG 1.1//EN"
 "http://www.w3.org/Graphics/SVG/1.1/DTD/svg11.dtd">
<!-- Generated by graphviz version 2.36.0 (20140111.2315)
 -->
<!-- Title: /home/travis/build/AliceO2Group/AliceO2/Utilities/MCStepLogger/include/MCStepLogger/MCAnalysisFileWrapper.h Pages: 1 -->
<svg width="558pt" height="184pt"
 viewBox="0.00 0.00 558.00 184.00" xmlns="http://www.w3.org/2000/svg" xmlns:xlink="http://www.w3.org/1999/xlink">
<g id="graph0" class="graph" transform="scale(1 1) rotate(0) translate(4 180)">
<title>/home/travis/build/AliceO2Group/AliceO2/Utilities/MCStepLogger/include/MCStepLogger/MCAnalysisFileWrapper.h</title>
<!-- Node1 -->
<g id="node1" class="node"><title>Node1</title>
<polygon fill="#bfbfbf" stroke="black" points="200.5,-112.5 200.5,-175.5 375.5,-175.5 375.5,-112.5 200.5,-112.5"/>
<text text-anchor="start" x="208.5" y="-163.5" font-family="Helvetica,sans-Serif" font-size="10.00">/home/travis/build</text>
<text text-anchor="start" x="208.5" y="-152.5" font-family="Helvetica,sans-Serif" font-size="10.00">/AliceO2Group/AliceO2</text>
<text text-anchor="start" x="208.5" y="-141.5" font-family="Helvetica,sans-Serif" font-size="10.00">/Utilities/MCStepLogger</text>
<text text-anchor="start" x="208.5" y="-130.5" font-family="Helvetica,sans-Serif" font-size="10.00">/include/MCStepLogger/MCAnalysis</text>
<text text-anchor="middle" x="288" y="-119.5" font-family="Helvetica,sans-Serif" font-size="10.00">FileWrapper.h</text>
</g>
<!-- Node2 -->
<g id="node2" class="node"><title>Node2</title>
<polygon fill="none" stroke="#bfbfbf" points="-0.5,-0.5 -0.5,-19.5 40.5,-19.5 40.5,-0.5 -0.5,-0.5"/>
<text text-anchor="middle" x="20" y="-7.5" font-family="Helvetica,sans-Serif" font-size="10.00">string</text>
</g>
<!-- Node1&#45;&gt;Node2 -->
<g id="edge1" class="edge"><title>Node1&#45;&gt;Node2</title>
<path fill="none" stroke="midnightblue" d="M200.41,-131.752C132.977,-121.158 47.5887,-102.869 25,-76 14.4258,-63.4219 14.2374,-44.2038 16.0556,-29.9231"/>
<polygon fill="midnightblue" stroke="midnightblue" points="19.5595,-30.1948 17.7839,-19.7499 12.6584,-29.0224 19.5595,-30.1948"/>
</g>
<!-- Node3 -->
<g id="node3" class="node"><title>Node3</title>
<polygon fill="none" stroke="#bfbfbf" points="158,-0.5 158,-19.5 202,-19.5 202,-0.5 158,-0.5"/>
<text text-anchor="middle" x="180" y="-7.5" font-family="Helvetica,sans-Serif" font-size="10.00">vector</text>
</g>
<!-- Node1&#45;&gt;Node3 -->
<g id="edge2" class="edge"><title>Node1&#45;&gt;Node3</title>
<path fill="none" stroke="midnightblue" d="M248.32,-112.431C236.049,-101.763 223.114,-89.1468 213,-76 201.808,-61.4519 192.706,-42.5256 186.918,-28.8511"/>
<polygon fill="midnightblue" stroke="midnightblue" points="190.159,-27.5294 183.158,-19.5774 183.672,-30.1597 190.159,-27.5294"/>
</g>
<!-- Node4 -->
<g id="node4" class="node"><title>Node4</title>
<polygon fill="none" stroke="#bfbfbf" points="222,-56.5 222,-75.5 274,-75.5 274,-56.5 222,-56.5"/>
<text text-anchor="middle" x="248" y="-63.5" font-family="Helvetica,sans-Serif" font-size="10.00">memory</text>
</g>
<!-- Node1&#45;&gt;Node4 -->
<g id="edge3" class="edge"><title>Node1&#45;&gt;Node4</title>
<path fill="none" stroke="midnightblue" d="M271.73,-112.088C266.81,-102.739 261.577,-92.7959 257.28,-84.6329"/>
<polygon fill="midnightblue" stroke="midnightblue" points="260.343,-82.9372 252.589,-75.7182 254.149,-86.1975 260.343,-82.9372"/>
</g>
<!-- Node5 -->
<g id="node5" class="node"><title>Node5</title>
<polygon fill="none" stroke="#bfbfbf" points="292.5,-56.5 292.5,-75.5 363.5,-75.5 363.5,-56.5 292.5,-56.5"/>
<text text-anchor="middle" x="328" y="-63.5" font-family="Helvetica,sans-Serif" font-size="10.00">FairLogger.h</text>
</g>
<!-- Node1&#45;&gt;Node5 -->
<g id="edge4" class="edge"><title>Node1&#45;&gt;Node5</title>
<path fill="none" stroke="midnightblue" d="M304.27,-112.088C309.19,-102.739 314.423,-92.7959 318.72,-84.6329"/>
<polygon fill="midnightblue" stroke="midnightblue" points="321.851,-86.1975 323.411,-75.7182 315.657,-82.9372 321.851,-86.1975"/>
</g>
<!-- Node6 -->
<g id="node6" class="node"><title>Node6</title>
<g id="a_node6"><a xlink:href="../../d1/dd7/MetaInfo_8h.html" target="_top" xlink:title="MCStepLogger/MetaInfo.h">
<polygon fill="none" stroke="black" points="34.5,-56.5 34.5,-75.5 165.5,-75.5 165.5,-56.5 34.5,-56.5"/>
<text text-anchor="middle" x="100" y="-63.5" font-family="Helvetica,sans-Serif" font-size="10.00">MCStepLogger/MetaInfo.h</text>
</a>
</g>
</g>
<!-- Node1&#45;&gt;Node6 -->
<g id="edge5" class="edge"><title>Node1&#45;&gt;Node6</title>
<path fill="none" stroke="midnightblue" d="M212.346,-112.416C183.855,-100.899 153.025,-88.4356 130.881,-79.4839"/>
<polygon fill="midnightblue" stroke="midnightblue" points="131.941,-76.1371 121.358,-75.6341 129.317,-82.6269 131.941,-76.1371"/>
</g>
<!-- Node8 -->
<g id="node8" class="node"><title>Node8</title>
<polygon fill="none" stroke="#bfbfbf" points="382,-56.5 382,-75.5 426,-75.5 426,-56.5 382,-56.5"/>
<text text-anchor="middle" x="404" y="-63.5" font-family="Helvetica,sans-Serif" font-size="10.00">TH1.h</text>
</g>
<!-- Node1&#45;&gt;Node8 -->
<g id="edge9" class="edge"><title>Node1&#45;&gt;Node8</title>
<path fill="none" stroke="midnightblue" d="M334.847,-112.307C351.298,-101.529 368.993,-89.9357 382.365,-81.1747"/>
<polygon fill="midnightblue" stroke="midnightblue" points="384.417,-84.0146 390.863,-75.6067 380.581,-78.1594 384.417,-84.0146"/>
</g>
<!-- Node9 -->
<g id="node9" class="node"><title>Node9</title>
<polygon fill="none" stroke="#bfbfbf" points="444,-56.5 444,-75.5 488,-75.5 488,-56.5 444,-56.5"/>
<text text-anchor="middle" x="466" y="-63.5" font-family="Helvetica,sans-Serif" font-size="10.00">TH2.h</text>
</g>
<!-- Node1&#45;&gt;Node9 -->
<g id="edge10" class="edge"><title>Node1&#45;&gt;Node9</title>
<path fill="none" stroke="midnightblue" d="M359.63,-112.416C386.484,-100.951 415.533,-88.5478 436.478,-79.6051"/>
<polygon fill="midnightblue" stroke="midnightblue" points="437.956,-82.7797 445.778,-75.6341 435.207,-76.342 437.956,-82.7797"/>
</g>
<!-- Node10 -->
<g id="node10" class="node"><title>Node10</title>
<polygon fill="none" stroke="#bfbfbf" points="506,-56.5 506,-75.5 550,-75.5 550,-56.5 506,-56.5"/>
<text text-anchor="middle" x="528" y="-63.5" font-family="Helvetica,sans-Serif" font-size="10.00">TH3.h</text>
</g>
<!-- Node1&#45;&gt;Node10 -->
<g id="edge11" class="edge"><title>Node1&#45;&gt;Node10</title>
<path fill="none" stroke="midnightblue" d="M375.664,-115.24C417.771,-101.906 465.618,-86.7544 496.271,-77.0475"/>
<polygon fill="midnightblue" stroke="midnightblue" points="497.498,-80.3304 505.974,-73.9748 495.384,-73.657 497.498,-80.3304"/>
</g>
<!-- Node6&#45;&gt;Node2 -->
<g id="edge6" class="edge"><title>Node6&#45;&gt;Node2</title>
<path fill="none" stroke="midnightblue" d="M87.1466,-56.324C74.7836,-47.979 55.8699,-35.2122 41.2628,-25.3524"/>
<polygon fill="midnightblue" stroke="midnightblue" points="43.0682,-22.3483 32.8215,-19.6545 39.1518,-28.1503 43.0682,-22.3483"/>
</g>
<!-- Node6&#45;&gt;Node3 -->
<g id="edge7" class="edge"><title>Node6&#45;&gt;Node3</title>
<path fill="none" stroke="midnightblue" d="M112.853,-56.324C125.216,-47.979 144.13,-35.2122 158.737,-25.3524"/>
<polygon fill="midnightblue" stroke="midnightblue" points="160.848,-28.1503 167.179,-19.6545 156.932,-22.3483 160.848,-28.1503"/>
</g>
<!-- Node7 -->
<g id="node7" class="node"><title>Node7</title>
<polygon fill="none" stroke="#bfbfbf" points="73,-0.5 73,-19.5 127,-19.5 127,-0.5 73,-0.5"/>
<text text-anchor="middle" x="100" y="-7.5" font-family="Helvetica,sans-Serif" font-size="10.00">iostream</text>
</g>
<!-- Node6&#45;&gt;Node7 -->
<g id="edge8" class="edge"><title>Node6&#45;&gt;Node7</title>
<path fill="none" stroke="midnightblue" d="M100,-56.083C100,-49.0059 100,-38.8611 100,-29.9865"/>
<polygon fill="midnightblue" stroke="midnightblue" points="103.5,-29.751 100,-19.7511 96.5001,-29.7511 103.5,-29.751"/>
</g>
</g>
</svg>
