<?xml version="1.0" encoding="UTF-8" standalone="no"?>
<!DOCTYPE svg PUBLIC "-//W3C//DTD SVG 1.1//EN"
 "http://www.w3.org/Graphics/SVG/1.1/DTD/svg11.dtd">
<!-- Generated by graphviz version 2.36.0 (20140111.2315)
 -->
<!-- Title: /home/travis/build/AliceO2Group/AliceO2/Detectors/MUON/MCH/Simulation/src/Materials.cxx Pages: 1 -->
<svg width="1437pt" height="230pt"
 viewBox="0.00 0.00 1437.00 230.00" xmlns="http://www.w3.org/2000/svg" xmlns:xlink="http://www.w3.org/1999/xlink">
<g id="graph0" class="graph" transform="scale(1 1) rotate(0) translate(4 226)">
<title>/home/travis/build/AliceO2Group/AliceO2/Detectors/MUON/MCH/Simulation/src/Materials.cxx</title>
<!-- Node1 -->
<g id="node1" class="node"><title>Node1</title>
<polygon fill="#bfbfbf" stroke="black" points="723.5,-169 723.5,-221 894.5,-221 894.5,-169 723.5,-169"/>
<text text-anchor="start" x="731.5" y="-209" font-family="Helvetica,sans-Serif" font-size="10.00">/home/travis/build</text>
<text text-anchor="start" x="731.5" y="-198" font-family="Helvetica,sans-Serif" font-size="10.00">/AliceO2Group/AliceO2</text>
<text text-anchor="start" x="731.5" y="-187" font-family="Helvetica,sans-Serif" font-size="10.00">/Detectors/MUON/MCH/Simulation</text>
<text text-anchor="middle" x="809" y="-176" font-family="Helvetica,sans-Serif" font-size="10.00">/src/Materials.cxx</text>
</g>
<!-- Node2 -->
<g id="node2" class="node"><title>Node2</title>
<g id="a_node2"><a xlink:href="../../d4/dfa/MCH_2Simulation_2src_2Materials_8h.html" target="_top" xlink:title="Materials.h">
<polygon fill="none" stroke="black" points="361.5,-112.5 361.5,-131.5 426.5,-131.5 426.5,-112.5 361.5,-112.5"/>
<text text-anchor="middle" x="394" y="-119.5" font-family="Helvetica,sans-Serif" font-size="10.00">Materials.h</text>
</a>
</g>
</g>
<!-- Node1&#45;&gt;Node2 -->
<g id="edge1" class="edge"><title>Node1&#45;&gt;Node2</title>
<path fill="none" stroke="midnightblue" d="M723.263,-179.332C636.075,-164.415 504.502,-141.905 437.117,-130.377"/>
<polygon fill="midnightblue" stroke="midnightblue" points="437.317,-126.86 426.869,-128.623 436.136,-133.76 437.317,-126.86"/>
</g>
<!-- Node4 -->
<g id="node4" class="node"><title>Node4</title>
<g id="a_node4"><a xlink:href="../../d1/d3a/Base_2include_2DetectorsBase_2Detector_8h.html" target="_top" xlink:title="DetectorsBase/Detector.h">
<polygon fill="none" stroke="black" points="743.5,-112.5 743.5,-131.5 874.5,-131.5 874.5,-112.5 743.5,-112.5"/>
<text text-anchor="middle" x="809" y="-119.5" font-family="Helvetica,sans-Serif" font-size="10.00">DetectorsBase/Detector.h</text>
</a>
</g>
</g>
<!-- Node1&#45;&gt;Node4 -->
<g id="edge3" class="edge"><title>Node1&#45;&gt;Node4</title>
<path fill="none" stroke="midnightblue" d="M809,-168.768C809,-159.89 809,-150.074 809,-141.816"/>
<polygon fill="midnightblue" stroke="midnightblue" points="812.5,-141.757 809,-131.757 805.5,-141.757 812.5,-141.757"/>
</g>
<!-- Node11 -->
<g id="node11" class="node"><title>Node11</title>
<g id="a_node11"><a xlink:href="../../d0/d9a/MaterialManager_8h.html" target="_top" xlink:title="DetectorsBase/MaterialManager.h">
<polygon fill="none" stroke="black" points="1219.5,-56.5 1219.5,-75.5 1384.5,-75.5 1384.5,-56.5 1219.5,-56.5"/>
<text text-anchor="middle" x="1302" y="-63.5" font-family="Helvetica,sans-Serif" font-size="10.00">DetectorsBase/MaterialManager.h</text>
</a>
</g>
</g>
<!-- Node1&#45;&gt;Node11 -->
<g id="edge24" class="edge"><title>Node1&#45;&gt;Node11</title>
<path fill="none" stroke="midnightblue" d="M894.592,-171.951C1000.76,-144.602 1177.65,-99.0339 1258.85,-78.1156"/>
<polygon fill="midnightblue" stroke="midnightblue" points="1259.92,-81.4542 1268.73,-75.5702 1258.17,-74.6755 1259.92,-81.4542"/>
</g>
<!-- Node3 -->
<g id="node3" class="node"><title>Node3</title>
<polygon fill="none" stroke="#bfbfbf" points="-0.5,-56.5 -0.5,-75.5 82.5,-75.5 82.5,-56.5 -0.5,-56.5"/>
<text text-anchor="middle" x="41" y="-63.5" font-family="Helvetica,sans-Serif" font-size="10.00">TGeoMedium.h</text>
</g>
<!-- Node2&#45;&gt;Node3 -->
<g id="edge2" class="edge"><title>Node2&#45;&gt;Node3</title>
<path fill="none" stroke="midnightblue" d="M361.217,-116.467C307.315,-108.941 196.353,-93.1432 92.7285,-76.2475"/>
<polygon fill="midnightblue" stroke="midnightblue" points="93.1596,-72.7716 82.7254,-74.6093 92.0282,-79.6795 93.1596,-72.7716"/>
</g>
<!-- Node5 -->
<g id="node5" class="node"><title>Node5</title>
<polygon fill="none" stroke="#bfbfbf" points="1155.5,-0.5 1155.5,-19.5 1190.5,-19.5 1190.5,-0.5 1155.5,-0.5"/>
<text text-anchor="middle" x="1173" y="-7.5" font-family="Helvetica,sans-Serif" font-size="10.00">map</text>
</g>
<!-- Node4&#45;&gt;Node5 -->
<g id="edge4" class="edge"><title>Node4&#45;&gt;Node5</title>
<path fill="none" stroke="midnightblue" d="M874.775,-121.487C936.107,-119.542 1028.73,-110.345 1101,-76 1124.65,-64.7613 1146.13,-43.1969 1159.35,-27.9954"/>
<polygon fill="midnightblue" stroke="midnightblue" points="1162.39,-29.8172 1166.14,-19.9064 1157.03,-25.3185 1162.39,-29.8172"/>
</g>
<!-- Node6 -->
<g id="node6" class="node"><title>Node6</title>
<polygon fill="none" stroke="#bfbfbf" points="1049,-56.5 1049,-75.5 1093,-75.5 1093,-56.5 1049,-56.5"/>
<text text-anchor="middle" x="1071" y="-63.5" font-family="Helvetica,sans-Serif" font-size="10.00">vector</text>
</g>
<!-- Node4&#45;&gt;Node6 -->
<g id="edge5" class="edge"><title>Node4&#45;&gt;Node6</title>
<path fill="none" stroke="midnightblue" d="M855.452,-112.432C901.238,-103.827 973.129,-89.8851 1035,-76 1036.27,-75.7143 1037.57,-75.4175 1038.88,-75.1132"/>
<polygon fill="midnightblue" stroke="midnightblue" points="1040.05,-78.4312 1048.96,-72.6906 1038.41,-71.6251 1040.05,-78.4312"/>
</g>
<!-- Node7 -->
<g id="node7" class="node"><title>Node7</title>
<polygon fill="none" stroke="#bfbfbf" points="1050.5,-0.5 1050.5,-19.5 1123.5,-19.5 1123.5,-0.5 1050.5,-0.5"/>
<text text-anchor="middle" x="1087" y="-7.5" font-family="Helvetica,sans-Serif" font-size="10.00">initializer_list</text>
</g>
<!-- Node4&#45;&gt;Node7 -->
<g id="edge6" class="edge"><title>Node4&#45;&gt;Node7</title>
<path fill="none" stroke="midnightblue" d="M874.8,-112.538C912.952,-105.953 961.172,-94.6877 1001,-76 1027.84,-63.4081 1054.39,-41.5154 1070.73,-26.6511"/>
<polygon fill="midnightblue" stroke="midnightblue" points="1073.36,-28.9822 1078.3,-19.6053 1068.59,-23.86 1073.36,-28.9822"/>
</g>
<!-- Node8 -->
<g id="node8" class="node"><title>Node8</title>
<polygon fill="none" stroke="#bfbfbf" points="1149,-56.5 1149,-75.5 1201,-75.5 1201,-56.5 1149,-56.5"/>
<text text-anchor="middle" x="1175" y="-63.5" font-family="Helvetica,sans-Serif" font-size="10.00">memory</text>
</g>
<!-- Node4&#45;&gt;Node8 -->
<g id="edge7" class="edge"><title>Node4&#45;&gt;Node8</title>
<path fill="none" stroke="midnightblue" d="M874.511,-113.601C940.522,-105.759 1045.19,-92.2722 1135,-76 1136.26,-75.7716 1137.54,-75.5308 1138.83,-75.2805"/>
<polygon fill="midnightblue" stroke="midnightblue" points="1139.73,-78.6702 1148.81,-73.2232 1138.31,-71.8143 1139.73,-78.6702"/>
</g>
<!-- Node9 -->
<g id="node9" class="node"><title>Node9</title>
<polygon fill="none" stroke="#bfbfbf" points="100.5,-56.5 100.5,-75.5 179.5,-75.5 179.5,-56.5 100.5,-56.5"/>
<text text-anchor="middle" x="140" y="-63.5" font-family="Helvetica,sans-Serif" font-size="10.00">FairDetector.h</text>
</g>
<!-- Node4&#45;&gt;Node9 -->
<g id="edge8" class="edge"><title>Node4&#45;&gt;Node9</title>
<path fill="none" stroke="midnightblue" d="M743.152,-118.585C631.479,-113.97 397.681,-102.066 189.719,-75.9372"/>
<polygon fill="midnightblue" stroke="midnightblue" points="189.884,-72.4302 179.522,-74.642 189.002,-79.3744 189.884,-72.4302"/>
</g>
<!-- Node10 -->
<g id="node10" class="node"><title>Node10</title>
<polygon fill="none" stroke="#bfbfbf" points="198,-56.5 198,-75.5 298,-75.5 298,-56.5 198,-56.5"/>
<text text-anchor="middle" x="248" y="-63.5" font-family="Helvetica,sans-Serif" font-size="10.00">FairRootManager.h</text>
</g>
<!-- Node4&#45;&gt;Node10 -->
<g id="edge9" class="edge"><title>Node4&#45;&gt;Node10</title>
<path fill="none" stroke="midnightblue" d="M743.482,-116.429C649.478,-109.582 470.671,-95.4832 308.356,-76.0961"/>
<polygon fill="midnightblue" stroke="midnightblue" points="308.53,-72.5918 298.183,-74.8714 307.693,-79.5417 308.53,-72.5918"/>
</g>
<!-- Node4&#45;&gt;Node11 -->
<g id="edge10" class="edge"><title>Node4&#45;&gt;Node11</title>
<path fill="none" stroke="midnightblue" d="M874.721,-113.801C962.073,-104.233 1116.7,-87.297 1214.03,-76.6352"/>
<polygon fill="midnightblue" stroke="midnightblue" points="1214.59,-80.0955 1224.15,-75.5274 1213.83,-73.1371 1214.59,-80.0955"/>
</g>
<!-- Node12 -->
<g id="node12" class="node"><title>Node12</title>
<polygon fill="none" stroke="#bfbfbf" points="1373,-0.5 1373,-19.5 1429,-19.5 1429,-0.5 1373,-0.5"/>
<text text-anchor="middle" x="1401" y="-7.5" font-family="Helvetica,sans-Serif" font-size="10.00">Rtypes.h</text>
</g>
<!-- Node4&#45;&gt;Node12 -->
<g id="edge15" class="edge"><title>Node4&#45;&gt;Node12</title>
<path fill="none" stroke="midnightblue" d="M874.518,-120.534C1019.21,-118.862 1356.17,-111.19 1393,-76 1405.18,-64.3582 1405.94,-44.408 1404.42,-29.6727"/>
<polygon fill="midnightblue" stroke="midnightblue" points="1407.86,-29.0379 1402.96,-19.6451 1400.94,-30.0444 1407.86,-29.0379"/>
</g>
<!-- Node14 -->
<g id="node14" class="node"><title>Node14</title>
<polygon fill="none" stroke="#bfbfbf" points="316.5,-56.5 316.5,-75.5 369.5,-75.5 369.5,-56.5 316.5,-56.5"/>
<text text-anchor="middle" x="343" y="-63.5" font-family="Helvetica,sans-Serif" font-size="10.00">cxxabi.h</text>
</g>
<!-- Node4&#45;&gt;Node14 -->
<g id="edge16" class="edge"><title>Node4&#45;&gt;Node14</title>
<path fill="none" stroke="midnightblue" d="M743.225,-117.163C660.405,-111.656 513.669,-99.6648 379.696,-76.0813"/>
<polygon fill="midnightblue" stroke="midnightblue" points="380.123,-72.6022 369.664,-74.2889 378.892,-79.4931 380.123,-72.6022"/>
</g>
<!-- Node15 -->
<g id="node15" class="node"><title>Node15</title>
<polygon fill="none" stroke="#bfbfbf" points="387.5,-56.5 387.5,-75.5 438.5,-75.5 438.5,-56.5 387.5,-56.5"/>
<text text-anchor="middle" x="413" y="-63.5" font-family="Helvetica,sans-Serif" font-size="10.00">typeinfo</text>
</g>
<!-- Node4&#45;&gt;Node15 -->
<g id="edge17" class="edge"><title>Node4&#45;&gt;Node15</title>
<path fill="none" stroke="midnightblue" d="M743.393,-115.361C672.88,-108.73 557.391,-96.2218 448.38,-75.8337"/>
<polygon fill="midnightblue" stroke="midnightblue" points="449.006,-72.3901 438.529,-73.9661 447.702,-79.2676 449.006,-72.3901"/>
</g>
<!-- Node16 -->
<g id="node16" class="node"><title>Node16</title>
<polygon fill="none" stroke="#bfbfbf" points="457,-56.5 457,-75.5 519,-75.5 519,-56.5 457,-56.5"/>
<text text-anchor="middle" x="488" y="-63.5" font-family="Helvetica,sans-Serif" font-size="10.00">type_traits</text>
</g>
<!-- Node4&#45;&gt;Node16 -->
<g id="edge18" class="edge"><title>Node4&#45;&gt;Node16</title>
<path fill="none" stroke="midnightblue" d="M748.787,-112.47C693.985,-104.455 610.631,-91.6338 529.309,-76.1607"/>
<polygon fill="midnightblue" stroke="midnightblue" points="529.884,-72.7073 519.404,-74.2607 528.566,-79.582 529.884,-72.7073"/>
</g>
<!-- Node17 -->
<g id="node17" class="node"><title>Node17</title>
<polygon fill="none" stroke="#bfbfbf" points="537.5,-56.5 537.5,-75.5 578.5,-75.5 578.5,-56.5 537.5,-56.5"/>
<text text-anchor="middle" x="558" y="-63.5" font-family="Helvetica,sans-Serif" font-size="10.00">string</text>
</g>
<!-- Node4&#45;&gt;Node17 -->
<g id="edge19" class="edge"><title>Node4&#45;&gt;Node17</title>
<path fill="none" stroke="midnightblue" d="M759.738,-112.489C716.742,-104.73 652.513,-92.3426 588.393,-76.1702"/>
<polygon fill="midnightblue" stroke="midnightblue" points="589.077,-72.7326 578.522,-73.6497 587.345,-79.515 589.077,-72.7326"/>
</g>
<!-- Node18 -->
<g id="node18" class="node"><title>Node18</title>
<polygon fill="none" stroke="#bfbfbf" points="596.5,-56.5 596.5,-75.5 689.5,-75.5 689.5,-56.5 596.5,-56.5"/>
<text text-anchor="middle" x="643" y="-63.5" font-family="Helvetica,sans-Serif" font-size="10.00">FairMQChannel.h</text>
</g>
<!-- Node4&#45;&gt;Node18 -->
<g id="edge20" class="edge"><title>Node4&#45;&gt;Node18</title>
<path fill="none" stroke="midnightblue" d="M782.697,-112.444C754.649,-103.32 710.056,-88.8133 678.816,-78.6509"/>
<polygon fill="midnightblue" stroke="midnightblue" points="679.772,-75.2816 669.18,-75.5164 677.607,-81.9383 679.772,-75.2816"/>
</g>
<!-- Node19 -->
<g id="node19" class="node"><title>Node19</title>
<polygon fill="none" stroke="#bfbfbf" points="707.5,-56.5 707.5,-75.5 804.5,-75.5 804.5,-56.5 707.5,-56.5"/>
<text text-anchor="middle" x="756" y="-63.5" font-family="Helvetica,sans-Serif" font-size="10.00">FairMQMessage.h</text>
</g>
<!-- Node4&#45;&gt;Node19 -->
<g id="edge21" class="edge"><title>Node4&#45;&gt;Node19</title>
<path fill="none" stroke="midnightblue" d="M800.248,-112.083C792.53,-104.22 781.095,-92.5688 771.783,-83.0813"/>
<polygon fill="midnightblue" stroke="midnightblue" points="774.092,-80.4363 764.589,-75.7511 769.096,-85.3396 774.092,-80.4363"/>
</g>
<!-- Node20 -->
<g id="node20" class="node"><title>Node20</title>
<polygon fill="none" stroke="#bfbfbf" points="823,-56.5 823,-75.5 903,-75.5 903,-56.5 823,-56.5"/>
<text text-anchor="middle" x="863" y="-63.5" font-family="Helvetica,sans-Serif" font-size="10.00">FairMQParts.h</text>
</g>
<!-- Node4&#45;&gt;Node20 -->
<g id="edge22" class="edge"><title>Node4&#45;&gt;Node20</title>
<path fill="none" stroke="midnightblue" d="M817.917,-112.083C825.78,-104.22 837.431,-92.5688 846.919,-83.0813"/>
<polygon fill="midnightblue" stroke="midnightblue" points="849.653,-85.2971 854.249,-75.7511 844.703,-80.3473 849.653,-85.2971"/>
</g>
<!-- Node21 -->
<g id="node21" class="node"><title>Node21</title>
<polygon fill="none" stroke="#bfbfbf" points="921.5,-56.5 921.5,-75.5 992.5,-75.5 992.5,-56.5 921.5,-56.5"/>
<text text-anchor="middle" x="957" y="-63.5" font-family="Helvetica,sans-Serif" font-size="10.00">TMessage.h</text>
</g>
<!-- Node4&#45;&gt;Node21 -->
<g id="edge23" class="edge"><title>Node4&#45;&gt;Node21</title>
<path fill="none" stroke="midnightblue" d="M832.451,-112.444C857.133,-103.438 896.185,-89.1891 923.977,-79.049"/>
<polygon fill="midnightblue" stroke="midnightblue" points="925.464,-82.2321 933.659,-75.5164 923.065,-75.6561 925.464,-82.2321"/>
</g>
<!-- Node11&#45;&gt;Node5 -->
<g id="edge12" class="edge"><title>Node11&#45;&gt;Node5</title>
<path fill="none" stroke="midnightblue" d="M1281.56,-56.4435C1259.58,-47.2429 1224.53,-32.5691 1200.22,-22.3957"/>
<polygon fill="midnightblue" stroke="midnightblue" points="1201.43,-19.1059 1190.85,-18.473 1198.73,-25.563 1201.43,-19.1059"/>
</g>
<!-- Node11&#45;&gt;Node7 -->
<g id="edge14" class="edge"><title>Node11&#45;&gt;Node7</title>
<path fill="none" stroke="midnightblue" d="M1267.93,-56.4435C1230.82,-47.1221 1171.34,-32.1828 1130.79,-21.9972"/>
<polygon fill="midnightblue" stroke="midnightblue" points="1131.46,-18.5579 1120.91,-19.5164 1129.75,-25.347 1131.46,-18.5579"/>
</g>
<!-- Node11&#45;&gt;Node12 -->
<g id="edge11" class="edge"><title>Node11&#45;&gt;Node12</title>
<path fill="none" stroke="midnightblue" d="M1317.91,-56.324C1333.64,-47.7428 1357.94,-34.486 1376.21,-24.5224"/>
<polygon fill="midnightblue" stroke="midnightblue" points="1378.03,-27.5157 1385.13,-19.6545 1374.68,-21.3704 1378.03,-27.5157"/>
</g>
<!-- Node13 -->
<g id="node13" class="node"><title>Node13</title>
<polygon fill="none" stroke="#bfbfbf" points="1260.5,-0.5 1260.5,-19.5 1343.5,-19.5 1343.5,-0.5 1260.5,-0.5"/>
<text text-anchor="middle" x="1302" y="-7.5" font-family="Helvetica,sans-Serif" font-size="10.00">unordered_map</text>
</g>
<!-- Node11&#45;&gt;Node13 -->
<g id="edge13" class="edge"><title>Node11&#45;&gt;Node13</title>
<path fill="none" stroke="midnightblue" d="M1302,-56.083C1302,-49.0059 1302,-38.8611 1302,-29.9865"/>
<polygon fill="midnightblue" stroke="midnightblue" points="1305.5,-29.751 1302,-19.7511 1298.5,-29.7511 1305.5,-29.751"/>
</g>
</g>
</svg>
