<?xml version="1.0" encoding="UTF-8" standalone="no"?>
<!DOCTYPE svg PUBLIC "-//W3C//DTD SVG 1.1//EN"
 "http://www.w3.org/Graphics/SVG/1.1/DTD/svg11.dtd">
<!-- Generated by graphviz version 2.36.0 (20140111.2315)
 -->
<!-- Title: /home/travis/build/AliceO2Group/AliceO2/Detectors/MUON/MID/Base/include/MIDBase/HitFinder.h Pages: 1 -->
<svg width="1363pt" height="322pt"
 viewBox="0.00 0.00 1363.00 322.00" xmlns="http://www.w3.org/2000/svg" xmlns:xlink="http://www.w3.org/1999/xlink">
<g id="graph0" class="graph" transform="scale(1 1) rotate(0) translate(4 318)">
<title>/home/travis/build/AliceO2Group/AliceO2/Detectors/MUON/MID/Base/include/MIDBase/HitFinder.h</title>
<!-- Node1 -->
<g id="node1" class="node"><title>Node1</title>
<polygon fill="#bfbfbf" stroke="black" points="789,-261 789,-313 935,-313 935,-261 789,-261"/>
<text text-anchor="start" x="797" y="-301" font-family="Helvetica,sans-Serif" font-size="10.00">/home/travis/build</text>
<text text-anchor="start" x="797" y="-290" font-family="Helvetica,sans-Serif" font-size="10.00">/AliceO2Group/AliceO2</text>
<text text-anchor="start" x="797" y="-279" font-family="Helvetica,sans-Serif" font-size="10.00">/Detectors/MUON/MID/Base</text>
<text text-anchor="middle" x="862" y="-268" font-family="Helvetica,sans-Serif" font-size="10.00">/include/MIDBase/HitFinder.h</text>
</g>
<!-- Node2 -->
<g id="node2" class="node"><title>Node2</title>
<g id="a_node2"><a xlink:href="../../dd/d76/Cartesian3D_8h.html" target="_top" xlink:title="MathUtils/Cartesian3D.h">
<polygon fill="none" stroke="black" points="721.5,-142.5 721.5,-161.5 846.5,-161.5 846.5,-142.5 721.5,-142.5"/>
<text text-anchor="middle" x="784" y="-149.5" font-family="Helvetica,sans-Serif" font-size="10.00">MathUtils/Cartesian3D.h</text>
</a>
</g>
</g>
<!-- Node1&#45;&gt;Node2 -->
<g id="edge1" class="edge"><title>Node1&#45;&gt;Node2</title>
<path fill="none" stroke="midnightblue" d="M788.638,-278.326C753.59,-270.551 714.65,-255.004 693,-224 675.013,-198.242 713.189,-177.404 745.482,-165.121"/>
<polygon fill="midnightblue" stroke="midnightblue" points="747.034,-168.281 755.247,-161.587 744.652,-161.699 747.034,-168.281"/>
</g>
<!-- Node14 -->
<g id="node14" class="node"><title>Node14</title>
<g id="a_node14"><a xlink:href="../../d4/d54/DataFormats_2Detectors_2MUON_2MID_2include_2DataFormatsMID_2Track_8h.html" target="_top" xlink:title="Reconstructed MID track. ">
<polygon fill="none" stroke="black" points="1016,-204.5 1016,-223.5 1144,-223.5 1144,-204.5 1016,-204.5"/>
<text text-anchor="middle" x="1080" y="-211.5" font-family="Helvetica,sans-Serif" font-size="10.00">DataFormatsMID/Track.h</text>
</a>
</g>
</g>
<!-- Node1&#45;&gt;Node14 -->
<g id="edge13" class="edge"><title>Node1&#45;&gt;Node14</title>
<path fill="none" stroke="midnightblue" d="M935.197,-262.161C971.822,-250.232 1014.51,-236.328 1044.01,-226.723"/>
<polygon fill="midnightblue" stroke="midnightblue" points="1045.43,-229.94 1053.86,-223.515 1043.26,-223.284 1045.43,-229.94"/>
</g>
<!-- Node19 -->
<g id="node19" class="node"><title>Node19</title>
<g id="a_node19"><a xlink:href="../../de/d0c/GeometryTransformer_8h.html" target="_top" xlink:title="Geometry transformer for MID. ">
<polygon fill="none" stroke="black" points="702,-204.5 702,-223.5 866,-223.5 866,-204.5 702,-204.5"/>
<text text-anchor="middle" x="784" y="-211.5" font-family="Helvetica,sans-Serif" font-size="10.00">MIDBase/GeometryTransformer.h</text>
</a>
</g>
</g>
<!-- Node1&#45;&gt;Node19 -->
<g id="edge19" class="edge"><title>Node1&#45;&gt;Node19</title>
<path fill="none" stroke="midnightblue" d="M834.28,-260.768C823.197,-250.679 810.783,-239.379 801.063,-230.532"/>
<polygon fill="midnightblue" stroke="midnightblue" points="803.372,-227.9 793.621,-223.757 798.66,-233.077 803.372,-227.9"/>
</g>
<!-- Node20 -->
<g id="node20" class="node"><title>Node20</title>
<g id="a_node20"><a xlink:href="../../dd/df0/Detectors_2MUON_2MID_2Base_2include_2MIDBase_2Constants_8h.html" target="_top" xlink:title="Useful constants for MID. ">
<polygon fill="none" stroke="black" points="884,-204.5 884,-223.5 998,-223.5 998,-204.5 884,-204.5"/>
<text text-anchor="middle" x="941" y="-211.5" font-family="Helvetica,sans-Serif" font-size="10.00">MIDBase/Constants.h</text>
</a>
</g>
</g>
<!-- Node1&#45;&gt;Node20 -->
<g id="edge22" class="edge"><title>Node1&#45;&gt;Node20</title>
<path fill="none" stroke="midnightblue" d="M890.075,-260.768C901.301,-250.679 913.874,-239.379 923.718,-230.532"/>
<polygon fill="midnightblue" stroke="midnightblue" points="926.158,-233.045 931.256,-223.757 921.479,-227.838 926.158,-233.045"/>
</g>
<!-- Node3 -->
<g id="node3" class="node"><title>Node3</title>
<polygon fill="none" stroke="#bfbfbf" points="-0.5,-69 -0.5,-99 150.5,-99 150.5,-69 -0.5,-69"/>
<text text-anchor="start" x="7.5" y="-87" font-family="Helvetica,sans-Serif" font-size="10.00">Math/GenVector/Displacement</text>
<text text-anchor="middle" x="75" y="-76" font-family="Helvetica,sans-Serif" font-size="10.00">Vector3D.h</text>
</g>
<!-- Node2&#45;&gt;Node3 -->
<g id="edge2" class="edge"><title>Node2&#45;&gt;Node3</title>
<path fill="none" stroke="midnightblue" d="M721.357,-147.815C610.457,-141.754 372.155,-126.826 160.981,-100.048"/>
<polygon fill="midnightblue" stroke="midnightblue" points="161.31,-96.5612 150.946,-98.7634 160.421,-103.505 161.31,-96.5612"/>
</g>
<!-- Node4 -->
<g id="node4" class="node"><title>Node4</title>
<polygon fill="none" stroke="#bfbfbf" points="169,-74.5 169,-93.5 345,-93.5 345,-74.5 169,-74.5"/>
<text text-anchor="middle" x="257" y="-81.5" font-family="Helvetica,sans-Serif" font-size="10.00">Math/GenVector/PositionVector3D.h</text>
</g>
<!-- Node2&#45;&gt;Node4 -->
<g id="edge3" class="edge"><title>Node2&#45;&gt;Node4</title>
<path fill="none" stroke="midnightblue" d="M721.453,-144.337C637.513,-135.227 483.822,-117.954 353,-100 342.124,-98.5074 330.574,-96.8043 319.395,-95.0942"/>
<polygon fill="midnightblue" stroke="midnightblue" points="319.68,-91.5968 309.263,-93.5275 318.611,-98.5146 319.68,-91.5968"/>
</g>
<!-- Node5 -->
<g id="node5" class="node"><title>Node5</title>
<polygon fill="none" stroke="#bfbfbf" points="362.5,-74.5 362.5,-93.5 511.5,-93.5 511.5,-74.5 362.5,-74.5"/>
<text text-anchor="middle" x="437" y="-81.5" font-family="Helvetica,sans-Serif" font-size="10.00">Math/GenVector/Rotation3D.h</text>
</g>
<!-- Node2&#45;&gt;Node5 -->
<g id="edge4" class="edge"><title>Node2&#45;&gt;Node5</title>
<path fill="none" stroke="midnightblue" d="M738.992,-142.439C675.676,-130.396 560.419,-108.475 492.07,-95.4745"/>
<polygon fill="midnightblue" stroke="midnightblue" points="492.407,-91.9758 481.929,-93.5455 491.099,-98.8525 492.407,-91.9758"/>
</g>
<!-- Node6 -->
<g id="node6" class="node"><title>Node6</title>
<polygon fill="none" stroke="#bfbfbf" points="530,-74.5 530,-93.5 686,-93.5 686,-74.5 530,-74.5"/>
<text text-anchor="middle" x="608" y="-81.5" font-family="Helvetica,sans-Serif" font-size="10.00">Math/GenVector/Transform3D.h</text>
</g>
<!-- Node2&#45;&gt;Node6 -->
<g id="edge5" class="edge"><title>Node2&#45;&gt;Node6</title>
<path fill="none" stroke="midnightblue" d="M760.991,-142.372C730.206,-130.827 675.447,-110.293 640.472,-97.1772"/>
<polygon fill="midnightblue" stroke="midnightblue" points="641.328,-93.76 630.736,-93.5259 638.87,-100.314 641.328,-93.76"/>
</g>
<!-- Node7 -->
<g id="node7" class="node"><title>Node7</title>
<polygon fill="none" stroke="#bfbfbf" points="704,-74.5 704,-93.5 864,-93.5 864,-74.5 704,-74.5"/>
<text text-anchor="middle" x="784" y="-81.5" font-family="Helvetica,sans-Serif" font-size="10.00">Math/GenVector/Translation3D.h</text>
</g>
<!-- Node2&#45;&gt;Node7 -->
<g id="edge6" class="edge"><title>Node2&#45;&gt;Node7</title>
<path fill="none" stroke="midnightblue" d="M784,-142.372C784,-132.643 784,-116.528 784,-103.85"/>
<polygon fill="midnightblue" stroke="midnightblue" points="787.5,-103.841 784,-93.8411 780.5,-103.841 787.5,-103.841"/>
</g>
<!-- Node8 -->
<g id="node8" class="node"><title>Node8</title>
<polygon fill="none" stroke="#bfbfbf" points="882,-74.5 882,-93.5 938,-93.5 938,-74.5 882,-74.5"/>
<text text-anchor="middle" x="910" y="-81.5" font-family="Helvetica,sans-Serif" font-size="10.00">Rtypes.h</text>
</g>
<!-- Node2&#45;&gt;Node8 -->
<g id="edge7" class="edge"><title>Node2&#45;&gt;Node8</title>
<path fill="none" stroke="midnightblue" d="M800.472,-142.372C821.885,-131.156 859.499,-111.453 884.583,-98.3136"/>
<polygon fill="midnightblue" stroke="midnightblue" points="886.289,-101.371 893.524,-93.6305 883.041,-95.1702 886.289,-101.371"/>
</g>
<!-- Node9 -->
<g id="node9" class="node"><title>Node9</title>
<polygon fill="none" stroke="#bfbfbf" points="956,-74.5 956,-93.5 1032,-93.5 1032,-74.5 956,-74.5"/>
<text text-anchor="middle" x="994" y="-81.5" font-family="Helvetica,sans-Serif" font-size="10.00">TGeoMatrix.h</text>
</g>
<!-- Node2&#45;&gt;Node9 -->
<g id="edge8" class="edge"><title>Node2&#45;&gt;Node9</title>
<path fill="none" stroke="midnightblue" d="M811.454,-142.372C848.737,-130.654 915.493,-109.674 957.119,-96.5912"/>
<polygon fill="midnightblue" stroke="midnightblue" points="958.382,-99.8632 966.872,-93.5259 956.283,-93.1852 958.382,-99.8632"/>
</g>
<!-- Node10 -->
<g id="node10" class="node"><title>Node10</title>
<polygon fill="none" stroke="#bfbfbf" points="1050.5,-74.5 1050.5,-93.5 1095.5,-93.5 1095.5,-74.5 1050.5,-74.5"/>
<text text-anchor="middle" x="1073" y="-81.5" font-family="Helvetica,sans-Serif" font-size="10.00">iosfwd</text>
</g>
<!-- Node2&#45;&gt;Node10 -->
<g id="edge9" class="edge"><title>Node2&#45;&gt;Node10</title>
<path fill="none" stroke="midnightblue" d="M846.616,-142.914C899.336,-135.083 976.278,-121.241 1041,-100 1043.13,-99.3005 1045.31,-98.4948 1047.47,-97.6275"/>
<polygon fill="midnightblue" stroke="midnightblue" points="1048.96,-100.798 1056.7,-93.5696 1046.14,-94.3892 1048.96,-100.798"/>
</g>
<!-- Node11 -->
<g id="node11" class="node"><title>Node11</title>
<g id="a_node11"><a xlink:href="../../d2/dd0/Cartesian2D_8h.html" target="_top" xlink:title="MathUtils/Cartesian2D.h">
<polygon fill="none" stroke="black" points="1113.5,-74.5 1113.5,-93.5 1238.5,-93.5 1238.5,-74.5 1113.5,-74.5"/>
<text text-anchor="middle" x="1176" y="-81.5" font-family="Helvetica,sans-Serif" font-size="10.00">MathUtils/Cartesian2D.h</text>
</a>
</g>
</g>
<!-- Node2&#45;&gt;Node11 -->
<g id="edge10" class="edge"><title>Node2&#45;&gt;Node11</title>
<path fill="none" stroke="midnightblue" d="M842.828,-142.478C907.129,-132.964 1013.12,-116.699 1104,-100 1111.42,-98.6362 1119.25,-97.1026 1126.91,-95.5504"/>
<polygon fill="midnightblue" stroke="midnightblue" points="1127.74,-98.9537 1136.83,-93.5117 1126.33,-92.097 1127.74,-98.9537"/>
</g>
<!-- Node12 -->
<g id="node12" class="node"><title>Node12</title>
<polygon fill="none" stroke="#bfbfbf" points="1009.5,-1 1009.5,-31 1160.5,-31 1160.5,-1 1009.5,-1"/>
<text text-anchor="start" x="1017.5" y="-19" font-family="Helvetica,sans-Serif" font-size="10.00">Math/GenVector/Displacement</text>
<text text-anchor="middle" x="1085" y="-8" font-family="Helvetica,sans-Serif" font-size="10.00">Vector2D.h</text>
</g>
<!-- Node11&#45;&gt;Node12 -->
<g id="edge11" class="edge"><title>Node11&#45;&gt;Node12</title>
<path fill="none" stroke="midnightblue" d="M1164.1,-74.3717C1151.22,-65.0286 1130.22,-49.7966 1113.09,-37.375"/>
<polygon fill="midnightblue" stroke="midnightblue" points="1114.7,-34.2194 1104.55,-31.1815 1110.59,-39.8859 1114.7,-34.2194"/>
</g>
<!-- Node13 -->
<g id="node13" class="node"><title>Node13</title>
<polygon fill="none" stroke="#bfbfbf" points="1179,-6.5 1179,-25.5 1355,-25.5 1355,-6.5 1179,-6.5"/>
<text text-anchor="middle" x="1267" y="-13.5" font-family="Helvetica,sans-Serif" font-size="10.00">Math/GenVector/PositionVector2D.h</text>
</g>
<!-- Node11&#45;&gt;Node13 -->
<g id="edge12" class="edge"><title>Node11&#45;&gt;Node13</title>
<path fill="none" stroke="midnightblue" d="M1187.9,-74.3717C1202.88,-63.5015 1228.86,-44.6602 1246.94,-31.5474"/>
<polygon fill="midnightblue" stroke="midnightblue" points="1249.06,-34.3349 1255.1,-25.6305 1244.95,-28.6684 1249.06,-34.3349"/>
</g>
<!-- Node14&#45;&gt;Node2 -->
<g id="edge18" class="edge"><title>Node14&#45;&gt;Node2</title>
<path fill="none" stroke="midnightblue" d="M1037.9,-204.467C984.754,-193.693 893.334,-175.162 835.91,-163.522"/>
<polygon fill="midnightblue" stroke="midnightblue" points="836.446,-160.06 825.95,-161.503 835.055,-166.92 836.446,-160.06"/>
</g>
<!-- Node15 -->
<g id="node15" class="node"><title>Node15</title>
<polygon fill="none" stroke="#bfbfbf" points="913,-142.5 913,-161.5 951,-161.5 951,-142.5 913,-142.5"/>
<text text-anchor="middle" x="932" y="-149.5" font-family="Helvetica,sans-Serif" font-size="10.00">array</text>
</g>
<!-- Node14&#45;&gt;Node15 -->
<g id="edge14" class="edge"><title>Node14&#45;&gt;Node15</title>
<path fill="none" stroke="midnightblue" d="M1054.32,-204.482C1029.74,-196.072 991.821,-182.413 960,-168 958.813,-167.462 957.607,-166.896 956.395,-166.312"/>
<polygon fill="midnightblue" stroke="midnightblue" points="957.718,-163.057 947.22,-161.627 954.534,-169.291 957.718,-163.057"/>
</g>
<!-- Node16 -->
<g id="node16" class="node"><title>Node16</title>
<polygon fill="none" stroke="#bfbfbf" points="969,-142.5 969,-161.5 1021,-161.5 1021,-142.5 969,-142.5"/>
<text text-anchor="middle" x="995" y="-149.5" font-family="Helvetica,sans-Serif" font-size="10.00">ostream</text>
</g>
<!-- Node14&#45;&gt;Node16 -->
<g id="edge15" class="edge"><title>Node14&#45;&gt;Node16</title>
<path fill="none" stroke="midnightblue" d="M1067.82,-204.403C1054.19,-194.78 1031.87,-179.024 1015.53,-167.489"/>
<polygon fill="midnightblue" stroke="midnightblue" points="1017.34,-164.488 1007.16,-161.581 1013.31,-170.207 1017.34,-164.488"/>
</g>
<!-- Node17 -->
<g id="node17" class="node"><title>Node17</title>
<polygon fill="none" stroke="#bfbfbf" points="1039.5,-137 1039.5,-167 1136.5,-167 1136.5,-137 1039.5,-137"/>
<text text-anchor="start" x="1047.5" y="-155" font-family="Helvetica,sans-Serif" font-size="10.00">boost/serialization</text>
<text text-anchor="middle" x="1088" y="-144" font-family="Helvetica,sans-Serif" font-size="10.00">/split_member.hpp</text>
</g>
<!-- Node14&#45;&gt;Node17 -->
<g id="edge16" class="edge"><title>Node14&#45;&gt;Node17</title>
<path fill="none" stroke="midnightblue" d="M1081.15,-204.403C1082.1,-197.265 1083.5,-186.752 1084.79,-177.09"/>
<polygon fill="midnightblue" stroke="midnightblue" points="1088.26,-177.516 1086.11,-167.141 1081.32,-176.59 1088.26,-177.516"/>
</g>
<!-- Node18 -->
<g id="node18" class="node"><title>Node18</title>
<polygon fill="none" stroke="#bfbfbf" points="1154.5,-137 1154.5,-167 1249.5,-167 1249.5,-137 1154.5,-137"/>
<text text-anchor="start" x="1162.5" y="-155" font-family="Helvetica,sans-Serif" font-size="10.00">boost/serialization</text>
<text text-anchor="middle" x="1202" y="-144" font-family="Helvetica,sans-Serif" font-size="10.00">/array.hpp</text>
</g>
<!-- Node14&#45;&gt;Node18 -->
<g id="edge17" class="edge"><title>Node14&#45;&gt;Node18</title>
<path fill="none" stroke="midnightblue" d="M1097.48,-204.403C1114.77,-195.898 1141.81,-182.602 1164.05,-171.663"/>
<polygon fill="midnightblue" stroke="midnightblue" points="1165.82,-174.695 1173.25,-167.141 1162.73,-168.413 1165.82,-174.695"/>
</g>
<!-- Node19&#45;&gt;Node2 -->
<g id="edge21" class="edge"><title>Node19&#45;&gt;Node2</title>
<path fill="none" stroke="midnightblue" d="M784,-204.403C784,-195.938 784,-182.728 784,-171.82"/>
<polygon fill="midnightblue" stroke="midnightblue" points="787.5,-171.581 784,-161.581 780.5,-171.581 787.5,-171.581"/>
</g>
<!-- Node19&#45;&gt;Node15 -->
<g id="edge20" class="edge"><title>Node19&#45;&gt;Node15</title>
<path fill="none" stroke="midnightblue" d="M805.205,-204.403C830.944,-193.969 874.465,-176.325 903.217,-164.669"/>
<polygon fill="midnightblue" stroke="midnightblue" points="904.766,-167.818 912.718,-160.817 902.136,-161.331 904.766,-167.818"/>
</g>
<!-- Node20&#45;&gt;Node15 -->
<g id="edge23" class="edge"><title>Node20&#45;&gt;Node15</title>
<path fill="none" stroke="midnightblue" d="M939.711,-204.403C938.427,-195.849 936.417,-182.45 934.771,-171.476"/>
<polygon fill="midnightblue" stroke="midnightblue" points="938.232,-170.951 933.287,-161.581 931.309,-171.989 938.232,-170.951"/>
</g>
</g>
</svg>
