<?xml version="1.0" encoding="UTF-8" standalone="no"?>
<!DOCTYPE svg PUBLIC "-//W3C//DTD SVG 1.1//EN"
 "http://www.w3.org/Graphics/SVG/1.1/DTD/svg11.dtd">
<!-- Generated by graphviz version 2.36.0 (20140111.2315)
 -->
<!-- Title: o2::tof::MCLabel Pages: 1 -->
<svg width="184pt" height="532pt"
 viewBox="0.00 0.00 184.00 532.00" xmlns="http://www.w3.org/2000/svg" xmlns:xlink="http://www.w3.org/1999/xlink">
<g id="graph0" class="graph" transform="scale(1 1) rotate(0) translate(4 528)">
<title>o2::tof::MCLabel</title>
<!-- Node1 -->
<g id="node1" class="node"><title>Node1</title>
<polygon fill="#bfbfbf" stroke="black" points="31.5,-0.5 31.5,-79.5 120.5,-79.5 120.5,-0.5 31.5,-0.5"/>
<text text-anchor="middle" x="76" y="-67.5" font-family="Helvetica,sans-Serif" font-size="10.00">o2::tof::MCLabel</text>
<polyline fill="none" stroke="black" points="31.5,-60.5 120.5,-60.5 "/>
<text text-anchor="middle" x="76" y="-48.5" font-family="Helvetica,sans-Serif" font-size="10.00"> </text>
<polyline fill="none" stroke="black" points="31.5,-41.5 120.5,-41.5 "/>
<text text-anchor="start" x="39.5" y="-29.5" font-family="Helvetica,sans-Serif" font-size="10.00">+ MCLabel()</text>
<text text-anchor="start" x="39.5" y="-18.5" font-family="Helvetica,sans-Serif" font-size="10.00">+ MCLabel()</text>
<text text-anchor="start" x="39.5" y="-7.5" font-family="Helvetica,sans-Serif" font-size="10.00">+ getTDC()</text>
</g>
<!-- Node2 -->
<g id="node2" class="node"><title>Node2</title>
<g id="a_node2"><a xlink:href="../../de/def/classo2_1_1MCCompLabel.html" target="_top" xlink:title="{o2::MCCompLabel\n||+ MCCompLabel()\l+ MCCompLabel()\l+ ~MCCompLabel()\l+ isSet()\l+ isEmpty()\l+ isPosTrackID()\l+ compare()\l+ operator ULong64_t()\l+ operator==()\l+ unset()\l+ set()\l+ getTrackID()\l+ getEventID()\l+ getSourceID()\l+ get()\l+ print()\l+ ClassDefNV()\l+ maxSourceID()\l+ maxEventID()\l+ maxTrackID()\l}">
<polygon fill="none" stroke="black" points="17.5,-119 17.5,-385 134.5,-385 134.5,-119 17.5,-119"/>
<text text-anchor="middle" x="76" y="-373" font-family="Helvetica,sans-Serif" font-size="10.00">o2::MCCompLabel</text>
<polyline fill="none" stroke="black" points="17.5,-366 134.5,-366 "/>
<text text-anchor="middle" x="76" y="-354" font-family="Helvetica,sans-Serif" font-size="10.00"> </text>
<polyline fill="none" stroke="black" points="17.5,-347 134.5,-347 "/>
<text text-anchor="start" x="25.5" y="-335" font-family="Helvetica,sans-Serif" font-size="10.00">+ MCCompLabel()</text>
<text text-anchor="start" x="25.5" y="-324" font-family="Helvetica,sans-Serif" font-size="10.00">+ MCCompLabel()</text>
<text text-anchor="start" x="25.5" y="-313" font-family="Helvetica,sans-Serif" font-size="10.00">+ ~MCCompLabel()</text>
<text text-anchor="start" x="25.5" y="-302" font-family="Helvetica,sans-Serif" font-size="10.00">+ isSet()</text>
<text text-anchor="start" x="25.5" y="-291" font-family="Helvetica,sans-Serif" font-size="10.00">+ isEmpty()</text>
<text text-anchor="start" x="25.5" y="-280" font-family="Helvetica,sans-Serif" font-size="10.00">+ isPosTrackID()</text>
<text text-anchor="start" x="25.5" y="-269" font-family="Helvetica,sans-Serif" font-size="10.00">+ compare()</text>
<text text-anchor="start" x="25.5" y="-258" font-family="Helvetica,sans-Serif" font-size="10.00">+ operator ULong64_t()</text>
<text text-anchor="start" x="25.5" y="-247" font-family="Helvetica,sans-Serif" font-size="10.00">+ operator==()</text>
<text text-anchor="start" x="25.5" y="-236" font-family="Helvetica,sans-Serif" font-size="10.00">+ unset()</text>
<text text-anchor="start" x="25.5" y="-225" font-family="Helvetica,sans-Serif" font-size="10.00">+ set()</text>
<text text-anchor="start" x="25.5" y="-214" font-family="Helvetica,sans-Serif" font-size="10.00">+ getTrackID()</text>
<text text-anchor="start" x="25.5" y="-203" font-family="Helvetica,sans-Serif" font-size="10.00">+ getEventID()</text>
<text text-anchor="start" x="25.5" y="-192" font-family="Helvetica,sans-Serif" font-size="10.00">+ getSourceID()</text>
<text text-anchor="start" x="25.5" y="-181" font-family="Helvetica,sans-Serif" font-size="10.00">+ get()</text>
<text text-anchor="start" x="25.5" y="-170" font-family="Helvetica,sans-Serif" font-size="10.00">+ print()</text>
<text text-anchor="start" x="25.5" y="-159" font-family="Helvetica,sans-Serif" font-size="10.00">+ ClassDefNV()</text>
<text text-anchor="start" x="25.5" y="-148" font-family="Helvetica,sans-Serif" font-size="10.00">+ maxSourceID()</text>
<text text-anchor="start" x="25.5" y="-137" font-family="Helvetica,sans-Serif" font-size="10.00">+ maxEventID()</text>
<text text-anchor="start" x="25.5" y="-126" font-family="Helvetica,sans-Serif" font-size="10.00">+ maxTrackID()</text>
</a>
</g>
</g>
<!-- Node2&#45;&gt;Node1 -->
<g id="edge1" class="edge"><title>Node2&#45;&gt;Node1</title>
<path fill="none" stroke="midnightblue" d="M76,-108.771C76,-98.3702 76,-88.5295 76,-79.7371"/>
<polygon fill="none" stroke="midnightblue" points="72.5001,-108.898 76,-118.898 79.5001,-108.898 72.5001,-108.898"/>
</g>
<!-- Node3 -->
<g id="node3" class="node"><title>Node3</title>
<polygon fill="none" stroke="#bfbfbf" points="0,-466.5 0,-523.5 64,-523.5 64,-466.5 0,-466.5"/>
<text text-anchor="middle" x="32" y="-511.5" font-family="Helvetica,sans-Serif" font-size="10.00">ULong64_t</text>
<polyline fill="none" stroke="#bfbfbf" points="0,-504.5 64,-504.5 "/>
<text text-anchor="middle" x="32" y="-492.5" font-family="Helvetica,sans-Serif" font-size="10.00"> </text>
<polyline fill="none" stroke="#bfbfbf" points="0,-485.5 64,-485.5 "/>
<text text-anchor="middle" x="32" y="-473.5" font-family="Helvetica,sans-Serif" font-size="10.00"> </text>
</g>
<!-- Node3&#45;&gt;Node2 -->
<g id="edge2" class="edge"><title>Node3&#45;&gt;Node2</title>
<path fill="none" stroke="#404040" d="M30.4138,-466.28C29.8568,-448.409 29.9897,-424.721 33,-404 33.338,-401.673 33.702,-399.332 34.0899,-396.98"/>
<polygon fill="none" stroke="#404040" points="34.0944,-396.955 31.2198,-390.341 36.2188,-385.144 39.0934,-391.758 34.0944,-396.955"/>
<text text-anchor="middle" x="66" y="-440" font-family="Helvetica,sans-Serif" font-size="10.00"> +maskFull</text>
<text text-anchor="middle" x="66" y="-429" font-family="Helvetica,sans-Serif" font-size="10.00">+maskSrcID</text>
<text text-anchor="middle" x="66" y="-418" font-family="Helvetica,sans-Serif" font-size="10.00">+maskEvID</text>
<text text-anchor="middle" x="66" y="-407" font-family="Helvetica,sans-Serif" font-size="10.00">+maskTrackID</text>
</g>
<!-- Node4 -->
<g id="node4" class="node"><title>Node4</title>
<polygon fill="none" stroke="#bfbfbf" points="106.5,-466.5 106.5,-523.5 135.5,-523.5 135.5,-466.5 106.5,-466.5"/>
<text text-anchor="middle" x="121" y="-511.5" font-family="Helvetica,sans-Serif" font-size="10.00">int</text>
<polyline fill="none" stroke="#bfbfbf" points="106.5,-504.5 135.5,-504.5 "/>
<text text-anchor="middle" x="121" y="-492.5" font-family="Helvetica,sans-Serif" font-size="10.00"> </text>
<polyline fill="none" stroke="#bfbfbf" points="106.5,-485.5 135.5,-485.5 "/>
<text text-anchor="middle" x="121" y="-473.5" font-family="Helvetica,sans-Serif" font-size="10.00"> </text>
</g>
<!-- Node4&#45;&gt;Node2 -->
<g id="edge3" class="edge"><title>Node4&#45;&gt;Node2</title>
<path fill="none" stroke="#404040" d="M115.838,-466.354C112.49,-448.422 107.841,-423.529 102.899,-397.057"/>
<polygon fill="none" stroke="#404040" points="102.891,-397.015 97.8575,-391.851 100.688,-385.219 105.722,-390.383 102.891,-397.015"/>
<text text-anchor="middle" x="144.5" y="-434.5" font-family="Helvetica,sans-Serif" font-size="10.00"> +nbitsSrcID</text>
<text text-anchor="middle" x="144.5" y="-423.5" font-family="Helvetica,sans-Serif" font-size="10.00">+nbitsTrackID</text>
<text text-anchor="middle" x="144.5" y="-412.5" font-family="Helvetica,sans-Serif" font-size="10.00">+nbitsEvID</text>
</g>
</g>
</svg>
