<?xml version="1.0" encoding="UTF-8" standalone="no"?>
<!DOCTYPE svg PUBLIC "-//W3C//DTD SVG 1.1//EN"
 "http://www.w3.org/Graphics/SVG/1.1/DTD/svg11.dtd">
<!-- Generated by graphviz version 2.36.0 (20140111.2315)
 -->
<!-- Title: /home/travis/build/AliceO2Group/AliceO2/DataFormats/Detectors/Common/include/DetectorsCommonDataFormats/DetMatrixCache.h Pages: 1 -->
<!--zoomable 276 -->
<svg id="main" version="1.1" xmlns="http://www.w3.org/2000/svg" xmlns:xlink="http://www.w3.org/1999/xlink" xml:space="preserve" onload="init(evt)">
<style type="text/css"><![CDATA[
.edge:hover path { stroke: red; }
.edge:hover polygon { stroke: red; fill: red; }
]]></style>
<script type="text/javascript"><![CDATA[
var edges = document.getElementsByTagName('g');
if (edges && edges.length) {
  for (var i=0;i<edges.length;i++) {
    if (edges[i].id.substr(0,4)=='edge') {
      edges[i].setAttribute('class','edge');
    }
  }
}
]]></script>
        <defs>
                <circle id="rim" cx="0" cy="0" r="7"/>
                <circle id="rim2" cx="0" cy="0" r="3.5"/>
                <g id="zoomPlus">
                        <use xlink:href="#rim" fill="#404040">
                                <set attributeName="fill" to="#808080" begin="zoomplus.mouseover" end="zoomplus.mouseout"/>
                        </use>
                        <path d="M-4,0h8M0,-4v8" fill="none" stroke="white" stroke-width="1.5" pointer-events="none"/>
                </g>
                <g id="zoomMin">
                        <use xlink:href="#rim" fill="#404040">
                                <set attributeName="fill" to="#808080" begin="zoomminus.mouseover" end="zoomminus.mouseout"/>
                        </use>
                        <path d="M-4,0h8" fill="none" stroke="white" stroke-width="1.5" pointer-events="none"/>
                </g>
                <g id="dirArrow">
                        <path fill="none" stroke="white" stroke-width="1.5" d="M0,-3.0v7 M-2.5,-0.5L0,-3.0L2.5,-0.5"/>
                </g>
               <g id="resetDef">
                       <use xlink:href="#rim2" fill="#404040">
                               <set attributeName="fill" to="#808080" begin="reset.mouseover" end="reset.mouseout"/>
                       </use>
               </g>
        </defs>

<script type="text/javascript">
var viewWidth = 1806;
var viewHeight = 276;
var sectionId = 'dynsection-0';
</script>
<script xlink:href="../../svgpan.js"/>
<svg id="graph" class="graph">
<g id="viewport">
<title>/home/travis/build/AliceO2Group/AliceO2/DataFormats/Detectors/Common/include/DetectorsCommonDataFormats/DetMatrixCache.h</title>
<!-- Node1 -->
<g id="node1" class="node"><title>Node1</title>
<polygon fill="#bfbfbf" stroke="black" points="903.5,-204.5 903.5,-267.5 1082.5,-267.5 1082.5,-204.5 903.5,-204.5"/>
<text text-anchor="start" x="911.5" y="-255.5" font-family="Helvetica,sans-Serif" font-size="10.00">/home/travis/build</text>
<text text-anchor="start" x="911.5" y="-244.5" font-family="Helvetica,sans-Serif" font-size="10.00">/AliceO2Group/AliceO2</text>
<text text-anchor="start" x="911.5" y="-233.5" font-family="Helvetica,sans-Serif" font-size="10.00">/DataFormats/Detectors</text>
<text text-anchor="start" x="911.5" y="-222.5" font-family="Helvetica,sans-Serif" font-size="10.00">/Common/include/DetectorsCommon</text>
<text text-anchor="middle" x="993" y="-211.5" font-family="Helvetica,sans-Serif" font-size="10.00">DataFormats/DetMatrixCache.h</text>
</g>
<!-- Node2 -->
<g id="node2" class="node"><title>Node2</title>
<polygon fill="none" stroke="#bfbfbf" points="157.5,-142.5 157.5,-161.5 228.5,-161.5 228.5,-142.5 157.5,-142.5"/>
<text text-anchor="middle" x="193" y="-149.5" font-family="Helvetica,sans-Serif" font-size="10.00">FairLogger.h</text>
</g>
<!-- Node1&#45;&gt;Node2 -->
<g id="edge1" class="edge"><title>Node1&#45;&gt;Node2</title>
<path fill="none" stroke="midnightblue" d="M903.289,-232.839C761.768,-228.122 478.554,-213.369 243,-168 237.957,-167.029 232.696,-165.752 227.561,-164.353"/>
<polygon fill="midnightblue" stroke="midnightblue" points="228.512,-160.985 217.933,-161.561 226.562,-167.708 228.512,-160.985"/>
</g>
<!-- Node3 -->
<g id="node3" class="node"><title>Node3</title>
<polygon fill="none" stroke="#bfbfbf" points="1336,-6.5 1336,-25.5 1374,-25.5 1374,-6.5 1336,-6.5"/>
<text text-anchor="middle" x="1355" y="-13.5" font-family="Helvetica,sans-Serif" font-size="10.00">array</text>
</g>
<!-- Node1&#45;&gt;Node3 -->
<g id="edge2" class="edge"><title>Node1&#45;&gt;Node3</title>
<path fill="none" stroke="midnightblue" d="M903.189,-228.653C691.636,-212.063 186.295,-162.046 276,-68 313.245,-28.9525 1155.95,-18.8914 1325.46,-17.2599"/>
<polygon fill="midnightblue" stroke="midnightblue" points="1325.67,-20.7581 1335.63,-17.1644 1325.6,-13.7585 1325.67,-20.7581"/>
</g>
<!-- Node4 -->
<g id="node4" class="node"><title>Node4</title>
<polygon fill="none" stroke="#bfbfbf" points="1578,-142.5 1578,-161.5 1622,-161.5 1622,-142.5 1578,-142.5"/>
<text text-anchor="middle" x="1600" y="-149.5" font-family="Helvetica,sans-Serif" font-size="10.00">vector</text>
</g>
<!-- Node1&#45;&gt;Node4 -->
<g id="edge3" class="edge"><title>Node1&#45;&gt;Node4</title>
<path fill="none" stroke="midnightblue" d="M1082.65,-233.787C1197.52,-230.159 1401.77,-216.672 1569,-168 1571.19,-167.362 1573.42,-166.58 1575.62,-165.713"/>
<polygon fill="midnightblue" stroke="midnightblue" points="1577.26,-168.816 1584.95,-161.531 1574.4,-162.428 1577.26,-168.816"/>
</g>
<!-- Node5 -->
<g id="node5" class="node"><title>Node5</title>
<g id="a_node5"><a xlink:href="../../d6/d31/DetID_8h.html" target="_top" xlink:title="DetectorsCommonDataFormats\l/DetID.h">
<polygon fill="none" stroke="black" points="1404,-137 1404,-167 1560,-167 1560,-137 1404,-137"/>
<text text-anchor="start" x="1412" y="-155" font-family="Helvetica,sans-Serif" font-size="10.00">DetectorsCommonDataFormats</text>
<text text-anchor="middle" x="1482" y="-144" font-family="Helvetica,sans-Serif" font-size="10.00">/DetID.h</text>
</a>
</g>
</g>
<!-- Node1&#45;&gt;Node5 -->
<g id="edge4" class="edge"><title>Node1&#45;&gt;Node5</title>
<path fill="none" stroke="midnightblue" d="M1082.69,-219.96C1171.23,-205.113 1305.79,-182.549 1393.8,-167.789"/>
<polygon fill="midnightblue" stroke="midnightblue" points="1394.48,-171.224 1403.77,-166.119 1393.33,-164.321 1394.48,-171.224"/>
</g>
<!-- Node6 -->
<g id="node6" class="node"><title>Node6</title>
<polygon fill="none" stroke="#bfbfbf" points="1325,-74.5 1325,-93.5 1381,-93.5 1381,-74.5 1325,-74.5"/>
<text text-anchor="middle" x="1353" y="-81.5" font-family="Helvetica,sans-Serif" font-size="10.00">Rtypes.h</text>
</g>
<!-- Node1&#45;&gt;Node6 -->
<g id="edge27" class="edge"><title>Node1&#45;&gt;Node6</title>
<path fill="none" stroke="midnightblue" d="M1066.29,-204.464C1145.22,-171.576 1267,-120.833 1322.98,-97.5084"/>
<polygon fill="midnightblue" stroke="midnightblue" points="1324.44,-100.69 1332.33,-93.6134 1321.75,-94.2289 1324.44,-100.69"/>
</g>
<!-- Node14 -->
<g id="node14" class="node"><title>Node14</title>
<g id="a_node14"><a xlink:href="../../dd/d76/Cartesian3D_8h.html" target="_top" xlink:title="MathUtils/Cartesian3D.h">
<polygon fill="none" stroke="black" points="808.5,-142.5 808.5,-161.5 933.5,-161.5 933.5,-142.5 808.5,-142.5"/>
<text text-anchor="middle" x="871" y="-149.5" font-family="Helvetica,sans-Serif" font-size="10.00">MathUtils/Cartesian3D.h</text>
</a>
</g>
</g>
<!-- Node1&#45;&gt;Node14 -->
<g id="edge15" class="edge"><title>Node1&#45;&gt;Node14</title>
<path fill="none" stroke="midnightblue" d="M947.572,-204.466C928.721,-191.796 907.744,-177.697 892.52,-167.464"/>
<polygon fill="midnightblue" stroke="midnightblue" points="894.106,-164.313 883.854,-161.64 890.201,-170.123 894.106,-164.313"/>
</g>
<!-- Node5&#45;&gt;Node3 -->
<g id="edge6" class="edge"><title>Node5&#45;&gt;Node3</title>
<path fill="none" stroke="midnightblue" d="M1466.03,-136.644C1455.08,-126.624 1440.36,-112.804 1428,-100 1406.66,-77.8945 1383.47,-50.9772 1369.08,-33.9114"/>
<polygon fill="midnightblue" stroke="midnightblue" points="1371.52,-31.3771 1362.41,-25.9628 1366.16,-35.8745 1371.52,-31.3771"/>
</g>
<!-- Node5&#45;&gt;Node6 -->
<g id="edge5" class="edge"><title>Node5&#45;&gt;Node6</title>
<path fill="none" stroke="midnightblue" d="M1454.33,-136.841C1432.01,-125.425 1400.86,-109.485 1379,-98.3033"/>
<polygon fill="midnightblue" stroke="midnightblue" points="1380.47,-95.1208 1369.97,-93.6819 1377.28,-101.353 1380.47,-95.1208"/>
</g>
<!-- Node7 -->
<g id="node7" class="node"><title>Node7</title>
<polygon fill="none" stroke="#bfbfbf" points="1545.5,-74.5 1545.5,-93.5 1586.5,-93.5 1586.5,-74.5 1545.5,-74.5"/>
<text text-anchor="middle" x="1566" y="-81.5" font-family="Helvetica,sans-Serif" font-size="10.00">bitset</text>
</g>
<!-- Node5&#45;&gt;Node7 -->
<g id="edge7" class="edge"><title>Node5&#45;&gt;Node7</title>
<path fill="none" stroke="midnightblue" d="M1500.23,-136.679C1513.97,-125.879 1532.78,-111.098 1546.77,-100.11"/>
<polygon fill="midnightblue" stroke="midnightblue" points="1549.06,-102.759 1554.76,-93.8283 1544.74,-97.2544 1549.06,-102.759"/>
</g>
<!-- Node8 -->
<g id="node8" class="node"><title>Node8</title>
<polygon fill="none" stroke="#bfbfbf" points="1604.5,-74.5 1604.5,-93.5 1653.5,-93.5 1653.5,-74.5 1604.5,-74.5"/>
<text text-anchor="middle" x="1629" y="-81.5" font-family="Helvetica,sans-Serif" font-size="10.00">cassert</text>
</g>
<!-- Node5&#45;&gt;Node8 -->
<g id="edge8" class="edge"><title>Node5&#45;&gt;Node8</title>
<path fill="none" stroke="midnightblue" d="M1513.54,-136.841C1539.3,-125.272 1575.42,-109.055 1600.37,-97.8547"/>
<polygon fill="midnightblue" stroke="midnightblue" points="1601.97,-100.971 1609.66,-93.6819 1599.11,-94.5849 1601.97,-100.971"/>
</g>
<!-- Node9 -->
<g id="node9" class="node"><title>Node9</title>
<polygon fill="none" stroke="#bfbfbf" points="1672,-74.5 1672,-93.5 1718,-93.5 1718,-74.5 1672,-74.5"/>
<text text-anchor="middle" x="1695" y="-81.5" font-family="Helvetica,sans-Serif" font-size="10.00">cstdint</text>
</g>
<!-- Node5&#45;&gt;Node9 -->
<g id="edge9" class="edge"><title>Node5&#45;&gt;Node9</title>
<path fill="none" stroke="midnightblue" d="M1539.86,-136.976C1575.5,-127.755 1621.9,-114.7 1662,-100 1663.91,-99.3015 1665.85,-98.5409 1667.81,-97.745"/>
<polygon fill="midnightblue" stroke="midnightblue" points="1669.61,-100.78 1677.39,-93.5946 1666.83,-94.3557 1669.61,-100.78"/>
</g>
<!-- Node10 -->
<g id="node10" class="node"><title>Node10</title>
<polygon fill="none" stroke="#bfbfbf" points="1736,-74.5 1736,-93.5 1798,-93.5 1798,-74.5 1736,-74.5"/>
<text text-anchor="middle" x="1767" y="-81.5" font-family="Helvetica,sans-Serif" font-size="10.00">type_traits</text>
</g>
<!-- Node5&#45;&gt;Node10 -->
<g id="edge10" class="edge"><title>Node5&#45;&gt;Node10</title>
<path fill="none" stroke="midnightblue" d="M1555.64,-136.964C1615.65,-125.285 1695.44,-109.143 1727,-100 1730.13,-99.0919 1733.37,-98.0528 1736.59,-96.9546"/>
<polygon fill="midnightblue" stroke="midnightblue" points="1737.81,-100.236 1746.03,-93.5546 1735.44,-93.6496 1737.81,-100.236"/>
</g>
<!-- Node11 -->
<g id="node11" class="node"><title>Node11</title>
<g id="a_node11"><a xlink:href="../../d9/d52/Common_2MathUtils_2include_2MathUtils_2Utils_8h.html" target="_top" xlink:title="MathUtils/Utils.h">
<polygon fill="none" stroke="black" points="1437,-74.5 1437,-93.5 1527,-93.5 1527,-74.5 1437,-74.5"/>
<text text-anchor="middle" x="1482" y="-81.5" font-family="Helvetica,sans-Serif" font-size="10.00">MathUtils/Utils.h</text>
</a>
</g>
</g>
<!-- Node5&#45;&gt;Node11 -->
<g id="edge11" class="edge"><title>Node5&#45;&gt;Node11</title>
<path fill="none" stroke="midnightblue" d="M1482,-136.679C1482,-127.101 1482,-114.394 1482,-103.977"/>
<polygon fill="midnightblue" stroke="midnightblue" points="1485.5,-103.828 1482,-93.8283 1478.5,-103.828 1485.5,-103.828"/>
</g>
<!-- Node11&#45;&gt;Node3 -->
<g id="edge12" class="edge"><title>Node11&#45;&gt;Node3</title>
<path fill="none" stroke="midnightblue" d="M1465.14,-74.4194C1445.4,-64.35 1411.75,-47.1072 1383,-32 1382.02,-31.487 1381.03,-30.9626 1380.02,-30.4318"/>
<polygon fill="midnightblue" stroke="midnightblue" points="1381.44,-27.2202 1370.97,-25.6114 1378.15,-33.3995 1381.44,-27.2202"/>
</g>
<!-- Node12 -->
<g id="node12" class="node"><title>Node12</title>
<polygon fill="none" stroke="#bfbfbf" points="1590,-6.5 1590,-25.5 1634,-25.5 1634,-6.5 1590,-6.5"/>
<text text-anchor="middle" x="1612" y="-13.5" font-family="Helvetica,sans-Serif" font-size="10.00">cmath</text>
</g>
<!-- Node11&#45;&gt;Node12 -->
<g id="edge13" class="edge"><title>Node11&#45;&gt;Node12</title>
<path fill="none" stroke="midnightblue" d="M1499,-74.3717C1521.09,-63.1557 1559.9,-43.4532 1585.78,-30.3136"/>
<polygon fill="midnightblue" stroke="midnightblue" points="1587.67,-33.2783 1595,-25.6305 1584.5,-27.0366 1587.67,-33.2783"/>
</g>
<!-- Node13 -->
<g id="node13" class="node"><title>Node13</title>
<g id="a_node13"><a xlink:href="../../d6/d84/MathConstants_8h.html" target="_top" xlink:title="useful math constants ">
<polygon fill="none" stroke="black" points="1392.5,-6.5 1392.5,-25.5 1571.5,-25.5 1571.5,-6.5 1392.5,-6.5"/>
<text text-anchor="middle" x="1482" y="-13.5" font-family="Helvetica,sans-Serif" font-size="10.00">CommonConstants/MathConstants.h</text>
</a>
</g>
</g>
<!-- Node11&#45;&gt;Node13 -->
<g id="edge14" class="edge"><title>Node11&#45;&gt;Node13</title>
<path fill="none" stroke="midnightblue" d="M1482,-74.3717C1482,-64.6426 1482,-48.528 1482,-35.8504"/>
<polygon fill="midnightblue" stroke="midnightblue" points="1485.5,-35.8411 1482,-25.8411 1478.5,-35.8412 1485.5,-35.8411"/>
</g>
<!-- Node14&#45;&gt;Node6 -->
<g id="edge21" class="edge"><title>Node14&#45;&gt;Node6</title>
<path fill="none" stroke="midnightblue" d="M933.52,-145.939C1038.38,-137.098 1245.17,-118.058 1316,-100 1318.99,-99.2369 1322.07,-98.285 1325.1,-97.2331"/>
<polygon fill="midnightblue" stroke="midnightblue" points="1326.41,-100.477 1334.51,-93.641 1323.92,-93.9372 1326.41,-100.477"/>
</g>
<!-- Node15 -->
<g id="node15" class="node"><title>Node15</title>
<polygon fill="none" stroke="#bfbfbf" points="348.5,-69 348.5,-99 499.5,-99 499.5,-69 348.5,-69"/>
<text text-anchor="start" x="356.5" y="-87" font-family="Helvetica,sans-Serif" font-size="10.00">Math/GenVector/Displacement</text>
<text text-anchor="middle" x="424" y="-76" font-family="Helvetica,sans-Serif" font-size="10.00">Vector3D.h</text>
</g>
<!-- Node14&#45;&gt;Node15 -->
<g id="edge16" class="edge"><title>Node14&#45;&gt;Node15</title>
<path fill="none" stroke="midnightblue" d="M808.444,-142.858C738.319,-133.579 620.966,-117.601 509.588,-100.06"/>
<polygon fill="midnightblue" stroke="midnightblue" points="509.945,-96.5729 499.521,-98.4674 508.851,-103.487 509.945,-96.5729"/>
</g>
<!-- Node16 -->
<g id="node16" class="node"><title>Node16</title>
<polygon fill="none" stroke="#bfbfbf" points="518,-74.5 518,-93.5 694,-93.5 694,-74.5 518,-74.5"/>
<text text-anchor="middle" x="606" y="-81.5" font-family="Helvetica,sans-Serif" font-size="10.00">Math/GenVector/PositionVector3D.h</text>
</g>
<!-- Node14&#45;&gt;Node16 -->
<g id="edge17" class="edge"><title>Node14&#45;&gt;Node16</title>
<path fill="none" stroke="midnightblue" d="M836.628,-142.439C788.969,-130.57 702.776,-109.103 650.329,-96.0406"/>
<polygon fill="midnightblue" stroke="midnightblue" points="650.861,-92.5661 640.312,-93.5455 649.169,-99.3586 650.861,-92.5661"/>
</g>
<!-- Node17 -->
<g id="node17" class="node"><title>Node17</title>
<polygon fill="none" stroke="#bfbfbf" points="711.5,-74.5 711.5,-93.5 860.5,-93.5 860.5,-74.5 711.5,-74.5"/>
<text text-anchor="middle" x="786" y="-81.5" font-family="Helvetica,sans-Serif" font-size="10.00">Math/GenVector/Rotation3D.h</text>
</g>
<!-- Node14&#45;&gt;Node17 -->
<g id="edge18" class="edge"><title>Node14&#45;&gt;Node17</title>
<path fill="none" stroke="midnightblue" d="M859.888,-142.372C846.016,-131.6 822.063,-113.002 805.198,-99.9065"/>
<polygon fill="midnightblue" stroke="midnightblue" points="807.16,-96.999 797.115,-93.6305 802.867,-102.528 807.16,-96.999"/>
</g>
<!-- Node18 -->
<g id="node18" class="node"><title>Node18</title>
<polygon fill="none" stroke="#bfbfbf" points="879,-74.5 879,-93.5 1035,-93.5 1035,-74.5 879,-74.5"/>
<text text-anchor="middle" x="957" y="-81.5" font-family="Helvetica,sans-Serif" font-size="10.00">Math/GenVector/Transform3D.h</text>
</g>
<!-- Node14&#45;&gt;Node18 -->
<g id="edge19" class="edge"><title>Node14&#45;&gt;Node18</title>
<path fill="none" stroke="midnightblue" d="M882.243,-142.372C896.278,-131.6 920.512,-113.002 937.576,-99.9065"/>
<polygon fill="midnightblue" stroke="midnightblue" points="939.952,-102.495 945.754,-93.6305 935.69,-96.9421 939.952,-102.495"/>
</g>
<!-- Node19 -->
<g id="node19" class="node"><title>Node19</title>
<polygon fill="none" stroke="#bfbfbf" points="1053,-74.5 1053,-93.5 1213,-93.5 1213,-74.5 1053,-74.5"/>
<text text-anchor="middle" x="1133" y="-81.5" font-family="Helvetica,sans-Serif" font-size="10.00">Math/GenVector/Translation3D.h</text>
</g>
<!-- Node14&#45;&gt;Node19 -->
<g id="edge20" class="edge"><title>Node14&#45;&gt;Node19</title>
<path fill="none" stroke="midnightblue" d="M904.983,-142.439C952.103,-130.57 1037.32,-109.103 1089.17,-96.0406"/>
<polygon fill="midnightblue" stroke="midnightblue" points="1090.23,-99.3823 1099.08,-93.5455 1088.52,-92.5944 1090.23,-99.3823"/>
</g>
<!-- Node20 -->
<g id="node20" class="node"><title>Node20</title>
<polygon fill="none" stroke="#bfbfbf" points="1231,-74.5 1231,-93.5 1307,-93.5 1307,-74.5 1231,-74.5"/>
<text text-anchor="middle" x="1269" y="-81.5" font-family="Helvetica,sans-Serif" font-size="10.00">TGeoMatrix.h</text>
</g>
<!-- Node14&#45;&gt;Node20 -->
<g id="edge22" class="edge"><title>Node14&#45;&gt;Node20</title>
<path fill="none" stroke="midnightblue" d="M933.711,-145.037C1004.38,-137.592 1122.39,-122.966 1222,-100 1226.23,-99.0258 1230.62,-97.8503 1234.95,-96.5912"/>
<polygon fill="midnightblue" stroke="midnightblue" points="1236.29,-99.8404 1244.82,-93.557 1234.23,-93.1492 1236.29,-99.8404"/>
</g>
<!-- Node21 -->
<g id="node21" class="node"><title>Node21</title>
<polygon fill="none" stroke="#bfbfbf" points="285.5,-74.5 285.5,-93.5 330.5,-93.5 330.5,-74.5 285.5,-74.5"/>
<text text-anchor="middle" x="308" y="-81.5" font-family="Helvetica,sans-Serif" font-size="10.00">iosfwd</text>
</g>
<!-- Node14&#45;&gt;Node21 -->
<g id="edge23" class="edge"><title>Node14&#45;&gt;Node21</title>
<path fill="none" stroke="midnightblue" d="M808.22,-147.772C687.168,-141.09 425.777,-124.308 339,-100 336.801,-99.3841 334.569,-98.6183 332.362,-97.7608"/>
<polygon fill="midnightblue" stroke="midnightblue" points="333.587,-94.4751 323.029,-93.5968 330.735,-100.868 333.587,-94.4751"/>
</g>
<!-- Node22 -->
<g id="node22" class="node"><title>Node22</title>
<g id="a_node22"><a xlink:href="../../d2/dd0/Cartesian2D_8h.html" target="_top" xlink:title="MathUtils/Cartesian2D.h">
<polygon fill="none" stroke="black" points="103.5,-74.5 103.5,-93.5 228.5,-93.5 228.5,-74.5 103.5,-74.5"/>
<text text-anchor="middle" x="166" y="-81.5" font-family="Helvetica,sans-Serif" font-size="10.00">MathUtils/Cartesian2D.h</text>
</a>
</g>
</g>
<!-- Node14&#45;&gt;Node22 -->
<g id="edge24" class="edge"><title>Node14&#45;&gt;Node22</title>
<path fill="none" stroke="midnightblue" d="M808.365,-146.667C699.804,-138.925 469.724,-121.497 276,-100 262.643,-98.5178 248.402,-96.7302 234.749,-94.9136"/>
<polygon fill="midnightblue" stroke="midnightblue" points="234.825,-91.3923 224.447,-93.5233 233.889,-98.3294 234.825,-91.3923"/>
</g>
<!-- Node23 -->
<g id="node23" class="node"><title>Node23</title>
<polygon fill="none" stroke="#bfbfbf" points="-0.5,-1 -0.5,-31 150.5,-31 150.5,-1 -0.5,-1"/>
<text text-anchor="start" x="7.5" y="-19" font-family="Helvetica,sans-Serif" font-size="10.00">Math/GenVector/Displacement</text>
<text text-anchor="middle" x="75" y="-8" font-family="Helvetica,sans-Serif" font-size="10.00">Vector2D.h</text>
</g>
<!-- Node22&#45;&gt;Node23 -->
<g id="edge25" class="edge"><title>Node22&#45;&gt;Node23</title>
<path fill="none" stroke="midnightblue" d="M154.103,-74.3717C141.221,-65.0286 120.22,-49.7966 103.093,-37.375"/>
<polygon fill="midnightblue" stroke="midnightblue" points="104.703,-34.2194 94.5532,-31.1815 100.593,-39.8859 104.703,-34.2194"/>
</g>
<!-- Node24 -->
<g id="node24" class="node"><title>Node24</title>
<polygon fill="none" stroke="#bfbfbf" points="169,-6.5 169,-25.5 345,-25.5 345,-6.5 169,-6.5"/>
<text text-anchor="middle" x="257" y="-13.5" font-family="Helvetica,sans-Serif" font-size="10.00">Math/GenVector/PositionVector2D.h</text>
</g>
<!-- Node22&#45;&gt;Node24 -->
<g id="edge26" class="edge"><title>Node22&#45;&gt;Node24</title>
<path fill="none" stroke="midnightblue" d="M177.897,-74.3717C192.884,-63.5015 218.862,-44.6602 236.942,-31.5474"/>
<polygon fill="midnightblue" stroke="midnightblue" points="239.06,-34.3349 245.1,-25.6305 234.95,-28.6684 239.06,-34.3349"/>
</g>
</g>
</svg>
        <g id="navigator" transform="translate(0 0)" fill="#404254">
                <rect fill="#f2f5e9" fill-opacity="0.5" stroke="#606060" stroke-width=".5" x="0" y="0" width="60" height="60"/>
                <use id="zoomplus" xlink:href="#zoomPlus" x="17" y="9" onmousedown="handleZoom(evt,'in')"/>
                <use id="zoomminus" xlink:href="#zoomMin" x="42" y="9" onmousedown="handleZoom(evt,'out')"/>
                <use id="reset" xlink:href="#resetDef" x="30" y="36" onmousedown="handleReset()"/>
                <g id="arrowUp" xlink:href="#dirArrow" transform="translate(30 24)" onmousedown="handlePan(0,-1)">
                  <use xlink:href="#rim" fill="#404040">
                        <set attributeName="fill" to="#808080" begin="arrowUp.mouseover" end="arrowUp.mouseout"/>
                  </use>
                  <path fill="none" stroke="white" stroke-width="1.5" d="M0,-3.0v7 M-2.5,-0.5L0,-3.0L2.5,-0.5"/>
                </g>
                <g id="arrowRight" xlink:href="#dirArrow" transform="rotate(90) translate(36 -43)" onmousedown="handlePan(1,0)">
                  <use xlink:href="#rim" fill="#404040">
                        <set attributeName="fill" to="#808080" begin="arrowRight.mouseover" end="arrowRight.mouseout"/>
                  </use>
                  <path fill="none" stroke="white" stroke-width="1.5" d="M0,-3.0v7 M-2.5,-0.5L0,-3.0L2.5,-0.5"/>
                </g>
                <g id="arrowDown" xlink:href="#dirArrow" transform="rotate(180) translate(-30 -48)" onmousedown="handlePan(0,1)">
                  <use xlink:href="#rim" fill="#404040">
                        <set attributeName="fill" to="#808080" begin="arrowDown.mouseover" end="arrowDown.mouseout"/>
                  </use>
                  <path fill="none" stroke="white" stroke-width="1.5" d="M0,-3.0v7 M-2.5,-0.5L0,-3.0L2.5,-0.5"/>
                </g>
                <g id="arrowLeft" xlink:href="#dirArrow" transform="rotate(270) translate(-36 17)" onmousedown="handlePan(-1,0)">
                  <use xlink:href="#rim" fill="#404040">
                        <set attributeName="fill" to="#808080" begin="arrowLeft.mouseover" end="arrowLeft.mouseout"/>
                  </use>
                  <path fill="none" stroke="white" stroke-width="1.5" d="M0,-3.0v7 M-2.5,-0.5L0,-3.0L2.5,-0.5"/>
                </g>
        </g>
        <svg viewBox="0 0 15 15" width="100%" height="30px" preserveAspectRatio="xMaxYMin meet">
         <g id="arrow_out" transform="scale(0.3 0.3)">
          <a xlink:href="DetMatrixCache_8h__incl_org.svg" target="_base">
           <rect id="button" ry="5" rx="5" y="6" x="6" height="38" width="38"
                fill="#f2f5e9" fill-opacity="0.5" stroke="#606060" stroke-width="1.0"/>
           <path id="arrow"
             d="M 11.500037,31.436501 C 11.940474,20.09759 22.043105,11.32322 32.158766,21.979434 L 37.068811,17.246167 C 37.068811,17.246167 37.088388,32 37.088388,32 L 22.160133,31.978069 C 22.160133,31.978069 26.997745,27.140456 26.997745,27.140456 C 18.528582,18.264221 13.291696,25.230495 11.500037,31.436501 z"
             style="fill:#404040;"/>
          </a>
         </g>
        </svg>
</svg>
