<?xml version="1.0" encoding="UTF-8" standalone="no"?>
<!DOCTYPE svg PUBLIC "-//W3C//DTD SVG 1.1//EN"
 "http://www.w3.org/Graphics/SVG/1.1/DTD/svg11.dtd">
<!-- Generated by graphviz version 2.36.0 (20140111.2315)
 -->
<!-- Title: /home/travis/build/AliceO2Group/AliceO2/DataFormats/simulation/include/SimulationDataFormat/RunContext.h Pages: 1 -->
<svg width="1824pt" height="520pt"
 viewBox="0.00 0.00 1824.00 520.00" xmlns="http://www.w3.org/2000/svg" xmlns:xlink="http://www.w3.org/1999/xlink">
<g id="graph0" class="graph" transform="scale(1 1) rotate(0) translate(4 516)">
<title>/home/travis/build/AliceO2Group/AliceO2/DataFormats/simulation/include/SimulationDataFormat/RunContext.h</title>
<!-- Node1 -->
<g id="node1" class="node"><title>Node1</title>
<polygon fill="#bfbfbf" stroke="black" points="771.5,-448.5 771.5,-511.5 922.5,-511.5 922.5,-448.5 771.5,-448.5"/>
<text text-anchor="start" x="779.5" y="-499.5" font-family="Helvetica,sans-Serif" font-size="10.00">/home/travis/build</text>
<text text-anchor="start" x="779.5" y="-488.5" font-family="Helvetica,sans-Serif" font-size="10.00">/AliceO2Group/AliceO2</text>
<text text-anchor="start" x="779.5" y="-477.5" font-family="Helvetica,sans-Serif" font-size="10.00">/DataFormats/simulation</text>
<text text-anchor="start" x="779.5" y="-466.5" font-family="Helvetica,sans-Serif" font-size="10.00">/include/SimulationDataFormat</text>
<text text-anchor="middle" x="847" y="-455.5" font-family="Helvetica,sans-Serif" font-size="10.00">/RunContext.h</text>
</g>
<!-- Node2 -->
<g id="node2" class="node"><title>Node2</title>
<g id="a_node2"><a xlink:href="../../da/dea/RunContext_8cxx.html" target="_top" xlink:title="/home/travis/build\l/AliceO2Group/AliceO2\l/DataFormats/simulation\l/src/RunContext.cxx">
<polygon fill="none" stroke="black" points="645,-359 645,-411 769,-411 769,-359 645,-359"/>
<text text-anchor="start" x="653" y="-399" font-family="Helvetica,sans-Serif" font-size="10.00">/home/travis/build</text>
<text text-anchor="start" x="653" y="-388" font-family="Helvetica,sans-Serif" font-size="10.00">/AliceO2Group/AliceO2</text>
<text text-anchor="start" x="653" y="-377" font-family="Helvetica,sans-Serif" font-size="10.00">/DataFormats/simulation</text>
<text text-anchor="middle" x="707" y="-366" font-family="Helvetica,sans-Serif" font-size="10.00">/src/RunContext.cxx</text>
</a>
</g>
</g>
<!-- Node1&#45;&gt;Node2 -->
<g id="edge1" class="edge"><title>Node1&#45;&gt;Node2</title>
<path fill="none" stroke="midnightblue" d="M792.103,-442.533C776.261,-432.009 759.336,-420.766 744.785,-411.1"/>
<polygon fill="midnightblue" stroke="midnightblue" points="790.504,-445.673 800.771,-448.291 794.378,-439.842 790.504,-445.673"/>
</g>
<!-- Node3 -->
<g id="node3" class="node"><title>Node3</title>
<g id="a_node3"><a xlink:href="../../df/d25/readITSDigits_8C.html" target="_top" xlink:title="/home/travis/build\l/AliceO2Group/AliceO2\l/macro/readITSDigits.C">
<polygon fill="none" stroke="black" points="787,-364.5 787,-405.5 907,-405.5 907,-364.5 787,-364.5"/>
<text text-anchor="start" x="795" y="-393.5" font-family="Helvetica,sans-Serif" font-size="10.00">/home/travis/build</text>
<text text-anchor="start" x="795" y="-382.5" font-family="Helvetica,sans-Serif" font-size="10.00">/AliceO2Group/AliceO2</text>
<text text-anchor="middle" x="847" y="-371.5" font-family="Helvetica,sans-Serif" font-size="10.00">/macro/readITSDigits.C</text>
</a>
</g>
</g>
<!-- Node1&#45;&gt;Node3 -->
<g id="edge2" class="edge"><title>Node1&#45;&gt;Node3</title>
<path fill="none" stroke="midnightblue" d="M847,-438.112C847,-426.807 847,-415.052 847,-405.575"/>
<polygon fill="midnightblue" stroke="midnightblue" points="843.5,-438.291 847,-448.291 850.5,-438.291 843.5,-438.291"/>
</g>
<!-- Node4 -->
<g id="node4" class="node"><title>Node4</title>
<g id="a_node4"><a xlink:href="../../dd/d40/HitProcessingManager_8h.html" target="_top" xlink:title="/home/travis/build\l/AliceO2Group/AliceO2\l/Steer/include/Steer/HitProcessing\lManager.h">
<polygon fill="none" stroke="black" points="924.5,-359 924.5,-411 1091.5,-411 1091.5,-359 924.5,-359"/>
<text text-anchor="start" x="932.5" y="-399" font-family="Helvetica,sans-Serif" font-size="10.00">/home/travis/build</text>
<text text-anchor="start" x="932.5" y="-388" font-family="Helvetica,sans-Serif" font-size="10.00">/AliceO2Group/AliceO2</text>
<text text-anchor="start" x="932.5" y="-377" font-family="Helvetica,sans-Serif" font-size="10.00">/Steer/include/Steer/HitProcessing</text>
<text text-anchor="middle" x="1008" y="-366" font-family="Helvetica,sans-Serif" font-size="10.00">Manager.h</text>
</a>
</g>
</g>
<!-- Node1&#45;&gt;Node4 -->
<g id="edge3" class="edge"><title>Node1&#45;&gt;Node4</title>
<path fill="none" stroke="midnightblue" d="M908.868,-443.262C927.447,-432.531 947.427,-420.99 964.547,-411.1"/>
<polygon fill="midnightblue" stroke="midnightblue" points="907.072,-440.258 900.164,-448.291 910.573,-446.319 907.072,-440.258"/>
</g>
<!-- Node5 -->
<g id="node5" class="node"><title>Node5</title>
<g id="a_node5"><a xlink:href="../../de/d92/TPC_2simulation_2include_2TPCSimulation_2Digitizer_8h.html" target="_top" xlink:title="/home/travis/build\l/AliceO2Group/AliceO2\l/Detectors/TPC/simulation\l/include/TPCSimulation/Digitizer.h">
<polygon fill="none" stroke="black" points="458.5,-269 458.5,-321 625.5,-321 625.5,-269 458.5,-269"/>
<text text-anchor="start" x="466.5" y="-309" font-family="Helvetica,sans-Serif" font-size="10.00">/home/travis/build</text>
<text text-anchor="start" x="466.5" y="-298" font-family="Helvetica,sans-Serif" font-size="10.00">/AliceO2Group/AliceO2</text>
<text text-anchor="start" x="466.5" y="-287" font-family="Helvetica,sans-Serif" font-size="10.00">/Detectors/TPC/simulation</text>
<text text-anchor="middle" x="542" y="-276" font-family="Helvetica,sans-Serif" font-size="10.00">/include/TPCSimulation/Digitizer.h</text>
</a>
</g>
</g>
<!-- Node4&#45;&gt;Node5 -->
<g id="edge4" class="edge"><title>Node4&#45;&gt;Node5</title>
<path fill="none" stroke="midnightblue" d="M914.405,-358.002C801.634,-335.007 770.039,-341.611 661,-322 649.553,-319.941 637.531,-317.567 625.711,-315.108"/>
<polygon fill="midnightblue" stroke="midnightblue" points="913.974,-361.487 924.477,-360.089 915.395,-354.633 913.974,-361.487"/>
</g>
<!-- Node6 -->
<g id="node6" class="node"><title>Node6</title>
<g id="a_node6"><a xlink:href="../../dd/d4b/TPC_2simulation_2include_2TPCSimulation_2DigitizerTask_8h.html" target="_top" xlink:title="/home/travis/build\l/AliceO2Group/AliceO2\l/Detectors/TPC/simulation\l/include/TPCSimulation/Digitizer\lTask.h">
<polygon fill="none" stroke="black" points="261,-168.5 261,-231.5 419,-231.5 419,-168.5 261,-168.5"/>
<text text-anchor="start" x="269" y="-219.5" font-family="Helvetica,sans-Serif" font-size="10.00">/home/travis/build</text>
<text text-anchor="start" x="269" y="-208.5" font-family="Helvetica,sans-Serif" font-size="10.00">/AliceO2Group/AliceO2</text>
<text text-anchor="start" x="269" y="-197.5" font-family="Helvetica,sans-Serif" font-size="10.00">/Detectors/TPC/simulation</text>
<text text-anchor="start" x="269" y="-186.5" font-family="Helvetica,sans-Serif" font-size="10.00">/include/TPCSimulation/Digitizer</text>
<text text-anchor="middle" x="340" y="-175.5" font-family="Helvetica,sans-Serif" font-size="10.00">Task.h</text>
</a>
</g>
</g>
<!-- Node4&#45;&gt;Node6 -->
<g id="edge15" class="edge"><title>Node4&#45;&gt;Node6</title>
<path fill="none" stroke="midnightblue" d="M914.068,-358.156C797.021,-341.504 539.461,-366.516 449,-322 408.791,-302.213 376.589,-260.544 357.892,-231.675"/>
<polygon fill="midnightblue" stroke="midnightblue" points="913.847,-361.665 924.273,-359.781 914.948,-354.752 913.847,-361.665"/>
</g>
<!-- Node12 -->
<g id="node12" class="node"><title>Node12</title>
<g id="a_node12"><a xlink:href="../../db/df6/TPCDriftTimeDigitizerSpec_8cxx.html" target="_top" xlink:title="/home/travis/build\l/AliceO2Group/AliceO2\l/Steer/DigitizerWorkflow\l/src/TPCDriftTimeDigitizerSpec.cxx">
<polygon fill="none" stroke="black" points="560,-79 560,-131 734,-131 734,-79 560,-79"/>
<text text-anchor="start" x="568" y="-119" font-family="Helvetica,sans-Serif" font-size="10.00">/home/travis/build</text>
<text text-anchor="start" x="568" y="-108" font-family="Helvetica,sans-Serif" font-size="10.00">/AliceO2Group/AliceO2</text>
<text text-anchor="start" x="568" y="-97" font-family="Helvetica,sans-Serif" font-size="10.00">/Steer/DigitizerWorkflow</text>
<text text-anchor="middle" x="647" y="-86" font-family="Helvetica,sans-Serif" font-size="10.00">/src/TPCDriftTimeDigitizerSpec.cxx</text>
</a>
</g>
</g>
<!-- Node4&#45;&gt;Node12 -->
<g id="edge21" class="edge"><title>Node4&#45;&gt;Node12</title>
<path fill="none" stroke="midnightblue" d="M914.262,-358.243C851.8,-348.136 728.126,-354.371 694,-322 640.958,-271.686 640.831,-176.644 644.239,-131.304"/>
<polygon fill="midnightblue" stroke="midnightblue" points="913.983,-361.752 924.459,-360.172 915.284,-354.874 913.983,-361.752"/>
</g>
<!-- Node14 -->
<g id="node14" class="node"><title>Node14</title>
<g id="a_node14"><a xlink:href="../../d3/d87/CollisionTimePrinter_8cxx.html" target="_top" xlink:title="/home/travis/build\l/AliceO2Group/AliceO2\l/Steer/DigitizerWorkflow\l/src/CollisionTimePrinter.cxx">
<polygon fill="none" stroke="black" points="703.5,-269 703.5,-321 846.5,-321 846.5,-269 703.5,-269"/>
<text text-anchor="start" x="711.5" y="-309" font-family="Helvetica,sans-Serif" font-size="10.00">/home/travis/build</text>
<text text-anchor="start" x="711.5" y="-298" font-family="Helvetica,sans-Serif" font-size="10.00">/AliceO2Group/AliceO2</text>
<text text-anchor="start" x="711.5" y="-287" font-family="Helvetica,sans-Serif" font-size="10.00">/Steer/DigitizerWorkflow</text>
<text text-anchor="middle" x="775" y="-276" font-family="Helvetica,sans-Serif" font-size="10.00">/src/CollisionTimePrinter.cxx</text>
</a>
</g>
</g>
<!-- Node4&#45;&gt;Node14 -->
<g id="edge16" class="edge"><title>Node4&#45;&gt;Node14</title>
<path fill="none" stroke="midnightblue" d="M931.822,-355.229C902.686,-344.225 869.712,-331.771 841.545,-321.133"/>
<polygon fill="midnightblue" stroke="midnightblue" points="930.952,-358.641 941.543,-358.901 933.425,-352.093 930.952,-358.641"/>
</g>
<!-- Node15 -->
<g id="node15" class="node"><title>Node15</title>
<g id="a_node15"><a xlink:href="../../dd/dfe/FITDigitizerSpec_8cxx.html" target="_top" xlink:title="/home/travis/build\l/AliceO2Group/AliceO2\l/Steer/DigitizerWorkflow\l/src/FITDigitizerSpec.cxx">
<polygon fill="none" stroke="black" points="865,-269 865,-321 993,-321 993,-269 865,-269"/>
<text text-anchor="start" x="873" y="-309" font-family="Helvetica,sans-Serif" font-size="10.00">/home/travis/build</text>
<text text-anchor="start" x="873" y="-298" font-family="Helvetica,sans-Serif" font-size="10.00">/AliceO2Group/AliceO2</text>
<text text-anchor="start" x="873" y="-287" font-family="Helvetica,sans-Serif" font-size="10.00">/Steer/DigitizerWorkflow</text>
<text text-anchor="middle" x="929" y="-276" font-family="Helvetica,sans-Serif" font-size="10.00">/src/FITDigitizerSpec.cxx</text>
</a>
</g>
</g>
<!-- Node4&#45;&gt;Node15 -->
<g id="edge17" class="edge"><title>Node4&#45;&gt;Node15</title>
<path fill="none" stroke="midnightblue" d="M978.237,-350.846C969.384,-340.985 959.836,-330.349 951.526,-321.092"/>
<polygon fill="midnightblue" stroke="midnightblue" points="975.865,-353.443 985.15,-358.547 981.074,-348.767 975.865,-353.443"/>
</g>
<!-- Node16 -->
<g id="node16" class="node"><title>Node16</title>
<g id="a_node16"><a xlink:href="../../d3/d43/ITSMFTDigitizerSpec_8cxx.html" target="_top" xlink:title="/home/travis/build\l/AliceO2Group/AliceO2\l/Steer/DigitizerWorkflow\l/src/ITSMFTDigitizerSpec.cxx">
<polygon fill="none" stroke="black" points="1011.5,-269 1011.5,-321 1160.5,-321 1160.5,-269 1011.5,-269"/>
<text text-anchor="start" x="1019.5" y="-309" font-family="Helvetica,sans-Serif" font-size="10.00">/home/travis/build</text>
<text text-anchor="start" x="1019.5" y="-298" font-family="Helvetica,sans-Serif" font-size="10.00">/AliceO2Group/AliceO2</text>
<text text-anchor="start" x="1019.5" y="-287" font-family="Helvetica,sans-Serif" font-size="10.00">/Steer/DigitizerWorkflow</text>
<text text-anchor="middle" x="1086" y="-276" font-family="Helvetica,sans-Serif" font-size="10.00">/src/ITSMFTDigitizerSpec.cxx</text>
</a>
</g>
</g>
<!-- Node4&#45;&gt;Node16 -->
<g id="edge18" class="edge"><title>Node4&#45;&gt;Node16</title>
<path fill="none" stroke="midnightblue" d="M1037.39,-350.846C1046.13,-340.985 1055.55,-330.349 1063.76,-321.092"/>
<polygon fill="midnightblue" stroke="midnightblue" points="1034.57,-348.742 1030.56,-358.547 1039.81,-353.385 1034.57,-348.742"/>
</g>
<!-- Node17 -->
<g id="node17" class="node"><title>Node17</title>
<g id="a_node17"><a xlink:href="../../d3/d13/SimReaderSpec_8cxx.html" target="_top" xlink:title="/home/travis/build\l/AliceO2Group/AliceO2\l/Steer/DigitizerWorkflow\l/src/SimReaderSpec.cxx">
<polygon fill="none" stroke="black" points="1179,-269 1179,-321 1305,-321 1305,-269 1179,-269"/>
<text text-anchor="start" x="1187" y="-309" font-family="Helvetica,sans-Serif" font-size="10.00">/home/travis/build</text>
<text text-anchor="start" x="1187" y="-298" font-family="Helvetica,sans-Serif" font-size="10.00">/AliceO2Group/AliceO2</text>
<text text-anchor="start" x="1187" y="-287" font-family="Helvetica,sans-Serif" font-size="10.00">/Steer/DigitizerWorkflow</text>
<text text-anchor="middle" x="1242" y="-276" font-family="Helvetica,sans-Serif" font-size="10.00">/src/SimReaderSpec.cxx</text>
</a>
</g>
</g>
<!-- Node4&#45;&gt;Node17 -->
<g id="edge19" class="edge"><title>Node4&#45;&gt;Node17</title>
<path fill="none" stroke="midnightblue" d="M1084.49,-355.234C1115.01,-343.756 1149.73,-330.699 1178.79,-319.771"/>
<polygon fill="midnightblue" stroke="midnightblue" points="1082.87,-352.104 1074.74,-358.901 1085.33,-358.656 1082.87,-352.104"/>
</g>
<!-- Node18 -->
<g id="node18" class="node"><title>Node18</title>
<g id="a_node18"><a xlink:href="../../d6/d61/TOFDigitizerSpec_8cxx.html" target="_top" xlink:title="/home/travis/build\l/AliceO2Group/AliceO2\l/Steer/DigitizerWorkflow\l/src/TOFDigitizerSpec.cxx">
<polygon fill="none" stroke="black" points="1323.5,-269 1323.5,-321 1456.5,-321 1456.5,-269 1323.5,-269"/>
<text text-anchor="start" x="1331.5" y="-309" font-family="Helvetica,sans-Serif" font-size="10.00">/home/travis/build</text>
<text text-anchor="start" x="1331.5" y="-298" font-family="Helvetica,sans-Serif" font-size="10.00">/AliceO2Group/AliceO2</text>
<text text-anchor="start" x="1331.5" y="-287" font-family="Helvetica,sans-Serif" font-size="10.00">/Steer/DigitizerWorkflow</text>
<text text-anchor="middle" x="1390" y="-276" font-family="Helvetica,sans-Serif" font-size="10.00">/src/TOFDigitizerSpec.cxx</text>
</a>
</g>
</g>
<!-- Node4&#45;&gt;Node18 -->
<g id="edge20" class="edge"><title>Node4&#45;&gt;Node18</title>
<path fill="none" stroke="midnightblue" d="M1101.79,-368.254C1162.73,-357.226 1243.63,-341.08 1314,-322 1317.1,-321.161 1320.25,-320.262 1323.42,-319.322"/>
<polygon fill="midnightblue" stroke="midnightblue" points="1101.03,-364.835 1091.8,-370.048 1102.27,-371.725 1101.03,-364.835"/>
</g>
<!-- Node19 -->
<g id="node19" class="node"><title>Node19</title>
<g id="a_node19"><a xlink:href="../../d6/d0b/HitProcessingManager_8cxx.html" target="_top" xlink:title="/home/travis/build\l/AliceO2Group/AliceO2\l/Steer/src/HitProcessingManager.cxx">
<polygon fill="none" stroke="black" points="1475,-274.5 1475,-315.5 1655,-315.5 1655,-274.5 1475,-274.5"/>
<text text-anchor="start" x="1483" y="-303.5" font-family="Helvetica,sans-Serif" font-size="10.00">/home/travis/build</text>
<text text-anchor="start" x="1483" y="-292.5" font-family="Helvetica,sans-Serif" font-size="10.00">/AliceO2Group/AliceO2</text>
<text text-anchor="middle" x="1565" y="-281.5" font-family="Helvetica,sans-Serif" font-size="10.00">/Steer/src/HitProcessingManager.cxx</text>
</a>
</g>
</g>
<!-- Node4&#45;&gt;Node19 -->
<g id="edge22" class="edge"><title>Node4&#45;&gt;Node19</title>
<path fill="none" stroke="midnightblue" d="M1102.09,-374.56C1194.87,-364.473 1340.45,-346.55 1465,-322 1474.5,-320.127 1484.45,-317.887 1494.22,-315.519"/>
<polygon fill="midnightblue" stroke="midnightblue" points="1101.45,-371.109 1091.89,-375.662 1102.2,-378.069 1101.45,-371.109"/>
</g>
<!-- Node20 -->
<g id="node20" class="node"><title>Node20</title>
<g id="a_node20"><a xlink:href="../../d7/d6d/testHitProcessingManager_8cxx.html" target="_top" xlink:title="/home/travis/build\l/AliceO2Group/AliceO2\l/Steer/test/testHitProcessing\lManager.cxx">
<polygon fill="none" stroke="black" points="1673.5,-269 1673.5,-321 1816.5,-321 1816.5,-269 1673.5,-269"/>
<text text-anchor="start" x="1681.5" y="-309" font-family="Helvetica,sans-Serif" font-size="10.00">/home/travis/build</text>
<text text-anchor="start" x="1681.5" y="-298" font-family="Helvetica,sans-Serif" font-size="10.00">/AliceO2Group/AliceO2</text>
<text text-anchor="start" x="1681.5" y="-287" font-family="Helvetica,sans-Serif" font-size="10.00">/Steer/test/testHitProcessing</text>
<text text-anchor="middle" x="1745" y="-276" font-family="Helvetica,sans-Serif" font-size="10.00">Manager.cxx</text>
</a>
</g>
</g>
<!-- Node4&#45;&gt;Node20 -->
<g id="edge23" class="edge"><title>Node4&#45;&gt;Node20</title>
<path fill="none" stroke="midnightblue" d="M1101.87,-381.497C1230.06,-376.639 1466.52,-362.528 1664,-322 1667.04,-321.376 1670.12,-320.68 1673.23,-319.928"/>
<polygon fill="midnightblue" stroke="midnightblue" points="1101.56,-378.006 1091.7,-381.872 1101.82,-385.001 1101.56,-378.006"/>
</g>
<!-- Node5&#45;&gt;Node6 -->
<g id="edge5" class="edge"><title>Node5&#45;&gt;Node6</title>
<path fill="none" stroke="midnightblue" d="M478.318,-264.681C455.409,-254.134 429.519,-242.214 406.386,-231.564"/>
<polygon fill="midnightblue" stroke="midnightblue" points="477.055,-267.953 487.602,-268.955 479.982,-261.594 477.055,-267.953"/>
</g>
<!-- Node7 -->
<g id="node7" class="node"><title>Node7</title>
<g id="a_node7"><a xlink:href="../../df/d46/TPC_2simulation_2src_2DigitizerTask_8cxx.html" target="_top" xlink:title="/home/travis/build\l/AliceO2Group/AliceO2\l/Detectors/TPC/simulation\l/src/DigitizerTask.cxx">
<polygon fill="none" stroke="black" points="408.5,-79 408.5,-131 541.5,-131 541.5,-79 408.5,-79"/>
<text text-anchor="start" x="416.5" y="-119" font-family="Helvetica,sans-Serif" font-size="10.00">/home/travis/build</text>
<text text-anchor="start" x="416.5" y="-108" font-family="Helvetica,sans-Serif" font-size="10.00">/AliceO2Group/AliceO2</text>
<text text-anchor="start" x="416.5" y="-97" font-family="Helvetica,sans-Serif" font-size="10.00">/Detectors/TPC/simulation</text>
<text text-anchor="middle" x="475" y="-86" font-family="Helvetica,sans-Serif" font-size="10.00">/src/DigitizerTask.cxx</text>
</a>
</g>
</g>
<!-- Node5&#45;&gt;Node7 -->
<g id="edge13" class="edge"><title>Node5&#45;&gt;Node7</title>
<path fill="none" stroke="midnightblue" d="M490.252,-262.403C480.444,-253.837 471.532,-243.652 466,-232 450.669,-199.707 458.51,-157.456 466.23,-131.019"/>
<polygon fill="midnightblue" stroke="midnightblue" points="488.297,-265.325 498.263,-268.923 492.716,-259.895 488.297,-265.325"/>
</g>
<!-- Node5&#45;&gt;Node12 -->
<g id="edge14" class="edge"><title>Node5&#45;&gt;Node12</title>
<path fill="none" stroke="midnightblue" d="M589.598,-262.545C599.932,-253.749 609.885,-243.428 617,-232 636.372,-200.885 643.238,-158.311 645.669,-131.485"/>
<polygon fill="midnightblue" stroke="midnightblue" points="587.234,-259.956 581.661,-268.967 591.637,-265.397 587.234,-259.956"/>
</g>
<!-- Node13 -->
<g id="node13" class="node"><title>Node13</title>
<g id="a_node13"><a xlink:href="../../d7/d0a/TPC_2simulation_2src_2Digitizer_8cxx.html" target="_top" xlink:title="/home/travis/build\l/AliceO2Group/AliceO2\l/Detectors/TPC/simulation\l/src/Digitizer.cxx">
<polygon fill="none" stroke="black" points="475.5,-174 475.5,-226 608.5,-226 608.5,-174 475.5,-174"/>
<text text-anchor="start" x="483.5" y="-214" font-family="Helvetica,sans-Serif" font-size="10.00">/home/travis/build</text>
<text text-anchor="start" x="483.5" y="-203" font-family="Helvetica,sans-Serif" font-size="10.00">/AliceO2Group/AliceO2</text>
<text text-anchor="start" x="483.5" y="-192" font-family="Helvetica,sans-Serif" font-size="10.00">/Detectors/TPC/simulation</text>
<text text-anchor="middle" x="542" y="-181" font-family="Helvetica,sans-Serif" font-size="10.00">/src/Digitizer.cxx</text>
</a>
</g>
</g>
<!-- Node5&#45;&gt;Node13 -->
<g id="edge12" class="edge"><title>Node5&#45;&gt;Node13</title>
<path fill="none" stroke="midnightblue" d="M542,-258.549C542,-247.722 542,-236.046 542,-226.06"/>
<polygon fill="midnightblue" stroke="midnightblue" points="538.5,-258.587 542,-268.587 545.5,-258.587 538.5,-258.587"/>
</g>
<!-- Node6&#45;&gt;Node7 -->
<g id="edge6" class="edge"><title>Node6&#45;&gt;Node7</title>
<path fill="none" stroke="midnightblue" d="M392.936,-162.533C408.212,-152.009 424.533,-140.766 438.564,-131.1"/>
<polygon fill="midnightblue" stroke="midnightblue" points="390.828,-159.735 384.578,-168.291 394.799,-165.5 390.828,-159.735"/>
</g>
<!-- Node8 -->
<g id="node8" class="node"><title>Node8</title>
<g id="a_node8"><a xlink:href="../../d1/d7a/run__digi_8C.html" target="_top" xlink:title="/home/travis/build\l/AliceO2Group/AliceO2\l/macro/run_digi.C">
<polygon fill="none" stroke="black" points="136,-84.5 136,-125.5 254,-125.5 254,-84.5 136,-84.5"/>
<text text-anchor="start" x="144" y="-113.5" font-family="Helvetica,sans-Serif" font-size="10.00">/home/travis/build</text>
<text text-anchor="start" x="144" y="-102.5" font-family="Helvetica,sans-Serif" font-size="10.00">/AliceO2Group/AliceO2</text>
<text text-anchor="middle" x="195" y="-91.5" font-family="Helvetica,sans-Serif" font-size="10.00">/macro/run_digi.C</text>
</a>
</g>
</g>
<!-- Node6&#45;&gt;Node8 -->
<g id="edge7" class="edge"><title>Node6&#45;&gt;Node8</title>
<path fill="none" stroke="midnightblue" d="M283.484,-162.752C263.741,-150.089 242.332,-136.358 225.52,-125.575"/>
<polygon fill="midnightblue" stroke="midnightblue" points="281.813,-165.838 292.12,-168.291 285.592,-159.946 281.813,-165.838"/>
</g>
<!-- Node9 -->
<g id="node9" class="node"><title>Node9</title>
<g id="a_node9"><a xlink:href="../../d9/de3/run__digi__all_8C.html" target="_top" xlink:title="/home/travis/build\l/AliceO2Group/AliceO2\l/macro/run_digi_all.C">
<polygon fill="none" stroke="black" points="272,-84.5 272,-125.5 390,-125.5 390,-84.5 272,-84.5"/>
<text text-anchor="start" x="280" y="-113.5" font-family="Helvetica,sans-Serif" font-size="10.00">/home/travis/build</text>
<text text-anchor="start" x="280" y="-102.5" font-family="Helvetica,sans-Serif" font-size="10.00">/AliceO2Group/AliceO2</text>
<text text-anchor="middle" x="331" y="-91.5" font-family="Helvetica,sans-Serif" font-size="10.00">/macro/run_digi_all.C</text>
</a>
</g>
</g>
<!-- Node6&#45;&gt;Node9 -->
<g id="edge8" class="edge"><title>Node6&#45;&gt;Node9</title>
<path fill="none" stroke="midnightblue" d="M336.043,-158.112C334.949,-146.807 333.812,-135.052 332.894,-125.575"/>
<polygon fill="midnightblue" stroke="midnightblue" points="332.581,-158.674 337.028,-168.291 339.549,-158 332.581,-158.674"/>
</g>
<!-- Node10 -->
<g id="node10" class="node"><title>Node10</title>
<g id="a_node10"><a xlink:href="../../d3/db7/run__digi__tpc_8C.html" target="_top" xlink:title="/home/travis/build\l/AliceO2Group/AliceO2\l/macro/run_digi_tpc.C">
<polygon fill="none" stroke="black" points="0,-84.5 0,-125.5 118,-125.5 118,-84.5 0,-84.5"/>
<text text-anchor="start" x="8" y="-113.5" font-family="Helvetica,sans-Serif" font-size="10.00">/home/travis/build</text>
<text text-anchor="start" x="8" y="-102.5" font-family="Helvetica,sans-Serif" font-size="10.00">/AliceO2Group/AliceO2</text>
<text text-anchor="middle" x="59" y="-91.5" font-family="Helvetica,sans-Serif" font-size="10.00">/macro/run_digi_tpc.C</text>
</a>
</g>
</g>
<!-- Node6&#45;&gt;Node10 -->
<g id="edge9" class="edge"><title>Node6&#45;&gt;Node10</title>
<path fill="none" stroke="midnightblue" d="M251.37,-172.434C212.962,-160.583 167.585,-146.128 127,-132 121.151,-129.964 115.05,-127.755 109.007,-125.513"/>
<polygon fill="midnightblue" stroke="midnightblue" points="250.39,-175.794 260.977,-175.389 252.448,-169.104 250.39,-175.794"/>
</g>
<!-- Node6&#45;&gt;Node12 -->
<g id="edge11" class="edge"><title>Node6&#45;&gt;Node12</title>
<path fill="none" stroke="midnightblue" d="M428.893,-172.072C471.641,-159.122 522.567,-143.695 564.455,-131.005"/>
<polygon fill="midnightblue" stroke="midnightblue" points="427.616,-168.801 419.06,-175.05 429.645,-175.501 427.616,-168.801"/>
</g>
<!-- Node11 -->
<g id="node11" class="node"><title>Node11</title>
<g id="a_node11"><a xlink:href="../../d3/d56/runTPC_8cxx.html" target="_top" xlink:title="/home/travis/build\l/AliceO2Group/AliceO2\l/run/runTPC.cxx">
<polygon fill="none" stroke="black" points="0,-0.5 0,-41.5 118,-41.5 118,-0.5 0,-0.5"/>
<text text-anchor="start" x="8" y="-29.5" font-family="Helvetica,sans-Serif" font-size="10.00">/home/travis/build</text>
<text text-anchor="start" x="8" y="-18.5" font-family="Helvetica,sans-Serif" font-size="10.00">/AliceO2Group/AliceO2</text>
<text text-anchor="middle" x="59" y="-7.5" font-family="Helvetica,sans-Serif" font-size="10.00">/run/runTPC.cxx</text>
</a>
</g>
</g>
<!-- Node10&#45;&gt;Node11 -->
<g id="edge10" class="edge"><title>Node10&#45;&gt;Node11</title>
<path fill="none" stroke="midnightblue" d="M59,-73.881C59,-63.1328 59,-51.309 59,-41.6671"/>
<polygon fill="midnightblue" stroke="midnightblue" points="55.5001,-74.1501 59,-84.1501 62.5001,-74.1501 55.5001,-74.1501"/>
</g>
</g>
</svg>
