<?xml version="1.0" encoding="UTF-8" standalone="no"?>
<!DOCTYPE svg PUBLIC "-//W3C//DTD SVG 1.1//EN"
 "http://www.w3.org/Graphics/SVG/1.1/DTD/svg11.dtd">
<!-- Generated by graphviz version 2.36.0 (20140111.2315)
 -->
<!-- Title: /home/travis/build/AliceO2Group/AliceO2/Detectors/Passive/src/Dipole.cxx Pages: 1 -->
<svg width="2135pt" height="230pt"
 viewBox="0.00 0.00 2135.00 230.00" xmlns="http://www.w3.org/2000/svg" xmlns:xlink="http://www.w3.org/1999/xlink">
<g id="graph0" class="graph" transform="scale(1 1) rotate(0) translate(4 226)">
<title>/home/travis/build/AliceO2Group/AliceO2/Detectors/Passive/src/Dipole.cxx</title>
<!-- Node1 -->
<g id="node1" class="node"><title>Node1</title>
<polygon fill="#bfbfbf" stroke="black" points="1360,-169 1360,-221 1478,-221 1478,-169 1360,-169"/>
<text text-anchor="start" x="1368" y="-209" font-family="Helvetica,sans-Serif" font-size="10.00">/home/travis/build</text>
<text text-anchor="start" x="1368" y="-198" font-family="Helvetica,sans-Serif" font-size="10.00">/AliceO2Group/AliceO2</text>
<text text-anchor="start" x="1368" y="-187" font-family="Helvetica,sans-Serif" font-size="10.00">/Detectors/Passive/src</text>
<text text-anchor="middle" x="1419" y="-176" font-family="Helvetica,sans-Serif" font-size="10.00">/Dipole.cxx</text>
</g>
<!-- Node2 -->
<g id="node2" class="node"><title>Node2</title>
<g id="a_node2"><a xlink:href="../../d1/d3a/Base_2include_2DetectorsBase_2Detector_8h.html" target="_top" xlink:title="DetectorsBase/Detector.h">
<polygon fill="none" stroke="black" points="716.5,-112.5 716.5,-131.5 847.5,-131.5 847.5,-112.5 716.5,-112.5"/>
<text text-anchor="middle" x="782" y="-119.5" font-family="Helvetica,sans-Serif" font-size="10.00">DetectorsBase/Detector.h</text>
</a>
</g>
</g>
<!-- Node1&#45;&gt;Node2 -->
<g id="edge1" class="edge"><title>Node1&#45;&gt;Node2</title>
<path fill="none" stroke="midnightblue" d="M1359.64,-187.416C1257.82,-176.117 1043.3,-152.289 862,-132 860.711,-131.856 859.41,-131.71 858.1,-131.563"/>
<polygon fill="midnightblue" stroke="midnightblue" points="858.248,-128.058 847.92,-130.422 857.468,-135.015 858.248,-128.058"/>
</g>
<!-- Node9 -->
<g id="node9" class="node"><title>Node9</title>
<g id="a_node9"><a xlink:href="../../d0/d9a/MaterialManager_8h.html" target="_top" xlink:title="DetectorsBase/MaterialManager.h">
<polygon fill="none" stroke="black" points="1248.5,-56.5 1248.5,-75.5 1413.5,-75.5 1413.5,-56.5 1248.5,-56.5"/>
<text text-anchor="middle" x="1331" y="-63.5" font-family="Helvetica,sans-Serif" font-size="10.00">DetectorsBase/MaterialManager.h</text>
</a>
</g>
</g>
<!-- Node1&#45;&gt;Node9 -->
<g id="edge22" class="edge"><title>Node1&#45;&gt;Node9</title>
<path fill="none" stroke="midnightblue" d="M1359.61,-191.337C1228.89,-184.867 925.464,-166.281 895,-132 889.095,-125.356 889.046,-118.6 895,-112 896.431,-110.414 1110.53,-88.8966 1238.14,-76.2004"/>
<polygon fill="midnightblue" stroke="midnightblue" points="1238.7,-79.6614 1248.31,-75.1889 1238.01,-72.6958 1238.7,-79.6614"/>
</g>
<!-- Node20 -->
<g id="node20" class="node"><title>Node20</title>
<g id="a_node20"><a xlink:href="../../d8/d70/Dipole_8h.html" target="_top" xlink:title="DetectorsPassive/Dipole.h">
<polygon fill="none" stroke="black" points="34,-112.5 34,-131.5 168,-131.5 168,-112.5 34,-112.5"/>
<text text-anchor="middle" x="101" y="-119.5" font-family="Helvetica,sans-Serif" font-size="10.00">DetectorsPassive/Dipole.h</text>
</a>
</g>
</g>
<!-- Node1&#45;&gt;Node20 -->
<g id="edge23" class="edge"><title>Node1&#45;&gt;Node20</title>
<path fill="none" stroke="midnightblue" d="M1359.81,-190.811C1146.61,-179.326 417.928,-140.073 178.168,-127.157"/>
<polygon fill="midnightblue" stroke="midnightblue" points="178.316,-123.66 168.142,-126.617 177.939,-130.65 178.316,-123.66"/>
</g>
<!-- Node22 -->
<g id="node22" class="node"><title>Node22</title>
<polygon fill="none" stroke="#bfbfbf" points="904.5,-112.5 904.5,-131.5 973.5,-131.5 973.5,-112.5 904.5,-112.5"/>
<text text-anchor="middle" x="939" y="-119.5" font-family="Helvetica,sans-Serif" font-size="10.00">TGeoArb8.h</text>
</g>
<!-- Node1&#45;&gt;Node22 -->
<g id="edge26" class="edge"><title>Node1&#45;&gt;Node22</title>
<path fill="none" stroke="midnightblue" d="M1359.94,-186.753C1277.92,-176.435 1124.68,-156.235 983.679,-132.023"/>
<polygon fill="midnightblue" stroke="midnightblue" points="984,-128.526 973.55,-130.273 982.808,-135.424 984,-128.526"/>
</g>
<!-- Node23 -->
<g id="node23" class="node"><title>Node23</title>
<polygon fill="none" stroke="#bfbfbf" points="992,-112.5 992,-131.5 1116,-131.5 1116,-112.5 992,-112.5"/>
<text text-anchor="middle" x="1054" y="-119.5" font-family="Helvetica,sans-Serif" font-size="10.00">TGeoCompositeShape.h</text>
</g>
<!-- Node1&#45;&gt;Node23 -->
<g id="edge27" class="edge"><title>Node1&#45;&gt;Node23</title>
<path fill="none" stroke="midnightblue" d="M1359.95,-182.514C1290.19,-168.944 1175.13,-146.562 1107.76,-133.457"/>
<polygon fill="midnightblue" stroke="midnightblue" points="1108.26,-129.989 1097.77,-131.515 1106.92,-136.86 1108.26,-129.989"/>
</g>
<!-- Node24 -->
<g id="node24" class="node"><title>Node24</title>
<polygon fill="none" stroke="#bfbfbf" points="1134,-112.5 1134,-131.5 1206,-131.5 1206,-112.5 1134,-112.5"/>
<text text-anchor="middle" x="1170" y="-119.5" font-family="Helvetica,sans-Serif" font-size="10.00">TGeoCone.h</text>
</g>
<!-- Node1&#45;&gt;Node24 -->
<g id="edge28" class="edge"><title>Node1&#45;&gt;Node24</title>
<path fill="none" stroke="midnightblue" d="M1359.99,-177.174C1313.59,-163.943 1250.22,-145.873 1209.69,-134.318"/>
<polygon fill="midnightblue" stroke="midnightblue" points="1210.48,-130.904 1199.91,-131.528 1208.56,-137.636 1210.48,-130.904"/>
</g>
<!-- Node25 -->
<g id="node25" class="node"><title>Node25</title>
<polygon fill="none" stroke="#bfbfbf" points="1224,-112.5 1224,-131.5 1310,-131.5 1310,-112.5 1224,-112.5"/>
<text text-anchor="middle" x="1267" y="-119.5" font-family="Helvetica,sans-Serif" font-size="10.00">TGeoManager.h</text>
</g>
<!-- Node1&#45;&gt;Node25 -->
<g id="edge29" class="edge"><title>Node1&#45;&gt;Node25</title>
<path fill="none" stroke="midnightblue" d="M1365.41,-168.968C1341.57,-157.834 1314.51,-145.191 1294.8,-135.986"/>
<polygon fill="midnightblue" stroke="midnightblue" points="1296.04,-132.7 1285.49,-131.639 1293.07,-139.042 1296.04,-132.7"/>
</g>
<!-- Node26 -->
<g id="node26" class="node"><title>Node26</title>
<polygon fill="none" stroke="#bfbfbf" points="1328.5,-112.5 1328.5,-131.5 1411.5,-131.5 1411.5,-112.5 1328.5,-112.5"/>
<text text-anchor="middle" x="1370" y="-119.5" font-family="Helvetica,sans-Serif" font-size="10.00">TGeoMaterial.h</text>
</g>
<!-- Node1&#45;&gt;Node26 -->
<g id="edge30" class="edge"><title>Node1&#45;&gt;Node26</title>
<path fill="none" stroke="midnightblue" d="M1401.59,-168.768C1395.04,-159.284 1387.76,-148.731 1381.84,-140.15"/>
<polygon fill="midnightblue" stroke="midnightblue" points="1384.6,-137.999 1376.04,-131.757 1378.84,-141.975 1384.6,-137.999"/>
</g>
<!-- Node27 -->
<g id="node27" class="node"><title>Node27</title>
<polygon fill="none" stroke="#bfbfbf" points="1430,-112.5 1430,-131.5 1506,-131.5 1506,-112.5 1430,-112.5"/>
<text text-anchor="middle" x="1468" y="-119.5" font-family="Helvetica,sans-Serif" font-size="10.00">TGeoMatrix.h</text>
</g>
<!-- Node1&#45;&gt;Node27 -->
<g id="edge31" class="edge"><title>Node1&#45;&gt;Node27</title>
<path fill="none" stroke="midnightblue" d="M1436.41,-168.768C1442.96,-159.284 1450.24,-148.731 1456.16,-140.15"/>
<polygon fill="midnightblue" stroke="midnightblue" points="1459.16,-141.975 1461.96,-131.757 1453.4,-137.999 1459.16,-141.975"/>
</g>
<!-- Node28 -->
<g id="node28" class="node"><title>Node28</title>
<polygon fill="none" stroke="#bfbfbf" points="1524.5,-112.5 1524.5,-131.5 1607.5,-131.5 1607.5,-112.5 1524.5,-112.5"/>
<text text-anchor="middle" x="1566" y="-119.5" font-family="Helvetica,sans-Serif" font-size="10.00">TGeoMedium.h</text>
</g>
<!-- Node1&#45;&gt;Node28 -->
<g id="edge32" class="edge"><title>Node1&#45;&gt;Node28</title>
<path fill="none" stroke="midnightblue" d="M1470.83,-168.968C1493.77,-157.885 1519.82,-145.306 1538.85,-136.112"/>
<polygon fill="midnightblue" stroke="midnightblue" points="1540.63,-139.14 1548.11,-131.639 1537.59,-132.837 1540.63,-139.14"/>
</g>
<!-- Node29 -->
<g id="node29" class="node"><title>Node29</title>
<polygon fill="none" stroke="#bfbfbf" points="1625.5,-112.5 1625.5,-131.5 1696.5,-131.5 1696.5,-112.5 1625.5,-112.5"/>
<text text-anchor="middle" x="1661" y="-119.5" font-family="Helvetica,sans-Serif" font-size="10.00">TGeoPcon.h</text>
</g>
<!-- Node1&#45;&gt;Node29 -->
<g id="edge33" class="edge"><title>Node1&#45;&gt;Node29</title>
<path fill="none" stroke="midnightblue" d="M1478.2,-176.631C1522.9,-163.517 1582.98,-145.889 1621.85,-134.486"/>
<polygon fill="midnightblue" stroke="midnightblue" points="1623.13,-137.759 1631.74,-131.585 1621.16,-131.042 1623.13,-137.759"/>
</g>
<!-- Node30 -->
<g id="node30" class="node"><title>Node30</title>
<polygon fill="none" stroke="#bfbfbf" points="1714.5,-112.5 1714.5,-131.5 1785.5,-131.5 1785.5,-112.5 1714.5,-112.5"/>
<text text-anchor="middle" x="1750" y="-119.5" font-family="Helvetica,sans-Serif" font-size="10.00">TGeoPgon.h</text>
</g>
<!-- Node1&#45;&gt;Node30 -->
<g id="edge34" class="edge"><title>Node1&#45;&gt;Node30</title>
<path fill="none" stroke="midnightblue" d="M1478.18,-181.307C1542.91,-167.422 1645.27,-145.466 1704.17,-132.831"/>
<polygon fill="midnightblue" stroke="midnightblue" points="1705.25,-136.179 1714.29,-130.66 1703.78,-129.335 1705.25,-136.179"/>
</g>
<!-- Node31 -->
<g id="node31" class="node"><title>Node31</title>
<polygon fill="none" stroke="#bfbfbf" points="1803.5,-112.5 1803.5,-131.5 1874.5,-131.5 1874.5,-112.5 1803.5,-112.5"/>
<text text-anchor="middle" x="1839" y="-119.5" font-family="Helvetica,sans-Serif" font-size="10.00">TGeoTube.h</text>
</g>
<!-- Node1&#45;&gt;Node31 -->
<g id="edge35" class="edge"><title>Node1&#45;&gt;Node31</title>
<path fill="none" stroke="midnightblue" d="M1478.21,-184.839C1550.18,-173.563 1675.58,-153.467 1793.25,-132.087"/>
<polygon fill="midnightblue" stroke="midnightblue" points="1793.95,-135.518 1803.16,-130.281 1792.69,-128.631 1793.95,-135.518"/>
</g>
<!-- Node32 -->
<g id="node32" class="node"><title>Node32</title>
<polygon fill="none" stroke="#bfbfbf" points="1893,-112.5 1893,-131.5 1975,-131.5 1975,-112.5 1893,-112.5"/>
<text text-anchor="middle" x="1934" y="-119.5" font-family="Helvetica,sans-Serif" font-size="10.00">TGeoVolume.h</text>
</g>
<!-- Node1&#45;&gt;Node32 -->
<g id="edge36" class="edge"><title>Node1&#45;&gt;Node32</title>
<path fill="none" stroke="midnightblue" d="M1478.08,-186.91C1564.45,-176.365 1730.5,-155.422 1882.82,-131.966"/>
<polygon fill="midnightblue" stroke="midnightblue" points="1883.48,-135.405 1892.83,-130.418 1882.41,-128.488 1883.48,-135.405"/>
</g>
<!-- Node33 -->
<g id="node33" class="node"><title>Node33</title>
<polygon fill="none" stroke="#bfbfbf" points="1993.5,-112.5 1993.5,-131.5 2060.5,-131.5 2060.5,-112.5 1993.5,-112.5"/>
<text text-anchor="middle" x="2027" y="-119.5" font-family="Helvetica,sans-Serif" font-size="10.00">TGeoXtru.h</text>
</g>
<!-- Node1&#45;&gt;Node33 -->
<g id="edge37" class="edge"><title>Node1&#45;&gt;Node33</title>
<path fill="none" stroke="midnightblue" d="M1478.22,-189.405C1579.62,-181.122 1793.09,-161.867 1983.35,-131.955"/>
<polygon fill="midnightblue" stroke="midnightblue" points="1983.93,-135.408 1993.26,-130.385 1982.83,-128.494 1983.93,-135.408"/>
</g>
<!-- Node34 -->
<g id="node34" class="node"><title>Node34</title>
<polygon fill="none" stroke="#bfbfbf" points="2078.5,-112.5 2078.5,-131.5 2127.5,-131.5 2127.5,-112.5 2078.5,-112.5"/>
<text text-anchor="middle" x="2103" y="-119.5" font-family="Helvetica,sans-Serif" font-size="10.00">cassert</text>
</g>
<!-- Node1&#45;&gt;Node34 -->
<g id="edge38" class="edge"><title>Node1&#45;&gt;Node34</title>
<path fill="none" stroke="midnightblue" d="M1478.15,-191.601C1591.2,-186.312 1845.75,-171.015 2068.32,-131.824"/>
<polygon fill="midnightblue" stroke="midnightblue" points="2068.99,-135.259 2078.22,-130.06 2067.76,-128.368 2068.99,-135.259"/>
</g>
<!-- Node3 -->
<g id="node3" class="node"><title>Node3</title>
<polygon fill="none" stroke="#bfbfbf" points="1023.5,-0.5 1023.5,-19.5 1058.5,-19.5 1058.5,-0.5 1023.5,-0.5"/>
<text text-anchor="middle" x="1041" y="-7.5" font-family="Helvetica,sans-Serif" font-size="10.00">map</text>
</g>
<!-- Node2&#45;&gt;Node3 -->
<g id="edge2" class="edge"><title>Node2&#45;&gt;Node3</title>
<path fill="none" stroke="midnightblue" d="M784.535,-112.253C789.129,-98.053 800.231,-70.153 820,-56 850.764,-33.9761 961.022,-19.5596 1013.22,-13.8157"/>
<polygon fill="midnightblue" stroke="midnightblue" points="1013.86,-17.2674 1023.43,-12.722 1013.12,-10.3072 1013.86,-17.2674"/>
</g>
<!-- Node4 -->
<g id="node4" class="node"><title>Node4</title>
<polygon fill="none" stroke="#bfbfbf" points="829,-56.5 829,-75.5 873,-75.5 873,-56.5 829,-56.5"/>
<text text-anchor="middle" x="851" y="-63.5" font-family="Helvetica,sans-Serif" font-size="10.00">vector</text>
</g>
<!-- Node2&#45;&gt;Node4 -->
<g id="edge3" class="edge"><title>Node2&#45;&gt;Node4</title>
<path fill="none" stroke="midnightblue" d="M793.086,-112.324C803.486,-104.185 819.261,-91.8395 831.722,-82.0874"/>
<polygon fill="midnightblue" stroke="midnightblue" points="833.994,-84.7533 839.712,-75.8339 829.68,-79.2407 833.994,-84.7533"/>
</g>
<!-- Node5 -->
<g id="node5" class="node"><title>Node5</title>
<polygon fill="none" stroke="#bfbfbf" points="1397.5,-0.5 1397.5,-19.5 1470.5,-19.5 1470.5,-0.5 1397.5,-0.5"/>
<text text-anchor="middle" x="1434" y="-7.5" font-family="Helvetica,sans-Serif" font-size="10.00">initializer_list</text>
</g>
<!-- Node2&#45;&gt;Node5 -->
<g id="edge4" class="edge"><title>Node2&#45;&gt;Node5</title>
<path fill="none" stroke="midnightblue" d="M847.718,-115.64C863.221,-114.41 879.691,-113.132 895,-112 953.532,-107.67 1378.19,-115.062 1422,-76 1434.69,-64.68 1436.71,-44.6789 1436.16,-29.8438"/>
<polygon fill="midnightblue" stroke="midnightblue" points="1439.64,-29.4333 1435.37,-19.7356 1432.66,-29.9775 1439.64,-29.4333"/>
</g>
<!-- Node6 -->
<g id="node6" class="node"><title>Node6</title>
<polygon fill="none" stroke="#bfbfbf" points="891,-56.5 891,-75.5 943,-75.5 943,-56.5 891,-56.5"/>
<text text-anchor="middle" x="917" y="-63.5" font-family="Helvetica,sans-Serif" font-size="10.00">memory</text>
</g>
<!-- Node2&#45;&gt;Node6 -->
<g id="edge5" class="edge"><title>Node2&#45;&gt;Node6</title>
<path fill="none" stroke="midnightblue" d="M803.391,-112.444C825.707,-103.517 860.903,-89.4387 886.208,-79.3168"/>
<polygon fill="midnightblue" stroke="midnightblue" points="887.724,-82.4801 895.709,-75.5164 885.124,-75.9807 887.724,-82.4801"/>
</g>
<!-- Node7 -->
<g id="node7" class="node"><title>Node7</title>
<polygon fill="none" stroke="#bfbfbf" points="961.5,-56.5 961.5,-75.5 1040.5,-75.5 1040.5,-56.5 961.5,-56.5"/>
<text text-anchor="middle" x="1001" y="-63.5" font-family="Helvetica,sans-Serif" font-size="10.00">FairDetector.h</text>
</g>
<!-- Node2&#45;&gt;Node7 -->
<g id="edge6" class="edge"><title>Node2&#45;&gt;Node7</title>
<path fill="none" stroke="midnightblue" d="M816.701,-112.444C854.585,-103.102 915.349,-88.1194 956.662,-77.9326"/>
<polygon fill="midnightblue" stroke="midnightblue" points="957.59,-81.3088 966.461,-75.5164 955.914,-74.5123 957.59,-81.3088"/>
</g>
<!-- Node8 -->
<g id="node8" class="node"><title>Node8</title>
<polygon fill="none" stroke="#bfbfbf" points="1059,-56.5 1059,-75.5 1159,-75.5 1159,-56.5 1059,-56.5"/>
<text text-anchor="middle" x="1109" y="-63.5" font-family="Helvetica,sans-Serif" font-size="10.00">FairRootManager.h</text>
</g>
<!-- Node2&#45;&gt;Node8 -->
<g id="edge7" class="edge"><title>Node2&#45;&gt;Node8</title>
<path fill="none" stroke="midnightblue" d="M833.814,-112.444C892.242,-102.795 987.119,-87.1272 1048.79,-76.9428"/>
<polygon fill="midnightblue" stroke="midnightblue" points="1049.47,-80.3775 1058.77,-75.2948 1048.33,-73.471 1049.47,-80.3775"/>
</g>
<!-- Node2&#45;&gt;Node9 -->
<g id="edge8" class="edge"><title>Node2&#45;&gt;Node9</title>
<path fill="none" stroke="midnightblue" d="M847.912,-113.496C852.678,-112.981 857.412,-112.477 862,-112 1026.23,-94.9224 1069.82,-92.2906 1238.29,-76.0649"/>
<polygon fill="midnightblue" stroke="midnightblue" points="1238.63,-79.5487 1248.25,-75.1043 1237.96,-72.581 1238.63,-79.5487"/>
</g>
<!-- Node10 -->
<g id="node10" class="node"><title>Node10</title>
<polygon fill="none" stroke="#bfbfbf" points="735,-0.5 735,-19.5 791,-19.5 791,-0.5 735,-0.5"/>
<text text-anchor="middle" x="763" y="-7.5" font-family="Helvetica,sans-Serif" font-size="10.00">Rtypes.h</text>
</g>
<!-- Node2&#45;&gt;Node10 -->
<g id="edge13" class="edge"><title>Node2&#45;&gt;Node10</title>
<path fill="none" stroke="midnightblue" d="M780.509,-112.368C777.443,-94.617 770.37,-53.6664 766.212,-29.5974"/>
<polygon fill="midnightblue" stroke="midnightblue" points="769.635,-28.8498 764.484,-19.5914 762.737,-30.0413 769.635,-28.8498"/>
</g>
<!-- Node12 -->
<g id="node12" class="node"><title>Node12</title>
<polygon fill="none" stroke="#bfbfbf" points="1177.5,-56.5 1177.5,-75.5 1230.5,-75.5 1230.5,-56.5 1177.5,-56.5"/>
<text text-anchor="middle" x="1204" y="-63.5" font-family="Helvetica,sans-Serif" font-size="10.00">cxxabi.h</text>
</g>
<!-- Node2&#45;&gt;Node12 -->
<g id="edge14" class="edge"><title>Node2&#45;&gt;Node12</title>
<path fill="none" stroke="midnightblue" d="M847.628,-113.572C944.56,-102.572 1119,-82.6552 1167.25,-75.6769"/>
<polygon fill="midnightblue" stroke="midnightblue" points="1168.02,-79.0986 1177.35,-74.0699 1166.92,-72.1857 1168.02,-79.0986"/>
</g>
<!-- Node13 -->
<g id="node13" class="node"><title>Node13</title>
<polygon fill="none" stroke="#bfbfbf" points="129.5,-56.5 129.5,-75.5 180.5,-75.5 180.5,-56.5 129.5,-56.5"/>
<text text-anchor="middle" x="155" y="-63.5" font-family="Helvetica,sans-Serif" font-size="10.00">typeinfo</text>
</g>
<!-- Node2&#45;&gt;Node13 -->
<g id="edge15" class="edge"><title>Node2&#45;&gt;Node13</title>
<path fill="none" stroke="midnightblue" d="M716.288,-119.77C608.387,-116.924 386.917,-107.617 190.433,-75.7441"/>
<polygon fill="midnightblue" stroke="midnightblue" points="190.939,-72.2805 180.504,-74.1105 189.803,-79.1877 190.939,-72.2805"/>
</g>
<!-- Node14 -->
<g id="node14" class="node"><title>Node14</title>
<polygon fill="none" stroke="#bfbfbf" points="199,-56.5 199,-75.5 261,-75.5 261,-56.5 199,-56.5"/>
<text text-anchor="middle" x="230" y="-63.5" font-family="Helvetica,sans-Serif" font-size="10.00">type_traits</text>
</g>
<!-- Node2&#45;&gt;Node14 -->
<g id="edge16" class="edge"><title>Node2&#45;&gt;Node14</title>
<path fill="none" stroke="midnightblue" d="M716.195,-118.034C620.409,-113.093 436.869,-101.281 271.715,-76.0747"/>
<polygon fill="midnightblue" stroke="midnightblue" points="271.785,-72.5439 261.367,-74.4738 270.714,-79.4616 271.785,-72.5439"/>
</g>
<!-- Node15 -->
<g id="node15" class="node"><title>Node15</title>
<polygon fill="none" stroke="#bfbfbf" points="279.5,-56.5 279.5,-75.5 320.5,-75.5 320.5,-56.5 279.5,-56.5"/>
<text text-anchor="middle" x="300" y="-63.5" font-family="Helvetica,sans-Serif" font-size="10.00">string</text>
</g>
<!-- Node2&#45;&gt;Node15 -->
<g id="edge17" class="edge"><title>Node2&#45;&gt;Node15</title>
<path fill="none" stroke="midnightblue" d="M716.496,-118.64C629.932,-114.604 472.719,-104.099 330.957,-76.0495"/>
<polygon fill="midnightblue" stroke="midnightblue" points="331.273,-72.5428 320.778,-73.9995 329.891,-79.405 331.273,-72.5428"/>
</g>
<!-- Node16 -->
<g id="node16" class="node"><title>Node16</title>
<polygon fill="none" stroke="#bfbfbf" points="338.5,-56.5 338.5,-75.5 431.5,-75.5 431.5,-56.5 338.5,-56.5"/>
<text text-anchor="middle" x="385" y="-63.5" font-family="Helvetica,sans-Serif" font-size="10.00">FairMQChannel.h</text>
</g>
<!-- Node2&#45;&gt;Node16 -->
<g id="edge18" class="edge"><title>Node2&#45;&gt;Node16</title>
<path fill="none" stroke="midnightblue" d="M716.351,-112.983C649.659,-104.697 543.117,-91.0765 441.886,-76.2449"/>
<polygon fill="midnightblue" stroke="midnightblue" points="442.195,-72.7528 431.792,-74.7594 441.176,-79.6782 442.195,-72.7528"/>
</g>
<!-- Node17 -->
<g id="node17" class="node"><title>Node17</title>
<polygon fill="none" stroke="#bfbfbf" points="449.5,-56.5 449.5,-75.5 546.5,-75.5 546.5,-56.5 449.5,-56.5"/>
<text text-anchor="middle" x="498" y="-63.5" font-family="Helvetica,sans-Serif" font-size="10.00">FairMQMessage.h</text>
</g>
<!-- Node2&#45;&gt;Node17 -->
<g id="edge19" class="edge"><title>Node2&#45;&gt;Node17</title>
<path fill="none" stroke="midnightblue" d="M736.999,-112.444C687.041,-102.944 606.399,-87.611 552.801,-77.4198"/>
<polygon fill="midnightblue" stroke="midnightblue" points="553.268,-73.9461 542.79,-75.5164 551.96,-80.8228 553.268,-73.9461"/>
</g>
<!-- Node18 -->
<g id="node18" class="node"><title>Node18</title>
<polygon fill="none" stroke="#bfbfbf" points="565,-56.5 565,-75.5 645,-75.5 645,-56.5 565,-56.5"/>
<text text-anchor="middle" x="605" y="-63.5" font-family="Helvetica,sans-Serif" font-size="10.00">FairMQParts.h</text>
</g>
<!-- Node2&#45;&gt;Node18 -->
<g id="edge20" class="edge"><title>Node2&#45;&gt;Node18</title>
<path fill="none" stroke="midnightblue" d="M753.954,-112.444C723.918,-103.28 676.087,-88.6876 642.757,-78.5192"/>
<polygon fill="midnightblue" stroke="midnightblue" points="643.501,-75.0869 632.915,-75.5164 641.458,-81.7822 643.501,-75.0869"/>
</g>
<!-- Node19 -->
<g id="node19" class="node"><title>Node19</title>
<polygon fill="none" stroke="#bfbfbf" points="663.5,-56.5 663.5,-75.5 734.5,-75.5 734.5,-56.5 663.5,-56.5"/>
<text text-anchor="middle" x="699" y="-63.5" font-family="Helvetica,sans-Serif" font-size="10.00">TMessage.h</text>
</g>
<!-- Node2&#45;&gt;Node19 -->
<g id="edge21" class="edge"><title>Node2&#45;&gt;Node19</title>
<path fill="none" stroke="midnightblue" d="M768.665,-112.324C755.838,-103.979 736.215,-91.2122 721.06,-81.3524"/>
<polygon fill="midnightblue" stroke="midnightblue" points="722.593,-78.1742 712.302,-75.6545 718.776,-84.0417 722.593,-78.1742"/>
</g>
<!-- Node9&#45;&gt;Node3 -->
<g id="edge10" class="edge"><title>Node9&#45;&gt;Node3</title>
<path fill="none" stroke="midnightblue" d="M1285.05,-56.4435C1224.19,-45.1116 1118.75,-25.477 1068.79,-16.1742"/>
<polygon fill="midnightblue" stroke="midnightblue" points="1069.2,-12.6904 1058.73,-14.3006 1067.92,-19.5721 1069.2,-12.6904"/>
</g>
<!-- Node9&#45;&gt;Node5 -->
<g id="edge12" class="edge"><title>Node9&#45;&gt;Node5</title>
<path fill="none" stroke="midnightblue" d="M1347.55,-56.324C1363.99,-47.7034 1389.43,-34.3643 1408.47,-24.3855"/>
<polygon fill="midnightblue" stroke="midnightblue" points="1410.26,-27.3977 1417.49,-19.6545 1407.01,-21.198 1410.26,-27.3977"/>
</g>
<!-- Node9&#45;&gt;Node10 -->
<g id="edge9" class="edge"><title>Node9&#45;&gt;Node10</title>
<path fill="none" stroke="midnightblue" d="M1248.25,-56.892C1245.13,-56.5901 1242.04,-56.2919 1239,-56 1076.3,-40.3514 882.274,-22.1524 801.37,-14.5846"/>
<polygon fill="midnightblue" stroke="midnightblue" points="801.452,-11.0772 791.17,-13.6308 800.8,-18.0468 801.452,-11.0772"/>
</g>
<!-- Node11 -->
<g id="node11" class="node"><title>Node11</title>
<polygon fill="none" stroke="#bfbfbf" points="1289.5,-0.5 1289.5,-19.5 1372.5,-19.5 1372.5,-0.5 1289.5,-0.5"/>
<text text-anchor="middle" x="1331" y="-7.5" font-family="Helvetica,sans-Serif" font-size="10.00">unordered_map</text>
</g>
<!-- Node9&#45;&gt;Node11 -->
<g id="edge11" class="edge"><title>Node9&#45;&gt;Node11</title>
<path fill="none" stroke="midnightblue" d="M1331,-56.083C1331,-49.0059 1331,-38.8611 1331,-29.9865"/>
<polygon fill="midnightblue" stroke="midnightblue" points="1334.5,-29.751 1331,-19.7511 1327.5,-29.7511 1334.5,-29.751"/>
</g>
<!-- Node20&#45;&gt;Node10 -->
<g id="edge25" class="edge"><title>Node20&#45;&gt;Node10</title>
<path fill="none" stroke="midnightblue" d="M100.665,-112.155C100.657,-97.8155 102.971,-69.7188 120,-56 167.096,-18.0599 593.148,-12.1075 724.573,-11.1737"/>
<polygon fill="midnightblue" stroke="midnightblue" points="724.967,-14.6713 734.944,-11.1063 724.921,-7.67149 724.967,-14.6713"/>
</g>
<!-- Node21 -->
<g id="node21" class="node"><title>Node21</title>
<polygon fill="none" stroke="#bfbfbf" points="-0.5,-56.5 -0.5,-75.5 72.5,-75.5 72.5,-56.5 -0.5,-56.5"/>
<text text-anchor="middle" x="36" y="-63.5" font-family="Helvetica,sans-Serif" font-size="10.00">FairModule.h</text>
</g>
<!-- Node20&#45;&gt;Node21 -->
<g id="edge24" class="edge"><title>Node20&#45;&gt;Node21</title>
<path fill="none" stroke="midnightblue" d="M90.5566,-112.324C80.8538,-104.263 66.1847,-92.0765 54.5003,-82.3695"/>
<polygon fill="midnightblue" stroke="midnightblue" points="56.5619,-79.532 46.6334,-75.8339 52.0887,-84.9163 56.5619,-79.532"/>
</g>
</g>
</svg>
