<?xml version="1.0" encoding="UTF-8" standalone="no"?>
<!DOCTYPE svg PUBLIC "-//W3C//DTD SVG 1.1//EN"
 "http://www.w3.org/Graphics/SVG/1.1/DTD/svg11.dtd">
<!-- Generated by graphviz version 2.36.0 (20140111.2315)
 -->
<!-- Title: /home/travis/build/AliceO2Group/AliceO2/Utilities/MCStepLogger/include/MCStepLogger/MetaInfo.h Pages: 1 -->
<!--zoomable 432 -->
<svg id="main" version="1.1" xmlns="http://www.w3.org/2000/svg" xmlns:xlink="http://www.w3.org/1999/xlink" xml:space="preserve" onload="init(evt)">
<style type="text/css"><![CDATA[
.edge:hover path { stroke: red; }
.edge:hover polygon { stroke: red; fill: red; }
]]></style>
<script type="text/javascript"><![CDATA[
var edges = document.getElementsByTagName('g');
if (edges && edges.length) {
  for (var i=0;i<edges.length;i++) {
    if (edges[i].id.substr(0,4)=='edge') {
      edges[i].setAttribute('class','edge');
    }
  }
}
]]></script>
        <defs>
                <circle id="rim" cx="0" cy="0" r="7"/>
                <circle id="rim2" cx="0" cy="0" r="3.5"/>
                <g id="zoomPlus">
                        <use xlink:href="#rim" fill="#404040">
                                <set attributeName="fill" to="#808080" begin="zoomplus.mouseover" end="zoomplus.mouseout"/>
                        </use>
                        <path d="M-4,0h8M0,-4v8" fill="none" stroke="white" stroke-width="1.5" pointer-events="none"/>
                </g>
                <g id="zoomMin">
                        <use xlink:href="#rim" fill="#404040">
                                <set attributeName="fill" to="#808080" begin="zoomminus.mouseover" end="zoomminus.mouseout"/>
                        </use>
                        <path d="M-4,0h8" fill="none" stroke="white" stroke-width="1.5" pointer-events="none"/>
                </g>
                <g id="dirArrow">
                        <path fill="none" stroke="white" stroke-width="1.5" d="M0,-3.0v7 M-2.5,-0.5L0,-3.0L2.5,-0.5"/>
                </g>
               <g id="resetDef">
                       <use xlink:href="#rim2" fill="#404040">
                               <set attributeName="fill" to="#808080" begin="reset.mouseover" end="reset.mouseout"/>
                       </use>
               </g>
        </defs>

<script type="text/javascript">
var viewWidth = 916;
var viewHeight = 432;
var sectionId = 'dynsection-1';
</script>
<script xlink:href="../../svgpan.js"/>
<svg id="graph" class="graph">
<g id="viewport">
<title>/home/travis/build/AliceO2Group/AliceO2/Utilities/MCStepLogger/include/MCStepLogger/MetaInfo.h</title>
<!-- Node1 -->
<g id="node1" class="node"><title>Node1</title>
<polygon fill="#bfbfbf" stroke="black" points="422.514,-371 422.514,-423 590.514,-423 590.514,-371 422.514,-371"/>
<text text-anchor="start" x="430.514" y="-411" font-family="Helvetica,sans-Serif" font-size="10.00">/home/travis/build</text>
<text text-anchor="start" x="430.514" y="-400" font-family="Helvetica,sans-Serif" font-size="10.00">/AliceO2Group/AliceO2</text>
<text text-anchor="start" x="430.514" y="-389" font-family="Helvetica,sans-Serif" font-size="10.00">/Utilities/MCStepLogger</text>
<text text-anchor="middle" x="506.514" y="-378" font-family="Helvetica,sans-Serif" font-size="10.00">/include/MCStepLogger/MetaInfo.h</text>
</g>
<!-- Node2 -->
<g id="node2" class="node"><title>Node2</title>
<g id="a_node2"><a xlink:href="../../d2/dd4/MCAnalysisFileWrapper_8h.html" target="_top" xlink:title="/home/travis/build\l/AliceO2Group/AliceO2\l/Utilities/MCStepLogger\l/include/MCStepLogger/MCAnalysis\lFileWrapper.h">
<polygon fill="none" stroke="black" points="419.014,-270.5 419.014,-333.5 594.014,-333.5 594.014,-270.5 419.014,-270.5"/>
<text text-anchor="start" x="427.014" y="-321.5" font-family="Helvetica,sans-Serif" font-size="10.00">/home/travis/build</text>
<text text-anchor="start" x="427.014" y="-310.5" font-family="Helvetica,sans-Serif" font-size="10.00">/AliceO2Group/AliceO2</text>
<text text-anchor="start" x="427.014" y="-299.5" font-family="Helvetica,sans-Serif" font-size="10.00">/Utilities/MCStepLogger</text>
<text text-anchor="start" x="427.014" y="-288.5" font-family="Helvetica,sans-Serif" font-size="10.00">/include/MCStepLogger/MCAnalysis</text>
<text text-anchor="middle" x="506.514" y="-277.5" font-family="Helvetica,sans-Serif" font-size="10.00">FileWrapper.h</text>
</a>
</g>
</g>
<!-- Node1&#45;&gt;Node2 -->
<g id="edge1" class="edge"><title>Node1&#45;&gt;Node2</title>
<path fill="none" stroke="midnightblue" d="M506.514,-360.541C506.514,-351.691 506.514,-342.274 506.514,-333.677"/>
<polygon fill="midnightblue" stroke="midnightblue" points="503.014,-360.587 506.514,-370.587 510.014,-360.587 503.014,-360.587"/>
</g>
<!-- Node11 -->
<g id="node11" class="node"><title>Node11</title>
<g id="a_node11"><a xlink:href="../../d2/de5/MCAnalysisManager_8h.html" target="_top" xlink:title="/home/travis/build\l/AliceO2Group/AliceO2\l/Utilities/MCStepLogger\l/include/MCStepLogger/MCAnalysis\lManager.h">
<polygon fill="none" stroke="black" points="209.014,-270.5 209.014,-333.5 384.014,-333.5 384.014,-270.5 209.014,-270.5"/>
<text text-anchor="start" x="217.014" y="-321.5" font-family="Helvetica,sans-Serif" font-size="10.00">/home/travis/build</text>
<text text-anchor="start" x="217.014" y="-310.5" font-family="Helvetica,sans-Serif" font-size="10.00">/AliceO2Group/AliceO2</text>
<text text-anchor="start" x="217.014" y="-299.5" font-family="Helvetica,sans-Serif" font-size="10.00">/Utilities/MCStepLogger</text>
<text text-anchor="start" x="217.014" y="-288.5" font-family="Helvetica,sans-Serif" font-size="10.00">/include/MCStepLogger/MCAnalysis</text>
<text text-anchor="middle" x="296.514" y="-277.5" font-family="Helvetica,sans-Serif" font-size="10.00">Manager.h</text>
</a>
</g>
</g>
<!-- Node1&#45;&gt;Node11 -->
<g id="edge12" class="edge"><title>Node1&#45;&gt;Node11</title>
<path fill="none" stroke="midnightblue" d="M440.627,-366.821C416.733,-356.24 389.686,-344.262 365.529,-333.564"/>
<polygon fill="midnightblue" stroke="midnightblue" points="439.401,-370.106 449.962,-370.955 442.235,-363.706 439.401,-370.106"/>
</g>
<!-- Node12 -->
<g id="node12" class="node"><title>Node12</title>
<g id="a_node12"><a xlink:href="../../dd/d79/MCStepLoggerImpl_8cxx.html" target="_top" xlink:title="/home/travis/build\l/AliceO2Group/AliceO2\l/Utilities/MCStepLogger\l/src/MCStepLoggerImpl.cxx">
<polygon fill="none" stroke="black" points="612.014,-276 612.014,-328 751.014,-328 751.014,-276 612.014,-276"/>
<text text-anchor="start" x="620.014" y="-316" font-family="Helvetica,sans-Serif" font-size="10.00">/home/travis/build</text>
<text text-anchor="start" x="620.014" y="-305" font-family="Helvetica,sans-Serif" font-size="10.00">/AliceO2Group/AliceO2</text>
<text text-anchor="start" x="620.014" y="-294" font-family="Helvetica,sans-Serif" font-size="10.00">/Utilities/MCStepLogger</text>
<text text-anchor="middle" x="681.514" y="-283" font-family="Helvetica,sans-Serif" font-size="10.00">/src/MCStepLoggerImpl.cxx</text>
</a>
</g>
</g>
<!-- Node1&#45;&gt;Node12 -->
<g id="edge17" class="edge"><title>Node1&#45;&gt;Node12</title>
<path fill="none" stroke="midnightblue" d="M562.873,-366.049C585.965,-353.777 612.385,-339.737 634.422,-328.026"/>
<polygon fill="midnightblue" stroke="midnightblue" points="561.06,-363.049 553.872,-370.833 564.345,-369.231 561.06,-363.049"/>
</g>
<!-- Node3 -->
<g id="node3" class="node"><title>Node3</title>
<g id="a_node3"><a xlink:href="../../d8/d8d/MCAnalysis_8h.html" target="_top" xlink:title="/home/travis/build\l/AliceO2Group/AliceO2\l/Utilities/MCStepLogger\l/include/MCStepLogger/MCAnalysis.h">
<polygon fill="none" stroke="black" points="205.014,-181 205.014,-233 388.014,-233 388.014,-181 205.014,-181"/>
<text text-anchor="start" x="213.014" y="-221" font-family="Helvetica,sans-Serif" font-size="10.00">/home/travis/build</text>
<text text-anchor="start" x="213.014" y="-210" font-family="Helvetica,sans-Serif" font-size="10.00">/AliceO2Group/AliceO2</text>
<text text-anchor="start" x="213.014" y="-199" font-family="Helvetica,sans-Serif" font-size="10.00">/Utilities/MCStepLogger</text>
<text text-anchor="middle" x="296.514" y="-188" font-family="Helvetica,sans-Serif" font-size="10.00">/include/MCStepLogger/MCAnalysis.h</text>
</a>
</g>
</g>
<!-- Node2&#45;&gt;Node3 -->
<g id="edge2" class="edge"><title>Node2&#45;&gt;Node3</title>
<path fill="none" stroke="midnightblue" d="M428.028,-266.242C403.108,-255.206 376.057,-243.226 353.004,-233.017"/>
<polygon fill="midnightblue" stroke="midnightblue" points="426.901,-269.57 437.461,-270.42 429.735,-263.17 426.901,-269.57"/>
</g>
<!-- Node5 -->
<g id="node5" class="node"><title>Node5</title>
<g id="a_node5"><a xlink:href="../../d0/d9e/analyseMCSteps_8cxx.html" target="_top" xlink:title="/home/travis/build\l/AliceO2Group/AliceO2\l/Utilities/MCStepLogger\l/src/analyseMCSteps.cxx">
<polygon fill="none" stroke="black" points="122.514,-1 122.514,-53 252.514,-53 252.514,-1 122.514,-1"/>
<text text-anchor="start" x="130.514" y="-41" font-family="Helvetica,sans-Serif" font-size="10.00">/home/travis/build</text>
<text text-anchor="start" x="130.514" y="-30" font-family="Helvetica,sans-Serif" font-size="10.00">/AliceO2Group/AliceO2</text>
<text text-anchor="start" x="130.514" y="-19" font-family="Helvetica,sans-Serif" font-size="10.00">/Utilities/MCStepLogger</text>
<text text-anchor="middle" x="187.514" y="-8" font-family="Helvetica,sans-Serif" font-size="10.00">/src/analyseMCSteps.cxx</text>
</a>
</g>
</g>
<!-- Node2&#45;&gt;Node5 -->
<g id="edge8" class="edge"><title>Node2&#45;&gt;Node5</title>
<path fill="none" stroke="midnightblue" d="M529.402,-261.334C553.022,-214.572 581.047,-137.258 539.514,-90 498.391,-43.2087 322.12,-68.4034 261.514,-54 258.599,-53.3073 255.639,-52.5417 252.663,-51.7207"/>
<polygon fill="midnightblue" stroke="midnightblue" points="526.268,-259.774 524.759,-270.261 532.479,-263.004 526.268,-259.774"/>
</g>
<!-- Node8 -->
<g id="node8" class="node"><title>Node8</title>
<g id="a_node8"><a xlink:href="../../d8/dea/MCAnalysisManager_8cxx.html" target="_top" xlink:title="/home/travis/build\l/AliceO2Group/AliceO2\l/Utilities/MCStepLogger\l/src/MCAnalysisManager.cxx">
<polygon fill="none" stroke="black" points="384.514,-91 384.514,-143 530.514,-143 530.514,-91 384.514,-91"/>
<text text-anchor="start" x="392.514" y="-131" font-family="Helvetica,sans-Serif" font-size="10.00">/home/travis/build</text>
<text text-anchor="start" x="392.514" y="-120" font-family="Helvetica,sans-Serif" font-size="10.00">/AliceO2Group/AliceO2</text>
<text text-anchor="start" x="392.514" y="-109" font-family="Helvetica,sans-Serif" font-size="10.00">/Utilities/MCStepLogger</text>
<text text-anchor="middle" x="457.514" y="-98" font-family="Helvetica,sans-Serif" font-size="10.00">/src/MCAnalysisManager.cxx</text>
</a>
</g>
</g>
<!-- Node2&#45;&gt;Node8 -->
<g id="edge11" class="edge"><title>Node2&#45;&gt;Node8</title>
<path fill="none" stroke="midnightblue" d="M495.721,-260.691C486.114,-224.812 472.361,-173.449 464.243,-143.13"/>
<polygon fill="midnightblue" stroke="midnightblue" points="492.345,-261.615 498.313,-270.37 499.107,-259.805 492.345,-261.615"/>
</g>
<!-- Node9 -->
<g id="node9" class="node"><title>Node9</title>
<g id="a_node9"><a xlink:href="../../d8/dc6/basicMCAnalysisCI_8cxx.html" target="_top" xlink:title="/home/travis/build\l/AliceO2Group/AliceO2\l/Utilities/MCStepLogger\l/src/basicMCAnalysisCI.cxx">
<polygon fill="none" stroke="black" points="586.514,-181 586.514,-233 728.514,-233 728.514,-181 586.514,-181"/>
<text text-anchor="start" x="594.514" y="-221" font-family="Helvetica,sans-Serif" font-size="10.00">/home/travis/build</text>
<text text-anchor="start" x="594.514" y="-210" font-family="Helvetica,sans-Serif" font-size="10.00">/AliceO2Group/AliceO2</text>
<text text-anchor="start" x="594.514" y="-199" font-family="Helvetica,sans-Serif" font-size="10.00">/Utilities/MCStepLogger</text>
<text text-anchor="middle" x="657.514" y="-188" font-family="Helvetica,sans-Serif" font-size="10.00">/src/basicMCAnalysisCI.cxx</text>
</a>
</g>
</g>
<!-- Node2&#45;&gt;Node9 -->
<g id="edge9" class="edge"><title>Node2&#45;&gt;Node9</title>
<path fill="none" stroke="midnightblue" d="M565.25,-264.825C582.473,-254.218 600.921,-242.855 616.76,-233.1"/>
<polygon fill="midnightblue" stroke="midnightblue" points="563.055,-262.066 556.376,-270.291 566.726,-268.027 563.055,-262.066"/>
</g>
<!-- Node10 -->
<g id="node10" class="node"><title>Node10</title>
<g id="a_node10"><a xlink:href="../../dc/d01/MCAnalysisFileWrapper_8cxx.html" target="_top" xlink:title="/home/travis/build\l/AliceO2Group/AliceO2\l/Utilities/MCStepLogger\l/src/MCAnalysisFileWrapper.cxx">
<polygon fill="none" stroke="black" points="747.014,-181 747.014,-233 908.014,-233 908.014,-181 747.014,-181"/>
<text text-anchor="start" x="755.014" y="-221" font-family="Helvetica,sans-Serif" font-size="10.00">/home/travis/build</text>
<text text-anchor="start" x="755.014" y="-210" font-family="Helvetica,sans-Serif" font-size="10.00">/AliceO2Group/AliceO2</text>
<text text-anchor="start" x="755.014" y="-199" font-family="Helvetica,sans-Serif" font-size="10.00">/Utilities/MCStepLogger</text>
<text text-anchor="middle" x="827.514" y="-188" font-family="Helvetica,sans-Serif" font-size="10.00">/src/MCAnalysisFileWrapper.cxx</text>
</a>
</g>
</g>
<!-- Node2&#45;&gt;Node10 -->
<g id="edge10" class="edge"><title>Node2&#45;&gt;Node10</title>
<path fill="none" stroke="midnightblue" d="M603.885,-269.938C664.29,-252.374 681.012,-249.75 737.514,-234 740.491,-233.17 743.521,-232.32 746.581,-231.458"/>
<polygon fill="midnightblue" stroke="midnightblue" points="602.841,-266.597 594.226,-272.765 604.807,-273.316 602.841,-266.597"/>
</g>
<!-- Node4 -->
<g id="node4" class="node"><title>Node4</title>
<g id="a_node4"><a xlink:href="../../d0/dc7/BasicMCAnalysis_8h.html" target="_top" xlink:title="/home/travis/build\l/AliceO2Group/AliceO2\l/Utilities/MCStepLogger\l/include/MCStepLogger/BasicMCAnalysis.h">
<polygon fill="none" stroke="black" points="158.514,-91 158.514,-143 366.514,-143 366.514,-91 158.514,-91"/>
<text text-anchor="start" x="166.514" y="-131" font-family="Helvetica,sans-Serif" font-size="10.00">/home/travis/build</text>
<text text-anchor="start" x="166.514" y="-120" font-family="Helvetica,sans-Serif" font-size="10.00">/AliceO2Group/AliceO2</text>
<text text-anchor="start" x="166.514" y="-109" font-family="Helvetica,sans-Serif" font-size="10.00">/Utilities/MCStepLogger</text>
<text text-anchor="middle" x="262.514" y="-98" font-family="Helvetica,sans-Serif" font-size="10.00">/include/MCStepLogger/BasicMCAnalysis.h</text>
</a>
</g>
</g>
<!-- Node3&#45;&gt;Node4 -->
<g id="edge3" class="edge"><title>Node3&#45;&gt;Node4</title>
<path fill="none" stroke="midnightblue" d="M283.022,-171.081C279.408,-161.726 275.573,-151.799 272.209,-143.092"/>
<polygon fill="midnightblue" stroke="midnightblue" points="279.811,-172.48 286.68,-180.547 286.341,-169.957 279.811,-172.48"/>
</g>
<!-- Node7 -->
<g id="node7" class="node"><title>Node7</title>
<g id="a_node7"><a xlink:href="../../dc/d10/MCAnalysis_8cxx.html" target="_top" xlink:title="/home/travis/build\l/AliceO2Group/AliceO2\l/Utilities/MCStepLogger\l/src/MCAnalysis.cxx">
<polygon fill="none" stroke="black" points="19.014,-91 19.014,-143 140.014,-143 140.014,-91 19.014,-91"/>
<text text-anchor="start" x="27.014" y="-131" font-family="Helvetica,sans-Serif" font-size="10.00">/home/travis/build</text>
<text text-anchor="start" x="27.014" y="-120" font-family="Helvetica,sans-Serif" font-size="10.00">/AliceO2Group/AliceO2</text>
<text text-anchor="start" x="27.014" y="-109" font-family="Helvetica,sans-Serif" font-size="10.00">/Utilities/MCStepLogger</text>
<text text-anchor="middle" x="79.514" y="-98" font-family="Helvetica,sans-Serif" font-size="10.00">/src/MCAnalysis.cxx</text>
</a>
</g>
</g>
<!-- Node3&#45;&gt;Node7 -->
<g id="edge6" class="edge"><title>Node3&#45;&gt;Node7</title>
<path fill="none" stroke="midnightblue" d="M225.09,-177.035C197.683,-165.921 166.689,-153.352 140.364,-142.677"/>
<polygon fill="midnightblue" stroke="midnightblue" points="224.039,-180.386 234.621,-180.901 226.669,-173.899 224.039,-180.386"/>
</g>
<!-- Node3&#45;&gt;Node8 -->
<g id="edge7" class="edge"><title>Node3&#45;&gt;Node8</title>
<path fill="none" stroke="midnightblue" d="M351.473,-175.96C371.063,-165.253 392.904,-153.315 411.65,-143.069"/>
<polygon fill="midnightblue" stroke="midnightblue" points="349.746,-172.915 342.65,-180.783 353.104,-179.058 349.746,-172.915"/>
</g>
<!-- Node4&#45;&gt;Node5 -->
<g id="edge4" class="edge"><title>Node4&#45;&gt;Node5</title>
<path fill="none" stroke="midnightblue" d="M234.258,-82.8459C225.854,-72.9851 216.789,-62.3492 208.899,-53.0921"/>
<polygon fill="midnightblue" stroke="midnightblue" points="231.671,-85.2062 240.821,-90.5468 236.998,-80.6656 231.671,-85.2062"/>
</g>
<!-- Node6 -->
<g id="node6" class="node"><title>Node6</title>
<g id="a_node6"><a xlink:href="../../df/da1/BasicMCAnalysis_8cxx.html" target="_top" xlink:title="/home/travis/build\l/AliceO2Group/AliceO2\l/Utilities/MCStepLogger\l/src/BasicMCAnalysis.cxx">
<polygon fill="none" stroke="black" points="271.014,-1 271.014,-53 404.014,-53 404.014,-1 271.014,-1"/>
<text text-anchor="start" x="279.014" y="-41" font-family="Helvetica,sans-Serif" font-size="10.00">/home/travis/build</text>
<text text-anchor="start" x="279.014" y="-30" font-family="Helvetica,sans-Serif" font-size="10.00">/AliceO2Group/AliceO2</text>
<text text-anchor="start" x="279.014" y="-19" font-family="Helvetica,sans-Serif" font-size="10.00">/Utilities/MCStepLogger</text>
<text text-anchor="middle" x="337.514" y="-8" font-family="Helvetica,sans-Serif" font-size="10.00">/src/BasicMCAnalysis.cxx</text>
</a>
</g>
</g>
<!-- Node4&#45;&gt;Node6 -->
<g id="edge5" class="edge"><title>Node4&#45;&gt;Node6</title>
<path fill="none" stroke="midnightblue" d="M290.77,-82.8459C299.174,-72.9851 308.239,-62.3492 316.129,-53.0921"/>
<polygon fill="midnightblue" stroke="midnightblue" points="288.03,-80.6656 284.207,-90.5468 293.357,-85.2062 288.03,-80.6656"/>
</g>
<!-- Node11&#45;&gt;Node3 -->
<g id="edge13" class="edge"><title>Node11&#45;&gt;Node3</title>
<path fill="none" stroke="midnightblue" d="M296.514,-260.112C296.514,-250.917 296.514,-241.423 296.514,-233.1"/>
<polygon fill="midnightblue" stroke="midnightblue" points="293.014,-260.291 296.514,-270.291 300.014,-260.291 293.014,-260.291"/>
</g>
<!-- Node11&#45;&gt;Node5 -->
<g id="edge14" class="edge"><title>Node11&#45;&gt;Node5</title>
<path fill="none" stroke="midnightblue" d="M199.121,-278.215C131.269,-256.452 46.545,-215.958 9.51402,-144 -1.46794,-122.66 -4.38805,-109.564 9.51402,-90 34.9141,-54.2559 82.4932,-38.9442 122.073,-32.4682"/>
<polygon fill="midnightblue" stroke="midnightblue" points="198.413,-281.66 209.002,-281.291 200.494,-274.976 198.413,-281.66"/>
</g>
<!-- Node11&#45;&gt;Node7 -->
<g id="edge15" class="edge"><title>Node11&#45;&gt;Node7</title>
<path fill="none" stroke="midnightblue" d="M237.37,-264.621C223.262,-255.174 208.53,-244.646 195.514,-234 160.681,-205.511 124.659,-168.001 102.183,-143.458"/>
<polygon fill="midnightblue" stroke="midnightblue" points="235.78,-267.765 246.053,-270.355 239.637,-261.923 235.78,-267.765"/>
</g>
<!-- Node11&#45;&gt;Node8 -->
<g id="edge16" class="edge"><title>Node11&#45;&gt;Node8</title>
<path fill="none" stroke="midnightblue" d="M360.904,-264.782C373.657,-255.785 386.256,-245.409 396.514,-234 420.854,-206.927 438.597,-168.383 448.482,-143.282"/>
<polygon fill="midnightblue" stroke="midnightblue" points="358.817,-261.968 352.523,-270.492 362.758,-267.753 358.817,-261.968"/>
</g>
</g>
</svg>
        <g id="navigator" transform="translate(0 0)" fill="#404254">
                <rect fill="#f2f5e9" fill-opacity="0.5" stroke="#606060" stroke-width=".5" x="0" y="0" width="60" height="60"/>
                <use id="zoomplus" xlink:href="#zoomPlus" x="17" y="9" onmousedown="handleZoom(evt,'in')"/>
                <use id="zoomminus" xlink:href="#zoomMin" x="42" y="9" onmousedown="handleZoom(evt,'out')"/>
                <use id="reset" xlink:href="#resetDef" x="30" y="36" onmousedown="handleReset()"/>
                <g id="arrowUp" xlink:href="#dirArrow" transform="translate(30 24)" onmousedown="handlePan(0,-1)">
                  <use xlink:href="#rim" fill="#404040">
                        <set attributeName="fill" to="#808080" begin="arrowUp.mouseover" end="arrowUp.mouseout"/>
                  </use>
                  <path fill="none" stroke="white" stroke-width="1.5" d="M0,-3.0v7 M-2.5,-0.5L0,-3.0L2.5,-0.5"/>
                </g>
                <g id="arrowRight" xlink:href="#dirArrow" transform="rotate(90) translate(36 -43)" onmousedown="handlePan(1,0)">
                  <use xlink:href="#rim" fill="#404040">
                        <set attributeName="fill" to="#808080" begin="arrowRight.mouseover" end="arrowRight.mouseout"/>
                  </use>
                  <path fill="none" stroke="white" stroke-width="1.5" d="M0,-3.0v7 M-2.5,-0.5L0,-3.0L2.5,-0.5"/>
                </g>
                <g id="arrowDown" xlink:href="#dirArrow" transform="rotate(180) translate(-30 -48)" onmousedown="handlePan(0,1)">
                  <use xlink:href="#rim" fill="#404040">
                        <set attributeName="fill" to="#808080" begin="arrowDown.mouseover" end="arrowDown.mouseout"/>
                  </use>
                  <path fill="none" stroke="white" stroke-width="1.5" d="M0,-3.0v7 M-2.5,-0.5L0,-3.0L2.5,-0.5"/>
                </g>
                <g id="arrowLeft" xlink:href="#dirArrow" transform="rotate(270) translate(-36 17)" onmousedown="handlePan(-1,0)">
                  <use xlink:href="#rim" fill="#404040">
                        <set attributeName="fill" to="#808080" begin="arrowLeft.mouseover" end="arrowLeft.mouseout"/>
                  </use>
                  <path fill="none" stroke="white" stroke-width="1.5" d="M0,-3.0v7 M-2.5,-0.5L0,-3.0L2.5,-0.5"/>
                </g>
        </g>
        <svg viewBox="0 0 15 15" width="100%" height="30px" preserveAspectRatio="xMaxYMin meet">
         <g id="arrow_out" transform="scale(0.3 0.3)">
          <a xlink:href="MetaInfo_8h__dep__incl_org.svg" target="_base">
           <rect id="button" ry="5" rx="5" y="6" x="6" height="38" width="38"
                fill="#f2f5e9" fill-opacity="0.5" stroke="#606060" stroke-width="1.0"/>
           <path id="arrow"
             d="M 11.500037,31.436501 C 11.940474,20.09759 22.043105,11.32322 32.158766,21.979434 L 37.068811,17.246167 C 37.068811,17.246167 37.088388,32 37.088388,32 L 22.160133,31.978069 C 22.160133,31.978069 26.997745,27.140456 26.997745,27.140456 C 18.528582,18.264221 13.291696,25.230495 11.500037,31.436501 z"
             style="fill:#404040;"/>
          </a>
         </g>
        </svg>
</svg>
