<?xml version="1.0" encoding="UTF-8" standalone="no"?>
<!DOCTYPE svg PUBLIC "-//W3C//DTD SVG 1.1//EN"
 "http://www.w3.org/Graphics/SVG/1.1/DTD/svg11.dtd">
<!-- Generated by graphviz version 2.36.0 (20140111.2315)
 -->
<!-- Title: /home/travis/build/AliceO2Group/AliceO2/Detectors/gconfig/src/G3Config.cxx Pages: 1 -->
<!--zoomable 378 -->
<svg id="main" version="1.1" xmlns="http://www.w3.org/2000/svg" xmlns:xlink="http://www.w3.org/1999/xlink" xml:space="preserve" onload="init(evt)">
<style type="text/css"><![CDATA[
.edge:hover path { stroke: red; }
.edge:hover polygon { stroke: red; fill: red; }
]]></style>
<script type="text/javascript"><![CDATA[
var edges = document.getElementsByTagName('g');
if (edges && edges.length) {
  for (var i=0;i<edges.length;i++) {
    if (edges[i].id.substr(0,4)=='edge') {
      edges[i].setAttribute('class','edge');
    }
  }
}
]]></script>
        <defs>
                <circle id="rim" cx="0" cy="0" r="7"/>
                <circle id="rim2" cx="0" cy="0" r="3.5"/>
                <g id="zoomPlus">
                        <use xlink:href="#rim" fill="#404040">
                                <set attributeName="fill" to="#808080" begin="zoomplus.mouseover" end="zoomplus.mouseout"/>
                        </use>
                        <path d="M-4,0h8M0,-4v8" fill="none" stroke="white" stroke-width="1.5" pointer-events="none"/>
                </g>
                <g id="zoomMin">
                        <use xlink:href="#rim" fill="#404040">
                                <set attributeName="fill" to="#808080" begin="zoomminus.mouseover" end="zoomminus.mouseout"/>
                        </use>
                        <path d="M-4,0h8" fill="none" stroke="white" stroke-width="1.5" pointer-events="none"/>
                </g>
                <g id="dirArrow">
                        <path fill="none" stroke="white" stroke-width="1.5" d="M0,-3.0v7 M-2.5,-0.5L0,-3.0L2.5,-0.5"/>
                </g>
               <g id="resetDef">
                       <use xlink:href="#rim2" fill="#404040">
                               <set attributeName="fill" to="#808080" begin="reset.mouseover" end="reset.mouseout"/>
                       </use>
               </g>
        </defs>

<script type="text/javascript">
var viewWidth = 2156;
var viewHeight = 378;
var sectionId = 'dynsection-0';
</script>
<script xlink:href="../../svgpan.js"/>
<svg id="graph" class="graph">
<g id="viewport">
<title>/home/travis/build/AliceO2Group/AliceO2/Detectors/gconfig/src/G3Config.cxx</title>
<!-- Node1 -->
<g id="node1" class="node"><title>Node1</title>
<polygon fill="#bfbfbf" stroke="black" points="1365,-317 1365,-369 1483,-369 1483,-317 1365,-317"/>
<text text-anchor="start" x="1373" y="-357" font-family="Helvetica,sans-Serif" font-size="10.00">/home/travis/build</text>
<text text-anchor="start" x="1373" y="-346" font-family="Helvetica,sans-Serif" font-size="10.00">/AliceO2Group/AliceO2</text>
<text text-anchor="start" x="1373" y="-335" font-family="Helvetica,sans-Serif" font-size="10.00">/Detectors/gconfig/src</text>
<text text-anchor="middle" x="1424" y="-324" font-family="Helvetica,sans-Serif" font-size="10.00">/G3Config.cxx</text>
</g>
<!-- Node2 -->
<g id="node2" class="node"><title>Node2</title>
<polygon fill="none" stroke="#bfbfbf" points="859.5,-254.5 859.5,-273.5 936.5,-273.5 936.5,-254.5 859.5,-254.5"/>
<text text-anchor="middle" x="898" y="-261.5" font-family="Helvetica,sans-Serif" font-size="10.00">FairRunSim.h</text>
</g>
<!-- Node1&#45;&gt;Node2 -->
<g id="edge1" class="edge"><title>Node1&#45;&gt;Node2</title>
<path fill="none" stroke="midnightblue" d="M1364.93,-337.664C1274.09,-330.25 1094.97,-312.677 946,-280 941.563,-279.027 936.946,-277.829 932.407,-276.539"/>
<polygon fill="midnightblue" stroke="midnightblue" points="933.276,-273.146 922.692,-273.618 931.26,-279.849 933.276,-273.146"/>
</g>
<!-- Node3 -->
<g id="node3" class="node"><title>Node3</title>
<polygon fill="none" stroke="#bfbfbf" points="955,-254.5 955,-273.5 1017,-273.5 1017,-254.5 955,-254.5"/>
<text text-anchor="middle" x="986" y="-261.5" font-family="Helvetica,sans-Serif" font-size="10.00">TGeant3.h</text>
</g>
<!-- Node1&#45;&gt;Node3 -->
<g id="edge2" class="edge"><title>Node1&#45;&gt;Node3</title>
<path fill="none" stroke="midnightblue" d="M1364.89,-336.603C1286.48,-328.581 1144.2,-311.021 1026,-280 1022.77,-279.153 1019.44,-278.14 1016.15,-277.046"/>
<polygon fill="midnightblue" stroke="midnightblue" points="1017.1,-273.668 1006.5,-273.604 1014.74,-280.261 1017.1,-273.668"/>
</g>
<!-- Node4 -->
<g id="node4" class="node"><title>Node4</title>
<polygon fill="none" stroke="#bfbfbf" points="1035,-254.5 1035,-273.5 1121,-273.5 1121,-254.5 1035,-254.5"/>
<text text-anchor="middle" x="1078" y="-261.5" font-family="Helvetica,sans-Serif" font-size="10.00">TGeant3TGeo.h</text>
</g>
<!-- Node1&#45;&gt;Node4 -->
<g id="edge3" class="edge"><title>Node1&#45;&gt;Node4</title>
<path fill="none" stroke="midnightblue" d="M1364.86,-330.847C1305.29,-319.302 1210.86,-300.159 1130,-280 1125.52,-278.883 1120.84,-277.642 1116.21,-276.366"/>
<polygon fill="midnightblue" stroke="midnightblue" points="1116.81,-272.898 1106.24,-273.551 1114.91,-279.635 1116.81,-272.898"/>
</g>
<!-- Node5 -->
<g id="node5" class="node"><title>Node5</title>
<g id="a_node5"><a xlink:href="../../d4/d03/simulation_2include_2SimulationDataFormat_2Stack_8h.html" target="_top" xlink:title="SimulationDataFormat\l/Stack.h">
<polygon fill="none" stroke="black" points="1139,-249 1139,-279 1253,-279 1253,-249 1139,-249"/>
<text text-anchor="start" x="1147" y="-267" font-family="Helvetica,sans-Serif" font-size="10.00">SimulationDataFormat</text>
<text text-anchor="middle" x="1196" y="-256" font-family="Helvetica,sans-Serif" font-size="10.00">/Stack.h</text>
</a>
</g>
</g>
<!-- Node1&#45;&gt;Node5 -->
<g id="edge4" class="edge"><title>Node1&#45;&gt;Node5</title>
<path fill="none" stroke="midnightblue" d="M1364.99,-322.07C1328.44,-309.729 1281.99,-294.04 1247.04,-282.236"/>
<polygon fill="midnightblue" stroke="midnightblue" points="1248.1,-278.9 1237.5,-279.016 1245.86,-285.532 1248.1,-278.9"/>
</g>
<!-- Node36 -->
<g id="node36" class="node"><title>Node36</title>
<polygon fill="none" stroke="#bfbfbf" points="1271,-254.5 1271,-273.5 1325,-273.5 1325,-254.5 1271,-254.5"/>
<text text-anchor="middle" x="1298" y="-261.5" font-family="Helvetica,sans-Serif" font-size="10.00">iostream</text>
</g>
<!-- Node1&#45;&gt;Node36 -->
<g id="edge44" class="edge"><title>Node1&#45;&gt;Node36</title>
<path fill="none" stroke="midnightblue" d="M1382.74,-316.787C1362.15,-304.205 1338.03,-289.464 1320.8,-278.934"/>
<polygon fill="midnightblue" stroke="midnightblue" points="1322.36,-275.786 1312,-273.558 1318.71,-281.759 1322.36,-275.786"/>
</g>
<!-- Node37 -->
<g id="node37" class="node"><title>Node37</title>
<polygon fill="none" stroke="#bfbfbf" points="1343.5,-254.5 1343.5,-273.5 1414.5,-273.5 1414.5,-254.5 1343.5,-254.5"/>
<text text-anchor="middle" x="1379" y="-261.5" font-family="Helvetica,sans-Serif" font-size="10.00">FairLogger.h</text>
</g>
<!-- Node1&#45;&gt;Node37 -->
<g id="edge45" class="edge"><title>Node1&#45;&gt;Node37</title>
<path fill="none" stroke="midnightblue" d="M1409.27,-316.787C1402.66,-305.486 1395.04,-292.445 1389.1,-282.276"/>
<polygon fill="midnightblue" stroke="midnightblue" points="1392.07,-280.425 1384,-273.558 1386.03,-283.957 1392.07,-280.425"/>
</g>
<!-- Node38 -->
<g id="node38" class="node"><title>Node38</title>
<polygon fill="none" stroke="#bfbfbf" points="1432.5,-254.5 1432.5,-273.5 1505.5,-273.5 1505.5,-254.5 1432.5,-254.5"/>
<text text-anchor="middle" x="1469" y="-261.5" font-family="Helvetica,sans-Serif" font-size="10.00">FairModule.h</text>
</g>
<!-- Node1&#45;&gt;Node38 -->
<g id="edge46" class="edge"><title>Node1&#45;&gt;Node38</title>
<path fill="none" stroke="midnightblue" d="M1438.73,-316.787C1445.34,-305.486 1452.96,-292.445 1458.9,-282.276"/>
<polygon fill="midnightblue" stroke="midnightblue" points="1461.97,-283.957 1464,-273.558 1455.93,-280.425 1461.97,-283.957"/>
</g>
<!-- Node39 -->
<g id="node39" class="node"><title>Node39</title>
<g id="a_node39"><a xlink:href="../../d9/d6d/Cave_8h.html" target="_top" xlink:title="DetectorsPassive/Cave.h">
<polygon fill="none" stroke="black" points="1523.5,-254.5 1523.5,-273.5 1652.5,-273.5 1652.5,-254.5 1523.5,-254.5"/>
<text text-anchor="middle" x="1588" y="-261.5" font-family="Helvetica,sans-Serif" font-size="10.00">DetectorsPassive/Cave.h</text>
</a>
</g>
</g>
<!-- Node1&#45;&gt;Node39 -->
<g id="edge47" class="edge"><title>Node1&#45;&gt;Node39</title>
<path fill="none" stroke="midnightblue" d="M1477.7,-316.787C1505.37,-303.797 1537.93,-288.507 1560.47,-277.924"/>
<polygon fill="midnightblue" stroke="midnightblue" points="1562.21,-280.976 1569.77,-273.558 1559.23,-274.64 1562.21,-280.976"/>
</g>
<!-- Node43 -->
<g id="node43" class="node"><title>Node43</title>
<g id="a_node43"><a xlink:href="../../d0/d9a/MaterialManager_8h.html" target="_top" xlink:title="DetectorsBase/MaterialManager.h">
<polygon fill="none" stroke="black" points="1670.5,-254.5 1670.5,-273.5 1835.5,-273.5 1835.5,-254.5 1670.5,-254.5"/>
<text text-anchor="middle" x="1753" y="-261.5" font-family="Helvetica,sans-Serif" font-size="10.00">DetectorsBase/MaterialManager.h</text>
</a>
</g>
</g>
<!-- Node1&#45;&gt;Node43 -->
<g id="edge52" class="edge"><title>Node1&#45;&gt;Node43</title>
<path fill="none" stroke="midnightblue" d="M1483.2,-328.145C1547.25,-313.155 1648.04,-289.565 1706.6,-275.859"/>
<polygon fill="midnightblue" stroke="midnightblue" points="1707.74,-279.188 1716.68,-273.501 1706.14,-272.372 1707.74,-279.188"/>
</g>
<!-- Node46 -->
<g id="node46" class="node"><title>Node46</title>
<g id="a_node46"><a xlink:href="../../df/d35/SimSetup_8h.html" target="_top" xlink:title="SimSetup/SimSetup.h">
<polygon fill="none" stroke="black" points="1853.5,-254.5 1853.5,-273.5 1966.5,-273.5 1966.5,-254.5 1853.5,-254.5"/>
<text text-anchor="middle" x="1910" y="-261.5" font-family="Helvetica,sans-Serif" font-size="10.00">SimSetup/SimSetup.h</text>
</a>
</g>
</g>
<!-- Node1&#45;&gt;Node46 -->
<g id="edge57" class="edge"><title>Node1&#45;&gt;Node46</title>
<path fill="none" stroke="midnightblue" d="M1483.01,-334.744C1564.51,-324.394 1715.95,-303.966 1844,-280 1850.75,-278.736 1857.86,-277.268 1864.81,-275.754"/>
<polygon fill="midnightblue" stroke="midnightblue" points="1865.83,-279.114 1874.82,-273.521 1864.3,-272.282 1865.83,-279.114"/>
</g>
<!-- Node47 -->
<g id="node47" class="node"><title>Node47</title>
<g id="a_node47"><a xlink:href="../../d7/d91/g3Config_8C.html" target="_top" xlink:title="../g3Config.C">
<polygon fill="none" stroke="black" points="1984.5,-254.5 1984.5,-273.5 2059.5,-273.5 2059.5,-254.5 1984.5,-254.5"/>
<text text-anchor="middle" x="2022" y="-261.5" font-family="Helvetica,sans-Serif" font-size="10.00">../g3Config.C</text>
</a>
</g>
</g>
<!-- Node1&#45;&gt;Node47 -->
<g id="edge58" class="edge"><title>Node1&#45;&gt;Node47</title>
<path fill="none" stroke="midnightblue" d="M1483.33,-339.159C1584.96,-333.441 1798.49,-317.712 1975,-280 1979.46,-279.048 1984.09,-277.844 1988.63,-276.534"/>
<polygon fill="midnightblue" stroke="midnightblue" points="1989.8,-279.836 1998.34,-273.554 1987.75,-273.144 1989.8,-279.836"/>
</g>
<!-- Node49 -->
<g id="node49" class="node"><title>Node49</title>
<g id="a_node49"><a xlink:href="../../d7/de7/SetCuts_8h.html" target="_top" xlink:title="../SetCuts.h">
<polygon fill="none" stroke="black" points="2078,-254.5 2078,-273.5 2148,-273.5 2148,-254.5 2078,-254.5"/>
<text text-anchor="middle" x="2113" y="-261.5" font-family="Helvetica,sans-Serif" font-size="10.00">../SetCuts.h</text>
</a>
</g>
</g>
<!-- Node1&#45;&gt;Node49 -->
<g id="edge60" class="edge"><title>Node1&#45;&gt;Node49</title>
<path fill="none" stroke="midnightblue" d="M1483.28,-340.75C1597.59,-337.363 1855.93,-324.95 2068,-280 2072.17,-279.116 2076.49,-277.977 2080.73,-276.721"/>
<polygon fill="midnightblue" stroke="midnightblue" points="2081.92,-280.018 2090.38,-273.646 2079.79,-273.348 2081.92,-280.018"/>
</g>
<!-- Node6 -->
<g id="node6" class="node"><title>Node6</title>
<g id="a_node6"><a xlink:href="../../d6/d31/DetID_8h.html" target="_top" xlink:title="DetectorsCommonDataFormats\l/DetID.h">
<polygon fill="none" stroke="black" points="314,-113 314,-143 470,-143 470,-113 314,-113"/>
<text text-anchor="start" x="322" y="-131" font-family="Helvetica,sans-Serif" font-size="10.00">DetectorsCommonDataFormats</text>
<text text-anchor="middle" x="392" y="-120" font-family="Helvetica,sans-Serif" font-size="10.00">/DetID.h</text>
</a>
</g>
</g>
<!-- Node5&#45;&gt;Node6 -->
<g id="edge5" class="edge"><title>Node5&#45;&gt;Node6</title>
<path fill="none" stroke="midnightblue" d="M1138.85,-249.538C1135.86,-248.983 1132.9,-248.465 1130,-248 962.934,-221.195 918.016,-239.116 751,-212 645.01,-194.792 523.67,-164.466 452.677,-145.623"/>
<polygon fill="midnightblue" stroke="midnightblue" points="453.565,-142.238 443.001,-143.043 451.761,-149.002 453.565,-142.238"/>
</g>
<!-- Node7 -->
<g id="node7" class="node"><title>Node7</title>
<polygon fill="none" stroke="#bfbfbf" points="1275,-56.5 1275,-75.5 1331,-75.5 1331,-56.5 1275,-56.5"/>
<text text-anchor="middle" x="1303" y="-63.5" font-family="Helvetica,sans-Serif" font-size="10.00">Rtypes.h</text>
</g>
<!-- Node5&#45;&gt;Node7 -->
<g id="edge38" class="edge"><title>Node5&#45;&gt;Node7</title>
<path fill="none" stroke="midnightblue" d="M1253.43,-249.107C1306.86,-235.911 1378.88,-217.318 1383,-212 1410.24,-176.877 1406.54,-150.307 1384,-112 1374.52,-95.8897 1356.96,-85.1333 1340.61,-78.1896"/>
<polygon fill="midnightblue" stroke="midnightblue" points="1341.78,-74.8892 1331.19,-74.5302 1339.24,-81.4141 1341.78,-74.8892"/>
</g>
<!-- Node16 -->
<g id="node16" class="node"><title>Node16</title>
<polygon fill="none" stroke="#bfbfbf" points="1011.5,-186.5 1011.5,-205.5 1112.5,-205.5 1112.5,-186.5 1011.5,-186.5"/>
<text text-anchor="middle" x="1062" y="-193.5" font-family="Helvetica,sans-Serif" font-size="10.00">FairGenericStack.h</text>
</g>
<!-- Node5&#45;&gt;Node16 -->
<g id="edge16" class="edge"><title>Node5&#45;&gt;Node16</title>
<path fill="none" stroke="midnightblue" d="M1167.25,-248.841C1143.97,-237.374 1111.42,-221.342 1088.7,-210.153"/>
<polygon fill="midnightblue" stroke="midnightblue" points="1090.14,-206.961 1079.63,-205.682 1087.05,-213.24 1090.14,-206.961"/>
</g>
<!-- Node17 -->
<g id="node17" class="node"><title>Node17</title>
<g id="a_node17"><a xlink:href="../../d2/de2/MCTrack_8h.html" target="_top" xlink:title="Definition of the MCTrack class. ">
<polygon fill="none" stroke="black" points="818,-181 818,-211 932,-211 932,-181 818,-181"/>
<text text-anchor="start" x="826" y="-199" font-family="Helvetica,sans-Serif" font-size="10.00">SimulationDataFormat</text>
<text text-anchor="middle" x="875" y="-188" font-family="Helvetica,sans-Serif" font-size="10.00">/MCTrack.h</text>
</a>
</g>
</g>
<!-- Node5&#45;&gt;Node17 -->
<g id="edge17" class="edge"><title>Node5&#45;&gt;Node17</title>
<path fill="none" stroke="midnightblue" d="M1138.78,-249.9C1135.81,-249.25 1132.87,-248.614 1130,-248 1066.36,-234.407 993.543,-219.952 942.06,-209.916"/>
<polygon fill="midnightblue" stroke="midnightblue" points="942.541,-206.444 932.056,-207.969 941.204,-213.315 942.541,-206.444"/>
</g>
<!-- Node22 -->
<g id="node22" class="node"><title>Node22</title>
<polygon fill="none" stroke="#bfbfbf" points="1039,-118.5 1039,-137.5 1103,-137.5 1103,-118.5 1039,-118.5"/>
<text text-anchor="middle" x="1071" y="-125.5" font-family="Helvetica,sans-Serif" font-size="10.00">TParticle.h</text>
</g>
<!-- Node5&#45;&gt;Node22 -->
<g id="edge39" class="edge"><title>Node5&#45;&gt;Node22</title>
<path fill="none" stroke="midnightblue" d="M1139,-249.802C1083.32,-236.641 1006.32,-217.602 1002,-212 993.315,-200.737 995.595,-192.698 1002,-180 1010.39,-163.369 1027.05,-150.816 1041.89,-142.327"/>
<polygon fill="midnightblue" stroke="midnightblue" points="1043.64,-145.362 1050.81,-137.565 1040.34,-139.187 1043.64,-145.362"/>
</g>
<!-- Node25 -->
<g id="node25" class="node"><title>Node25</title>
<g id="a_node25"><a xlink:href="../../db/d14/MCTruthContainer_8h.html" target="_top" xlink:title="Definition of a container to keep Monte Carlo truth external to simulation objects. ">
<polygon fill="none" stroke="black" points="152,-113 152,-143 266,-143 266,-113 152,-113"/>
<text text-anchor="start" x="160" y="-131" font-family="Helvetica,sans-Serif" font-size="10.00">SimulationDataFormat</text>
<text text-anchor="middle" x="209" y="-120" font-family="Helvetica,sans-Serif" font-size="10.00">/MCTruthContainer.h</text>
</a>
</g>
</g>
<!-- Node5&#45;&gt;Node25 -->
<g id="edge27" class="edge"><title>Node5&#45;&gt;Node25</title>
<path fill="none" stroke="midnightblue" d="M1138.87,-249.438C1135.88,-248.909 1132.91,-248.424 1130,-248 891.551,-213.19 827.593,-245.804 589,-212 475.743,-195.954 345.989,-164.802 271.159,-145.561"/>
<polygon fill="midnightblue" stroke="midnightblue" points="271.976,-142.157 261.419,-143.044 270.225,-148.935 271.976,-142.157"/>
</g>
<!-- Node29 -->
<g id="node29" class="node"><title>Node29</title>
<g id="a_node29"><a xlink:href="../../d5/dbe/TrackReference_8h.html" target="_top" xlink:title="SimulationDataFormat\l/TrackReference.h">
<polygon fill="none" stroke="black" points="1131,-181 1131,-211 1245,-211 1245,-181 1131,-181"/>
<text text-anchor="start" x="1139" y="-199" font-family="Helvetica,sans-Serif" font-size="10.00">SimulationDataFormat</text>
<text text-anchor="middle" x="1188" y="-188" font-family="Helvetica,sans-Serif" font-size="10.00">/TrackReference.h</text>
</a>
</g>
</g>
<!-- Node5&#45;&gt;Node29 -->
<g id="edge33" class="edge"><title>Node5&#45;&gt;Node29</title>
<path fill="none" stroke="midnightblue" d="M1194.26,-248.679C1193.3,-240.722 1192.07,-230.605 1190.96,-221.436"/>
<polygon fill="midnightblue" stroke="midnightblue" points="1194.41,-220.799 1189.73,-211.293 1187.46,-221.642 1194.41,-220.799"/>
</g>
<!-- Node32 -->
<g id="node32" class="node"><title>Node32</title>
<polygon fill="none" stroke="#bfbfbf" points="1643.5,-186.5 1643.5,-205.5 1678.5,-205.5 1678.5,-186.5 1643.5,-186.5"/>
<text text-anchor="middle" x="1661" y="-193.5" font-family="Helvetica,sans-Serif" font-size="10.00">map</text>
</g>
<!-- Node5&#45;&gt;Node32 -->
<g id="edge40" class="edge"><title>Node5&#45;&gt;Node32</title>
<path fill="none" stroke="midnightblue" d="M1253.15,-249.544C1256.14,-248.988 1259.1,-248.468 1262,-248 1425.98,-221.54 1475.4,-261.371 1634,-212 1635.65,-211.485 1637.32,-210.861 1638.97,-210.164"/>
<polygon fill="midnightblue" stroke="midnightblue" points="1640.66,-213.232 1648.03,-205.618 1637.52,-206.975 1640.66,-213.232"/>
</g>
<!-- Node33 -->
<g id="node33" class="node"><title>Node33</title>
<polygon fill="none" stroke="#bfbfbf" points="1263,-186.5 1263,-205.5 1315,-205.5 1315,-186.5 1263,-186.5"/>
<text text-anchor="middle" x="1289" y="-193.5" font-family="Helvetica,sans-Serif" font-size="10.00">memory</text>
</g>
<!-- Node5&#45;&gt;Node33 -->
<g id="edge41" class="edge"><title>Node5&#45;&gt;Node33</title>
<path fill="none" stroke="midnightblue" d="M1216.18,-248.679C1231.63,-237.713 1252.86,-222.645 1268.42,-211.609"/>
<polygon fill="midnightblue" stroke="midnightblue" points="1270.7,-214.28 1276.83,-205.638 1266.65,-208.571 1270.7,-214.28"/>
</g>
<!-- Node34 -->
<g id="node34" class="node"><title>Node34</title>
<polygon fill="none" stroke="#bfbfbf" points="1333.5,-186.5 1333.5,-205.5 1374.5,-205.5 1374.5,-186.5 1333.5,-186.5"/>
<text text-anchor="middle" x="1354" y="-193.5" font-family="Helvetica,sans-Serif" font-size="10.00">stack</text>
</g>
<!-- Node5&#45;&gt;Node34 -->
<g id="edge42" class="edge"><title>Node5&#45;&gt;Node34</title>
<path fill="none" stroke="midnightblue" d="M1233.59,-248.982C1259.29,-239.168 1293.99,-225.454 1324,-212 1325.39,-211.375 1326.82,-210.72 1328.25,-210.048"/>
<polygon fill="midnightblue" stroke="midnightblue" points="1330.15,-213.02 1337.61,-205.505 1327.09,-206.722 1330.15,-213.02"/>
</g>
<!-- Node35 -->
<g id="node35" class="node"><title>Node35</title>
<polygon fill="none" stroke="#bfbfbf" points="760,-186.5 760,-205.5 800,-205.5 800,-186.5 760,-186.5"/>
<text text-anchor="middle" x="780" y="-193.5" font-family="Helvetica,sans-Serif" font-size="10.00">utility</text>
</g>
<!-- Node5&#45;&gt;Node35 -->
<g id="edge43" class="edge"><title>Node5&#45;&gt;Node35</title>
<path fill="none" stroke="midnightblue" d="M1138.84,-249.598C1135.86,-249.027 1132.9,-248.49 1130,-248 988.45,-224.055 946.38,-253.672 809,-212 807.088,-211.42 805.153,-210.715 803.237,-209.931"/>
<polygon fill="midnightblue" stroke="midnightblue" points="804.551,-206.681 794.016,-205.56 801.553,-213.006 804.551,-206.681"/>
</g>
<!-- Node6&#45;&gt;Node7 -->
<g id="edge6" class="edge"><title>Node6&#45;&gt;Node7</title>
<path fill="none" stroke="midnightblue" d="M470.219,-113.664C474.875,-113.052 479.495,-112.49 484,-112 783.619,-79.4372 1147.6,-69.959 1264.74,-67.652"/>
<polygon fill="midnightblue" stroke="midnightblue" points="1265.05,-71.1469 1274.98,-67.4564 1264.92,-64.1481 1265.05,-71.1469"/>
</g>
<!-- Node8 -->
<g id="node8" class="node"><title>Node8</title>
<polygon fill="none" stroke="#bfbfbf" points="525,-0.5 525,-19.5 563,-19.5 563,-0.5 525,-0.5"/>
<text text-anchor="middle" x="544" y="-7.5" font-family="Helvetica,sans-Serif" font-size="10.00">array</text>
</g>
<!-- Node6&#45;&gt;Node8 -->
<g id="edge7" class="edge"><title>Node6&#45;&gt;Node8</title>
<path fill="none" stroke="midnightblue" d="M470.006,-114.003C493.006,-106.5 516.214,-94.6652 532,-76 542.759,-63.2786 545.174,-44.0798 545.249,-29.8425"/>
<polygon fill="midnightblue" stroke="midnightblue" points="548.743,-29.5887 544.922,-19.7068 541.746,-29.8145 548.743,-29.5887"/>
</g>
<!-- Node9 -->
<g id="node9" class="node"><title>Node9</title>
<polygon fill="none" stroke="#bfbfbf" points="579.5,-56.5 579.5,-75.5 620.5,-75.5 620.5,-56.5 579.5,-56.5"/>
<text text-anchor="middle" x="600" y="-63.5" font-family="Helvetica,sans-Serif" font-size="10.00">bitset</text>
</g>
<!-- Node6&#45;&gt;Node9 -->
<g id="edge8" class="edge"><title>Node6&#45;&gt;Node9</title>
<path fill="none" stroke="midnightblue" d="M440.767,-112.933C480.594,-101.444 535.646,-85.5636 569.482,-75.8033"/>
<polygon fill="midnightblue" stroke="midnightblue" points="570.623,-79.1169 579.261,-72.9823 568.683,-72.3911 570.623,-79.1169"/>
</g>
<!-- Node10 -->
<g id="node10" class="node"><title>Node10</title>
<polygon fill="none" stroke="#bfbfbf" points="301.5,-56.5 301.5,-75.5 350.5,-75.5 350.5,-56.5 301.5,-56.5"/>
<text text-anchor="middle" x="326" y="-63.5" font-family="Helvetica,sans-Serif" font-size="10.00">cassert</text>
</g>
<!-- Node6&#45;&gt;Node10 -->
<g id="edge9" class="edge"><title>Node6&#45;&gt;Node10</title>
<path fill="none" stroke="midnightblue" d="M376.359,-112.781C366.373,-103.703 353.422,-91.9291 343.155,-82.5951"/>
<polygon fill="midnightblue" stroke="midnightblue" points="345.357,-79.8675 335.604,-75.7305 340.649,-85.0471 345.357,-79.8675"/>
</g>
<!-- Node11 -->
<g id="node11" class="node"><title>Node11</title>
<polygon fill="none" stroke="#bfbfbf" points="369,-56.5 369,-75.5 415,-75.5 415,-56.5 369,-56.5"/>
<text text-anchor="middle" x="392" y="-63.5" font-family="Helvetica,sans-Serif" font-size="10.00">cstdint</text>
</g>
<!-- Node6&#45;&gt;Node11 -->
<g id="edge10" class="edge"><title>Node6&#45;&gt;Node11</title>
<path fill="none" stroke="midnightblue" d="M392,-112.781C392,-104.781 392,-94.6887 392,-86.0168"/>
<polygon fill="midnightblue" stroke="midnightblue" points="395.5,-85.7305 392,-75.7305 388.5,-85.7306 395.5,-85.7305"/>
</g>
<!-- Node12 -->
<g id="node12" class="node"><title>Node12</title>
<polygon fill="none" stroke="#bfbfbf" points="221,-56.5 221,-75.5 283,-75.5 283,-56.5 221,-56.5"/>
<text text-anchor="middle" x="252" y="-63.5" font-family="Helvetica,sans-Serif" font-size="10.00">type_traits</text>
</g>
<!-- Node6&#45;&gt;Node12 -->
<g id="edge11" class="edge"><title>Node6&#45;&gt;Node12</title>
<path fill="none" stroke="midnightblue" d="M359.176,-112.933C335.662,-102.855 304.263,-89.3986 281.534,-79.6575"/>
<polygon fill="midnightblue" stroke="midnightblue" points="282.637,-76.3223 272.067,-75.6 279.879,-82.7563 282.637,-76.3223"/>
</g>
<!-- Node13 -->
<g id="node13" class="node"><title>Node13</title>
<g id="a_node13"><a xlink:href="../../d9/d52/Common_2MathUtils_2include_2MathUtils_2Utils_8h.html" target="_top" xlink:title="MathUtils/Utils.h">
<polygon fill="none" stroke="black" points="433,-56.5 433,-75.5 523,-75.5 523,-56.5 433,-56.5"/>
<text text-anchor="middle" x="478" y="-63.5" font-family="Helvetica,sans-Serif" font-size="10.00">MathUtils/Utils.h</text>
</a>
</g>
</g>
<!-- Node6&#45;&gt;Node13 -->
<g id="edge12" class="edge"><title>Node6&#45;&gt;Node13</title>
<path fill="none" stroke="midnightblue" d="M412.381,-112.781C425.99,-103.286 443.824,-90.8434 457.465,-81.3267"/>
<polygon fill="midnightblue" stroke="midnightblue" points="459.538,-84.148 465.737,-75.5557 455.533,-78.4071 459.538,-84.148"/>
</g>
<!-- Node13&#45;&gt;Node8 -->
<g id="edge13" class="edge"><title>Node13&#45;&gt;Node8</title>
<path fill="none" stroke="midnightblue" d="M488.604,-56.324C498.456,-48.2631 513.351,-36.0765 525.215,-26.3695"/>
<polygon fill="midnightblue" stroke="midnightblue" points="527.68,-28.8752 533.203,-19.8339 523.247,-23.4575 527.68,-28.8752"/>
</g>
<!-- Node14 -->
<g id="node14" class="node"><title>Node14</title>
<polygon fill="none" stroke="#bfbfbf" points="460,-0.5 460,-19.5 504,-19.5 504,-0.5 460,-0.5"/>
<text text-anchor="middle" x="482" y="-7.5" font-family="Helvetica,sans-Serif" font-size="10.00">cmath</text>
</g>
<!-- Node13&#45;&gt;Node14 -->
<g id="edge14" class="edge"><title>Node13&#45;&gt;Node14</title>
<path fill="none" stroke="midnightblue" d="M478.661,-56.083C479.185,-49.0059 479.936,-38.8611 480.594,-29.9865"/>
<polygon fill="midnightblue" stroke="midnightblue" points="484.103,-29.9823 481.352,-19.7511 477.123,-29.4652 484.103,-29.9823"/>
</g>
<!-- Node15 -->
<g id="node15" class="node"><title>Node15</title>
<g id="a_node15"><a xlink:href="../../d6/d84/MathConstants_8h.html" target="_top" xlink:title="useful math constants ">
<polygon fill="none" stroke="black" points="262.5,-0.5 262.5,-19.5 441.5,-19.5 441.5,-0.5 262.5,-0.5"/>
<text text-anchor="middle" x="352" y="-7.5" font-family="Helvetica,sans-Serif" font-size="10.00">CommonConstants/MathConstants.h</text>
</a>
</g>
</g>
<!-- Node13&#45;&gt;Node15 -->
<g id="edge15" class="edge"><title>Node13&#45;&gt;Node15</title>
<path fill="none" stroke="midnightblue" d="M458.035,-56.4435C437.391,-47.5961 404.937,-33.6875 381.368,-23.5865"/>
<polygon fill="midnightblue" stroke="midnightblue" points="382.442,-20.2387 371.872,-19.5164 379.684,-26.6727 382.442,-20.2387"/>
</g>
<!-- Node17&#45;&gt;Node6 -->
<g id="edge18" class="edge"><title>Node17&#45;&gt;Node6</title>
<path fill="none" stroke="midnightblue" d="M817.841,-181.593C814.857,-181.024 811.897,-180.488 809,-180 665.691,-155.858 627.987,-163.699 484,-144 482.737,-143.827 481.465,-143.651 480.186,-143.471"/>
<polygon fill="midnightblue" stroke="midnightblue" points="480.653,-140.003 470.256,-142.039 479.654,-146.931 480.653,-140.003"/>
</g>
<!-- Node17&#45;&gt;Node7 -->
<g id="edge19" class="edge"><title>Node17&#45;&gt;Node7</title>
<path fill="none" stroke="midnightblue" d="M817.834,-181.637C814.852,-181.056 811.894,-180.506 809,-180 677.74,-157.053 425.51,-208.878 517,-112 542.919,-84.5549 1109.59,-70.9637 1264.28,-67.7563"/>
<polygon fill="midnightblue" stroke="midnightblue" points="1264.77,-71.2472 1274.7,-67.5433 1264.63,-64.2487 1264.77,-71.2472"/>
</g>
<!-- Node18 -->
<g id="node18" class="node"><title>Node18</title>
<polygon fill="none" stroke="#bfbfbf" points="609.5,-118.5 609.5,-137.5 704.5,-137.5 704.5,-118.5 609.5,-118.5"/>
<text text-anchor="middle" x="657" y="-125.5" font-family="Helvetica,sans-Serif" font-size="10.00">TDatabasePDG.h</text>
</g>
<!-- Node17&#45;&gt;Node18 -->
<g id="edge20" class="edge"><title>Node17&#45;&gt;Node18</title>
<path fill="none" stroke="midnightblue" d="M828.501,-180.922C788.724,-168.88 732.175,-151.76 695.048,-140.519"/>
<polygon fill="midnightblue" stroke="midnightblue" points="695.706,-137.062 685.121,-137.514 693.678,-143.761 695.706,-137.062"/>
</g>
<!-- Node19 -->
<g id="node19" class="node"><title>Node19</title>
<polygon fill="none" stroke="#bfbfbf" points="723,-118.5 723,-137.5 815,-137.5 815,-118.5 723,-118.5"/>
<text text-anchor="middle" x="769" y="-125.5" font-family="Helvetica,sans-Serif" font-size="10.00">TLorentzVector.h</text>
</g>
<!-- Node17&#45;&gt;Node19 -->
<g id="edge21" class="edge"><title>Node17&#45;&gt;Node19</title>
<path fill="none" stroke="midnightblue" d="M852.26,-180.841C834.337,-169.681 809.469,-154.198 791.585,-143.063"/>
<polygon fill="midnightblue" stroke="midnightblue" points="793.283,-139.996 782.944,-137.682 789.583,-145.939 793.283,-139.996"/>
</g>
<!-- Node20 -->
<g id="node20" class="node"><title>Node20</title>
<polygon fill="none" stroke="#bfbfbf" points="833.5,-118.5 833.5,-137.5 916.5,-137.5 916.5,-118.5 833.5,-118.5"/>
<text text-anchor="middle" x="875" y="-125.5" font-family="Helvetica,sans-Serif" font-size="10.00">TMCProcess.h</text>
</g>
<!-- Node17&#45;&gt;Node20 -->
<g id="edge22" class="edge"><title>Node17&#45;&gt;Node20</title>
<path fill="none" stroke="midnightblue" d="M875,-180.679C875,-171.101 875,-158.394 875,-147.977"/>
<polygon fill="midnightblue" stroke="midnightblue" points="878.5,-147.828 875,-137.828 871.5,-147.828 878.5,-147.828"/>
</g>
<!-- Node21 -->
<g id="node21" class="node"><title>Node21</title>
<polygon fill="none" stroke="#bfbfbf" points="1121.5,-118.5 1121.5,-137.5 1174.5,-137.5 1174.5,-118.5 1121.5,-118.5"/>
<text text-anchor="middle" x="1148" y="-125.5" font-family="Helvetica,sans-Serif" font-size="10.00">TMath.h</text>
</g>
<!-- Node17&#45;&gt;Node21 -->
<g id="edge23" class="edge"><title>Node17&#45;&gt;Node21</title>
<path fill="none" stroke="midnightblue" d="M932.262,-185.71C980.739,-177.128 1051.75,-162.86 1112,-144 1114.58,-143.193 1117.22,-142.274 1119.86,-141.297"/>
<polygon fill="midnightblue" stroke="midnightblue" points="1121.18,-144.539 1129.18,-137.601 1118.6,-138.031 1121.18,-144.539"/>
</g>
<!-- Node17&#45;&gt;Node22 -->
<g id="edge24" class="edge"><title>Node17&#45;&gt;Node22</title>
<path fill="none" stroke="midnightblue" d="M918.89,-180.983C949.997,-170.945 992.669,-156.967 1030,-144 1032.75,-143.044 1035.6,-142.037 1038.46,-141.016"/>
<polygon fill="midnightblue" stroke="midnightblue" points="1039.85,-144.235 1048.06,-137.543 1037.47,-137.652 1039.85,-144.235"/>
</g>
<!-- Node23 -->
<g id="node23" class="node"><title>Node23</title>
<polygon fill="none" stroke="#bfbfbf" points="935,-118.5 935,-137.5 1021,-137.5 1021,-118.5 935,-118.5"/>
<text text-anchor="middle" x="978" y="-125.5" font-family="Helvetica,sans-Serif" font-size="10.00">TParticlePDG.h</text>
</g>
<!-- Node17&#45;&gt;Node23 -->
<g id="edge25" class="edge"><title>Node17&#45;&gt;Node23</title>
<path fill="none" stroke="midnightblue" d="M897.096,-180.841C914.353,-169.784 938.234,-154.481 955.574,-143.37"/>
<polygon fill="midnightblue" stroke="midnightblue" points="957.92,-146.024 964.451,-137.682 954.143,-140.13 957.92,-146.024"/>
</g>
<!-- Node24 -->
<g id="node24" class="node"><title>Node24</title>
<polygon fill="none" stroke="#bfbfbf" points="526.5,-118.5 526.5,-137.5 591.5,-137.5 591.5,-118.5 526.5,-118.5"/>
<text text-anchor="middle" x="559" y="-125.5" font-family="Helvetica,sans-Serif" font-size="10.00">TVector3.h</text>
</g>
<!-- Node17&#45;&gt;Node24 -->
<g id="edge26" class="edge"><title>Node17&#45;&gt;Node24</title>
<path fill="none" stroke="midnightblue" d="M817.802,-181.806C814.828,-181.181 811.881,-180.575 809,-180 716.567,-161.549 691.073,-168.291 600,-144 596.601,-143.094 593.088,-142.023 589.612,-140.877"/>
<polygon fill="midnightblue" stroke="midnightblue" points="590.641,-137.529 580.047,-137.524 588.326,-144.135 590.641,-137.529"/>
</g>
<!-- Node25&#45;&gt;Node10 -->
<g id="edge29" class="edge"><title>Node25&#45;&gt;Node10</title>
<path fill="none" stroke="midnightblue" d="M236.431,-112.933C255.73,-103.036 281.383,-89.8803 300.289,-80.1852"/>
<polygon fill="midnightblue" stroke="midnightblue" points="301.929,-83.2776 309.23,-75.6 298.735,-77.0489 301.929,-83.2776"/>
</g>
<!-- Node25&#45;&gt;Node12 -->
<g id="edge32" class="edge"><title>Node25&#45;&gt;Node12</title>
<path fill="none" stroke="midnightblue" d="M219.19,-112.781C225.374,-104.152 233.303,-93.0882 239.818,-83.9987"/>
<polygon fill="midnightblue" stroke="midnightblue" points="242.763,-85.8976 245.743,-75.7305 237.073,-81.8199 242.763,-85.8976"/>
</g>
<!-- Node26 -->
<g id="node26" class="node"><title>Node26</title>
<polygon fill="none" stroke="#bfbfbf" points="0,-56.5 0,-75.5 62,-75.5 62,-56.5 0,-56.5"/>
<text text-anchor="middle" x="31" y="-63.5" font-family="Helvetica,sans-Serif" font-size="10.00">TNamed.h</text>
</g>
<!-- Node25&#45;&gt;Node26 -->
<g id="edge28" class="edge"><title>Node25&#45;&gt;Node26</title>
<path fill="none" stroke="midnightblue" d="M167.267,-112.933C136.474,-102.553 95.0466,-88.5887 65.9817,-78.7916"/>
<polygon fill="midnightblue" stroke="midnightblue" points="66.8485,-75.3903 56.2543,-75.5127 64.6125,-82.0236 66.8485,-75.3903"/>
</g>
<!-- Node27 -->
<g id="node27" class="node"><title>Node27</title>
<polygon fill="none" stroke="#bfbfbf" points="80.5,-56.5 80.5,-75.5 139.5,-75.5 139.5,-56.5 80.5,-56.5"/>
<text text-anchor="middle" x="110" y="-63.5" font-family="Helvetica,sans-Serif" font-size="10.00">stdexcept</text>
</g>
<!-- Node25&#45;&gt;Node27 -->
<g id="edge30" class="edge"><title>Node25&#45;&gt;Node27</title>
<path fill="none" stroke="midnightblue" d="M185.789,-112.933C169.832,-103.262 148.741,-90.4793 132.86,-80.8546"/>
<polygon fill="midnightblue" stroke="midnightblue" points="134.556,-77.7899 124.19,-75.6 130.928,-83.7763 134.556,-77.7899"/>
</g>
<!-- Node28 -->
<g id="node28" class="node"><title>Node28</title>
<polygon fill="none" stroke="#bfbfbf" points="157.5,-56.5 157.5,-75.5 202.5,-75.5 202.5,-56.5 157.5,-56.5"/>
<text text-anchor="middle" x="180" y="-63.5" font-family="Helvetica,sans-Serif" font-size="10.00">gsl/gsl</text>
</g>
<!-- Node25&#45;&gt;Node28 -->
<g id="edge31" class="edge"><title>Node25&#45;&gt;Node28</title>
<path fill="none" stroke="midnightblue" d="M202.127,-112.781C198.087,-104.422 192.942,-93.7773 188.631,-84.8565"/>
<polygon fill="midnightblue" stroke="midnightblue" points="191.723,-83.2109 184.22,-75.7305 185.42,-86.2571 191.723,-83.2109"/>
</g>
<!-- Node29&#45;&gt;Node7 -->
<g id="edge36" class="edge"><title>Node29&#45;&gt;Node7</title>
<path fill="none" stroke="midnightblue" d="M1190.76,-180.835C1194.87,-162.965 1204.11,-132.142 1222,-112 1234.65,-97.7565 1252.93,-87.0613 1268.92,-79.6796"/>
<polygon fill="midnightblue" stroke="midnightblue" points="1270.74,-82.7063 1278.52,-75.5095 1267.95,-76.2867 1270.74,-82.7063"/>
</g>
<!-- Node29&#45;&gt;Node21 -->
<g id="edge37" class="edge"><title>Node29&#45;&gt;Node21</title>
<path fill="none" stroke="midnightblue" d="M1179.32,-180.679C1173.27,-170.694 1165.16,-157.307 1158.7,-146.66"/>
<polygon fill="midnightblue" stroke="midnightblue" points="1161.53,-144.566 1153.35,-137.828 1155.54,-148.194 1161.53,-144.566"/>
</g>
<!-- Node30 -->
<g id="node30" class="node"><title>Node30</title>
<polygon fill="none" stroke="#bfbfbf" points="1231,-118.5 1231,-137.5 1305,-137.5 1305,-118.5 1231,-118.5"/>
<text text-anchor="middle" x="1268" y="-125.5" font-family="Helvetica,sans-Serif" font-size="10.00">TVirtualMC.h</text>
</g>
<!-- Node29&#45;&gt;Node30 -->
<g id="edge34" class="edge"><title>Node29&#45;&gt;Node30</title>
<path fill="none" stroke="midnightblue" d="M1205.36,-180.679C1218.33,-169.981 1236.03,-155.377 1249.31,-144.422"/>
<polygon fill="midnightblue" stroke="midnightblue" points="1251.81,-146.892 1257.3,-137.828 1247.36,-141.492 1251.81,-146.892"/>
</g>
<!-- Node31 -->
<g id="node31" class="node"><title>Node31</title>
<polygon fill="none" stroke="#bfbfbf" points="1323,-118.5 1323,-137.5 1375,-137.5 1375,-118.5 1323,-118.5"/>
<text text-anchor="middle" x="1349" y="-125.5" font-family="Helvetica,sans-Serif" font-size="10.00">ostream</text>
</g>
<!-- Node29&#45;&gt;Node31 -->
<g id="edge35" class="edge"><title>Node29&#45;&gt;Node31</title>
<path fill="none" stroke="midnightblue" d="M1223.38,-180.902C1248.68,-170.767 1283.5,-156.706 1314,-144 1315.83,-143.237 1317.71,-142.447 1319.61,-141.647"/>
<polygon fill="midnightblue" stroke="midnightblue" points="1321.21,-144.771 1329.04,-137.637 1318.47,-138.329 1321.21,-144.771"/>
</g>
<!-- Node39&#45;&gt;Node7 -->
<g id="edge49" class="edge"><title>Node39&#45;&gt;Node7</title>
<path fill="none" stroke="midnightblue" d="M1548.21,-254.442C1521.12,-246.966 1485.81,-233.804 1461,-212 1422.74,-178.37 1442.69,-146.268 1405,-112 1386.91,-95.551 1361.83,-84.3781 1341.07,-77.2797"/>
<polygon fill="midnightblue" stroke="midnightblue" points="1341.87,-73.8589 1331.28,-74.117 1339.72,-80.5203 1341.87,-73.8589"/>
</g>
<!-- Node40 -->
<g id="node40" class="node"><title>Node40</title>
<polygon fill="none" stroke="#bfbfbf" points="1469.5,-186.5 1469.5,-205.5 1548.5,-205.5 1548.5,-186.5 1469.5,-186.5"/>
<text text-anchor="middle" x="1509" y="-193.5" font-family="Helvetica,sans-Serif" font-size="10.00">FairDetector.h</text>
</g>
<!-- Node39&#45;&gt;Node40 -->
<g id="edge48" class="edge"><title>Node39&#45;&gt;Node40</title>
<path fill="none" stroke="midnightblue" d="M1577.67,-254.372C1564.9,-243.699 1542.93,-225.343 1527.28,-212.268"/>
<polygon fill="midnightblue" stroke="midnightblue" points="1529.25,-209.356 1519.33,-205.63 1524.76,-214.728 1529.25,-209.356"/>
</g>
<!-- Node41 -->
<g id="node41" class="node"><title>Node41</title>
<polygon fill="none" stroke="#bfbfbf" points="1566.5,-186.5 1566.5,-205.5 1625.5,-205.5 1625.5,-186.5 1566.5,-186.5"/>
<text text-anchor="middle" x="1596" y="-193.5" font-family="Helvetica,sans-Serif" font-size="10.00">functional</text>
</g>
<!-- Node39&#45;&gt;Node41 -->
<g id="edge50" class="edge"><title>Node39&#45;&gt;Node41</title>
<path fill="none" stroke="midnightblue" d="M1589.05,-254.372C1590.23,-244.643 1592.18,-228.528 1593.72,-215.85"/>
<polygon fill="midnightblue" stroke="midnightblue" points="1597.2,-216.19 1594.93,-205.841 1590.25,-215.347 1597.2,-216.19"/>
</g>
<!-- Node42 -->
<g id="node42" class="node"><title>Node42</title>
<polygon fill="none" stroke="#bfbfbf" points="1697,-186.5 1697,-205.5 1741,-205.5 1741,-186.5 1697,-186.5"/>
<text text-anchor="middle" x="1719" y="-193.5" font-family="Helvetica,sans-Serif" font-size="10.00">vector</text>
</g>
<!-- Node39&#45;&gt;Node42 -->
<g id="edge51" class="edge"><title>Node39&#45;&gt;Node42</title>
<path fill="none" stroke="midnightblue" d="M1605.13,-254.372C1627.49,-243.106 1666.84,-223.279 1692.92,-210.14"/>
<polygon fill="midnightblue" stroke="midnightblue" points="1694.51,-213.256 1701.87,-205.63 1691.36,-207.004 1694.51,-213.256"/>
</g>
<!-- Node43&#45;&gt;Node7 -->
<g id="edge53" class="edge"><title>Node43&#45;&gt;Node7</title>
<path fill="none" stroke="midnightblue" d="M1755.59,-254.31C1759.95,-237.784 1766.62,-201.555 1749,-180 1696.86,-116.234 1439.27,-81.8715 1341.1,-70.9213"/>
<polygon fill="midnightblue" stroke="midnightblue" points="1341.34,-67.427 1331.02,-69.8173 1340.58,-74.3854 1341.34,-67.427"/>
</g>
<!-- Node43&#45;&gt;Node32 -->
<g id="edge54" class="edge"><title>Node43&#45;&gt;Node32</title>
<path fill="none" stroke="midnightblue" d="M1740.97,-254.372C1725.82,-243.502 1699.56,-224.66 1681.28,-211.547"/>
<polygon fill="midnightblue" stroke="midnightblue" points="1683.2,-208.616 1673.03,-205.63 1679.12,-214.303 1683.2,-208.616"/>
</g>
<!-- Node44 -->
<g id="node44" class="node"><title>Node44</title>
<polygon fill="none" stroke="#bfbfbf" points="1797.5,-186.5 1797.5,-205.5 1880.5,-205.5 1880.5,-186.5 1797.5,-186.5"/>
<text text-anchor="middle" x="1839" y="-193.5" font-family="Helvetica,sans-Serif" font-size="10.00">unordered_map</text>
</g>
<!-- Node43&#45;&gt;Node44 -->
<g id="edge55" class="edge"><title>Node43&#45;&gt;Node44</title>
<path fill="none" stroke="midnightblue" d="M1764.24,-254.372C1778.28,-243.6 1802.51,-225.002 1819.58,-211.906"/>
<polygon fill="midnightblue" stroke="midnightblue" points="1821.95,-214.495 1827.75,-205.63 1817.69,-208.942 1821.95,-214.495"/>
</g>
<!-- Node45 -->
<g id="node45" class="node"><title>Node45</title>
<polygon fill="none" stroke="#bfbfbf" points="1898.5,-186.5 1898.5,-205.5 1971.5,-205.5 1971.5,-186.5 1898.5,-186.5"/>
<text text-anchor="middle" x="1935" y="-193.5" font-family="Helvetica,sans-Serif" font-size="10.00">initializer_list</text>
</g>
<!-- Node43&#45;&gt;Node45 -->
<g id="edge56" class="edge"><title>Node43&#45;&gt;Node45</title>
<path fill="none" stroke="midnightblue" d="M1776.79,-254.372C1808.76,-242.778 1865.74,-222.116 1901.89,-209.009"/>
<polygon fill="midnightblue" stroke="midnightblue" points="1903.28,-212.225 1911.49,-205.526 1900.9,-205.645 1903.28,-212.225"/>
</g>
<!-- Node48 -->
<g id="node48" class="node"><title>Node48</title>
<g id="a_node48"><a xlink:href="../../d1/ddc/commonConfig_8C.html" target="_top" xlink:title="commonConfig.C">
<polygon fill="none" stroke="black" points="1989.5,-186.5 1989.5,-205.5 2082.5,-205.5 2082.5,-186.5 1989.5,-186.5"/>
<text text-anchor="middle" x="2036" y="-193.5" font-family="Helvetica,sans-Serif" font-size="10.00">commonConfig.C</text>
</a>
</g>
</g>
<!-- Node47&#45;&gt;Node48 -->
<g id="edge59" class="edge"><title>Node47&#45;&gt;Node48</title>
<path fill="none" stroke="midnightblue" d="M2023.83,-254.372C2025.89,-244.643 2029.31,-228.528 2032,-215.85"/>
<polygon fill="midnightblue" stroke="midnightblue" points="2035.47,-216.35 2034.12,-205.841 2028.63,-214.897 2035.47,-216.35"/>
</g>
</g>
</svg>
        <g id="navigator" transform="translate(0 0)" fill="#404254">
                <rect fill="#f2f5e9" fill-opacity="0.5" stroke="#606060" stroke-width=".5" x="0" y="0" width="60" height="60"/>
                <use id="zoomplus" xlink:href="#zoomPlus" x="17" y="9" onmousedown="handleZoom(evt,'in')"/>
                <use id="zoomminus" xlink:href="#zoomMin" x="42" y="9" onmousedown="handleZoom(evt,'out')"/>
                <use id="reset" xlink:href="#resetDef" x="30" y="36" onmousedown="handleReset()"/>
                <g id="arrowUp" xlink:href="#dirArrow" transform="translate(30 24)" onmousedown="handlePan(0,-1)">
                  <use xlink:href="#rim" fill="#404040">
                        <set attributeName="fill" to="#808080" begin="arrowUp.mouseover" end="arrowUp.mouseout"/>
                  </use>
                  <path fill="none" stroke="white" stroke-width="1.5" d="M0,-3.0v7 M-2.5,-0.5L0,-3.0L2.5,-0.5"/>
                </g>
                <g id="arrowRight" xlink:href="#dirArrow" transform="rotate(90) translate(36 -43)" onmousedown="handlePan(1,0)">
                  <use xlink:href="#rim" fill="#404040">
                        <set attributeName="fill" to="#808080" begin="arrowRight.mouseover" end="arrowRight.mouseout"/>
                  </use>
                  <path fill="none" stroke="white" stroke-width="1.5" d="M0,-3.0v7 M-2.5,-0.5L0,-3.0L2.5,-0.5"/>
                </g>
                <g id="arrowDown" xlink:href="#dirArrow" transform="rotate(180) translate(-30 -48)" onmousedown="handlePan(0,1)">
                  <use xlink:href="#rim" fill="#404040">
                        <set attributeName="fill" to="#808080" begin="arrowDown.mouseover" end="arrowDown.mouseout"/>
                  </use>
                  <path fill="none" stroke="white" stroke-width="1.5" d="M0,-3.0v7 M-2.5,-0.5L0,-3.0L2.5,-0.5"/>
                </g>
                <g id="arrowLeft" xlink:href="#dirArrow" transform="rotate(270) translate(-36 17)" onmousedown="handlePan(-1,0)">
                  <use xlink:href="#rim" fill="#404040">
                        <set attributeName="fill" to="#808080" begin="arrowLeft.mouseover" end="arrowLeft.mouseout"/>
                  </use>
                  <path fill="none" stroke="white" stroke-width="1.5" d="M0,-3.0v7 M-2.5,-0.5L0,-3.0L2.5,-0.5"/>
                </g>
        </g>
        <svg viewBox="0 0 15 15" width="100%" height="30px" preserveAspectRatio="xMaxYMin meet">
         <g id="arrow_out" transform="scale(0.3 0.3)">
          <a xlink:href="G3Config_8cxx__incl_org.svg" target="_base">
           <rect id="button" ry="5" rx="5" y="6" x="6" height="38" width="38"
                fill="#f2f5e9" fill-opacity="0.5" stroke="#606060" stroke-width="1.0"/>
           <path id="arrow"
             d="M 11.500037,31.436501 C 11.940474,20.09759 22.043105,11.32322 32.158766,21.979434 L 37.068811,17.246167 C 37.068811,17.246167 37.088388,32 37.088388,32 L 22.160133,31.978069 C 22.160133,31.978069 26.997745,27.140456 26.997745,27.140456 C 18.528582,18.264221 13.291696,25.230495 11.500037,31.436501 z"
             style="fill:#404040;"/>
          </a>
         </g>
        </svg>
</svg>
