<?xml version="1.0" encoding="UTF-8" standalone="no"?>
<!DOCTYPE svg PUBLIC "-//W3C//DTD SVG 1.1//EN"
 "http://www.w3.org/Graphics/SVG/1.1/DTD/svg11.dtd">
<!-- Generated by graphviz version 2.36.0 (20140111.2315)
 -->
<!-- Title: /home/travis/build/AliceO2Group/AliceO2/Detectors/gconfig/src/G4Config.cxx Pages: 1 -->
<!--zoomable 378 -->
<svg id="main" version="1.1" xmlns="http://www.w3.org/2000/svg" xmlns:xlink="http://www.w3.org/1999/xlink" xml:space="preserve" onload="init(evt)">
<style type="text/css"><![CDATA[
.edge:hover path { stroke: red; }
.edge:hover polygon { stroke: red; fill: red; }
]]></style>
<script type="text/javascript"><![CDATA[
var edges = document.getElementsByTagName('g');
if (edges && edges.length) {
  for (var i=0;i<edges.length;i++) {
    if (edges[i].id.substr(0,4)=='edge') {
      edges[i].setAttribute('class','edge');
    }
  }
}
]]></script>
        <defs>
                <circle id="rim" cx="0" cy="0" r="7"/>
                <circle id="rim2" cx="0" cy="0" r="3.5"/>
                <g id="zoomPlus">
                        <use xlink:href="#rim" fill="#404040">
                                <set attributeName="fill" to="#808080" begin="zoomplus.mouseover" end="zoomplus.mouseout"/>
                        </use>
                        <path d="M-4,0h8M0,-4v8" fill="none" stroke="white" stroke-width="1.5" pointer-events="none"/>
                </g>
                <g id="zoomMin">
                        <use xlink:href="#rim" fill="#404040">
                                <set attributeName="fill" to="#808080" begin="zoomminus.mouseover" end="zoomminus.mouseout"/>
                        </use>
                        <path d="M-4,0h8" fill="none" stroke="white" stroke-width="1.5" pointer-events="none"/>
                </g>
                <g id="dirArrow">
                        <path fill="none" stroke="white" stroke-width="1.5" d="M0,-3.0v7 M-2.5,-0.5L0,-3.0L2.5,-0.5"/>
                </g>
               <g id="resetDef">
                       <use xlink:href="#rim2" fill="#404040">
                               <set attributeName="fill" to="#808080" begin="reset.mouseover" end="reset.mouseout"/>
                       </use>
               </g>
        </defs>

<script type="text/javascript">
var viewWidth = 2111;
var viewHeight = 378;
var sectionId = 'dynsection-0';
</script>
<script xlink:href="../../svgpan.js"/>
<svg id="graph" class="graph">
<g id="viewport">
<title>/home/travis/build/AliceO2Group/AliceO2/Detectors/gconfig/src/G4Config.cxx</title>
<!-- Node1 -->
<g id="node1" class="node"><title>Node1</title>
<polygon fill="#bfbfbf" stroke="black" points="1327,-317 1327,-369 1445,-369 1445,-317 1327,-317"/>
<text text-anchor="start" x="1335" y="-357" font-family="Helvetica,sans-Serif" font-size="10.00">/home/travis/build</text>
<text text-anchor="start" x="1335" y="-346" font-family="Helvetica,sans-Serif" font-size="10.00">/AliceO2Group/AliceO2</text>
<text text-anchor="start" x="1335" y="-335" font-family="Helvetica,sans-Serif" font-size="10.00">/Detectors/gconfig/src</text>
<text text-anchor="middle" x="1386" y="-324" font-family="Helvetica,sans-Serif" font-size="10.00">/G4Config.cxx</text>
</g>
<!-- Node2 -->
<g id="node2" class="node"><title>Node2</title>
<polygon fill="none" stroke="#bfbfbf" points="792.5,-254.5 792.5,-273.5 869.5,-273.5 869.5,-254.5 792.5,-254.5"/>
<text text-anchor="middle" x="831" y="-261.5" font-family="Helvetica,sans-Serif" font-size="10.00">FairRunSim.h</text>
</g>
<!-- Node1&#45;&gt;Node2 -->
<g id="edge1" class="edge"><title>Node1&#45;&gt;Node2</title>
<path fill="none" stroke="midnightblue" d="M1326.87,-338.259C1231.68,-331.459 1038.94,-314.471 879,-280 874.559,-279.043 869.941,-277.855 865.4,-276.57"/>
<polygon fill="midnightblue" stroke="midnightblue" points="866.268,-273.177 855.684,-273.653 864.256,-279.881 866.268,-273.177"/>
</g>
<!-- Node3 -->
<g id="node3" class="node"><title>Node3</title>
<g id="a_node3"><a xlink:href="../../d4/d03/simulation_2include_2SimulationDataFormat_2Stack_8h.html" target="_top" xlink:title="SimulationDataFormat\l/Stack.h">
<polygon fill="none" stroke="black" points="888,-249 888,-279 1002,-279 1002,-249 888,-249"/>
<text text-anchor="start" x="896" y="-267" font-family="Helvetica,sans-Serif" font-size="10.00">SimulationDataFormat</text>
<text text-anchor="middle" x="945" y="-256" font-family="Helvetica,sans-Serif" font-size="10.00">/Stack.h</text>
</a>
</g>
</g>
<!-- Node1&#45;&gt;Node3 -->
<g id="edge2" class="edge"><title>Node1&#45;&gt;Node3</title>
<path fill="none" stroke="midnightblue" d="M1326.7,-333.313C1254.64,-322.507 1129.15,-302.89 1012.05,-280.143"/>
<polygon fill="midnightblue" stroke="midnightblue" points="1012.68,-276.701 1002.19,-278.218 1011.34,-283.571 1012.68,-276.701"/>
</g>
<!-- Node34 -->
<g id="node34" class="node"><title>Node34</title>
<polygon fill="none" stroke="#bfbfbf" points="1020,-254.5 1020,-273.5 1074,-273.5 1074,-254.5 1020,-254.5"/>
<text text-anchor="middle" x="1047" y="-261.5" font-family="Helvetica,sans-Serif" font-size="10.00">iostream</text>
</g>
<!-- Node1&#45;&gt;Node34 -->
<g id="edge42" class="edge"><title>Node1&#45;&gt;Node34</title>
<path fill="none" stroke="midnightblue" d="M1326.79,-333.356C1265.09,-323.547 1166.01,-305.526 1083,-280 1080.42,-279.206 1077.77,-278.296 1075.13,-277.325"/>
<polygon fill="midnightblue" stroke="midnightblue" points="1076.39,-274.058 1065.8,-273.639 1073.82,-280.569 1076.39,-274.058"/>
</g>
<!-- Node35 -->
<g id="node35" class="node"><title>Node35</title>
<polygon fill="none" stroke="#bfbfbf" points="1092.5,-254.5 1092.5,-273.5 1163.5,-273.5 1163.5,-254.5 1092.5,-254.5"/>
<text text-anchor="middle" x="1128" y="-261.5" font-family="Helvetica,sans-Serif" font-size="10.00">FairLogger.h</text>
</g>
<!-- Node1&#45;&gt;Node35 -->
<g id="edge43" class="edge"><title>Node1&#45;&gt;Node35</title>
<path fill="none" stroke="midnightblue" d="M1326.6,-325.371C1283.77,-313.221 1224.66,-296.12 1173,-280 1169.68,-278.963 1166.22,-277.859 1162.77,-276.739"/>
<polygon fill="midnightblue" stroke="midnightblue" points="1163.77,-273.381 1153.17,-273.581 1161.58,-280.03 1163.77,-273.381"/>
</g>
<!-- Node36 -->
<g id="node36" class="node"><title>Node36</title>
<polygon fill="none" stroke="#bfbfbf" points="1182,-254.5 1182,-273.5 1244,-273.5 1244,-254.5 1182,-254.5"/>
<text text-anchor="middle" x="1213" y="-261.5" font-family="Helvetica,sans-Serif" font-size="10.00">TGeant4.h</text>
</g>
<!-- Node1&#45;&gt;Node36 -->
<g id="edge44" class="edge"><title>Node1&#45;&gt;Node36</title>
<path fill="none" stroke="midnightblue" d="M1329.35,-316.787C1299.91,-303.681 1265.2,-288.232 1241.4,-277.64"/>
<polygon fill="midnightblue" stroke="midnightblue" points="1242.79,-274.426 1232.23,-273.558 1239.94,-280.822 1242.79,-274.426"/>
</g>
<!-- Node37 -->
<g id="node37" class="node"><title>Node37</title>
<polygon fill="none" stroke="#bfbfbf" points="1262.5,-254.5 1262.5,-273.5 1381.5,-273.5 1381.5,-254.5 1262.5,-254.5"/>
<text text-anchor="middle" x="1322" y="-261.5" font-family="Helvetica,sans-Serif" font-size="10.00">TG4RunConfiguration.h</text>
</g>
<!-- Node1&#45;&gt;Node37 -->
<g id="edge45" class="edge"><title>Node1&#45;&gt;Node37</title>
<path fill="none" stroke="midnightblue" d="M1365.04,-316.787C1355.36,-305.137 1344.14,-291.636 1335.58,-281.341"/>
<polygon fill="midnightblue" stroke="midnightblue" points="1338.2,-279.011 1329.11,-273.558 1332.81,-283.485 1338.2,-279.011"/>
</g>
<!-- Node38 -->
<g id="node38" class="node"><title>Node38</title>
<polygon fill="none" stroke="#bfbfbf" points="1399.5,-254.5 1399.5,-273.5 1500.5,-273.5 1500.5,-254.5 1399.5,-254.5"/>
<text text-anchor="middle" x="1450" y="-261.5" font-family="Helvetica,sans-Serif" font-size="10.00">TPythia6Decayer.h</text>
</g>
<!-- Node1&#45;&gt;Node38 -->
<g id="edge46" class="edge"><title>Node1&#45;&gt;Node38</title>
<path fill="none" stroke="midnightblue" d="M1406.96,-316.787C1416.64,-305.137 1427.86,-291.636 1436.42,-281.341"/>
<polygon fill="midnightblue" stroke="midnightblue" points="1439.19,-283.485 1442.89,-273.558 1433.8,-279.011 1439.19,-283.485"/>
</g>
<!-- Node39 -->
<g id="node39" class="node"><title>Node39</title>
<polygon fill="none" stroke="#bfbfbf" points="1518.5,-254.5 1518.5,-273.5 1591.5,-273.5 1591.5,-254.5 1518.5,-254.5"/>
<text text-anchor="middle" x="1555" y="-261.5" font-family="Helvetica,sans-Serif" font-size="10.00">FairModule.h</text>
</g>
<!-- Node1&#45;&gt;Node39 -->
<g id="edge47" class="edge"><title>Node1&#45;&gt;Node39</title>
<path fill="none" stroke="midnightblue" d="M1441.34,-316.787C1469.98,-303.739 1503.71,-288.369 1526.95,-277.782"/>
<polygon fill="midnightblue" stroke="midnightblue" points="1528.57,-280.889 1536.22,-273.558 1525.67,-274.519 1528.57,-280.889"/>
</g>
<!-- Node40 -->
<g id="node40" class="node"><title>Node40</title>
<g id="a_node40"><a xlink:href="../../d9/d6d/Cave_8h.html" target="_top" xlink:title="DetectorsPassive/Cave.h">
<polygon fill="none" stroke="black" points="1609.5,-254.5 1609.5,-273.5 1738.5,-273.5 1738.5,-254.5 1609.5,-254.5"/>
<text text-anchor="middle" x="1674" y="-261.5" font-family="Helvetica,sans-Serif" font-size="10.00">DetectorsPassive/Cave.h</text>
</a>
</g>
</g>
<!-- Node1&#45;&gt;Node40 -->
<g id="edge48" class="edge"><title>Node1&#45;&gt;Node40</title>
<path fill="none" stroke="midnightblue" d="M1445.32,-326.139C1501.09,-311.229 1583.14,-289.294 1632.29,-276.15"/>
<polygon fill="midnightblue" stroke="midnightblue" points="1633.21,-279.529 1641.97,-273.564 1631.4,-272.766 1633.21,-279.529"/>
</g>
<!-- Node44 -->
<g id="node44" class="node"><title>Node44</title>
<g id="a_node44"><a xlink:href="../../d0/d9a/MaterialManager_8h.html" target="_top" xlink:title="DetectorsBase/MaterialManager.h">
<polygon fill="none" stroke="black" points="1756.5,-254.5 1756.5,-273.5 1921.5,-273.5 1921.5,-254.5 1756.5,-254.5"/>
<text text-anchor="middle" x="1839" y="-261.5" font-family="Helvetica,sans-Serif" font-size="10.00">DetectorsBase/MaterialManager.h</text>
</a>
</g>
</g>
<!-- Node1&#45;&gt;Node44 -->
<g id="edge53" class="edge"><title>Node1&#45;&gt;Node44</title>
<path fill="none" stroke="midnightblue" d="M1445.22,-331.934C1531.73,-317.229 1691.8,-290.021 1778.84,-275.226"/>
<polygon fill="midnightblue" stroke="midnightblue" points="1779.55,-278.655 1788.82,-273.529 1778.38,-271.754 1779.55,-278.655"/>
</g>
<!-- Node47 -->
<g id="node47" class="node"><title>Node47</title>
<g id="a_node47"><a xlink:href="../../da/d40/g4Config_8C.html" target="_top" xlink:title="../g4Config.C">
<polygon fill="none" stroke="black" points="1939.5,-254.5 1939.5,-273.5 2014.5,-273.5 2014.5,-254.5 1939.5,-254.5"/>
<text text-anchor="middle" x="1977" y="-261.5" font-family="Helvetica,sans-Serif" font-size="10.00">../g4Config.C</text>
</a>
</g>
</g>
<!-- Node1&#45;&gt;Node47 -->
<g id="edge58" class="edge"><title>Node1&#45;&gt;Node47</title>
<path fill="none" stroke="midnightblue" d="M1445.38,-339.037C1546.04,-333.17 1756.2,-317.264 1930,-280 1934.45,-279.045 1939.09,-277.839 1943.63,-276.528"/>
<polygon fill="midnightblue" stroke="midnightblue" points="1944.8,-279.83 1953.33,-273.547 1942.75,-273.139 1944.8,-279.83"/>
</g>
<!-- Node49 -->
<g id="node49" class="node"><title>Node49</title>
<g id="a_node49"><a xlink:href="../../d7/de7/SetCuts_8h.html" target="_top" xlink:title="../SetCuts.h">
<polygon fill="none" stroke="black" points="2033,-254.5 2033,-273.5 2103,-273.5 2103,-254.5 2033,-254.5"/>
<text text-anchor="middle" x="2068" y="-261.5" font-family="Helvetica,sans-Serif" font-size="10.00">../SetCuts.h</text>
</a>
</g>
</g>
<!-- Node1&#45;&gt;Node49 -->
<g id="edge60" class="edge"><title>Node1&#45;&gt;Node49</title>
<path fill="none" stroke="midnightblue" d="M1445.08,-340.669C1558.36,-337.146 1813.51,-324.518 2023,-280 2027.17,-279.114 2031.49,-277.974 2035.73,-276.717"/>
<polygon fill="midnightblue" stroke="midnightblue" points="2036.92,-280.014 2045.38,-273.642 2034.79,-273.344 2036.92,-280.014"/>
</g>
<!-- Node4 -->
<g id="node4" class="node"><title>Node4</title>
<g id="a_node4"><a xlink:href="../../d6/d31/DetID_8h.html" target="_top" xlink:title="DetectorsCommonDataFormats\l/DetID.h">
<polygon fill="none" stroke="black" points="314,-113 314,-143 470,-143 470,-113 314,-113"/>
<text text-anchor="start" x="322" y="-131" font-family="Helvetica,sans-Serif" font-size="10.00">DetectorsCommonDataFormats</text>
<text text-anchor="middle" x="392" y="-120" font-family="Helvetica,sans-Serif" font-size="10.00">/DetID.h</text>
</a>
</g>
</g>
<!-- Node3&#45;&gt;Node4 -->
<g id="edge3" class="edge"><title>Node3&#45;&gt;Node4</title>
<path fill="none" stroke="midnightblue" d="M887.902,-249.164C785.276,-224.297 570.106,-172.158 460.027,-145.484"/>
<polygon fill="midnightblue" stroke="midnightblue" points="460.575,-142.015 450.032,-143.062 458.926,-148.819 460.575,-142.015"/>
</g>
<!-- Node5 -->
<g id="node5" class="node"><title>Node5</title>
<polygon fill="none" stroke="#bfbfbf" points="1275,-56.5 1275,-75.5 1331,-75.5 1331,-56.5 1275,-56.5"/>
<text text-anchor="middle" x="1303" y="-63.5" font-family="Helvetica,sans-Serif" font-size="10.00">Rtypes.h</text>
</g>
<!-- Node3&#45;&gt;Node5 -->
<g id="edge36" class="edge"><title>Node3&#45;&gt;Node5</title>
<path fill="none" stroke="midnightblue" d="M1002.16,-249.583C1005.14,-249.016 1008.1,-248.484 1011,-248 1084.63,-235.707 1282.5,-252.831 1345,-212 1384.94,-185.908 1408.19,-153.115 1384,-112 1374.52,-95.8897 1356.96,-85.1333 1340.61,-78.1896"/>
<polygon fill="midnightblue" stroke="midnightblue" points="1341.78,-74.8892 1331.19,-74.5302 1339.24,-81.4141 1341.78,-74.8892"/>
</g>
<!-- Node14 -->
<g id="node14" class="node"><title>Node14</title>
<polygon fill="none" stroke="#bfbfbf" points="973.5,-186.5 973.5,-205.5 1074.5,-205.5 1074.5,-186.5 973.5,-186.5"/>
<text text-anchor="middle" x="1024" y="-193.5" font-family="Helvetica,sans-Serif" font-size="10.00">FairGenericStack.h</text>
</g>
<!-- Node3&#45;&gt;Node14 -->
<g id="edge14" class="edge"><title>Node3&#45;&gt;Node14</title>
<path fill="none" stroke="midnightblue" d="M962.142,-248.679C974.947,-237.981 992.428,-223.377 1005.54,-212.422"/>
<polygon fill="midnightblue" stroke="midnightblue" points="1008,-214.926 1013.43,-205.828 1003.51,-209.554 1008,-214.926"/>
</g>
<!-- Node15 -->
<g id="node15" class="node"><title>Node15</title>
<g id="a_node15"><a xlink:href="../../d2/de2/MCTrack_8h.html" target="_top" xlink:title="Definition of the MCTrack class. ">
<polygon fill="none" stroke="black" points="803,-181 803,-211 917,-211 917,-181 803,-181"/>
<text text-anchor="start" x="811" y="-199" font-family="Helvetica,sans-Serif" font-size="10.00">SimulationDataFormat</text>
<text text-anchor="middle" x="860" y="-188" font-family="Helvetica,sans-Serif" font-size="10.00">/MCTrack.h</text>
</a>
</g>
</g>
<!-- Node3&#45;&gt;Node15 -->
<g id="edge15" class="edge"><title>Node3&#45;&gt;Node15</title>
<path fill="none" stroke="midnightblue" d="M926.556,-248.679C914.781,-239.536 899.331,-227.54 886.282,-217.407"/>
<polygon fill="midnightblue" stroke="midnightblue" points="888.161,-214.435 878.116,-211.066 883.868,-219.964 888.161,-214.435"/>
</g>
<!-- Node20 -->
<g id="node20" class="node"><title>Node20</title>
<polygon fill="none" stroke="#bfbfbf" points="1039,-118.5 1039,-137.5 1103,-137.5 1103,-118.5 1039,-118.5"/>
<text text-anchor="middle" x="1071" y="-125.5" font-family="Helvetica,sans-Serif" font-size="10.00">TParticle.h</text>
</g>
<!-- Node3&#45;&gt;Node20 -->
<g id="edge37" class="edge"><title>Node3&#45;&gt;Node20</title>
<path fill="none" stroke="midnightblue" d="M944.654,-248.777C944.954,-230.845 948.009,-199.957 964,-180 973.842,-167.718 1010.12,-151.905 1037.74,-141.165"/>
<polygon fill="midnightblue" stroke="midnightblue" points="1038.99,-144.432 1047.08,-137.593 1036.49,-137.894 1038.99,-144.432"/>
</g>
<!-- Node23 -->
<g id="node23" class="node"><title>Node23</title>
<g id="a_node23"><a xlink:href="../../db/d14/MCTruthContainer_8h.html" target="_top" xlink:title="Definition of a container to keep Monte Carlo truth external to simulation objects. ">
<polygon fill="none" stroke="black" points="152,-113 152,-143 266,-143 266,-113 152,-113"/>
<text text-anchor="start" x="160" y="-131" font-family="Helvetica,sans-Serif" font-size="10.00">SimulationDataFormat</text>
<text text-anchor="middle" x="209" y="-120" font-family="Helvetica,sans-Serif" font-size="10.00">/MCTruthContainer.h</text>
</a>
</g>
</g>
<!-- Node3&#45;&gt;Node23 -->
<g id="edge25" class="edge"><title>Node3&#45;&gt;Node23</title>
<path fill="none" stroke="midnightblue" d="M887.687,-249.805C884.416,-249.165 881.17,-248.558 878,-248 754.866,-226.32 722.247,-233.03 599,-212 485.041,-192.554 353.795,-163.158 276.313,-145.069"/>
<polygon fill="midnightblue" stroke="midnightblue" points="276.743,-141.575 266.209,-142.703 275.147,-148.39 276.743,-141.575"/>
</g>
<!-- Node27 -->
<g id="node27" class="node"><title>Node27</title>
<g id="a_node27"><a xlink:href="../../d5/dbe/TrackReference_8h.html" target="_top" xlink:title="SimulationDataFormat\l/TrackReference.h">
<polygon fill="none" stroke="black" points="1093,-181 1093,-211 1207,-211 1207,-181 1093,-181"/>
<text text-anchor="start" x="1101" y="-199" font-family="Helvetica,sans-Serif" font-size="10.00">SimulationDataFormat</text>
<text text-anchor="middle" x="1150" y="-188" font-family="Helvetica,sans-Serif" font-size="10.00">/TrackReference.h</text>
</a>
</g>
</g>
<!-- Node3&#45;&gt;Node27 -->
<g id="edge31" class="edge"><title>Node3&#45;&gt;Node27</title>
<path fill="none" stroke="midnightblue" d="M988.726,-248.922C1020.3,-238.757 1063.11,-224.975 1096.69,-214.164"/>
<polygon fill="midnightblue" stroke="midnightblue" points="1097.89,-217.452 1106.34,-211.056 1095.75,-210.789 1097.89,-217.452"/>
</g>
<!-- Node30 -->
<g id="node30" class="node"><title>Node30</title>
<polygon fill="none" stroke="#bfbfbf" points="1643.5,-186.5 1643.5,-205.5 1678.5,-205.5 1678.5,-186.5 1643.5,-186.5"/>
<text text-anchor="middle" x="1661" y="-193.5" font-family="Helvetica,sans-Serif" font-size="10.00">map</text>
</g>
<!-- Node3&#45;&gt;Node30 -->
<g id="edge38" class="edge"><title>Node3&#45;&gt;Node30</title>
<path fill="none" stroke="midnightblue" d="M1002.13,-249.407C1005.12,-248.886 1008.09,-248.412 1011,-248 1285.61,-209.133 1367.64,-289.29 1634,-212 1635.7,-211.507 1637.41,-210.892 1639.1,-210.194"/>
<polygon fill="midnightblue" stroke="midnightblue" points="1640.96,-213.177 1648.34,-205.573 1637.83,-206.917 1640.96,-213.177"/>
</g>
<!-- Node31 -->
<g id="node31" class="node"><title>Node31</title>
<polygon fill="none" stroke="#bfbfbf" points="1225,-186.5 1225,-205.5 1277,-205.5 1277,-186.5 1225,-186.5"/>
<text text-anchor="middle" x="1251" y="-193.5" font-family="Helvetica,sans-Serif" font-size="10.00">memory</text>
</g>
<!-- Node3&#45;&gt;Node31 -->
<g id="edge39" class="edge"><title>Node3&#45;&gt;Node31</title>
<path fill="none" stroke="midnightblue" d="M1002.2,-249.817C1005.17,-249.189 1008.12,-248.58 1011,-248 1101.69,-229.744 1127.34,-238.396 1216,-212 1218.49,-211.257 1221.05,-210.388 1223.59,-209.449"/>
<polygon fill="midnightblue" stroke="midnightblue" points="1225.16,-212.587 1233.13,-205.6 1222.55,-206.096 1225.16,-212.587"/>
</g>
<!-- Node32 -->
<g id="node32" class="node"><title>Node32</title>
<polygon fill="none" stroke="#bfbfbf" points="1295.5,-186.5 1295.5,-205.5 1336.5,-205.5 1336.5,-186.5 1295.5,-186.5"/>
<text text-anchor="middle" x="1316" y="-193.5" font-family="Helvetica,sans-Serif" font-size="10.00">stack</text>
</g>
<!-- Node3&#45;&gt;Node32 -->
<g id="edge40" class="edge"><title>Node3&#45;&gt;Node32</title>
<path fill="none" stroke="midnightblue" d="M1002.17,-249.663C1005.15,-249.076 1008.11,-248.517 1011,-248 1132.34,-226.317 1168.13,-248.063 1286,-212 1287.92,-211.412 1289.87,-210.71 1291.8,-209.936"/>
<polygon fill="midnightblue" stroke="midnightblue" points="1293.52,-213.001 1301.15,-205.651 1290.6,-206.638 1293.52,-213.001"/>
</g>
<!-- Node33 -->
<g id="node33" class="node"><title>Node33</title>
<polygon fill="none" stroke="#bfbfbf" points="745,-186.5 745,-205.5 785,-205.5 785,-186.5 745,-186.5"/>
<text text-anchor="middle" x="765" y="-193.5" font-family="Helvetica,sans-Serif" font-size="10.00">utility</text>
</g>
<!-- Node3&#45;&gt;Node33 -->
<g id="edge41" class="edge"><title>Node3&#45;&gt;Node33</title>
<path fill="none" stroke="midnightblue" d="M897.381,-248.954C867.308,-239.587 827.874,-226.383 794,-212 792.598,-211.405 791.17,-210.769 789.739,-210.108"/>
<polygon fill="midnightblue" stroke="midnightblue" points="790.963,-206.81 780.445,-205.538 787.874,-213.092 790.963,-206.81"/>
</g>
<!-- Node4&#45;&gt;Node5 -->
<g id="edge4" class="edge"><title>Node4&#45;&gt;Node5</title>
<path fill="none" stroke="midnightblue" d="M470.219,-113.664C474.875,-113.052 479.495,-112.49 484,-112 783.619,-79.4372 1147.6,-69.959 1264.74,-67.652"/>
<polygon fill="midnightblue" stroke="midnightblue" points="1265.05,-71.1469 1274.98,-67.4564 1264.92,-64.1481 1265.05,-71.1469"/>
</g>
<!-- Node6 -->
<g id="node6" class="node"><title>Node6</title>
<polygon fill="none" stroke="#bfbfbf" points="525,-0.5 525,-19.5 563,-19.5 563,-0.5 525,-0.5"/>
<text text-anchor="middle" x="544" y="-7.5" font-family="Helvetica,sans-Serif" font-size="10.00">array</text>
</g>
<!-- Node4&#45;&gt;Node6 -->
<g id="edge5" class="edge"><title>Node4&#45;&gt;Node6</title>
<path fill="none" stroke="midnightblue" d="M470.006,-114.003C493.006,-106.5 516.214,-94.6652 532,-76 542.759,-63.2786 545.174,-44.0798 545.249,-29.8425"/>
<polygon fill="midnightblue" stroke="midnightblue" points="548.743,-29.5887 544.922,-19.7068 541.746,-29.8145 548.743,-29.5887"/>
</g>
<!-- Node7 -->
<g id="node7" class="node"><title>Node7</title>
<polygon fill="none" stroke="#bfbfbf" points="579.5,-56.5 579.5,-75.5 620.5,-75.5 620.5,-56.5 579.5,-56.5"/>
<text text-anchor="middle" x="600" y="-63.5" font-family="Helvetica,sans-Serif" font-size="10.00">bitset</text>
</g>
<!-- Node4&#45;&gt;Node7 -->
<g id="edge6" class="edge"><title>Node4&#45;&gt;Node7</title>
<path fill="none" stroke="midnightblue" d="M440.767,-112.933C480.594,-101.444 535.646,-85.5636 569.482,-75.8033"/>
<polygon fill="midnightblue" stroke="midnightblue" points="570.623,-79.1169 579.261,-72.9823 568.683,-72.3911 570.623,-79.1169"/>
</g>
<!-- Node8 -->
<g id="node8" class="node"><title>Node8</title>
<polygon fill="none" stroke="#bfbfbf" points="301.5,-56.5 301.5,-75.5 350.5,-75.5 350.5,-56.5 301.5,-56.5"/>
<text text-anchor="middle" x="326" y="-63.5" font-family="Helvetica,sans-Serif" font-size="10.00">cassert</text>
</g>
<!-- Node4&#45;&gt;Node8 -->
<g id="edge7" class="edge"><title>Node4&#45;&gt;Node8</title>
<path fill="none" stroke="midnightblue" d="M376.359,-112.781C366.373,-103.703 353.422,-91.9291 343.155,-82.5951"/>
<polygon fill="midnightblue" stroke="midnightblue" points="345.357,-79.8675 335.604,-75.7305 340.649,-85.0471 345.357,-79.8675"/>
</g>
<!-- Node9 -->
<g id="node9" class="node"><title>Node9</title>
<polygon fill="none" stroke="#bfbfbf" points="369,-56.5 369,-75.5 415,-75.5 415,-56.5 369,-56.5"/>
<text text-anchor="middle" x="392" y="-63.5" font-family="Helvetica,sans-Serif" font-size="10.00">cstdint</text>
</g>
<!-- Node4&#45;&gt;Node9 -->
<g id="edge8" class="edge"><title>Node4&#45;&gt;Node9</title>
<path fill="none" stroke="midnightblue" d="M392,-112.781C392,-104.781 392,-94.6887 392,-86.0168"/>
<polygon fill="midnightblue" stroke="midnightblue" points="395.5,-85.7305 392,-75.7305 388.5,-85.7306 395.5,-85.7305"/>
</g>
<!-- Node10 -->
<g id="node10" class="node"><title>Node10</title>
<polygon fill="none" stroke="#bfbfbf" points="221,-56.5 221,-75.5 283,-75.5 283,-56.5 221,-56.5"/>
<text text-anchor="middle" x="252" y="-63.5" font-family="Helvetica,sans-Serif" font-size="10.00">type_traits</text>
</g>
<!-- Node4&#45;&gt;Node10 -->
<g id="edge9" class="edge"><title>Node4&#45;&gt;Node10</title>
<path fill="none" stroke="midnightblue" d="M359.176,-112.933C335.662,-102.855 304.263,-89.3986 281.534,-79.6575"/>
<polygon fill="midnightblue" stroke="midnightblue" points="282.637,-76.3223 272.067,-75.6 279.879,-82.7563 282.637,-76.3223"/>
</g>
<!-- Node11 -->
<g id="node11" class="node"><title>Node11</title>
<g id="a_node11"><a xlink:href="../../d9/d52/Common_2MathUtils_2include_2MathUtils_2Utils_8h.html" target="_top" xlink:title="MathUtils/Utils.h">
<polygon fill="none" stroke="black" points="433,-56.5 433,-75.5 523,-75.5 523,-56.5 433,-56.5"/>
<text text-anchor="middle" x="478" y="-63.5" font-family="Helvetica,sans-Serif" font-size="10.00">MathUtils/Utils.h</text>
</a>
</g>
</g>
<!-- Node4&#45;&gt;Node11 -->
<g id="edge10" class="edge"><title>Node4&#45;&gt;Node11</title>
<path fill="none" stroke="midnightblue" d="M412.381,-112.781C425.99,-103.286 443.824,-90.8434 457.465,-81.3267"/>
<polygon fill="midnightblue" stroke="midnightblue" points="459.538,-84.148 465.737,-75.5557 455.533,-78.4071 459.538,-84.148"/>
</g>
<!-- Node11&#45;&gt;Node6 -->
<g id="edge11" class="edge"><title>Node11&#45;&gt;Node6</title>
<path fill="none" stroke="midnightblue" d="M488.604,-56.324C498.456,-48.2631 513.351,-36.0765 525.215,-26.3695"/>
<polygon fill="midnightblue" stroke="midnightblue" points="527.68,-28.8752 533.203,-19.8339 523.247,-23.4575 527.68,-28.8752"/>
</g>
<!-- Node12 -->
<g id="node12" class="node"><title>Node12</title>
<polygon fill="none" stroke="#bfbfbf" points="460,-0.5 460,-19.5 504,-19.5 504,-0.5 460,-0.5"/>
<text text-anchor="middle" x="482" y="-7.5" font-family="Helvetica,sans-Serif" font-size="10.00">cmath</text>
</g>
<!-- Node11&#45;&gt;Node12 -->
<g id="edge12" class="edge"><title>Node11&#45;&gt;Node12</title>
<path fill="none" stroke="midnightblue" d="M478.661,-56.083C479.185,-49.0059 479.936,-38.8611 480.594,-29.9865"/>
<polygon fill="midnightblue" stroke="midnightblue" points="484.103,-29.9823 481.352,-19.7511 477.123,-29.4652 484.103,-29.9823"/>
</g>
<!-- Node13 -->
<g id="node13" class="node"><title>Node13</title>
<g id="a_node13"><a xlink:href="../../d6/d84/MathConstants_8h.html" target="_top" xlink:title="useful math constants ">
<polygon fill="none" stroke="black" points="262.5,-0.5 262.5,-19.5 441.5,-19.5 441.5,-0.5 262.5,-0.5"/>
<text text-anchor="middle" x="352" y="-7.5" font-family="Helvetica,sans-Serif" font-size="10.00">CommonConstants/MathConstants.h</text>
</a>
</g>
</g>
<!-- Node11&#45;&gt;Node13 -->
<g id="edge13" class="edge"><title>Node11&#45;&gt;Node13</title>
<path fill="none" stroke="midnightblue" d="M458.035,-56.4435C437.391,-47.5961 404.937,-33.6875 381.368,-23.5865"/>
<polygon fill="midnightblue" stroke="midnightblue" points="382.442,-20.2387 371.872,-19.5164 379.684,-26.6727 382.442,-20.2387"/>
</g>
<!-- Node15&#45;&gt;Node4 -->
<g id="edge16" class="edge"><title>Node15&#45;&gt;Node4</title>
<path fill="none" stroke="midnightblue" d="M802.838,-181.612C799.855,-181.038 796.896,-180.496 794,-180 657.285,-156.596 621.373,-163.165 484,-144 482.738,-143.824 481.466,-143.644 480.187,-143.462"/>
<polygon fill="midnightblue" stroke="midnightblue" points="480.661,-139.994 470.26,-142.011 479.648,-146.921 480.661,-139.994"/>
</g>
<!-- Node15&#45;&gt;Node5 -->
<g id="edge17" class="edge"><title>Node15&#45;&gt;Node5</title>
<path fill="none" stroke="midnightblue" d="M802.83,-181.66C799.849,-181.073 796.892,-180.515 794,-180 669.2,-157.759 429.962,-204.164 517,-112 542.919,-84.5549 1109.59,-70.9637 1264.28,-67.7563"/>
<polygon fill="midnightblue" stroke="midnightblue" points="1264.77,-71.2472 1274.7,-67.5433 1264.63,-64.2487 1264.77,-71.2472"/>
</g>
<!-- Node16 -->
<g id="node16" class="node"><title>Node16</title>
<polygon fill="none" stroke="#bfbfbf" points="609.5,-118.5 609.5,-137.5 704.5,-137.5 704.5,-118.5 609.5,-118.5"/>
<text text-anchor="middle" x="657" y="-125.5" font-family="Helvetica,sans-Serif" font-size="10.00">TDatabasePDG.h</text>
</g>
<!-- Node15&#45;&gt;Node16 -->
<g id="edge18" class="edge"><title>Node15&#45;&gt;Node16</title>
<path fill="none" stroke="midnightblue" d="M816.451,-180.841C779.658,-168.879 727.585,-151.949 693.083,-140.731"/>
<polygon fill="midnightblue" stroke="midnightblue" points="694.003,-137.35 683.411,-137.587 691.839,-144.007 694.003,-137.35"/>
</g>
<!-- Node17 -->
<g id="node17" class="node"><title>Node17</title>
<polygon fill="none" stroke="#bfbfbf" points="723,-118.5 723,-137.5 815,-137.5 815,-118.5 723,-118.5"/>
<text text-anchor="middle" x="769" y="-125.5" font-family="Helvetica,sans-Serif" font-size="10.00">TLorentzVector.h</text>
</g>
<!-- Node15&#45;&gt;Node17 -->
<g id="edge19" class="edge"><title>Node15&#45;&gt;Node17</title>
<path fill="none" stroke="midnightblue" d="M840.254,-180.679C825.135,-169.713 804.359,-154.645 789.142,-143.609"/>
<polygon fill="midnightblue" stroke="midnightblue" points="791.06,-140.676 780.91,-137.638 786.95,-146.342 791.06,-140.676"/>
</g>
<!-- Node18 -->
<g id="node18" class="node"><title>Node18</title>
<polygon fill="none" stroke="#bfbfbf" points="833.5,-118.5 833.5,-137.5 916.5,-137.5 916.5,-118.5 833.5,-118.5"/>
<text text-anchor="middle" x="875" y="-125.5" font-family="Helvetica,sans-Serif" font-size="10.00">TMCProcess.h</text>
</g>
<!-- Node15&#45;&gt;Node18 -->
<g id="edge20" class="edge"><title>Node15&#45;&gt;Node18</title>
<path fill="none" stroke="midnightblue" d="M863.255,-180.679C865.455,-170.999 868.381,-158.123 870.763,-147.645"/>
<polygon fill="midnightblue" stroke="midnightblue" points="874.19,-148.355 872.994,-137.828 867.364,-146.804 874.19,-148.355"/>
</g>
<!-- Node19 -->
<g id="node19" class="node"><title>Node19</title>
<polygon fill="none" stroke="#bfbfbf" points="1121.5,-118.5 1121.5,-137.5 1174.5,-137.5 1174.5,-118.5 1121.5,-118.5"/>
<text text-anchor="middle" x="1148" y="-125.5" font-family="Helvetica,sans-Serif" font-size="10.00">TMath.h</text>
</g>
<!-- Node15&#45;&gt;Node19 -->
<g id="edge21" class="edge"><title>Node15&#45;&gt;Node19</title>
<path fill="none" stroke="midnightblue" d="M917.086,-186.711C968.684,-178.452 1046.38,-164.1 1112,-144 1114.58,-143.209 1117.23,-142.301 1119.87,-141.331"/>
<polygon fill="midnightblue" stroke="midnightblue" points="1121.18,-144.575 1129.2,-137.647 1118.61,-138.064 1121.18,-144.575"/>
</g>
<!-- Node15&#45;&gt;Node20 -->
<g id="edge22" class="edge"><title>Node15&#45;&gt;Node20</title>
<path fill="none" stroke="midnightblue" d="M909.712,-180.929C943.738,-171.092 989.797,-157.372 1030,-144 1032.76,-143.081 1035.62,-142.099 1038.49,-141.095"/>
<polygon fill="midnightblue" stroke="midnightblue" points="1039.87,-144.318 1048.1,-137.65 1037.5,-137.729 1039.87,-144.318"/>
</g>
<!-- Node21 -->
<g id="node21" class="node"><title>Node21</title>
<polygon fill="none" stroke="#bfbfbf" points="935,-118.5 935,-137.5 1021,-137.5 1021,-118.5 935,-118.5"/>
<text text-anchor="middle" x="978" y="-125.5" font-family="Helvetica,sans-Serif" font-size="10.00">TParticlePDG.h</text>
</g>
<!-- Node15&#45;&gt;Node21 -->
<g id="edge23" class="edge"><title>Node15&#45;&gt;Node21</title>
<path fill="none" stroke="midnightblue" d="M885.314,-180.841C905.541,-169.528 933.713,-153.771 953.675,-142.605"/>
<polygon fill="midnightblue" stroke="midnightblue" points="955.459,-145.618 962.478,-137.682 952.042,-139.509 955.459,-145.618"/>
</g>
<!-- Node22 -->
<g id="node22" class="node"><title>Node22</title>
<polygon fill="none" stroke="#bfbfbf" points="526.5,-118.5 526.5,-137.5 591.5,-137.5 591.5,-118.5 526.5,-118.5"/>
<text text-anchor="middle" x="559" y="-125.5" font-family="Helvetica,sans-Serif" font-size="10.00">TVector3.h</text>
</g>
<!-- Node15&#45;&gt;Node22 -->
<g id="edge24" class="edge"><title>Node15&#45;&gt;Node22</title>
<path fill="none" stroke="midnightblue" d="M802.793,-181.851C799.822,-181.214 796.877,-180.594 794,-180 708.115,-162.279 684.584,-167.146 600,-144 596.783,-143.12 593.461,-142.099 590.165,-141.012"/>
<polygon fill="midnightblue" stroke="midnightblue" points="591.079,-137.624 580.485,-137.627 588.769,-144.232 591.079,-137.624"/>
</g>
<!-- Node23&#45;&gt;Node8 -->
<g id="edge27" class="edge"><title>Node23&#45;&gt;Node8</title>
<path fill="none" stroke="midnightblue" d="M236.431,-112.933C255.73,-103.036 281.383,-89.8803 300.289,-80.1852"/>
<polygon fill="midnightblue" stroke="midnightblue" points="301.929,-83.2776 309.23,-75.6 298.735,-77.0489 301.929,-83.2776"/>
</g>
<!-- Node23&#45;&gt;Node10 -->
<g id="edge30" class="edge"><title>Node23&#45;&gt;Node10</title>
<path fill="none" stroke="midnightblue" d="M219.19,-112.781C225.374,-104.152 233.303,-93.0882 239.818,-83.9987"/>
<polygon fill="midnightblue" stroke="midnightblue" points="242.763,-85.8976 245.743,-75.7305 237.073,-81.8199 242.763,-85.8976"/>
</g>
<!-- Node24 -->
<g id="node24" class="node"><title>Node24</title>
<polygon fill="none" stroke="#bfbfbf" points="0,-56.5 0,-75.5 62,-75.5 62,-56.5 0,-56.5"/>
<text text-anchor="middle" x="31" y="-63.5" font-family="Helvetica,sans-Serif" font-size="10.00">TNamed.h</text>
</g>
<!-- Node23&#45;&gt;Node24 -->
<g id="edge26" class="edge"><title>Node23&#45;&gt;Node24</title>
<path fill="none" stroke="midnightblue" d="M167.267,-112.933C136.474,-102.553 95.0466,-88.5887 65.9817,-78.7916"/>
<polygon fill="midnightblue" stroke="midnightblue" points="66.8485,-75.3903 56.2543,-75.5127 64.6125,-82.0236 66.8485,-75.3903"/>
</g>
<!-- Node25 -->
<g id="node25" class="node"><title>Node25</title>
<polygon fill="none" stroke="#bfbfbf" points="80.5,-56.5 80.5,-75.5 139.5,-75.5 139.5,-56.5 80.5,-56.5"/>
<text text-anchor="middle" x="110" y="-63.5" font-family="Helvetica,sans-Serif" font-size="10.00">stdexcept</text>
</g>
<!-- Node23&#45;&gt;Node25 -->
<g id="edge28" class="edge"><title>Node23&#45;&gt;Node25</title>
<path fill="none" stroke="midnightblue" d="M185.789,-112.933C169.832,-103.262 148.741,-90.4793 132.86,-80.8546"/>
<polygon fill="midnightblue" stroke="midnightblue" points="134.556,-77.7899 124.19,-75.6 130.928,-83.7763 134.556,-77.7899"/>
</g>
<!-- Node26 -->
<g id="node26" class="node"><title>Node26</title>
<polygon fill="none" stroke="#bfbfbf" points="157.5,-56.5 157.5,-75.5 202.5,-75.5 202.5,-56.5 157.5,-56.5"/>
<text text-anchor="middle" x="180" y="-63.5" font-family="Helvetica,sans-Serif" font-size="10.00">gsl/gsl</text>
</g>
<!-- Node23&#45;&gt;Node26 -->
<g id="edge29" class="edge"><title>Node23&#45;&gt;Node26</title>
<path fill="none" stroke="midnightblue" d="M202.127,-112.781C198.087,-104.422 192.942,-93.7773 188.631,-84.8565"/>
<polygon fill="midnightblue" stroke="midnightblue" points="191.723,-83.2109 184.22,-75.7305 185.42,-86.2571 191.723,-83.2109"/>
</g>
<!-- Node27&#45;&gt;Node5 -->
<g id="edge34" class="edge"><title>Node27&#45;&gt;Node5</title>
<path fill="none" stroke="midnightblue" d="M1159.94,-180.733C1172.78,-163.035 1196.52,-132.674 1222,-112 1237.87,-99.1206 1257.94,-87.9405 1274.13,-79.9456"/>
<polygon fill="midnightblue" stroke="midnightblue" points="1275.66,-83.098 1283.16,-75.6177 1272.63,-76.7864 1275.66,-83.098"/>
</g>
<!-- Node27&#45;&gt;Node19 -->
<g id="edge35" class="edge"><title>Node27&#45;&gt;Node19</title>
<path fill="none" stroke="midnightblue" d="M1149.57,-180.679C1149.28,-171.101 1148.89,-158.394 1148.58,-147.977"/>
<polygon fill="midnightblue" stroke="midnightblue" points="1152.07,-147.718 1148.27,-137.828 1145.07,-147.93 1152.07,-147.718"/>
</g>
<!-- Node28 -->
<g id="node28" class="node"><title>Node28</title>
<polygon fill="none" stroke="#bfbfbf" points="1231,-118.5 1231,-137.5 1305,-137.5 1305,-118.5 1231,-118.5"/>
<text text-anchor="middle" x="1268" y="-125.5" font-family="Helvetica,sans-Serif" font-size="10.00">TVirtualMC.h</text>
</g>
<!-- Node27&#45;&gt;Node28 -->
<g id="edge32" class="edge"><title>Node27&#45;&gt;Node28</title>
<path fill="none" stroke="midnightblue" d="M1175.31,-180.841C1195.54,-169.528 1223.71,-153.771 1243.68,-142.605"/>
<polygon fill="midnightblue" stroke="midnightblue" points="1245.46,-145.618 1252.48,-137.682 1242.04,-139.509 1245.46,-145.618"/>
</g>
<!-- Node29 -->
<g id="node29" class="node"><title>Node29</title>
<polygon fill="none" stroke="#bfbfbf" points="1323,-118.5 1323,-137.5 1375,-137.5 1375,-118.5 1323,-118.5"/>
<text text-anchor="middle" x="1349" y="-125.5" font-family="Helvetica,sans-Serif" font-size="10.00">ostream</text>
</g>
<!-- Node27&#45;&gt;Node29 -->
<g id="edge33" class="edge"><title>Node27&#45;&gt;Node29</title>
<path fill="none" stroke="midnightblue" d="M1199.97,-180.921C1232.69,-171.345 1276.23,-157.923 1314,-144 1316.12,-143.22 1318.29,-142.381 1320.47,-141.513"/>
<polygon fill="midnightblue" stroke="midnightblue" points="1321.99,-144.673 1329.89,-137.614 1319.31,-138.205 1321.99,-144.673"/>
</g>
<!-- Node40&#45;&gt;Node5 -->
<g id="edge50" class="edge"><title>Node40&#45;&gt;Node5</title>
<path fill="none" stroke="midnightblue" d="M1634.6,-254.406C1574.98,-241.285 1468.01,-217.224 1461,-212 1419.79,-181.312 1441.15,-146.417 1403,-112 1385.26,-95.999 1360.89,-84.8732 1340.65,-77.6873"/>
<polygon fill="midnightblue" stroke="midnightblue" points="1341.69,-74.343 1331.09,-74.4721 1339.45,-80.9777 1341.69,-74.343"/>
</g>
<!-- Node41 -->
<g id="node41" class="node"><title>Node41</title>
<polygon fill="none" stroke="#bfbfbf" points="1469.5,-186.5 1469.5,-205.5 1548.5,-205.5 1548.5,-186.5 1469.5,-186.5"/>
<text text-anchor="middle" x="1509" y="-193.5" font-family="Helvetica,sans-Serif" font-size="10.00">FairDetector.h</text>
</g>
<!-- Node40&#45;&gt;Node41 -->
<g id="edge49" class="edge"><title>Node40&#45;&gt;Node41</title>
<path fill="none" stroke="midnightblue" d="M1652.43,-254.372C1623.69,-242.877 1572.67,-222.469 1539.87,-209.346"/>
<polygon fill="midnightblue" stroke="midnightblue" points="1540.9,-205.99 1530.31,-205.526 1538.3,-212.49 1540.9,-205.99"/>
</g>
<!-- Node42 -->
<g id="node42" class="node"><title>Node42</title>
<polygon fill="none" stroke="#bfbfbf" points="1566.5,-186.5 1566.5,-205.5 1625.5,-205.5 1625.5,-186.5 1566.5,-186.5"/>
<text text-anchor="middle" x="1596" y="-193.5" font-family="Helvetica,sans-Serif" font-size="10.00">functional</text>
</g>
<!-- Node40&#45;&gt;Node42 -->
<g id="edge51" class="edge"><title>Node40&#45;&gt;Node42</title>
<path fill="none" stroke="midnightblue" d="M1663.8,-254.372C1651.26,-243.758 1629.74,-225.545 1614.3,-212.485"/>
<polygon fill="midnightblue" stroke="midnightblue" points="1616.34,-209.629 1606.45,-205.841 1611.82,-214.972 1616.34,-209.629"/>
</g>
<!-- Node43 -->
<g id="node43" class="node"><title>Node43</title>
<polygon fill="none" stroke="#bfbfbf" points="1697,-186.5 1697,-205.5 1741,-205.5 1741,-186.5 1697,-186.5"/>
<text text-anchor="middle" x="1719" y="-193.5" font-family="Helvetica,sans-Serif" font-size="10.00">vector</text>
</g>
<!-- Node40&#45;&gt;Node43 -->
<g id="edge52" class="edge"><title>Node40&#45;&gt;Node43</title>
<path fill="none" stroke="midnightblue" d="M1679.88,-254.372C1686.78,-244.25 1698.4,-227.215 1707.18,-214.331"/>
<polygon fill="midnightblue" stroke="midnightblue" points="1710.23,-216.075 1712.97,-205.841 1704.45,-212.132 1710.23,-216.075"/>
</g>
<!-- Node44&#45;&gt;Node5 -->
<g id="edge54" class="edge"><title>Node44&#45;&gt;Node5</title>
<path fill="none" stroke="midnightblue" d="M1830.65,-254.276C1812.11,-235.089 1767.69,-190.126 1749,-180 1610.71,-105.07 1421.29,-78.5543 1341.21,-70.3057"/>
<polygon fill="midnightblue" stroke="midnightblue" points="1341.4,-66.8071 1331.1,-69.3024 1340.71,-73.7729 1341.4,-66.8071"/>
</g>
<!-- Node44&#45;&gt;Node30 -->
<g id="edge55" class="edge"><title>Node44&#45;&gt;Node30</title>
<path fill="none" stroke="midnightblue" d="M1808.3,-254.418C1777.35,-245.352 1728.49,-229.907 1688,-212 1686.81,-211.475 1685.61,-210.916 1684.4,-210.333"/>
<polygon fill="midnightblue" stroke="midnightblue" points="1685.81,-207.119 1675.33,-205.591 1682.57,-213.323 1685.81,-207.119"/>
</g>
<!-- Node45 -->
<g id="node45" class="node"><title>Node45</title>
<polygon fill="none" stroke="#bfbfbf" points="1797.5,-186.5 1797.5,-205.5 1880.5,-205.5 1880.5,-186.5 1797.5,-186.5"/>
<text text-anchor="middle" x="1839" y="-193.5" font-family="Helvetica,sans-Serif" font-size="10.00">unordered_map</text>
</g>
<!-- Node44&#45;&gt;Node45 -->
<g id="edge56" class="edge"><title>Node44&#45;&gt;Node45</title>
<path fill="none" stroke="midnightblue" d="M1839,-254.372C1839,-244.643 1839,-228.528 1839,-215.85"/>
<polygon fill="midnightblue" stroke="midnightblue" points="1842.5,-215.841 1839,-205.841 1835.5,-215.841 1842.5,-215.841"/>
</g>
<!-- Node46 -->
<g id="node46" class="node"><title>Node46</title>
<polygon fill="none" stroke="#bfbfbf" points="1898.5,-186.5 1898.5,-205.5 1971.5,-205.5 1971.5,-186.5 1898.5,-186.5"/>
<text text-anchor="middle" x="1935" y="-193.5" font-family="Helvetica,sans-Serif" font-size="10.00">initializer_list</text>
</g>
<!-- Node44&#45;&gt;Node46 -->
<g id="edge57" class="edge"><title>Node44&#45;&gt;Node46</title>
<path fill="none" stroke="midnightblue" d="M1851.55,-254.372C1867.43,-243.452 1895.02,-224.489 1914.1,-211.369"/>
<polygon fill="midnightblue" stroke="midnightblue" points="1916.19,-214.18 1922.45,-205.63 1912.22,-208.412 1916.19,-214.18"/>
</g>
<!-- Node48 -->
<g id="node48" class="node"><title>Node48</title>
<g id="a_node48"><a xlink:href="../../d1/ddc/commonConfig_8C.html" target="_top" xlink:title="commonConfig.C">
<polygon fill="none" stroke="black" points="1989.5,-186.5 1989.5,-205.5 2082.5,-205.5 2082.5,-186.5 1989.5,-186.5"/>
<text text-anchor="middle" x="2036" y="-193.5" font-family="Helvetica,sans-Serif" font-size="10.00">commonConfig.C</text>
</a>
</g>
</g>
<!-- Node47&#45;&gt;Node48 -->
<g id="edge59" class="edge"><title>Node47&#45;&gt;Node48</title>
<path fill="none" stroke="midnightblue" d="M1984.71,-254.372C1993.94,-244.053 2009.58,-226.551 2021.17,-213.585"/>
<polygon fill="midnightblue" stroke="midnightblue" points="2024.04,-215.629 2028.1,-205.841 2018.82,-210.964 2024.04,-215.629"/>
</g>
</g>
</svg>
        <g id="navigator" transform="translate(0 0)" fill="#404254">
                <rect fill="#f2f5e9" fill-opacity="0.5" stroke="#606060" stroke-width=".5" x="0" y="0" width="60" height="60"/>
                <use id="zoomplus" xlink:href="#zoomPlus" x="17" y="9" onmousedown="handleZoom(evt,'in')"/>
                <use id="zoomminus" xlink:href="#zoomMin" x="42" y="9" onmousedown="handleZoom(evt,'out')"/>
                <use id="reset" xlink:href="#resetDef" x="30" y="36" onmousedown="handleReset()"/>
                <g id="arrowUp" xlink:href="#dirArrow" transform="translate(30 24)" onmousedown="handlePan(0,-1)">
                  <use xlink:href="#rim" fill="#404040">
                        <set attributeName="fill" to="#808080" begin="arrowUp.mouseover" end="arrowUp.mouseout"/>
                  </use>
                  <path fill="none" stroke="white" stroke-width="1.5" d="M0,-3.0v7 M-2.5,-0.5L0,-3.0L2.5,-0.5"/>
                </g>
                <g id="arrowRight" xlink:href="#dirArrow" transform="rotate(90) translate(36 -43)" onmousedown="handlePan(1,0)">
                  <use xlink:href="#rim" fill="#404040">
                        <set attributeName="fill" to="#808080" begin="arrowRight.mouseover" end="arrowRight.mouseout"/>
                  </use>
                  <path fill="none" stroke="white" stroke-width="1.5" d="M0,-3.0v7 M-2.5,-0.5L0,-3.0L2.5,-0.5"/>
                </g>
                <g id="arrowDown" xlink:href="#dirArrow" transform="rotate(180) translate(-30 -48)" onmousedown="handlePan(0,1)">
                  <use xlink:href="#rim" fill="#404040">
                        <set attributeName="fill" to="#808080" begin="arrowDown.mouseover" end="arrowDown.mouseout"/>
                  </use>
                  <path fill="none" stroke="white" stroke-width="1.5" d="M0,-3.0v7 M-2.5,-0.5L0,-3.0L2.5,-0.5"/>
                </g>
                <g id="arrowLeft" xlink:href="#dirArrow" transform="rotate(270) translate(-36 17)" onmousedown="handlePan(-1,0)">
                  <use xlink:href="#rim" fill="#404040">
                        <set attributeName="fill" to="#808080" begin="arrowLeft.mouseover" end="arrowLeft.mouseout"/>
                  </use>
                  <path fill="none" stroke="white" stroke-width="1.5" d="M0,-3.0v7 M-2.5,-0.5L0,-3.0L2.5,-0.5"/>
                </g>
        </g>
        <svg viewBox="0 0 15 15" width="100%" height="30px" preserveAspectRatio="xMaxYMin meet">
         <g id="arrow_out" transform="scale(0.3 0.3)">
          <a xlink:href="G4Config_8cxx__incl_org.svg" target="_base">
           <rect id="button" ry="5" rx="5" y="6" x="6" height="38" width="38"
                fill="#f2f5e9" fill-opacity="0.5" stroke="#606060" stroke-width="1.0"/>
           <path id="arrow"
             d="M 11.500037,31.436501 C 11.940474,20.09759 22.043105,11.32322 32.158766,21.979434 L 37.068811,17.246167 C 37.068811,17.246167 37.088388,32 37.088388,32 L 22.160133,31.978069 C 22.160133,31.978069 26.997745,27.140456 26.997745,27.140456 C 18.528582,18.264221 13.291696,25.230495 11.500037,31.436501 z"
             style="fill:#404040;"/>
          </a>
         </g>
        </svg>
</svg>
