<?xml version="1.0" encoding="UTF-8" standalone="no"?>
<!DOCTYPE svg PUBLIC "-//W3C//DTD SVG 1.1//EN"
 "http://www.w3.org/Graphics/SVG/1.1/DTD/svg11.dtd">
<!-- Generated by graphviz version 2.36.0 (20140111.2315)
 -->
<!-- Title: /home/travis/build/AliceO2Group/AliceO2/Utilities/MCStepLogger/src/analyseMCSteps.cxx Pages: 1 -->
<!--zoomable 354 -->
<svg id="main" version="1.1" xmlns="http://www.w3.org/2000/svg" xmlns:xlink="http://www.w3.org/1999/xlink" xml:space="preserve" onload="init(evt)">
<style type="text/css"><![CDATA[
.edge:hover path { stroke: red; }
.edge:hover polygon { stroke: red; fill: red; }
]]></style>
<script type="text/javascript"><![CDATA[
var edges = document.getElementsByTagName('g');
if (edges && edges.length) {
  for (var i=0;i<edges.length;i++) {
    if (edges[i].id.substr(0,4)=='edge') {
      edges[i].setAttribute('class','edge');
    }
  }
}
]]></script>
        <defs>
                <circle id="rim" cx="0" cy="0" r="7"/>
                <circle id="rim2" cx="0" cy="0" r="3.5"/>
                <g id="zoomPlus">
                        <use xlink:href="#rim" fill="#404040">
                                <set attributeName="fill" to="#808080" begin="zoomplus.mouseover" end="zoomplus.mouseout"/>
                        </use>
                        <path d="M-4,0h8M0,-4v8" fill="none" stroke="white" stroke-width="1.5" pointer-events="none"/>
                </g>
                <g id="zoomMin">
                        <use xlink:href="#rim" fill="#404040">
                                <set attributeName="fill" to="#808080" begin="zoomminus.mouseover" end="zoomminus.mouseout"/>
                        </use>
                        <path d="M-4,0h8" fill="none" stroke="white" stroke-width="1.5" pointer-events="none"/>
                </g>
                <g id="dirArrow">
                        <path fill="none" stroke="white" stroke-width="1.5" d="M0,-3.0v7 M-2.5,-0.5L0,-3.0L2.5,-0.5"/>
                </g>
               <g id="resetDef">
                       <use xlink:href="#rim2" fill="#404040">
                               <set attributeName="fill" to="#808080" begin="reset.mouseover" end="reset.mouseout"/>
                       </use>
               </g>
        </defs>

<script type="text/javascript">
var viewWidth = 1264;
var viewHeight = 354;
var sectionId = 'dynsection-0';
</script>
<script xlink:href="../../svgpan.js"/>
<svg id="graph" class="graph">
<g id="viewport">
<title>/home/travis/build/AliceO2Group/AliceO2/Utilities/MCStepLogger/src/analyseMCSteps.cxx</title>
<!-- Node1 -->
<g id="node1" class="node"><title>Node1</title>
<polygon fill="#bfbfbf" stroke="black" points="341.144,-293 341.144,-345 471.144,-345 471.144,-293 341.144,-293"/>
<text text-anchor="start" x="349.144" y="-333" font-family="Helvetica,sans-Serif" font-size="10.00">/home/travis/build</text>
<text text-anchor="start" x="349.144" y="-322" font-family="Helvetica,sans-Serif" font-size="10.00">/AliceO2Group/AliceO2</text>
<text text-anchor="start" x="349.144" y="-311" font-family="Helvetica,sans-Serif" font-size="10.00">/Utilities/MCStepLogger</text>
<text text-anchor="middle" x="406.144" y="-300" font-family="Helvetica,sans-Serif" font-size="10.00">/src/analyseMCSteps.cxx</text>
</g>
<!-- Node2 -->
<g id="node2" class="node"><title>Node2</title>
<polygon fill="none" stroke="#bfbfbf" points="718.144,-0.5 718.144,-19.5 772.144,-19.5 772.144,-0.5 718.144,-0.5"/>
<text text-anchor="middle" x="745.144" y="-7.5" font-family="Helvetica,sans-Serif" font-size="10.00">iostream</text>
</g>
<!-- Node1&#45;&gt;Node2 -->
<g id="edge1" class="edge"><title>Node1&#45;&gt;Node2</title>
<path fill="none" stroke="midnightblue" d="M341.092,-311.724C258.555,-302.735 121.901,-284.112 80.144,-256 51.6124,-236.792 38.144,-225.395 38.144,-191 38.144,-191 38.144,-191 38.144,-127 38.144,-73.9321 84.3625,-74.3849 134.144,-56 240.307,-16.7926 529.325,-28.9259 642.144,-20 663.986,-18.2719 688.416,-16.1457 708,-14.3938"/>
<polygon fill="midnightblue" stroke="midnightblue" points="708.4,-17.872 718.046,-13.49 707.773,-10.9002 708.4,-17.872"/>
</g>
<!-- Node3 -->
<g id="node3" class="node"><title>Node3</title>
<polygon fill="none" stroke="#bfbfbf" points="592.644,-0.5 592.644,-19.5 633.644,-19.5 633.644,-0.5 592.644,-0.5"/>
<text text-anchor="middle" x="613.144" y="-7.5" font-family="Helvetica,sans-Serif" font-size="10.00">string</text>
</g>
<!-- Node1&#45;&gt;Node3 -->
<g id="edge2" class="edge"><title>Node1&#45;&gt;Node3</title>
<path fill="none" stroke="midnightblue" d="M341.066,-315.219C244.979,-309.85 71.4021,-294.924 24.144,-256 0.373614,-236.422 0.143958,-221.795 0.143958,-191 0.143958,-191 0.143958,-191 0.143958,-127 0.143958,-93.6904 -2.15936,-76.4369 24.144,-56 68.4208,-21.5982 466.896,-13.1332 582.088,-11.3967"/>
<polygon fill="midnightblue" stroke="midnightblue" points="582.381,-14.8929 592.33,-11.249 582.28,-7.89361 582.381,-14.8929"/>
</g>
<!-- Node4 -->
<g id="node4" class="node"><title>Node4</title>
<polygon fill="none" stroke="#bfbfbf" points="871.144,-0.5 871.144,-19.5 915.144,-19.5 915.144,-0.5 871.144,-0.5"/>
<text text-anchor="middle" x="893.144" y="-7.5" font-family="Helvetica,sans-Serif" font-size="10.00">vector</text>
</g>
<!-- Node1&#45;&gt;Node4 -->
<g id="edge3" class="edge"><title>Node1&#45;&gt;Node4</title>
<path fill="none" stroke="midnightblue" d="M471.157,-312.84C520.358,-306.182 587.529,-290.931 636.144,-256 698.61,-211.117 670.533,-158.05 732.144,-112 775.382,-79.6823 804.624,-107.937 848.144,-76 864.866,-63.7282 877.527,-43.2933 885.095,-28.6098"/>
<polygon fill="midnightblue" stroke="midnightblue" points="888.282,-30.058 889.507,-19.5342 881.987,-26.9973 888.282,-30.058"/>
</g>
<!-- Node5 -->
<g id="node5" class="node"><title>Node5</title>
<polygon fill="none" stroke="#bfbfbf" points="104.644,-236.5 104.644,-255.5 163.644,-255.5 163.644,-236.5 104.644,-236.5"/>
<text text-anchor="middle" x="134.144" y="-243.5" font-family="Helvetica,sans-Serif" font-size="10.00">functional</text>
</g>
<!-- Node1&#45;&gt;Node5 -->
<g id="edge4" class="edge"><title>Node1&#45;&gt;Node5</title>
<path fill="none" stroke="midnightblue" d="M340.993,-300.994C288.794,-287.368 217.275,-268.7 173.467,-257.264"/>
<polygon fill="midnightblue" stroke="midnightblue" points="174.316,-253.869 163.756,-254.73 172.548,-260.642 174.316,-253.869"/>
</g>
<!-- Node6 -->
<g id="node6" class="node"><title>Node6</title>
<polygon fill="none" stroke="#bfbfbf" points="182.144,-236.5 182.144,-255.5 316.144,-255.5 316.144,-236.5 182.144,-236.5"/>
<text text-anchor="middle" x="249.144" y="-243.5" font-family="Helvetica,sans-Serif" font-size="10.00">boost/program_options.hpp</text>
</g>
<!-- Node1&#45;&gt;Node6 -->
<g id="edge5" class="edge"><title>Node1&#45;&gt;Node6</title>
<path fill="none" stroke="midnightblue" d="M350.792,-292.968C326.058,-281.783 297.958,-269.075 277.581,-259.86"/>
<polygon fill="midnightblue" stroke="midnightblue" points="278.801,-256.57 268.247,-255.639 275.916,-262.949 278.801,-256.57"/>
</g>
<!-- Node7 -->
<g id="node7" class="node"><title>Node7</title>
<polygon fill="none" stroke="#bfbfbf" points="334.644,-236.5 334.644,-255.5 393.644,-255.5 393.644,-236.5 334.644,-236.5"/>
<text text-anchor="middle" x="364.144" y="-243.5" font-family="Helvetica,sans-Serif" font-size="10.00">TROOT.h</text>
</g>
<!-- Node1&#45;&gt;Node7 -->
<g id="edge6" class="edge"><title>Node1&#45;&gt;Node7</title>
<path fill="none" stroke="midnightblue" d="M391.218,-292.768C385.668,-283.385 379.498,-272.955 374.451,-264.425"/>
<polygon fill="midnightblue" stroke="midnightblue" points="377.428,-262.582 369.324,-255.757 371.403,-266.146 377.428,-262.582"/>
</g>
<!-- Node8 -->
<g id="node8" class="node"><title>Node8</title>
<polygon fill="none" stroke="#bfbfbf" points="411.644,-236.5 411.644,-255.5 486.644,-255.5 486.644,-236.5 411.644,-236.5"/>
<text text-anchor="middle" x="449.144" y="-243.5" font-family="Helvetica,sans-Serif" font-size="10.00">TInterpreter.h</text>
</g>
<!-- Node1&#45;&gt;Node8 -->
<g id="edge7" class="edge"><title>Node1&#45;&gt;Node8</title>
<path fill="none" stroke="midnightblue" d="M421.425,-292.768C427.108,-283.385 433.425,-272.955 438.591,-264.425"/>
<polygon fill="midnightblue" stroke="midnightblue" points="441.654,-266.124 443.84,-255.757 435.666,-262.498 441.654,-266.124"/>
</g>
<!-- Node9 -->
<g id="node9" class="node"><title>Node9</title>
<polygon fill="none" stroke="#bfbfbf" points="505.144,-236.5 505.144,-255.5 609.144,-255.5 609.144,-236.5 505.144,-236.5"/>
<text text-anchor="middle" x="557.144" y="-243.5" font-family="Helvetica,sans-Serif" font-size="10.00">TSystemDirectory.h</text>
</g>
<!-- Node1&#45;&gt;Node9 -->
<g id="edge8" class="edge"><title>Node1&#45;&gt;Node9</title>
<path fill="none" stroke="midnightblue" d="M459.381,-292.968C483.061,-281.834 509.95,-269.191 529.526,-259.986"/>
<polygon fill="midnightblue" stroke="midnightblue" points="531.211,-263.061 538.771,-255.639 528.232,-256.727 531.211,-263.061"/>
</g>
<!-- Node10 -->
<g id="node10" class="node"><title>Node10</title>
<polygon fill="none" stroke="#bfbfbf" points="143.644,-56.5 143.644,-75.5 214.644,-75.5 214.644,-56.5 143.644,-56.5"/>
<text text-anchor="middle" x="179.144" y="-63.5" font-family="Helvetica,sans-Serif" font-size="10.00">FairLogger.h</text>
</g>
<!-- Node1&#45;&gt;Node10 -->
<g id="edge9" class="edge"><title>Node1&#45;&gt;Node10</title>
<path fill="none" stroke="midnightblue" d="M340.915,-314.442C259.043,-308.454 125.61,-293.139 95.144,-256 49.8355,-200.767 125.685,-117.232 161.74,-82.7448"/>
<polygon fill="midnightblue" stroke="midnightblue" points="164.257,-85.183 169.168,-75.7951 159.474,-80.0715 164.257,-85.183"/>
</g>
<!-- Node11 -->
<g id="node11" class="node"><title>Node11</title>
<g id="a_node11"><a xlink:href="../../d2/de5/MCAnalysisManager_8h.html" target="_top" xlink:title="MCStepLogger/MCAnalysisManager.h">
<polygon fill="none" stroke="black" points="741.144,-118.5 741.144,-137.5 925.144,-137.5 925.144,-118.5 741.144,-118.5"/>
<text text-anchor="middle" x="833.144" y="-125.5" font-family="Helvetica,sans-Serif" font-size="10.00">MCStepLogger/MCAnalysisManager.h</text>
</a>
</g>
</g>
<!-- Node1&#45;&gt;Node11 -->
<g id="edge10" class="edge"><title>Node1&#45;&gt;Node11</title>
<path fill="none" stroke="midnightblue" d="M471.221,-313.427C530.793,-307.056 619.941,-291.899 689.144,-256 733.543,-232.968 734.504,-212.938 772.144,-180 786.187,-167.711 802.41,-154.179 814.593,-144.144"/>
<polygon fill="midnightblue" stroke="midnightblue" points="817.152,-146.571 822.662,-137.522 812.711,-141.16 817.152,-146.571"/>
</g>
<!-- Node17 -->
<g id="node17" class="node"><title>Node17</title>
<g id="a_node17"><a xlink:href="../../d2/dd4/MCAnalysisFileWrapper_8h.html" target="_top" xlink:title="MCStepLogger/MCAnalysisFile\lWrapper.h">
<polygon fill="none" stroke="black" points="455.144,-113 455.144,-143 609.144,-143 609.144,-113 455.144,-113"/>
<text text-anchor="start" x="463.144" y="-131" font-family="Helvetica,sans-Serif" font-size="10.00">MCStepLogger/MCAnalysisFile</text>
<text text-anchor="middle" x="532.144" y="-120" font-family="Helvetica,sans-Serif" font-size="10.00">Wrapper.h</text>
</a>
</g>
</g>
<!-- Node1&#45;&gt;Node17 -->
<g id="edge23" class="edge"><title>Node1&#45;&gt;Node17</title>
<path fill="none" stroke="midnightblue" d="M471.318,-307.669C526.84,-297.38 600.379,-279.705 618.144,-256 645.673,-219.266 597.128,-174.415 562.481,-149.037"/>
<polygon fill="midnightblue" stroke="midnightblue" points="564.204,-145.967 554.027,-143.021 560.146,-151.67 564.204,-145.967"/>
</g>
<!-- Node22 -->
<g id="node22" class="node"><title>Node22</title>
<g id="a_node22"><a xlink:href="../../d0/dc7/BasicMCAnalysis_8h.html" target="_top" xlink:title="MCStepLogger/BasicMCAnalysis.h">
<polygon fill="none" stroke="black" points="741.644,-236.5 741.644,-255.5 912.644,-255.5 912.644,-236.5 741.644,-236.5"/>
<text text-anchor="middle" x="827.144" y="-243.5" font-family="Helvetica,sans-Serif" font-size="10.00">MCStepLogger/BasicMCAnalysis.h</text>
</a>
</g>
</g>
<!-- Node1&#45;&gt;Node22 -->
<g id="edge32" class="edge"><title>Node1&#45;&gt;Node22</title>
<path fill="none" stroke="midnightblue" d="M471.463,-306.984C552.031,-293.397 687.921,-270.479 766.349,-257.253"/>
<polygon fill="midnightblue" stroke="midnightblue" points="767.276,-260.646 776.555,-255.532 766.112,-253.743 767.276,-260.646"/>
</g>
<!-- Node11&#45;&gt;Node3 -->
<g id="edge11" class="edge"><title>Node11&#45;&gt;Node3</title>
<path fill="none" stroke="midnightblue" d="M781.924,-118.471C748.154,-111.114 704.064,-98.0811 670.144,-76 650.952,-63.5064 634.389,-42.8157 624.139,-28.137"/>
<polygon fill="midnightblue" stroke="midnightblue" points="626.827,-25.8617 618.351,-19.5058 621.014,-29.7605 626.827,-25.8617"/>
</g>
<!-- Node11&#45;&gt;Node4 -->
<g id="edge12" class="edge"><title>Node11&#45;&gt;Node4</title>
<path fill="none" stroke="midnightblue" d="M848.7,-118.396C862.644,-109.722 882.232,-94.9237 891.144,-76 897.909,-61.6366 897.845,-43.4396 896.413,-29.9549"/>
<polygon fill="midnightblue" stroke="midnightblue" points="899.862,-29.3419 895.009,-19.9237 892.929,-30.3124 899.862,-29.3419"/>
</g>
<!-- Node12 -->
<g id="node12" class="node"><title>Node12</title>
<g id="a_node12"><a xlink:href="../../d1/d5f/StepInfo_8h.html" target="_top" xlink:title="MCStepLogger/StepInfo.h">
<polygon fill="none" stroke="black" points="981.144,-56.5 981.144,-75.5 1111.14,-75.5 1111.14,-56.5 981.144,-56.5"/>
<text text-anchor="middle" x="1046.14" y="-63.5" font-family="Helvetica,sans-Serif" font-size="10.00">MCStepLogger/StepInfo.h</text>
</a>
</g>
</g>
<!-- Node11&#45;&gt;Node12 -->
<g id="edge13" class="edge"><title>Node11&#45;&gt;Node12</title>
<path fill="none" stroke="midnightblue" d="M863.662,-118.403C901.069,-107.866 964.571,-89.9783 1005.93,-78.3276"/>
<polygon fill="midnightblue" stroke="midnightblue" points="1007.01,-81.6609 1015.68,-75.5806 1005.11,-74.9232 1007.01,-81.6609"/>
</g>
<!-- Node16 -->
<g id="node16" class="node"><title>Node16</title>
<g id="a_node16"><a xlink:href="../../d1/dd7/MetaInfo_8h.html" target="_top" xlink:title="MCStepLogger/MetaInfo.h">
<polygon fill="none" stroke="black" points="679.644,-56.5 679.644,-75.5 810.644,-75.5 810.644,-56.5 679.644,-56.5"/>
<text text-anchor="middle" x="745.144" y="-63.5" font-family="Helvetica,sans-Serif" font-size="10.00">MCStepLogger/MetaInfo.h</text>
</a>
</g>
</g>
<!-- Node11&#45;&gt;Node16 -->
<g id="edge19" class="edge"><title>Node11&#45;&gt;Node16</title>
<path fill="none" stroke="midnightblue" d="M820.536,-118.403C806.421,-108.78 783.313,-93.0242 766.395,-81.4891"/>
<polygon fill="midnightblue" stroke="midnightblue" points="767.963,-78.3222 757.729,-75.5806 764.019,-84.1058 767.963,-78.3222"/>
</g>
<!-- Node12&#45;&gt;Node2 -->
<g id="edge16" class="edge"><title>Node12&#45;&gt;Node2</title>
<path fill="none" stroke="midnightblue" d="M998.45,-56.4435C938.493,-45.6871 836.837,-27.45 782.318,-17.669"/>
<polygon fill="midnightblue" stroke="midnightblue" points="782.849,-14.2085 772.388,-15.8876 781.612,-21.0985 782.849,-14.2085"/>
</g>
<!-- Node12&#45;&gt;Node4 -->
<g id="edge18" class="edge"><title>Node12&#45;&gt;Node4</title>
<path fill="none" stroke="midnightblue" d="M1021.9,-56.4435C995.67,-47.1858 953.739,-32.3866 924.896,-22.2066"/>
<polygon fill="midnightblue" stroke="midnightblue" points="925.882,-18.8429 915.287,-18.8151 923.552,-25.4438 925.882,-18.8429"/>
</g>
<!-- Node13 -->
<g id="node13" class="node"><title>Node13</title>
<polygon fill="none" stroke="#bfbfbf" points="949.144,-0.5 949.144,-19.5 1005.14,-19.5 1005.14,-0.5 949.144,-0.5"/>
<text text-anchor="middle" x="977.144" y="-7.5" font-family="Helvetica,sans-Serif" font-size="10.00">Rtypes.h</text>
</g>
<!-- Node12&#45;&gt;Node13 -->
<g id="edge14" class="edge"><title>Node12&#45;&gt;Node13</title>
<path fill="none" stroke="midnightblue" d="M1035.06,-56.324C1024.66,-48.1849 1008.88,-35.8395 996.422,-26.0874"/>
<polygon fill="midnightblue" stroke="midnightblue" points="998.464,-23.2407 988.432,-19.8339 994.15,-28.7533 998.464,-23.2407"/>
</g>
<!-- Node14 -->
<g id="node14" class="node"><title>Node14</title>
<polygon fill="none" stroke="#bfbfbf" points="1023.14,-0.5 1023.14,-19.5 1069.14,-19.5 1069.14,-0.5 1023.14,-0.5"/>
<text text-anchor="middle" x="1046.14" y="-7.5" font-family="Helvetica,sans-Serif" font-size="10.00">chrono</text>
</g>
<!-- Node12&#45;&gt;Node14 -->
<g id="edge15" class="edge"><title>Node12&#45;&gt;Node14</title>
<path fill="none" stroke="midnightblue" d="M1046.14,-56.083C1046.14,-49.0059 1046.14,-38.8611 1046.14,-29.9865"/>
<polygon fill="midnightblue" stroke="midnightblue" points="1049.64,-29.751 1046.14,-19.7511 1042.64,-29.7511 1049.64,-29.751"/>
</g>
<!-- Node15 -->
<g id="node15" class="node"><title>Node15</title>
<polygon fill="none" stroke="#bfbfbf" points="1087.64,-0.5 1087.64,-19.5 1122.64,-19.5 1122.64,-0.5 1087.64,-0.5"/>
<text text-anchor="middle" x="1105.14" y="-7.5" font-family="Helvetica,sans-Serif" font-size="10.00">map</text>
</g>
<!-- Node12&#45;&gt;Node15 -->
<g id="edge17" class="edge"><title>Node12&#45;&gt;Node15</title>
<path fill="none" stroke="midnightblue" d="M1055.62,-56.324C1064.35,-48.3414 1077.49,-36.3128 1088.04,-26.6529"/>
<polygon fill="midnightblue" stroke="midnightblue" points="1090.48,-29.1674 1095.49,-19.8339 1085.75,-24.0036 1090.48,-29.1674"/>
</g>
<!-- Node16&#45;&gt;Node2 -->
<g id="edge22" class="edge"><title>Node16&#45;&gt;Node2</title>
<path fill="none" stroke="midnightblue" d="M745.144,-56.083C745.144,-49.0059 745.144,-38.8611 745.144,-29.9865"/>
<polygon fill="midnightblue" stroke="midnightblue" points="748.644,-29.751 745.144,-19.7511 741.644,-29.7511 748.644,-29.751"/>
</g>
<!-- Node16&#45;&gt;Node3 -->
<g id="edge20" class="edge"><title>Node16&#45;&gt;Node3</title>
<path fill="none" stroke="midnightblue" d="M724.228,-56.4435C702.408,-47.5171 667.994,-33.4387 643.252,-23.3168"/>
<polygon fill="midnightblue" stroke="midnightblue" points="644.543,-20.0634 633.962,-19.5164 641.892,-26.5422 644.543,-20.0634"/>
</g>
<!-- Node16&#45;&gt;Node4 -->
<g id="edge21" class="edge"><title>Node16&#45;&gt;Node4</title>
<path fill="none" stroke="midnightblue" d="M768.595,-56.4435C793.567,-47.3322 833.25,-32.8531 861.097,-22.6929"/>
<polygon fill="midnightblue" stroke="midnightblue" points="862.577,-25.8786 870.771,-19.1629 860.178,-19.3027 862.577,-25.8786"/>
</g>
<!-- Node17&#45;&gt;Node3 -->
<g id="edge24" class="edge"><title>Node17&#45;&gt;Node3</title>
<path fill="none" stroke="midnightblue" d="M455.086,-122.984C386.058,-116.532 300.988,-99.7307 338.144,-56 369.226,-19.4181 517.377,-12.5107 582.414,-11.2538"/>
<polygon fill="midnightblue" stroke="midnightblue" points="582.526,-14.7526 592.468,-11.0923 582.413,-7.75346 582.526,-14.7526"/>
</g>
<!-- Node17&#45;&gt;Node4 -->
<g id="edge25" class="edge"><title>Node17&#45;&gt;Node4</title>
<path fill="none" stroke="midnightblue" d="M609.256,-118.05C681.276,-108.84 782.944,-93.4108 819.144,-76 843.328,-64.3684 865.671,-42.5701 879.341,-27.4415"/>
<polygon fill="midnightblue" stroke="midnightblue" points="882.05,-29.6607 886,-19.8298 876.782,-25.0516 882.05,-29.6607"/>
</g>
<!-- Node17&#45;&gt;Node10 -->
<g id="edge27" class="edge"><title>Node17&#45;&gt;Node10</title>
<path fill="none" stroke="midnightblue" d="M455.113,-113.907C384.879,-101.969 283.444,-84.7281 225.118,-74.8143"/>
<polygon fill="midnightblue" stroke="midnightblue" points="225.54,-71.3359 215.095,-73.1106 224.367,-78.2369 225.54,-71.3359"/>
</g>
<!-- Node17&#45;&gt;Node16 -->
<g id="edge28" class="edge"><title>Node17&#45;&gt;Node16</title>
<path fill="none" stroke="midnightblue" d="M582.083,-112.933C619.574,-102.372 670.24,-88.0998 705.093,-78.282"/>
<polygon fill="midnightblue" stroke="midnightblue" points="706.247,-81.593 714.924,-75.5127 704.349,-74.8553 706.247,-81.593"/>
</g>
<!-- Node18 -->
<g id="node18" class="node"><title>Node18</title>
<polygon fill="none" stroke="#bfbfbf" points="347.144,-56.5 347.144,-75.5 399.144,-75.5 399.144,-56.5 347.144,-56.5"/>
<text text-anchor="middle" x="373.144" y="-63.5" font-family="Helvetica,sans-Serif" font-size="10.00">memory</text>
</g>
<!-- Node17&#45;&gt;Node18 -->
<g id="edge26" class="edge"><title>Node17&#45;&gt;Node18</title>
<path fill="none" stroke="midnightblue" d="M494.866,-112.933C467.681,-102.674 431.218,-88.9148 405.307,-79.1369"/>
<polygon fill="midnightblue" stroke="midnightblue" points="406.526,-75.8561 395.934,-75.6 404.054,-82.4053 406.526,-75.8561"/>
</g>
<!-- Node19 -->
<g id="node19" class="node"><title>Node19</title>
<polygon fill="none" stroke="#bfbfbf" points="417.144,-56.5 417.144,-75.5 461.144,-75.5 461.144,-56.5 417.144,-56.5"/>
<text text-anchor="middle" x="439.144" y="-63.5" font-family="Helvetica,sans-Serif" font-size="10.00">TH1.h</text>
</g>
<!-- Node17&#45;&gt;Node19 -->
<g id="edge29" class="edge"><title>Node17&#45;&gt;Node19</title>
<path fill="none" stroke="midnightblue" d="M510.104,-112.781C495.247,-103.196 475.734,-90.6062 460.93,-81.0555"/>
<polygon fill="midnightblue" stroke="midnightblue" points="462.706,-78.036 452.405,-75.5557 458.911,-83.9181 462.706,-78.036"/>
</g>
<!-- Node20 -->
<g id="node20" class="node"><title>Node20</title>
<polygon fill="none" stroke="#bfbfbf" points="479.144,-56.5 479.144,-75.5 523.144,-75.5 523.144,-56.5 479.144,-56.5"/>
<text text-anchor="middle" x="501.144" y="-63.5" font-family="Helvetica,sans-Serif" font-size="10.00">TH2.h</text>
</g>
<!-- Node17&#45;&gt;Node20 -->
<g id="edge30" class="edge"><title>Node17&#45;&gt;Node20</title>
<path fill="none" stroke="midnightblue" d="M524.797,-112.781C520.478,-104.422 514.979,-93.7773 510.37,-84.8565"/>
<polygon fill="midnightblue" stroke="midnightblue" points="513.354,-83.0082 505.655,-75.7305 507.135,-86.2214 513.354,-83.0082"/>
</g>
<!-- Node21 -->
<g id="node21" class="node"><title>Node21</title>
<polygon fill="none" stroke="#bfbfbf" points="541.144,-56.5 541.144,-75.5 585.144,-75.5 585.144,-56.5 541.144,-56.5"/>
<text text-anchor="middle" x="563.144" y="-63.5" font-family="Helvetica,sans-Serif" font-size="10.00">TH3.h</text>
</g>
<!-- Node17&#45;&gt;Node21 -->
<g id="edge31" class="edge"><title>Node17&#45;&gt;Node21</title>
<path fill="none" stroke="midnightblue" d="M539.491,-112.781C543.809,-104.422 549.309,-93.7773 553.918,-84.8565"/>
<polygon fill="midnightblue" stroke="midnightblue" points="557.152,-86.2214 558.633,-75.7305 550.933,-83.0082 557.152,-86.2214"/>
</g>
<!-- Node23 -->
<g id="node23" class="node"><title>Node23</title>
<polygon fill="none" stroke="#bfbfbf" points="781.644,-180.5 781.644,-199.5 864.644,-199.5 864.644,-180.5 781.644,-180.5"/>
<text text-anchor="middle" x="823.144" y="-187.5" font-family="Helvetica,sans-Serif" font-size="10.00">unordered_map</text>
</g>
<!-- Node22&#45;&gt;Node23 -->
<g id="edge33" class="edge"><title>Node22&#45;&gt;Node23</title>
<path fill="none" stroke="midnightblue" d="M826.483,-236.083C825.959,-229.006 825.208,-218.861 824.55,-209.986"/>
<polygon fill="midnightblue" stroke="midnightblue" points="828.021,-209.465 823.792,-199.751 821.041,-209.982 828.021,-209.465"/>
</g>
<!-- Node24 -->
<g id="node24" class="node"><title>Node24</title>
<g id="a_node24"><a xlink:href="../../d8/d8d/MCAnalysis_8h.html" target="_top" xlink:title="MCStepLogger/MCAnalysis.h">
<polygon fill="none" stroke="black" points="883.144,-180.5 883.144,-199.5 1029.14,-199.5 1029.14,-180.5 883.144,-180.5"/>
<text text-anchor="middle" x="956.144" y="-187.5" font-family="Helvetica,sans-Serif" font-size="10.00">MCStepLogger/MCAnalysis.h</text>
</a>
</g>
</g>
<!-- Node22&#45;&gt;Node24 -->
<g id="edge34" class="edge"><title>Node22&#45;&gt;Node24</title>
<path fill="none" stroke="midnightblue" d="M847.584,-236.444C868.814,-227.557 902.243,-213.563 926.399,-203.451"/>
<polygon fill="midnightblue" stroke="midnightblue" points="927.926,-206.606 935.799,-199.516 925.223,-200.149 927.926,-206.606"/>
</g>
<!-- Node24&#45;&gt;Node3 -->
<g id="edge35" class="edge"><title>Node24&#45;&gt;Node3</title>
<path fill="none" stroke="midnightblue" d="M898.775,-180.493C842.58,-171.622 761.275,-157.196 732.144,-144 686.8,-123.459 674.266,-114.851 643.144,-76 631.985,-62.0697 623.905,-43.3135 618.961,-29.5296"/>
<polygon fill="midnightblue" stroke="midnightblue" points="622.171,-28.0939 615.67,-19.7283 615.535,-30.3223 622.171,-28.0939"/>
</g>
<!-- Node24&#45;&gt;Node4 -->
<g id="edge36" class="edge"><title>Node24&#45;&gt;Node4</title>
<path fill="none" stroke="midnightblue" d="M953.999,-180.361C950.366,-166.018 942.571,-136.448 934.144,-112 923.95,-82.427 909.827,-48.9365 901.099,-28.9163"/>
<polygon fill="midnightblue" stroke="midnightblue" points="904.2,-27.2729 896.97,-19.5282 897.792,-30.0911 904.2,-27.2729"/>
</g>
<!-- Node24&#45;&gt;Node11 -->
<g id="edge41" class="edge"><title>Node24&#45;&gt;Node11</title>
<path fill="none" stroke="midnightblue" d="M938.521,-180.403C917.97,-170.379 883.78,-153.701 859.937,-142.07"/>
<polygon fill="midnightblue" stroke="midnightblue" points="861.256,-138.819 850.734,-137.581 858.187,-145.111 861.256,-138.819"/>
</g>
<!-- Node24&#45;&gt;Node12 -->
<g id="edge40" class="edge"><title>Node24&#45;&gt;Node12</title>
<path fill="none" stroke="midnightblue" d="M961.963,-180.328C971.677,-165.938 991.93,-136.302 1010.14,-112 1017.36,-102.374 1025.74,-91.8638 1032.6,-83.4231"/>
<polygon fill="midnightblue" stroke="midnightblue" points="1035.45,-85.4557 1039.08,-75.5001 1030.04,-81.0225 1035.45,-85.4557"/>
</g>
<!-- Node24&#45;&gt;Node17 -->
<g id="edge42" class="edge"><title>Node24&#45;&gt;Node17</title>
<path fill="none" stroke="midnightblue" d="M895.845,-180.467C823.638,-170.249 702.123,-153.054 619.606,-141.377"/>
<polygon fill="midnightblue" stroke="midnightblue" points="619.883,-137.881 609.491,-139.945 618.902,-144.812 619.883,-137.881"/>
</g>
<!-- Node25 -->
<g id="node25" class="node"><title>Node25</title>
<polygon fill="none" stroke="#bfbfbf" points="1019.64,-118.5 1019.64,-137.5 1078.64,-137.5 1078.64,-118.5 1019.64,-118.5"/>
<text text-anchor="middle" x="1049.14" y="-125.5" font-family="Helvetica,sans-Serif" font-size="10.00">TProfile.h</text>
</g>
<!-- Node24&#45;&gt;Node25 -->
<g id="edge37" class="edge"><title>Node24&#45;&gt;Node25</title>
<path fill="none" stroke="midnightblue" d="M969.469,-180.403C984.524,-170.691 1009.26,-154.732 1027.18,-143.17"/>
<polygon fill="midnightblue" stroke="midnightblue" points="1029.34,-145.943 1035.84,-137.581 1025.54,-140.061 1029.34,-145.943"/>
</g>
<!-- Node26 -->
<g id="node26" class="node"><title>Node26</title>
<polygon fill="none" stroke="#bfbfbf" points="1096.64,-118.5 1096.64,-137.5 1167.64,-137.5 1167.64,-118.5 1096.64,-118.5"/>
<text text-anchor="middle" x="1132.14" y="-125.5" font-family="Helvetica,sans-Serif" font-size="10.00">TProfile2D.h</text>
</g>
<!-- Node24&#45;&gt;Node26 -->
<g id="edge38" class="edge"><title>Node24&#45;&gt;Node26</title>
<path fill="none" stroke="midnightblue" d="M981.36,-180.403C1011.81,-170.022 1063.19,-152.506 1097.39,-140.849"/>
<polygon fill="midnightblue" stroke="midnightblue" points="1098.64,-144.12 1106.97,-137.581 1096.38,-137.495 1098.64,-144.12"/>
</g>
<!-- Node27 -->
<g id="node27" class="node"><title>Node27</title>
<polygon fill="none" stroke="#bfbfbf" points="1185.64,-118.5 1185.64,-137.5 1256.64,-137.5 1256.64,-118.5 1185.64,-118.5"/>
<text text-anchor="middle" x="1221.14" y="-125.5" font-family="Helvetica,sans-Serif" font-size="10.00">TProfile3D.h</text>
</g>
<!-- Node24&#45;&gt;Node27 -->
<g id="edge39" class="edge"><title>Node24&#45;&gt;Node27</title>
<path fill="none" stroke="midnightblue" d="M1006.79,-180.425C1051.64,-172.409 1118.72,-159.385 1176.14,-144 1179.78,-143.026 1183.55,-141.923 1187.29,-140.766"/>
<polygon fill="midnightblue" stroke="midnightblue" points="1188.57,-144.031 1197.02,-137.634 1186.43,-137.367 1188.57,-144.031"/>
</g>
</g>
</svg>
        <g id="navigator" transform="translate(0 0)" fill="#404254">
                <rect fill="#f2f5e9" fill-opacity="0.5" stroke="#606060" stroke-width=".5" x="0" y="0" width="60" height="60"/>
                <use id="zoomplus" xlink:href="#zoomPlus" x="17" y="9" onmousedown="handleZoom(evt,'in')"/>
                <use id="zoomminus" xlink:href="#zoomMin" x="42" y="9" onmousedown="handleZoom(evt,'out')"/>
                <use id="reset" xlink:href="#resetDef" x="30" y="36" onmousedown="handleReset()"/>
                <g id="arrowUp" xlink:href="#dirArrow" transform="translate(30 24)" onmousedown="handlePan(0,-1)">
                  <use xlink:href="#rim" fill="#404040">
                        <set attributeName="fill" to="#808080" begin="arrowUp.mouseover" end="arrowUp.mouseout"/>
                  </use>
                  <path fill="none" stroke="white" stroke-width="1.5" d="M0,-3.0v7 M-2.5,-0.5L0,-3.0L2.5,-0.5"/>
                </g>
                <g id="arrowRight" xlink:href="#dirArrow" transform="rotate(90) translate(36 -43)" onmousedown="handlePan(1,0)">
                  <use xlink:href="#rim" fill="#404040">
                        <set attributeName="fill" to="#808080" begin="arrowRight.mouseover" end="arrowRight.mouseout"/>
                  </use>
                  <path fill="none" stroke="white" stroke-width="1.5" d="M0,-3.0v7 M-2.5,-0.5L0,-3.0L2.5,-0.5"/>
                </g>
                <g id="arrowDown" xlink:href="#dirArrow" transform="rotate(180) translate(-30 -48)" onmousedown="handlePan(0,1)">
                  <use xlink:href="#rim" fill="#404040">
                        <set attributeName="fill" to="#808080" begin="arrowDown.mouseover" end="arrowDown.mouseout"/>
                  </use>
                  <path fill="none" stroke="white" stroke-width="1.5" d="M0,-3.0v7 M-2.5,-0.5L0,-3.0L2.5,-0.5"/>
                </g>
                <g id="arrowLeft" xlink:href="#dirArrow" transform="rotate(270) translate(-36 17)" onmousedown="handlePan(-1,0)">
                  <use xlink:href="#rim" fill="#404040">
                        <set attributeName="fill" to="#808080" begin="arrowLeft.mouseover" end="arrowLeft.mouseout"/>
                  </use>
                  <path fill="none" stroke="white" stroke-width="1.5" d="M0,-3.0v7 M-2.5,-0.5L0,-3.0L2.5,-0.5"/>
                </g>
        </g>
        <svg viewBox="0 0 15 15" width="100%" height="30px" preserveAspectRatio="xMaxYMin meet">
         <g id="arrow_out" transform="scale(0.3 0.3)">
          <a xlink:href="analyseMCSteps_8cxx__incl_org.svg" target="_base">
           <rect id="button" ry="5" rx="5" y="6" x="6" height="38" width="38"
                fill="#f2f5e9" fill-opacity="0.5" stroke="#606060" stroke-width="1.0"/>
           <path id="arrow"
             d="M 11.500037,31.436501 C 11.940474,20.09759 22.043105,11.32322 32.158766,21.979434 L 37.068811,17.246167 C 37.068811,17.246167 37.088388,32 37.088388,32 L 22.160133,31.978069 C 22.160133,31.978069 26.997745,27.140456 26.997745,27.140456 C 18.528582,18.264221 13.291696,25.230495 11.500037,31.436501 z"
             style="fill:#404040;"/>
          </a>
         </g>
        </svg>
</svg>
