<?xml version="1.0" encoding="UTF-8" standalone="no"?>
<!DOCTYPE svg PUBLIC "-//W3C//DTD SVG 1.1//EN"
 "http://www.w3.org/Graphics/SVG/1.1/DTD/svg11.dtd">
<!-- Generated by graphviz version 2.36.0 (20140111.2315)
 -->
<!-- Title: o2::ITS::CA::GPU::DeviceProperties Pages: 1 -->
<svg width="361pt" height="378pt"
 viewBox="0.00 0.00 361.00 378.00" xmlns="http://www.w3.org/2000/svg" xmlns:xlink="http://www.w3.org/1999/xlink">
<g id="graph0" class="graph" transform="scale(1 1) rotate(0) translate(4 374)">
<title>o2::ITS::CA::GPU::DeviceProperties</title>
<!-- Node1 -->
<g id="node1" class="node"><title>Node1</title>
<polygon fill="#bfbfbf" stroke="black" points="63,-1 63,-69 197,-69 197,-1 63,-1"/>
<text text-anchor="start" x="71" y="-57" font-family="Helvetica,sans-Serif" font-size="10.00">o2::ITS::CA::GPU::Device</text>
<text text-anchor="middle" x="130" y="-46" font-family="Helvetica,sans-Serif" font-size="10.00">Properties</text>
<polyline fill="none" stroke="black" points="63,-39 197,-39 "/>
<text text-anchor="middle" x="130" y="-27" font-family="Helvetica,sans-Serif" font-size="10.00"> </text>
<polyline fill="none" stroke="black" points="63,-20 197,-20 "/>
<text text-anchor="middle" x="130" y="-8" font-family="Helvetica,sans-Serif" font-size="10.00"> </text>
</g>
<!-- Node2 -->
<g id="node2" class="node"><title>Node2</title>
<g id="a_node2"><a xlink:href="../../d7/dcb/struct__dim3.html" target="_top" xlink:title="{_dim3\n||}">
<polygon fill="none" stroke="black" points="6.5,-184.5 6.5,-241.5 49.5,-241.5 49.5,-184.5 6.5,-184.5"/>
<text text-anchor="middle" x="28" y="-229.5" font-family="Helvetica,sans-Serif" font-size="10.00">_dim3</text>
<polyline fill="none" stroke="black" points="6.5,-222.5 49.5,-222.5 "/>
<text text-anchor="middle" x="28" y="-210.5" font-family="Helvetica,sans-Serif" font-size="10.00"> </text>
<polyline fill="none" stroke="black" points="6.5,-203.5 49.5,-203.5 "/>
<text text-anchor="middle" x="28" y="-191.5" font-family="Helvetica,sans-Serif" font-size="10.00"> </text>
</a>
</g>
</g>
<!-- Node2&#45;&gt;Node1 -->
<g id="edge1" class="edge"><title>Node2&#45;&gt;Node1</title>
<path fill="none" stroke="#404040" d="M25.9167,-184.293C25.272,-157.505 28.0368,-116.845 47,-88 49.4812,-84.2258 52.3412,-80.6751 55.4745,-77.3419"/>
<polygon fill="none" stroke="#404040" points="55.5862,-77.237 57.2225,-70.214 64.3347,-69.0234 62.6983,-76.0464 55.5862,-77.237"/>
<text text-anchor="middle" x="86.5" y="-130" font-family="Helvetica,sans-Serif" font-size="10.00"> +maxGridDim</text>
<text text-anchor="middle" x="86.5" y="-119" font-family="Helvetica,sans-Serif" font-size="10.00">+maxThreadsDim</text>
</g>
<!-- Node3 -->
<g id="node3" class="node"><title>Node3</title>
<polygon fill="none" stroke="#bfbfbf" points="0,-312.5 0,-369.5 56,-369.5 56,-312.5 0,-312.5"/>
<text text-anchor="middle" x="28" y="-357.5" font-family="Helvetica,sans-Serif" font-size="10.00">unsigned</text>
<polyline fill="none" stroke="#bfbfbf" points="0,-350.5 56,-350.5 "/>
<text text-anchor="middle" x="28" y="-338.5" font-family="Helvetica,sans-Serif" font-size="10.00"> </text>
<polyline fill="none" stroke="#bfbfbf" points="0,-331.5 56,-331.5 "/>
<text text-anchor="middle" x="28" y="-319.5" font-family="Helvetica,sans-Serif" font-size="10.00"> </text>
</g>
<!-- Node3&#45;&gt;Node2 -->
<g id="edge2" class="edge"><title>Node3&#45;&gt;Node2</title>
<path fill="none" stroke="#404040" d="M28,-312.349C28,-295.198 28,-272.879 28,-253.838"/>
<polygon fill="none" stroke="#404040" points="28.0001,-253.587 24,-247.587 28,-241.587 32,-247.587 28.0001,-253.587"/>
<text text-anchor="middle" x="35.5" y="-285.5" font-family="Helvetica,sans-Serif" font-size="10.00"> +x</text>
<text text-anchor="middle" x="35.5" y="-274.5" font-family="Helvetica,sans-Serif" font-size="10.00">+y</text>
<text text-anchor="middle" x="35.5" y="-263.5" font-family="Helvetica,sans-Serif" font-size="10.00">+z</text>
</g>
<!-- Node4 -->
<g id="node4" class="node"><title>Node4</title>
<polygon fill="none" stroke="#bfbfbf" points="115.5,-184.5 115.5,-241.5 144.5,-241.5 144.5,-184.5 115.5,-184.5"/>
<text text-anchor="middle" x="130" y="-229.5" font-family="Helvetica,sans-Serif" font-size="10.00">int</text>
<polyline fill="none" stroke="#bfbfbf" points="115.5,-222.5 144.5,-222.5 "/>
<text text-anchor="middle" x="130" y="-210.5" font-family="Helvetica,sans-Serif" font-size="10.00"> </text>
<polyline fill="none" stroke="#bfbfbf" points="115.5,-203.5 144.5,-203.5 "/>
<text text-anchor="middle" x="130" y="-191.5" font-family="Helvetica,sans-Serif" font-size="10.00"> </text>
</g>
<!-- Node4&#45;&gt;Node1 -->
<g id="edge3" class="edge"><title>Node4&#45;&gt;Node1</title>
<path fill="none" stroke="#404040" d="M130,-184.112C130,-156.559 130,-113.945 130,-81.4873"/>
<polygon fill="none" stroke="#404040" points="130,-81.1576 126,-75.1576 130,-69.1576 134,-75.1575 130,-81.1576"/>
<text text-anchor="middle" x="180" y="-157.5" font-family="Helvetica,sans-Serif" font-size="10.00"> +busWidth</text>
<text text-anchor="middle" x="180" y="-146.5" font-family="Helvetica,sans-Serif" font-size="10.00">+warpSize</text>
<text text-anchor="middle" x="180" y="-135.5" font-family="Helvetica,sans-Serif" font-size="10.00">+name</text>
<text text-anchor="middle" x="180" y="-124.5" font-family="Helvetica,sans-Serif" font-size="10.00">+cudaCores</text>
<text text-anchor="middle" x="180" y="-113.5" font-family="Helvetica,sans-Serif" font-size="10.00">+maxBlocksPerSM</text>
<text text-anchor="middle" x="180" y="-102.5" font-family="Helvetica,sans-Serif" font-size="10.00">+maxThreadsPerBlock</text>
<text text-anchor="middle" x="180" y="-91.5" font-family="Helvetica,sans-Serif" font-size="10.00">+gpuProcessors</text>
</g>
<!-- Node5 -->
<g id="node5" class="node"><title>Node5</title>
<polygon fill="none" stroke="#bfbfbf" points="235.5,-184.5 235.5,-241.5 270.5,-241.5 270.5,-184.5 235.5,-184.5"/>
<text text-anchor="middle" x="253" y="-229.5" font-family="Helvetica,sans-Serif" font-size="10.00">long</text>
<polyline fill="none" stroke="#bfbfbf" points="235.5,-222.5 270.5,-222.5 "/>
<text text-anchor="middle" x="253" y="-210.5" font-family="Helvetica,sans-Serif" font-size="10.00"> </text>
<polyline fill="none" stroke="#bfbfbf" points="235.5,-203.5 270.5,-203.5 "/>
<text text-anchor="middle" x="253" y="-191.5" font-family="Helvetica,sans-Serif" font-size="10.00"> </text>
</g>
<!-- Node5&#45;&gt;Node1 -->
<g id="edge4" class="edge"><title>Node5&#45;&gt;Node1</title>
<path fill="none" stroke="#404040" d="M254.802,-184.389C255.145,-157.294 251.699,-116.066 231,-88 224.664,-79.4085 216.491,-72.1253 207.543,-65.9814"/>
<polygon fill="none" stroke="#404040" points="207.353,-65.8631 200.145,-66.087 197.166,-59.5198 204.374,-59.296 207.353,-65.8631"/>
<text text-anchor="middle" x="303.5" y="-152" font-family="Helvetica,sans-Serif" font-size="10.00"> +globalMemorySize</text>
<text text-anchor="middle" x="303.5" y="-141" font-family="Helvetica,sans-Serif" font-size="10.00">+registersPerBlock</text>
<text text-anchor="middle" x="303.5" y="-130" font-family="Helvetica,sans-Serif" font-size="10.00">+l2CacheSize</text>
<text text-anchor="middle" x="303.5" y="-119" font-family="Helvetica,sans-Serif" font-size="10.00">+constantMemorySize</text>
<text text-anchor="middle" x="303.5" y="-108" font-family="Helvetica,sans-Serif" font-size="10.00">+sharedMemorySize</text>
<text text-anchor="middle" x="303.5" y="-97" font-family="Helvetica,sans-Serif" font-size="10.00">+maxClockRate</text>
</g>
</g>
</svg>
