<?xml version="1.0" encoding="UTF-8" standalone="no"?>
<!DOCTYPE svg PUBLIC "-//W3C//DTD SVG 1.1//EN"
 "http://www.w3.org/Graphics/SVG/1.1/DTD/svg11.dtd">
<!-- Generated by graphviz version 2.36.0 (20140111.2315)
 -->
<!-- Title: o2::TPC::ClusterHardwareContainer Pages: 1 -->
<!--zoomable 488 -->
<svg id="main" version="1.1" xmlns="http://www.w3.org/2000/svg" xmlns:xlink="http://www.w3.org/1999/xlink" xml:space="preserve" onload="init(evt)">
<style type="text/css"><![CDATA[
.edge:hover path { stroke: red; }
.edge:hover polygon { stroke: red; fill: red; }
]]></style>
<script type="text/javascript"><![CDATA[
var edges = document.getElementsByTagName('g');
if (edges && edges.length) {
  for (var i=0;i<edges.length;i++) {
    if (edges[i].id.substr(0,4)=='edge') {
      edges[i].setAttribute('class','edge');
    }
  }
}
]]></script>
        <defs>
                <circle id="rim" cx="0" cy="0" r="7"/>
                <circle id="rim2" cx="0" cy="0" r="3.5"/>
                <g id="zoomPlus">
                        <use xlink:href="#rim" fill="#404040">
                                <set attributeName="fill" to="#808080" begin="zoomplus.mouseover" end="zoomplus.mouseout"/>
                        </use>
                        <path d="M-4,0h8M0,-4v8" fill="none" stroke="white" stroke-width="1.5" pointer-events="none"/>
                </g>
                <g id="zoomMin">
                        <use xlink:href="#rim" fill="#404040">
                                <set attributeName="fill" to="#808080" begin="zoomminus.mouseover" end="zoomminus.mouseout"/>
                        </use>
                        <path d="M-4,0h8" fill="none" stroke="white" stroke-width="1.5" pointer-events="none"/>
                </g>
                <g id="dirArrow">
                        <path fill="none" stroke="white" stroke-width="1.5" d="M0,-3.0v7 M-2.5,-0.5L0,-3.0L2.5,-0.5"/>
                </g>
               <g id="resetDef">
                       <use xlink:href="#rim2" fill="#404040">
                               <set attributeName="fill" to="#808080" begin="reset.mouseover" end="reset.mouseout"/>
                       </use>
               </g>
        </defs>

<script type="text/javascript">
var viewWidth = 410;
var viewHeight = 488;
var sectionId = 'dynsection-0';
</script>
<script xlink:href="../../svgpan.js"/>
<svg id="graph" class="graph">
<g id="viewport">
<title>o2::TPC::ClusterHardwareContainer</title>
<!-- Node1 -->
<g id="node1" class="node"><title>Node1</title>
<polygon fill="#bfbfbf" stroke="black" points="183.672,-1 183.672,-69 316.672,-69 316.672,-1 183.672,-1"/>
<text text-anchor="start" x="191.672" y="-57" font-family="Helvetica,sans-Serif" font-size="10.00">o2::TPC::ClusterHardware</text>
<text text-anchor="middle" x="250.172" y="-46" font-family="Helvetica,sans-Serif" font-size="10.00">Container</text>
<polyline fill="none" stroke="black" points="183.672,-39 316.672,-39 "/>
<text text-anchor="middle" x="250.172" y="-27" font-family="Helvetica,sans-Serif" font-size="10.00"> </text>
<polyline fill="none" stroke="black" points="183.672,-20 316.672,-20 "/>
<text text-anchor="middle" x="250.172" y="-8" font-family="Helvetica,sans-Serif" font-size="10.00"> </text>
</g>
<!-- Node2 -->
<g id="node2" class="node"><title>Node2</title>
<polygon fill="none" stroke="#bfbfbf" points="40.6717,-422.5 40.6717,-479.5 91.6717,-479.5 91.6717,-422.5 40.6717,-422.5"/>
<text text-anchor="middle" x="66.1717" y="-467.5" font-family="Helvetica,sans-Serif" font-size="10.00">uint32_t</text>
<polyline fill="none" stroke="#bfbfbf" points="40.6717,-460.5 91.6717,-460.5 "/>
<text text-anchor="middle" x="66.1717" y="-448.5" font-family="Helvetica,sans-Serif" font-size="10.00"> </text>
<polyline fill="none" stroke="#bfbfbf" points="40.6717,-441.5 91.6717,-441.5 "/>
<text text-anchor="middle" x="66.1717" y="-429.5" font-family="Helvetica,sans-Serif" font-size="10.00"> </text>
</g>
<!-- Node2&#45;&gt;Node1 -->
<g id="edge1" class="edge"><title>Node2&#45;&gt;Node1</title>
<path fill="none" stroke="#404040" d="M51.6697,-422.176C22.849,-362.617 -33.7417,-220.677 28.1717,-128 59.9794,-80.3876 121.49,-57.384 171.713,-46.2877"/>
<polygon fill="none" stroke="#404040" points="171.801,-46.2696 176.868,-41.1385 183.553,-43.842 178.486,-48.9731 171.801,-46.2696"/>
<text text-anchor="middle" x="63.1717" y="-226.5" font-family="Helvetica,sans-Serif" font-size="10.00"> +timeBinOffset</text>
</g>
<!-- Node5 -->
<g id="node5" class="node"><title>Node5</title>
<g id="a_node5"><a xlink:href="../../db/d62/structo2_1_1TPC_1_1ClusterHardware.html" target="_top" xlink:title="{o2::TPC::ClusterHardware\n||+ getQTotFloat()\l+ getQTot()\l+ getQMax()\l+ getRow()\l+ getFlags()\l+ getPadPre()\l+ getPad()\l+ getTimeLocalPre()\l+ getTimePeak()\l+ getTimeLocal()\l+ getSigmaPad2()\l+ getSigmaTime2()\l+ setCluster()\l+ setCluster()\l}">
<polygon fill="none" stroke="black" points="107.672,-129 107.672,-329 240.672,-329 240.672,-129 107.672,-129"/>
<text text-anchor="middle" x="174.172" y="-317" font-family="Helvetica,sans-Serif" font-size="10.00">o2::TPC::ClusterHardware</text>
<polyline fill="none" stroke="black" points="107.672,-310 240.672,-310 "/>
<text text-anchor="middle" x="174.172" y="-298" font-family="Helvetica,sans-Serif" font-size="10.00"> </text>
<polyline fill="none" stroke="black" points="107.672,-291 240.672,-291 "/>
<text text-anchor="start" x="115.672" y="-279" font-family="Helvetica,sans-Serif" font-size="10.00">+ getQTotFloat()</text>
<text text-anchor="start" x="115.672" y="-268" font-family="Helvetica,sans-Serif" font-size="10.00">+ getQTot()</text>
<text text-anchor="start" x="115.672" y="-257" font-family="Helvetica,sans-Serif" font-size="10.00">+ getQMax()</text>
<text text-anchor="start" x="115.672" y="-246" font-family="Helvetica,sans-Serif" font-size="10.00">+ getRow()</text>
<text text-anchor="start" x="115.672" y="-235" font-family="Helvetica,sans-Serif" font-size="10.00">+ getFlags()</text>
<text text-anchor="start" x="115.672" y="-224" font-family="Helvetica,sans-Serif" font-size="10.00">+ getPadPre()</text>
<text text-anchor="start" x="115.672" y="-213" font-family="Helvetica,sans-Serif" font-size="10.00">+ getPad()</text>
<text text-anchor="start" x="115.672" y="-202" font-family="Helvetica,sans-Serif" font-size="10.00">+ getTimeLocalPre()</text>
<text text-anchor="start" x="115.672" y="-191" font-family="Helvetica,sans-Serif" font-size="10.00">+ getTimePeak()</text>
<text text-anchor="start" x="115.672" y="-180" font-family="Helvetica,sans-Serif" font-size="10.00">+ getTimeLocal()</text>
<text text-anchor="start" x="115.672" y="-169" font-family="Helvetica,sans-Serif" font-size="10.00">+ getSigmaPad2()</text>
<text text-anchor="start" x="115.672" y="-158" font-family="Helvetica,sans-Serif" font-size="10.00">+ getSigmaTime2()</text>
<text text-anchor="start" x="115.672" y="-147" font-family="Helvetica,sans-Serif" font-size="10.00">+ setCluster()</text>
<text text-anchor="start" x="115.672" y="-136" font-family="Helvetica,sans-Serif" font-size="10.00">+ setCluster()</text>
</a>
</g>
</g>
<!-- Node2&#45;&gt;Node5 -->
<g id="edge5" class="edge"><title>Node2&#45;&gt;Node5</title>
<path fill="none" stroke="#404040" d="M79.85,-422.137C90.1626,-401.13 105.034,-370.837 119.929,-340.494"/>
<polygon fill="none" stroke="#404040" points="120.122,-340.102 119.175,-332.953 125.41,-329.33 126.356,-336.479 120.122,-340.102"/>
<text text-anchor="middle" x="132.172" y="-395.5" font-family="Helvetica,sans-Serif" font-size="10.00"> +word0</text>
<text text-anchor="middle" x="132.172" y="-384.5" font-family="Helvetica,sans-Serif" font-size="10.00">+word1</text>
<text text-anchor="middle" x="132.172" y="-373.5" font-family="Helvetica,sans-Serif" font-size="10.00">+word2</text>
<text text-anchor="middle" x="132.172" y="-362.5" font-family="Helvetica,sans-Serif" font-size="10.00">+word3</text>
<text text-anchor="middle" x="132.172" y="-351.5" font-family="Helvetica,sans-Serif" font-size="10.00">+word4</text>
</g>
<!-- Node3 -->
<g id="node3" class="node"><title>Node3</title>
<polygon fill="none" stroke="#bfbfbf" points="258.672,-200.5 258.672,-257.5 309.672,-257.5 309.672,-200.5 258.672,-200.5"/>
<text text-anchor="middle" x="284.172" y="-245.5" font-family="Helvetica,sans-Serif" font-size="10.00">uint64_t</text>
<polyline fill="none" stroke="#bfbfbf" points="258.672,-238.5 309.672,-238.5 "/>
<text text-anchor="middle" x="284.172" y="-226.5" font-family="Helvetica,sans-Serif" font-size="10.00"> </text>
<polyline fill="none" stroke="#bfbfbf" points="258.672,-219.5 309.672,-219.5 "/>
<text text-anchor="middle" x="284.172" y="-207.5" font-family="Helvetica,sans-Serif" font-size="10.00"> </text>
</g>
<!-- Node3&#45;&gt;Node1 -->
<g id="edge2" class="edge"><title>Node3&#45;&gt;Node1</title>
<path fill="none" stroke="#404040" d="M279.3,-200.491C273.79,-169.376 264.733,-118.23 258.18,-81.2217"/>
<polygon fill="none" stroke="#404040" points="258.154,-81.0785 253.169,-75.8679 256.062,-69.2623 261.047,-74.4729 258.154,-81.0785"/>
<text text-anchor="middle" x="279.672" y="-96.5" font-family="Helvetica,sans-Serif" font-size="10.00"> +mDH</text>
</g>
<!-- Node4 -->
<g id="node4" class="node"><title>Node4</title>
<polygon fill="none" stroke="#bfbfbf" points="327.672,-200.5 327.672,-257.5 378.672,-257.5 378.672,-200.5 327.672,-200.5"/>
<text text-anchor="middle" x="353.172" y="-245.5" font-family="Helvetica,sans-Serif" font-size="10.00">uint16_t</text>
<polyline fill="none" stroke="#bfbfbf" points="327.672,-238.5 378.672,-238.5 "/>
<text text-anchor="middle" x="353.172" y="-226.5" font-family="Helvetica,sans-Serif" font-size="10.00"> </text>
<polyline fill="none" stroke="#bfbfbf" points="327.672,-219.5 378.672,-219.5 "/>
<text text-anchor="middle" x="353.172" y="-207.5" font-family="Helvetica,sans-Serif" font-size="10.00"> </text>
</g>
<!-- Node4&#45;&gt;Node1 -->
<g id="edge3" class="edge"><title>Node4&#45;&gt;Node1</title>
<path fill="none" stroke="#404040" d="M346.804,-200.435C339.077,-170.838 324.038,-123.313 300.172,-88 297.998,-84.7833 295.617,-81.5831 293.112,-78.4426"/>
<polygon fill="none" stroke="#404040" points="293.069,-78.392 286.136,-76.4062 285.303,-69.2434 292.236,-71.2292 293.069,-78.392"/>
<text text-anchor="middle" x="357.672" y="-102" font-family="Helvetica,sans-Serif" font-size="10.00"> +numberOfClusters</text>
<text text-anchor="middle" x="357.672" y="-91" font-family="Helvetica,sans-Serif" font-size="10.00">+CRU</text>
</g>
<!-- Node5&#45;&gt;Node1 -->
<g id="edge4" class="edge"><title>Node5&#45;&gt;Node1</title>
<path fill="none" stroke="#404040" d="M197.13,-128.89C201.707,-114.874 207.035,-100.867 213.172,-88 214.555,-85.0998 216.1,-82.1895 217.752,-79.3084"/>
<polygon fill="none" stroke="#404040" points="217.775,-79.2697 217.542,-72.0624 224.105,-69.0744 224.338,-76.2817 217.775,-79.2697"/>
<text text-anchor="middle" x="235.172" y="-96.5" font-family="Helvetica,sans-Serif" font-size="10.00"> +clusters</text>
</g>
</g>
</svg>
        <g id="navigator" transform="translate(0 0)" fill="#404254">
                <rect fill="#f2f5e9" fill-opacity="0.5" stroke="#606060" stroke-width=".5" x="0" y="0" width="60" height="60"/>
                <use id="zoomplus" xlink:href="#zoomPlus" x="17" y="9" onmousedown="handleZoom(evt,'in')"/>
                <use id="zoomminus" xlink:href="#zoomMin" x="42" y="9" onmousedown="handleZoom(evt,'out')"/>
                <use id="reset" xlink:href="#resetDef" x="30" y="36" onmousedown="handleReset()"/>
                <g id="arrowUp" xlink:href="#dirArrow" transform="translate(30 24)" onmousedown="handlePan(0,-1)">
                  <use xlink:href="#rim" fill="#404040">
                        <set attributeName="fill" to="#808080" begin="arrowUp.mouseover" end="arrowUp.mouseout"/>
                  </use>
                  <path fill="none" stroke="white" stroke-width="1.5" d="M0,-3.0v7 M-2.5,-0.5L0,-3.0L2.5,-0.5"/>
                </g>
                <g id="arrowRight" xlink:href="#dirArrow" transform="rotate(90) translate(36 -43)" onmousedown="handlePan(1,0)">
                  <use xlink:href="#rim" fill="#404040">
                        <set attributeName="fill" to="#808080" begin="arrowRight.mouseover" end="arrowRight.mouseout"/>
                  </use>
                  <path fill="none" stroke="white" stroke-width="1.5" d="M0,-3.0v7 M-2.5,-0.5L0,-3.0L2.5,-0.5"/>
                </g>
                <g id="arrowDown" xlink:href="#dirArrow" transform="rotate(180) translate(-30 -48)" onmousedown="handlePan(0,1)">
                  <use xlink:href="#rim" fill="#404040">
                        <set attributeName="fill" to="#808080" begin="arrowDown.mouseover" end="arrowDown.mouseout"/>
                  </use>
                  <path fill="none" stroke="white" stroke-width="1.5" d="M0,-3.0v7 M-2.5,-0.5L0,-3.0L2.5,-0.5"/>
                </g>
                <g id="arrowLeft" xlink:href="#dirArrow" transform="rotate(270) translate(-36 17)" onmousedown="handlePan(-1,0)">
                  <use xlink:href="#rim" fill="#404040">
                        <set attributeName="fill" to="#808080" begin="arrowLeft.mouseover" end="arrowLeft.mouseout"/>
                  </use>
                  <path fill="none" stroke="white" stroke-width="1.5" d="M0,-3.0v7 M-2.5,-0.5L0,-3.0L2.5,-0.5"/>
                </g>
        </g>
        <svg viewBox="0 0 15 15" width="100%" height="30px" preserveAspectRatio="xMaxYMin meet">
         <g id="arrow_out" transform="scale(0.3 0.3)">
          <a xlink:href="structo2_1_1TPC_1_1ClusterHardwareContainer__coll__graph_org.svg" target="_base">
           <rect id="button" ry="5" rx="5" y="6" x="6" height="38" width="38"
                fill="#f2f5e9" fill-opacity="0.5" stroke="#606060" stroke-width="1.0"/>
           <path id="arrow"
             d="M 11.500037,31.436501 C 11.940474,20.09759 22.043105,11.32322 32.158766,21.979434 L 37.068811,17.246167 C 37.068811,17.246167 37.088388,32 37.088388,32 L 22.160133,31.978069 C 22.160133,31.978069 26.997745,27.140456 26.997745,27.140456 C 18.528582,18.264221 13.291696,25.230495 11.500037,31.436501 z"
             style="fill:#404040;"/>
          </a>
         </g>
        </svg>
</svg>
