<?xml version="1.0" encoding="UTF-8" standalone="no"?>
<!DOCTYPE svg PUBLIC "-//W3C//DTD SVG 1.1//EN"
 "http://www.w3.org/Graphics/SVG/1.1/DTD/svg11.dtd">
<!-- Generated by graphviz version 2.36.0 (20140111.2315)
 -->
<!-- Title: /home/travis/build/AliceO2Group/AliceO2/DataFormats/Detectors/MUON/MID/include/DataFormatsMID/Cluster3D.h Pages: 1 -->
<svg width="782pt" height="342pt"
 viewBox="0.00 0.00 782.00 342.00" xmlns="http://www.w3.org/2000/svg" xmlns:xlink="http://www.w3.org/1999/xlink">
<g id="graph0" class="graph" transform="scale(1 1) rotate(0) translate(4 338)">
<title>/home/travis/build/AliceO2Group/AliceO2/DataFormats/Detectors/MUON/MID/include/DataFormatsMID/Cluster3D.h</title>
<!-- Node1 -->
<g id="node1" class="node"><title>Node1</title>
<polygon fill="#bfbfbf" stroke="black" points="338.5,-270.5 338.5,-333.5 523.5,-333.5 523.5,-270.5 338.5,-270.5"/>
<text text-anchor="start" x="346.5" y="-321.5" font-family="Helvetica,sans-Serif" font-size="10.00">/home/travis/build</text>
<text text-anchor="start" x="346.5" y="-310.5" font-family="Helvetica,sans-Serif" font-size="10.00">/AliceO2Group/AliceO2</text>
<text text-anchor="start" x="346.5" y="-299.5" font-family="Helvetica,sans-Serif" font-size="10.00">/DataFormats/Detectors</text>
<text text-anchor="start" x="346.5" y="-288.5" font-family="Helvetica,sans-Serif" font-size="10.00">/MUON/MID/include/DataFormatsMID</text>
<text text-anchor="middle" x="431" y="-277.5" font-family="Helvetica,sans-Serif" font-size="10.00">/Cluster3D.h</text>
</g>
<!-- Node2 -->
<g id="node2" class="node"><title>Node2</title>
<g id="a_node2"><a xlink:href="../../db/d8e/MUON_2MID_2Tracking_2include_2MIDTracking_2Tracker_8h.html" target="_top" xlink:title="/home/travis/build\l/AliceO2Group/AliceO2\l/Detectors/MUON/MID/Tracking\l/include/MIDTracking/Tracker.h">
<polygon fill="none" stroke="black" points="352,-181 352,-233 510,-233 510,-181 352,-181"/>
<text text-anchor="start" x="360" y="-221" font-family="Helvetica,sans-Serif" font-size="10.00">/home/travis/build</text>
<text text-anchor="start" x="360" y="-210" font-family="Helvetica,sans-Serif" font-size="10.00">/AliceO2Group/AliceO2</text>
<text text-anchor="start" x="360" y="-199" font-family="Helvetica,sans-Serif" font-size="10.00">/Detectors/MUON/MID/Tracking</text>
<text text-anchor="middle" x="431" y="-188" font-family="Helvetica,sans-Serif" font-size="10.00">/include/MIDTracking/Tracker.h</text>
</a>
</g>
</g>
<!-- Node1&#45;&gt;Node2 -->
<g id="edge1" class="edge"><title>Node1&#45;&gt;Node2</title>
<path fill="none" stroke="midnightblue" d="M431,-260.112C431,-250.917 431,-241.423 431,-233.1"/>
<polygon fill="midnightblue" stroke="midnightblue" points="427.5,-260.291 431,-270.291 434.5,-260.291 427.5,-260.291"/>
</g>
<!-- Node3 -->
<g id="node3" class="node"><title>Node3</title>
<g id="a_node3"><a xlink:href="../../d8/da3/TrackerDevice_8h.html" target="_top" xlink:title="Track reconstruction device for MID. ">
<polygon fill="none" stroke="black" points="88,-91 88,-143 246,-143 246,-91 88,-91"/>
<text text-anchor="start" x="96" y="-131" font-family="Helvetica,sans-Serif" font-size="10.00">/home/travis/build</text>
<text text-anchor="start" x="96" y="-120" font-family="Helvetica,sans-Serif" font-size="10.00">/AliceO2Group/AliceO2</text>
<text text-anchor="start" x="96" y="-109" font-family="Helvetica,sans-Serif" font-size="10.00">/Detectors/MUON/MID/Tracking</text>
<text text-anchor="middle" x="167" y="-98" font-family="Helvetica,sans-Serif" font-size="10.00">/src/TrackerDevice.h</text>
</a>
</g>
</g>
<!-- Node2&#45;&gt;Node3 -->
<g id="edge2" class="edge"><title>Node2&#45;&gt;Node3</title>
<path fill="none" stroke="midnightblue" d="M345.976,-177.659C312.65,-166.55 274.73,-153.91 242.399,-143.133"/>
<polygon fill="midnightblue" stroke="midnightblue" points="345.108,-181.059 355.702,-180.901 347.321,-174.418 345.108,-181.059"/>
</g>
<!-- Node6 -->
<g id="node6" class="node"><title>Node6</title>
<g id="a_node6"><a xlink:href="../../de/dbc/MUON_2MID_2Tracking_2src_2Tracker_8cxx.html" target="_top" xlink:title="Implementation of the tracker algorithm for the MID. ">
<polygon fill="none" stroke="black" points="264,-91 264,-143 422,-143 422,-91 264,-91"/>
<text text-anchor="start" x="272" y="-131" font-family="Helvetica,sans-Serif" font-size="10.00">/home/travis/build</text>
<text text-anchor="start" x="272" y="-120" font-family="Helvetica,sans-Serif" font-size="10.00">/AliceO2Group/AliceO2</text>
<text text-anchor="start" x="272" y="-109" font-family="Helvetica,sans-Serif" font-size="10.00">/Detectors/MUON/MID/Tracking</text>
<text text-anchor="middle" x="343" y="-98" font-family="Helvetica,sans-Serif" font-size="10.00">/src/Tracker.cxx</text>
</a>
</g>
</g>
<!-- Node2&#45;&gt;Node6 -->
<g id="edge5" class="edge"><title>Node2&#45;&gt;Node6</title>
<path fill="none" stroke="midnightblue" d="M398.431,-173.431C388.407,-163.407 377.533,-152.533 368.092,-143.092"/>
<polygon fill="midnightblue" stroke="midnightblue" points="396.001,-175.951 405.547,-180.547 400.951,-171.001 396.001,-175.951"/>
</g>
<!-- Node7 -->
<g id="node7" class="node"><title>Node7</title>
<g id="a_node7"><a xlink:href="../../d0/db9/bench__Tracker_8cxx.html" target="_top" xlink:title="Benchmark tracker device for MID. ">
<polygon fill="none" stroke="black" points="440,-91 440,-143 598,-143 598,-91 440,-91"/>
<text text-anchor="start" x="448" y="-131" font-family="Helvetica,sans-Serif" font-size="10.00">/home/travis/build</text>
<text text-anchor="start" x="448" y="-120" font-family="Helvetica,sans-Serif" font-size="10.00">/AliceO2Group/AliceO2</text>
<text text-anchor="start" x="448" y="-109" font-family="Helvetica,sans-Serif" font-size="10.00">/Detectors/MUON/MID/Tracking</text>
<text text-anchor="middle" x="519" y="-98" font-family="Helvetica,sans-Serif" font-size="10.00">/test/bench_Tracker.cxx</text>
</a>
</g>
</g>
<!-- Node2&#45;&gt;Node7 -->
<g id="edge6" class="edge"><title>Node2&#45;&gt;Node7</title>
<path fill="none" stroke="midnightblue" d="M463.569,-173.431C473.593,-163.407 484.467,-152.533 493.908,-143.092"/>
<polygon fill="midnightblue" stroke="midnightblue" points="461.049,-171.001 456.453,-180.547 465.999,-175.951 461.049,-171.001"/>
</g>
<!-- Node8 -->
<g id="node8" class="node"><title>Node8</title>
<g id="a_node8"><a xlink:href="../../da/de0/testTracker_8cxx.html" target="_top" xlink:title="Test tracking device for MID. ">
<polygon fill="none" stroke="black" points="616,-91 616,-143 774,-143 774,-91 616,-91"/>
<text text-anchor="start" x="624" y="-131" font-family="Helvetica,sans-Serif" font-size="10.00">/home/travis/build</text>
<text text-anchor="start" x="624" y="-120" font-family="Helvetica,sans-Serif" font-size="10.00">/AliceO2Group/AliceO2</text>
<text text-anchor="start" x="624" y="-109" font-family="Helvetica,sans-Serif" font-size="10.00">/Detectors/MUON/MID/Tracking</text>
<text text-anchor="middle" x="695" y="-98" font-family="Helvetica,sans-Serif" font-size="10.00">/test/testTracker.cxx</text>
</a>
</g>
</g>
<!-- Node2&#45;&gt;Node8 -->
<g id="edge7" class="edge"><title>Node2&#45;&gt;Node8</title>
<path fill="none" stroke="midnightblue" d="M516.024,-177.659C549.35,-166.55 587.27,-153.91 619.601,-143.133"/>
<polygon fill="midnightblue" stroke="midnightblue" points="514.679,-174.418 506.298,-180.901 516.892,-181.059 514.679,-174.418"/>
</g>
<!-- Node4 -->
<g id="node4" class="node"><title>Node4</title>
<g id="a_node4"><a xlink:href="../../dc/df2/runMIDTracking_8cxx.html" target="_top" xlink:title="/home/travis/build\l/AliceO2Group/AliceO2\l/Detectors/MUON/MID/Tracking\l/src/runMIDTracking.cxx">
<polygon fill="none" stroke="black" points="0,-1 0,-53 158,-53 158,-1 0,-1"/>
<text text-anchor="start" x="8" y="-41" font-family="Helvetica,sans-Serif" font-size="10.00">/home/travis/build</text>
<text text-anchor="start" x="8" y="-30" font-family="Helvetica,sans-Serif" font-size="10.00">/AliceO2Group/AliceO2</text>
<text text-anchor="start" x="8" y="-19" font-family="Helvetica,sans-Serif" font-size="10.00">/Detectors/MUON/MID/Tracking</text>
<text text-anchor="middle" x="79" y="-8" font-family="Helvetica,sans-Serif" font-size="10.00">/src/runMIDTracking.cxx</text>
</a>
</g>
</g>
<!-- Node3&#45;&gt;Node4 -->
<g id="edge3" class="edge"><title>Node3&#45;&gt;Node4</title>
<path fill="none" stroke="midnightblue" d="M134.431,-83.4308C124.407,-73.4069 113.533,-62.5325 104.092,-53.0921"/>
<polygon fill="midnightblue" stroke="midnightblue" points="132.001,-85.9505 141.547,-90.5468 136.951,-81.0008 132.001,-85.9505"/>
</g>
<!-- Node5 -->
<g id="node5" class="node"><title>Node5</title>
<g id="a_node5"><a xlink:href="../../d7/d46/TrackerDevice_8cxx.html" target="_top" xlink:title="Implementation of tracker device for the MID. ">
<polygon fill="none" stroke="black" points="176,-1 176,-53 334,-53 334,-1 176,-1"/>
<text text-anchor="start" x="184" y="-41" font-family="Helvetica,sans-Serif" font-size="10.00">/home/travis/build</text>
<text text-anchor="start" x="184" y="-30" font-family="Helvetica,sans-Serif" font-size="10.00">/AliceO2Group/AliceO2</text>
<text text-anchor="start" x="184" y="-19" font-family="Helvetica,sans-Serif" font-size="10.00">/Detectors/MUON/MID/Tracking</text>
<text text-anchor="middle" x="255" y="-8" font-family="Helvetica,sans-Serif" font-size="10.00">/src/TrackerDevice.cxx</text>
</a>
</g>
</g>
<!-- Node3&#45;&gt;Node5 -->
<g id="edge4" class="edge"><title>Node3&#45;&gt;Node5</title>
<path fill="none" stroke="midnightblue" d="M199.569,-83.4308C209.593,-73.4069 220.467,-62.5325 229.908,-53.0921"/>
<polygon fill="midnightblue" stroke="midnightblue" points="197.049,-81.0008 192.453,-90.5468 201.999,-85.9505 197.049,-81.0008"/>
</g>
</g>
</svg>
