<?xml version="1.0" encoding="UTF-8" standalone="no"?>
<!DOCTYPE svg PUBLIC "-//W3C//DTD SVG 1.1//EN"
 "http://www.w3.org/Graphics/SVG/1.1/DTD/svg11.dtd">
<!-- Generated by graphviz version 2.36.0 (20140111.2315)
 -->
<!-- Title: /home/travis/build/AliceO2Group/AliceO2/Detectors/MUON/MID/Base/include/MIDBase/Mapping.h Pages: 1 -->
<svg width="934pt" height="332pt"
 viewBox="0.00 0.00 934.00 332.00" xmlns="http://www.w3.org/2000/svg" xmlns:xlink="http://www.w3.org/1999/xlink">
<g id="graph0" class="graph" transform="scale(1 1) rotate(0) translate(4 328)">
<title>/home/travis/build/AliceO2Group/AliceO2/Detectors/MUON/MID/Base/include/MIDBase/Mapping.h</title>
<!-- Node1 -->
<g id="node1" class="node"><title>Node1</title>
<polygon fill="#bfbfbf" stroke="black" points="434.5,-271 434.5,-323 577.5,-323 577.5,-271 434.5,-271"/>
<text text-anchor="start" x="442.5" y="-311" font-family="Helvetica,sans-Serif" font-size="10.00">/home/travis/build</text>
<text text-anchor="start" x="442.5" y="-300" font-family="Helvetica,sans-Serif" font-size="10.00">/AliceO2Group/AliceO2</text>
<text text-anchor="start" x="442.5" y="-289" font-family="Helvetica,sans-Serif" font-size="10.00">/Detectors/MUON/MID/Base</text>
<text text-anchor="middle" x="506" y="-278" font-family="Helvetica,sans-Serif" font-size="10.00">/include/MIDBase/Mapping.h</text>
</g>
<!-- Node2 -->
<g id="node2" class="node"><title>Node2</title>
<g id="a_node2"><a xlink:href="../../d9/d73/MID_2Base_2src_2Mapping_8cxx.html" target="_top" xlink:title="Implementation of mapping for MID. ">
<polygon fill="none" stroke="black" points="38.5,-181 38.5,-233 181.5,-233 181.5,-181 38.5,-181"/>
<text text-anchor="start" x="46.5" y="-221" font-family="Helvetica,sans-Serif" font-size="10.00">/home/travis/build</text>
<text text-anchor="start" x="46.5" y="-210" font-family="Helvetica,sans-Serif" font-size="10.00">/AliceO2Group/AliceO2</text>
<text text-anchor="start" x="46.5" y="-199" font-family="Helvetica,sans-Serif" font-size="10.00">/Detectors/MUON/MID/Base</text>
<text text-anchor="middle" x="110" y="-188" font-family="Helvetica,sans-Serif" font-size="10.00">/src/Mapping.cxx</text>
</a>
</g>
</g>
<!-- Node1&#45;&gt;Node2 -->
<g id="edge1" class="edge"><title>Node1&#45;&gt;Node2</title>
<path fill="none" stroke="midnightblue" d="M424.166,-282.735C360.008,-271.665 268.718,-254.435 190,-234 187.314,-233.303 184.587,-232.566 181.838,-231.799"/>
<polygon fill="midnightblue" stroke="midnightblue" points="423.777,-286.219 434.224,-284.458 424.959,-279.319 423.777,-286.219"/>
</g>
<!-- Node3 -->
<g id="node3" class="node"><title>Node3</title>
<g id="a_node3"><a xlink:href="../../d5/d6f/testMapping_8cxx.html" target="_top" xlink:title="/home/travis/build\l/AliceO2Group/AliceO2\l/Detectors/MUON/MID/Base\l/test/testMapping.cxx">
<polygon fill="none" stroke="black" points="199.5,-181 199.5,-233 342.5,-233 342.5,-181 199.5,-181"/>
<text text-anchor="start" x="207.5" y="-221" font-family="Helvetica,sans-Serif" font-size="10.00">/home/travis/build</text>
<text text-anchor="start" x="207.5" y="-210" font-family="Helvetica,sans-Serif" font-size="10.00">/AliceO2Group/AliceO2</text>
<text text-anchor="start" x="207.5" y="-199" font-family="Helvetica,sans-Serif" font-size="10.00">/Detectors/MUON/MID/Base</text>
<text text-anchor="middle" x="271" y="-188" font-family="Helvetica,sans-Serif" font-size="10.00">/test/testMapping.cxx</text>
</a>
</g>
</g>
<!-- Node1&#45;&gt;Node3 -->
<g id="edge2" class="edge"><title>Node1&#45;&gt;Node3</title>
<path fill="none" stroke="midnightblue" d="M429.551,-267.372C400.072,-256.333 366.649,-243.817 338.116,-233.133"/>
<polygon fill="midnightblue" stroke="midnightblue" points="428.381,-270.671 438.973,-270.901 430.835,-264.116 428.381,-270.671"/>
</g>
<!-- Node4 -->
<g id="node4" class="node"><title>Node4</title>
<g id="a_node4"><a xlink:href="../../d5/d53/Clusterizer_8h.html" target="_top" xlink:title="/home/travis/build\l/AliceO2Group/AliceO2\l/Detectors/MUON/MID/Clustering\l/include/MIDClustering/Clusterizer.h">
<polygon fill="none" stroke="black" points="360.5,-181 360.5,-233 535.5,-233 535.5,-181 360.5,-181"/>
<text text-anchor="start" x="368.5" y="-221" font-family="Helvetica,sans-Serif" font-size="10.00">/home/travis/build</text>
<text text-anchor="start" x="368.5" y="-210" font-family="Helvetica,sans-Serif" font-size="10.00">/AliceO2Group/AliceO2</text>
<text text-anchor="start" x="368.5" y="-199" font-family="Helvetica,sans-Serif" font-size="10.00">/Detectors/MUON/MID/Clustering</text>
<text text-anchor="middle" x="448" y="-188" font-family="Helvetica,sans-Serif" font-size="10.00">/include/MIDClustering/Clusterizer.h</text>
</a>
</g>
</g>
<!-- Node1&#45;&gt;Node4 -->
<g id="edge3" class="edge"><title>Node1&#45;&gt;Node4</title>
<path fill="none" stroke="midnightblue" d="M483.568,-261.965C477.234,-252.354 470.458,-242.074 464.538,-233.092"/>
<polygon fill="midnightblue" stroke="midnightblue" points="480.798,-264.123 489.224,-270.547 486.643,-260.271 480.798,-264.123"/>
</g>
<!-- Node9 -->
<g id="node9" class="node"><title>Node9</title>
<g id="a_node9"><a xlink:href="../../d2/d12/bench__Clusterizer_8cxx.html" target="_top" xlink:title="Benchmark clustering device for MID. ">
<polygon fill="none" stroke="black" points="548.5,-91 548.5,-143 713.5,-143 713.5,-91 548.5,-91"/>
<text text-anchor="start" x="556.5" y="-131" font-family="Helvetica,sans-Serif" font-size="10.00">/home/travis/build</text>
<text text-anchor="start" x="556.5" y="-120" font-family="Helvetica,sans-Serif" font-size="10.00">/AliceO2Group/AliceO2</text>
<text text-anchor="start" x="556.5" y="-109" font-family="Helvetica,sans-Serif" font-size="10.00">/Detectors/MUON/MID/Clustering</text>
<text text-anchor="middle" x="631" y="-98" font-family="Helvetica,sans-Serif" font-size="10.00">/test/bench_Clusterizer.cxx</text>
</a>
</g>
</g>
<!-- Node1&#45;&gt;Node9 -->
<g id="edge10" class="edge"><title>Node1&#45;&gt;Node9</title>
<path fill="none" stroke="midnightblue" d="M527.495,-262.224C542.598,-238.843 563.507,-207.166 583,-180 591.888,-167.613 602.187,-154.197 610.961,-143.024"/>
<polygon fill="midnightblue" stroke="midnightblue" points="524.475,-260.449 522.005,-270.752 530.361,-264.238 524.475,-260.449"/>
</g>
<!-- Node11 -->
<g id="node11" class="node"><title>Node11</title>
<g id="a_node11"><a xlink:href="../../d0/db9/bench__Tracker_8cxx.html" target="_top" xlink:title="Benchmark tracker device for MID. ">
<polygon fill="none" stroke="black" points="592,-181 592,-233 750,-233 750,-181 592,-181"/>
<text text-anchor="start" x="600" y="-221" font-family="Helvetica,sans-Serif" font-size="10.00">/home/travis/build</text>
<text text-anchor="start" x="600" y="-210" font-family="Helvetica,sans-Serif" font-size="10.00">/AliceO2Group/AliceO2</text>
<text text-anchor="start" x="600" y="-199" font-family="Helvetica,sans-Serif" font-size="10.00">/Detectors/MUON/MID/Tracking</text>
<text text-anchor="middle" x="671" y="-188" font-family="Helvetica,sans-Serif" font-size="10.00">/test/bench_Tracker.cxx</text>
</a>
</g>
</g>
<!-- Node1&#45;&gt;Node11 -->
<g id="edge11" class="edge"><title>Node1&#45;&gt;Node11</title>
<path fill="none" stroke="midnightblue" d="M562.325,-265.96C582.401,-255.253 604.785,-243.315 623.996,-233.069"/>
<polygon fill="midnightblue" stroke="midnightblue" points="560.459,-262.989 553.282,-270.783 563.753,-269.165 560.459,-262.989"/>
</g>
<!-- Node12 -->
<g id="node12" class="node"><title>Node12</title>
<g id="a_node12"><a xlink:href="../../da/de0/testTracker_8cxx.html" target="_top" xlink:title="Test tracking device for MID. ">
<polygon fill="none" stroke="black" points="768,-181 768,-233 926,-233 926,-181 768,-181"/>
<text text-anchor="start" x="776" y="-221" font-family="Helvetica,sans-Serif" font-size="10.00">/home/travis/build</text>
<text text-anchor="start" x="776" y="-210" font-family="Helvetica,sans-Serif" font-size="10.00">/AliceO2Group/AliceO2</text>
<text text-anchor="start" x="776" y="-199" font-family="Helvetica,sans-Serif" font-size="10.00">/Detectors/MUON/MID/Tracking</text>
<text text-anchor="middle" x="847" y="-188" font-family="Helvetica,sans-Serif" font-size="10.00">/test/testTracker.cxx</text>
</a>
</g>
</g>
<!-- Node1&#45;&gt;Node12 -->
<g id="edge12" class="edge"><title>Node1&#45;&gt;Node12</title>
<path fill="none" stroke="midnightblue" d="M587.628,-276.857C637.067,-265.029 701.319,-249.244 758,-234 761.264,-233.122 764.592,-232.213 767.951,-231.284"/>
<polygon fill="midnightblue" stroke="midnightblue" points="586.543,-273.517 577.629,-279.243 588.168,-280.326 586.543,-273.517"/>
</g>
<!-- Node5 -->
<g id="node5" class="node"><title>Node5</title>
<g id="a_node5"><a xlink:href="../../d9/dd5/Clusterizer_8cxx.html" target="_top" xlink:title="Implementation of the cluster reconstruction algorithm for MID. ">
<polygon fill="none" stroke="black" points="-0.5,-91 -0.5,-143 164.5,-143 164.5,-91 -0.5,-91"/>
<text text-anchor="start" x="7.5" y="-131" font-family="Helvetica,sans-Serif" font-size="10.00">/home/travis/build</text>
<text text-anchor="start" x="7.5" y="-120" font-family="Helvetica,sans-Serif" font-size="10.00">/AliceO2Group/AliceO2</text>
<text text-anchor="start" x="7.5" y="-109" font-family="Helvetica,sans-Serif" font-size="10.00">/Detectors/MUON/MID/Clustering</text>
<text text-anchor="middle" x="82" y="-98" font-family="Helvetica,sans-Serif" font-size="10.00">/src/Clusterizer.cxx</text>
</a>
</g>
</g>
<!-- Node4&#45;&gt;Node5 -->
<g id="edge4" class="edge"><title>Node4&#45;&gt;Node5</title>
<path fill="none" stroke="midnightblue" d="M350.295,-179.904C270.697,-161.633 248.357,-162.355 173,-144 170.286,-143.339 167.531,-142.651 164.753,-141.943"/>
<polygon fill="midnightblue" stroke="midnightblue" points="349.76,-183.373 360.293,-182.228 351.346,-176.554 349.76,-183.373"/>
</g>
<!-- Node6 -->
<g id="node6" class="node"><title>Node6</title>
<g id="a_node6"><a xlink:href="../../d8/de7/ClusterizerDevice_8h.html" target="_top" xlink:title="Cluster reconstruction device for MID. ">
<polygon fill="none" stroke="black" points="182.5,-91 182.5,-143 347.5,-143 347.5,-91 182.5,-91"/>
<text text-anchor="start" x="190.5" y="-131" font-family="Helvetica,sans-Serif" font-size="10.00">/home/travis/build</text>
<text text-anchor="start" x="190.5" y="-120" font-family="Helvetica,sans-Serif" font-size="10.00">/AliceO2Group/AliceO2</text>
<text text-anchor="start" x="190.5" y="-109" font-family="Helvetica,sans-Serif" font-size="10.00">/Detectors/MUON/MID/Clustering</text>
<text text-anchor="middle" x="265" y="-98" font-family="Helvetica,sans-Serif" font-size="10.00">/src/ClusterizerDevice.h</text>
</a>
</g>
</g>
<!-- Node4&#45;&gt;Node6 -->
<g id="edge5" class="edge"><title>Node4&#45;&gt;Node6</title>
<path fill="none" stroke="midnightblue" d="M386.432,-176.394C363.935,-165.576 338.726,-153.453 317.132,-143.069"/>
<polygon fill="midnightblue" stroke="midnightblue" points="385.031,-179.603 395.56,-180.783 388.064,-173.295 385.031,-179.603"/>
</g>
<!-- Node4&#45;&gt;Node9 -->
<g id="edge8" class="edge"><title>Node4&#45;&gt;Node9</title>
<path fill="none" stroke="midnightblue" d="M509.568,-176.394C532.065,-165.576 557.274,-153.453 578.868,-143.069"/>
<polygon fill="midnightblue" stroke="midnightblue" points="507.936,-173.295 500.44,-180.783 510.969,-179.603 507.936,-173.295"/>
</g>
<!-- Node10 -->
<g id="node10" class="node"><title>Node10</title>
<g id="a_node10"><a xlink:href="../../d6/dee/testClusterizer_8cxx.html" target="_top" xlink:title="Test clustering device for MID. ">
<polygon fill="none" stroke="black" points="365.5,-91 365.5,-143 530.5,-143 530.5,-91 365.5,-91"/>
<text text-anchor="start" x="373.5" y="-131" font-family="Helvetica,sans-Serif" font-size="10.00">/home/travis/build</text>
<text text-anchor="start" x="373.5" y="-120" font-family="Helvetica,sans-Serif" font-size="10.00">/AliceO2Group/AliceO2</text>
<text text-anchor="start" x="373.5" y="-109" font-family="Helvetica,sans-Serif" font-size="10.00">/Detectors/MUON/MID/Clustering</text>
<text text-anchor="middle" x="448" y="-98" font-family="Helvetica,sans-Serif" font-size="10.00">/test/testClusterizer.cxx</text>
</a>
</g>
</g>
<!-- Node4&#45;&gt;Node10 -->
<g id="edge9" class="edge"><title>Node4&#45;&gt;Node10</title>
<path fill="none" stroke="midnightblue" d="M448,-170.489C448,-161.309 448,-151.616 448,-143.092"/>
<polygon fill="midnightblue" stroke="midnightblue" points="444.5,-170.547 448,-180.547 451.5,-170.547 444.5,-170.547"/>
</g>
<!-- Node7 -->
<g id="node7" class="node"><title>Node7</title>
<g id="a_node7"><a xlink:href="../../d7/dc5/ClusterizerDevice_8cxx.html" target="_top" xlink:title="Implementation of the cluster reconstruction device for MID. ">
<polygon fill="none" stroke="black" points="90.5,-1 90.5,-53 255.5,-53 255.5,-1 90.5,-1"/>
<text text-anchor="start" x="98.5" y="-41" font-family="Helvetica,sans-Serif" font-size="10.00">/home/travis/build</text>
<text text-anchor="start" x="98.5" y="-30" font-family="Helvetica,sans-Serif" font-size="10.00">/AliceO2Group/AliceO2</text>
<text text-anchor="start" x="98.5" y="-19" font-family="Helvetica,sans-Serif" font-size="10.00">/Detectors/MUON/MID/Clustering</text>
<text text-anchor="middle" x="173" y="-8" font-family="Helvetica,sans-Serif" font-size="10.00">/src/ClusterizerDevice.cxx</text>
</a>
</g>
</g>
<!-- Node6&#45;&gt;Node7 -->
<g id="edge6" class="edge"><title>Node6&#45;&gt;Node7</title>
<path fill="none" stroke="midnightblue" d="M230.95,-83.4308C220.471,-73.4069 209.102,-62.5325 199.233,-53.0921"/>
<polygon fill="midnightblue" stroke="midnightblue" points="228.744,-86.1638 238.39,-90.5468 233.583,-81.1052 228.744,-86.1638"/>
</g>
<!-- Node8 -->
<g id="node8" class="node"><title>Node8</title>
<g id="a_node8"><a xlink:href="../../d8/d5f/runMIDClusterizer_8cxx.html" target="_top" xlink:title="A simple program to reconstruct MID clusters. ">
<polygon fill="none" stroke="black" points="273.5,-1 273.5,-53 438.5,-53 438.5,-1 273.5,-1"/>
<text text-anchor="start" x="281.5" y="-41" font-family="Helvetica,sans-Serif" font-size="10.00">/home/travis/build</text>
<text text-anchor="start" x="281.5" y="-30" font-family="Helvetica,sans-Serif" font-size="10.00">/AliceO2Group/AliceO2</text>
<text text-anchor="start" x="281.5" y="-19" font-family="Helvetica,sans-Serif" font-size="10.00">/Detectors/MUON/MID/Clustering</text>
<text text-anchor="middle" x="356" y="-8" font-family="Helvetica,sans-Serif" font-size="10.00">/src/runMIDClusterizer.cxx</text>
</a>
</g>
</g>
<!-- Node6&#45;&gt;Node8 -->
<g id="edge7" class="edge"><title>Node6&#45;&gt;Node8</title>
<path fill="none" stroke="midnightblue" d="M298.68,-83.4308C309.045,-73.4069 320.29,-62.5325 330.052,-53.0921"/>
<polygon fill="midnightblue" stroke="midnightblue" points="296.077,-81.0791 291.321,-90.5468 300.943,-86.1112 296.077,-81.0791"/>
</g>
</g>
</svg>
