<?xml version="1.0" encoding="UTF-8" standalone="no"?>
<!DOCTYPE svg PUBLIC "-//W3C//DTD SVG 1.1//EN"
 "http://www.w3.org/Graphics/SVG/1.1/DTD/svg11.dtd">
<!-- Generated by graphviz version 2.36.0 (20140111.2315)
 -->
<!-- Title: /home/travis/build/AliceO2Group/AliceO2/Detectors/ITSMFT/ITS/reconstruction/include/ITSReconstruction/CA/gpu/gpu/Vector.h Pages: 1 -->
<svg width="466pt" height="344pt"
 viewBox="0.00 0.00 466.00 344.00" xmlns="http://www.w3.org/2000/svg" xmlns:xlink="http://www.w3.org/1999/xlink">
<g id="graph0" class="graph" transform="scale(1 1) rotate(0) translate(4 340)">
<title>/home/travis/build/AliceO2Group/AliceO2/Detectors/ITSMFT/ITS/reconstruction/include/ITSReconstruction/CA/gpu/gpu/Vector.h</title>
<!-- Node1 -->
<g id="node1" class="node"><title>Node1</title>
<polygon fill="#bfbfbf" stroke="black" points="157.5,-261 157.5,-335 294.5,-335 294.5,-261 157.5,-261"/>
<text text-anchor="start" x="165.5" y="-323" font-family="Helvetica,sans-Serif" font-size="10.00">/home/travis/build</text>
<text text-anchor="start" x="165.5" y="-312" font-family="Helvetica,sans-Serif" font-size="10.00">/AliceO2Group/AliceO2</text>
<text text-anchor="start" x="165.5" y="-301" font-family="Helvetica,sans-Serif" font-size="10.00">/Detectors/ITSMFT/ITS</text>
<text text-anchor="start" x="165.5" y="-290" font-family="Helvetica,sans-Serif" font-size="10.00">/reconstruction/include</text>
<text text-anchor="start" x="165.5" y="-279" font-family="Helvetica,sans-Serif" font-size="10.00">/ITSReconstruction/CA/gpu</text>
<text text-anchor="middle" x="226" y="-268" font-family="Helvetica,sans-Serif" font-size="10.00">/gpu/Vector.h</text>
</g>
<!-- Node2 -->
<g id="node2" class="node"><title>Node2</title>
<polygon fill="none" stroke="#bfbfbf" points="0,-198.5 0,-217.5 52,-217.5 52,-198.5 0,-198.5"/>
<text text-anchor="middle" x="26" y="-205.5" font-family="Helvetica,sans-Serif" font-size="10.00">assert.h</text>
</g>
<!-- Node1&#45;&gt;Node2 -->
<g id="edge1" class="edge"><title>Node1&#45;&gt;Node2</title>
<path fill="none" stroke="midnightblue" d="M157.451,-266.839C122.404,-251.418 81.6187,-233.472 54.8851,-221.709"/>
<polygon fill="midnightblue" stroke="midnightblue" points="56.2711,-218.496 45.7084,-217.672 53.4519,-224.903 56.2711,-218.496"/>
</g>
<!-- Node3 -->
<g id="node3" class="node"><title>Node3</title>
<polygon fill="none" stroke="#bfbfbf" points="70.5,-198.5 70.5,-217.5 105.5,-217.5 105.5,-198.5 70.5,-198.5"/>
<text text-anchor="middle" x="88" y="-205.5" font-family="Helvetica,sans-Serif" font-size="10.00">new</text>
</g>
<!-- Node1&#45;&gt;Node3 -->
<g id="edge2" class="edge"><title>Node1&#45;&gt;Node3</title>
<path fill="none" stroke="midnightblue" d="M169.472,-260.953C148.565,-247.621 126.078,-233.282 110.036,-223.052"/>
<polygon fill="midnightblue" stroke="midnightblue" points="111.71,-219.968 101.397,-217.543 107.946,-225.871 111.71,-219.968"/>
</g>
<!-- Node4 -->
<g id="node4" class="node"><title>Node4</title>
<polygon fill="none" stroke="#bfbfbf" points="124,-198.5 124,-217.5 186,-217.5 186,-198.5 124,-198.5"/>
<text text-anchor="middle" x="155" y="-205.5" font-family="Helvetica,sans-Serif" font-size="10.00">type_traits</text>
</g>
<!-- Node1&#45;&gt;Node4 -->
<g id="edge3" class="edge"><title>Node1&#45;&gt;Node4</title>
<path fill="none" stroke="midnightblue" d="M196.917,-260.953C186.965,-248.618 176.316,-235.42 168.243,-225.413"/>
<polygon fill="midnightblue" stroke="midnightblue" points="170.896,-223.128 161.893,-217.543 165.448,-227.523 170.896,-223.128"/>
</g>
<!-- Node5 -->
<g id="node5" class="node"><title>Node5</title>
<polygon fill="none" stroke="#bfbfbf" points="204,-198.5 204,-217.5 248,-217.5 248,-198.5 204,-198.5"/>
<text text-anchor="middle" x="226" y="-205.5" font-family="Helvetica,sans-Serif" font-size="10.00">vector</text>
</g>
<!-- Node1&#45;&gt;Node5 -->
<g id="edge4" class="edge"><title>Node1&#45;&gt;Node5</title>
<path fill="none" stroke="midnightblue" d="M226,-260.953C226,-249.49 226,-237.282 226,-227.583"/>
<polygon fill="midnightblue" stroke="midnightblue" points="229.5,-227.543 226,-217.543 222.5,-227.543 229.5,-227.543"/>
</g>
<!-- Node6 -->
<g id="node6" class="node"><title>Node6</title>
<g id="a_node6"><a xlink:href="../../df/d3d/Definitions_8h.html" target="_top" xlink:title="ITSReconstruction/CA\l/Definitions.h">
<polygon fill="none" stroke="black" points="304,-57 304,-87 420,-87 420,-57 304,-57"/>
<text text-anchor="start" x="312" y="-75" font-family="Helvetica,sans-Serif" font-size="10.00">ITSReconstruction/CA</text>
<text text-anchor="middle" x="362" y="-64" font-family="Helvetica,sans-Serif" font-size="10.00">/Definitions.h</text>
</a>
</g>
</g>
<!-- Node1&#45;&gt;Node6 -->
<g id="edge5" class="edge"><title>Node1&#45;&gt;Node6</title>
<path fill="none" stroke="midnightblue" d="M241.084,-260.664C245.895,-248.975 251.212,-235.957 256,-224 273.734,-179.714 266.281,-162.092 295,-124 304.135,-111.883 316.878,-101.207 328.801,-92.7963"/>
<polygon fill="midnightblue" stroke="midnightblue" points="330.939,-95.5758 337.274,-87.0836 327.026,-89.7717 330.939,-95.5758"/>
</g>
<!-- Node8 -->
<g id="node8" class="node"><title>Node8</title>
<g id="a_node8"><a xlink:href="../../de/dd1/Stream_8h.html" target="_top" xlink:title="ITSReconstruction/CA\l/gpu/Stream.h">
<polygon fill="none" stroke="black" points="304,-125 304,-155 420,-155 420,-125 304,-125"/>
<text text-anchor="start" x="312" y="-143" font-family="Helvetica,sans-Serif" font-size="10.00">ITSReconstruction/CA</text>
<text text-anchor="middle" x="362" y="-132" font-family="Helvetica,sans-Serif" font-size="10.00">/gpu/Stream.h</text>
</a>
</g>
</g>
<!-- Node1&#45;&gt;Node8 -->
<g id="edge7" class="edge"><title>Node1&#45;&gt;Node8</title>
<path fill="none" stroke="midnightblue" d="M257.94,-260.644C268.192,-248.955 279.587,-235.941 290,-224 308.101,-203.243 328.686,-179.5 343.195,-162.741"/>
<polygon fill="midnightblue" stroke="midnightblue" points="345.895,-164.97 349.793,-155.118 340.602,-160.389 345.895,-164.97"/>
</g>
<!-- Node9 -->
<g id="node9" class="node"><title>Node9</title>
<g id="a_node9"><a xlink:href="../../df/d55/Detectors_2ITSMFT_2ITS_2reconstruction_2include_2ITSReconstruction_2CA_2gpu_2Utils_8h.html" target="_top" xlink:title="ITSReconstruction/CA\l/gpu/Utils.h">
<polygon fill="none" stroke="black" points="342,-193 342,-223 458,-223 458,-193 342,-193"/>
<text text-anchor="start" x="350" y="-211" font-family="Helvetica,sans-Serif" font-size="10.00">ITSReconstruction/CA</text>
<text text-anchor="middle" x="400" y="-200" font-family="Helvetica,sans-Serif" font-size="10.00">/gpu/Utils.h</text>
</a>
</g>
</g>
<!-- Node1&#45;&gt;Node9 -->
<g id="edge9" class="edge"><title>Node1&#45;&gt;Node9</title>
<path fill="none" stroke="midnightblue" d="M294.769,-262.22C318.059,-250.442 343.173,-237.74 363.024,-227.7"/>
<polygon fill="midnightblue" stroke="midnightblue" points="364.688,-230.781 372.032,-223.145 361.529,-224.535 364.688,-230.781"/>
</g>
<!-- Node7 -->
<g id="node7" class="node"><title>Node7</title>
<polygon fill="none" stroke="#bfbfbf" points="343,-0.5 343,-19.5 381,-19.5 381,-0.5 343,-0.5"/>
<text text-anchor="middle" x="362" y="-7.5" font-family="Helvetica,sans-Serif" font-size="10.00">array</text>
</g>
<!-- Node6&#45;&gt;Node7 -->
<g id="edge6" class="edge"><title>Node6&#45;&gt;Node7</title>
<path fill="none" stroke="midnightblue" d="M362,-56.7808C362,-48.7812 362,-38.6887 362,-30.0168"/>
<polygon fill="midnightblue" stroke="midnightblue" points="365.5,-29.7305 362,-19.7305 358.5,-29.7306 365.5,-29.7305"/>
</g>
<!-- Node8&#45;&gt;Node6 -->
<g id="edge8" class="edge"><title>Node8&#45;&gt;Node6</title>
<path fill="none" stroke="midnightblue" d="M362,-124.679C362,-116.722 362,-106.605 362,-97.4356"/>
<polygon fill="midnightblue" stroke="midnightblue" points="365.5,-97.293 362,-87.2931 358.5,-97.2931 365.5,-97.293"/>
</g>
<!-- Node9&#45;&gt;Node6 -->
<g id="edge10" class="edge"><title>Node9&#45;&gt;Node6</title>
<path fill="none" stroke="midnightblue" d="M411.428,-192.751C423.497,-175.852 439.328,-147.07 428,-124 421.744,-111.26 410.603,-100.799 399.236,-92.7401"/>
<polygon fill="midnightblue" stroke="midnightblue" points="400.855,-89.6158 390.576,-87.0475 397.009,-95.4652 400.855,-89.6158"/>
</g>
<!-- Node9&#45;&gt;Node8 -->
<g id="edge11" class="edge"><title>Node9&#45;&gt;Node8</title>
<path fill="none" stroke="midnightblue" d="M391.755,-192.679C386.974,-184.376 380.839,-173.721 375.384,-164.245"/>
<polygon fill="midnightblue" stroke="midnightblue" points="378.252,-162.213 370.229,-155.293 372.186,-165.706 378.252,-162.213"/>
</g>
</g>
</svg>
