<?xml version="1.0" encoding="UTF-8" standalone="no"?>
<!DOCTYPE svg PUBLIC "-//W3C//DTD SVG 1.1//EN"
 "http://www.w3.org/Graphics/SVG/1.1/DTD/svg11.dtd">
<!-- Generated by graphviz version 2.36.0 (20140111.2315)
 -->
<!-- Title: /home/travis/build/AliceO2Group/AliceO2/Steer/test/testInteractionSampler.cxx Pages: 1 -->
<!--zoomable 230 -->
<svg id="main" version="1.1" xmlns="http://www.w3.org/2000/svg" xmlns:xlink="http://www.w3.org/1999/xlink" xml:space="preserve" onload="init(evt)">
<style type="text/css"><![CDATA[
.edge:hover path { stroke: red; }
.edge:hover polygon { stroke: red; fill: red; }
]]></style>
<script type="text/javascript"><![CDATA[
var edges = document.getElementsByTagName('g');
if (edges && edges.length) {
  for (var i=0;i<edges.length;i++) {
    if (edges[i].id.substr(0,4)=='edge') {
      edges[i].setAttribute('class','edge');
    }
  }
}
]]></script>
        <defs>
                <circle id="rim" cx="0" cy="0" r="7"/>
                <circle id="rim2" cx="0" cy="0" r="3.5"/>
                <g id="zoomPlus">
                        <use xlink:href="#rim" fill="#404040">
                                <set attributeName="fill" to="#808080" begin="zoomplus.mouseover" end="zoomplus.mouseout"/>
                        </use>
                        <path d="M-4,0h8M0,-4v8" fill="none" stroke="white" stroke-width="1.5" pointer-events="none"/>
                </g>
                <g id="zoomMin">
                        <use xlink:href="#rim" fill="#404040">
                                <set attributeName="fill" to="#808080" begin="zoomminus.mouseover" end="zoomminus.mouseout"/>
                        </use>
                        <path d="M-4,0h8" fill="none" stroke="white" stroke-width="1.5" pointer-events="none"/>
                </g>
                <g id="dirArrow">
                        <path fill="none" stroke="white" stroke-width="1.5" d="M0,-3.0v7 M-2.5,-0.5L0,-3.0L2.5,-0.5"/>
                </g>
               <g id="resetDef">
                       <use xlink:href="#rim2" fill="#404040">
                               <set attributeName="fill" to="#808080" begin="reset.mouseover" end="reset.mouseout"/>
                       </use>
               </g>
        </defs>

<script type="text/javascript">
var viewWidth = 726;
var viewHeight = 230;
var sectionId = 'dynsection-0';
</script>
<script xlink:href="../../svgpan.js"/>
<svg id="graph" class="graph">
<g id="viewport">
<title>/home/travis/build/AliceO2Group/AliceO2/Steer/test/testInteractionSampler.cxx</title>
<!-- Node1 -->
<g id="node1" class="node"><title>Node1</title>
<polygon fill="#bfbfbf" stroke="black" points="87,-180.5 87,-221.5 269,-221.5 269,-180.5 87,-180.5"/>
<text text-anchor="start" x="95" y="-209.5" font-family="Helvetica,sans-Serif" font-size="10.00">/home/travis/build</text>
<text text-anchor="start" x="95" y="-198.5" font-family="Helvetica,sans-Serif" font-size="10.00">/AliceO2Group/AliceO2</text>
<text text-anchor="middle" x="178" y="-187.5" font-family="Helvetica,sans-Serif" font-size="10.00">/Steer/test/testInteractionSampler.cxx</text>
</g>
<!-- Node2 -->
<g id="node2" class="node"><title>Node2</title>
<polygon fill="none" stroke="#bfbfbf" points="0,-124.5 0,-143.5 56,-143.5 56,-124.5 0,-124.5"/>
<text text-anchor="middle" x="28" y="-131.5" font-family="Helvetica,sans-Serif" font-size="10.00">algorithm</text>
</g>
<!-- Node1&#45;&gt;Node2 -->
<g id="edge1" class="edge"><title>Node1&#45;&gt;Node2</title>
<path fill="none" stroke="midnightblue" d="M132.995,-180.498C108.449,-169.861 78.7716,-157.001 57.2395,-147.67"/>
<polygon fill="midnightblue" stroke="midnightblue" points="58.5345,-144.417 47.9673,-143.652 55.7512,-150.84 58.5345,-144.417"/>
</g>
<!-- Node3 -->
<g id="node3" class="node"><title>Node3</title>
<polygon fill="none" stroke="#bfbfbf" points="74.5,-124.5 74.5,-143.5 193.5,-143.5 193.5,-124.5 74.5,-124.5"/>
<text text-anchor="middle" x="134" y="-131.5" font-family="Helvetica,sans-Serif" font-size="10.00">boost/test/unit_test.hpp</text>
</g>
<!-- Node1&#45;&gt;Node3 -->
<g id="edge2" class="edge"><title>Node1&#45;&gt;Node3</title>
<path fill="none" stroke="midnightblue" d="M164.799,-180.498C158.701,-171.49 151.524,-160.888 145.633,-152.185"/>
<polygon fill="midnightblue" stroke="midnightblue" points="148.361,-149.972 139.857,-143.652 142.564,-153.896 148.361,-149.972"/>
</g>
<!-- Node4 -->
<g id="node4" class="node"><title>Node4</title>
<g id="a_node4"><a xlink:href="../../d9/d80/InteractionRecord_8h.html" target="_top" xlink:title="CommonDataFormat/Interaction\lRecord.h">
<polygon fill="none" stroke="black" points="111.5,-57 111.5,-87 268.5,-87 268.5,-57 111.5,-57"/>
<text text-anchor="start" x="119.5" y="-75" font-family="Helvetica,sans-Serif" font-size="10.00">CommonDataFormat/Interaction</text>
<text text-anchor="middle" x="190" y="-64" font-family="Helvetica,sans-Serif" font-size="10.00">Record.h</text>
</a>
</g>
</g>
<!-- Node1&#45;&gt;Node4 -->
<g id="edge3" class="edge"><title>Node1&#45;&gt;Node4</title>
<path fill="none" stroke="midnightblue" d="M188.71,-180.423C193.833,-169.952 199.405,-156.641 202,-144 205.205,-128.386 202.241,-110.714 198.458,-96.9062"/>
<polygon fill="midnightblue" stroke="midnightblue" points="201.761,-95.7408 195.494,-87.1989 195.066,-97.7851 201.761,-95.7408"/>
</g>
<!-- Node9 -->
<g id="node9" class="node"><title>Node9</title>
<g id="a_node9"><a xlink:href="../../df/dff/InteractionSampler_8h.html" target="_top" xlink:title="Steer/InteractionSampler.h">
<polygon fill="none" stroke="black" points="313.5,-124.5 313.5,-143.5 446.5,-143.5 446.5,-124.5 313.5,-124.5"/>
<text text-anchor="middle" x="380" y="-131.5" font-family="Helvetica,sans-Serif" font-size="10.00">Steer/InteractionSampler.h</text>
</a>
</g>
</g>
<!-- Node1&#45;&gt;Node9 -->
<g id="edge8" class="edge"><title>Node1&#45;&gt;Node9</title>
<path fill="none" stroke="midnightblue" d="M238.607,-180.498C272.808,-169.493 314.408,-156.106 343.6,-146.713"/>
<polygon fill="midnightblue" stroke="midnightblue" points="344.929,-149.962 353.376,-143.567 342.785,-143.299 344.929,-149.962"/>
</g>
<!-- Node5 -->
<g id="node5" class="node"><title>Node5</title>
<polygon fill="none" stroke="#bfbfbf" points="37,-0.5 37,-19.5 93,-19.5 93,-0.5 37,-0.5"/>
<text text-anchor="middle" x="65" y="-7.5" font-family="Helvetica,sans-Serif" font-size="10.00">Rtypes.h</text>
</g>
<!-- Node4&#45;&gt;Node5 -->
<g id="edge4" class="edge"><title>Node4&#45;&gt;Node5</title>
<path fill="none" stroke="midnightblue" d="M160.693,-56.9327C139.981,-46.9907 112.417,-33.7601 92.193,-24.0526"/>
<polygon fill="midnightblue" stroke="midnightblue" points="93.4465,-20.7721 82.9167,-19.6 90.4174,-27.0827 93.4465,-20.7721"/>
</g>
<!-- Node6 -->
<g id="node6" class="node"><title>Node6</title>
<polygon fill="none" stroke="#bfbfbf" points="111.5,-0.5 111.5,-19.5 156.5,-19.5 156.5,-0.5 111.5,-0.5"/>
<text text-anchor="middle" x="134" y="-7.5" font-family="Helvetica,sans-Serif" font-size="10.00">iosfwd</text>
</g>
<!-- Node4&#45;&gt;Node6 -->
<g id="edge5" class="edge"><title>Node4&#45;&gt;Node6</title>
<path fill="none" stroke="midnightblue" d="M176.729,-56.7808C168.424,-47.8824 157.701,-36.3943 149.076,-27.1524"/>
<polygon fill="midnightblue" stroke="midnightblue" points="151.53,-24.653 142.148,-19.7305 146.413,-29.4292 151.53,-24.653"/>
</g>
<!-- Node7 -->
<g id="node7" class="node"><title>Node7</title>
<polygon fill="none" stroke="#bfbfbf" points="175,-0.5 175,-19.5 219,-19.5 219,-0.5 175,-0.5"/>
<text text-anchor="middle" x="197" y="-7.5" font-family="Helvetica,sans-Serif" font-size="10.00">cmath</text>
</g>
<!-- Node4&#45;&gt;Node7 -->
<g id="edge6" class="edge"><title>Node4&#45;&gt;Node7</title>
<path fill="none" stroke="midnightblue" d="M191.659,-56.7808C192.603,-48.6913 193.796,-38.4617 194.815,-29.725"/>
<polygon fill="midnightblue" stroke="midnightblue" points="198.299,-30.0688 195.981,-19.7305 191.346,-29.2576 198.299,-30.0688"/>
</g>
<!-- Node8 -->
<g id="node8" class="node"><title>Node8</title>
<g id="a_node8"><a xlink:href="../../d4/dc6/LHCConstants_8h.html" target="_top" xlink:title="Header to collect LHC related constants. ">
<polygon fill="none" stroke="black" points="237,-0.5 237,-19.5 415,-19.5 415,-0.5 237,-0.5"/>
<text text-anchor="middle" x="326" y="-7.5" font-family="Helvetica,sans-Serif" font-size="10.00">CommonConstants/LHCConstants.h</text>
</a>
</g>
</g>
<!-- Node4&#45;&gt;Node8 -->
<g id="edge7" class="edge"><title>Node4&#45;&gt;Node8</title>
<path fill="none" stroke="midnightblue" d="M221.886,-56.9327C244.728,-46.8552 275.23,-33.3986 297.31,-23.6575"/>
<polygon fill="midnightblue" stroke="midnightblue" points="298.77,-26.8387 306.507,-19.6 295.945,-20.4343 298.77,-26.8387"/>
</g>
<!-- Node9&#45;&gt;Node4 -->
<g id="edge13" class="edge"><title>Node9&#45;&gt;Node4</title>
<path fill="none" stroke="midnightblue" d="M352.778,-124.403C324.546,-115.488 279.651,-101.311 244.155,-90.1014"/>
<polygon fill="midnightblue" stroke="midnightblue" points="245.003,-86.6992 234.413,-87.0253 242.895,-93.3742 245.003,-86.6992"/>
</g>
<!-- Node9&#45;&gt;Node5 -->
<g id="edge9" class="edge"><title>Node9&#45;&gt;Node5</title>
<path fill="none" stroke="midnightblue" d="M313.456,-129.255C242.072,-124.034 134.558,-112.325 102,-88 83.1086,-73.8856 73.4109,-47.6006 68.774,-29.7079"/>
<polygon fill="midnightblue" stroke="midnightblue" points="72.1559,-28.7969 66.504,-19.8355 65.334,-30.3656 72.1559,-28.7969"/>
</g>
<!-- Node9&#45;&gt;Node8 -->
<g id="edge17" class="edge"><title>Node9&#45;&gt;Node8</title>
<path fill="none" stroke="midnightblue" d="M358.517,-124.36C343.608,-117.09 324.889,-105.117 316,-88 306.419,-69.5504 312.01,-45.3857 317.971,-29.0872"/>
<polygon fill="midnightblue" stroke="midnightblue" points="321.282,-30.2346 321.786,-19.6517 314.793,-27.6108 321.282,-30.2346"/>
</g>
<!-- Node10 -->
<g id="node10" class="node"><title>Node10</title>
<polygon fill="none" stroke="#bfbfbf" points="516.5,-62.5 516.5,-81.5 569.5,-81.5 569.5,-62.5 516.5,-62.5"/>
<text text-anchor="middle" x="543" y="-69.5" font-family="Helvetica,sans-Serif" font-size="10.00">TMath.h</text>
</g>
<!-- Node9&#45;&gt;Node10 -->
<g id="edge10" class="edge"><title>Node9&#45;&gt;Node10</title>
<path fill="none" stroke="midnightblue" d="M405.449,-124.437C431.196,-115.667 472.074,-101.452 507,-88 509.105,-87.1893 511.271,-86.3356 513.448,-85.4638"/>
<polygon fill="midnightblue" stroke="midnightblue" points="514.962,-88.626 522.895,-81.6032 512.314,-82.1462 514.962,-88.626"/>
</g>
<!-- Node11 -->
<g id="node11" class="node"><title>Node11</title>
<polygon fill="none" stroke="#bfbfbf" points="588,-62.5 588,-81.5 656,-81.5 656,-62.5 588,-62.5"/>
<text text-anchor="middle" x="622" y="-69.5" font-family="Helvetica,sans-Serif" font-size="10.00">TRandom.h</text>
</g>
<!-- Node9&#45;&gt;Node11 -->
<g id="edge11" class="edge"><title>Node9&#45;&gt;Node11</title>
<path fill="none" stroke="midnightblue" d="M423.591,-124.467C463.932,-116.246 525.428,-102.891 578,-88 581.548,-86.9951 585.23,-85.8712 588.887,-84.7027"/>
<polygon fill="midnightblue" stroke="midnightblue" points="590.001,-88.0209 598.395,-81.5566 587.802,-81.3753 590.001,-88.0209"/>
</g>
<!-- Node12 -->
<g id="node12" class="node"><title>Node12</title>
<polygon fill="none" stroke="#bfbfbf" points="674,-62.5 674,-81.5 718,-81.5 718,-62.5 674,-62.5"/>
<text text-anchor="middle" x="696" y="-69.5" font-family="Helvetica,sans-Serif" font-size="10.00">vector</text>
</g>
<!-- Node9&#45;&gt;Node12 -->
<g id="edge12" class="edge"><title>Node9&#45;&gt;Node12</title>
<path fill="none" stroke="midnightblue" d="M446.629,-128.053C505.207,-122.399 592.223,-110.802 665,-88 667.132,-87.3319 669.303,-86.5391 671.455,-85.6724"/>
<polygon fill="midnightblue" stroke="midnightblue" points="672.915,-88.8534 680.596,-81.5558 670.041,-82.4708 672.915,-88.8534"/>
</g>
<!-- Node13 -->
<g id="node13" class="node"><title>Node13</title>
<g id="a_node13"><a xlink:href="../../d4/d5f/BunchFilling_8h.html" target="_top" xlink:title="CommonDataFormat/BunchFilling.h">
<polygon fill="none" stroke="black" points="325.5,-62.5 325.5,-81.5 498.5,-81.5 498.5,-62.5 325.5,-62.5"/>
<text text-anchor="middle" x="412" y="-69.5" font-family="Helvetica,sans-Serif" font-size="10.00">CommonDataFormat/BunchFilling.h</text>
</a>
</g>
</g>
<!-- Node9&#45;&gt;Node13 -->
<g id="edge14" class="edge"><title>Node9&#45;&gt;Node13</title>
<path fill="none" stroke="midnightblue" d="M384.585,-124.403C389.29,-115.582 396.743,-101.608 402.691,-90.4548"/>
<polygon fill="midnightblue" stroke="midnightblue" points="405.806,-92.0512 407.424,-81.5806 399.63,-88.7571 405.806,-92.0512"/>
</g>
<!-- Node13&#45;&gt;Node8 -->
<g id="edge15" class="edge"><title>Node13&#45;&gt;Node8</title>
<path fill="none" stroke="midnightblue" d="M399.678,-62.4035C385.884,-52.7797 363.301,-37.0242 346.768,-25.4891"/>
<polygon fill="midnightblue" stroke="midnightblue" points="348.503,-22.432 338.299,-19.5806 344.497,-28.1729 348.503,-22.432"/>
</g>
<!-- Node14 -->
<g id="node14" class="node"><title>Node14</title>
<polygon fill="none" stroke="#bfbfbf" points="432.5,-0.5 432.5,-19.5 473.5,-19.5 473.5,-0.5 432.5,-0.5"/>
<text text-anchor="middle" x="453" y="-7.5" font-family="Helvetica,sans-Serif" font-size="10.00">bitset</text>
</g>
<!-- Node13&#45;&gt;Node14 -->
<g id="edge16" class="edge"><title>Node13&#45;&gt;Node14</title>
<path fill="none" stroke="midnightblue" d="M417.874,-62.4035C423.963,-53.4925 433.645,-39.3247 441.303,-28.1177"/>
<polygon fill="midnightblue" stroke="midnightblue" points="444.384,-29.8117 447.137,-19.5806 438.605,-25.8624 444.384,-29.8117"/>
</g>
</g>
</svg>
        <g id="navigator" transform="translate(0 0)" fill="#404254">
                <rect fill="#f2f5e9" fill-opacity="0.5" stroke="#606060" stroke-width=".5" x="0" y="0" width="60" height="60"/>
                <use id="zoomplus" xlink:href="#zoomPlus" x="17" y="9" onmousedown="handleZoom(evt,'in')"/>
                <use id="zoomminus" xlink:href="#zoomMin" x="42" y="9" onmousedown="handleZoom(evt,'out')"/>
                <use id="reset" xlink:href="#resetDef" x="30" y="36" onmousedown="handleReset()"/>
                <g id="arrowUp" xlink:href="#dirArrow" transform="translate(30 24)" onmousedown="handlePan(0,-1)">
                  <use xlink:href="#rim" fill="#404040">
                        <set attributeName="fill" to="#808080" begin="arrowUp.mouseover" end="arrowUp.mouseout"/>
                  </use>
                  <path fill="none" stroke="white" stroke-width="1.5" d="M0,-3.0v7 M-2.5,-0.5L0,-3.0L2.5,-0.5"/>
                </g>
                <g id="arrowRight" xlink:href="#dirArrow" transform="rotate(90) translate(36 -43)" onmousedown="handlePan(1,0)">
                  <use xlink:href="#rim" fill="#404040">
                        <set attributeName="fill" to="#808080" begin="arrowRight.mouseover" end="arrowRight.mouseout"/>
                  </use>
                  <path fill="none" stroke="white" stroke-width="1.5" d="M0,-3.0v7 M-2.5,-0.5L0,-3.0L2.5,-0.5"/>
                </g>
                <g id="arrowDown" xlink:href="#dirArrow" transform="rotate(180) translate(-30 -48)" onmousedown="handlePan(0,1)">
                  <use xlink:href="#rim" fill="#404040">
                        <set attributeName="fill" to="#808080" begin="arrowDown.mouseover" end="arrowDown.mouseout"/>
                  </use>
                  <path fill="none" stroke="white" stroke-width="1.5" d="M0,-3.0v7 M-2.5,-0.5L0,-3.0L2.5,-0.5"/>
                </g>
                <g id="arrowLeft" xlink:href="#dirArrow" transform="rotate(270) translate(-36 17)" onmousedown="handlePan(-1,0)">
                  <use xlink:href="#rim" fill="#404040">
                        <set attributeName="fill" to="#808080" begin="arrowLeft.mouseover" end="arrowLeft.mouseout"/>
                  </use>
                  <path fill="none" stroke="white" stroke-width="1.5" d="M0,-3.0v7 M-2.5,-0.5L0,-3.0L2.5,-0.5"/>
                </g>
        </g>
        <svg viewBox="0 0 15 15" width="100%" height="30px" preserveAspectRatio="xMaxYMin meet">
         <g id="arrow_out" transform="scale(0.3 0.3)">
          <a xlink:href="testInteractionSampler_8cxx__incl_org.svg" target="_base">
           <rect id="button" ry="5" rx="5" y="6" x="6" height="38" width="38"
                fill="#f2f5e9" fill-opacity="0.5" stroke="#606060" stroke-width="1.0"/>
           <path id="arrow"
             d="M 11.500037,31.436501 C 11.940474,20.09759 22.043105,11.32322 32.158766,21.979434 L 37.068811,17.246167 C 37.068811,17.246167 37.088388,32 37.088388,32 L 22.160133,31.978069 C 22.160133,31.978069 26.997745,27.140456 26.997745,27.140456 C 18.528582,18.264221 13.291696,25.230495 11.500037,31.436501 z"
             style="fill:#404040;"/>
          </a>
         </g>
        </svg>
</svg>
