<?xml version="1.0" encoding="UTF-8" standalone="no"?>
<!DOCTYPE svg PUBLIC "-//W3C//DTD SVG 1.1//EN"
 "http://www.w3.org/Graphics/SVG/1.1/DTD/svg11.dtd">
<!-- Generated by graphviz version 2.36.0 (20140111.2315)
 -->
<!-- Title: /home/travis/build/AliceO2Group/AliceO2/Common/SimConfig/src/SimConfig.cxx Pages: 1 -->
<svg width="742pt" height="242pt"
 viewBox="0.00 0.00 742.00 242.00" xmlns="http://www.w3.org/2000/svg" xmlns:xlink="http://www.w3.org/1999/xlink">
<g id="graph0" class="graph" transform="scale(1 1) rotate(0) translate(4 238)">
<title>/home/travis/build/AliceO2Group/AliceO2/Common/SimConfig/src/SimConfig.cxx</title>
<!-- Node1 -->
<g id="node1" class="node"><title>Node1</title>
<polygon fill="#bfbfbf" stroke="black" points="266.5,-181 266.5,-233 391.5,-233 391.5,-181 266.5,-181"/>
<text text-anchor="start" x="274.5" y="-221" font-family="Helvetica,sans-Serif" font-size="10.00">/home/travis/build</text>
<text text-anchor="start" x="274.5" y="-210" font-family="Helvetica,sans-Serif" font-size="10.00">/AliceO2Group/AliceO2</text>
<text text-anchor="start" x="274.5" y="-199" font-family="Helvetica,sans-Serif" font-size="10.00">/Common/SimConfig/src</text>
<text text-anchor="middle" x="329" y="-188" font-family="Helvetica,sans-Serif" font-size="10.00">/SimConfig.cxx</text>
</g>
<!-- Node2 -->
<g id="node2" class="node"><title>Node2</title>
<g id="a_node2"><a xlink:href="../../d4/dee/SimConfig_8h.html" target="_top" xlink:title="SimConfig/SimConfig.h">
<polygon fill="none" stroke="black" points="113.5,-118.5 113.5,-137.5 232.5,-137.5 232.5,-118.5 113.5,-118.5"/>
<text text-anchor="middle" x="173" y="-125.5" font-family="Helvetica,sans-Serif" font-size="10.00">SimConfig/SimConfig.h</text>
</a>
</g>
</g>
<!-- Node1&#45;&gt;Node2 -->
<g id="edge1" class="edge"><title>Node1&#45;&gt;Node2</title>
<path fill="none" stroke="midnightblue" d="M277.92,-180.787C251.72,-167.855 220.902,-152.644 199.473,-142.067"/>
<polygon fill="midnightblue" stroke="midnightblue" points="200.854,-138.845 190.338,-137.558 197.756,-145.122 200.854,-138.845"/>
</g>
<!-- Node4 -->
<g id="node4" class="node"><title>Node4</title>
<polygon fill="none" stroke="#bfbfbf" points="0,-56.5 0,-75.5 134,-75.5 134,-56.5 0,-56.5"/>
<text text-anchor="middle" x="67" y="-63.5" font-family="Helvetica,sans-Serif" font-size="10.00">boost/program_options.hpp</text>
</g>
<!-- Node1&#45;&gt;Node4 -->
<g id="edge15" class="edge"><title>Node1&#45;&gt;Node4</title>
<path fill="none" stroke="midnightblue" d="M266.478,-202.647C217.346,-197.008 149.791,-182.247 104,-144 86.0718,-129.025 76.1987,-103.331 71.2552,-85.7754"/>
<polygon fill="midnightblue" stroke="midnightblue" points="74.5289,-84.4448 68.6834,-75.6085 67.7427,-86.1615 74.5289,-84.4448"/>
</g>
<!-- Node5 -->
<g id="node5" class="node"><title>Node5</title>
<g id="a_node5"><a xlink:href="../../d6/d31/DetID_8h.html" target="_top" xlink:title="DetectorsCommonDataFormats\l/DetID.h">
<polygon fill="none" stroke="black" points="251,-113 251,-143 407,-143 407,-113 251,-113"/>
<text text-anchor="start" x="259" y="-131" font-family="Helvetica,sans-Serif" font-size="10.00">DetectorsCommonDataFormats</text>
<text text-anchor="middle" x="329" y="-120" font-family="Helvetica,sans-Serif" font-size="10.00">/DetID.h</text>
</a>
</g>
</g>
<!-- Node1&#45;&gt;Node5 -->
<g id="edge4" class="edge"><title>Node1&#45;&gt;Node5</title>
<path fill="none" stroke="midnightblue" d="M329,-180.787C329,-172.029 329,-162.225 329,-153.523"/>
<polygon fill="midnightblue" stroke="midnightblue" points="332.5,-153.252 329,-143.252 325.5,-153.252 332.5,-153.252"/>
</g>
<!-- Node14 -->
<g id="node14" class="node"><title>Node14</title>
<polygon fill="none" stroke="#bfbfbf" points="425,-118.5 425,-137.5 479,-137.5 479,-118.5 425,-118.5"/>
<text text-anchor="middle" x="452" y="-125.5" font-family="Helvetica,sans-Serif" font-size="10.00">iostream</text>
</g>
<!-- Node1&#45;&gt;Node14 -->
<g id="edge16" class="edge"><title>Node1&#45;&gt;Node14</title>
<path fill="none" stroke="midnightblue" d="M369.275,-180.787C389.374,-168.205 412.921,-153.464 429.741,-142.934"/>
<polygon fill="midnightblue" stroke="midnightblue" points="431.711,-145.831 438.33,-137.558 427.997,-139.897 431.711,-145.831"/>
</g>
<!-- Node15 -->
<g id="node15" class="node"><title>Node15</title>
<polygon fill="none" stroke="#bfbfbf" points="497.5,-118.5 497.5,-137.5 568.5,-137.5 568.5,-118.5 497.5,-118.5"/>
<text text-anchor="middle" x="533" y="-125.5" font-family="Helvetica,sans-Serif" font-size="10.00">FairLogger.h</text>
</g>
<!-- Node1&#45;&gt;Node15 -->
<g id="edge17" class="edge"><title>Node1&#45;&gt;Node15</title>
<path fill="none" stroke="midnightblue" d="M391.593,-182.374C427.634,-168.771 471.431,-152.239 500.643,-141.213"/>
<polygon fill="midnightblue" stroke="midnightblue" points="502.211,-144.362 510.331,-137.557 499.739,-137.813 502.211,-144.362"/>
</g>
<!-- Node3 -->
<g id="node3" class="node"><title>Node3</title>
<polygon fill="none" stroke="#bfbfbf" points="152,-56.5 152,-75.5 208,-75.5 208,-56.5 152,-56.5"/>
<text text-anchor="middle" x="180" y="-63.5" font-family="Helvetica,sans-Serif" font-size="10.00">Rtypes.h</text>
</g>
<!-- Node2&#45;&gt;Node3 -->
<g id="edge2" class="edge"><title>Node2&#45;&gt;Node3</title>
<path fill="none" stroke="midnightblue" d="M174.003,-118.403C174.991,-109.938 176.532,-96.7283 177.804,-85.8199"/>
<polygon fill="midnightblue" stroke="midnightblue" points="181.316,-85.9188 178.999,-75.5806 174.364,-85.1076 181.316,-85.9188"/>
</g>
<!-- Node2&#45;&gt;Node4 -->
<g id="edge3" class="edge"><title>Node2&#45;&gt;Node4</title>
<path fill="none" stroke="midnightblue" d="M157.813,-118.403C140.338,-108.512 111.421,-92.1442 90.9168,-80.5378"/>
<polygon fill="midnightblue" stroke="midnightblue" points="92.5857,-77.4607 82.159,-75.5806 89.1375,-83.5525 92.5857,-77.4607"/>
</g>
<!-- Node5&#45;&gt;Node3 -->
<g id="edge5" class="edge"><title>Node5&#45;&gt;Node3</title>
<path fill="none" stroke="midnightblue" d="M294.066,-112.933C268.816,-102.765 235.023,-89.157 210.784,-79.3963"/>
<polygon fill="midnightblue" stroke="midnightblue" points="211.94,-76.0888 201.357,-75.6 209.325,-82.5821 211.94,-76.0888"/>
</g>
<!-- Node6 -->
<g id="node6" class="node"><title>Node6</title>
<polygon fill="none" stroke="#bfbfbf" points="360,-0.5 360,-19.5 398,-19.5 398,-0.5 360,-0.5"/>
<text text-anchor="middle" x="379" y="-7.5" font-family="Helvetica,sans-Serif" font-size="10.00">array</text>
</g>
<!-- Node5&#45;&gt;Node6 -->
<g id="edge6" class="edge"><title>Node5&#45;&gt;Node6</title>
<path fill="none" stroke="midnightblue" d="M295.88,-112.99C269.433,-99.7224 239.212,-78.5254 255,-56 276.307,-25.6015 320.345,-15.6572 349.786,-12.452"/>
<polygon fill="midnightblue" stroke="midnightblue" points="350.254,-15.9243 359.904,-11.5506 349.632,-8.9519 350.254,-15.9243"/>
</g>
<!-- Node7 -->
<g id="node7" class="node"><title>Node7</title>
<polygon fill="none" stroke="#bfbfbf" points="264.5,-56.5 264.5,-75.5 305.5,-75.5 305.5,-56.5 264.5,-56.5"/>
<text text-anchor="middle" x="285" y="-63.5" font-family="Helvetica,sans-Serif" font-size="10.00">bitset</text>
</g>
<!-- Node5&#45;&gt;Node7 -->
<g id="edge7" class="edge"><title>Node5&#45;&gt;Node7</title>
<path fill="none" stroke="midnightblue" d="M318.573,-112.781C312.245,-104.152 304.131,-93.0882 297.466,-83.9987"/>
<polygon fill="midnightblue" stroke="midnightblue" points="300.138,-81.7248 291.402,-75.7305 294.494,-85.8644 300.138,-81.7248"/>
</g>
<!-- Node8 -->
<g id="node8" class="node"><title>Node8</title>
<polygon fill="none" stroke="#bfbfbf" points="323.5,-56.5 323.5,-75.5 372.5,-75.5 372.5,-56.5 323.5,-56.5"/>
<text text-anchor="middle" x="348" y="-63.5" font-family="Helvetica,sans-Serif" font-size="10.00">cassert</text>
</g>
<!-- Node5&#45;&gt;Node8 -->
<g id="edge8" class="edge"><title>Node5&#45;&gt;Node8</title>
<path fill="none" stroke="midnightblue" d="M333.503,-112.781C336.093,-104.601 339.376,-94.2341 342.162,-85.4344"/>
<polygon fill="midnightblue" stroke="midnightblue" points="345.553,-86.3206 345.235,-75.7305 338.88,-84.2073 345.553,-86.3206"/>
</g>
<!-- Node9 -->
<g id="node9" class="node"><title>Node9</title>
<polygon fill="none" stroke="#bfbfbf" points="391,-56.5 391,-75.5 437,-75.5 437,-56.5 391,-56.5"/>
<text text-anchor="middle" x="414" y="-63.5" font-family="Helvetica,sans-Serif" font-size="10.00">cstdint</text>
</g>
<!-- Node5&#45;&gt;Node9 -->
<g id="edge9" class="edge"><title>Node5&#45;&gt;Node9</title>
<path fill="none" stroke="midnightblue" d="M349.144,-112.781C362.595,-103.286 380.222,-90.8434 393.704,-81.3267"/>
<polygon fill="midnightblue" stroke="midnightblue" points="395.728,-84.182 401.879,-75.5557 391.691,-78.4632 395.728,-84.182"/>
</g>
<!-- Node10 -->
<g id="node10" class="node"><title>Node10</title>
<polygon fill="none" stroke="#bfbfbf" points="455,-56.5 455,-75.5 517,-75.5 517,-56.5 455,-56.5"/>
<text text-anchor="middle" x="486" y="-63.5" font-family="Helvetica,sans-Serif" font-size="10.00">type_traits</text>
</g>
<!-- Node5&#45;&gt;Node10 -->
<g id="edge10" class="edge"><title>Node5&#45;&gt;Node10</title>
<path fill="none" stroke="midnightblue" d="M365.81,-112.933C392.534,-102.72 428.339,-89.036 453.903,-79.2664"/>
<polygon fill="midnightblue" stroke="midnightblue" points="455.405,-82.4393 463.497,-75.6 452.906,-75.9005 455.405,-82.4393"/>
</g>
<!-- Node11 -->
<g id="node11" class="node"><title>Node11</title>
<g id="a_node11"><a xlink:href="../../d9/d52/Common_2MathUtils_2include_2MathUtils_2Utils_8h.html" target="_top" xlink:title="MathUtils/Utils.h">
<polygon fill="none" stroke="black" points="535,-56.5 535,-75.5 625,-75.5 625,-56.5 535,-56.5"/>
<text text-anchor="middle" x="580" y="-63.5" font-family="Helvetica,sans-Serif" font-size="10.00">MathUtils/Utils.h</text>
</a>
</g>
</g>
<!-- Node5&#45;&gt;Node11 -->
<g id="edge11" class="edge"><title>Node5&#45;&gt;Node11</title>
<path fill="none" stroke="midnightblue" d="M387.848,-112.933C432.692,-102.213 493.53,-87.6702 534.642,-77.8427"/>
<polygon fill="midnightblue" stroke="midnightblue" points="535.476,-81.2418 544.389,-75.5127 533.849,-74.4336 535.476,-81.2418"/>
</g>
<!-- Node11&#45;&gt;Node6 -->
<g id="edge12" class="edge"><title>Node11&#45;&gt;Node6</title>
<path fill="none" stroke="midnightblue" d="M548.151,-56.4435C509.6,-46.0866 445.234,-28.7941 408.007,-18.7929"/>
<polygon fill="midnightblue" stroke="midnightblue" points="408.836,-15.3917 398.271,-16.1772 407.02,-22.152 408.836,-15.3917"/>
</g>
<!-- Node12 -->
<g id="node12" class="node"><title>Node12</title>
<polygon fill="none" stroke="#bfbfbf" points="493,-0.5 493,-19.5 537,-19.5 537,-0.5 493,-0.5"/>
<text text-anchor="middle" x="515" y="-7.5" font-family="Helvetica,sans-Serif" font-size="10.00">cmath</text>
</g>
<!-- Node11&#45;&gt;Node12 -->
<g id="edge13" class="edge"><title>Node11&#45;&gt;Node12</title>
<path fill="none" stroke="midnightblue" d="M569.557,-56.324C559.854,-48.2631 545.185,-36.0765 533.5,-26.3695"/>
<polygon fill="midnightblue" stroke="midnightblue" points="535.562,-23.532 525.633,-19.8339 531.089,-28.9163 535.562,-23.532"/>
</g>
<!-- Node13 -->
<g id="node13" class="node"><title>Node13</title>
<g id="a_node13"><a xlink:href="../../d6/d84/MathConstants_8h.html" target="_top" xlink:title="useful math constants ">
<polygon fill="none" stroke="black" points="555.5,-0.5 555.5,-19.5 734.5,-19.5 734.5,-0.5 555.5,-0.5"/>
<text text-anchor="middle" x="645" y="-7.5" font-family="Helvetica,sans-Serif" font-size="10.00">CommonConstants/MathConstants.h</text>
</a>
</g>
</g>
<!-- Node11&#45;&gt;Node13 -->
<g id="edge14" class="edge"><title>Node11&#45;&gt;Node13</title>
<path fill="none" stroke="midnightblue" d="M590.443,-56.324C600.146,-48.2631 614.815,-36.0765 626.5,-26.3695"/>
<polygon fill="midnightblue" stroke="midnightblue" points="628.911,-28.9163 634.367,-19.8339 624.438,-23.532 628.911,-28.9163"/>
</g>
</g>
</svg>
