<?xml version="1.0" encoding="UTF-8" standalone="no"?>
<!DOCTYPE svg PUBLIC "-//W3C//DTD SVG 1.1//EN"
 "http://www.w3.org/Graphics/SVG/1.1/DTD/svg11.dtd">
<!-- Generated by graphviz version 2.36.0 (20140111.2315)
 -->
<!-- Title: /home/travis/build/AliceO2Group/AliceO2/Detectors/MUON/MCH/Mapping/SegContour/src/SegmentationSVGWriter.cxx Pages: 1 -->
<svg width="1398pt" height="602pt"
 viewBox="0.00 0.00 1398.21 602.00" xmlns="http://www.w3.org/2000/svg" xmlns:xlink="http://www.w3.org/1999/xlink">
<g id="graph0" class="graph" transform="scale(1 1) rotate(0) translate(4 598)">
<title>/home/travis/build/AliceO2Group/AliceO2/Detectors/MUON/MCH/Mapping/SegContour/src/SegmentationSVGWriter.cxx</title>
<!-- Node1 -->
<g id="node1" class="node"><title>Node1</title>
<polygon fill="#bfbfbf" stroke="black" points="652.5,-541 652.5,-593 869.5,-593 869.5,-541 652.5,-541"/>
<text text-anchor="start" x="660.5" y="-581" font-family="Helvetica,sans-Serif" font-size="10.00">/home/travis/build</text>
<text text-anchor="start" x="660.5" y="-570" font-family="Helvetica,sans-Serif" font-size="10.00">/AliceO2Group/AliceO2</text>
<text text-anchor="start" x="660.5" y="-559" font-family="Helvetica,sans-Serif" font-size="10.00">/Detectors/MUON/MCH/Mapping</text>
<text text-anchor="middle" x="761" y="-548" font-family="Helvetica,sans-Serif" font-size="10.00">/SegContour/src/SegmentationSVGWriter.cxx</text>
</g>
<!-- Node2 -->
<g id="node2" class="node"><title>Node2</title>
<g id="a_node2"><a xlink:href="../../d5/d3f/SegmentationSVGWriter_8h.html" target="_top" xlink:title="MCHMappingSegContour\l/SegmentationSVGWriter.h">
<polygon fill="none" stroke="black" points="597.5,-473 597.5,-503 732.5,-503 732.5,-473 597.5,-473"/>
<text text-anchor="start" x="605.5" y="-491" font-family="Helvetica,sans-Serif" font-size="10.00">MCHMappingSegContour</text>
<text text-anchor="middle" x="665" y="-480" font-family="Helvetica,sans-Serif" font-size="10.00">/SegmentationSVGWriter.h</text>
</a>
</g>
</g>
<!-- Node1&#45;&gt;Node2 -->
<g id="edge1" class="edge"><title>Node1&#45;&gt;Node2</title>
<path fill="none" stroke="midnightblue" d="M729.566,-540.787C716.859,-530.595 702.387,-518.987 690.369,-509.348"/>
<polygon fill="midnightblue" stroke="midnightblue" points="692.483,-506.557 682.493,-503.031 688.104,-512.018 692.483,-506.557"/>
</g>
<!-- Node4 -->
<g id="node4" class="node"><title>Node4</title>
<g id="a_node4"><a xlink:href="../../de/d51/SVGWriter_8h.html" target="_top" xlink:title="MCHContour/SVGWriter.h">
<polygon fill="none" stroke="black" points="666.5,-416.5 666.5,-435.5 799.5,-435.5 799.5,-416.5 666.5,-416.5"/>
<text text-anchor="middle" x="733" y="-423.5" font-family="Helvetica,sans-Serif" font-size="10.00">MCHContour/SVGWriter.h</text>
</a>
</g>
</g>
<!-- Node1&#45;&gt;Node4 -->
<g id="edge68" class="edge"><title>Node1&#45;&gt;Node4</title>
<path fill="none" stroke="midnightblue" d="M755.929,-540.828C750.406,-513.408 741.7,-470.187 736.756,-445.648"/>
<polygon fill="midnightblue" stroke="midnightblue" points="740.125,-444.644 734.719,-435.532 733.262,-446.026 740.125,-444.644"/>
</g>
<!-- Node19 -->
<g id="node19" class="node"><title>Node19</title>
<polygon fill="none" stroke="#bfbfbf" points="219,-56.5 219,-75.5 271,-75.5 271,-56.5 219,-56.5"/>
<text text-anchor="middle" x="245" y="-63.5" font-family="Helvetica,sans-Serif" font-size="10.00">ostream</text>
</g>
<!-- Node1&#45;&gt;Node19 -->
<g id="edge69" class="edge"><title>Node1&#45;&gt;Node19</title>
<path fill="none" stroke="midnightblue" d="M652.372,-557.272C442.11,-538.911 0,-492.515 0,-427 0,-427 0,-427 0,-177 0,-140.28 19.9958,-131.674 51,-112 111.446,-73.6428 138.329,-92.4604 208,-76 208.326,-75.923 208.653,-75.8456 208.982,-75.7678"/>
<polygon fill="midnightblue" stroke="midnightblue" points="209.823,-79.1654 218.734,-73.4344 208.194,-72.3576 209.823,-79.1654"/>
</g>
<!-- Node29 -->
<g id="node29" class="node"><title>Node29</title>
<g id="a_node29"><a xlink:href="../../d6/d1f/MUON_2MCH_2Mapping_2Interface_2include_2MCHMappingInterface_2Segmentation_8h.html" target="_top" xlink:title="MCHMappingInterface\l/Segmentation.h">
<polygon fill="none" stroke="black" points="1063.5,-225 1063.5,-255 1178.5,-255 1178.5,-225 1063.5,-225"/>
<text text-anchor="start" x="1071.5" y="-243" font-family="Helvetica,sans-Serif" font-size="10.00">MCHMappingInterface</text>
<text text-anchor="middle" x="1121" y="-232" font-family="Helvetica,sans-Serif" font-size="10.00">/Segmentation.h</text>
</a>
</g>
</g>
<!-- Node1&#45;&gt;Node29 -->
<g id="edge55" class="edge"><title>Node1&#45;&gt;Node29</title>
<path fill="none" stroke="midnightblue" d="M869.672,-562.898C964.152,-553.701 1086,-523.194 1086,-427 1086,-427 1086,-427 1086,-369 1086,-331.541 1100.12,-290.029 1110.42,-264.724"/>
<polygon fill="midnightblue" stroke="midnightblue" points="1113.76,-265.815 1114.42,-255.241 1107.31,-263.098 1113.76,-265.815"/>
</g>
<!-- Node32 -->
<g id="node32" class="node"><title>Node32</title>
<g id="a_node32"><a xlink:href="../../dd/d1c/SegmentationContours_8h.html" target="_top" xlink:title="MCHMappingSegContour\l/SegmentationContours.h">
<polygon fill="none" stroke="black" points="807,-293 807,-323 935,-323 935,-293 807,-293"/>
<text text-anchor="start" x="815" y="-311" font-family="Helvetica,sans-Serif" font-size="10.00">MCHMappingSegContour</text>
<text text-anchor="middle" x="871" y="-300" font-family="Helvetica,sans-Serif" font-size="10.00">/SegmentationContours.h</text>
</a>
</g>
</g>
<!-- Node1&#45;&gt;Node32 -->
<g id="edge62" class="edge"><title>Node1&#45;&gt;Node32</title>
<path fill="none" stroke="midnightblue" d="M771.748,-540.89C793.046,-491.129 840.335,-380.645 861.005,-332.353"/>
<polygon fill="midnightblue" stroke="midnightblue" points="864.275,-333.606 864.992,-323.036 857.84,-330.852 864.275,-333.606"/>
</g>
<!-- Node3 -->
<g id="node3" class="node"><title>Node3</title>
<polygon fill="none" stroke="#bfbfbf" points="607.5,-416.5 607.5,-435.5 648.5,-435.5 648.5,-416.5 607.5,-416.5"/>
<text text-anchor="middle" x="628" y="-423.5" font-family="Helvetica,sans-Serif" font-size="10.00">string</text>
</g>
<!-- Node2&#45;&gt;Node3 -->
<g id="edge2" class="edge"><title>Node2&#45;&gt;Node3</title>
<path fill="none" stroke="midnightblue" d="M656.232,-472.781C650.966,-464.242 644.23,-453.318 638.658,-444.283"/>
<polygon fill="midnightblue" stroke="midnightblue" points="641.612,-442.405 633.384,-435.731 635.654,-446.079 641.612,-442.405"/>
</g>
<!-- Node2&#45;&gt;Node4 -->
<g id="edge3" class="edge"><title>Node2&#45;&gt;Node4</title>
<path fill="none" stroke="midnightblue" d="M681.115,-472.781C691.404,-463.703 704.747,-451.929 715.326,-442.595"/>
<polygon fill="midnightblue" stroke="midnightblue" points="717.923,-444.971 723.105,-435.731 713.291,-439.722 717.923,-444.971"/>
</g>
<!-- Node5 -->
<g id="node5" class="node"><title>Node5</title>
<g id="a_node5"><a xlink:href="../../db/d08/Contour_8h.html" target="_top" xlink:title="Contour.h">
<polygon fill="none" stroke="black" points="703.5,-230.5 703.5,-249.5 762.5,-249.5 762.5,-230.5 703.5,-230.5"/>
<text text-anchor="middle" x="733" y="-237.5" font-family="Helvetica,sans-Serif" font-size="10.00">Contour.h</text>
</a>
</g>
</g>
<!-- Node4&#45;&gt;Node5 -->
<g id="edge4" class="edge"><title>Node4&#45;&gt;Node5</title>
<path fill="none" stroke="midnightblue" d="M733,-416.125C733,-387.769 733,-298.93 733,-259.811"/>
<polygon fill="midnightblue" stroke="midnightblue" points="736.5,-259.786 733,-249.786 729.5,-259.786 736.5,-259.786"/>
</g>
<!-- Node8 -->
<g id="node8" class="node"><title>Node8</title>
<polygon fill="none" stroke="#bfbfbf" points="104,-112.5 104,-131.5 144,-131.5 144,-112.5 104,-112.5"/>
<text text-anchor="middle" x="124" y="-119.5" font-family="Helvetica,sans-Serif" font-size="10.00">utility</text>
</g>
<!-- Node4&#45;&gt;Node8 -->
<g id="edge52" class="edge"><title>Node4&#45;&gt;Node8</title>
<path fill="none" stroke="midnightblue" d="M677.279,-416.485C534.738,-394.329 168,-334.816 168,-309 168,-309 168,-309 168,-239 168,-201.85 148.027,-162.104 134.995,-140.123"/>
<polygon fill="midnightblue" stroke="midnightblue" points="137.972,-138.282 129.752,-131.598 132.009,-141.949 137.972,-138.282"/>
</g>
<!-- Node11 -->
<g id="node11" class="node"><title>Node11</title>
<polygon fill="none" stroke="#bfbfbf" points="779,-112.5 779,-131.5 831,-131.5 831,-112.5 779,-112.5"/>
<text text-anchor="middle" x="805" y="-119.5" font-family="Helvetica,sans-Serif" font-size="10.00">sstream</text>
</g>
<!-- Node4&#45;&gt;Node11 -->
<g id="edge28" class="edge"><title>Node4&#45;&gt;Node11</title>
<path fill="none" stroke="midnightblue" d="M735.889,-416.433C738.874,-407.423 743.57,-392.803 747,-380 770.69,-291.585 792.785,-184.355 801.302,-141.753"/>
<polygon fill="midnightblue" stroke="midnightblue" points="804.736,-142.431 803.251,-131.94 797.87,-141.067 804.736,-142.431"/>
</g>
<!-- Node13 -->
<g id="node13" class="node"><title>Node13</title>
<g id="a_node13"><a xlink:href="../../d0/ddc/BBox_8h.html" target="_top" xlink:title="BBox.h">
<polygon fill="none" stroke="black" points="849.5,-112.5 849.5,-131.5 898.5,-131.5 898.5,-112.5 849.5,-112.5"/>
<text text-anchor="middle" x="874" y="-119.5" font-family="Helvetica,sans-Serif" font-size="10.00">BBox.h</text>
</a>
</g>
</g>
<!-- Node4&#45;&gt;Node13 -->
<g id="edge26" class="edge"><title>Node4&#45;&gt;Node13</title>
<path fill="none" stroke="midnightblue" d="M723.823,-416.355C705.688,-398.285 667,-354.414 667,-309 667,-309 667,-309 667,-239 667,-206.334 662.537,-190.728 686,-168 734.219,-121.292 768.593,-146.468 838.965,-131.988"/>
<polygon fill="midnightblue" stroke="midnightblue" points="840.166,-135.304 849.139,-129.67 838.611,-128.479 840.166,-135.304"/>
</g>
<!-- Node15 -->
<g id="node15" class="node"><title>Node15</title>
<polygon fill="none" stroke="#bfbfbf" points="809,-0.5 809,-19.5 853,-19.5 853,-0.5 809,-0.5"/>
<text text-anchor="middle" x="831" y="-7.5" font-family="Helvetica,sans-Serif" font-size="10.00">cmath</text>
</g>
<!-- Node4&#45;&gt;Node15 -->
<g id="edge54" class="edge"><title>Node4&#45;&gt;Node15</title>
<path fill="none" stroke="midnightblue" d="M799.526,-419.42C867.453,-409.649 963,-382.791 963,-309 963,-309 963,-309 963,-239 963,-157.081 1034.14,-121.547 985,-56 970.399,-36.5224 903.948,-22.6647 863.255,-15.8325"/>
<polygon fill="midnightblue" stroke="midnightblue" points="863.697,-12.3584 853.265,-14.2089 862.574,-19.2678 863.697,-12.3584"/>
</g>
<!-- Node4&#45;&gt;Node19 -->
<g id="edge27" class="edge"><title>Node4&#45;&gt;Node19</title>
<path fill="none" stroke="midnightblue" d="M666.273,-417.089C663.138,-416.721 660.035,-416.356 657,-416 518.355,-399.74 38,-448.596 38,-309 38,-309 38,-309 38,-177 38,-142.844 51.5304,-132.299 79,-112 84.3136,-108.074 161.645,-88.0622 208.859,-76.0871"/>
<polygon fill="midnightblue" stroke="midnightblue" points="209.89,-79.4367 218.726,-73.5904 208.173,-72.6506 209.89,-79.4367"/>
</g>
<!-- Node23 -->
<g id="node23" class="node"><title>Node23</title>
<g id="a_node23"><a xlink:href="../../d4/d84/ContourCreator_8h.html" target="_top" xlink:title="ContourCreator.h">
<polygon fill="none" stroke="black" points="507,-360.5 507,-379.5 599,-379.5 599,-360.5 507,-360.5"/>
<text text-anchor="middle" x="553" y="-367.5" font-family="Helvetica,sans-Serif" font-size="10.00">ContourCreator.h</text>
</a>
</g>
</g>
<!-- Node4&#45;&gt;Node23 -->
<g id="edge29" class="edge"><title>Node4&#45;&gt;Node23</title>
<path fill="none" stroke="midnightblue" d="M704.478,-416.444C673.934,-407.28 625.292,-392.688 591.397,-382.519"/>
<polygon fill="midnightblue" stroke="midnightblue" points="591.972,-379.038 581.388,-379.516 589.961,-385.742 591.972,-379.038"/>
</g>
<!-- Node28 -->
<g id="node28" class="node"><title>Node28</title>
<polygon fill="none" stroke="#bfbfbf" points="991,-168.5 991,-187.5 1081,-187.5 1081,-168.5 991,-168.5"/>
<text text-anchor="middle" x="1036" y="-175.5" font-family="Helvetica,sans-Serif" font-size="10.00">boost/format.hpp</text>
</g>
<!-- Node4&#45;&gt;Node28 -->
<g id="edge53" class="edge"><title>Node4&#45;&gt;Node28</title>
<path fill="none" stroke="midnightblue" d="M799.703,-420.472C862.772,-414.85 951.449,-403.043 977,-380 1030.46,-331.792 1036.52,-237.977 1036.52,-197.895"/>
<polygon fill="midnightblue" stroke="midnightblue" points="1040.02,-197.847 1036.39,-187.893 1033.02,-197.939 1040.02,-197.847"/>
</g>
<!-- Node6 -->
<g id="node6" class="node"><title>Node6</title>
<g id="a_node6"><a xlink:href="../../dc/ddd/Polygon_8h.html" target="_top" xlink:title="Polygon.h">
<polygon fill="none" stroke="black" points="579,-168.5 579,-187.5 639,-187.5 639,-168.5 579,-168.5"/>
<text text-anchor="middle" x="609" y="-175.5" font-family="Helvetica,sans-Serif" font-size="10.00">Polygon.h</text>
</a>
</g>
</g>
<!-- Node5&#45;&gt;Node6 -->
<g id="edge5" class="edge"><title>Node5&#45;&gt;Node6</title>
<path fill="none" stroke="midnightblue" d="M715.234,-230.403C694.516,-220.379 660.048,-203.701 636.011,-192.07"/>
<polygon fill="midnightblue" stroke="midnightblue" points="637.259,-188.786 626.733,-187.581 634.21,-195.087 637.259,-188.786"/>
</g>
<!-- Node9 -->
<g id="node9" class="node"><title>Node9</title>
<polygon fill="none" stroke="#bfbfbf" points="618,-56.5 618,-75.5 662,-75.5 662,-56.5 618,-56.5"/>
<text text-anchor="middle" x="640" y="-63.5" font-family="Helvetica,sans-Serif" font-size="10.00">vector</text>
</g>
<!-- Node5&#45;&gt;Node9 -->
<g id="edge23" class="edge"><title>Node5&#45;&gt;Node9</title>
<path fill="none" stroke="midnightblue" d="M762.646,-231.237C823.918,-213.822 954.933,-168.688 907,-112 877.304,-76.8798 737.006,-69.1575 672.539,-67.4682"/>
<polygon fill="midnightblue" stroke="midnightblue" points="672.226,-63.9602 662.148,-67.2314 672.066,-70.9584 672.226,-63.9602"/>
</g>
<!-- Node10 -->
<g id="node10" class="node"><title>Node10</title>
<polygon fill="none" stroke="#bfbfbf" points="687.5,-112.5 687.5,-131.5 760.5,-131.5 760.5,-112.5 687.5,-112.5"/>
<text text-anchor="middle" x="724" y="-119.5" font-family="Helvetica,sans-Serif" font-size="10.00">initializer_list</text>
</g>
<!-- Node5&#45;&gt;Node10 -->
<g id="edge25" class="edge"><title>Node5&#45;&gt;Node10</title>
<path fill="none" stroke="midnightblue" d="M738.697,-230.237C746.696,-216.812 759.58,-190.359 753,-168 749.988,-157.765 743.845,-147.66 737.986,-139.627"/>
<polygon fill="midnightblue" stroke="midnightblue" points="740.586,-137.269 731.673,-131.541 735.068,-141.577 740.586,-137.269"/>
</g>
<!-- Node22 -->
<g id="node22" class="node"><title>Node22</title>
<polygon fill="none" stroke="#bfbfbf" points="695.5,-168.5 695.5,-187.5 744.5,-187.5 744.5,-168.5 695.5,-168.5"/>
<text text-anchor="middle" x="720" y="-175.5" font-family="Helvetica,sans-Serif" font-size="10.00">cassert</text>
</g>
<!-- Node5&#45;&gt;Node22 -->
<g id="edge24" class="edge"><title>Node5&#45;&gt;Node22</title>
<path fill="none" stroke="midnightblue" d="M731.137,-230.403C729.284,-221.849 726.381,-208.45 724.003,-197.476"/>
<polygon fill="midnightblue" stroke="midnightblue" points="727.397,-196.613 721.859,-187.581 720.556,-198.095 727.397,-196.613"/>
</g>
<!-- Node7 -->
<g id="node7" class="node"><title>Node7</title>
<polygon fill="none" stroke="#bfbfbf" points="289,-56.5 289,-75.5 343,-75.5 343,-56.5 289,-56.5"/>
<text text-anchor="middle" x="316" y="-63.5" font-family="Helvetica,sans-Serif" font-size="10.00">iostream</text>
</g>
<!-- Node6&#45;&gt;Node7 -->
<g id="edge6" class="edge"><title>Node6&#45;&gt;Node7</title>
<path fill="none" stroke="midnightblue" d="M605.426,-168.179C599.141,-153.873 584.682,-125.823 563,-112 528.761,-90.1715 413.53,-76.2806 353.332,-70.3356"/>
<polygon fill="midnightblue" stroke="midnightblue" points="353.404,-66.8264 343.114,-69.3507 352.732,-73.7941 353.404,-66.8264"/>
</g>
<!-- Node6&#45;&gt;Node8 -->
<g id="edge7" class="edge"><title>Node6&#45;&gt;Node8</title>
<path fill="none" stroke="midnightblue" d="M578.661,-173.622C491.466,-163.914 240.861,-136.011 154.04,-126.345"/>
<polygon fill="midnightblue" stroke="midnightblue" points="154.381,-122.861 144.055,-125.233 153.606,-129.818 154.381,-122.861"/>
</g>
<!-- Node6&#45;&gt;Node9 -->
<g id="edge8" class="edge"><title>Node6&#45;&gt;Node9</title>
<path fill="none" stroke="midnightblue" d="M615.659,-168.252C621.867,-159.568 630.782,-145.618 635,-132 639.662,-116.949 640.732,-99.0444 640.738,-85.8417"/>
<polygon fill="midnightblue" stroke="midnightblue" points="644.233,-85.5671 640.533,-75.6394 637.235,-85.7077 644.233,-85.5671"/>
</g>
<!-- Node6&#45;&gt;Node10 -->
<g id="edge9" class="edge"><title>Node6&#45;&gt;Node10</title>
<path fill="none" stroke="midnightblue" d="M627.222,-168.444C645.896,-159.675 675.156,-145.935 696.617,-135.858"/>
<polygon fill="midnightblue" stroke="midnightblue" points="698.299,-138.935 705.863,-131.516 695.324,-132.599 698.299,-138.935"/>
</g>
<!-- Node6&#45;&gt;Node11 -->
<g id="edge10" class="edge"><title>Node6&#45;&gt;Node11</title>
<path fill="none" stroke="midnightblue" d="M639.195,-168.681C674.138,-159.054 731.639,-143.212 768.909,-132.943"/>
<polygon fill="midnightblue" stroke="midnightblue" points="770.138,-136.235 778.849,-130.205 768.279,-129.487 770.138,-136.235"/>
</g>
<!-- Node12 -->
<g id="node12" class="node"><title>Node12</title>
<polygon fill="none" stroke="#bfbfbf" points="499,-112.5 499,-131.5 555,-131.5 555,-112.5 499,-112.5"/>
<text text-anchor="middle" x="527" y="-119.5" font-family="Helvetica,sans-Serif" font-size="10.00">algorithm</text>
</g>
<!-- Node6&#45;&gt;Node12 -->
<g id="edge11" class="edge"><title>Node6&#45;&gt;Node12</title>
<path fill="none" stroke="midnightblue" d="M595.825,-168.324C583.153,-159.979 563.767,-147.212 548.794,-137.352"/>
<polygon fill="midnightblue" stroke="midnightblue" points="550.419,-134.231 540.142,-131.655 546.569,-140.078 550.419,-134.231"/>
</g>
<!-- Node6&#45;&gt;Node13 -->
<g id="edge12" class="edge"><title>Node6&#45;&gt;Node13</title>
<path fill="none" stroke="midnightblue" d="M639.287,-170.757C643.88,-169.824 648.564,-168.881 653,-168 732.936,-152.131 755.808,-150.912 839.243,-132.046"/>
<polygon fill="midnightblue" stroke="midnightblue" points="840.194,-135.419 849.166,-129.784 838.639,-128.594 840.194,-135.419"/>
</g>
<!-- Node20 -->
<g id="node20" class="node"><title>Node20</title>
<g id="a_node20"><a xlink:href="../../dd/dbc/Detectors_2MUON_2MCH_2Contour_2include_2MCHContour_2Vertex_8h.html" target="_top" xlink:title="Vertex.h">
<polygon fill="none" stroke="black" points="276.5,-112.5 276.5,-131.5 329.5,-131.5 329.5,-112.5 276.5,-112.5"/>
<text text-anchor="middle" x="303" y="-119.5" font-family="Helvetica,sans-Serif" font-size="10.00">Vertex.h</text>
</a>
</g>
</g>
<!-- Node6&#45;&gt;Node20 -->
<g id="edge19" class="edge"><title>Node6&#45;&gt;Node20</title>
<path fill="none" stroke="midnightblue" d="M578.763,-172.858C530.291,-166.028 432.022,-151.405 339.756,-132.234"/>
<polygon fill="midnightblue" stroke="midnightblue" points="340.203,-128.751 329.697,-130.12 338.763,-135.602 340.203,-128.751"/>
</g>
<!-- Node14 -->
<g id="node14" class="node"><title>Node14</title>
<g id="a_node14"><a xlink:href="../../d2/dc4/Helper_8h.html" target="_top" xlink:title="Helper.h">
<polygon fill="none" stroke="black" points="463.5,-56.5 463.5,-75.5 516.5,-75.5 516.5,-56.5 463.5,-56.5"/>
<text text-anchor="middle" x="490" y="-63.5" font-family="Helvetica,sans-Serif" font-size="10.00">Helper.h</text>
</a>
</g>
</g>
<!-- Node13&#45;&gt;Node14 -->
<g id="edge13" class="edge"><title>Node13&#45;&gt;Node14</title>
<path fill="none" stroke="midnightblue" d="M849.205,-114.035C846.119,-113.287 842.996,-112.587 840,-112 726.665,-89.8129 590.464,-75.9012 526.524,-70.1079"/>
<polygon fill="midnightblue" stroke="midnightblue" points="526.805,-66.6191 516.533,-69.2158 526.182,-73.5914 526.805,-66.6191"/>
</g>
<!-- Node18 -->
<g id="node18" class="node"><title>Node18</title>
<polygon fill="none" stroke="#bfbfbf" points="917.5,-56.5 917.5,-75.5 976.5,-75.5 976.5,-56.5 917.5,-56.5"/>
<text text-anchor="middle" x="947" y="-63.5" font-family="Helvetica,sans-Serif" font-size="10.00">stdexcept</text>
</g>
<!-- Node13&#45;&gt;Node18 -->
<g id="edge17" class="edge"><title>Node13&#45;&gt;Node18</title>
<path fill="none" stroke="midnightblue" d="M885.729,-112.324C896.837,-104.107 913.742,-91.6017 926.983,-81.8069"/>
<polygon fill="midnightblue" stroke="midnightblue" points="929.1,-84.5948 935.058,-75.8339 924.937,-78.9671 929.1,-84.5948"/>
</g>
<!-- Node13&#45;&gt;Node19 -->
<g id="edge18" class="edge"><title>Node13&#45;&gt;Node19</title>
<path fill="none" stroke="midnightblue" d="M849.238,-113.849C846.147,-113.133 843.013,-112.491 840,-112 597.087,-72.4289 528.11,-114.1 281.252,-75.8908"/>
<polygon fill="midnightblue" stroke="midnightblue" points="281.685,-72.4159 271.262,-74.3163 280.595,-79.3306 281.685,-72.4159"/>
</g>
<!-- Node14&#45;&gt;Node15 -->
<g id="edge14" class="edge"><title>Node14&#45;&gt;Node15</title>
<path fill="none" stroke="midnightblue" d="M516.758,-60.7627C578.756,-50.9448 732.038,-26.6714 798.923,-16.0796"/>
<polygon fill="midnightblue" stroke="midnightblue" points="799.559,-19.5226 808.889,-14.5015 798.464,-12.6087 799.559,-19.5226"/>
</g>
<!-- Node16 -->
<g id="node16" class="node"><title>Node16</title>
<polygon fill="none" stroke="#bfbfbf" points="440,-0.5 440,-19.5 480,-19.5 480,-0.5 440,-0.5"/>
<text text-anchor="middle" x="460" y="-7.5" font-family="Helvetica,sans-Serif" font-size="10.00">limits</text>
</g>
<!-- Node14&#45;&gt;Node16 -->
<g id="edge15" class="edge"><title>Node14&#45;&gt;Node16</title>
<path fill="none" stroke="midnightblue" d="M485.046,-56.083C480.896,-48.6127 474.847,-37.7244 469.733,-28.5199"/>
<polygon fill="midnightblue" stroke="midnightblue" points="472.778,-26.7929 464.862,-19.7511 466.659,-30.1924 472.778,-26.7929"/>
</g>
<!-- Node17 -->
<g id="node17" class="node"><title>Node17</title>
<polygon fill="none" stroke="#bfbfbf" points="498,-0.5 498,-19.5 544,-19.5 544,-0.5 498,-0.5"/>
<text text-anchor="middle" x="521" y="-7.5" font-family="Helvetica,sans-Serif" font-size="10.00">cstdint</text>
</g>
<!-- Node14&#45;&gt;Node17 -->
<g id="edge16" class="edge"><title>Node14&#45;&gt;Node17</title>
<path fill="none" stroke="midnightblue" d="M495.119,-56.083C499.408,-48.6127 505.658,-37.7244 510.942,-28.5199"/>
<polygon fill="midnightblue" stroke="midnightblue" points="514.033,-30.1662 515.976,-19.7511 507.962,-26.6811 514.033,-30.1662"/>
</g>
<!-- Node20&#45;&gt;Node7 -->
<g id="edge20" class="edge"><title>Node20&#45;&gt;Node7</title>
<path fill="none" stroke="midnightblue" d="M305.147,-112.083C306.869,-104.927 309.347,-94.6353 311.5,-85.6911"/>
<polygon fill="midnightblue" stroke="midnightblue" points="314.955,-86.2925 313.893,-75.7511 308.15,-84.6541 314.955,-86.2925"/>
</g>
<!-- Node20&#45;&gt;Node14 -->
<g id="edge22" class="edge"><title>Node20&#45;&gt;Node14</title>
<path fill="none" stroke="midnightblue" d="M329.793,-113.263C362.286,-103.88 417.208,-88.0201 453.538,-77.5293"/>
<polygon fill="midnightblue" stroke="midnightblue" points="454.621,-80.8596 463.257,-74.7225 452.679,-74.1343 454.621,-80.8596"/>
</g>
<!-- Node21 -->
<g id="node21" class="node"><title>Node21</title>
<polygon fill="none" stroke="#bfbfbf" points="149,-56.5 149,-75.5 199,-75.5 199,-56.5 149,-56.5"/>
<text text-anchor="middle" x="174" y="-63.5" font-family="Helvetica,sans-Serif" font-size="10.00">iomanip</text>
</g>
<!-- Node20&#45;&gt;Node21 -->
<g id="edge21" class="edge"><title>Node20&#45;&gt;Node21</title>
<path fill="none" stroke="midnightblue" d="M282.56,-112.444C261.33,-103.557 227.901,-89.5632 203.745,-79.4514"/>
<polygon fill="midnightblue" stroke="midnightblue" points="204.921,-76.1493 194.345,-75.5164 202.218,-82.6064 204.921,-76.1493"/>
</g>
<!-- Node24 -->
<g id="node24" class="node"><title>Node24</title>
<g id="a_node24"><a xlink:href="../../dc/d15/ContourCreator_8inl.html" target="_top" xlink:title="ContourCreator.inl">
<polygon fill="none" stroke="black" points="465,-298.5 465,-317.5 561,-317.5 561,-298.5 465,-298.5"/>
<text text-anchor="middle" x="513" y="-305.5" font-family="Helvetica,sans-Serif" font-size="10.00">ContourCreator.inl</text>
</a>
</g>
</g>
<!-- Node23&#45;&gt;Node24 -->
<g id="edge30" class="edge"><title>Node23&#45;&gt;Node24</title>
<path fill="none" stroke="midnightblue" d="M547.269,-360.403C541.328,-351.493 531.883,-337.325 524.412,-326.118"/>
<polygon fill="midnightblue" stroke="midnightblue" points="527.18,-323.96 518.72,-317.581 521.355,-327.843 527.18,-323.96"/>
</g>
<!-- Node24&#45;&gt;Node5 -->
<g id="edge45" class="edge"><title>Node24&#45;&gt;Node5</title>
<path fill="none" stroke="midnightblue" d="M541.761,-298.372C580.985,-286.604 651.346,-265.496 694.914,-252.426"/>
<polygon fill="midnightblue" stroke="midnightblue" points="696.008,-255.752 704.58,-249.526 693.996,-249.047 696.008,-255.752"/>
</g>
<!-- Node24&#45;&gt;Node6 -->
<g id="edge44" class="edge"><title>Node24&#45;&gt;Node6</title>
<path fill="none" stroke="midnightblue" d="M523.412,-298.336C534.554,-288.732 552.332,-272.419 565,-256 579.504,-237.2 592.501,-213.107 600.543,-196.921"/>
<polygon fill="midnightblue" stroke="midnightblue" points="603.868,-198.087 605.078,-187.561 597.568,-195.034 603.868,-198.087"/>
</g>
<!-- Node24&#45;&gt;Node7 -->
<g id="edge33" class="edge"><title>Node24&#45;&gt;Node7</title>
<path fill="none" stroke="midnightblue" d="M464.996,-304.532C372.217,-296.785 170.762,-264.72 95,-132 39.3371,-34.49 5.43314,-134.763 279.046,-76.0902"/>
<polygon fill="midnightblue" stroke="midnightblue" points="279.887,-79.4891 288.909,-73.9354 278.393,-72.6504 279.887,-79.4891"/>
</g>
<!-- Node24&#45;&gt;Node8 -->
<g id="edge31" class="edge"><title>Node24&#45;&gt;Node8</title>
<path fill="none" stroke="midnightblue" d="M485.976,-298.419C457.447,-289.069 411.383,-273.139 373,-256 287.115,-217.65 190.06,-162.052 146.851,-136.62"/>
<polygon fill="midnightblue" stroke="midnightblue" points="148.625,-133.603 138.236,-131.528 145.064,-139.629 148.625,-133.603"/>
</g>
<!-- Node24&#45;&gt;Node9 -->
<g id="edge32" class="edge"><title>Node24&#45;&gt;Node9</title>
<path fill="none" stroke="midnightblue" d="M516.403,-298.394C527.652,-269.988 563.308,-180.319 570,-168 587.055,-136.603 611.754,-103.06 626.796,-83.6158"/>
<polygon fill="midnightblue" stroke="midnightblue" points="629.739,-85.5347 633.148,-75.5032 624.227,-81.2195 629.739,-85.5347"/>
</g>
<!-- Node24&#45;&gt;Node12 -->
<g id="edge51" class="edge"><title>Node24&#45;&gt;Node12</title>
<path fill="none" stroke="midnightblue" d="M513.675,-298.125C515.833,-269.769 522.592,-180.93 525.569,-141.811"/>
<polygon fill="midnightblue" stroke="midnightblue" points="529.063,-142.022 526.332,-131.786 522.083,-141.491 529.063,-142.022"/>
</g>
<!-- Node25 -->
<g id="node25" class="node"><title>Node25</title>
<g id="a_node25"><a xlink:href="../../d5/de0/Edge_8h.html" target="_top" xlink:title="Edge.h">
<polygon fill="none" stroke="black" points="279.5,-168.5 279.5,-187.5 326.5,-187.5 326.5,-168.5 279.5,-168.5"/>
<text text-anchor="middle" x="303" y="-175.5" font-family="Helvetica,sans-Serif" font-size="10.00">Edge.h</text>
</a>
</g>
</g>
<!-- Node24&#45;&gt;Node25 -->
<g id="edge34" class="edge"><title>Node24&#45;&gt;Node25</title>
<path fill="none" stroke="midnightblue" d="M498.895,-298.403C463.254,-276.679 369.326,-219.427 325.774,-192.881"/>
<polygon fill="midnightblue" stroke="midnightblue" points="327.404,-189.776 317.043,-187.56 323.761,-195.753 327.404,-189.776"/>
</g>
<!-- Node27 -->
<g id="node27" class="node"><title>Node27</title>
<g id="a_node27"><a xlink:href="../../dc/ded/SegmentTree_8h.html" target="_top" xlink:title="SegmentTree.h">
<polygon fill="none" stroke="black" points="401.5,-168.5 401.5,-187.5 484.5,-187.5 484.5,-168.5 401.5,-168.5"/>
<text text-anchor="middle" x="443" y="-175.5" font-family="Helvetica,sans-Serif" font-size="10.00">SegmentTree.h</text>
</a>
</g>
</g>
<!-- Node24&#45;&gt;Node27 -->
<g id="edge46" class="edge"><title>Node24&#45;&gt;Node27</title>
<path fill="none" stroke="midnightblue" d="M508.189,-298.202C496.744,-277.275 467.727,-224.216 452.563,-196.486"/>
<polygon fill="midnightblue" stroke="midnightblue" points="455.53,-194.617 447.661,-187.522 449.388,-197.976 455.53,-194.617"/>
</g>
<!-- Node25&#45;&gt;Node7 -->
<g id="edge37" class="edge"><title>Node25&#45;&gt;Node7</title>
<path fill="none" stroke="midnightblue" d="M292.438,-168.429C278.776,-156.235 257.764,-133.022 267,-112 272.39,-99.732 282.958,-89.3414 292.904,-81.6461"/>
<polygon fill="midnightblue" stroke="midnightblue" points="295.252,-84.2697 301.339,-75.598 291.172,-78.5811 295.252,-84.2697"/>
</g>
<!-- Node25&#45;&gt;Node8 -->
<g id="edge35" class="edge"><title>Node25&#45;&gt;Node8</title>
<path fill="none" stroke="midnightblue" d="M279.23,-169.829C246.858,-160.063 188.917,-142.584 153.714,-131.964"/>
<polygon fill="midnightblue" stroke="midnightblue" points="154.585,-128.571 144,-129.034 152.563,-135.273 154.585,-128.571"/>
</g>
<!-- Node25&#45;&gt;Node9 -->
<g id="edge36" class="edge"><title>Node25&#45;&gt;Node9</title>
<path fill="none" stroke="midnightblue" d="M323.95,-168.474C364.698,-151.915 451.885,-116.619 466,-112 514.643,-96.0818 572.387,-82.0876 607.599,-74.0872"/>
<polygon fill="midnightblue" stroke="midnightblue" points="608.779,-77.4092 617.768,-71.8012 607.244,-70.5797 608.779,-77.4092"/>
</g>
<!-- Node25&#45;&gt;Node20 -->
<g id="edge43" class="edge"><title>Node25&#45;&gt;Node20</title>
<path fill="none" stroke="midnightblue" d="M303,-168.083C303,-161.006 303,-150.861 303,-141.986"/>
<polygon fill="midnightblue" stroke="midnightblue" points="306.5,-141.751 303,-131.751 299.5,-141.751 306.5,-141.751"/>
</g>
<!-- Node25&#45;&gt;Node21 -->
<g id="edge38" class="edge"><title>Node25&#45;&gt;Node21</title>
<path fill="none" stroke="midnightblue" d="M292.878,-168.368C271.024,-149.733 219.188,-105.532 191.748,-82.1338"/>
<polygon fill="midnightblue" stroke="midnightblue" points="193.956,-79.4167 184.075,-75.5914 189.414,-84.7431 193.956,-79.4167"/>
</g>
<!-- Node26 -->
<g id="node26" class="node"><title>Node26</title>
<g id="a_node26"><a xlink:href="../../d1/d55/Interval_8h.html" target="_top" xlink:title="Interval.h">
<polygon fill="none" stroke="black" points="347.5,-112.5 347.5,-131.5 404.5,-131.5 404.5,-112.5 347.5,-112.5"/>
<text text-anchor="middle" x="376" y="-119.5" font-family="Helvetica,sans-Serif" font-size="10.00">Interval.h</text>
</a>
</g>
</g>
<!-- Node25&#45;&gt;Node26 -->
<g id="edge39" class="edge"><title>Node25&#45;&gt;Node26</title>
<path fill="none" stroke="midnightblue" d="M314.729,-168.324C325.837,-160.107 342.742,-147.602 355.983,-137.807"/>
<polygon fill="midnightblue" stroke="midnightblue" points="358.1,-140.595 364.058,-131.834 353.937,-134.967 358.1,-140.595"/>
</g>
<!-- Node26&#45;&gt;Node9 -->
<g id="edge40" class="edge"><title>Node26&#45;&gt;Node9</title>
<path fill="none" stroke="midnightblue" d="M404.677,-114.975C409.459,-113.977 414.369,-112.956 419,-112 486.132,-98.14 564.798,-82.1921 607.829,-73.4935"/>
<polygon fill="midnightblue" stroke="midnightblue" points="608.611,-76.9063 617.72,-71.4949 607.225,-70.0449 608.611,-76.9063"/>
</g>
<!-- Node26&#45;&gt;Node14 -->
<g id="edge42" class="edge"><title>Node26&#45;&gt;Node14</title>
<path fill="none" stroke="midnightblue" d="M394.064,-112.444C412.575,-103.675 441.581,-89.9355 462.855,-79.8579"/>
<polygon fill="midnightblue" stroke="midnightblue" points="464.482,-82.9604 472.021,-75.5164 461.485,-76.6343 464.482,-82.9604"/>
</g>
<!-- Node26&#45;&gt;Node19 -->
<g id="edge41" class="edge"><title>Node26&#45;&gt;Node19</title>
<path fill="none" stroke="midnightblue" d="M355.243,-112.444C333.684,-103.557 299.737,-89.5632 275.206,-79.4514"/>
<polygon fill="midnightblue" stroke="midnightblue" points="276.239,-76.0917 265.66,-75.5164 273.572,-82.5634 276.239,-76.0917"/>
</g>
<!-- Node27&#45;&gt;Node9 -->
<g id="edge47" class="edge"><title>Node27&#45;&gt;Node9</title>
<path fill="none" stroke="midnightblue" d="M446.886,-168.445C453.645,-154.522 468.891,-127.01 490,-112 525.535,-86.733 575.414,-75.4632 607.72,-70.5693"/>
<polygon fill="midnightblue" stroke="midnightblue" points="608.535,-73.9897 617.956,-69.1431 607.569,-67.0567 608.535,-73.9897"/>
</g>
<!-- Node27&#45;&gt;Node12 -->
<g id="edge49" class="edge"><title>Node27&#45;&gt;Node12</title>
<path fill="none" stroke="midnightblue" d="M456.496,-168.324C469.6,-159.9 489.712,-146.971 505.107,-137.074"/>
<polygon fill="midnightblue" stroke="midnightblue" points="507.018,-140.006 513.537,-131.655 503.233,-134.118 507.018,-140.006"/>
</g>
<!-- Node27&#45;&gt;Node19 -->
<g id="edge48" class="edge"><title>Node27&#45;&gt;Node19</title>
<path fill="none" stroke="midnightblue" d="M401.44,-177.156C362.025,-175.074 303.55,-165.871 267,-132 254.048,-119.997 248.719,-100.104 246.528,-85.4809"/>
<polygon fill="midnightblue" stroke="midnightblue" points="250.005,-85.0801 245.389,-75.5435 243.05,-85.8769 250.005,-85.0801"/>
</g>
<!-- Node27&#45;&gt;Node26 -->
<g id="edge50" class="edge"><title>Node27&#45;&gt;Node26</title>
<path fill="none" stroke="midnightblue" d="M432.235,-168.324C422.234,-160.263 407.113,-148.077 395.07,-138.369"/>
<polygon fill="midnightblue" stroke="midnightblue" points="396.943,-135.384 386.961,-131.834 392.55,-140.834 396.943,-135.384"/>
</g>
<!-- Node29&#45;&gt;Node7 -->
<g id="edge59" class="edge"><title>Node29&#45;&gt;Node7</title>
<path fill="none" stroke="midnightblue" d="M1118.51,-224.929C1114.95,-208.914 1106.87,-183.036 1090,-168 1026.51,-111.403 990.582,-127.769 907,-112 879.735,-106.856 478.795,-78.4299 353.277,-69.6104"/>
<polygon fill="midnightblue" stroke="midnightblue" points="353.241,-66.0993 343.02,-68.8903 352.751,-73.0821 353.241,-66.0993"/>
</g>
<!-- Node29&#45;&gt;Node9 -->
<g id="edge60" class="edge"><title>Node29&#45;&gt;Node9</title>
<path fill="none" stroke="midnightblue" d="M1178.58,-232.83C1234.79,-224.483 1307.71,-206.025 1277,-168 1238.34,-120.122 796.311,-79.991 672.219,-69.61"/>
<polygon fill="midnightblue" stroke="midnightblue" points="672.452,-66.1174 662.196,-68.7787 671.873,-73.0934 672.452,-66.1174"/>
</g>
<!-- Node29&#45;&gt;Node18 -->
<g id="edge57" class="edge"><title>Node29&#45;&gt;Node18</title>
<path fill="none" stroke="midnightblue" d="M1178.67,-236.227C1248.57,-231.517 1360.23,-219.202 1386,-188 1391.66,-181.146 1391.54,-174.954 1386,-168 1336.13,-105.349 1085.12,-78.3012 986.688,-69.9869"/>
<polygon fill="midnightblue" stroke="midnightblue" points="986.807,-66.4849 976.553,-69.1518 986.232,-73.4612 986.807,-66.4849"/>
</g>
<!-- Node29&#45;&gt;Node28 -->
<g id="edge61" class="edge"><title>Node29&#45;&gt;Node28</title>
<path fill="none" stroke="midnightblue" d="M1100.86,-224.781C1087.41,-215.286 1069.78,-202.843 1056.3,-193.327"/>
<polygon fill="midnightblue" stroke="midnightblue" points="1058.31,-190.463 1048.12,-187.556 1054.27,-196.182 1058.31,-190.463"/>
</g>
<!-- Node30 -->
<g id="node30" class="node"><title>Node30</title>
<g id="a_node30"><a xlink:href="../../d0/d85/SegmentationCInterface_8h.html" target="_top" xlink:title="SegmentationCInterface.h">
<polygon fill="none" stroke="black" points="1137.5,-168.5 1137.5,-187.5 1268.5,-187.5 1268.5,-168.5 1137.5,-168.5"/>
<text text-anchor="middle" x="1203" y="-175.5" font-family="Helvetica,sans-Serif" font-size="10.00">SegmentationCInterface.h</text>
</a>
</g>
</g>
<!-- Node29&#45;&gt;Node30 -->
<g id="edge56" class="edge"><title>Node29&#45;&gt;Node30</title>
<path fill="none" stroke="midnightblue" d="M1140.43,-224.781C1153.21,-215.433 1169.89,-203.227 1182.81,-193.77"/>
<polygon fill="midnightblue" stroke="midnightblue" points="1185.06,-196.46 1191.07,-187.731 1180.93,-190.811 1185.06,-196.46"/>
</g>
<!-- Node31 -->
<g id="node31" class="node"><title>Node31</title>
<polygon fill="none" stroke="#bfbfbf" points="1325,-168.5 1325,-187.5 1377,-187.5 1377,-168.5 1325,-168.5"/>
<text text-anchor="middle" x="1351" y="-175.5" font-family="Helvetica,sans-Serif" font-size="10.00">memory</text>
</g>
<!-- Node29&#45;&gt;Node31 -->
<g id="edge58" class="edge"><title>Node29&#45;&gt;Node31</title>
<path fill="none" stroke="midnightblue" d="M1174.92,-224.933C1218.01,-213.693 1277.21,-198.251 1314.79,-188.447"/>
<polygon fill="midnightblue" stroke="midnightblue" points="1315.99,-191.751 1324.78,-185.84 1314.22,-184.977 1315.99,-191.751"/>
</g>
<!-- Node32&#45;&gt;Node5 -->
<g id="edge64" class="edge"><title>Node32&#45;&gt;Node5</title>
<path fill="none" stroke="midnightblue" d="M841.396,-292.841C817.312,-281.323 783.598,-265.199 760.189,-254.004"/>
<polygon fill="midnightblue" stroke="midnightblue" points="761.684,-250.839 751.153,-249.682 758.664,-257.154 761.684,-250.839"/>
</g>
<!-- Node32&#45;&gt;Node6 -->
<g id="edge65" class="edge"><title>Node32&#45;&gt;Node6</title>
<path fill="none" stroke="midnightblue" d="M806.822,-295.887C771.939,-288.07 728.92,-275.455 694,-256 665.299,-240.01 638.285,-212.645 622.706,-195.21"/>
<polygon fill="midnightblue" stroke="midnightblue" points="625.23,-192.779 616.019,-187.543 619.954,-197.38 625.23,-192.779"/>
</g>
<!-- Node32&#45;&gt;Node9 -->
<g id="edge63" class="edge"><title>Node32&#45;&gt;Node9</title>
<path fill="none" stroke="midnightblue" d="M882.658,-292.883C910.018,-257.984 972.63,-166.541 926,-112 893.678,-74.1947 740.397,-67.9481 672.5,-67.0598"/>
<polygon fill="midnightblue" stroke="midnightblue" points="672.402,-63.5588 662.368,-66.9593 672.333,-70.5585 672.402,-63.5588"/>
</g>
<!-- Node32&#45;&gt;Node13 -->
<g id="edge66" class="edge"><title>Node32&#45;&gt;Node13</title>
<path fill="none" stroke="midnightblue" d="M871.23,-292.867C871.763,-260.216 873.079,-179.497 873.685,-142.317"/>
<polygon fill="midnightblue" stroke="midnightblue" points="877.191,-141.947 873.855,-131.891 870.192,-141.833 877.191,-141.947"/>
</g>
<!-- Node32&#45;&gt;Node29 -->
<g id="edge67" class="edge"><title>Node32&#45;&gt;Node29</title>
<path fill="none" stroke="midnightblue" d="M924.325,-292.922C963.489,-282.583 1016.83,-268.501 1058.08,-257.61"/>
<polygon fill="midnightblue" stroke="midnightblue" points="1058.98,-260.993 1067.76,-255.056 1057.2,-254.225 1058.98,-260.993"/>
</g>
</g>
</svg>
