<?xml version="1.0" encoding="UTF-8" standalone="no"?>
<!DOCTYPE svg PUBLIC "-//W3C//DTD SVG 1.1//EN"
 "http://www.w3.org/Graphics/SVG/1.1/DTD/svg11.dtd">
<!-- Generated by graphviz version 2.36.0 (20140111.2315)
 -->
<!-- Title: /home/travis/build/AliceO2Group/AliceO2/Detectors/MUON/MID/Base/test/testDEconversion.cxx Pages: 1 -->
<svg width="761pt" height="254pt"
 viewBox="0.00 0.00 761.00 254.00" xmlns="http://www.w3.org/2000/svg" xmlns:xlink="http://www.w3.org/1999/xlink">
<g id="graph0" class="graph" transform="scale(1 1) rotate(0) translate(4 250)">
<title>/home/travis/build/AliceO2Group/AliceO2/Detectors/MUON/MID/Base/test/testDEconversion.cxx</title>
<!-- Node1 -->
<g id="node1" class="node"><title>Node1</title>
<polygon fill="#bfbfbf" stroke="black" points="221.5,-193 221.5,-245 364.5,-245 364.5,-193 221.5,-193"/>
<text text-anchor="start" x="229.5" y="-233" font-family="Helvetica,sans-Serif" font-size="10.00">/home/travis/build</text>
<text text-anchor="start" x="229.5" y="-222" font-family="Helvetica,sans-Serif" font-size="10.00">/AliceO2Group/AliceO2</text>
<text text-anchor="start" x="229.5" y="-211" font-family="Helvetica,sans-Serif" font-size="10.00">/Detectors/MUON/MID/Base</text>
<text text-anchor="middle" x="293" y="-200" font-family="Helvetica,sans-Serif" font-size="10.00">/test/testDEconversion.cxx</text>
</g>
<!-- Node2 -->
<g id="node2" class="node"><title>Node2</title>
<polygon fill="none" stroke="#bfbfbf" points="-0.5,-130.5 -0.5,-149.5 118.5,-149.5 118.5,-130.5 -0.5,-130.5"/>
<text text-anchor="middle" x="59" y="-137.5" font-family="Helvetica,sans-Serif" font-size="10.00">boost/test/unit_test.hpp</text>
</g>
<!-- Node1&#45;&gt;Node2 -->
<g id="edge1" class="edge"><title>Node1&#45;&gt;Node2</title>
<path fill="none" stroke="midnightblue" d="M221.202,-194.374C179.32,-180.592 128.305,-163.806 94.8071,-152.783"/>
<polygon fill="midnightblue" stroke="midnightblue" points="95.596,-149.358 85.003,-149.557 93.4079,-156.007 95.596,-149.358"/>
</g>
<!-- Node3 -->
<g id="node3" class="node"><title>Node3</title>
<polygon fill="none" stroke="#bfbfbf" points="137,-130.5 137,-149.5 299,-149.5 299,-130.5 137,-130.5"/>
<text text-anchor="middle" x="218" y="-137.5" font-family="Helvetica,sans-Serif" font-size="10.00">boost/test/data/monomorphic.hpp</text>
</g>
<!-- Node1&#45;&gt;Node3 -->
<g id="edge2" class="edge"><title>Node1&#45;&gt;Node3</title>
<path fill="none" stroke="midnightblue" d="M268.442,-192.787C256.867,-180.904 243.418,-167.096 233.319,-156.727"/>
<polygon fill="midnightblue" stroke="midnightblue" points="235.82,-154.279 226.335,-149.558 230.806,-159.163 235.82,-154.279"/>
</g>
<!-- Node4 -->
<g id="node4" class="node"><title>Node4</title>
<polygon fill="none" stroke="#bfbfbf" points="317.5,-125 317.5,-155 418.5,-155 418.5,-125 317.5,-125"/>
<text text-anchor="start" x="325.5" y="-143" font-family="Helvetica,sans-Serif" font-size="10.00">boost/test/data/test</text>
<text text-anchor="middle" x="368" y="-132" font-family="Helvetica,sans-Serif" font-size="10.00">_case.hpp</text>
</g>
<!-- Node1&#45;&gt;Node4 -->
<g id="edge3" class="edge"><title>Node1&#45;&gt;Node4</title>
<path fill="none" stroke="midnightblue" d="M317.558,-192.787C327.037,-183.056 337.773,-172.033 346.896,-162.666"/>
<polygon fill="midnightblue" stroke="midnightblue" points="349.648,-164.858 354.118,-155.252 344.633,-159.973 349.648,-164.858"/>
</g>
<!-- Node5 -->
<g id="node5" class="node"><title>Node5</title>
<g id="a_node5"><a xlink:href="../../d0/dc4/LegacyUtility_8h.html" target="_top" xlink:title="Utility for MID detection element IDs. ">
<polygon fill="none" stroke="black" points="437,-130.5 437,-149.5 563,-149.5 563,-130.5 437,-130.5"/>
<text text-anchor="middle" x="500" y="-137.5" font-family="Helvetica,sans-Serif" font-size="10.00">MIDBase/LegacyUtility.h</text>
</a>
</g>
</g>
<!-- Node1&#45;&gt;Node5 -->
<g id="edge4" class="edge"><title>Node1&#45;&gt;Node5</title>
<path fill="none" stroke="midnightblue" d="M360.493,-192.894C396.376,-179.546 438.856,-163.745 467.433,-153.114"/>
<polygon fill="midnightblue" stroke="midnightblue" points="468.775,-156.35 476.927,-149.583 466.334,-149.789 468.775,-156.35"/>
</g>
<!-- Node6 -->
<g id="node6" class="node"><title>Node6</title>
<polygon fill="none" stroke="#bfbfbf" points="411,-6.5 411,-25.5 457,-25.5 457,-6.5 411,-6.5"/>
<text text-anchor="middle" x="434" y="-13.5" font-family="Helvetica,sans-Serif" font-size="10.00">cstdint</text>
</g>
<!-- Node5&#45;&gt;Node6 -->
<g id="edge5" class="edge"><title>Node5&#45;&gt;Node6</title>
<path fill="none" stroke="midnightblue" d="M484.154,-130.414C469.905,-121.753 449.76,-106.963 440,-88 431.7,-71.8725 430.939,-50.9279 431.805,-35.9747"/>
<polygon fill="midnightblue" stroke="midnightblue" points="435.302,-36.1534 432.685,-25.8869 428.329,-35.5446 435.302,-36.1534"/>
</g>
<!-- Node7 -->
<g id="node7" class="node"><title>Node7</title>
<polygon fill="none" stroke="#bfbfbf" points="448.5,-68.5 448.5,-87.5 489.5,-87.5 489.5,-68.5 448.5,-68.5"/>
<text text-anchor="middle" x="469" y="-75.5" font-family="Helvetica,sans-Serif" font-size="10.00">string</text>
</g>
<!-- Node5&#45;&gt;Node7 -->
<g id="edge6" class="edge"><title>Node5&#45;&gt;Node7</title>
<path fill="none" stroke="midnightblue" d="M495.558,-130.403C491.047,-121.671 483.926,-107.889 478.193,-96.7936"/>
<polygon fill="midnightblue" stroke="midnightblue" points="481.133,-94.8583 473.433,-87.5806 474.914,-98.0714 481.133,-94.8583"/>
</g>
<!-- Node8 -->
<g id="node8" class="node"><title>Node8</title>
<polygon fill="none" stroke="#bfbfbf" points="508,-68.5 508,-87.5 552,-87.5 552,-68.5 508,-68.5"/>
<text text-anchor="middle" x="530" y="-75.5" font-family="Helvetica,sans-Serif" font-size="10.00">vector</text>
</g>
<!-- Node5&#45;&gt;Node8 -->
<g id="edge7" class="edge"><title>Node5&#45;&gt;Node8</title>
<path fill="none" stroke="midnightblue" d="M504.298,-130.403C508.665,-121.671 515.555,-107.889 521.103,-96.7936"/>
<polygon fill="midnightblue" stroke="midnightblue" points="524.368,-98.0901 525.71,-87.5806 518.107,-94.9596 524.368,-98.0901"/>
</g>
<!-- Node9 -->
<g id="node9" class="node"><title>Node9</title>
<g id="a_node9"><a xlink:href="../../d3/d53/ColumnData_8h.html" target="_top" xlink:title="Strip pattern (aka digits) ">
<polygon fill="none" stroke="black" points="570,-68.5 570,-87.5 728,-87.5 728,-68.5 570,-68.5"/>
<text text-anchor="middle" x="649" y="-75.5" font-family="Helvetica,sans-Serif" font-size="10.00">DataFormatsMID/ColumnData.h</text>
</a>
</g>
</g>
<!-- Node5&#45;&gt;Node9 -->
<g id="edge8" class="edge"><title>Node5&#45;&gt;Node9</title>
<path fill="none" stroke="midnightblue" d="M521.348,-130.403C546.686,-120.2 589.138,-103.105 618.071,-91.4544"/>
<polygon fill="midnightblue" stroke="midnightblue" points="619.723,-94.5627 627.692,-87.5806 617.108,-88.0694 619.723,-94.5627"/>
</g>
<!-- Node9&#45;&gt;Node6 -->
<g id="edge11" class="edge"><title>Node9&#45;&gt;Node6</title>
<path fill="none" stroke="midnightblue" d="M614.858,-68.4962C580.613,-59.829 526.438,-45.7426 480,-32 475.832,-30.7665 471.469,-29.4187 467.161,-28.0532"/>
<polygon fill="midnightblue" stroke="midnightblue" points="467.915,-24.6192 457.324,-24.8806 465.767,-31.2813 467.915,-24.6192"/>
</g>
<!-- Node10 -->
<g id="node10" class="node"><title>Node10</title>
<polygon fill="none" stroke="#bfbfbf" points="488.5,-1 488.5,-31 583.5,-31 583.5,-1 488.5,-1"/>
<text text-anchor="start" x="496.5" y="-19" font-family="Helvetica,sans-Serif" font-size="10.00">boost/serialization</text>
<text text-anchor="middle" x="536" y="-8" font-family="Helvetica,sans-Serif" font-size="10.00">/access.hpp</text>
</g>
<!-- Node9&#45;&gt;Node10 -->
<g id="edge9" class="edge"><title>Node9&#45;&gt;Node10</title>
<path fill="none" stroke="midnightblue" d="M632.81,-68.4035C616.933,-59.9735 592.197,-46.8389 571.702,-35.957"/>
<polygon fill="midnightblue" stroke="midnightblue" points="573.105,-32.7392 562.632,-31.1408 569.823,-38.9218 573.105,-32.7392"/>
</g>
<!-- Node11 -->
<g id="node11" class="node"><title>Node11</title>
<polygon fill="none" stroke="#bfbfbf" points="601.5,-1 601.5,-31 696.5,-31 696.5,-1 601.5,-1"/>
<text text-anchor="start" x="609.5" y="-19" font-family="Helvetica,sans-Serif" font-size="10.00">boost/serialization</text>
<text text-anchor="middle" x="649" y="-8" font-family="Helvetica,sans-Serif" font-size="10.00">/array.hpp</text>
</g>
<!-- Node9&#45;&gt;Node11 -->
<g id="edge10" class="edge"><title>Node9&#45;&gt;Node11</title>
<path fill="none" stroke="midnightblue" d="M649,-68.4035C649,-61.3405 649,-50.975 649,-41.399"/>
<polygon fill="midnightblue" stroke="midnightblue" points="652.5,-41.1408 649,-31.1408 645.5,-41.1408 652.5,-41.1408"/>
</g>
<!-- Node12 -->
<g id="node12" class="node"><title>Node12</title>
<polygon fill="none" stroke="#bfbfbf" points="715,-6.5 715,-25.5 753,-25.5 753,-6.5 715,-6.5"/>
<text text-anchor="middle" x="734" y="-13.5" font-family="Helvetica,sans-Serif" font-size="10.00">array</text>
</g>
<!-- Node9&#45;&gt;Node12 -->
<g id="edge12" class="edge"><title>Node9&#45;&gt;Node12</title>
<path fill="none" stroke="midnightblue" d="M661.178,-68.4035C674.812,-58.7797 697.132,-43.0242 713.474,-31.4891"/>
<polygon fill="midnightblue" stroke="midnightblue" points="715.693,-34.2069 721.844,-25.5806 711.656,-28.4881 715.693,-34.2069"/>
</g>
</g>
</svg>
