<?xml version="1.0" encoding="UTF-8" standalone="no"?>
<!DOCTYPE svg PUBLIC "-//W3C//DTD SVG 1.1//EN"
 "http://www.w3.org/Graphics/SVG/1.1/DTD/svg11.dtd">
<!-- Generated by graphviz version 2.36.0 (20140111.2315)
 -->
<!-- Title: /home/travis/build/AliceO2Group/AliceO2/Detectors/MUON/MCH/Base/src/PreClusterBlock.cxx Pages: 1 -->
<svg width="345pt" height="230pt"
 viewBox="0.00 0.00 345.00 230.00" xmlns="http://www.w3.org/2000/svg" xmlns:xlink="http://www.w3.org/1999/xlink">
<g id="graph0" class="graph" transform="scale(1 1) rotate(0) translate(4 226)">
<title>/home/travis/build/AliceO2Group/AliceO2/Detectors/MUON/MCH/Base/src/PreClusterBlock.cxx</title>
<!-- Node1 -->
<g id="node1" class="node"><title>Node1</title>
<polygon fill="#bfbfbf" stroke="black" points="134,-169 134,-221 282,-221 282,-169 134,-169"/>
<text text-anchor="start" x="142" y="-209" font-family="Helvetica,sans-Serif" font-size="10.00">/home/travis/build</text>
<text text-anchor="start" x="142" y="-198" font-family="Helvetica,sans-Serif" font-size="10.00">/AliceO2Group/AliceO2</text>
<text text-anchor="start" x="142" y="-187" font-family="Helvetica,sans-Serif" font-size="10.00">/Detectors/MUON/MCH/Base</text>
<text text-anchor="middle" x="208" y="-176" font-family="Helvetica,sans-Serif" font-size="10.00">/src/PreClusterBlock.cxx</text>
</g>
<!-- Node2 -->
<g id="node2" class="node"><title>Node2</title>
<g id="a_node2"><a xlink:href="../../db/da1/PreClusterBlock_8h.html" target="_top" xlink:title="MCHBase/PreClusterBlock.h">
<polygon fill="none" stroke="black" points="20.5,-112.5 20.5,-131.5 165.5,-131.5 165.5,-112.5 20.5,-112.5"/>
<text text-anchor="middle" x="93" y="-119.5" font-family="Helvetica,sans-Serif" font-size="10.00">MCHBase/PreClusterBlock.h</text>
</a>
</g>
</g>
<!-- Node1&#45;&gt;Node2 -->
<g id="edge1" class="edge"><title>Node1&#45;&gt;Node2</title>
<path fill="none" stroke="midnightblue" d="M167.455,-168.968C150.162,-158.291 130.622,-146.227 115.899,-137.138"/>
<polygon fill="midnightblue" stroke="midnightblue" points="117.34,-133.914 106.993,-131.639 113.663,-139.87 117.34,-133.914"/>
</g>
<!-- Node7 -->
<g id="node7" class="node"><title>Node7</title>
<polygon fill="none" stroke="#bfbfbf" points="183.5,-112.5 183.5,-131.5 232.5,-131.5 232.5,-112.5 183.5,-112.5"/>
<text text-anchor="middle" x="208" y="-119.5" font-family="Helvetica,sans-Serif" font-size="10.00">cassert</text>
</g>
<!-- Node1&#45;&gt;Node7 -->
<g id="edge8" class="edge"><title>Node1&#45;&gt;Node7</title>
<path fill="none" stroke="midnightblue" d="M208,-168.768C208,-159.89 208,-150.074 208,-141.816"/>
<polygon fill="midnightblue" stroke="midnightblue" points="211.5,-141.757 208,-131.757 204.5,-141.757 211.5,-141.757"/>
</g>
<!-- Node8 -->
<g id="node8" class="node"><title>Node8</title>
<polygon fill="none" stroke="#bfbfbf" points="251,-112.5 251,-131.5 337,-131.5 337,-112.5 251,-112.5"/>
<text text-anchor="middle" x="294" y="-119.5" font-family="Helvetica,sans-Serif" font-size="10.00">FairMQLogger.h</text>
</g>
<!-- Node1&#45;&gt;Node8 -->
<g id="edge9" class="edge"><title>Node1&#45;&gt;Node8</title>
<path fill="none" stroke="midnightblue" d="M238.563,-168.768C250.905,-158.578 264.744,-147.153 275.507,-138.267"/>
<polygon fill="midnightblue" stroke="midnightblue" points="277.909,-140.823 283.393,-131.757 273.453,-135.425 277.909,-140.823"/>
</g>
<!-- Node3 -->
<g id="node3" class="node"><title>Node3</title>
<polygon fill="none" stroke="#bfbfbf" points="0,-0.5 0,-19.5 46,-19.5 46,-0.5 0,-0.5"/>
<text text-anchor="middle" x="23" y="-7.5" font-family="Helvetica,sans-Serif" font-size="10.00">cstdint</text>
</g>
<!-- Node2&#45;&gt;Node3 -->
<g id="edge2" class="edge"><title>Node2&#45;&gt;Node3</title>
<path fill="none" stroke="midnightblue" d="M61.9775,-112.436C43.9676,-105.694 22.7687,-94.3016 12,-76 3.58215,-61.6937 8.2327,-42.7352 13.8462,-28.9874"/>
<polygon fill="midnightblue" stroke="midnightblue" points="17.1395,-30.2022 18.126,-19.6534 10.7765,-27.2846 17.1395,-30.2022"/>
</g>
<!-- Node4 -->
<g id="node4" class="node"><title>Node4</title>
<polygon fill="none" stroke="#bfbfbf" points="124,-0.5 124,-19.5 176,-19.5 176,-0.5 124,-0.5"/>
<text text-anchor="middle" x="150" y="-7.5" font-family="Helvetica,sans-Serif" font-size="10.00">ostream</text>
</g>
<!-- Node2&#45;&gt;Node4 -->
<g id="edge3" class="edge"><title>Node2&#45;&gt;Node4</title>
<path fill="none" stroke="midnightblue" d="M116.454,-112.408C132.161,-105.28 151.619,-93.4581 161,-76 168.857,-61.3784 164.281,-42.4618 158.838,-28.8096"/>
<polygon fill="midnightblue" stroke="midnightblue" points="161.976,-27.2534 154.698,-19.5542 155.586,-30.1117 161.976,-27.2534"/>
</g>
<!-- Node5 -->
<g id="node5" class="node"><title>Node5</title>
<polygon fill="none" stroke="#bfbfbf" points="109,-56.5 109,-75.5 153,-75.5 153,-56.5 109,-56.5"/>
<text text-anchor="middle" x="131" y="-63.5" font-family="Helvetica,sans-Serif" font-size="10.00">vector</text>
</g>
<!-- Node2&#45;&gt;Node5 -->
<g id="edge4" class="edge"><title>Node2&#45;&gt;Node5</title>
<path fill="none" stroke="midnightblue" d="M99.2749,-112.083C104.642,-104.455 112.518,-93.2645 119.079,-83.9408"/>
<polygon fill="midnightblue" stroke="midnightblue" points="121.949,-85.9434 124.842,-75.7511 116.225,-81.9149 121.949,-85.9434"/>
</g>
<!-- Node6 -->
<g id="node6" class="node"><title>Node6</title>
<g id="a_node6"><a xlink:href="../../db/df0/DigitBlock_8h.html" target="_top" xlink:title="DigitBlock.h">
<polygon fill="none" stroke="black" points="21,-56.5 21,-75.5 91,-75.5 91,-56.5 21,-56.5"/>
<text text-anchor="middle" x="56" y="-63.5" font-family="Helvetica,sans-Serif" font-size="10.00">DigitBlock.h</text>
</a>
</g>
</g>
<!-- Node2&#45;&gt;Node6 -->
<g id="edge5" class="edge"><title>Node2&#45;&gt;Node6</title>
<path fill="none" stroke="midnightblue" d="M86.8902,-112.083C81.7178,-104.534 74.1539,-93.4948 67.8056,-84.2298"/>
<polygon fill="midnightblue" stroke="midnightblue" points="70.5357,-82.0221 61.9961,-75.7511 64.7612,-85.9787 70.5357,-82.0221"/>
</g>
<!-- Node6&#45;&gt;Node3 -->
<g id="edge6" class="edge"><title>Node6&#45;&gt;Node3</title>
<path fill="none" stroke="midnightblue" d="M50.5507,-56.083C45.9855,-48.6127 39.3316,-37.7244 33.7066,-28.5199"/>
<polygon fill="midnightblue" stroke="midnightblue" points="36.5489,-26.4588 28.3479,-19.7511 30.5759,-30.109 36.5489,-26.4588"/>
</g>
<!-- Node6&#45;&gt;Node4 -->
<g id="edge7" class="edge"><title>Node6&#45;&gt;Node4</title>
<path fill="none" stroke="midnightblue" d="M71.1027,-56.324C85.9033,-47.8215 108.694,-34.7288 125.982,-24.7975"/>
<polygon fill="midnightblue" stroke="midnightblue" points="128.007,-27.6707 134.935,-19.6545 124.52,-21.6009 128.007,-27.6707"/>
</g>
</g>
</svg>
