<?xml version="1.0" encoding="UTF-8" standalone="no"?>
<!DOCTYPE svg PUBLIC "-//W3C//DTD SVG 1.1//EN"
 "http://www.w3.org/Graphics/SVG/1.1/DTD/svg11.dtd">
<!-- Generated by graphviz version 2.36.0 (20140111.2315)
 -->
<!-- Title: /home/travis/build/AliceO2Group/AliceO2/Detectors/PHOS/testsimulation/plot_hit_phos.C Pages: 1 -->
<svg width="2039pt" height="570pt"
 viewBox="0.00 0.00 2039.00 570.00" xmlns="http://www.w3.org/2000/svg" xmlns:xlink="http://www.w3.org/1999/xlink">
<g id="graph0" class="graph" transform="scale(1 1) rotate(0) translate(4 566)">
<title>/home/travis/build/AliceO2Group/AliceO2/Detectors/PHOS/testsimulation/plot_hit_phos.C</title>
<!-- Node1 -->
<g id="node1" class="node"><title>Node1</title>
<polygon fill="#bfbfbf" stroke="black" points="466,-509 466,-561 624,-561 624,-509 466,-509"/>
<text text-anchor="start" x="474" y="-549" font-family="Helvetica,sans-Serif" font-size="10.00">/home/travis/build</text>
<text text-anchor="start" x="474" y="-538" font-family="Helvetica,sans-Serif" font-size="10.00">/AliceO2Group/AliceO2</text>
<text text-anchor="start" x="474" y="-527" font-family="Helvetica,sans-Serif" font-size="10.00">/Detectors/PHOS/testsimulation</text>
<text text-anchor="middle" x="545" y="-516" font-family="Helvetica,sans-Serif" font-size="10.00">/plot_hit_phos.C</text>
</g>
<!-- Node2 -->
<g id="node2" class="node"><title>Node2</title>
<polygon fill="none" stroke="#bfbfbf" points="0,-446.5 0,-465.5 52,-465.5 52,-446.5 0,-446.5"/>
<text text-anchor="middle" x="26" y="-453.5" font-family="Helvetica,sans-Serif" font-size="10.00">sstream</text>
</g>
<!-- Node1&#45;&gt;Node2 -->
<g id="edge1" class="edge"><title>Node1&#45;&gt;Node2</title>
<path fill="none" stroke="midnightblue" d="M465.731,-530.585C368.774,-524.878 200.353,-509.99 61,-472 58.3411,-471.275 55.6201,-470.389 52.9276,-469.412"/>
<polygon fill="midnightblue" stroke="midnightblue" points="54.0476,-466.09 43.4636,-465.611 51.4386,-472.586 54.0476,-466.09"/>
</g>
<!-- Node3 -->
<g id="node3" class="node"><title>Node3</title>
<polygon fill="none" stroke="#bfbfbf" points="70.5,-446.5 70.5,-465.5 147.5,-465.5 147.5,-446.5 70.5,-446.5"/>
<text text-anchor="middle" x="109" y="-453.5" font-family="Helvetica,sans-Serif" font-size="10.00">TStopwatch.h</text>
</g>
<!-- Node1&#45;&gt;Node3 -->
<g id="edge2" class="edge"><title>Node1&#45;&gt;Node3</title>
<path fill="none" stroke="midnightblue" d="M465.949,-524.769C387.082,-514.765 262.756,-496.837 157,-472 152.793,-471.012 148.418,-469.845 144.098,-468.606"/>
<polygon fill="midnightblue" stroke="midnightblue" points="144.805,-465.163 134.22,-465.632 142.787,-471.866 144.805,-465.163"/>
</g>
<!-- Node4 -->
<g id="node4" class="node"><title>Node4</title>
<polygon fill="none" stroke="#bfbfbf" points="165.5,-446.5 165.5,-465.5 230.5,-465.5 230.5,-446.5 165.5,-446.5"/>
<text text-anchor="middle" x="198" y="-453.5" font-family="Helvetica,sans-Serif" font-size="10.00">TCanvas.h</text>
</g>
<!-- Node1&#45;&gt;Node4 -->
<g id="edge3" class="edge"><title>Node1&#45;&gt;Node4</title>
<path fill="none" stroke="midnightblue" d="M465.91,-521.115C403.905,-510.248 315.734,-493.106 240,-472 236.616,-471.057 233.112,-469.977 229.637,-468.838"/>
<polygon fill="midnightblue" stroke="midnightblue" points="230.638,-465.481 220.043,-465.538 228.361,-472.101 230.638,-465.481"/>
</g>
<!-- Node5 -->
<g id="node5" class="node"><title>Node5</title>
<polygon fill="none" stroke="#bfbfbf" points="249,-446.5 249,-465.5 293,-465.5 293,-446.5 249,-446.5"/>
<text text-anchor="middle" x="271" y="-453.5" font-family="Helvetica,sans-Serif" font-size="10.00">TH2.h</text>
</g>
<!-- Node1&#45;&gt;Node5 -->
<g id="edge4" class="edge"><title>Node1&#45;&gt;Node5</title>
<path fill="none" stroke="midnightblue" d="M465.814,-518.026C417.711,-507.286 355.471,-491.533 302,-472 300.147,-471.323 298.256,-470.571 296.369,-469.775"/>
<polygon fill="midnightblue" stroke="midnightblue" points="297.695,-466.533 287.144,-465.569 294.79,-472.903 297.695,-466.533"/>
</g>
<!-- Node6 -->
<g id="node6" class="node"><title>Node6</title>
<polygon fill="none" stroke="#bfbfbf" points="311,-446.5 311,-465.5 399,-465.5 399,-446.5 311,-446.5"/>
<text text-anchor="middle" x="355" y="-453.5" font-family="Helvetica,sans-Serif" font-size="10.00">FairFileSource.h</text>
</g>
<!-- Node1&#45;&gt;Node6 -->
<g id="edge5" class="edge"><title>Node1&#45;&gt;Node6</title>
<path fill="none" stroke="midnightblue" d="M483.05,-508.894C450.401,-495.663 411.804,-480.02 385.583,-469.394"/>
<polygon fill="midnightblue" stroke="midnightblue" points="386.76,-466.095 376.178,-465.583 384.131,-472.582 386.76,-466.095"/>
</g>
<!-- Node7 -->
<g id="node7" class="node"><title>Node7</title>
<polygon fill="none" stroke="#bfbfbf" points="417.5,-446.5 417.5,-465.5 488.5,-465.5 488.5,-446.5 417.5,-446.5"/>
<text text-anchor="middle" x="453" y="-453.5" font-family="Helvetica,sans-Serif" font-size="10.00">FairLogger.h</text>
</g>
<!-- Node1&#45;&gt;Node7 -->
<g id="edge6" class="edge"><title>Node1&#45;&gt;Node7</title>
<path fill="none" stroke="midnightblue" d="M514.876,-508.787C500.399,-496.671 483.531,-482.553 471.067,-472.121"/>
<polygon fill="midnightblue" stroke="midnightblue" points="473.14,-469.292 463.225,-465.558 468.647,-474.66 473.14,-469.292"/>
</g>
<!-- Node8 -->
<g id="node8" class="node"><title>Node8</title>
<polygon fill="none" stroke="#bfbfbf" points="506.5,-446.5 506.5,-465.5 583.5,-465.5 583.5,-446.5 506.5,-446.5"/>
<text text-anchor="middle" x="545" y="-453.5" font-family="Helvetica,sans-Serif" font-size="10.00">FairRunAna.h</text>
</g>
<!-- Node1&#45;&gt;Node8 -->
<g id="edge7" class="edge"><title>Node1&#45;&gt;Node8</title>
<path fill="none" stroke="midnightblue" d="M545,-508.787C545,-498.069 545,-485.785 545,-475.871"/>
<polygon fill="midnightblue" stroke="midnightblue" points="548.5,-475.558 545,-465.558 541.5,-475.558 548.5,-475.558"/>
</g>
<!-- Node9 -->
<g id="node9" class="node"><title>Node9</title>
<polygon fill="none" stroke="#bfbfbf" points="601.5,-446.5 601.5,-465.5 702.5,-465.5 702.5,-446.5 601.5,-446.5"/>
<text text-anchor="middle" x="652" y="-453.5" font-family="Helvetica,sans-Serif" font-size="10.00">FairParRootFileIo.h</text>
</g>
<!-- Node1&#45;&gt;Node9 -->
<g id="edge8" class="edge"><title>Node1&#45;&gt;Node9</title>
<path fill="none" stroke="midnightblue" d="M580.036,-508.787C597.197,-496.438 617.246,-482.01 631.818,-471.523"/>
<polygon fill="midnightblue" stroke="midnightblue" points="634.036,-474.24 640.108,-465.558 629.947,-468.558 634.036,-474.24"/>
</g>
<!-- Node10 -->
<g id="node10" class="node"><title>Node10</title>
<polygon fill="none" stroke="#bfbfbf" points="721,-446.5 721,-465.5 813,-465.5 813,-446.5 721,-446.5"/>
<text text-anchor="middle" x="767" y="-453.5" font-family="Helvetica,sans-Serif" font-size="10.00">FairSystemInfo.h</text>
</g>
<!-- Node1&#45;&gt;Node10 -->
<g id="edge9" class="edge"><title>Node1&#45;&gt;Node10</title>
<path fill="none" stroke="midnightblue" d="M617.384,-508.894C656.035,-495.488 701.823,-479.607 732.473,-468.975"/>
<polygon fill="midnightblue" stroke="midnightblue" points="733.954,-472.166 742.255,-465.583 731.66,-465.553 733.954,-472.166"/>
</g>
<!-- Node11 -->
<g id="node11" class="node"><title>Node11</title>
<g id="a_node11"><a xlink:href="../../d7/dcd/MCCompLabel_8h.html" target="_top" xlink:title="SimulationDataFormat\l/MCCompLabel.h">
<polygon fill="none" stroke="black" points="821,-261 821,-291 935,-291 935,-261 821,-261"/>
<text text-anchor="start" x="829" y="-279" font-family="Helvetica,sans-Serif" font-size="10.00">SimulationDataFormat</text>
<text text-anchor="middle" x="878" y="-268" font-family="Helvetica,sans-Serif" font-size="10.00">/MCCompLabel.h</text>
</a>
</g>
</g>
<!-- Node1&#45;&gt;Node11 -->
<g id="edge10" class="edge"><title>Node1&#45;&gt;Node11</title>
<path fill="none" stroke="midnightblue" d="M624.086,-527.263C701.275,-519.017 811.306,-502.262 841,-472 886.319,-425.814 885.061,-342.463 881.172,-301.321"/>
<polygon fill="midnightblue" stroke="midnightblue" points="884.625,-300.696 880.07,-291.131 877.666,-301.449 884.625,-300.696"/>
</g>
<!-- Node13 -->
<g id="node13" class="node"><title>Node13</title>
<g id="a_node13"><a xlink:href="../../d7/d7f/PHOS_2base_2include_2PHOSBase_2Geometry_8h.html" target="_top" xlink:title="PHOSBase/Geometry.h">
<polygon fill="none" stroke="black" points="715,-328.5 715,-347.5 837,-347.5 837,-328.5 715,-328.5"/>
<text text-anchor="middle" x="776" y="-335.5" font-family="Helvetica,sans-Serif" font-size="10.00">PHOSBase/Geometry.h</text>
</a>
</g>
</g>
<!-- Node1&#45;&gt;Node13 -->
<g id="edge12" class="edge"><title>Node1&#45;&gt;Node13</title>
<path fill="none" stroke="midnightblue" d="M624.31,-527.135C697.219,-518.986 797.586,-502.483 822,-472 850.391,-436.552 813.3,-382.461 790.852,-355.489"/>
<polygon fill="midnightblue" stroke="midnightblue" points="793.358,-353.036 784.18,-347.743 788.054,-357.604 793.358,-353.036"/>
</g>
<!-- Node17 -->
<g id="node17" class="node"><title>Node17</title>
<g id="a_node17"><a xlink:href="../../d2/d43/PHOS_2simulation_2include_2PHOSSimulation_2DigitizerTask_8h.html" target="_top" xlink:title="PHOSSimulation/Digitizer\lTask.h">
<polygon fill="none" stroke="black" points="961,-441 961,-471 1091,-471 1091,-441 961,-441"/>
<text text-anchor="start" x="969" y="-459" font-family="Helvetica,sans-Serif" font-size="10.00">PHOSSimulation/Digitizer</text>
<text text-anchor="middle" x="1026" y="-448" font-family="Helvetica,sans-Serif" font-size="10.00">Task.h</text>
</a>
</g>
</g>
<!-- Node1&#45;&gt;Node17 -->
<g id="edge16" class="edge"><title>Node1&#45;&gt;Node17</title>
<path fill="none" stroke="midnightblue" d="M624.158,-521.328C714.673,-506.838 861.777,-483.289 950.662,-469.06"/>
<polygon fill="midnightblue" stroke="midnightblue" points="951.352,-472.495 960.673,-467.458 950.245,-465.583 951.352,-472.495"/>
</g>
<!-- Node35 -->
<g id="node35" class="node"><title>Node35</title>
<polygon fill="none" stroke="#bfbfbf" points="1109.5,-446.5 1109.5,-465.5 1224.5,-465.5 1224.5,-446.5 1109.5,-446.5"/>
<text text-anchor="middle" x="1167" y="-453.5" font-family="Helvetica,sans-Serif" font-size="10.00">PHOSSimulation/Hit.h</text>
</g>
<!-- Node1&#45;&gt;Node35 -->
<g id="edge41" class="edge"><title>Node1&#45;&gt;Node35</title>
<path fill="none" stroke="midnightblue" d="M624.417,-527.868C732.489,-518.901 931.7,-500.154 1100,-472 1107.27,-470.783 1114.95,-469.278 1122.4,-467.696"/>
<polygon fill="midnightblue" stroke="midnightblue" points="1123.35,-471.07 1132.37,-465.509 1121.85,-464.233 1123.35,-471.07"/>
</g>
<!-- Node12 -->
<g id="node12" class="node"><title>Node12</title>
<polygon fill="none" stroke="#bfbfbf" points="792,-74.5 792,-93.5 848,-93.5 848,-74.5 792,-74.5"/>
<text text-anchor="middle" x="820" y="-81.5" font-family="Helvetica,sans-Serif" font-size="10.00">Rtypes.h</text>
</g>
<!-- Node11&#45;&gt;Node12 -->
<g id="edge11" class="edge"><title>Node11&#45;&gt;Node12</title>
<path fill="none" stroke="midnightblue" d="M829.864,-260.969C811.907,-253.138 793.378,-241.35 783,-224 759.378,-184.508 788.934,-129.849 807.351,-102.32"/>
<polygon fill="midnightblue" stroke="midnightblue" points="810.453,-103.99 813.295,-93.7837 804.708,-99.9902 810.453,-103.99"/>
</g>
<!-- Node14 -->
<g id="node14" class="node"><title>Node14</title>
<polygon fill="none" stroke="#bfbfbf" points="591.5,-266.5 591.5,-285.5 632.5,-285.5 632.5,-266.5 591.5,-266.5"/>
<text text-anchor="middle" x="612" y="-273.5" font-family="Helvetica,sans-Serif" font-size="10.00">string</text>
</g>
<!-- Node13&#45;&gt;Node14 -->
<g id="edge13" class="edge"><title>Node13&#45;&gt;Node14</title>
<path fill="none" stroke="midnightblue" d="M746.817,-328.49C719.379,-320.187 677.353,-306.69 642,-292 640.41,-291.339 638.788,-290.631 637.161,-289.896"/>
<polygon fill="midnightblue" stroke="midnightblue" points="638.532,-286.672 628,-285.517 635.513,-292.987 638.532,-286.672"/>
</g>
<!-- Node15 -->
<g id="node15" class="node"><title>Node15</title>
<polygon fill="none" stroke="#bfbfbf" points="651,-266.5 651,-285.5 731,-285.5 731,-266.5 651,-266.5"/>
<text text-anchor="middle" x="691" y="-273.5" font-family="Helvetica,sans-Serif" font-size="10.00">RStringView.h</text>
</g>
<!-- Node13&#45;&gt;Node15 -->
<g id="edge14" class="edge"><title>Node13&#45;&gt;Node15</title>
<path fill="none" stroke="midnightblue" d="M763.822,-328.403C750.188,-318.78 727.868,-303.024 711.526,-291.489"/>
<polygon fill="midnightblue" stroke="midnightblue" points="713.344,-288.488 703.156,-285.581 709.307,-294.207 713.344,-288.488"/>
</g>
<!-- Node16 -->
<g id="node16" class="node"><title>Node16</title>
<polygon fill="none" stroke="#bfbfbf" points="749.5,-266.5 749.5,-285.5 802.5,-285.5 802.5,-266.5 749.5,-266.5"/>
<text text-anchor="middle" x="776" y="-273.5" font-family="Helvetica,sans-Serif" font-size="10.00">TMath.h</text>
</g>
<!-- Node13&#45;&gt;Node16 -->
<g id="edge15" class="edge"><title>Node13&#45;&gt;Node16</title>
<path fill="none" stroke="midnightblue" d="M776,-328.403C776,-319.938 776,-306.728 776,-295.82"/>
<polygon fill="midnightblue" stroke="midnightblue" points="779.5,-295.581 776,-285.581 772.5,-295.581 779.5,-295.581"/>
</g>
<!-- Node17&#45;&gt;Node12 -->
<g id="edge18" class="edge"><title>Node17&#45;&gt;Node12</title>
<path fill="none" stroke="midnightblue" d="M1049.24,-440.92C1077.65,-421.728 1122,-384.485 1122,-339 1122,-339 1122,-339 1122,-207 1122,-196.241 1112.37,-197.281 1103,-192 1001.3,-134.702 965.765,-142.376 857,-100 854.766,-99.1295 852.46,-98.2204 850.142,-97.2989"/>
<polygon fill="midnightblue" stroke="midnightblue" points="851.288,-93.9873 840.703,-93.5092 848.679,-100.483 851.288,-93.9873"/>
</g>
<!-- Node18 -->
<g id="node18" class="node"><title>Node18</title>
<polygon fill="none" stroke="#bfbfbf" points="1150.5,-384.5 1150.5,-403.5 1213.5,-403.5 1213.5,-384.5 1150.5,-384.5"/>
<text text-anchor="middle" x="1182" y="-391.5" font-family="Helvetica,sans-Serif" font-size="10.00">FairTask.h</text>
</g>
<!-- Node17&#45;&gt;Node18 -->
<g id="edge17" class="edge"><title>Node17&#45;&gt;Node18</title>
<path fill="none" stroke="midnightblue" d="M1062.58,-440.933C1089.13,-430.72 1124.71,-417.036 1150.11,-407.266"/>
<polygon fill="midnightblue" stroke="midnightblue" points="1151.56,-410.457 1159.64,-403.6 1149.05,-403.923 1151.56,-410.457"/>
</g>
<!-- Node19 -->
<g id="node19" class="node"><title>Node19</title>
<g id="a_node19"><a xlink:href="../../d1/def/PHOS_2base_2include_2PHOSBase_2Hit_8h.html" target="_top" xlink:title="PHOSBase/Hit.h">
<polygon fill="none" stroke="black" points="991,-266.5 991,-285.5 1083,-285.5 1083,-266.5 991,-266.5"/>
<text text-anchor="middle" x="1037" y="-273.5" font-family="Helvetica,sans-Serif" font-size="10.00">PHOSBase/Hit.h</text>
</a>
</g>
</g>
<!-- Node17&#45;&gt;Node19 -->
<g id="edge19" class="edge"><title>Node17&#45;&gt;Node19</title>
<path fill="none" stroke="midnightblue" d="M1036.81,-440.715C1043.5,-430.949 1051.46,-417.392 1055,-404 1065.02,-366.117 1052.76,-320.311 1044.12,-295.371"/>
<polygon fill="midnightblue" stroke="midnightblue" points="1047.32,-293.952 1040.6,-285.763 1040.75,-296.357 1047.32,-293.952"/>
</g>
<!-- Node32 -->
<g id="node32" class="node"><title>Node32</title>
<g id="a_node32"><a xlink:href="../../d6/d4b/PHOS_2simulation_2include_2PHOSSimulation_2Digitizer_8h.html" target="_top" xlink:title="PHOSSimulation/Digitizer.h">
<polygon fill="none" stroke="black" points="908,-384.5 908,-403.5 1046,-403.5 1046,-384.5 908,-384.5"/>
<text text-anchor="middle" x="977" y="-391.5" font-family="Helvetica,sans-Serif" font-size="10.00">PHOSSimulation/Digitizer.h</text>
</a>
</g>
</g>
<!-- Node17&#45;&gt;Node32 -->
<g id="edge33" class="edge"><title>Node17&#45;&gt;Node32</title>
<path fill="none" stroke="midnightblue" d="M1014.39,-440.781C1007.27,-432.062 998.117,-420.857 990.651,-411.715"/>
<polygon fill="midnightblue" stroke="midnightblue" points="993.166,-409.262 984.13,-403.731 987.744,-413.69 993.166,-409.262"/>
</g>
<!-- Node20 -->
<g id="node20" class="node"><title>Node20</title>
<g id="a_node20"><a xlink:href="../../d4/d25/BaseHits_8h.html" target="_top" xlink:title="SimulationDataFormat\l/BaseHits.h">
<polygon fill="none" stroke="black" points="980,-193 980,-223 1094,-223 1094,-193 980,-193"/>
<text text-anchor="start" x="988" y="-211" font-family="Helvetica,sans-Serif" font-size="10.00">SimulationDataFormat</text>
<text text-anchor="middle" x="1037" y="-200" font-family="Helvetica,sans-Serif" font-size="10.00">/BaseHits.h</text>
</a>
</g>
</g>
<!-- Node19&#45;&gt;Node20 -->
<g id="edge20" class="edge"><title>Node19&#45;&gt;Node20</title>
<path fill="none" stroke="midnightblue" d="M1037,-266.372C1037,-257.971 1037,-244.811 1037,-233.213"/>
<polygon fill="midnightblue" stroke="midnightblue" points="1040.5,-233.181 1037,-223.181 1033.5,-233.181 1040.5,-233.181"/>
</g>
<!-- Node21 -->
<g id="node21" class="node"><title>Node21</title>
<g id="a_node21"><a xlink:href="../../dd/d76/Cartesian3D_8h.html" target="_top" xlink:title="MathUtils/Cartesian3D.h">
<polygon fill="none" stroke="black" points="1292.5,-136.5 1292.5,-155.5 1417.5,-155.5 1417.5,-136.5 1292.5,-136.5"/>
<text text-anchor="middle" x="1355" y="-143.5" font-family="Helvetica,sans-Serif" font-size="10.00">MathUtils/Cartesian3D.h</text>
</a>
</g>
</g>
<!-- Node20&#45;&gt;Node21 -->
<g id="edge21" class="edge"><title>Node20&#45;&gt;Node21</title>
<path fill="none" stroke="midnightblue" d="M1094.22,-196.204C1152.42,-185.223 1242,-168.321 1299.55,-157.462"/>
<polygon fill="midnightblue" stroke="midnightblue" points="1300.38,-160.868 1309.56,-155.574 1299.08,-153.989 1300.38,-160.868"/>
</g>
<!-- Node21&#45;&gt;Node12 -->
<g id="edge27" class="edge"><title>Node21&#45;&gt;Node12</title>
<path fill="none" stroke="midnightblue" d="M1292.37,-141.647C1177.62,-135.122 937.996,-119.618 857,-100 853.933,-99.2571 850.786,-98.3039 847.685,-97.2388"/>
<polygon fill="midnightblue" stroke="midnightblue" points="848.681,-93.8725 838.09,-93.5754 846.184,-100.412 848.681,-93.8725"/>
</g>
<!-- Node22 -->
<g id="node22" class="node"><title>Node22</title>
<polygon fill="none" stroke="#bfbfbf" points="1685.5,-69 1685.5,-99 1836.5,-99 1836.5,-69 1685.5,-69"/>
<text text-anchor="start" x="1693.5" y="-87" font-family="Helvetica,sans-Serif" font-size="10.00">Math/GenVector/Displacement</text>
<text text-anchor="middle" x="1761" y="-76" font-family="Helvetica,sans-Serif" font-size="10.00">Vector3D.h</text>
</g>
<!-- Node21&#45;&gt;Node22 -->
<g id="edge22" class="edge"><title>Node21&#45;&gt;Node22</title>
<path fill="none" stroke="midnightblue" d="M1417.54,-136.9C1480.15,-128.638 1579.51,-115.121 1675.59,-100.03"/>
<polygon fill="midnightblue" stroke="midnightblue" points="1676.15,-103.486 1685.48,-98.4701 1675.06,-96.5717 1676.15,-103.486"/>
</g>
<!-- Node23 -->
<g id="node23" class="node"><title>Node23</title>
<polygon fill="none" stroke="#bfbfbf" points="1855,-74.5 1855,-93.5 2031,-93.5 2031,-74.5 1855,-74.5"/>
<text text-anchor="middle" x="1943" y="-81.5" font-family="Helvetica,sans-Serif" font-size="10.00">Math/GenVector/PositionVector3D.h</text>
</g>
<!-- Node21&#45;&gt;Node23 -->
<g id="edge23" class="edge"><title>Node21&#45;&gt;Node23</title>
<path fill="none" stroke="midnightblue" d="M1417.78,-140.452C1511.12,-133.415 1691.94,-118.724 1845,-100 1856.75,-98.5631 1869.25,-96.8161 1881.26,-95.0293"/>
<polygon fill="midnightblue" stroke="midnightblue" points="1881.84,-98.4815 1891.2,-93.5249 1880.79,-91.5602 1881.84,-98.4815"/>
</g>
<!-- Node24 -->
<g id="node24" class="node"><title>Node24</title>
<polygon fill="none" stroke="#bfbfbf" points="865.5,-74.5 865.5,-93.5 1014.5,-93.5 1014.5,-74.5 865.5,-74.5"/>
<text text-anchor="middle" x="940" y="-81.5" font-family="Helvetica,sans-Serif" font-size="10.00">Math/GenVector/Rotation3D.h</text>
</g>
<!-- Node21&#45;&gt;Node24 -->
<g id="edge24" class="edge"><title>Node21&#45;&gt;Node24</title>
<path fill="none" stroke="midnightblue" d="M1292.35,-137.272C1225.71,-128.865 1117.24,-114.657 1024,-100 1014.86,-98.564 1005.19,-96.9365 995.783,-95.2962"/>
<polygon fill="midnightblue" stroke="midnightblue" points="996.174,-91.8112 985.717,-93.5198 994.957,-98.7047 996.174,-91.8112"/>
</g>
<!-- Node25 -->
<g id="node25" class="node"><title>Node25</title>
<polygon fill="none" stroke="#bfbfbf" points="1033,-74.5 1033,-93.5 1189,-93.5 1189,-74.5 1033,-74.5"/>
<text text-anchor="middle" x="1111" y="-81.5" font-family="Helvetica,sans-Serif" font-size="10.00">Math/GenVector/Transform3D.h</text>
</g>
<!-- Node21&#45;&gt;Node25 -->
<g id="edge25" class="edge"><title>Node21&#45;&gt;Node25</title>
<path fill="none" stroke="midnightblue" d="M1320.3,-136.467C1277.03,-125.827 1202.99,-107.622 1155.57,-95.9593"/>
<polygon fill="midnightblue" stroke="midnightblue" points="1156.13,-92.4926 1145.58,-93.5034 1154.46,-99.2901 1156.13,-92.4926"/>
</g>
<!-- Node26 -->
<g id="node26" class="node"><title>Node26</title>
<polygon fill="none" stroke="#bfbfbf" points="1207,-74.5 1207,-93.5 1367,-93.5 1367,-74.5 1207,-74.5"/>
<text text-anchor="middle" x="1287" y="-81.5" font-family="Helvetica,sans-Serif" font-size="10.00">Math/GenVector/Translation3D.h</text>
</g>
<!-- Node21&#45;&gt;Node26 -->
<g id="edge26" class="edge"><title>Node21&#45;&gt;Node26</title>
<path fill="none" stroke="midnightblue" d="M1345.26,-136.403C1334.65,-127.047 1317.48,-111.895 1304.52,-100.46"/>
<polygon fill="midnightblue" stroke="midnightblue" points="1306.54,-97.5724 1296.72,-93.5806 1301.91,-102.821 1306.54,-97.5724"/>
</g>
<!-- Node27 -->
<g id="node27" class="node"><title>Node27</title>
<polygon fill="none" stroke="#bfbfbf" points="1385,-74.5 1385,-93.5 1461,-93.5 1461,-74.5 1385,-74.5"/>
<text text-anchor="middle" x="1423" y="-81.5" font-family="Helvetica,sans-Serif" font-size="10.00">TGeoMatrix.h</text>
</g>
<!-- Node21&#45;&gt;Node27 -->
<g id="edge28" class="edge"><title>Node21&#45;&gt;Node27</title>
<path fill="none" stroke="midnightblue" d="M1364.74,-136.403C1375.35,-127.047 1392.52,-111.895 1405.48,-100.46"/>
<polygon fill="midnightblue" stroke="midnightblue" points="1408.09,-102.821 1413.28,-93.5806 1403.46,-97.5724 1408.09,-102.821"/>
</g>
<!-- Node28 -->
<g id="node28" class="node"><title>Node28</title>
<polygon fill="none" stroke="#bfbfbf" points="1479.5,-74.5 1479.5,-93.5 1524.5,-93.5 1524.5,-74.5 1479.5,-74.5"/>
<text text-anchor="middle" x="1502" y="-81.5" font-family="Helvetica,sans-Serif" font-size="10.00">iosfwd</text>
</g>
<!-- Node21&#45;&gt;Node28 -->
<g id="edge29" class="edge"><title>Node21&#45;&gt;Node28</title>
<path fill="none" stroke="midnightblue" d="M1378.09,-136.473C1401.44,-127.731 1438.48,-113.537 1470,-100 1471.59,-99.3175 1473.22,-98.6034 1474.85,-97.8731"/>
<polygon fill="midnightblue" stroke="midnightblue" points="1476.52,-100.961 1484.15,-93.6172 1473.6,-94.596 1476.52,-100.961"/>
</g>
<!-- Node29 -->
<g id="node29" class="node"><title>Node29</title>
<g id="a_node29"><a xlink:href="../../d2/dd0/Cartesian2D_8h.html" target="_top" xlink:title="MathUtils/Cartesian2D.h">
<polygon fill="none" stroke="black" points="1542.5,-74.5 1542.5,-93.5 1667.5,-93.5 1667.5,-74.5 1542.5,-74.5"/>
<text text-anchor="middle" x="1605" y="-81.5" font-family="Helvetica,sans-Serif" font-size="10.00">MathUtils/Cartesian2D.h</text>
</a>
</g>
</g>
<!-- Node21&#45;&gt;Node29 -->
<g id="edge30" class="edge"><title>Node21&#45;&gt;Node29</title>
<path fill="none" stroke="midnightblue" d="M1390.55,-136.467C1434.98,-125.805 1511.06,-107.545 1559.64,-95.886"/>
<polygon fill="midnightblue" stroke="midnightblue" points="1560.66,-99.2405 1569.57,-93.5034 1559.03,-92.4338 1560.66,-99.2405"/>
</g>
<!-- Node30 -->
<g id="node30" class="node"><title>Node30</title>
<polygon fill="none" stroke="#bfbfbf" points="1438.5,-1 1438.5,-31 1589.5,-31 1589.5,-1 1438.5,-1"/>
<text text-anchor="start" x="1446.5" y="-19" font-family="Helvetica,sans-Serif" font-size="10.00">Math/GenVector/Displacement</text>
<text text-anchor="middle" x="1514" y="-8" font-family="Helvetica,sans-Serif" font-size="10.00">Vector2D.h</text>
</g>
<!-- Node29&#45;&gt;Node30 -->
<g id="edge31" class="edge"><title>Node29&#45;&gt;Node30</title>
<path fill="none" stroke="midnightblue" d="M1593.1,-74.3717C1580.22,-65.0286 1559.22,-49.7966 1542.09,-37.375"/>
<polygon fill="midnightblue" stroke="midnightblue" points="1543.7,-34.2194 1533.55,-31.1815 1539.59,-39.8859 1543.7,-34.2194"/>
</g>
<!-- Node31 -->
<g id="node31" class="node"><title>Node31</title>
<polygon fill="none" stroke="#bfbfbf" points="1608,-6.5 1608,-25.5 1784,-25.5 1784,-6.5 1608,-6.5"/>
<text text-anchor="middle" x="1696" y="-13.5" font-family="Helvetica,sans-Serif" font-size="10.00">Math/GenVector/PositionVector2D.h</text>
</g>
<!-- Node29&#45;&gt;Node31 -->
<g id="edge32" class="edge"><title>Node29&#45;&gt;Node31</title>
<path fill="none" stroke="midnightblue" d="M1616.9,-74.3717C1631.88,-63.5015 1657.86,-44.6602 1675.94,-31.5474"/>
<polygon fill="midnightblue" stroke="midnightblue" points="1678.06,-34.3349 1684.1,-25.6305 1673.95,-28.6684 1678.06,-34.3349"/>
</g>
<!-- Node32&#45;&gt;Node13 -->
<g id="edge39" class="edge"><title>Node32&#45;&gt;Node13</title>
<path fill="none" stroke="midnightblue" d="M945.151,-384.444C910.602,-375.162 855.318,-360.309 817.417,-350.127"/>
<polygon fill="midnightblue" stroke="midnightblue" points="818.266,-346.731 807.7,-347.516 816.449,-353.491 818.266,-346.731"/>
</g>
<!-- Node32&#45;&gt;Node19 -->
<g id="edge40" class="edge"><title>Node32&#45;&gt;Node19</title>
<path fill="none" stroke="midnightblue" d="M986.659,-384.241C995.468,-375.762 1008.26,-362.147 1016,-348 1025.05,-331.467 1030.62,-310.582 1033.73,-295.753"/>
<polygon fill="midnightblue" stroke="midnightblue" points="1037.2,-296.246 1035.65,-285.766 1030.33,-294.928 1037.2,-296.246"/>
</g>
<!-- Node33 -->
<g id="node33" class="node"><title>Node33</title>
<g id="a_node33"><a xlink:href="../../d8/de9/PHOS_2base_2include_2PHOSBase_2Digit_8h.html" target="_top" xlink:title="PHOSBase/Digit.h">
<polygon fill="none" stroke="black" points="908.5,-328.5 908.5,-347.5 1007.5,-347.5 1007.5,-328.5 908.5,-328.5"/>
<text text-anchor="middle" x="958" y="-335.5" font-family="Helvetica,sans-Serif" font-size="10.00">PHOSBase/Digit.h</text>
</a>
</g>
</g>
<!-- Node32&#45;&gt;Node33 -->
<g id="edge34" class="edge"><title>Node32&#45;&gt;Node33</title>
<path fill="none" stroke="midnightblue" d="M973.863,-384.083C971.317,-376.849 967.644,-366.409 964.473,-357.397"/>
<polygon fill="midnightblue" stroke="midnightblue" points="967.7,-356.023 961.079,-347.751 961.097,-358.346 967.7,-356.023"/>
</g>
<!-- Node33&#45;&gt;Node11 -->
<g id="edge37" class="edge"><title>Node33&#45;&gt;Node11</title>
<path fill="none" stroke="midnightblue" d="M946.538,-328.403C935.703,-320.277 919.039,-307.779 904.856,-297.142"/>
<polygon fill="midnightblue" stroke="midnightblue" points="906.954,-294.341 896.854,-291.141 902.754,-299.941 906.954,-294.341"/>
</g>
<!-- Node33&#45;&gt;Node19 -->
<g id="edge38" class="edge"><title>Node33&#45;&gt;Node19</title>
<path fill="none" stroke="midnightblue" d="M969.319,-328.403C981.873,-318.869 1002.35,-303.315 1017.5,-291.811"/>
<polygon fill="midnightblue" stroke="midnightblue" points="1019.86,-294.416 1025.7,-285.581 1015.62,-288.842 1019.86,-294.416"/>
</g>
<!-- Node34 -->
<g id="node34" class="node"><title>Node34</title>
<g id="a_node34"><a xlink:href="../../df/d5d/common_2include_2CommonDataFormat_2TimeStamp_8h.html" target="_top" xlink:title="CommonDataFormat/TimeStamp.h">
<polygon fill="none" stroke="black" points="792,-198.5 792,-217.5 962,-217.5 962,-198.5 792,-198.5"/>
<text text-anchor="middle" x="877" y="-205.5" font-family="Helvetica,sans-Serif" font-size="10.00">CommonDataFormat/TimeStamp.h</text>
</a>
</g>
</g>
<!-- Node33&#45;&gt;Node34 -->
<g id="edge35" class="edge"><title>Node33&#45;&gt;Node34</title>
<path fill="none" stroke="midnightblue" d="M958.388,-328.197C958.643,-313.095 957.352,-281.777 944,-260 934.285,-244.154 917.692,-231.468 903.45,-222.711"/>
<polygon fill="midnightblue" stroke="midnightblue" points="904.933,-219.525 894.527,-217.531 901.418,-225.579 904.933,-219.525"/>
</g>
<!-- Node34&#45;&gt;Node12 -->
<g id="edge36" class="edge"><title>Node34&#45;&gt;Node12</title>
<path fill="none" stroke="midnightblue" d="M872.901,-198.226C863.616,-178.354 840.827,-129.576 828.405,-102.989"/>
<polygon fill="midnightblue" stroke="midnightblue" points="831.466,-101.273 824.062,-93.6944 825.124,-104.236 831.466,-101.273"/>
</g>
</g>
</svg>
