<?xml version="1.0" encoding="UTF-8" standalone="no"?>
<!DOCTYPE svg PUBLIC "-//W3C//DTD SVG 1.1//EN"
 "http://www.w3.org/Graphics/SVG/1.1/DTD/svg11.dtd">
<!-- Generated by graphviz version 2.36.0 (20140111.2315)
 -->
<!-- Title: /home/travis/build/AliceO2Group/AliceO2/Detectors/ITSMFT/ITS/reconstruction/src/CA/Track.cxx Pages: 1 -->
<svg width="186pt" height="140pt"
 viewBox="0.00 0.00 186.00 140.00" xmlns="http://www.w3.org/2000/svg" xmlns:xlink="http://www.w3.org/1999/xlink">
<g id="graph0" class="graph" transform="scale(1 1) rotate(0) translate(4 136)">
<title>/home/travis/build/AliceO2Group/AliceO2/Detectors/ITSMFT/ITS/reconstruction/src/CA/Track.cxx</title>
<!-- Node1 -->
<g id="node1" class="node"><title>Node1</title>
<polygon fill="#bfbfbf" stroke="black" points="47,-68.5 47,-131.5 167,-131.5 167,-68.5 47,-68.5"/>
<text text-anchor="start" x="55" y="-119.5" font-family="Helvetica,sans-Serif" font-size="10.00">/home/travis/build</text>
<text text-anchor="start" x="55" y="-108.5" font-family="Helvetica,sans-Serif" font-size="10.00">/AliceO2Group/AliceO2</text>
<text text-anchor="start" x="55" y="-97.5" font-family="Helvetica,sans-Serif" font-size="10.00">/Detectors/ITSMFT/ITS</text>
<text text-anchor="start" x="55" y="-86.5" font-family="Helvetica,sans-Serif" font-size="10.00">/reconstruction/src/CA</text>
<text text-anchor="middle" x="107" y="-75.5" font-family="Helvetica,sans-Serif" font-size="10.00">/Track.cxx</text>
</g>
<!-- Node2 -->
<g id="node2" class="node"><title>Node2</title>
<polygon fill="none" stroke="#bfbfbf" points="0,-1 0,-31 116,-31 116,-1 0,-1"/>
<text text-anchor="start" x="8" y="-19" font-family="Helvetica,sans-Serif" font-size="10.00">ITSReconstruction/CA</text>
<text text-anchor="middle" x="58" y="-8" font-family="Helvetica,sans-Serif" font-size="10.00">/Track.h</text>
</g>
<!-- Node1&#45;&gt;Node2 -->
<g id="edge1" class="edge"><title>Node1&#45;&gt;Node2</title>
<path fill="none" stroke="midnightblue" d="M88.7542,-68.4662C83.0997,-59.0035 76.9688,-48.7437 71.6798,-39.8928"/>
<polygon fill="midnightblue" stroke="midnightblue" points="74.6622,-38.0604 66.5281,-31.2716 68.6533,-41.6511 74.6622,-38.0604"/>
</g>
<!-- Node3 -->
<g id="node3" class="node"><title>Node3</title>
<polygon fill="none" stroke="#bfbfbf" points="134,-6.5 134,-25.5 178,-25.5 178,-6.5 134,-6.5"/>
<text text-anchor="middle" x="156" y="-13.5" font-family="Helvetica,sans-Serif" font-size="10.00">cmath</text>
</g>
<!-- Node1&#45;&gt;Node3 -->
<g id="edge2" class="edge"><title>Node1&#45;&gt;Node3</title>
<path fill="none" stroke="midnightblue" d="M125.246,-68.4662C132.103,-56.9915 139.66,-44.3446 145.567,-34.4591"/>
<polygon fill="midnightblue" stroke="midnightblue" points="148.712,-36.0193 150.837,-25.6398 142.703,-32.4286 148.712,-36.0193"/>
</g>
</g>
</svg>
