<?xml version="1.0" encoding="UTF-8" standalone="no"?>
<!DOCTYPE svg PUBLIC "-//W3C//DTD SVG 1.1//EN"
 "http://www.w3.org/Graphics/SVG/1.1/DTD/svg11.dtd">
<!-- Generated by graphviz version 2.36.0 (20140111.2315)
 -->
<!-- Title: /home/travis/build/AliceO2Group/AliceO2/Steer/include/Steer/O2MCApplication.h Pages: 1 -->
<svg width="1881pt" height="366pt"
 viewBox="0.00 0.00 1881.00 366.00" xmlns="http://www.w3.org/2000/svg" xmlns:xlink="http://www.w3.org/1999/xlink">
<g id="graph0" class="graph" transform="scale(1 1) rotate(0) translate(4 362)">
<title>/home/travis/build/AliceO2Group/AliceO2/Steer/include/Steer/O2MCApplication.h</title>
<!-- Node1 -->
<g id="node1" class="node"><title>Node1</title>
<polygon fill="#bfbfbf" stroke="black" points="1341.5,-316.5 1341.5,-357.5 1532.5,-357.5 1532.5,-316.5 1341.5,-316.5"/>
<text text-anchor="start" x="1349.5" y="-345.5" font-family="Helvetica,sans-Serif" font-size="10.00">/home/travis/build</text>
<text text-anchor="start" x="1349.5" y="-334.5" font-family="Helvetica,sans-Serif" font-size="10.00">/AliceO2Group/AliceO2</text>
<text text-anchor="middle" x="1437" y="-323.5" font-family="Helvetica,sans-Serif" font-size="10.00">/Steer/include/Steer/O2MCApplication.h</text>
</g>
<!-- Node2 -->
<g id="node2" class="node"><title>Node2</title>
<polygon fill="none" stroke="#bfbfbf" points="403.5,-254.5 403.5,-273.5 508.5,-273.5 508.5,-254.5 403.5,-254.5"/>
<text text-anchor="middle" x="456" y="-261.5" font-family="Helvetica,sans-Serif" font-size="10.00">FairMCApplication.h</text>
</g>
<!-- Node1&#45;&gt;Node2 -->
<g id="edge1" class="edge"><title>Node1&#45;&gt;Node2</title>
<path fill="none" stroke="midnightblue" d="M1341.43,-335.134C1174.55,-332.513 819.515,-322.003 523,-280 515.2,-278.895 506.961,-277.361 499.03,-275.693"/>
<polygon fill="midnightblue" stroke="midnightblue" points="499.725,-272.262 489.206,-273.53 498.22,-279.098 499.725,-272.262"/>
</g>
<!-- Node3 -->
<g id="node3" class="node"><title>Node3</title>
<polygon fill="none" stroke="#bfbfbf" points="1116,-56.5 1116,-75.5 1172,-75.5 1172,-56.5 1116,-56.5"/>
<text text-anchor="middle" x="1144" y="-63.5" font-family="Helvetica,sans-Serif" font-size="10.00">Rtypes.h</text>
</g>
<!-- Node1&#45;&gt;Node3 -->
<g id="edge2" class="edge"><title>Node1&#45;&gt;Node3</title>
<path fill="none" stroke="midnightblue" d="M1422.82,-316.446C1415.66,-305.981 1407.19,-292.669 1401,-280 1366.26,-208.898 1401.06,-164.672 1342,-112 1318.68,-91.2019 1232.7,-77.6287 1182.03,-71.248"/>
<polygon fill="midnightblue" stroke="midnightblue" points="1182.45,-67.7727 1172.09,-70.0317 1181.6,-74.7208 1182.45,-67.7727"/>
</g>
<!-- Node4 -->
<g id="node4" class="node"><title>Node4</title>
<polygon fill="none" stroke="#bfbfbf" points="1410,-254.5 1410,-273.5 1464,-273.5 1464,-254.5 1410,-254.5"/>
<text text-anchor="middle" x="1437" y="-261.5" font-family="Helvetica,sans-Serif" font-size="10.00">iostream</text>
</g>
<!-- Node1&#45;&gt;Node4 -->
<g id="edge3" class="edge"><title>Node1&#45;&gt;Node4</title>
<path fill="none" stroke="midnightblue" d="M1437,-316.223C1437,-306.086 1437,-293.807 1437,-283.813"/>
<polygon fill="midnightblue" stroke="midnightblue" points="1440.5,-283.735 1437,-273.735 1433.5,-283.735 1440.5,-283.735"/>
</g>
<!-- Node5 -->
<g id="node5" class="node"><title>Node5</title>
<polygon fill="none" stroke="#bfbfbf" points="255,-118.5 255,-137.5 319,-137.5 319,-118.5 255,-118.5"/>
<text text-anchor="middle" x="287" y="-125.5" font-family="Helvetica,sans-Serif" font-size="10.00">TParticle.h</text>
</g>
<!-- Node1&#45;&gt;Node5 -->
<g id="edge4" class="edge"><title>Node1&#45;&gt;Node5</title>
<path fill="none" stroke="midnightblue" d="M1341.14,-329.603C1228.96,-321.388 1037.8,-305.121 875,-280 729.584,-257.562 693.511,-248.605 551,-212 450.641,-186.222 426.247,-176.924 328,-144 325.238,-143.074 322.38,-142.088 319.519,-141.081"/>
<polygon fill="midnightblue" stroke="midnightblue" points="320.502,-137.716 309.908,-137.632 318.138,-144.304 320.502,-137.716"/>
</g>
<!-- Node6 -->
<g id="node6" class="node"><title>Node6</title>
<polygon fill="none" stroke="#bfbfbf" points="1482,-254.5 1482,-273.5 1526,-273.5 1526,-254.5 1482,-254.5"/>
<text text-anchor="middle" x="1504" y="-261.5" font-family="Helvetica,sans-Serif" font-size="10.00">vector</text>
</g>
<!-- Node1&#45;&gt;Node6 -->
<g id="edge5" class="edge"><title>Node1&#45;&gt;Node6</title>
<path fill="none" stroke="midnightblue" d="M1455.66,-316.223C1466.05,-305.214 1478.82,-291.679 1488.63,-281.287"/>
<polygon fill="midnightblue" stroke="midnightblue" points="1491.44,-283.41 1495.76,-273.735 1486.35,-278.606 1491.44,-283.41"/>
</g>
<!-- Node7 -->
<g id="node7" class="node"><title>Node7</title>
<g id="a_node7"><a xlink:href="../../d4/d03/simulation_2include_2SimulationDataFormat_2Stack_8h.html" target="_top" xlink:title="SimulationDataFormat\l/Stack.h">
<polygon fill="none" stroke="black" points="884,-249 884,-279 998,-279 998,-249 884,-249"/>
<text text-anchor="start" x="892" y="-267" font-family="Helvetica,sans-Serif" font-size="10.00">SimulationDataFormat</text>
<text text-anchor="middle" x="941" y="-256" font-family="Helvetica,sans-Serif" font-size="10.00">/Stack.h</text>
</a>
</g>
</g>
<!-- Node1&#45;&gt;Node7 -->
<g id="edge6" class="edge"><title>Node1&#45;&gt;Node7</title>
<path fill="none" stroke="midnightblue" d="M1341.37,-322.31C1243.58,-308.312 1094.18,-286.927 1008.22,-274.623"/>
<polygon fill="midnightblue" stroke="midnightblue" points="1008.46,-271.121 998.064,-273.168 1007.47,-278.05 1008.46,-271.121"/>
</g>
<!-- Node36 -->
<g id="node36" class="node"><title>Node36</title>
<g id="a_node36"><a xlink:href="../../d9/d45/PrimaryChunk_8h.html" target="_top" xlink:title="SimulationDataFormat\l/PrimaryChunk.h">
<polygon fill="none" stroke="black" points="1544,-249 1544,-279 1658,-279 1658,-249 1544,-249"/>
<text text-anchor="start" x="1552" y="-267" font-family="Helvetica,sans-Serif" font-size="10.00">SimulationDataFormat</text>
<text text-anchor="middle" x="1601" y="-256" font-family="Helvetica,sans-Serif" font-size="10.00">/PrimaryChunk.h</text>
</a>
</g>
</g>
<!-- Node1&#45;&gt;Node36 -->
<g id="edge46" class="edge"><title>Node1&#45;&gt;Node36</title>
<path fill="none" stroke="midnightblue" d="M1482.25,-316.411C1506.33,-305.985 1535.74,-293.251 1559.27,-283.064"/>
<polygon fill="midnightblue" stroke="midnightblue" points="1560.85,-286.197 1568.63,-279.012 1558.07,-279.773 1560.85,-286.197"/>
</g>
<!-- Node38 -->
<g id="node38" class="node"><title>Node38</title>
<polygon fill="none" stroke="#bfbfbf" points="1676,-254.5 1676,-273.5 1776,-273.5 1776,-254.5 1676,-254.5"/>
<text text-anchor="middle" x="1726" y="-261.5" font-family="Helvetica,sans-Serif" font-size="10.00">FairRootManager.h</text>
</g>
<!-- Node1&#45;&gt;Node38 -->
<g id="edge48" class="edge"><title>Node1&#45;&gt;Node38</title>
<path fill="none" stroke="midnightblue" d="M1518.21,-316.439C1562.26,-305.775 1617.65,-292.281 1667,-280 1672.06,-278.74 1677.37,-277.409 1682.63,-276.08"/>
<polygon fill="midnightblue" stroke="midnightblue" points="1683.79,-279.395 1692.63,-273.547 1682.08,-272.61 1683.79,-279.395"/>
</g>
<!-- Node39 -->
<g id="node39" class="node"><title>Node39</title>
<polygon fill="none" stroke="#bfbfbf" points="1794.5,-254.5 1794.5,-273.5 1873.5,-273.5 1873.5,-254.5 1794.5,-254.5"/>
<text text-anchor="middle" x="1834" y="-261.5" font-family="Helvetica,sans-Serif" font-size="10.00">FairDetector.h</text>
</g>
<!-- Node1&#45;&gt;Node39 -->
<g id="edge49" class="edge"><title>Node1&#45;&gt;Node39</title>
<path fill="none" stroke="midnightblue" d="M1532.59,-324.225C1602.89,-314.693 1700.51,-299.632 1785,-280 1789.46,-278.964 1794.1,-277.738 1798.68,-276.441"/>
<polygon fill="midnightblue" stroke="midnightblue" points="1799.9,-279.731 1808.5,-273.534 1797.91,-273.019 1799.9,-279.731"/>
</g>
<!-- Node7&#45;&gt;Node3 -->
<g id="edge40" class="edge"><title>Node7&#45;&gt;Node3</title>
<path fill="none" stroke="midnightblue" d="M998.312,-254.172C1045.89,-245.621 1108.37,-231.142 1125,-212 1155.86,-176.482 1152,-116.4 1147.51,-85.9316"/>
<polygon fill="midnightblue" stroke="midnightblue" points="1150.92,-85.1095 1145.83,-75.8174 1144.02,-86.2555 1150.92,-85.1095"/>
</g>
<!-- Node7&#45;&gt;Node5 -->
<g id="edge41" class="edge"><title>Node7&#45;&gt;Node5</title>
<path fill="none" stroke="midnightblue" d="M883.679,-258.538C797.839,-251.212 640.476,-235.104 589,-212 568.856,-202.959 571.07,-189.204 551,-180 459.744,-138.151 425.138,-169.362 328,-144 324.597,-143.111 321.08,-142.052 317.603,-140.913"/>
<polygon fill="midnightblue" stroke="midnightblue" points="318.63,-137.565 308.035,-137.568 316.32,-144.172 318.63,-137.565"/>
</g>
<!-- Node8 -->
<g id="node8" class="node"><title>Node8</title>
<g id="a_node8"><a xlink:href="../../d6/d31/DetID_8h.html" target="_top" xlink:title="DetectorsCommonDataFormats\l/DetID.h">
<polygon fill="none" stroke="black" points="337,-113 337,-143 493,-143 493,-113 337,-113"/>
<text text-anchor="start" x="345" y="-131" font-family="Helvetica,sans-Serif" font-size="10.00">DetectorsCommonDataFormats</text>
<text text-anchor="middle" x="415" y="-120" font-family="Helvetica,sans-Serif" font-size="10.00">/DetID.h</text>
</a>
</g>
</g>
<!-- Node7&#45;&gt;Node8 -->
<g id="edge7" class="edge"><title>Node7&#45;&gt;Node8</title>
<path fill="none" stroke="midnightblue" d="M883.794,-261.591C820.019,-258.222 714.948,-247.233 632,-212 610.074,-202.686 610.32,-190.628 589,-180 559.003,-165.046 523.858,-153.709 493.037,-145.567"/>
<polygon fill="midnightblue" stroke="midnightblue" points="493.75,-142.137 483.194,-143.035 492.007,-148.916 493.75,-142.137"/>
</g>
<!-- Node17 -->
<g id="node17" class="node"><title>Node17</title>
<polygon fill="none" stroke="#bfbfbf" points="773.5,-186.5 773.5,-205.5 874.5,-205.5 874.5,-186.5 773.5,-186.5"/>
<text text-anchor="middle" x="824" y="-193.5" font-family="Helvetica,sans-Serif" font-size="10.00">FairGenericStack.h</text>
</g>
<!-- Node7&#45;&gt;Node17 -->
<g id="edge18" class="edge"><title>Node7&#45;&gt;Node17</title>
<path fill="none" stroke="midnightblue" d="M915.901,-248.841C895.845,-237.528 867.912,-221.771 848.119,-210.605"/>
<polygon fill="midnightblue" stroke="midnightblue" points="849.82,-207.547 839.391,-205.682 846.381,-213.644 849.82,-207.547"/>
</g>
<!-- Node18 -->
<g id="node18" class="node"><title>Node18</title>
<g id="a_node18"><a xlink:href="../../d2/de2/MCTrack_8h.html" target="_top" xlink:title="Definition of the MCTrack class. ">
<polygon fill="none" stroke="black" points="641,-181 641,-211 755,-211 755,-181 641,-181"/>
<text text-anchor="start" x="649" y="-199" font-family="Helvetica,sans-Serif" font-size="10.00">SimulationDataFormat</text>
<text text-anchor="middle" x="698" y="-188" font-family="Helvetica,sans-Serif" font-size="10.00">/MCTrack.h</text>
</a>
</g>
</g>
<!-- Node7&#45;&gt;Node18 -->
<g id="edge19" class="edge"><title>Node7&#45;&gt;Node18</title>
<path fill="none" stroke="midnightblue" d="M889.168,-248.922C851.181,-238.605 799.471,-224.56 759.41,-213.679"/>
<polygon fill="midnightblue" stroke="midnightblue" points="760.32,-210.3 749.752,-211.056 758.485,-217.055 760.32,-210.3"/>
</g>
<!-- Node25 -->
<g id="node25" class="node"><title>Node25</title>
<g id="a_node25"><a xlink:href="../../db/d14/MCTruthContainer_8h.html" target="_top" xlink:title="Definition of a container to keep Monte Carlo truth external to simulation objects. ">
<polygon fill="none" stroke="black" points="123,-113 123,-143 237,-143 237,-113 123,-113"/>
<text text-anchor="start" x="131" y="-131" font-family="Helvetica,sans-Serif" font-size="10.00">SimulationDataFormat</text>
<text text-anchor="middle" x="180" y="-120" font-family="Helvetica,sans-Serif" font-size="10.00">/MCTruthContainer.h</text>
</a>
</g>
</g>
<!-- Node7&#45;&gt;Node25 -->
<g id="edge29" class="edge"><title>Node7&#45;&gt;Node25</title>
<path fill="none" stroke="midnightblue" d="M883.981,-257.311C807.129,-249.257 666.19,-233.13 547,-212 415.122,-188.621 381.324,-174.959 247.078,-144.254"/>
<polygon fill="midnightblue" stroke="midnightblue" points="247.764,-140.82 237.236,-142.013 246.21,-147.646 247.764,-140.82"/>
</g>
<!-- Node29 -->
<g id="node29" class="node"><title>Node29</title>
<g id="a_node29"><a xlink:href="../../d5/dbe/TrackReference_8h.html" target="_top" xlink:title="SimulationDataFormat\l/TrackReference.h">
<polygon fill="none" stroke="black" points="1172,-181 1172,-211 1286,-211 1286,-181 1172,-181"/>
<text text-anchor="start" x="1180" y="-199" font-family="Helvetica,sans-Serif" font-size="10.00">SimulationDataFormat</text>
<text text-anchor="middle" x="1229" y="-188" font-family="Helvetica,sans-Serif" font-size="10.00">/TrackReference.h</text>
</a>
</g>
</g>
<!-- Node7&#45;&gt;Node29 -->
<g id="edge35" class="edge"><title>Node7&#45;&gt;Node29</title>
<path fill="none" stroke="midnightblue" d="M998.244,-249.882C1045.36,-239.084 1112.23,-223.76 1161.86,-212.385"/>
<polygon fill="midnightblue" stroke="midnightblue" points="1162.9,-215.739 1171.86,-210.094 1161.34,-208.916 1162.9,-215.739"/>
</g>
<!-- Node32 -->
<g id="node32" class="node"><title>Node32</title>
<polygon fill="none" stroke="#bfbfbf" points="892.5,-186.5 892.5,-205.5 927.5,-205.5 927.5,-186.5 892.5,-186.5"/>
<text text-anchor="middle" x="910" y="-193.5" font-family="Helvetica,sans-Serif" font-size="10.00">map</text>
</g>
<!-- Node7&#45;&gt;Node32 -->
<g id="edge42" class="edge"><title>Node7&#45;&gt;Node32</title>
<path fill="none" stroke="midnightblue" d="M934.273,-248.679C929.631,-238.796 923.424,-225.579 918.448,-214.986"/>
<polygon fill="midnightblue" stroke="midnightblue" points="921.566,-213.392 914.147,-205.828 915.23,-216.368 921.566,-213.392"/>
</g>
<!-- Node33 -->
<g id="node33" class="node"><title>Node33</title>
<polygon fill="none" stroke="#bfbfbf" points="946,-186.5 946,-205.5 998,-205.5 998,-186.5 946,-186.5"/>
<text text-anchor="middle" x="972" y="-193.5" font-family="Helvetica,sans-Serif" font-size="10.00">memory</text>
</g>
<!-- Node7&#45;&gt;Node33 -->
<g id="edge43" class="edge"><title>Node7&#45;&gt;Node33</title>
<path fill="none" stroke="midnightblue" d="M947.727,-248.679C952.369,-238.796 958.576,-225.579 963.552,-214.986"/>
<polygon fill="midnightblue" stroke="midnightblue" points="966.77,-216.368 967.853,-205.828 960.434,-213.392 966.77,-216.368"/>
</g>
<!-- Node34 -->
<g id="node34" class="node"><title>Node34</title>
<polygon fill="none" stroke="#bfbfbf" points="1016.5,-186.5 1016.5,-205.5 1057.5,-205.5 1057.5,-186.5 1016.5,-186.5"/>
<text text-anchor="middle" x="1037" y="-193.5" font-family="Helvetica,sans-Serif" font-size="10.00">stack</text>
</g>
<!-- Node7&#45;&gt;Node34 -->
<g id="edge44" class="edge"><title>Node7&#45;&gt;Node34</title>
<path fill="none" stroke="midnightblue" d="M961.831,-248.679C977.78,-237.713 999.698,-222.645 1015.75,-211.609"/>
<polygon fill="midnightblue" stroke="midnightblue" points="1018.18,-214.187 1024.44,-205.638 1014.21,-208.419 1018.18,-214.187"/>
</g>
<!-- Node35 -->
<g id="node35" class="node"><title>Node35</title>
<polygon fill="none" stroke="#bfbfbf" points="1076,-186.5 1076,-205.5 1116,-205.5 1116,-186.5 1076,-186.5"/>
<text text-anchor="middle" x="1096" y="-193.5" font-family="Helvetica,sans-Serif" font-size="10.00">utility</text>
</g>
<!-- Node7&#45;&gt;Node35 -->
<g id="edge45" class="edge"><title>Node7&#45;&gt;Node35</title>
<path fill="none" stroke="midnightblue" d="M977.413,-248.992C1002.52,-239.128 1036.54,-225.352 1066,-212 1067.36,-211.384 1068.75,-210.741 1070.14,-210.083"/>
<polygon fill="midnightblue" stroke="midnightblue" points="1071.83,-213.157 1079.29,-205.637 1068.77,-206.861 1071.83,-213.157"/>
</g>
<!-- Node8&#45;&gt;Node3 -->
<g id="edge8" class="edge"><title>Node8&#45;&gt;Node3</title>
<path fill="none" stroke="midnightblue" d="M493.2,-113.135C496.168,-112.73 499.109,-112.35 502,-112 729.961,-84.43 1005.66,-72.1248 1105.54,-68.3435"/>
<polygon fill="midnightblue" stroke="midnightblue" points="1105.88,-71.8332 1115.74,-67.9638 1105.62,-64.838 1105.88,-71.8332"/>
</g>
<!-- Node9 -->
<g id="node9" class="node"><title>Node9</title>
<polygon fill="none" stroke="#bfbfbf" points="470,-0.5 470,-19.5 508,-19.5 508,-0.5 470,-0.5"/>
<text text-anchor="middle" x="489" y="-7.5" font-family="Helvetica,sans-Serif" font-size="10.00">array</text>
</g>
<!-- Node8&#45;&gt;Node9 -->
<g id="edge9" class="edge"><title>Node8&#45;&gt;Node9</title>
<path fill="none" stroke="midnightblue" d="M443.82,-112.836C458.101,-104.236 474.144,-91.8441 483,-76 490.862,-61.9343 491.841,-43.4414 491.158,-29.7784"/>
<polygon fill="midnightblue" stroke="midnightblue" points="494.632,-29.3132 490.308,-19.6406 487.656,-29.8981 494.632,-29.3132"/>
</g>
<!-- Node10 -->
<g id="node10" class="node"><title>Node10</title>
<polygon fill="none" stroke="#bfbfbf" points="368.5,-56.5 368.5,-75.5 409.5,-75.5 409.5,-56.5 368.5,-56.5"/>
<text text-anchor="middle" x="389" y="-63.5" font-family="Helvetica,sans-Serif" font-size="10.00">bitset</text>
</g>
<!-- Node8&#45;&gt;Node10 -->
<g id="edge10" class="edge"><title>Node8&#45;&gt;Node10</title>
<path fill="none" stroke="midnightblue" d="M408.838,-112.781C405.255,-104.512 400.703,-94.006 396.863,-85.1448"/>
<polygon fill="midnightblue" stroke="midnightblue" points="399.971,-83.5144 392.783,-75.7305 393.548,-86.2977 399.971,-83.5144"/>
</g>
<!-- Node11 -->
<g id="node11" class="node"><title>Node11</title>
<polygon fill="none" stroke="#bfbfbf" points="301.5,-56.5 301.5,-75.5 350.5,-75.5 350.5,-56.5 301.5,-56.5"/>
<text text-anchor="middle" x="326" y="-63.5" font-family="Helvetica,sans-Serif" font-size="10.00">cassert</text>
</g>
<!-- Node8&#45;&gt;Node11 -->
<g id="edge11" class="edge"><title>Node8&#45;&gt;Node11</title>
<path fill="none" stroke="midnightblue" d="M393.908,-112.781C379.825,-103.286 361.368,-90.8434 347.251,-81.3267"/>
<polygon fill="midnightblue" stroke="midnightblue" points="348.939,-78.2436 338.691,-75.5557 345.026,-84.0478 348.939,-78.2436"/>
</g>
<!-- Node12 -->
<g id="node12" class="node"><title>Node12</title>
<polygon fill="none" stroke="#bfbfbf" points="428,-56.5 428,-75.5 474,-75.5 474,-56.5 428,-56.5"/>
<text text-anchor="middle" x="451" y="-63.5" font-family="Helvetica,sans-Serif" font-size="10.00">cstdint</text>
</g>
<!-- Node8&#45;&gt;Node12 -->
<g id="edge12" class="edge"><title>Node8&#45;&gt;Node12</title>
<path fill="none" stroke="midnightblue" d="M423.531,-112.781C428.601,-104.332 435.071,-93.5481 440.458,-84.5693"/>
<polygon fill="midnightblue" stroke="midnightblue" points="443.618,-86.1062 445.762,-75.7305 437.615,-82.5047 443.618,-86.1062"/>
</g>
<!-- Node13 -->
<g id="node13" class="node"><title>Node13</title>
<polygon fill="none" stroke="#bfbfbf" points="221,-56.5 221,-75.5 283,-75.5 283,-56.5 221,-56.5"/>
<text text-anchor="middle" x="252" y="-63.5" font-family="Helvetica,sans-Serif" font-size="10.00">type_traits</text>
</g>
<!-- Node8&#45;&gt;Node13 -->
<g id="edge13" class="edge"><title>Node8&#45;&gt;Node13</title>
<path fill="none" stroke="midnightblue" d="M376.784,-112.933C348.915,-102.674 311.535,-88.9148 284.972,-79.1369"/>
<polygon fill="midnightblue" stroke="midnightblue" points="285.957,-75.7699 275.363,-75.6 283.539,-82.339 285.957,-75.7699"/>
</g>
<!-- Node14 -->
<g id="node14" class="node"><title>Node14</title>
<g id="a_node14"><a xlink:href="../../d9/d52/Common_2MathUtils_2include_2MathUtils_2Utils_8h.html" target="_top" xlink:title="MathUtils/Utils.h">
<polygon fill="none" stroke="black" points="544,-56.5 544,-75.5 634,-75.5 634,-56.5 544,-56.5"/>
<text text-anchor="middle" x="589" y="-63.5" font-family="Helvetica,sans-Serif" font-size="10.00">MathUtils/Utils.h</text>
</a>
</g>
</g>
<!-- Node8&#45;&gt;Node14 -->
<g id="edge14" class="edge"><title>Node8&#45;&gt;Node14</title>
<path fill="none" stroke="midnightblue" d="M455.795,-112.933C485.896,-102.553 526.393,-88.5887 554.804,-78.7916"/>
<polygon fill="midnightblue" stroke="midnightblue" points="556,-82.0815 564.313,-75.5127 553.718,-75.4639 556,-82.0815"/>
</g>
<!-- Node14&#45;&gt;Node9 -->
<g id="edge15" class="edge"><title>Node14&#45;&gt;Node9</title>
<path fill="none" stroke="midnightblue" d="M572.933,-56.324C557.042,-47.7428 532.493,-34.486 514.042,-24.5224"/>
<polygon fill="midnightblue" stroke="midnightblue" points="515.489,-21.3264 505.027,-19.6545 512.163,-27.4857 515.489,-21.3264"/>
</g>
<!-- Node15 -->
<g id="node15" class="node"><title>Node15</title>
<polygon fill="none" stroke="#bfbfbf" points="724,-0.5 724,-19.5 768,-19.5 768,-0.5 724,-0.5"/>
<text text-anchor="middle" x="746" y="-7.5" font-family="Helvetica,sans-Serif" font-size="10.00">cmath</text>
</g>
<!-- Node14&#45;&gt;Node15 -->
<g id="edge16" class="edge"><title>Node14&#45;&gt;Node15</title>
<path fill="none" stroke="midnightblue" d="M613.877,-56.4435C641.066,-47.0919 684.695,-32.0859 714.314,-21.8984"/>
<polygon fill="midnightblue" stroke="midnightblue" points="715.46,-25.2056 723.778,-18.6433 713.183,-18.5862 715.46,-25.2056"/>
</g>
<!-- Node16 -->
<g id="node16" class="node"><title>Node16</title>
<g id="a_node16"><a xlink:href="../../d6/d84/MathConstants_8h.html" target="_top" xlink:title="useful math constants ">
<polygon fill="none" stroke="black" points="526.5,-0.5 526.5,-19.5 705.5,-19.5 705.5,-0.5 526.5,-0.5"/>
<text text-anchor="middle" x="616" y="-7.5" font-family="Helvetica,sans-Serif" font-size="10.00">CommonConstants/MathConstants.h</text>
</a>
</g>
</g>
<!-- Node14&#45;&gt;Node16 -->
<g id="edge17" class="edge"><title>Node14&#45;&gt;Node16</title>
<path fill="none" stroke="midnightblue" d="M593.459,-56.083C597.154,-48.6913 602.523,-37.9533 607.094,-28.8111"/>
<polygon fill="midnightblue" stroke="midnightblue" points="610.283,-30.2606 611.624,-19.7511 604.022,-27.1301 610.283,-30.2606"/>
</g>
<!-- Node18&#45;&gt;Node3 -->
<g id="edge21" class="edge"><title>Node18&#45;&gt;Node3</title>
<path fill="none" stroke="midnightblue" d="M755.179,-181.709C758.158,-181.109 761.112,-180.535 764,-180 874.378,-159.544 911.275,-189.268 1014,-144 1034.52,-134.958 1034.16,-124.159 1053,-112 1072.46,-99.442 1095.91,-87.9211 1114.14,-79.6805"/>
<polygon fill="midnightblue" stroke="midnightblue" points="1115.68,-82.824 1123.4,-75.5684 1112.84,-76.4258 1115.68,-82.824"/>
</g>
<!-- Node18&#45;&gt;Node5 -->
<g id="edge26" class="edge"><title>Node18&#45;&gt;Node5</title>
<path fill="none" stroke="midnightblue" d="M640.681,-187.109C536.903,-172.821 328.473,-144.118 328,-144 324.405,-143.106 320.688,-142.006 317.028,-140.812"/>
<polygon fill="midnightblue" stroke="midnightblue" points="318.184,-137.509 307.589,-137.508 315.871,-144.115 318.184,-137.509"/>
</g>
<!-- Node18&#45;&gt;Node8 -->
<g id="edge20" class="edge"><title>Node18&#45;&gt;Node8</title>
<path fill="none" stroke="midnightblue" d="M640.731,-181.644C595.797,-171.165 533.045,-156.53 485.107,-145.35"/>
<polygon fill="midnightblue" stroke="midnightblue" points="485.648,-141.882 475.114,-143.02 484.058,-148.699 485.648,-141.882"/>
</g>
<!-- Node19 -->
<g id="node19" class="node"><title>Node19</title>
<polygon fill="none" stroke="#bfbfbf" points="698.5,-118.5 698.5,-137.5 793.5,-137.5 793.5,-118.5 698.5,-118.5"/>
<text text-anchor="middle" x="746" y="-125.5" font-family="Helvetica,sans-Serif" font-size="10.00">TDatabasePDG.h</text>
</g>
<!-- Node18&#45;&gt;Node19 -->
<g id="edge22" class="edge"><title>Node18&#45;&gt;Node19</title>
<path fill="none" stroke="midnightblue" d="M708.415,-180.679C715.825,-170.49 725.812,-156.759 733.628,-146.011"/>
<polygon fill="midnightblue" stroke="midnightblue" points="736.528,-147.974 739.579,-137.828 730.867,-143.857 736.528,-147.974"/>
</g>
<!-- Node20 -->
<g id="node20" class="node"><title>Node20</title>
<polygon fill="none" stroke="#bfbfbf" points="812,-118.5 812,-137.5 904,-137.5 904,-118.5 812,-118.5"/>
<text text-anchor="middle" x="858" y="-125.5" font-family="Helvetica,sans-Serif" font-size="10.00">TLorentzVector.h</text>
</g>
<!-- Node18&#45;&gt;Node20 -->
<g id="edge23" class="edge"><title>Node18&#45;&gt;Node20</title>
<path fill="none" stroke="midnightblue" d="M732.324,-180.841C760.62,-169.169 800.38,-152.768 827.555,-141.558"/>
<polygon fill="midnightblue" stroke="midnightblue" points="829.043,-144.731 836.953,-137.682 826.374,-138.26 829.043,-144.731"/>
</g>
<!-- Node21 -->
<g id="node21" class="node"><title>Node21</title>
<polygon fill="none" stroke="#bfbfbf" points="922.5,-118.5 922.5,-137.5 1005.5,-137.5 1005.5,-118.5 922.5,-118.5"/>
<text text-anchor="middle" x="964" y="-125.5" font-family="Helvetica,sans-Serif" font-size="10.00">TMCProcess.h</text>
</g>
<!-- Node18&#45;&gt;Node21 -->
<g id="edge24" class="edge"><title>Node18&#45;&gt;Node21</title>
<path fill="none" stroke="midnightblue" d="M755.017,-181.836C808.2,-169.492 883.616,-151.8 913,-144 917.332,-142.85 921.856,-141.597 926.342,-140.32"/>
<polygon fill="midnightblue" stroke="midnightblue" points="927.384,-143.663 936.017,-137.521 925.438,-136.938 927.384,-143.663"/>
</g>
<!-- Node22 -->
<g id="node22" class="node"><title>Node22</title>
<polygon fill="none" stroke="#bfbfbf" points="1062.5,-118.5 1062.5,-137.5 1115.5,-137.5 1115.5,-118.5 1062.5,-118.5"/>
<text text-anchor="middle" x="1089" y="-125.5" font-family="Helvetica,sans-Serif" font-size="10.00">TMath.h</text>
</g>
<!-- Node18&#45;&gt;Node22 -->
<g id="edge25" class="edge"><title>Node18&#45;&gt;Node22</title>
<path fill="none" stroke="midnightblue" d="M755.168,-181.649C758.15,-181.065 761.107,-180.511 764,-180 889.294,-157.875 924.366,-174.047 1048,-144 1051.49,-143.151 1055.1,-142.101 1058.66,-140.955"/>
<polygon fill="midnightblue" stroke="midnightblue" points="1060.13,-144.149 1068.42,-137.553 1057.83,-137.538 1060.13,-144.149"/>
</g>
<!-- Node23 -->
<g id="node23" class="node"><title>Node23</title>
<polygon fill="none" stroke="#bfbfbf" points="511,-118.5 511,-137.5 597,-137.5 597,-118.5 511,-118.5"/>
<text text-anchor="middle" x="554" y="-125.5" font-family="Helvetica,sans-Serif" font-size="10.00">TParticlePDG.h</text>
</g>
<!-- Node18&#45;&gt;Node23 -->
<g id="edge27" class="edge"><title>Node18&#45;&gt;Node23</title>
<path fill="none" stroke="midnightblue" d="M667.108,-180.841C641.866,-169.272 606.485,-153.055 582.047,-141.855"/>
<polygon fill="midnightblue" stroke="midnightblue" points="583.491,-138.667 572.942,-137.682 580.575,-145.03 583.491,-138.667"/>
</g>
<!-- Node24 -->
<g id="node24" class="node"><title>Node24</title>
<polygon fill="none" stroke="#bfbfbf" points="615.5,-118.5 615.5,-137.5 680.5,-137.5 680.5,-118.5 615.5,-118.5"/>
<text text-anchor="middle" x="648" y="-125.5" font-family="Helvetica,sans-Serif" font-size="10.00">TVector3.h</text>
</g>
<!-- Node18&#45;&gt;Node24 -->
<g id="edge28" class="edge"><title>Node18&#45;&gt;Node24</title>
<path fill="none" stroke="midnightblue" d="M687.151,-180.679C679.432,-170.49 669.029,-156.759 660.887,-146.011"/>
<polygon fill="midnightblue" stroke="midnightblue" points="663.517,-143.686 654.688,-137.828 657.937,-147.913 663.517,-143.686"/>
</g>
<!-- Node25&#45;&gt;Node11 -->
<g id="edge31" class="edge"><title>Node25&#45;&gt;Node11</title>
<path fill="none" stroke="midnightblue" d="M214.231,-112.933C238.862,-102.81 271.79,-89.2779 295.518,-79.5267"/>
<polygon fill="midnightblue" stroke="midnightblue" points="297.154,-82.6385 305.073,-75.6 294.493,-76.1639 297.154,-82.6385"/>
</g>
<!-- Node25&#45;&gt;Node13 -->
<g id="edge34" class="edge"><title>Node25&#45;&gt;Node13</title>
<path fill="none" stroke="midnightblue" d="M197.063,-112.781C208.065,-103.613 222.365,-91.6957 233.618,-82.3186"/>
<polygon fill="midnightblue" stroke="midnightblue" points="236.082,-84.8212 241.523,-75.7305 231.6,-79.4436 236.082,-84.8212"/>
</g>
<!-- Node26 -->
<g id="node26" class="node"><title>Node26</title>
<polygon fill="none" stroke="#bfbfbf" points="0,-56.5 0,-75.5 62,-75.5 62,-56.5 0,-56.5"/>
<text text-anchor="middle" x="31" y="-63.5" font-family="Helvetica,sans-Serif" font-size="10.00">TNamed.h</text>
</g>
<!-- Node25&#45;&gt;Node26 -->
<g id="edge30" class="edge"><title>Node25&#45;&gt;Node26</title>
<path fill="none" stroke="midnightblue" d="M145.066,-112.933C119.816,-102.765 86.0232,-89.157 61.7841,-79.3963"/>
<polygon fill="midnightblue" stroke="midnightblue" points="62.9403,-76.0888 52.3567,-75.6 60.3255,-82.5821 62.9403,-76.0888"/>
</g>
<!-- Node27 -->
<g id="node27" class="node"><title>Node27</title>
<polygon fill="none" stroke="#bfbfbf" points="80.5,-56.5 80.5,-75.5 139.5,-75.5 139.5,-56.5 80.5,-56.5"/>
<text text-anchor="middle" x="110" y="-63.5" font-family="Helvetica,sans-Serif" font-size="10.00">stdexcept</text>
</g>
<!-- Node25&#45;&gt;Node27 -->
<g id="edge32" class="edge"><title>Node25&#45;&gt;Node27</title>
<path fill="none" stroke="midnightblue" d="M163.411,-112.781C152.715,-103.613 138.812,-91.6957 127.872,-82.3186"/>
<polygon fill="midnightblue" stroke="midnightblue" points="130.056,-79.5811 120.186,-75.7305 125.5,-84.8959 130.056,-79.5811"/>
</g>
<!-- Node28 -->
<g id="node28" class="node"><title>Node28</title>
<polygon fill="none" stroke="#bfbfbf" points="157.5,-56.5 157.5,-75.5 202.5,-75.5 202.5,-56.5 157.5,-56.5"/>
<text text-anchor="middle" x="180" y="-63.5" font-family="Helvetica,sans-Serif" font-size="10.00">gsl/gsl</text>
</g>
<!-- Node25&#45;&gt;Node28 -->
<g id="edge33" class="edge"><title>Node25&#45;&gt;Node28</title>
<path fill="none" stroke="midnightblue" d="M180,-112.781C180,-104.781 180,-94.6887 180,-86.0168"/>
<polygon fill="midnightblue" stroke="midnightblue" points="183.5,-85.7305 180,-75.7305 176.5,-85.7306 183.5,-85.7305"/>
</g>
<!-- Node29&#45;&gt;Node3 -->
<g id="edge38" class="edge"><title>Node29&#45;&gt;Node3</title>
<path fill="none" stroke="midnightblue" d="M1277.88,-180.979C1295.95,-173.166 1314.55,-161.388 1325,-144 1332.33,-131.81 1333.76,-123.204 1325,-112 1307.63,-89.7793 1230.07,-76.9618 1182.3,-71.0401"/>
<polygon fill="midnightblue" stroke="midnightblue" points="1182.64,-67.5563 1172.3,-69.8469 1181.81,-74.507 1182.64,-67.5563"/>
</g>
<!-- Node29&#45;&gt;Node22 -->
<g id="edge39" class="edge"><title>Node29&#45;&gt;Node22</title>
<path fill="none" stroke="midnightblue" d="M1198.97,-180.841C1174.53,-169.323 1140.33,-153.199 1116.58,-142.004"/>
<polygon fill="midnightblue" stroke="midnightblue" points="1117.95,-138.78 1107.42,-137.682 1114.97,-145.112 1117.95,-138.78"/>
</g>
<!-- Node30 -->
<g id="node30" class="node"><title>Node30</title>
<polygon fill="none" stroke="#bfbfbf" points="1172,-118.5 1172,-137.5 1246,-137.5 1246,-118.5 1172,-118.5"/>
<text text-anchor="middle" x="1209" y="-125.5" font-family="Helvetica,sans-Serif" font-size="10.00">TVirtualMC.h</text>
</g>
<!-- Node29&#45;&gt;Node30 -->
<g id="edge36" class="edge"><title>Node29&#45;&gt;Node30</title>
<path fill="none" stroke="midnightblue" d="M1224.66,-180.679C1221.73,-170.999 1217.83,-158.123 1214.65,-147.645"/>
<polygon fill="midnightblue" stroke="midnightblue" points="1217.92,-146.383 1211.68,-137.828 1211.23,-148.414 1217.92,-146.383"/>
</g>
<!-- Node31 -->
<g id="node31" class="node"><title>Node31</title>
<polygon fill="none" stroke="#bfbfbf" points="1264,-118.5 1264,-137.5 1316,-137.5 1316,-118.5 1264,-118.5"/>
<text text-anchor="middle" x="1290" y="-125.5" font-family="Helvetica,sans-Serif" font-size="10.00">ostream</text>
</g>
<!-- Node29&#45;&gt;Node31 -->
<g id="edge37" class="edge"><title>Node29&#45;&gt;Node31</title>
<path fill="none" stroke="midnightblue" d="M1242.24,-180.679C1251.84,-170.286 1264.85,-156.208 1274.87,-145.37"/>
<polygon fill="midnightblue" stroke="midnightblue" points="1277.62,-147.548 1281.84,-137.828 1272.48,-142.796 1277.62,-147.548"/>
</g>
<!-- Node37 -->
<g id="node37" class="node"><title>Node37</title>
<polygon fill="none" stroke="#bfbfbf" points="1578,-186.5 1578,-205.5 1624,-205.5 1624,-186.5 1578,-186.5"/>
<text text-anchor="middle" x="1601" y="-193.5" font-family="Helvetica,sans-Serif" font-size="10.00">cstring</text>
</g>
<!-- Node36&#45;&gt;Node37 -->
<g id="edge47" class="edge"><title>Node36&#45;&gt;Node37</title>
<path fill="none" stroke="midnightblue" d="M1601,-248.679C1601,-239.101 1601,-226.394 1601,-215.977"/>
<polygon fill="midnightblue" stroke="midnightblue" points="1604.5,-215.828 1601,-205.828 1597.5,-215.828 1604.5,-215.828"/>
</g>
</g>
</svg>
