<?xml version="1.0" encoding="UTF-8" standalone="no"?>
<!DOCTYPE svg PUBLIC "-//W3C//DTD SVG 1.1//EN"
 "http://www.w3.org/Graphics/SVG/1.1/DTD/svg11.dtd">
<!-- Generated by graphviz version 2.36.0 (20140111.2315)
 -->
<!-- Title: /home/travis/build/AliceO2Group/AliceO2/DataFormats/Detectors/ITSMFT/common/include/DataFormatsITSMFT/ClusterPattern.h Pages: 1 -->
<!--zoomable 468 -->
<svg id="main" version="1.1" xmlns="http://www.w3.org/2000/svg" xmlns:xlink="http://www.w3.org/1999/xlink" xml:space="preserve" onload="init(evt)">
<style type="text/css"><![CDATA[
.edge:hover path { stroke: red; }
.edge:hover polygon { stroke: red; fill: red; }
]]></style>
<script type="text/javascript"><![CDATA[
var edges = document.getElementsByTagName('g');
if (edges && edges.length) {
  for (var i=0;i<edges.length;i++) {
    if (edges[i].id.substr(0,4)=='edge') {
      edges[i].setAttribute('class','edge');
    }
  }
}
]]></script>
        <defs>
                <circle id="rim" cx="0" cy="0" r="7"/>
                <circle id="rim2" cx="0" cy="0" r="3.5"/>
                <g id="zoomPlus">
                        <use xlink:href="#rim" fill="#404040">
                                <set attributeName="fill" to="#808080" begin="zoomplus.mouseover" end="zoomplus.mouseout"/>
                        </use>
                        <path d="M-4,0h8M0,-4v8" fill="none" stroke="white" stroke-width="1.5" pointer-events="none"/>
                </g>
                <g id="zoomMin">
                        <use xlink:href="#rim" fill="#404040">
                                <set attributeName="fill" to="#808080" begin="zoomminus.mouseover" end="zoomminus.mouseout"/>
                        </use>
                        <path d="M-4,0h8" fill="none" stroke="white" stroke-width="1.5" pointer-events="none"/>
                </g>
                <g id="dirArrow">
                        <path fill="none" stroke="white" stroke-width="1.5" d="M0,-3.0v7 M-2.5,-0.5L0,-3.0L2.5,-0.5"/>
                </g>
               <g id="resetDef">
                       <use xlink:href="#rim2" fill="#404040">
                               <set attributeName="fill" to="#808080" begin="reset.mouseover" end="reset.mouseout"/>
                       </use>
               </g>
        </defs>

<script type="text/javascript">
var viewWidth = 1773;
var viewHeight = 468;
var sectionId = 'dynsection-0';
</script>
<script xlink:href="../../svgpan.js"/>
<svg id="graph" class="graph">
<g id="viewport">
<title>/home/travis/build/AliceO2Group/AliceO2/DataFormats/Detectors/ITSMFT/common/include/DataFormatsITSMFT/ClusterPattern.h</title>
<!-- Node1 -->
<g id="node1" class="node"><title>Node1</title>
<polygon fill="#bfbfbf" stroke="black" points="324.536,-396.5 324.536,-459.5 511.536,-459.5 511.536,-396.5 324.536,-396.5"/>
<text text-anchor="start" x="332.536" y="-447.5" font-family="Helvetica,sans-Serif" font-size="10.00">/home/travis/build</text>
<text text-anchor="start" x="332.536" y="-436.5" font-family="Helvetica,sans-Serif" font-size="10.00">/AliceO2Group/AliceO2</text>
<text text-anchor="start" x="332.536" y="-425.5" font-family="Helvetica,sans-Serif" font-size="10.00">/DataFormats/Detectors</text>
<text text-anchor="start" x="332.536" y="-414.5" font-family="Helvetica,sans-Serif" font-size="10.00">/ITSMFT/common/include</text>
<text text-anchor="middle" x="418.036" y="-403.5" font-family="Helvetica,sans-Serif" font-size="10.00">/DataFormatsITSMFT/ClusterPattern.h</text>
</g>
<!-- Node2 -->
<g id="node2" class="node"><title>Node2</title>
<polygon fill="none" stroke="#bfbfbf" points="485.036,-74.5 485.036,-93.5 541.036,-93.5 541.036,-74.5 485.036,-74.5"/>
<text text-anchor="middle" x="513.036" y="-81.5" font-family="Helvetica,sans-Serif" font-size="10.00">Rtypes.h</text>
</g>
<!-- Node1&#45;&gt;Node2 -->
<g id="edge1" class="edge"><title>Node1&#45;&gt;Node2</title>
<path fill="none" stroke="midnightblue" d="M391.598,-396.401C371.411,-369.847 347.036,-329.415 347.036,-289 347.036,-289 347.036,-289 347.036,-219 347.036,-183.137 442.03,-124.851 488.297,-98.5892"/>
<polygon fill="midnightblue" stroke="midnightblue" points="490.113,-101.583 497.119,-93.6353 486.686,-95.48 490.113,-101.583"/>
</g>
<!-- Node3 -->
<g id="node3" class="node"><title>Node3</title>
<polygon fill="none" stroke="#bfbfbf" points="99.0356,-6.5 99.0356,-25.5 137.036,-25.5 137.036,-6.5 99.0356,-6.5"/>
<text text-anchor="middle" x="118.036" y="-13.5" font-family="Helvetica,sans-Serif" font-size="10.00">array</text>
</g>
<!-- Node1&#45;&gt;Node3 -->
<g id="edge2" class="edge"><title>Node1&#45;&gt;Node3</title>
<path fill="none" stroke="midnightblue" d="M324.453,-415.121C201.507,-396.849 1.03558,-356.678 1.03558,-289 1.03558,-289 1.03558,-289 1.03558,-151 1.03558,-113.157 -3.10673,-97.9422 20.0356,-68 37.2252,-45.7596 66.8512,-32.2692 89.0408,-24.7993"/>
<polygon fill="midnightblue" stroke="midnightblue" points="90.1515,-28.1191 98.6414,-21.781 88.052,-21.4413 90.1515,-28.1191"/>
</g>
<!-- Node4 -->
<g id="node4" class="node"><title>Node4</title>
<polygon fill="none" stroke="#bfbfbf" points="1679.54,-74.5 1679.54,-93.5 1724.54,-93.5 1724.54,-74.5 1679.54,-74.5"/>
<text text-anchor="middle" x="1702.04" y="-81.5" font-family="Helvetica,sans-Serif" font-size="10.00">iosfwd</text>
</g>
<!-- Node1&#45;&gt;Node4 -->
<g id="edge3" class="edge"><title>Node1&#45;&gt;Node4</title>
<path fill="none" stroke="midnightblue" d="M511.618,-423.693C758.403,-413.732 1408.04,-378.968 1408.04,-289 1408.04,-289 1408.04,-289 1408.04,-219 1408.04,-91.1073 1553.91,-153.586 1670.04,-100 1671.43,-99.3573 1672.85,-98.6971 1674.29,-98.0289"/>
<polygon fill="midnightblue" stroke="midnightblue" points="1676.19,-101.004 1683.78,-93.6047 1673.24,-94.6606 1676.19,-101.004"/>
</g>
<!-- Node5 -->
<g id="node5" class="node"><title>Node5</title>
<g id="a_node5"><a xlink:href="../../d1/d62/DataFormats_2Detectors_2ITSMFT_2common_2include_2DataFormatsITSMFT_2Cluster_8h.html" target="_top" xlink:title="DataFormatsITSMFT/Cluster.h">
<polygon fill="none" stroke="black" points="414.036,-340.5 414.036,-359.5 566.036,-359.5 566.036,-340.5 414.036,-340.5"/>
<text text-anchor="middle" x="490.036" y="-347.5" font-family="Helvetica,sans-Serif" font-size="10.00">DataFormatsITSMFT/Cluster.h</text>
</a>
</g>
</g>
<!-- Node1&#45;&gt;Node5 -->
<g id="edge4" class="edge"><title>Node1&#45;&gt;Node5</title>
<path fill="none" stroke="midnightblue" d="M447.321,-396.088C456.762,-386.122 466.842,-375.482 474.838,-367.042"/>
<polygon fill="midnightblue" stroke="midnightblue" points="477.44,-369.385 481.776,-359.718 472.358,-364.571 477.44,-369.385"/>
</g>
<!-- Node6 -->
<g id="node6" class="node"><title>Node6</title>
<g id="a_node6"><a xlink:href="../../d4/de2/BaseCluster_8h.html" target="_top" xlink:title="ReconstructionDataFormats\l/BaseCluster.h">
<polygon fill="none" stroke="black" points="498.036,-273 498.036,-303 638.036,-303 638.036,-273 498.036,-273"/>
<text text-anchor="start" x="506.036" y="-291" font-family="Helvetica,sans-Serif" font-size="10.00">ReconstructionDataFormats</text>
<text text-anchor="middle" x="568.036" y="-280" font-family="Helvetica,sans-Serif" font-size="10.00">/BaseCluster.h</text>
</a>
</g>
</g>
<!-- Node5&#45;&gt;Node6 -->
<g id="edge5" class="edge"><title>Node5&#45;&gt;Node6</title>
<path fill="none" stroke="midnightblue" d="M501.211,-340.403C511.676,-332.353 527.719,-320.013 541.463,-309.441"/>
<polygon fill="midnightblue" stroke="midnightblue" points="543.86,-312.012 549.653,-303.141 539.592,-306.464 543.86,-312.012"/>
</g>
<!-- Node6&#45;&gt;Node4 -->
<g id="edge10" class="edge"><title>Node6&#45;&gt;Node4</title>
<path fill="none" stroke="midnightblue" d="M637.717,-272.971C779.637,-244.683 1112.6,-179.776 1394.04,-136 1516.27,-116.987 1551.29,-134.664 1670.04,-100 1672.32,-99.3327 1674.65,-98.5229 1676.96,-97.6293"/>
<polygon fill="midnightblue" stroke="midnightblue" points="1678.36,-100.834 1686.13,-93.6332 1675.57,-94.4155 1678.36,-100.834"/>
</g>
<!-- Node7 -->
<g id="node7" class="node"><title>Node7</title>
<polygon fill="none" stroke="#bfbfbf" points="1026.54,-210.5 1026.54,-229.5 1085.54,-229.5 1085.54,-210.5 1026.54,-210.5"/>
<text text-anchor="middle" x="1056.04" y="-217.5" font-family="Helvetica,sans-Serif" font-size="10.00">TObject.h</text>
</g>
<!-- Node6&#45;&gt;Node7 -->
<g id="edge6" class="edge"><title>Node6&#45;&gt;Node7</title>
<path fill="none" stroke="midnightblue" d="M638.407,-283.576C726.618,-278.222 882.029,-265.271 1012.04,-236 1016,-235.108 1020.1,-233.987 1024.14,-232.762"/>
<polygon fill="midnightblue" stroke="midnightblue" points="1025.5,-236.001 1033.92,-229.573 1023.32,-229.346 1025.5,-236.001"/>
</g>
<!-- Node8 -->
<g id="node8" class="node"><title>Node8</title>
<polygon fill="none" stroke="#bfbfbf" points="29.5356,-74.5 29.5356,-93.5 70.5356,-93.5 70.5356,-74.5 29.5356,-74.5"/>
<text text-anchor="middle" x="50.0356" y="-81.5" font-family="Helvetica,sans-Serif" font-size="10.00">bitset</text>
</g>
<!-- Node6&#45;&gt;Node8 -->
<g id="edge7" class="edge"><title>Node6&#45;&gt;Node8</title>
<path fill="none" stroke="midnightblue" d="M498.032,-280.196C406.901,-268.751 245.326,-239.426 127.036,-168 98.8386,-150.974 74.5624,-120.673 61.1564,-101.772"/>
<polygon fill="midnightblue" stroke="midnightblue" points="64.0297,-99.7731 55.479,-93.5172 58.2621,-103.74 64.0297,-99.7731"/>
</g>
<!-- Node9 -->
<g id="node9" class="node"><title>Node9</title>
<polygon fill="none" stroke="#bfbfbf" points="413.036,-210.5 413.036,-229.5 463.036,-229.5 463.036,-210.5 413.036,-210.5"/>
<text text-anchor="middle" x="438.036" y="-217.5" font-family="Helvetica,sans-Serif" font-size="10.00">iomanip</text>
</g>
<!-- Node6&#45;&gt;Node9 -->
<g id="edge8" class="edge"><title>Node6&#45;&gt;Node9</title>
<path fill="none" stroke="midnightblue" d="M540.147,-272.841C517.661,-261.425 486.264,-245.485 464.239,-234.303"/>
<polygon fill="midnightblue" stroke="midnightblue" points="465.637,-231.088 455.136,-229.682 462.468,-237.33 465.637,-231.088"/>
</g>
<!-- Node10 -->
<g id="node10" class="node"><title>Node10</title>
<polygon fill="none" stroke="#bfbfbf" points="481.536,-210.5 481.536,-229.5 510.536,-229.5 510.536,-210.5 481.536,-210.5"/>
<text text-anchor="middle" x="496.036" y="-217.5" font-family="Helvetica,sans-Serif" font-size="10.00">ios</text>
</g>
<!-- Node6&#45;&gt;Node10 -->
<g id="edge9" class="edge"><title>Node6&#45;&gt;Node10</title>
<path fill="none" stroke="midnightblue" d="M552.413,-272.679C540.853,-262.082 525.113,-247.655 513.202,-236.736"/>
<polygon fill="midnightblue" stroke="midnightblue" points="515.403,-234.006 505.666,-229.828 510.673,-239.166 515.403,-234.006"/>
</g>
<!-- Node11 -->
<g id="node11" class="node"><title>Node11</title>
<g id="a_node11"><a xlink:href="../../d4/d20/DetMatrixCache_8h.html" target="_top" xlink:title="DetectorsCommonDataFormats\l/DetMatrixCache.h">
<polygon fill="none" stroke="black" points="529.036,-205 529.036,-235 685.036,-235 685.036,-205 529.036,-205"/>
<text text-anchor="start" x="537.036" y="-223" font-family="Helvetica,sans-Serif" font-size="10.00">DetectorsCommonDataFormats</text>
<text text-anchor="middle" x="607.036" y="-212" font-family="Helvetica,sans-Serif" font-size="10.00">/DetMatrixCache.h</text>
</a>
</g>
</g>
<!-- Node6&#45;&gt;Node11 -->
<g id="edge11" class="edge"><title>Node6&#45;&gt;Node11</title>
<path fill="none" stroke="midnightblue" d="M576.498,-272.679C581.455,-264.29 587.832,-253.499 593.475,-243.949"/>
<polygon fill="midnightblue" stroke="midnightblue" points="596.516,-245.683 598.59,-235.293 590.489,-242.122 596.516,-245.683"/>
</g>
<!-- Node21 -->
<g id="node21" class="node"><title>Node21</title>
<g id="a_node21"><a xlink:href="../../dd/d76/Cartesian3D_8h.html" target="_top" xlink:title="MathUtils/Cartesian3D.h">
<polygon fill="none" stroke="black" points="844.536,-142.5 844.536,-161.5 969.536,-161.5 969.536,-142.5 844.536,-142.5"/>
<text text-anchor="middle" x="907.036" y="-149.5" font-family="Helvetica,sans-Serif" font-size="10.00">MathUtils/Cartesian3D.h</text>
</a>
</g>
</g>
<!-- Node6&#45;&gt;Node21 -->
<g id="edge39" class="edge"><title>Node6&#45;&gt;Node21</title>
<path fill="none" stroke="midnightblue" d="M603.674,-272.913C670.316,-246.571 812.755,-190.267 875.849,-165.327"/>
<polygon fill="midnightblue" stroke="midnightblue" points="877.257,-168.534 885.27,-161.603 874.684,-162.025 877.257,-168.534"/>
</g>
<!-- Node11&#45;&gt;Node2 -->
<g id="edge38" class="edge"><title>Node11&#45;&gt;Node2</title>
<path fill="none" stroke="midnightblue" d="M589.681,-204.608C578.821,-195.006 565.043,-181.674 555.036,-168 539.95,-147.387 527.472,-120.56 520.139,-103.068"/>
<polygon fill="midnightblue" stroke="midnightblue" points="523.267,-101.468 516.26,-93.5212 516.782,-104.103 523.267,-101.468"/>
</g>
<!-- Node11&#45;&gt;Node3 -->
<g id="edge13" class="edge"><title>Node11&#45;&gt;Node3</title>
<path fill="none" stroke="midnightblue" d="M528.869,-205.382C525.55,-204.897 522.261,-204.433 519.036,-204 438.257,-193.146 217.508,-219.129 154.036,-168 114.234,-135.939 113.646,-68.5157 116.015,-35.7155"/>
<polygon fill="midnightblue" stroke="midnightblue" points="119.509,-35.9454 116.917,-25.6724 112.537,-35.3192 119.509,-35.9454"/>
</g>
<!-- Node12 -->
<g id="node12" class="node"><title>Node12</title>
<polygon fill="none" stroke="#bfbfbf" points="564.536,-142.5 564.536,-161.5 635.536,-161.5 635.536,-142.5 564.536,-142.5"/>
<text text-anchor="middle" x="600.036" y="-149.5" font-family="Helvetica,sans-Serif" font-size="10.00">FairLogger.h</text>
</g>
<!-- Node11&#45;&gt;Node12 -->
<g id="edge12" class="edge"><title>Node11&#45;&gt;Node12</title>
<path fill="none" stroke="midnightblue" d="M605.517,-204.679C604.501,-195.101 603.153,-182.394 602.048,-171.977"/>
<polygon fill="midnightblue" stroke="midnightblue" points="605.507,-171.403 600.972,-161.828 598.546,-172.142 605.507,-171.403"/>
</g>
<!-- Node13 -->
<g id="node13" class="node"><title>Node13</title>
<polygon fill="none" stroke="#bfbfbf" points="654.036,-142.5 654.036,-161.5 698.036,-161.5 698.036,-142.5 654.036,-142.5"/>
<text text-anchor="middle" x="676.036" y="-149.5" font-family="Helvetica,sans-Serif" font-size="10.00">vector</text>
</g>
<!-- Node11&#45;&gt;Node13 -->
<g id="edge14" class="edge"><title>Node11&#45;&gt;Node13</title>
<path fill="none" stroke="midnightblue" d="M622.008,-204.679C632.979,-194.184 647.88,-179.932 659.254,-169.052"/>
<polygon fill="midnightblue" stroke="midnightblue" points="661.999,-171.27 666.806,-161.828 657.16,-166.211 661.999,-171.27"/>
</g>
<!-- Node14 -->
<g id="node14" class="node"><title>Node14</title>
<g id="a_node14"><a xlink:href="../../d6/d31/DetID_8h.html" target="_top" xlink:title="DetectorsCommonDataFormats\l/DetID.h">
<polygon fill="none" stroke="black" points="163.036,-137 163.036,-167 319.036,-167 319.036,-137 163.036,-137"/>
<text text-anchor="start" x="171.036" y="-155" font-family="Helvetica,sans-Serif" font-size="10.00">DetectorsCommonDataFormats</text>
<text text-anchor="middle" x="241.036" y="-144" font-family="Helvetica,sans-Serif" font-size="10.00">/DetID.h</text>
</a>
</g>
</g>
<!-- Node11&#45;&gt;Node14 -->
<g id="edge15" class="edge"><title>Node11&#45;&gt;Node14</title>
<path fill="none" stroke="midnightblue" d="M528.968,-204.922C470.301,-194.343 389.903,-179.845 328.971,-168.857"/>
<polygon fill="midnightblue" stroke="midnightblue" points="329.445,-165.386 318.983,-167.056 328.203,-172.275 329.445,-165.386"/>
</g>
<!-- Node11&#45;&gt;Node21 -->
<g id="edge26" class="edge"><title>Node11&#45;&gt;Node21</title>
<path fill="none" stroke="midnightblue" d="M671.025,-204.922C727.167,-192.571 807.589,-174.878 858.553,-163.666"/>
<polygon fill="midnightblue" stroke="midnightblue" points="859.322,-167.081 868.337,-161.514 857.818,-160.244 859.322,-167.081"/>
</g>
<!-- Node14&#45;&gt;Node2 -->
<g id="edge16" class="edge"><title>Node14&#45;&gt;Node2</title>
<path fill="none" stroke="midnightblue" d="M319.165,-137.528C365.307,-128.712 424.577,-115.886 476.036,-100 478.676,-99.1847 481.392,-98.2595 484.096,-97.2783"/>
<polygon fill="midnightblue" stroke="midnightblue" points="485.61,-100.446 493.676,-93.5766 483.087,-93.9161 485.61,-100.446"/>
</g>
<!-- Node14&#45;&gt;Node3 -->
<g id="edge17" class="edge"><title>Node14&#45;&gt;Node3</title>
<path fill="none" stroke="midnightblue" d="M207.893,-136.99C190.651,-128.366 170.264,-115.904 156.036,-100 139.155,-81.1318 128.545,-53.4914 122.952,-35.3742"/>
<polygon fill="midnightblue" stroke="midnightblue" points="126.302,-34.3562 120.169,-25.7168 119.575,-36.295 126.302,-34.3562"/>
</g>
<!-- Node14&#45;&gt;Node8 -->
<g id="edge18" class="edge"><title>Node14&#45;&gt;Node8</title>
<path fill="none" stroke="midnightblue" d="M200.061,-136.841C164.157,-124.435 112.79,-106.685 80.4397,-95.5061"/>
<polygon fill="midnightblue" stroke="midnightblue" points="81.2429,-92.0807 70.6482,-92.1227 78.9567,-98.6968 81.2429,-92.0807"/>
</g>
<!-- Node15 -->
<g id="node15" class="node"><title>Node15</title>
<polygon fill="none" stroke="#bfbfbf" points="245.536,-74.5 245.536,-93.5 294.536,-93.5 294.536,-74.5 245.536,-74.5"/>
<text text-anchor="middle" x="270.036" y="-81.5" font-family="Helvetica,sans-Serif" font-size="10.00">cassert</text>
</g>
<!-- Node14&#45;&gt;Node15 -->
<g id="edge19" class="edge"><title>Node14&#45;&gt;Node15</title>
<path fill="none" stroke="midnightblue" d="M247.328,-136.679C251.671,-126.796 257.478,-113.579 262.132,-102.986"/>
<polygon fill="midnightblue" stroke="midnightblue" points="265.338,-104.391 266.156,-93.8283 258.929,-101.576 265.338,-104.391"/>
</g>
<!-- Node16 -->
<g id="node16" class="node"><title>Node16</title>
<polygon fill="none" stroke="#bfbfbf" points="313.036,-74.5 313.036,-93.5 359.036,-93.5 359.036,-74.5 313.036,-74.5"/>
<text text-anchor="middle" x="336.036" y="-81.5" font-family="Helvetica,sans-Serif" font-size="10.00">cstdint</text>
</g>
<!-- Node14&#45;&gt;Node16 -->
<g id="edge20" class="edge"><title>Node14&#45;&gt;Node16</title>
<path fill="none" stroke="midnightblue" d="M261.649,-136.679C277.433,-125.713 299.122,-110.645 315.008,-99.6085"/>
<polygon fill="midnightblue" stroke="midnightblue" points="317.387,-102.218 323.602,-93.6379 313.393,-96.4691 317.387,-102.218"/>
</g>
<!-- Node17 -->
<g id="node17" class="node"><title>Node17</title>
<polygon fill="none" stroke="#bfbfbf" points="165.036,-74.5 165.036,-93.5 227.036,-93.5 227.036,-74.5 165.036,-74.5"/>
<text text-anchor="middle" x="196.036" y="-81.5" font-family="Helvetica,sans-Serif" font-size="10.00">type_traits</text>
</g>
<!-- Node14&#45;&gt;Node17 -->
<g id="edge21" class="edge"><title>Node14&#45;&gt;Node17</title>
<path fill="none" stroke="midnightblue" d="M231.271,-136.679C224.394,-126.592 215.149,-113.033 207.855,-102.335"/>
<polygon fill="midnightblue" stroke="midnightblue" points="210.58,-100.119 202.055,-93.8283 204.796,-104.062 210.58,-100.119"/>
</g>
<!-- Node18 -->
<g id="node18" class="node"><title>Node18</title>
<g id="a_node18"><a xlink:href="../../d9/d52/Common_2MathUtils_2include_2MathUtils_2Utils_8h.html" target="_top" xlink:title="MathUtils/Utils.h">
<polygon fill="none" stroke="black" points="377.036,-74.5 377.036,-93.5 467.036,-93.5 467.036,-74.5 377.036,-74.5"/>
<text text-anchor="middle" x="422.036" y="-81.5" font-family="Helvetica,sans-Serif" font-size="10.00">MathUtils/Utils.h</text>
</a>
</g>
</g>
<!-- Node14&#45;&gt;Node18 -->
<g id="edge22" class="edge"><title>Node14&#45;&gt;Node18</title>
<path fill="none" stroke="midnightblue" d="M279.865,-136.841C312.389,-124.982 358.304,-108.239 389.067,-97.0216"/>
<polygon fill="midnightblue" stroke="midnightblue" points="390.291,-100.301 398.487,-93.5868 387.893,-93.7244 390.291,-100.301"/>
</g>
<!-- Node18&#45;&gt;Node3 -->
<g id="edge23" class="edge"><title>Node18&#45;&gt;Node3</title>
<path fill="none" stroke="midnightblue" d="M392.705,-74.4523C384.731,-72.2381 376.077,-69.9345 368.036,-68 288.724,-48.9192 194.15,-30.899 147.314,-22.2874"/>
<polygon fill="midnightblue" stroke="midnightblue" points="147.735,-18.8063 137.268,-20.4502 146.475,-25.6921 147.735,-18.8063"/>
</g>
<!-- Node19 -->
<g id="node19" class="node"><title>Node19</title>
<polygon fill="none" stroke="#bfbfbf" points="335.036,-6.5 335.036,-25.5 379.036,-25.5 379.036,-6.5 335.036,-6.5"/>
<text text-anchor="middle" x="357.036" y="-13.5" font-family="Helvetica,sans-Serif" font-size="10.00">cmath</text>
</g>
<!-- Node18&#45;&gt;Node19 -->
<g id="edge24" class="edge"><title>Node18&#45;&gt;Node19</title>
<path fill="none" stroke="midnightblue" d="M413.538,-74.3717C403.279,-63.9547 385.81,-46.2173 373.006,-33.2162"/>
<polygon fill="midnightblue" stroke="midnightblue" points="375.253,-30.5101 365.743,-25.8411 370.266,-35.4219 375.253,-30.5101"/>
</g>
<!-- Node20 -->
<g id="node20" class="node"><title>Node20</title>
<g id="a_node20"><a xlink:href="../../d6/d84/MathConstants_8h.html" target="_top" xlink:title="useful math constants ">
<polygon fill="none" stroke="black" points="397.536,-6.5 397.536,-25.5 576.536,-25.5 576.536,-6.5 397.536,-6.5"/>
<text text-anchor="middle" x="487.036" y="-13.5" font-family="Helvetica,sans-Serif" font-size="10.00">CommonConstants/MathConstants.h</text>
</a>
</g>
</g>
<!-- Node18&#45;&gt;Node20 -->
<g id="edge25" class="edge"><title>Node18&#45;&gt;Node20</title>
<path fill="none" stroke="midnightblue" d="M430.533,-74.3717C440.792,-63.9547 458.261,-46.2173 471.065,-33.2162"/>
<polygon fill="midnightblue" stroke="midnightblue" points="473.805,-35.4219 478.328,-25.8411 468.818,-30.5101 473.805,-35.4219"/>
</g>
<!-- Node21&#45;&gt;Node2 -->
<g id="edge32" class="edge"><title>Node21&#45;&gt;Node2</title>
<path fill="none" stroke="midnightblue" d="M844.517,-146.696C772.51,-140.681 651.133,-127.276 550.036,-100 547.053,-99.1954 543.988,-98.2164 540.96,-97.1481"/>
<polygon fill="midnightblue" stroke="midnightblue" points="542.144,-93.8539 531.554,-93.5355 539.634,-100.388 542.144,-93.8539"/>
</g>
<!-- Node21&#45;&gt;Node4 -->
<g id="edge34" class="edge"><title>Node21&#45;&gt;Node4</title>
<path fill="none" stroke="midnightblue" d="M945.25,-142.46C957.572,-140.001 971.329,-137.563 984.036,-136 1287.06,-98.7196 1373.87,-174.168 1670.04,-100 1672.54,-99.374 1675.08,-98.5496 1677.58,-97.6089"/>
<polygon fill="midnightblue" stroke="midnightblue" points="1679.08,-100.772 1686.86,-93.5771 1676.29,-94.3522 1679.08,-100.772"/>
</g>
<!-- Node22 -->
<g id="node22" class="node"><title>Node22</title>
<polygon fill="none" stroke="#bfbfbf" points="559.536,-69 559.536,-99 710.536,-99 710.536,-69 559.536,-69"/>
<text text-anchor="start" x="567.536" y="-87" font-family="Helvetica,sans-Serif" font-size="10.00">Math/GenVector/Displacement</text>
<text text-anchor="middle" x="635.036" y="-76" font-family="Helvetica,sans-Serif" font-size="10.00">Vector3D.h</text>
</g>
<!-- Node21&#45;&gt;Node22 -->
<g id="edge27" class="edge"><title>Node21&#45;&gt;Node22</title>
<path fill="none" stroke="midnightblue" d="M871.755,-142.439C829.061,-132.08 756.24,-114.41 702.613,-101.397"/>
<polygon fill="midnightblue" stroke="midnightblue" points="703.378,-97.9816 692.835,-99.0247 701.727,-104.784 703.378,-97.9816"/>
</g>
<!-- Node23 -->
<g id="node23" class="node"><title>Node23</title>
<polygon fill="none" stroke="#bfbfbf" points="729.036,-74.5 729.036,-93.5 905.036,-93.5 905.036,-74.5 729.036,-74.5"/>
<text text-anchor="middle" x="817.036" y="-81.5" font-family="Helvetica,sans-Serif" font-size="10.00">Math/GenVector/PositionVector3D.h</text>
</g>
<!-- Node21&#45;&gt;Node23 -->
<g id="edge28" class="edge"><title>Node21&#45;&gt;Node23</title>
<path fill="none" stroke="midnightblue" d="M895.27,-142.372C880.447,-131.502 854.754,-112.66 836.873,-99.5474"/>
<polygon fill="midnightblue" stroke="midnightblue" points="838.938,-96.7217 828.804,-93.6305 834.799,-102.367 838.938,-96.7217"/>
</g>
<!-- Node24 -->
<g id="node24" class="node"><title>Node24</title>
<polygon fill="none" stroke="#bfbfbf" points="922.536,-74.5 922.536,-93.5 1071.54,-93.5 1071.54,-74.5 922.536,-74.5"/>
<text text-anchor="middle" x="997.036" y="-81.5" font-family="Helvetica,sans-Serif" font-size="10.00">Math/GenVector/Rotation3D.h</text>
</g>
<!-- Node21&#45;&gt;Node24 -->
<g id="edge29" class="edge"><title>Node21&#45;&gt;Node24</title>
<path fill="none" stroke="midnightblue" d="M918.802,-142.372C933.624,-131.502 959.317,-112.66 977.198,-99.5474"/>
<polygon fill="midnightblue" stroke="midnightblue" points="979.272,-102.367 985.267,-93.6305 975.133,-96.7217 979.272,-102.367"/>
</g>
<!-- Node25 -->
<g id="node25" class="node"><title>Node25</title>
<polygon fill="none" stroke="#bfbfbf" points="1090.04,-74.5 1090.04,-93.5 1246.04,-93.5 1246.04,-74.5 1090.04,-74.5"/>
<text text-anchor="middle" x="1168.04" y="-81.5" font-family="Helvetica,sans-Serif" font-size="10.00">Math/GenVector/Transform3D.h</text>
</g>
<!-- Node21&#45;&gt;Node25 -->
<g id="edge30" class="edge"><title>Node21&#45;&gt;Node25</title>
<path fill="none" stroke="midnightblue" d="M940.889,-142.439C987.829,-130.57 1072.72,-109.103 1124.38,-96.0406"/>
<polygon fill="midnightblue" stroke="midnightblue" points="1125.41,-99.3904 1134.24,-93.5455 1123.69,-92.604 1125.41,-99.3904"/>
</g>
<!-- Node26 -->
<g id="node26" class="node"><title>Node26</title>
<polygon fill="none" stroke="#bfbfbf" points="1264.04,-74.5 1264.04,-93.5 1424.04,-93.5 1424.04,-74.5 1264.04,-74.5"/>
<text text-anchor="middle" x="1344.04" y="-81.5" font-family="Helvetica,sans-Serif" font-size="10.00">Math/GenVector/Translation3D.h</text>
</g>
<!-- Node21&#45;&gt;Node26 -->
<g id="edge31" class="edge"><title>Node21&#45;&gt;Node26</title>
<path fill="none" stroke="midnightblue" d="M948.513,-142.444C959.994,-140.205 972.477,-137.892 984.036,-136 1103.94,-116.375 1134.89,-118.099 1255.04,-100 1264.8,-98.5295 1275.14,-96.8743 1285.2,-95.2144"/>
<polygon fill="midnightblue" stroke="midnightblue" points="1285.83,-98.657 1295.12,-93.5596 1284.68,-91.7524 1285.83,-98.657"/>
</g>
<!-- Node27 -->
<g id="node27" class="node"><title>Node27</title>
<polygon fill="none" stroke="#bfbfbf" points="1442.04,-74.5 1442.04,-93.5 1518.04,-93.5 1518.04,-74.5 1442.04,-74.5"/>
<text text-anchor="middle" x="1480.04" y="-81.5" font-family="Helvetica,sans-Serif" font-size="10.00">TGeoMatrix.h</text>
</g>
<!-- Node21&#45;&gt;Node27 -->
<g id="edge33" class="edge"><title>Node21&#45;&gt;Node27</title>
<path fill="none" stroke="midnightblue" d="M946.461,-142.436C958.478,-140.065 971.757,-137.683 984.036,-136 1182.38,-108.817 1236.61,-138.687 1433.04,-100 1437.6,-99.1005 1442.35,-97.907 1446.99,-96.5847"/>
<polygon fill="midnightblue" stroke="midnightblue" points="1448.35,-99.8291 1456.88,-93.5488 1446.3,-93.1372 1448.35,-99.8291"/>
</g>
<!-- Node28 -->
<g id="node28" class="node"><title>Node28</title>
<g id="a_node28"><a xlink:href="../../d2/dd0/Cartesian2D_8h.html" target="_top" xlink:title="MathUtils/Cartesian2D.h">
<polygon fill="none" stroke="black" points="1536.54,-74.5 1536.54,-93.5 1661.54,-93.5 1661.54,-74.5 1536.54,-74.5"/>
<text text-anchor="middle" x="1599.04" y="-81.5" font-family="Helvetica,sans-Serif" font-size="10.00">MathUtils/Cartesian2D.h</text>
</a>
</g>
</g>
<!-- Node21&#45;&gt;Node28 -->
<g id="edge35" class="edge"><title>Node21&#45;&gt;Node28</title>
<path fill="none" stroke="midnightblue" d="M945.657,-142.487C957.879,-140.059 971.475,-137.633 984.036,-136 1223.88,-104.815 1287.4,-132.744 1527.04,-100 1535.49,-98.8445 1544.44,-97.2698 1553.05,-95.5735"/>
<polygon fill="midnightblue" stroke="midnightblue" points="1553.85,-98.9814 1562.95,-93.5443 1552.45,-92.124 1553.85,-98.9814"/>
</g>
<!-- Node29 -->
<g id="node29" class="node"><title>Node29</title>
<polygon fill="none" stroke="#bfbfbf" points="1614.54,-1 1614.54,-31 1765.54,-31 1765.54,-1 1614.54,-1"/>
<text text-anchor="start" x="1622.54" y="-19" font-family="Helvetica,sans-Serif" font-size="10.00">Math/GenVector/Displacement</text>
<text text-anchor="middle" x="1690.04" y="-8" font-family="Helvetica,sans-Serif" font-size="10.00">Vector2D.h</text>
</g>
<!-- Node28&#45;&gt;Node29 -->
<g id="edge36" class="edge"><title>Node28&#45;&gt;Node29</title>
<path fill="none" stroke="midnightblue" d="M1610.93,-74.3717C1623.81,-65.0286 1644.82,-49.7966 1661.94,-37.375"/>
<polygon fill="midnightblue" stroke="midnightblue" points="1664.44,-39.8859 1670.48,-31.1815 1660.33,-34.2194 1664.44,-39.8859"/>
</g>
<!-- Node30 -->
<g id="node30" class="node"><title>Node30</title>
<polygon fill="none" stroke="#bfbfbf" points="1420.04,-6.5 1420.04,-25.5 1596.04,-25.5 1596.04,-6.5 1420.04,-6.5"/>
<text text-anchor="middle" x="1508.04" y="-13.5" font-family="Helvetica,sans-Serif" font-size="10.00">Math/GenVector/PositionVector2D.h</text>
</g>
<!-- Node28&#45;&gt;Node30 -->
<g id="edge37" class="edge"><title>Node28&#45;&gt;Node30</title>
<path fill="none" stroke="midnightblue" d="M1587.14,-74.3717C1572.15,-63.5015 1546.17,-44.6602 1528.09,-31.5474"/>
<polygon fill="midnightblue" stroke="midnightblue" points="1530.09,-28.6684 1519.94,-25.6305 1525.98,-34.3349 1530.09,-28.6684"/>
</g>
</g>
</svg>
        <g id="navigator" transform="translate(0 0)" fill="#404254">
                <rect fill="#f2f5e9" fill-opacity="0.5" stroke="#606060" stroke-width=".5" x="0" y="0" width="60" height="60"/>
                <use id="zoomplus" xlink:href="#zoomPlus" x="17" y="9" onmousedown="handleZoom(evt,'in')"/>
                <use id="zoomminus" xlink:href="#zoomMin" x="42" y="9" onmousedown="handleZoom(evt,'out')"/>
                <use id="reset" xlink:href="#resetDef" x="30" y="36" onmousedown="handleReset()"/>
                <g id="arrowUp" xlink:href="#dirArrow" transform="translate(30 24)" onmousedown="handlePan(0,-1)">
                  <use xlink:href="#rim" fill="#404040">
                        <set attributeName="fill" to="#808080" begin="arrowUp.mouseover" end="arrowUp.mouseout"/>
                  </use>
                  <path fill="none" stroke="white" stroke-width="1.5" d="M0,-3.0v7 M-2.5,-0.5L0,-3.0L2.5,-0.5"/>
                </g>
                <g id="arrowRight" xlink:href="#dirArrow" transform="rotate(90) translate(36 -43)" onmousedown="handlePan(1,0)">
                  <use xlink:href="#rim" fill="#404040">
                        <set attributeName="fill" to="#808080" begin="arrowRight.mouseover" end="arrowRight.mouseout"/>
                  </use>
                  <path fill="none" stroke="white" stroke-width="1.5" d="M0,-3.0v7 M-2.5,-0.5L0,-3.0L2.5,-0.5"/>
                </g>
                <g id="arrowDown" xlink:href="#dirArrow" transform="rotate(180) translate(-30 -48)" onmousedown="handlePan(0,1)">
                  <use xlink:href="#rim" fill="#404040">
                        <set attributeName="fill" to="#808080" begin="arrowDown.mouseover" end="arrowDown.mouseout"/>
                  </use>
                  <path fill="none" stroke="white" stroke-width="1.5" d="M0,-3.0v7 M-2.5,-0.5L0,-3.0L2.5,-0.5"/>
                </g>
                <g id="arrowLeft" xlink:href="#dirArrow" transform="rotate(270) translate(-36 17)" onmousedown="handlePan(-1,0)">
                  <use xlink:href="#rim" fill="#404040">
                        <set attributeName="fill" to="#808080" begin="arrowLeft.mouseover" end="arrowLeft.mouseout"/>
                  </use>
                  <path fill="none" stroke="white" stroke-width="1.5" d="M0,-3.0v7 M-2.5,-0.5L0,-3.0L2.5,-0.5"/>
                </g>
        </g>
        <svg viewBox="0 0 15 15" width="100%" height="30px" preserveAspectRatio="xMaxYMin meet">
         <g id="arrow_out" transform="scale(0.3 0.3)">
          <a xlink:href="ClusterPattern_8h__incl_org.svg" target="_base">
           <rect id="button" ry="5" rx="5" y="6" x="6" height="38" width="38"
                fill="#f2f5e9" fill-opacity="0.5" stroke="#606060" stroke-width="1.0"/>
           <path id="arrow"
             d="M 11.500037,31.436501 C 11.940474,20.09759 22.043105,11.32322 32.158766,21.979434 L 37.068811,17.246167 C 37.068811,17.246167 37.088388,32 37.088388,32 L 22.160133,31.978069 C 22.160133,31.978069 26.997745,27.140456 26.997745,27.140456 C 18.528582,18.264221 13.291696,25.230495 11.500037,31.436501 z"
             style="fill:#404040;"/>
          </a>
         </g>
        </svg>
</svg>
