<?xml version="1.0" encoding="UTF-8" standalone="no"?>
<!DOCTYPE svg PUBLIC "-//W3C//DTD SVG 1.1//EN"
 "http://www.w3.org/Graphics/SVG/1.1/DTD/svg11.dtd">
<!-- Generated by graphviz version 2.36.0 (20140111.2315)
 -->
<!-- Title: /home/travis/build/AliceO2Group/AliceO2/Utilities/MCStepLogger/src/basicMCAnalysisCI.cxx Pages: 1 -->
<svg width="1452pt" height="242pt"
 viewBox="0.00 0.00 1452.00 242.00" xmlns="http://www.w3.org/2000/svg" xmlns:xlink="http://www.w3.org/1999/xlink">
<g id="graph0" class="graph" transform="scale(1 1) rotate(0) translate(4 238)">
<title>/home/travis/build/AliceO2Group/AliceO2/Utilities/MCStepLogger/src/basicMCAnalysisCI.cxx</title>
<!-- Node1 -->
<g id="node1" class="node"><title>Node1</title>
<polygon fill="#bfbfbf" stroke="black" points="596,-181 596,-233 738,-233 738,-181 596,-181"/>
<text text-anchor="start" x="604" y="-221" font-family="Helvetica,sans-Serif" font-size="10.00">/home/travis/build</text>
<text text-anchor="start" x="604" y="-210" font-family="Helvetica,sans-Serif" font-size="10.00">/AliceO2Group/AliceO2</text>
<text text-anchor="start" x="604" y="-199" font-family="Helvetica,sans-Serif" font-size="10.00">/Utilities/MCStepLogger</text>
<text text-anchor="middle" x="667" y="-188" font-family="Helvetica,sans-Serif" font-size="10.00">/src/basicMCAnalysisCI.cxx</text>
</g>
<!-- Node2 -->
<g id="node2" class="node"><title>Node2</title>
<polygon fill="none" stroke="#bfbfbf" points="-0.5,-118.5 -0.5,-137.5 118.5,-137.5 118.5,-118.5 -0.5,-118.5"/>
<text text-anchor="middle" x="59" y="-125.5" font-family="Helvetica,sans-Serif" font-size="10.00">boost/test/unit_test.hpp</text>
</g>
<!-- Node1&#45;&gt;Node2 -->
<g id="edge1" class="edge"><title>Node1&#45;&gt;Node2</title>
<path fill="none" stroke="midnightblue" d="M595.623,-200.07C492.133,-190.955 294.568,-171.615 128,-144 120.516,-142.759 112.618,-141.242 104.944,-139.654"/>
<polygon fill="midnightblue" stroke="midnightblue" points="105.548,-136.204 95.0383,-137.544 104.089,-143.051 105.548,-136.204"/>
</g>
<!-- Node3 -->
<g id="node3" class="node"><title>Node3</title>
<polygon fill="none" stroke="#bfbfbf" points="137,-113 137,-143 229,-143 229,-113 137,-113"/>
<text text-anchor="start" x="145" y="-131" font-family="Helvetica,sans-Serif" font-size="10.00">boost/test/results</text>
<text text-anchor="middle" x="183" y="-120" font-family="Helvetica,sans-Serif" font-size="10.00">_collector.hpp</text>
</g>
<!-- Node1&#45;&gt;Node3 -->
<g id="edge2" class="edge"><title>Node1&#45;&gt;Node3</title>
<path fill="none" stroke="midnightblue" d="M595.937,-198.437C512.551,-188.955 370.055,-170.863 238.935,-144.047"/>
<polygon fill="midnightblue" stroke="midnightblue" points="239.616,-140.614 229.114,-142.018 238.199,-147.469 239.616,-140.614"/>
</g>
<!-- Node4 -->
<g id="node4" class="node"><title>Node4</title>
<polygon fill="none" stroke="#bfbfbf" points="247.5,-113 247.5,-143 364.5,-143 364.5,-113 247.5,-113"/>
<text text-anchor="start" x="255.5" y="-131" font-family="Helvetica,sans-Serif" font-size="10.00">boost/test/floating</text>
<text text-anchor="middle" x="306" y="-120" font-family="Helvetica,sans-Serif" font-size="10.00">_point_comparison.hpp</text>
</g>
<!-- Node1&#45;&gt;Node4 -->
<g id="edge3" class="edge"><title>Node1&#45;&gt;Node4</title>
<path fill="none" stroke="midnightblue" d="M595.916,-191.136C538.876,-179.168 456.466,-161.786 374.58,-144.116"/>
<polygon fill="midnightblue" stroke="midnightblue" points="375.112,-140.65 364.598,-141.96 373.634,-147.492 375.112,-140.65"/>
</g>
<!-- Node5 -->
<g id="node5" class="node"><title>Node5</title>
<polygon fill="none" stroke="#bfbfbf" points="383,-118.5 383,-137.5 493,-137.5 493,-118.5 383,-118.5"/>
<text text-anchor="middle" x="438" y="-125.5" font-family="Helvetica,sans-Serif" font-size="10.00">rapidjson/document.h</text>
</g>
<!-- Node1&#45;&gt;Node5 -->
<g id="edge4" class="edge"><title>Node1&#45;&gt;Node5</title>
<path fill="none" stroke="midnightblue" d="M595.798,-182.059C554.986,-168.336 505.566,-151.719 473.034,-140.78"/>
<polygon fill="midnightblue" stroke="midnightblue" points="474.102,-137.447 463.508,-137.577 471.871,-144.081 474.102,-137.447"/>
</g>
<!-- Node6 -->
<g id="node6" class="node"><title>Node6</title>
<polygon fill="none" stroke="#bfbfbf" points="511,-118.5 511,-137.5 639,-137.5 639,-118.5 511,-118.5"/>
<text text-anchor="middle" x="575" y="-125.5" font-family="Helvetica,sans-Serif" font-size="10.00">rapidjson/filereadstream.h</text>
</g>
<!-- Node1&#45;&gt;Node6 -->
<g id="edge5" class="edge"><title>Node1&#45;&gt;Node6</title>
<path fill="none" stroke="midnightblue" d="M636.876,-180.787C622.399,-168.671 605.531,-154.553 593.067,-144.121"/>
<polygon fill="midnightblue" stroke="midnightblue" points="595.14,-141.292 585.225,-137.558 590.647,-146.66 595.14,-141.292"/>
</g>
<!-- Node7 -->
<g id="node7" class="node"><title>Node7</title>
<polygon fill="none" stroke="#bfbfbf" points="722.5,-0.5 722.5,-19.5 763.5,-19.5 763.5,-0.5 722.5,-0.5"/>
<text text-anchor="middle" x="743" y="-7.5" font-family="Helvetica,sans-Serif" font-size="10.00">string</text>
</g>
<!-- Node1&#45;&gt;Node7 -->
<g id="edge6" class="edge"><title>Node1&#45;&gt;Node7</title>
<path fill="none" stroke="midnightblue" d="M665.929,-180.95C665.685,-149.721 668.933,-95.6321 691,-56 697.806,-43.7763 709.278,-33.3141 719.717,-25.5621"/>
<polygon fill="midnightblue" stroke="midnightblue" points="721.914,-28.2971 728.118,-19.7087 717.912,-22.5537 721.914,-28.2971"/>
</g>
<!-- Node8 -->
<g id="node8" class="node"><title>Node8</title>
<polygon fill="none" stroke="#bfbfbf" points="1343,-118.5 1343,-137.5 1383,-137.5 1383,-118.5 1343,-118.5"/>
<text text-anchor="middle" x="1363" y="-125.5" font-family="Helvetica,sans-Serif" font-size="10.00">utility</text>
</g>
<!-- Node1&#45;&gt;Node8 -->
<g id="edge7" class="edge"><title>Node1&#45;&gt;Node8</title>
<path fill="none" stroke="midnightblue" d="M738.345,-206.761C861.089,-206.435 1119.25,-198.55 1329,-144 1331.66,-143.308 1334.38,-142.432 1337.05,-141.45"/>
<polygon fill="midnightblue" stroke="midnightblue" points="1338.52,-144.63 1346.44,-137.584 1335.86,-138.158 1338.52,-144.63"/>
</g>
<!-- Node9 -->
<g id="node9" class="node"><title>Node9</title>
<polygon fill="none" stroke="#bfbfbf" points="1255,-0.5 1255,-19.5 1299,-19.5 1299,-0.5 1255,-0.5"/>
<text text-anchor="middle" x="1277" y="-7.5" font-family="Helvetica,sans-Serif" font-size="10.00">vector</text>
</g>
<!-- Node1&#45;&gt;Node9 -->
<g id="edge8" class="edge"><title>Node1&#45;&gt;Node9</title>
<path fill="none" stroke="midnightblue" d="M738.194,-202.092C884.922,-192.35 1212.65,-161.311 1277,-76 1286.87,-62.9199 1285.54,-43.7692 1282.55,-29.6409"/>
<polygon fill="midnightblue" stroke="midnightblue" points="1285.84,-28.4141 1279.97,-19.5989 1279.06,-30.1552 1285.84,-28.4141"/>
</g>
<!-- Node10 -->
<g id="node10" class="node"><title>Node10</title>
<polygon fill="none" stroke="#bfbfbf" points="969,-0.5 969,-19.5 1023,-19.5 1023,-0.5 969,-0.5"/>
<text text-anchor="middle" x="996" y="-7.5" font-family="Helvetica,sans-Serif" font-size="10.00">iostream</text>
</g>
<!-- Node1&#45;&gt;Node10 -->
<g id="edge9" class="edge"><title>Node1&#45;&gt;Node10</title>
<path fill="none" stroke="midnightblue" d="M675.675,-180.74C688.758,-146.668 716.911,-86.7219 762,-56 793.541,-34.5092 901.178,-20.6205 958.831,-14.5397"/>
<polygon fill="midnightblue" stroke="midnightblue" points="959.395,-18.0002 968.985,-13.4951 958.679,-11.0369 959.395,-18.0002"/>
</g>
<!-- Node11 -->
<g id="node11" class="node"><title>Node11</title>
<polygon fill="none" stroke="#bfbfbf" points="1401.5,-118.5 1401.5,-137.5 1444.5,-137.5 1444.5,-118.5 1401.5,-118.5"/>
<text text-anchor="middle" x="1423" y="-125.5" font-family="Helvetica,sans-Serif" font-size="10.00">cstdio</text>
</g>
<!-- Node1&#45;&gt;Node11 -->
<g id="edge10" class="edge"><title>Node1&#45;&gt;Node11</title>
<path fill="none" stroke="midnightblue" d="M738.116,-203.212C895.732,-196.5 1270.11,-177.471 1392,-144 1394.2,-143.395 1396.44,-142.637 1398.65,-141.785"/>
<polygon fill="midnightblue" stroke="midnightblue" points="1400.27,-144.894 1407.98,-137.63 1397.42,-138.499 1400.27,-144.894"/>
</g>
<!-- Node12 -->
<g id="node12" class="node"><title>Node12</title>
<g id="a_node12"><a xlink:href="../../d2/dd4/MCAnalysisFileWrapper_8h.html" target="_top" xlink:title="MCStepLogger/MCAnalysisFile\lWrapper.h">
<polygon fill="none" stroke="black" points="876,-113 876,-143 1030,-143 1030,-113 876,-113"/>
<text text-anchor="start" x="884" y="-131" font-family="Helvetica,sans-Serif" font-size="10.00">MCStepLogger/MCAnalysisFile</text>
<text text-anchor="middle" x="953" y="-120" font-family="Helvetica,sans-Serif" font-size="10.00">Wrapper.h</text>
</a>
</g>
</g>
<!-- Node1&#45;&gt;Node12 -->
<g id="edge11" class="edge"><title>Node1&#45;&gt;Node12</title>
<path fill="none" stroke="midnightblue" d="M738.064,-186.867C784.974,-174.238 845.849,-157.848 890.832,-145.737"/>
<polygon fill="midnightblue" stroke="midnightblue" points="892.007,-149.046 900.753,-143.066 890.187,-142.287 892.007,-149.046"/>
</g>
<!-- Node12&#45;&gt;Node7 -->
<g id="edge12" class="edge"><title>Node12&#45;&gt;Node7</title>
<path fill="none" stroke="midnightblue" d="M875.886,-123.826C837.103,-118.319 792.076,-105.379 762,-76 749.789,-64.0723 745.318,-44.767 743.734,-30.2887"/>
<polygon fill="midnightblue" stroke="midnightblue" points="747.199,-29.6689 742.991,-19.9455 740.217,-30.1707 747.199,-29.6689"/>
</g>
<!-- Node12&#45;&gt;Node9 -->
<g id="edge13" class="edge"><title>Node12&#45;&gt;Node9</title>
<path fill="none" stroke="midnightblue" d="M1030.14,-123.151C1108.86,-117.671 1224.04,-104.867 1257,-76 1270.17,-64.4706 1274.79,-44.5026 1276.35,-29.7325"/>
<polygon fill="midnightblue" stroke="midnightblue" points="1279.85,-29.892 1277.04,-19.6767 1272.86,-29.4149 1279.85,-29.892"/>
</g>
<!-- Node13 -->
<g id="node13" class="node"><title>Node13</title>
<polygon fill="none" stroke="#bfbfbf" points="771,-56.5 771,-75.5 823,-75.5 823,-56.5 771,-56.5"/>
<text text-anchor="middle" x="797" y="-63.5" font-family="Helvetica,sans-Serif" font-size="10.00">memory</text>
</g>
<!-- Node12&#45;&gt;Node13 -->
<g id="edge14" class="edge"><title>Node12&#45;&gt;Node13</title>
<path fill="none" stroke="midnightblue" d="M916.425,-112.933C889.871,-102.72 854.294,-89.036 828.893,-79.2664"/>
<polygon fill="midnightblue" stroke="midnightblue" points="829.95,-75.9232 819.36,-75.6 827.437,-82.4566 829.95,-75.9232"/>
</g>
<!-- Node14 -->
<g id="node14" class="node"><title>Node14</title>
<polygon fill="none" stroke="#bfbfbf" points="841.5,-56.5 841.5,-75.5 912.5,-75.5 912.5,-56.5 841.5,-56.5"/>
<text text-anchor="middle" x="877" y="-63.5" font-family="Helvetica,sans-Serif" font-size="10.00">FairLogger.h</text>
</g>
<!-- Node12&#45;&gt;Node14 -->
<g id="edge15" class="edge"><title>Node12&#45;&gt;Node14</title>
<path fill="none" stroke="midnightblue" d="M934.989,-112.781C923.262,-103.523 907.985,-91.4618 896.055,-82.0435"/>
<polygon fill="midnightblue" stroke="midnightblue" points="898.076,-79.1799 888.059,-75.7305 893.739,-84.6741 898.076,-79.1799"/>
</g>
<!-- Node15 -->
<g id="node15" class="node"><title>Node15</title>
<g id="a_node15"><a xlink:href="../../d1/dd7/MetaInfo_8h.html" target="_top" xlink:title="MCStepLogger/MetaInfo.h">
<polygon fill="none" stroke="black" points="1117.5,-56.5 1117.5,-75.5 1248.5,-75.5 1248.5,-56.5 1117.5,-56.5"/>
<text text-anchor="middle" x="1183" y="-63.5" font-family="Helvetica,sans-Serif" font-size="10.00">MCStepLogger/MetaInfo.h</text>
</a>
</g>
</g>
<!-- Node12&#45;&gt;Node15 -->
<g id="edge16" class="edge"><title>Node12&#45;&gt;Node15</title>
<path fill="none" stroke="midnightblue" d="M1006.92,-112.933C1047.58,-102.326 1102.59,-87.9772 1140.24,-78.1559"/>
<polygon fill="midnightblue" stroke="midnightblue" points="1141.58,-81.4236 1150.37,-75.5127 1139.81,-74.6503 1141.58,-81.4236"/>
</g>
<!-- Node16 -->
<g id="node16" class="node"><title>Node16</title>
<polygon fill="none" stroke="#bfbfbf" points="931,-56.5 931,-75.5 975,-75.5 975,-56.5 931,-56.5"/>
<text text-anchor="middle" x="953" y="-63.5" font-family="Helvetica,sans-Serif" font-size="10.00">TH1.h</text>
</g>
<!-- Node12&#45;&gt;Node16 -->
<g id="edge20" class="edge"><title>Node12&#45;&gt;Node16</title>
<path fill="none" stroke="midnightblue" d="M953,-112.781C953,-104.781 953,-94.6887 953,-86.0168"/>
<polygon fill="midnightblue" stroke="midnightblue" points="956.5,-85.7305 953,-75.7305 949.5,-85.7306 956.5,-85.7305"/>
</g>
<!-- Node17 -->
<g id="node17" class="node"><title>Node17</title>
<polygon fill="none" stroke="#bfbfbf" points="993,-56.5 993,-75.5 1037,-75.5 1037,-56.5 993,-56.5"/>
<text text-anchor="middle" x="1015" y="-63.5" font-family="Helvetica,sans-Serif" font-size="10.00">TH2.h</text>
</g>
<!-- Node12&#45;&gt;Node17 -->
<g id="edge21" class="edge"><title>Node12&#45;&gt;Node17</title>
<path fill="none" stroke="midnightblue" d="M967.693,-112.781C976.981,-103.792 988.999,-92.162 998.598,-82.8731"/>
<polygon fill="midnightblue" stroke="midnightblue" points="1001.23,-85.1999 1005.98,-75.7305 996.358,-80.1697 1001.23,-85.1999"/>
</g>
<!-- Node18 -->
<g id="node18" class="node"><title>Node18</title>
<polygon fill="none" stroke="#bfbfbf" points="1055,-56.5 1055,-75.5 1099,-75.5 1099,-56.5 1055,-56.5"/>
<text text-anchor="middle" x="1077" y="-63.5" font-family="Helvetica,sans-Serif" font-size="10.00">TH3.h</text>
</g>
<!-- Node12&#45;&gt;Node18 -->
<g id="edge22" class="edge"><title>Node12&#45;&gt;Node18</title>
<path fill="none" stroke="midnightblue" d="M982.072,-112.933C1002.62,-102.991 1029.96,-89.7601 1050.02,-80.0526"/>
<polygon fill="midnightblue" stroke="midnightblue" points="1051.75,-83.1063 1059.23,-75.6 1048.7,-76.8051 1051.75,-83.1063"/>
</g>
<!-- Node15&#45;&gt;Node7 -->
<g id="edge17" class="edge"><title>Node15&#45;&gt;Node7</title>
<path fill="none" stroke="midnightblue" d="M1117.13,-56.9157C1020.67,-45.0777 844.776,-23.4907 773.858,-14.7871"/>
<polygon fill="midnightblue" stroke="midnightblue" points="774.143,-11.296 763.791,-13.5517 773.291,-18.2438 774.143,-11.296"/>
</g>
<!-- Node15&#45;&gt;Node9 -->
<g id="edge18" class="edge"><title>Node15&#45;&gt;Node9</title>
<path fill="none" stroke="midnightblue" d="M1198.1,-56.324C1212.9,-47.8215 1235.69,-34.7288 1252.98,-24.7975"/>
<polygon fill="midnightblue" stroke="midnightblue" points="1255.01,-27.6707 1261.93,-19.6545 1251.52,-21.6009 1255.01,-27.6707"/>
</g>
<!-- Node15&#45;&gt;Node10 -->
<g id="edge19" class="edge"><title>Node15&#45;&gt;Node10</title>
<path fill="none" stroke="midnightblue" d="M1153.37,-56.4435C1120.75,-47.0241 1068.26,-31.8679 1032.98,-21.6774"/>
<polygon fill="midnightblue" stroke="midnightblue" points="1033.64,-18.2269 1023.06,-18.8151 1031.7,-24.9521 1033.64,-18.2269"/>
</g>
</g>
</svg>
