<?xml version="1.0" encoding="UTF-8" standalone="no"?>
<!DOCTYPE svg PUBLIC "-//W3C//DTD SVG 1.1//EN"
 "http://www.w3.org/Graphics/SVG/1.1/DTD/svg11.dtd">
<!-- Generated by graphviz version 2.36.0 (20140111.2315)
 -->
<!-- Title: /home/travis/build/AliceO2Group/AliceO2/Utilities/aliceHLTwrapper/src/MessageFormat.cxx Pages: 1 -->
<svg width="2296pt" height="298pt"
 viewBox="0.00 0.00 2296.00 298.00" xmlns="http://www.w3.org/2000/svg" xmlns:xlink="http://www.w3.org/1999/xlink">
<g id="graph0" class="graph" transform="scale(1 1) rotate(0) translate(4 294)">
<title>/home/travis/build/AliceO2Group/AliceO2/Utilities/aliceHLTwrapper/src/MessageFormat.cxx</title>
<!-- Node1 -->
<g id="node1" class="node"><title>Node1</title>
<polygon fill="#bfbfbf" stroke="black" points="1689.5,-237 1689.5,-289 1818.5,-289 1818.5,-237 1689.5,-237"/>
<text text-anchor="start" x="1697.5" y="-277" font-family="Helvetica,sans-Serif" font-size="10.00">/home/travis/build</text>
<text text-anchor="start" x="1697.5" y="-266" font-family="Helvetica,sans-Serif" font-size="10.00">/AliceO2Group/AliceO2</text>
<text text-anchor="start" x="1697.5" y="-255" font-family="Helvetica,sans-Serif" font-size="10.00">/Utilities/aliceHLTwrapper</text>
<text text-anchor="middle" x="1754" y="-244" font-family="Helvetica,sans-Serif" font-size="10.00">/src/MessageFormat.cxx</text>
</g>
<!-- Node2 -->
<g id="node2" class="node"><title>Node2</title>
<g id="a_node2"><a xlink:href="../../d2/dda/MessageFormat_8h.html" target="_top" xlink:title="aliceHLTwrapper/MessageFormat.h">
<polygon fill="none" stroke="black" points="231,-180.5 231,-199.5 403,-199.5 403,-180.5 231,-180.5"/>
<text text-anchor="middle" x="317" y="-187.5" font-family="Helvetica,sans-Serif" font-size="10.00">aliceHLTwrapper/MessageFormat.h</text>
</a>
</g>
</g>
<!-- Node1&#45;&gt;Node2 -->
<g id="edge1" class="edge"><title>Node1&#45;&gt;Node2</title>
<path fill="none" stroke="midnightblue" d="M1689.46,-258.811C1460.58,-247.502 686.771,-209.27 413.53,-195.769"/>
<polygon fill="midnightblue" stroke="midnightblue" points="413.401,-192.259 403.24,-195.261 413.055,-199.25 413.401,-192.259"/>
</g>
<!-- Node4 -->
<g id="node4" class="node"><title>Node4</title>
<g id="a_node4"><a xlink:href="../../d2/de6/HOMERFactory_8h.html" target="_top" xlink:title="HOMERFactory.h">
<polygon fill="none" stroke="black" points="-0.5,-124.5 -0.5,-143.5 94.5,-143.5 94.5,-124.5 -0.5,-124.5"/>
<text text-anchor="middle" x="47" y="-131.5" font-family="Helvetica,sans-Serif" font-size="10.00">HOMERFactory.h</text>
</a>
</g>
</g>
<!-- Node1&#45;&gt;Node4 -->
<g id="edge22" class="edge"><title>Node1&#45;&gt;Node4</title>
<path fill="none" stroke="midnightblue" d="M1689.1,-262.085C1435.22,-261.996 509.249,-257.643 222,-200 167.338,-189.031 107.121,-163.454 73.4948,-147.854"/>
<polygon fill="midnightblue" stroke="midnightblue" points="74.8838,-144.64 64.3451,-143.55 71.9038,-150.974 74.8838,-144.64"/>
</g>
<!-- Node9 -->
<g id="node9" class="node"><title>Node9</title>
<polygon fill="none" stroke="#bfbfbf" points="791,-0.5 791,-19.5 843,-19.5 843,-0.5 791,-0.5"/>
<text text-anchor="middle" x="817" y="-7.5" font-family="Helvetica,sans-Serif" font-size="10.00">memory</text>
</g>
<!-- Node1&#45;&gt;Node9 -->
<g id="edge52" class="edge"><title>Node1&#45;&gt;Node9</title>
<path fill="none" stroke="midnightblue" d="M1746.11,-236.802C1730.4,-191.413 1690.51,-96.8457 1620,-56 1553.18,-17.2946 1002.24,-11.8798 853.749,-11.1229"/>
<polygon fill="midnightblue" stroke="midnightblue" points="853.387,-7.62123 843.371,-11.0743 853.355,-14.6212 853.387,-7.62123"/>
</g>
<!-- Node10 -->
<g id="node10" class="node"><title>Node10</title>
<polygon fill="none" stroke="#bfbfbf" points="1319.5,-0.5 1319.5,-19.5 1368.5,-19.5 1368.5,-0.5 1319.5,-0.5"/>
<text text-anchor="middle" x="1344" y="-7.5" font-family="Helvetica,sans-Serif" font-size="10.00">cassert</text>
</g>
<!-- Node1&#45;&gt;Node10 -->
<g id="edge53" class="edge"><title>Node1&#45;&gt;Node10</title>
<path fill="none" stroke="midnightblue" d="M1754.55,-236.789C1754.01,-192.664 1745.97,-101.785 1692,-56 1645.36,-16.4319 1457.77,-11.2504 1379.05,-10.8555"/>
<polygon fill="midnightblue" stroke="midnightblue" points="1378.7,-7.35466 1368.69,-10.8284 1378.68,-14.3546 1378.7,-7.35466"/>
</g>
<!-- Node11 -->
<g id="node11" class="node"><title>Node11</title>
<polygon fill="none" stroke="#bfbfbf" points="1617,-0.5 1617,-19.5 1663,-19.5 1663,-0.5 1617,-0.5"/>
<text text-anchor="middle" x="1640" y="-7.5" font-family="Helvetica,sans-Serif" font-size="10.00">cstring</text>
</g>
<!-- Node1&#45;&gt;Node11 -->
<g id="edge50" class="edge"><title>Node1&#45;&gt;Node11</title>
<path fill="none" stroke="midnightblue" d="M1758.18,-236.852C1763.67,-195.184 1768.55,-110.98 1730,-56 1716.61,-36.9122 1692.73,-25.4964 1672.92,-18.941"/>
<polygon fill="midnightblue" stroke="midnightblue" points="1673.89,-15.5774 1663.31,-16.021 1671.86,-22.2755 1673.89,-15.5774"/>
</g>
<!-- Node19 -->
<g id="node19" class="node"><title>Node19</title>
<g id="a_node19"><a xlink:href="../../d8/d1e/AliHLTHOMERData_8h.html" target="_top" xlink:title="aliceHLTwrapper/AliHLTHOMERData.h">
<polygon fill="none" stroke="black" points="1782,-124.5 1782,-143.5 1972,-143.5 1972,-124.5 1782,-124.5"/>
<text text-anchor="middle" x="1877" y="-131.5" font-family="Helvetica,sans-Serif" font-size="10.00">aliceHLTwrapper/AliHLTHOMERData.h</text>
</a>
</g>
</g>
<!-- Node1&#45;&gt;Node19 -->
<g id="edge23" class="edge"><title>Node1&#45;&gt;Node19</title>
<path fill="none" stroke="midnightblue" d="M1768.11,-236.902C1778.55,-219.681 1793.88,-196.964 1811,-180 1823.21,-167.903 1839.06,-156.973 1852.17,-148.915"/>
<polygon fill="midnightblue" stroke="midnightblue" points="1854.34,-151.699 1861.14,-143.579 1850.76,-145.683 1854.34,-151.699"/>
</g>
<!-- Node21 -->
<g id="node21" class="node"><title>Node21</title>
<g id="a_node21"><a xlink:href="../../d0/d3f/AliHLTHOMERWriter_8h.html" target="_top" xlink:title="HLT Online Monitoring Environment including ROOT &#45; Writer. ">
<polygon fill="none" stroke="black" points="1455.5,-180.5 1455.5,-199.5 1650.5,-199.5 1650.5,-180.5 1455.5,-180.5"/>
<text text-anchor="middle" x="1553" y="-187.5" font-family="Helvetica,sans-Serif" font-size="10.00">aliceHLTwrapper/AliHLTHOMERWriter.h</text>
</a>
</g>
</g>
<!-- Node1&#45;&gt;Node21 -->
<g id="edge25" class="edge"><title>Node1&#45;&gt;Node21</title>
<path fill="none" stroke="midnightblue" d="M1689.3,-239.144C1655.16,-227.085 1614.68,-212.788 1586.75,-202.923"/>
<polygon fill="midnightblue" stroke="midnightblue" points="1587.66,-199.532 1577.07,-199.501 1585.33,-206.132 1587.66,-199.532"/>
</g>
<!-- Node22 -->
<g id="node22" class="node"><title>Node22</title>
<g id="a_node22"><a xlink:href="../../d6/de3/AliHLTHOMERReader_8h.html" target="_top" xlink:title="HLT Online Monitoring Environment including ROOT &#45; Reader. ">
<polygon fill="none" stroke="black" points="1820,-180.5 1820,-199.5 2020,-199.5 2020,-180.5 1820,-180.5"/>
<text text-anchor="middle" x="1920" y="-187.5" font-family="Helvetica,sans-Serif" font-size="10.00">aliceHLTwrapper/AliHLTHOMERReader.h</text>
</a>
</g>
</g>
<!-- Node1&#45;&gt;Node22 -->
<g id="edge28" class="edge"><title>Node1&#45;&gt;Node22</title>
<path fill="none" stroke="midnightblue" d="M1812.53,-236.968C1838.91,-225.681 1868.93,-212.844 1890.52,-203.61"/>
<polygon fill="midnightblue" stroke="midnightblue" points="1891.98,-206.789 1899.8,-199.639 1889.23,-200.353 1891.98,-206.789"/>
</g>
<!-- Node25 -->
<g id="node25" class="node"><title>Node25</title>
<g id="a_node25"><a xlink:href="../../d4/d00/Headers_2include_2Headers_2Stack_8h.html" target="_top" xlink:title="Headers/Stack.h">
<polygon fill="none" stroke="black" points="910,-180.5 910,-199.5 1000,-199.5 1000,-180.5 910,-180.5"/>
<text text-anchor="middle" x="955" y="-187.5" font-family="Helvetica,sans-Serif" font-size="10.00">Headers/Stack.h</text>
</a>
</g>
</g>
<!-- Node1&#45;&gt;Node25 -->
<g id="edge33" class="edge"><title>Node1&#45;&gt;Node25</title>
<path fill="none" stroke="midnightblue" d="M1689.29,-256.25C1536.16,-242.642 1153.69,-208.656 1010.38,-195.921"/>
<polygon fill="midnightblue" stroke="midnightblue" points="1010.35,-192.405 1000.08,-195.006 1009.73,-199.377 1010.35,-192.405"/>
</g>
<!-- Node36 -->
<g id="node36" class="node"><title>Node36</title>
<polygon fill="none" stroke="#bfbfbf" points="2038.5,-180.5 2038.5,-199.5 2083.5,-199.5 2083.5,-180.5 2038.5,-180.5"/>
<text text-anchor="middle" x="2061" y="-187.5" font-family="Helvetica,sans-Serif" font-size="10.00">cstdlib</text>
</g>
<!-- Node1&#45;&gt;Node36 -->
<g id="edge48" class="edge"><title>Node1&#45;&gt;Node36</title>
<path fill="none" stroke="midnightblue" d="M1818.68,-248.419C1872.26,-236.94 1950.61,-219.629 2028.35,-200.062"/>
<polygon fill="midnightblue" stroke="midnightblue" points="2029.48,-203.385 2038.31,-197.539 2027.76,-196.599 2029.48,-203.385"/>
</g>
<!-- Node37 -->
<g id="node37" class="node"><title>Node37</title>
<polygon fill="none" stroke="#bfbfbf" points="2102,-180.5 2102,-199.5 2146,-199.5 2146,-180.5 2102,-180.5"/>
<text text-anchor="middle" x="2124" y="-187.5" font-family="Helvetica,sans-Serif" font-size="10.00">cerrno</text>
</g>
<!-- Node1&#45;&gt;Node37 -->
<g id="edge49" class="edge"><title>Node1&#45;&gt;Node37</title>
<path fill="none" stroke="midnightblue" d="M1818.53,-251.991C1884.69,-241.318 1990.68,-223.078 2091.91,-199.826"/>
<polygon fill="midnightblue" stroke="midnightblue" points="2092.74,-203.227 2101.69,-197.56 2091.16,-196.407 2092.74,-203.227"/>
</g>
<!-- Node38 -->
<g id="node38" class="node"><title>Node38</title>
<polygon fill="none" stroke="#bfbfbf" points="2164,-180.5 2164,-199.5 2218,-199.5 2218,-180.5 2164,-180.5"/>
<text text-anchor="middle" x="2191" y="-187.5" font-family="Helvetica,sans-Serif" font-size="10.00">iostream</text>
</g>
<!-- Node1&#45;&gt;Node38 -->
<g id="edge51" class="edge"><title>Node1&#45;&gt;Node38</title>
<path fill="none" stroke="midnightblue" d="M1818.73,-253.688C1898.07,-243.103 2036.48,-223.357 2154,-200 2154.1,-199.98 2154.2,-199.96 2154.3,-199.939"/>
<polygon fill="midnightblue" stroke="midnightblue" points="2154.94,-203.382 2163.98,-197.852 2153.47,-196.539 2154.94,-203.382"/>
</g>
<!-- Node39 -->
<g id="node39" class="node"><title>Node39</title>
<polygon fill="none" stroke="#bfbfbf" points="2236,-180.5 2236,-199.5 2288,-199.5 2288,-180.5 2236,-180.5"/>
<text text-anchor="middle" x="2262" y="-187.5" font-family="Helvetica,sans-Serif" font-size="10.00">sstream</text>
</g>
<!-- Node1&#45;&gt;Node39 -->
<g id="edge54" class="edge"><title>Node1&#45;&gt;Node39</title>
<path fill="none" stroke="midnightblue" d="M1818.66,-256.035C1908.16,-247.223 2074.9,-228.802 2225.79,-200.036"/>
<polygon fill="midnightblue" stroke="midnightblue" points="2226.55,-203.455 2235.7,-198.127 2225.22,-196.581 2226.55,-203.455"/>
</g>
<!-- Node3 -->
<g id="node3" class="node"><title>Node3</title>
<g id="a_node3"><a xlink:href="../../d6/d34/AliHLTDataTypes_8h.html" target="_top" xlink:title="Data type declaration for the HLT module. ">
<polygon fill="none" stroke="black" points="12.5,-62.5 12.5,-81.5 115.5,-81.5 115.5,-62.5 12.5,-62.5"/>
<text text-anchor="middle" x="64" y="-69.5" font-family="Helvetica,sans-Serif" font-size="10.00">AliHLTDataTypes.h</text>
</a>
</g>
</g>
<!-- Node2&#45;&gt;Node3 -->
<g id="edge2" class="edge"><title>Node2&#45;&gt;Node3</title>
<path fill="none" stroke="midnightblue" d="M259.534,-180.429C225.435,-173.757 182.146,-162.44 147,-144 120.118,-129.895 94.3981,-105.665 78.9002,-89.4894"/>
<polygon fill="midnightblue" stroke="midnightblue" points="81.1591,-86.7804 71.7755,-81.8613 76.0434,-91.5585 81.1591,-86.7804"/>
</g>
<!-- Node2&#45;&gt;Node4 -->
<g id="edge3" class="edge"><title>Node2&#45;&gt;Node4</title>
<path fill="none" stroke="midnightblue" d="M274.218,-180.444C226.821,-170.964 150.374,-155.675 99.4174,-145.483"/>
<polygon fill="midnightblue" stroke="midnightblue" points="100.074,-142.046 89.5821,-143.516 98.7015,-148.91 100.074,-142.046"/>
</g>
<!-- Node5 -->
<g id="node5" class="node"><title>Node5</title>
<polygon fill="none" stroke="#bfbfbf" points="448,-62.5 448,-81.5 492,-81.5 492,-62.5 448,-62.5"/>
<text text-anchor="middle" x="470" y="-69.5" font-family="Helvetica,sans-Serif" font-size="10.00">vector</text>
</g>
<!-- Node2&#45;&gt;Node5 -->
<g id="edge5" class="edge"><title>Node2&#45;&gt;Node5</title>
<path fill="none" stroke="midnightblue" d="M388.047,-180.479C432.974,-173.464 485.106,-161.748 499,-144 511.881,-127.546 498.07,-104.583 485.453,-89.2752"/>
<polygon fill="midnightblue" stroke="midnightblue" points="487.976,-86.8446 478.743,-81.6484 482.721,-91.4683 487.976,-86.8446"/>
</g>
<!-- Node6 -->
<g id="node6" class="node"><title>Node6</title>
<polygon fill="none" stroke="#bfbfbf" points="131,-0.5 131,-19.5 177,-19.5 177,-0.5 131,-0.5"/>
<text text-anchor="middle" x="154" y="-7.5" font-family="Helvetica,sans-Serif" font-size="10.00">cstdint</text>
</g>
<!-- Node2&#45;&gt;Node6 -->
<g id="edge6" class="edge"><title>Node2&#45;&gt;Node6</title>
<path fill="none" stroke="midnightblue" d="M262.554,-180.475C238.166,-174.122 210.743,-163.093 192,-144 161.245,-112.672 155.037,-58.2634 154.001,-29.7142"/>
<polygon fill="midnightblue" stroke="midnightblue" points="157.497,-29.4497 153.816,-19.5146 150.498,-29.5762 157.497,-29.4497"/>
</g>
<!-- Node7 -->
<g id="node7" class="node"><title>Node7</title>
<polygon fill="none" stroke="#bfbfbf" points="393,-124.5 393,-143.5 491,-143.5 491,-124.5 393,-124.5"/>
<text text-anchor="middle" x="442" y="-131.5" font-family="Helvetica,sans-Serif" font-size="10.00">boost/signals2.hpp</text>
</g>
<!-- Node2&#45;&gt;Node7 -->
<g id="edge7" class="edge"><title>Node2&#45;&gt;Node7</title>
<path fill="none" stroke="midnightblue" d="M336.807,-180.444C357.287,-171.596 389.483,-157.687 412.865,-147.586"/>
<polygon fill="midnightblue" stroke="midnightblue" points="414.494,-150.695 422.286,-143.516 411.718,-144.269 414.494,-150.695"/>
</g>
<!-- Node8 -->
<g id="node8" class="node"><title>Node8</title>
<g id="a_node8"><a xlink:href="../../dc/dcd/DataHeader_8h.html" target="_top" xlink:title="Headers/DataHeader.h">
<polygon fill="none" stroke="black" points="312.5,-62.5 312.5,-81.5 429.5,-81.5 429.5,-62.5 312.5,-62.5"/>
<text text-anchor="middle" x="371" y="-69.5" font-family="Helvetica,sans-Serif" font-size="10.00">Headers/DataHeader.h</text>
</a>
</g>
</g>
<!-- Node2&#45;&gt;Node8 -->
<g id="edge8" class="edge"><title>Node2&#45;&gt;Node8</title>
<path fill="none" stroke="midnightblue" d="M323.137,-180.344C329.222,-171.502 338.546,-157.232 345,-144 353.438,-126.701 360.739,-105.927 365.438,-91.3331"/>
<polygon fill="midnightblue" stroke="midnightblue" points="368.857,-92.1268 368.5,-81.5379 362.176,-90.0384 368.857,-92.1268"/>
</g>
<!-- Node16 -->
<g id="node16" class="node"><title>Node16</title>
<g id="a_node16"><a xlink:href="../../d2/d09/HeartbeatFrame_8h.html" target="_top" xlink:title="Headers/HeartbeatFrame.h">
<polygon fill="none" stroke="black" points="201.5,-124.5 201.5,-143.5 336.5,-143.5 336.5,-124.5 201.5,-124.5"/>
<text text-anchor="middle" x="269" y="-131.5" font-family="Helvetica,sans-Serif" font-size="10.00">Headers/HeartbeatFrame.h</text>
</a>
</g>
</g>
<!-- Node2&#45;&gt;Node16 -->
<g id="edge17" class="edge"><title>Node2&#45;&gt;Node16</title>
<path fill="none" stroke="midnightblue" d="M309.074,-180.083C302.154,-172.298 291.935,-160.801 283.548,-151.367"/>
<polygon fill="midnightblue" stroke="midnightblue" points="286.038,-148.9 276.779,-143.751 280.806,-153.55 286.038,-148.9"/>
</g>
<!-- Node4&#45;&gt;Node3 -->
<g id="edge4" class="edge"><title>Node4&#45;&gt;Node3</title>
<path fill="none" stroke="midnightblue" d="M49.4357,-124.403C51.8595,-115.849 55.6559,-102.45 58.7651,-91.4762"/>
<polygon fill="midnightblue" stroke="midnightblue" points="62.2102,-92.156 61.5688,-81.5806 55.4753,-90.2477 62.2102,-92.156"/>
</g>
<!-- Node8&#45;&gt;Node6 -->
<g id="edge9" class="edge"><title>Node8&#45;&gt;Node6</title>
<path fill="none" stroke="midnightblue" d="M339.89,-62.4765C305.056,-52.9211 246.655,-36.8668 187.033,-20.2777"/>
<polygon fill="midnightblue" stroke="midnightblue" points="187.64,-16.8138 177.068,-17.5032 185.763,-23.5573 187.64,-16.8138"/>
</g>
<!-- Node8&#45;&gt;Node9 -->
<g id="edge10" class="edge"><title>Node8&#45;&gt;Node9</title>
<path fill="none" stroke="midnightblue" d="M406.515,-62.4725C416.941,-60.1575 428.392,-57.797 439,-56 563.63,-34.8884 713.034,-20.2037 780.622,-14.1271"/>
<polygon fill="midnightblue" stroke="midnightblue" points="781.1,-17.5985 790.751,-13.2261 780.48,-10.626 781.1,-17.5985"/>
</g>
<!-- Node8&#45;&gt;Node10 -->
<g id="edge11" class="edge"><title>Node8&#45;&gt;Node10</title>
<path fill="none" stroke="midnightblue" d="M404.351,-62.4764C415.318,-59.987 427.617,-57.5275 439,-56 775.747,-10.8106 1188.45,-9.84114 1309.26,-10.6423"/>
<polygon fill="midnightblue" stroke="midnightblue" points="1309.36,-14.1431 1319.39,-10.7185 1309.41,-7.1433 1309.36,-14.1431"/>
</g>
<!-- Node8&#45;&gt;Node11 -->
<g id="edge12" class="edge"><title>Node8&#45;&gt;Node11</title>
<path fill="none" stroke="midnightblue" d="M403.994,-62.4725C415.048,-59.9509 427.488,-57.4732 439,-56 468.772,-52.19 1415.77,-18.8576 1606.66,-12.1667"/>
<polygon fill="midnightblue" stroke="midnightblue" points="1607.04,-15.6556 1616.91,-11.8075 1606.8,-8.65994 1607.04,-15.6556"/>
</g>
<!-- Node12 -->
<g id="node12" class="node"><title>Node12</title>
<polygon fill="none" stroke="#bfbfbf" points="428,-0.5 428,-19.5 484,-19.5 484,-0.5 428,-0.5"/>
<text text-anchor="middle" x="456" y="-7.5" font-family="Helvetica,sans-Serif" font-size="10.00">algorithm</text>
</g>
<!-- Node8&#45;&gt;Node12 -->
<g id="edge13" class="edge"><title>Node8&#45;&gt;Node12</title>
<path fill="none" stroke="midnightblue" d="M383.178,-62.4035C396.812,-52.7797 419.132,-37.0242 435.474,-25.4891"/>
<polygon fill="midnightblue" stroke="midnightblue" points="437.693,-28.2069 443.844,-19.5806 433.656,-22.4881 437.693,-28.2069"/>
</g>
<!-- Node13 -->
<g id="node13" class="node"><title>Node13</title>
<polygon fill="none" stroke="#bfbfbf" points="195.5,-0.5 195.5,-19.5 254.5,-19.5 254.5,-0.5 195.5,-0.5"/>
<text text-anchor="middle" x="225" y="-7.5" font-family="Helvetica,sans-Serif" font-size="10.00">stdexcept</text>
</g>
<!-- Node8&#45;&gt;Node13 -->
<g id="edge14" class="edge"><title>Node8&#45;&gt;Node13</title>
<path fill="none" stroke="midnightblue" d="M350.082,-62.4035C325.254,-52.2004 283.657,-35.1055 255.306,-23.4544"/>
<polygon fill="midnightblue" stroke="midnightblue" points="256.459,-20.1445 245.879,-19.5806 253.798,-26.6191 256.459,-20.1445"/>
</g>
<!-- Node14 -->
<g id="node14" class="node"><title>Node14</title>
<polygon fill="none" stroke="#bfbfbf" points="502.5,-0.5 502.5,-19.5 543.5,-19.5 543.5,-0.5 502.5,-0.5"/>
<text text-anchor="middle" x="523" y="-7.5" font-family="Helvetica,sans-Serif" font-size="10.00">string</text>
</g>
<!-- Node8&#45;&gt;Node14 -->
<g id="edge15" class="edge"><title>Node8&#45;&gt;Node14</title>
<path fill="none" stroke="midnightblue" d="M392.778,-62.4035C419.033,-52.0394 463.304,-34.5642 492.836,-22.907"/>
<polygon fill="midnightblue" stroke="midnightblue" points="494.222,-26.1227 502.238,-19.1954 491.652,-19.6116 494.222,-26.1227"/>
</g>
<!-- Node15 -->
<g id="node15" class="node"><title>Node15</title>
<g id="a_node15"><a xlink:href="../../d7/df8/Types_8h.html" target="_top" xlink:title="MemoryResources/Types.h">
<polygon fill="none" stroke="black" points="272.5,-0.5 272.5,-19.5 409.5,-19.5 409.5,-0.5 272.5,-0.5"/>
<text text-anchor="middle" x="341" y="-7.5" font-family="Helvetica,sans-Serif" font-size="10.00">MemoryResources/Types.h</text>
</a>
</g>
</g>
<!-- Node8&#45;&gt;Node15 -->
<g id="edge16" class="edge"><title>Node8&#45;&gt;Node15</title>
<path fill="none" stroke="midnightblue" d="M366.702,-62.4035C362.335,-53.6707 355.445,-39.8893 349.897,-28.7936"/>
<polygon fill="midnightblue" stroke="midnightblue" points="352.893,-26.9596 345.29,-19.5806 346.632,-30.0901 352.893,-26.9596"/>
</g>
<!-- Node16&#45;&gt;Node5 -->
<g id="edge21" class="edge"><title>Node16&#45;&gt;Node5</title>
<path fill="none" stroke="midnightblue" d="M308.885,-124.496C343.526,-116.612 394.778,-103.742 438,-88 439.902,-87.3071 441.846,-86.5435 443.789,-85.7391"/>
<polygon fill="midnightblue" stroke="midnightblue" points="445.581,-88.7727 453.299,-81.5138 442.739,-82.3757 445.581,-88.7727"/>
</g>
<!-- Node16&#45;&gt;Node8 -->
<g id="edge18" class="edge"><title>Node16&#45;&gt;Node8</title>
<path fill="none" stroke="midnightblue" d="M283.614,-124.403C300.353,-114.557 328.004,-98.2915 347.719,-86.6949"/>
<polygon fill="midnightblue" stroke="midnightblue" points="349.568,-89.6676 356.413,-81.5806 346.019,-83.6341 349.568,-89.6676"/>
</g>
<!-- Node17 -->
<g id="node17" class="node"><title>Node17</title>
<polygon fill="none" stroke="#bfbfbf" points="182.5,-62.5 182.5,-81.5 241.5,-81.5 241.5,-62.5 182.5,-62.5"/>
<text text-anchor="middle" x="212" y="-69.5" font-family="Helvetica,sans-Serif" font-size="10.00">functional</text>
</g>
<!-- Node16&#45;&gt;Node17 -->
<g id="edge19" class="edge"><title>Node16&#45;&gt;Node17</title>
<path fill="none" stroke="midnightblue" d="M260.833,-124.403C252.114,-115.225 238.096,-100.47 227.311,-89.1173"/>
<polygon fill="midnightblue" stroke="midnightblue" points="229.577,-86.42 220.152,-81.5806 224.502,-91.2412 229.577,-86.42"/>
</g>
<!-- Node18 -->
<g id="node18" class="node"><title>Node18</title>
<polygon fill="none" stroke="#bfbfbf" points="259.5,-62.5 259.5,-81.5 294.5,-81.5 294.5,-62.5 259.5,-62.5"/>
<text text-anchor="middle" x="277" y="-69.5" font-family="Helvetica,sans-Serif" font-size="10.00">map</text>
</g>
<!-- Node16&#45;&gt;Node18 -->
<g id="edge20" class="edge"><title>Node16&#45;&gt;Node18</title>
<path fill="none" stroke="midnightblue" d="M270.146,-124.403C271.275,-115.938 273.036,-102.728 274.491,-91.8199"/>
<polygon fill="midnightblue" stroke="midnightblue" points="278.003,-91.9555 275.856,-81.5806 271.065,-91.0303 278.003,-91.9555"/>
</g>
<!-- Node20 -->
<g id="node20" class="node"><title>Node20</title>
<polygon fill="none" stroke="#bfbfbf" points="1915.5,-62.5 1915.5,-81.5 1960.5,-81.5 1960.5,-62.5 1915.5,-62.5"/>
<text text-anchor="middle" x="1938" y="-69.5" font-family="Helvetica,sans-Serif" font-size="10.00">climits</text>
</g>
<!-- Node19&#45;&gt;Node20 -->
<g id="edge24" class="edge"><title>Node19&#45;&gt;Node20</title>
<path fill="none" stroke="midnightblue" d="M1885.74,-124.403C1895.16,-115.136 1910.36,-100.183 1921.95,-88.7876"/>
<polygon fill="midnightblue" stroke="midnightblue" points="1924.6,-91.0883 1929.28,-81.5806 1919.69,-86.0978 1924.6,-91.0883"/>
</g>
<!-- Node21&#45;&gt;Node5 -->
<g id="edge27" class="edge"><title>Node21&#45;&gt;Node5</title>
<path fill="none" stroke="midnightblue" d="M1455.34,-185.991C1319.15,-181.059 1064.62,-169.171 849,-144 701.675,-126.801 664.418,-121.819 520,-88 514.121,-86.6233 507.915,-84.9472 501.952,-83.2208"/>
<polygon fill="midnightblue" stroke="midnightblue" points="502.827,-79.8294 492.243,-80.3118 500.818,-86.5349 502.827,-79.8294"/>
</g>
<!-- Node21&#45;&gt;Node19 -->
<g id="edge26" class="edge"><title>Node21&#45;&gt;Node19</title>
<path fill="none" stroke="midnightblue" d="M1604.34,-180.444C1661.81,-170.865 1754.87,-155.356 1816,-145.167"/>
<polygon fill="midnightblue" stroke="midnightblue" points="1816.61,-148.613 1825.9,-143.516 1815.46,-141.708 1816.61,-148.613"/>
</g>
<!-- Node22&#45;&gt;Node19 -->
<g id="edge32" class="edge"><title>Node22&#45;&gt;Node19</title>
<path fill="none" stroke="midnightblue" d="M1912.9,-180.083C1906.76,-172.377 1897.73,-161.033 1890.26,-151.653"/>
<polygon fill="midnightblue" stroke="midnightblue" points="1892.94,-149.394 1883.97,-143.751 1887.46,-153.754 1892.94,-149.394"/>
</g>
<!-- Node22&#45;&gt;Node20 -->
<g id="edge29" class="edge"><title>Node22&#45;&gt;Node20</title>
<path fill="none" stroke="midnightblue" d="M1939.91,-180.41C1954.22,-173.04 1972.46,-160.916 1981,-144 1991.01,-124.173 1973.38,-102.483 1957.76,-88.3611"/>
<polygon fill="midnightblue" stroke="midnightblue" points="1959.83,-85.5205 1949.94,-81.7159 1955.29,-90.8565 1959.83,-85.5205"/>
</g>
<!-- Node23 -->
<g id="node23" class="node"><title>Node23</title>
<polygon fill="none" stroke="#bfbfbf" points="2108,-124.5 2108,-143.5 2164,-143.5 2164,-124.5 2108,-124.5"/>
<text text-anchor="middle" x="2136" y="-131.5" font-family="Helvetica,sans-Serif" font-size="10.00">sys/ipc.h</text>
</g>
<!-- Node22&#45;&gt;Node23 -->
<g id="edge30" class="edge"><title>Node22&#45;&gt;Node23</title>
<path fill="none" stroke="midnightblue" d="M1954.23,-180.444C1993.38,-170.656 2057.3,-154.675 2097.97,-144.506"/>
<polygon fill="midnightblue" stroke="midnightblue" points="2098.93,-147.875 2107.79,-142.054 2097.23,-141.084 2098.93,-147.875"/>
</g>
<!-- Node24 -->
<g id="node24" class="node"><title>Node24</title>
<polygon fill="none" stroke="#bfbfbf" points="2028,-124.5 2028,-143.5 2090,-143.5 2090,-124.5 2028,-124.5"/>
<text text-anchor="middle" x="2059" y="-131.5" font-family="Helvetica,sans-Serif" font-size="10.00">sys/shm.h</text>
</g>
<!-- Node22&#45;&gt;Node24 -->
<g id="edge31" class="edge"><title>Node22&#45;&gt;Node24</title>
<path fill="none" stroke="midnightblue" d="M1942.02,-180.444C1965.1,-171.478 2001.56,-157.314 2027.64,-147.183"/>
<polygon fill="midnightblue" stroke="midnightblue" points="2029.02,-150.4 2037.08,-143.516 2026.49,-143.875 2029.02,-150.4"/>
</g>
<!-- Node25&#45;&gt;Node8 -->
<g id="edge47" class="edge"><title>Node25&#45;&gt;Node8</title>
<path fill="none" stroke="midnightblue" d="M909.571,-183.009C852.822,-175.265 752.855,-160.768 668,-144 576.251,-125.87 469.918,-99.0121 412.669,-84.0641"/>
<polygon fill="midnightblue" stroke="midnightblue" points="413.462,-80.6538 402.901,-81.5048 411.687,-87.4252 413.462,-80.6538"/>
</g>
<!-- Node26 -->
<g id="node26" class="node"><title>Node26</title>
<g id="a_node26"><a xlink:href="../../dc/d03/MemoryResources_8h.html" target="_top" xlink:title="MemoryResources/MemoryResources.h">
<polygon fill="none" stroke="black" points="858.5,-124.5 858.5,-143.5 1051.5,-143.5 1051.5,-124.5 858.5,-124.5"/>
<text text-anchor="middle" x="955" y="-131.5" font-family="Helvetica,sans-Serif" font-size="10.00">MemoryResources/MemoryResources.h</text>
</a>
</g>
</g>
<!-- Node25&#45;&gt;Node26 -->
<g id="edge34" class="edge"><title>Node25&#45;&gt;Node26</title>
<path fill="none" stroke="midnightblue" d="M955,-180.083C955,-173.006 955,-162.861 955,-153.986"/>
<polygon fill="midnightblue" stroke="midnightblue" points="958.5,-153.751 955,-143.751 951.5,-153.751 958.5,-153.751"/>
</g>
<!-- Node26&#45;&gt;Node5 -->
<g id="edge43" class="edge"><title>Node26&#45;&gt;Node5</title>
<path fill="none" stroke="midnightblue" d="M858.114,-131.494C766.207,-128.151 624.874,-118.017 506,-88 503.011,-87.2452 499.946,-86.2845 496.928,-85.2148"/>
<polygon fill="midnightblue" stroke="midnightblue" points="498.177,-81.9453 487.59,-81.546 495.617,-88.4605 498.177,-81.9453"/>
</g>
<!-- Node26&#45;&gt;Node11 -->
<g id="edge39" class="edge"><title>Node26&#45;&gt;Node11</title>
<path fill="none" stroke="midnightblue" d="M1051.57,-132.609C1225.47,-131.016 1577.29,-123.4 1620,-88 1636.83,-74.0516 1640.49,-47.9242 1640.84,-30.0051"/>
<polygon fill="midnightblue" stroke="midnightblue" points="1644.34,-29.8103 1640.7,-19.8581 1637.34,-29.9042 1644.34,-29.8103"/>
</g>
<!-- Node26&#45;&gt;Node14 -->
<g id="edge40" class="edge"><title>Node26&#45;&gt;Node14</title>
<path fill="none" stroke="midnightblue" d="M858.253,-128.466C742.756,-122.145 562.184,-109.035 539,-88 522.998,-73.4813 520.666,-47.4887 521.218,-29.7557"/>
<polygon fill="midnightblue" stroke="midnightblue" points="524.713,-29.9317 521.86,-19.7284 517.728,-29.4843 524.713,-29.9317"/>
</g>
<!-- Node27 -->
<g id="node27" class="node"><title>Node27</title>
<polygon fill="none" stroke="#bfbfbf" points="972,-57 972,-87 1072,-87 1072,-57 972,-57"/>
<text text-anchor="start" x="980" y="-75" font-family="Helvetica,sans-Serif" font-size="10.00">boost/container/flat</text>
<text text-anchor="middle" x="1022" y="-64" font-family="Helvetica,sans-Serif" font-size="10.00">_map.hpp</text>
</g>
<!-- Node26&#45;&gt;Node27 -->
<g id="edge35" class="edge"><title>Node26&#45;&gt;Node27</title>
<path fill="none" stroke="midnightblue" d="M964.599,-124.403C973.419,-116.505 986.851,-104.477 998.504,-94.0409"/>
<polygon fill="midnightblue" stroke="midnightblue" points="1001.09,-96.4194 1006.21,-87.1408 996.425,-91.2047 1001.09,-96.4194"/>
</g>
<!-- Node28 -->
<g id="node28" class="node"><title>Node28</title>
<polygon fill="none" stroke="#bfbfbf" points="1090,-57 1090,-87 1206,-87 1206,-57 1090,-57"/>
<text text-anchor="start" x="1098" y="-75" font-family="Helvetica,sans-Serif" font-size="10.00">boost/container/pmr</text>
<text text-anchor="middle" x="1148" y="-64" font-family="Helvetica,sans-Serif" font-size="10.00">/memory_resource.hpp</text>
</g>
<!-- Node26&#45;&gt;Node28 -->
<g id="edge36" class="edge"><title>Node26&#45;&gt;Node28</title>
<path fill="none" stroke="midnightblue" d="M982.652,-124.403C1011.33,-115.488 1056.93,-101.311 1092.99,-90.1014"/>
<polygon fill="midnightblue" stroke="midnightblue" points="1094.38,-93.3363 1102.89,-87.0253 1092.3,-86.6518 1094.38,-93.3363"/>
</g>
<!-- Node29 -->
<g id="node29" class="node"><title>Node29</title>
<polygon fill="none" stroke="#bfbfbf" points="1224,-57 1224,-87 1380,-87 1380,-57 1224,-57"/>
<text text-anchor="start" x="1232" y="-75" font-family="Helvetica,sans-Serif" font-size="10.00">boost/container/pmr</text>
<text text-anchor="middle" x="1302" y="-64" font-family="Helvetica,sans-Serif" font-size="10.00">/monotonic_buffer_resource.hpp</text>
</g>
<!-- Node26&#45;&gt;Node29 -->
<g id="edge37" class="edge"><title>Node26&#45;&gt;Node29</title>
<path fill="none" stroke="midnightblue" d="M1004.35,-124.467C1058.72,-115.066 1147.25,-99.7579 1213.65,-88.2761"/>
<polygon fill="midnightblue" stroke="midnightblue" points="1214.44,-91.6922 1223.7,-86.5395 1213.25,-84.7946 1214.44,-91.6922"/>
</g>
<!-- Node30 -->
<g id="node30" class="node"><title>Node30</title>
<polygon fill="none" stroke="#bfbfbf" points="1398.5,-57 1398.5,-87 1531.5,-87 1531.5,-57 1398.5,-57"/>
<text text-anchor="start" x="1406.5" y="-75" font-family="Helvetica,sans-Serif" font-size="10.00">boost/container/pmr</text>
<text text-anchor="middle" x="1465" y="-64" font-family="Helvetica,sans-Serif" font-size="10.00">/polymorphic_allocator.hpp</text>
</g>
<!-- Node26&#45;&gt;Node30 -->
<g id="edge38" class="edge"><title>Node26&#45;&gt;Node30</title>
<path fill="none" stroke="midnightblue" d="M1051.85,-125.514C1137.6,-118.296 1266.36,-106.022 1388.08,-88.0462"/>
<polygon fill="midnightblue" stroke="midnightblue" points="1388.96,-91.4546 1398.33,-86.5167 1387.92,-84.5313 1388.96,-91.4546"/>
</g>
<!-- Node31 -->
<g id="node31" class="node"><title>Node31</title>
<polygon fill="none" stroke="#bfbfbf" points="1550,-62.5 1550,-81.5 1612,-81.5 1612,-62.5 1550,-62.5"/>
<text text-anchor="middle" x="1581" y="-69.5" font-family="Helvetica,sans-Serif" font-size="10.00">type_traits</text>
</g>
<!-- Node26&#45;&gt;Node31 -->
<g id="edge41" class="edge"><title>Node26&#45;&gt;Node31</title>
<path fill="none" stroke="midnightblue" d="M1051.67,-133.611C1168.63,-132.513 1370.9,-124.706 1540,-88 1543.7,-87.1971 1547.51,-86.1367 1551.26,-84.9497"/>
<polygon fill="midnightblue" stroke="midnightblue" points="1552.59,-88.1924 1560.89,-81.6024 1550.29,-81.5807 1552.59,-88.1924"/>
</g>
<!-- Node32 -->
<g id="node32" class="node"><title>Node32</title>
<polygon fill="none" stroke="#bfbfbf" points="548,-62.5 548,-81.5 588,-81.5 588,-62.5 548,-62.5"/>
<text text-anchor="middle" x="568" y="-69.5" font-family="Helvetica,sans-Serif" font-size="10.00">utility</text>
</g>
<!-- Node26&#45;&gt;Node32 -->
<g id="edge42" class="edge"><title>Node26&#45;&gt;Node32</title>
<path fill="none" stroke="midnightblue" d="M858.471,-130.04C785.293,-125.615 682.994,-114.714 597,-88 595.092,-87.4072 593.159,-86.6933 591.245,-85.9029"/>
<polygon fill="midnightblue" stroke="midnightblue" points="592.562,-82.6536 582.029,-81.519 589.556,-88.975 592.562,-82.6536"/>
</g>
<!-- Node33 -->
<g id="node33" class="node"><title>Node33</title>
<polygon fill="none" stroke="#bfbfbf" points="606.5,-62.5 606.5,-81.5 689.5,-81.5 689.5,-62.5 606.5,-62.5"/>
<text text-anchor="middle" x="648" y="-69.5" font-family="Helvetica,sans-Serif" font-size="10.00">unordered_map</text>
</g>
<!-- Node26&#45;&gt;Node33 -->
<g id="edge44" class="edge"><title>Node26&#45;&gt;Node33</title>
<path fill="none" stroke="midnightblue" d="M894.613,-124.489C842.27,-116.621 764.67,-103.779 698,-88 693.513,-86.9381 688.835,-85.7059 684.219,-84.4129"/>
<polygon fill="midnightblue" stroke="midnightblue" points="684.89,-80.9631 674.31,-81.5281 682.933,-87.684 684.89,-80.9631"/>
</g>
<!-- Node34 -->
<g id="node34" class="node"><title>Node34</title>
<polygon fill="none" stroke="#bfbfbf" points="707.5,-62.5 707.5,-81.5 804.5,-81.5 804.5,-62.5 707.5,-62.5"/>
<text text-anchor="middle" x="756" y="-69.5" font-family="Helvetica,sans-Serif" font-size="10.00">FairMQMessage.h</text>
</g>
<!-- Node26&#45;&gt;Node34 -->
<g id="edge45" class="edge"><title>Node26&#45;&gt;Node34</title>
<path fill="none" stroke="midnightblue" d="M926.488,-124.403C891.762,-113.933 832.963,-96.2049 794.308,-84.5501"/>
<polygon fill="midnightblue" stroke="midnightblue" points="795.044,-81.1164 784.459,-81.5806 793.023,-87.8184 795.044,-81.1164"/>
</g>
<!-- Node35 -->
<g id="node35" class="node"><title>Node35</title>
<polygon fill="none" stroke="#bfbfbf" points="822.5,-62.5 822.5,-81.5 953.5,-81.5 953.5,-62.5 822.5,-62.5"/>
<text text-anchor="middle" x="888" y="-69.5" font-family="Helvetica,sans-Serif" font-size="10.00">FairMQTransportFactory.h</text>
</g>
<!-- Node26&#45;&gt;Node35 -->
<g id="edge46" class="edge"><title>Node26&#45;&gt;Node35</title>
<path fill="none" stroke="midnightblue" d="M945.401,-124.403C934.952,-115.047 918.032,-99.8948 905.264,-88.4599"/>
<polygon fill="midnightblue" stroke="midnightblue" points="907.366,-85.6445 897.582,-81.5806 902.696,-90.8592 907.366,-85.6445"/>
</g>
</g>
</svg>
