<?xml version="1.0" encoding="UTF-8" standalone="no"?>
<!DOCTYPE svg PUBLIC "-//W3C//DTD SVG 1.1//EN"
 "http://www.w3.org/Graphics/SVG/1.1/DTD/svg11.dtd">
<!-- Generated by graphviz version 2.36.0 (20140111.2315)
 -->
<!-- Title: /home/travis/build/AliceO2Group/AliceO2/DataFormats/Reconstruction/src/BaseCluster.cxx Pages: 1 -->
<svg width="1702pt" height="402pt"
 viewBox="0.00 0.00 1702.00 402.00" xmlns="http://www.w3.org/2000/svg" xmlns:xlink="http://www.w3.org/1999/xlink">
<g id="graph0" class="graph" transform="scale(1 1) rotate(0) translate(4 398)">
<title>/home/travis/build/AliceO2Group/AliceO2/DataFormats/Reconstruction/src/BaseCluster.cxx</title>
<!-- Node1 -->
<g id="node1" class="node"><title>Node1</title>
<polygon fill="#bfbfbf" stroke="black" points="577,-341 577,-393 723,-393 723,-341 577,-341"/>
<text text-anchor="start" x="585" y="-381" font-family="Helvetica,sans-Serif" font-size="10.00">/home/travis/build</text>
<text text-anchor="start" x="585" y="-370" font-family="Helvetica,sans-Serif" font-size="10.00">/AliceO2Group/AliceO2</text>
<text text-anchor="start" x="585" y="-359" font-family="Helvetica,sans-Serif" font-size="10.00">/DataFormats/Reconstruction</text>
<text text-anchor="middle" x="650" y="-348" font-family="Helvetica,sans-Serif" font-size="10.00">/src/BaseCluster.cxx</text>
</g>
<!-- Node2 -->
<g id="node2" class="node"><title>Node2</title>
<g id="a_node2"><a xlink:href="../../d4/de2/BaseCluster_8h.html" target="_top" xlink:title="ReconstructionDataFormats\l/BaseCluster.h">
<polygon fill="none" stroke="black" points="523,-273 523,-303 663,-303 663,-273 523,-273"/>
<text text-anchor="start" x="531" y="-291" font-family="Helvetica,sans-Serif" font-size="10.00">ReconstructionDataFormats</text>
<text text-anchor="middle" x="593" y="-280" font-family="Helvetica,sans-Serif" font-size="10.00">/BaseCluster.h</text>
</a>
</g>
</g>
<!-- Node1&#45;&gt;Node2 -->
<g id="edge1" class="edge"><title>Node1&#45;&gt;Node2</title>
<path fill="none" stroke="midnightblue" d="M631.336,-340.787C624.348,-331.348 616.461,-320.694 609.666,-311.514"/>
<polygon fill="midnightblue" stroke="midnightblue" points="612.313,-309.207 603.55,-303.252 606.687,-313.372 612.313,-309.207"/>
</g>
<!-- Node30 -->
<g id="node30" class="node"><title>Node30</title>
<polygon fill="none" stroke="#bfbfbf" points="681,-278.5 681,-297.5 735,-297.5 735,-278.5 681,-278.5"/>
<text text-anchor="middle" x="708" y="-285.5" font-family="Helvetica,sans-Serif" font-size="10.00">iostream</text>
</g>
<!-- Node1&#45;&gt;Node30 -->
<g id="edge36" class="edge"><title>Node1&#45;&gt;Node30</title>
<path fill="none" stroke="midnightblue" d="M668.991,-340.787C677.679,-329.253 687.733,-315.906 695.458,-305.651"/>
<polygon fill="midnightblue" stroke="midnightblue" points="698.333,-307.651 701.554,-297.558 692.742,-303.439 698.333,-307.651"/>
</g>
<!-- Node3 -->
<g id="node3" class="node"><title>Node3</title>
<polygon fill="none" stroke="#bfbfbf" points="65.5,-210.5 65.5,-229.5 124.5,-229.5 124.5,-210.5 65.5,-210.5"/>
<text text-anchor="middle" x="95" y="-217.5" font-family="Helvetica,sans-Serif" font-size="10.00">TObject.h</text>
</g>
<!-- Node2&#45;&gt;Node3 -->
<g id="edge2" class="edge"><title>Node2&#45;&gt;Node3</title>
<path fill="none" stroke="midnightblue" d="M522.612,-283.823C432.697,-278.689 272.708,-265.929 139,-236 135.038,-235.113 130.933,-233.995 126.895,-232.772"/>
<polygon fill="midnightblue" stroke="midnightblue" points="127.708,-229.356 117.116,-229.584 125.539,-236.011 127.708,-229.356"/>
</g>
<!-- Node4 -->
<g id="node4" class="node"><title>Node4</title>
<polygon fill="none" stroke="#bfbfbf" points="-0.5,-74.5 -0.5,-93.5 40.5,-93.5 40.5,-74.5 -0.5,-74.5"/>
<text text-anchor="middle" x="20" y="-81.5" font-family="Helvetica,sans-Serif" font-size="10.00">bitset</text>
</g>
<!-- Node2&#45;&gt;Node4 -->
<g id="edge3" class="edge"><title>Node2&#45;&gt;Node4</title>
<path fill="none" stroke="midnightblue" d="M524.605,-272.959C439.888,-254.378 292.064,-218.032 172,-168 123.667,-147.859 70.7507,-116.71 41.855,-98.8511"/>
<polygon fill="midnightblue" stroke="midnightblue" points="43.6911,-95.8714 33.3536,-93.5505 39.9876,-101.811 43.6911,-95.8714"/>
</g>
<!-- Node5 -->
<g id="node5" class="node"><title>Node5</title>
<polygon fill="none" stroke="#bfbfbf" points="659,-210.5 659,-229.5 709,-229.5 709,-210.5 659,-210.5"/>
<text text-anchor="middle" x="684" y="-217.5" font-family="Helvetica,sans-Serif" font-size="10.00">iomanip</text>
</g>
<!-- Node2&#45;&gt;Node5 -->
<g id="edge4" class="edge"><title>Node2&#45;&gt;Node5</title>
<path fill="none" stroke="midnightblue" d="M612.746,-272.679C627.865,-261.713 648.641,-246.645 663.858,-235.609"/>
<polygon fill="midnightblue" stroke="midnightblue" points="666.05,-238.342 672.09,-229.638 661.94,-232.676 666.05,-238.342"/>
</g>
<!-- Node6 -->
<g id="node6" class="node"><title>Node6</title>
<polygon fill="none" stroke="#bfbfbf" points="727.5,-210.5 727.5,-229.5 756.5,-229.5 756.5,-210.5 727.5,-210.5"/>
<text text-anchor="middle" x="742" y="-217.5" font-family="Helvetica,sans-Serif" font-size="10.00">ios</text>
</g>
<!-- Node2&#45;&gt;Node6 -->
<g id="edge5" class="edge"><title>Node2&#45;&gt;Node6</title>
<path fill="none" stroke="midnightblue" d="M632.34,-272.934C657.349,-263.511 690.145,-250.254 718,-236 718.689,-235.647 719.384,-235.282 720.082,-234.905"/>
<polygon fill="midnightblue" stroke="midnightblue" points="722.168,-237.739 729.032,-229.669 718.633,-231.698 722.168,-237.739"/>
</g>
<!-- Node7 -->
<g id="node7" class="node"><title>Node7</title>
<polygon fill="none" stroke="#bfbfbf" points="529.5,-74.5 529.5,-93.5 574.5,-93.5 574.5,-74.5 529.5,-74.5"/>
<text text-anchor="middle" x="552" y="-81.5" font-family="Helvetica,sans-Serif" font-size="10.00">iosfwd</text>
</g>
<!-- Node2&#45;&gt;Node7 -->
<g id="edge6" class="edge"><title>Node2&#45;&gt;Node7</title>
<path fill="none" stroke="midnightblue" d="M590.117,-272.796C582.868,-237.083 563.884,-143.552 555.768,-103.565"/>
<polygon fill="midnightblue" stroke="midnightblue" points="559.164,-102.701 553.745,-93.5969 552.304,-104.093 559.164,-102.701"/>
</g>
<!-- Node8 -->
<g id="node8" class="node"><title>Node8</title>
<g id="a_node8"><a xlink:href="../../d4/d20/DetMatrixCache_8h.html" target="_top" xlink:title="DetectorsCommonDataFormats\l/DetMatrixCache.h">
<polygon fill="none" stroke="black" points="409,-205 409,-235 565,-235 565,-205 409,-205"/>
<text text-anchor="start" x="417" y="-223" font-family="Helvetica,sans-Serif" font-size="10.00">DetectorsCommonDataFormats</text>
<text text-anchor="middle" x="487" y="-212" font-family="Helvetica,sans-Serif" font-size="10.00">/DetMatrixCache.h</text>
</a>
</g>
</g>
<!-- Node2&#45;&gt;Node8 -->
<g id="edge7" class="edge"><title>Node2&#45;&gt;Node8</title>
<path fill="none" stroke="midnightblue" d="M570.26,-272.841C555.17,-263.446 535.158,-250.985 518.535,-240.635"/>
<polygon fill="midnightblue" stroke="midnightblue" points="520.041,-237.45 509.702,-235.135 516.341,-243.392 520.041,-237.45"/>
</g>
<!-- Node20 -->
<g id="node20" class="node"><title>Node20</title>
<g id="a_node20"><a xlink:href="../../dd/d76/Cartesian3D_8h.html" target="_top" xlink:title="MathUtils/Cartesian3D.h">
<polygon fill="none" stroke="black" points="748.5,-142.5 748.5,-161.5 873.5,-161.5 873.5,-142.5 748.5,-142.5"/>
<text text-anchor="middle" x="811" y="-149.5" font-family="Helvetica,sans-Serif" font-size="10.00">MathUtils/Cartesian3D.h</text>
</a>
</g>
</g>
<!-- Node2&#45;&gt;Node20 -->
<g id="edge35" class="edge"><title>Node2&#45;&gt;Node20</title>
<path fill="none" stroke="midnightblue" d="M599.127,-272.801C607.812,-254.314 625.425,-222.217 650,-204 677.418,-183.676 713.189,-171.29 744.048,-163.826"/>
<polygon fill="midnightblue" stroke="midnightblue" points="744.913,-167.218 753.878,-161.571 743.348,-160.395 744.913,-167.218"/>
</g>
<!-- Node9 -->
<g id="node9" class="node"><title>Node9</title>
<polygon fill="none" stroke="#bfbfbf" points="455.5,-142.5 455.5,-161.5 526.5,-161.5 526.5,-142.5 455.5,-142.5"/>
<text text-anchor="middle" x="491" y="-149.5" font-family="Helvetica,sans-Serif" font-size="10.00">FairLogger.h</text>
</g>
<!-- Node8&#45;&gt;Node9 -->
<g id="edge8" class="edge"><title>Node8&#45;&gt;Node9</title>
<path fill="none" stroke="midnightblue" d="M487.868,-204.679C488.448,-195.101 489.219,-182.394 489.85,-171.977"/>
<polygon fill="midnightblue" stroke="midnightblue" points="493.353,-172.022 490.465,-161.828 486.366,-171.598 493.353,-172.022"/>
</g>
<!-- Node10 -->
<g id="node10" class="node"><title>Node10</title>
<polygon fill="none" stroke="#bfbfbf" points="370,-6.5 370,-25.5 408,-25.5 408,-6.5 370,-6.5"/>
<text text-anchor="middle" x="389" y="-13.5" font-family="Helvetica,sans-Serif" font-size="10.00">array</text>
</g>
<!-- Node8&#45;&gt;Node10 -->
<g id="edge9" class="edge"><title>Node8&#45;&gt;Node10</title>
<path fill="none" stroke="midnightblue" d="M473.471,-204.731C464.756,-194.971 453.664,-181.416 446,-168 420.364,-123.126 402.081,-64.5333 393.862,-35.282"/>
<polygon fill="midnightblue" stroke="midnightblue" points="397.227,-34.3184 391.211,-25.5976 390.476,-36.1669 397.227,-34.3184"/>
</g>
<!-- Node11 -->
<g id="node11" class="node"><title>Node11</title>
<polygon fill="none" stroke="#bfbfbf" points="181,-142.5 181,-161.5 225,-161.5 225,-142.5 181,-142.5"/>
<text text-anchor="middle" x="203" y="-149.5" font-family="Helvetica,sans-Serif" font-size="10.00">vector</text>
</g>
<!-- Node8&#45;&gt;Node11 -->
<g id="edge10" class="edge"><title>Node8&#45;&gt;Node11</title>
<path fill="none" stroke="midnightblue" d="M408.723,-208.436C358.051,-200.332 291.115,-187.231 234,-168 232.088,-167.356 230.141,-166.621 228.202,-165.831"/>
<polygon fill="midnightblue" stroke="midnightblue" points="229.322,-162.496 218.767,-161.576 226.444,-168.877 229.322,-162.496"/>
</g>
<!-- Node12 -->
<g id="node12" class="node"><title>Node12</title>
<g id="a_node12"><a xlink:href="../../d6/d31/DetID_8h.html" target="_top" xlink:title="DetectorsCommonDataFormats\l/DetID.h">
<polygon fill="none" stroke="black" points="243,-137 243,-167 399,-167 399,-137 243,-137"/>
<text text-anchor="start" x="251" y="-155" font-family="Helvetica,sans-Serif" font-size="10.00">DetectorsCommonDataFormats</text>
<text text-anchor="middle" x="321" y="-144" font-family="Helvetica,sans-Serif" font-size="10.00">/DetID.h</text>
</a>
</g>
</g>
<!-- Node8&#45;&gt;Node12 -->
<g id="edge11" class="edge"><title>Node8&#45;&gt;Node12</title>
<path fill="none" stroke="midnightblue" d="M451.389,-204.841C426.359,-194.89 392.683,-181.5 365.825,-170.822"/>
<polygon fill="midnightblue" stroke="midnightblue" points="366.853,-167.464 356.267,-167.022 364.266,-173.969 366.853,-167.464"/>
</g>
<!-- Node13 -->
<g id="node13" class="node"><title>Node13</title>
<polygon fill="none" stroke="#bfbfbf" points="455,-74.5 455,-93.5 511,-93.5 511,-74.5 455,-74.5"/>
<text text-anchor="middle" x="483" y="-81.5" font-family="Helvetica,sans-Serif" font-size="10.00">Rtypes.h</text>
</g>
<!-- Node8&#45;&gt;Node13 -->
<g id="edge34" class="edge"><title>Node8&#45;&gt;Node13</title>
<path fill="none" stroke="midnightblue" d="M506.203,-204.776C516.886,-195.615 529.173,-182.693 535,-168 540.243,-154.779 540.506,-149.113 535,-136 528.836,-121.321 516.157,-108.744 504.862,-99.7531"/>
<polygon fill="midnightblue" stroke="midnightblue" points="506.732,-96.7812 496.626,-93.6008 502.543,-102.389 506.732,-96.7812"/>
</g>
<!-- Node8&#45;&gt;Node20 -->
<g id="edge22" class="edge"><title>Node8&#45;&gt;Node20</title>
<path fill="none" stroke="midnightblue" d="M556.109,-204.922C616.995,-192.52 704.322,-174.731 759.325,-163.526"/>
<polygon fill="midnightblue" stroke="midnightblue" points="760.105,-166.939 769.205,-161.514 758.708,-160.08 760.105,-166.939"/>
</g>
<!-- Node12&#45;&gt;Node4 -->
<g id="edge14" class="edge"><title>Node12&#45;&gt;Node4</title>
<path fill="none" stroke="midnightblue" d="M242.91,-137.442C169.471,-124.506 68.1484,-106.112 50,-100 48.1375,-99.3728 46.2446,-98.6502 44.3618,-97.8684"/>
<polygon fill="midnightblue" stroke="midnightblue" points="45.7632,-94.6603 35.2184,-93.6319 42.8203,-101.012 45.7632,-94.6603"/>
</g>
<!-- Node12&#45;&gt;Node10 -->
<g id="edge13" class="edge"><title>Node12&#45;&gt;Node10</title>
<path fill="none" stroke="midnightblue" d="M338.501,-136.632C348.842,-127.236 361.365,-114.117 369,-100 380.048,-79.5728 385.064,-53.0595 387.293,-35.5615"/>
<polygon fill="midnightblue" stroke="midnightblue" points="390.784,-35.8405 388.391,-25.5193 383.825,-35.0796 390.784,-35.8405"/>
</g>
<!-- Node12&#45;&gt;Node13 -->
<g id="edge12" class="edge"><title>Node12&#45;&gt;Node13</title>
<path fill="none" stroke="midnightblue" d="M355.753,-136.841C384.403,-125.169 424.66,-108.768 452.175,-97.5585"/>
<polygon fill="midnightblue" stroke="midnightblue" points="453.75,-100.696 461.69,-93.6819 451.108,-94.2136 453.75,-100.696"/>
</g>
<!-- Node14 -->
<g id="node14" class="node"><title>Node14</title>
<polygon fill="none" stroke="#bfbfbf" points="311.5,-74.5 311.5,-93.5 360.5,-93.5 360.5,-74.5 311.5,-74.5"/>
<text text-anchor="middle" x="336" y="-81.5" font-family="Helvetica,sans-Serif" font-size="10.00">cassert</text>
</g>
<!-- Node12&#45;&gt;Node14 -->
<g id="edge15" class="edge"><title>Node12&#45;&gt;Node14</title>
<path fill="none" stroke="midnightblue" d="M324.255,-136.679C326.455,-126.999 329.381,-114.123 331.763,-103.645"/>
<polygon fill="midnightblue" stroke="midnightblue" points="335.19,-104.355 333.994,-93.8283 328.364,-102.804 335.19,-104.355"/>
</g>
<!-- Node15 -->
<g id="node15" class="node"><title>Node15</title>
<polygon fill="none" stroke="#bfbfbf" points="59,-74.5 59,-93.5 105,-93.5 105,-74.5 59,-74.5"/>
<text text-anchor="middle" x="82" y="-81.5" font-family="Helvetica,sans-Serif" font-size="10.00">cstdint</text>
</g>
<!-- Node12&#45;&gt;Node15 -->
<g id="edge16" class="edge"><title>Node12&#45;&gt;Node15</title>
<path fill="none" stroke="midnightblue" d="M249.088,-136.932C208.799,-128.148 157.966,-115.55 114,-100 112.091,-99.3249 110.143,-98.5745 108.196,-97.7796"/>
<polygon fill="midnightblue" stroke="midnightblue" points="109.241,-94.4146 98.6792,-93.5751 106.412,-100.818 109.241,-94.4146"/>
</g>
<!-- Node16 -->
<g id="node16" class="node"><title>Node16</title>
<polygon fill="none" stroke="#bfbfbf" points="123,-74.5 123,-93.5 185,-93.5 185,-74.5 123,-74.5"/>
<text text-anchor="middle" x="154" y="-81.5" font-family="Helvetica,sans-Serif" font-size="10.00">type_traits</text>
</g>
<!-- Node12&#45;&gt;Node16 -->
<g id="edge17" class="edge"><title>Node12&#45;&gt;Node16</title>
<path fill="none" stroke="midnightblue" d="M285.174,-136.841C255.511,-125.118 213.776,-108.624 185.404,-97.4113"/>
<polygon fill="midnightblue" stroke="midnightblue" points="186.554,-94.1024 175.968,-93.6819 183.981,-100.612 186.554,-94.1024"/>
</g>
<!-- Node17 -->
<g id="node17" class="node"><title>Node17</title>
<g id="a_node17"><a xlink:href="../../d9/d52/Common_2MathUtils_2include_2MathUtils_2Utils_8h.html" target="_top" xlink:title="MathUtils/Utils.h">
<polygon fill="none" stroke="black" points="203,-74.5 203,-93.5 293,-93.5 293,-74.5 203,-74.5"/>
<text text-anchor="middle" x="248" y="-81.5" font-family="Helvetica,sans-Serif" font-size="10.00">MathUtils/Utils.h</text>
</a>
</g>
</g>
<!-- Node12&#45;&gt;Node17 -->
<g id="edge18" class="edge"><title>Node12&#45;&gt;Node17</title>
<path fill="none" stroke="midnightblue" d="M305.16,-136.679C293.44,-126.082 277.482,-111.655 265.405,-100.736"/>
<polygon fill="midnightblue" stroke="midnightblue" points="267.53,-97.9386 257.765,-93.8283 262.835,-103.131 267.53,-97.9386"/>
</g>
<!-- Node17&#45;&gt;Node10 -->
<g id="edge19" class="edge"><title>Node17&#45;&gt;Node10</title>
<path fill="none" stroke="midnightblue" d="M266.433,-74.3717C290.606,-63.0569 333.23,-43.1053 361.296,-29.9678"/>
<polygon fill="midnightblue" stroke="midnightblue" points="362.989,-33.0398 370.562,-25.6305 360.021,-26.7 362.989,-33.0398"/>
</g>
<!-- Node18 -->
<g id="node18" class="node"><title>Node18</title>
<polygon fill="none" stroke="#bfbfbf" points="267,-6.5 267,-25.5 311,-25.5 311,-6.5 267,-6.5"/>
<text text-anchor="middle" x="289" y="-13.5" font-family="Helvetica,sans-Serif" font-size="10.00">cmath</text>
</g>
<!-- Node17&#45;&gt;Node18 -->
<g id="edge20" class="edge"><title>Node17&#45;&gt;Node18</title>
<path fill="none" stroke="midnightblue" d="M253.36,-74.3717C259.587,-64.3478 270.025,-47.5455 278,-34.7076"/>
<polygon fill="midnightblue" stroke="midnightblue" points="281.204,-36.1825 283.508,-25.8411 275.258,-32.4886 281.204,-36.1825"/>
</g>
<!-- Node19 -->
<g id="node19" class="node"><title>Node19</title>
<g id="a_node19"><a xlink:href="../../d6/d84/MathConstants_8h.html" target="_top" xlink:title="useful math constants ">
<polygon fill="none" stroke="black" points="69.5,-6.5 69.5,-25.5 248.5,-25.5 248.5,-6.5 69.5,-6.5"/>
<text text-anchor="middle" x="159" y="-13.5" font-family="Helvetica,sans-Serif" font-size="10.00">CommonConstants/MathConstants.h</text>
</a>
</g>
</g>
<!-- Node17&#45;&gt;Node19 -->
<g id="edge21" class="edge"><title>Node17&#45;&gt;Node19</title>
<path fill="none" stroke="midnightblue" d="M236.365,-74.3717C221.84,-63.6004 196.76,-45.0021 179.101,-31.9065"/>
<polygon fill="midnightblue" stroke="midnightblue" points="180.755,-28.7758 170.638,-25.6305 176.586,-34.3984 180.755,-28.7758"/>
</g>
<!-- Node20&#45;&gt;Node7 -->
<g id="edge30" class="edge"><title>Node20&#45;&gt;Node7</title>
<path fill="none" stroke="midnightblue" d="M757.809,-142.429C711.224,-134.128 642.09,-119.876 584,-100 582.084,-99.3445 580.131,-98.6088 578.181,-97.8244"/>
<polygon fill="midnightblue" stroke="midnightblue" points="579.219,-94.4578 568.656,-93.6429 576.405,-100.867 579.219,-94.4578"/>
</g>
<!-- Node20&#45;&gt;Node13 -->
<g id="edge28" class="edge"><title>Node20&#45;&gt;Node13</title>
<path fill="none" stroke="midnightblue" d="M748.237,-143.685C688.94,-135.903 597.873,-121.691 521,-100 518.024,-99.1603 514.96,-98.1717 511.924,-97.1091"/>
<polygon fill="midnightblue" stroke="midnightblue" points="513.055,-93.7953 502.463,-93.5551 510.593,-100.348 513.055,-93.7953"/>
</g>
<!-- Node21 -->
<g id="node21" class="node"><title>Node21</title>
<polygon fill="none" stroke="#bfbfbf" points="735.5,-69 735.5,-99 886.5,-99 886.5,-69 735.5,-69"/>
<text text-anchor="start" x="743.5" y="-87" font-family="Helvetica,sans-Serif" font-size="10.00">Math/GenVector/Displacement</text>
<text text-anchor="middle" x="811" y="-76" font-family="Helvetica,sans-Serif" font-size="10.00">Vector3D.h</text>
</g>
<!-- Node20&#45;&gt;Node21 -->
<g id="edge23" class="edge"><title>Node20&#45;&gt;Node21</title>
<path fill="none" stroke="midnightblue" d="M811,-142.372C811,-133.971 811,-120.811 811,-109.213"/>
<polygon fill="midnightblue" stroke="midnightblue" points="814.5,-109.181 811,-99.1815 807.5,-109.181 814.5,-109.181"/>
</g>
<!-- Node22 -->
<g id="node22" class="node"><title>Node22</title>
<polygon fill="none" stroke="#bfbfbf" points="905,-74.5 905,-93.5 1081,-93.5 1081,-74.5 905,-74.5"/>
<text text-anchor="middle" x="993" y="-81.5" font-family="Helvetica,sans-Serif" font-size="10.00">Math/GenVector/PositionVector3D.h</text>
</g>
<!-- Node20&#45;&gt;Node22 -->
<g id="edge24" class="edge"><title>Node20&#45;&gt;Node22</title>
<path fill="none" stroke="midnightblue" d="M834.793,-142.372C866.764,-130.778 923.74,-110.116 959.885,-97.0087"/>
<polygon fill="midnightblue" stroke="midnightblue" points="961.282,-100.225 969.489,-93.5259 958.895,-93.6447 961.282,-100.225"/>
</g>
<!-- Node23 -->
<g id="node23" class="node"><title>Node23</title>
<polygon fill="none" stroke="#bfbfbf" points="1098.5,-74.5 1098.5,-93.5 1247.5,-93.5 1247.5,-74.5 1098.5,-74.5"/>
<text text-anchor="middle" x="1173" y="-81.5" font-family="Helvetica,sans-Serif" font-size="10.00">Math/GenVector/Rotation3D.h</text>
</g>
<!-- Node20&#45;&gt;Node23 -->
<g id="edge25" class="edge"><title>Node20&#45;&gt;Node23</title>
<path fill="none" stroke="midnightblue" d="M857.954,-142.439C924.143,-130.372 1044.74,-108.384 1115.99,-95.3945"/>
<polygon fill="midnightblue" stroke="midnightblue" points="1116.92,-98.7825 1126.13,-93.5455 1115.66,-91.896 1116.92,-98.7825"/>
</g>
<!-- Node24 -->
<g id="node24" class="node"><title>Node24</title>
<polygon fill="none" stroke="#bfbfbf" points="1266,-74.5 1266,-93.5 1422,-93.5 1422,-74.5 1266,-74.5"/>
<text text-anchor="middle" x="1344" y="-81.5" font-family="Helvetica,sans-Serif" font-size="10.00">Math/GenVector/Transform3D.h</text>
</g>
<!-- Node20&#45;&gt;Node24 -->
<g id="edge26" class="edge"><title>Node20&#45;&gt;Node24</title>
<path fill="none" stroke="midnightblue" d="M873.779,-144.899C960.077,-136.262 1120.12,-119.352 1256,-100 1265.9,-98.5905 1276.39,-96.9391 1286.56,-95.2571"/>
<polygon fill="midnightblue" stroke="midnightblue" points="1287.3,-98.6821 1296.58,-93.5727 1286.14,-91.779 1287.3,-98.6821"/>
</g>
<!-- Node25 -->
<g id="node25" class="node"><title>Node25</title>
<polygon fill="none" stroke="#bfbfbf" points="1440,-74.5 1440,-93.5 1600,-93.5 1600,-74.5 1440,-74.5"/>
<text text-anchor="middle" x="1520" y="-81.5" font-family="Helvetica,sans-Serif" font-size="10.00">Math/GenVector/Translation3D.h</text>
</g>
<!-- Node20&#45;&gt;Node25 -->
<g id="edge27" class="edge"><title>Node20&#45;&gt;Node25</title>
<path fill="none" stroke="midnightblue" d="M873.664,-147.61C985.767,-141.151 1227.92,-125.419 1431,-100 1441.71,-98.659 1453.11,-96.9531 1464.04,-95.176"/>
<polygon fill="midnightblue" stroke="midnightblue" points="1464.63,-98.6265 1473.92,-93.5323 1463.48,-91.7215 1464.63,-98.6265"/>
</g>
<!-- Node26 -->
<g id="node26" class="node"><title>Node26</title>
<polygon fill="none" stroke="#bfbfbf" points="1618,-74.5 1618,-93.5 1694,-93.5 1694,-74.5 1618,-74.5"/>
<text text-anchor="middle" x="1656" y="-81.5" font-family="Helvetica,sans-Serif" font-size="10.00">TGeoMatrix.h</text>
</g>
<!-- Node20&#45;&gt;Node26 -->
<g id="edge29" class="edge"><title>Node20&#45;&gt;Node26</title>
<path fill="none" stroke="midnightblue" d="M873.76,-148.976C1036.34,-143.415 1468.32,-126.528 1609,-100 1613.57,-99.1375 1618.32,-97.9652 1622.97,-96.6536"/>
<polygon fill="midnightblue" stroke="midnightblue" points="1624.32,-99.8992 1632.86,-93.6257 1622.28,-93.2058 1624.32,-99.8992"/>
</g>
<!-- Node27 -->
<g id="node27" class="node"><title>Node27</title>
<g id="a_node27"><a xlink:href="../../d2/dd0/Cartesian2D_8h.html" target="_top" xlink:title="MathUtils/Cartesian2D.h">
<polygon fill="none" stroke="black" points="592.5,-74.5 592.5,-93.5 717.5,-93.5 717.5,-74.5 592.5,-74.5"/>
<text text-anchor="middle" x="655" y="-81.5" font-family="Helvetica,sans-Serif" font-size="10.00">MathUtils/Cartesian2D.h</text>
</a>
</g>
</g>
<!-- Node20&#45;&gt;Node27 -->
<g id="edge31" class="edge"><title>Node20&#45;&gt;Node27</title>
<path fill="none" stroke="midnightblue" d="M790.606,-142.372C763.628,-130.958 715.878,-110.756 684.841,-97.6252"/>
<polygon fill="midnightblue" stroke="midnightblue" points="685.973,-94.3035 675.399,-93.6305 683.245,-100.75 685.973,-94.3035"/>
</g>
<!-- Node28 -->
<g id="node28" class="node"><title>Node28</title>
<polygon fill="none" stroke="#bfbfbf" points="690.5,-1 690.5,-31 841.5,-31 841.5,-1 690.5,-1"/>
<text text-anchor="start" x="698.5" y="-19" font-family="Helvetica,sans-Serif" font-size="10.00">Math/GenVector/Displacement</text>
<text text-anchor="middle" x="766" y="-8" font-family="Helvetica,sans-Serif" font-size="10.00">Vector2D.h</text>
</g>
<!-- Node27&#45;&gt;Node28 -->
<g id="edge32" class="edge"><title>Node27&#45;&gt;Node28</title>
<path fill="none" stroke="midnightblue" d="M669.511,-74.3717C685.657,-64.7715 712.26,-48.9537 733.447,-36.3559"/>
<polygon fill="midnightblue" stroke="midnightblue" points="735.343,-39.3006 742.149,-31.1815 731.765,-33.2839 735.343,-39.3006"/>
</g>
<!-- Node29 -->
<g id="node29" class="node"><title>Node29</title>
<polygon fill="none" stroke="#bfbfbf" points="496,-6.5 496,-25.5 672,-25.5 672,-6.5 496,-6.5"/>
<text text-anchor="middle" x="584" y="-13.5" font-family="Helvetica,sans-Serif" font-size="10.00">Math/GenVector/PositionVector2D.h</text>
</g>
<!-- Node27&#45;&gt;Node29 -->
<g id="edge33" class="edge"><title>Node27&#45;&gt;Node29</title>
<path fill="none" stroke="midnightblue" d="M645.718,-74.3717C634.406,-63.8564 615.07,-45.8819 601.05,-32.8496"/>
<polygon fill="midnightblue" stroke="midnightblue" points="603.218,-30.0861 593.511,-25.8411 598.452,-35.2131 603.218,-30.0861"/>
</g>
</g>
</svg>
