<?xml version="1.0" encoding="UTF-8" standalone="no"?>
<!DOCTYPE svg PUBLIC "-//W3C//DTD SVG 1.1//EN"
 "http://www.w3.org/Graphics/SVG/1.1/DTD/svg11.dtd">
<!-- Generated by graphviz version 2.36.0 (20140111.2315)
 -->
<!-- Title: o2::InteractionRecord Pages: 1 -->
<svg width="184pt" height="250pt"
 viewBox="0.00 0.00 184.00 250.00" xmlns="http://www.w3.org/2000/svg" xmlns:xlink="http://www.w3.org/1999/xlink">
<g id="graph0" class="graph" transform="scale(1 1) rotate(0) translate(4 246)">
<title>o2::InteractionRecord</title>
<!-- Node1 -->
<g id="node1" class="node"><title>Node1</title>
<polygon fill="#bfbfbf" stroke="black" points="33,-1 33,-135 143,-135 143,-1 33,-1"/>
<text text-anchor="middle" x="88" y="-123" font-family="Helvetica,sans-Serif" font-size="10.00">o2::InteractionRecord</text>
<polyline fill="none" stroke="black" points="33,-116 143,-116 "/>
<text text-anchor="middle" x="88" y="-104" font-family="Helvetica,sans-Serif" font-size="10.00"> </text>
<polyline fill="none" stroke="black" points="33,-97 143,-97 "/>
<text text-anchor="start" x="41" y="-85" font-family="Helvetica,sans-Serif" font-size="10.00">+ InteractionRecord()</text>
<text text-anchor="start" x="41" y="-74" font-family="Helvetica,sans-Serif" font-size="10.00">+ InteractionRecord()</text>
<text text-anchor="start" x="41" y="-63" font-family="Helvetica,sans-Serif" font-size="10.00">+ InteractionRecord()</text>
<text text-anchor="start" x="41" y="-52" font-family="Helvetica,sans-Serif" font-size="10.00">+ setFromNS()</text>
<text text-anchor="start" x="41" y="-41" font-family="Helvetica,sans-Serif" font-size="10.00">+ print()</text>
<text text-anchor="start" x="41" y="-30" font-family="Helvetica,sans-Serif" font-size="10.00">+ ClassDefNV()</text>
<text text-anchor="start" x="41" y="-19" font-family="Helvetica,sans-Serif" font-size="10.00">+ bc2ns()</text>
<text text-anchor="start" x="41" y="-8" font-family="Helvetica,sans-Serif" font-size="10.00">+ ns2bc()</text>
</g>
<!-- Node2 -->
<g id="node2" class="node"><title>Node2</title>
<g id="a_node2"><a xlink:href="../../df/de6/classdouble.html" target="_top" xlink:title="{double\n||}">
<polygon fill="none" stroke="black" points="-0.5,-184.5 -0.5,-241.5 44.5,-241.5 44.5,-184.5 -0.5,-184.5"/>
<text text-anchor="middle" x="22" y="-229.5" font-family="Helvetica,sans-Serif" font-size="10.00">double</text>
<polyline fill="none" stroke="black" points="-0.5,-222.5 44.5,-222.5 "/>
<text text-anchor="middle" x="22" y="-210.5" font-family="Helvetica,sans-Serif" font-size="10.00"> </text>
<polyline fill="none" stroke="black" points="-0.5,-203.5 44.5,-203.5 "/>
<text text-anchor="middle" x="22" y="-191.5" font-family="Helvetica,sans-Serif" font-size="10.00"> </text>
</a>
</g>
</g>
<!-- Node2&#45;&gt;Node1 -->
<g id="edge1" class="edge"><title>Node2&#45;&gt;Node1</title>
<path fill="none" stroke="#404040" d="M29.8532,-184.458C32.9434,-174.689 36.7682,-163.714 41,-154 42.1364,-151.391 43.3273,-148.757 44.5604,-146.112"/>
<polygon fill="none" stroke="#404040" points="44.6068,-146.016 43.6219,-138.873 49.8371,-135.216 50.822,-142.359 44.6068,-146.016"/>
<text text-anchor="middle" x="62.5" y="-157.5" font-family="Helvetica,sans-Serif" font-size="10.00"> +timeNS</text>
</g>
<!-- Node3 -->
<g id="node3" class="node"><title>Node3</title>
<polygon fill="none" stroke="#bfbfbf" points="73.5,-184.5 73.5,-241.5 102.5,-241.5 102.5,-184.5 73.5,-184.5"/>
<text text-anchor="middle" x="88" y="-229.5" font-family="Helvetica,sans-Serif" font-size="10.00">int</text>
<polyline fill="none" stroke="#bfbfbf" points="73.5,-222.5 102.5,-222.5 "/>
<text text-anchor="middle" x="88" y="-210.5" font-family="Helvetica,sans-Serif" font-size="10.00"> </text>
<polyline fill="none" stroke="#bfbfbf" points="73.5,-203.5 102.5,-203.5 "/>
<text text-anchor="middle" x="88" y="-191.5" font-family="Helvetica,sans-Serif" font-size="10.00"> </text>
</g>
<!-- Node3&#45;&gt;Node1 -->
<g id="edge2" class="edge"><title>Node3&#45;&gt;Node1</title>
<path fill="none" stroke="#404040" d="M88,-184.428C88,-173.616 88,-160.616 88,-147.298"/>
<polygon fill="none" stroke="#404040" points="88.0001,-147.032 84,-141.032 88,-135.032 92,-141.032 88.0001,-147.032"/>
<text text-anchor="middle" x="98" y="-157.5" font-family="Helvetica,sans-Serif" font-size="10.00"> +bc</text>
</g>
<!-- Node4 -->
<g id="node4" class="node"><title>Node4</title>
<polygon fill="none" stroke="#bfbfbf" points="120,-184.5 120,-241.5 176,-241.5 176,-184.5 120,-184.5"/>
<text text-anchor="middle" x="148" y="-229.5" font-family="Helvetica,sans-Serif" font-size="10.00">unsigned</text>
<polyline fill="none" stroke="#bfbfbf" points="120,-222.5 176,-222.5 "/>
<text text-anchor="middle" x="148" y="-210.5" font-family="Helvetica,sans-Serif" font-size="10.00"> </text>
<polyline fill="none" stroke="#bfbfbf" points="120,-203.5 176,-203.5 "/>
<text text-anchor="middle" x="148" y="-191.5" font-family="Helvetica,sans-Serif" font-size="10.00"> </text>
</g>
<!-- Node4&#45;&gt;Node1 -->
<g id="edge3" class="edge"><title>Node4&#45;&gt;Node1</title>
<path fill="none" stroke="#404040" d="M136.431,-184.428C131.802,-173.395 126.217,-160.084 120.51,-146.483"/>
<polygon fill="none" stroke="#404040" points="120.349,-146.098 114.339,-142.113 115.706,-135.032 121.716,-139.017 120.349,-146.098"/>
<text text-anchor="middle" x="142" y="-157.5" font-family="Helvetica,sans-Serif" font-size="10.00"> +orbit</text>
</g>
</g>
</svg>
