<?xml version="1.0" encoding="UTF-8" standalone="no"?>
<!DOCTYPE svg PUBLIC "-//W3C//DTD SVG 1.1//EN"
 "http://www.w3.org/Graphics/SVG/1.1/DTD/svg11.dtd">
<!-- Generated by graphviz version 2.36.0 (20140111.2315)
 -->
<!-- Title: o2::ITSMFT::PreDigit Pages: 1 -->
<!--zoomable 660 -->
<svg id="main" version="1.1" xmlns="http://www.w3.org/2000/svg" xmlns:xlink="http://www.w3.org/1999/xlink" xml:space="preserve" onload="init(evt)">
<style type="text/css"><![CDATA[
.edge:hover path { stroke: red; }
.edge:hover polygon { stroke: red; fill: red; }
]]></style>
<script type="text/javascript"><![CDATA[
var edges = document.getElementsByTagName('g');
if (edges && edges.length) {
  for (var i=0;i<edges.length;i++) {
    if (edges[i].id.substr(0,4)=='edge') {
      edges[i].setAttribute('class','edge');
    }
  }
}
]]></script>
        <defs>
                <circle id="rim" cx="0" cy="0" r="7"/>
                <circle id="rim2" cx="0" cy="0" r="3.5"/>
                <g id="zoomPlus">
                        <use xlink:href="#rim" fill="#404040">
                                <set attributeName="fill" to="#808080" begin="zoomplus.mouseover" end="zoomplus.mouseout"/>
                        </use>
                        <path d="M-4,0h8M0,-4v8" fill="none" stroke="white" stroke-width="1.5" pointer-events="none"/>
                </g>
                <g id="zoomMin">
                        <use xlink:href="#rim" fill="#404040">
                                <set attributeName="fill" to="#808080" begin="zoomminus.mouseover" end="zoomminus.mouseout"/>
                        </use>
                        <path d="M-4,0h8" fill="none" stroke="white" stroke-width="1.5" pointer-events="none"/>
                </g>
                <g id="dirArrow">
                        <path fill="none" stroke="white" stroke-width="1.5" d="M0,-3.0v7 M-2.5,-0.5L0,-3.0L2.5,-0.5"/>
                </g>
               <g id="resetDef">
                       <use xlink:href="#rim2" fill="#404040">
                               <set attributeName="fill" to="#808080" begin="reset.mouseover" end="reset.mouseout"/>
                       </use>
               </g>
        </defs>

<script type="text/javascript">
var viewWidth = 344;
var viewHeight = 660;
var sectionId = 'dynsection-0';
</script>
<script xlink:href="../../svgpan.js"/>
<svg id="graph" class="graph">
<g id="viewport">
<title>o2::ITSMFT::PreDigit</title>
<!-- Node1 -->
<g id="node1" class="node"><title>Node1</title>
<polygon fill="#bfbfbf" stroke="black" points="156.58,-1 156.58,-69 266.58,-69 266.58,-1 156.58,-1"/>
<text text-anchor="middle" x="211.58" y="-57" font-family="Helvetica,sans-Serif" font-size="10.00">o2::ITSMFT::PreDigit</text>
<polyline fill="none" stroke="black" points="156.58,-50 266.58,-50 "/>
<text text-anchor="middle" x="211.58" y="-38" font-family="Helvetica,sans-Serif" font-size="10.00"> </text>
<polyline fill="none" stroke="black" points="156.58,-31 266.58,-31 "/>
<text text-anchor="start" x="164.58" y="-19" font-family="Helvetica,sans-Serif" font-size="10.00">+ PreDigit()</text>
<text text-anchor="start" x="164.58" y="-8" font-family="Helvetica,sans-Serif" font-size="10.00">+ ClassDefNV()</text>
</g>
<!-- Node2 -->
<g id="node2" class="node"><title>Node2</title>
<g id="a_node2"><a xlink:href="../../d1/d67/structo2_1_1ITSMFT_1_1PreDigitLabelRef.html" target="_top" xlink:title="{o2::ITSMFT::PreDigitLabelRef\n||+ PreDigitLabelRef()\l+ ClassDefNV()\l}">
<polygon fill="none" stroke="black" points="52.0797,-129 52.0797,-197 201.08,-197 201.08,-129 52.0797,-129"/>
<text text-anchor="middle" x="126.58" y="-185" font-family="Helvetica,sans-Serif" font-size="10.00">o2::ITSMFT::PreDigitLabelRef</text>
<polyline fill="none" stroke="black" points="52.0797,-178 201.08,-178 "/>
<text text-anchor="middle" x="126.58" y="-166" font-family="Helvetica,sans-Serif" font-size="10.00"> </text>
<polyline fill="none" stroke="black" points="52.0797,-159 201.08,-159 "/>
<text text-anchor="start" x="60.0797" y="-147" font-family="Helvetica,sans-Serif" font-size="10.00">+ PreDigitLabelRef()</text>
<text text-anchor="start" x="60.0797" y="-136" font-family="Helvetica,sans-Serif" font-size="10.00">+ ClassDefNV()</text>
</a>
</g>
</g>
<!-- Node2&#45;&gt;Node1 -->
<g id="edge1" class="edge"><title>Node2&#45;&gt;Node1</title>
<path fill="none" stroke="#404040" d="M148.912,-128.895C159.08,-113.822 171.253,-95.7779 182.155,-79.6182"/>
<polygon fill="none" stroke="#404040" points="182.39,-79.2694 182.429,-72.0584 189.101,-69.3214 189.061,-76.5324 182.39,-79.2694"/>
<text text-anchor="middle" x="197.58" y="-96.5" font-family="Helvetica,sans-Serif" font-size="10.00"> +labelRef</text>
</g>
<!-- Node3 -->
<g id="node3" class="node"><title>Node3</title>
<polygon fill="none" stroke="#bfbfbf" points="64.0797,-594.5 64.0797,-651.5 93.0797,-651.5 93.0797,-594.5 64.0797,-594.5"/>
<text text-anchor="middle" x="78.5797" y="-639.5" font-family="Helvetica,sans-Serif" font-size="10.00">int</text>
<polyline fill="none" stroke="#bfbfbf" points="64.0797,-632.5 93.0797,-632.5 "/>
<text text-anchor="middle" x="78.5797" y="-620.5" font-family="Helvetica,sans-Serif" font-size="10.00"> </text>
<polyline fill="none" stroke="#bfbfbf" points="64.0797,-613.5 93.0797,-613.5 "/>
<text text-anchor="middle" x="78.5797" y="-601.5" font-family="Helvetica,sans-Serif" font-size="10.00"> </text>
</g>
<!-- Node3&#45;&gt;Node1 -->
<g id="edge6" class="edge"><title>Node3&#45;&gt;Node1</title>
<path fill="none" stroke="#404040" d="M66.3392,-594.354C33.2582,-515.101 -49.4456,-282.874 42.5797,-128 64.6759,-90.8132 107.656,-67.7077 144.741,-53.9526"/>
<polygon fill="none" stroke="#404040" points="145.218,-53.7851 149.554,-48.0231 156.54,-49.8093 152.205,-55.5713 145.218,-53.7851"/>
<text text-anchor="middle" x="29.0797" y="-219.5" font-family="Helvetica,sans-Serif" font-size="10.00"> +charge</text>
</g>
<!-- Node3&#45;&gt;Node2 -->
<g id="edge2" class="edge"><title>Node3&#45;&gt;Node2</title>
<path fill="none" stroke="#404040" d="M75.3375,-594.132C68.8422,-531.07 57.3068,-373.036 87.5797,-246 90.6259,-233.217 95.8235,-220.064 101.448,-208.138"/>
<polygon fill="none" stroke="#404040" points="101.577,-207.879 100.664,-200.726 106.916,-197.132 107.829,-204.285 101.577,-207.879"/>
<text text-anchor="middle" x="101.58" y="-377.5" font-family="Helvetica,sans-Serif" font-size="10.00"> +next</text>
</g>
<!-- Node4 -->
<g id="node4" class="node"><title>Node4</title>
<g id="a_node4"><a xlink:href="../../de/def/classo2_1_1MCCompLabel.html" target="_top" xlink:title="{o2::MCCompLabel\n||+ MCCompLabel()\l+ MCCompLabel()\l+ ~MCCompLabel()\l+ isSet()\l+ isEmpty()\l+ isPosTrackID()\l+ compare()\l+ operator ULong64_t()\l+ operator==()\l+ unset()\l+ set()\l+ getTrackID()\l+ getEventID()\l+ getSourceID()\l+ get()\l+ print()\l+ ClassDefNV()\l+ maxSourceID()\l+ maxEventID()\l+ maxTrackID()\l}">
<polygon fill="none" stroke="black" points="125.08,-247 125.08,-513 242.08,-513 242.08,-247 125.08,-247"/>
<text text-anchor="middle" x="183.58" y="-501" font-family="Helvetica,sans-Serif" font-size="10.00">o2::MCCompLabel</text>
<polyline fill="none" stroke="black" points="125.08,-494 242.08,-494 "/>
<text text-anchor="middle" x="183.58" y="-482" font-family="Helvetica,sans-Serif" font-size="10.00"> </text>
<polyline fill="none" stroke="black" points="125.08,-475 242.08,-475 "/>
<text text-anchor="start" x="133.08" y="-463" font-family="Helvetica,sans-Serif" font-size="10.00">+ MCCompLabel()</text>
<text text-anchor="start" x="133.08" y="-452" font-family="Helvetica,sans-Serif" font-size="10.00">+ MCCompLabel()</text>
<text text-anchor="start" x="133.08" y="-441" font-family="Helvetica,sans-Serif" font-size="10.00">+ ~MCCompLabel()</text>
<text text-anchor="start" x="133.08" y="-430" font-family="Helvetica,sans-Serif" font-size="10.00">+ isSet()</text>
<text text-anchor="start" x="133.08" y="-419" font-family="Helvetica,sans-Serif" font-size="10.00">+ isEmpty()</text>
<text text-anchor="start" x="133.08" y="-408" font-family="Helvetica,sans-Serif" font-size="10.00">+ isPosTrackID()</text>
<text text-anchor="start" x="133.08" y="-397" font-family="Helvetica,sans-Serif" font-size="10.00">+ compare()</text>
<text text-anchor="start" x="133.08" y="-386" font-family="Helvetica,sans-Serif" font-size="10.00">+ operator ULong64_t()</text>
<text text-anchor="start" x="133.08" y="-375" font-family="Helvetica,sans-Serif" font-size="10.00">+ operator==()</text>
<text text-anchor="start" x="133.08" y="-364" font-family="Helvetica,sans-Serif" font-size="10.00">+ unset()</text>
<text text-anchor="start" x="133.08" y="-353" font-family="Helvetica,sans-Serif" font-size="10.00">+ set()</text>
<text text-anchor="start" x="133.08" y="-342" font-family="Helvetica,sans-Serif" font-size="10.00">+ getTrackID()</text>
<text text-anchor="start" x="133.08" y="-331" font-family="Helvetica,sans-Serif" font-size="10.00">+ getEventID()</text>
<text text-anchor="start" x="133.08" y="-320" font-family="Helvetica,sans-Serif" font-size="10.00">+ getSourceID()</text>
<text text-anchor="start" x="133.08" y="-309" font-family="Helvetica,sans-Serif" font-size="10.00">+ get()</text>
<text text-anchor="start" x="133.08" y="-298" font-family="Helvetica,sans-Serif" font-size="10.00">+ print()</text>
<text text-anchor="start" x="133.08" y="-287" font-family="Helvetica,sans-Serif" font-size="10.00">+ ClassDefNV()</text>
<text text-anchor="start" x="133.08" y="-276" font-family="Helvetica,sans-Serif" font-size="10.00">+ maxSourceID()</text>
<text text-anchor="start" x="133.08" y="-265" font-family="Helvetica,sans-Serif" font-size="10.00">+ maxEventID()</text>
<text text-anchor="start" x="133.08" y="-254" font-family="Helvetica,sans-Serif" font-size="10.00">+ maxTrackID()</text>
</a>
</g>
</g>
<!-- Node3&#45;&gt;Node4 -->
<g id="edge5" class="edge"><title>Node3&#45;&gt;Node4</title>
<path fill="none" stroke="#404040" d="M90.6245,-594.354C98.5074,-576.261 109.478,-551.082 121.127,-524.345"/>
<polygon fill="none" stroke="#404040" points="121.181,-524.22 119.91,-517.122 125.974,-513.219 127.244,-520.317 121.181,-524.22"/>
<text text-anchor="middle" x="147.08" y="-562.5" font-family="Helvetica,sans-Serif" font-size="10.00"> +nbitsSrcID</text>
<text text-anchor="middle" x="147.08" y="-551.5" font-family="Helvetica,sans-Serif" font-size="10.00">+nbitsTrackID</text>
<text text-anchor="middle" x="147.08" y="-540.5" font-family="Helvetica,sans-Serif" font-size="10.00">+nbitsEvID</text>
</g>
<!-- Node4&#45;&gt;Node2 -->
<g id="edge3" class="edge"><title>Node4&#45;&gt;Node2</title>
<path fill="none" stroke="#404040" d="M148.536,-246.817C144.959,-233.324 141.527,-220.379 138.483,-208.897"/>
<polygon fill="none" stroke="#404040" points="138.418,-208.654 133.014,-203.879 135.343,-197.055 140.747,-201.829 138.418,-208.654"/>
<text text-anchor="middle" x="158.58" y="-219.5" font-family="Helvetica,sans-Serif" font-size="10.00"> +label</text>
</g>
<!-- Node5 -->
<g id="node5" class="node"><title>Node5</title>
<polygon fill="none" stroke="#bfbfbf" points="165.58,-594.5 165.58,-651.5 229.58,-651.5 229.58,-594.5 165.58,-594.5"/>
<text text-anchor="middle" x="197.58" y="-639.5" font-family="Helvetica,sans-Serif" font-size="10.00">ULong64_t</text>
<polyline fill="none" stroke="#bfbfbf" points="165.58,-632.5 229.58,-632.5 "/>
<text text-anchor="middle" x="197.58" y="-620.5" font-family="Helvetica,sans-Serif" font-size="10.00"> </text>
<polyline fill="none" stroke="#bfbfbf" points="165.58,-613.5 229.58,-613.5 "/>
<text text-anchor="middle" x="197.58" y="-601.5" font-family="Helvetica,sans-Serif" font-size="10.00"> </text>
</g>
<!-- Node5&#45;&gt;Node4 -->
<g id="edge4" class="edge"><title>Node5&#45;&gt;Node4</title>
<path fill="none" stroke="#404040" d="M195.974,-594.354C194.937,-576.502 193.499,-551.752 191.969,-525.413"/>
<polygon fill="none" stroke="#404040" points="191.956,-525.199 187.615,-519.441 191.26,-513.219 195.602,-518.977 191.956,-525.199"/>
<text text-anchor="middle" x="228.58" y="-568" font-family="Helvetica,sans-Serif" font-size="10.00"> +maskFull</text>
<text text-anchor="middle" x="228.58" y="-557" font-family="Helvetica,sans-Serif" font-size="10.00">+maskSrcID</text>
<text text-anchor="middle" x="228.58" y="-546" font-family="Helvetica,sans-Serif" font-size="10.00">+maskEvID</text>
<text text-anchor="middle" x="228.58" y="-535" font-family="Helvetica,sans-Serif" font-size="10.00">+maskTrackID</text>
</g>
<!-- Node6 -->
<g id="node6" class="node"><title>Node6</title>
<polygon fill="none" stroke="#bfbfbf" points="218.58,-134.5 218.58,-191.5 274.58,-191.5 274.58,-134.5 218.58,-134.5"/>
<text text-anchor="middle" x="246.58" y="-179.5" font-family="Helvetica,sans-Serif" font-size="10.00">UShort_t</text>
<polyline fill="none" stroke="#bfbfbf" points="218.58,-172.5 274.58,-172.5 "/>
<text text-anchor="middle" x="246.58" y="-160.5" font-family="Helvetica,sans-Serif" font-size="10.00"> </text>
<polyline fill="none" stroke="#bfbfbf" points="218.58,-153.5 274.58,-153.5 "/>
<text text-anchor="middle" x="246.58" y="-141.5" font-family="Helvetica,sans-Serif" font-size="10.00"> </text>
</g>
<!-- Node6&#45;&gt;Node1 -->
<g id="edge7" class="edge"><title>Node6&#45;&gt;Node1</title>
<path fill="none" stroke="#404040" d="M238.899,-134.349C234.562,-118.735 229.035,-98.839 224.089,-81.0325"/>
<polygon fill="none" stroke="#404040" points="224.072,-80.9713 218.612,-76.2608 220.86,-69.4091 226.32,-74.1196 224.072,-80.9713"/>
<text text-anchor="middle" x="242.58" y="-102" font-family="Helvetica,sans-Serif" font-size="10.00"> +col</text>
<text text-anchor="middle" x="242.58" y="-91" font-family="Helvetica,sans-Serif" font-size="10.00">+row</text>
</g>
<!-- Node7 -->
<g id="node7" class="node"><title>Node7</title>
<polygon fill="none" stroke="#bfbfbf" points="292.58,-134.5 292.58,-191.5 336.58,-191.5 336.58,-134.5 292.58,-134.5"/>
<text text-anchor="middle" x="314.58" y="-179.5" font-family="Helvetica,sans-Serif" font-size="10.00">UInt_t</text>
<polyline fill="none" stroke="#bfbfbf" points="292.58,-172.5 336.58,-172.5 "/>
<text text-anchor="middle" x="314.58" y="-160.5" font-family="Helvetica,sans-Serif" font-size="10.00"> </text>
<polyline fill="none" stroke="#bfbfbf" points="292.58,-153.5 336.58,-153.5 "/>
<text text-anchor="middle" x="314.58" y="-141.5" font-family="Helvetica,sans-Serif" font-size="10.00"> </text>
</g>
<!-- Node7&#45;&gt;Node1 -->
<g id="edge8" class="edge"><title>Node7&#45;&gt;Node1</title>
<path fill="none" stroke="#404040" d="M293.903,-134.24C283.27,-120.202 269.971,-103.005 257.58,-88 254.968,-84.8373 252.237,-81.5965 249.466,-78.3543"/>
<polygon fill="none" stroke="#404040" points="249.464,-78.352 242.513,-76.4316 241.613,-69.277 248.564,-71.1973 249.464,-78.352"/>
<text text-anchor="middle" x="297.58" y="-96.5" font-family="Helvetica,sans-Serif" font-size="10.00"> +roFrame</text>
</g>
</g>
</svg>
        <g id="navigator" transform="translate(0 0)" fill="#404254">
                <rect fill="#f2f5e9" fill-opacity="0.5" stroke="#606060" stroke-width=".5" x="0" y="0" width="60" height="60"/>
                <use id="zoomplus" xlink:href="#zoomPlus" x="17" y="9" onmousedown="handleZoom(evt,'in')"/>
                <use id="zoomminus" xlink:href="#zoomMin" x="42" y="9" onmousedown="handleZoom(evt,'out')"/>
                <use id="reset" xlink:href="#resetDef" x="30" y="36" onmousedown="handleReset()"/>
                <g id="arrowUp" xlink:href="#dirArrow" transform="translate(30 24)" onmousedown="handlePan(0,-1)">
                  <use xlink:href="#rim" fill="#404040">
                        <set attributeName="fill" to="#808080" begin="arrowUp.mouseover" end="arrowUp.mouseout"/>
                  </use>
                  <path fill="none" stroke="white" stroke-width="1.5" d="M0,-3.0v7 M-2.5,-0.5L0,-3.0L2.5,-0.5"/>
                </g>
                <g id="arrowRight" xlink:href="#dirArrow" transform="rotate(90) translate(36 -43)" onmousedown="handlePan(1,0)">
                  <use xlink:href="#rim" fill="#404040">
                        <set attributeName="fill" to="#808080" begin="arrowRight.mouseover" end="arrowRight.mouseout"/>
                  </use>
                  <path fill="none" stroke="white" stroke-width="1.5" d="M0,-3.0v7 M-2.5,-0.5L0,-3.0L2.5,-0.5"/>
                </g>
                <g id="arrowDown" xlink:href="#dirArrow" transform="rotate(180) translate(-30 -48)" onmousedown="handlePan(0,1)">
                  <use xlink:href="#rim" fill="#404040">
                        <set attributeName="fill" to="#808080" begin="arrowDown.mouseover" end="arrowDown.mouseout"/>
                  </use>
                  <path fill="none" stroke="white" stroke-width="1.5" d="M0,-3.0v7 M-2.5,-0.5L0,-3.0L2.5,-0.5"/>
                </g>
                <g id="arrowLeft" xlink:href="#dirArrow" transform="rotate(270) translate(-36 17)" onmousedown="handlePan(-1,0)">
                  <use xlink:href="#rim" fill="#404040">
                        <set attributeName="fill" to="#808080" begin="arrowLeft.mouseover" end="arrowLeft.mouseout"/>
                  </use>
                  <path fill="none" stroke="white" stroke-width="1.5" d="M0,-3.0v7 M-2.5,-0.5L0,-3.0L2.5,-0.5"/>
                </g>
        </g>
        <svg viewBox="0 0 15 15" width="100%" height="30px" preserveAspectRatio="xMaxYMin meet">
         <g id="arrow_out" transform="scale(0.3 0.3)">
          <a xlink:href="structo2_1_1ITSMFT_1_1PreDigit__coll__graph_org.svg" target="_base">
           <rect id="button" ry="5" rx="5" y="6" x="6" height="38" width="38"
                fill="#f2f5e9" fill-opacity="0.5" stroke="#606060" stroke-width="1.0"/>
           <path id="arrow"
             d="M 11.500037,31.436501 C 11.940474,20.09759 22.043105,11.32322 32.158766,21.979434 L 37.068811,17.246167 C 37.068811,17.246167 37.088388,32 37.088388,32 L 22.160133,31.978069 C 22.160133,31.978069 26.997745,27.140456 26.997745,27.140456 C 18.528582,18.264221 13.291696,25.230495 11.500037,31.436501 z"
             style="fill:#404040;"/>
          </a>
         </g>
        </svg>
</svg>
