<?xml version="1.0" encoding="UTF-8" standalone="no"?>
<!DOCTYPE svg PUBLIC "-//W3C//DTD SVG 1.1//EN"
 "http://www.w3.org/Graphics/SVG/1.1/DTD/svg11.dtd">
<!-- Generated by graphviz version 2.36.0 (20140111.2315)
 -->
<!-- Title: /home/travis/build/AliceO2Group/AliceO2/Detectors/MUON/MCH/PreClustering/src/DumpDigits.h Pages: 1 -->
<!--zoomable 286 -->
<svg id="main" version="1.1" xmlns="http://www.w3.org/2000/svg" xmlns:xlink="http://www.w3.org/1999/xlink" xml:space="preserve" onload="init(evt)">
<style type="text/css"><![CDATA[
.edge:hover path { stroke: red; }
.edge:hover polygon { stroke: red; fill: red; }
]]></style>
<script type="text/javascript"><![CDATA[
var edges = document.getElementsByTagName('g');
if (edges && edges.length) {
  for (var i=0;i<edges.length;i++) {
    if (edges[i].id.substr(0,4)=='edge') {
      edges[i].setAttribute('class','edge');
    }
  }
}
]]></script>
        <defs>
                <circle id="rim" cx="0" cy="0" r="7"/>
                <circle id="rim2" cx="0" cy="0" r="3.5"/>
                <g id="zoomPlus">
                        <use xlink:href="#rim" fill="#404040">
                                <set attributeName="fill" to="#808080" begin="zoomplus.mouseover" end="zoomplus.mouseout"/>
                        </use>
                        <path d="M-4,0h8M0,-4v8" fill="none" stroke="white" stroke-width="1.5" pointer-events="none"/>
                </g>
                <g id="zoomMin">
                        <use xlink:href="#rim" fill="#404040">
                                <set attributeName="fill" to="#808080" begin="zoomminus.mouseover" end="zoomminus.mouseout"/>
                        </use>
                        <path d="M-4,0h8" fill="none" stroke="white" stroke-width="1.5" pointer-events="none"/>
                </g>
                <g id="dirArrow">
                        <path fill="none" stroke="white" stroke-width="1.5" d="M0,-3.0v7 M-2.5,-0.5L0,-3.0L2.5,-0.5"/>
                </g>
               <g id="resetDef">
                       <use xlink:href="#rim2" fill="#404040">
                               <set attributeName="fill" to="#808080" begin="reset.mouseover" end="reset.mouseout"/>
                       </use>
               </g>
        </defs>

<script type="text/javascript">
var viewWidth = 696;
var viewHeight = 286;
var sectionId = 'dynsection-0';
</script>
<script xlink:href="../../svgpan.js"/>
<svg id="graph" class="graph">
<g id="viewport">
<title>/home/travis/build/AliceO2Group/AliceO2/Detectors/MUON/MCH/PreClustering/src/DumpDigits.h</title>
<!-- Node1 -->
<g id="node1" class="node"><title>Node1</title>
<polygon fill="#bfbfbf" stroke="black" points="32.5,-225 32.5,-277 217.5,-277 217.5,-225 32.5,-225"/>
<text text-anchor="start" x="40.5" y="-265" font-family="Helvetica,sans-Serif" font-size="10.00">/home/travis/build</text>
<text text-anchor="start" x="40.5" y="-254" font-family="Helvetica,sans-Serif" font-size="10.00">/AliceO2Group/AliceO2</text>
<text text-anchor="start" x="40.5" y="-243" font-family="Helvetica,sans-Serif" font-size="10.00">/Detectors/MUON/MCH/PreClustering</text>
<text text-anchor="middle" x="125" y="-232" font-family="Helvetica,sans-Serif" font-size="10.00">/src/DumpDigits.h</text>
</g>
<!-- Node2 -->
<g id="node2" class="node"><title>Node2</title>
<polygon fill="none" stroke="#bfbfbf" points="7,-168.5 7,-187.5 95,-187.5 95,-168.5 7,-168.5"/>
<text text-anchor="middle" x="51" y="-175.5" font-family="Helvetica,sans-Serif" font-size="10.00">FairMQDevice.h</text>
</g>
<!-- Node1&#45;&gt;Node2 -->
<g id="edge1" class="edge"><title>Node1&#45;&gt;Node2</title>
<path fill="none" stroke="midnightblue" d="M98.702,-224.768C88.2917,-214.78 76.6448,-203.605 67.4655,-194.798"/>
<polygon fill="midnightblue" stroke="midnightblue" points="69.7662,-192.155 60.1272,-187.757 64.9199,-197.206 69.7662,-192.155"/>
</g>
<!-- Node3 -->
<g id="node3" class="node"><title>Node3</title>
<g id="a_node3"><a xlink:href="../../d2/dda/MessageFormat_8h.html" target="_top" xlink:title="aliceHLTwrapper/MessageFormat.h">
<polygon fill="none" stroke="black" points="113,-168.5 113,-187.5 285,-187.5 285,-168.5 113,-168.5"/>
<text text-anchor="middle" x="199" y="-175.5" font-family="Helvetica,sans-Serif" font-size="10.00">aliceHLTwrapper/MessageFormat.h</text>
</a>
</g>
</g>
<!-- Node1&#45;&gt;Node3 -->
<g id="edge2" class="edge"><title>Node1&#45;&gt;Node3</title>
<path fill="none" stroke="midnightblue" d="M151.298,-224.768C161.708,-214.78 173.355,-203.605 182.535,-194.798"/>
<polygon fill="midnightblue" stroke="midnightblue" points="185.08,-197.206 189.873,-187.757 180.234,-192.155 185.08,-197.206"/>
</g>
<!-- Node4 -->
<g id="node4" class="node"><title>Node4</title>
<g id="a_node4"><a xlink:href="../../d6/d34/AliHLTDataTypes_8h.html" target="_top" xlink:title="Data type declaration for the HLT module. ">
<polygon fill="none" stroke="black" points="12.5,-56.5 12.5,-75.5 115.5,-75.5 115.5,-56.5 12.5,-56.5"/>
<text text-anchor="middle" x="64" y="-63.5" font-family="Helvetica,sans-Serif" font-size="10.00">AliHLTDataTypes.h</text>
</a>
</g>
</g>
<!-- Node3&#45;&gt;Node4 -->
<g id="edge3" class="edge"><title>Node3&#45;&gt;Node4</title>
<path fill="none" stroke="midnightblue" d="M188.407,-168.368C165.536,-149.733 111.29,-105.532 82.5734,-82.1338"/>
<polygon fill="midnightblue" stroke="midnightblue" points="84.5073,-79.1949 74.544,-75.5914 80.0855,-84.6215 84.5073,-79.1949"/>
</g>
<!-- Node5 -->
<g id="node5" class="node"><title>Node5</title>
<g id="a_node5"><a xlink:href="../../d2/de6/HOMERFactory_8h.html" target="_top" xlink:title="HOMERFactory.h">
<polygon fill="none" stroke="black" points="-0.5,-112.5 -0.5,-131.5 94.5,-131.5 94.5,-112.5 -0.5,-112.5"/>
<text text-anchor="middle" x="47" y="-119.5" font-family="Helvetica,sans-Serif" font-size="10.00">HOMERFactory.h</text>
</a>
</g>
</g>
<!-- Node3&#45;&gt;Node5 -->
<g id="edge4" class="edge"><title>Node3&#45;&gt;Node5</title>
<path fill="none" stroke="midnightblue" d="M174.915,-168.444C149.455,-159.399 109.106,-145.064 80.5409,-134.916"/>
<polygon fill="midnightblue" stroke="midnightblue" points="81.5669,-131.566 70.9722,-131.516 79.2235,-138.162 81.5669,-131.566"/>
</g>
<!-- Node6 -->
<g id="node6" class="node"><title>Node6</title>
<polygon fill="none" stroke="#bfbfbf" points="189,-56.5 189,-75.5 233,-75.5 233,-56.5 189,-56.5"/>
<text text-anchor="middle" x="211" y="-63.5" font-family="Helvetica,sans-Serif" font-size="10.00">vector</text>
</g>
<!-- Node3&#45;&gt;Node6 -->
<g id="edge6" class="edge"><title>Node3&#45;&gt;Node6</title>
<path fill="none" stroke="midnightblue" d="M199.942,-168.368C201.878,-150.617 206.345,-109.666 208.971,-85.5974"/>
<polygon fill="midnightblue" stroke="midnightblue" points="212.458,-85.912 210.063,-75.5914 205.499,-85.1528 212.458,-85.912"/>
</g>
<!-- Node7 -->
<g id="node7" class="node"><title>Node7</title>
<polygon fill="none" stroke="#bfbfbf" points="74,-0.5 74,-19.5 120,-19.5 120,-0.5 74,-0.5"/>
<text text-anchor="middle" x="97" y="-7.5" font-family="Helvetica,sans-Serif" font-size="10.00">cstdint</text>
</g>
<!-- Node3&#45;&gt;Node7 -->
<g id="edge7" class="edge"><title>Node3&#45;&gt;Node7</title>
<path fill="none" stroke="midnightblue" d="M193.516,-168.075C177.252,-141.606 129.08,-63.2089 107.575,-28.2097"/>
<polygon fill="midnightblue" stroke="midnightblue" points="110.482,-26.2559 102.265,-19.5681 104.518,-29.9206 110.482,-26.2559"/>
</g>
<!-- Node8 -->
<g id="node8" class="node"><title>Node8</title>
<polygon fill="none" stroke="#bfbfbf" points="419,-112.5 419,-131.5 517,-131.5 517,-112.5 419,-112.5"/>
<text text-anchor="middle" x="468" y="-119.5" font-family="Helvetica,sans-Serif" font-size="10.00">boost/signals2.hpp</text>
</g>
<!-- Node3&#45;&gt;Node8 -->
<g id="edge8" class="edge"><title>Node3&#45;&gt;Node8</title>
<path fill="none" stroke="midnightblue" d="M241.624,-168.444C288.747,-158.984 364.692,-143.738 415.459,-133.547"/>
<polygon fill="midnightblue" stroke="midnightblue" points="416.46,-136.916 425.576,-131.516 415.082,-130.053 416.46,-136.916"/>
</g>
<!-- Node9 -->
<g id="node9" class="node"><title>Node9</title>
<g id="a_node9"><a xlink:href="../../dc/dcd/DataHeader_8h.html" target="_top" xlink:title="Headers/DataHeader.h">
<polygon fill="none" stroke="black" points="251.5,-56.5 251.5,-75.5 368.5,-75.5 368.5,-56.5 251.5,-56.5"/>
<text text-anchor="middle" x="310" y="-63.5" font-family="Helvetica,sans-Serif" font-size="10.00">Headers/DataHeader.h</text>
</a>
</g>
</g>
<!-- Node3&#45;&gt;Node9 -->
<g id="edge9" class="edge"><title>Node3&#45;&gt;Node9</title>
<path fill="none" stroke="midnightblue" d="M205.974,-168.202C216.336,-155.334 236.658,-130.861 256,-112 266.785,-101.483 279.724,-90.6461 290.233,-82.2426"/>
<polygon fill="midnightblue" stroke="midnightblue" points="292.699,-84.755 298.387,-75.8166 288.367,-79.2569 292.699,-84.755"/>
</g>
<!-- Node17 -->
<g id="node17" class="node"><title>Node17</title>
<g id="a_node17"><a xlink:href="../../d2/d09/HeartbeatFrame_8h.html" target="_top" xlink:title="Headers/HeartbeatFrame.h">
<polygon fill="none" stroke="black" points="265.5,-112.5 265.5,-131.5 400.5,-131.5 400.5,-112.5 265.5,-112.5"/>
<text text-anchor="middle" x="333" y="-119.5" font-family="Helvetica,sans-Serif" font-size="10.00">Headers/HeartbeatFrame.h</text>
</a>
</g>
</g>
<!-- Node3&#45;&gt;Node17 -->
<g id="edge18" class="edge"><title>Node3&#45;&gt;Node17</title>
<path fill="none" stroke="midnightblue" d="M220.233,-168.444C242.384,-159.517 277.319,-145.439 302.436,-135.317"/>
<polygon fill="midnightblue" stroke="midnightblue" points="303.9,-138.501 311.867,-131.516 301.283,-132.008 303.9,-138.501"/>
</g>
<!-- Node5&#45;&gt;Node4 -->
<g id="edge5" class="edge"><title>Node5&#45;&gt;Node4</title>
<path fill="none" stroke="midnightblue" d="M49.8072,-112.083C52.0847,-104.849 55.3713,-94.4087 58.2084,-85.3968"/>
<polygon fill="midnightblue" stroke="midnightblue" points="61.5806,-86.3406 61.245,-75.7511 54.9036,-84.2385 61.5806,-86.3406"/>
</g>
<!-- Node9&#45;&gt;Node7 -->
<g id="edge10" class="edge"><title>Node9&#45;&gt;Node7</title>
<path fill="none" stroke="midnightblue" d="M274.201,-56.4405C239.628,-48.0986 185.559,-34.8551 129.749,-20.1409"/>
<polygon fill="midnightblue" stroke="midnightblue" points="130.612,-16.7488 120.049,-17.5731 128.82,-23.5157 130.612,-16.7488"/>
</g>
<!-- Node10 -->
<g id="node10" class="node"><title>Node10</title>
<polygon fill="none" stroke="#bfbfbf" points="504,-0.5 504,-19.5 556,-19.5 556,-0.5 504,-0.5"/>
<text text-anchor="middle" x="530" y="-7.5" font-family="Helvetica,sans-Serif" font-size="10.00">memory</text>
</g>
<!-- Node9&#45;&gt;Node10 -->
<g id="edge11" class="edge"><title>Node9&#45;&gt;Node10</title>
<path fill="none" stroke="midnightblue" d="M345.287,-56.4268C380.311,-47.905 435.794,-34.3714 493.605,-20.0877"/>
<polygon fill="midnightblue" stroke="midnightblue" points="494.79,-23.4001 503.658,-17.6021 493.11,-16.6047 494.79,-23.4001"/>
</g>
<!-- Node11 -->
<g id="node11" class="node"><title>Node11</title>
<polygon fill="none" stroke="#bfbfbf" points="574.5,-0.5 574.5,-19.5 623.5,-19.5 623.5,-0.5 574.5,-0.5"/>
<text text-anchor="middle" x="599" y="-7.5" font-family="Helvetica,sans-Serif" font-size="10.00">cassert</text>
</g>
<!-- Node9&#45;&gt;Node11 -->
<g id="edge12" class="edge"><title>Node9&#45;&gt;Node11</title>
<path fill="none" stroke="midnightblue" d="M366.231,-56.4705C415.851,-48.6284 490.322,-36.0941 564.227,-20.0158"/>
<polygon fill="midnightblue" stroke="midnightblue" points="565.161,-23.3943 574.176,-17.8289 563.658,-16.5575 565.161,-23.3943"/>
</g>
<!-- Node12 -->
<g id="node12" class="node"><title>Node12</title>
<polygon fill="none" stroke="#bfbfbf" points="642,-0.5 642,-19.5 688,-19.5 688,-0.5 642,-0.5"/>
<text text-anchor="middle" x="665" y="-7.5" font-family="Helvetica,sans-Serif" font-size="10.00">cstring</text>
</g>
<!-- Node9&#45;&gt;Node12 -->
<g id="edge13" class="edge"><title>Node9&#45;&gt;Node12</title>
<path fill="none" stroke="midnightblue" d="M368.502,-57.2359C447.754,-46.6599 583.959,-28.261 631.723,-19.6761"/>
<polygon fill="midnightblue" stroke="midnightblue" points="632.496,-23.0917 641.653,-17.7626 631.171,-16.2182 632.496,-23.0917"/>
</g>
<!-- Node13 -->
<g id="node13" class="node"><title>Node13</title>
<polygon fill="none" stroke="#bfbfbf" points="138,-0.5 138,-19.5 194,-19.5 194,-0.5 138,-0.5"/>
<text text-anchor="middle" x="166" y="-7.5" font-family="Helvetica,sans-Serif" font-size="10.00">algorithm</text>
</g>
<!-- Node9&#45;&gt;Node13 -->
<g id="edge14" class="edge"><title>Node9&#45;&gt;Node13</title>
<path fill="none" stroke="midnightblue" d="M287.183,-56.4435C263.168,-47.4381 225.171,-33.1891 198.131,-23.049"/>
<polygon fill="midnightblue" stroke="midnightblue" points="199.303,-19.7506 188.71,-19.5164 196.845,-26.3049 199.303,-19.7506"/>
</g>
<!-- Node14 -->
<g id="node14" class="node"><title>Node14</title>
<polygon fill="none" stroke="#bfbfbf" points="212.5,-0.5 212.5,-19.5 271.5,-19.5 271.5,-0.5 212.5,-0.5"/>
<text text-anchor="middle" x="242" y="-7.5" font-family="Helvetica,sans-Serif" font-size="10.00">stdexcept</text>
</g>
<!-- Node9&#45;&gt;Node14 -->
<g id="edge15" class="edge"><title>Node9&#45;&gt;Node14</title>
<path fill="none" stroke="midnightblue" d="M299.075,-56.324C288.825,-48.1849 273.279,-35.8395 260.999,-26.0874"/>
<polygon fill="midnightblue" stroke="midnightblue" points="263.132,-23.3119 253.124,-19.8339 258.779,-28.7937 263.132,-23.3119"/>
</g>
<!-- Node15 -->
<g id="node15" class="node"><title>Node15</title>
<polygon fill="none" stroke="#bfbfbf" points="289.5,-0.5 289.5,-19.5 330.5,-19.5 330.5,-0.5 289.5,-0.5"/>
<text text-anchor="middle" x="310" y="-7.5" font-family="Helvetica,sans-Serif" font-size="10.00">string</text>
</g>
<!-- Node9&#45;&gt;Node15 -->
<g id="edge16" class="edge"><title>Node9&#45;&gt;Node15</title>
<path fill="none" stroke="midnightblue" d="M310,-56.083C310,-49.0059 310,-38.8611 310,-29.9865"/>
<polygon fill="midnightblue" stroke="midnightblue" points="313.5,-29.751 310,-19.7511 306.5,-29.7511 313.5,-29.751"/>
</g>
<!-- Node16 -->
<g id="node16" class="node"><title>Node16</title>
<g id="a_node16"><a xlink:href="../../d7/df8/Types_8h.html" target="_top" xlink:title="MemoryResources/Types.h">
<polygon fill="none" stroke="black" points="348.5,-0.5 348.5,-19.5 485.5,-19.5 485.5,-0.5 348.5,-0.5"/>
<text text-anchor="middle" x="417" y="-7.5" font-family="Helvetica,sans-Serif" font-size="10.00">MemoryResources/Types.h</text>
</a>
</g>
</g>
<!-- Node9&#45;&gt;Node16 -->
<g id="edge17" class="edge"><title>Node9&#45;&gt;Node16</title>
<path fill="none" stroke="midnightblue" d="M327.191,-56.324C344.351,-47.6641 370.946,-34.2424 390.747,-24.249"/>
<polygon fill="midnightblue" stroke="midnightblue" points="392.501,-27.2847 399.851,-19.6545 389.347,-21.0354 392.501,-27.2847"/>
</g>
<!-- Node17&#45;&gt;Node6 -->
<g id="edge22" class="edge"><title>Node17&#45;&gt;Node6</title>
<path fill="none" stroke="midnightblue" d="M313.669,-112.444C293.68,-103.596 262.257,-89.6875 239.436,-79.5865"/>
<polygon fill="midnightblue" stroke="midnightblue" points="240.802,-76.3635 230.241,-75.5164 237.968,-82.7645 240.802,-76.3635"/>
</g>
<!-- Node17&#45;&gt;Node9 -->
<g id="edge19" class="edge"><title>Node17&#45;&gt;Node9</title>
<path fill="none" stroke="midnightblue" d="M329.202,-112.083C326.087,-104.77 321.577,-94.1814 317.711,-85.1034"/>
<polygon fill="midnightblue" stroke="midnightblue" points="320.866,-83.5798 313.727,-75.7511 314.426,-86.3229 320.866,-83.5798"/>
</g>
<!-- Node18 -->
<g id="node18" class="node"><title>Node18</title>
<polygon fill="none" stroke="#bfbfbf" points="386.5,-56.5 386.5,-75.5 445.5,-75.5 445.5,-56.5 386.5,-56.5"/>
<text text-anchor="middle" x="416" y="-63.5" font-family="Helvetica,sans-Serif" font-size="10.00">functional</text>
</g>
<!-- Node17&#45;&gt;Node18 -->
<g id="edge20" class="edge"><title>Node17&#45;&gt;Node18</title>
<path fill="none" stroke="midnightblue" d="M346.335,-112.324C359.162,-103.979 378.785,-91.2122 393.94,-81.3524"/>
<polygon fill="midnightblue" stroke="midnightblue" points="396.224,-84.0417 402.698,-75.6545 392.407,-78.1742 396.224,-84.0417"/>
</g>
<!-- Node19 -->
<g id="node19" class="node"><title>Node19</title>
<polygon fill="none" stroke="#bfbfbf" points="463.5,-56.5 463.5,-75.5 498.5,-75.5 498.5,-56.5 463.5,-56.5"/>
<text text-anchor="middle" x="481" y="-63.5" font-family="Helvetica,sans-Serif" font-size="10.00">map</text>
</g>
<!-- Node17&#45;&gt;Node19 -->
<g id="edge21" class="edge"><title>Node17&#45;&gt;Node19</title>
<path fill="none" stroke="midnightblue" d="M356.451,-112.444C382.875,-102.802 425.77,-87.1514 453.685,-76.9664"/>
<polygon fill="midnightblue" stroke="midnightblue" points="455.038,-80.1983 463.233,-73.4826 452.639,-73.6223 455.038,-80.1983"/>
</g>
</g>
</svg>
        <g id="navigator" transform="translate(0 0)" fill="#404254">
                <rect fill="#f2f5e9" fill-opacity="0.5" stroke="#606060" stroke-width=".5" x="0" y="0" width="60" height="60"/>
                <use id="zoomplus" xlink:href="#zoomPlus" x="17" y="9" onmousedown="handleZoom(evt,'in')"/>
                <use id="zoomminus" xlink:href="#zoomMin" x="42" y="9" onmousedown="handleZoom(evt,'out')"/>
                <use id="reset" xlink:href="#resetDef" x="30" y="36" onmousedown="handleReset()"/>
                <g id="arrowUp" xlink:href="#dirArrow" transform="translate(30 24)" onmousedown="handlePan(0,-1)">
                  <use xlink:href="#rim" fill="#404040">
                        <set attributeName="fill" to="#808080" begin="arrowUp.mouseover" end="arrowUp.mouseout"/>
                  </use>
                  <path fill="none" stroke="white" stroke-width="1.5" d="M0,-3.0v7 M-2.5,-0.5L0,-3.0L2.5,-0.5"/>
                </g>
                <g id="arrowRight" xlink:href="#dirArrow" transform="rotate(90) translate(36 -43)" onmousedown="handlePan(1,0)">
                  <use xlink:href="#rim" fill="#404040">
                        <set attributeName="fill" to="#808080" begin="arrowRight.mouseover" end="arrowRight.mouseout"/>
                  </use>
                  <path fill="none" stroke="white" stroke-width="1.5" d="M0,-3.0v7 M-2.5,-0.5L0,-3.0L2.5,-0.5"/>
                </g>
                <g id="arrowDown" xlink:href="#dirArrow" transform="rotate(180) translate(-30 -48)" onmousedown="handlePan(0,1)">
                  <use xlink:href="#rim" fill="#404040">
                        <set attributeName="fill" to="#808080" begin="arrowDown.mouseover" end="arrowDown.mouseout"/>
                  </use>
                  <path fill="none" stroke="white" stroke-width="1.5" d="M0,-3.0v7 M-2.5,-0.5L0,-3.0L2.5,-0.5"/>
                </g>
                <g id="arrowLeft" xlink:href="#dirArrow" transform="rotate(270) translate(-36 17)" onmousedown="handlePan(-1,0)">
                  <use xlink:href="#rim" fill="#404040">
                        <set attributeName="fill" to="#808080" begin="arrowLeft.mouseover" end="arrowLeft.mouseout"/>
                  </use>
                  <path fill="none" stroke="white" stroke-width="1.5" d="M0,-3.0v7 M-2.5,-0.5L0,-3.0L2.5,-0.5"/>
                </g>
        </g>
        <svg viewBox="0 0 15 15" width="100%" height="30px" preserveAspectRatio="xMaxYMin meet">
         <g id="arrow_out" transform="scale(0.3 0.3)">
          <a xlink:href="DumpDigits_8h__incl_org.svg" target="_base">
           <rect id="button" ry="5" rx="5" y="6" x="6" height="38" width="38"
                fill="#f2f5e9" fill-opacity="0.5" stroke="#606060" stroke-width="1.0"/>
           <path id="arrow"
             d="M 11.500037,31.436501 C 11.940474,20.09759 22.043105,11.32322 32.158766,21.979434 L 37.068811,17.246167 C 37.068811,17.246167 37.088388,32 37.088388,32 L 22.160133,31.978069 C 22.160133,31.978069 26.997745,27.140456 26.997745,27.140456 C 18.528582,18.264221 13.291696,25.230495 11.500037,31.436501 z"
             style="fill:#404040;"/>
          </a>
         </g>
        </svg>
</svg>
