<?xml version="1.0" encoding="UTF-8" standalone="no"?>
<!DOCTYPE svg PUBLIC "-//W3C//DTD SVG 1.1//EN"
 "http://www.w3.org/Graphics/SVG/1.1/DTD/svg11.dtd">
<!-- Generated by graphviz version 2.36.0 (20140111.2315)
 -->
<!-- Title: /home/travis/build/AliceO2Group/AliceO2/Detectors/Passive/src/Magnet.cxx Pages: 1 -->
<svg width="1677pt" height="230pt"
 viewBox="0.00 0.00 1677.00 230.00" xmlns="http://www.w3.org/2000/svg" xmlns:xlink="http://www.w3.org/1999/xlink">
<g id="graph0" class="graph" transform="scale(1 1) rotate(0) translate(4 226)">
<title>/home/travis/build/AliceO2Group/AliceO2/Detectors/Passive/src/Magnet.cxx</title>
<!-- Node1 -->
<g id="node1" class="node"><title>Node1</title>
<polygon fill="#bfbfbf" stroke="black" points="1129,-169 1129,-221 1247,-221 1247,-169 1129,-169"/>
<text text-anchor="start" x="1137" y="-209" font-family="Helvetica,sans-Serif" font-size="10.00">/home/travis/build</text>
<text text-anchor="start" x="1137" y="-198" font-family="Helvetica,sans-Serif" font-size="10.00">/AliceO2Group/AliceO2</text>
<text text-anchor="start" x="1137" y="-187" font-family="Helvetica,sans-Serif" font-size="10.00">/Detectors/Passive/src</text>
<text text-anchor="middle" x="1188" y="-176" font-family="Helvetica,sans-Serif" font-size="10.00">/Magnet.cxx</text>
</g>
<!-- Node2 -->
<g id="node2" class="node"><title>Node2</title>
<g id="a_node2"><a xlink:href="../../d1/d3a/Base_2include_2DetectorsBase_2Detector_8h.html" target="_top" xlink:title="DetectorsBase/Detector.h">
<polygon fill="none" stroke="black" points="716.5,-112.5 716.5,-131.5 847.5,-131.5 847.5,-112.5 716.5,-112.5"/>
<text text-anchor="middle" x="782" y="-119.5" font-family="Helvetica,sans-Serif" font-size="10.00">DetectorsBase/Detector.h</text>
</a>
</g>
</g>
<!-- Node1&#45;&gt;Node2 -->
<g id="edge1" class="edge"><title>Node1&#45;&gt;Node2</title>
<path fill="none" stroke="midnightblue" d="M1128.96,-183.676C1051.82,-170.186 917.542,-146.703 840.612,-133.25"/>
<polygon fill="midnightblue" stroke="midnightblue" points="841.06,-129.775 830.607,-131.5 839.854,-136.671 841.06,-129.775"/>
</g>
<!-- Node9 -->
<g id="node9" class="node"><title>Node9</title>
<g id="a_node9"><a xlink:href="../../d0/d9a/MaterialManager_8h.html" target="_top" xlink:title="DetectorsBase/MaterialManager.h">
<polygon fill="none" stroke="black" points="1248.5,-56.5 1248.5,-75.5 1413.5,-75.5 1413.5,-56.5 1248.5,-56.5"/>
<text text-anchor="middle" x="1331" y="-63.5" font-family="Helvetica,sans-Serif" font-size="10.00">DetectorsBase/MaterialManager.h</text>
</a>
</g>
</g>
<!-- Node1&#45;&gt;Node9 -->
<g id="edge22" class="edge"><title>Node1&#45;&gt;Node9</title>
<path fill="none" stroke="midnightblue" d="M1128.81,-190.061C1051.86,-183.566 923.852,-167.596 895,-132 889.403,-125.095 889.046,-118.6 895,-112 896.431,-110.414 1110.53,-88.8966 1238.14,-76.2004"/>
<polygon fill="midnightblue" stroke="midnightblue" points="1238.7,-79.6614 1248.31,-75.1889 1238.01,-72.6958 1238.7,-79.6614"/>
</g>
<!-- Node20 -->
<g id="node20" class="node"><title>Node20</title>
<g id="a_node20"><a xlink:href="../../dd/db0/Magnet_8h.html" target="_top" xlink:title="DetectorsPassive/Magnet.h">
<polygon fill="none" stroke="black" points="32,-112.5 32,-131.5 170,-131.5 170,-112.5 32,-112.5"/>
<text text-anchor="middle" x="101" y="-119.5" font-family="Helvetica,sans-Serif" font-size="10.00">DetectorsPassive/Magnet.h</text>
</a>
</g>
</g>
<!-- Node1&#45;&gt;Node20 -->
<g id="edge23" class="edge"><title>Node1&#45;&gt;Node20</title>
<path fill="none" stroke="midnightblue" d="M1128.79,-190.132C945.693,-178.173 388.542,-141.782 180.484,-128.192"/>
<polygon fill="midnightblue" stroke="midnightblue" points="180.456,-124.682 170.249,-127.523 179.999,-131.668 180.456,-124.682"/>
</g>
<!-- Node22 -->
<g id="node22" class="node"><title>Node22</title>
<polygon fill="none" stroke="#bfbfbf" points="904,-112.5 904,-131.5 1028,-131.5 1028,-112.5 904,-112.5"/>
<text text-anchor="middle" x="966" y="-119.5" font-family="Helvetica,sans-Serif" font-size="10.00">TGeoCompositeShape.h</text>
</g>
<!-- Node1&#45;&gt;Node22 -->
<g id="edge26" class="edge"><title>Node1&#45;&gt;Node22</title>
<path fill="none" stroke="midnightblue" d="M1128.8,-175.067C1088.58,-162.205 1036.67,-145.603 1002.41,-134.645"/>
<polygon fill="midnightblue" stroke="midnightblue" points="1003.4,-131.287 992.809,-131.574 1001.27,-137.954 1003.4,-131.287"/>
</g>
<!-- Node23 -->
<g id="node23" class="node"><title>Node23</title>
<polygon fill="none" stroke="#bfbfbf" points="1046,-112.5 1046,-131.5 1132,-131.5 1132,-112.5 1046,-112.5"/>
<text text-anchor="middle" x="1089" y="-119.5" font-family="Helvetica,sans-Serif" font-size="10.00">TGeoManager.h</text>
</g>
<!-- Node1&#45;&gt;Node23 -->
<g id="edge27" class="edge"><title>Node1&#45;&gt;Node23</title>
<path fill="none" stroke="midnightblue" d="M1153.1,-168.968C1138.58,-158.559 1122.23,-146.831 1109.67,-137.827"/>
<polygon fill="midnightblue" stroke="midnightblue" points="1111.45,-134.793 1101.28,-131.81 1107.37,-140.482 1111.45,-134.793"/>
</g>
<!-- Node24 -->
<g id="node24" class="node"><title>Node24</title>
<polygon fill="none" stroke="#bfbfbf" points="1150,-112.5 1150,-131.5 1226,-131.5 1226,-112.5 1150,-112.5"/>
<text text-anchor="middle" x="1188" y="-119.5" font-family="Helvetica,sans-Serif" font-size="10.00">TGeoMatrix.h</text>
</g>
<!-- Node1&#45;&gt;Node24 -->
<g id="edge28" class="edge"><title>Node1&#45;&gt;Node24</title>
<path fill="none" stroke="midnightblue" d="M1188,-168.768C1188,-159.89 1188,-150.074 1188,-141.816"/>
<polygon fill="midnightblue" stroke="midnightblue" points="1191.5,-141.757 1188,-131.757 1184.5,-141.757 1191.5,-141.757"/>
</g>
<!-- Node25 -->
<g id="node25" class="node"><title>Node25</title>
<polygon fill="none" stroke="#bfbfbf" points="1244.5,-112.5 1244.5,-131.5 1327.5,-131.5 1327.5,-112.5 1244.5,-112.5"/>
<text text-anchor="middle" x="1286" y="-119.5" font-family="Helvetica,sans-Serif" font-size="10.00">TGeoMedium.h</text>
</g>
<!-- Node1&#45;&gt;Node25 -->
<g id="edge29" class="edge"><title>Node1&#45;&gt;Node25</title>
<path fill="none" stroke="midnightblue" d="M1222.55,-168.968C1236.92,-158.559 1253.11,-146.831 1265.53,-137.827"/>
<polygon fill="midnightblue" stroke="midnightblue" points="1267.8,-140.511 1273.84,-131.81 1263.69,-134.842 1267.8,-140.511"/>
</g>
<!-- Node26 -->
<g id="node26" class="node"><title>Node26</title>
<polygon fill="none" stroke="#bfbfbf" points="1345.5,-112.5 1345.5,-131.5 1416.5,-131.5 1416.5,-112.5 1345.5,-112.5"/>
<text text-anchor="middle" x="1381" y="-119.5" font-family="Helvetica,sans-Serif" font-size="10.00">TGeoPgon.h</text>
</g>
<!-- Node1&#45;&gt;Node26 -->
<g id="edge30" class="edge"><title>Node1&#45;&gt;Node26</title>
<path fill="none" stroke="midnightblue" d="M1247.22,-172.215C1280.38,-160.017 1320.48,-145.265 1348.08,-135.112"/>
<polygon fill="midnightblue" stroke="midnightblue" points="1349.46,-138.33 1357.64,-131.593 1347.05,-131.761 1349.46,-138.33"/>
</g>
<!-- Node27 -->
<g id="node27" class="node"><title>Node27</title>
<polygon fill="none" stroke="#bfbfbf" points="1435,-112.5 1435,-131.5 1517,-131.5 1517,-112.5 1435,-112.5"/>
<text text-anchor="middle" x="1476" y="-119.5" font-family="Helvetica,sans-Serif" font-size="10.00">TGeoVolume.h</text>
</g>
<!-- Node1&#45;&gt;Node27 -->
<g id="edge31" class="edge"><title>Node1&#45;&gt;Node27</title>
<path fill="none" stroke="midnightblue" d="M1247.32,-179.375C1302.01,-165.893 1381.97,-146.18 1431.41,-133.994"/>
<polygon fill="midnightblue" stroke="midnightblue" points="1432.3,-137.378 1441.17,-131.586 1430.62,-130.582 1432.3,-137.378"/>
</g>
<!-- Node28 -->
<g id="node28" class="node"><title>Node28</title>
<polygon fill="none" stroke="#bfbfbf" points="1535.5,-112.5 1535.5,-131.5 1602.5,-131.5 1602.5,-112.5 1535.5,-112.5"/>
<text text-anchor="middle" x="1569" y="-119.5" font-family="Helvetica,sans-Serif" font-size="10.00">TGeoXtru.h</text>
</g>
<!-- Node1&#45;&gt;Node28 -->
<g id="edge32" class="edge"><title>Node1&#45;&gt;Node28</title>
<path fill="none" stroke="midnightblue" d="M1247.01,-183.636C1312.42,-172.043 1421.31,-152.439 1525.18,-132.122"/>
<polygon fill="midnightblue" stroke="midnightblue" points="1526.08,-135.513 1535.22,-130.154 1524.73,-128.644 1526.08,-135.513"/>
</g>
<!-- Node29 -->
<g id="node29" class="node"><title>Node29</title>
<polygon fill="none" stroke="#bfbfbf" points="1620.5,-112.5 1620.5,-131.5 1669.5,-131.5 1669.5,-112.5 1620.5,-112.5"/>
<text text-anchor="middle" x="1645" y="-119.5" font-family="Helvetica,sans-Serif" font-size="10.00">cassert</text>
</g>
<!-- Node1&#45;&gt;Node29 -->
<g id="edge33" class="edge"><title>Node1&#45;&gt;Node29</title>
<path fill="none" stroke="midnightblue" d="M1247.22,-187.467C1327.35,-178.151 1474.88,-159.325 1610.07,-131.982"/>
<polygon fill="midnightblue" stroke="midnightblue" points="1611.1,-135.344 1620.19,-129.913 1609.7,-128.486 1611.1,-135.344"/>
</g>
<!-- Node3 -->
<g id="node3" class="node"><title>Node3</title>
<polygon fill="none" stroke="#bfbfbf" points="1023.5,-0.5 1023.5,-19.5 1058.5,-19.5 1058.5,-0.5 1023.5,-0.5"/>
<text text-anchor="middle" x="1041" y="-7.5" font-family="Helvetica,sans-Serif" font-size="10.00">map</text>
</g>
<!-- Node2&#45;&gt;Node3 -->
<g id="edge2" class="edge"><title>Node2&#45;&gt;Node3</title>
<path fill="none" stroke="midnightblue" d="M784.535,-112.253C789.129,-98.053 800.231,-70.153 820,-56 850.764,-33.9761 961.022,-19.5596 1013.22,-13.8157"/>
<polygon fill="midnightblue" stroke="midnightblue" points="1013.86,-17.2674 1023.43,-12.722 1013.12,-10.3072 1013.86,-17.2674"/>
</g>
<!-- Node4 -->
<g id="node4" class="node"><title>Node4</title>
<polygon fill="none" stroke="#bfbfbf" points="829,-56.5 829,-75.5 873,-75.5 873,-56.5 829,-56.5"/>
<text text-anchor="middle" x="851" y="-63.5" font-family="Helvetica,sans-Serif" font-size="10.00">vector</text>
</g>
<!-- Node2&#45;&gt;Node4 -->
<g id="edge3" class="edge"><title>Node2&#45;&gt;Node4</title>
<path fill="none" stroke="midnightblue" d="M793.086,-112.324C803.486,-104.185 819.261,-91.8395 831.722,-82.0874"/>
<polygon fill="midnightblue" stroke="midnightblue" points="833.994,-84.7533 839.712,-75.8339 829.68,-79.2407 833.994,-84.7533"/>
</g>
<!-- Node5 -->
<g id="node5" class="node"><title>Node5</title>
<polygon fill="none" stroke="#bfbfbf" points="1397.5,-0.5 1397.5,-19.5 1470.5,-19.5 1470.5,-0.5 1397.5,-0.5"/>
<text text-anchor="middle" x="1434" y="-7.5" font-family="Helvetica,sans-Serif" font-size="10.00">initializer_list</text>
</g>
<!-- Node2&#45;&gt;Node5 -->
<g id="edge4" class="edge"><title>Node2&#45;&gt;Node5</title>
<path fill="none" stroke="midnightblue" d="M847.718,-115.64C863.221,-114.41 879.691,-113.132 895,-112 953.532,-107.67 1378.19,-115.062 1422,-76 1434.69,-64.68 1436.71,-44.6789 1436.16,-29.8438"/>
<polygon fill="midnightblue" stroke="midnightblue" points="1439.64,-29.4333 1435.37,-19.7356 1432.66,-29.9775 1439.64,-29.4333"/>
</g>
<!-- Node6 -->
<g id="node6" class="node"><title>Node6</title>
<polygon fill="none" stroke="#bfbfbf" points="891,-56.5 891,-75.5 943,-75.5 943,-56.5 891,-56.5"/>
<text text-anchor="middle" x="917" y="-63.5" font-family="Helvetica,sans-Serif" font-size="10.00">memory</text>
</g>
<!-- Node2&#45;&gt;Node6 -->
<g id="edge5" class="edge"><title>Node2&#45;&gt;Node6</title>
<path fill="none" stroke="midnightblue" d="M803.391,-112.444C825.707,-103.517 860.903,-89.4387 886.208,-79.3168"/>
<polygon fill="midnightblue" stroke="midnightblue" points="887.724,-82.4801 895.709,-75.5164 885.124,-75.9807 887.724,-82.4801"/>
</g>
<!-- Node7 -->
<g id="node7" class="node"><title>Node7</title>
<polygon fill="none" stroke="#bfbfbf" points="961.5,-56.5 961.5,-75.5 1040.5,-75.5 1040.5,-56.5 961.5,-56.5"/>
<text text-anchor="middle" x="1001" y="-63.5" font-family="Helvetica,sans-Serif" font-size="10.00">FairDetector.h</text>
</g>
<!-- Node2&#45;&gt;Node7 -->
<g id="edge6" class="edge"><title>Node2&#45;&gt;Node7</title>
<path fill="none" stroke="midnightblue" d="M816.701,-112.444C854.585,-103.102 915.349,-88.1194 956.662,-77.9326"/>
<polygon fill="midnightblue" stroke="midnightblue" points="957.59,-81.3088 966.461,-75.5164 955.914,-74.5123 957.59,-81.3088"/>
</g>
<!-- Node8 -->
<g id="node8" class="node"><title>Node8</title>
<polygon fill="none" stroke="#bfbfbf" points="1059,-56.5 1059,-75.5 1159,-75.5 1159,-56.5 1059,-56.5"/>
<text text-anchor="middle" x="1109" y="-63.5" font-family="Helvetica,sans-Serif" font-size="10.00">FairRootManager.h</text>
</g>
<!-- Node2&#45;&gt;Node8 -->
<g id="edge7" class="edge"><title>Node2&#45;&gt;Node8</title>
<path fill="none" stroke="midnightblue" d="M833.814,-112.444C892.242,-102.795 987.119,-87.1272 1048.79,-76.9428"/>
<polygon fill="midnightblue" stroke="midnightblue" points="1049.47,-80.3775 1058.77,-75.2948 1048.33,-73.471 1049.47,-80.3775"/>
</g>
<!-- Node2&#45;&gt;Node9 -->
<g id="edge8" class="edge"><title>Node2&#45;&gt;Node9</title>
<path fill="none" stroke="midnightblue" d="M847.912,-113.496C852.678,-112.981 857.412,-112.477 862,-112 1026.23,-94.9224 1069.82,-92.2906 1238.29,-76.0649"/>
<polygon fill="midnightblue" stroke="midnightblue" points="1238.63,-79.5487 1248.25,-75.1043 1237.96,-72.581 1238.63,-79.5487"/>
</g>
<!-- Node10 -->
<g id="node10" class="node"><title>Node10</title>
<polygon fill="none" stroke="#bfbfbf" points="735,-0.5 735,-19.5 791,-19.5 791,-0.5 735,-0.5"/>
<text text-anchor="middle" x="763" y="-7.5" font-family="Helvetica,sans-Serif" font-size="10.00">Rtypes.h</text>
</g>
<!-- Node2&#45;&gt;Node10 -->
<g id="edge13" class="edge"><title>Node2&#45;&gt;Node10</title>
<path fill="none" stroke="midnightblue" d="M780.509,-112.368C777.443,-94.617 770.37,-53.6664 766.212,-29.5974"/>
<polygon fill="midnightblue" stroke="midnightblue" points="769.635,-28.8498 764.484,-19.5914 762.737,-30.0413 769.635,-28.8498"/>
</g>
<!-- Node12 -->
<g id="node12" class="node"><title>Node12</title>
<polygon fill="none" stroke="#bfbfbf" points="1177.5,-56.5 1177.5,-75.5 1230.5,-75.5 1230.5,-56.5 1177.5,-56.5"/>
<text text-anchor="middle" x="1204" y="-63.5" font-family="Helvetica,sans-Serif" font-size="10.00">cxxabi.h</text>
</g>
<!-- Node2&#45;&gt;Node12 -->
<g id="edge14" class="edge"><title>Node2&#45;&gt;Node12</title>
<path fill="none" stroke="midnightblue" d="M847.628,-113.572C944.56,-102.572 1119,-82.6552 1167.25,-75.6769"/>
<polygon fill="midnightblue" stroke="midnightblue" points="1168.02,-79.0986 1177.35,-74.0699 1166.92,-72.1857 1168.02,-79.0986"/>
</g>
<!-- Node13 -->
<g id="node13" class="node"><title>Node13</title>
<polygon fill="none" stroke="#bfbfbf" points="129.5,-56.5 129.5,-75.5 180.5,-75.5 180.5,-56.5 129.5,-56.5"/>
<text text-anchor="middle" x="155" y="-63.5" font-family="Helvetica,sans-Serif" font-size="10.00">typeinfo</text>
</g>
<!-- Node2&#45;&gt;Node13 -->
<g id="edge15" class="edge"><title>Node2&#45;&gt;Node13</title>
<path fill="none" stroke="midnightblue" d="M716.288,-119.77C608.387,-116.924 386.917,-107.617 190.433,-75.7441"/>
<polygon fill="midnightblue" stroke="midnightblue" points="190.939,-72.2805 180.504,-74.1105 189.803,-79.1877 190.939,-72.2805"/>
</g>
<!-- Node14 -->
<g id="node14" class="node"><title>Node14</title>
<polygon fill="none" stroke="#bfbfbf" points="199,-56.5 199,-75.5 261,-75.5 261,-56.5 199,-56.5"/>
<text text-anchor="middle" x="230" y="-63.5" font-family="Helvetica,sans-Serif" font-size="10.00">type_traits</text>
</g>
<!-- Node2&#45;&gt;Node14 -->
<g id="edge16" class="edge"><title>Node2&#45;&gt;Node14</title>
<path fill="none" stroke="midnightblue" d="M716.195,-118.034C620.409,-113.093 436.869,-101.281 271.715,-76.0747"/>
<polygon fill="midnightblue" stroke="midnightblue" points="271.785,-72.5439 261.367,-74.4738 270.714,-79.4616 271.785,-72.5439"/>
</g>
<!-- Node15 -->
<g id="node15" class="node"><title>Node15</title>
<polygon fill="none" stroke="#bfbfbf" points="279.5,-56.5 279.5,-75.5 320.5,-75.5 320.5,-56.5 279.5,-56.5"/>
<text text-anchor="middle" x="300" y="-63.5" font-family="Helvetica,sans-Serif" font-size="10.00">string</text>
</g>
<!-- Node2&#45;&gt;Node15 -->
<g id="edge17" class="edge"><title>Node2&#45;&gt;Node15</title>
<path fill="none" stroke="midnightblue" d="M716.496,-118.64C629.932,-114.604 472.719,-104.099 330.957,-76.0495"/>
<polygon fill="midnightblue" stroke="midnightblue" points="331.273,-72.5428 320.778,-73.9995 329.891,-79.405 331.273,-72.5428"/>
</g>
<!-- Node16 -->
<g id="node16" class="node"><title>Node16</title>
<polygon fill="none" stroke="#bfbfbf" points="338.5,-56.5 338.5,-75.5 431.5,-75.5 431.5,-56.5 338.5,-56.5"/>
<text text-anchor="middle" x="385" y="-63.5" font-family="Helvetica,sans-Serif" font-size="10.00">FairMQChannel.h</text>
</g>
<!-- Node2&#45;&gt;Node16 -->
<g id="edge18" class="edge"><title>Node2&#45;&gt;Node16</title>
<path fill="none" stroke="midnightblue" d="M716.351,-112.983C649.659,-104.697 543.117,-91.0765 441.886,-76.2449"/>
<polygon fill="midnightblue" stroke="midnightblue" points="442.195,-72.7528 431.792,-74.7594 441.176,-79.6782 442.195,-72.7528"/>
</g>
<!-- Node17 -->
<g id="node17" class="node"><title>Node17</title>
<polygon fill="none" stroke="#bfbfbf" points="449.5,-56.5 449.5,-75.5 546.5,-75.5 546.5,-56.5 449.5,-56.5"/>
<text text-anchor="middle" x="498" y="-63.5" font-family="Helvetica,sans-Serif" font-size="10.00">FairMQMessage.h</text>
</g>
<!-- Node2&#45;&gt;Node17 -->
<g id="edge19" class="edge"><title>Node2&#45;&gt;Node17</title>
<path fill="none" stroke="midnightblue" d="M736.999,-112.444C687.041,-102.944 606.399,-87.611 552.801,-77.4198"/>
<polygon fill="midnightblue" stroke="midnightblue" points="553.268,-73.9461 542.79,-75.5164 551.96,-80.8228 553.268,-73.9461"/>
</g>
<!-- Node18 -->
<g id="node18" class="node"><title>Node18</title>
<polygon fill="none" stroke="#bfbfbf" points="565,-56.5 565,-75.5 645,-75.5 645,-56.5 565,-56.5"/>
<text text-anchor="middle" x="605" y="-63.5" font-family="Helvetica,sans-Serif" font-size="10.00">FairMQParts.h</text>
</g>
<!-- Node2&#45;&gt;Node18 -->
<g id="edge20" class="edge"><title>Node2&#45;&gt;Node18</title>
<path fill="none" stroke="midnightblue" d="M753.954,-112.444C723.918,-103.28 676.087,-88.6876 642.757,-78.5192"/>
<polygon fill="midnightblue" stroke="midnightblue" points="643.501,-75.0869 632.915,-75.5164 641.458,-81.7822 643.501,-75.0869"/>
</g>
<!-- Node19 -->
<g id="node19" class="node"><title>Node19</title>
<polygon fill="none" stroke="#bfbfbf" points="663.5,-56.5 663.5,-75.5 734.5,-75.5 734.5,-56.5 663.5,-56.5"/>
<text text-anchor="middle" x="699" y="-63.5" font-family="Helvetica,sans-Serif" font-size="10.00">TMessage.h</text>
</g>
<!-- Node2&#45;&gt;Node19 -->
<g id="edge21" class="edge"><title>Node2&#45;&gt;Node19</title>
<path fill="none" stroke="midnightblue" d="M768.665,-112.324C755.838,-103.979 736.215,-91.2122 721.06,-81.3524"/>
<polygon fill="midnightblue" stroke="midnightblue" points="722.593,-78.1742 712.302,-75.6545 718.776,-84.0417 722.593,-78.1742"/>
</g>
<!-- Node9&#45;&gt;Node3 -->
<g id="edge10" class="edge"><title>Node9&#45;&gt;Node3</title>
<path fill="none" stroke="midnightblue" d="M1285.05,-56.4435C1224.19,-45.1116 1118.75,-25.477 1068.79,-16.1742"/>
<polygon fill="midnightblue" stroke="midnightblue" points="1069.2,-12.6904 1058.73,-14.3006 1067.92,-19.5721 1069.2,-12.6904"/>
</g>
<!-- Node9&#45;&gt;Node5 -->
<g id="edge12" class="edge"><title>Node9&#45;&gt;Node5</title>
<path fill="none" stroke="midnightblue" d="M1347.55,-56.324C1363.99,-47.7034 1389.43,-34.3643 1408.47,-24.3855"/>
<polygon fill="midnightblue" stroke="midnightblue" points="1410.26,-27.3977 1417.49,-19.6545 1407.01,-21.198 1410.26,-27.3977"/>
</g>
<!-- Node9&#45;&gt;Node10 -->
<g id="edge9" class="edge"><title>Node9&#45;&gt;Node10</title>
<path fill="none" stroke="midnightblue" d="M1248.25,-56.892C1245.13,-56.5901 1242.04,-56.2919 1239,-56 1076.3,-40.3514 882.274,-22.1524 801.37,-14.5846"/>
<polygon fill="midnightblue" stroke="midnightblue" points="801.452,-11.0772 791.17,-13.6308 800.8,-18.0468 801.452,-11.0772"/>
</g>
<!-- Node11 -->
<g id="node11" class="node"><title>Node11</title>
<polygon fill="none" stroke="#bfbfbf" points="1289.5,-0.5 1289.5,-19.5 1372.5,-19.5 1372.5,-0.5 1289.5,-0.5"/>
<text text-anchor="middle" x="1331" y="-7.5" font-family="Helvetica,sans-Serif" font-size="10.00">unordered_map</text>
</g>
<!-- Node9&#45;&gt;Node11 -->
<g id="edge11" class="edge"><title>Node9&#45;&gt;Node11</title>
<path fill="none" stroke="midnightblue" d="M1331,-56.083C1331,-49.0059 1331,-38.8611 1331,-29.9865"/>
<polygon fill="midnightblue" stroke="midnightblue" points="1334.5,-29.751 1331,-19.7511 1327.5,-29.7511 1334.5,-29.751"/>
</g>
<!-- Node20&#45;&gt;Node10 -->
<g id="edge25" class="edge"><title>Node20&#45;&gt;Node10</title>
<path fill="none" stroke="midnightblue" d="M100.665,-112.155C100.657,-97.8155 102.971,-69.7188 120,-56 167.096,-18.0599 593.148,-12.1075 724.573,-11.1737"/>
<polygon fill="midnightblue" stroke="midnightblue" points="724.967,-14.6713 734.944,-11.1063 724.921,-7.67149 724.967,-14.6713"/>
</g>
<!-- Node21 -->
<g id="node21" class="node"><title>Node21</title>
<polygon fill="none" stroke="#bfbfbf" points="-0.5,-56.5 -0.5,-75.5 72.5,-75.5 72.5,-56.5 -0.5,-56.5"/>
<text text-anchor="middle" x="36" y="-63.5" font-family="Helvetica,sans-Serif" font-size="10.00">FairModule.h</text>
</g>
<!-- Node20&#45;&gt;Node21 -->
<g id="edge24" class="edge"><title>Node20&#45;&gt;Node21</title>
<path fill="none" stroke="midnightblue" d="M90.5566,-112.324C80.8538,-104.263 66.1847,-92.0765 54.5003,-82.3695"/>
<polygon fill="midnightblue" stroke="midnightblue" points="56.5619,-79.532 46.6334,-75.8339 52.0887,-84.9163 56.5619,-79.532"/>
</g>
</g>
</svg>
