<?xml version="1.0" encoding="UTF-8" standalone="no"?>
<!DOCTYPE svg PUBLIC "-//W3C//DTD SVG 1.1//EN"
 "http://www.w3.org/Graphics/SVG/1.1/DTD/svg11.dtd">
<!-- Generated by graphviz version 2.36.0 (20140111.2315)
 -->
<!-- Title: /home/travis/build/AliceO2Group/AliceO2/Detectors/Base/include/DetectorsBase/Propagator.h Pages: 1 -->
<!--zoomable 470 -->
<svg id="main" version="1.1" xmlns="http://www.w3.org/2000/svg" xmlns:xlink="http://www.w3.org/1999/xlink" xml:space="preserve" onload="init(evt)">
<style type="text/css"><![CDATA[
.edge:hover path { stroke: red; }
.edge:hover polygon { stroke: red; fill: red; }
]]></style>
<script type="text/javascript"><![CDATA[
var edges = document.getElementsByTagName('g');
if (edges && edges.length) {
  for (var i=0;i<edges.length;i++) {
    if (edges[i].id.substr(0,4)=='edge') {
      edges[i].setAttribute('class','edge');
    }
  }
}
]]></script>
        <defs>
                <circle id="rim" cx="0" cy="0" r="7"/>
                <circle id="rim2" cx="0" cy="0" r="3.5"/>
                <g id="zoomPlus">
                        <use xlink:href="#rim" fill="#404040">
                                <set attributeName="fill" to="#808080" begin="zoomplus.mouseover" end="zoomplus.mouseout"/>
                        </use>
                        <path d="M-4,0h8M0,-4v8" fill="none" stroke="white" stroke-width="1.5" pointer-events="none"/>
                </g>
                <g id="zoomMin">
                        <use xlink:href="#rim" fill="#404040">
                                <set attributeName="fill" to="#808080" begin="zoomminus.mouseover" end="zoomminus.mouseout"/>
                        </use>
                        <path d="M-4,0h8" fill="none" stroke="white" stroke-width="1.5" pointer-events="none"/>
                </g>
                <g id="dirArrow">
                        <path fill="none" stroke="white" stroke-width="1.5" d="M0,-3.0v7 M-2.5,-0.5L0,-3.0L2.5,-0.5"/>
                </g>
               <g id="resetDef">
                       <use xlink:href="#rim2" fill="#404040">
                               <set attributeName="fill" to="#808080" begin="reset.mouseover" end="reset.mouseout"/>
                       </use>
               </g>
        </defs>

<script type="text/javascript">
var viewWidth = 2272;
var viewHeight = 470;
var sectionId = 'dynsection-0';
</script>
<script xlink:href="../../svgpan.js"/>
<svg id="graph" class="graph">
<g id="viewport">
<title>/home/travis/build/AliceO2Group/AliceO2/Detectors/Base/include/DetectorsBase/Propagator.h</title>
<!-- Node1 -->
<g id="node1" class="node"><title>Node1</title>
<polygon fill="#bfbfbf" stroke="black" points="1557.5,-409 1557.5,-461 1700.5,-461 1700.5,-409 1557.5,-409"/>
<text text-anchor="start" x="1565.5" y="-449" font-family="Helvetica,sans-Serif" font-size="10.00">/home/travis/build</text>
<text text-anchor="start" x="1565.5" y="-438" font-family="Helvetica,sans-Serif" font-size="10.00">/AliceO2Group/AliceO2</text>
<text text-anchor="start" x="1565.5" y="-427" font-family="Helvetica,sans-Serif" font-size="10.00">/Detectors/Base/include</text>
<text text-anchor="middle" x="1629" y="-416" font-family="Helvetica,sans-Serif" font-size="10.00">/DetectorsBase/Propagator.h</text>
</g>
<!-- Node2 -->
<g id="node2" class="node"><title>Node2</title>
<polygon fill="none" stroke="#bfbfbf" points="1473.5,-346.5 1473.5,-365.5 1514.5,-365.5 1514.5,-346.5 1473.5,-346.5"/>
<text text-anchor="middle" x="1494" y="-353.5" font-family="Helvetica,sans-Serif" font-size="10.00">string</text>
</g>
<!-- Node1&#45;&gt;Node2 -->
<g id="edge1" class="edge"><title>Node1&#45;&gt;Node2</title>
<path fill="none" stroke="midnightblue" d="M1584.8,-408.787C1562.53,-396.088 1536.41,-381.191 1517.92,-370.643"/>
<polygon fill="midnightblue" stroke="midnightblue" points="1519.42,-367.472 1509,-365.558 1515.96,-373.552 1519.42,-367.472"/>
</g>
<!-- Node3 -->
<g id="node3" class="node"><title>Node3</title>
<g id="a_node3"><a xlink:href="../../d3/d9d/PhysicsConstants_8h.html" target="_top" xlink:title="Header to collect physics constants. ">
<polygon fill="none" stroke="black" points="1532.5,-346.5 1532.5,-365.5 1725.5,-365.5 1725.5,-346.5 1532.5,-346.5"/>
<text text-anchor="middle" x="1629" y="-353.5" font-family="Helvetica,sans-Serif" font-size="10.00">CommonConstants/PhysicsConstants.h</text>
</a>
</g>
</g>
<!-- Node1&#45;&gt;Node3 -->
<g id="edge2" class="edge"><title>Node1&#45;&gt;Node3</title>
<path fill="none" stroke="midnightblue" d="M1629,-408.787C1629,-398.069 1629,-385.785 1629,-375.871"/>
<polygon fill="midnightblue" stroke="midnightblue" points="1632.5,-375.558 1629,-365.558 1625.5,-375.558 1632.5,-375.558"/>
</g>
<!-- Node4 -->
<g id="node4" class="node"><title>Node4</title>
<g id="a_node4"><a xlink:href="../../d7/d8b/DataFormats_2Reconstruction_2include_2ReconstructionDataFormats_2Track_8h.html" target="_top" xlink:title="ReconstructionDataFormats\l/Track.h">
<polygon fill="none" stroke="black" points="1744,-341 1744,-371 1884,-371 1884,-341 1744,-341"/>
<text text-anchor="start" x="1752" y="-359" font-family="Helvetica,sans-Serif" font-size="10.00">ReconstructionDataFormats</text>
<text text-anchor="middle" x="1814" y="-348" font-family="Helvetica,sans-Serif" font-size="10.00">/Track.h</text>
</a>
</g>
</g>
<!-- Node1&#45;&gt;Node4 -->
<g id="edge3" class="edge"><title>Node1&#45;&gt;Node4</title>
<path fill="none" stroke="midnightblue" d="M1689.32,-408.894C1715.94,-397.813 1746.63,-385.041 1770.9,-374.941"/>
<polygon fill="midnightblue" stroke="midnightblue" points="1772.31,-378.144 1780.2,-371.07 1769.62,-371.682 1772.31,-378.144"/>
</g>
<!-- Node5 -->
<g id="node5" class="node"><title>Node5</title>
<polygon fill="none" stroke="#bfbfbf" points="1236,-74.5 1236,-93.5 1292,-93.5 1292,-74.5 1236,-74.5"/>
<text text-anchor="middle" x="1264" y="-81.5" font-family="Helvetica,sans-Serif" font-size="10.00">Rtypes.h</text>
</g>
<!-- Node4&#45;&gt;Node5 -->
<g id="edge4" class="edge"><title>Node4&#45;&gt;Node5</title>
<path fill="none" stroke="midnightblue" d="M1743.81,-341.517C1740.5,-340.982 1737.22,-340.473 1734,-340 1620.43,-323.295 1299.12,-326.11 1228,-236 1200.33,-200.939 1201.98,-177.693 1218,-136 1223.4,-121.949 1234.66,-109.353 1244.69,-100.194"/>
<polygon fill="midnightblue" stroke="midnightblue" points="1247.03,-102.797 1252.33,-93.624 1242.47,-97.4891 1247.03,-102.797"/>
</g>
<!-- Node6 -->
<g id="node6" class="node"><title>Node6</title>
<polygon fill="none" stroke="#bfbfbf" points="1880,-278.5 1880,-297.5 1936,-297.5 1936,-278.5 1880,-278.5"/>
<text text-anchor="middle" x="1908" y="-285.5" font-family="Helvetica,sans-Serif" font-size="10.00">algorithm</text>
</g>
<!-- Node4&#45;&gt;Node6 -->
<g id="edge5" class="edge"><title>Node4&#45;&gt;Node6</title>
<path fill="none" stroke="midnightblue" d="M1834.4,-340.679C1850.01,-329.713 1871.48,-314.645 1887.19,-303.609"/>
<polygon fill="midnightblue" stroke="midnightblue" points="1889.52,-306.249 1895.7,-297.638 1885.5,-300.52 1889.52,-306.249"/>
</g>
<!-- Node7 -->
<g id="node7" class="node"><title>Node7</title>
<polygon fill="none" stroke="#bfbfbf" points="1600,-6.5 1600,-25.5 1638,-25.5 1638,-6.5 1600,-6.5"/>
<text text-anchor="middle" x="1619" y="-13.5" font-family="Helvetica,sans-Serif" font-size="10.00">array</text>
</g>
<!-- Node4&#45;&gt;Node7 -->
<g id="edge6" class="edge"><title>Node4&#45;&gt;Node7</title>
<path fill="none" stroke="midnightblue" d="M1778.66,-340.989C1735.45,-321.255 1668,-280.864 1668,-221 1668,-221 1668,-221 1668,-151 1668,-113.055 1661.96,-103.284 1648,-68 1643.33,-56.2084 1636.35,-43.8237 1630.4,-34.2117"/>
<polygon fill="midnightblue" stroke="midnightblue" points="1633.26,-32.188 1624.93,-25.6485 1627.36,-35.959 1633.26,-32.188"/>
</g>
<!-- Node8 -->
<g id="node8" class="node"><title>Node8</title>
<polygon fill="none" stroke="#bfbfbf" points="1954.5,-278.5 1954.5,-297.5 1995.5,-297.5 1995.5,-278.5 1954.5,-278.5"/>
<text text-anchor="middle" x="1975" y="-285.5" font-family="Helvetica,sans-Serif" font-size="10.00">cfloat</text>
</g>
<!-- Node4&#45;&gt;Node8 -->
<g id="edge7" class="edge"><title>Node4&#45;&gt;Node8</title>
<path fill="none" stroke="midnightblue" d="M1852.14,-340.92C1878.22,-331.078 1913.46,-317.357 1944,-304 1945.4,-303.386 1946.84,-302.745 1948.28,-302.088"/>
<polygon fill="midnightblue" stroke="midnightblue" points="1950.17,-305.068 1957.73,-297.646 1947.19,-298.733 1950.17,-305.068"/>
</g>
<!-- Node9 -->
<g id="node9" class="node"><title>Node9</title>
<polygon fill="none" stroke="#bfbfbf" points="1709,-6.5 1709,-25.5 1753,-25.5 1753,-6.5 1709,-6.5"/>
<text text-anchor="middle" x="1731" y="-13.5" font-family="Helvetica,sans-Serif" font-size="10.00">cmath</text>
</g>
<!-- Node4&#45;&gt;Node9 -->
<g id="edge8" class="edge"><title>Node4&#45;&gt;Node9</title>
<path fill="none" stroke="midnightblue" d="M1814,-340.917C1814,-316.502 1814,-264.736 1814,-221 1814,-221 1814,-221 1814,-151 1814,-113.157 1815.15,-100.033 1795,-68 1785.26,-52.5118 1769.12,-39.6996 1755.49,-30.7908"/>
<polygon fill="midnightblue" stroke="midnightblue" points="1757.32,-27.812 1746.98,-25.5113 1753.63,-33.7592 1757.32,-27.812"/>
</g>
<!-- Node10 -->
<g id="node10" class="node"><title>Node10</title>
<polygon fill="none" stroke="#bfbfbf" points="2014,-278.5 2014,-297.5 2060,-297.5 2060,-278.5 2014,-278.5"/>
<text text-anchor="middle" x="2037" y="-285.5" font-family="Helvetica,sans-Serif" font-size="10.00">cstring</text>
</g>
<!-- Node4&#45;&gt;Node10 -->
<g id="edge9" class="edge"><title>Node4&#45;&gt;Node10</title>
<path fill="none" stroke="midnightblue" d="M1876.4,-340.993C1913.86,-331.91 1962.21,-318.992 2004,-304 2005.91,-303.315 2007.86,-302.564 2009.82,-301.775"/>
<polygon fill="midnightblue" stroke="midnightblue" points="2011.61,-304.813 2019.41,-297.641 2008.84,-298.385 2011.61,-304.813"/>
</g>
<!-- Node11 -->
<g id="node11" class="node"><title>Node11</title>
<polygon fill="none" stroke="#bfbfbf" points="53.5,-74.5 53.5,-93.5 98.5,-93.5 98.5,-74.5 53.5,-74.5"/>
<text text-anchor="middle" x="76" y="-81.5" font-family="Helvetica,sans-Serif" font-size="10.00">iosfwd</text>
</g>
<!-- Node4&#45;&gt;Node11 -->
<g id="edge10" class="edge"><title>Node4&#45;&gt;Node11</title>
<path fill="none" stroke="midnightblue" d="M1743.84,-341.313C1740.52,-340.833 1737.23,-340.391 1734,-340 1449.41,-305.513 1374.41,-339.922 1090,-304 781.195,-264.997 707.38,-233.075 403,-168 271.001,-139.779 234.334,-144.79 107,-100 105.139,-99.3453 103.242,-98.6101 101.35,-97.8261"/>
<polygon fill="midnightblue" stroke="midnightblue" points="102.67,-94.5816 92.1166,-93.6455 99.7828,-100.958 102.67,-94.5816"/>
</g>
<!-- Node12 -->
<g id="node12" class="node"><title>Node12</title>
<polygon fill="none" stroke="#bfbfbf" points="2078.5,-278.5 2078.5,-297.5 2161.5,-297.5 2161.5,-278.5 2078.5,-278.5"/>
<text text-anchor="middle" x="2120" y="-285.5" font-family="Helvetica,sans-Serif" font-size="10.00">Math/SMatrix.h</text>
</g>
<!-- Node4&#45;&gt;Node12 -->
<g id="edge11" class="edge"><title>Node4&#45;&gt;Node12</title>
<path fill="none" stroke="midnightblue" d="M1884.18,-342.697C1935.61,-333.261 2006.97,-319.292 2069,-304 2073.46,-302.902 2078.1,-301.664 2082.7,-300.383"/>
<polygon fill="midnightblue" stroke="midnightblue" points="2083.95,-303.667 2092.59,-297.545 2082.02,-296.938 2083.95,-303.667"/>
</g>
<!-- Node13 -->
<g id="node13" class="node"><title>Node13</title>
<polygon fill="none" stroke="#bfbfbf" points="2179.5,-278.5 2179.5,-297.5 2264.5,-297.5 2264.5,-278.5 2179.5,-278.5"/>
<text text-anchor="middle" x="2222" y="-285.5" font-family="Helvetica,sans-Serif" font-size="10.00">Math/SVector.h</text>
</g>
<!-- Node4&#45;&gt;Node13 -->
<g id="edge12" class="edge"><title>Node4&#45;&gt;Node13</title>
<path fill="none" stroke="midnightblue" d="M1884.09,-347.864C1956.25,-339.838 2071.72,-325.109 2170,-304 2175.04,-302.918 2180.3,-301.611 2185.47,-300.225"/>
<polygon fill="midnightblue" stroke="midnightblue" points="2186.51,-303.57 2195.19,-297.502 2184.62,-296.829 2186.51,-303.57"/>
</g>
<!-- Node14 -->
<g id="node14" class="node"><title>Node14</title>
<g id="a_node14"><a xlink:href="../../d6/d84/MathConstants_8h.html" target="_top" xlink:title="useful math constants ">
<polygon fill="none" stroke="black" points="1771.5,-6.5 1771.5,-25.5 1950.5,-25.5 1950.5,-6.5 1771.5,-6.5"/>
<text text-anchor="middle" x="1861" y="-13.5" font-family="Helvetica,sans-Serif" font-size="10.00">CommonConstants/MathConstants.h</text>
</a>
</g>
</g>
<!-- Node4&#45;&gt;Node14 -->
<g id="edge13" class="edge"><title>Node4&#45;&gt;Node14</title>
<path fill="none" stroke="midnightblue" d="M1820.79,-340.899C1831.72,-316.876 1852,-266.219 1852,-221 1852,-221 1852,-221 1852,-151 1852,-109.954 1856.26,-61.9948 1858.91,-36.0394"/>
<polygon fill="midnightblue" stroke="midnightblue" points="1862.43,-36.0791 1860,-25.7661 1855.47,-35.3418 1862.43,-36.0791"/>
</g>
<!-- Node15 -->
<g id="node15" class="node"><title>Node15</title>
<g id="a_node15"><a xlink:href="../../dd/d76/Cartesian3D_8h.html" target="_top" xlink:title="MathUtils/Cartesian3D.h">
<polygon fill="none" stroke="black" points="893.5,-142.5 893.5,-161.5 1018.5,-161.5 1018.5,-142.5 893.5,-142.5"/>
<text text-anchor="middle" x="956" y="-149.5" font-family="Helvetica,sans-Serif" font-size="10.00">MathUtils/Cartesian3D.h</text>
</a>
</g>
</g>
<!-- Node4&#45;&gt;Node15 -->
<g id="edge14" class="edge"><title>Node4&#45;&gt;Node15</title>
<path fill="none" stroke="midnightblue" d="M1743.84,-341.338C1740.52,-340.851 1737.23,-340.401 1734,-340 1605.85,-324.07 1275.01,-349.1 1154,-304 1074.79,-274.479 1001.08,-201.966 970.667,-169.355"/>
<polygon fill="midnightblue" stroke="midnightblue" points="972.918,-166.632 963.579,-161.628 967.759,-171.363 972.918,-166.632"/>
</g>
<!-- Node25 -->
<g id="node25" class="node"><title>Node25</title>
<g id="a_node25"><a xlink:href="../../d9/d52/Common_2MathUtils_2include_2MathUtils_2Utils_8h.html" target="_top" xlink:title="MathUtils/Utils.h">
<polygon fill="none" stroke="black" points="1696,-74.5 1696,-93.5 1786,-93.5 1786,-74.5 1696,-74.5"/>
<text text-anchor="middle" x="1741" y="-81.5" font-family="Helvetica,sans-Serif" font-size="10.00">MathUtils/Utils.h</text>
</a>
</g>
</g>
<!-- Node4&#45;&gt;Node25 -->
<g id="edge26" class="edge"><title>Node4&#45;&gt;Node25</title>
<path fill="none" stroke="midnightblue" d="M1810.06,-340.716C1807.24,-330.494 1803.37,-316.404 1800,-304 1779.87,-229.966 1756.2,-141.764 1746.05,-103.848"/>
<polygon fill="midnightblue" stroke="midnightblue" points="1749.31,-102.521 1743.35,-93.7665 1742.55,-104.332 1749.31,-102.521"/>
</g>
<!-- Node26 -->
<g id="node26" class="node"><title>Node26</title>
<g id="a_node26"><a xlink:href="../../d4/de2/BaseCluster_8h.html" target="_top" xlink:title="ReconstructionDataFormats\l/BaseCluster.h">
<polygon fill="none" stroke="black" points="1407,-273 1407,-303 1547,-303 1547,-273 1407,-273"/>
<text text-anchor="start" x="1415" y="-291" font-family="Helvetica,sans-Serif" font-size="10.00">ReconstructionDataFormats</text>
<text text-anchor="middle" x="1477" y="-280" font-family="Helvetica,sans-Serif" font-size="10.00">/BaseCluster.h</text>
</a>
</g>
</g>
<!-- Node4&#45;&gt;Node26 -->
<g id="edge30" class="edge"><title>Node4&#45;&gt;Node26</title>
<path fill="none" stroke="midnightblue" d="M1743.76,-341.245C1689.35,-330.589 1613.93,-315.817 1557.16,-304.699"/>
<polygon fill="midnightblue" stroke="midnightblue" points="1557.63,-301.225 1547.15,-302.738 1556.29,-308.094 1557.63,-301.225"/>
</g>
<!-- Node15&#45;&gt;Node5 -->
<g id="edge20" class="edge"><title>Node15&#45;&gt;Node5</title>
<path fill="none" stroke="midnightblue" d="M1018.72,-142.818C1074.19,-134.729 1156.95,-120.568 1227,-100 1229.81,-99.1762 1232.69,-98.2165 1235.55,-97.1882"/>
<polygon fill="midnightblue" stroke="midnightblue" points="1236.98,-100.389 1245.05,-93.5249 1234.46,-93.8575 1236.98,-100.389"/>
</g>
<!-- Node15&#45;&gt;Node11 -->
<g id="edge22" class="edge"><title>Node15&#45;&gt;Node11</title>
<path fill="none" stroke="midnightblue" d="M918.184,-142.494C905.762,-140.006 891.846,-137.542 879,-136 708.483,-115.526 273.461,-142.262 107,-100 104.653,-99.4041 102.273,-98.6214 99.9285,-97.7258"/>
<polygon fill="midnightblue" stroke="midnightblue" points="101.231,-94.4743 90.672,-93.5987 98.3801,-100.868 101.231,-94.4743"/>
</g>
<!-- Node16 -->
<g id="node16" class="node"><title>Node16</title>
<polygon fill="none" stroke="#bfbfbf" points="259.5,-69 259.5,-99 410.5,-99 410.5,-69 259.5,-69"/>
<text text-anchor="start" x="267.5" y="-87" font-family="Helvetica,sans-Serif" font-size="10.00">Math/GenVector/Displacement</text>
<text text-anchor="middle" x="335" y="-76" font-family="Helvetica,sans-Serif" font-size="10.00">Vector3D.h</text>
</g>
<!-- Node15&#45;&gt;Node16 -->
<g id="edge15" class="edge"><title>Node15&#45;&gt;Node16</title>
<path fill="none" stroke="midnightblue" d="M916.576,-142.423C904.56,-140.051 891.28,-137.672 879,-136 679.512,-108.837 624.747,-125.261 421.073,-100.048"/>
<polygon fill="midnightblue" stroke="midnightblue" points="421.303,-96.55 410.945,-98.7758 420.43,-103.495 421.303,-96.55"/>
</g>
<!-- Node17 -->
<g id="node17" class="node"><title>Node17</title>
<polygon fill="none" stroke="#bfbfbf" points="429,-74.5 429,-93.5 605,-93.5 605,-74.5 429,-74.5"/>
<text text-anchor="middle" x="517" y="-81.5" font-family="Helvetica,sans-Serif" font-size="10.00">Math/GenVector/PositionVector3D.h</text>
</g>
<!-- Node15&#45;&gt;Node17 -->
<g id="edge16" class="edge"><title>Node15&#45;&gt;Node17</title>
<path fill="none" stroke="midnightblue" d="M914.519,-142.463C903.038,-140.224 890.557,-137.906 879,-136 761.29,-116.586 731.052,-117.209 613,-100 602.392,-98.4536 591.136,-96.7507 580.206,-95.0642"/>
<polygon fill="midnightblue" stroke="midnightblue" points="580.707,-91.6001 570.288,-93.525 579.633,-98.5173 580.707,-91.6001"/>
</g>
<!-- Node18 -->
<g id="node18" class="node"><title>Node18</title>
<polygon fill="none" stroke="#bfbfbf" points="622.5,-74.5 622.5,-93.5 771.5,-93.5 771.5,-74.5 622.5,-74.5"/>
<text text-anchor="middle" x="697" y="-81.5" font-family="Helvetica,sans-Serif" font-size="10.00">Math/GenVector/Rotation3D.h</text>
</g>
<!-- Node15&#45;&gt;Node18 -->
<g id="edge17" class="edge"><title>Node15&#45;&gt;Node18</title>
<path fill="none" stroke="midnightblue" d="M922.406,-142.439C875.826,-130.57 791.585,-109.103 740.326,-96.0406"/>
<polygon fill="midnightblue" stroke="midnightblue" points="741.089,-92.6233 730.535,-93.5455 739.361,-99.4066 741.089,-92.6233"/>
</g>
<!-- Node19 -->
<g id="node19" class="node"><title>Node19</title>
<polygon fill="none" stroke="#bfbfbf" points="790,-74.5 790,-93.5 946,-93.5 946,-74.5 790,-74.5"/>
<text text-anchor="middle" x="868" y="-81.5" font-family="Helvetica,sans-Serif" font-size="10.00">Math/GenVector/Transform3D.h</text>
</g>
<!-- Node15&#45;&gt;Node19 -->
<g id="edge18" class="edge"><title>Node15&#45;&gt;Node19</title>
<path fill="none" stroke="midnightblue" d="M944.496,-142.372C930.134,-131.6 905.336,-113.002 887.875,-99.9065"/>
<polygon fill="midnightblue" stroke="midnightblue" points="889.607,-96.8305 879.507,-93.6305 885.407,-102.431 889.607,-96.8305"/>
</g>
<!-- Node20 -->
<g id="node20" class="node"><title>Node20</title>
<polygon fill="none" stroke="#bfbfbf" points="964,-74.5 964,-93.5 1124,-93.5 1124,-74.5 964,-74.5"/>
<text text-anchor="middle" x="1044" y="-81.5" font-family="Helvetica,sans-Serif" font-size="10.00">Math/GenVector/Translation3D.h</text>
</g>
<!-- Node15&#45;&gt;Node20 -->
<g id="edge19" class="edge"><title>Node15&#45;&gt;Node20</title>
<path fill="none" stroke="midnightblue" d="M967.504,-142.372C981.866,-131.6 1006.66,-113.002 1024.12,-99.9065"/>
<polygon fill="midnightblue" stroke="midnightblue" points="1026.59,-102.431 1032.49,-93.6305 1022.39,-96.8305 1026.59,-102.431"/>
</g>
<!-- Node21 -->
<g id="node21" class="node"><title>Node21</title>
<polygon fill="none" stroke="#bfbfbf" points="1142,-74.5 1142,-93.5 1218,-93.5 1218,-74.5 1142,-74.5"/>
<text text-anchor="middle" x="1180" y="-81.5" font-family="Helvetica,sans-Serif" font-size="10.00">TGeoMatrix.h</text>
</g>
<!-- Node15&#45;&gt;Node21 -->
<g id="edge21" class="edge"><title>Node15&#45;&gt;Node21</title>
<path fill="none" stroke="midnightblue" d="M986.775,-142.419C1022.14,-132.49 1081.9,-115.514 1133,-100 1136.57,-98.9161 1140.29,-97.7668 1144,-96.6057"/>
<polygon fill="midnightblue" stroke="midnightblue" points="1145.21,-99.8922 1153.69,-93.5413 1143.1,-93.2175 1145.21,-99.8922"/>
</g>
<!-- Node22 -->
<g id="node22" class="node"><title>Node22</title>
<g id="a_node22"><a xlink:href="../../d2/dd0/Cartesian2D_8h.html" target="_top" xlink:title="MathUtils/Cartesian2D.h">
<polygon fill="none" stroke="black" points="116.5,-74.5 116.5,-93.5 241.5,-93.5 241.5,-74.5 116.5,-74.5"/>
<text text-anchor="middle" x="179" y="-81.5" font-family="Helvetica,sans-Serif" font-size="10.00">MathUtils/Cartesian2D.h</text>
</a>
</g>
</g>
<!-- Node15&#45;&gt;Node22 -->
<g id="edge23" class="edge"><title>Node15&#45;&gt;Node22</title>
<path fill="none" stroke="midnightblue" d="M917.781,-142.496C905.458,-140.039 891.703,-137.593 879,-136 601.164,-101.15 527.552,-137.046 250,-100 241.563,-98.8739 232.634,-97.2974 224.06,-95.5867"/>
<polygon fill="midnightblue" stroke="midnightblue" points="224.713,-92.1476 214.21,-93.5358 223.286,-99.0007 224.713,-92.1476"/>
</g>
<!-- Node23 -->
<g id="node23" class="node"><title>Node23</title>
<polygon fill="none" stroke="#bfbfbf" points="194.5,-1 194.5,-31 345.5,-31 345.5,-1 194.5,-1"/>
<text text-anchor="start" x="202.5" y="-19" font-family="Helvetica,sans-Serif" font-size="10.00">Math/GenVector/Displacement</text>
<text text-anchor="middle" x="270" y="-8" font-family="Helvetica,sans-Serif" font-size="10.00">Vector2D.h</text>
</g>
<!-- Node22&#45;&gt;Node23 -->
<g id="edge24" class="edge"><title>Node22&#45;&gt;Node23</title>
<path fill="none" stroke="midnightblue" d="M190.897,-74.3717C203.779,-65.0286 224.78,-49.7966 241.907,-37.375"/>
<polygon fill="midnightblue" stroke="midnightblue" points="244.407,-39.8859 250.447,-31.1815 240.297,-34.2194 244.407,-39.8859"/>
</g>
<!-- Node24 -->
<g id="node24" class="node"><title>Node24</title>
<polygon fill="none" stroke="#bfbfbf" points="0,-6.5 0,-25.5 176,-25.5 176,-6.5 0,-6.5"/>
<text text-anchor="middle" x="88" y="-13.5" font-family="Helvetica,sans-Serif" font-size="10.00">Math/GenVector/PositionVector2D.h</text>
</g>
<!-- Node22&#45;&gt;Node24 -->
<g id="edge25" class="edge"><title>Node22&#45;&gt;Node24</title>
<path fill="none" stroke="midnightblue" d="M167.103,-74.3717C152.116,-63.5015 126.138,-44.6602 108.058,-31.5474"/>
<polygon fill="midnightblue" stroke="midnightblue" points="110.05,-28.6684 99.8996,-25.6305 105.94,-34.3349 110.05,-28.6684"/>
</g>
<!-- Node25&#45;&gt;Node7 -->
<g id="edge27" class="edge"><title>Node25&#45;&gt;Node7</title>
<path fill="none" stroke="midnightblue" d="M1725.05,-74.3717C1704.41,-63.2051 1668.22,-43.6266 1643.93,-30.4876"/>
<polygon fill="midnightblue" stroke="midnightblue" points="1645.41,-27.3103 1634.95,-25.6305 1642.08,-33.4671 1645.41,-27.3103"/>
</g>
<!-- Node25&#45;&gt;Node9 -->
<g id="edge28" class="edge"><title>Node25&#45;&gt;Node9</title>
<path fill="none" stroke="midnightblue" d="M1739.69,-74.3717C1738.22,-64.6426 1735.78,-48.528 1733.86,-35.8504"/>
<polygon fill="midnightblue" stroke="midnightblue" points="1737.3,-35.2039 1732.34,-25.8411 1730.38,-36.2526 1737.3,-35.2039"/>
</g>
<!-- Node25&#45;&gt;Node14 -->
<g id="edge29" class="edge"><title>Node25&#45;&gt;Node14</title>
<path fill="none" stroke="midnightblue" d="M1756.69,-74.3717C1776.99,-63.2051 1812.59,-43.6266 1836.48,-30.4876"/>
<polygon fill="midnightblue" stroke="midnightblue" points="1838.23,-33.5165 1845.31,-25.6305 1834.86,-27.3829 1838.23,-33.5165"/>
</g>
<!-- Node26&#45;&gt;Node11 -->
<g id="edge35" class="edge"><title>Node26&#45;&gt;Node11</title>
<path fill="none" stroke="midnightblue" d="M1406.68,-277.202C1333.18,-266.954 1214.49,-250.388 1112,-236 796.86,-191.759 718.521,-177.434 403,-136 271.603,-118.745 234.148,-137.368 107,-100 104.809,-99.3562 102.583,-98.5707 100.379,-97.7001"/>
<polygon fill="midnightblue" stroke="midnightblue" points="101.609,-94.4159 91.0527,-93.5142 98.7428,-100.802 101.609,-94.4159"/>
</g>
<!-- Node26&#45;&gt;Node15 -->
<g id="edge50" class="edge"><title>Node26&#45;&gt;Node15</title>
<path fill="none" stroke="midnightblue" d="M1406.83,-274.457C1356.73,-265.055 1287.87,-251.23 1228,-236 1141.87,-214.091 1042.39,-181.958 990.912,-164.809"/>
<polygon fill="midnightblue" stroke="midnightblue" points="991.869,-161.439 981.275,-161.587 989.649,-168.077 991.869,-161.439"/>
</g>
<!-- Node27 -->
<g id="node27" class="node"><title>Node27</title>
<polygon fill="none" stroke="#bfbfbf" points="1411.5,-210.5 1411.5,-229.5 1470.5,-229.5 1470.5,-210.5 1411.5,-210.5"/>
<text text-anchor="middle" x="1441" y="-217.5" font-family="Helvetica,sans-Serif" font-size="10.00">TObject.h</text>
</g>
<!-- Node26&#45;&gt;Node27 -->
<g id="edge31" class="edge"><title>Node26&#45;&gt;Node27</title>
<path fill="none" stroke="midnightblue" d="M1469.19,-272.679C1463.74,-262.694 1456.44,-249.307 1450.63,-238.66"/>
<polygon fill="midnightblue" stroke="midnightblue" points="1453.68,-236.931 1445.82,-229.828 1447.53,-240.283 1453.68,-236.931"/>
</g>
<!-- Node28 -->
<g id="node28" class="node"><title>Node28</title>
<polygon fill="none" stroke="#bfbfbf" points="1598.5,-74.5 1598.5,-93.5 1639.5,-93.5 1639.5,-74.5 1598.5,-74.5"/>
<text text-anchor="middle" x="1619" y="-81.5" font-family="Helvetica,sans-Serif" font-size="10.00">bitset</text>
</g>
<!-- Node26&#45;&gt;Node28 -->
<g id="edge32" class="edge"><title>Node26&#45;&gt;Node28</title>
<path fill="none" stroke="midnightblue" d="M1539.8,-272.904C1560.31,-265.266 1581.31,-253.628 1595,-236 1625.31,-196.959 1624.23,-134.821 1621.38,-103.843"/>
<polygon fill="midnightblue" stroke="midnightblue" points="1624.83,-103.171 1620.27,-93.6094 1617.87,-103.93 1624.83,-103.171"/>
</g>
<!-- Node29 -->
<g id="node29" class="node"><title>Node29</title>
<polygon fill="none" stroke="#bfbfbf" points="1489,-210.5 1489,-229.5 1539,-229.5 1539,-210.5 1489,-210.5"/>
<text text-anchor="middle" x="1514" y="-217.5" font-family="Helvetica,sans-Serif" font-size="10.00">iomanip</text>
</g>
<!-- Node26&#45;&gt;Node29 -->
<g id="edge33" class="edge"><title>Node26&#45;&gt;Node29</title>
<path fill="none" stroke="midnightblue" d="M1485.03,-272.679C1490.63,-262.694 1498.13,-249.307 1504.1,-238.66"/>
<polygon fill="midnightblue" stroke="midnightblue" points="1507.21,-240.263 1509.05,-229.828 1501.11,-236.84 1507.21,-240.263"/>
</g>
<!-- Node30 -->
<g id="node30" class="node"><title>Node30</title>
<polygon fill="none" stroke="#bfbfbf" points="1557.5,-210.5 1557.5,-229.5 1586.5,-229.5 1586.5,-210.5 1557.5,-210.5"/>
<text text-anchor="middle" x="1572" y="-217.5" font-family="Helvetica,sans-Serif" font-size="10.00">ios</text>
</g>
<!-- Node26&#45;&gt;Node30 -->
<g id="edge34" class="edge"><title>Node26&#45;&gt;Node30</title>
<path fill="none" stroke="midnightblue" d="M1497.61,-272.679C1513.4,-261.713 1535.09,-246.645 1550.97,-235.609"/>
<polygon fill="midnightblue" stroke="midnightblue" points="1553.35,-238.218 1559.57,-229.638 1549.36,-232.469 1553.35,-238.218"/>
</g>
<!-- Node31 -->
<g id="node31" class="node"><title>Node31</title>
<g id="a_node31"><a xlink:href="../../d4/d20/DetMatrixCache_8h.html" target="_top" xlink:title="DetectorsCommonDataFormats\l/DetMatrixCache.h">
<polygon fill="none" stroke="black" points="1237,-205 1237,-235 1393,-235 1393,-205 1237,-205"/>
<text text-anchor="start" x="1245" y="-223" font-family="Helvetica,sans-Serif" font-size="10.00">DetectorsCommonDataFormats</text>
<text text-anchor="middle" x="1315" y="-212" font-family="Helvetica,sans-Serif" font-size="10.00">/DetMatrixCache.h</text>
</a>
</g>
</g>
<!-- Node26&#45;&gt;Node31 -->
<g id="edge36" class="edge"><title>Node26&#45;&gt;Node31</title>
<path fill="none" stroke="midnightblue" d="M1442.25,-272.841C1417.82,-262.89 1384.96,-249.5 1358.74,-238.822"/>
<polygon fill="midnightblue" stroke="midnightblue" points="1360,-235.554 1349.42,-235.022 1357.36,-242.036 1360,-235.554"/>
</g>
<!-- Node31&#45;&gt;Node5 -->
<g id="edge49" class="edge"><title>Node31&#45;&gt;Node5</title>
<path fill="none" stroke="midnightblue" d="M1271.23,-204.911C1253.96,-196.963 1235.91,-185.103 1226,-168 1213.03,-145.611 1232.06,-118.017 1247.55,-100.965"/>
<polygon fill="midnightblue" stroke="midnightblue" points="1250.31,-103.146 1254.71,-93.5108 1245.26,-98.296 1250.31,-103.146"/>
</g>
<!-- Node31&#45;&gt;Node7 -->
<g id="edge38" class="edge"><title>Node31&#45;&gt;Node7</title>
<path fill="none" stroke="midnightblue" d="M1387.92,-204.972C1454.87,-191.827 1544.65,-173.413 1551,-168 1587.31,-137.054 1569.49,-111.07 1590,-68 1595.45,-56.551 1602.46,-44.1757 1608.22,-34.4829"/>
<polygon fill="midnightblue" stroke="midnightblue" points="1611.28,-36.1858 1613.46,-25.8179 1605.29,-32.5627 1611.28,-36.1858"/>
</g>
<!-- Node31&#45;&gt;Node15 -->
<g id="edge48" class="edge"><title>Node31&#45;&gt;Node15</title>
<path fill="none" stroke="midnightblue" d="M1238.43,-204.922C1170.68,-192.468 1073.4,-174.583 1012.5,-163.387"/>
<polygon fill="midnightblue" stroke="midnightblue" points="1012.78,-159.88 1002.31,-161.514 1011.51,-166.764 1012.78,-159.88"/>
</g>
<!-- Node32 -->
<g id="node32" class="node"><title>Node32</title>
<polygon fill="none" stroke="#bfbfbf" points="1234.5,-142.5 1234.5,-161.5 1305.5,-161.5 1305.5,-142.5 1234.5,-142.5"/>
<text text-anchor="middle" x="1270" y="-149.5" font-family="Helvetica,sans-Serif" font-size="10.00">FairLogger.h</text>
</g>
<!-- Node31&#45;&gt;Node32 -->
<g id="edge37" class="edge"><title>Node31&#45;&gt;Node32</title>
<path fill="none" stroke="midnightblue" d="M1305.24,-204.679C1298.36,-194.592 1289.11,-181.033 1281.82,-170.335"/>
<polygon fill="midnightblue" stroke="midnightblue" points="1284.54,-168.119 1276.02,-161.828 1278.76,-172.062 1284.54,-168.119"/>
</g>
<!-- Node33 -->
<g id="node33" class="node"><title>Node33</title>
<polygon fill="none" stroke="#bfbfbf" points="1324,-142.5 1324,-161.5 1368,-161.5 1368,-142.5 1324,-142.5"/>
<text text-anchor="middle" x="1346" y="-149.5" font-family="Helvetica,sans-Serif" font-size="10.00">vector</text>
</g>
<!-- Node31&#45;&gt;Node33 -->
<g id="edge39" class="edge"><title>Node31&#45;&gt;Node33</title>
<path fill="none" stroke="midnightblue" d="M1321.73,-204.679C1326.37,-194.796 1332.58,-181.579 1337.55,-170.986"/>
<polygon fill="midnightblue" stroke="midnightblue" points="1340.77,-172.368 1341.85,-161.828 1334.43,-169.392 1340.77,-172.368"/>
</g>
<!-- Node34 -->
<g id="node34" class="node"><title>Node34</title>
<g id="a_node34"><a xlink:href="../../d6/d31/DetID_8h.html" target="_top" xlink:title="DetectorsCommonDataFormats\l/DetID.h">
<polygon fill="none" stroke="black" points="1386,-137 1386,-167 1542,-167 1542,-137 1386,-137"/>
<text text-anchor="start" x="1394" y="-155" font-family="Helvetica,sans-Serif" font-size="10.00">DetectorsCommonDataFormats</text>
<text text-anchor="middle" x="1464" y="-144" font-family="Helvetica,sans-Serif" font-size="10.00">/DetID.h</text>
</a>
</g>
</g>
<!-- Node31&#45;&gt;Node34 -->
<g id="edge40" class="edge"><title>Node31&#45;&gt;Node34</title>
<path fill="none" stroke="midnightblue" d="M1346.96,-204.841C1369.23,-194.977 1399.13,-181.735 1423.13,-171.104"/>
<polygon fill="midnightblue" stroke="midnightblue" points="1424.62,-174.272 1432.34,-167.022 1421.78,-167.872 1424.62,-174.272"/>
</g>
<!-- Node34&#45;&gt;Node5 -->
<g id="edge41" class="edge"><title>Node34&#45;&gt;Node5</title>
<path fill="none" stroke="midnightblue" d="M1419.27,-136.966C1387.57,-126.921 1344.07,-112.939 1306,-100 1303.09,-99.0104 1300.07,-97.9668 1297.05,-96.9097"/>
<polygon fill="midnightblue" stroke="midnightblue" points="1298.1,-93.569 1287.5,-93.5373 1295.76,-100.169 1298.1,-93.569"/>
</g>
<!-- Node34&#45;&gt;Node7 -->
<g id="edge42" class="edge"><title>Node34&#45;&gt;Node7</title>
<path fill="none" stroke="midnightblue" d="M1408.9,-136.914C1364.41,-122.891 1313.13,-99.0037 1339,-68 1370.71,-29.994 1524.28,-20.2394 1589.55,-17.7943"/>
<polygon fill="midnightblue" stroke="midnightblue" points="1589.72,-21.2907 1599.59,-17.4503 1589.48,-14.2948 1589.72,-21.2907"/>
</g>
<!-- Node34&#45;&gt;Node25 -->
<g id="edge47" class="edge"><title>Node34&#45;&gt;Node25</title>
<path fill="none" stroke="midnightblue" d="M1523.08,-136.922C1574.6,-124.648 1648.25,-107.099 1695.35,-95.8772"/>
<polygon fill="midnightblue" stroke="midnightblue" points="1696.35,-99.2363 1705.27,-93.5138 1694.73,-92.4269 1696.35,-99.2363"/>
</g>
<!-- Node34&#45;&gt;Node28 -->
<g id="edge43" class="edge"><title>Node34&#45;&gt;Node28</title>
<path fill="none" stroke="midnightblue" d="M1497.25,-136.841C1524.54,-125.221 1562.84,-108.912 1589.16,-97.7063"/>
<polygon fill="midnightblue" stroke="midnightblue" points="1590.78,-100.82 1598.61,-93.6819 1588.04,-94.3794 1590.78,-100.82"/>
</g>
<!-- Node35 -->
<g id="node35" class="node"><title>Node35</title>
<polygon fill="none" stroke="#bfbfbf" points="1428.5,-74.5 1428.5,-93.5 1477.5,-93.5 1477.5,-74.5 1428.5,-74.5"/>
<text text-anchor="middle" x="1453" y="-81.5" font-family="Helvetica,sans-Serif" font-size="10.00">cassert</text>
</g>
<!-- Node34&#45;&gt;Node35 -->
<g id="edge44" class="edge"><title>Node34&#45;&gt;Node35</title>
<path fill="none" stroke="midnightblue" d="M1461.61,-136.679C1460.02,-127.101 1457.9,-114.394 1456.16,-103.977"/>
<polygon fill="midnightblue" stroke="midnightblue" points="1459.57,-103.117 1454.47,-93.8283 1452.66,-104.268 1459.57,-103.117"/>
</g>
<!-- Node36 -->
<g id="node36" class="node"><title>Node36</title>
<polygon fill="none" stroke="#bfbfbf" points="1496,-74.5 1496,-93.5 1542,-93.5 1542,-74.5 1496,-74.5"/>
<text text-anchor="middle" x="1519" y="-81.5" font-family="Helvetica,sans-Serif" font-size="10.00">cstdint</text>
</g>
<!-- Node34&#45;&gt;Node36 -->
<g id="edge45" class="edge"><title>Node34&#45;&gt;Node36</title>
<path fill="none" stroke="midnightblue" d="M1475.93,-136.679C1484.51,-126.388 1496.1,-112.484 1505.09,-101.69"/>
<polygon fill="midnightblue" stroke="midnightblue" points="1507.93,-103.751 1511.64,-93.8283 1502.55,-99.2699 1507.93,-103.751"/>
</g>
<!-- Node37 -->
<g id="node37" class="node"><title>Node37</title>
<polygon fill="none" stroke="#bfbfbf" points="1348,-74.5 1348,-93.5 1410,-93.5 1410,-74.5 1348,-74.5"/>
<text text-anchor="middle" x="1379" y="-81.5" font-family="Helvetica,sans-Serif" font-size="10.00">type_traits</text>
</g>
<!-- Node34&#45;&gt;Node37 -->
<g id="edge46" class="edge"><title>Node34&#45;&gt;Node37</title>
<path fill="none" stroke="midnightblue" d="M1445.56,-136.679C1431.65,-125.879 1412.61,-111.098 1398.46,-100.11"/>
<polygon fill="midnightblue" stroke="midnightblue" points="1400.41,-97.1968 1390.37,-93.8283 1396.12,-102.726 1400.41,-97.1968"/>
</g>
</g>
</svg>
        <g id="navigator" transform="translate(0 0)" fill="#404254">
                <rect fill="#f2f5e9" fill-opacity="0.5" stroke="#606060" stroke-width=".5" x="0" y="0" width="60" height="60"/>
                <use id="zoomplus" xlink:href="#zoomPlus" x="17" y="9" onmousedown="handleZoom(evt,'in')"/>
                <use id="zoomminus" xlink:href="#zoomMin" x="42" y="9" onmousedown="handleZoom(evt,'out')"/>
                <use id="reset" xlink:href="#resetDef" x="30" y="36" onmousedown="handleReset()"/>
                <g id="arrowUp" xlink:href="#dirArrow" transform="translate(30 24)" onmousedown="handlePan(0,-1)">
                  <use xlink:href="#rim" fill="#404040">
                        <set attributeName="fill" to="#808080" begin="arrowUp.mouseover" end="arrowUp.mouseout"/>
                  </use>
                  <path fill="none" stroke="white" stroke-width="1.5" d="M0,-3.0v7 M-2.5,-0.5L0,-3.0L2.5,-0.5"/>
                </g>
                <g id="arrowRight" xlink:href="#dirArrow" transform="rotate(90) translate(36 -43)" onmousedown="handlePan(1,0)">
                  <use xlink:href="#rim" fill="#404040">
                        <set attributeName="fill" to="#808080" begin="arrowRight.mouseover" end="arrowRight.mouseout"/>
                  </use>
                  <path fill="none" stroke="white" stroke-width="1.5" d="M0,-3.0v7 M-2.5,-0.5L0,-3.0L2.5,-0.5"/>
                </g>
                <g id="arrowDown" xlink:href="#dirArrow" transform="rotate(180) translate(-30 -48)" onmousedown="handlePan(0,1)">
                  <use xlink:href="#rim" fill="#404040">
                        <set attributeName="fill" to="#808080" begin="arrowDown.mouseover" end="arrowDown.mouseout"/>
                  </use>
                  <path fill="none" stroke="white" stroke-width="1.5" d="M0,-3.0v7 M-2.5,-0.5L0,-3.0L2.5,-0.5"/>
                </g>
                <g id="arrowLeft" xlink:href="#dirArrow" transform="rotate(270) translate(-36 17)" onmousedown="handlePan(-1,0)">
                  <use xlink:href="#rim" fill="#404040">
                        <set attributeName="fill" to="#808080" begin="arrowLeft.mouseover" end="arrowLeft.mouseout"/>
                  </use>
                  <path fill="none" stroke="white" stroke-width="1.5" d="M0,-3.0v7 M-2.5,-0.5L0,-3.0L2.5,-0.5"/>
                </g>
        </g>
        <svg viewBox="0 0 15 15" width="100%" height="30px" preserveAspectRatio="xMaxYMin meet">
         <g id="arrow_out" transform="scale(0.3 0.3)">
          <a xlink:href="Propagator_8h__incl_org.svg" target="_base">
           <rect id="button" ry="5" rx="5" y="6" x="6" height="38" width="38"
                fill="#f2f5e9" fill-opacity="0.5" stroke="#606060" stroke-width="1.0"/>
           <path id="arrow"
             d="M 11.500037,31.436501 C 11.940474,20.09759 22.043105,11.32322 32.158766,21.979434 L 37.068811,17.246167 C 37.068811,17.246167 37.088388,32 37.088388,32 L 22.160133,31.978069 C 22.160133,31.978069 26.997745,27.140456 26.997745,27.140456 C 18.528582,18.264221 13.291696,25.230495 11.500037,31.436501 z"
             style="fill:#404040;"/>
          </a>
         </g>
        </svg>
</svg>
