<?xml version="1.0" encoding="UTF-8" standalone="no"?>
<!DOCTYPE svg PUBLIC "-//W3C//DTD SVG 1.1//EN"
 "http://www.w3.org/Graphics/SVG/1.1/DTD/svg11.dtd">
<!-- Generated by graphviz version 2.36.0 (20140111.2315)
 -->
<!-- Title: /home/travis/build/AliceO2Group/AliceO2/Detectors/MUON/MCH/Simulation/include/MCHSimulation/Detector.h Pages: 1 -->
<svg width="1834pt" height="378pt"
 viewBox="0.00 0.00 1834.00 378.00" xmlns="http://www.w3.org/2000/svg" xmlns:xlink="http://www.w3.org/1999/xlink">
<g id="graph0" class="graph" transform="scale(1 1) rotate(0) translate(4 374)">
<title>/home/travis/build/AliceO2Group/AliceO2/Detectors/MUON/MCH/Simulation/include/MCHSimulation/Detector.h</title>
<!-- Node1 -->
<g id="node1" class="node"><title>Node1</title>
<polygon fill="#bfbfbf" stroke="black" points="472.5,-317 472.5,-369 643.5,-369 643.5,-317 472.5,-317"/>
<text text-anchor="start" x="480.5" y="-357" font-family="Helvetica,sans-Serif" font-size="10.00">/home/travis/build</text>
<text text-anchor="start" x="480.5" y="-346" font-family="Helvetica,sans-Serif" font-size="10.00">/AliceO2Group/AliceO2</text>
<text text-anchor="start" x="480.5" y="-335" font-family="Helvetica,sans-Serif" font-size="10.00">/Detectors/MUON/MCH/Simulation</text>
<text text-anchor="middle" x="558" y="-324" font-family="Helvetica,sans-Serif" font-size="10.00">/include/MCHSimulation/Detector.h</text>
</g>
<!-- Node2 -->
<g id="node2" class="node"><title>Node2</title>
<g id="a_node2"><a xlink:href="../../d1/d3a/Base_2include_2DetectorsBase_2Detector_8h.html" target="_top" xlink:title="DetectorsBase/Detector.h">
<polygon fill="none" stroke="black" points="1053.5,-260.5 1053.5,-279.5 1184.5,-279.5 1184.5,-260.5 1053.5,-260.5"/>
<text text-anchor="middle" x="1119" y="-267.5" font-family="Helvetica,sans-Serif" font-size="10.00">DetectorsBase/Detector.h</text>
</a>
</g>
</g>
<!-- Node1&#45;&gt;Node2 -->
<g id="edge1" class="edge"><title>Node1&#45;&gt;Node2</title>
<path fill="none" stroke="midnightblue" d="M643.509,-331.178C752.451,-317.39 939.061,-293.773 1043.16,-280.598"/>
<polygon fill="midnightblue" stroke="midnightblue" points="1043.8,-284.046 1053.28,-279.318 1042.92,-277.101 1043.8,-284.046"/>
</g>
<!-- Node4 -->
<g id="node4" class="node"><title>Node4</title>
<polygon fill="none" stroke="#bfbfbf" points="503,-198.5 503,-217.5 547,-217.5 547,-198.5 503,-198.5"/>
<text text-anchor="middle" x="525" y="-205.5" font-family="Helvetica,sans-Serif" font-size="10.00">vector</text>
</g>
<!-- Node1&#45;&gt;Node4 -->
<g id="edge36" class="edge"><title>Node1&#45;&gt;Node4</title>
<path fill="none" stroke="midnightblue" d="M551.793,-316.984C545.343,-290.988 535.399,-250.91 529.612,-227.59"/>
<polygon fill="midnightblue" stroke="midnightblue" points="532.945,-226.485 527.139,-217.622 526.151,-228.171 532.945,-226.485"/>
</g>
<!-- Node6 -->
<g id="node6" class="node"><title>Node6</title>
<polygon fill="none" stroke="#bfbfbf" points="565,-198.5 565,-217.5 617,-217.5 617,-198.5 565,-198.5"/>
<text text-anchor="middle" x="591" y="-205.5" font-family="Helvetica,sans-Serif" font-size="10.00">memory</text>
</g>
<!-- Node1&#45;&gt;Node6 -->
<g id="edge37" class="edge"><title>Node1&#45;&gt;Node6</title>
<path fill="none" stroke="midnightblue" d="M564.207,-316.984C570.657,-290.988 580.601,-250.91 586.388,-227.59"/>
<polygon fill="midnightblue" stroke="midnightblue" points="589.849,-228.171 588.861,-217.622 583.055,-226.485 589.849,-228.171"/>
</g>
<!-- Node20 -->
<g id="node20" class="node"><title>Node20</title>
<g id="a_node20"><a xlink:href="../../de/d89/MUON_2MCH_2Simulation_2include_2MCHSimulation_2Hit_8h.html" target="_top" xlink:title="MCHSimulation/Hit.h">
<polygon fill="none" stroke="black" points="387,-260.5 387,-279.5 497,-279.5 497,-260.5 387,-260.5"/>
<text text-anchor="middle" x="442" y="-267.5" font-family="Helvetica,sans-Serif" font-size="10.00">MCHSimulation/Hit.h</text>
</a>
</g>
</g>
<!-- Node1&#45;&gt;Node20 -->
<g id="edge22" class="edge"><title>Node1&#45;&gt;Node20</title>
<path fill="none" stroke="midnightblue" d="M517.103,-316.968C499.493,-306.19 479.573,-293.997 464.676,-284.879"/>
<polygon fill="midnightblue" stroke="midnightblue" points="466.471,-281.874 456.114,-279.639 462.816,-287.845 466.471,-281.874"/>
</g>
<!-- Node3 -->
<g id="node3" class="node"><title>Node3</title>
<polygon fill="none" stroke="#bfbfbf" points="1083.5,-136.5 1083.5,-155.5 1118.5,-155.5 1118.5,-136.5 1083.5,-136.5"/>
<text text-anchor="middle" x="1101" y="-143.5" font-family="Helvetica,sans-Serif" font-size="10.00">map</text>
</g>
<!-- Node2&#45;&gt;Node3 -->
<g id="edge2" class="edge"><title>Node2&#45;&gt;Node3</title>
<path fill="none" stroke="midnightblue" d="M1117.71,-260.226C1114.8,-240.53 1107.7,-192.437 1103.76,-165.7"/>
<polygon fill="midnightblue" stroke="midnightblue" points="1107.2,-165.076 1102.28,-155.694 1100.28,-166.098 1107.2,-165.076"/>
</g>
<!-- Node2&#45;&gt;Node4 -->
<g id="edge3" class="edge"><title>Node2&#45;&gt;Node4</title>
<path fill="none" stroke="midnightblue" d="M1053.07,-266.784C925.203,-261.985 648.024,-248.995 556,-224 553.797,-223.402 551.561,-222.648 549.351,-221.799"/>
<polygon fill="midnightblue" stroke="midnightblue" points="550.574,-218.512 540.015,-217.648 547.731,-224.909 550.574,-218.512"/>
</g>
<!-- Node5 -->
<g id="node5" class="node"><title>Node5</title>
<polygon fill="none" stroke="#bfbfbf" points="1136.5,-136.5 1136.5,-155.5 1209.5,-155.5 1209.5,-136.5 1136.5,-136.5"/>
<text text-anchor="middle" x="1173" y="-143.5" font-family="Helvetica,sans-Serif" font-size="10.00">initializer_list</text>
</g>
<!-- Node2&#45;&gt;Node5 -->
<g id="edge4" class="edge"><title>Node2&#45;&gt;Node5</title>
<path fill="none" stroke="midnightblue" d="M1122.88,-260.226C1131.68,-240.354 1153.27,-191.576 1165.04,-164.989"/>
<polygon fill="midnightblue" stroke="midnightblue" points="1168.3,-166.255 1169.15,-155.694 1161.9,-163.422 1168.3,-166.255"/>
</g>
<!-- Node2&#45;&gt;Node6 -->
<g id="edge5" class="edge"><title>Node2&#45;&gt;Node6</title>
<path fill="none" stroke="midnightblue" d="M1053.3,-269.49C957.762,-268.753 775.555,-261.863 626,-224 623.176,-223.285 620.288,-222.372 617.44,-221.35"/>
<polygon fill="midnightblue" stroke="midnightblue" points="618.655,-218.066 608.071,-217.586 616.046,-224.562 618.655,-218.066"/>
</g>
<!-- Node7 -->
<g id="node7" class="node"><title>Node7</title>
<polygon fill="none" stroke="#bfbfbf" points="1407.5,-198.5 1407.5,-217.5 1486.5,-217.5 1486.5,-198.5 1407.5,-198.5"/>
<text text-anchor="middle" x="1447" y="-205.5" font-family="Helvetica,sans-Serif" font-size="10.00">FairDetector.h</text>
</g>
<!-- Node2&#45;&gt;Node7 -->
<g id="edge6" class="edge"><title>Node2&#45;&gt;Node7</title>
<path fill="none" stroke="midnightblue" d="M1183.04,-260.482C1238.81,-252.589 1321.68,-239.714 1393,-224 1398.1,-222.877 1403.43,-221.567 1408.67,-220.196"/>
<polygon fill="midnightblue" stroke="midnightblue" points="1409.82,-223.511 1418.56,-217.521 1407.99,-216.754 1409.82,-223.511"/>
</g>
<!-- Node8 -->
<g id="node8" class="node"><title>Node8</title>
<polygon fill="none" stroke="#bfbfbf" points="1505,-198.5 1505,-217.5 1605,-217.5 1605,-198.5 1505,-198.5"/>
<text text-anchor="middle" x="1555" y="-205.5" font-family="Helvetica,sans-Serif" font-size="10.00">FairRootManager.h</text>
</g>
<!-- Node2&#45;&gt;Node8 -->
<g id="edge7" class="edge"><title>Node2&#45;&gt;Node8</title>
<path fill="none" stroke="midnightblue" d="M1184.58,-263.672C1259.91,-256.971 1387.02,-243.877 1495,-224 1501.24,-222.852 1507.79,-221.435 1514.18,-219.935"/>
<polygon fill="midnightblue" stroke="midnightblue" points="1515.14,-223.305 1524.02,-217.535 1513.48,-216.504 1515.14,-223.305"/>
</g>
<!-- Node9 -->
<g id="node9" class="node"><title>Node9</title>
<g id="a_node9"><a xlink:href="../../d0/d9a/MaterialManager_8h.html" target="_top" xlink:title="DetectorsBase/MaterialManager.h">
<polygon fill="none" stroke="black" points="1185.5,-198.5 1185.5,-217.5 1350.5,-217.5 1350.5,-198.5 1185.5,-198.5"/>
<text text-anchor="middle" x="1268" y="-205.5" font-family="Helvetica,sans-Serif" font-size="10.00">DetectorsBase/MaterialManager.h</text>
</a>
</g>
</g>
<!-- Node2&#45;&gt;Node9 -->
<g id="edge8" class="edge"><title>Node2&#45;&gt;Node9</title>
<path fill="none" stroke="midnightblue" d="M1140.35,-260.403C1165.69,-250.2 1208.14,-233.105 1237.07,-221.454"/>
<polygon fill="midnightblue" stroke="midnightblue" points="1238.72,-224.563 1246.69,-217.581 1236.11,-218.069 1238.72,-224.563"/>
</g>
<!-- Node10 -->
<g id="node10" class="node"><title>Node10</title>
<polygon fill="none" stroke="#bfbfbf" points="1311,-74.5 1311,-93.5 1367,-93.5 1367,-74.5 1311,-74.5"/>
<text text-anchor="middle" x="1339" y="-81.5" font-family="Helvetica,sans-Serif" font-size="10.00">Rtypes.h</text>
</g>
<!-- Node2&#45;&gt;Node10 -->
<g id="edge13" class="edge"><title>Node2&#45;&gt;Node10</title>
<path fill="none" stroke="midnightblue" d="M1184.62,-265.857C1247.9,-261.289 1337.21,-250.26 1359,-224 1387.97,-189.093 1364.26,-131.501 1349.15,-102.638"/>
<polygon fill="midnightblue" stroke="midnightblue" points="1352.13,-100.802 1344.26,-93.7119 1345.99,-104.164 1352.13,-100.802"/>
</g>
<!-- Node12 -->
<g id="node12" class="node"><title>Node12</title>
<polygon fill="none" stroke="#bfbfbf" points="1623.5,-198.5 1623.5,-217.5 1676.5,-217.5 1676.5,-198.5 1623.5,-198.5"/>
<text text-anchor="middle" x="1650" y="-205.5" font-family="Helvetica,sans-Serif" font-size="10.00">cxxabi.h</text>
</g>
<!-- Node2&#45;&gt;Node12 -->
<g id="edge14" class="edge"><title>Node2&#45;&gt;Node12</title>
<path fill="none" stroke="midnightblue" d="M1184.51,-269.324C1280.27,-268.394 1463.44,-261.28 1614,-224 1616.99,-223.259 1620.06,-222.307 1623.08,-221.243"/>
<polygon fill="midnightblue" stroke="midnightblue" points="1624.39,-224.49 1632.42,-217.58 1621.83,-217.973 1624.39,-224.49"/>
</g>
<!-- Node13 -->
<g id="node13" class="node"><title>Node13</title>
<polygon fill="none" stroke="#bfbfbf" points="1694.5,-198.5 1694.5,-217.5 1745.5,-217.5 1745.5,-198.5 1694.5,-198.5"/>
<text text-anchor="middle" x="1720" y="-205.5" font-family="Helvetica,sans-Serif" font-size="10.00">typeinfo</text>
</g>
<!-- Node2&#45;&gt;Node13 -->
<g id="edge15" class="edge"><title>Node2&#45;&gt;Node13</title>
<path fill="none" stroke="midnightblue" d="M1184.69,-266.457C1312.85,-261.055 1591.81,-247.013 1685,-224 1687.83,-223.302 1690.72,-222.399 1693.57,-221.384"/>
<polygon fill="midnightblue" stroke="midnightblue" points="1694.96,-224.597 1702.94,-217.628 1692.35,-218.1 1694.96,-224.597"/>
</g>
<!-- Node14 -->
<g id="node14" class="node"><title>Node14</title>
<polygon fill="none" stroke="#bfbfbf" points="1764,-198.5 1764,-217.5 1826,-217.5 1826,-198.5 1764,-198.5"/>
<text text-anchor="middle" x="1795" y="-205.5" font-family="Helvetica,sans-Serif" font-size="10.00">type_traits</text>
</g>
<!-- Node2&#45;&gt;Node14 -->
<g id="edge16" class="edge"><title>Node2&#45;&gt;Node14</title>
<path fill="none" stroke="midnightblue" d="M1184.74,-266.672C1324.44,-261.345 1646.8,-246.931 1754,-224 1757.7,-223.208 1761.52,-222.155 1765.27,-220.971"/>
<polygon fill="midnightblue" stroke="midnightblue" points="1766.6,-224.215 1774.89,-217.628 1764.3,-217.602 1766.6,-224.215"/>
</g>
<!-- Node15 -->
<g id="node15" class="node"><title>Node15</title>
<polygon fill="none" stroke="#bfbfbf" points="635.5,-198.5 635.5,-217.5 676.5,-217.5 676.5,-198.5 635.5,-198.5"/>
<text text-anchor="middle" x="656" y="-205.5" font-family="Helvetica,sans-Serif" font-size="10.00">string</text>
</g>
<!-- Node2&#45;&gt;Node15 -->
<g id="edge17" class="edge"><title>Node2&#45;&gt;Node15</title>
<path fill="none" stroke="midnightblue" d="M1053.19,-269.724C966.848,-268.982 811.472,-261.787 685,-224 683.086,-223.428 681.148,-222.729 679.231,-221.949"/>
<polygon fill="midnightblue" stroke="midnightblue" points="680.544,-218.699 670.008,-217.586 677.551,-225.026 680.544,-218.699"/>
</g>
<!-- Node16 -->
<g id="node16" class="node"><title>Node16</title>
<polygon fill="none" stroke="#bfbfbf" points="694.5,-198.5 694.5,-217.5 787.5,-217.5 787.5,-198.5 694.5,-198.5"/>
<text text-anchor="middle" x="741" y="-205.5" font-family="Helvetica,sans-Serif" font-size="10.00">FairMQChannel.h</text>
</g>
<!-- Node2&#45;&gt;Node16 -->
<g id="edge18" class="edge"><title>Node2&#45;&gt;Node16</title>
<path fill="none" stroke="midnightblue" d="M1053.31,-262.34C987.753,-255.11 884.325,-242.12 796,-224 790.607,-222.894 784.961,-221.56 779.426,-220.15"/>
<polygon fill="midnightblue" stroke="midnightblue" points="780.226,-216.741 769.663,-217.562 778.433,-223.507 780.226,-216.741"/>
</g>
<!-- Node17 -->
<g id="node17" class="node"><title>Node17</title>
<polygon fill="none" stroke="#bfbfbf" points="805.5,-198.5 805.5,-217.5 902.5,-217.5 902.5,-198.5 805.5,-198.5"/>
<text text-anchor="middle" x="854" y="-205.5" font-family="Helvetica,sans-Serif" font-size="10.00">FairMQMessage.h</text>
</g>
<!-- Node2&#45;&gt;Node17 -->
<g id="edge19" class="edge"><title>Node2&#45;&gt;Node17</title>
<path fill="none" stroke="midnightblue" d="M1077.26,-260.425C1035.38,-251.704 969.066,-237.577 912,-224 906.882,-222.782 901.523,-221.461 896.217,-220.123"/>
<polygon fill="midnightblue" stroke="midnightblue" points="896.712,-216.637 886.157,-217.555 894.981,-223.42 896.712,-216.637"/>
</g>
<!-- Node18 -->
<g id="node18" class="node"><title>Node18</title>
<polygon fill="none" stroke="#bfbfbf" points="921,-198.5 921,-217.5 1001,-217.5 1001,-198.5 921,-198.5"/>
<text text-anchor="middle" x="961" y="-205.5" font-family="Helvetica,sans-Serif" font-size="10.00">FairMQParts.h</text>
</g>
<!-- Node2&#45;&gt;Node18 -->
<g id="edge20" class="edge"><title>Node2&#45;&gt;Node18</title>
<path fill="none" stroke="midnightblue" d="M1096.36,-260.403C1069.26,-250.111 1023.69,-232.806 992.996,-221.15"/>
<polygon fill="midnightblue" stroke="midnightblue" points="994.187,-217.859 983.596,-217.581 991.702,-224.403 994.187,-217.859"/>
</g>
<!-- Node19 -->
<g id="node19" class="node"><title>Node19</title>
<polygon fill="none" stroke="#bfbfbf" points="1019.5,-198.5 1019.5,-217.5 1090.5,-217.5 1090.5,-198.5 1019.5,-198.5"/>
<text text-anchor="middle" x="1055" y="-205.5" font-family="Helvetica,sans-Serif" font-size="10.00">TMessage.h</text>
</g>
<!-- Node2&#45;&gt;Node19 -->
<g id="edge21" class="edge"><title>Node2&#45;&gt;Node19</title>
<path fill="none" stroke="midnightblue" d="M1109.83,-260.403C1099.85,-251.047 1083.69,-235.895 1071.49,-224.46"/>
<polygon fill="midnightblue" stroke="midnightblue" points="1073.84,-221.867 1064.15,-217.581 1069.05,-226.973 1073.84,-221.867"/>
</g>
<!-- Node9&#45;&gt;Node3 -->
<g id="edge10" class="edge"><title>Node9&#45;&gt;Node3</title>
<path fill="none" stroke="midnightblue" d="M1244.07,-198.403C1213.47,-187.41 1160.6,-168.414 1128.41,-156.849"/>
<polygon fill="midnightblue" stroke="midnightblue" points="1129.34,-153.462 1118.74,-153.375 1126.97,-160.05 1129.34,-153.462"/>
</g>
<!-- Node9&#45;&gt;Node5 -->
<g id="edge12" class="edge"><title>Node9&#45;&gt;Node5</title>
<path fill="none" stroke="midnightblue" d="M1254.39,-198.403C1238.94,-188.646 1213.51,-172.585 1195.18,-161.011"/>
<polygon fill="midnightblue" stroke="midnightblue" points="1196.91,-157.961 1186.59,-155.581 1193.17,-163.88 1196.91,-157.961"/>
</g>
<!-- Node9&#45;&gt;Node10 -->
<g id="edge9" class="edge"><title>Node9&#45;&gt;Node10</title>
<path fill="none" stroke="midnightblue" d="M1279.86,-198.156C1291.48,-188.887 1308.87,-173.286 1319,-156 1328.49,-139.799 1333.67,-118.865 1336.37,-103.934"/>
<polygon fill="midnightblue" stroke="midnightblue" points="1339.85,-104.291 1337.97,-93.8649 1332.94,-103.189 1339.85,-104.291"/>
</g>
<!-- Node11 -->
<g id="node11" class="node"><title>Node11</title>
<polygon fill="none" stroke="#bfbfbf" points="1227.5,-136.5 1227.5,-155.5 1310.5,-155.5 1310.5,-136.5 1227.5,-136.5"/>
<text text-anchor="middle" x="1269" y="-143.5" font-family="Helvetica,sans-Serif" font-size="10.00">unordered_map</text>
</g>
<!-- Node9&#45;&gt;Node11 -->
<g id="edge11" class="edge"><title>Node9&#45;&gt;Node11</title>
<path fill="none" stroke="midnightblue" d="M1268.14,-198.403C1268.28,-189.938 1268.5,-176.728 1268.69,-165.82"/>
<polygon fill="midnightblue" stroke="midnightblue" points="1272.19,-165.638 1268.86,-155.581 1265.19,-165.521 1272.19,-165.638"/>
</g>
<!-- Node21 -->
<g id="node21" class="node"><title>Node21</title>
<g id="a_node21"><a xlink:href="../../d4/d25/BaseHits_8h.html" target="_top" xlink:title="SimulationDataFormat\l/BaseHits.h">
<polygon fill="none" stroke="black" points="371,-193 371,-223 485,-223 485,-193 371,-193"/>
<text text-anchor="start" x="379" y="-211" font-family="Helvetica,sans-Serif" font-size="10.00">SimulationDataFormat</text>
<text text-anchor="middle" x="428" y="-200" font-family="Helvetica,sans-Serif" font-size="10.00">/BaseHits.h</text>
</a>
</g>
</g>
<!-- Node20&#45;&gt;Node21 -->
<g id="edge23" class="edge"><title>Node20&#45;&gt;Node21</title>
<path fill="none" stroke="midnightblue" d="M439.994,-260.403C438.328,-253.265 435.875,-242.752 433.621,-233.09"/>
<polygon fill="midnightblue" stroke="midnightblue" points="436.98,-232.084 431.3,-223.141 430.163,-233.675 436.98,-232.084"/>
</g>
<!-- Node22 -->
<g id="node22" class="node"><title>Node22</title>
<g id="a_node22"><a xlink:href="../../dd/d76/Cartesian3D_8h.html" target="_top" xlink:title="MathUtils/Cartesian3D.h">
<polygon fill="none" stroke="black" points="533.5,-136.5 533.5,-155.5 658.5,-155.5 658.5,-136.5 533.5,-136.5"/>
<text text-anchor="middle" x="596" y="-143.5" font-family="Helvetica,sans-Serif" font-size="10.00">MathUtils/Cartesian3D.h</text>
</a>
</g>
</g>
<!-- Node21&#45;&gt;Node22 -->
<g id="edge24" class="edge"><title>Node21&#45;&gt;Node22</title>
<path fill="none" stroke="midnightblue" d="M467.389,-192.933C496.238,-182.629 534.978,-168.794 562.378,-159.008"/>
<polygon fill="midnightblue" stroke="midnightblue" points="563.68,-162.26 571.92,-155.6 561.325,-155.667 563.68,-162.26"/>
</g>
<!-- Node22&#45;&gt;Node10 -->
<g id="edge30" class="edge"><title>Node22&#45;&gt;Node10</title>
<path fill="none" stroke="midnightblue" d="M658.776,-140.358C764.785,-132.462 986.019,-115.739 1173,-100 1216.71,-96.3207 1266.86,-91.739 1300.5,-88.6139"/>
<polygon fill="midnightblue" stroke="midnightblue" points="1301.18,-92.0658 1310.81,-87.6534 1300.53,-85.096 1301.18,-92.0658"/>
</g>
<!-- Node23 -->
<g id="node23" class="node"><title>Node23</title>
<polygon fill="none" stroke="#bfbfbf" points="819.5,-69 819.5,-99 970.5,-99 970.5,-69 819.5,-69"/>
<text text-anchor="start" x="827.5" y="-87" font-family="Helvetica,sans-Serif" font-size="10.00">Math/GenVector/Displacement</text>
<text text-anchor="middle" x="895" y="-76" font-family="Helvetica,sans-Serif" font-size="10.00">Vector3D.h</text>
</g>
<!-- Node22&#45;&gt;Node23 -->
<g id="edge25" class="edge"><title>Node22&#45;&gt;Node23</title>
<path fill="none" stroke="midnightblue" d="M638.522,-136.467C684.303,-127.28 758.19,-112.454 814.927,-101.068"/>
<polygon fill="midnightblue" stroke="midnightblue" points="815.836,-104.456 824.952,-99.0565 814.458,-97.5925 815.836,-104.456"/>
</g>
<!-- Node24 -->
<g id="node24" class="node"><title>Node24</title>
<polygon fill="none" stroke="#bfbfbf" points="989,-74.5 989,-93.5 1165,-93.5 1165,-74.5 989,-74.5"/>
<text text-anchor="middle" x="1077" y="-81.5" font-family="Helvetica,sans-Serif" font-size="10.00">Math/GenVector/PositionVector3D.h</text>
</g>
<!-- Node22&#45;&gt;Node24 -->
<g id="edge26" class="edge"><title>Node22&#45;&gt;Node24</title>
<path fill="none" stroke="midnightblue" d="M658.778,-138.304C734.713,-130.049 866.377,-115.231 979,-100 990.213,-98.4835 1002.13,-96.7567 1013.65,-95.0276"/>
<polygon fill="midnightblue" stroke="midnightblue" points="1014.28,-98.472 1023.64,-93.5127 1013.23,-91.551 1014.28,-98.472"/>
</g>
<!-- Node25 -->
<g id="node25" class="node"><title>Node25</title>
<polygon fill="none" stroke="#bfbfbf" points="-0.5,-74.5 -0.5,-93.5 148.5,-93.5 148.5,-74.5 -0.5,-74.5"/>
<text text-anchor="middle" x="74" y="-81.5" font-family="Helvetica,sans-Serif" font-size="10.00">Math/GenVector/Rotation3D.h</text>
</g>
<!-- Node22&#45;&gt;Node25 -->
<g id="edge27" class="edge"><title>Node22&#45;&gt;Node25</title>
<path fill="none" stroke="midnightblue" d="M533.445,-140.045C448.292,-132.965 291.23,-118.713 158,-100 148.419,-98.6542 138.259,-97.0188 128.439,-95.3291"/>
<polygon fill="midnightblue" stroke="midnightblue" points="128.823,-91.8429 118.368,-93.5585 127.61,-98.7372 128.823,-91.8429"/>
</g>
<!-- Node26 -->
<g id="node26" class="node"><title>Node26</title>
<polygon fill="none" stroke="#bfbfbf" points="167,-74.5 167,-93.5 323,-93.5 323,-74.5 167,-74.5"/>
<text text-anchor="middle" x="245" y="-81.5" font-family="Helvetica,sans-Serif" font-size="10.00">Math/GenVector/Transform3D.h</text>
</g>
<!-- Node22&#45;&gt;Node26 -->
<g id="edge28" class="edge"><title>Node22&#45;&gt;Node26</title>
<path fill="none" stroke="midnightblue" d="M545.876,-136.485C492.769,-127.457 406.467,-112.766 332,-100 323.014,-98.4595 313.507,-96.825 304.205,-95.2234"/>
<polygon fill="midnightblue" stroke="midnightblue" points="304.677,-91.7532 294.228,-93.5044 303.489,-98.6515 304.677,-91.7532"/>
</g>
<!-- Node27 -->
<g id="node27" class="node"><title>Node27</title>
<polygon fill="none" stroke="#bfbfbf" points="341,-74.5 341,-93.5 501,-93.5 501,-74.5 341,-74.5"/>
<text text-anchor="middle" x="421" y="-81.5" font-family="Helvetica,sans-Serif" font-size="10.00">Math/GenVector/Translation3D.h</text>
</g>
<!-- Node22&#45;&gt;Node27 -->
<g id="edge29" class="edge"><title>Node22&#45;&gt;Node27</title>
<path fill="none" stroke="midnightblue" d="M570.927,-136.403C540.648,-126.022 489.56,-108.506 455.559,-96.849"/>
<polygon fill="midnightblue" stroke="midnightblue" points="456.621,-93.5131 446.027,-93.5806 454.351,-100.135 456.621,-93.5131"/>
</g>
<!-- Node28 -->
<g id="node28" class="node"><title>Node28</title>
<polygon fill="none" stroke="#bfbfbf" points="519,-74.5 519,-93.5 595,-93.5 595,-74.5 519,-74.5"/>
<text text-anchor="middle" x="557" y="-81.5" font-family="Helvetica,sans-Serif" font-size="10.00">TGeoMatrix.h</text>
</g>
<!-- Node22&#45;&gt;Node28 -->
<g id="edge31" class="edge"><title>Node22&#45;&gt;Node28</title>
<path fill="none" stroke="midnightblue" d="M590.412,-136.403C584.62,-127.493 575.411,-113.325 568.126,-102.118"/>
<polygon fill="midnightblue" stroke="midnightblue" points="570.962,-100.058 562.577,-93.5806 565.093,-103.873 570.962,-100.058"/>
</g>
<!-- Node29 -->
<g id="node29" class="node"><title>Node29</title>
<polygon fill="none" stroke="#bfbfbf" points="613.5,-74.5 613.5,-93.5 658.5,-93.5 658.5,-74.5 613.5,-74.5"/>
<text text-anchor="middle" x="636" y="-81.5" font-family="Helvetica,sans-Serif" font-size="10.00">iosfwd</text>
</g>
<!-- Node22&#45;&gt;Node29 -->
<g id="edge32" class="edge"><title>Node22&#45;&gt;Node29</title>
<path fill="none" stroke="midnightblue" d="M601.731,-136.403C607.672,-127.493 617.117,-113.325 624.588,-102.118"/>
<polygon fill="midnightblue" stroke="midnightblue" points="627.645,-103.843 630.28,-93.5806 621.82,-99.9596 627.645,-103.843"/>
</g>
<!-- Node30 -->
<g id="node30" class="node"><title>Node30</title>
<g id="a_node30"><a xlink:href="../../d2/dd0/Cartesian2D_8h.html" target="_top" xlink:title="MathUtils/Cartesian2D.h">
<polygon fill="none" stroke="black" points="676.5,-74.5 676.5,-93.5 801.5,-93.5 801.5,-74.5 676.5,-74.5"/>
<text text-anchor="middle" x="739" y="-81.5" font-family="Helvetica,sans-Serif" font-size="10.00">MathUtils/Cartesian2D.h</text>
</a>
</g>
</g>
<!-- Node22&#45;&gt;Node30 -->
<g id="edge33" class="edge"><title>Node22&#45;&gt;Node30</title>
<path fill="none" stroke="midnightblue" d="M616.488,-136.403C640.806,-126.2 681.549,-109.105 709.317,-97.4544"/>
<polygon fill="midnightblue" stroke="midnightblue" points="710.683,-100.677 718.55,-93.5806 707.974,-94.2223 710.683,-100.677"/>
</g>
<!-- Node31 -->
<g id="node31" class="node"><title>Node31</title>
<polygon fill="none" stroke="#bfbfbf" points="572.5,-1 572.5,-31 723.5,-31 723.5,-1 572.5,-1"/>
<text text-anchor="start" x="580.5" y="-19" font-family="Helvetica,sans-Serif" font-size="10.00">Math/GenVector/Displacement</text>
<text text-anchor="middle" x="648" y="-8" font-family="Helvetica,sans-Serif" font-size="10.00">Vector2D.h</text>
</g>
<!-- Node30&#45;&gt;Node31 -->
<g id="edge34" class="edge"><title>Node30&#45;&gt;Node31</title>
<path fill="none" stroke="midnightblue" d="M727.103,-74.3717C714.221,-65.0286 693.22,-49.7966 676.093,-37.375"/>
<polygon fill="midnightblue" stroke="midnightblue" points="677.703,-34.2194 667.553,-31.1815 673.593,-39.8859 677.703,-34.2194"/>
</g>
<!-- Node32 -->
<g id="node32" class="node"><title>Node32</title>
<polygon fill="none" stroke="#bfbfbf" points="742,-6.5 742,-25.5 918,-25.5 918,-6.5 742,-6.5"/>
<text text-anchor="middle" x="830" y="-13.5" font-family="Helvetica,sans-Serif" font-size="10.00">Math/GenVector/PositionVector2D.h</text>
</g>
<!-- Node30&#45;&gt;Node32 -->
<g id="edge35" class="edge"><title>Node30&#45;&gt;Node32</title>
<path fill="none" stroke="midnightblue" d="M750.897,-74.3717C765.884,-63.5015 791.862,-44.6602 809.942,-31.5474"/>
<polygon fill="midnightblue" stroke="midnightblue" points="812.06,-34.3349 818.1,-25.6305 807.95,-28.6684 812.06,-34.3349"/>
</g>
</g>
</svg>
