<?xml version="1.0" encoding="UTF-8" standalone="no"?>
<!DOCTYPE svg PUBLIC "-//W3C//DTD SVG 1.1//EN"
 "http://www.w3.org/Graphics/SVG/1.1/DTD/svg11.dtd">
<!-- Generated by graphviz version 2.36.0 (20140111.2315)
 -->
<!-- Title: /home/travis/build/AliceO2Group/AliceO2/Detectors/TOF/reconstruction/src/Clusterer.cxx Pages: 1 -->
<!--zoomable 526 -->
<svg id="main" version="1.1" xmlns="http://www.w3.org/2000/svg" xmlns:xlink="http://www.w3.org/1999/xlink" xml:space="preserve" onload="init(evt)">
<style type="text/css"><![CDATA[
.edge:hover path { stroke: red; }
.edge:hover polygon { stroke: red; fill: red; }
]]></style>
<script type="text/javascript"><![CDATA[
var edges = document.getElementsByTagName('g');
if (edges && edges.length) {
  for (var i=0;i<edges.length;i++) {
    if (edges[i].id.substr(0,4)=='edge') {
      edges[i].setAttribute('class','edge');
    }
  }
}
]]></script>
        <defs>
                <circle id="rim" cx="0" cy="0" r="7"/>
                <circle id="rim2" cx="0" cy="0" r="3.5"/>
                <g id="zoomPlus">
                        <use xlink:href="#rim" fill="#404040">
                                <set attributeName="fill" to="#808080" begin="zoomplus.mouseover" end="zoomplus.mouseout"/>
                        </use>
                        <path d="M-4,0h8M0,-4v8" fill="none" stroke="white" stroke-width="1.5" pointer-events="none"/>
                </g>
                <g id="zoomMin">
                        <use xlink:href="#rim" fill="#404040">
                                <set attributeName="fill" to="#808080" begin="zoomminus.mouseover" end="zoomminus.mouseout"/>
                        </use>
                        <path d="M-4,0h8" fill="none" stroke="white" stroke-width="1.5" pointer-events="none"/>
                </g>
                <g id="dirArrow">
                        <path fill="none" stroke="white" stroke-width="1.5" d="M0,-3.0v7 M-2.5,-0.5L0,-3.0L2.5,-0.5"/>
                </g>
               <g id="resetDef">
                       <use xlink:href="#rim2" fill="#404040">
                               <set attributeName="fill" to="#808080" begin="reset.mouseover" end="reset.mouseout"/>
                       </use>
               </g>
        </defs>

<script type="text/javascript">
var viewWidth = 2133;
var viewHeight = 526;
var sectionId = 'dynsection-0';
</script>
<script xlink:href="../../svgpan.js"/>
<svg id="graph" class="graph">
<g id="viewport">
<title>/home/travis/build/AliceO2Group/AliceO2/Detectors/TOF/reconstruction/src/Clusterer.cxx</title>
<!-- Node1 -->
<g id="node1" class="node"><title>Node1</title>
<polygon fill="#bfbfbf" stroke="black" points="1361.5,-465 1361.5,-517 1510.5,-517 1510.5,-465 1361.5,-465"/>
<text text-anchor="start" x="1369.5" y="-505" font-family="Helvetica,sans-Serif" font-size="10.00">/home/travis/build</text>
<text text-anchor="start" x="1369.5" y="-494" font-family="Helvetica,sans-Serif" font-size="10.00">/AliceO2Group/AliceO2</text>
<text text-anchor="start" x="1369.5" y="-483" font-family="Helvetica,sans-Serif" font-size="10.00">/Detectors/TOF/reconstruction</text>
<text text-anchor="middle" x="1436" y="-472" font-family="Helvetica,sans-Serif" font-size="10.00">/src/Clusterer.cxx</text>
</g>
<!-- Node2 -->
<g id="node2" class="node"><title>Node2</title>
<polygon fill="none" stroke="#bfbfbf" points="839,-408.5 839,-427.5 895,-427.5 895,-408.5 839,-408.5"/>
<text text-anchor="middle" x="867" y="-415.5" font-family="Helvetica,sans-Serif" font-size="10.00">algorithm</text>
</g>
<!-- Node1&#45;&gt;Node2 -->
<g id="edge1" class="edge"><title>Node1&#45;&gt;Node2</title>
<path fill="none" stroke="midnightblue" d="M1361.07,-483.421C1258.6,-473.915 1069.19,-454.525 909,-428 907.759,-427.794 906.498,-427.577 905.227,-427.35"/>
<polygon fill="midnightblue" stroke="midnightblue" points="905.878,-423.911 895.397,-425.463 904.559,-430.785 905.878,-423.911"/>
</g>
<!-- Node3 -->
<g id="node3" class="node"><title>Node3</title>
<polygon fill="none" stroke="#bfbfbf" points="809.5,-142.5 809.5,-161.5 880.5,-161.5 880.5,-142.5 809.5,-142.5"/>
<text text-anchor="middle" x="845" y="-149.5" font-family="Helvetica,sans-Serif" font-size="10.00">FairLogger.h</text>
</g>
<!-- Node1&#45;&gt;Node3 -->
<g id="edge2" class="edge"><title>Node1&#45;&gt;Node3</title>
<path fill="none" stroke="midnightblue" d="M1361.41,-486.152C1219.13,-476.764 923,-446.477 923,-357 923,-357 923,-357 923,-287 923,-238.842 884.905,-192.55 861.961,-169.036"/>
<polygon fill="midnightblue" stroke="midnightblue" points="864.13,-166.258 854.564,-161.703 859.202,-171.229 864.13,-166.258"/>
</g>
<!-- Node4 -->
<g id="node4" class="node"><title>Node4</title>
<g id="a_node4"><a xlink:href="../../d1/d50/DataFormats_2Detectors_2TOF_2include_2DataFormatsTOF_2Cluster_8h.html" target="_top" xlink:title="DataFormatsTOF/Cluster.h">
<polygon fill="none" stroke="black" points="1225,-346.5 1225,-365.5 1361,-365.5 1361,-346.5 1225,-346.5"/>
<text text-anchor="middle" x="1293" y="-353.5" font-family="Helvetica,sans-Serif" font-size="10.00">DataFormatsTOF/Cluster.h</text>
</a>
</g>
</g>
<!-- Node1&#45;&gt;Node4 -->
<g id="edge3" class="edge"><title>Node1&#45;&gt;Node4</title>
<path fill="none" stroke="midnightblue" d="M1409.1,-464.984C1379.88,-437.806 1334.11,-395.238 1309.68,-372.516"/>
<polygon fill="midnightblue" stroke="midnightblue" points="1311.98,-369.87 1302.27,-365.622 1307.21,-374.996 1311.98,-369.87"/>
</g>
<!-- Node33 -->
<g id="node33" class="node"><title>Node33</title>
<g id="a_node33"><a xlink:href="../../dc/d24/TOF_2reconstruction_2include_2TOFReconstruction_2Clusterer_8h.html" target="_top" xlink:title="TOFReconstruction/Clusterer.h">
<polygon fill="none" stroke="black" points="1412.5,-408.5 1412.5,-427.5 1565.5,-427.5 1565.5,-408.5 1412.5,-408.5"/>
<text text-anchor="middle" x="1489" y="-415.5" font-family="Helvetica,sans-Serif" font-size="10.00">TOFReconstruction/Clusterer.h</text>
</a>
</g>
</g>
<!-- Node1&#45;&gt;Node33 -->
<g id="edge40" class="edge"><title>Node1&#45;&gt;Node33</title>
<path fill="none" stroke="midnightblue" d="M1454.84,-464.768C1461.99,-455.183 1469.96,-444.506 1476.4,-435.877"/>
<polygon fill="midnightblue" stroke="midnightblue" points="1479.29,-437.864 1482.46,-427.757 1473.68,-433.677 1479.29,-437.864"/>
</g>
<!-- Node39 -->
<g id="node39" class="node"><title>Node39</title>
<g id="a_node39"><a xlink:href="../../db/d14/MCTruthContainer_8h.html" target="_top" xlink:title="Definition of a container to keep Monte Carlo truth external to simulation objects. ">
<polygon fill="none" stroke="black" points="1903,-341 1903,-371 2017,-371 2017,-341 1903,-341"/>
<text text-anchor="start" x="1911" y="-359" font-family="Helvetica,sans-Serif" font-size="10.00">SimulationDataFormat</text>
<text text-anchor="middle" x="1960" y="-348" font-family="Helvetica,sans-Serif" font-size="10.00">/MCTruthContainer.h</text>
</a>
</g>
</g>
<!-- Node1&#45;&gt;Node39 -->
<g id="edge62" class="edge"><title>Node1&#45;&gt;Node39</title>
<path fill="none" stroke="midnightblue" d="M1510.52,-471.086C1613.37,-444.981 1797.16,-398.331 1894.82,-373.543"/>
<polygon fill="midnightblue" stroke="midnightblue" points="1895.74,-376.921 1904.57,-371.069 1894.02,-370.136 1895.74,-376.921"/>
</g>
<!-- Node43 -->
<g id="node43" class="node"><title>Node43</title>
<g id="a_node43"><a xlink:href="../../d7/dcd/MCCompLabel_8h.html" target="_top" xlink:title="SimulationDataFormat\l/MCCompLabel.h">
<polygon fill="none" stroke="black" points="1765,-341 1765,-371 1879,-371 1879,-341 1765,-341"/>
<text text-anchor="start" x="1773" y="-359" font-family="Helvetica,sans-Serif" font-size="10.00">SimulationDataFormat</text>
<text text-anchor="middle" x="1822" y="-348" font-family="Helvetica,sans-Serif" font-size="10.00">/MCCompLabel.h</text>
</a>
</g>
</g>
<!-- Node1&#45;&gt;Node43 -->
<g id="edge61" class="edge"><title>Node1&#45;&gt;Node43</title>
<path fill="none" stroke="midnightblue" d="M1508.6,-464.984C1585.41,-438.519 1704.58,-397.459 1771.66,-374.344"/>
<polygon fill="midnightblue" stroke="midnightblue" points="1772.86,-377.634 1781.17,-371.067 1770.58,-371.016 1772.86,-377.634"/>
</g>
<!-- Node5 -->
<g id="node5" class="node"><title>Node5</title>
<g id="a_node5"><a xlink:href="../../d4/de2/BaseCluster_8h.html" target="_top" xlink:title="ReconstructionDataFormats\l/BaseCluster.h">
<polygon fill="none" stroke="black" points="1210,-273 1210,-303 1350,-303 1350,-273 1210,-273"/>
<text text-anchor="start" x="1218" y="-291" font-family="Helvetica,sans-Serif" font-size="10.00">ReconstructionDataFormats</text>
<text text-anchor="middle" x="1280" y="-280" font-family="Helvetica,sans-Serif" font-size="10.00">/BaseCluster.h</text>
</a>
</g>
</g>
<!-- Node4&#45;&gt;Node5 -->
<g id="edge4" class="edge"><title>Node4&#45;&gt;Node5</title>
<path fill="none" stroke="midnightblue" d="M1291.3,-346.372C1289.65,-337.971 1287.05,-324.811 1284.77,-313.213"/>
<polygon fill="midnightblue" stroke="midnightblue" points="1288.16,-312.317 1282.79,-303.181 1281.29,-313.669 1288.16,-312.317"/>
</g>
<!-- Node32 -->
<g id="node32" class="node"><title>Node32</title>
<polygon fill="none" stroke="#bfbfbf" points="1544.5,-137 1544.5,-167 1639.5,-167 1639.5,-137 1544.5,-137"/>
<text text-anchor="start" x="1552.5" y="-155" font-family="Helvetica,sans-Serif" font-size="10.00">boost/serialization</text>
<text text-anchor="middle" x="1592" y="-144" font-family="Helvetica,sans-Serif" font-size="10.00">/base_object.hpp</text>
</g>
<!-- Node4&#45;&gt;Node32 -->
<g id="edge39" class="edge"><title>Node4&#45;&gt;Node32</title>
<path fill="none" stroke="midnightblue" d="M1305.85,-346.32C1350.37,-316.245 1498.77,-215.985 1562.5,-172.927"/>
<polygon fill="midnightblue" stroke="midnightblue" points="1564.59,-175.743 1570.92,-167.244 1560.67,-169.942 1564.59,-175.743"/>
</g>
<!-- Node6 -->
<g id="node6" class="node"><title>Node6</title>
<polygon fill="none" stroke="#bfbfbf" points="1163.5,-210.5 1163.5,-229.5 1222.5,-229.5 1222.5,-210.5 1163.5,-210.5"/>
<text text-anchor="middle" x="1193" y="-217.5" font-family="Helvetica,sans-Serif" font-size="10.00">TObject.h</text>
</g>
<!-- Node5&#45;&gt;Node6 -->
<g id="edge5" class="edge"><title>Node5&#45;&gt;Node6</title>
<path fill="none" stroke="midnightblue" d="M1261.12,-272.679C1246.89,-261.879 1227.4,-247.098 1212.92,-236.11"/>
<polygon fill="midnightblue" stroke="midnightblue" points="1214.72,-233.084 1204.64,-229.828 1210.49,-238.661 1214.72,-233.084"/>
</g>
<!-- Node7 -->
<g id="node7" class="node"><title>Node7</title>
<polygon fill="none" stroke="#bfbfbf" points="1368.5,-74.5 1368.5,-93.5 1409.5,-93.5 1409.5,-74.5 1368.5,-74.5"/>
<text text-anchor="middle" x="1389" y="-81.5" font-family="Helvetica,sans-Serif" font-size="10.00">bitset</text>
</g>
<!-- Node5&#45;&gt;Node7 -->
<g id="edge6" class="edge"><title>Node5&#45;&gt;Node7</title>
<path fill="none" stroke="midnightblue" d="M1305.96,-272.907C1320.01,-264.039 1336.58,-251.367 1347,-236 1375.3,-194.259 1384.63,-133.819 1387.63,-103.628"/>
<polygon fill="midnightblue" stroke="midnightblue" points="1391.12,-103.905 1388.5,-93.6402 1384.15,-103.301 1391.12,-103.905"/>
</g>
<!-- Node8 -->
<g id="node8" class="node"><title>Node8</title>
<polygon fill="none" stroke="#bfbfbf" points="1241,-210.5 1241,-229.5 1291,-229.5 1291,-210.5 1241,-210.5"/>
<text text-anchor="middle" x="1266" y="-217.5" font-family="Helvetica,sans-Serif" font-size="10.00">iomanip</text>
</g>
<!-- Node5&#45;&gt;Node8 -->
<g id="edge7" class="edge"><title>Node5&#45;&gt;Node8</title>
<path fill="none" stroke="midnightblue" d="M1276.96,-272.679C1274.91,-262.999 1272.18,-250.123 1269.95,-239.645"/>
<polygon fill="midnightblue" stroke="midnightblue" points="1273.37,-238.884 1267.87,-229.828 1266.52,-240.337 1273.37,-238.884"/>
</g>
<!-- Node9 -->
<g id="node9" class="node"><title>Node9</title>
<polygon fill="none" stroke="#bfbfbf" points="1309.5,-210.5 1309.5,-229.5 1338.5,-229.5 1338.5,-210.5 1309.5,-210.5"/>
<text text-anchor="middle" x="1324" y="-217.5" font-family="Helvetica,sans-Serif" font-size="10.00">ios</text>
</g>
<!-- Node5&#45;&gt;Node9 -->
<g id="edge8" class="edge"><title>Node5&#45;&gt;Node9</title>
<path fill="none" stroke="midnightblue" d="M1289.55,-272.679C1296.27,-262.592 1305.31,-249.033 1312.44,-238.335"/>
<polygon fill="midnightblue" stroke="midnightblue" points="1315.48,-240.09 1318.11,-229.828 1309.66,-236.207 1315.48,-240.09"/>
</g>
<!-- Node10 -->
<g id="node10" class="node"><title>Node10</title>
<polygon fill="none" stroke="#bfbfbf" points="1442.5,-74.5 1442.5,-93.5 1487.5,-93.5 1487.5,-74.5 1442.5,-74.5"/>
<text text-anchor="middle" x="1465" y="-81.5" font-family="Helvetica,sans-Serif" font-size="10.00">iosfwd</text>
</g>
<!-- Node5&#45;&gt;Node10 -->
<g id="edge9" class="edge"><title>Node5&#45;&gt;Node10</title>
<path fill="none" stroke="midnightblue" d="M1320.26,-272.94C1363,-255.62 1428.38,-221.71 1458,-168 1468.94,-148.159 1469.11,-121.515 1467.6,-103.826"/>
<polygon fill="midnightblue" stroke="midnightblue" points="1471.05,-103.204 1466.45,-93.6576 1464.09,-103.986 1471.05,-103.204"/>
</g>
<!-- Node11 -->
<g id="node11" class="node"><title>Node11</title>
<g id="a_node11"><a xlink:href="../../d4/d20/DetMatrixCache_8h.html" target="_top" xlink:title="DetectorsCommonDataFormats\l/DetMatrixCache.h">
<polygon fill="none" stroke="black" points="989,-205 989,-235 1145,-235 1145,-205 989,-205"/>
<text text-anchor="start" x="997" y="-223" font-family="Helvetica,sans-Serif" font-size="10.00">DetectorsCommonDataFormats</text>
<text text-anchor="middle" x="1067" y="-212" font-family="Helvetica,sans-Serif" font-size="10.00">/DetMatrixCache.h</text>
</a>
</g>
</g>
<!-- Node5&#45;&gt;Node11 -->
<g id="edge10" class="edge"><title>Node5&#45;&gt;Node11</title>
<path fill="none" stroke="midnightblue" d="M1234.57,-272.922C1201.62,-262.714 1156.9,-248.857 1121.95,-238.025"/>
<polygon fill="midnightblue" stroke="midnightblue" points="1122.95,-234.673 1112.36,-235.056 1120.88,-241.359 1122.95,-234.673"/>
</g>
<!-- Node22 -->
<g id="node22" class="node"><title>Node22</title>
<g id="a_node22"><a xlink:href="../../dd/d76/Cartesian3D_8h.html" target="_top" xlink:title="MathUtils/Cartesian3D.h">
<polygon fill="none" stroke="black" points="898.5,-142.5 898.5,-161.5 1023.5,-161.5 1023.5,-142.5 898.5,-142.5"/>
<text text-anchor="middle" x="961" y="-149.5" font-family="Helvetica,sans-Serif" font-size="10.00">MathUtils/Cartesian3D.h</text>
</a>
</g>
</g>
<!-- Node5&#45;&gt;Node22 -->
<g id="edge38" class="edge"><title>Node5&#45;&gt;Node22</title>
<path fill="none" stroke="midnightblue" d="M1209.81,-283.89C1131.73,-278.955 1012.3,-266.524 980,-236 962.567,-219.528 959.6,-190.596 959.764,-171.615"/>
<polygon fill="midnightblue" stroke="midnightblue" points="963.265,-171.647 960.153,-161.52 956.271,-171.377 963.265,-171.647"/>
</g>
<!-- Node11&#45;&gt;Node3 -->
<g id="edge11" class="edge"><title>Node11&#45;&gt;Node3</title>
<path fill="none" stroke="midnightblue" d="M1015.39,-204.941C979.748,-195.054 931.33,-181.271 889,-168 885.843,-167.01 882.568,-165.953 879.295,-164.874"/>
<polygon fill="midnightblue" stroke="midnightblue" points="880.191,-161.484 869.597,-161.625 877.967,-168.121 880.191,-161.484"/>
</g>
<!-- Node12 -->
<g id="node12" class="node"><title>Node12</title>
<polygon fill="none" stroke="#bfbfbf" points="1159,-6.5 1159,-25.5 1197,-25.5 1197,-6.5 1159,-6.5"/>
<text text-anchor="middle" x="1178" y="-13.5" font-family="Helvetica,sans-Serif" font-size="10.00">array</text>
</g>
<!-- Node11&#45;&gt;Node12 -->
<g id="edge12" class="edge"><title>Node11&#45;&gt;Node12</title>
<path fill="none" stroke="midnightblue" d="M1074.6,-204.793C1088.96,-177.969 1121.18,-118.064 1149,-68 1155.23,-56.7823 1162.36,-44.2523 1167.98,-34.4194"/>
<polygon fill="midnightblue" stroke="midnightblue" points="1171.08,-36.0497 1173.02,-25.6339 1165.01,-32.5669 1171.08,-36.0497"/>
</g>
<!-- Node13 -->
<g id="node13" class="node"><title>Node13</title>
<polygon fill="none" stroke="#bfbfbf" points="1406,-142.5 1406,-161.5 1450,-161.5 1450,-142.5 1406,-142.5"/>
<text text-anchor="middle" x="1428" y="-149.5" font-family="Helvetica,sans-Serif" font-size="10.00">vector</text>
</g>
<!-- Node11&#45;&gt;Node13 -->
<g id="edge13" class="edge"><title>Node11&#45;&gt;Node13</title>
<path fill="none" stroke="midnightblue" d="M1145.24,-205.432C1148.2,-204.944 1151.13,-204.465 1154,-204 1259.61,-186.911 1288.97,-196.788 1392,-168 1394.81,-167.214 1397.7,-166.268 1400.55,-165.236"/>
<polygon fill="midnightblue" stroke="midnightblue" points="1401.97,-168.44 1409.99,-161.517 1399.41,-161.927 1401.97,-168.44"/>
</g>
<!-- Node14 -->
<g id="node14" class="node"><title>Node14</title>
<g id="a_node14"><a xlink:href="../../d6/d31/DetID_8h.html" target="_top" xlink:title="DetectorsCommonDataFormats\l/DetID.h">
<polygon fill="none" stroke="black" points="1156,-137 1156,-167 1312,-167 1312,-137 1156,-137"/>
<text text-anchor="start" x="1164" y="-155" font-family="Helvetica,sans-Serif" font-size="10.00">DetectorsCommonDataFormats</text>
<text text-anchor="middle" x="1234" y="-144" font-family="Helvetica,sans-Serif" font-size="10.00">/DetID.h</text>
</a>
</g>
</g>
<!-- Node11&#45;&gt;Node14 -->
<g id="edge14" class="edge"><title>Node11&#45;&gt;Node14</title>
<path fill="none" stroke="midnightblue" d="M1102.83,-204.841C1128.01,-194.89 1161.89,-181.5 1188.91,-170.822"/>
<polygon fill="midnightblue" stroke="midnightblue" points="1190.51,-173.952 1198.52,-167.022 1187.93,-167.442 1190.51,-173.952"/>
</g>
<!-- Node15 -->
<g id="node15" class="node"><title>Node15</title>
<polygon fill="none" stroke="#bfbfbf" points="1506,-74.5 1506,-93.5 1562,-93.5 1562,-74.5 1506,-74.5"/>
<text text-anchor="middle" x="1534" y="-81.5" font-family="Helvetica,sans-Serif" font-size="10.00">Rtypes.h</text>
</g>
<!-- Node11&#45;&gt;Node15 -->
<g id="edge37" class="edge"><title>Node11&#45;&gt;Node15</title>
<path fill="none" stroke="midnightblue" d="M1145.31,-205.052C1207.37,-193.668 1288.81,-177.899 1321,-168 1356.03,-157.227 1362.88,-149.378 1397,-136 1440.59,-118.911 1452.22,-116.597 1496,-100 1498.38,-99.098 1500.84,-98.1543 1503.31,-97.1982"/>
<polygon fill="midnightblue" stroke="midnightblue" points="1504.7,-100.413 1512.74,-93.5116 1502.15,-93.8934 1504.7,-100.413"/>
</g>
<!-- Node11&#45;&gt;Node22 -->
<g id="edge25" class="edge"><title>Node11&#45;&gt;Node22</title>
<path fill="none" stroke="midnightblue" d="M1044.26,-204.841C1026.34,-193.681 1001.47,-178.198 983.585,-167.063"/>
<polygon fill="midnightblue" stroke="midnightblue" points="985.283,-163.996 974.944,-161.682 981.583,-169.939 985.283,-163.996"/>
</g>
<!-- Node14&#45;&gt;Node7 -->
<g id="edge17" class="edge"><title>Node14&#45;&gt;Node7</title>
<path fill="none" stroke="midnightblue" d="M1270.41,-136.992C1295.52,-127.128 1329.54,-113.352 1359,-100 1360.36,-99.384 1361.75,-98.7411 1363.14,-98.0828"/>
<polygon fill="midnightblue" stroke="midnightblue" points="1364.83,-101.157 1372.29,-93.6372 1361.77,-94.8609 1364.83,-101.157"/>
</g>
<!-- Node14&#45;&gt;Node12 -->
<g id="edge16" class="edge"><title>Node14&#45;&gt;Node12</title>
<path fill="none" stroke="midnightblue" d="M1232.01,-136.988C1229.25,-120.071 1223.41,-91.0243 1213,-68 1207.5,-55.8391 1199.09,-43.4659 1191.9,-33.9526"/>
<polygon fill="midnightblue" stroke="midnightblue" points="1194.43,-31.512 1185.5,-25.8083 1188.92,-35.835 1194.43,-31.512"/>
</g>
<!-- Node14&#45;&gt;Node15 -->
<g id="edge15" class="edge"><title>Node14&#45;&gt;Node15</title>
<path fill="none" stroke="midnightblue" d="M1312.28,-139.626C1364.83,-131.052 1435.28,-117.73 1496,-100 1498.81,-99.1799 1501.7,-98.2347 1504.57,-97.2259"/>
<polygon fill="midnightblue" stroke="midnightblue" points="1505.99,-100.431 1514.12,-93.6409 1503.53,-93.8774 1505.99,-100.431"/>
</g>
<!-- Node16 -->
<g id="node16" class="node"><title>Node16</title>
<polygon fill="none" stroke="#bfbfbf" points="1701.5,-74.5 1701.5,-93.5 1750.5,-93.5 1750.5,-74.5 1701.5,-74.5"/>
<text text-anchor="middle" x="1726" y="-81.5" font-family="Helvetica,sans-Serif" font-size="10.00">cassert</text>
</g>
<!-- Node14&#45;&gt;Node16 -->
<g id="edge18" class="edge"><title>Node14&#45;&gt;Node16</title>
<path fill="none" stroke="midnightblue" d="M1312.23,-140.506C1420.73,-125.951 1612.39,-100.24 1690.94,-89.7035"/>
<polygon fill="midnightblue" stroke="midnightblue" points="1691.8,-93.1188 1701.25,-88.3203 1690.87,-86.181 1691.8,-93.1188"/>
</g>
<!-- Node17 -->
<g id="node17" class="node"><title>Node17</title>
<polygon fill="none" stroke="#bfbfbf" points="1158,-74.5 1158,-93.5 1204,-93.5 1204,-74.5 1158,-74.5"/>
<text text-anchor="middle" x="1181" y="-81.5" font-family="Helvetica,sans-Serif" font-size="10.00">cstdint</text>
</g>
<!-- Node14&#45;&gt;Node17 -->
<g id="edge19" class="edge"><title>Node14&#45;&gt;Node17</title>
<path fill="none" stroke="midnightblue" d="M1222.5,-136.679C1214.24,-126.388 1203.07,-112.484 1194.4,-101.69"/>
<polygon fill="midnightblue" stroke="midnightblue" points="1197.08,-99.434 1188.09,-93.8283 1191.62,-103.817 1197.08,-99.434"/>
</g>
<!-- Node18 -->
<g id="node18" class="node"><title>Node18</title>
<polygon fill="none" stroke="#bfbfbf" points="1981,-74.5 1981,-93.5 2043,-93.5 2043,-74.5 1981,-74.5"/>
<text text-anchor="middle" x="2012" y="-81.5" font-family="Helvetica,sans-Serif" font-size="10.00">type_traits</text>
</g>
<!-- Node14&#45;&gt;Node18 -->
<g id="edge20" class="edge"><title>Node14&#45;&gt;Node18</title>
<path fill="none" stroke="midnightblue" d="M1312.34,-143.647C1339.18,-141.166 1369.4,-138.414 1397,-136 1613,-117.106 1871.83,-96.2127 1970.78,-88.2887"/>
<polygon fill="midnightblue" stroke="midnightblue" points="1971.26,-91.7614 1980.95,-87.4749 1970.71,-84.7837 1971.26,-91.7614"/>
</g>
<!-- Node19 -->
<g id="node19" class="node"><title>Node19</title>
<g id="a_node19"><a xlink:href="../../d9/d52/Common_2MathUtils_2include_2MathUtils_2Utils_8h.html" target="_top" xlink:title="MathUtils/Utils.h">
<polygon fill="none" stroke="black" points="1260,-74.5 1260,-93.5 1350,-93.5 1350,-74.5 1260,-74.5"/>
<text text-anchor="middle" x="1305" y="-81.5" font-family="Helvetica,sans-Serif" font-size="10.00">MathUtils/Utils.h</text>
</a>
</g>
</g>
<!-- Node14&#45;&gt;Node19 -->
<g id="edge21" class="edge"><title>Node14&#45;&gt;Node19</title>
<path fill="none" stroke="midnightblue" d="M1249.41,-136.679C1260.81,-126.082 1276.33,-111.655 1288.07,-100.736"/>
<polygon fill="midnightblue" stroke="midnightblue" points="1290.56,-103.2 1295.5,-93.8283 1285.8,-98.0733 1290.56,-103.2"/>
</g>
<!-- Node19&#45;&gt;Node12 -->
<g id="edge22" class="edge"><title>Node19&#45;&gt;Node12</title>
<path fill="none" stroke="midnightblue" d="M1288.14,-74.4194C1268.4,-64.35 1234.75,-47.1072 1206,-32 1205.02,-31.487 1204.03,-30.9626 1203.02,-30.4318"/>
<polygon fill="midnightblue" stroke="midnightblue" points="1204.44,-27.2202 1193.97,-25.6114 1201.15,-33.3995 1204.44,-27.2202"/>
</g>
<!-- Node20 -->
<g id="node20" class="node"><title>Node20</title>
<polygon fill="none" stroke="#bfbfbf" points="1413,-6.5 1413,-25.5 1457,-25.5 1457,-6.5 1413,-6.5"/>
<text text-anchor="middle" x="1435" y="-13.5" font-family="Helvetica,sans-Serif" font-size="10.00">cmath</text>
</g>
<!-- Node19&#45;&gt;Node20 -->
<g id="edge23" class="edge"><title>Node19&#45;&gt;Node20</title>
<path fill="none" stroke="midnightblue" d="M1322,-74.3717C1344.09,-63.1557 1382.9,-43.4532 1408.78,-30.3136"/>
<polygon fill="midnightblue" stroke="midnightblue" points="1410.67,-33.2783 1418,-25.6305 1407.5,-27.0366 1410.67,-33.2783"/>
</g>
<!-- Node21 -->
<g id="node21" class="node"><title>Node21</title>
<g id="a_node21"><a xlink:href="../../d6/d84/MathConstants_8h.html" target="_top" xlink:title="useful math constants ">
<polygon fill="none" stroke="black" points="1215.5,-6.5 1215.5,-25.5 1394.5,-25.5 1394.5,-6.5 1215.5,-6.5"/>
<text text-anchor="middle" x="1305" y="-13.5" font-family="Helvetica,sans-Serif" font-size="10.00">CommonConstants/MathConstants.h</text>
</a>
</g>
</g>
<!-- Node19&#45;&gt;Node21 -->
<g id="edge24" class="edge"><title>Node19&#45;&gt;Node21</title>
<path fill="none" stroke="midnightblue" d="M1305,-74.3717C1305,-64.6426 1305,-48.528 1305,-35.8504"/>
<polygon fill="midnightblue" stroke="midnightblue" points="1308.5,-35.8411 1305,-25.8411 1301.5,-35.8412 1308.5,-35.8411"/>
</g>
<!-- Node22&#45;&gt;Node10 -->
<g id="edge33" class="edge"><title>Node22&#45;&gt;Node10</title>
<path fill="none" stroke="midnightblue" d="M1023.79,-145.543C1130.85,-135.978 1344.31,-115.708 1418,-100 1422.77,-98.9821 1427.75,-97.6738 1432.61,-96.255"/>
<polygon fill="midnightblue" stroke="midnightblue" points="1433.78,-99.5548 1442.3,-93.2449 1431.71,-92.8701 1433.78,-99.5548"/>
</g>
<!-- Node22&#45;&gt;Node15 -->
<g id="edge31" class="edge"><title>Node22&#45;&gt;Node15</title>
<path fill="none" stroke="midnightblue" d="M1023.53,-146.032C1154.86,-135.454 1451.03,-110.79 1496,-100 1499.24,-99.2222 1502.57,-98.2244 1505.85,-97.1136"/>
<polygon fill="midnightblue" stroke="midnightblue" points="1507.25,-100.327 1515.4,-93.5491 1504.8,-93.7697 1507.25,-100.327"/>
</g>
<!-- Node23 -->
<g id="node23" class="node"><title>Node23</title>
<polygon fill="none" stroke="#bfbfbf" points="415.5,-69 415.5,-99 566.5,-99 566.5,-69 415.5,-69"/>
<text text-anchor="start" x="423.5" y="-87" font-family="Helvetica,sans-Serif" font-size="10.00">Math/GenVector/Displacement</text>
<text text-anchor="middle" x="491" y="-76" font-family="Helvetica,sans-Serif" font-size="10.00">Vector3D.h</text>
</g>
<!-- Node22&#45;&gt;Node23 -->
<g id="edge26" class="edge"><title>Node22&#45;&gt;Node23</title>
<path fill="none" stroke="midnightblue" d="M923.379,-142.489C912.339,-140.174 900.219,-137.81 889,-136 753.999,-114.22 716.32,-119.889 576.735,-100.041"/>
<polygon fill="midnightblue" stroke="midnightblue" points="576.903,-96.5295 566.506,-98.5675 575.904,-103.458 576.903,-96.5295"/>
</g>
<!-- Node24 -->
<g id="node24" class="node"><title>Node24</title>
<polygon fill="none" stroke="#bfbfbf" points="585,-74.5 585,-93.5 761,-93.5 761,-74.5 585,-74.5"/>
<text text-anchor="middle" x="673" y="-81.5" font-family="Helvetica,sans-Serif" font-size="10.00">Math/GenVector/PositionVector3D.h</text>
</g>
<!-- Node22&#45;&gt;Node24 -->
<g id="edge27" class="edge"><title>Node22&#45;&gt;Node24</title>
<path fill="none" stroke="midnightblue" d="M923.644,-142.439C871.525,-130.495 777.003,-108.834 720.113,-95.7966"/>
<polygon fill="midnightblue" stroke="midnightblue" points="720.819,-92.3678 710.29,-93.5455 719.255,-99.1909 720.819,-92.3678"/>
</g>
<!-- Node25 -->
<g id="node25" class="node"><title>Node25</title>
<polygon fill="none" stroke="#bfbfbf" points="778.5,-74.5 778.5,-93.5 927.5,-93.5 927.5,-74.5 778.5,-74.5"/>
<text text-anchor="middle" x="853" y="-81.5" font-family="Helvetica,sans-Serif" font-size="10.00">Math/GenVector/Rotation3D.h</text>
</g>
<!-- Node22&#45;&gt;Node25 -->
<g id="edge28" class="edge"><title>Node22&#45;&gt;Node25</title>
<path fill="none" stroke="midnightblue" d="M946.881,-142.372C928.851,-131.353 897.419,-112.145 875.932,-99.0142"/>
<polygon fill="midnightblue" stroke="midnightblue" points="877.481,-95.8585 867.123,-93.6305 873.83,-101.832 877.481,-95.8585"/>
</g>
<!-- Node26 -->
<g id="node26" class="node"><title>Node26</title>
<polygon fill="none" stroke="#bfbfbf" points="946,-74.5 946,-93.5 1102,-93.5 1102,-74.5 946,-74.5"/>
<text text-anchor="middle" x="1024" y="-81.5" font-family="Helvetica,sans-Serif" font-size="10.00">Math/GenVector/Transform3D.h</text>
</g>
<!-- Node22&#45;&gt;Node26 -->
<g id="edge29" class="edge"><title>Node22&#45;&gt;Node26</title>
<path fill="none" stroke="midnightblue" d="M969.236,-142.372C979.18,-131.955 996.111,-114.217 1008.52,-101.216"/>
<polygon fill="midnightblue" stroke="midnightblue" points="1011.19,-103.491 1015.56,-93.8411 1006.12,-98.658 1011.19,-103.491"/>
</g>
<!-- Node27 -->
<g id="node27" class="node"><title>Node27</title>
<polygon fill="none" stroke="#bfbfbf" points="0,-74.5 0,-93.5 160,-93.5 160,-74.5 0,-74.5"/>
<text text-anchor="middle" x="80" y="-81.5" font-family="Helvetica,sans-Serif" font-size="10.00">Math/GenVector/Translation3D.h</text>
</g>
<!-- Node22&#45;&gt;Node27 -->
<g id="edge30" class="edge"><title>Node22&#45;&gt;Node27</title>
<path fill="none" stroke="midnightblue" d="M925.662,-142.497C914.048,-140.008 901.031,-137.545 889,-136 571.208,-95.2034 487.517,-134.684 169,-100 157.675,-98.7668 145.604,-97.0242 134.125,-95.1611"/>
<polygon fill="midnightblue" stroke="midnightblue" points="134.663,-91.7026 124.223,-93.5025 133.507,-98.6064 134.663,-91.7026"/>
</g>
<!-- Node28 -->
<g id="node28" class="node"><title>Node28</title>
<polygon fill="none" stroke="#bfbfbf" points="178,-74.5 178,-93.5 254,-93.5 254,-74.5 178,-74.5"/>
<text text-anchor="middle" x="216" y="-81.5" font-family="Helvetica,sans-Serif" font-size="10.00">TGeoMatrix.h</text>
</g>
<!-- Node22&#45;&gt;Node28 -->
<g id="edge32" class="edge"><title>Node22&#45;&gt;Node28</title>
<path fill="none" stroke="midnightblue" d="M925.288,-142.471C913.767,-140.013 900.899,-137.573 889,-136 612.721,-99.4809 537.019,-150.766 263,-100 258.423,-99.1521 253.672,-97.9882 249.026,-96.6807"/>
<polygon fill="midnightblue" stroke="midnightblue" points="249.719,-93.2328 239.132,-93.656 247.672,-99.9269 249.719,-93.2328"/>
</g>
<!-- Node29 -->
<g id="node29" class="node"><title>Node29</title>
<g id="a_node29"><a xlink:href="../../d2/dd0/Cartesian2D_8h.html" target="_top" xlink:title="MathUtils/Cartesian2D.h">
<polygon fill="none" stroke="black" points="272.5,-74.5 272.5,-93.5 397.5,-93.5 397.5,-74.5 272.5,-74.5"/>
<text text-anchor="middle" x="335" y="-81.5" font-family="Helvetica,sans-Serif" font-size="10.00">MathUtils/Cartesian2D.h</text>
</a>
</g>
</g>
<!-- Node22&#45;&gt;Node29 -->
<g id="edge34" class="edge"><title>Node22&#45;&gt;Node29</title>
<path fill="none" stroke="midnightblue" d="M924.534,-142.436C913.203,-140.036 900.632,-137.638 889,-136 675.841,-105.984 619.117,-130.316 406,-100 397.842,-98.8395 389.218,-97.2929 380.898,-95.6332"/>
<polygon fill="midnightblue" stroke="midnightblue" points="381.456,-92.1744 370.954,-93.5709 380.035,-99.0285 381.456,-92.1744"/>
</g>
<!-- Node30 -->
<g id="node30" class="node"><title>Node30</title>
<polygon fill="none" stroke="#bfbfbf" points="350.5,-1 350.5,-31 501.5,-31 501.5,-1 350.5,-1"/>
<text text-anchor="start" x="358.5" y="-19" font-family="Helvetica,sans-Serif" font-size="10.00">Math/GenVector/Displacement</text>
<text text-anchor="middle" x="426" y="-8" font-family="Helvetica,sans-Serif" font-size="10.00">Vector2D.h</text>
</g>
<!-- Node29&#45;&gt;Node30 -->
<g id="edge35" class="edge"><title>Node29&#45;&gt;Node30</title>
<path fill="none" stroke="midnightblue" d="M346.897,-74.3717C359.779,-65.0286 380.78,-49.7966 397.907,-37.375"/>
<polygon fill="midnightblue" stroke="midnightblue" points="400.407,-39.8859 406.447,-31.1815 396.297,-34.2194 400.407,-39.8859"/>
</g>
<!-- Node31 -->
<g id="node31" class="node"><title>Node31</title>
<polygon fill="none" stroke="#bfbfbf" points="156,-6.5 156,-25.5 332,-25.5 332,-6.5 156,-6.5"/>
<text text-anchor="middle" x="244" y="-13.5" font-family="Helvetica,sans-Serif" font-size="10.00">Math/GenVector/PositionVector2D.h</text>
</g>
<!-- Node29&#45;&gt;Node31 -->
<g id="edge36" class="edge"><title>Node29&#45;&gt;Node31</title>
<path fill="none" stroke="midnightblue" d="M323.103,-74.3717C308.116,-63.5015 282.138,-44.6602 264.058,-31.5474"/>
<polygon fill="midnightblue" stroke="midnightblue" points="266.05,-28.6684 255.9,-25.6305 261.94,-34.3349 266.05,-28.6684"/>
</g>
<!-- Node33&#45;&gt;Node4 -->
<g id="edge43" class="edge"><title>Node33&#45;&gt;Node4</title>
<path fill="none" stroke="midnightblue" d="M1460.92,-408.403C1426.71,-397.933 1368.8,-380.205 1330.73,-368.55"/>
<polygon fill="midnightblue" stroke="midnightblue" points="1331.62,-365.161 1321.03,-365.581 1329.57,-371.855 1331.62,-365.161"/>
</g>
<!-- Node33&#45;&gt;Node13 -->
<g id="edge42" class="edge"><title>Node33&#45;&gt;Node13</title>
<path fill="none" stroke="midnightblue" d="M1483.6,-408.379C1478.32,-399.565 1470.44,-385.316 1466,-372 1442.08,-300.348 1432.52,-210.227 1429.35,-171.775"/>
<polygon fill="midnightblue" stroke="midnightblue" points="1432.82,-171.278 1428.56,-161.578 1425.84,-171.819 1432.82,-171.278"/>
</g>
<!-- Node34 -->
<g id="node34" class="node"><title>Node34</title>
<polygon fill="none" stroke="#bfbfbf" points="1379,-346.5 1379,-365.5 1419,-365.5 1419,-346.5 1379,-346.5"/>
<text text-anchor="middle" x="1399" y="-353.5" font-family="Helvetica,sans-Serif" font-size="10.00">utility</text>
</g>
<!-- Node33&#45;&gt;Node34 -->
<g id="edge41" class="edge"><title>Node33&#45;&gt;Node34</title>
<path fill="none" stroke="midnightblue" d="M1476.11,-408.403C1461.54,-398.691 1437.6,-382.732 1420.25,-371.17"/>
<polygon fill="midnightblue" stroke="midnightblue" points="1422.13,-368.215 1411.87,-365.581 1418.25,-374.04 1422.13,-368.215"/>
</g>
<!-- Node35 -->
<g id="node35" class="node"><title>Node35</title>
<g id="a_node35"><a xlink:href="../../d4/d54/Geo_8h.html" target="_top" xlink:title="TOFBase/Geo.h">
<polygon fill="none" stroke="black" points="1475,-346.5 1475,-365.5 1563,-365.5 1563,-346.5 1475,-346.5"/>
<text text-anchor="middle" x="1519" y="-353.5" font-family="Helvetica,sans-Serif" font-size="10.00">TOFBase/Geo.h</text>
</a>
</g>
</g>
<!-- Node33&#45;&gt;Node35 -->
<g id="edge44" class="edge"><title>Node33&#45;&gt;Node35</title>
<path fill="none" stroke="midnightblue" d="M1493.3,-408.403C1497.66,-399.671 1504.56,-385.889 1510.1,-374.794"/>
<polygon fill="midnightblue" stroke="midnightblue" points="1513.37,-376.09 1514.71,-365.581 1507.11,-372.96 1513.37,-376.09"/>
</g>
<!-- Node36 -->
<g id="node36" class="node"><title>Node36</title>
<g id="a_node36"><a xlink:href="../../d0/d1a/DataReader_8h.html" target="_top" xlink:title="Definition of the TOF hit reader. ">
<polygon fill="none" stroke="black" points="1581,-346.5 1581,-365.5 1747,-365.5 1747,-346.5 1581,-346.5"/>
<text text-anchor="middle" x="1664" y="-353.5" font-family="Helvetica,sans-Serif" font-size="10.00">TOFReconstruction/DataReader.h</text>
</a>
</g>
</g>
<!-- Node33&#45;&gt;Node36 -->
<g id="edge46" class="edge"><title>Node33&#45;&gt;Node36</title>
<path fill="none" stroke="midnightblue" d="M1514.07,-408.403C1544.35,-398.022 1595.44,-380.506 1629.44,-368.849"/>
<polygon fill="midnightblue" stroke="midnightblue" points="1630.65,-372.135 1638.97,-365.581 1628.38,-365.513 1630.65,-372.135"/>
</g>
<!-- Node33&#45;&gt;Node39 -->
<g id="edge53" class="edge"><title>Node33&#45;&gt;Node39</title>
<path fill="none" stroke="midnightblue" d="M1565.78,-410.48C1646.33,-403.139 1776.49,-389.864 1888,-372 1889.5,-371.76 1891.01,-371.51 1892.53,-371.252"/>
<polygon fill="midnightblue" stroke="midnightblue" points="1893.48,-374.638 1902.71,-369.437 1892.25,-367.747 1893.48,-374.638"/>
</g>
<!-- Node33&#45;&gt;Node43 -->
<g id="edge59" class="edge"><title>Node33&#45;&gt;Node43</title>
<path fill="none" stroke="midnightblue" d="M1545.17,-408.479C1597.09,-400.388 1676.63,-387.455 1754.79,-372.179"/>
<polygon fill="midnightblue" stroke="midnightblue" points="1755.67,-375.573 1764.8,-370.207 1754.32,-368.705 1755.67,-375.573"/>
</g>
<!-- Node35&#45;&gt;Node15 -->
<g id="edge45" class="edge"><title>Node35&#45;&gt;Node15</title>
<path fill="none" stroke="midnightblue" d="M1519.48,-346.322C1521.59,-308.397 1530.02,-156.729 1532.97,-103.544"/>
<polygon fill="midnightblue" stroke="midnightblue" points="1536.47,-103.689 1533.53,-93.5106 1529.48,-103.301 1536.47,-103.689"/>
</g>
<!-- Node37 -->
<g id="node37" class="node"><title>Node37</title>
<g id="a_node37"><a xlink:href="../../df/d9c/TOF_2base_2include_2TOFBase_2Digit_8h.html" target="_top" xlink:title="TOFBase/Digit.h">
<polygon fill="none" stroke="black" points="1623,-210.5 1623,-229.5 1713,-229.5 1713,-210.5 1623,-210.5"/>
<text text-anchor="middle" x="1668" y="-217.5" font-family="Helvetica,sans-Serif" font-size="10.00">TOFBase/Digit.h</text>
</a>
</g>
</g>
<!-- Node36&#45;&gt;Node37 -->
<g id="edge47" class="edge"><title>Node36&#45;&gt;Node37</title>
<path fill="none" stroke="midnightblue" d="M1664.26,-346.208C1664.9,-324.722 1666.56,-269.167 1667.44,-239.814"/>
<polygon fill="midnightblue" stroke="midnightblue" points="1670.94,-239.75 1667.74,-229.65 1663.94,-239.541 1670.94,-239.75"/>
</g>
<!-- Node37&#45;&gt;Node10 -->
<g id="edge50" class="edge"><title>Node37&#45;&gt;Node10</title>
<path fill="none" stroke="midnightblue" d="M1668.63,-210.327C1669.35,-193.502 1668.36,-156.308 1648,-136 1599.16,-87.2742 1562.13,-122.76 1497,-100 1495.09,-99.332 1493.14,-98.5871 1491.19,-97.796"/>
<polygon fill="midnightblue" stroke="midnightblue" points="1492.23,-94.4304 1481.67,-93.5999 1489.41,-100.836 1492.23,-94.4304"/>
</g>
<!-- Node37&#45;&gt;Node15 -->
<g id="edge51" class="edge"><title>Node37&#45;&gt;Node15</title>
<path fill="none" stroke="midnightblue" d="M1673.24,-210.314C1682.27,-194.109 1698.29,-158.844 1682,-136 1657.33,-101.409 1607.6,-90.0464 1572.62,-86.4421"/>
<polygon fill="midnightblue" stroke="midnightblue" points="1572.54,-82.9227 1562.28,-85.5555 1571.94,-89.8971 1572.54,-82.9227"/>
</g>
<!-- Node37&#45;&gt;Node32 -->
<g id="edge52" class="edge"><title>Node37&#45;&gt;Node32</title>
<path fill="none" stroke="midnightblue" d="M1658.06,-210.372C1647.5,-201.2 1630.41,-186.354 1616.25,-174.062"/>
<polygon fill="midnightblue" stroke="midnightblue" points="1618.18,-171.096 1608.33,-167.181 1613.59,-176.381 1618.18,-171.096"/>
</g>
<!-- Node38 -->
<g id="node38" class="node"><title>Node38</title>
<g id="a_node38"><a xlink:href="../../df/d5d/common_2include_2CommonDataFormat_2TimeStamp_8h.html" target="_top" xlink:title="CommonDataFormat/TimeStamp.h">
<polygon fill="none" stroke="black" points="1734,-142.5 1734,-161.5 1904,-161.5 1904,-142.5 1734,-142.5"/>
<text text-anchor="middle" x="1819" y="-149.5" font-family="Helvetica,sans-Serif" font-size="10.00">CommonDataFormat/TimeStamp.h</text>
</a>
</g>
</g>
<!-- Node37&#45;&gt;Node38 -->
<g id="edge48" class="edge"><title>Node37&#45;&gt;Node38</title>
<path fill="none" stroke="midnightblue" d="M1687.74,-210.372C1713.74,-199.007 1759.67,-178.931 1789.72,-165.796"/>
<polygon fill="midnightblue" stroke="midnightblue" points="1791.49,-168.843 1799.25,-161.63 1788.69,-162.428 1791.49,-168.843"/>
</g>
<!-- Node38&#45;&gt;Node15 -->
<g id="edge49" class="edge"><title>Node38&#45;&gt;Node15</title>
<path fill="none" stroke="midnightblue" d="M1782.03,-142.439C1727.84,-129.89 1627.32,-106.611 1572.35,-93.8815"/>
<polygon fill="midnightblue" stroke="midnightblue" points="1572.85,-90.4038 1562.32,-91.5574 1571.27,-97.2233 1572.85,-90.4038"/>
</g>
<!-- Node39&#45;&gt;Node16 -->
<g id="edge55" class="edge"><title>Node39&#45;&gt;Node16</title>
<path fill="none" stroke="midnightblue" d="M2012.95,-340.925C2031.44,-333.191 2050.24,-321.483 2061,-304 2068.45,-291.887 2065.89,-285.355 2061,-272 2033.79,-197.668 2013.55,-177.262 1946,-136 1887.49,-100.26 1806.25,-89.5498 1760.65,-86.3512"/>
<polygon fill="midnightblue" stroke="midnightblue" points="1760.86,-82.858 1750.66,-85.7322 1760.43,-89.8446 1760.86,-82.858"/>
</g>
<!-- Node39&#45;&gt;Node18 -->
<g id="edge58" class="edge"><title>Node39&#45;&gt;Node18</title>
<path fill="none" stroke="midnightblue" d="M2017.26,-348.534C2045.63,-342.114 2077.48,-329.35 2095,-304 2137.46,-242.578 2131.44,-201.168 2095,-136 2084.97,-118.065 2065.76,-105.666 2048.35,-97.5888"/>
<polygon fill="midnightblue" stroke="midnightblue" points="2049.5,-94.2735 2038.93,-93.538 2046.74,-100.704 2049.5,-94.2735"/>
</g>
<!-- Node40 -->
<g id="node40" class="node"><title>Node40</title>
<polygon fill="none" stroke="#bfbfbf" points="1850,-278.5 1850,-297.5 1912,-297.5 1912,-278.5 1850,-278.5"/>
<text text-anchor="middle" x="1881" y="-285.5" font-family="Helvetica,sans-Serif" font-size="10.00">TNamed.h</text>
</g>
<!-- Node39&#45;&gt;Node40 -->
<g id="edge54" class="edge"><title>Node39&#45;&gt;Node40</title>
<path fill="none" stroke="midnightblue" d="M1942.86,-340.679C1930.05,-329.981 1912.57,-315.377 1899.46,-304.422"/>
<polygon fill="midnightblue" stroke="midnightblue" points="1901.49,-301.554 1891.57,-297.828 1897,-306.926 1901.49,-301.554"/>
</g>
<!-- Node41 -->
<g id="node41" class="node"><title>Node41</title>
<polygon fill="none" stroke="#bfbfbf" points="1930.5,-278.5 1930.5,-297.5 1989.5,-297.5 1989.5,-278.5 1930.5,-278.5"/>
<text text-anchor="middle" x="1960" y="-285.5" font-family="Helvetica,sans-Serif" font-size="10.00">stdexcept</text>
</g>
<!-- Node39&#45;&gt;Node41 -->
<g id="edge56" class="edge"><title>Node39&#45;&gt;Node41</title>
<path fill="none" stroke="midnightblue" d="M1960,-340.679C1960,-331.101 1960,-318.394 1960,-307.977"/>
<polygon fill="midnightblue" stroke="midnightblue" points="1963.5,-307.828 1960,-297.828 1956.5,-307.828 1963.5,-307.828"/>
</g>
<!-- Node42 -->
<g id="node42" class="node"><title>Node42</title>
<polygon fill="none" stroke="#bfbfbf" points="2007.5,-278.5 2007.5,-297.5 2052.5,-297.5 2052.5,-278.5 2007.5,-278.5"/>
<text text-anchor="middle" x="2030" y="-285.5" font-family="Helvetica,sans-Serif" font-size="10.00">gsl/gsl</text>
</g>
<!-- Node39&#45;&gt;Node42 -->
<g id="edge57" class="edge"><title>Node39&#45;&gt;Node42</title>
<path fill="none" stroke="midnightblue" d="M1975.19,-340.679C1986.43,-330.082 2001.73,-315.655 2013.31,-304.736"/>
<polygon fill="midnightblue" stroke="midnightblue" points="2015.76,-307.235 2020.64,-297.828 2010.96,-302.142 2015.76,-307.235"/>
</g>
<!-- Node43&#45;&gt;Node15 -->
<g id="edge60" class="edge"><title>Node43&#45;&gt;Node15</title>
<path fill="none" stroke="midnightblue" d="M1823.56,-340.978C1825.81,-324.05 1830.86,-294.994 1841,-272 1868.59,-209.421 1958.02,-187.485 1913,-136 1901.82,-123.217 1666.39,-98.2875 1572.33,-88.7945"/>
<polygon fill="midnightblue" stroke="midnightblue" points="1572.4,-85.2845 1562.1,-87.7673 1571.7,-92.2494 1572.4,-85.2845"/>
</g>
</g>
</svg>
        <g id="navigator" transform="translate(0 0)" fill="#404254">
                <rect fill="#f2f5e9" fill-opacity="0.5" stroke="#606060" stroke-width=".5" x="0" y="0" width="60" height="60"/>
                <use id="zoomplus" xlink:href="#zoomPlus" x="17" y="9" onmousedown="handleZoom(evt,'in')"/>
                <use id="zoomminus" xlink:href="#zoomMin" x="42" y="9" onmousedown="handleZoom(evt,'out')"/>
                <use id="reset" xlink:href="#resetDef" x="30" y="36" onmousedown="handleReset()"/>
                <g id="arrowUp" xlink:href="#dirArrow" transform="translate(30 24)" onmousedown="handlePan(0,-1)">
                  <use xlink:href="#rim" fill="#404040">
                        <set attributeName="fill" to="#808080" begin="arrowUp.mouseover" end="arrowUp.mouseout"/>
                  </use>
                  <path fill="none" stroke="white" stroke-width="1.5" d="M0,-3.0v7 M-2.5,-0.5L0,-3.0L2.5,-0.5"/>
                </g>
                <g id="arrowRight" xlink:href="#dirArrow" transform="rotate(90) translate(36 -43)" onmousedown="handlePan(1,0)">
                  <use xlink:href="#rim" fill="#404040">
                        <set attributeName="fill" to="#808080" begin="arrowRight.mouseover" end="arrowRight.mouseout"/>
                  </use>
                  <path fill="none" stroke="white" stroke-width="1.5" d="M0,-3.0v7 M-2.5,-0.5L0,-3.0L2.5,-0.5"/>
                </g>
                <g id="arrowDown" xlink:href="#dirArrow" transform="rotate(180) translate(-30 -48)" onmousedown="handlePan(0,1)">
                  <use xlink:href="#rim" fill="#404040">
                        <set attributeName="fill" to="#808080" begin="arrowDown.mouseover" end="arrowDown.mouseout"/>
                  </use>
                  <path fill="none" stroke="white" stroke-width="1.5" d="M0,-3.0v7 M-2.5,-0.5L0,-3.0L2.5,-0.5"/>
                </g>
                <g id="arrowLeft" xlink:href="#dirArrow" transform="rotate(270) translate(-36 17)" onmousedown="handlePan(-1,0)">
                  <use xlink:href="#rim" fill="#404040">
                        <set attributeName="fill" to="#808080" begin="arrowLeft.mouseover" end="arrowLeft.mouseout"/>
                  </use>
                  <path fill="none" stroke="white" stroke-width="1.5" d="M0,-3.0v7 M-2.5,-0.5L0,-3.0L2.5,-0.5"/>
                </g>
        </g>
        <svg viewBox="0 0 15 15" width="100%" height="30px" preserveAspectRatio="xMaxYMin meet">
         <g id="arrow_out" transform="scale(0.3 0.3)">
          <a xlink:href="TOF_2reconstruction_2src_2Clusterer_8cxx__incl_org.svg" target="_base">
           <rect id="button" ry="5" rx="5" y="6" x="6" height="38" width="38"
                fill="#f2f5e9" fill-opacity="0.5" stroke="#606060" stroke-width="1.0"/>
           <path id="arrow"
             d="M 11.500037,31.436501 C 11.940474,20.09759 22.043105,11.32322 32.158766,21.979434 L 37.068811,17.246167 C 37.068811,17.246167 37.088388,32 37.088388,32 L 22.160133,31.978069 C 22.160133,31.978069 26.997745,27.140456 26.997745,27.140456 C 18.528582,18.264221 13.291696,25.230495 11.500037,31.436501 z"
             style="fill:#404040;"/>
          </a>
         </g>
        </svg>
</svg>
