<?xml version="1.0" encoding="UTF-8" standalone="no"?>
<!DOCTYPE svg PUBLIC "-//W3C//DTD SVG 1.1//EN"
 "http://www.w3.org/Graphics/SVG/1.1/DTD/svg11.dtd">
<!-- Generated by graphviz version 2.36.0 (20140111.2315)
 -->
<!-- Title: /home/travis/build/AliceO2Group/AliceO2/Detectors/ITSMFT/MFT/reconstruction/src/TrackerTask.cxx Pages: 1 -->
<svg width="2111pt" height="650pt"
 viewBox="0.00 0.00 2111.00 650.00" xmlns="http://www.w3.org/2000/svg" xmlns:xlink="http://www.w3.org/1999/xlink">
<g id="graph0" class="graph" transform="scale(1 1) rotate(0) translate(4 646)">
<title>/home/travis/build/AliceO2Group/AliceO2/Detectors/ITSMFT/MFT/reconstruction/src/TrackerTask.cxx</title>
<!-- Node1 -->
<g id="node1" class="node"><title>Node1</title>
<polygon fill="#bfbfbf" stroke="black" points="1254,-589 1254,-641 1428,-641 1428,-589 1254,-589"/>
<text text-anchor="start" x="1262" y="-629" font-family="Helvetica,sans-Serif" font-size="10.00">/home/travis/build</text>
<text text-anchor="start" x="1262" y="-618" font-family="Helvetica,sans-Serif" font-size="10.00">/AliceO2Group/AliceO2</text>
<text text-anchor="start" x="1262" y="-607" font-family="Helvetica,sans-Serif" font-size="10.00">/Detectors/ITSMFT/MFT</text>
<text text-anchor="middle" x="1341" y="-596" font-family="Helvetica,sans-Serif" font-size="10.00">/reconstruction/src/TrackerTask.cxx</text>
</g>
<!-- Node2 -->
<g id="node2" class="node"><title>Node2</title>
<g id="a_node2"><a xlink:href="../../d2/de5/TrackerTask_8h.html" target="_top" xlink:title="Task driving the track finding from MFT clusters. ">
<polygon fill="none" stroke="black" points="1161.5,-521 1161.5,-551 1300.5,-551 1300.5,-521 1161.5,-521"/>
<text text-anchor="start" x="1169.5" y="-539" font-family="Helvetica,sans-Serif" font-size="10.00">MFTReconstruction/Tracker</text>
<text text-anchor="middle" x="1231" y="-528" font-family="Helvetica,sans-Serif" font-size="10.00">Task.h</text>
</a>
</g>
</g>
<!-- Node1&#45;&gt;Node2 -->
<g id="edge1" class="edge"><title>Node1&#45;&gt;Node2</title>
<path fill="none" stroke="midnightblue" d="M1304.98,-588.787C1290.14,-578.399 1273.2,-566.54 1259.28,-556.794"/>
<polygon fill="midnightblue" stroke="midnightblue" points="1261.24,-553.898 1251.04,-551.031 1257.23,-559.633 1261.24,-553.898"/>
</g>
<!-- Node42 -->
<g id="node42" class="node"><title>Node42</title>
<g id="a_node42"><a xlink:href="../../d1/d62/DataFormats_2Detectors_2ITSMFT_2common_2include_2DataFormatsITSMFT_2Cluster_8h.html" target="_top" xlink:title="DataFormatsITSMFT/Cluster.h">
<polygon fill="none" stroke="black" points="898,-346.5 898,-365.5 1050,-365.5 1050,-346.5 898,-346.5"/>
<text text-anchor="middle" x="974" y="-353.5" font-family="Helvetica,sans-Serif" font-size="10.00">DataFormatsITSMFT/Cluster.h</text>
</a>
</g>
</g>
<!-- Node1&#45;&gt;Node42 -->
<g id="edge60" class="edge"><title>Node1&#45;&gt;Node42</title>
<path fill="none" stroke="midnightblue" d="M1253.69,-593.371C1220.58,-583.523 1183.33,-569.904 1152,-552 1079.54,-510.595 1062.49,-493.674 1011,-428 998.179,-411.647 987.714,-390.18 981.226,-375.149"/>
<polygon fill="midnightblue" stroke="midnightblue" points="984.458,-373.806 977.389,-365.913 977.993,-376.491 984.458,-373.806"/>
</g>
<!-- Node43 -->
<g id="node43" class="node"><title>Node43</title>
<g id="a_node43"><a xlink:href="../../d7/dcd/MCCompLabel_8h.html" target="_top" xlink:title="SimulationDataFormat\l/MCCompLabel.h">
<polygon fill="none" stroke="black" points="1394,-521 1394,-551 1508,-551 1508,-521 1394,-521"/>
<text text-anchor="start" x="1402" y="-539" font-family="Helvetica,sans-Serif" font-size="10.00">SimulationDataFormat</text>
<text text-anchor="middle" x="1451" y="-528" font-family="Helvetica,sans-Serif" font-size="10.00">/MCCompLabel.h</text>
</a>
</g>
</g>
<!-- Node1&#45;&gt;Node43 -->
<g id="edge62" class="edge"><title>Node1&#45;&gt;Node43</title>
<path fill="none" stroke="midnightblue" d="M1377.02,-588.787C1391.86,-578.399 1408.8,-566.54 1422.72,-556.794"/>
<polygon fill="midnightblue" stroke="midnightblue" points="1424.77,-559.633 1430.96,-551.031 1420.76,-553.898 1424.77,-559.633"/>
</g>
<!-- Node44 -->
<g id="node44" class="node"><title>Node44</title>
<g id="a_node44"><a xlink:href="../../db/d14/MCTruthContainer_8h.html" target="_top" xlink:title="Definition of a container to keep Monte Carlo truth external to simulation objects. ">
<polygon fill="none" stroke="black" points="1834,-137 1834,-167 1948,-167 1948,-137 1834,-137"/>
<text text-anchor="start" x="1842" y="-155" font-family="Helvetica,sans-Serif" font-size="10.00">SimulationDataFormat</text>
<text text-anchor="middle" x="1891" y="-144" font-family="Helvetica,sans-Serif" font-size="10.00">/MCTruthContainer.h</text>
</a>
</g>
</g>
<!-- Node1&#45;&gt;Node44 -->
<g id="edge64" class="edge"><title>Node1&#45;&gt;Node44</title>
<path fill="none" stroke="midnightblue" d="M1428.02,-606.002C1563.13,-591.146 1808,-553.406 1808,-475 1808,-475 1808,-475 1808,-287 1808,-241.617 1842.83,-198.797 1867.37,-174.266"/>
<polygon fill="midnightblue" stroke="midnightblue" points="1869.86,-176.73 1874.6,-167.258 1864.98,-171.703 1869.86,-176.73"/>
</g>
<!-- Node3 -->
<g id="node3" class="node"><title>Node3</title>
<polygon fill="none" stroke="#bfbfbf" points="1199.5,-464.5 1199.5,-483.5 1262.5,-483.5 1262.5,-464.5 1199.5,-464.5"/>
<text text-anchor="middle" x="1231" y="-471.5" font-family="Helvetica,sans-Serif" font-size="10.00">FairTask.h</text>
</g>
<!-- Node2&#45;&gt;Node3 -->
<g id="edge2" class="edge"><title>Node2&#45;&gt;Node3</title>
<path fill="none" stroke="midnightblue" d="M1231,-520.781C1231,-512.781 1231,-502.689 1231,-494.017"/>
<polygon fill="midnightblue" stroke="midnightblue" points="1234.5,-493.73 1231,-483.731 1227.5,-493.731 1234.5,-493.73"/>
</g>
<!-- Node4 -->
<g id="node4" class="node"><title>Node4</title>
<g id="a_node4"><a xlink:href="../../db/dd0/TrackMFT_8h.html" target="_top" xlink:title="DataFormatsMFT/TrackMFT.h">
<polygon fill="none" stroke="black" points="1176,-408.5 1176,-427.5 1326,-427.5 1326,-408.5 1176,-408.5"/>
<text text-anchor="middle" x="1251" y="-415.5" font-family="Helvetica,sans-Serif" font-size="10.00">DataFormatsMFT/TrackMFT.h</text>
</a>
</g>
</g>
<!-- Node2&#45;&gt;Node4 -->
<g id="edge3" class="edge"><title>Node2&#45;&gt;Node4</title>
<path fill="none" stroke="midnightblue" d="M1213.41,-520.846C1198.09,-506.698 1179.8,-484.203 1190,-464 1196.81,-450.52 1209.77,-440.083 1222,-432.67"/>
<polygon fill="midnightblue" stroke="midnightblue" points="1224.07,-435.521 1231.09,-427.59 1220.66,-429.41 1224.07,-435.521"/>
</g>
<!-- Node39 -->
<g id="node39" class="node"><title>Node39</title>
<polygon fill="none" stroke="#bfbfbf" points="1020.5,-408.5 1020.5,-427.5 1157.5,-427.5 1157.5,-408.5 1020.5,-408.5"/>
<text text-anchor="middle" x="1089" y="-415.5" font-family="Helvetica,sans-Serif" font-size="10.00">MFTBase/GeometryTGeo.h</text>
</g>
<!-- Node2&#45;&gt;Node39 -->
<g id="edge53" class="edge"><title>Node2&#45;&gt;Node39</title>
<path fill="none" stroke="midnightblue" d="M1213.59,-520.776C1186.72,-498.831 1135.39,-456.895 1107.74,-434.31"/>
<polygon fill="midnightblue" stroke="midnightblue" points="1109.62,-431.323 1099.66,-427.707 1105.19,-436.744 1109.62,-431.323"/>
</g>
<!-- Node40 -->
<g id="node40" class="node"><title>Node40</title>
<g id="a_node40"><a xlink:href="../../d6/d36/ITSMFT_2MFT_2reconstruction_2include_2MFTReconstruction_2Tracker_8h.html" target="_top" xlink:title="MFTReconstruction/Tracker.h">
<polygon fill="none" stroke="black" points="1280.5,-464.5 1280.5,-483.5 1427.5,-483.5 1427.5,-464.5 1280.5,-464.5"/>
<text text-anchor="middle" x="1354" y="-471.5" font-family="Helvetica,sans-Serif" font-size="10.00">MFTReconstruction/Tracker.h</text>
</a>
</g>
</g>
<!-- Node2&#45;&gt;Node40 -->
<g id="edge54" class="edge"><title>Node2&#45;&gt;Node40</title>
<path fill="none" stroke="midnightblue" d="M1259.84,-520.933C1280.22,-510.991 1307.34,-497.76 1327.24,-488.053"/>
<polygon fill="midnightblue" stroke="midnightblue" points="1328.92,-491.13 1336.37,-483.6 1325.85,-484.839 1328.92,-491.13"/>
</g>
<!-- Node5 -->
<g id="node5" class="node"><title>Node5</title>
<polygon fill="none" stroke="#bfbfbf" points="1330,-142.5 1330,-161.5 1374,-161.5 1374,-142.5 1330,-142.5"/>
<text text-anchor="middle" x="1352" y="-149.5" font-family="Helvetica,sans-Serif" font-size="10.00">vector</text>
</g>
<!-- Node4&#45;&gt;Node5 -->
<g id="edge4" class="edge"><title>Node4&#45;&gt;Node5</title>
<path fill="none" stroke="midnightblue" d="M1254.36,-408.216C1268.74,-370.629 1325.26,-222.891 1345.08,-171.076"/>
<polygon fill="midnightblue" stroke="midnightblue" points="1348.42,-172.14 1348.73,-161.55 1341.89,-169.639 1348.42,-172.14"/>
</g>
<!-- Node6 -->
<g id="node6" class="node"><title>Node6</title>
<g id="a_node6"><a xlink:href="../../d7/d8b/DataFormats_2Reconstruction_2include_2ReconstructionDataFormats_2Track_8h.html" target="_top" xlink:title="ReconstructionDataFormats\l/Track.h">
<polygon fill="none" stroke="black" points="329,-341 329,-371 469,-371 469,-341 329,-341"/>
<text text-anchor="start" x="337" y="-359" font-family="Helvetica,sans-Serif" font-size="10.00">ReconstructionDataFormats</text>
<text text-anchor="middle" x="399" y="-348" font-family="Helvetica,sans-Serif" font-size="10.00">/Track.h</text>
</a>
</g>
</g>
<!-- Node4&#45;&gt;Node6 -->
<g id="edge5" class="edge"><title>Node4&#45;&gt;Node6</title>
<path fill="none" stroke="midnightblue" d="M1175.93,-408.89C1172.57,-408.579 1169.25,-408.28 1166,-408 915.812,-386.445 619.033,-369.024 479.32,-361.305"/>
<polygon fill="midnightblue" stroke="midnightblue" points="479.307,-357.799 469.13,-360.743 478.922,-364.788 479.307,-357.799"/>
</g>
<!-- Node7 -->
<g id="node7" class="node"><title>Node7</title>
<polygon fill="none" stroke="#bfbfbf" points="1477,-74.5 1477,-93.5 1533,-93.5 1533,-74.5 1477,-74.5"/>
<text text-anchor="middle" x="1505" y="-81.5" font-family="Helvetica,sans-Serif" font-size="10.00">Rtypes.h</text>
</g>
<!-- Node6&#45;&gt;Node7 -->
<g id="edge6" class="edge"><title>Node6&#45;&gt;Node7</title>
<path fill="none" stroke="midnightblue" d="M469.058,-353.769C588.493,-350.717 838.812,-340.178 1047,-304 1160.45,-284.285 1187.07,-270.266 1297,-236 1383.83,-208.936 1431.03,-237.241 1490,-168 1505.17,-150.182 1507.25,-122.26 1506.66,-103.796"/>
<polygon fill="midnightblue" stroke="midnightblue" points="1510.15,-103.466 1506.05,-93.6967 1503.16,-103.89 1510.15,-103.466"/>
</g>
<!-- Node8 -->
<g id="node8" class="node"><title>Node8</title>
<polygon fill="none" stroke="#bfbfbf" points="569,-278.5 569,-297.5 625,-297.5 625,-278.5 569,-278.5"/>
<text text-anchor="middle" x="597" y="-285.5" font-family="Helvetica,sans-Serif" font-size="10.00">algorithm</text>
</g>
<!-- Node6&#45;&gt;Node8 -->
<g id="edge7" class="edge"><title>Node6&#45;&gt;Node8</title>
<path fill="none" stroke="midnightblue" d="M445.836,-340.982C477.882,-331.169 521.237,-317.454 559,-304 561.543,-303.094 564.17,-302.126 566.799,-301.134"/>
<polygon fill="midnightblue" stroke="midnightblue" points="568.122,-304.375 576.189,-297.507 565.6,-297.845 568.122,-304.375"/>
</g>
<!-- Node9 -->
<g id="node9" class="node"><title>Node9</title>
<polygon fill="none" stroke="#bfbfbf" points="1516,-6.5 1516,-25.5 1554,-25.5 1554,-6.5 1516,-6.5"/>
<text text-anchor="middle" x="1535" y="-13.5" font-family="Helvetica,sans-Serif" font-size="10.00">array</text>
</g>
<!-- Node6&#45;&gt;Node9 -->
<g id="edge8" class="edge"><title>Node6&#45;&gt;Node9</title>
<path fill="none" stroke="midnightblue" d="M469.117,-353.856C599.677,-350.896 888.613,-340.434 1129,-304 1389.92,-264.453 1543.15,-374.878 1707,-168 1717.36,-154.916 1721.41,-90.3971 1704,-68 1670.81,-25.3182 1603.11,-17.2429 1564.22,-16.3471"/>
<polygon fill="midnightblue" stroke="midnightblue" points="1564.1,-12.8461 1554.07,-16.262 1564.04,-19.8458 1564.1,-12.8461"/>
</g>
<!-- Node10 -->
<g id="node10" class="node"><title>Node10</title>
<polygon fill="none" stroke="#bfbfbf" points="11.5,-278.5 11.5,-297.5 52.5,-297.5 52.5,-278.5 11.5,-278.5"/>
<text text-anchor="middle" x="32" y="-285.5" font-family="Helvetica,sans-Serif" font-size="10.00">cfloat</text>
</g>
<!-- Node6&#45;&gt;Node10 -->
<g id="edge9" class="edge"><title>Node6&#45;&gt;Node10</title>
<path fill="none" stroke="midnightblue" d="M328.912,-349.411C260.953,-342.788 155.443,-329.304 67,-304 64.3504,-303.242 61.6356,-302.333 58.9471,-301.342"/>
<polygon fill="midnightblue" stroke="midnightblue" points="60.0718,-298.022 49.4888,-297.521 57.4494,-304.512 60.0718,-298.022"/>
</g>
<!-- Node11 -->
<g id="node11" class="node"><title>Node11</title>
<polygon fill="none" stroke="#bfbfbf" points="201,-6.5 201,-25.5 245,-25.5 245,-6.5 201,-6.5"/>
<text text-anchor="middle" x="223" y="-13.5" font-family="Helvetica,sans-Serif" font-size="10.00">cmath</text>
</g>
<!-- Node6&#45;&gt;Node11 -->
<g id="edge10" class="edge"><title>Node6&#45;&gt;Node11</title>
<path fill="none" stroke="midnightblue" d="M386.808,-340.732C378.534,-330.751 367.581,-316.942 359,-304 301.725,-217.615 285.222,-195.939 246,-100 237.274,-78.6549 230.714,-52.9059 226.878,-35.8052"/>
<polygon fill="midnightblue" stroke="midnightblue" points="230.282,-34.9883 224.755,-25.9497 223.439,-36.4626 230.282,-34.9883"/>
</g>
<!-- Node12 -->
<g id="node12" class="node"><title>Node12</title>
<polygon fill="none" stroke="#bfbfbf" points="147,-278.5 147,-297.5 193,-297.5 193,-278.5 147,-278.5"/>
<text text-anchor="middle" x="170" y="-285.5" font-family="Helvetica,sans-Serif" font-size="10.00">cstring</text>
</g>
<!-- Node6&#45;&gt;Node12 -->
<g id="edge11" class="edge"><title>Node6&#45;&gt;Node12</title>
<path fill="none" stroke="midnightblue" d="M332.408,-340.997C293.794,-332.079 244.544,-319.329 202,-304 200.095,-303.314 198.15,-302.555 196.206,-301.754"/>
<polygon fill="midnightblue" stroke="midnightblue" points="197.253,-298.39 186.693,-297.537 194.416,-304.789 197.253,-298.39"/>
</g>
<!-- Node13 -->
<g id="node13" class="node"><title>Node13</title>
<polygon fill="none" stroke="#bfbfbf" points="255.5,-74.5 255.5,-93.5 300.5,-93.5 300.5,-74.5 255.5,-74.5"/>
<text text-anchor="middle" x="278" y="-81.5" font-family="Helvetica,sans-Serif" font-size="10.00">iosfwd</text>
</g>
<!-- Node6&#45;&gt;Node13 -->
<g id="edge12" class="edge"><title>Node6&#45;&gt;Node13</title>
<path fill="none" stroke="midnightblue" d="M392.665,-340.864C372.327,-295.482 308.699,-153.502 286.08,-103.029"/>
<polygon fill="midnightblue" stroke="midnightblue" points="289.189,-101.41 281.906,-93.7155 282.802,-104.272 289.189,-101.41"/>
</g>
<!-- Node14 -->
<g id="node14" class="node"><title>Node14</title>
<polygon fill="none" stroke="#bfbfbf" points="211.5,-278.5 211.5,-297.5 294.5,-297.5 294.5,-278.5 211.5,-278.5"/>
<text text-anchor="middle" x="253" y="-285.5" font-family="Helvetica,sans-Serif" font-size="10.00">Math/SMatrix.h</text>
</g>
<!-- Node6&#45;&gt;Node14 -->
<g id="edge13" class="edge"><title>Node6&#45;&gt;Node14</title>
<path fill="none" stroke="midnightblue" d="M367.679,-340.841C342.086,-329.272 306.214,-313.055 281.436,-301.855"/>
<polygon fill="midnightblue" stroke="midnightblue" points="282.759,-298.612 272.205,-297.682 279.876,-304.99 282.759,-298.612"/>
</g>
<!-- Node15 -->
<g id="node15" class="node"><title>Node15</title>
<polygon fill="none" stroke="#bfbfbf" points="465.5,-278.5 465.5,-297.5 550.5,-297.5 550.5,-278.5 465.5,-278.5"/>
<text text-anchor="middle" x="508" y="-285.5" font-family="Helvetica,sans-Serif" font-size="10.00">Math/SVector.h</text>
</g>
<!-- Node6&#45;&gt;Node15 -->
<g id="edge14" class="edge"><title>Node6&#45;&gt;Node15</title>
<path fill="none" stroke="midnightblue" d="M422.383,-340.841C440.899,-329.63 466.62,-314.056 485.028,-302.91"/>
<polygon fill="midnightblue" stroke="midnightblue" points="486.92,-305.855 493.662,-297.682 483.295,-299.868 486.92,-305.855"/>
</g>
<!-- Node16 -->
<g id="node16" class="node"><title>Node16</title>
<g id="a_node16"><a xlink:href="../../d6/d84/MathConstants_8h.html" target="_top" xlink:title="useful math constants ">
<polygon fill="none" stroke="black" points="-0.5,-6.5 -0.5,-25.5 178.5,-25.5 178.5,-6.5 -0.5,-6.5"/>
<text text-anchor="middle" x="89" y="-13.5" font-family="Helvetica,sans-Serif" font-size="10.00">CommonConstants/MathConstants.h</text>
</a>
</g>
</g>
<!-- Node6&#45;&gt;Node16 -->
<g id="edge15" class="edge"><title>Node6&#45;&gt;Node16</title>
<path fill="none" stroke="midnightblue" d="M328.932,-349.731C256.633,-343.016 150.03,-329.142 118,-304 86.2302,-279.062 81,-261.388 81,-221 81,-221 81,-221 81,-151 81,-109.974 84.7829,-62.0069 87.1461,-36.045"/>
<polygon fill="midnightblue" stroke="midnightblue" points="90.6607,-36.053 88.1133,-25.769 83.6915,-35.397 90.6607,-36.053"/>
</g>
<!-- Node17 -->
<g id="node17" class="node"><title>Node17</title>
<g id="a_node17"><a xlink:href="../../dd/d76/Cartesian3D_8h.html" target="_top" xlink:title="MathUtils/Cartesian3D.h">
<polygon fill="none" stroke="black" points="817.5,-142.5 817.5,-161.5 942.5,-161.5 942.5,-142.5 817.5,-142.5"/>
<text text-anchor="middle" x="880" y="-149.5" font-family="Helvetica,sans-Serif" font-size="10.00">MathUtils/Cartesian3D.h</text>
</a>
</g>
</g>
<!-- Node6&#45;&gt;Node17 -->
<g id="edge16" class="edge"><title>Node6&#45;&gt;Node17</title>
<path fill="none" stroke="midnightblue" d="M404.891,-340.996C413.424,-322.424 430.984,-289.909 456,-272 562.85,-195.506 717.348,-168.086 807.349,-158.325"/>
<polygon fill="midnightblue" stroke="midnightblue" points="807.877,-161.789 817.461,-157.273 807.153,-154.826 807.877,-161.789"/>
</g>
<!-- Node27 -->
<g id="node27" class="node"><title>Node27</title>
<g id="a_node27"><a xlink:href="../../d9/d52/Common_2MathUtils_2include_2MathUtils_2Utils_8h.html" target="_top" xlink:title="MathUtils/Utils.h">
<polygon fill="none" stroke="black" points="109,-74.5 109,-93.5 199,-93.5 199,-74.5 109,-74.5"/>
<text text-anchor="middle" x="154" y="-81.5" font-family="Helvetica,sans-Serif" font-size="10.00">MathUtils/Utils.h</text>
</a>
</g>
</g>
<!-- Node6&#45;&gt;Node27 -->
<g id="edge28" class="edge"><title>Node6&#45;&gt;Node27</title>
<path fill="none" stroke="midnightblue" d="M328.889,-351.098C259.976,-345.623 161.773,-332.868 138,-304 89.4,-244.984 126.762,-144.037 145.231,-103.071"/>
<polygon fill="midnightblue" stroke="midnightblue" points="148.498,-104.345 149.555,-93.803 142.155,-101.385 148.498,-104.345"/>
</g>
<!-- Node28 -->
<g id="node28" class="node"><title>Node28</title>
<g id="a_node28"><a xlink:href="../../d4/de2/BaseCluster_8h.html" target="_top" xlink:title="ReconstructionDataFormats\l/BaseCluster.h">
<polygon fill="none" stroke="black" points="898,-273 898,-303 1038,-303 1038,-273 898,-273"/>
<text text-anchor="start" x="906" y="-291" font-family="Helvetica,sans-Serif" font-size="10.00">ReconstructionDataFormats</text>
<text text-anchor="middle" x="968" y="-280" font-family="Helvetica,sans-Serif" font-size="10.00">/BaseCluster.h</text>
</a>
</g>
</g>
<!-- Node6&#45;&gt;Node28 -->
<g id="edge32" class="edge"><title>Node6&#45;&gt;Node28</title>
<path fill="none" stroke="midnightblue" d="M469.056,-346.874C575.06,-334.578 775.681,-311.308 887.529,-298.334"/>
<polygon fill="midnightblue" stroke="midnightblue" points="888.209,-301.779 897.739,-297.15 887.402,-294.825 888.209,-301.779"/>
</g>
<!-- Node17&#45;&gt;Node7 -->
<g id="edge22" class="edge"><title>Node17&#45;&gt;Node7</title>
<path fill="none" stroke="midnightblue" d="M942.82,-147.261C1045.08,-140.705 1253.74,-125.368 1429,-100 1441.48,-98.1938 1455.01,-95.6989 1467.15,-93.2618"/>
<polygon fill="midnightblue" stroke="midnightblue" points="1467.87,-96.686 1476.97,-91.2448 1466.47,-89.8292 1467.87,-96.686"/>
</g>
<!-- Node17&#45;&gt;Node13 -->
<g id="edge24" class="edge"><title>Node17&#45;&gt;Node13</title>
<path fill="none" stroke="midnightblue" d="M817.076,-148.241C689.229,-142.167 403.246,-126.07 309,-100 306.799,-99.3913 304.566,-98.6304 302.357,-97.7763"/>
<polygon fill="midnightblue" stroke="midnightblue" points="303.582,-94.4903 293.023,-93.6179 300.733,-100.884 303.582,-94.4903"/>
</g>
<!-- Node18 -->
<g id="node18" class="node"><title>Node18</title>
<polygon fill="none" stroke="#bfbfbf" points="1075.5,-69 1075.5,-99 1226.5,-99 1226.5,-69 1075.5,-69"/>
<text text-anchor="start" x="1083.5" y="-87" font-family="Helvetica,sans-Serif" font-size="10.00">Math/GenVector/Displacement</text>
<text text-anchor="middle" x="1151" y="-76" font-family="Helvetica,sans-Serif" font-size="10.00">Vector3D.h</text>
</g>
<!-- Node17&#45;&gt;Node18 -->
<g id="edge17" class="edge"><title>Node17&#45;&gt;Node18</title>
<path fill="none" stroke="midnightblue" d="M915.151,-142.439C957.687,-132.08 1030.24,-114.41 1083.67,-101.397"/>
<polygon fill="midnightblue" stroke="midnightblue" points="1084.53,-104.792 1093.41,-99.0247 1082.87,-97.9905 1084.53,-104.792"/>
</g>
<!-- Node19 -->
<g id="node19" class="node"><title>Node19</title>
<polygon fill="none" stroke="#bfbfbf" points="1245,-74.5 1245,-93.5 1421,-93.5 1421,-74.5 1245,-74.5"/>
<text text-anchor="middle" x="1333" y="-81.5" font-family="Helvetica,sans-Serif" font-size="10.00">Math/GenVector/PositionVector3D.h</text>
</g>
<!-- Node17&#45;&gt;Node19 -->
<g id="edge18" class="edge"><title>Node17&#45;&gt;Node19</title>
<path fill="none" stroke="midnightblue" d="M940.641,-142.461C1011.34,-132.467 1131.68,-115.328 1235,-100 1245.62,-98.4239 1256.89,-96.7249 1267.86,-95.0567"/>
<polygon fill="midnightblue" stroke="midnightblue" points="1268.46,-98.5056 1277.82,-93.5376 1267.4,-91.5856 1268.46,-98.5056"/>
</g>
<!-- Node20 -->
<g id="node20" class="node"><title>Node20</title>
<polygon fill="none" stroke="#bfbfbf" points="318.5,-74.5 318.5,-93.5 467.5,-93.5 467.5,-74.5 318.5,-74.5"/>
<text text-anchor="middle" x="393" y="-81.5" font-family="Helvetica,sans-Serif" font-size="10.00">Math/GenVector/Rotation3D.h</text>
</g>
<!-- Node17&#45;&gt;Node20 -->
<g id="edge19" class="edge"><title>Node17&#45;&gt;Node20</title>
<path fill="none" stroke="midnightblue" d="M817.222,-144.124C737.657,-135.168 596.366,-118.46 476,-100 466.859,-98.598 457.176,-96.9749 447.776,-95.325"/>
<polygon fill="midnightblue" stroke="midnightblue" points="448.184,-91.8427 437.725,-93.5333 446.956,-98.734 448.184,-91.8427"/>
</g>
<!-- Node21 -->
<g id="node21" class="node"><title>Node21</title>
<polygon fill="none" stroke="#bfbfbf" points="629,-74.5 629,-93.5 785,-93.5 785,-74.5 629,-74.5"/>
<text text-anchor="middle" x="707" y="-81.5" font-family="Helvetica,sans-Serif" font-size="10.00">Math/GenVector/Transform3D.h</text>
</g>
<!-- Node17&#45;&gt;Node21 -->
<g id="edge20" class="edge"><title>Node17&#45;&gt;Node21</title>
<path fill="none" stroke="midnightblue" d="M857.383,-142.372C827.123,-130.827 773.297,-110.293 738.919,-97.1772"/>
<polygon fill="midnightblue" stroke="midnightblue" points="739.939,-93.8203 729.348,-93.5259 737.444,-100.36 739.939,-93.8203"/>
</g>
<!-- Node22 -->
<g id="node22" class="node"><title>Node22</title>
<polygon fill="none" stroke="#bfbfbf" points="803,-74.5 803,-93.5 963,-93.5 963,-74.5 803,-74.5"/>
<text text-anchor="middle" x="883" y="-81.5" font-family="Helvetica,sans-Serif" font-size="10.00">Math/GenVector/Translation3D.h</text>
</g>
<!-- Node17&#45;&gt;Node22 -->
<g id="edge21" class="edge"><title>Node17&#45;&gt;Node22</title>
<path fill="none" stroke="midnightblue" d="M880.392,-142.372C880.834,-132.643 881.567,-116.528 882.143,-103.85"/>
<polygon fill="midnightblue" stroke="midnightblue" points="885.64,-103.99 882.598,-93.8411 878.648,-103.672 885.64,-103.99"/>
</g>
<!-- Node23 -->
<g id="node23" class="node"><title>Node23</title>
<polygon fill="none" stroke="#bfbfbf" points="981,-74.5 981,-93.5 1057,-93.5 1057,-74.5 981,-74.5"/>
<text text-anchor="middle" x="1019" y="-81.5" font-family="Helvetica,sans-Serif" font-size="10.00">TGeoMatrix.h</text>
</g>
<!-- Node17&#45;&gt;Node23 -->
<g id="edge23" class="edge"><title>Node17&#45;&gt;Node23</title>
<path fill="none" stroke="midnightblue" d="M898.172,-142.372C922.001,-131.057 964.021,-111.105 991.689,-97.9678"/>
<polygon fill="midnightblue" stroke="midnightblue" points="993.292,-101.081 1000.82,-93.6305 990.289,-94.7581 993.292,-101.081"/>
</g>
<!-- Node24 -->
<g id="node24" class="node"><title>Node24</title>
<g id="a_node24"><a xlink:href="../../d2/dd0/Cartesian2D_8h.html" target="_top" xlink:title="MathUtils/Cartesian2D.h">
<polygon fill="none" stroke="black" points="485.5,-74.5 485.5,-93.5 610.5,-93.5 610.5,-74.5 485.5,-74.5"/>
<text text-anchor="middle" x="548" y="-81.5" font-family="Helvetica,sans-Serif" font-size="10.00">MathUtils/Cartesian2D.h</text>
</a>
</g>
</g>
<!-- Node17&#45;&gt;Node24 -->
<g id="edge25" class="edge"><title>Node17&#45;&gt;Node24</title>
<path fill="none" stroke="midnightblue" d="M835.805,-142.494C784.047,-132.495 695.745,-115.318 620,-100 613.189,-98.6226 606.02,-97.1529 598.953,-95.6925"/>
<polygon fill="midnightblue" stroke="midnightblue" points="599.228,-92.1751 588.726,-93.5712 597.806,-99.0292 599.228,-92.1751"/>
</g>
<!-- Node25 -->
<g id="node25" class="node"><title>Node25</title>
<polygon fill="none" stroke="#bfbfbf" points="381.5,-1 381.5,-31 532.5,-31 532.5,-1 381.5,-1"/>
<text text-anchor="start" x="389.5" y="-19" font-family="Helvetica,sans-Serif" font-size="10.00">Math/GenVector/Displacement</text>
<text text-anchor="middle" x="457" y="-8" font-family="Helvetica,sans-Serif" font-size="10.00">Vector2D.h</text>
</g>
<!-- Node24&#45;&gt;Node25 -->
<g id="edge26" class="edge"><title>Node24&#45;&gt;Node25</title>
<path fill="none" stroke="midnightblue" d="M536.103,-74.3717C523.221,-65.0286 502.22,-49.7966 485.093,-37.375"/>
<polygon fill="midnightblue" stroke="midnightblue" points="486.703,-34.2194 476.553,-31.1815 482.593,-39.8859 486.703,-34.2194"/>
</g>
<!-- Node26 -->
<g id="node26" class="node"><title>Node26</title>
<polygon fill="none" stroke="#bfbfbf" points="551,-6.5 551,-25.5 727,-25.5 727,-6.5 551,-6.5"/>
<text text-anchor="middle" x="639" y="-13.5" font-family="Helvetica,sans-Serif" font-size="10.00">Math/GenVector/PositionVector2D.h</text>
</g>
<!-- Node24&#45;&gt;Node26 -->
<g id="edge27" class="edge"><title>Node24&#45;&gt;Node26</title>
<path fill="none" stroke="midnightblue" d="M559.897,-74.3717C574.884,-63.5015 600.862,-44.6602 618.942,-31.5474"/>
<polygon fill="midnightblue" stroke="midnightblue" points="621.06,-34.3349 627.1,-25.6305 616.95,-28.6684 621.06,-34.3349"/>
</g>
<!-- Node27&#45;&gt;Node9 -->
<g id="edge29" class="edge"><title>Node27&#45;&gt;Node9</title>
<path fill="none" stroke="midnightblue" d="M199.245,-74.4956C214.091,-72.0074 230.704,-69.5438 246,-68 747.703,-17.3663 1363.98,-16.3478 1505.22,-16.8375"/>
<polygon fill="midnightblue" stroke="midnightblue" points="1505.62,-20.3391 1515.63,-16.8796 1505.65,-13.3391 1505.62,-20.3391"/>
</g>
<!-- Node27&#45;&gt;Node11 -->
<g id="edge30" class="edge"><title>Node27&#45;&gt;Node11</title>
<path fill="none" stroke="midnightblue" d="M163.021,-74.3717C174.014,-63.8564 192.805,-45.8819 206.43,-32.8496"/>
<polygon fill="midnightblue" stroke="midnightblue" points="208.95,-35.2826 213.757,-25.8411 204.111,-30.2241 208.95,-35.2826"/>
</g>
<!-- Node27&#45;&gt;Node16 -->
<g id="edge31" class="edge"><title>Node27&#45;&gt;Node16</title>
<path fill="none" stroke="midnightblue" d="M145.502,-74.3717C135.243,-63.9547 117.775,-46.2173 104.971,-33.2162"/>
<polygon fill="midnightblue" stroke="midnightblue" points="107.218,-30.5101 97.7072,-25.8411 102.23,-35.4219 107.218,-30.5101"/>
</g>
<!-- Node28&#45;&gt;Node13 -->
<g id="edge37" class="edge"><title>Node28&#45;&gt;Node13</title>
<path fill="none" stroke="midnightblue" d="M904.582,-272.9C785.707,-245.62 522.135,-181.097 309,-100 307.348,-99.3714 305.664,-98.688 303.978,-97.9708"/>
<polygon fill="midnightblue" stroke="midnightblue" points="305.048,-94.6116 294.497,-93.6399 302.139,-100.979 305.048,-94.6116"/>
</g>
<!-- Node28&#45;&gt;Node17 -->
<g id="edge52" class="edge"><title>Node28&#45;&gt;Node17</title>
<path fill="none" stroke="midnightblue" d="M938.156,-272.831C923.226,-264.229 906.207,-251.837 896,-236 883.479,-216.572 880.309,-189.633 879.723,-171.779"/>
<polygon fill="midnightblue" stroke="midnightblue" points="883.22,-171.499 879.638,-161.528 876.221,-171.557 883.22,-171.499"/>
</g>
<!-- Node29 -->
<g id="node29" class="node"><title>Node29</title>
<polygon fill="none" stroke="#bfbfbf" points="938.5,-210.5 938.5,-229.5 997.5,-229.5 997.5,-210.5 938.5,-210.5"/>
<text text-anchor="middle" x="968" y="-217.5" font-family="Helvetica,sans-Serif" font-size="10.00">TObject.h</text>
</g>
<!-- Node28&#45;&gt;Node29 -->
<g id="edge33" class="edge"><title>Node28&#45;&gt;Node29</title>
<path fill="none" stroke="midnightblue" d="M968,-272.679C968,-263.101 968,-250.394 968,-239.977"/>
<polygon fill="midnightblue" stroke="midnightblue" points="971.5,-239.828 968,-229.828 964.5,-239.828 971.5,-239.828"/>
</g>
<!-- Node30 -->
<g id="node30" class="node"><title>Node30</title>
<polygon fill="none" stroke="#bfbfbf" points="1551.5,-74.5 1551.5,-93.5 1592.5,-93.5 1592.5,-74.5 1551.5,-74.5"/>
<text text-anchor="middle" x="1572" y="-81.5" font-family="Helvetica,sans-Serif" font-size="10.00">bitset</text>
</g>
<!-- Node28&#45;&gt;Node30 -->
<g id="edge34" class="edge"><title>Node28&#45;&gt;Node30</title>
<path fill="none" stroke="midnightblue" d="M952.634,-272.963C935.38,-255.501 911.895,-225.385 929,-204 1015.17,-96.2726 1408.54,-138.539 1541,-100 1543.19,-99.3622 1545.42,-98.5808 1547.62,-97.713"/>
<polygon fill="midnightblue" stroke="midnightblue" points="1549.26,-100.816 1556.95,-93.5318 1546.4,-94.4284 1549.26,-100.816"/>
</g>
<!-- Node31 -->
<g id="node31" class="node"><title>Node31</title>
<polygon fill="none" stroke="#bfbfbf" points="1016,-210.5 1016,-229.5 1066,-229.5 1066,-210.5 1016,-210.5"/>
<text text-anchor="middle" x="1041" y="-217.5" font-family="Helvetica,sans-Serif" font-size="10.00">iomanip</text>
</g>
<!-- Node28&#45;&gt;Node31 -->
<g id="edge35" class="edge"><title>Node28&#45;&gt;Node31</title>
<path fill="none" stroke="midnightblue" d="M983.84,-272.679C995.56,-262.082 1011.52,-247.655 1023.59,-236.736"/>
<polygon fill="midnightblue" stroke="midnightblue" points="1026.16,-239.131 1031.24,-229.828 1021.47,-233.939 1026.16,-239.131"/>
</g>
<!-- Node32 -->
<g id="node32" class="node"><title>Node32</title>
<polygon fill="none" stroke="#bfbfbf" points="1084.5,-210.5 1084.5,-229.5 1113.5,-229.5 1113.5,-210.5 1084.5,-210.5"/>
<text text-anchor="middle" x="1099" y="-217.5" font-family="Helvetica,sans-Serif" font-size="10.00">ios</text>
</g>
<!-- Node28&#45;&gt;Node32 -->
<g id="edge36" class="edge"><title>Node28&#45;&gt;Node32</title>
<path fill="none" stroke="midnightblue" d="M999.843,-272.974C1021.38,-263.211 1050.28,-249.558 1075,-236 1075.68,-235.628 1076.36,-235.245 1077.05,-234.853"/>
<polygon fill="midnightblue" stroke="midnightblue" points="1079.17,-237.665 1085.96,-229.527 1075.58,-231.658 1079.17,-237.665"/>
</g>
<!-- Node33 -->
<g id="node33" class="node"><title>Node33</title>
<g id="a_node33"><a xlink:href="../../d4/d20/DetMatrixCache_8h.html" target="_top" xlink:title="DetectorsCommonDataFormats\l/DetMatrixCache.h">
<polygon fill="none" stroke="black" points="1132,-205 1132,-235 1288,-235 1288,-205 1132,-205"/>
<text text-anchor="start" x="1140" y="-223" font-family="Helvetica,sans-Serif" font-size="10.00">DetectorsCommonDataFormats</text>
<text text-anchor="middle" x="1210" y="-212" font-family="Helvetica,sans-Serif" font-size="10.00">/DetMatrixCache.h</text>
</a>
</g>
</g>
<!-- Node28&#45;&gt;Node33 -->
<g id="edge38" class="edge"><title>Node28&#45;&gt;Node33</title>
<path fill="none" stroke="midnightblue" d="M1019.62,-272.922C1057.37,-262.627 1108.73,-248.619 1148.59,-237.748"/>
<polygon fill="midnightblue" stroke="midnightblue" points="1149.73,-241.064 1158.46,-235.056 1147.89,-234.311 1149.73,-241.064"/>
</g>
<!-- Node33&#45;&gt;Node5 -->
<g id="edge41" class="edge"><title>Node33&#45;&gt;Node5</title>
<path fill="none" stroke="midnightblue" d="M1240.36,-204.964C1262.46,-194.739 1293.1,-180.541 1320,-168 1321.39,-167.352 1322.81,-166.687 1324.25,-166.016"/>
<polygon fill="midnightblue" stroke="midnightblue" points="1326.16,-168.989 1333.73,-161.58 1323.19,-162.649 1326.16,-168.989"/>
</g>
<!-- Node33&#45;&gt;Node7 -->
<g id="edge51" class="edge"><title>Node33&#45;&gt;Node7</title>
<path fill="none" stroke="midnightblue" d="M1209.2,-204.909C1208.98,-186.237 1211.65,-153.61 1231,-136 1308.16,-65.7597 1361.86,-125.662 1463,-100 1466.59,-99.0895 1470.3,-97.996 1473.97,-96.8194"/>
<polygon fill="midnightblue" stroke="midnightblue" points="1475.11,-100.127 1483.44,-93.5799 1472.85,-93.5029 1475.11,-100.127"/>
</g>
<!-- Node33&#45;&gt;Node9 -->
<g id="edge40" class="edge"><title>Node33&#45;&gt;Node9</title>
<path fill="none" stroke="midnightblue" d="M1205.01,-204.791C1199.6,-186.588 1193.77,-155.113 1210,-136 1273.84,-60.8069 1339.14,-140.673 1429,-100 1449.43,-90.7547 1450.41,-81.9036 1468,-68 1483.8,-55.5074 1502.01,-41.6853 1515.45,-31.5855"/>
<polygon fill="midnightblue" stroke="midnightblue" points="1517.62,-34.3349 1523.52,-25.5374 1513.42,-28.7331 1517.62,-34.3349"/>
</g>
<!-- Node33&#45;&gt;Node17 -->
<g id="edge50" class="edge"><title>Node33&#45;&gt;Node17</title>
<path fill="none" stroke="midnightblue" d="M1139.61,-204.922C1077.6,-192.52 988.653,-174.731 932.632,-163.526"/>
<polygon fill="midnightblue" stroke="midnightblue" points="933.061,-160.043 922.569,-161.514 931.688,-166.907 933.061,-160.043"/>
</g>
<!-- Node34 -->
<g id="node34" class="node"><title>Node34</title>
<polygon fill="none" stroke="#bfbfbf" points="1240.5,-142.5 1240.5,-161.5 1311.5,-161.5 1311.5,-142.5 1240.5,-142.5"/>
<text text-anchor="middle" x="1276" y="-149.5" font-family="Helvetica,sans-Serif" font-size="10.00">FairLogger.h</text>
</g>
<!-- Node33&#45;&gt;Node34 -->
<g id="edge39" class="edge"><title>Node33&#45;&gt;Node34</title>
<path fill="none" stroke="midnightblue" d="M1224.32,-204.679C1234.82,-194.184 1249.07,-179.932 1259.95,-169.052"/>
<polygon fill="midnightblue" stroke="midnightblue" points="1262.58,-171.374 1267.17,-161.828 1257.63,-166.425 1262.58,-171.374"/>
</g>
<!-- Node35 -->
<g id="node35" class="node"><title>Node35</title>
<g id="a_node35"><a xlink:href="../../d6/d31/DetID_8h.html" target="_top" xlink:title="DetectorsCommonDataFormats\l/DetID.h">
<polygon fill="none" stroke="black" points="1542,-137 1542,-167 1698,-167 1698,-137 1542,-137"/>
<text text-anchor="start" x="1550" y="-155" font-family="Helvetica,sans-Serif" font-size="10.00">DetectorsCommonDataFormats</text>
<text text-anchor="middle" x="1620" y="-144" font-family="Helvetica,sans-Serif" font-size="10.00">/DetID.h</text>
</a>
</g>
</g>
<!-- Node33&#45;&gt;Node35 -->
<g id="edge42" class="edge"><title>Node33&#45;&gt;Node35</title>
<path fill="none" stroke="midnightblue" d="M1288.08,-206.431C1357.65,-195.232 1459.36,-178.859 1531.83,-167.193"/>
<polygon fill="midnightblue" stroke="midnightblue" points="1532.54,-170.624 1541.86,-165.579 1531.43,-163.713 1532.54,-170.624"/>
</g>
<!-- Node35&#45;&gt;Node7 -->
<g id="edge43" class="edge"><title>Node35&#45;&gt;Node7</title>
<path fill="none" stroke="midnightblue" d="M1595.33,-136.841C1575.71,-125.579 1548.41,-109.913 1528.97,-98.7572"/>
<polygon fill="midnightblue" stroke="midnightblue" points="1530.54,-95.624 1520.13,-93.6819 1527.06,-101.695 1530.54,-95.624"/>
</g>
<!-- Node35&#45;&gt;Node9 -->
<g id="edge44" class="edge"><title>Node35&#45;&gt;Node9</title>
<path fill="none" stroke="midnightblue" d="M1619.63,-136.974C1618.57,-119.524 1614.7,-89.4201 1601,-68 1591.02,-52.3887 1574.52,-39.6411 1560.52,-30.7951"/>
<polygon fill="midnightblue" stroke="midnightblue" points="1562.15,-27.6915 1551.77,-25.5546 1558.55,-33.6964 1562.15,-27.6915"/>
</g>
<!-- Node35&#45;&gt;Node27 -->
<g id="edge49" class="edge"><title>Node35&#45;&gt;Node27</title>
<path fill="none" stroke="midnightblue" d="M1541.78,-145.453C1495.36,-142.315 1435.35,-138.526 1382,-136 877.423,-112.11 748.785,-148.746 246,-100 234.045,-98.8409 221.289,-97.0932 209.202,-95.1955"/>
<polygon fill="midnightblue" stroke="midnightblue" points="209.67,-91.7257 199.238,-93.5757 208.547,-98.635 209.67,-91.7257"/>
</g>
<!-- Node35&#45;&gt;Node30 -->
<g id="edge45" class="edge"><title>Node35&#45;&gt;Node30</title>
<path fill="none" stroke="midnightblue" d="M1609.58,-136.679C1602.17,-126.49 1592.19,-112.759 1584.37,-102.011"/>
<polygon fill="midnightblue" stroke="midnightblue" points="1587.13,-99.8571 1578.42,-93.8283 1581.47,-103.974 1587.13,-99.8571"/>
</g>
<!-- Node36 -->
<g id="node36" class="node"><title>Node36</title>
<polygon fill="none" stroke="#bfbfbf" points="1752.5,-74.5 1752.5,-93.5 1801.5,-93.5 1801.5,-74.5 1752.5,-74.5"/>
<text text-anchor="middle" x="1777" y="-81.5" font-family="Helvetica,sans-Serif" font-size="10.00">cassert</text>
</g>
<!-- Node35&#45;&gt;Node36 -->
<g id="edge46" class="edge"><title>Node35&#45;&gt;Node36</title>
<path fill="none" stroke="midnightblue" d="M1653.68,-136.841C1681.45,-125.169 1720.46,-108.768 1747.13,-97.5585"/>
<polygon fill="midnightblue" stroke="midnightblue" points="1748.49,-100.784 1756.35,-93.6819 1745.77,-94.3308 1748.49,-100.784"/>
</g>
<!-- Node37 -->
<g id="node37" class="node"><title>Node37</title>
<polygon fill="none" stroke="#bfbfbf" points="1649,-74.5 1649,-93.5 1695,-93.5 1695,-74.5 1649,-74.5"/>
<text text-anchor="middle" x="1672" y="-81.5" font-family="Helvetica,sans-Serif" font-size="10.00">cstdint</text>
</g>
<!-- Node35&#45;&gt;Node37 -->
<g id="edge47" class="edge"><title>Node35&#45;&gt;Node37</title>
<path fill="none" stroke="midnightblue" d="M1631.28,-136.679C1639.39,-126.388 1650.35,-112.484 1658.85,-101.69"/>
<polygon fill="midnightblue" stroke="midnightblue" points="1661.6,-103.849 1665.04,-93.8283 1656.11,-99.5172 1661.6,-103.849"/>
</g>
<!-- Node38 -->
<g id="node38" class="node"><title>Node38</title>
<polygon fill="none" stroke="#bfbfbf" points="1820,-74.5 1820,-93.5 1882,-93.5 1882,-74.5 1820,-74.5"/>
<text text-anchor="middle" x="1851" y="-81.5" font-family="Helvetica,sans-Serif" font-size="10.00">type_traits</text>
</g>
<!-- Node35&#45;&gt;Node38 -->
<g id="edge48" class="edge"><title>Node35&#45;&gt;Node38</title>
<path fill="none" stroke="midnightblue" d="M1677.75,-136.913C1715.61,-127.333 1766.04,-113.911 1810,-100 1812.94,-99.0696 1815.98,-98.056 1819.02,-97.0092"/>
<polygon fill="midnightblue" stroke="midnightblue" points="1820.32,-100.262 1828.57,-93.6135 1817.97,-93.6664 1820.32,-100.262"/>
</g>
<!-- Node40&#45;&gt;Node4 -->
<g id="edge56" class="edge"><title>Node40&#45;&gt;Node4</title>
<path fill="none" stroke="midnightblue" d="M1337.45,-464.324C1321.01,-455.703 1295.57,-442.364 1276.53,-432.386"/>
<polygon fill="midnightblue" stroke="midnightblue" points="1277.99,-429.198 1267.51,-427.655 1274.74,-435.398 1277.99,-429.198"/>
</g>
<!-- Node40&#45;&gt;Node5 -->
<g id="edge55" class="edge"><title>Node40&#45;&gt;Node5</title>
<path fill="none" stroke="midnightblue" d="M1354,-464.269C1354,-444.941 1354,-397.076 1354,-357 1354,-357 1354,-357 1354,-287 1354,-246.042 1353.05,-198.05 1352.46,-172.065"/>
<polygon fill="midnightblue" stroke="midnightblue" points="1355.96,-171.694 1352.22,-161.779 1348.96,-171.859 1355.96,-171.694"/>
</g>
<!-- Node40&#45;&gt;Node39 -->
<g id="edge59" class="edge"><title>Node40&#45;&gt;Node39</title>
<path fill="none" stroke="midnightblue" d="M1312.01,-464.444C1265.59,-454.984 1190.77,-439.738 1140.76,-429.547"/>
<polygon fill="midnightblue" stroke="midnightblue" points="1141.29,-426.084 1130.79,-427.516 1139.89,-432.943 1141.29,-426.084"/>
</g>
<!-- Node41 -->
<g id="node41" class="node"><title>Node41</title>
<g id="a_node41"><a xlink:href="../../dc/de5/Detectors_2ITSMFT_2MFT_2base_2include_2MFTBase_2Constants_8h.html" target="_top" xlink:title="MFTBase/Constants.h">
<polygon fill="none" stroke="black" points="1382,-346.5 1382,-365.5 1498,-365.5 1498,-346.5 1382,-346.5"/>
<text text-anchor="middle" x="1440" y="-353.5" font-family="Helvetica,sans-Serif" font-size="10.00">MFTBase/Constants.h</text>
</a>
</g>
</g>
<!-- Node40&#45;&gt;Node41 -->
<g id="edge57" class="edge"><title>Node40&#45;&gt;Node41</title>
<path fill="none" stroke="midnightblue" d="M1360.46,-464.281C1374.73,-445.041 1409.1,-398.677 1427.65,-373.664"/>
<polygon fill="midnightblue" stroke="midnightblue" points="1430.55,-375.622 1433.69,-365.505 1424.93,-371.453 1430.55,-375.622"/>
</g>
<!-- Node41&#45;&gt;Node7 -->
<g id="edge58" class="edge"><title>Node41&#45;&gt;Node7</title>
<path fill="none" stroke="midnightblue" d="M1439.09,-346.198C1436.29,-315.663 1429.83,-212.013 1462,-136 1467.71,-122.501 1478.29,-109.884 1487.52,-100.577"/>
<polygon fill="midnightblue" stroke="midnightblue" points="1490.02,-103.032 1494.82,-93.59 1485.18,-97.9735 1490.02,-103.032"/>
</g>
<!-- Node42&#45;&gt;Node28 -->
<g id="edge61" class="edge"><title>Node42&#45;&gt;Node28</title>
<path fill="none" stroke="midnightblue" d="M973.216,-346.372C972.452,-337.971 971.256,-324.811 970.201,-313.213"/>
<polygon fill="midnightblue" stroke="midnightblue" points="973.68,-312.823 969.289,-303.181 966.709,-313.457 973.68,-312.823"/>
</g>
<!-- Node43&#45;&gt;Node7 -->
<g id="edge63" class="edge"><title>Node43&#45;&gt;Node7</title>
<path fill="none" stroke="midnightblue" d="M1457.66,-520.578C1470.14,-492.641 1496.66,-428.88 1506,-372 1508.3,-357.966 1506.66,-354.207 1506,-340 1502.44,-263.308 1493.56,-244.692 1490,-168 1489.34,-153.793 1487.97,-150.077 1490,-136 1491.59,-124.982 1495.01,-113.026 1498.18,-103.461"/>
<polygon fill="midnightblue" stroke="midnightblue" points="1501.54,-104.45 1501.55,-93.8555 1494.94,-102.134 1501.54,-104.45"/>
</g>
<!-- Node44&#45;&gt;Node36 -->
<g id="edge66" class="edge"><title>Node44&#45;&gt;Node36</title>
<path fill="none" stroke="midnightblue" d="M1866.54,-136.841C1847.09,-125.579 1820.03,-109.913 1800.76,-98.7572"/>
<polygon fill="midnightblue" stroke="midnightblue" points="1802.4,-95.6633 1792,-93.6819 1798.9,-101.721 1802.4,-95.6633"/>
</g>
<!-- Node44&#45;&gt;Node38 -->
<g id="edge69" class="edge"><title>Node44&#45;&gt;Node38</title>
<path fill="none" stroke="midnightblue" d="M1882.32,-136.679C1876.27,-126.694 1868.16,-113.307 1861.7,-102.66"/>
<polygon fill="midnightblue" stroke="midnightblue" points="1864.53,-100.566 1856.35,-93.8283 1858.54,-104.194 1864.53,-100.566"/>
</g>
<!-- Node45 -->
<g id="node45" class="node"><title>Node45</title>
<polygon fill="none" stroke="#bfbfbf" points="1900,-74.5 1900,-93.5 1962,-93.5 1962,-74.5 1900,-74.5"/>
<text text-anchor="middle" x="1931" y="-81.5" font-family="Helvetica,sans-Serif" font-size="10.00">TNamed.h</text>
</g>
<!-- Node44&#45;&gt;Node45 -->
<g id="edge65" class="edge"><title>Node44&#45;&gt;Node45</title>
<path fill="none" stroke="midnightblue" d="M1899.68,-136.679C1905.73,-126.694 1913.84,-113.307 1920.3,-102.66"/>
<polygon fill="midnightblue" stroke="midnightblue" points="1923.46,-104.194 1925.65,-93.8283 1917.47,-100.566 1923.46,-104.194"/>
</g>
<!-- Node46 -->
<g id="node46" class="node"><title>Node46</title>
<polygon fill="none" stroke="#bfbfbf" points="1980.5,-74.5 1980.5,-93.5 2039.5,-93.5 2039.5,-74.5 1980.5,-74.5"/>
<text text-anchor="middle" x="2010" y="-81.5" font-family="Helvetica,sans-Serif" font-size="10.00">stdexcept</text>
</g>
<!-- Node44&#45;&gt;Node46 -->
<g id="edge67" class="edge"><title>Node44&#45;&gt;Node46</title>
<path fill="none" stroke="midnightblue" d="M1916.53,-136.841C1936.93,-125.528 1965.34,-109.771 1985.47,-98.6053"/>
<polygon fill="midnightblue" stroke="midnightblue" points="1987.3,-101.593 1994.35,-93.6819 1983.9,-95.4714 1987.3,-101.593"/>
</g>
<!-- Node47 -->
<g id="node47" class="node"><title>Node47</title>
<polygon fill="none" stroke="#bfbfbf" points="2057.5,-74.5 2057.5,-93.5 2102.5,-93.5 2102.5,-74.5 2057.5,-74.5"/>
<text text-anchor="middle" x="2080" y="-81.5" font-family="Helvetica,sans-Serif" font-size="10.00">gsl/gsl</text>
</g>
<!-- Node44&#45;&gt;Node47 -->
<g id="edge68" class="edge"><title>Node44&#45;&gt;Node47</title>
<path fill="none" stroke="midnightblue" d="M1939.65,-136.905C1970.94,-127.421 2012.28,-114.109 2048,-100 2049.65,-99.3491 2051.33,-98.6542 2053.02,-97.9335"/>
<polygon fill="midnightblue" stroke="midnightblue" points="2054.88,-100.937 2062.57,-93.6505 2052.01,-94.5508 2054.88,-100.937"/>
</g>
</g>
</svg>
