<?xml version="1.0" encoding="UTF-8" standalone="no"?>
<!DOCTYPE svg PUBLIC "-//W3C//DTD SVG 1.1//EN"
 "http://www.w3.org/Graphics/SVG/1.1/DTD/svg11.dtd">
<!-- Generated by graphviz version 2.36.0 (20140111.2315)
 -->
<!-- Title: ImGuiStorage::Pair Pages: 1 -->
<svg width="376pt" height="262pt"
 viewBox="0.00 0.00 376.12 262.00" xmlns="http://www.w3.org/2000/svg" xmlns:xlink="http://www.w3.org/1999/xlink">
<g id="graph0" class="graph" transform="scale(1 1) rotate(0) translate(4 258)">
<title>ImGuiStorage::Pair</title>
<!-- Node1 -->
<g id="node1" class="node"><title>Node1</title>
<polygon fill="#bfbfbf" stroke="black" points="119.117,-0.5 119.117,-145.5 219.117,-145.5 219.117,-0.5 119.117,-0.5"/>
<text text-anchor="middle" x="169.117" y="-133.5" font-family="Helvetica,sans-Serif" font-size="10.00">ImGuiStorage::Pair</text>
<polyline fill="none" stroke="black" points="119.117,-126.5 219.117,-126.5 "/>
<text text-anchor="middle" x="169.117" y="-114.5" font-family="Helvetica,sans-Serif" font-size="10.00"> </text>
<polyline fill="none" stroke="black" points="119.117,-107.5 219.117,-107.5 "/>
<text text-anchor="start" x="127.117" y="-95.5" font-family="Helvetica,sans-Serif" font-size="10.00">+ Pair()</text>
<text text-anchor="start" x="127.117" y="-84.5" font-family="Helvetica,sans-Serif" font-size="10.00">+ Pair()</text>
<text text-anchor="start" x="127.117" y="-73.5" font-family="Helvetica,sans-Serif" font-size="10.00">+ Pair()</text>
<text text-anchor="start" x="127.117" y="-62.5" font-family="Helvetica,sans-Serif" font-size="10.00">+ Pair()</text>
<text text-anchor="start" x="127.117" y="-51.5" font-family="Helvetica,sans-Serif" font-size="10.00">+ Pair()</text>
<text text-anchor="start" x="127.117" y="-40.5" font-family="Helvetica,sans-Serif" font-size="10.00">+ Pair()</text>
<text text-anchor="start" x="127.117" y="-29.5" font-family="Helvetica,sans-Serif" font-size="10.00">+ Pair()</text>
<text text-anchor="start" x="127.117" y="-18.5" font-family="Helvetica,sans-Serif" font-size="10.00">+ Pair()</text>
<text text-anchor="start" x="127.117" y="-7.5" font-family="Helvetica,sans-Serif" font-size="10.00">+ Pair()</text>
</g>
<!-- Node2 -->
<g id="node2" class="node"><title>Node2</title>
<polygon fill="none" stroke="#bfbfbf" points="41.6167,-195 41.6167,-253 70.6167,-253 70.6167,-195 41.6167,-195"/>
<polyline fill="none" stroke="#bfbfbf" points="41.6167,-233 70.6167,-233 "/>
<text text-anchor="middle" x="56.1167" y="-221" font-family="Helvetica,sans-Serif" font-size="10.00"> </text>
<polyline fill="none" stroke="#bfbfbf" points="41.6167,-214 70.6167,-214 "/>
<text text-anchor="middle" x="56.1167" y="-202" font-family="Helvetica,sans-Serif" font-size="10.00"> </text>
</g>
<!-- Node2&#45;&gt;Node1 -->
<g id="edge1" class="edge"><title>Node2&#45;&gt;Node1</title>
<path fill="none" stroke="#404040" d="M41.5245,-216.118C21.7912,-205.813 -9.56181,-185.296 3.11667,-164 25.5883,-126.255 70.0157,-103.365 107.258,-90.1213"/>
<polygon fill="none" stroke="#404040" points="107.685,-89.9776 112.098,-84.2741 119.06,-86.1536 114.647,-91.857 107.685,-89.9776"/>
<text text-anchor="middle" x="18.6167" y="-167.5" font-family="Helvetica,sans-Serif" font-size="10.00"> +@99</text>
</g>
<!-- Node2&#45;&gt;Node1 -->
<g id="edge3" class="edge"><title>Node2&#45;&gt;Node1</title>
<path fill="none" stroke="#404040" d="M51.7773,-194.823C51.4283,-184.657 52.5207,-173.384 57.1167,-164 68.431,-140.898 88.8044,-121.804 109.102,-107.237"/>
<polygon fill="none" stroke="#404040" points="109.116,-107.228 111.81,-100.539 119.021,-100.452 116.327,-107.141 109.116,-107.228"/>
<text text-anchor="middle" x="75.1167" y="-167.5" font-family="Helvetica,sans-Serif" font-size="10.00"> +@111</text>
</g>
<!-- Node2&#45;&gt;Node1 -->
<g id="edge7" class="edge"><title>Node2&#45;&gt;Node1</title>
<path fill="none" stroke="#404040" d="M70.6384,-204.785C77.5079,-196.11 85.7916,-185.563 93.1167,-176 99.1972,-168.061 105.504,-159.74 111.768,-151.42"/>
<polygon fill="none" stroke="#404040" points="111.879,-151.271 112.283,-144.072 119.085,-141.675 118.681,-148.875 111.879,-151.271"/>
<text text-anchor="middle" x="117.617" y="-167.5" font-family="Helvetica,sans-Serif" font-size="10.00"> +@95</text>
</g>
<!-- Node3 -->
<g id="node3" class="node"><title>Node3</title>
<g id="a_node3"><a xlink:href="../../d4/dc3/classfloat.html" target="_top" xlink:title="{float\n||}">
<polygon fill="none" stroke="black" points="151.617,-195.5 151.617,-252.5 186.617,-252.5 186.617,-195.5 151.617,-195.5"/>
<text text-anchor="middle" x="169.117" y="-240.5" font-family="Helvetica,sans-Serif" font-size="10.00">float</text>
<polyline fill="none" stroke="black" points="151.617,-233.5 186.617,-233.5 "/>
<text text-anchor="middle" x="169.117" y="-221.5" font-family="Helvetica,sans-Serif" font-size="10.00"> </text>
<polyline fill="none" stroke="black" points="151.617,-214.5 186.617,-214.5 "/>
<text text-anchor="middle" x="169.117" y="-202.5" font-family="Helvetica,sans-Serif" font-size="10.00"> </text>
</a>
</g>
</g>
<!-- Node3&#45;&gt;Node1 -->
<g id="edge2" class="edge"><title>Node3&#45;&gt;Node1</title>
<path fill="none" stroke="#404040" d="M169.117,-195.323C169.117,-184.388 169.117,-171.189 169.117,-157.58"/>
<polygon fill="none" stroke="#404040" points="169.117,-157.561 165.117,-151.561 169.117,-145.561 173.117,-151.561 169.117,-157.561"/>
<text text-anchor="middle" x="184.617" y="-167.5" font-family="Helvetica,sans-Serif" font-size="10.00"> +val_f</text>
</g>
<!-- Node4 -->
<g id="node4" class="node"><title>Node4</title>
<polygon fill="none" stroke="#bfbfbf" points="206.617,-195.5 206.617,-252.5 235.617,-252.5 235.617,-195.5 206.617,-195.5"/>
<text text-anchor="middle" x="221.117" y="-240.5" font-family="Helvetica,sans-Serif" font-size="10.00">int</text>
<polyline fill="none" stroke="#bfbfbf" points="206.617,-233.5 235.617,-233.5 "/>
<text text-anchor="middle" x="221.117" y="-221.5" font-family="Helvetica,sans-Serif" font-size="10.00"> </text>
<polyline fill="none" stroke="#bfbfbf" points="206.617,-214.5 235.617,-214.5 "/>
<text text-anchor="middle" x="221.117" y="-202.5" font-family="Helvetica,sans-Serif" font-size="10.00"> </text>
</g>
<!-- Node4&#45;&gt;Node1 -->
<g id="edge4" class="edge"><title>Node4&#45;&gt;Node1</title>
<path fill="none" stroke="#404040" d="M211.84,-195.357C208.492,-185.455 204.665,-174.217 201.117,-164 200.341,-161.768 199.553,-159.505 198.756,-157.222"/>
<polygon fill="none" stroke="#404040" points="198.683,-157.014 192.924,-152.675 194.714,-145.689 200.473,-150.028 198.683,-157.014"/>
<text text-anchor="middle" x="220.117" y="-167.5" font-family="Helvetica,sans-Serif" font-size="10.00"> +val_i</text>
</g>
<!-- Node5 -->
<g id="node5" class="node"><title>Node5</title>
<polygon fill="none" stroke="#bfbfbf" points="253.117,-195.5 253.117,-252.5 309.117,-252.5 309.117,-195.5 253.117,-195.5"/>
<text text-anchor="middle" x="281.117" y="-240.5" font-family="Helvetica,sans-Serif" font-size="10.00">unsigned</text>
<polyline fill="none" stroke="#bfbfbf" points="253.117,-233.5 309.117,-233.5 "/>
<text text-anchor="middle" x="281.117" y="-221.5" font-family="Helvetica,sans-Serif" font-size="10.00"> </text>
<polyline fill="none" stroke="#bfbfbf" points="253.117,-214.5 309.117,-214.5 "/>
<text text-anchor="middle" x="281.117" y="-202.5" font-family="Helvetica,sans-Serif" font-size="10.00"> </text>
</g>
<!-- Node5&#45;&gt;Node1 -->
<g id="edge5" class="edge"><title>Node5&#45;&gt;Node1</title>
<path fill="none" stroke="#404040" d="M261.699,-195.211C254.675,-185.295 246.624,-174.086 239.117,-164 235.128,-158.641 230.974,-153.13 226.768,-147.602"/>
<polygon fill="none" stroke="#404040" points="226.455,-147.192 219.633,-144.855 219.166,-137.659 225.988,-139.996 226.455,-147.192"/>
<text text-anchor="middle" x="260.617" y="-167.5" font-family="Helvetica,sans-Serif" font-size="10.00"> +key</text>
</g>
<!-- Node6 -->
<g id="node6" class="node"><title>Node6</title>
<polygon fill="none" stroke="#bfbfbf" points="327.617,-195.5 327.617,-252.5 368.617,-252.5 368.617,-195.5 327.617,-195.5"/>
<text text-anchor="middle" x="348.117" y="-240.5" font-family="Helvetica,sans-Serif" font-size="10.00">void *</text>
<polyline fill="none" stroke="#bfbfbf" points="327.617,-233.5 368.617,-233.5 "/>
<text text-anchor="middle" x="348.117" y="-221.5" font-family="Helvetica,sans-Serif" font-size="10.00"> </text>
<polyline fill="none" stroke="#bfbfbf" points="327.617,-214.5 368.617,-214.5 "/>
<text text-anchor="middle" x="348.117" y="-202.5" font-family="Helvetica,sans-Serif" font-size="10.00"> </text>
</g>
<!-- Node6&#45;&gt;Node1 -->
<g id="edge6" class="edge"><title>Node6&#45;&gt;Node1</title>
<path fill="none" stroke="#404040" d="M327.29,-203.14C323.925,-200.041 320.451,-196.905 317.117,-194 288.559,-169.12 255.94,-142.49 228.606,-120.653"/>
<polygon fill="none" stroke="#404040" points="228.559,-120.616 221.374,-120.007 219.173,-113.14 226.358,-113.749 228.559,-120.616"/>
<text text-anchor="middle" x="310.617" y="-167.5" font-family="Helvetica,sans-Serif" font-size="10.00"> +val_p</text>
</g>
</g>
</svg>
