<?xml version="1.0" encoding="UTF-8" standalone="no"?>
<!DOCTYPE svg PUBLIC "-//W3C//DTD SVG 1.1//EN"
 "http://www.w3.org/Graphics/SVG/1.1/DTD/svg11.dtd">
<!-- Generated by graphviz version 2.36.0 (20140111.2315)
 -->
<!-- Title: /home/travis/build/AliceO2Group/AliceO2/Detectors/ITSMFT/ITS/reconstruction/include/ITSReconstruction/CA/Road.h Pages: 1 -->
<svg width="304pt" height="264pt"
 viewBox="0.00 0.00 304.00 264.00" xmlns="http://www.w3.org/2000/svg" xmlns:xlink="http://www.w3.org/1999/xlink">
<g id="graph0" class="graph" transform="scale(1 1) rotate(0) translate(4 260)">
<title>/home/travis/build/AliceO2Group/AliceO2/Detectors/ITSMFT/ITS/reconstruction/include/ITSReconstruction/CA/Road.h</title>
<!-- Node1 -->
<g id="node1" class="node"><title>Node1</title>
<polygon fill="#bfbfbf" stroke="black" points="-0.5,-192.5 -0.5,-255.5 152.5,-255.5 152.5,-192.5 -0.5,-192.5"/>
<text text-anchor="start" x="7.5" y="-243.5" font-family="Helvetica,sans-Serif" font-size="10.00">/home/travis/build</text>
<text text-anchor="start" x="7.5" y="-232.5" font-family="Helvetica,sans-Serif" font-size="10.00">/AliceO2Group/AliceO2</text>
<text text-anchor="start" x="7.5" y="-221.5" font-family="Helvetica,sans-Serif" font-size="10.00">/Detectors/ITSMFT/ITS</text>
<text text-anchor="start" x="7.5" y="-210.5" font-family="Helvetica,sans-Serif" font-size="10.00">/reconstruction/include</text>
<text text-anchor="middle" x="76" y="-199.5" font-family="Helvetica,sans-Serif" font-size="10.00">/ITSReconstruction/CA/Road.h</text>
</g>
<!-- Node2 -->
<g id="node2" class="node"><title>Node2</title>
<polygon fill="none" stroke="#bfbfbf" points="113,-0.5 113,-19.5 151,-19.5 151,-0.5 113,-0.5"/>
<text text-anchor="middle" x="132" y="-7.5" font-family="Helvetica,sans-Serif" font-size="10.00">array</text>
</g>
<!-- Node1&#45;&gt;Node2 -->
<g id="edge1" class="edge"><title>Node1&#45;&gt;Node2</title>
<path fill="none" stroke="midnightblue" d="M58.3989,-192.368C40.6435,-157.015 19.2443,-98.319 45,-56 57.5546,-35.3716 82.9516,-23.7821 103.08,-17.5509"/>
<polygon fill="midnightblue" stroke="midnightblue" points="104.064,-20.91 112.744,-14.8338 102.169,-14.1713 104.064,-20.91"/>
</g>
<!-- Node3 -->
<g id="node3" class="node"><title>Node3</title>
<g id="a_node3"><a xlink:href="../../d5/d20/Detectors_2ITSMFT_2ITS_2reconstruction_2include_2ITSReconstruction_2CA_2Constants_8h.html" target="_top" xlink:title="ITSReconstruction/CA\l/Constants.h">
<polygon fill="none" stroke="black" points="68,-125 68,-155 184,-155 184,-125 68,-125"/>
<text text-anchor="start" x="76" y="-143" font-family="Helvetica,sans-Serif" font-size="10.00">ITSReconstruction/CA</text>
<text text-anchor="middle" x="126" y="-132" font-family="Helvetica,sans-Serif" font-size="10.00">/Constants.h</text>
</a>
</g>
</g>
<!-- Node1&#45;&gt;Node3 -->
<g id="edge2" class="edge"><title>Node1&#45;&gt;Node3</title>
<path fill="none" stroke="midnightblue" d="M94.6182,-192.466C100.388,-183.004 106.644,-172.744 112.041,-163.893"/>
<polygon fill="midnightblue" stroke="midnightblue" points="115.08,-165.632 117.298,-155.272 109.103,-161.987 115.08,-165.632"/>
</g>
<!-- Node4 -->
<g id="node4" class="node"><title>Node4</title>
<polygon fill="none" stroke="#bfbfbf" points="54.5,-62.5 54.5,-81.5 99.5,-81.5 99.5,-62.5 54.5,-62.5"/>
<text text-anchor="middle" x="77" y="-69.5" font-family="Helvetica,sans-Serif" font-size="10.00">climits</text>
</g>
<!-- Node3&#45;&gt;Node4 -->
<g id="edge3" class="edge"><title>Node3&#45;&gt;Node4</title>
<path fill="none" stroke="midnightblue" d="M115.368,-124.679C107.803,-114.49 97.6088,-100.759 89.6295,-90.0112"/>
<polygon fill="midnightblue" stroke="midnightblue" points="92.3256,-87.7711 83.5543,-81.8283 86.7052,-91.9438 92.3256,-87.7711"/>
</g>
<!-- Node5 -->
<g id="node5" class="node"><title>Node5</title>
<polygon fill="none" stroke="#bfbfbf" points="118,-62.5 118,-81.5 162,-81.5 162,-62.5 118,-62.5"/>
<text text-anchor="middle" x="140" y="-69.5" font-family="Helvetica,sans-Serif" font-size="10.00">vector</text>
</g>
<!-- Node3&#45;&gt;Node5 -->
<g id="edge4" class="edge"><title>Node3&#45;&gt;Node5</title>
<path fill="none" stroke="midnightblue" d="M129.038,-124.679C131.091,-114.999 133.822,-102.123 136.045,-91.6449"/>
<polygon fill="midnightblue" stroke="midnightblue" points="139.476,-92.3369 138.127,-81.8283 132.628,-90.8843 139.476,-92.3369"/>
</g>
<!-- Node6 -->
<g id="node6" class="node"><title>Node6</title>
<g id="a_node6"><a xlink:href="../../df/d3d/Definitions_8h.html" target="_top" xlink:title="ITSReconstruction/CA\l/Definitions.h">
<polygon fill="none" stroke="black" points="180,-57 180,-87 296,-87 296,-57 180,-57"/>
<text text-anchor="start" x="188" y="-75" font-family="Helvetica,sans-Serif" font-size="10.00">ITSReconstruction/CA</text>
<text text-anchor="middle" x="238" y="-64" font-family="Helvetica,sans-Serif" font-size="10.00">/Definitions.h</text>
</a>
</g>
</g>
<!-- Node3&#45;&gt;Node6 -->
<g id="edge5" class="edge"><title>Node3&#45;&gt;Node6</title>
<path fill="none" stroke="midnightblue" d="M150.027,-124.841C166.119,-115.359 187.508,-102.754 205.167,-92.3482"/>
<polygon fill="midnightblue" stroke="midnightblue" points="207.174,-95.2276 214.013,-87.1352 203.621,-89.1968 207.174,-95.2276"/>
</g>
<!-- Node6&#45;&gt;Node2 -->
<g id="edge6" class="edge"><title>Node6&#45;&gt;Node2</title>
<path fill="none" stroke="midnightblue" d="M213.148,-56.9327C195.903,-47.1715 173.058,-34.2401 156.001,-24.5856"/>
<polygon fill="midnightblue" stroke="midnightblue" points="157.62,-21.4802 147.193,-19.6 154.172,-27.572 157.62,-21.4802"/>
</g>
</g>
</svg>
