<?xml version="1.0" encoding="UTF-8" standalone="no"?>
<!DOCTYPE svg PUBLIC "-//W3C//DTD SVG 1.1//EN"
 "http://www.w3.org/Graphics/SVG/1.1/DTD/svg11.dtd">
<!-- Generated by graphviz version 2.36.0 (20140111.2315)
 -->
<!-- Title: Base Pages: 1 -->
<svg width="102pt" height="160pt"
 viewBox="0.00 0.00 102.00 160.00" xmlns="http://www.w3.org/2000/svg" xmlns:xlink="http://www.w3.org/1999/xlink">
<g id="graph0" class="graph" transform="scale(1 1) rotate(0) translate(4 156)">
<title>Base</title>
<!-- Node1 -->
<g id="node1" class="node"><title>Node1</title>
<polygon fill="#bfbfbf" stroke="black" points="27.5,-94.5 27.5,-151.5 66.5,-151.5 66.5,-94.5 27.5,-94.5"/>
<text text-anchor="middle" x="47" y="-139.5" font-family="Helvetica,sans-Serif" font-size="10.00">Base</text>
<polyline fill="none" stroke="black" points="27.5,-132.5 66.5,-132.5 "/>
<text text-anchor="start" x="35.5" y="-120.5" font-family="Helvetica,sans-Serif" font-size="10.00">+ v</text>
<polyline fill="none" stroke="black" points="27.5,-113.5 66.5,-113.5 "/>
<text text-anchor="middle" x="47" y="-101.5" font-family="Helvetica,sans-Serif" font-size="10.00"> </text>
</g>
<!-- Node2 -->
<g id="node2" class="node"><title>Node2</title>
<g id="a_node2"><a xlink:href="../../d4/dc4/structA.html" target="_top" xlink:title="{A\n|+ va\l|+ A()\l}">
<polygon fill="none" stroke="black" points="0,-0.5 0,-57.5 38,-57.5 38,-0.5 0,-0.5"/>
<text text-anchor="middle" x="19" y="-45.5" font-family="Helvetica,sans-Serif" font-size="10.00">A</text>
<polyline fill="none" stroke="black" points="0,-38.5 38,-38.5 "/>
<text text-anchor="start" x="8" y="-26.5" font-family="Helvetica,sans-Serif" font-size="10.00">+ va</text>
<polyline fill="none" stroke="black" points="0,-19.5 38,-19.5 "/>
<text text-anchor="start" x="8" y="-7.5" font-family="Helvetica,sans-Serif" font-size="10.00">+ A()</text>
</a>
</g>
</g>
<!-- Node1&#45;&gt;Node2 -->
<g id="edge1" class="edge"><title>Node1&#45;&gt;Node2</title>
<path fill="none" stroke="midnightblue" d="M35.6752,-84.7901C32.9085,-75.6995 29.9971,-66.1332 27.395,-57.5836"/>
<polygon fill="none" stroke="midnightblue" points="32.339,-85.8493 38.5991,-94.397 39.0358,-83.8111 32.339,-85.8493"/>
</g>
<!-- Node3 -->
<g id="node3" class="node"><title>Node3</title>
<g id="a_node3"><a xlink:href="../../d9/db3/structB.html" target="_top" xlink:title="{B\n|+ vb\l|+ B()\l}">
<polygon fill="none" stroke="black" points="56,-0.5 56,-57.5 94,-57.5 94,-0.5 56,-0.5"/>
<text text-anchor="middle" x="75" y="-45.5" font-family="Helvetica,sans-Serif" font-size="10.00">B</text>
<polyline fill="none" stroke="black" points="56,-38.5 94,-38.5 "/>
<text text-anchor="start" x="64" y="-26.5" font-family="Helvetica,sans-Serif" font-size="10.00">+ vb</text>
<polyline fill="none" stroke="black" points="56,-19.5 94,-19.5 "/>
<text text-anchor="start" x="64" y="-7.5" font-family="Helvetica,sans-Serif" font-size="10.00">+ B()</text>
</a>
</g>
</g>
<!-- Node1&#45;&gt;Node3 -->
<g id="edge2" class="edge"><title>Node1&#45;&gt;Node3</title>
<path fill="none" stroke="midnightblue" d="M58.3248,-84.7901C61.0915,-75.6995 64.0029,-66.1332 66.605,-57.5836"/>
<polygon fill="none" stroke="midnightblue" points="54.9642,-83.8111 55.4009,-94.397 61.661,-85.8493 54.9642,-83.8111"/>
</g>
</g>
</svg>
