<?xml version="1.0" encoding="UTF-8" standalone="no"?>
<!DOCTYPE svg PUBLIC "-//W3C//DTD SVG 1.1//EN"
 "http://www.w3.org/Graphics/SVG/1.1/DTD/svg11.dtd">
<!-- Generated by graphviz version 2.36.0 (20140111.2315)
 -->
<!-- Title: /home/travis/build/AliceO2Group/AliceO2/Detectors/MUON/MCH/Mapping/Impl3/src/SegmentationCreator.h Pages: 1 -->
<svg width="4692pt" height="162pt"
 viewBox="0.00 0.00 4692.00 162.00" xmlns="http://www.w3.org/2000/svg" xmlns:xlink="http://www.w3.org/1999/xlink">
<g id="graph0" class="graph" transform="scale(1 1) rotate(0) translate(4 158)">
<title>/home/travis/build/AliceO2Group/AliceO2/Detectors/MUON/MCH/Mapping/Impl3/src/SegmentationCreator.h</title>
<!-- Node1 -->
<g id="node1" class="node"><title>Node1</title>
<polygon fill="#bfbfbf" stroke="black" points="2278,-101 2278,-153 2442,-153 2442,-101 2278,-101"/>
<text text-anchor="start" x="2286" y="-141" font-family="Helvetica,sans-Serif" font-size="10.00">/home/travis/build</text>
<text text-anchor="start" x="2286" y="-130" font-family="Helvetica,sans-Serif" font-size="10.00">/AliceO2Group/AliceO2</text>
<text text-anchor="start" x="2286" y="-119" font-family="Helvetica,sans-Serif" font-size="10.00">/Detectors/MUON/MCH/Mapping</text>
<text text-anchor="middle" x="2360" y="-108" font-family="Helvetica,sans-Serif" font-size="10.00">/Impl3/src/SegmentationCreator.h</text>
</g>
<!-- Node2 -->
<g id="node2" class="node"><title>Node2</title>
<g id="a_node2"><a xlink:href="../../da/db5/GenSegmentationCreatorForSegType0_8cxx.html" target="_top" xlink:title="/home/travis/build\l/AliceO2Group/AliceO2\l/Detectors/MUON/MCH/Mapping\l/Impl3/src/GenSegmentationCreatorFor\lSegType0.cxx">
<polygon fill="none" stroke="black" points="0,-0.5 0,-63.5 188,-63.5 188,-0.5 0,-0.5"/>
<text text-anchor="start" x="8" y="-51.5" font-family="Helvetica,sans-Serif" font-size="10.00">/home/travis/build</text>
<text text-anchor="start" x="8" y="-40.5" font-family="Helvetica,sans-Serif" font-size="10.00">/AliceO2Group/AliceO2</text>
<text text-anchor="start" x="8" y="-29.5" font-family="Helvetica,sans-Serif" font-size="10.00">/Detectors/MUON/MCH/Mapping</text>
<text text-anchor="start" x="8" y="-18.5" font-family="Helvetica,sans-Serif" font-size="10.00">/Impl3/src/GenSegmentationCreatorFor</text>
<text text-anchor="middle" x="94" y="-7.5" font-family="Helvetica,sans-Serif" font-size="10.00">SegType0.cxx</text>
</a>
</g>
</g>
<!-- Node1&#45;&gt;Node2 -->
<g id="edge1" class="edge"><title>Node1&#45;&gt;Node2</title>
<path fill="none" stroke="midnightblue" d="M2267.7,-124.788C1881.16,-119.519 403.021,-97.3536 197,-64 194.051,-63.5225 191.067,-62.9836 188.066,-62.3928"/>
<polygon fill="midnightblue" stroke="midnightblue" points="2267.68,-128.288 2277.72,-124.925 2267.77,-121.289 2267.68,-128.288"/>
</g>
<!-- Node3 -->
<g id="node3" class="node"><title>Node3</title>
<g id="a_node3"><a xlink:href="../../df/d94/GenSegmentationCreatorForSegType1_8cxx.html" target="_top" xlink:title="/home/travis/build\l/AliceO2Group/AliceO2\l/Detectors/MUON/MCH/Mapping\l/Impl3/src/GenSegmentationCreatorFor\lSegType1.cxx">
<polygon fill="none" stroke="black" points="206,-0.5 206,-63.5 394,-63.5 394,-0.5 206,-0.5"/>
<text text-anchor="start" x="214" y="-51.5" font-family="Helvetica,sans-Serif" font-size="10.00">/home/travis/build</text>
<text text-anchor="start" x="214" y="-40.5" font-family="Helvetica,sans-Serif" font-size="10.00">/AliceO2Group/AliceO2</text>
<text text-anchor="start" x="214" y="-29.5" font-family="Helvetica,sans-Serif" font-size="10.00">/Detectors/MUON/MCH/Mapping</text>
<text text-anchor="start" x="214" y="-18.5" font-family="Helvetica,sans-Serif" font-size="10.00">/Impl3/src/GenSegmentationCreatorFor</text>
<text text-anchor="middle" x="300" y="-7.5" font-family="Helvetica,sans-Serif" font-size="10.00">SegType1.cxx</text>
</a>
</g>
</g>
<!-- Node1&#45;&gt;Node3 -->
<g id="edge2" class="edge"><title>Node1&#45;&gt;Node3</title>
<path fill="none" stroke="midnightblue" d="M2267.57,-126.258C1930.6,-126.702 768.655,-123.763 403,-64 400.051,-63.5181 397.069,-62.9753 394.068,-62.3811"/>
<polygon fill="midnightblue" stroke="midnightblue" points="2267.78,-129.758 2277.78,-126.243 2267.77,-122.758 2267.78,-129.758"/>
</g>
<!-- Node4 -->
<g id="node4" class="node"><title>Node4</title>
<g id="a_node4"><a xlink:href="../../d9/dab/GenSegmentationCreatorForSegType10_8cxx.html" target="_top" xlink:title="/home/travis/build\l/AliceO2Group/AliceO2\l/Detectors/MUON/MCH/Mapping\l/Impl3/src/GenSegmentationCreatorFor\lSegType10.cxx">
<polygon fill="none" stroke="black" points="412,-0.5 412,-63.5 600,-63.5 600,-0.5 412,-0.5"/>
<text text-anchor="start" x="420" y="-51.5" font-family="Helvetica,sans-Serif" font-size="10.00">/home/travis/build</text>
<text text-anchor="start" x="420" y="-40.5" font-family="Helvetica,sans-Serif" font-size="10.00">/AliceO2Group/AliceO2</text>
<text text-anchor="start" x="420" y="-29.5" font-family="Helvetica,sans-Serif" font-size="10.00">/Detectors/MUON/MCH/Mapping</text>
<text text-anchor="start" x="420" y="-18.5" font-family="Helvetica,sans-Serif" font-size="10.00">/Impl3/src/GenSegmentationCreatorFor</text>
<text text-anchor="middle" x="506" y="-7.5" font-family="Helvetica,sans-Serif" font-size="10.00">SegType10.cxx</text>
</a>
</g>
</g>
<!-- Node1&#45;&gt;Node4 -->
<g id="edge3" class="edge"><title>Node1&#45;&gt;Node4</title>
<path fill="none" stroke="midnightblue" d="M2267.44,-125.853C1953.77,-124.865 932.63,-117.513 609,-64 606.052,-63.5126 603.07,-62.965 600.071,-62.3666"/>
<polygon fill="midnightblue" stroke="midnightblue" points="2267.84,-129.354 2277.85,-125.884 2267.86,-122.354 2267.84,-129.354"/>
</g>
<!-- Node5 -->
<g id="node5" class="node"><title>Node5</title>
<g id="a_node5"><a xlink:href="../../de/d73/GenSegmentationCreatorForSegType11_8cxx.html" target="_top" xlink:title="/home/travis/build\l/AliceO2Group/AliceO2\l/Detectors/MUON/MCH/Mapping\l/Impl3/src/GenSegmentationCreatorFor\lSegType11.cxx">
<polygon fill="none" stroke="black" points="618,-0.5 618,-63.5 806,-63.5 806,-0.5 618,-0.5"/>
<text text-anchor="start" x="626" y="-51.5" font-family="Helvetica,sans-Serif" font-size="10.00">/home/travis/build</text>
<text text-anchor="start" x="626" y="-40.5" font-family="Helvetica,sans-Serif" font-size="10.00">/AliceO2Group/AliceO2</text>
<text text-anchor="start" x="626" y="-29.5" font-family="Helvetica,sans-Serif" font-size="10.00">/Detectors/MUON/MCH/Mapping</text>
<text text-anchor="start" x="626" y="-18.5" font-family="Helvetica,sans-Serif" font-size="10.00">/Impl3/src/GenSegmentationCreatorFor</text>
<text text-anchor="middle" x="712" y="-7.5" font-family="Helvetica,sans-Serif" font-size="10.00">SegType11.cxx</text>
</a>
</g>
</g>
<!-- Node1&#45;&gt;Node5 -->
<g id="edge4" class="edge"><title>Node1&#45;&gt;Node5</title>
<path fill="none" stroke="midnightblue" d="M2267.64,-125.343C1979.07,-122.81 1096.92,-111.299 815,-64 812.053,-63.5056 809.073,-62.9519 806.074,-62.3483"/>
<polygon fill="midnightblue" stroke="midnightblue" points="2267.62,-128.843 2277.65,-125.429 2267.68,-121.843 2267.62,-128.843"/>
</g>
<!-- Node6 -->
<g id="node6" class="node"><title>Node6</title>
<g id="a_node6"><a xlink:href="../../db/deb/GenSegmentationCreatorForSegType12_8cxx.html" target="_top" xlink:title="/home/travis/build\l/AliceO2Group/AliceO2\l/Detectors/MUON/MCH/Mapping\l/Impl3/src/GenSegmentationCreatorFor\lSegType12.cxx">
<polygon fill="none" stroke="black" points="824,-0.5 824,-63.5 1012,-63.5 1012,-0.5 824,-0.5"/>
<text text-anchor="start" x="832" y="-51.5" font-family="Helvetica,sans-Serif" font-size="10.00">/home/travis/build</text>
<text text-anchor="start" x="832" y="-40.5" font-family="Helvetica,sans-Serif" font-size="10.00">/AliceO2Group/AliceO2</text>
<text text-anchor="start" x="832" y="-29.5" font-family="Helvetica,sans-Serif" font-size="10.00">/Detectors/MUON/MCH/Mapping</text>
<text text-anchor="start" x="832" y="-18.5" font-family="Helvetica,sans-Serif" font-size="10.00">/Impl3/src/GenSegmentationCreatorFor</text>
<text text-anchor="middle" x="918" y="-7.5" font-family="Helvetica,sans-Serif" font-size="10.00">SegType12.cxx</text>
</a>
</g>
</g>
<!-- Node1&#45;&gt;Node6 -->
<g id="edge5" class="edge"><title>Node1&#45;&gt;Node6</title>
<path fill="none" stroke="midnightblue" d="M2267.58,-124.677C2005.57,-120.455 1261.37,-105.09 1021,-64 1018.05,-63.4965 1015.08,-62.9349 1012.08,-62.3244"/>
<polygon fill="midnightblue" stroke="midnightblue" points="2267.77,-128.18 2277.82,-124.84 2267.88,-121.181 2267.77,-128.18"/>
</g>
<!-- Node7 -->
<g id="node7" class="node"><title>Node7</title>
<g id="a_node7"><a xlink:href="../../d0/d5e/GenSegmentationCreatorForSegType13_8cxx.html" target="_top" xlink:title="/home/travis/build\l/AliceO2Group/AliceO2\l/Detectors/MUON/MCH/Mapping\l/Impl3/src/GenSegmentationCreatorFor\lSegType13.cxx">
<polygon fill="none" stroke="black" points="1030,-0.5 1030,-63.5 1218,-63.5 1218,-0.5 1030,-0.5"/>
<text text-anchor="start" x="1038" y="-51.5" font-family="Helvetica,sans-Serif" font-size="10.00">/home/travis/build</text>
<text text-anchor="start" x="1038" y="-40.5" font-family="Helvetica,sans-Serif" font-size="10.00">/AliceO2Group/AliceO2</text>
<text text-anchor="start" x="1038" y="-29.5" font-family="Helvetica,sans-Serif" font-size="10.00">/Detectors/MUON/MCH/Mapping</text>
<text text-anchor="start" x="1038" y="-18.5" font-family="Helvetica,sans-Serif" font-size="10.00">/Impl3/src/GenSegmentationCreatorFor</text>
<text text-anchor="middle" x="1124" y="-7.5" font-family="Helvetica,sans-Serif" font-size="10.00">SegType13.cxx</text>
</a>
</g>
</g>
<!-- Node1&#45;&gt;Node7 -->
<g id="edge6" class="edge"><title>Node1&#45;&gt;Node7</title>
<path fill="none" stroke="midnightblue" d="M2267.8,-123.778C2034.69,-117.706 1426.2,-98.914 1227,-64 1224.06,-63.4842 1221.08,-62.9117 1218.08,-62.2918"/>
<polygon fill="midnightblue" stroke="midnightblue" points="2267.86,-127.28 2277.94,-124.04 2268.04,-120.283 2267.86,-127.28"/>
</g>
<!-- Node8 -->
<g id="node8" class="node"><title>Node8</title>
<g id="a_node8"><a xlink:href="../../d0/d62/GenSegmentationCreatorForSegType14_8cxx.html" target="_top" xlink:title="/home/travis/build\l/AliceO2Group/AliceO2\l/Detectors/MUON/MCH/Mapping\l/Impl3/src/GenSegmentationCreatorFor\lSegType14.cxx">
<polygon fill="none" stroke="black" points="1236,-0.5 1236,-63.5 1424,-63.5 1424,-0.5 1236,-0.5"/>
<text text-anchor="start" x="1244" y="-51.5" font-family="Helvetica,sans-Serif" font-size="10.00">/home/travis/build</text>
<text text-anchor="start" x="1244" y="-40.5" font-family="Helvetica,sans-Serif" font-size="10.00">/AliceO2Group/AliceO2</text>
<text text-anchor="start" x="1244" y="-29.5" font-family="Helvetica,sans-Serif" font-size="10.00">/Detectors/MUON/MCH/Mapping</text>
<text text-anchor="start" x="1244" y="-18.5" font-family="Helvetica,sans-Serif" font-size="10.00">/Impl3/src/GenSegmentationCreatorFor</text>
<text text-anchor="middle" x="1330" y="-7.5" font-family="Helvetica,sans-Serif" font-size="10.00">SegType14.cxx</text>
</a>
</g>
</g>
<!-- Node1&#45;&gt;Node8 -->
<g id="edge7" class="edge"><title>Node1&#45;&gt;Node8</title>
<path fill="none" stroke="midnightblue" d="M2267.68,-126.677C2100.03,-126.394 1734.92,-118.804 1433,-64 1430.06,-63.4664 1427.09,-62.8783 1424.09,-62.2448"/>
<polygon fill="midnightblue" stroke="midnightblue" points="2267.71,-130.177 2277.71,-126.686 2267.71,-123.177 2267.71,-130.177"/>
</g>
<!-- Node9 -->
<g id="node9" class="node"><title>Node9</title>
<g id="a_node9"><a xlink:href="../../d5/dc3/GenSegmentationCreatorForSegType15_8cxx.html" target="_top" xlink:title="/home/travis/build\l/AliceO2Group/AliceO2\l/Detectors/MUON/MCH/Mapping\l/Impl3/src/GenSegmentationCreatorFor\lSegType15.cxx">
<polygon fill="none" stroke="black" points="1442,-0.5 1442,-63.5 1630,-63.5 1630,-0.5 1442,-0.5"/>
<text text-anchor="start" x="1450" y="-51.5" font-family="Helvetica,sans-Serif" font-size="10.00">/home/travis/build</text>
<text text-anchor="start" x="1450" y="-40.5" font-family="Helvetica,sans-Serif" font-size="10.00">/AliceO2Group/AliceO2</text>
<text text-anchor="start" x="1450" y="-29.5" font-family="Helvetica,sans-Serif" font-size="10.00">/Detectors/MUON/MCH/Mapping</text>
<text text-anchor="start" x="1450" y="-18.5" font-family="Helvetica,sans-Serif" font-size="10.00">/Impl3/src/GenSegmentationCreatorFor</text>
<text text-anchor="middle" x="1536" y="-7.5" font-family="Helvetica,sans-Serif" font-size="10.00">SegType15.cxx</text>
</a>
</g>
</g>
<!-- Node1&#45;&gt;Node9 -->
<g id="edge8" class="edge"><title>Node1&#45;&gt;Node9</title>
<path fill="none" stroke="midnightblue" d="M2267.77,-124.148C2129.84,-120.013 1862.16,-106.702 1639,-64 1636.07,-63.4385 1633.1,-62.826 1630.11,-62.1712"/>
<polygon fill="midnightblue" stroke="midnightblue" points="2267.79,-127.65 2277.88,-124.441 2267.99,-120.652 2267.79,-127.65"/>
</g>
<!-- Node10 -->
<g id="node10" class="node"><title>Node10</title>
<g id="a_node10"><a xlink:href="../../d2/da6/GenSegmentationCreatorForSegType16_8cxx.html" target="_top" xlink:title="/home/travis/build\l/AliceO2Group/AliceO2\l/Detectors/MUON/MCH/Mapping\l/Impl3/src/GenSegmentationCreatorFor\lSegType16.cxx">
<polygon fill="none" stroke="black" points="1648,-0.5 1648,-63.5 1836,-63.5 1836,-0.5 1648,-0.5"/>
<text text-anchor="start" x="1656" y="-51.5" font-family="Helvetica,sans-Serif" font-size="10.00">/home/travis/build</text>
<text text-anchor="start" x="1656" y="-40.5" font-family="Helvetica,sans-Serif" font-size="10.00">/AliceO2Group/AliceO2</text>
<text text-anchor="start" x="1656" y="-29.5" font-family="Helvetica,sans-Serif" font-size="10.00">/Detectors/MUON/MCH/Mapping</text>
<text text-anchor="start" x="1656" y="-18.5" font-family="Helvetica,sans-Serif" font-size="10.00">/Impl3/src/GenSegmentationCreatorFor</text>
<text text-anchor="middle" x="1742" y="-7.5" font-family="Helvetica,sans-Serif" font-size="10.00">SegType16.cxx</text>
</a>
</g>
</g>
<!-- Node1&#45;&gt;Node10 -->
<g id="edge9" class="edge"><title>Node1&#45;&gt;Node10</title>
<path fill="none" stroke="midnightblue" d="M2267.55,-119.702C2163.87,-111.522 1991.09,-94.5401 1845,-64 1842.08,-63.3886 1839.11,-62.7325 1836.13,-62.0398"/>
<polygon fill="midnightblue" stroke="midnightblue" points="2267.44,-123.203 2277.68,-120.49 2267.98,-116.224 2267.44,-123.203"/>
</g>
<!-- Node11 -->
<g id="node11" class="node"><title>Node11</title>
<g id="a_node11"><a xlink:href="../../da/d46/GenSegmentationCreatorForSegType17_8cxx.html" target="_top" xlink:title="/home/travis/build\l/AliceO2Group/AliceO2\l/Detectors/MUON/MCH/Mapping\l/Impl3/src/GenSegmentationCreatorFor\lSegType17.cxx">
<polygon fill="none" stroke="black" points="1854,-0.5 1854,-63.5 2042,-63.5 2042,-0.5 1854,-0.5"/>
<text text-anchor="start" x="1862" y="-51.5" font-family="Helvetica,sans-Serif" font-size="10.00">/home/travis/build</text>
<text text-anchor="start" x="1862" y="-40.5" font-family="Helvetica,sans-Serif" font-size="10.00">/AliceO2Group/AliceO2</text>
<text text-anchor="start" x="1862" y="-29.5" font-family="Helvetica,sans-Serif" font-size="10.00">/Detectors/MUON/MCH/Mapping</text>
<text text-anchor="start" x="1862" y="-18.5" font-family="Helvetica,sans-Serif" font-size="10.00">/Impl3/src/GenSegmentationCreatorFor</text>
<text text-anchor="middle" x="1948" y="-7.5" font-family="Helvetica,sans-Serif" font-size="10.00">SegType17.cxx</text>
</a>
</g>
</g>
<!-- Node1&#45;&gt;Node11 -->
<g id="edge10" class="edge"><title>Node1&#45;&gt;Node11</title>
<path fill="none" stroke="midnightblue" d="M2267.78,-109.851C2206.09,-98.4723 2123.28,-82.0849 2051,-64 2048.1,-63.2747 2045.16,-62.519 2042.2,-61.7395"/>
<polygon fill="midnightblue" stroke="midnightblue" points="2267.41,-113.342 2277.88,-111.705 2268.68,-106.457 2267.41,-113.342"/>
</g>
<!-- Node12 -->
<g id="node12" class="node"><title>Node12</title>
<g id="a_node12"><a xlink:href="../../db/d5d/GenSegmentationCreatorForSegType18_8cxx.html" target="_top" xlink:title="/home/travis/build\l/AliceO2Group/AliceO2\l/Detectors/MUON/MCH/Mapping\l/Impl3/src/GenSegmentationCreatorFor\lSegType18.cxx">
<polygon fill="none" stroke="black" points="2060,-0.5 2060,-63.5 2248,-63.5 2248,-0.5 2060,-0.5"/>
<text text-anchor="start" x="2068" y="-51.5" font-family="Helvetica,sans-Serif" font-size="10.00">/home/travis/build</text>
<text text-anchor="start" x="2068" y="-40.5" font-family="Helvetica,sans-Serif" font-size="10.00">/AliceO2Group/AliceO2</text>
<text text-anchor="start" x="2068" y="-29.5" font-family="Helvetica,sans-Serif" font-size="10.00">/Detectors/MUON/MCH/Mapping</text>
<text text-anchor="start" x="2068" y="-18.5" font-family="Helvetica,sans-Serif" font-size="10.00">/Impl3/src/GenSegmentationCreatorFor</text>
<text text-anchor="middle" x="2154" y="-7.5" font-family="Helvetica,sans-Serif" font-size="10.00">SegType18.cxx</text>
</a>
</g>
</g>
<!-- Node1&#45;&gt;Node12 -->
<g id="edge11" class="edge"><title>Node1&#45;&gt;Node12</title>
<path fill="none" stroke="midnightblue" d="M2295.37,-96.8215C2271.93,-86.2398 2245.4,-74.2617 2221.7,-63.5639"/>
<polygon fill="midnightblue" stroke="midnightblue" points="2293.97,-100.031 2304.52,-100.955 2296.85,-93.6506 2293.97,-100.031"/>
</g>
<!-- Node13 -->
<g id="node13" class="node"><title>Node13</title>
<g id="a_node13"><a xlink:href="../../de/d3c/GenSegmentationCreatorForSegType19_8cxx.html" target="_top" xlink:title="/home/travis/build\l/AliceO2Group/AliceO2\l/Detectors/MUON/MCH/Mapping\l/Impl3/src/GenSegmentationCreatorFor\lSegType19.cxx">
<polygon fill="none" stroke="black" points="2266,-0.5 2266,-63.5 2454,-63.5 2454,-0.5 2266,-0.5"/>
<text text-anchor="start" x="2274" y="-51.5" font-family="Helvetica,sans-Serif" font-size="10.00">/home/travis/build</text>
<text text-anchor="start" x="2274" y="-40.5" font-family="Helvetica,sans-Serif" font-size="10.00">/AliceO2Group/AliceO2</text>
<text text-anchor="start" x="2274" y="-29.5" font-family="Helvetica,sans-Serif" font-size="10.00">/Detectors/MUON/MCH/Mapping</text>
<text text-anchor="start" x="2274" y="-18.5" font-family="Helvetica,sans-Serif" font-size="10.00">/Impl3/src/GenSegmentationCreatorFor</text>
<text text-anchor="middle" x="2360" y="-7.5" font-family="Helvetica,sans-Serif" font-size="10.00">SegType19.cxx</text>
</a>
</g>
</g>
<!-- Node1&#45;&gt;Node13 -->
<g id="edge12" class="edge"><title>Node1&#45;&gt;Node13</title>
<path fill="none" stroke="midnightblue" d="M2360,-90.5412C2360,-81.691 2360,-72.2744 2360,-63.6772"/>
<polygon fill="midnightblue" stroke="midnightblue" points="2356.5,-90.5873 2360,-100.587 2363.5,-90.5874 2356.5,-90.5873"/>
</g>
<!-- Node14 -->
<g id="node14" class="node"><title>Node14</title>
<g id="a_node14"><a xlink:href="../../d3/d12/GenSegmentationCreatorForSegType2_8cxx.html" target="_top" xlink:title="/home/travis/build\l/AliceO2Group/AliceO2\l/Detectors/MUON/MCH/Mapping\l/Impl3/src/GenSegmentationCreatorFor\lSegType2.cxx">
<polygon fill="none" stroke="black" points="2472,-0.5 2472,-63.5 2660,-63.5 2660,-0.5 2472,-0.5"/>
<text text-anchor="start" x="2480" y="-51.5" font-family="Helvetica,sans-Serif" font-size="10.00">/home/travis/build</text>
<text text-anchor="start" x="2480" y="-40.5" font-family="Helvetica,sans-Serif" font-size="10.00">/AliceO2Group/AliceO2</text>
<text text-anchor="start" x="2480" y="-29.5" font-family="Helvetica,sans-Serif" font-size="10.00">/Detectors/MUON/MCH/Mapping</text>
<text text-anchor="start" x="2480" y="-18.5" font-family="Helvetica,sans-Serif" font-size="10.00">/Impl3/src/GenSegmentationCreatorFor</text>
<text text-anchor="middle" x="2566" y="-7.5" font-family="Helvetica,sans-Serif" font-size="10.00">SegType2.cxx</text>
</a>
</g>
</g>
<!-- Node1&#45;&gt;Node14 -->
<g id="edge13" class="edge"><title>Node1&#45;&gt;Node14</title>
<path fill="none" stroke="midnightblue" d="M2424.63,-96.8215C2448.07,-86.2398 2474.6,-74.2617 2498.3,-63.5639"/>
<polygon fill="midnightblue" stroke="midnightblue" points="2423.15,-93.6506 2415.48,-100.955 2426.03,-100.031 2423.15,-93.6506"/>
</g>
<!-- Node15 -->
<g id="node15" class="node"><title>Node15</title>
<g id="a_node15"><a xlink:href="../../d9/d05/GenSegmentationCreatorForSegType20_8cxx.html" target="_top" xlink:title="/home/travis/build\l/AliceO2Group/AliceO2\l/Detectors/MUON/MCH/Mapping\l/Impl3/src/GenSegmentationCreatorFor\lSegType20.cxx">
<polygon fill="none" stroke="black" points="2678,-0.5 2678,-63.5 2866,-63.5 2866,-0.5 2678,-0.5"/>
<text text-anchor="start" x="2686" y="-51.5" font-family="Helvetica,sans-Serif" font-size="10.00">/home/travis/build</text>
<text text-anchor="start" x="2686" y="-40.5" font-family="Helvetica,sans-Serif" font-size="10.00">/AliceO2Group/AliceO2</text>
<text text-anchor="start" x="2686" y="-29.5" font-family="Helvetica,sans-Serif" font-size="10.00">/Detectors/MUON/MCH/Mapping</text>
<text text-anchor="start" x="2686" y="-18.5" font-family="Helvetica,sans-Serif" font-size="10.00">/Impl3/src/GenSegmentationCreatorFor</text>
<text text-anchor="middle" x="2772" y="-7.5" font-family="Helvetica,sans-Serif" font-size="10.00">SegType20.cxx</text>
</a>
</g>
</g>
<!-- Node1&#45;&gt;Node15 -->
<g id="edge14" class="edge"><title>Node1&#45;&gt;Node15</title>
<path fill="none" stroke="midnightblue" d="M2452.22,-109.851C2513.91,-98.4723 2596.72,-82.0849 2669,-64 2671.9,-63.2747 2674.84,-62.519 2677.8,-61.7395"/>
<polygon fill="midnightblue" stroke="midnightblue" points="2451.32,-106.457 2442.12,-111.705 2452.59,-113.342 2451.32,-106.457"/>
</g>
<!-- Node16 -->
<g id="node16" class="node"><title>Node16</title>
<g id="a_node16"><a xlink:href="../../d6/d8d/GenSegmentationCreatorForSegType3_8cxx.html" target="_top" xlink:title="/home/travis/build\l/AliceO2Group/AliceO2\l/Detectors/MUON/MCH/Mapping\l/Impl3/src/GenSegmentationCreatorFor\lSegType3.cxx">
<polygon fill="none" stroke="black" points="2884,-0.5 2884,-63.5 3072,-63.5 3072,-0.5 2884,-0.5"/>
<text text-anchor="start" x="2892" y="-51.5" font-family="Helvetica,sans-Serif" font-size="10.00">/home/travis/build</text>
<text text-anchor="start" x="2892" y="-40.5" font-family="Helvetica,sans-Serif" font-size="10.00">/AliceO2Group/AliceO2</text>
<text text-anchor="start" x="2892" y="-29.5" font-family="Helvetica,sans-Serif" font-size="10.00">/Detectors/MUON/MCH/Mapping</text>
<text text-anchor="start" x="2892" y="-18.5" font-family="Helvetica,sans-Serif" font-size="10.00">/Impl3/src/GenSegmentationCreatorFor</text>
<text text-anchor="middle" x="2978" y="-7.5" font-family="Helvetica,sans-Serif" font-size="10.00">SegType3.cxx</text>
</a>
</g>
</g>
<!-- Node1&#45;&gt;Node16 -->
<g id="edge15" class="edge"><title>Node1&#45;&gt;Node16</title>
<path fill="none" stroke="midnightblue" d="M2452.45,-119.702C2556.13,-111.522 2728.91,-94.5401 2875,-64 2877.92,-63.3886 2880.89,-62.7325 2883.87,-62.0398"/>
<polygon fill="midnightblue" stroke="midnightblue" points="2452.02,-116.224 2442.32,-120.49 2452.56,-123.203 2452.02,-116.224"/>
</g>
<!-- Node17 -->
<g id="node17" class="node"><title>Node17</title>
<g id="a_node17"><a xlink:href="../../d2/d27/GenSegmentationCreatorForSegType4_8cxx.html" target="_top" xlink:title="/home/travis/build\l/AliceO2Group/AliceO2\l/Detectors/MUON/MCH/Mapping\l/Impl3/src/GenSegmentationCreatorFor\lSegType4.cxx">
<polygon fill="none" stroke="black" points="3090,-0.5 3090,-63.5 3278,-63.5 3278,-0.5 3090,-0.5"/>
<text text-anchor="start" x="3098" y="-51.5" font-family="Helvetica,sans-Serif" font-size="10.00">/home/travis/build</text>
<text text-anchor="start" x="3098" y="-40.5" font-family="Helvetica,sans-Serif" font-size="10.00">/AliceO2Group/AliceO2</text>
<text text-anchor="start" x="3098" y="-29.5" font-family="Helvetica,sans-Serif" font-size="10.00">/Detectors/MUON/MCH/Mapping</text>
<text text-anchor="start" x="3098" y="-18.5" font-family="Helvetica,sans-Serif" font-size="10.00">/Impl3/src/GenSegmentationCreatorFor</text>
<text text-anchor="middle" x="3184" y="-7.5" font-family="Helvetica,sans-Serif" font-size="10.00">SegType4.cxx</text>
</a>
</g>
</g>
<!-- Node1&#45;&gt;Node17 -->
<g id="edge16" class="edge"><title>Node1&#45;&gt;Node17</title>
<path fill="none" stroke="midnightblue" d="M2452.23,-124.148C2590.16,-120.013 2857.84,-106.702 3081,-64 3083.93,-63.4385 3086.9,-62.826 3089.89,-62.1712"/>
<polygon fill="midnightblue" stroke="midnightblue" points="2452.01,-120.652 2442.12,-124.441 2452.21,-127.65 2452.01,-120.652"/>
</g>
<!-- Node18 -->
<g id="node18" class="node"><title>Node18</title>
<g id="a_node18"><a xlink:href="../../d1/d23/GenSegmentationCreatorForSegType5_8cxx.html" target="_top" xlink:title="/home/travis/build\l/AliceO2Group/AliceO2\l/Detectors/MUON/MCH/Mapping\l/Impl3/src/GenSegmentationCreatorFor\lSegType5.cxx">
<polygon fill="none" stroke="black" points="3296,-0.5 3296,-63.5 3484,-63.5 3484,-0.5 3296,-0.5"/>
<text text-anchor="start" x="3304" y="-51.5" font-family="Helvetica,sans-Serif" font-size="10.00">/home/travis/build</text>
<text text-anchor="start" x="3304" y="-40.5" font-family="Helvetica,sans-Serif" font-size="10.00">/AliceO2Group/AliceO2</text>
<text text-anchor="start" x="3304" y="-29.5" font-family="Helvetica,sans-Serif" font-size="10.00">/Detectors/MUON/MCH/Mapping</text>
<text text-anchor="start" x="3304" y="-18.5" font-family="Helvetica,sans-Serif" font-size="10.00">/Impl3/src/GenSegmentationCreatorFor</text>
<text text-anchor="middle" x="3390" y="-7.5" font-family="Helvetica,sans-Serif" font-size="10.00">SegType5.cxx</text>
</a>
</g>
</g>
<!-- Node1&#45;&gt;Node18 -->
<g id="edge17" class="edge"><title>Node1&#45;&gt;Node18</title>
<path fill="none" stroke="midnightblue" d="M2452.32,-126.677C2619.97,-126.394 2985.08,-118.804 3287,-64 3289.94,-63.4664 3292.91,-62.8783 3295.91,-62.2448"/>
<polygon fill="midnightblue" stroke="midnightblue" points="2452.29,-123.177 2442.29,-126.686 2452.29,-130.177 2452.29,-123.177"/>
</g>
<!-- Node19 -->
<g id="node19" class="node"><title>Node19</title>
<g id="a_node19"><a xlink:href="../../de/dcc/GenSegmentationCreatorForSegType6_8cxx.html" target="_top" xlink:title="/home/travis/build\l/AliceO2Group/AliceO2\l/Detectors/MUON/MCH/Mapping\l/Impl3/src/GenSegmentationCreatorFor\lSegType6.cxx">
<polygon fill="none" stroke="black" points="3502,-0.5 3502,-63.5 3690,-63.5 3690,-0.5 3502,-0.5"/>
<text text-anchor="start" x="3510" y="-51.5" font-family="Helvetica,sans-Serif" font-size="10.00">/home/travis/build</text>
<text text-anchor="start" x="3510" y="-40.5" font-family="Helvetica,sans-Serif" font-size="10.00">/AliceO2Group/AliceO2</text>
<text text-anchor="start" x="3510" y="-29.5" font-family="Helvetica,sans-Serif" font-size="10.00">/Detectors/MUON/MCH/Mapping</text>
<text text-anchor="start" x="3510" y="-18.5" font-family="Helvetica,sans-Serif" font-size="10.00">/Impl3/src/GenSegmentationCreatorFor</text>
<text text-anchor="middle" x="3596" y="-7.5" font-family="Helvetica,sans-Serif" font-size="10.00">SegType6.cxx</text>
</a>
</g>
</g>
<!-- Node1&#45;&gt;Node19 -->
<g id="edge18" class="edge"><title>Node1&#45;&gt;Node19</title>
<path fill="none" stroke="midnightblue" d="M2452.2,-123.778C2685.31,-117.706 3293.8,-98.914 3493,-64 3495.94,-63.4842 3498.92,-62.9117 3501.92,-62.2918"/>
<polygon fill="midnightblue" stroke="midnightblue" points="2451.96,-120.283 2442.06,-124.04 2452.14,-127.28 2451.96,-120.283"/>
</g>
<!-- Node20 -->
<g id="node20" class="node"><title>Node20</title>
<g id="a_node20"><a xlink:href="../../de/d4b/GenSegmentationCreatorForSegType7_8cxx.html" target="_top" xlink:title="/home/travis/build\l/AliceO2Group/AliceO2\l/Detectors/MUON/MCH/Mapping\l/Impl3/src/GenSegmentationCreatorFor\lSegType7.cxx">
<polygon fill="none" stroke="black" points="3708,-0.5 3708,-63.5 3896,-63.5 3896,-0.5 3708,-0.5"/>
<text text-anchor="start" x="3716" y="-51.5" font-family="Helvetica,sans-Serif" font-size="10.00">/home/travis/build</text>
<text text-anchor="start" x="3716" y="-40.5" font-family="Helvetica,sans-Serif" font-size="10.00">/AliceO2Group/AliceO2</text>
<text text-anchor="start" x="3716" y="-29.5" font-family="Helvetica,sans-Serif" font-size="10.00">/Detectors/MUON/MCH/Mapping</text>
<text text-anchor="start" x="3716" y="-18.5" font-family="Helvetica,sans-Serif" font-size="10.00">/Impl3/src/GenSegmentationCreatorFor</text>
<text text-anchor="middle" x="3802" y="-7.5" font-family="Helvetica,sans-Serif" font-size="10.00">SegType7.cxx</text>
</a>
</g>
</g>
<!-- Node1&#45;&gt;Node20 -->
<g id="edge19" class="edge"><title>Node1&#45;&gt;Node20</title>
<path fill="none" stroke="midnightblue" d="M2452.42,-124.677C2714.43,-120.455 3458.63,-105.09 3699,-64 3701.95,-63.4965 3704.92,-62.9349 3707.92,-62.3244"/>
<polygon fill="midnightblue" stroke="midnightblue" points="2452.12,-121.181 2442.18,-124.84 2452.23,-128.18 2452.12,-121.181"/>
</g>
<!-- Node21 -->
<g id="node21" class="node"><title>Node21</title>
<g id="a_node21"><a xlink:href="../../db/d98/GenSegmentationCreatorForSegType8_8cxx.html" target="_top" xlink:title="/home/travis/build\l/AliceO2Group/AliceO2\l/Detectors/MUON/MCH/Mapping\l/Impl3/src/GenSegmentationCreatorFor\lSegType8.cxx">
<polygon fill="none" stroke="black" points="3914,-0.5 3914,-63.5 4102,-63.5 4102,-0.5 3914,-0.5"/>
<text text-anchor="start" x="3922" y="-51.5" font-family="Helvetica,sans-Serif" font-size="10.00">/home/travis/build</text>
<text text-anchor="start" x="3922" y="-40.5" font-family="Helvetica,sans-Serif" font-size="10.00">/AliceO2Group/AliceO2</text>
<text text-anchor="start" x="3922" y="-29.5" font-family="Helvetica,sans-Serif" font-size="10.00">/Detectors/MUON/MCH/Mapping</text>
<text text-anchor="start" x="3922" y="-18.5" font-family="Helvetica,sans-Serif" font-size="10.00">/Impl3/src/GenSegmentationCreatorFor</text>
<text text-anchor="middle" x="4008" y="-7.5" font-family="Helvetica,sans-Serif" font-size="10.00">SegType8.cxx</text>
</a>
</g>
</g>
<!-- Node1&#45;&gt;Node21 -->
<g id="edge20" class="edge"><title>Node1&#45;&gt;Node21</title>
<path fill="none" stroke="midnightblue" d="M2452.36,-125.343C2740.93,-122.81 3623.08,-111.299 3905,-64 3907.95,-63.5056 3910.93,-62.9519 3913.93,-62.3483"/>
<polygon fill="midnightblue" stroke="midnightblue" points="2452.32,-121.843 2442.35,-125.429 2452.38,-128.843 2452.32,-121.843"/>
</g>
<!-- Node22 -->
<g id="node22" class="node"><title>Node22</title>
<g id="a_node22"><a xlink:href="../../d4/dc3/GenSegmentationCreatorForSegType9_8cxx.html" target="_top" xlink:title="/home/travis/build\l/AliceO2Group/AliceO2\l/Detectors/MUON/MCH/Mapping\l/Impl3/src/GenSegmentationCreatorFor\lSegType9.cxx">
<polygon fill="none" stroke="black" points="4120,-0.5 4120,-63.5 4308,-63.5 4308,-0.5 4120,-0.5"/>
<text text-anchor="start" x="4128" y="-51.5" font-family="Helvetica,sans-Serif" font-size="10.00">/home/travis/build</text>
<text text-anchor="start" x="4128" y="-40.5" font-family="Helvetica,sans-Serif" font-size="10.00">/AliceO2Group/AliceO2</text>
<text text-anchor="start" x="4128" y="-29.5" font-family="Helvetica,sans-Serif" font-size="10.00">/Detectors/MUON/MCH/Mapping</text>
<text text-anchor="start" x="4128" y="-18.5" font-family="Helvetica,sans-Serif" font-size="10.00">/Impl3/src/GenSegmentationCreatorFor</text>
<text text-anchor="middle" x="4214" y="-7.5" font-family="Helvetica,sans-Serif" font-size="10.00">SegType9.cxx</text>
</a>
</g>
</g>
<!-- Node1&#45;&gt;Node22 -->
<g id="edge21" class="edge"><title>Node1&#45;&gt;Node22</title>
<path fill="none" stroke="midnightblue" d="M2452.56,-125.853C2766.23,-124.865 3787.37,-117.513 4111,-64 4113.95,-63.5126 4116.93,-62.965 4119.93,-62.3666"/>
<polygon fill="midnightblue" stroke="midnightblue" points="2452.14,-122.354 2442.15,-125.884 2452.16,-129.354 2452.14,-122.354"/>
</g>
<!-- Node23 -->
<g id="node23" class="node"><title>Node23</title>
<g id="a_node23"><a xlink:href="../../d7/d99/SegmentationCreator_8cxx.html" target="_top" xlink:title="/home/travis/build\l/AliceO2Group/AliceO2\l/Detectors/MUON/MCH/Mapping\l/Impl3/src/SegmentationCreator.cxx">
<polygon fill="none" stroke="black" points="4326,-6 4326,-58 4500,-58 4500,-6 4326,-6"/>
<text text-anchor="start" x="4334" y="-46" font-family="Helvetica,sans-Serif" font-size="10.00">/home/travis/build</text>
<text text-anchor="start" x="4334" y="-35" font-family="Helvetica,sans-Serif" font-size="10.00">/AliceO2Group/AliceO2</text>
<text text-anchor="start" x="4334" y="-24" font-family="Helvetica,sans-Serif" font-size="10.00">/Detectors/MUON/MCH/Mapping</text>
<text text-anchor="middle" x="4413" y="-13" font-family="Helvetica,sans-Serif" font-size="10.00">/Impl3/src/SegmentationCreator.cxx</text>
</a>
</g>
</g>
<!-- Node1&#45;&gt;Node23 -->
<g id="edge22" class="edge"><title>Node1&#45;&gt;Node23</title>
<path fill="none" stroke="midnightblue" d="M2452.47,-126.499C2789.58,-127.787 3951.96,-127.416 4317,-64 4325.63,-62.5011 4334.55,-60.4052 4343.32,-58.0026"/>
<polygon fill="midnightblue" stroke="midnightblue" points="2452.27,-122.999 2442.26,-126.459 2452.24,-129.999 2452.27,-122.999"/>
</g>
<!-- Node24 -->
<g id="node24" class="node"><title>Node24</title>
<g id="a_node24"><a xlink:href="../../d3/dea/SegmentationImpl3_8cxx.html" target="_top" xlink:title="/home/travis/build\l/AliceO2Group/AliceO2\l/Detectors/MUON/MCH/Mapping\l/Impl3/src/SegmentationImpl3.cxx">
<polygon fill="none" stroke="black" points="4518,-6 4518,-58 4684,-58 4684,-6 4518,-6"/>
<text text-anchor="start" x="4526" y="-46" font-family="Helvetica,sans-Serif" font-size="10.00">/home/travis/build</text>
<text text-anchor="start" x="4526" y="-35" font-family="Helvetica,sans-Serif" font-size="10.00">/AliceO2Group/AliceO2</text>
<text text-anchor="start" x="4526" y="-24" font-family="Helvetica,sans-Serif" font-size="10.00">/Detectors/MUON/MCH/Mapping</text>
<text text-anchor="middle" x="4601" y="-13" font-family="Helvetica,sans-Serif" font-size="10.00">/Impl3/src/SegmentationImpl3.cxx</text>
</a>
</g>
</g>
<!-- Node1&#45;&gt;Node24 -->
<g id="edge23" class="edge"><title>Node1&#45;&gt;Node24</title>
<path fill="none" stroke="midnightblue" d="M2452.34,-124.945C2837.43,-120.327 4304.99,-100.476 4509,-64 4517.3,-62.5168 4525.86,-60.4304 4534.27,-58.033"/>
<polygon fill="midnightblue" stroke="midnightblue" points="2452.03,-121.448 2442.08,-125.068 2452.12,-128.448 2452.03,-121.448"/>
</g>
</g>
</svg>
