<?xml version="1.0" encoding="UTF-8" standalone="no"?>
<!DOCTYPE svg PUBLIC "-//W3C//DTD SVG 1.1//EN"
 "http://www.w3.org/Graphics/SVG/1.1/DTD/svg11.dtd">
<!-- Generated by graphviz version 2.36.0 (20140111.2315)
 -->
<!-- Title: /home/travis/build/AliceO2Group/AliceO2/Detectors/ITSMFT/ITS/macros/test/CheckDigits.C Pages: 1 -->
<svg width="2421pt" height="458pt"
 viewBox="0.00 0.00 2421.00 458.00" xmlns="http://www.w3.org/2000/svg" xmlns:xlink="http://www.w3.org/1999/xlink">
<g id="graph0" class="graph" transform="scale(1 1) rotate(0) translate(4 454)">
<title>/home/travis/build/AliceO2Group/AliceO2/Detectors/ITSMFT/ITS/macros/test/CheckDigits.C</title>
<!-- Node1 -->
<g id="node1" class="node"><title>Node1</title>
<polygon fill="#bfbfbf" stroke="black" points="414.5,-397 414.5,-449 553.5,-449 553.5,-397 414.5,-397"/>
<text text-anchor="start" x="422.5" y="-437" font-family="Helvetica,sans-Serif" font-size="10.00">/home/travis/build</text>
<text text-anchor="start" x="422.5" y="-426" font-family="Helvetica,sans-Serif" font-size="10.00">/AliceO2Group/AliceO2</text>
<text text-anchor="start" x="422.5" y="-415" font-family="Helvetica,sans-Serif" font-size="10.00">/Detectors/ITSMFT/ITS</text>
<text text-anchor="middle" x="484" y="-404" font-family="Helvetica,sans-Serif" font-size="10.00">/macros/test/CheckDigits.C</text>
</g>
<!-- Node2 -->
<g id="node2" class="node"><title>Node2</title>
<polygon fill="none" stroke="#bfbfbf" points="-0.5,-340.5 -0.5,-359.5 64.5,-359.5 64.5,-340.5 -0.5,-340.5"/>
<text text-anchor="middle" x="32" y="-347.5" font-family="Helvetica,sans-Serif" font-size="10.00">TCanvas.h</text>
</g>
<!-- Node1&#45;&gt;Node2 -->
<g id="edge1" class="edge"><title>Node1&#45;&gt;Node2</title>
<path fill="none" stroke="midnightblue" d="M414.317,-412.924C334.536,-402.21 199.728,-383.123 74.7637,-360.236"/>
<polygon fill="midnightblue" stroke="midnightblue" points="75.103,-356.74 64.6341,-358.368 73.8337,-363.623 75.103,-356.74"/>
</g>
<!-- Node3 -->
<g id="node3" class="node"><title>Node3</title>
<polygon fill="none" stroke="#bfbfbf" points="82.5,-340.5 82.5,-359.5 129.5,-359.5 129.5,-340.5 82.5,-340.5"/>
<text text-anchor="middle" x="106" y="-347.5" font-family="Helvetica,sans-Serif" font-size="10.00">TFile.h</text>
</g>
<!-- Node1&#45;&gt;Node3 -->
<g id="edge2" class="edge"><title>Node1&#45;&gt;Node3</title>
<path fill="none" stroke="midnightblue" d="M414.252,-411.324C346.491,-400.53 240.556,-382.543 139.494,-359.943"/>
<polygon fill="midnightblue" stroke="midnightblue" points="140.255,-356.527 129.73,-357.741 138.715,-363.355 140.255,-356.527"/>
</g>
<!-- Node4 -->
<g id="node4" class="node"><title>Node4</title>
<polygon fill="none" stroke="#bfbfbf" points="148,-340.5 148,-359.5 198,-359.5 198,-340.5 148,-340.5"/>
<text text-anchor="middle" x="173" y="-347.5" font-family="Helvetica,sans-Serif" font-size="10.00">TH2F.h</text>
</g>
<!-- Node1&#45;&gt;Node4 -->
<g id="edge3" class="edge"><title>Node1&#45;&gt;Node4</title>
<path fill="none" stroke="midnightblue" d="M414.386,-407.197C360.565,-395.573 283.968,-378.641 207.97,-360.171"/>
<polygon fill="midnightblue" stroke="midnightblue" points="208.768,-356.763 198.223,-357.793 207.109,-363.563 208.768,-356.763"/>
</g>
<!-- Node5 -->
<g id="node5" class="node"><title>Node5</title>
<polygon fill="none" stroke="#bfbfbf" points="216.5,-340.5 216.5,-359.5 275.5,-359.5 275.5,-340.5 216.5,-340.5"/>
<text text-anchor="middle" x="246" y="-347.5" font-family="Helvetica,sans-Serif" font-size="10.00">TNtuple.h</text>
</g>
<!-- Node1&#45;&gt;Node5 -->
<g id="edge4" class="edge"><title>Node1&#45;&gt;Node5</title>
<path fill="none" stroke="midnightblue" d="M414.2,-401.177C371.88,-388.552 319.483,-372.921 284.524,-362.492"/>
<polygon fill="midnightblue" stroke="midnightblue" points="285.29,-359.069 274.707,-359.564 283.289,-365.777 285.29,-359.069"/>
</g>
<!-- Node6 -->
<g id="node6" class="node"><title>Node6</title>
<polygon fill="none" stroke="#bfbfbf" points="294,-340.5 294,-359.5 350,-359.5 350,-340.5 294,-340.5"/>
<text text-anchor="middle" x="322" y="-347.5" font-family="Helvetica,sans-Serif" font-size="10.00">TString.h</text>
</g>
<!-- Node1&#45;&gt;Node6 -->
<g id="edge5" class="edge"><title>Node1&#45;&gt;Node6</title>
<path fill="none" stroke="midnightblue" d="M426.885,-396.968C401.248,-385.732 372.105,-372.96 351.057,-363.735"/>
<polygon fill="midnightblue" stroke="midnightblue" points="352.275,-360.447 341.711,-359.639 349.465,-366.859 352.275,-360.447"/>
</g>
<!-- Node7 -->
<g id="node7" class="node"><title>Node7</title>
<polygon fill="none" stroke="#bfbfbf" points="368,-340.5 368,-359.5 418,-359.5 418,-340.5 368,-340.5"/>
<text text-anchor="middle" x="393" y="-347.5" font-family="Helvetica,sans-Serif" font-size="10.00">TTree.h</text>
</g>
<!-- Node1&#45;&gt;Node7 -->
<g id="edge6" class="edge"><title>Node1&#45;&gt;Node7</title>
<path fill="none" stroke="midnightblue" d="M451.917,-396.968C438.705,-386.66 423.836,-375.059 412.341,-366.09"/>
<polygon fill="midnightblue" stroke="midnightblue" points="414.328,-363.202 404.291,-359.81 410.022,-368.72 414.328,-363.202"/>
</g>
<!-- Node8 -->
<g id="node8" class="node"><title>Node8</title>
<polygon fill="none" stroke="#bfbfbf" points="398,-142.5 398,-161.5 442,-161.5 442,-142.5 398,-142.5"/>
<text text-anchor="middle" x="420" y="-149.5" font-family="Helvetica,sans-Serif" font-size="10.00">vector</text>
</g>
<!-- Node1&#45;&gt;Node8 -->
<g id="edge7" class="edge"><title>Node1&#45;&gt;Node8</title>
<path fill="none" stroke="midnightblue" d="M477.979,-396.693C465.188,-342.933 435.566,-218.425 424.382,-171.416"/>
<polygon fill="midnightblue" stroke="midnightblue" points="427.785,-170.599 422.065,-161.681 420.975,-172.219 427.785,-170.599"/>
</g>
<!-- Node9 -->
<g id="node9" class="node"><title>Node9</title>
<g id="a_node9"><a xlink:href="../../df/d9a/ITS_2base_2include_2ITSBase_2GeometryTGeo_8h.html" target="_top" xlink:title="ITSBase/GeometryTGeo.h">
<polygon fill="none" stroke="black" points="763.5,-340.5 763.5,-359.5 896.5,-359.5 896.5,-340.5 763.5,-340.5"/>
<text text-anchor="middle" x="830" y="-347.5" font-family="Helvetica,sans-Serif" font-size="10.00">ITSBase/GeometryTGeo.h</text>
</a>
</g>
</g>
<!-- Node1&#45;&gt;Node9 -->
<g id="edge8" class="edge"><title>Node1&#45;&gt;Node9</title>
<path fill="none" stroke="midnightblue" d="M553.602,-407.717C620.013,-394.09 718.533,-373.873 778.261,-361.617"/>
<polygon fill="midnightblue" stroke="midnightblue" points="779.132,-365.011 788.224,-359.573 777.725,-358.154 779.132,-365.011"/>
</g>
<!-- Node14 -->
<g id="node14" class="node"><title>Node14</title>
<g id="a_node14"><a xlink:href="../../db/dcc/Detectors_2Base_2include_2DetectorsBase_2GeometryManager_8h.html" target="_top" xlink:title="DetectorsBase/GeometryManager.h">
<polygon fill="none" stroke="black" points="1072.5,-278.5 1072.5,-297.5 1245.5,-297.5 1245.5,-278.5 1072.5,-278.5"/>
<text text-anchor="middle" x="1159" y="-285.5" font-family="Helvetica,sans-Serif" font-size="10.00">DetectorsBase/GeometryManager.h</text>
</a>
</g>
</g>
<!-- Node1&#45;&gt;Node14 -->
<g id="edge79" class="edge"><title>Node1&#45;&gt;Node14</title>
<path fill="none" stroke="midnightblue" d="M553.761,-414.463C637.663,-404.771 782.511,-386.03 905,-360 983.609,-343.295 1073.82,-316.122 1122.78,-300.687"/>
<polygon fill="midnightblue" stroke="midnightblue" points="1124.1,-303.938 1132.58,-297.58 1121.99,-297.266 1124.1,-303.938"/>
</g>
<!-- Node26 -->
<g id="node26" class="node"><title>Node26</title>
<g id="a_node26"><a xlink:href="../../d9/d52/Common_2MathUtils_2include_2MathUtils_2Utils_8h.html" target="_top" xlink:title="MathUtils/Utils.h">
<polygon fill="none" stroke="black" points="574,-74.5 574,-93.5 664,-93.5 664,-74.5 574,-74.5"/>
<text text-anchor="middle" x="619" y="-81.5" font-family="Helvetica,sans-Serif" font-size="10.00">MathUtils/Utils.h</text>
</a>
</g>
</g>
<!-- Node1&#45;&gt;Node26 -->
<g id="edge70" class="edge"><title>Node1&#45;&gt;Node26</title>
<path fill="none" stroke="midnightblue" d="M494.037,-396.946C520.042,-332.029 589.152,-159.51 611.743,-103.116"/>
<polygon fill="midnightblue" stroke="midnightblue" points="615.037,-104.304 615.507,-93.7195 608.539,-101.701 615.037,-104.304"/>
</g>
<!-- Node43 -->
<g id="node43" class="node"><title>Node43</title>
<g id="a_node43"><a xlink:href="../../d0/d06/ITSMFT_2common_2base_2include_2ITSMFTBase_2Digit_8h.html" target="_top" xlink:title="ITSMFTBase/Digit.h">
<polygon fill="none" stroke="black" points="1868.5,-340.5 1868.5,-359.5 1975.5,-359.5 1975.5,-340.5 1868.5,-340.5"/>
<text text-anchor="middle" x="1922" y="-347.5" font-family="Helvetica,sans-Serif" font-size="10.00">ITSMFTBase/Digit.h</text>
</a>
</g>
</g>
<!-- Node1&#45;&gt;Node43 -->
<g id="edge59" class="edge"><title>Node1&#45;&gt;Node43</title>
<path fill="none" stroke="midnightblue" d="M553.693,-418.99C747.506,-410.546 1309.33,-385.58 1776,-360 1802.86,-358.528 1832.48,-356.734 1857.98,-355.135"/>
<polygon fill="midnightblue" stroke="midnightblue" points="1858.51,-358.609 1868.27,-354.487 1858.07,-351.623 1858.51,-358.609"/>
</g>
<!-- Node45 -->
<g id="node45" class="node"><title>Node45</title>
<g id="a_node45"><a xlink:href="../../d3/dba/SegmentationAlpide_8h.html" target="_top" xlink:title="Definition of the SegmentationAlpide class. ">
<polygon fill="none" stroke="black" points="1575.5,-278.5 1575.5,-297.5 1748.5,-297.5 1748.5,-278.5 1575.5,-278.5"/>
<text text-anchor="middle" x="1662" y="-285.5" font-family="Helvetica,sans-Serif" font-size="10.00">ITSMFTBase/SegmentationAlpide.h</text>
</a>
</g>
</g>
<!-- Node1&#45;&gt;Node45 -->
<g id="edge62" class="edge"><title>Node1&#45;&gt;Node45</title>
<path fill="none" stroke="midnightblue" d="M553.725,-415.295C725.294,-398.593 1181.6,-352.939 1561,-304 1572.74,-302.485 1585.24,-300.74 1597.28,-298.987"/>
<polygon fill="midnightblue" stroke="midnightblue" points="1597.89,-302.435 1607.28,-297.518 1596.87,-295.51 1597.89,-302.435"/>
</g>
<!-- Node46 -->
<g id="node46" class="node"><title>Node46</title>
<g id="a_node46"><a xlink:href="../../d0/dae/ITSMFT_2common_2simulation_2include_2ITSMFTSimulation_2Hit_8h.html" target="_top" xlink:title="ITSMFTSimulation/Hit.h">
<polygon fill="none" stroke="black" points="2001,-278.5 2001,-297.5 2123,-297.5 2123,-278.5 2001,-278.5"/>
<text text-anchor="middle" x="2062" y="-285.5" font-family="Helvetica,sans-Serif" font-size="10.00">ITSMFTSimulation/Hit.h</text>
</a>
</g>
</g>
<!-- Node1&#45;&gt;Node46 -->
<g id="edge64" class="edge"><title>Node1&#45;&gt;Node46</title>
<path fill="none" stroke="midnightblue" d="M553.92,-421.907C832.006,-421.157 1850.95,-414.671 1984,-360 2011.69,-348.621 2035.83,-322.816 2049.66,-305.653"/>
<polygon fill="midnightblue" stroke="midnightblue" points="2052.55,-307.635 2055.91,-297.588 2047.02,-303.345 2052.55,-307.635"/>
</g>
<!-- Node49 -->
<g id="node49" class="node"><title>Node49</title>
<g id="a_node49"><a xlink:href="../../db/d14/MCTruthContainer_8h.html" target="_top" xlink:title="Definition of a container to keep Monte Carlo truth external to simulation objects. ">
<polygon fill="none" stroke="black" points="2168,-137 2168,-167 2282,-167 2282,-137 2168,-137"/>
<text text-anchor="start" x="2176" y="-155" font-family="Helvetica,sans-Serif" font-size="10.00">SimulationDataFormat</text>
<text text-anchor="middle" x="2225" y="-144" font-family="Helvetica,sans-Serif" font-size="10.00">/MCTruthContainer.h</text>
</a>
</g>
</g>
<!-- Node1&#45;&gt;Node49 -->
<g id="edge71" class="edge"><title>Node1&#45;&gt;Node49</title>
<path fill="none" stroke="midnightblue" d="M553.931,-420.798C834.522,-415.753 1870.43,-394.917 2013,-360 2069.77,-346.095 2088.42,-342.95 2132,-304 2172.6,-267.716 2201.49,-209.496 2215.47,-176.967"/>
<polygon fill="midnightblue" stroke="midnightblue" points="2218.86,-177.946 2219.48,-167.369 2212.4,-175.246 2218.86,-177.946"/>
</g>
<!-- Node53 -->
<g id="node53" class="node"><title>Node53</title>
<g id="a_node53"><a xlink:href="../../d7/dcd/MCCompLabel_8h.html" target="_top" xlink:title="SimulationDataFormat\l/MCCompLabel.h">
<polygon fill="none" stroke="black" points="1767,-273 1767,-303 1881,-303 1881,-273 1767,-273"/>
<text text-anchor="start" x="1775" y="-291" font-family="Helvetica,sans-Serif" font-size="10.00">SimulationDataFormat</text>
<text text-anchor="middle" x="1824" y="-280" font-family="Helvetica,sans-Serif" font-size="10.00">/MCCompLabel.h</text>
</a>
</g>
</g>
<!-- Node1&#45;&gt;Node53 -->
<g id="edge77" class="edge"><title>Node1&#45;&gt;Node53</title>
<path fill="none" stroke="midnightblue" d="M553.743,-418.762C744.962,-409.196 1293.53,-377.132 1756.81,-303.891"/>
<polygon fill="midnightblue" stroke="midnightblue" points="1757.38,-307.344 1766.71,-302.318 1756.28,-300.431 1757.38,-307.344"/>
</g>
<!-- Node9&#45;&gt;Node8 -->
<g id="edge13" class="edge"><title>Node9&#45;&gt;Node8</title>
<path fill="none" stroke="midnightblue" d="M763.387,-343.868C691.406,-337.38 582.142,-324.515 546,-304 538.509,-299.748 464.519,-208.352 433.536,-169.856"/>
<polygon fill="midnightblue" stroke="midnightblue" points="435.963,-167.29 426.97,-161.69 430.508,-171.676 435.963,-167.29"/>
</g>
<!-- Node10 -->
<g id="node10" class="node"><title>Node10</title>
<polygon fill="none" stroke="#bfbfbf" points="742,-74.5 742,-93.5 818,-93.5 818,-74.5 742,-74.5"/>
<text text-anchor="middle" x="780" y="-81.5" font-family="Helvetica,sans-Serif" font-size="10.00">TGeoMatrix.h</text>
</g>
<!-- Node9&#45;&gt;Node10 -->
<g id="edge9" class="edge"><title>Node9&#45;&gt;Node10</title>
<path fill="none" stroke="midnightblue" d="M800.516,-340.465C758.648,-326.513 683.852,-294.354 655,-236 626.343,-178.041 709.066,-122.943 753.635,-98.3819"/>
<polygon fill="midnightblue" stroke="midnightblue" points="755.358,-101.429 762.512,-93.6142 752.046,-95.2622 755.358,-101.429"/>
</g>
<!-- Node11 -->
<g id="node11" class="node"><title>Node11</title>
<polygon fill="none" stroke="#bfbfbf" points="1024.5,-210.5 1024.5,-229.5 1083.5,-229.5 1083.5,-210.5 1024.5,-210.5"/>
<text text-anchor="middle" x="1054" y="-217.5" font-family="Helvetica,sans-Serif" font-size="10.00">TObject.h</text>
</g>
<!-- Node9&#45;&gt;Node11 -->
<g id="edge10" class="edge"><title>Node9&#45;&gt;Node11</title>
<path fill="none" stroke="midnightblue" d="M896.516,-345.445C933.236,-340.488 977.787,-329.216 1010,-304 1030.93,-287.613 1043.05,-258.442 1049.09,-239.412"/>
<polygon fill="midnightblue" stroke="midnightblue" points="1052.52,-240.133 1051.96,-229.553 1045.8,-238.174 1052.52,-240.133"/>
</g>
<!-- Node12 -->
<g id="node12" class="node"><title>Node12</title>
<polygon fill="none" stroke="#bfbfbf" points="481,-6.5 481,-25.5 519,-25.5 519,-6.5 481,-6.5"/>
<text text-anchor="middle" x="500" y="-13.5" font-family="Helvetica,sans-Serif" font-size="10.00">array</text>
</g>
<!-- Node9&#45;&gt;Node12 -->
<g id="edge11" class="edge"><title>Node9&#45;&gt;Node12</title>
<path fill="none" stroke="midnightblue" d="M763.402,-343.835C727.01,-338.351 682.637,-327.089 649,-304 557.712,-241.339 543.11,-204.32 506,-100 498.525,-78.9869 497.883,-53.1345 498.552,-35.9204"/>
<polygon fill="midnightblue" stroke="midnightblue" points="502.069,-35.7355 499.156,-25.5488 495.08,-35.3282 502.069,-35.7355"/>
</g>
<!-- Node13 -->
<g id="node13" class="node"><title>Node13</title>
<polygon fill="none" stroke="#bfbfbf" points="926.5,-210.5 926.5,-229.5 967.5,-229.5 967.5,-210.5 926.5,-210.5"/>
<text text-anchor="middle" x="947" y="-217.5" font-family="Helvetica,sans-Serif" font-size="10.00">string</text>
</g>
<!-- Node9&#45;&gt;Node13 -->
<g id="edge12" class="edge"><title>Node9&#45;&gt;Node13</title>
<path fill="none" stroke="midnightblue" d="M856.982,-340.423C875.516,-333.302 899.482,-321.483 915,-304 931.301,-285.636 939.697,-258.065 943.72,-239.809"/>
<polygon fill="midnightblue" stroke="midnightblue" points="947.19,-240.299 945.691,-229.811 940.323,-238.945 947.19,-240.299"/>
</g>
<!-- Node9&#45;&gt;Node14 -->
<g id="edge14" class="edge"><title>Node9&#45;&gt;Node14</title>
<path fill="none" stroke="midnightblue" d="M876.788,-340.467C936.232,-329.626 1038.74,-310.932 1102.49,-299.306"/>
<polygon fill="midnightblue" stroke="midnightblue" points="1103.16,-302.741 1112.37,-297.503 1101.91,-295.854 1103.16,-302.741"/>
</g>
<!-- Node20 -->
<g id="node20" class="node"><title>Node20</title>
<g id="a_node20"><a xlink:href="../../d6/d31/DetID_8h.html" target="_top" xlink:title="DetectorsCommonDataFormats\l/DetID.h">
<polygon fill="none" stroke="black" points="849,-137 849,-167 1005,-167 1005,-137 849,-137"/>
<text text-anchor="start" x="857" y="-155" font-family="Helvetica,sans-Serif" font-size="10.00">DetectorsCommonDataFormats</text>
<text text-anchor="middle" x="927" y="-144" font-family="Helvetica,sans-Serif" font-size="10.00">/DetID.h</text>
</a>
</g>
</g>
<!-- Node9&#45;&gt;Node20 -->
<g id="edge46" class="edge"><title>Node9&#45;&gt;Node20</title>
<path fill="none" stroke="midnightblue" d="M866.108,-340.497C888.829,-333.677 917.605,-322.178 938,-304 963.845,-280.964 967.274,-269.503 976,-236 979.585,-222.237 981.311,-217.193 976,-204 971.39,-192.547 962.842,-182.224 954.161,-173.909"/>
<polygon fill="midnightblue" stroke="midnightblue" points="956.381,-171.199 946.594,-167.141 951.715,-176.416 956.381,-171.199"/>
</g>
<!-- Node21 -->
<g id="node21" class="node"><title>Node21</title>
<polygon fill="none" stroke="#bfbfbf" points="1926,-74.5 1926,-93.5 1982,-93.5 1982,-74.5 1926,-74.5"/>
<text text-anchor="middle" x="1954" y="-81.5" font-family="Helvetica,sans-Serif" font-size="10.00">Rtypes.h</text>
</g>
<!-- Node9&#45;&gt;Node21 -->
<g id="edge58" class="edge"><title>Node9&#45;&gt;Node21</title>
<path fill="none" stroke="midnightblue" d="M896.612,-343.806C1071.97,-329.568 1543,-287.525 1690,-236 1690.2,-235.929 1865.59,-135.585 1930.35,-98.5342"/>
<polygon fill="midnightblue" stroke="midnightblue" points="1932.12,-101.55 1939.06,-93.5464 1928.65,-95.4747 1932.12,-101.55"/>
</g>
<!-- Node9&#45;&gt;Node26 -->
<g id="edge57" class="edge"><title>Node9&#45;&gt;Node26</title>
<path fill="none" stroke="midnightblue" d="M763.339,-341.299C734.737,-335.128 702.556,-324.015 679,-304 618.734,-252.793 616.076,-147.36 617.747,-104.131"/>
<polygon fill="midnightblue" stroke="midnightblue" points="621.255,-104.066 618.275,-93.8986 614.264,-103.705 621.255,-104.066"/>
</g>
<!-- Node40 -->
<g id="node40" class="node"><title>Node40</title>
<g id="a_node40"><a xlink:href="../../d0/d2d/common_2base_2include_2ITSMFTBase_2GeometryTGeo_8h.html" target="_top" xlink:title="ITSMFTBase/GeometryTGeo.h">
<polygon fill="none" stroke="black" points="753.5,-278.5 753.5,-297.5 906.5,-297.5 906.5,-278.5 753.5,-278.5"/>
<text text-anchor="middle" x="830" y="-285.5" font-family="Helvetica,sans-Serif" font-size="10.00">ITSMFTBase/GeometryTGeo.h</text>
</a>
</g>
</g>
<!-- Node9&#45;&gt;Node40 -->
<g id="edge47" class="edge"><title>Node9&#45;&gt;Node40</title>
<path fill="none" stroke="midnightblue" d="M830,-340.403C830,-331.938 830,-318.728 830,-307.82"/>
<polygon fill="midnightblue" stroke="midnightblue" points="833.5,-307.581 830,-297.581 826.5,-307.581 833.5,-307.581"/>
</g>
<!-- Node14&#45;&gt;Node11 -->
<g id="edge20" class="edge"><title>Node14&#45;&gt;Node11</title>
<path fill="none" stroke="midnightblue" d="M1145.27,-278.372C1127.74,-267.353 1097.19,-248.145 1076.3,-235.014"/>
<polygon fill="midnightblue" stroke="midnightblue" points="1078.06,-231.989 1067.73,-229.63 1074.33,-237.915 1078.06,-231.989"/>
</g>
<!-- Node14&#45;&gt;Node13 -->
<g id="edge21" class="edge"><title>Node14&#45;&gt;Node13</title>
<path fill="none" stroke="midnightblue" d="M1131.28,-278.372C1091.55,-266.002 1018.67,-243.311 977.466,-230.485"/>
<polygon fill="midnightblue" stroke="midnightblue" points="978.302,-227.079 967.713,-227.449 976.221,-233.763 978.302,-227.079"/>
</g>
<!-- Node15 -->
<g id="node15" class="node"><title>Node15</title>
<polygon fill="none" stroke="#bfbfbf" points="1345,-210.5 1345,-229.5 1431,-229.5 1431,-210.5 1345,-210.5"/>
<text text-anchor="middle" x="1388" y="-217.5" font-family="Helvetica,sans-Serif" font-size="10.00">TGeoManager.h</text>
</g>
<!-- Node14&#45;&gt;Node15 -->
<g id="edge15" class="edge"><title>Node14&#45;&gt;Node15</title>
<path fill="none" stroke="midnightblue" d="M1188.94,-278.372C1229.85,-266.58 1303.31,-245.407 1348.64,-232.343"/>
<polygon fill="midnightblue" stroke="midnightblue" points="1349.78,-235.658 1358.42,-229.526 1347.84,-228.932 1349.78,-235.658"/>
</g>
<!-- Node16 -->
<g id="node16" class="node"><title>Node16</title>
<polygon fill="none" stroke="#bfbfbf" points="1449.5,-210.5 1449.5,-229.5 1532.5,-229.5 1532.5,-210.5 1449.5,-210.5"/>
<text text-anchor="middle" x="1491" y="-217.5" font-family="Helvetica,sans-Serif" font-size="10.00">TGeoMaterial.h</text>
</g>
<!-- Node14&#45;&gt;Node16 -->
<g id="edge16" class="edge"><title>Node14&#45;&gt;Node16</title>
<path fill="none" stroke="midnightblue" d="M1216.15,-278.458C1273.19,-269.504 1363.17,-254.216 1440,-236 1444.64,-234.9 1449.48,-233.633 1454.26,-232.312"/>
<polygon fill="midnightblue" stroke="midnightblue" points="1455.23,-235.674 1463.88,-229.558 1453.3,-228.944 1455.23,-235.674"/>
</g>
<!-- Node17 -->
<g id="node17" class="node"><title>Node17</title>
<polygon fill="none" stroke="#bfbfbf" points="1551,-210.5 1551,-229.5 1661,-229.5 1661,-210.5 1551,-210.5"/>
<text text-anchor="middle" x="1606" y="-217.5" font-family="Helvetica,sans-Serif" font-size="10.00">TGeoPhysicalNode.h</text>
</g>
<!-- Node14&#45;&gt;Node17 -->
<g id="edge17" class="edge"><title>Node14&#45;&gt;Node17</title>
<path fill="none" stroke="midnightblue" d="M1239.46,-278.486C1317,-269.756 1437.48,-254.811 1541,-236 1547.74,-234.776 1554.83,-233.317 1561.75,-231.797"/>
<polygon fill="midnightblue" stroke="midnightblue" points="1562.73,-235.164 1571.72,-229.547 1561.19,-228.336 1562.73,-235.164"/>
</g>
<!-- Node18 -->
<g id="node18" class="node"><title>Node18</title>
<polygon fill="none" stroke="#bfbfbf" points="1178.5,-210.5 1178.5,-229.5 1255.5,-229.5 1255.5,-210.5 1178.5,-210.5"/>
<text text-anchor="middle" x="1217" y="-217.5" font-family="Helvetica,sans-Serif" font-size="10.00">TGeoShape.h</text>
</g>
<!-- Node14&#45;&gt;Node18 -->
<g id="edge18" class="edge"><title>Node14&#45;&gt;Node18</title>
<path fill="none" stroke="midnightblue" d="M1166.58,-278.372C1175.65,-268.053 1191.03,-250.551 1202.42,-237.585"/>
<polygon fill="midnightblue" stroke="midnightblue" points="1205.26,-239.663 1209.23,-229.841 1200,-235.042 1205.26,-239.663"/>
</g>
<!-- Node19 -->
<g id="node19" class="node"><title>Node19</title>
<polygon fill="none" stroke="#bfbfbf" points="1273.5,-210.5 1273.5,-229.5 1326.5,-229.5 1326.5,-210.5 1273.5,-210.5"/>
<text text-anchor="middle" x="1300" y="-217.5" font-family="Helvetica,sans-Serif" font-size="10.00">TMath.h</text>
</g>
<!-- Node14&#45;&gt;Node19 -->
<g id="edge19" class="edge"><title>Node14&#45;&gt;Node19</title>
<path fill="none" stroke="midnightblue" d="M1177.43,-278.372C1201.61,-267.057 1244.23,-247.105 1272.3,-233.968"/>
<polygon fill="midnightblue" stroke="midnightblue" points="1273.99,-237.04 1281.56,-229.63 1271.02,-230.7 1273.99,-237.04"/>
</g>
<!-- Node14&#45;&gt;Node20 -->
<g id="edge22" class="edge"><title>Node14&#45;&gt;Node20</title>
<path fill="none" stroke="midnightblue" d="M1154.35,-278.3C1144.88,-261.429 1121.74,-224.158 1092,-204 1069.11,-188.485 1041.3,-177.531 1015.09,-169.863"/>
<polygon fill="midnightblue" stroke="midnightblue" points="1015.71,-166.402 1005.13,-167.083 1013.82,-173.144 1015.71,-166.402"/>
</g>
<!-- Node29 -->
<g id="node29" class="node"><title>Node29</title>
<polygon fill="none" stroke="#bfbfbf" points="1126.5,-142.5 1126.5,-161.5 1197.5,-161.5 1197.5,-142.5 1126.5,-142.5"/>
<text text-anchor="middle" x="1162" y="-149.5" font-family="Helvetica,sans-Serif" font-size="10.00">FairLogger.h</text>
</g>
<!-- Node14&#45;&gt;Node29 -->
<g id="edge33" class="edge"><title>Node14&#45;&gt;Node29</title>
<path fill="none" stroke="midnightblue" d="M1245.65,-284.569C1383.99,-279.784 1642.12,-266.798 1670,-236 1712.73,-188.789 1669.58,-205.288 1304,-168 1271.85,-164.721 1235.63,-160.893 1207.81,-157.924"/>
<polygon fill="midnightblue" stroke="midnightblue" points="1207.91,-154.414 1197.59,-156.831 1207.16,-161.374 1207.91,-154.414"/>
</g>
<!-- Node30 -->
<g id="node30" class="node"><title>Node30</title>
<g id="a_node30"><a xlink:href="../../dd/d76/Cartesian3D_8h.html" target="_top" xlink:title="MathUtils/Cartesian3D.h">
<polygon fill="none" stroke="black" points="1312.5,-142.5 1312.5,-161.5 1437.5,-161.5 1437.5,-142.5 1312.5,-142.5"/>
<text text-anchor="middle" x="1375" y="-149.5" font-family="Helvetica,sans-Serif" font-size="10.00">MathUtils/Cartesian3D.h</text>
</a>
</g>
</g>
<!-- Node14&#45;&gt;Node30 -->
<g id="edge34" class="edge"><title>Node14&#45;&gt;Node30</title>
<path fill="none" stroke="midnightblue" d="M1157.32,-278.453C1154.58,-261.849 1151.21,-225.025 1170,-204 1187.64,-184.26 1250.59,-170.565 1302.12,-162.374"/>
<polygon fill="midnightblue" stroke="midnightblue" points="1302.91,-165.794 1312.26,-160.809 1301.85,-158.876 1302.91,-165.794"/>
</g>
<!-- Node20&#45;&gt;Node12 -->
<g id="edge24" class="edge"><title>Node20&#45;&gt;Node12</title>
<path fill="none" stroke="midnightblue" d="M848.92,-146.807C757.307,-140.72 611.937,-127.074 565,-100 538.538,-84.7366 518.952,-54.0948 508.523,-34.6154"/>
<polygon fill="midnightblue" stroke="midnightblue" points="511.58,-32.904 503.917,-25.587 505.344,-36.0853 511.58,-32.904"/>
</g>
<!-- Node20&#45;&gt;Node21 -->
<g id="edge23" class="edge"><title>Node20&#45;&gt;Node21</title>
<path fill="none" stroke="midnightblue" d="M1005.02,-144.281C1039.61,-141.455 1080.82,-138.297 1118,-136 1295.4,-125.041 1743.36,-137.935 1917,-100 1920.25,-99.2899 1923.58,-98.3187 1926.85,-97.2093"/>
<polygon fill="midnightblue" stroke="midnightblue" points="1928.23,-100.428 1936.33,-93.5896 1925.73,-93.8895 1928.23,-100.428"/>
</g>
<!-- Node22 -->
<g id="node22" class="node"><title>Node22</title>
<polygon fill="none" stroke="#bfbfbf" points="682.5,-74.5 682.5,-93.5 723.5,-93.5 723.5,-74.5 682.5,-74.5"/>
<text text-anchor="middle" x="703" y="-81.5" font-family="Helvetica,sans-Serif" font-size="10.00">bitset</text>
</g>
<!-- Node20&#45;&gt;Node22 -->
<g id="edge25" class="edge"><title>Node20&#45;&gt;Node22</title>
<path fill="none" stroke="midnightblue" d="M859.942,-136.977C822.077,-128.169 774.224,-115.534 733,-100 731.352,-99.3789 729.674,-98.6951 727.997,-97.9722"/>
<polygon fill="midnightblue" stroke="midnightblue" points="729.147,-94.6456 718.607,-93.5667 726.174,-100.983 729.147,-94.6456"/>
</g>
<!-- Node23 -->
<g id="node23" class="node"><title>Node23</title>
<polygon fill="none" stroke="#bfbfbf" points="2143.5,-74.5 2143.5,-93.5 2192.5,-93.5 2192.5,-74.5 2143.5,-74.5"/>
<text text-anchor="middle" x="2168" y="-81.5" font-family="Helvetica,sans-Serif" font-size="10.00">cassert</text>
</g>
<!-- Node20&#45;&gt;Node23 -->
<g id="edge26" class="edge"><title>Node20&#45;&gt;Node23</title>
<path fill="none" stroke="midnightblue" d="M1005.01,-144.112C1039.6,-141.254 1080.81,-138.118 1118,-136 1343.55,-123.153 1913.8,-150.504 2134,-100 2136.83,-99.351 2139.72,-98.4666 2142.55,-97.4498"/>
<polygon fill="midnightblue" stroke="midnightblue" points="2143.92,-100.672 2151.83,-93.6313 2141.25,-94.1987 2143.92,-100.672"/>
</g>
<!-- Node24 -->
<g id="node24" class="node"><title>Node24</title>
<polygon fill="none" stroke="#bfbfbf" points="836,-74.5 836,-93.5 882,-93.5 882,-74.5 836,-74.5"/>
<text text-anchor="middle" x="859" y="-81.5" font-family="Helvetica,sans-Serif" font-size="10.00">cstdint</text>
</g>
<!-- Node20&#45;&gt;Node24 -->
<g id="edge27" class="edge"><title>Node20&#45;&gt;Node24</title>
<path fill="none" stroke="midnightblue" d="M912.245,-136.679C901.432,-126.184 886.748,-111.932 875.539,-101.052"/>
<polygon fill="midnightblue" stroke="midnightblue" points="877.709,-98.2815 868.096,-93.8283 872.834,-103.305 877.709,-98.2815"/>
</g>
<!-- Node25 -->
<g id="node25" class="node"><title>Node25</title>
<polygon fill="none" stroke="#bfbfbf" points="2000,-74.5 2000,-93.5 2062,-93.5 2062,-74.5 2000,-74.5"/>
<text text-anchor="middle" x="2031" y="-81.5" font-family="Helvetica,sans-Serif" font-size="10.00">type_traits</text>
</g>
<!-- Node20&#45;&gt;Node25 -->
<g id="edge28" class="edge"><title>Node20&#45;&gt;Node25</title>
<path fill="none" stroke="midnightblue" d="M1005.01,-144.215C1039.61,-141.377 1080.81,-138.227 1118,-136 1311.6,-124.406 1799.77,-137.769 1990,-100 1993.9,-99.2251 1997.93,-98.1371 2001.86,-96.8972"/>
<polygon fill="midnightblue" stroke="midnightblue" points="2003.05,-100.192 2011.34,-93.5934 2000.74,-93.5822 2003.05,-100.192"/>
</g>
<!-- Node20&#45;&gt;Node26 -->
<g id="edge29" class="edge"><title>Node20&#45;&gt;Node26</title>
<path fill="none" stroke="midnightblue" d="M849.707,-136.994C799.213,-127.473 731.947,-114.085 673,-100 668.224,-98.8588 663.232,-97.5845 658.295,-96.274"/>
<polygon fill="midnightblue" stroke="midnightblue" points="658.894,-92.8099 648.326,-93.5643 657.058,-99.5648 658.894,-92.8099"/>
</g>
<!-- Node26&#45;&gt;Node12 -->
<g id="edge30" class="edge"><title>Node26&#45;&gt;Node12</title>
<path fill="none" stroke="midnightblue" d="M603.443,-74.3717C583.309,-63.2051 548.009,-43.6266 524.319,-30.4876"/>
<polygon fill="midnightblue" stroke="midnightblue" points="526.004,-27.4199 515.561,-25.6305 522.608,-33.5415 526.004,-27.4199"/>
</g>
<!-- Node27 -->
<g id="node27" class="node"><title>Node27</title>
<polygon fill="none" stroke="#bfbfbf" points="735,-6.5 735,-25.5 779,-25.5 779,-6.5 735,-6.5"/>
<text text-anchor="middle" x="757" y="-13.5" font-family="Helvetica,sans-Serif" font-size="10.00">cmath</text>
</g>
<!-- Node26&#45;&gt;Node27 -->
<g id="edge31" class="edge"><title>Node26&#45;&gt;Node27</title>
<path fill="none" stroke="midnightblue" d="M637.041,-74.3717C660.699,-63.0569 702.416,-43.1053 729.885,-29.9678"/>
<polygon fill="midnightblue" stroke="midnightblue" points="731.443,-33.1025 738.954,-25.6305 728.423,-26.7876 731.443,-33.1025"/>
</g>
<!-- Node28 -->
<g id="node28" class="node"><title>Node28</title>
<g id="a_node28"><a xlink:href="../../d6/d84/MathConstants_8h.html" target="_top" xlink:title="useful math constants ">
<polygon fill="none" stroke="black" points="537.5,-6.5 537.5,-25.5 716.5,-25.5 716.5,-6.5 537.5,-6.5"/>
<text text-anchor="middle" x="627" y="-13.5" font-family="Helvetica,sans-Serif" font-size="10.00">CommonConstants/MathConstants.h</text>
</a>
</g>
</g>
<!-- Node26&#45;&gt;Node28 -->
<g id="edge32" class="edge"><title>Node26&#45;&gt;Node28</title>
<path fill="none" stroke="midnightblue" d="M620.046,-74.3717C621.225,-64.6426 623.178,-48.528 624.715,-35.8504"/>
<polygon fill="midnightblue" stroke="midnightblue" points="628.2,-36.1896 625.928,-25.8411 621.25,-35.3473 628.2,-36.1896"/>
</g>
<!-- Node30&#45;&gt;Node10 -->
<g id="edge41" class="edge"><title>Node30&#45;&gt;Node10</title>
<path fill="none" stroke="midnightblue" d="M1312.41,-145.353C1171.12,-132.581 838.784,-102.399 827,-100 822.536,-99.0911 817.898,-97.9124 813.351,-96.6152"/>
<polygon fill="midnightblue" stroke="midnightblue" points="814.232,-93.2246 803.646,-93.645 812.184,-99.9182 814.232,-93.2246"/>
</g>
<!-- Node30&#45;&gt;Node21 -->
<g id="edge40" class="edge"><title>Node30&#45;&gt;Node21</title>
<path fill="none" stroke="midnightblue" d="M1437.85,-144.708C1465.23,-141.99 1497.7,-138.798 1527,-136 1700.28,-119.452 1747.86,-141.141 1917,-100 1920.07,-99.2541 1923.21,-98.299 1926.31,-97.2328"/>
<polygon fill="midnightblue" stroke="midnightblue" points="1927.82,-100.406 1935.91,-93.568 1925.32,-93.8666 1927.82,-100.406"/>
</g>
<!-- Node31 -->
<g id="node31" class="node"><title>Node31</title>
<polygon fill="none" stroke="#bfbfbf" points="1043.5,-69 1043.5,-99 1194.5,-99 1194.5,-69 1043.5,-69"/>
<text text-anchor="start" x="1051.5" y="-87" font-family="Helvetica,sans-Serif" font-size="10.00">Math/GenVector/Displacement</text>
<text text-anchor="middle" x="1119" y="-76" font-family="Helvetica,sans-Serif" font-size="10.00">Vector3D.h</text>
</g>
<!-- Node30&#45;&gt;Node31 -->
<g id="edge35" class="edge"><title>Node30&#45;&gt;Node31</title>
<path fill="none" stroke="midnightblue" d="M1341.79,-142.439C1301.84,-132.139 1233.86,-114.612 1183.47,-101.621"/>
<polygon fill="midnightblue" stroke="midnightblue" points="1184.2,-98.1947 1173.64,-99.0873 1182.45,-104.973 1184.2,-98.1947"/>
</g>
<!-- Node32 -->
<g id="node32" class="node"><title>Node32</title>
<polygon fill="none" stroke="#bfbfbf" points="1213,-74.5 1213,-93.5 1389,-93.5 1389,-74.5 1213,-74.5"/>
<text text-anchor="middle" x="1301" y="-81.5" font-family="Helvetica,sans-Serif" font-size="10.00">Math/GenVector/PositionVector3D.h</text>
</g>
<!-- Node30&#45;&gt;Node32 -->
<g id="edge36" class="edge"><title>Node30&#45;&gt;Node32</title>
<path fill="none" stroke="midnightblue" d="M1365.33,-142.372C1353.54,-131.856 1333.38,-113.882 1318.77,-100.85"/>
<polygon fill="midnightblue" stroke="midnightblue" points="1320.71,-97.8853 1310.91,-93.8411 1316.05,-103.109 1320.71,-97.8853"/>
</g>
<!-- Node33 -->
<g id="node33" class="node"><title>Node33</title>
<polygon fill="none" stroke="#bfbfbf" points="1406.5,-74.5 1406.5,-93.5 1555.5,-93.5 1555.5,-74.5 1406.5,-74.5"/>
<text text-anchor="middle" x="1481" y="-81.5" font-family="Helvetica,sans-Serif" font-size="10.00">Math/GenVector/Rotation3D.h</text>
</g>
<!-- Node30&#45;&gt;Node33 -->
<g id="edge37" class="edge"><title>Node30&#45;&gt;Node33</title>
<path fill="none" stroke="midnightblue" d="M1388.86,-142.372C1406.55,-131.353 1437.4,-112.145 1458.49,-99.0142"/>
<polygon fill="midnightblue" stroke="midnightblue" points="1460.5,-101.887 1467.14,-93.6305 1456.8,-95.945 1460.5,-101.887"/>
</g>
<!-- Node34 -->
<g id="node34" class="node"><title>Node34</title>
<polygon fill="none" stroke="#bfbfbf" points="1574,-74.5 1574,-93.5 1730,-93.5 1730,-74.5 1574,-74.5"/>
<text text-anchor="middle" x="1652" y="-81.5" font-family="Helvetica,sans-Serif" font-size="10.00">Math/GenVector/Transform3D.h</text>
</g>
<!-- Node30&#45;&gt;Node34 -->
<g id="edge38" class="edge"><title>Node30&#45;&gt;Node34</title>
<path fill="none" stroke="midnightblue" d="M1410.93,-142.439C1460.95,-130.52 1551.59,-108.924 1606.35,-95.8777"/>
<polygon fill="midnightblue" stroke="midnightblue" points="1607.22,-99.2681 1616.13,-93.5455 1605.6,-92.4587 1607.22,-99.2681"/>
</g>
<!-- Node35 -->
<g id="node35" class="node"><title>Node35</title>
<polygon fill="none" stroke="#bfbfbf" points="1748,-74.5 1748,-93.5 1908,-93.5 1908,-74.5 1748,-74.5"/>
<text text-anchor="middle" x="1828" y="-81.5" font-family="Helvetica,sans-Serif" font-size="10.00">Math/GenVector/Translation3D.h</text>
</g>
<!-- Node30&#45;&gt;Node35 -->
<g id="edge39" class="edge"><title>Node30&#45;&gt;Node35</title>
<path fill="none" stroke="midnightblue" d="M1437.55,-142.773C1510.13,-133.102 1633.37,-116.299 1739,-100 1748.54,-98.5281 1758.64,-96.896 1768.48,-95.2661"/>
<polygon fill="midnightblue" stroke="midnightblue" points="1769.32,-98.6744 1778.61,-93.5751 1768.17,-91.77 1769.32,-98.6744"/>
</g>
<!-- Node36 -->
<g id="node36" class="node"><title>Node36</title>
<polygon fill="none" stroke="#bfbfbf" points="2080.5,-74.5 2080.5,-93.5 2125.5,-93.5 2125.5,-74.5 2080.5,-74.5"/>
<text text-anchor="middle" x="2103" y="-81.5" font-family="Helvetica,sans-Serif" font-size="10.00">iosfwd</text>
</g>
<!-- Node30&#45;&gt;Node36 -->
<g id="edge42" class="edge"><title>Node30&#45;&gt;Node36</title>
<path fill="none" stroke="midnightblue" d="M1437.55,-149.227C1585.07,-144.593 1951.24,-130.318 2070,-100 2072.65,-99.3229 2075.36,-98.4428 2078.02,-97.4482"/>
<polygon fill="midnightblue" stroke="midnightblue" points="2079.47,-100.635 2087.3,-93.5027 2076.73,-94.1929 2079.47,-100.635"/>
</g>
<!-- Node37 -->
<g id="node37" class="node"><title>Node37</title>
<g id="a_node37"><a xlink:href="../../d2/dd0/Cartesian2D_8h.html" target="_top" xlink:title="MathUtils/Cartesian2D.h">
<polygon fill="none" stroke="black" points="900.5,-74.5 900.5,-93.5 1025.5,-93.5 1025.5,-74.5 900.5,-74.5"/>
<text text-anchor="middle" x="963" y="-81.5" font-family="Helvetica,sans-Serif" font-size="10.00">MathUtils/Cartesian2D.h</text>
</a>
</g>
</g>
<!-- Node30&#45;&gt;Node37 -->
<g id="edge43" class="edge"><title>Node30&#45;&gt;Node37</title>
<path fill="none" stroke="midnightblue" d="M1312.47,-142.7C1244.14,-133.378 1131.5,-117.276 1035,-100 1027.57,-98.6702 1019.74,-97.1549 1012.08,-95.6107"/>
<polygon fill="midnightblue" stroke="midnightblue" points="1012.66,-92.1571 1002.16,-93.5771 1011.25,-99.0144 1012.66,-92.1571"/>
</g>
<!-- Node38 -->
<g id="node38" class="node"><title>Node38</title>
<polygon fill="none" stroke="#bfbfbf" points="1034.5,-1 1034.5,-31 1185.5,-31 1185.5,-1 1034.5,-1"/>
<text text-anchor="start" x="1042.5" y="-19" font-family="Helvetica,sans-Serif" font-size="10.00">Math/GenVector/Displacement</text>
<text text-anchor="middle" x="1110" y="-8" font-family="Helvetica,sans-Serif" font-size="10.00">Vector2D.h</text>
</g>
<!-- Node37&#45;&gt;Node38 -->
<g id="edge44" class="edge"><title>Node37&#45;&gt;Node38</title>
<path fill="none" stroke="midnightblue" d="M982.218,-74.3717C1004.24,-64.4829 1040.96,-47.9973 1069.4,-35.2289"/>
<polygon fill="midnightblue" stroke="midnightblue" points="1071,-38.3451 1078.69,-31.0562 1068.14,-31.9592 1071,-38.3451"/>
</g>
<!-- Node39 -->
<g id="node39" class="node"><title>Node39</title>
<polygon fill="none" stroke="#bfbfbf" points="840,-6.5 840,-25.5 1016,-25.5 1016,-6.5 840,-6.5"/>
<text text-anchor="middle" x="928" y="-13.5" font-family="Helvetica,sans-Serif" font-size="10.00">Math/GenVector/PositionVector2D.h</text>
</g>
<!-- Node37&#45;&gt;Node39 -->
<g id="edge45" class="edge"><title>Node37&#45;&gt;Node39</title>
<path fill="none" stroke="midnightblue" d="M958.424,-74.3717C953.109,-64.3478 944.198,-47.5455 937.39,-34.7076"/>
<polygon fill="midnightblue" stroke="midnightblue" points="940.466,-33.036 932.688,-25.8411 934.281,-36.3155 940.466,-33.036"/>
</g>
<!-- Node40&#45;&gt;Node13 -->
<g id="edge49" class="edge"><title>Node40&#45;&gt;Node13</title>
<path fill="none" stroke="midnightblue" d="M845.296,-278.372C865.003,-267.254 899.491,-247.8 922.78,-234.662"/>
<polygon fill="midnightblue" stroke="midnightblue" points="924.71,-237.592 931.701,-229.63 921.271,-231.495 924.71,-237.592"/>
</g>
<!-- Node41 -->
<g id="node41" class="node"><title>Node41</title>
<polygon fill="none" stroke="#bfbfbf" points="664.5,-210.5 664.5,-229.5 733.5,-229.5 733.5,-210.5 664.5,-210.5"/>
<text text-anchor="middle" x="699" y="-217.5" font-family="Helvetica,sans-Serif" font-size="10.00">TObjArray.h</text>
</g>
<!-- Node40&#45;&gt;Node41 -->
<g id="edge48" class="edge"><title>Node40&#45;&gt;Node41</title>
<path fill="none" stroke="midnightblue" d="M812.874,-278.372C790.514,-267.106 751.161,-247.279 725.082,-234.14"/>
<polygon fill="midnightblue" stroke="midnightblue" points="726.636,-231.004 716.13,-229.63 723.486,-237.256 726.636,-231.004"/>
</g>
<!-- Node42 -->
<g id="node42" class="node"><title>Node42</title>
<g id="a_node42"><a xlink:href="../../d4/d20/DetMatrixCache_8h.html" target="_top" xlink:title="DetectorsCommonDataFormats\l/DetMatrixCache.h">
<polygon fill="none" stroke="black" points="752,-205 752,-235 908,-235 908,-205 752,-205"/>
<text text-anchor="start" x="760" y="-223" font-family="Helvetica,sans-Serif" font-size="10.00">DetectorsCommonDataFormats</text>
<text text-anchor="middle" x="830" y="-212" font-family="Helvetica,sans-Serif" font-size="10.00">/DetMatrixCache.h</text>
</a>
</g>
</g>
<!-- Node40&#45;&gt;Node42 -->
<g id="edge50" class="edge"><title>Node40&#45;&gt;Node42</title>
<path fill="none" stroke="midnightblue" d="M830,-278.372C830,-269.971 830,-256.811 830,-245.213"/>
<polygon fill="midnightblue" stroke="midnightblue" points="833.5,-245.181 830,-235.181 826.5,-245.181 833.5,-245.181"/>
</g>
<!-- Node42&#45;&gt;Node8 -->
<g id="edge53" class="edge"><title>Node42&#45;&gt;Node8</title>
<path fill="none" stroke="midnightblue" d="M751.806,-205.569C748.494,-205.032 745.215,-204.507 742,-204 631.984,-186.641 603.733,-187.071 494,-168 480.243,-165.609 465.122,-162.611 452.154,-159.924"/>
<polygon fill="midnightblue" stroke="midnightblue" points="452.788,-156.481 442.283,-157.855 451.351,-163.332 452.788,-156.481"/>
</g>
<!-- Node42&#45;&gt;Node12 -->
<g id="edge52" class="edge"><title>Node42&#45;&gt;Node12</title>
<path fill="none" stroke="midnightblue" d="M780.251,-204.97C704.113,-182.606 563.733,-137.565 528,-100 511.248,-82.3888 504.5,-54.4157 501.793,-35.8838"/>
<polygon fill="midnightblue" stroke="midnightblue" points="505.243,-35.2543 500.577,-25.7421 498.293,-36.0877 505.243,-35.2543"/>
</g>
<!-- Node42&#45;&gt;Node20 -->
<g id="edge54" class="edge"><title>Node42&#45;&gt;Node20</title>
<path fill="none" stroke="midnightblue" d="M851.048,-204.679C864.742,-195.361 882.789,-183.082 897.856,-172.83"/>
<polygon fill="midnightblue" stroke="midnightblue" points="900.028,-175.585 906.327,-167.066 896.09,-169.798 900.028,-175.585"/>
</g>
<!-- Node42&#45;&gt;Node21 -->
<g id="edge56" class="edge"><title>Node42&#45;&gt;Node21</title>
<path fill="none" stroke="midnightblue" d="M908.151,-205.259C911.474,-204.807 914.768,-204.385 918,-204 1151.56,-176.203 1212.1,-192.823 1446,-168 1498.58,-162.42 1865.96,-113.811 1917,-100 1919.98,-99.1932 1923.05,-98.2127 1926.07,-97.1436"/>
<polygon fill="midnightblue" stroke="midnightblue" points="1927.4,-100.384 1935.48,-93.5299 1924.89,-93.8495 1927.4,-100.384"/>
</g>
<!-- Node42&#45;&gt;Node29 -->
<g id="edge51" class="edge"><title>Node42&#45;&gt;Node29</title>
<path fill="none" stroke="midnightblue" d="M900.815,-204.922C965.894,-191.985 1060.45,-173.187 1116.15,-162.115"/>
<polygon fill="midnightblue" stroke="midnightblue" points="1116.95,-165.524 1126.08,-160.141 1115.59,-158.658 1116.95,-165.524"/>
</g>
<!-- Node42&#45;&gt;Node30 -->
<g id="edge55" class="edge"><title>Node42&#45;&gt;Node30</title>
<path fill="none" stroke="midnightblue" d="M908.173,-205.434C911.491,-204.935 914.777,-204.454 918,-204 1053.3,-184.935 1211.96,-168.567 1302.26,-159.81"/>
<polygon fill="midnightblue" stroke="midnightblue" points="1302.78,-163.277 1312.39,-158.832 1302.1,-156.31 1302.78,-163.277"/>
</g>
<!-- Node43&#45;&gt;Node21 -->
<g id="edge60" class="edge"><title>Node43&#45;&gt;Node21</title>
<path fill="none" stroke="midnightblue" d="M1930.34,-340.188C1937.81,-331.672 1948.29,-318.031 1953,-304 1976.67,-233.438 1964.73,-142.74 1957.79,-103.956"/>
<polygon fill="midnightblue" stroke="midnightblue" points="1961.14,-102.842 1955.85,-93.6664 1954.27,-104.143 1961.14,-102.842"/>
</g>
<!-- Node44 -->
<g id="node44" class="node"><title>Node44</title>
<polygon fill="none" stroke="#bfbfbf" points="1899.5,-278.5 1899.5,-297.5 1944.5,-297.5 1944.5,-278.5 1899.5,-278.5"/>
<text text-anchor="middle" x="1922" y="-285.5" font-family="Helvetica,sans-Serif" font-size="10.00">climits</text>
</g>
<!-- Node43&#45;&gt;Node44 -->
<g id="edge61" class="edge"><title>Node43&#45;&gt;Node44</title>
<path fill="none" stroke="midnightblue" d="M1922,-340.403C1922,-331.938 1922,-318.728 1922,-307.82"/>
<polygon fill="midnightblue" stroke="midnightblue" points="1925.5,-307.581 1922,-297.581 1918.5,-307.581 1925.5,-307.581"/>
</g>
<!-- Node45&#45;&gt;Node21 -->
<g id="edge63" class="edge"><title>Node45&#45;&gt;Node21</title>
<path fill="none" stroke="midnightblue" d="M1706.94,-278.494C1766.21,-266.957 1864.6,-246.578 1878,-236 1900.54,-218.209 1933.03,-139.389 1947.08,-103.234"/>
<polygon fill="midnightblue" stroke="midnightblue" points="1950.36,-104.465 1950.68,-93.8747 1943.83,-101.954 1950.36,-104.465"/>
</g>
<!-- Node46&#45;&gt;Node21 -->
<g id="edge67" class="edge"><title>Node46&#45;&gt;Node21</title>
<path fill="none" stroke="midnightblue" d="M2066.28,-278.391C2073.36,-262.898 2085.71,-229.558 2075,-204 2055.17,-156.676 2006.32,-118.668 1977.11,-99.2019"/>
<polygon fill="midnightblue" stroke="midnightblue" points="1978.68,-96.0453 1968.38,-93.5449 1974.87,-101.92 1978.68,-96.0453"/>
</g>
<!-- Node46&#45;&gt;Node36 -->
<g id="edge69" class="edge"><title>Node46&#45;&gt;Node36</title>
<path fill="none" stroke="midnightblue" d="M2073.91,-278.434C2085.38,-269.381 2101.99,-253.945 2109,-236 2126.6,-190.926 2115.73,-132.422 2108.27,-103.235"/>
<polygon fill="midnightblue" stroke="midnightblue" points="2111.65,-102.307 2105.65,-93.5738 2104.89,-104.142 2111.65,-102.307"/>
</g>
<!-- Node47 -->
<g id="node47" class="node"><title>Node47</title>
<g id="a_node47"><a xlink:href="../../d4/d25/BaseHits_8h.html" target="_top" xlink:title="SimulationDataFormat\l/BaseHits.h">
<polygon fill="none" stroke="black" points="1755,-205 1755,-235 1869,-235 1869,-205 1755,-205"/>
<text text-anchor="start" x="1763" y="-223" font-family="Helvetica,sans-Serif" font-size="10.00">SimulationDataFormat</text>
<text text-anchor="middle" x="1812" y="-212" font-family="Helvetica,sans-Serif" font-size="10.00">/BaseHits.h</text>
</a>
</g>
</g>
<!-- Node46&#45;&gt;Node47 -->
<g id="edge65" class="edge"><title>Node46&#45;&gt;Node47</title>
<path fill="none" stroke="midnightblue" d="M2029.57,-278.439C1990.64,-268.161 1924.44,-250.685 1875.27,-237.703"/>
<polygon fill="midnightblue" stroke="midnightblue" points="1875.92,-234.256 1865.36,-235.087 1874.14,-241.024 1875.92,-234.256"/>
</g>
<!-- Node48 -->
<g id="node48" class="node"><title>Node48</title>
<polygon fill="none" stroke="#bfbfbf" points="2001.5,-210.5 2001.5,-229.5 2066.5,-229.5 2066.5,-210.5 2001.5,-210.5"/>
<text text-anchor="middle" x="2034" y="-217.5" font-family="Helvetica,sans-Serif" font-size="10.00">TVector3.h</text>
</g>
<!-- Node46&#45;&gt;Node48 -->
<g id="edge68" class="edge"><title>Node46&#45;&gt;Node48</title>
<path fill="none" stroke="midnightblue" d="M2058.34,-278.372C2054.13,-268.446 2047.1,-251.874 2041.67,-239.086"/>
<polygon fill="midnightblue" stroke="midnightblue" points="2044.88,-237.68 2037.75,-229.841 2038.43,-240.414 2044.88,-237.68"/>
</g>
<!-- Node47&#45;&gt;Node30 -->
<g id="edge66" class="edge"><title>Node47&#45;&gt;Node30</title>
<path fill="none" stroke="midnightblue" d="M1754.87,-210.372C1674.17,-198.183 1527.11,-175.973 1441.57,-163.054"/>
<polygon fill="midnightblue" stroke="midnightblue" points="1441.86,-159.559 1431.45,-161.526 1440.82,-166.48 1441.86,-159.559"/>
</g>
<!-- Node49&#45;&gt;Node23 -->
<g id="edge73" class="edge"><title>Node49&#45;&gt;Node23</title>
<path fill="none" stroke="midnightblue" d="M2212.63,-136.679C2203.74,-126.388 2191.74,-112.484 2182.41,-101.69"/>
<polygon fill="midnightblue" stroke="midnightblue" points="2184.81,-99.1089 2175.62,-93.8283 2179.51,-103.684 2184.81,-99.1089"/>
</g>
<!-- Node49&#45;&gt;Node25 -->
<g id="edge76" class="edge"><title>Node49&#45;&gt;Node25</title>
<path fill="none" stroke="midnightblue" d="M2181.69,-136.934C2150.99,-126.873 2108.87,-112.887 2072,-100 2069.25,-99.0388 2066.4,-98.028 2063.55,-97.0043"/>
<polygon fill="midnightblue" stroke="midnightblue" points="2064.54,-93.6413 2053.94,-93.5269 2062.15,-100.223 2064.54,-93.6413"/>
</g>
<!-- Node50 -->
<g id="node50" class="node"><title>Node50</title>
<polygon fill="none" stroke="#bfbfbf" points="2274,-74.5 2274,-93.5 2336,-93.5 2336,-74.5 2274,-74.5"/>
<text text-anchor="middle" x="2305" y="-81.5" font-family="Helvetica,sans-Serif" font-size="10.00">TNamed.h</text>
</g>
<!-- Node49&#45;&gt;Node50 -->
<g id="edge72" class="edge"><title>Node49&#45;&gt;Node50</title>
<path fill="none" stroke="midnightblue" d="M2242.36,-136.679C2255.33,-125.981 2273.03,-111.377 2286.31,-100.422"/>
<polygon fill="midnightblue" stroke="midnightblue" points="2288.81,-102.892 2294.3,-93.8283 2284.36,-97.4923 2288.81,-102.892"/>
</g>
<!-- Node51 -->
<g id="node51" class="node"><title>Node51</title>
<polygon fill="none" stroke="#bfbfbf" points="2354.5,-74.5 2354.5,-93.5 2413.5,-93.5 2413.5,-74.5 2354.5,-74.5"/>
<text text-anchor="middle" x="2384" y="-81.5" font-family="Helvetica,sans-Serif" font-size="10.00">stdexcept</text>
</g>
<!-- Node49&#45;&gt;Node51 -->
<g id="edge74" class="edge"><title>Node49&#45;&gt;Node51</title>
<path fill="none" stroke="midnightblue" d="M2259.11,-136.841C2287.23,-125.169 2326.74,-108.768 2353.75,-97.5585"/>
<polygon fill="midnightblue" stroke="midnightblue" points="2355.19,-100.748 2363.08,-93.6819 2352.51,-94.2831 2355.19,-100.748"/>
</g>
<!-- Node52 -->
<g id="node52" class="node"><title>Node52</title>
<polygon fill="none" stroke="#bfbfbf" points="2210.5,-74.5 2210.5,-93.5 2255.5,-93.5 2255.5,-74.5 2210.5,-74.5"/>
<text text-anchor="middle" x="2233" y="-81.5" font-family="Helvetica,sans-Serif" font-size="10.00">gsl/gsl</text>
</g>
<!-- Node49&#45;&gt;Node52 -->
<g id="edge75" class="edge"><title>Node49&#45;&gt;Node52</title>
<path fill="none" stroke="midnightblue" d="M2226.74,-136.679C2227.9,-127.101 2229.44,-114.394 2230.7,-103.977"/>
<polygon fill="midnightblue" stroke="midnightblue" points="2234.2,-104.177 2231.93,-93.8283 2227.25,-103.334 2234.2,-104.177"/>
</g>
<!-- Node53&#45;&gt;Node21 -->
<g id="edge78" class="edge"><title>Node53&#45;&gt;Node21</title>
<path fill="none" stroke="midnightblue" d="M1861.12,-272.967C1878.55,-264.65 1898.24,-252.472 1911,-236 1941.93,-196.063 1950.61,-134.815 1953.05,-104.04"/>
<polygon fill="midnightblue" stroke="midnightblue" points="1956.56,-104.051 1953.71,-93.8459 1949.57,-103.598 1956.56,-104.051"/>
</g>
</g>
</svg>
