<?xml version="1.0" encoding="UTF-8" standalone="no"?>
<!DOCTYPE svg PUBLIC "-//W3C//DTD SVG 1.1//EN"
 "http://www.w3.org/Graphics/SVG/1.1/DTD/svg11.dtd">
<!-- Generated by graphviz version 2.36.0 (20140111.2315)
 -->
<!-- Title: o2::TPC::ClusterNative Pages: 1 -->
<svg width="436pt" height="348pt"
 viewBox="0.00 0.00 436.00 348.00" xmlns="http://www.w3.org/2000/svg" xmlns:xlink="http://www.w3.org/1999/xlink">
<g id="graph0" class="graph" transform="scale(1 1) rotate(0) translate(4 344)">
<title>o2::TPC::ClusterNative</title>
<!-- Node1 -->
<g id="node1" class="node"><title>Node1</title>
<polygon fill="#bfbfbf" stroke="black" points="110,-1 110,-201 234,-201 234,-1 110,-1"/>
<text text-anchor="middle" x="172" y="-189" font-family="Helvetica,sans-Serif" font-size="10.00">o2::TPC::ClusterNative</text>
<polyline fill="none" stroke="black" points="110,-182 234,-182 "/>
<text text-anchor="middle" x="172" y="-170" font-family="Helvetica,sans-Serif" font-size="10.00"> </text>
<polyline fill="none" stroke="black" points="110,-163 234,-163 "/>
<text text-anchor="start" x="118" y="-151" font-family="Helvetica,sans-Serif" font-size="10.00">+ getFlags()</text>
<text text-anchor="start" x="118" y="-140" font-family="Helvetica,sans-Serif" font-size="10.00">+ getTimePacked()</text>
<text text-anchor="start" x="118" y="-129" font-family="Helvetica,sans-Serif" font-size="10.00">+ setTimePackedFlags()</text>
<text text-anchor="start" x="118" y="-118" font-family="Helvetica,sans-Serif" font-size="10.00">+ setTimePacked()</text>
<text text-anchor="start" x="118" y="-107" font-family="Helvetica,sans-Serif" font-size="10.00">+ setFlags()</text>
<text text-anchor="start" x="118" y="-96" font-family="Helvetica,sans-Serif" font-size="10.00">+ getTime()</text>
<text text-anchor="start" x="118" y="-85" font-family="Helvetica,sans-Serif" font-size="10.00">+ setTime()</text>
<text text-anchor="start" x="118" y="-74" font-family="Helvetica,sans-Serif" font-size="10.00">+ setTimeFlags()</text>
<text text-anchor="start" x="118" y="-63" font-family="Helvetica,sans-Serif" font-size="10.00">+ getPad()</text>
<text text-anchor="start" x="118" y="-52" font-family="Helvetica,sans-Serif" font-size="10.00">+ setPad()</text>
<text text-anchor="start" x="118" y="-41" font-family="Helvetica,sans-Serif" font-size="10.00">+ getSigmaTime()</text>
<text text-anchor="start" x="118" y="-30" font-family="Helvetica,sans-Serif" font-size="10.00">+ setSigmaTime()</text>
<text text-anchor="start" x="118" y="-19" font-family="Helvetica,sans-Serif" font-size="10.00">+ getSigmaPad()</text>
<text text-anchor="start" x="118" y="-8" font-family="Helvetica,sans-Serif" font-size="10.00">+ setSigmaPad()</text>
</g>
<!-- Node2 -->
<g id="node2" class="node"><title>Node2</title>
<polygon fill="none" stroke="#bfbfbf" points="-0.5,-282.5 -0.5,-339.5 50.5,-339.5 50.5,-282.5 -0.5,-282.5"/>
<text text-anchor="middle" x="25" y="-327.5" font-family="Helvetica,sans-Serif" font-size="10.00">uint32_t</text>
<polyline fill="none" stroke="#bfbfbf" points="-0.5,-320.5 50.5,-320.5 "/>
<text text-anchor="middle" x="25" y="-308.5" font-family="Helvetica,sans-Serif" font-size="10.00"> </text>
<polyline fill="none" stroke="#bfbfbf" points="-0.5,-301.5 50.5,-301.5 "/>
<text text-anchor="middle" x="25" y="-289.5" font-family="Helvetica,sans-Serif" font-size="10.00"> </text>
</g>
<!-- Node2&#45;&gt;Node1 -->
<g id="edge1" class="edge"><title>Node2&#45;&gt;Node1</title>
<path fill="none" stroke="#404040" d="M25.6752,-282.468C27.1806,-263.806 31.2834,-239.149 42,-220 56.3926,-194.283 78.4575,-171.159 100.346,-152.339"/>
<polygon fill="none" stroke="#404040" points="100.479,-152.228 102.524,-145.313 109.693,-144.541 107.648,-151.456 100.479,-152.228"/>
<text text-anchor="middle" x="84.5" y="-239.5" font-family="Helvetica,sans-Serif" font-size="10.00"> +timeFlagsPacked</text>
</g>
<!-- Node3 -->
<g id="node3" class="node"><title>Node3</title>
<polygon fill="none" stroke="#bfbfbf" points="107.5,-282.5 107.5,-339.5 158.5,-339.5 158.5,-282.5 107.5,-282.5"/>
<text text-anchor="middle" x="133" y="-327.5" font-family="Helvetica,sans-Serif" font-size="10.00">uint16_t</text>
<polyline fill="none" stroke="#bfbfbf" points="107.5,-320.5 158.5,-320.5 "/>
<text text-anchor="middle" x="133" y="-308.5" font-family="Helvetica,sans-Serif" font-size="10.00"> </text>
<polyline fill="none" stroke="#bfbfbf" points="107.5,-301.5 158.5,-301.5 "/>
<text text-anchor="middle" x="133" y="-289.5" font-family="Helvetica,sans-Serif" font-size="10.00"> </text>
</g>
<!-- Node3&#45;&gt;Node1 -->
<g id="edge2" class="edge"><title>Node3&#45;&gt;Node1</title>
<path fill="none" stroke="#404040" d="M131.173,-282.243C130.52,-264.357 130.637,-240.667 134,-220 134.376,-217.69 134.789,-215.363 135.234,-213.025"/>
<polygon fill="none" stroke="#404040" points="135.237,-213.01 132.564,-206.313 137.717,-201.269 140.391,-207.966 135.237,-213.01"/>
<text text-anchor="middle" x="161.5" y="-250.5" font-family="Helvetica,sans-Serif" font-size="10.00"> +qTot</text>
<text text-anchor="middle" x="161.5" y="-239.5" font-family="Helvetica,sans-Serif" font-size="10.00">+padPacked</text>
<text text-anchor="middle" x="161.5" y="-228.5" font-family="Helvetica,sans-Serif" font-size="10.00">+qMax</text>
</g>
<!-- Node4 -->
<g id="node4" class="node"><title>Node4</title>
<polygon fill="none" stroke="#bfbfbf" points="188,-282.5 188,-339.5 234,-339.5 234,-282.5 188,-282.5"/>
<text text-anchor="middle" x="211" y="-327.5" font-family="Helvetica,sans-Serif" font-size="10.00">uint8_t</text>
<polyline fill="none" stroke="#bfbfbf" points="188,-320.5 234,-320.5 "/>
<text text-anchor="middle" x="211" y="-308.5" font-family="Helvetica,sans-Serif" font-size="10.00"> </text>
<polyline fill="none" stroke="#bfbfbf" points="188,-301.5 234,-301.5 "/>
<text text-anchor="middle" x="211" y="-289.5" font-family="Helvetica,sans-Serif" font-size="10.00"> </text>
</g>
<!-- Node4&#45;&gt;Node1 -->
<g id="edge3" class="edge"><title>Node4&#45;&gt;Node1</title>
<path fill="none" stroke="#404040" d="M205.821,-282.379C202.407,-264.171 197.688,-239.002 192.857,-213.238"/>
<polygon fill="none" stroke="#404040" points="192.845,-213.176 187.808,-208.015 190.634,-201.381 195.671,-206.541 192.845,-213.176"/>
<text text-anchor="middle" x="247.5" y="-245" font-family="Helvetica,sans-Serif" font-size="10.00"> +sigmaTimePacked</text>
<text text-anchor="middle" x="247.5" y="-234" font-family="Helvetica,sans-Serif" font-size="10.00">+sigmaPadPacked</text>
</g>
<!-- Node5 -->
<g id="node5" class="node"><title>Node5</title>
<polygon fill="none" stroke="#bfbfbf" points="310.5,-282.5 310.5,-339.5 339.5,-339.5 339.5,-282.5 310.5,-282.5"/>
<text text-anchor="middle" x="325" y="-327.5" font-family="Helvetica,sans-Serif" font-size="10.00">int</text>
<polyline fill="none" stroke="#bfbfbf" points="310.5,-320.5 339.5,-320.5 "/>
<text text-anchor="middle" x="325" y="-308.5" font-family="Helvetica,sans-Serif" font-size="10.00"> </text>
<polyline fill="none" stroke="#bfbfbf" points="310.5,-301.5 339.5,-301.5 "/>
<text text-anchor="middle" x="325" y="-289.5" font-family="Helvetica,sans-Serif" font-size="10.00"> </text>
</g>
<!-- Node5&#45;&gt;Node1 -->
<g id="edge4" class="edge"><title>Node5&#45;&gt;Node1</title>
<path fill="none" stroke="#404040" d="M320.257,-282.474C316.158,-263.814 308.955,-239.158 297,-220 282.682,-197.056 262.838,-175.57 243.173,-157.384"/>
<polygon fill="none" stroke="#404040" points="243.084,-157.303 235.949,-156.256 234.171,-149.267 241.306,-150.315 243.084,-157.303"/>
<text text-anchor="middle" x="372" y="-256" font-family="Helvetica,sans-Serif" font-size="10.00"> +scaleTimePacked</text>
<text text-anchor="middle" x="372" y="-245" font-family="Helvetica,sans-Serif" font-size="10.00">+scaleSigmaPadPacked</text>
<text text-anchor="middle" x="372" y="-234" font-family="Helvetica,sans-Serif" font-size="10.00">+scaleSigmaTimePacked</text>
<text text-anchor="middle" x="372" y="-223" font-family="Helvetica,sans-Serif" font-size="10.00">+scalePadPacked</text>
</g>
</g>
</svg>
