<?xml version="1.0" encoding="UTF-8" standalone="no"?>
<!DOCTYPE svg PUBLIC "-//W3C//DTD SVG 1.1//EN"
 "http://www.w3.org/Graphics/SVG/1.1/DTD/svg11.dtd">
<!-- Generated by graphviz version 2.36.0 (20140111.2315)
 -->
<!-- Title: /home/travis/build/AliceO2Group/AliceO2/Detectors/MUON/MCH/Simulation/test/testGeometry.cxx Pages: 1 -->
<!--zoomable 322 -->
<svg id="main" version="1.1" xmlns="http://www.w3.org/2000/svg" xmlns:xlink="http://www.w3.org/1999/xlink" xml:space="preserve" onload="init(evt)">
<style type="text/css"><![CDATA[
.edge:hover path { stroke: red; }
.edge:hover polygon { stroke: red; fill: red; }
]]></style>
<script type="text/javascript"><![CDATA[
var edges = document.getElementsByTagName('g');
if (edges && edges.length) {
  for (var i=0;i<edges.length;i++) {
    if (edges[i].id.substr(0,4)=='edge') {
      edges[i].setAttribute('class','edge');
    }
  }
}
]]></script>
        <defs>
                <circle id="rim" cx="0" cy="0" r="7"/>
                <circle id="rim2" cx="0" cy="0" r="3.5"/>
                <g id="zoomPlus">
                        <use xlink:href="#rim" fill="#404040">
                                <set attributeName="fill" to="#808080" begin="zoomplus.mouseover" end="zoomplus.mouseout"/>
                        </use>
                        <path d="M-4,0h8M0,-4v8" fill="none" stroke="white" stroke-width="1.5" pointer-events="none"/>
                </g>
                <g id="zoomMin">
                        <use xlink:href="#rim" fill="#404040">
                                <set attributeName="fill" to="#808080" begin="zoomminus.mouseover" end="zoomminus.mouseout"/>
                        </use>
                        <path d="M-4,0h8" fill="none" stroke="white" stroke-width="1.5" pointer-events="none"/>
                </g>
                <g id="dirArrow">
                        <path fill="none" stroke="white" stroke-width="1.5" d="M0,-3.0v7 M-2.5,-0.5L0,-3.0L2.5,-0.5"/>
                </g>
               <g id="resetDef">
                       <use xlink:href="#rim2" fill="#404040">
                               <set attributeName="fill" to="#808080" begin="reset.mouseover" end="reset.mouseout"/>
                       </use>
               </g>
        </defs>

<script type="text/javascript">
var viewWidth = 1444;
var viewHeight = 322;
var sectionId = 'dynsection-0';
</script>
<script xlink:href="../../svgpan.js"/>
<svg id="graph" class="graph">
<g id="viewport">
<title>/home/travis/build/AliceO2Group/AliceO2/Detectors/MUON/MCH/Simulation/test/testGeometry.cxx</title>
<!-- Node1 -->
<g id="node1" class="node"><title>Node1</title>
<polygon fill="#bfbfbf" stroke="black" points="961.5,-261 961.5,-313 1132.5,-313 1132.5,-261 961.5,-261"/>
<text text-anchor="start" x="969.5" y="-301" font-family="Helvetica,sans-Serif" font-size="10.00">/home/travis/build</text>
<text text-anchor="start" x="969.5" y="-290" font-family="Helvetica,sans-Serif" font-size="10.00">/AliceO2Group/AliceO2</text>
<text text-anchor="start" x="969.5" y="-279" font-family="Helvetica,sans-Serif" font-size="10.00">/Detectors/MUON/MCH/Simulation</text>
<text text-anchor="middle" x="1047" y="-268" font-family="Helvetica,sans-Serif" font-size="10.00">/test/testGeometry.cxx</text>
</g>
<!-- Node2 -->
<g id="node2" class="node"><title>Node2</title>
<polygon fill="none" stroke="#bfbfbf" points="412.5,-198.5 412.5,-217.5 531.5,-217.5 531.5,-198.5 412.5,-198.5"/>
<text text-anchor="middle" x="472" y="-205.5" font-family="Helvetica,sans-Serif" font-size="10.00">boost/test/unit_test.hpp</text>
</g>
<!-- Node1&#45;&gt;Node2 -->
<g id="edge1" class="edge"><title>Node1&#45;&gt;Node2</title>
<path fill="none" stroke="midnightblue" d="M961.417,-278.051C860.329,-268.08 687.281,-249.19 540,-224 532.709,-222.753 525.018,-221.245 517.536,-219.672"/>
<polygon fill="midnightblue" stroke="midnightblue" points="518.032,-216.199 507.519,-217.506 516.553,-223.041 518.032,-216.199"/>
</g>
<!-- Node3 -->
<g id="node3" class="node"><title>Node3</title>
<g id="a_node3"><a xlink:href="../../d6/d1f/MUON_2MCH_2Mapping_2Interface_2include_2MCHMappingInterface_2Segmentation_8h.html" target="_top" xlink:title="MCHMappingInterface\l/Segmentation.h">
<polygon fill="none" stroke="black" points="549.5,-193 549.5,-223 664.5,-223 664.5,-193 549.5,-193"/>
<text text-anchor="start" x="557.5" y="-211" font-family="Helvetica,sans-Serif" font-size="10.00">MCHMappingInterface</text>
<text text-anchor="middle" x="607" y="-200" font-family="Helvetica,sans-Serif" font-size="10.00">/Segmentation.h</text>
</a>
</g>
</g>
<!-- Node1&#45;&gt;Node3 -->
<g id="edge2" class="edge"><title>Node1&#45;&gt;Node3</title>
<path fill="none" stroke="midnightblue" d="M961.203,-273.125C887.812,-261.792 779.147,-244.257 674.786,-224.091"/>
<polygon fill="midnightblue" stroke="midnightblue" points="675.185,-220.603 664.701,-222.132 673.85,-227.475 675.185,-220.603"/>
</g>
<!-- Node7 -->
<g id="node7" class="node"><title>Node7</title>
<polygon fill="none" stroke="#bfbfbf" points="884,-136.5 884,-155.5 938,-155.5 938,-136.5 884,-136.5"/>
<text text-anchor="middle" x="911" y="-143.5" font-family="Helvetica,sans-Serif" font-size="10.00">iostream</text>
</g>
<!-- Node1&#45;&gt;Node7 -->
<g id="edge31" class="edge"><title>Node1&#45;&gt;Node7</title>
<path fill="none" stroke="midnightblue" d="M1042.23,-260.82C1037.15,-240.087 1027.23,-211.097 1009,-192 992.557,-174.777 968.262,-163.56 947.977,-156.633"/>
<polygon fill="midnightblue" stroke="midnightblue" points="948.984,-153.28 938.393,-153.569 946.852,-159.948 948.984,-153.28"/>
</g>
<!-- Node9 -->
<g id="node9" class="node"><title>Node9</title>
<polygon fill="none" stroke="#bfbfbf" points="1002,-136.5 1002,-155.5 1092,-155.5 1092,-136.5 1002,-136.5"/>
<text text-anchor="middle" x="1047" y="-143.5" font-family="Helvetica,sans-Serif" font-size="10.00">boost/format.hpp</text>
</g>
<!-- Node1&#45;&gt;Node9 -->
<g id="edge27" class="edge"><title>Node1&#45;&gt;Node9</title>
<path fill="none" stroke="midnightblue" d="M1047,-260.828C1047,-233.408 1047,-190.187 1047,-165.648"/>
<polygon fill="midnightblue" stroke="midnightblue" points="1050.5,-165.532 1047,-155.532 1043.5,-165.532 1050.5,-165.532"/>
</g>
<!-- Node10 -->
<g id="node10" class="node"><title>Node10</title>
<g id="a_node10"><a xlink:href="../../d5/dc1/MUON_2MCH_2Simulation_2include_2MCHSimulation_2Geometry_8h.html" target="_top" xlink:title="MCHSimulation/Geometry.h">
<polygon fill="none" stroke="black" points="683,-198.5 683,-217.5 823,-217.5 823,-198.5 683,-198.5"/>
<text text-anchor="middle" x="753" y="-205.5" font-family="Helvetica,sans-Serif" font-size="10.00">MCHSimulation/Geometry.h</text>
</a>
</g>
</g>
<!-- Node1&#45;&gt;Node10 -->
<g id="edge9" class="edge"><title>Node1&#45;&gt;Node10</title>
<path fill="none" stroke="midnightblue" d="M961.173,-263.521C906.725,-249.261 838.65,-231.432 795.483,-220.126"/>
<polygon fill="midnightblue" stroke="midnightblue" points="796.161,-216.686 785.601,-217.538 794.388,-223.458 796.161,-216.686"/>
</g>
<!-- Node23 -->
<g id="node23" class="node"><title>Node23</title>
<g id="a_node23"><a xlink:href="../../de/d04/GeometryTest_8h.html" target="_top" xlink:title="MCHSimulation/GeometryTest.h">
<polygon fill="none" stroke="black" points="841.5,-198.5 841.5,-217.5 1000.5,-217.5 1000.5,-198.5 841.5,-198.5"/>
<text text-anchor="middle" x="921" y="-205.5" font-family="Helvetica,sans-Serif" font-size="10.00">MCHSimulation/GeometryTest.h</text>
</a>
</g>
</g>
<!-- Node1&#45;&gt;Node23 -->
<g id="edge24" class="edge"><title>Node1&#45;&gt;Node23</title>
<path fill="none" stroke="midnightblue" d="M1005.74,-260.787C985.153,-248.205 961.033,-233.464 943.801,-222.934"/>
<polygon fill="midnightblue" stroke="midnightblue" points="945.361,-219.786 935.004,-217.558 941.711,-225.759 945.361,-219.786"/>
</g>
<!-- Node24 -->
<g id="node24" class="node"><title>Node24</title>
<polygon fill="none" stroke="#bfbfbf" points="1094,-198.5 1094,-217.5 1180,-217.5 1180,-198.5 1094,-198.5"/>
<text text-anchor="middle" x="1137" y="-205.5" font-family="Helvetica,sans-Serif" font-size="10.00">TGeoManager.h</text>
</g>
<!-- Node1&#45;&gt;Node24 -->
<g id="edge26" class="edge"><title>Node1&#45;&gt;Node24</title>
<path fill="none" stroke="midnightblue" d="M1076.47,-260.787C1090.63,-248.671 1107.13,-234.553 1119.33,-224.121"/>
<polygon fill="midnightblue" stroke="midnightblue" points="1121.67,-226.718 1127,-217.558 1117.12,-221.399 1121.67,-226.718"/>
</g>
<!-- Node25 -->
<g id="node25" class="node"><title>Node25</title>
<polygon fill="none" stroke="#bfbfbf" points="1198.5,-193 1198.5,-223 1299.5,-223 1299.5,-193 1198.5,-193"/>
<text text-anchor="start" x="1206.5" y="-211" font-family="Helvetica,sans-Serif" font-size="10.00">boost/test/data/test</text>
<text text-anchor="middle" x="1249" y="-200" font-family="Helvetica,sans-Serif" font-size="10.00">_case.hpp</text>
</g>
<!-- Node1&#45;&gt;Node25 -->
<g id="edge28" class="edge"><title>Node1&#45;&gt;Node25</title>
<path fill="none" stroke="midnightblue" d="M1112.86,-260.894C1142.19,-249.715 1176.03,-236.815 1202.64,-226.673"/>
<polygon fill="midnightblue" stroke="midnightblue" points="1203.99,-229.903 1212.09,-223.07 1201.5,-223.362 1203.99,-229.903"/>
</g>
<!-- Node26 -->
<g id="node26" class="node"><title>Node26</title>
<polygon fill="none" stroke="#bfbfbf" points="1318,-198.5 1318,-217.5 1368,-217.5 1368,-198.5 1318,-198.5"/>
<text text-anchor="middle" x="1343" y="-205.5" font-family="Helvetica,sans-Serif" font-size="10.00">fstream</text>
</g>
<!-- Node1&#45;&gt;Node26 -->
<g id="edge29" class="edge"><title>Node1&#45;&gt;Node26</title>
<path fill="none" stroke="midnightblue" d="M1132.66,-269.528C1184.1,-258.683 1250.51,-242.991 1308,-224 1310.42,-223.202 1312.9,-222.304 1315.37,-221.355"/>
<polygon fill="midnightblue" stroke="midnightblue" points="1316.77,-224.566 1324.7,-217.544 1314.12,-218.085 1316.77,-224.566"/>
</g>
<!-- Node27 -->
<g id="node27" class="node"><title>Node27</title>
<polygon fill="none" stroke="#bfbfbf" points="1386,-198.5 1386,-217.5 1436,-217.5 1436,-198.5 1386,-198.5"/>
<text text-anchor="middle" x="1411" y="-205.5" font-family="Helvetica,sans-Serif" font-size="10.00">iomanip</text>
</g>
<!-- Node1&#45;&gt;Node27 -->
<g id="edge30" class="edge"><title>Node1&#45;&gt;Node27</title>
<path fill="none" stroke="midnightblue" d="M1132.74,-275.405C1200.13,-265.766 1295.85,-249.157 1377,-224 1379.43,-223.248 1381.91,-222.372 1384.38,-221.429"/>
<polygon fill="midnightblue" stroke="midnightblue" points="1385.76,-224.645 1393.65,-217.573 1383.07,-218.182 1385.76,-224.645"/>
</g>
<!-- Node4 -->
<g id="node4" class="node"><title>Node4</title>
<g id="a_node4"><a xlink:href="../../d0/d85/SegmentationCInterface_8h.html" target="_top" xlink:title="SegmentationCInterface.h">
<polygon fill="none" stroke="black" points="363.5,-136.5 363.5,-155.5 494.5,-155.5 494.5,-136.5 363.5,-136.5"/>
<text text-anchor="middle" x="429" y="-143.5" font-family="Helvetica,sans-Serif" font-size="10.00">SegmentationCInterface.h</text>
</a>
</g>
</g>
<!-- Node3&#45;&gt;Node4 -->
<g id="edge3" class="edge"><title>Node3&#45;&gt;Node4</title>
<path fill="none" stroke="midnightblue" d="M565.267,-192.933C534.474,-182.553 493.047,-168.589 463.982,-158.792"/>
<polygon fill="midnightblue" stroke="midnightblue" points="464.848,-155.39 454.254,-155.513 462.612,-162.024 464.848,-155.39"/>
</g>
<!-- Node5 -->
<g id="node5" class="node"><title>Node5</title>
<polygon fill="none" stroke="#bfbfbf" points="512.5,-136.5 512.5,-155.5 571.5,-155.5 571.5,-136.5 512.5,-136.5"/>
<text text-anchor="middle" x="542" y="-143.5" font-family="Helvetica,sans-Serif" font-size="10.00">stdexcept</text>
</g>
<!-- Node3&#45;&gt;Node5 -->
<g id="edge4" class="edge"><title>Node3&#45;&gt;Node5</title>
<path fill="none" stroke="midnightblue" d="M591.596,-192.781C581.761,-183.703 569.007,-171.929 558.895,-162.595"/>
<polygon fill="midnightblue" stroke="midnightblue" points="561.18,-159.942 551.458,-155.731 556.432,-165.085 561.18,-159.942"/>
</g>
<!-- Node6 -->
<g id="node6" class="node"><title>Node6</title>
<polygon fill="none" stroke="#bfbfbf" points="590,-136.5 590,-155.5 642,-155.5 642,-136.5 590,-136.5"/>
<text text-anchor="middle" x="616" y="-143.5" font-family="Helvetica,sans-Serif" font-size="10.00">memory</text>
</g>
<!-- Node3&#45;&gt;Node6 -->
<g id="edge5" class="edge"><title>Node3&#45;&gt;Node6</title>
<path fill="none" stroke="midnightblue" d="M609.133,-192.781C610.346,-184.691 611.881,-174.462 613.191,-165.725"/>
<polygon fill="midnightblue" stroke="midnightblue" points="616.668,-166.139 614.69,-155.731 609.746,-165.101 616.668,-166.139"/>
</g>
<!-- Node3&#45;&gt;Node7 -->
<g id="edge6" class="edge"><title>Node3&#45;&gt;Node7</title>
<path fill="none" stroke="midnightblue" d="M664.718,-193.953C667.855,-193.283 670.965,-192.628 674,-192 744.539,-177.411 827.271,-162.113 873.974,-153.644"/>
<polygon fill="midnightblue" stroke="midnightblue" points="874.713,-157.067 883.931,-151.843 873.467,-150.179 874.713,-157.067"/>
</g>
<!-- Node8 -->
<g id="node8" class="node"><title>Node8</title>
<polygon fill="none" stroke="#bfbfbf" points="660,-136.5 660,-155.5 704,-155.5 704,-136.5 660,-136.5"/>
<text text-anchor="middle" x="682" y="-143.5" font-family="Helvetica,sans-Serif" font-size="10.00">vector</text>
</g>
<!-- Node3&#45;&gt;Node8 -->
<g id="edge7" class="edge"><title>Node3&#45;&gt;Node8</title>
<path fill="none" stroke="midnightblue" d="M624.774,-192.781C636.346,-183.523 651.423,-171.462 663.196,-162.044"/>
<polygon fill="midnightblue" stroke="midnightblue" points="665.465,-164.711 671.087,-155.731 661.092,-159.244 665.465,-164.711"/>
</g>
<!-- Node3&#45;&gt;Node9 -->
<g id="edge8" class="edge"><title>Node3&#45;&gt;Node9</title>
<path fill="none" stroke="midnightblue" d="M664.671,-193.704C667.82,-193.098 670.946,-192.525 674,-192 785.973,-172.761 918.253,-158.87 991.368,-151.956"/>
<polygon fill="midnightblue" stroke="midnightblue" points="992.086,-155.404 1001.72,-150.987 991.433,-148.434 992.086,-155.404"/>
</g>
<!-- Node10&#45;&gt;Node7 -->
<g id="edge11" class="edge"><title>Node10&#45;&gt;Node7</title>
<path fill="none" stroke="midnightblue" d="M775.638,-198.403C802.74,-188.111 848.31,-170.806 879.004,-159.15"/>
<polygon fill="midnightblue" stroke="midnightblue" points="880.298,-162.403 888.404,-155.581 877.813,-155.859 880.298,-162.403"/>
</g>
<!-- Node10&#45;&gt;Node8 -->
<g id="edge10" class="edge"><title>Node10&#45;&gt;Node8</title>
<path fill="none" stroke="midnightblue" d="M742.827,-198.403C731.65,-188.958 713.483,-173.606 699.909,-162.134"/>
<polygon fill="midnightblue" stroke="midnightblue" points="702.051,-159.362 692.154,-155.581 697.533,-164.709 702.051,-159.362"/>
</g>
<!-- Node11 -->
<g id="node11" class="node"><title>Node11</title>
<g id="a_node11"><a xlink:href="../../dd/d76/Cartesian3D_8h.html" target="_top" xlink:title="MathUtils/Cartesian3D.h">
<polygon fill="none" stroke="black" points="721.5,-136.5 721.5,-155.5 846.5,-155.5 846.5,-136.5 721.5,-136.5"/>
<text text-anchor="middle" x="784" y="-143.5" font-family="Helvetica,sans-Serif" font-size="10.00">MathUtils/Cartesian3D.h</text>
</a>
</g>
</g>
<!-- Node10&#45;&gt;Node11 -->
<g id="edge12" class="edge"><title>Node10&#45;&gt;Node11</title>
<path fill="none" stroke="midnightblue" d="M757.442,-198.403C761.953,-189.671 769.074,-175.889 774.807,-164.794"/>
<polygon fill="midnightblue" stroke="midnightblue" points="778.086,-166.071 779.567,-155.581 771.867,-162.858 778.086,-166.071"/>
</g>
<!-- Node12 -->
<g id="node12" class="node"><title>Node12</title>
<polygon fill="none" stroke="#bfbfbf" points="-0.5,-69 -0.5,-99 150.5,-99 150.5,-69 -0.5,-69"/>
<text text-anchor="start" x="7.5" y="-87" font-family="Helvetica,sans-Serif" font-size="10.00">Math/GenVector/Displacement</text>
<text text-anchor="middle" x="75" y="-76" font-family="Helvetica,sans-Serif" font-size="10.00">Vector3D.h</text>
</g>
<!-- Node11&#45;&gt;Node12 -->
<g id="edge13" class="edge"><title>Node11&#45;&gt;Node12</title>
<path fill="none" stroke="midnightblue" d="M721.196,-136.927C718.088,-136.597 715.01,-136.286 712,-136 470.594,-113.061 405.85,-128.959 161.216,-100.054"/>
<polygon fill="midnightblue" stroke="midnightblue" points="161.283,-96.5369 150.939,-98.8257 160.453,-103.487 161.283,-96.5369"/>
</g>
<!-- Node13 -->
<g id="node13" class="node"><title>Node13</title>
<polygon fill="none" stroke="#bfbfbf" points="169,-74.5 169,-93.5 345,-93.5 345,-74.5 169,-74.5"/>
<text text-anchor="middle" x="257" y="-81.5" font-family="Helvetica,sans-Serif" font-size="10.00">Math/GenVector/PositionVector3D.h</text>
</g>
<!-- Node11&#45;&gt;Node13 -->
<g id="edge14" class="edge"><title>Node11&#45;&gt;Node13</title>
<path fill="none" stroke="midnightblue" d="M721.182,-137.056C718.078,-136.692 715.004,-136.338 712,-136 552.652,-118.054 512.055,-120.385 353,-100 341.741,-98.557 329.769,-96.8363 318.235,-95.0835"/>
<polygon fill="midnightblue" stroke="midnightblue" points="318.659,-91.6075 308.242,-93.541 317.591,-98.5255 318.659,-91.6075"/>
</g>
<!-- Node14 -->
<g id="node14" class="node"><title>Node14</title>
<polygon fill="none" stroke="#bfbfbf" points="362.5,-74.5 362.5,-93.5 511.5,-93.5 511.5,-74.5 362.5,-74.5"/>
<text text-anchor="middle" x="437" y="-81.5" font-family="Helvetica,sans-Serif" font-size="10.00">Math/GenVector/Rotation3D.h</text>
</g>
<!-- Node11&#45;&gt;Node14 -->
<g id="edge15" class="edge"><title>Node11&#45;&gt;Node14</title>
<path fill="none" stroke="midnightblue" d="M733.562,-136.482C680.606,-127.512 594.922,-112.924 521,-100 512.412,-98.4985 503.333,-96.8946 494.443,-95.3148"/>
<polygon fill="midnightblue" stroke="midnightblue" points="494.981,-91.8557 484.523,-93.5481 493.754,-98.7472 494.981,-91.8557"/>
</g>
<!-- Node15 -->
<g id="node15" class="node"><title>Node15</title>
<polygon fill="none" stroke="#bfbfbf" points="530,-74.5 530,-93.5 686,-93.5 686,-74.5 530,-74.5"/>
<text text-anchor="middle" x="608" y="-81.5" font-family="Helvetica,sans-Serif" font-size="10.00">Math/GenVector/Transform3D.h</text>
</g>
<!-- Node11&#45;&gt;Node15 -->
<g id="edge16" class="edge"><title>Node11&#45;&gt;Node15</title>
<path fill="none" stroke="midnightblue" d="M758.783,-136.403C728.332,-126.022 676.951,-108.506 642.757,-96.849"/>
<polygon fill="midnightblue" stroke="midnightblue" points="643.764,-93.4946 633.17,-93.5806 641.505,-100.12 643.764,-93.4946"/>
</g>
<!-- Node16 -->
<g id="node16" class="node"><title>Node16</title>
<polygon fill="none" stroke="#bfbfbf" points="704,-74.5 704,-93.5 864,-93.5 864,-74.5 704,-74.5"/>
<text text-anchor="middle" x="784" y="-81.5" font-family="Helvetica,sans-Serif" font-size="10.00">Math/GenVector/Translation3D.h</text>
</g>
<!-- Node11&#45;&gt;Node16 -->
<g id="edge17" class="edge"><title>Node11&#45;&gt;Node16</title>
<path fill="none" stroke="midnightblue" d="M784,-136.403C784,-127.938 784,-114.728 784,-103.82"/>
<polygon fill="midnightblue" stroke="midnightblue" points="787.5,-103.581 784,-93.5806 780.5,-103.581 787.5,-103.581"/>
</g>
<!-- Node17 -->
<g id="node17" class="node"><title>Node17</title>
<polygon fill="none" stroke="#bfbfbf" points="882,-74.5 882,-93.5 938,-93.5 938,-74.5 882,-74.5"/>
<text text-anchor="middle" x="910" y="-81.5" font-family="Helvetica,sans-Serif" font-size="10.00">Rtypes.h</text>
</g>
<!-- Node11&#45;&gt;Node17 -->
<g id="edge18" class="edge"><title>Node11&#45;&gt;Node17</title>
<path fill="none" stroke="midnightblue" d="M802.053,-136.403C823.198,-126.334 858.44,-109.552 882.878,-97.9151"/>
<polygon fill="midnightblue" stroke="midnightblue" points="884.457,-101.04 891.981,-93.5806 881.447,-94.72 884.457,-101.04"/>
</g>
<!-- Node18 -->
<g id="node18" class="node"><title>Node18</title>
<polygon fill="none" stroke="#bfbfbf" points="956,-74.5 956,-93.5 1032,-93.5 1032,-74.5 956,-74.5"/>
<text text-anchor="middle" x="994" y="-81.5" font-family="Helvetica,sans-Serif" font-size="10.00">TGeoMatrix.h</text>
</g>
<!-- Node11&#45;&gt;Node18 -->
<g id="edge19" class="edge"><title>Node11&#45;&gt;Node18</title>
<path fill="none" stroke="midnightblue" d="M816.053,-136.42C848.797,-127.58 901.065,-113.258 946,-100 949.755,-98.892 953.668,-97.7119 957.567,-96.519"/>
<polygon fill="midnightblue" stroke="midnightblue" points="958.616,-99.8583 967.136,-93.561 956.548,-93.1705 958.616,-99.8583"/>
</g>
<!-- Node19 -->
<g id="node19" class="node"><title>Node19</title>
<polygon fill="none" stroke="#bfbfbf" points="1050.5,-74.5 1050.5,-93.5 1095.5,-93.5 1095.5,-74.5 1050.5,-74.5"/>
<text text-anchor="middle" x="1073" y="-81.5" font-family="Helvetica,sans-Serif" font-size="10.00">iosfwd</text>
</g>
<!-- Node11&#45;&gt;Node19 -->
<g id="edge20" class="edge"><title>Node11&#45;&gt;Node19</title>
<path fill="none" stroke="midnightblue" d="M846.636,-138.734C899.367,-132.351 976.316,-120.424 1041,-100 1043.14,-99.3245 1045.32,-98.5361 1047.49,-97.6806"/>
<polygon fill="midnightblue" stroke="midnightblue" points="1048.96,-100.855 1056.73,-93.6444 1046.16,-94.4403 1048.96,-100.855"/>
</g>
<!-- Node20 -->
<g id="node20" class="node"><title>Node20</title>
<g id="a_node20"><a xlink:href="../../d2/dd0/Cartesian2D_8h.html" target="_top" xlink:title="MathUtils/Cartesian2D.h">
<polygon fill="none" stroke="black" points="1113.5,-74.5 1113.5,-93.5 1238.5,-93.5 1238.5,-74.5 1113.5,-74.5"/>
<text text-anchor="middle" x="1176" y="-81.5" font-family="Helvetica,sans-Serif" font-size="10.00">MathUtils/Cartesian2D.h</text>
</a>
</g>
</g>
<!-- Node11&#45;&gt;Node20 -->
<g id="edge21" class="edge"><title>Node11&#45;&gt;Node20</title>
<path fill="none" stroke="midnightblue" d="M846.734,-137.415C911.39,-129.309 1015.02,-115.508 1104,-100 1111.52,-98.6891 1119.46,-97.1722 1127.2,-95.617"/>
<polygon fill="midnightblue" stroke="midnightblue" points="1128.13,-98.9995 1137.23,-93.5647 1126.73,-92.1417 1128.13,-98.9995"/>
</g>
<!-- Node21 -->
<g id="node21" class="node"><title>Node21</title>
<polygon fill="none" stroke="#bfbfbf" points="1009.5,-1 1009.5,-31 1160.5,-31 1160.5,-1 1009.5,-1"/>
<text text-anchor="start" x="1017.5" y="-19" font-family="Helvetica,sans-Serif" font-size="10.00">Math/GenVector/Displacement</text>
<text text-anchor="middle" x="1085" y="-8" font-family="Helvetica,sans-Serif" font-size="10.00">Vector2D.h</text>
</g>
<!-- Node20&#45;&gt;Node21 -->
<g id="edge22" class="edge"><title>Node20&#45;&gt;Node21</title>
<path fill="none" stroke="midnightblue" d="M1164.1,-74.3717C1151.22,-65.0286 1130.22,-49.7966 1113.09,-37.375"/>
<polygon fill="midnightblue" stroke="midnightblue" points="1114.7,-34.2194 1104.55,-31.1815 1110.59,-39.8859 1114.7,-34.2194"/>
</g>
<!-- Node22 -->
<g id="node22" class="node"><title>Node22</title>
<polygon fill="none" stroke="#bfbfbf" points="1179,-6.5 1179,-25.5 1355,-25.5 1355,-6.5 1179,-6.5"/>
<text text-anchor="middle" x="1267" y="-13.5" font-family="Helvetica,sans-Serif" font-size="10.00">Math/GenVector/PositionVector2D.h</text>
</g>
<!-- Node20&#45;&gt;Node22 -->
<g id="edge23" class="edge"><title>Node20&#45;&gt;Node22</title>
<path fill="none" stroke="midnightblue" d="M1187.9,-74.3717C1202.88,-63.5015 1228.86,-44.6602 1246.94,-31.5474"/>
<polygon fill="midnightblue" stroke="midnightblue" points="1249.06,-34.3349 1255.1,-25.6305 1244.95,-28.6684 1249.06,-34.3349"/>
</g>
<!-- Node23&#45;&gt;Node7 -->
<g id="edge25" class="edge"><title>Node23&#45;&gt;Node7</title>
<path fill="none" stroke="midnightblue" d="M919.567,-198.403C918.141,-189.849 915.908,-176.45 914.079,-165.476"/>
<polygon fill="midnightblue" stroke="midnightblue" points="917.527,-164.869 912.43,-155.581 910.622,-166.02 917.527,-164.869"/>
</g>
</g>
</svg>
        <g id="navigator" transform="translate(0 0)" fill="#404254">
                <rect fill="#f2f5e9" fill-opacity="0.5" stroke="#606060" stroke-width=".5" x="0" y="0" width="60" height="60"/>
                <use id="zoomplus" xlink:href="#zoomPlus" x="17" y="9" onmousedown="handleZoom(evt,'in')"/>
                <use id="zoomminus" xlink:href="#zoomMin" x="42" y="9" onmousedown="handleZoom(evt,'out')"/>
                <use id="reset" xlink:href="#resetDef" x="30" y="36" onmousedown="handleReset()"/>
                <g id="arrowUp" xlink:href="#dirArrow" transform="translate(30 24)" onmousedown="handlePan(0,-1)">
                  <use xlink:href="#rim" fill="#404040">
                        <set attributeName="fill" to="#808080" begin="arrowUp.mouseover" end="arrowUp.mouseout"/>
                  </use>
                  <path fill="none" stroke="white" stroke-width="1.5" d="M0,-3.0v7 M-2.5,-0.5L0,-3.0L2.5,-0.5"/>
                </g>
                <g id="arrowRight" xlink:href="#dirArrow" transform="rotate(90) translate(36 -43)" onmousedown="handlePan(1,0)">
                  <use xlink:href="#rim" fill="#404040">
                        <set attributeName="fill" to="#808080" begin="arrowRight.mouseover" end="arrowRight.mouseout"/>
                  </use>
                  <path fill="none" stroke="white" stroke-width="1.5" d="M0,-3.0v7 M-2.5,-0.5L0,-3.0L2.5,-0.5"/>
                </g>
                <g id="arrowDown" xlink:href="#dirArrow" transform="rotate(180) translate(-30 -48)" onmousedown="handlePan(0,1)">
                  <use xlink:href="#rim" fill="#404040">
                        <set attributeName="fill" to="#808080" begin="arrowDown.mouseover" end="arrowDown.mouseout"/>
                  </use>
                  <path fill="none" stroke="white" stroke-width="1.5" d="M0,-3.0v7 M-2.5,-0.5L0,-3.0L2.5,-0.5"/>
                </g>
                <g id="arrowLeft" xlink:href="#dirArrow" transform="rotate(270) translate(-36 17)" onmousedown="handlePan(-1,0)">
                  <use xlink:href="#rim" fill="#404040">
                        <set attributeName="fill" to="#808080" begin="arrowLeft.mouseover" end="arrowLeft.mouseout"/>
                  </use>
                  <path fill="none" stroke="white" stroke-width="1.5" d="M0,-3.0v7 M-2.5,-0.5L0,-3.0L2.5,-0.5"/>
                </g>
        </g>
        <svg viewBox="0 0 15 15" width="100%" height="30px" preserveAspectRatio="xMaxYMin meet">
         <g id="arrow_out" transform="scale(0.3 0.3)">
          <a xlink:href="testGeometry_8cxx__incl_org.svg" target="_base">
           <rect id="button" ry="5" rx="5" y="6" x="6" height="38" width="38"
                fill="#f2f5e9" fill-opacity="0.5" stroke="#606060" stroke-width="1.0"/>
           <path id="arrow"
             d="M 11.500037,31.436501 C 11.940474,20.09759 22.043105,11.32322 32.158766,21.979434 L 37.068811,17.246167 C 37.068811,17.246167 37.088388,32 37.088388,32 L 22.160133,31.978069 C 22.160133,31.978069 26.997745,27.140456 26.997745,27.140456 C 18.528582,18.264221 13.291696,25.230495 11.500037,31.436501 z"
             style="fill:#404040;"/>
          </a>
         </g>
        </svg>
</svg>
