<?xml version="1.0" encoding="UTF-8" standalone="no"?>
<!DOCTYPE svg PUBLIC "-//W3C//DTD SVG 1.1//EN"
 "http://www.w3.org/Graphics/SVG/1.1/DTD/svg11.dtd">
<!-- Generated by graphviz version 2.36.0 (20140111.2315)
 -->
<!-- Title: /home/travis/build/AliceO2Group/AliceO2/Detectors/ITSMFT/ITS/reconstruction/src/CA/Event.cxx Pages: 1 -->
<svg width="1128pt" height="536pt"
 viewBox="0.00 0.00 1128.00 536.00" xmlns="http://www.w3.org/2000/svg" xmlns:xlink="http://www.w3.org/1999/xlink">
<g id="graph0" class="graph" transform="scale(1 1) rotate(0) translate(4 532)">
<title>/home/travis/build/AliceO2Group/AliceO2/Detectors/ITSMFT/ITS/reconstruction/src/CA/Event.cxx</title>
<!-- Node1 -->
<g id="node1" class="node"><title>Node1</title>
<polygon fill="#bfbfbf" stroke="black" points="606,-464.5 606,-527.5 726,-527.5 726,-464.5 606,-464.5"/>
<text text-anchor="start" x="614" y="-515.5" font-family="Helvetica,sans-Serif" font-size="10.00">/home/travis/build</text>
<text text-anchor="start" x="614" y="-504.5" font-family="Helvetica,sans-Serif" font-size="10.00">/AliceO2Group/AliceO2</text>
<text text-anchor="start" x="614" y="-493.5" font-family="Helvetica,sans-Serif" font-size="10.00">/Detectors/ITSMFT/ITS</text>
<text text-anchor="start" x="614" y="-482.5" font-family="Helvetica,sans-Serif" font-size="10.00">/reconstruction/src/CA</text>
<text text-anchor="middle" x="666" y="-471.5" font-family="Helvetica,sans-Serif" font-size="10.00">/Event.cxx</text>
</g>
<!-- Node2 -->
<g id="node2" class="node"><title>Node2</title>
<g id="a_node2"><a xlink:href="../../d6/d8d/Event_8h.html" target="_top" xlink:title="ITSReconstruction/CA\l/Event.h">
<polygon fill="none" stroke="black" points="557,-397 557,-427 673,-427 673,-397 557,-397"/>
<text text-anchor="start" x="565" y="-415" font-family="Helvetica,sans-Serif" font-size="10.00">ITSReconstruction/CA</text>
<text text-anchor="middle" x="615" y="-404" font-family="Helvetica,sans-Serif" font-size="10.00">/Event.h</text>
</a>
</g>
</g>
<!-- Node1&#45;&gt;Node2 -->
<g id="edge1" class="edge"><title>Node1&#45;&gt;Node2</title>
<path fill="none" stroke="midnightblue" d="M647.009,-464.466C641.124,-455.004 634.743,-444.744 629.238,-435.893"/>
<polygon fill="midnightblue" stroke="midnightblue" points="632.13,-433.915 623.876,-427.272 626.186,-437.612 632.13,-433.915"/>
</g>
<!-- Node22 -->
<g id="node22" class="node"><title>Node22</title>
<polygon fill="none" stroke="#bfbfbf" points="691,-402.5 691,-421.5 745,-421.5 745,-402.5 691,-402.5"/>
<text text-anchor="middle" x="718" y="-409.5" font-family="Helvetica,sans-Serif" font-size="10.00">iostream</text>
</g>
<!-- Node1&#45;&gt;Node22 -->
<g id="edge38" class="edge"><title>Node1&#45;&gt;Node22</title>
<path fill="none" stroke="midnightblue" d="M685.363,-464.466C692.715,-452.872 700.827,-440.081 707.124,-430.151"/>
<polygon fill="midnightblue" stroke="midnightblue" points="710.121,-431.959 712.521,-421.64 704.21,-428.21 710.121,-431.959"/>
</g>
<!-- Node3 -->
<g id="node3" class="node"><title>Node3</title>
<polygon fill="none" stroke="#bfbfbf" points="133,-0.5 133,-19.5 171,-19.5 171,-0.5 133,-0.5"/>
<text text-anchor="middle" x="152" y="-7.5" font-family="Helvetica,sans-Serif" font-size="10.00">array</text>
</g>
<!-- Node2&#45;&gt;Node3 -->
<g id="edge2" class="edge"><title>Node2&#45;&gt;Node3</title>
<path fill="none" stroke="midnightblue" d="M556.865,-410.597C403.56,-407.973 0,-390.305 0,-277 0,-277 0,-277 0,-139 0,-75.3077 79.0528,-36.9104 123.138,-20.4495"/>
<polygon fill="midnightblue" stroke="midnightblue" points="124.519,-23.6725 132.749,-17.0006 122.155,-17.0838 124.519,-23.6725"/>
</g>
<!-- Node4 -->
<g id="node4" class="node"><title>Node4</title>
<polygon fill="none" stroke="#bfbfbf" points="80,-62.5 80,-81.5 124,-81.5 124,-62.5 80,-62.5"/>
<text text-anchor="middle" x="102" y="-69.5" font-family="Helvetica,sans-Serif" font-size="10.00">vector</text>
</g>
<!-- Node2&#45;&gt;Node4 -->
<g id="edge3" class="edge"><title>Node2&#45;&gt;Node4</title>
<path fill="none" stroke="midnightblue" d="M556.805,-408.809C417.432,-401.982 76,-375.233 76,-277 76,-277 76,-277 76,-207 76,-165.095 88.4055,-117.145 96.0783,-91.4964"/>
<polygon fill="midnightblue" stroke="midnightblue" points="99.5075,-92.2542 99.1182,-81.6665 92.82,-90.1861 99.5075,-92.2542"/>
</g>
<!-- Node5 -->
<g id="node5" class="node"><title>Node5</title>
<polygon fill="none" stroke="#bfbfbf" points="528,-130.5 528,-149.5 568,-149.5 568,-130.5 528,-130.5"/>
<text text-anchor="middle" x="548" y="-137.5" font-family="Helvetica,sans-Serif" font-size="10.00">utility</text>
</g>
<!-- Node2&#45;&gt;Node5 -->
<g id="edge4" class="edge"><title>Node2&#45;&gt;Node5</title>
<path fill="none" stroke="midnightblue" d="M585.655,-396.843C571.507,-388.312 555.919,-375.98 548,-360 514.586,-292.571 532.84,-198.497 542.842,-159.286"/>
<polygon fill="midnightblue" stroke="midnightblue" points="546.242,-160.117 545.449,-149.552 539.481,-158.306 546.242,-160.117"/>
</g>
<!-- Node6 -->
<g id="node6" class="node"><title>Node6</title>
<polygon fill="none" stroke="#bfbfbf" points="770.5,-266.5 770.5,-285.5 819.5,-285.5 819.5,-266.5 770.5,-266.5"/>
<text text-anchor="middle" x="795" y="-273.5" font-family="Helvetica,sans-Serif" font-size="10.00">cassert</text>
</g>
<!-- Node2&#45;&gt;Node6 -->
<g id="edge5" class="edge"><title>Node2&#45;&gt;Node6</title>
<path fill="none" stroke="midnightblue" d="M641.779,-396.834C659.175,-387.221 682.055,-373.793 701,-360 730.152,-338.776 760.931,-310.271 779.028,-292.792"/>
<polygon fill="midnightblue" stroke="midnightblue" points="781.684,-295.09 786.399,-285.602 776.796,-290.079 781.684,-295.09"/>
</g>
<!-- Node7 -->
<g id="node7" class="node"><title>Node7</title>
<polygon fill="none" stroke="#bfbfbf" points="837.5,-266.5 837.5,-285.5 882.5,-285.5 882.5,-266.5 837.5,-266.5"/>
<text text-anchor="middle" x="860" y="-273.5" font-family="Helvetica,sans-Serif" font-size="10.00">gsl/gsl</text>
</g>
<!-- Node2&#45;&gt;Node7 -->
<g id="edge6" class="edge"><title>Node2&#45;&gt;Node7</title>
<path fill="none" stroke="midnightblue" d="M652.516,-396.91C676.35,-387.478 707.576,-374.22 734,-360 773.271,-338.867 816.035,-309.133 840.278,-291.585"/>
<polygon fill="midnightblue" stroke="midnightblue" points="842.602,-294.222 848.617,-285.5 838.476,-288.568 842.602,-294.222"/>
</g>
<!-- Node8 -->
<g id="node8" class="node"><title>Node8</title>
<g id="a_node8"><a xlink:href="../../d5/d20/Detectors_2ITSMFT_2ITS_2reconstruction_2include_2ITSReconstruction_2CA_2Constants_8h.html" target="_top" xlink:title="ITSReconstruction/CA\l/Constants.h">
<polygon fill="none" stroke="black" points="242,-125 242,-155 358,-155 358,-125 242,-125"/>
<text text-anchor="start" x="250" y="-143" font-family="Helvetica,sans-Serif" font-size="10.00">ITSReconstruction/CA</text>
<text text-anchor="middle" x="300" y="-132" font-family="Helvetica,sans-Serif" font-size="10.00">/Constants.h</text>
</a>
</g>
</g>
<!-- Node2&#45;&gt;Node8 -->
<g id="edge7" class="edge"><title>Node2&#45;&gt;Node8</title>
<path fill="none" stroke="midnightblue" d="M569.711,-396.981C518.726,-379.323 435.862,-344.757 381,-292 343.076,-255.532 318.892,-197.382 307.564,-164.915"/>
<polygon fill="midnightblue" stroke="midnightblue" points="310.846,-163.695 304.337,-155.336 304.213,-165.93 310.846,-163.695"/>
</g>
<!-- Node11 -->
<g id="node11" class="node"><title>Node11</title>
<g id="a_node11"><a xlink:href="../../dc/dca/Layer_8h.html" target="_top" xlink:title="ITSReconstruction/CA\l/Layer.h">
<polygon fill="none" stroke="black" points="557,-329 557,-359 673,-359 673,-329 557,-329"/>
<text text-anchor="start" x="565" y="-347" font-family="Helvetica,sans-Serif" font-size="10.00">ITSReconstruction/CA</text>
<text text-anchor="middle" x="615" y="-336" font-family="Helvetica,sans-Serif" font-size="10.00">/Layer.h</text>
</a>
</g>
</g>
<!-- Node2&#45;&gt;Node11 -->
<g id="edge12" class="edge"><title>Node2&#45;&gt;Node11</title>
<path fill="none" stroke="midnightblue" d="M615,-396.679C615,-388.722 615,-378.605 615,-369.436"/>
<polygon fill="midnightblue" stroke="midnightblue" points="618.5,-369.293 615,-359.293 611.5,-369.293 618.5,-369.293"/>
</g>
<!-- Node16 -->
<g id="node16" class="node"><title>Node16</title>
<g id="a_node16"><a xlink:href="../../d7/dcd/MCCompLabel_8h.html" target="_top" xlink:title="SimulationDataFormat\l/MCCompLabel.h">
<polygon fill="none" stroke="black" points="638,-261 638,-291 752,-291 752,-261 638,-261"/>
<text text-anchor="start" x="646" y="-279" font-family="Helvetica,sans-Serif" font-size="10.00">SimulationDataFormat</text>
<text text-anchor="middle" x="695" y="-268" font-family="Helvetica,sans-Serif" font-size="10.00">/MCCompLabel.h</text>
</a>
</g>
</g>
<!-- Node2&#45;&gt;Node16 -->
<g id="edge31" class="edge"><title>Node2&#45;&gt;Node16</title>
<path fill="none" stroke="midnightblue" d="M641.849,-396.8C655.74,-388.048 671.694,-375.525 681,-360 691.539,-342.418 694.732,-319.184 695.465,-301.771"/>
<polygon fill="midnightblue" stroke="midnightblue" points="698.973,-301.344 695.644,-291.286 691.974,-301.225 698.973,-301.344"/>
</g>
<!-- Node18 -->
<g id="node18" class="node"><title>Node18</title>
<g id="a_node18"><a xlink:href="../../db/d14/MCTruthContainer_8h.html" target="_top" xlink:title="Definition of a container to keep Monte Carlo truth external to simulation objects. ">
<polygon fill="none" stroke="black" points="839,-329 839,-359 953,-359 953,-329 839,-329"/>
<text text-anchor="start" x="847" y="-347" font-family="Helvetica,sans-Serif" font-size="10.00">SimulationDataFormat</text>
<text text-anchor="middle" x="896" y="-336" font-family="Helvetica,sans-Serif" font-size="10.00">/MCTruthContainer.h</text>
</a>
</g>
</g>
<!-- Node2&#45;&gt;Node18 -->
<g id="edge32" class="edge"><title>Node2&#45;&gt;Node18</title>
<path fill="none" stroke="midnightblue" d="M673.223,-397.325C718.548,-386.679 781.509,-371.891 828.939,-360.751"/>
<polygon fill="midnightblue" stroke="midnightblue" points="829.878,-364.126 838.813,-358.432 828.277,-357.311 829.878,-364.126"/>
</g>
<!-- Node8&#45;&gt;Node4 -->
<g id="edge9" class="edge"><title>Node8&#45;&gt;Node4</title>
<path fill="none" stroke="midnightblue" d="M257.524,-124.841C220.452,-112.484 167.477,-94.8257 133.919,-83.6396"/>
<polygon fill="midnightblue" stroke="midnightblue" points="134.76,-80.2308 124.167,-80.3889 132.547,-86.8716 134.76,-80.2308"/>
</g>
<!-- Node9 -->
<g id="node9" class="node"><title>Node9</title>
<polygon fill="none" stroke="#bfbfbf" points="277.5,-62.5 277.5,-81.5 322.5,-81.5 322.5,-62.5 277.5,-62.5"/>
<text text-anchor="middle" x="300" y="-69.5" font-family="Helvetica,sans-Serif" font-size="10.00">climits</text>
</g>
<!-- Node8&#45;&gt;Node9 -->
<g id="edge8" class="edge"><title>Node8&#45;&gt;Node9</title>
<path fill="none" stroke="midnightblue" d="M300,-124.679C300,-115.101 300,-102.394 300,-91.9766"/>
<polygon fill="midnightblue" stroke="midnightblue" points="303.5,-91.8283 300,-81.8283 296.5,-91.8283 303.5,-91.8283"/>
</g>
<!-- Node10 -->
<g id="node10" class="node"><title>Node10</title>
<g id="a_node10"><a xlink:href="../../df/d3d/Definitions_8h.html" target="_top" xlink:title="ITSReconstruction/CA\l/Definitions.h">
<polygon fill="none" stroke="black" points="447,-57 447,-87 563,-87 563,-57 447,-57"/>
<text text-anchor="start" x="455" y="-75" font-family="Helvetica,sans-Serif" font-size="10.00">ITSReconstruction/CA</text>
<text text-anchor="middle" x="505" y="-64" font-family="Helvetica,sans-Serif" font-size="10.00">/Definitions.h</text>
</a>
</g>
</g>
<!-- Node8&#45;&gt;Node10 -->
<g id="edge10" class="edge"><title>Node8&#45;&gt;Node10</title>
<path fill="none" stroke="midnightblue" d="M343.726,-124.922C375.299,-114.757 418.108,-100.975 451.687,-90.1643"/>
<polygon fill="midnightblue" stroke="midnightblue" points="452.895,-93.4523 461.341,-87.0561 450.75,-86.7891 452.895,-93.4523"/>
</g>
<!-- Node10&#45;&gt;Node3 -->
<g id="edge11" class="edge"><title>Node10&#45;&gt;Node3</title>
<path fill="none" stroke="midnightblue" d="M446.887,-58.6507C442.194,-57.7273 437.521,-56.8324 433,-56 341.367,-39.1272 232.248,-22.6933 181.133,-15.208"/>
<polygon fill="midnightblue" stroke="midnightblue" points="181.533,-11.7295 171.133,-13.7496 180.523,-18.6562 181.533,-11.7295"/>
</g>
<!-- Node11&#45;&gt;Node4 -->
<g id="edge13" class="edge"><title>Node11&#45;&gt;Node4</title>
<path fill="none" stroke="midnightblue" d="M556.927,-343.277C464.023,-340.615 281.245,-322.198 171,-224 130.554,-187.974 112.307,-123.472 105.463,-91.713"/>
<polygon fill="midnightblue" stroke="midnightblue" points="108.834,-90.7243 103.437,-81.6073 101.971,-92.1002 108.834,-90.7243"/>
</g>
<!-- Node11&#45;&gt;Node5 -->
<g id="edge14" class="edge"><title>Node11&#45;&gt;Node5</title>
<path fill="none" stroke="midnightblue" d="M609.489,-328.778C605.592,-318.585 600.314,-304.505 596,-292 579.606,-244.48 562.158,-187.859 553.515,-159.345"/>
<polygon fill="midnightblue" stroke="midnightblue" points="556.803,-158.124 550.561,-149.562 550.101,-160.147 556.803,-158.124"/>
</g>
<!-- Node11&#45;&gt;Node10 -->
<g id="edge28" class="edge"><title>Node11&#45;&gt;Node10</title>
<path fill="none" stroke="midnightblue" d="M616.074,-328.893C618.183,-292.064 619.438,-191.218 577,-124 568.827,-111.055 556.063,-100.445 543.538,-92.3195"/>
<polygon fill="midnightblue" stroke="midnightblue" points="545.324,-89.3094 534.964,-87.0928 541.68,-95.2864 545.324,-89.3094"/>
</g>
<!-- Node12 -->
<g id="node12" class="node"><title>Node12</title>
<g id="a_node12"><a xlink:href="../../d6/d7c/Detectors_2ITSMFT_2ITS_2reconstruction_2include_2ITSReconstruction_2CA_2Cluster_8h.html" target="_top" xlink:title="ITSReconstruction/CA\l/Cluster.h">
<polygon fill="none" stroke="black" points="390,-261 390,-291 506,-291 506,-261 390,-261"/>
<text text-anchor="start" x="398" y="-279" font-family="Helvetica,sans-Serif" font-size="10.00">ITSReconstruction/CA</text>
<text text-anchor="middle" x="448" y="-268" font-family="Helvetica,sans-Serif" font-size="10.00">/Cluster.h</text>
</a>
</g>
</g>
<!-- Node11&#45;&gt;Node12 -->
<g id="edge15" class="edge"><title>Node11&#45;&gt;Node12</title>
<path fill="none" stroke="midnightblue" d="M579.174,-328.841C553.994,-318.89 520.115,-305.5 493.095,-294.822"/>
<polygon fill="midnightblue" stroke="midnightblue" points="494.066,-291.442 483.479,-291.022 491.493,-297.952 494.066,-291.442"/>
</g>
<!-- Node11&#45;&gt;Node16 -->
<g id="edge29" class="edge"><title>Node11&#45;&gt;Node16</title>
<path fill="none" stroke="midnightblue" d="M632.359,-328.679C643.336,-319.623 657.706,-307.768 669.913,-297.697"/>
<polygon fill="midnightblue" stroke="midnightblue" points="672.463,-300.13 677.95,-291.066 668.009,-294.73 672.463,-300.13"/>
</g>
<!-- Node12&#45;&gt;Node3 -->
<g id="edge16" class="edge"><title>Node12&#45;&gt;Node3</title>
<path fill="none" stroke="midnightblue" d="M389.919,-269.372C319.761,-261.713 206.694,-246.35 171,-224 107.411,-184.184 94.3876,-159.287 71,-88 66.5665,-74.4865 63.7875,-68.2577 71,-56 82.22,-36.9315 104.763,-25.3636 123.224,-18.7407"/>
<polygon fill="midnightblue" stroke="midnightblue" points="124.547,-21.9905 132.962,-15.5538 122.37,-15.3376 124.547,-21.9905"/>
</g>
<!-- Node12&#45;&gt;Node10 -->
<g id="edge17" class="edge"><title>Node12&#45;&gt;Node10</title>
<path fill="none" stroke="midnightblue" d="M457.35,-260.841C463.507,-250.909 471.274,-237.113 476,-224 491.558,-180.833 499.297,-127.558 502.704,-97.2098"/>
<polygon fill="midnightblue" stroke="midnightblue" points="506.199,-97.4401 503.769,-87.1276 499.238,-96.7044 506.199,-97.4401"/>
</g>
<!-- Node13 -->
<g id="node13" class="node"><title>Node13</title>
<g id="a_node13"><a xlink:href="../../dc/d3e/MathUtils_8h.html" target="_top" xlink:title="ITSReconstruction/CA\l/MathUtils.h">
<polygon fill="none" stroke="black" points="180,-193 180,-223 296,-223 296,-193 180,-193"/>
<text text-anchor="start" x="188" y="-211" font-family="Helvetica,sans-Serif" font-size="10.00">ITSReconstruction/CA</text>
<text text-anchor="middle" x="238" y="-200" font-family="Helvetica,sans-Serif" font-size="10.00">/MathUtils.h</text>
</a>
</g>
</g>
<!-- Node12&#45;&gt;Node13 -->
<g id="edge18" class="edge"><title>Node12&#45;&gt;Node13</title>
<path fill="none" stroke="midnightblue" d="M403.207,-260.922C370.865,-250.757 327.011,-236.975 292.614,-226.164"/>
<polygon fill="midnightblue" stroke="midnightblue" points="293.313,-222.715 282.724,-223.056 291.214,-229.393 293.313,-222.715"/>
</g>
<!-- Node15 -->
<g id="node15" class="node"><title>Node15</title>
<g id="a_node15"><a xlink:href="../../d2/d0c/IndexTableUtils_8h.html" target="_top" xlink:title="ITSReconstruction/CA\l/IndexTableUtils.h">
<polygon fill="none" stroke="black" points="352,-193 352,-223 468,-223 468,-193 352,-193"/>
<text text-anchor="start" x="360" y="-211" font-family="Helvetica,sans-Serif" font-size="10.00">ITSReconstruction/CA</text>
<text text-anchor="middle" x="410" y="-200" font-family="Helvetica,sans-Serif" font-size="10.00">/IndexTableUtils.h</text>
</a>
</g>
</g>
<!-- Node12&#45;&gt;Node15 -->
<g id="edge22" class="edge"><title>Node12&#45;&gt;Node15</title>
<path fill="none" stroke="midnightblue" d="M439.755,-260.679C434.974,-252.376 428.839,-241.721 423.384,-232.245"/>
<polygon fill="midnightblue" stroke="midnightblue" points="426.252,-230.213 418.229,-223.293 420.186,-233.706 426.252,-230.213"/>
</g>
<!-- Node13&#45;&gt;Node3 -->
<g id="edge19" class="edge"><title>Node13&#45;&gt;Node3</title>
<path fill="none" stroke="midnightblue" d="M210.18,-192.814C196.093,-184.139 180.089,-171.683 171,-156 147.624,-115.664 148.007,-58.5905 150.092,-29.5436"/>
<polygon fill="midnightblue" stroke="midnightblue" points="153.58,-29.8283 150.961,-19.5624 146.607,-29.2213 153.58,-29.8283"/>
</g>
<!-- Node13&#45;&gt;Node8 -->
<g id="edge21" class="edge"><title>Node13&#45;&gt;Node8</title>
<path fill="none" stroke="midnightblue" d="M251.453,-192.679C259.659,-183.944 270.311,-172.605 279.545,-162.775"/>
<polygon fill="midnightblue" stroke="midnightblue" points="282.277,-164.978 286.573,-155.293 277.175,-160.185 282.277,-164.978"/>
</g>
<!-- Node14 -->
<g id="node14" class="node"><title>Node14</title>
<polygon fill="none" stroke="#bfbfbf" points="180,-130.5 180,-149.5 224,-149.5 224,-130.5 180,-130.5"/>
<text text-anchor="middle" x="202" y="-137.5" font-family="Helvetica,sans-Serif" font-size="10.00">cmath</text>
</g>
<!-- Node13&#45;&gt;Node14 -->
<g id="edge20" class="edge"><title>Node13&#45;&gt;Node14</title>
<path fill="none" stroke="midnightblue" d="M230.189,-192.679C224.742,-182.694 217.44,-169.307 211.633,-158.66"/>
<polygon fill="midnightblue" stroke="midnightblue" points="214.677,-156.931 206.815,-149.828 208.531,-160.283 214.677,-156.931"/>
</g>
<!-- Node15&#45;&gt;Node3 -->
<g id="edge23" class="edge"><title>Node15&#45;&gt;Node3</title>
<path fill="none" stroke="midnightblue" d="M409.372,-192.738C408.115,-175.575 404.339,-146.286 393,-124 374.454,-87.5482 366.102,-76.989 331,-56 283.441,-27.5625 218.456,-17.0105 181.289,-13.1568"/>
<polygon fill="midnightblue" stroke="midnightblue" points="181.423,-9.65403 171.139,-12.2006 180.766,-16.6232 181.423,-9.65403"/>
</g>
<!-- Node15&#45;&gt;Node4 -->
<g id="edge25" class="edge"><title>Node15&#45;&gt;Node4</title>
<path fill="none" stroke="midnightblue" d="M406.555,-192.752C401.218,-173.902 389.073,-141.075 366,-124 329.553,-97.0284 196.401,-81.6234 134.298,-75.7618"/>
<polygon fill="midnightblue" stroke="midnightblue" points="134.544,-72.2698 124.266,-74.84 133.903,-79.2404 134.544,-72.2698"/>
</g>
<!-- Node15&#45;&gt;Node5 -->
<g id="edge24" class="edge"><title>Node15&#45;&gt;Node5</title>
<path fill="none" stroke="midnightblue" d="M439.604,-192.841C463.688,-181.323 497.402,-165.199 520.811,-154.004"/>
<polygon fill="midnightblue" stroke="midnightblue" points="522.336,-157.154 529.847,-149.682 519.316,-150.839 522.336,-157.154"/>
</g>
<!-- Node15&#45;&gt;Node8 -->
<g id="edge26" class="edge"><title>Node15&#45;&gt;Node8</title>
<path fill="none" stroke="midnightblue" d="M386.402,-192.841C370.598,-183.359 349.59,-170.754 332.247,-160.348"/>
<polygon fill="midnightblue" stroke="midnightblue" points="333.934,-157.279 323.559,-155.135 330.333,-163.281 333.934,-157.279"/>
</g>
<!-- Node15&#45;&gt;Node10 -->
<g id="edge27" class="edge"><title>Node15&#45;&gt;Node10</title>
<path fill="none" stroke="midnightblue" d="M420.167,-192.66C436.666,-169.387 469.4,-123.215 489.03,-95.5256"/>
<polygon fill="midnightblue" stroke="midnightblue" points="491.978,-97.4194 494.906,-87.2372 486.268,-93.3708 491.978,-97.4194"/>
</g>
<!-- Node17 -->
<g id="node17" class="node"><title>Node17</title>
<polygon fill="none" stroke="#bfbfbf" points="667,-198.5 667,-217.5 723,-217.5 723,-198.5 667,-198.5"/>
<text text-anchor="middle" x="695" y="-205.5" font-family="Helvetica,sans-Serif" font-size="10.00">Rtypes.h</text>
</g>
<!-- Node16&#45;&gt;Node17 -->
<g id="edge30" class="edge"><title>Node16&#45;&gt;Node17</title>
<path fill="none" stroke="midnightblue" d="M695,-260.679C695,-251.101 695,-238.394 695,-227.977"/>
<polygon fill="midnightblue" stroke="midnightblue" points="698.5,-227.828 695,-217.828 691.5,-227.828 698.5,-227.828"/>
</g>
<!-- Node18&#45;&gt;Node6 -->
<g id="edge34" class="edge"><title>Node18&#45;&gt;Node6</title>
<path fill="none" stroke="midnightblue" d="M874.085,-328.679C857.147,-317.611 833.813,-302.363 816.884,-291.3"/>
<polygon fill="midnightblue" stroke="midnightblue" points="818.504,-288.178 808.219,-285.638 814.675,-294.038 818.504,-288.178"/>
</g>
<!-- Node18&#45;&gt;Node7 -->
<g id="edge36" class="edge"><title>Node18&#45;&gt;Node7</title>
<path fill="none" stroke="midnightblue" d="M888.189,-328.679C882.742,-318.694 875.44,-305.307 869.633,-294.66"/>
<polygon fill="midnightblue" stroke="midnightblue" points="872.677,-292.931 864.815,-285.828 866.531,-296.283 872.677,-292.931"/>
</g>
<!-- Node19 -->
<g id="node19" class="node"><title>Node19</title>
<polygon fill="none" stroke="#bfbfbf" points="981,-266.5 981,-285.5 1043,-285.5 1043,-266.5 981,-266.5"/>
<text text-anchor="middle" x="1012" y="-273.5" font-family="Helvetica,sans-Serif" font-size="10.00">TNamed.h</text>
</g>
<!-- Node18&#45;&gt;Node19 -->
<g id="edge33" class="edge"><title>Node18&#45;&gt;Node19</title>
<path fill="none" stroke="midnightblue" d="M920.885,-328.841C940.68,-317.579 968.213,-301.913 987.821,-290.757"/>
<polygon fill="midnightblue" stroke="midnightblue" points="989.78,-293.669 996.741,-285.682 986.318,-287.585 989.78,-293.669"/>
</g>
<!-- Node20 -->
<g id="node20" class="node"><title>Node20</title>
<polygon fill="none" stroke="#bfbfbf" points="1061.5,-266.5 1061.5,-285.5 1120.5,-285.5 1120.5,-266.5 1061.5,-266.5"/>
<text text-anchor="middle" x="1091" y="-273.5" font-family="Helvetica,sans-Serif" font-size="10.00">stdexcept</text>
</g>
<!-- Node18&#45;&gt;Node20 -->
<g id="edge35" class="edge"><title>Node18&#45;&gt;Node20</title>
<path fill="none" stroke="midnightblue" d="M940.258,-328.969C971.351,-318.982 1013.85,-305.07 1051,-292 1053.6,-291.085 1056.29,-290.12 1058.98,-289.139"/>
<polygon fill="midnightblue" stroke="midnightblue" points="1060.47,-292.321 1068.63,-285.571 1058.04,-285.755 1060.47,-292.321"/>
</g>
<!-- Node21 -->
<g id="node21" class="node"><title>Node21</title>
<polygon fill="none" stroke="#bfbfbf" points="901,-266.5 901,-285.5 963,-285.5 963,-266.5 901,-266.5"/>
<text text-anchor="middle" x="932" y="-273.5" font-family="Helvetica,sans-Serif" font-size="10.00">type_traits</text>
</g>
<!-- Node18&#45;&gt;Node21 -->
<g id="edge37" class="edge"><title>Node18&#45;&gt;Node21</title>
<path fill="none" stroke="midnightblue" d="M903.811,-328.679C909.258,-318.694 916.56,-305.307 922.367,-294.66"/>
<polygon fill="midnightblue" stroke="midnightblue" points="925.469,-296.283 927.185,-285.828 919.323,-292.931 925.469,-296.283"/>
</g>
</g>
</svg>
